%TF.GenerationSoftware,KiCad,Pcbnew,(6.0.0-0)*%
%TF.CreationDate,2022-10-07T18:10:28-04:00*%
%TF.ProjectId,hermes_v1,6865726d-6573-45f7-9631-2e6b69636164,rev?*%
%TF.SameCoordinates,Original*%
%TF.FileFunction,Legend,Bot*%
%TF.FilePolarity,Positive*%
%FSLAX46Y46*%
G04 Gerber Fmt 4.6, Leading zero omitted, Abs format (unit mm)*
G04 Created by KiCad (PCBNEW (6.0.0-0)) date 2022-10-07 18:10:28*
%MOMM*%
%LPD*%
G01*
G04 APERTURE LIST*
%ADD10C,0.125000*%
%ADD11C,0.250000*%
%ADD12C,0.200000*%
%ADD13C,0.120000*%
G04 APERTURE END LIST*
D10*
X256096666Y-39858666D02*
X256096666Y-39158666D01*
X255830000Y-39158666D01*
X255763333Y-39192000D01*
X255730000Y-39225333D01*
X255696666Y-39292000D01*
X255696666Y-39392000D01*
X255730000Y-39458666D01*
X255763333Y-39492000D01*
X255830000Y-39525333D01*
X256096666Y-39525333D01*
X255396666Y-39858666D02*
X255396666Y-39392000D01*
X255396666Y-39158666D02*
X255430000Y-39192000D01*
X255396666Y-39225333D01*
X255363333Y-39192000D01*
X255396666Y-39158666D01*
X255396666Y-39225333D01*
X255063333Y-39392000D02*
X255063333Y-39858666D01*
X255063333Y-39458666D02*
X255030000Y-39425333D01*
X254963333Y-39392000D01*
X254863333Y-39392000D01*
X254796666Y-39425333D01*
X254763333Y-39492000D01*
X254763333Y-39858666D01*
X253896666Y-39858666D02*
X253896666Y-39158666D01*
X253730000Y-39158666D01*
X253630000Y-39192000D01*
X253563333Y-39258666D01*
X253530000Y-39325333D01*
X253496666Y-39458666D01*
X253496666Y-39558666D01*
X253530000Y-39692000D01*
X253563333Y-39758666D01*
X253630000Y-39825333D01*
X253730000Y-39858666D01*
X253896666Y-39858666D01*
X252930000Y-39825333D02*
X252996666Y-39858666D01*
X253130000Y-39858666D01*
X253196666Y-39825333D01*
X253230000Y-39758666D01*
X253230000Y-39492000D01*
X253196666Y-39425333D01*
X253130000Y-39392000D01*
X252996666Y-39392000D01*
X252930000Y-39425333D01*
X252896666Y-39492000D01*
X252896666Y-39558666D01*
X253230000Y-39625333D01*
X252696666Y-39392000D02*
X252430000Y-39392000D01*
X252596666Y-39858666D02*
X252596666Y-39258666D01*
X252563333Y-39192000D01*
X252496666Y-39158666D01*
X252430000Y-39158666D01*
X252196666Y-39858666D02*
X252196666Y-39392000D01*
X252196666Y-39158666D02*
X252230000Y-39192000D01*
X252196666Y-39225333D01*
X252163333Y-39192000D01*
X252196666Y-39158666D01*
X252196666Y-39225333D01*
X251863333Y-39392000D02*
X251863333Y-39858666D01*
X251863333Y-39458666D02*
X251830000Y-39425333D01*
X251763333Y-39392000D01*
X251663333Y-39392000D01*
X251596666Y-39425333D01*
X251563333Y-39492000D01*
X251563333Y-39858666D01*
X251230000Y-39858666D02*
X251230000Y-39392000D01*
X251230000Y-39158666D02*
X251263333Y-39192000D01*
X251230000Y-39225333D01*
X251196666Y-39192000D01*
X251230000Y-39158666D01*
X251230000Y-39225333D01*
X250996666Y-39392000D02*
X250730000Y-39392000D01*
X250896666Y-39158666D02*
X250896666Y-39758666D01*
X250863333Y-39825333D01*
X250796666Y-39858666D01*
X250730000Y-39858666D01*
X250496666Y-39858666D02*
X250496666Y-39392000D01*
X250496666Y-39158666D02*
X250530000Y-39192000D01*
X250496666Y-39225333D01*
X250463333Y-39192000D01*
X250496666Y-39158666D01*
X250496666Y-39225333D01*
X250063333Y-39858666D02*
X250130000Y-39825333D01*
X250163333Y-39792000D01*
X250196666Y-39725333D01*
X250196666Y-39525333D01*
X250163333Y-39458666D01*
X250130000Y-39425333D01*
X250063333Y-39392000D01*
X249963333Y-39392000D01*
X249896666Y-39425333D01*
X249863333Y-39458666D01*
X249830000Y-39525333D01*
X249830000Y-39725333D01*
X249863333Y-39792000D01*
X249896666Y-39825333D01*
X249963333Y-39858666D01*
X250063333Y-39858666D01*
X249530000Y-39392000D02*
X249530000Y-39858666D01*
X249530000Y-39458666D02*
X249496666Y-39425333D01*
X249430000Y-39392000D01*
X249330000Y-39392000D01*
X249263333Y-39425333D01*
X249230000Y-39492000D01*
X249230000Y-39858666D01*
X248930000Y-39825333D02*
X248863333Y-39858666D01*
X248730000Y-39858666D01*
X248663333Y-39825333D01*
X248630000Y-39758666D01*
X248630000Y-39725333D01*
X248663333Y-39658666D01*
X248730000Y-39625333D01*
X248830000Y-39625333D01*
X248896666Y-39592000D01*
X248930000Y-39525333D01*
X248930000Y-39492000D01*
X248896666Y-39425333D01*
X248830000Y-39392000D01*
X248730000Y-39392000D01*
X248663333Y-39425333D01*
X256113333Y-40352333D02*
X255980000Y-40252333D01*
X255846666Y-40352333D01*
X255713333Y-40352333D02*
X255580000Y-40252333D01*
X255446666Y-40352333D01*
X255313333Y-40352333D02*
X255180000Y-40252333D01*
X255046666Y-40352333D01*
X254913333Y-40352333D02*
X254780000Y-40252333D01*
X254646666Y-40352333D01*
X254513333Y-40352333D02*
X254380000Y-40252333D01*
X254246666Y-40352333D01*
X254113333Y-40352333D02*
X253980000Y-40252333D01*
X253846666Y-40352333D01*
X253713333Y-40352333D02*
X253580000Y-40252333D01*
X253446666Y-40352333D01*
X253313333Y-40352333D02*
X253180000Y-40252333D01*
X253046666Y-40352333D01*
X252913333Y-40352333D02*
X252780000Y-40252333D01*
X252646666Y-40352333D01*
X252513333Y-40352333D02*
X252380000Y-40252333D01*
X252246666Y-40352333D01*
X252113333Y-40352333D02*
X251980000Y-40252333D01*
X251846666Y-40352333D01*
X251713333Y-40352333D02*
X251580000Y-40252333D01*
X251446666Y-40352333D01*
X251313333Y-40352333D02*
X251180000Y-40252333D01*
X251046666Y-40352333D01*
X250913333Y-40352333D02*
X250780000Y-40252333D01*
X250646666Y-40352333D01*
X250513333Y-40352333D02*
X250380000Y-40252333D01*
X250246666Y-40352333D01*
X250113333Y-40352333D02*
X249980000Y-40252333D01*
X249846666Y-40352333D01*
X249713333Y-40352333D02*
X249580000Y-40252333D01*
X249446666Y-40352333D01*
X249313333Y-40352333D02*
X249180000Y-40252333D01*
X249046666Y-40352333D01*
X248913333Y-40352333D02*
X248780000Y-40252333D01*
X248646666Y-40352333D01*
X257096666Y-41446000D02*
X257163333Y-41412666D01*
X257263333Y-41412666D01*
X257363333Y-41446000D01*
X257430000Y-41512666D01*
X257463333Y-41579333D01*
X257496666Y-41712666D01*
X257496666Y-41812666D01*
X257463333Y-41946000D01*
X257430000Y-42012666D01*
X257363333Y-42079333D01*
X257263333Y-42112666D01*
X257196666Y-42112666D01*
X257096666Y-42079333D01*
X257063333Y-42046000D01*
X257063333Y-41812666D01*
X257196666Y-41812666D01*
X256763333Y-42112666D02*
X256763333Y-41412666D01*
X256496666Y-41412666D01*
X256430000Y-41446000D01*
X256396666Y-41479333D01*
X256363333Y-41546000D01*
X256363333Y-41646000D01*
X256396666Y-41712666D01*
X256430000Y-41746000D01*
X256496666Y-41779333D01*
X256763333Y-41779333D01*
X256063333Y-42112666D02*
X256063333Y-41412666D01*
X255596666Y-41412666D02*
X255463333Y-41412666D01*
X255396666Y-41446000D01*
X255330000Y-41512666D01*
X255296666Y-41646000D01*
X255296666Y-41879333D01*
X255330000Y-42012666D01*
X255396666Y-42079333D01*
X255463333Y-42112666D01*
X255596666Y-42112666D01*
X255663333Y-42079333D01*
X255730000Y-42012666D01*
X255763333Y-41879333D01*
X255763333Y-41646000D01*
X255730000Y-41512666D01*
X255663333Y-41446000D01*
X255596666Y-41412666D01*
X254863333Y-41412666D02*
X254796666Y-41412666D01*
X254730000Y-41446000D01*
X254696666Y-41479333D01*
X254663333Y-41546000D01*
X254630000Y-41679333D01*
X254630000Y-41846000D01*
X254663333Y-41979333D01*
X254696666Y-42046000D01*
X254730000Y-42079333D01*
X254796666Y-42112666D01*
X254863333Y-42112666D01*
X254930000Y-42079333D01*
X254963333Y-42046000D01*
X254996666Y-41979333D01*
X255030000Y-41846000D01*
X255030000Y-41679333D01*
X254996666Y-41546000D01*
X254963333Y-41479333D01*
X254930000Y-41446000D01*
X254863333Y-41412666D01*
X253796666Y-41846000D02*
X253263333Y-41846000D01*
X252430000Y-42079333D02*
X252330000Y-42112666D01*
X252163333Y-42112666D01*
X252096666Y-42079333D01*
X252063333Y-42046000D01*
X252030000Y-41979333D01*
X252030000Y-41912666D01*
X252063333Y-41846000D01*
X252096666Y-41812666D01*
X252163333Y-41779333D01*
X252296666Y-41746000D01*
X252363333Y-41712666D01*
X252396666Y-41679333D01*
X252430000Y-41612666D01*
X252430000Y-41546000D01*
X252396666Y-41479333D01*
X252363333Y-41446000D01*
X252296666Y-41412666D01*
X252130000Y-41412666D01*
X252030000Y-41446000D01*
X251730000Y-42112666D02*
X251730000Y-41412666D01*
X251463333Y-41412666D01*
X251396666Y-41446000D01*
X251363333Y-41479333D01*
X251330000Y-41546000D01*
X251330000Y-41646000D01*
X251363333Y-41712666D01*
X251396666Y-41746000D01*
X251463333Y-41779333D01*
X251730000Y-41779333D01*
X251030000Y-42112666D02*
X251030000Y-41412666D01*
X250563333Y-41412666D02*
X250496666Y-41412666D01*
X250430000Y-41446000D01*
X250396666Y-41479333D01*
X250363333Y-41546000D01*
X250330000Y-41679333D01*
X250330000Y-41846000D01*
X250363333Y-41979333D01*
X250396666Y-42046000D01*
X250430000Y-42079333D01*
X250496666Y-42112666D01*
X250563333Y-42112666D01*
X250630000Y-42079333D01*
X250663333Y-42046000D01*
X250696666Y-41979333D01*
X250730000Y-41846000D01*
X250730000Y-41679333D01*
X250696666Y-41546000D01*
X250663333Y-41479333D01*
X250630000Y-41446000D01*
X250563333Y-41412666D01*
X249496666Y-42112666D02*
X249496666Y-41412666D01*
X249263333Y-41912666D01*
X249030000Y-41412666D01*
X249030000Y-42112666D01*
X248563333Y-41412666D02*
X248430000Y-41412666D01*
X248363333Y-41446000D01*
X248296666Y-41512666D01*
X248263333Y-41646000D01*
X248263333Y-41879333D01*
X248296666Y-42012666D01*
X248363333Y-42079333D01*
X248430000Y-42112666D01*
X248563333Y-42112666D01*
X248630000Y-42079333D01*
X248696666Y-42012666D01*
X248730000Y-41879333D01*
X248730000Y-41646000D01*
X248696666Y-41512666D01*
X248630000Y-41446000D01*
X248563333Y-41412666D01*
X247996666Y-42079333D02*
X247896666Y-42112666D01*
X247730000Y-42112666D01*
X247663333Y-42079333D01*
X247630000Y-42046000D01*
X247596666Y-41979333D01*
X247596666Y-41912666D01*
X247630000Y-41846000D01*
X247663333Y-41812666D01*
X247730000Y-41779333D01*
X247863333Y-41746000D01*
X247930000Y-41712666D01*
X247963333Y-41679333D01*
X247996666Y-41612666D01*
X247996666Y-41546000D01*
X247963333Y-41479333D01*
X247930000Y-41446000D01*
X247863333Y-41412666D01*
X247696666Y-41412666D01*
X247596666Y-41446000D01*
X247296666Y-42112666D02*
X247296666Y-41412666D01*
X256513333Y-42573000D02*
X256580000Y-42539666D01*
X256680000Y-42539666D01*
X256780000Y-42573000D01*
X256846666Y-42639666D01*
X256880000Y-42706333D01*
X256913333Y-42839666D01*
X256913333Y-42939666D01*
X256880000Y-43073000D01*
X256846666Y-43139666D01*
X256780000Y-43206333D01*
X256680000Y-43239666D01*
X256613333Y-43239666D01*
X256513333Y-43206333D01*
X256480000Y-43173000D01*
X256480000Y-42939666D01*
X256613333Y-42939666D01*
X256180000Y-43239666D02*
X256180000Y-42539666D01*
X255913333Y-42539666D01*
X255846666Y-42573000D01*
X255813333Y-42606333D01*
X255780000Y-42673000D01*
X255780000Y-42773000D01*
X255813333Y-42839666D01*
X255846666Y-42873000D01*
X255913333Y-42906333D01*
X256180000Y-42906333D01*
X255480000Y-43239666D02*
X255480000Y-42539666D01*
X255013333Y-42539666D02*
X254880000Y-42539666D01*
X254813333Y-42573000D01*
X254746666Y-42639666D01*
X254713333Y-42773000D01*
X254713333Y-43006333D01*
X254746666Y-43139666D01*
X254813333Y-43206333D01*
X254880000Y-43239666D01*
X255013333Y-43239666D01*
X255080000Y-43206333D01*
X255146666Y-43139666D01*
X255180000Y-43006333D01*
X255180000Y-42773000D01*
X255146666Y-42639666D01*
X255080000Y-42573000D01*
X255013333Y-42539666D01*
X254046666Y-43239666D02*
X254446666Y-43239666D01*
X254246666Y-43239666D02*
X254246666Y-42539666D01*
X254313333Y-42639666D01*
X254380000Y-42706333D01*
X254446666Y-42739666D01*
X253213333Y-42973000D02*
X252680000Y-42973000D01*
X251846666Y-43206333D02*
X251746666Y-43239666D01*
X251580000Y-43239666D01*
X251513333Y-43206333D01*
X251480000Y-43173000D01*
X251446666Y-43106333D01*
X251446666Y-43039666D01*
X251480000Y-42973000D01*
X251513333Y-42939666D01*
X251580000Y-42906333D01*
X251713333Y-42873000D01*
X251780000Y-42839666D01*
X251813333Y-42806333D01*
X251846666Y-42739666D01*
X251846666Y-42673000D01*
X251813333Y-42606333D01*
X251780000Y-42573000D01*
X251713333Y-42539666D01*
X251546666Y-42539666D01*
X251446666Y-42573000D01*
X251146666Y-43239666D02*
X251146666Y-42539666D01*
X250880000Y-42539666D01*
X250813333Y-42573000D01*
X250780000Y-42606333D01*
X250746666Y-42673000D01*
X250746666Y-42773000D01*
X250780000Y-42839666D01*
X250813333Y-42873000D01*
X250880000Y-42906333D01*
X251146666Y-42906333D01*
X250446666Y-43239666D02*
X250446666Y-42539666D01*
X249980000Y-42539666D02*
X249913333Y-42539666D01*
X249846666Y-42573000D01*
X249813333Y-42606333D01*
X249780000Y-42673000D01*
X249746666Y-42806333D01*
X249746666Y-42973000D01*
X249780000Y-43106333D01*
X249813333Y-43173000D01*
X249846666Y-43206333D01*
X249913333Y-43239666D01*
X249980000Y-43239666D01*
X250046666Y-43206333D01*
X250080000Y-43173000D01*
X250113333Y-43106333D01*
X250146666Y-42973000D01*
X250146666Y-42806333D01*
X250113333Y-42673000D01*
X250080000Y-42606333D01*
X250046666Y-42573000D01*
X249980000Y-42539666D01*
X248513333Y-43173000D02*
X248546666Y-43206333D01*
X248646666Y-43239666D01*
X248713333Y-43239666D01*
X248813333Y-43206333D01*
X248880000Y-43139666D01*
X248913333Y-43073000D01*
X248946666Y-42939666D01*
X248946666Y-42839666D01*
X248913333Y-42706333D01*
X248880000Y-42639666D01*
X248813333Y-42573000D01*
X248713333Y-42539666D01*
X248646666Y-42539666D01*
X248546666Y-42573000D01*
X248513333Y-42606333D01*
X248246666Y-43206333D02*
X248146666Y-43239666D01*
X247980000Y-43239666D01*
X247913333Y-43206333D01*
X247880000Y-43173000D01*
X247846666Y-43106333D01*
X247846666Y-43039666D01*
X247880000Y-42973000D01*
X247913333Y-42939666D01*
X247980000Y-42906333D01*
X248113333Y-42873000D01*
X248180000Y-42839666D01*
X248213333Y-42806333D01*
X248246666Y-42739666D01*
X248246666Y-42673000D01*
X248213333Y-42606333D01*
X248180000Y-42573000D01*
X248113333Y-42539666D01*
X247946666Y-42539666D01*
X247846666Y-42573000D01*
X256863333Y-43700000D02*
X256930000Y-43666666D01*
X257030000Y-43666666D01*
X257130000Y-43700000D01*
X257196666Y-43766666D01*
X257230000Y-43833333D01*
X257263333Y-43966666D01*
X257263333Y-44066666D01*
X257230000Y-44200000D01*
X257196666Y-44266666D01*
X257130000Y-44333333D01*
X257030000Y-44366666D01*
X256963333Y-44366666D01*
X256863333Y-44333333D01*
X256830000Y-44300000D01*
X256830000Y-44066666D01*
X256963333Y-44066666D01*
X256530000Y-44366666D02*
X256530000Y-43666666D01*
X256263333Y-43666666D01*
X256196666Y-43700000D01*
X256163333Y-43733333D01*
X256130000Y-43800000D01*
X256130000Y-43900000D01*
X256163333Y-43966666D01*
X256196666Y-44000000D01*
X256263333Y-44033333D01*
X256530000Y-44033333D01*
X255830000Y-44366666D02*
X255830000Y-43666666D01*
X255363333Y-43666666D02*
X255230000Y-43666666D01*
X255163333Y-43700000D01*
X255096666Y-43766666D01*
X255063333Y-43900000D01*
X255063333Y-44133333D01*
X255096666Y-44266666D01*
X255163333Y-44333333D01*
X255230000Y-44366666D01*
X255363333Y-44366666D01*
X255430000Y-44333333D01*
X255496666Y-44266666D01*
X255530000Y-44133333D01*
X255530000Y-43900000D01*
X255496666Y-43766666D01*
X255430000Y-43700000D01*
X255363333Y-43666666D01*
X254796666Y-43733333D02*
X254763333Y-43700000D01*
X254696666Y-43666666D01*
X254530000Y-43666666D01*
X254463333Y-43700000D01*
X254430000Y-43733333D01*
X254396666Y-43800000D01*
X254396666Y-43866666D01*
X254430000Y-43966666D01*
X254830000Y-44366666D01*
X254396666Y-44366666D01*
X253563333Y-44100000D02*
X253030000Y-44100000D01*
X252196666Y-44333333D02*
X252096666Y-44366666D01*
X251930000Y-44366666D01*
X251863333Y-44333333D01*
X251830000Y-44300000D01*
X251796666Y-44233333D01*
X251796666Y-44166666D01*
X251830000Y-44100000D01*
X251863333Y-44066666D01*
X251930000Y-44033333D01*
X252063333Y-44000000D01*
X252130000Y-43966666D01*
X252163333Y-43933333D01*
X252196666Y-43866666D01*
X252196666Y-43800000D01*
X252163333Y-43733333D01*
X252130000Y-43700000D01*
X252063333Y-43666666D01*
X251896666Y-43666666D01*
X251796666Y-43700000D01*
X251496666Y-44366666D02*
X251496666Y-43666666D01*
X251230000Y-43666666D01*
X251163333Y-43700000D01*
X251130000Y-43733333D01*
X251096666Y-43800000D01*
X251096666Y-43900000D01*
X251130000Y-43966666D01*
X251163333Y-44000000D01*
X251230000Y-44033333D01*
X251496666Y-44033333D01*
X250796666Y-44366666D02*
X250796666Y-43666666D01*
X250330000Y-43666666D02*
X250263333Y-43666666D01*
X250196666Y-43700000D01*
X250163333Y-43733333D01*
X250130000Y-43800000D01*
X250096666Y-43933333D01*
X250096666Y-44100000D01*
X250130000Y-44233333D01*
X250163333Y-44300000D01*
X250196666Y-44333333D01*
X250263333Y-44366666D01*
X250330000Y-44366666D01*
X250396666Y-44333333D01*
X250430000Y-44300000D01*
X250463333Y-44233333D01*
X250496666Y-44100000D01*
X250496666Y-43933333D01*
X250463333Y-43800000D01*
X250430000Y-43733333D01*
X250396666Y-43700000D01*
X250330000Y-43666666D01*
X249296666Y-44333333D02*
X249196666Y-44366666D01*
X249030000Y-44366666D01*
X248963333Y-44333333D01*
X248930000Y-44300000D01*
X248896666Y-44233333D01*
X248896666Y-44166666D01*
X248930000Y-44100000D01*
X248963333Y-44066666D01*
X249030000Y-44033333D01*
X249163333Y-44000000D01*
X249230000Y-43966666D01*
X249263333Y-43933333D01*
X249296666Y-43866666D01*
X249296666Y-43800000D01*
X249263333Y-43733333D01*
X249230000Y-43700000D01*
X249163333Y-43666666D01*
X248996666Y-43666666D01*
X248896666Y-43700000D01*
X248196666Y-44300000D02*
X248230000Y-44333333D01*
X248330000Y-44366666D01*
X248396666Y-44366666D01*
X248496666Y-44333333D01*
X248563333Y-44266666D01*
X248596666Y-44200000D01*
X248630000Y-44066666D01*
X248630000Y-43966666D01*
X248596666Y-43833333D01*
X248563333Y-43766666D01*
X248496666Y-43700000D01*
X248396666Y-43666666D01*
X248330000Y-43666666D01*
X248230000Y-43700000D01*
X248196666Y-43733333D01*
X247896666Y-44366666D02*
X247896666Y-43666666D01*
X247496666Y-44366666D02*
X247796666Y-43966666D01*
X247496666Y-43666666D02*
X247896666Y-44066666D01*
X257096666Y-44827000D02*
X257163333Y-44793666D01*
X257263333Y-44793666D01*
X257363333Y-44827000D01*
X257430000Y-44893666D01*
X257463333Y-44960333D01*
X257496666Y-45093666D01*
X257496666Y-45193666D01*
X257463333Y-45327000D01*
X257430000Y-45393666D01*
X257363333Y-45460333D01*
X257263333Y-45493666D01*
X257196666Y-45493666D01*
X257096666Y-45460333D01*
X257063333Y-45427000D01*
X257063333Y-45193666D01*
X257196666Y-45193666D01*
X256763333Y-45493666D02*
X256763333Y-44793666D01*
X256496666Y-44793666D01*
X256430000Y-44827000D01*
X256396666Y-44860333D01*
X256363333Y-44927000D01*
X256363333Y-45027000D01*
X256396666Y-45093666D01*
X256430000Y-45127000D01*
X256496666Y-45160333D01*
X256763333Y-45160333D01*
X256063333Y-45493666D02*
X256063333Y-44793666D01*
X255596666Y-44793666D02*
X255463333Y-44793666D01*
X255396666Y-44827000D01*
X255330000Y-44893666D01*
X255296666Y-45027000D01*
X255296666Y-45260333D01*
X255330000Y-45393666D01*
X255396666Y-45460333D01*
X255463333Y-45493666D01*
X255596666Y-45493666D01*
X255663333Y-45460333D01*
X255730000Y-45393666D01*
X255763333Y-45260333D01*
X255763333Y-45027000D01*
X255730000Y-44893666D01*
X255663333Y-44827000D01*
X255596666Y-44793666D01*
X255063333Y-44793666D02*
X254630000Y-44793666D01*
X254863333Y-45060333D01*
X254763333Y-45060333D01*
X254696666Y-45093666D01*
X254663333Y-45127000D01*
X254630000Y-45193666D01*
X254630000Y-45360333D01*
X254663333Y-45427000D01*
X254696666Y-45460333D01*
X254763333Y-45493666D01*
X254963333Y-45493666D01*
X255030000Y-45460333D01*
X255063333Y-45427000D01*
X253796666Y-45227000D02*
X253263333Y-45227000D01*
X252430000Y-45460333D02*
X252330000Y-45493666D01*
X252163333Y-45493666D01*
X252096666Y-45460333D01*
X252063333Y-45427000D01*
X252030000Y-45360333D01*
X252030000Y-45293666D01*
X252063333Y-45227000D01*
X252096666Y-45193666D01*
X252163333Y-45160333D01*
X252296666Y-45127000D01*
X252363333Y-45093666D01*
X252396666Y-45060333D01*
X252430000Y-44993666D01*
X252430000Y-44927000D01*
X252396666Y-44860333D01*
X252363333Y-44827000D01*
X252296666Y-44793666D01*
X252130000Y-44793666D01*
X252030000Y-44827000D01*
X251730000Y-45493666D02*
X251730000Y-44793666D01*
X251463333Y-44793666D01*
X251396666Y-44827000D01*
X251363333Y-44860333D01*
X251330000Y-44927000D01*
X251330000Y-45027000D01*
X251363333Y-45093666D01*
X251396666Y-45127000D01*
X251463333Y-45160333D01*
X251730000Y-45160333D01*
X251030000Y-45493666D02*
X251030000Y-44793666D01*
X250563333Y-44793666D02*
X250496666Y-44793666D01*
X250430000Y-44827000D01*
X250396666Y-44860333D01*
X250363333Y-44927000D01*
X250330000Y-45060333D01*
X250330000Y-45227000D01*
X250363333Y-45360333D01*
X250396666Y-45427000D01*
X250430000Y-45460333D01*
X250496666Y-45493666D01*
X250563333Y-45493666D01*
X250630000Y-45460333D01*
X250663333Y-45427000D01*
X250696666Y-45360333D01*
X250730000Y-45227000D01*
X250730000Y-45060333D01*
X250696666Y-44927000D01*
X250663333Y-44860333D01*
X250630000Y-44827000D01*
X250563333Y-44793666D01*
X249496666Y-45493666D02*
X249496666Y-44793666D01*
X249263333Y-45293666D01*
X249030000Y-44793666D01*
X249030000Y-45493666D01*
X248563333Y-44793666D02*
X248430000Y-44793666D01*
X248363333Y-44827000D01*
X248296666Y-44893666D01*
X248263333Y-45027000D01*
X248263333Y-45260333D01*
X248296666Y-45393666D01*
X248363333Y-45460333D01*
X248430000Y-45493666D01*
X248563333Y-45493666D01*
X248630000Y-45460333D01*
X248696666Y-45393666D01*
X248730000Y-45260333D01*
X248730000Y-45027000D01*
X248696666Y-44893666D01*
X248630000Y-44827000D01*
X248563333Y-44793666D01*
X247996666Y-45460333D02*
X247896666Y-45493666D01*
X247730000Y-45493666D01*
X247663333Y-45460333D01*
X247630000Y-45427000D01*
X247596666Y-45360333D01*
X247596666Y-45293666D01*
X247630000Y-45227000D01*
X247663333Y-45193666D01*
X247730000Y-45160333D01*
X247863333Y-45127000D01*
X247930000Y-45093666D01*
X247963333Y-45060333D01*
X247996666Y-44993666D01*
X247996666Y-44927000D01*
X247963333Y-44860333D01*
X247930000Y-44827000D01*
X247863333Y-44793666D01*
X247696666Y-44793666D01*
X247596666Y-44827000D01*
X247296666Y-45493666D02*
X247296666Y-44793666D01*
X256813333Y-45954000D02*
X256880000Y-45920666D01*
X256980000Y-45920666D01*
X257080000Y-45954000D01*
X257146666Y-46020666D01*
X257180000Y-46087333D01*
X257213333Y-46220666D01*
X257213333Y-46320666D01*
X257180000Y-46454000D01*
X257146666Y-46520666D01*
X257080000Y-46587333D01*
X256980000Y-46620666D01*
X256913333Y-46620666D01*
X256813333Y-46587333D01*
X256780000Y-46554000D01*
X256780000Y-46320666D01*
X256913333Y-46320666D01*
X256480000Y-46620666D02*
X256480000Y-45920666D01*
X256213333Y-45920666D01*
X256146666Y-45954000D01*
X256113333Y-45987333D01*
X256080000Y-46054000D01*
X256080000Y-46154000D01*
X256113333Y-46220666D01*
X256146666Y-46254000D01*
X256213333Y-46287333D01*
X256480000Y-46287333D01*
X255780000Y-46620666D02*
X255780000Y-45920666D01*
X255313333Y-45920666D02*
X255180000Y-45920666D01*
X255113333Y-45954000D01*
X255046666Y-46020666D01*
X255013333Y-46154000D01*
X255013333Y-46387333D01*
X255046666Y-46520666D01*
X255113333Y-46587333D01*
X255180000Y-46620666D01*
X255313333Y-46620666D01*
X255380000Y-46587333D01*
X255446666Y-46520666D01*
X255480000Y-46387333D01*
X255480000Y-46154000D01*
X255446666Y-46020666D01*
X255380000Y-45954000D01*
X255313333Y-45920666D01*
X254413333Y-46154000D02*
X254413333Y-46620666D01*
X254580000Y-45887333D02*
X254746666Y-46387333D01*
X254313333Y-46387333D01*
X253513333Y-46354000D02*
X252980000Y-46354000D01*
X252113333Y-46620666D02*
X252113333Y-45920666D01*
X251813333Y-45987333D02*
X251780000Y-45954000D01*
X251713333Y-45920666D01*
X251546666Y-45920666D01*
X251480000Y-45954000D01*
X251446666Y-45987333D01*
X251413333Y-46054000D01*
X251413333Y-46120666D01*
X251446666Y-46220666D01*
X251846666Y-46620666D01*
X251413333Y-46620666D01*
X250713333Y-46554000D02*
X250746666Y-46587333D01*
X250846666Y-46620666D01*
X250913333Y-46620666D01*
X251013333Y-46587333D01*
X251080000Y-46520666D01*
X251113333Y-46454000D01*
X251146666Y-46320666D01*
X251146666Y-46220666D01*
X251113333Y-46087333D01*
X251080000Y-46020666D01*
X251013333Y-45954000D01*
X250913333Y-45920666D01*
X250846666Y-45920666D01*
X250746666Y-45954000D01*
X250713333Y-45987333D01*
X250280000Y-45920666D02*
X250213333Y-45920666D01*
X250146666Y-45954000D01*
X250113333Y-45987333D01*
X250080000Y-46054000D01*
X250046666Y-46187333D01*
X250046666Y-46354000D01*
X250080000Y-46487333D01*
X250113333Y-46554000D01*
X250146666Y-46587333D01*
X250213333Y-46620666D01*
X250280000Y-46620666D01*
X250346666Y-46587333D01*
X250380000Y-46554000D01*
X250413333Y-46487333D01*
X250446666Y-46354000D01*
X250446666Y-46187333D01*
X250413333Y-46054000D01*
X250380000Y-45987333D01*
X250346666Y-45954000D01*
X250280000Y-45920666D01*
X249246666Y-46587333D02*
X249146666Y-46620666D01*
X248980000Y-46620666D01*
X248913333Y-46587333D01*
X248880000Y-46554000D01*
X248846666Y-46487333D01*
X248846666Y-46420666D01*
X248880000Y-46354000D01*
X248913333Y-46320666D01*
X248980000Y-46287333D01*
X249113333Y-46254000D01*
X249180000Y-46220666D01*
X249213333Y-46187333D01*
X249246666Y-46120666D01*
X249246666Y-46054000D01*
X249213333Y-45987333D01*
X249180000Y-45954000D01*
X249113333Y-45920666D01*
X248946666Y-45920666D01*
X248846666Y-45954000D01*
X248546666Y-46620666D02*
X248546666Y-45920666D01*
X248380000Y-45920666D01*
X248280000Y-45954000D01*
X248213333Y-46020666D01*
X248180000Y-46087333D01*
X248146666Y-46220666D01*
X248146666Y-46320666D01*
X248180000Y-46454000D01*
X248213333Y-46520666D01*
X248280000Y-46587333D01*
X248380000Y-46620666D01*
X248546666Y-46620666D01*
X247880000Y-46420666D02*
X247546666Y-46420666D01*
X247946666Y-46620666D02*
X247713333Y-45920666D01*
X247480000Y-46620666D01*
X256796666Y-47081000D02*
X256863333Y-47047666D01*
X256963333Y-47047666D01*
X257063333Y-47081000D01*
X257130000Y-47147666D01*
X257163333Y-47214333D01*
X257196666Y-47347666D01*
X257196666Y-47447666D01*
X257163333Y-47581000D01*
X257130000Y-47647666D01*
X257063333Y-47714333D01*
X256963333Y-47747666D01*
X256896666Y-47747666D01*
X256796666Y-47714333D01*
X256763333Y-47681000D01*
X256763333Y-47447666D01*
X256896666Y-47447666D01*
X256463333Y-47747666D02*
X256463333Y-47047666D01*
X256196666Y-47047666D01*
X256130000Y-47081000D01*
X256096666Y-47114333D01*
X256063333Y-47181000D01*
X256063333Y-47281000D01*
X256096666Y-47347666D01*
X256130000Y-47381000D01*
X256196666Y-47414333D01*
X256463333Y-47414333D01*
X255763333Y-47747666D02*
X255763333Y-47047666D01*
X255296666Y-47047666D02*
X255163333Y-47047666D01*
X255096666Y-47081000D01*
X255030000Y-47147666D01*
X254996666Y-47281000D01*
X254996666Y-47514333D01*
X255030000Y-47647666D01*
X255096666Y-47714333D01*
X255163333Y-47747666D01*
X255296666Y-47747666D01*
X255363333Y-47714333D01*
X255430000Y-47647666D01*
X255463333Y-47514333D01*
X255463333Y-47281000D01*
X255430000Y-47147666D01*
X255363333Y-47081000D01*
X255296666Y-47047666D01*
X254363333Y-47047666D02*
X254696666Y-47047666D01*
X254730000Y-47381000D01*
X254696666Y-47347666D01*
X254630000Y-47314333D01*
X254463333Y-47314333D01*
X254396666Y-47347666D01*
X254363333Y-47381000D01*
X254330000Y-47447666D01*
X254330000Y-47614333D01*
X254363333Y-47681000D01*
X254396666Y-47714333D01*
X254463333Y-47747666D01*
X254630000Y-47747666D01*
X254696666Y-47714333D01*
X254730000Y-47681000D01*
X253496666Y-47481000D02*
X252963333Y-47481000D01*
X252096666Y-47747666D02*
X252096666Y-47047666D01*
X251796666Y-47114333D02*
X251763333Y-47081000D01*
X251696666Y-47047666D01*
X251530000Y-47047666D01*
X251463333Y-47081000D01*
X251430000Y-47114333D01*
X251396666Y-47181000D01*
X251396666Y-47247666D01*
X251430000Y-47347666D01*
X251830000Y-47747666D01*
X251396666Y-47747666D01*
X250696666Y-47681000D02*
X250730000Y-47714333D01*
X250830000Y-47747666D01*
X250896666Y-47747666D01*
X250996666Y-47714333D01*
X251063333Y-47647666D01*
X251096666Y-47581000D01*
X251130000Y-47447666D01*
X251130000Y-47347666D01*
X251096666Y-47214333D01*
X251063333Y-47147666D01*
X250996666Y-47081000D01*
X250896666Y-47047666D01*
X250830000Y-47047666D01*
X250730000Y-47081000D01*
X250696666Y-47114333D01*
X250263333Y-47047666D02*
X250196666Y-47047666D01*
X250130000Y-47081000D01*
X250096666Y-47114333D01*
X250063333Y-47181000D01*
X250030000Y-47314333D01*
X250030000Y-47481000D01*
X250063333Y-47614333D01*
X250096666Y-47681000D01*
X250130000Y-47714333D01*
X250196666Y-47747666D01*
X250263333Y-47747666D01*
X250330000Y-47714333D01*
X250363333Y-47681000D01*
X250396666Y-47614333D01*
X250430000Y-47481000D01*
X250430000Y-47314333D01*
X250396666Y-47181000D01*
X250363333Y-47114333D01*
X250330000Y-47081000D01*
X250263333Y-47047666D01*
X249230000Y-47714333D02*
X249130000Y-47747666D01*
X248963333Y-47747666D01*
X248896666Y-47714333D01*
X248863333Y-47681000D01*
X248830000Y-47614333D01*
X248830000Y-47547666D01*
X248863333Y-47481000D01*
X248896666Y-47447666D01*
X248963333Y-47414333D01*
X249096666Y-47381000D01*
X249163333Y-47347666D01*
X249196666Y-47314333D01*
X249230000Y-47247666D01*
X249230000Y-47181000D01*
X249196666Y-47114333D01*
X249163333Y-47081000D01*
X249096666Y-47047666D01*
X248930000Y-47047666D01*
X248830000Y-47081000D01*
X248130000Y-47681000D02*
X248163333Y-47714333D01*
X248263333Y-47747666D01*
X248330000Y-47747666D01*
X248430000Y-47714333D01*
X248496666Y-47647666D01*
X248530000Y-47581000D01*
X248563333Y-47447666D01*
X248563333Y-47347666D01*
X248530000Y-47214333D01*
X248496666Y-47147666D01*
X248430000Y-47081000D01*
X248330000Y-47047666D01*
X248263333Y-47047666D01*
X248163333Y-47081000D01*
X248130000Y-47114333D01*
X247496666Y-47747666D02*
X247830000Y-47747666D01*
X247830000Y-47047666D01*
X257280000Y-48208000D02*
X257346666Y-48174666D01*
X257446666Y-48174666D01*
X257546666Y-48208000D01*
X257613333Y-48274666D01*
X257646666Y-48341333D01*
X257680000Y-48474666D01*
X257680000Y-48574666D01*
X257646666Y-48708000D01*
X257613333Y-48774666D01*
X257546666Y-48841333D01*
X257446666Y-48874666D01*
X257380000Y-48874666D01*
X257280000Y-48841333D01*
X257246666Y-48808000D01*
X257246666Y-48574666D01*
X257380000Y-48574666D01*
X256946666Y-48874666D02*
X256946666Y-48174666D01*
X256680000Y-48174666D01*
X256613333Y-48208000D01*
X256580000Y-48241333D01*
X256546666Y-48308000D01*
X256546666Y-48408000D01*
X256580000Y-48474666D01*
X256613333Y-48508000D01*
X256680000Y-48541333D01*
X256946666Y-48541333D01*
X256246666Y-48874666D02*
X256246666Y-48174666D01*
X255780000Y-48174666D02*
X255646666Y-48174666D01*
X255580000Y-48208000D01*
X255513333Y-48274666D01*
X255480000Y-48408000D01*
X255480000Y-48641333D01*
X255513333Y-48774666D01*
X255580000Y-48841333D01*
X255646666Y-48874666D01*
X255780000Y-48874666D01*
X255846666Y-48841333D01*
X255913333Y-48774666D01*
X255946666Y-48641333D01*
X255946666Y-48408000D01*
X255913333Y-48274666D01*
X255846666Y-48208000D01*
X255780000Y-48174666D01*
X254880000Y-48174666D02*
X255013333Y-48174666D01*
X255080000Y-48208000D01*
X255113333Y-48241333D01*
X255180000Y-48341333D01*
X255213333Y-48474666D01*
X255213333Y-48741333D01*
X255180000Y-48808000D01*
X255146666Y-48841333D01*
X255080000Y-48874666D01*
X254946666Y-48874666D01*
X254880000Y-48841333D01*
X254846666Y-48808000D01*
X254813333Y-48741333D01*
X254813333Y-48574666D01*
X254846666Y-48508000D01*
X254880000Y-48474666D01*
X254946666Y-48441333D01*
X255080000Y-48441333D01*
X255146666Y-48474666D01*
X255180000Y-48508000D01*
X255213333Y-48574666D01*
X253980000Y-48608000D02*
X253446666Y-48608000D01*
X252180000Y-48874666D02*
X252413333Y-48541333D01*
X252580000Y-48874666D02*
X252580000Y-48174666D01*
X252313333Y-48174666D01*
X252246666Y-48208000D01*
X252213333Y-48241333D01*
X252180000Y-48308000D01*
X252180000Y-48408000D01*
X252213333Y-48474666D01*
X252246666Y-48508000D01*
X252313333Y-48541333D01*
X252580000Y-48541333D01*
X251913333Y-48674666D02*
X251580000Y-48674666D01*
X251980000Y-48874666D02*
X251746666Y-48174666D01*
X251513333Y-48874666D01*
X251280000Y-48874666D02*
X251280000Y-48174666D01*
X251113333Y-48174666D01*
X251013333Y-48208000D01*
X250946666Y-48274666D01*
X250913333Y-48341333D01*
X250880000Y-48474666D01*
X250880000Y-48574666D01*
X250913333Y-48708000D01*
X250946666Y-48774666D01*
X251013333Y-48841333D01*
X251113333Y-48874666D01*
X251280000Y-48874666D01*
X250580000Y-48874666D02*
X250580000Y-48174666D01*
X250113333Y-48174666D02*
X249980000Y-48174666D01*
X249913333Y-48208000D01*
X249846666Y-48274666D01*
X249813333Y-48408000D01*
X249813333Y-48641333D01*
X249846666Y-48774666D01*
X249913333Y-48841333D01*
X249980000Y-48874666D01*
X250113333Y-48874666D01*
X250180000Y-48841333D01*
X250246666Y-48774666D01*
X250280000Y-48641333D01*
X250280000Y-48408000D01*
X250246666Y-48274666D01*
X250180000Y-48208000D01*
X250113333Y-48174666D01*
X248980000Y-48874666D02*
X248980000Y-48174666D01*
X248713333Y-48174666D01*
X248646666Y-48208000D01*
X248613333Y-48241333D01*
X248580000Y-48308000D01*
X248580000Y-48408000D01*
X248613333Y-48474666D01*
X248646666Y-48508000D01*
X248713333Y-48541333D01*
X248980000Y-48541333D01*
X248280000Y-48874666D02*
X248280000Y-48174666D01*
X248013333Y-48174666D01*
X247946666Y-48208000D01*
X247913333Y-48241333D01*
X247880000Y-48308000D01*
X247880000Y-48408000D01*
X247913333Y-48474666D01*
X247946666Y-48508000D01*
X248013333Y-48541333D01*
X248280000Y-48541333D01*
X247580000Y-48874666D02*
X247580000Y-48174666D01*
X247346666Y-48674666D01*
X247113333Y-48174666D01*
X247113333Y-48874666D01*
X256646666Y-49335000D02*
X256713333Y-49301666D01*
X256813333Y-49301666D01*
X256913333Y-49335000D01*
X256980000Y-49401666D01*
X257013333Y-49468333D01*
X257046666Y-49601666D01*
X257046666Y-49701666D01*
X257013333Y-49835000D01*
X256980000Y-49901666D01*
X256913333Y-49968333D01*
X256813333Y-50001666D01*
X256746666Y-50001666D01*
X256646666Y-49968333D01*
X256613333Y-49935000D01*
X256613333Y-49701666D01*
X256746666Y-49701666D01*
X256313333Y-50001666D02*
X256313333Y-49301666D01*
X256046666Y-49301666D01*
X255980000Y-49335000D01*
X255946666Y-49368333D01*
X255913333Y-49435000D01*
X255913333Y-49535000D01*
X255946666Y-49601666D01*
X255980000Y-49635000D01*
X256046666Y-49668333D01*
X256313333Y-49668333D01*
X255613333Y-50001666D02*
X255613333Y-49301666D01*
X255146666Y-49301666D02*
X255013333Y-49301666D01*
X254946666Y-49335000D01*
X254880000Y-49401666D01*
X254846666Y-49535000D01*
X254846666Y-49768333D01*
X254880000Y-49901666D01*
X254946666Y-49968333D01*
X255013333Y-50001666D01*
X255146666Y-50001666D01*
X255213333Y-49968333D01*
X255280000Y-49901666D01*
X255313333Y-49768333D01*
X255313333Y-49535000D01*
X255280000Y-49401666D01*
X255213333Y-49335000D01*
X255146666Y-49301666D01*
X254613333Y-49301666D02*
X254146666Y-49301666D01*
X254446666Y-50001666D01*
X253346666Y-49735000D02*
X252813333Y-49735000D01*
X251980000Y-49968333D02*
X251880000Y-50001666D01*
X251713333Y-50001666D01*
X251646666Y-49968333D01*
X251613333Y-49935000D01*
X251580000Y-49868333D01*
X251580000Y-49801666D01*
X251613333Y-49735000D01*
X251646666Y-49701666D01*
X251713333Y-49668333D01*
X251846666Y-49635000D01*
X251913333Y-49601666D01*
X251946666Y-49568333D01*
X251980000Y-49501666D01*
X251980000Y-49435000D01*
X251946666Y-49368333D01*
X251913333Y-49335000D01*
X251846666Y-49301666D01*
X251680000Y-49301666D01*
X251580000Y-49335000D01*
X251280000Y-49635000D02*
X251046666Y-49635000D01*
X250946666Y-50001666D02*
X251280000Y-50001666D01*
X251280000Y-49301666D01*
X250946666Y-49301666D01*
X250246666Y-50001666D02*
X250480000Y-49668333D01*
X250646666Y-50001666D02*
X250646666Y-49301666D01*
X250380000Y-49301666D01*
X250313333Y-49335000D01*
X250280000Y-49368333D01*
X250246666Y-49435000D01*
X250246666Y-49535000D01*
X250280000Y-49601666D01*
X250313333Y-49635000D01*
X250380000Y-49668333D01*
X250646666Y-49668333D01*
X250046666Y-49301666D02*
X249813333Y-50001666D01*
X249580000Y-49301666D01*
X249213333Y-49301666D02*
X249080000Y-49301666D01*
X249013333Y-49335000D01*
X248946666Y-49401666D01*
X248913333Y-49535000D01*
X248913333Y-49768333D01*
X248946666Y-49901666D01*
X249013333Y-49968333D01*
X249080000Y-50001666D01*
X249213333Y-50001666D01*
X249280000Y-49968333D01*
X249346666Y-49901666D01*
X249380000Y-49768333D01*
X249380000Y-49535000D01*
X249346666Y-49401666D01*
X249280000Y-49335000D01*
X249213333Y-49301666D01*
X248146666Y-49301666D02*
X247680000Y-49301666D01*
X247980000Y-50001666D01*
X256863333Y-50462000D02*
X256930000Y-50428666D01*
X257030000Y-50428666D01*
X257130000Y-50462000D01*
X257196666Y-50528666D01*
X257230000Y-50595333D01*
X257263333Y-50728666D01*
X257263333Y-50828666D01*
X257230000Y-50962000D01*
X257196666Y-51028666D01*
X257130000Y-51095333D01*
X257030000Y-51128666D01*
X256963333Y-51128666D01*
X256863333Y-51095333D01*
X256830000Y-51062000D01*
X256830000Y-50828666D01*
X256963333Y-50828666D01*
X256530000Y-51128666D02*
X256530000Y-50428666D01*
X256263333Y-50428666D01*
X256196666Y-50462000D01*
X256163333Y-50495333D01*
X256130000Y-50562000D01*
X256130000Y-50662000D01*
X256163333Y-50728666D01*
X256196666Y-50762000D01*
X256263333Y-50795333D01*
X256530000Y-50795333D01*
X255830000Y-51128666D02*
X255830000Y-50428666D01*
X255363333Y-50428666D02*
X255230000Y-50428666D01*
X255163333Y-50462000D01*
X255096666Y-50528666D01*
X255063333Y-50662000D01*
X255063333Y-50895333D01*
X255096666Y-51028666D01*
X255163333Y-51095333D01*
X255230000Y-51128666D01*
X255363333Y-51128666D01*
X255430000Y-51095333D01*
X255496666Y-51028666D01*
X255530000Y-50895333D01*
X255530000Y-50662000D01*
X255496666Y-50528666D01*
X255430000Y-50462000D01*
X255363333Y-50428666D01*
X254663333Y-50728666D02*
X254730000Y-50695333D01*
X254763333Y-50662000D01*
X254796666Y-50595333D01*
X254796666Y-50562000D01*
X254763333Y-50495333D01*
X254730000Y-50462000D01*
X254663333Y-50428666D01*
X254530000Y-50428666D01*
X254463333Y-50462000D01*
X254430000Y-50495333D01*
X254396666Y-50562000D01*
X254396666Y-50595333D01*
X254430000Y-50662000D01*
X254463333Y-50695333D01*
X254530000Y-50728666D01*
X254663333Y-50728666D01*
X254730000Y-50762000D01*
X254763333Y-50795333D01*
X254796666Y-50862000D01*
X254796666Y-50995333D01*
X254763333Y-51062000D01*
X254730000Y-51095333D01*
X254663333Y-51128666D01*
X254530000Y-51128666D01*
X254463333Y-51095333D01*
X254430000Y-51062000D01*
X254396666Y-50995333D01*
X254396666Y-50862000D01*
X254430000Y-50795333D01*
X254463333Y-50762000D01*
X254530000Y-50728666D01*
X253563333Y-50862000D02*
X253030000Y-50862000D01*
X252163333Y-50428666D02*
X252163333Y-50995333D01*
X252130000Y-51062000D01*
X252096666Y-51095333D01*
X252030000Y-51128666D01*
X251896666Y-51128666D01*
X251830000Y-51095333D01*
X251796666Y-51062000D01*
X251763333Y-50995333D01*
X251763333Y-50428666D01*
X251463333Y-50928666D02*
X251130000Y-50928666D01*
X251530000Y-51128666D02*
X251296666Y-50428666D01*
X251063333Y-51128666D01*
X250430000Y-51128666D02*
X250663333Y-50795333D01*
X250830000Y-51128666D02*
X250830000Y-50428666D01*
X250563333Y-50428666D01*
X250496666Y-50462000D01*
X250463333Y-50495333D01*
X250430000Y-50562000D01*
X250430000Y-50662000D01*
X250463333Y-50728666D01*
X250496666Y-50762000D01*
X250563333Y-50795333D01*
X250830000Y-50795333D01*
X250230000Y-50428666D02*
X249830000Y-50428666D01*
X250030000Y-51128666D02*
X250030000Y-50428666D01*
X249230000Y-51128666D02*
X249630000Y-51128666D01*
X249430000Y-51128666D02*
X249430000Y-50428666D01*
X249496666Y-50528666D01*
X249563333Y-50595333D01*
X249630000Y-50628666D01*
X248496666Y-50428666D02*
X248096666Y-50428666D01*
X248296666Y-51128666D02*
X248296666Y-50428666D01*
X247930000Y-50428666D02*
X247463333Y-51128666D01*
X247463333Y-50428666D02*
X247930000Y-51128666D01*
X256946666Y-51589000D02*
X257013333Y-51555666D01*
X257113333Y-51555666D01*
X257213333Y-51589000D01*
X257280000Y-51655666D01*
X257313333Y-51722333D01*
X257346666Y-51855666D01*
X257346666Y-51955666D01*
X257313333Y-52089000D01*
X257280000Y-52155666D01*
X257213333Y-52222333D01*
X257113333Y-52255666D01*
X257046666Y-52255666D01*
X256946666Y-52222333D01*
X256913333Y-52189000D01*
X256913333Y-51955666D01*
X257046666Y-51955666D01*
X256613333Y-52255666D02*
X256613333Y-51555666D01*
X256346666Y-51555666D01*
X256280000Y-51589000D01*
X256246666Y-51622333D01*
X256213333Y-51689000D01*
X256213333Y-51789000D01*
X256246666Y-51855666D01*
X256280000Y-51889000D01*
X256346666Y-51922333D01*
X256613333Y-51922333D01*
X255913333Y-52255666D02*
X255913333Y-51555666D01*
X255446666Y-51555666D02*
X255313333Y-51555666D01*
X255246666Y-51589000D01*
X255180000Y-51655666D01*
X255146666Y-51789000D01*
X255146666Y-52022333D01*
X255180000Y-52155666D01*
X255246666Y-52222333D01*
X255313333Y-52255666D01*
X255446666Y-52255666D01*
X255513333Y-52222333D01*
X255580000Y-52155666D01*
X255613333Y-52022333D01*
X255613333Y-51789000D01*
X255580000Y-51655666D01*
X255513333Y-51589000D01*
X255446666Y-51555666D01*
X254813333Y-52255666D02*
X254680000Y-52255666D01*
X254613333Y-52222333D01*
X254580000Y-52189000D01*
X254513333Y-52089000D01*
X254480000Y-51955666D01*
X254480000Y-51689000D01*
X254513333Y-51622333D01*
X254546666Y-51589000D01*
X254613333Y-51555666D01*
X254746666Y-51555666D01*
X254813333Y-51589000D01*
X254846666Y-51622333D01*
X254880000Y-51689000D01*
X254880000Y-51855666D01*
X254846666Y-51922333D01*
X254813333Y-51955666D01*
X254746666Y-51989000D01*
X254613333Y-51989000D01*
X254546666Y-51955666D01*
X254513333Y-51922333D01*
X254480000Y-51855666D01*
X253646666Y-51989000D02*
X253113333Y-51989000D01*
X252246666Y-51555666D02*
X252246666Y-52122333D01*
X252213333Y-52189000D01*
X252180000Y-52222333D01*
X252113333Y-52255666D01*
X251980000Y-52255666D01*
X251913333Y-52222333D01*
X251880000Y-52189000D01*
X251846666Y-52122333D01*
X251846666Y-51555666D01*
X251546666Y-52055666D02*
X251213333Y-52055666D01*
X251613333Y-52255666D02*
X251380000Y-51555666D01*
X251146666Y-52255666D01*
X250513333Y-52255666D02*
X250746666Y-51922333D01*
X250913333Y-52255666D02*
X250913333Y-51555666D01*
X250646666Y-51555666D01*
X250580000Y-51589000D01*
X250546666Y-51622333D01*
X250513333Y-51689000D01*
X250513333Y-51789000D01*
X250546666Y-51855666D01*
X250580000Y-51889000D01*
X250646666Y-51922333D01*
X250913333Y-51922333D01*
X250313333Y-51555666D02*
X249913333Y-51555666D01*
X250113333Y-52255666D02*
X250113333Y-51555666D01*
X249313333Y-52255666D02*
X249713333Y-52255666D01*
X249513333Y-52255666D02*
X249513333Y-51555666D01*
X249580000Y-51655666D01*
X249646666Y-51722333D01*
X249713333Y-51755666D01*
X248080000Y-52255666D02*
X248313333Y-51922333D01*
X248480000Y-52255666D02*
X248480000Y-51555666D01*
X248213333Y-51555666D01*
X248146666Y-51589000D01*
X248113333Y-51622333D01*
X248080000Y-51689000D01*
X248080000Y-51789000D01*
X248113333Y-51855666D01*
X248146666Y-51889000D01*
X248213333Y-51922333D01*
X248480000Y-51922333D01*
X247846666Y-51555666D02*
X247380000Y-52255666D01*
X247380000Y-51555666D02*
X247846666Y-52255666D01*
X256980000Y-52716000D02*
X257046666Y-52682666D01*
X257146666Y-52682666D01*
X257246666Y-52716000D01*
X257313333Y-52782666D01*
X257346666Y-52849333D01*
X257380000Y-52982666D01*
X257380000Y-53082666D01*
X257346666Y-53216000D01*
X257313333Y-53282666D01*
X257246666Y-53349333D01*
X257146666Y-53382666D01*
X257080000Y-53382666D01*
X256980000Y-53349333D01*
X256946666Y-53316000D01*
X256946666Y-53082666D01*
X257080000Y-53082666D01*
X256646666Y-53382666D02*
X256646666Y-52682666D01*
X256380000Y-52682666D01*
X256313333Y-52716000D01*
X256280000Y-52749333D01*
X256246666Y-52816000D01*
X256246666Y-52916000D01*
X256280000Y-52982666D01*
X256313333Y-53016000D01*
X256380000Y-53049333D01*
X256646666Y-53049333D01*
X255946666Y-53382666D02*
X255946666Y-52682666D01*
X255480000Y-52682666D02*
X255346666Y-52682666D01*
X255280000Y-52716000D01*
X255213333Y-52782666D01*
X255180000Y-52916000D01*
X255180000Y-53149333D01*
X255213333Y-53282666D01*
X255280000Y-53349333D01*
X255346666Y-53382666D01*
X255480000Y-53382666D01*
X255546666Y-53349333D01*
X255613333Y-53282666D01*
X255646666Y-53149333D01*
X255646666Y-52916000D01*
X255613333Y-52782666D01*
X255546666Y-52716000D01*
X255480000Y-52682666D01*
X254513333Y-53382666D02*
X254913333Y-53382666D01*
X254713333Y-53382666D02*
X254713333Y-52682666D01*
X254780000Y-52782666D01*
X254846666Y-52849333D01*
X254913333Y-52882666D01*
X254080000Y-52682666D02*
X254013333Y-52682666D01*
X253946666Y-52716000D01*
X253913333Y-52749333D01*
X253880000Y-52816000D01*
X253846666Y-52949333D01*
X253846666Y-53116000D01*
X253880000Y-53249333D01*
X253913333Y-53316000D01*
X253946666Y-53349333D01*
X254013333Y-53382666D01*
X254080000Y-53382666D01*
X254146666Y-53349333D01*
X254180000Y-53316000D01*
X254213333Y-53249333D01*
X254246666Y-53116000D01*
X254246666Y-52949333D01*
X254213333Y-52816000D01*
X254180000Y-52749333D01*
X254146666Y-52716000D01*
X254080000Y-52682666D01*
X253013333Y-53116000D02*
X252480000Y-53116000D01*
X251646666Y-53349333D02*
X251546666Y-53382666D01*
X251380000Y-53382666D01*
X251313333Y-53349333D01*
X251280000Y-53316000D01*
X251246666Y-53249333D01*
X251246666Y-53182666D01*
X251280000Y-53116000D01*
X251313333Y-53082666D01*
X251380000Y-53049333D01*
X251513333Y-53016000D01*
X251580000Y-52982666D01*
X251613333Y-52949333D01*
X251646666Y-52882666D01*
X251646666Y-52816000D01*
X251613333Y-52749333D01*
X251580000Y-52716000D01*
X251513333Y-52682666D01*
X251346666Y-52682666D01*
X251246666Y-52716000D01*
X250946666Y-53016000D02*
X250713333Y-53016000D01*
X250613333Y-53382666D02*
X250946666Y-53382666D01*
X250946666Y-52682666D01*
X250613333Y-52682666D01*
X249913333Y-53382666D02*
X250146666Y-53049333D01*
X250313333Y-53382666D02*
X250313333Y-52682666D01*
X250046666Y-52682666D01*
X249980000Y-52716000D01*
X249946666Y-52749333D01*
X249913333Y-52816000D01*
X249913333Y-52916000D01*
X249946666Y-52982666D01*
X249980000Y-53016000D01*
X250046666Y-53049333D01*
X250313333Y-53049333D01*
X249713333Y-52682666D02*
X249480000Y-53382666D01*
X249246666Y-52682666D01*
X248880000Y-52682666D02*
X248746666Y-52682666D01*
X248680000Y-52716000D01*
X248613333Y-52782666D01*
X248580000Y-52916000D01*
X248580000Y-53149333D01*
X248613333Y-53282666D01*
X248680000Y-53349333D01*
X248746666Y-53382666D01*
X248880000Y-53382666D01*
X248946666Y-53349333D01*
X249013333Y-53282666D01*
X249046666Y-53149333D01*
X249046666Y-52916000D01*
X249013333Y-52782666D01*
X248946666Y-52716000D01*
X248880000Y-52682666D01*
X247446666Y-52682666D02*
X247580000Y-52682666D01*
X247646666Y-52716000D01*
X247680000Y-52749333D01*
X247746666Y-52849333D01*
X247780000Y-52982666D01*
X247780000Y-53249333D01*
X247746666Y-53316000D01*
X247713333Y-53349333D01*
X247646666Y-53382666D01*
X247513333Y-53382666D01*
X247446666Y-53349333D01*
X247413333Y-53316000D01*
X247380000Y-53249333D01*
X247380000Y-53082666D01*
X247413333Y-53016000D01*
X247446666Y-52982666D01*
X247513333Y-52949333D01*
X247646666Y-52949333D01*
X247713333Y-52982666D01*
X247746666Y-53016000D01*
X247780000Y-53082666D01*
X256980000Y-53843000D02*
X257046666Y-53809666D01*
X257146666Y-53809666D01*
X257246666Y-53843000D01*
X257313333Y-53909666D01*
X257346666Y-53976333D01*
X257380000Y-54109666D01*
X257380000Y-54209666D01*
X257346666Y-54343000D01*
X257313333Y-54409666D01*
X257246666Y-54476333D01*
X257146666Y-54509666D01*
X257080000Y-54509666D01*
X256980000Y-54476333D01*
X256946666Y-54443000D01*
X256946666Y-54209666D01*
X257080000Y-54209666D01*
X256646666Y-54509666D02*
X256646666Y-53809666D01*
X256380000Y-53809666D01*
X256313333Y-53843000D01*
X256280000Y-53876333D01*
X256246666Y-53943000D01*
X256246666Y-54043000D01*
X256280000Y-54109666D01*
X256313333Y-54143000D01*
X256380000Y-54176333D01*
X256646666Y-54176333D01*
X255946666Y-54509666D02*
X255946666Y-53809666D01*
X255480000Y-53809666D02*
X255346666Y-53809666D01*
X255280000Y-53843000D01*
X255213333Y-53909666D01*
X255180000Y-54043000D01*
X255180000Y-54276333D01*
X255213333Y-54409666D01*
X255280000Y-54476333D01*
X255346666Y-54509666D01*
X255480000Y-54509666D01*
X255546666Y-54476333D01*
X255613333Y-54409666D01*
X255646666Y-54276333D01*
X255646666Y-54043000D01*
X255613333Y-53909666D01*
X255546666Y-53843000D01*
X255480000Y-53809666D01*
X254513333Y-54509666D02*
X254913333Y-54509666D01*
X254713333Y-54509666D02*
X254713333Y-53809666D01*
X254780000Y-53909666D01*
X254846666Y-53976333D01*
X254913333Y-54009666D01*
X253846666Y-54509666D02*
X254246666Y-54509666D01*
X254046666Y-54509666D02*
X254046666Y-53809666D01*
X254113333Y-53909666D01*
X254180000Y-53976333D01*
X254246666Y-54009666D01*
X253013333Y-54243000D02*
X252480000Y-54243000D01*
X251646666Y-54476333D02*
X251546666Y-54509666D01*
X251380000Y-54509666D01*
X251313333Y-54476333D01*
X251280000Y-54443000D01*
X251246666Y-54376333D01*
X251246666Y-54309666D01*
X251280000Y-54243000D01*
X251313333Y-54209666D01*
X251380000Y-54176333D01*
X251513333Y-54143000D01*
X251580000Y-54109666D01*
X251613333Y-54076333D01*
X251646666Y-54009666D01*
X251646666Y-53943000D01*
X251613333Y-53876333D01*
X251580000Y-53843000D01*
X251513333Y-53809666D01*
X251346666Y-53809666D01*
X251246666Y-53843000D01*
X250946666Y-54143000D02*
X250713333Y-54143000D01*
X250613333Y-54509666D02*
X250946666Y-54509666D01*
X250946666Y-53809666D01*
X250613333Y-53809666D01*
X249913333Y-54509666D02*
X250146666Y-54176333D01*
X250313333Y-54509666D02*
X250313333Y-53809666D01*
X250046666Y-53809666D01*
X249980000Y-53843000D01*
X249946666Y-53876333D01*
X249913333Y-53943000D01*
X249913333Y-54043000D01*
X249946666Y-54109666D01*
X249980000Y-54143000D01*
X250046666Y-54176333D01*
X250313333Y-54176333D01*
X249713333Y-53809666D02*
X249480000Y-54509666D01*
X249246666Y-53809666D01*
X248880000Y-53809666D02*
X248746666Y-53809666D01*
X248680000Y-53843000D01*
X248613333Y-53909666D01*
X248580000Y-54043000D01*
X248580000Y-54276333D01*
X248613333Y-54409666D01*
X248680000Y-54476333D01*
X248746666Y-54509666D01*
X248880000Y-54509666D01*
X248946666Y-54476333D01*
X249013333Y-54409666D01*
X249046666Y-54276333D01*
X249046666Y-54043000D01*
X249013333Y-53909666D01*
X248946666Y-53843000D01*
X248880000Y-53809666D01*
X247413333Y-53809666D02*
X247746666Y-53809666D01*
X247780000Y-54143000D01*
X247746666Y-54109666D01*
X247680000Y-54076333D01*
X247513333Y-54076333D01*
X247446666Y-54109666D01*
X247413333Y-54143000D01*
X247380000Y-54209666D01*
X247380000Y-54376333D01*
X247413333Y-54443000D01*
X247446666Y-54476333D01*
X247513333Y-54509666D01*
X247680000Y-54509666D01*
X247746666Y-54476333D01*
X247780000Y-54443000D01*
X256980000Y-54970000D02*
X257046666Y-54936666D01*
X257146666Y-54936666D01*
X257246666Y-54970000D01*
X257313333Y-55036666D01*
X257346666Y-55103333D01*
X257380000Y-55236666D01*
X257380000Y-55336666D01*
X257346666Y-55470000D01*
X257313333Y-55536666D01*
X257246666Y-55603333D01*
X257146666Y-55636666D01*
X257080000Y-55636666D01*
X256980000Y-55603333D01*
X256946666Y-55570000D01*
X256946666Y-55336666D01*
X257080000Y-55336666D01*
X256646666Y-55636666D02*
X256646666Y-54936666D01*
X256380000Y-54936666D01*
X256313333Y-54970000D01*
X256280000Y-55003333D01*
X256246666Y-55070000D01*
X256246666Y-55170000D01*
X256280000Y-55236666D01*
X256313333Y-55270000D01*
X256380000Y-55303333D01*
X256646666Y-55303333D01*
X255946666Y-55636666D02*
X255946666Y-54936666D01*
X255480000Y-54936666D02*
X255346666Y-54936666D01*
X255280000Y-54970000D01*
X255213333Y-55036666D01*
X255180000Y-55170000D01*
X255180000Y-55403333D01*
X255213333Y-55536666D01*
X255280000Y-55603333D01*
X255346666Y-55636666D01*
X255480000Y-55636666D01*
X255546666Y-55603333D01*
X255613333Y-55536666D01*
X255646666Y-55403333D01*
X255646666Y-55170000D01*
X255613333Y-55036666D01*
X255546666Y-54970000D01*
X255480000Y-54936666D01*
X254513333Y-55636666D02*
X254913333Y-55636666D01*
X254713333Y-55636666D02*
X254713333Y-54936666D01*
X254780000Y-55036666D01*
X254846666Y-55103333D01*
X254913333Y-55136666D01*
X254246666Y-55003333D02*
X254213333Y-54970000D01*
X254146666Y-54936666D01*
X253980000Y-54936666D01*
X253913333Y-54970000D01*
X253880000Y-55003333D01*
X253846666Y-55070000D01*
X253846666Y-55136666D01*
X253880000Y-55236666D01*
X254280000Y-55636666D01*
X253846666Y-55636666D01*
X253013333Y-55370000D02*
X252480000Y-55370000D01*
X251646666Y-55603333D02*
X251546666Y-55636666D01*
X251380000Y-55636666D01*
X251313333Y-55603333D01*
X251280000Y-55570000D01*
X251246666Y-55503333D01*
X251246666Y-55436666D01*
X251280000Y-55370000D01*
X251313333Y-55336666D01*
X251380000Y-55303333D01*
X251513333Y-55270000D01*
X251580000Y-55236666D01*
X251613333Y-55203333D01*
X251646666Y-55136666D01*
X251646666Y-55070000D01*
X251613333Y-55003333D01*
X251580000Y-54970000D01*
X251513333Y-54936666D01*
X251346666Y-54936666D01*
X251246666Y-54970000D01*
X250946666Y-55270000D02*
X250713333Y-55270000D01*
X250613333Y-55636666D02*
X250946666Y-55636666D01*
X250946666Y-54936666D01*
X250613333Y-54936666D01*
X249913333Y-55636666D02*
X250146666Y-55303333D01*
X250313333Y-55636666D02*
X250313333Y-54936666D01*
X250046666Y-54936666D01*
X249980000Y-54970000D01*
X249946666Y-55003333D01*
X249913333Y-55070000D01*
X249913333Y-55170000D01*
X249946666Y-55236666D01*
X249980000Y-55270000D01*
X250046666Y-55303333D01*
X250313333Y-55303333D01*
X249713333Y-54936666D02*
X249480000Y-55636666D01*
X249246666Y-54936666D01*
X248880000Y-54936666D02*
X248746666Y-54936666D01*
X248680000Y-54970000D01*
X248613333Y-55036666D01*
X248580000Y-55170000D01*
X248580000Y-55403333D01*
X248613333Y-55536666D01*
X248680000Y-55603333D01*
X248746666Y-55636666D01*
X248880000Y-55636666D01*
X248946666Y-55603333D01*
X249013333Y-55536666D01*
X249046666Y-55403333D01*
X249046666Y-55170000D01*
X249013333Y-55036666D01*
X248946666Y-54970000D01*
X248880000Y-54936666D01*
X247446666Y-55170000D02*
X247446666Y-55636666D01*
X247613333Y-54903333D02*
X247780000Y-55403333D01*
X247346666Y-55403333D01*
X256980000Y-56097000D02*
X257046666Y-56063666D01*
X257146666Y-56063666D01*
X257246666Y-56097000D01*
X257313333Y-56163666D01*
X257346666Y-56230333D01*
X257380000Y-56363666D01*
X257380000Y-56463666D01*
X257346666Y-56597000D01*
X257313333Y-56663666D01*
X257246666Y-56730333D01*
X257146666Y-56763666D01*
X257080000Y-56763666D01*
X256980000Y-56730333D01*
X256946666Y-56697000D01*
X256946666Y-56463666D01*
X257080000Y-56463666D01*
X256646666Y-56763666D02*
X256646666Y-56063666D01*
X256380000Y-56063666D01*
X256313333Y-56097000D01*
X256280000Y-56130333D01*
X256246666Y-56197000D01*
X256246666Y-56297000D01*
X256280000Y-56363666D01*
X256313333Y-56397000D01*
X256380000Y-56430333D01*
X256646666Y-56430333D01*
X255946666Y-56763666D02*
X255946666Y-56063666D01*
X255480000Y-56063666D02*
X255346666Y-56063666D01*
X255280000Y-56097000D01*
X255213333Y-56163666D01*
X255180000Y-56297000D01*
X255180000Y-56530333D01*
X255213333Y-56663666D01*
X255280000Y-56730333D01*
X255346666Y-56763666D01*
X255480000Y-56763666D01*
X255546666Y-56730333D01*
X255613333Y-56663666D01*
X255646666Y-56530333D01*
X255646666Y-56297000D01*
X255613333Y-56163666D01*
X255546666Y-56097000D01*
X255480000Y-56063666D01*
X254513333Y-56763666D02*
X254913333Y-56763666D01*
X254713333Y-56763666D02*
X254713333Y-56063666D01*
X254780000Y-56163666D01*
X254846666Y-56230333D01*
X254913333Y-56263666D01*
X254280000Y-56063666D02*
X253846666Y-56063666D01*
X254080000Y-56330333D01*
X253980000Y-56330333D01*
X253913333Y-56363666D01*
X253880000Y-56397000D01*
X253846666Y-56463666D01*
X253846666Y-56630333D01*
X253880000Y-56697000D01*
X253913333Y-56730333D01*
X253980000Y-56763666D01*
X254180000Y-56763666D01*
X254246666Y-56730333D01*
X254280000Y-56697000D01*
X253013333Y-56497000D02*
X252480000Y-56497000D01*
X251646666Y-56730333D02*
X251546666Y-56763666D01*
X251380000Y-56763666D01*
X251313333Y-56730333D01*
X251280000Y-56697000D01*
X251246666Y-56630333D01*
X251246666Y-56563666D01*
X251280000Y-56497000D01*
X251313333Y-56463666D01*
X251380000Y-56430333D01*
X251513333Y-56397000D01*
X251580000Y-56363666D01*
X251613333Y-56330333D01*
X251646666Y-56263666D01*
X251646666Y-56197000D01*
X251613333Y-56130333D01*
X251580000Y-56097000D01*
X251513333Y-56063666D01*
X251346666Y-56063666D01*
X251246666Y-56097000D01*
X250946666Y-56397000D02*
X250713333Y-56397000D01*
X250613333Y-56763666D02*
X250946666Y-56763666D01*
X250946666Y-56063666D01*
X250613333Y-56063666D01*
X249913333Y-56763666D02*
X250146666Y-56430333D01*
X250313333Y-56763666D02*
X250313333Y-56063666D01*
X250046666Y-56063666D01*
X249980000Y-56097000D01*
X249946666Y-56130333D01*
X249913333Y-56197000D01*
X249913333Y-56297000D01*
X249946666Y-56363666D01*
X249980000Y-56397000D01*
X250046666Y-56430333D01*
X250313333Y-56430333D01*
X249713333Y-56063666D02*
X249480000Y-56763666D01*
X249246666Y-56063666D01*
X248880000Y-56063666D02*
X248746666Y-56063666D01*
X248680000Y-56097000D01*
X248613333Y-56163666D01*
X248580000Y-56297000D01*
X248580000Y-56530333D01*
X248613333Y-56663666D01*
X248680000Y-56730333D01*
X248746666Y-56763666D01*
X248880000Y-56763666D01*
X248946666Y-56730333D01*
X249013333Y-56663666D01*
X249046666Y-56530333D01*
X249046666Y-56297000D01*
X249013333Y-56163666D01*
X248946666Y-56097000D01*
X248880000Y-56063666D01*
X247813333Y-56063666D02*
X247380000Y-56063666D01*
X247613333Y-56330333D01*
X247513333Y-56330333D01*
X247446666Y-56363666D01*
X247413333Y-56397000D01*
X247380000Y-56463666D01*
X247380000Y-56630333D01*
X247413333Y-56697000D01*
X247446666Y-56730333D01*
X247513333Y-56763666D01*
X247713333Y-56763666D01*
X247780000Y-56730333D01*
X247813333Y-56697000D01*
X256980000Y-57224000D02*
X257046666Y-57190666D01*
X257146666Y-57190666D01*
X257246666Y-57224000D01*
X257313333Y-57290666D01*
X257346666Y-57357333D01*
X257380000Y-57490666D01*
X257380000Y-57590666D01*
X257346666Y-57724000D01*
X257313333Y-57790666D01*
X257246666Y-57857333D01*
X257146666Y-57890666D01*
X257080000Y-57890666D01*
X256980000Y-57857333D01*
X256946666Y-57824000D01*
X256946666Y-57590666D01*
X257080000Y-57590666D01*
X256646666Y-57890666D02*
X256646666Y-57190666D01*
X256380000Y-57190666D01*
X256313333Y-57224000D01*
X256280000Y-57257333D01*
X256246666Y-57324000D01*
X256246666Y-57424000D01*
X256280000Y-57490666D01*
X256313333Y-57524000D01*
X256380000Y-57557333D01*
X256646666Y-57557333D01*
X255946666Y-57890666D02*
X255946666Y-57190666D01*
X255480000Y-57190666D02*
X255346666Y-57190666D01*
X255280000Y-57224000D01*
X255213333Y-57290666D01*
X255180000Y-57424000D01*
X255180000Y-57657333D01*
X255213333Y-57790666D01*
X255280000Y-57857333D01*
X255346666Y-57890666D01*
X255480000Y-57890666D01*
X255546666Y-57857333D01*
X255613333Y-57790666D01*
X255646666Y-57657333D01*
X255646666Y-57424000D01*
X255613333Y-57290666D01*
X255546666Y-57224000D01*
X255480000Y-57190666D01*
X254513333Y-57890666D02*
X254913333Y-57890666D01*
X254713333Y-57890666D02*
X254713333Y-57190666D01*
X254780000Y-57290666D01*
X254846666Y-57357333D01*
X254913333Y-57390666D01*
X253913333Y-57424000D02*
X253913333Y-57890666D01*
X254080000Y-57157333D02*
X254246666Y-57657333D01*
X253813333Y-57657333D01*
X253013333Y-57624000D02*
X252480000Y-57624000D01*
X251646666Y-57857333D02*
X251546666Y-57890666D01*
X251380000Y-57890666D01*
X251313333Y-57857333D01*
X251280000Y-57824000D01*
X251246666Y-57757333D01*
X251246666Y-57690666D01*
X251280000Y-57624000D01*
X251313333Y-57590666D01*
X251380000Y-57557333D01*
X251513333Y-57524000D01*
X251580000Y-57490666D01*
X251613333Y-57457333D01*
X251646666Y-57390666D01*
X251646666Y-57324000D01*
X251613333Y-57257333D01*
X251580000Y-57224000D01*
X251513333Y-57190666D01*
X251346666Y-57190666D01*
X251246666Y-57224000D01*
X250946666Y-57524000D02*
X250713333Y-57524000D01*
X250613333Y-57890666D02*
X250946666Y-57890666D01*
X250946666Y-57190666D01*
X250613333Y-57190666D01*
X249913333Y-57890666D02*
X250146666Y-57557333D01*
X250313333Y-57890666D02*
X250313333Y-57190666D01*
X250046666Y-57190666D01*
X249980000Y-57224000D01*
X249946666Y-57257333D01*
X249913333Y-57324000D01*
X249913333Y-57424000D01*
X249946666Y-57490666D01*
X249980000Y-57524000D01*
X250046666Y-57557333D01*
X250313333Y-57557333D01*
X249713333Y-57190666D02*
X249480000Y-57890666D01*
X249246666Y-57190666D01*
X248880000Y-57190666D02*
X248746666Y-57190666D01*
X248680000Y-57224000D01*
X248613333Y-57290666D01*
X248580000Y-57424000D01*
X248580000Y-57657333D01*
X248613333Y-57790666D01*
X248680000Y-57857333D01*
X248746666Y-57890666D01*
X248880000Y-57890666D01*
X248946666Y-57857333D01*
X249013333Y-57790666D01*
X249046666Y-57657333D01*
X249046666Y-57424000D01*
X249013333Y-57290666D01*
X248946666Y-57224000D01*
X248880000Y-57190666D01*
X247780000Y-57257333D02*
X247746666Y-57224000D01*
X247680000Y-57190666D01*
X247513333Y-57190666D01*
X247446666Y-57224000D01*
X247413333Y-57257333D01*
X247380000Y-57324000D01*
X247380000Y-57390666D01*
X247413333Y-57490666D01*
X247813333Y-57890666D01*
X247380000Y-57890666D01*
X256980000Y-58351000D02*
X257046666Y-58317666D01*
X257146666Y-58317666D01*
X257246666Y-58351000D01*
X257313333Y-58417666D01*
X257346666Y-58484333D01*
X257380000Y-58617666D01*
X257380000Y-58717666D01*
X257346666Y-58851000D01*
X257313333Y-58917666D01*
X257246666Y-58984333D01*
X257146666Y-59017666D01*
X257080000Y-59017666D01*
X256980000Y-58984333D01*
X256946666Y-58951000D01*
X256946666Y-58717666D01*
X257080000Y-58717666D01*
X256646666Y-59017666D02*
X256646666Y-58317666D01*
X256380000Y-58317666D01*
X256313333Y-58351000D01*
X256280000Y-58384333D01*
X256246666Y-58451000D01*
X256246666Y-58551000D01*
X256280000Y-58617666D01*
X256313333Y-58651000D01*
X256380000Y-58684333D01*
X256646666Y-58684333D01*
X255946666Y-59017666D02*
X255946666Y-58317666D01*
X255480000Y-58317666D02*
X255346666Y-58317666D01*
X255280000Y-58351000D01*
X255213333Y-58417666D01*
X255180000Y-58551000D01*
X255180000Y-58784333D01*
X255213333Y-58917666D01*
X255280000Y-58984333D01*
X255346666Y-59017666D01*
X255480000Y-59017666D01*
X255546666Y-58984333D01*
X255613333Y-58917666D01*
X255646666Y-58784333D01*
X255646666Y-58551000D01*
X255613333Y-58417666D01*
X255546666Y-58351000D01*
X255480000Y-58317666D01*
X254513333Y-59017666D02*
X254913333Y-59017666D01*
X254713333Y-59017666D02*
X254713333Y-58317666D01*
X254780000Y-58417666D01*
X254846666Y-58484333D01*
X254913333Y-58517666D01*
X253880000Y-58317666D02*
X254213333Y-58317666D01*
X254246666Y-58651000D01*
X254213333Y-58617666D01*
X254146666Y-58584333D01*
X253980000Y-58584333D01*
X253913333Y-58617666D01*
X253880000Y-58651000D01*
X253846666Y-58717666D01*
X253846666Y-58884333D01*
X253880000Y-58951000D01*
X253913333Y-58984333D01*
X253980000Y-59017666D01*
X254146666Y-59017666D01*
X254213333Y-58984333D01*
X254246666Y-58951000D01*
X253013333Y-58751000D02*
X252480000Y-58751000D01*
X251646666Y-58984333D02*
X251546666Y-59017666D01*
X251380000Y-59017666D01*
X251313333Y-58984333D01*
X251280000Y-58951000D01*
X251246666Y-58884333D01*
X251246666Y-58817666D01*
X251280000Y-58751000D01*
X251313333Y-58717666D01*
X251380000Y-58684333D01*
X251513333Y-58651000D01*
X251580000Y-58617666D01*
X251613333Y-58584333D01*
X251646666Y-58517666D01*
X251646666Y-58451000D01*
X251613333Y-58384333D01*
X251580000Y-58351000D01*
X251513333Y-58317666D01*
X251346666Y-58317666D01*
X251246666Y-58351000D01*
X250946666Y-58651000D02*
X250713333Y-58651000D01*
X250613333Y-59017666D02*
X250946666Y-59017666D01*
X250946666Y-58317666D01*
X250613333Y-58317666D01*
X249913333Y-59017666D02*
X250146666Y-58684333D01*
X250313333Y-59017666D02*
X250313333Y-58317666D01*
X250046666Y-58317666D01*
X249980000Y-58351000D01*
X249946666Y-58384333D01*
X249913333Y-58451000D01*
X249913333Y-58551000D01*
X249946666Y-58617666D01*
X249980000Y-58651000D01*
X250046666Y-58684333D01*
X250313333Y-58684333D01*
X249713333Y-58317666D02*
X249480000Y-59017666D01*
X249246666Y-58317666D01*
X248880000Y-58317666D02*
X248746666Y-58317666D01*
X248680000Y-58351000D01*
X248613333Y-58417666D01*
X248580000Y-58551000D01*
X248580000Y-58784333D01*
X248613333Y-58917666D01*
X248680000Y-58984333D01*
X248746666Y-59017666D01*
X248880000Y-59017666D01*
X248946666Y-58984333D01*
X249013333Y-58917666D01*
X249046666Y-58784333D01*
X249046666Y-58551000D01*
X249013333Y-58417666D01*
X248946666Y-58351000D01*
X248880000Y-58317666D01*
X247380000Y-59017666D02*
X247780000Y-59017666D01*
X247580000Y-59017666D02*
X247580000Y-58317666D01*
X247646666Y-58417666D01*
X247713333Y-58484333D01*
X247780000Y-58517666D01*
X257196666Y-59478000D02*
X257263333Y-59444666D01*
X257363333Y-59444666D01*
X257463333Y-59478000D01*
X257530000Y-59544666D01*
X257563333Y-59611333D01*
X257596666Y-59744666D01*
X257596666Y-59844666D01*
X257563333Y-59978000D01*
X257530000Y-60044666D01*
X257463333Y-60111333D01*
X257363333Y-60144666D01*
X257296666Y-60144666D01*
X257196666Y-60111333D01*
X257163333Y-60078000D01*
X257163333Y-59844666D01*
X257296666Y-59844666D01*
X256863333Y-60144666D02*
X256863333Y-59444666D01*
X256596666Y-59444666D01*
X256530000Y-59478000D01*
X256496666Y-59511333D01*
X256463333Y-59578000D01*
X256463333Y-59678000D01*
X256496666Y-59744666D01*
X256530000Y-59778000D01*
X256596666Y-59811333D01*
X256863333Y-59811333D01*
X256163333Y-60144666D02*
X256163333Y-59444666D01*
X255696666Y-59444666D02*
X255563333Y-59444666D01*
X255496666Y-59478000D01*
X255430000Y-59544666D01*
X255396666Y-59678000D01*
X255396666Y-59911333D01*
X255430000Y-60044666D01*
X255496666Y-60111333D01*
X255563333Y-60144666D01*
X255696666Y-60144666D01*
X255763333Y-60111333D01*
X255830000Y-60044666D01*
X255863333Y-59911333D01*
X255863333Y-59678000D01*
X255830000Y-59544666D01*
X255763333Y-59478000D01*
X255696666Y-59444666D01*
X254730000Y-60144666D02*
X255130000Y-60144666D01*
X254930000Y-60144666D02*
X254930000Y-59444666D01*
X254996666Y-59544666D01*
X255063333Y-59611333D01*
X255130000Y-59644666D01*
X254130000Y-59444666D02*
X254263333Y-59444666D01*
X254330000Y-59478000D01*
X254363333Y-59511333D01*
X254430000Y-59611333D01*
X254463333Y-59744666D01*
X254463333Y-60011333D01*
X254430000Y-60078000D01*
X254396666Y-60111333D01*
X254330000Y-60144666D01*
X254196666Y-60144666D01*
X254130000Y-60111333D01*
X254096666Y-60078000D01*
X254063333Y-60011333D01*
X254063333Y-59844666D01*
X254096666Y-59778000D01*
X254130000Y-59744666D01*
X254196666Y-59711333D01*
X254330000Y-59711333D01*
X254396666Y-59744666D01*
X254430000Y-59778000D01*
X254463333Y-59844666D01*
X253230000Y-59878000D02*
X252696666Y-59878000D01*
X251830000Y-59444666D02*
X251830000Y-60011333D01*
X251796666Y-60078000D01*
X251763333Y-60111333D01*
X251696666Y-60144666D01*
X251563333Y-60144666D01*
X251496666Y-60111333D01*
X251463333Y-60078000D01*
X251430000Y-60011333D01*
X251430000Y-59444666D01*
X251130000Y-59944666D02*
X250796666Y-59944666D01*
X251196666Y-60144666D02*
X250963333Y-59444666D01*
X250730000Y-60144666D01*
X250096666Y-60144666D02*
X250330000Y-59811333D01*
X250496666Y-60144666D02*
X250496666Y-59444666D01*
X250230000Y-59444666D01*
X250163333Y-59478000D01*
X250130000Y-59511333D01*
X250096666Y-59578000D01*
X250096666Y-59678000D01*
X250130000Y-59744666D01*
X250163333Y-59778000D01*
X250230000Y-59811333D01*
X250496666Y-59811333D01*
X249896666Y-59444666D02*
X249496666Y-59444666D01*
X249696666Y-60144666D02*
X249696666Y-59444666D01*
X249130000Y-59444666D02*
X249063333Y-59444666D01*
X248996666Y-59478000D01*
X248963333Y-59511333D01*
X248930000Y-59578000D01*
X248896666Y-59711333D01*
X248896666Y-59878000D01*
X248930000Y-60011333D01*
X248963333Y-60078000D01*
X248996666Y-60111333D01*
X249063333Y-60144666D01*
X249130000Y-60144666D01*
X249196666Y-60111333D01*
X249230000Y-60078000D01*
X249263333Y-60011333D01*
X249296666Y-59878000D01*
X249296666Y-59711333D01*
X249263333Y-59578000D01*
X249230000Y-59511333D01*
X249196666Y-59478000D01*
X249130000Y-59444666D01*
X248163333Y-59444666D02*
X247763333Y-59444666D01*
X247963333Y-60144666D02*
X247963333Y-59444666D01*
X247596666Y-59444666D02*
X247130000Y-60144666D01*
X247130000Y-59444666D02*
X247596666Y-60144666D01*
X257280000Y-60605000D02*
X257346666Y-60571666D01*
X257446666Y-60571666D01*
X257546666Y-60605000D01*
X257613333Y-60671666D01*
X257646666Y-60738333D01*
X257680000Y-60871666D01*
X257680000Y-60971666D01*
X257646666Y-61105000D01*
X257613333Y-61171666D01*
X257546666Y-61238333D01*
X257446666Y-61271666D01*
X257380000Y-61271666D01*
X257280000Y-61238333D01*
X257246666Y-61205000D01*
X257246666Y-60971666D01*
X257380000Y-60971666D01*
X256946666Y-61271666D02*
X256946666Y-60571666D01*
X256680000Y-60571666D01*
X256613333Y-60605000D01*
X256580000Y-60638333D01*
X256546666Y-60705000D01*
X256546666Y-60805000D01*
X256580000Y-60871666D01*
X256613333Y-60905000D01*
X256680000Y-60938333D01*
X256946666Y-60938333D01*
X256246666Y-61271666D02*
X256246666Y-60571666D01*
X255780000Y-60571666D02*
X255646666Y-60571666D01*
X255580000Y-60605000D01*
X255513333Y-60671666D01*
X255480000Y-60805000D01*
X255480000Y-61038333D01*
X255513333Y-61171666D01*
X255580000Y-61238333D01*
X255646666Y-61271666D01*
X255780000Y-61271666D01*
X255846666Y-61238333D01*
X255913333Y-61171666D01*
X255946666Y-61038333D01*
X255946666Y-60805000D01*
X255913333Y-60671666D01*
X255846666Y-60605000D01*
X255780000Y-60571666D01*
X254813333Y-61271666D02*
X255213333Y-61271666D01*
X255013333Y-61271666D02*
X255013333Y-60571666D01*
X255080000Y-60671666D01*
X255146666Y-60738333D01*
X255213333Y-60771666D01*
X254580000Y-60571666D02*
X254113333Y-60571666D01*
X254413333Y-61271666D01*
X253313333Y-61005000D02*
X252780000Y-61005000D01*
X251913333Y-60571666D02*
X251913333Y-61138333D01*
X251880000Y-61205000D01*
X251846666Y-61238333D01*
X251780000Y-61271666D01*
X251646666Y-61271666D01*
X251580000Y-61238333D01*
X251546666Y-61205000D01*
X251513333Y-61138333D01*
X251513333Y-60571666D01*
X251213333Y-61071666D02*
X250880000Y-61071666D01*
X251280000Y-61271666D02*
X251046666Y-60571666D01*
X250813333Y-61271666D01*
X250180000Y-61271666D02*
X250413333Y-60938333D01*
X250580000Y-61271666D02*
X250580000Y-60571666D01*
X250313333Y-60571666D01*
X250246666Y-60605000D01*
X250213333Y-60638333D01*
X250180000Y-60705000D01*
X250180000Y-60805000D01*
X250213333Y-60871666D01*
X250246666Y-60905000D01*
X250313333Y-60938333D01*
X250580000Y-60938333D01*
X249980000Y-60571666D02*
X249580000Y-60571666D01*
X249780000Y-61271666D02*
X249780000Y-60571666D01*
X249213333Y-60571666D02*
X249146666Y-60571666D01*
X249080000Y-60605000D01*
X249046666Y-60638333D01*
X249013333Y-60705000D01*
X248980000Y-60838333D01*
X248980000Y-61005000D01*
X249013333Y-61138333D01*
X249046666Y-61205000D01*
X249080000Y-61238333D01*
X249146666Y-61271666D01*
X249213333Y-61271666D01*
X249280000Y-61238333D01*
X249313333Y-61205000D01*
X249346666Y-61138333D01*
X249380000Y-61005000D01*
X249380000Y-60838333D01*
X249346666Y-60705000D01*
X249313333Y-60638333D01*
X249280000Y-60605000D01*
X249213333Y-60571666D01*
X247746666Y-61271666D02*
X247980000Y-60938333D01*
X248146666Y-61271666D02*
X248146666Y-60571666D01*
X247880000Y-60571666D01*
X247813333Y-60605000D01*
X247780000Y-60638333D01*
X247746666Y-60705000D01*
X247746666Y-60805000D01*
X247780000Y-60871666D01*
X247813333Y-60905000D01*
X247880000Y-60938333D01*
X248146666Y-60938333D01*
X247513333Y-60571666D02*
X247046666Y-61271666D01*
X247046666Y-60571666D02*
X247513333Y-61271666D01*
X259613333Y-61732000D02*
X259680000Y-61698666D01*
X259780000Y-61698666D01*
X259880000Y-61732000D01*
X259946666Y-61798666D01*
X259980000Y-61865333D01*
X260013333Y-61998666D01*
X260013333Y-62098666D01*
X259980000Y-62232000D01*
X259946666Y-62298666D01*
X259880000Y-62365333D01*
X259780000Y-62398666D01*
X259713333Y-62398666D01*
X259613333Y-62365333D01*
X259580000Y-62332000D01*
X259580000Y-62098666D01*
X259713333Y-62098666D01*
X259280000Y-62398666D02*
X259280000Y-61698666D01*
X259013333Y-61698666D01*
X258946666Y-61732000D01*
X258913333Y-61765333D01*
X258880000Y-61832000D01*
X258880000Y-61932000D01*
X258913333Y-61998666D01*
X258946666Y-62032000D01*
X259013333Y-62065333D01*
X259280000Y-62065333D01*
X258580000Y-62398666D02*
X258580000Y-61698666D01*
X258113333Y-61698666D02*
X257980000Y-61698666D01*
X257913333Y-61732000D01*
X257846666Y-61798666D01*
X257813333Y-61932000D01*
X257813333Y-62165333D01*
X257846666Y-62298666D01*
X257913333Y-62365333D01*
X257980000Y-62398666D01*
X258113333Y-62398666D01*
X258180000Y-62365333D01*
X258246666Y-62298666D01*
X258280000Y-62165333D01*
X258280000Y-61932000D01*
X258246666Y-61798666D01*
X258180000Y-61732000D01*
X258113333Y-61698666D01*
X257546666Y-61765333D02*
X257513333Y-61732000D01*
X257446666Y-61698666D01*
X257280000Y-61698666D01*
X257213333Y-61732000D01*
X257180000Y-61765333D01*
X257146666Y-61832000D01*
X257146666Y-61898666D01*
X257180000Y-61998666D01*
X257580000Y-62398666D01*
X257146666Y-62398666D01*
X256480000Y-62398666D02*
X256880000Y-62398666D01*
X256680000Y-62398666D02*
X256680000Y-61698666D01*
X256746666Y-61798666D01*
X256813333Y-61865333D01*
X256880000Y-61898666D01*
X255646666Y-62132000D02*
X255113333Y-62132000D01*
X254280000Y-62365333D02*
X254180000Y-62398666D01*
X254013333Y-62398666D01*
X253946666Y-62365333D01*
X253913333Y-62332000D01*
X253880000Y-62265333D01*
X253880000Y-62198666D01*
X253913333Y-62132000D01*
X253946666Y-62098666D01*
X254013333Y-62065333D01*
X254146666Y-62032000D01*
X254213333Y-61998666D01*
X254246666Y-61965333D01*
X254280000Y-61898666D01*
X254280000Y-61832000D01*
X254246666Y-61765333D01*
X254213333Y-61732000D01*
X254146666Y-61698666D01*
X253980000Y-61698666D01*
X253880000Y-61732000D01*
X253680000Y-61698666D02*
X253280000Y-61698666D01*
X253480000Y-62398666D02*
X253480000Y-61698666D01*
X253080000Y-62198666D02*
X252746666Y-62198666D01*
X253146666Y-62398666D02*
X252913333Y-61698666D01*
X252680000Y-62398666D01*
X252546666Y-61698666D02*
X252146666Y-61698666D01*
X252346666Y-62398666D02*
X252346666Y-61698666D01*
X251913333Y-61698666D02*
X251913333Y-62265333D01*
X251880000Y-62332000D01*
X251846666Y-62365333D01*
X251780000Y-62398666D01*
X251646666Y-62398666D01*
X251580000Y-62365333D01*
X251546666Y-62332000D01*
X251513333Y-62265333D01*
X251513333Y-61698666D01*
X251213333Y-62365333D02*
X251113333Y-62398666D01*
X250946666Y-62398666D01*
X250880000Y-62365333D01*
X250846666Y-62332000D01*
X250813333Y-62265333D01*
X250813333Y-62198666D01*
X250846666Y-62132000D01*
X250880000Y-62098666D01*
X250946666Y-62065333D01*
X251080000Y-62032000D01*
X251146666Y-61998666D01*
X251180000Y-61965333D01*
X251213333Y-61898666D01*
X251213333Y-61832000D01*
X251180000Y-61765333D01*
X251146666Y-61732000D01*
X251080000Y-61698666D01*
X250913333Y-61698666D01*
X250813333Y-61732000D01*
X249580000Y-62398666D02*
X249813333Y-62065333D01*
X249980000Y-62398666D02*
X249980000Y-61698666D01*
X249713333Y-61698666D01*
X249646666Y-61732000D01*
X249613333Y-61765333D01*
X249580000Y-61832000D01*
X249580000Y-61932000D01*
X249613333Y-61998666D01*
X249646666Y-62032000D01*
X249713333Y-62065333D01*
X249980000Y-62065333D01*
X249280000Y-62032000D02*
X249046666Y-62032000D01*
X248946666Y-62398666D02*
X249280000Y-62398666D01*
X249280000Y-61698666D01*
X248946666Y-61698666D01*
X248646666Y-62398666D02*
X248646666Y-61698666D01*
X248480000Y-61698666D01*
X248380000Y-61732000D01*
X248313333Y-61798666D01*
X248280000Y-61865333D01*
X248246666Y-61998666D01*
X248246666Y-62098666D01*
X248280000Y-62232000D01*
X248313333Y-62298666D01*
X248380000Y-62365333D01*
X248480000Y-62398666D01*
X248646666Y-62398666D01*
X247213333Y-62632000D02*
X247380000Y-62632000D01*
X247380000Y-61632000D01*
X247213333Y-61632000D01*
X246946666Y-62032000D02*
X246713333Y-62032000D01*
X246613333Y-62398666D02*
X246946666Y-62398666D01*
X246946666Y-61698666D01*
X246613333Y-61698666D01*
X245913333Y-62398666D02*
X246146666Y-62065333D01*
X246313333Y-62398666D02*
X246313333Y-61698666D01*
X246046666Y-61698666D01*
X245980000Y-61732000D01*
X245946666Y-61765333D01*
X245913333Y-61832000D01*
X245913333Y-61932000D01*
X245946666Y-61998666D01*
X245980000Y-62032000D01*
X246046666Y-62065333D01*
X246313333Y-62065333D01*
X245213333Y-62398666D02*
X245446666Y-62065333D01*
X245613333Y-62398666D02*
X245613333Y-61698666D01*
X245346666Y-61698666D01*
X245280000Y-61732000D01*
X245246666Y-61765333D01*
X245213333Y-61832000D01*
X245213333Y-61932000D01*
X245246666Y-61998666D01*
X245280000Y-62032000D01*
X245346666Y-62065333D01*
X245613333Y-62065333D01*
X244980000Y-62632000D02*
X244813333Y-62632000D01*
X244813333Y-61632000D01*
X244980000Y-61632000D01*
X260280000Y-62859000D02*
X260346666Y-62825666D01*
X260446666Y-62825666D01*
X260546666Y-62859000D01*
X260613333Y-62925666D01*
X260646666Y-62992333D01*
X260680000Y-63125666D01*
X260680000Y-63225666D01*
X260646666Y-63359000D01*
X260613333Y-63425666D01*
X260546666Y-63492333D01*
X260446666Y-63525666D01*
X260380000Y-63525666D01*
X260280000Y-63492333D01*
X260246666Y-63459000D01*
X260246666Y-63225666D01*
X260380000Y-63225666D01*
X259946666Y-63525666D02*
X259946666Y-62825666D01*
X259680000Y-62825666D01*
X259613333Y-62859000D01*
X259580000Y-62892333D01*
X259546666Y-62959000D01*
X259546666Y-63059000D01*
X259580000Y-63125666D01*
X259613333Y-63159000D01*
X259680000Y-63192333D01*
X259946666Y-63192333D01*
X259246666Y-63525666D02*
X259246666Y-62825666D01*
X258780000Y-62825666D02*
X258646666Y-62825666D01*
X258580000Y-62859000D01*
X258513333Y-62925666D01*
X258480000Y-63059000D01*
X258480000Y-63292333D01*
X258513333Y-63425666D01*
X258580000Y-63492333D01*
X258646666Y-63525666D01*
X258780000Y-63525666D01*
X258846666Y-63492333D01*
X258913333Y-63425666D01*
X258946666Y-63292333D01*
X258946666Y-63059000D01*
X258913333Y-62925666D01*
X258846666Y-62859000D01*
X258780000Y-62825666D01*
X258213333Y-62892333D02*
X258180000Y-62859000D01*
X258113333Y-62825666D01*
X257946666Y-62825666D01*
X257880000Y-62859000D01*
X257846666Y-62892333D01*
X257813333Y-62959000D01*
X257813333Y-63025666D01*
X257846666Y-63125666D01*
X258246666Y-63525666D01*
X257813333Y-63525666D01*
X257546666Y-62892333D02*
X257513333Y-62859000D01*
X257446666Y-62825666D01*
X257280000Y-62825666D01*
X257213333Y-62859000D01*
X257180000Y-62892333D01*
X257146666Y-62959000D01*
X257146666Y-63025666D01*
X257180000Y-63125666D01*
X257580000Y-63525666D01*
X257146666Y-63525666D01*
X256313333Y-63259000D02*
X255780000Y-63259000D01*
X254946666Y-63492333D02*
X254846666Y-63525666D01*
X254680000Y-63525666D01*
X254613333Y-63492333D01*
X254580000Y-63459000D01*
X254546666Y-63392333D01*
X254546666Y-63325666D01*
X254580000Y-63259000D01*
X254613333Y-63225666D01*
X254680000Y-63192333D01*
X254813333Y-63159000D01*
X254880000Y-63125666D01*
X254913333Y-63092333D01*
X254946666Y-63025666D01*
X254946666Y-62959000D01*
X254913333Y-62892333D01*
X254880000Y-62859000D01*
X254813333Y-62825666D01*
X254646666Y-62825666D01*
X254546666Y-62859000D01*
X254346666Y-62825666D02*
X253946666Y-62825666D01*
X254146666Y-63525666D02*
X254146666Y-62825666D01*
X253746666Y-63325666D02*
X253413333Y-63325666D01*
X253813333Y-63525666D02*
X253580000Y-62825666D01*
X253346666Y-63525666D01*
X253213333Y-62825666D02*
X252813333Y-62825666D01*
X253013333Y-63525666D02*
X253013333Y-62825666D01*
X252580000Y-62825666D02*
X252580000Y-63392333D01*
X252546666Y-63459000D01*
X252513333Y-63492333D01*
X252446666Y-63525666D01*
X252313333Y-63525666D01*
X252246666Y-63492333D01*
X252213333Y-63459000D01*
X252180000Y-63392333D01*
X252180000Y-62825666D01*
X251880000Y-63492333D02*
X251780000Y-63525666D01*
X251613333Y-63525666D01*
X251546666Y-63492333D01*
X251513333Y-63459000D01*
X251480000Y-63392333D01*
X251480000Y-63325666D01*
X251513333Y-63259000D01*
X251546666Y-63225666D01*
X251613333Y-63192333D01*
X251746666Y-63159000D01*
X251813333Y-63125666D01*
X251846666Y-63092333D01*
X251880000Y-63025666D01*
X251880000Y-62959000D01*
X251846666Y-62892333D01*
X251813333Y-62859000D01*
X251746666Y-62825666D01*
X251580000Y-62825666D01*
X251480000Y-62859000D01*
X250280000Y-62859000D02*
X250346666Y-62825666D01*
X250446666Y-62825666D01*
X250546666Y-62859000D01*
X250613333Y-62925666D01*
X250646666Y-62992333D01*
X250680000Y-63125666D01*
X250680000Y-63225666D01*
X250646666Y-63359000D01*
X250613333Y-63425666D01*
X250546666Y-63492333D01*
X250446666Y-63525666D01*
X250380000Y-63525666D01*
X250280000Y-63492333D01*
X250246666Y-63459000D01*
X250246666Y-63225666D01*
X250380000Y-63225666D01*
X249546666Y-63525666D02*
X249780000Y-63192333D01*
X249946666Y-63525666D02*
X249946666Y-62825666D01*
X249680000Y-62825666D01*
X249613333Y-62859000D01*
X249580000Y-62892333D01*
X249546666Y-62959000D01*
X249546666Y-63059000D01*
X249580000Y-63125666D01*
X249613333Y-63159000D01*
X249680000Y-63192333D01*
X249946666Y-63192333D01*
X249246666Y-63159000D02*
X249013333Y-63159000D01*
X248913333Y-63525666D02*
X249246666Y-63525666D01*
X249246666Y-62825666D01*
X248913333Y-62825666D01*
X248613333Y-63159000D02*
X248380000Y-63159000D01*
X248280000Y-63525666D02*
X248613333Y-63525666D01*
X248613333Y-62825666D01*
X248280000Y-62825666D01*
X247980000Y-63525666D02*
X247980000Y-62825666D01*
X247580000Y-63525666D01*
X247580000Y-62825666D01*
X246513333Y-63759000D02*
X246680000Y-63759000D01*
X246680000Y-62759000D01*
X246513333Y-62759000D01*
X245846666Y-63525666D02*
X246080000Y-63192333D01*
X246246666Y-63525666D02*
X246246666Y-62825666D01*
X245980000Y-62825666D01*
X245913333Y-62859000D01*
X245880000Y-62892333D01*
X245846666Y-62959000D01*
X245846666Y-63059000D01*
X245880000Y-63125666D01*
X245913333Y-63159000D01*
X245980000Y-63192333D01*
X246246666Y-63192333D01*
X245546666Y-63525666D02*
X245546666Y-62825666D01*
X245380000Y-62825666D01*
X245280000Y-62859000D01*
X245213333Y-62925666D01*
X245180000Y-62992333D01*
X245146666Y-63125666D01*
X245146666Y-63225666D01*
X245180000Y-63359000D01*
X245213333Y-63425666D01*
X245280000Y-63492333D01*
X245380000Y-63525666D01*
X245546666Y-63525666D01*
X244713333Y-63192333D02*
X244713333Y-63525666D01*
X244946666Y-62825666D02*
X244713333Y-63192333D01*
X244480000Y-62825666D01*
X244313333Y-63759000D02*
X244146666Y-63759000D01*
X244146666Y-62759000D01*
X244313333Y-62759000D01*
X259830000Y-63986000D02*
X259896666Y-63952666D01*
X259996666Y-63952666D01*
X260096666Y-63986000D01*
X260163333Y-64052666D01*
X260196666Y-64119333D01*
X260230000Y-64252666D01*
X260230000Y-64352666D01*
X260196666Y-64486000D01*
X260163333Y-64552666D01*
X260096666Y-64619333D01*
X259996666Y-64652666D01*
X259930000Y-64652666D01*
X259830000Y-64619333D01*
X259796666Y-64586000D01*
X259796666Y-64352666D01*
X259930000Y-64352666D01*
X259496666Y-64652666D02*
X259496666Y-63952666D01*
X259230000Y-63952666D01*
X259163333Y-63986000D01*
X259130000Y-64019333D01*
X259096666Y-64086000D01*
X259096666Y-64186000D01*
X259130000Y-64252666D01*
X259163333Y-64286000D01*
X259230000Y-64319333D01*
X259496666Y-64319333D01*
X258796666Y-64652666D02*
X258796666Y-63952666D01*
X258330000Y-63952666D02*
X258196666Y-63952666D01*
X258130000Y-63986000D01*
X258063333Y-64052666D01*
X258030000Y-64186000D01*
X258030000Y-64419333D01*
X258063333Y-64552666D01*
X258130000Y-64619333D01*
X258196666Y-64652666D01*
X258330000Y-64652666D01*
X258396666Y-64619333D01*
X258463333Y-64552666D01*
X258496666Y-64419333D01*
X258496666Y-64186000D01*
X258463333Y-64052666D01*
X258396666Y-63986000D01*
X258330000Y-63952666D01*
X257763333Y-64019333D02*
X257730000Y-63986000D01*
X257663333Y-63952666D01*
X257496666Y-63952666D01*
X257430000Y-63986000D01*
X257396666Y-64019333D01*
X257363333Y-64086000D01*
X257363333Y-64152666D01*
X257396666Y-64252666D01*
X257796666Y-64652666D01*
X257363333Y-64652666D01*
X257130000Y-63952666D02*
X256696666Y-63952666D01*
X256930000Y-64219333D01*
X256830000Y-64219333D01*
X256763333Y-64252666D01*
X256730000Y-64286000D01*
X256696666Y-64352666D01*
X256696666Y-64519333D01*
X256730000Y-64586000D01*
X256763333Y-64619333D01*
X256830000Y-64652666D01*
X257030000Y-64652666D01*
X257096666Y-64619333D01*
X257130000Y-64586000D01*
X255863333Y-64386000D02*
X255330000Y-64386000D01*
X254496666Y-64619333D02*
X254396666Y-64652666D01*
X254230000Y-64652666D01*
X254163333Y-64619333D01*
X254130000Y-64586000D01*
X254096666Y-64519333D01*
X254096666Y-64452666D01*
X254130000Y-64386000D01*
X254163333Y-64352666D01*
X254230000Y-64319333D01*
X254363333Y-64286000D01*
X254430000Y-64252666D01*
X254463333Y-64219333D01*
X254496666Y-64152666D01*
X254496666Y-64086000D01*
X254463333Y-64019333D01*
X254430000Y-63986000D01*
X254363333Y-63952666D01*
X254196666Y-63952666D01*
X254096666Y-63986000D01*
X253896666Y-63952666D02*
X253496666Y-63952666D01*
X253696666Y-64652666D02*
X253696666Y-63952666D01*
X253296666Y-64452666D02*
X252963333Y-64452666D01*
X253363333Y-64652666D02*
X253130000Y-63952666D01*
X252896666Y-64652666D01*
X252763333Y-63952666D02*
X252363333Y-63952666D01*
X252563333Y-64652666D02*
X252563333Y-63952666D01*
X252130000Y-63952666D02*
X252130000Y-64519333D01*
X252096666Y-64586000D01*
X252063333Y-64619333D01*
X251996666Y-64652666D01*
X251863333Y-64652666D01*
X251796666Y-64619333D01*
X251763333Y-64586000D01*
X251730000Y-64519333D01*
X251730000Y-63952666D01*
X251430000Y-64619333D02*
X251330000Y-64652666D01*
X251163333Y-64652666D01*
X251096666Y-64619333D01*
X251063333Y-64586000D01*
X251030000Y-64519333D01*
X251030000Y-64452666D01*
X251063333Y-64386000D01*
X251096666Y-64352666D01*
X251163333Y-64319333D01*
X251296666Y-64286000D01*
X251363333Y-64252666D01*
X251396666Y-64219333D01*
X251430000Y-64152666D01*
X251430000Y-64086000D01*
X251396666Y-64019333D01*
X251363333Y-63986000D01*
X251296666Y-63952666D01*
X251130000Y-63952666D01*
X251030000Y-63986000D01*
X249963333Y-64286000D02*
X249863333Y-64319333D01*
X249830000Y-64352666D01*
X249796666Y-64419333D01*
X249796666Y-64519333D01*
X249830000Y-64586000D01*
X249863333Y-64619333D01*
X249930000Y-64652666D01*
X250196666Y-64652666D01*
X250196666Y-63952666D01*
X249963333Y-63952666D01*
X249896666Y-63986000D01*
X249863333Y-64019333D01*
X249830000Y-64086000D01*
X249830000Y-64152666D01*
X249863333Y-64219333D01*
X249896666Y-64252666D01*
X249963333Y-64286000D01*
X250196666Y-64286000D01*
X249163333Y-64652666D02*
X249496666Y-64652666D01*
X249496666Y-63952666D01*
X248930000Y-63952666D02*
X248930000Y-64519333D01*
X248896666Y-64586000D01*
X248863333Y-64619333D01*
X248796666Y-64652666D01*
X248663333Y-64652666D01*
X248596666Y-64619333D01*
X248563333Y-64586000D01*
X248530000Y-64519333D01*
X248530000Y-63952666D01*
X248196666Y-64286000D02*
X247963333Y-64286000D01*
X247863333Y-64652666D02*
X248196666Y-64652666D01*
X248196666Y-63952666D01*
X247863333Y-63952666D01*
X246830000Y-64886000D02*
X246996666Y-64886000D01*
X246996666Y-63886000D01*
X246830000Y-63886000D01*
X246163333Y-64586000D02*
X246196666Y-64619333D01*
X246296666Y-64652666D01*
X246363333Y-64652666D01*
X246463333Y-64619333D01*
X246530000Y-64552666D01*
X246563333Y-64486000D01*
X246596666Y-64352666D01*
X246596666Y-64252666D01*
X246563333Y-64119333D01*
X246530000Y-64052666D01*
X246463333Y-63986000D01*
X246363333Y-63952666D01*
X246296666Y-63952666D01*
X246196666Y-63986000D01*
X246163333Y-64019333D01*
X245896666Y-64452666D02*
X245563333Y-64452666D01*
X245963333Y-64652666D02*
X245730000Y-63952666D01*
X245496666Y-64652666D01*
X244930000Y-64652666D02*
X245263333Y-64652666D01*
X245263333Y-63952666D01*
X244763333Y-64886000D02*
X244596666Y-64886000D01*
X244596666Y-63886000D01*
X244763333Y-63886000D01*
X257146666Y-65113000D02*
X257213333Y-65079666D01*
X257313333Y-65079666D01*
X257413333Y-65113000D01*
X257480000Y-65179666D01*
X257513333Y-65246333D01*
X257546666Y-65379666D01*
X257546666Y-65479666D01*
X257513333Y-65613000D01*
X257480000Y-65679666D01*
X257413333Y-65746333D01*
X257313333Y-65779666D01*
X257246666Y-65779666D01*
X257146666Y-65746333D01*
X257113333Y-65713000D01*
X257113333Y-65479666D01*
X257246666Y-65479666D01*
X256813333Y-65779666D02*
X256813333Y-65079666D01*
X256546666Y-65079666D01*
X256480000Y-65113000D01*
X256446666Y-65146333D01*
X256413333Y-65213000D01*
X256413333Y-65313000D01*
X256446666Y-65379666D01*
X256480000Y-65413000D01*
X256546666Y-65446333D01*
X256813333Y-65446333D01*
X256113333Y-65779666D02*
X256113333Y-65079666D01*
X255646666Y-65079666D02*
X255513333Y-65079666D01*
X255446666Y-65113000D01*
X255380000Y-65179666D01*
X255346666Y-65313000D01*
X255346666Y-65546333D01*
X255380000Y-65679666D01*
X255446666Y-65746333D01*
X255513333Y-65779666D01*
X255646666Y-65779666D01*
X255713333Y-65746333D01*
X255780000Y-65679666D01*
X255813333Y-65546333D01*
X255813333Y-65313000D01*
X255780000Y-65179666D01*
X255713333Y-65113000D01*
X255646666Y-65079666D01*
X255080000Y-65146333D02*
X255046666Y-65113000D01*
X254980000Y-65079666D01*
X254813333Y-65079666D01*
X254746666Y-65113000D01*
X254713333Y-65146333D01*
X254680000Y-65213000D01*
X254680000Y-65279666D01*
X254713333Y-65379666D01*
X255113333Y-65779666D01*
X254680000Y-65779666D01*
X254080000Y-65079666D02*
X254213333Y-65079666D01*
X254280000Y-65113000D01*
X254313333Y-65146333D01*
X254380000Y-65246333D01*
X254413333Y-65379666D01*
X254413333Y-65646333D01*
X254380000Y-65713000D01*
X254346666Y-65746333D01*
X254280000Y-65779666D01*
X254146666Y-65779666D01*
X254080000Y-65746333D01*
X254046666Y-65713000D01*
X254013333Y-65646333D01*
X254013333Y-65479666D01*
X254046666Y-65413000D01*
X254080000Y-65379666D01*
X254146666Y-65346333D01*
X254280000Y-65346333D01*
X254346666Y-65379666D01*
X254380000Y-65413000D01*
X254413333Y-65479666D01*
X253180000Y-65513000D02*
X252646666Y-65513000D01*
X251780000Y-65779666D02*
X251780000Y-65079666D01*
X251480000Y-65146333D02*
X251446666Y-65113000D01*
X251380000Y-65079666D01*
X251213333Y-65079666D01*
X251146666Y-65113000D01*
X251113333Y-65146333D01*
X251080000Y-65213000D01*
X251080000Y-65279666D01*
X251113333Y-65379666D01*
X251513333Y-65779666D01*
X251080000Y-65779666D01*
X250380000Y-65713000D02*
X250413333Y-65746333D01*
X250513333Y-65779666D01*
X250580000Y-65779666D01*
X250680000Y-65746333D01*
X250746666Y-65679666D01*
X250780000Y-65613000D01*
X250813333Y-65479666D01*
X250813333Y-65379666D01*
X250780000Y-65246333D01*
X250746666Y-65179666D01*
X250680000Y-65113000D01*
X250580000Y-65079666D01*
X250513333Y-65079666D01*
X250413333Y-65113000D01*
X250380000Y-65146333D01*
X249713333Y-65779666D02*
X250113333Y-65779666D01*
X249913333Y-65779666D02*
X249913333Y-65079666D01*
X249980000Y-65179666D01*
X250046666Y-65246333D01*
X250113333Y-65279666D01*
X248913333Y-65746333D02*
X248813333Y-65779666D01*
X248646666Y-65779666D01*
X248580000Y-65746333D01*
X248546666Y-65713000D01*
X248513333Y-65646333D01*
X248513333Y-65579666D01*
X248546666Y-65513000D01*
X248580000Y-65479666D01*
X248646666Y-65446333D01*
X248780000Y-65413000D01*
X248846666Y-65379666D01*
X248880000Y-65346333D01*
X248913333Y-65279666D01*
X248913333Y-65213000D01*
X248880000Y-65146333D01*
X248846666Y-65113000D01*
X248780000Y-65079666D01*
X248613333Y-65079666D01*
X248513333Y-65113000D01*
X248213333Y-65779666D02*
X248213333Y-65079666D01*
X248046666Y-65079666D01*
X247946666Y-65113000D01*
X247880000Y-65179666D01*
X247846666Y-65246333D01*
X247813333Y-65379666D01*
X247813333Y-65479666D01*
X247846666Y-65613000D01*
X247880000Y-65679666D01*
X247946666Y-65746333D01*
X248046666Y-65779666D01*
X248213333Y-65779666D01*
X247546666Y-65579666D02*
X247213333Y-65579666D01*
X247613333Y-65779666D02*
X247380000Y-65079666D01*
X247146666Y-65779666D01*
X257130000Y-66240000D02*
X257196666Y-66206666D01*
X257296666Y-66206666D01*
X257396666Y-66240000D01*
X257463333Y-66306666D01*
X257496666Y-66373333D01*
X257530000Y-66506666D01*
X257530000Y-66606666D01*
X257496666Y-66740000D01*
X257463333Y-66806666D01*
X257396666Y-66873333D01*
X257296666Y-66906666D01*
X257230000Y-66906666D01*
X257130000Y-66873333D01*
X257096666Y-66840000D01*
X257096666Y-66606666D01*
X257230000Y-66606666D01*
X256796666Y-66906666D02*
X256796666Y-66206666D01*
X256530000Y-66206666D01*
X256463333Y-66240000D01*
X256430000Y-66273333D01*
X256396666Y-66340000D01*
X256396666Y-66440000D01*
X256430000Y-66506666D01*
X256463333Y-66540000D01*
X256530000Y-66573333D01*
X256796666Y-66573333D01*
X256096666Y-66906666D02*
X256096666Y-66206666D01*
X255630000Y-66206666D02*
X255496666Y-66206666D01*
X255430000Y-66240000D01*
X255363333Y-66306666D01*
X255330000Y-66440000D01*
X255330000Y-66673333D01*
X255363333Y-66806666D01*
X255430000Y-66873333D01*
X255496666Y-66906666D01*
X255630000Y-66906666D01*
X255696666Y-66873333D01*
X255763333Y-66806666D01*
X255796666Y-66673333D01*
X255796666Y-66440000D01*
X255763333Y-66306666D01*
X255696666Y-66240000D01*
X255630000Y-66206666D01*
X255063333Y-66273333D02*
X255030000Y-66240000D01*
X254963333Y-66206666D01*
X254796666Y-66206666D01*
X254730000Y-66240000D01*
X254696666Y-66273333D01*
X254663333Y-66340000D01*
X254663333Y-66406666D01*
X254696666Y-66506666D01*
X255096666Y-66906666D01*
X254663333Y-66906666D01*
X254430000Y-66206666D02*
X253963333Y-66206666D01*
X254263333Y-66906666D01*
X253163333Y-66640000D02*
X252630000Y-66640000D01*
X251763333Y-66906666D02*
X251763333Y-66206666D01*
X251463333Y-66273333D02*
X251430000Y-66240000D01*
X251363333Y-66206666D01*
X251196666Y-66206666D01*
X251130000Y-66240000D01*
X251096666Y-66273333D01*
X251063333Y-66340000D01*
X251063333Y-66406666D01*
X251096666Y-66506666D01*
X251496666Y-66906666D01*
X251063333Y-66906666D01*
X250363333Y-66840000D02*
X250396666Y-66873333D01*
X250496666Y-66906666D01*
X250563333Y-66906666D01*
X250663333Y-66873333D01*
X250730000Y-66806666D01*
X250763333Y-66740000D01*
X250796666Y-66606666D01*
X250796666Y-66506666D01*
X250763333Y-66373333D01*
X250730000Y-66306666D01*
X250663333Y-66240000D01*
X250563333Y-66206666D01*
X250496666Y-66206666D01*
X250396666Y-66240000D01*
X250363333Y-66273333D01*
X249696666Y-66906666D02*
X250096666Y-66906666D01*
X249896666Y-66906666D02*
X249896666Y-66206666D01*
X249963333Y-66306666D01*
X250030000Y-66373333D01*
X250096666Y-66406666D01*
X248896666Y-66873333D02*
X248796666Y-66906666D01*
X248630000Y-66906666D01*
X248563333Y-66873333D01*
X248530000Y-66840000D01*
X248496666Y-66773333D01*
X248496666Y-66706666D01*
X248530000Y-66640000D01*
X248563333Y-66606666D01*
X248630000Y-66573333D01*
X248763333Y-66540000D01*
X248830000Y-66506666D01*
X248863333Y-66473333D01*
X248896666Y-66406666D01*
X248896666Y-66340000D01*
X248863333Y-66273333D01*
X248830000Y-66240000D01*
X248763333Y-66206666D01*
X248596666Y-66206666D01*
X248496666Y-66240000D01*
X247796666Y-66840000D02*
X247830000Y-66873333D01*
X247930000Y-66906666D01*
X247996666Y-66906666D01*
X248096666Y-66873333D01*
X248163333Y-66806666D01*
X248196666Y-66740000D01*
X248230000Y-66606666D01*
X248230000Y-66506666D01*
X248196666Y-66373333D01*
X248163333Y-66306666D01*
X248096666Y-66240000D01*
X247996666Y-66206666D01*
X247930000Y-66206666D01*
X247830000Y-66240000D01*
X247796666Y-66273333D01*
X247163333Y-66906666D02*
X247496666Y-66906666D01*
X247496666Y-66206666D01*
D11*
X258140000Y-72287380D02*
X257568571Y-72287380D01*
X257854285Y-73287380D02*
X257854285Y-72287380D01*
X257235238Y-73287380D02*
X257235238Y-72287380D01*
X256854285Y-72287380D01*
X256759047Y-72335000D01*
X256711428Y-72382619D01*
X256663809Y-72477857D01*
X256663809Y-72620714D01*
X256711428Y-72715952D01*
X256759047Y-72763571D01*
X256854285Y-72811190D01*
X257235238Y-72811190D01*
X255711428Y-73287380D02*
X256282857Y-73287380D01*
X255997142Y-73287380D02*
X255997142Y-72287380D01*
X256092380Y-72430238D01*
X256187619Y-72525476D01*
X256282857Y-72573095D01*
X254520952Y-72906428D02*
X253759047Y-72906428D01*
X251187619Y-73192142D02*
X251235238Y-73239761D01*
X251378095Y-73287380D01*
X251473333Y-73287380D01*
X251616190Y-73239761D01*
X251711428Y-73144523D01*
X251759047Y-73049285D01*
X251806666Y-72858809D01*
X251806666Y-72715952D01*
X251759047Y-72525476D01*
X251711428Y-72430238D01*
X251616190Y-72335000D01*
X251473333Y-72287380D01*
X251378095Y-72287380D01*
X251235238Y-72335000D01*
X251187619Y-72382619D01*
X250806666Y-73239761D02*
X250663809Y-73287380D01*
X250425714Y-73287380D01*
X250330476Y-73239761D01*
X250282857Y-73192142D01*
X250235238Y-73096904D01*
X250235238Y-73001666D01*
X250282857Y-72906428D01*
X250330476Y-72858809D01*
X250425714Y-72811190D01*
X250616190Y-72763571D01*
X250711428Y-72715952D01*
X250759047Y-72668333D01*
X250806666Y-72573095D01*
X250806666Y-72477857D01*
X250759047Y-72382619D01*
X250711428Y-72335000D01*
X250616190Y-72287380D01*
X250378095Y-72287380D01*
X250235238Y-72335000D01*
X258973333Y-73897380D02*
X258401904Y-73897380D01*
X258687619Y-74897380D02*
X258687619Y-73897380D01*
X258068571Y-74897380D02*
X258068571Y-73897380D01*
X257687619Y-73897380D01*
X257592380Y-73945000D01*
X257544761Y-73992619D01*
X257497142Y-74087857D01*
X257497142Y-74230714D01*
X257544761Y-74325952D01*
X257592380Y-74373571D01*
X257687619Y-74421190D01*
X258068571Y-74421190D01*
X257116190Y-73992619D02*
X257068571Y-73945000D01*
X256973333Y-73897380D01*
X256735238Y-73897380D01*
X256640000Y-73945000D01*
X256592380Y-73992619D01*
X256544761Y-74087857D01*
X256544761Y-74183095D01*
X256592380Y-74325952D01*
X257163809Y-74897380D01*
X256544761Y-74897380D01*
X255354285Y-74516428D02*
X254592380Y-74516428D01*
X252592380Y-74897380D02*
X252592380Y-73897380D01*
X252259047Y-74611666D01*
X251925714Y-73897380D01*
X251925714Y-74897380D01*
X251259047Y-73897380D02*
X251068571Y-73897380D01*
X250973333Y-73945000D01*
X250878095Y-74040238D01*
X250830476Y-74230714D01*
X250830476Y-74564047D01*
X250878095Y-74754523D01*
X250973333Y-74849761D01*
X251068571Y-74897380D01*
X251259047Y-74897380D01*
X251354285Y-74849761D01*
X251449523Y-74754523D01*
X251497142Y-74564047D01*
X251497142Y-74230714D01*
X251449523Y-74040238D01*
X251354285Y-73945000D01*
X251259047Y-73897380D01*
X250449523Y-74849761D02*
X250306666Y-74897380D01*
X250068571Y-74897380D01*
X249973333Y-74849761D01*
X249925714Y-74802142D01*
X249878095Y-74706904D01*
X249878095Y-74611666D01*
X249925714Y-74516428D01*
X249973333Y-74468809D01*
X250068571Y-74421190D01*
X250259047Y-74373571D01*
X250354285Y-74325952D01*
X250401904Y-74278333D01*
X250449523Y-74183095D01*
X250449523Y-74087857D01*
X250401904Y-73992619D01*
X250354285Y-73945000D01*
X250259047Y-73897380D01*
X250020952Y-73897380D01*
X249878095Y-73945000D01*
X249449523Y-74897380D02*
X249449523Y-73897380D01*
X258544761Y-75507380D02*
X257973333Y-75507380D01*
X258259047Y-76507380D02*
X258259047Y-75507380D01*
X257640000Y-76507380D02*
X257640000Y-75507380D01*
X257259047Y-75507380D01*
X257163809Y-75555000D01*
X257116190Y-75602619D01*
X257068571Y-75697857D01*
X257068571Y-75840714D01*
X257116190Y-75935952D01*
X257163809Y-75983571D01*
X257259047Y-76031190D01*
X257640000Y-76031190D01*
X256735238Y-75507380D02*
X256116190Y-75507380D01*
X256449523Y-75888333D01*
X256306666Y-75888333D01*
X256211428Y-75935952D01*
X256163809Y-75983571D01*
X256116190Y-76078809D01*
X256116190Y-76316904D01*
X256163809Y-76412142D01*
X256211428Y-76459761D01*
X256306666Y-76507380D01*
X256592380Y-76507380D01*
X256687619Y-76459761D01*
X256735238Y-76412142D01*
X254925714Y-76126428D02*
X254163809Y-76126428D01*
X252259047Y-75507380D02*
X251640000Y-75507380D01*
X251973333Y-75888333D01*
X251830476Y-75888333D01*
X251735238Y-75935952D01*
X251687619Y-75983571D01*
X251640000Y-76078809D01*
X251640000Y-76316904D01*
X251687619Y-76412142D01*
X251735238Y-76459761D01*
X251830476Y-76507380D01*
X252116190Y-76507380D01*
X252211428Y-76459761D01*
X252259047Y-76412142D01*
X251354285Y-75507380D02*
X251020952Y-76507380D01*
X250687619Y-75507380D01*
X250449523Y-75507380D02*
X249830476Y-75507380D01*
X250163809Y-75888333D01*
X250020952Y-75888333D01*
X249925714Y-75935952D01*
X249878095Y-75983571D01*
X249830476Y-76078809D01*
X249830476Y-76316904D01*
X249878095Y-76412142D01*
X249925714Y-76459761D01*
X250020952Y-76507380D01*
X250306666Y-76507380D01*
X250401904Y-76459761D01*
X250449523Y-76412142D01*
X258640000Y-77117380D02*
X258068571Y-77117380D01*
X258354285Y-78117380D02*
X258354285Y-77117380D01*
X257735238Y-78117380D02*
X257735238Y-77117380D01*
X257354285Y-77117380D01*
X257259047Y-77165000D01*
X257211428Y-77212619D01*
X257163809Y-77307857D01*
X257163809Y-77450714D01*
X257211428Y-77545952D01*
X257259047Y-77593571D01*
X257354285Y-77641190D01*
X257735238Y-77641190D01*
X256306666Y-77450714D02*
X256306666Y-78117380D01*
X256544761Y-77069761D02*
X256782857Y-77784047D01*
X256163809Y-77784047D01*
X255020952Y-77736428D02*
X254259047Y-77736428D01*
X252306666Y-78069761D02*
X252163809Y-78117380D01*
X251925714Y-78117380D01*
X251830476Y-78069761D01*
X251782857Y-78022142D01*
X251735238Y-77926904D01*
X251735238Y-77831666D01*
X251782857Y-77736428D01*
X251830476Y-77688809D01*
X251925714Y-77641190D01*
X252116190Y-77593571D01*
X252211428Y-77545952D01*
X252259047Y-77498333D01*
X252306666Y-77403095D01*
X252306666Y-77307857D01*
X252259047Y-77212619D01*
X252211428Y-77165000D01*
X252116190Y-77117380D01*
X251878095Y-77117380D01*
X251735238Y-77165000D01*
X250735238Y-78022142D02*
X250782857Y-78069761D01*
X250925714Y-78117380D01*
X251020952Y-78117380D01*
X251163809Y-78069761D01*
X251259047Y-77974523D01*
X251306666Y-77879285D01*
X251354285Y-77688809D01*
X251354285Y-77545952D01*
X251306666Y-77355476D01*
X251259047Y-77260238D01*
X251163809Y-77165000D01*
X251020952Y-77117380D01*
X250925714Y-77117380D01*
X250782857Y-77165000D01*
X250735238Y-77212619D01*
X250306666Y-78117380D02*
X250306666Y-77117380D01*
X249735238Y-78117380D02*
X250163809Y-77545952D01*
X249735238Y-77117380D02*
X250306666Y-77688809D01*
X258687619Y-78727380D02*
X258116190Y-78727380D01*
X258401904Y-79727380D02*
X258401904Y-78727380D01*
X257782857Y-79727380D02*
X257782857Y-78727380D01*
X257401904Y-78727380D01*
X257306666Y-78775000D01*
X257259047Y-78822619D01*
X257211428Y-78917857D01*
X257211428Y-79060714D01*
X257259047Y-79155952D01*
X257306666Y-79203571D01*
X257401904Y-79251190D01*
X257782857Y-79251190D01*
X256306666Y-78727380D02*
X256782857Y-78727380D01*
X256830476Y-79203571D01*
X256782857Y-79155952D01*
X256687619Y-79108333D01*
X256449523Y-79108333D01*
X256354285Y-79155952D01*
X256306666Y-79203571D01*
X256259047Y-79298809D01*
X256259047Y-79536904D01*
X256306666Y-79632142D01*
X256354285Y-79679761D01*
X256449523Y-79727380D01*
X256687619Y-79727380D01*
X256782857Y-79679761D01*
X256830476Y-79632142D01*
X255068571Y-79346428D02*
X254306666Y-79346428D01*
X251782857Y-78775000D02*
X251878095Y-78727380D01*
X252020952Y-78727380D01*
X252163809Y-78775000D01*
X252259047Y-78870238D01*
X252306666Y-78965476D01*
X252354285Y-79155952D01*
X252354285Y-79298809D01*
X252306666Y-79489285D01*
X252259047Y-79584523D01*
X252163809Y-79679761D01*
X252020952Y-79727380D01*
X251925714Y-79727380D01*
X251782857Y-79679761D01*
X251735238Y-79632142D01*
X251735238Y-79298809D01*
X251925714Y-79298809D01*
X251306666Y-79727380D02*
X251306666Y-78727380D01*
X250735238Y-79727380D01*
X250735238Y-78727380D01*
X250259047Y-79727380D02*
X250259047Y-78727380D01*
X250020952Y-78727380D01*
X249878095Y-78775000D01*
X249782857Y-78870238D01*
X249735238Y-78965476D01*
X249687619Y-79155952D01*
X249687619Y-79298809D01*
X249735238Y-79489285D01*
X249782857Y-79584523D01*
X249878095Y-79679761D01*
X250020952Y-79727380D01*
X250259047Y-79727380D01*
X258973333Y-80337380D02*
X258401904Y-80337380D01*
X258687619Y-81337380D02*
X258687619Y-80337380D01*
X258068571Y-81337380D02*
X258068571Y-80337380D01*
X257687619Y-80337380D01*
X257592380Y-80385000D01*
X257544761Y-80432619D01*
X257497142Y-80527857D01*
X257497142Y-80670714D01*
X257544761Y-80765952D01*
X257592380Y-80813571D01*
X257687619Y-80861190D01*
X258068571Y-80861190D01*
X256640000Y-80337380D02*
X256830476Y-80337380D01*
X256925714Y-80385000D01*
X256973333Y-80432619D01*
X257068571Y-80575476D01*
X257116190Y-80765952D01*
X257116190Y-81146904D01*
X257068571Y-81242142D01*
X257020952Y-81289761D01*
X256925714Y-81337380D01*
X256735238Y-81337380D01*
X256640000Y-81289761D01*
X256592380Y-81242142D01*
X256544761Y-81146904D01*
X256544761Y-80908809D01*
X256592380Y-80813571D01*
X256640000Y-80765952D01*
X256735238Y-80718333D01*
X256925714Y-80718333D01*
X257020952Y-80765952D01*
X257068571Y-80813571D01*
X257116190Y-80908809D01*
X255354285Y-80956428D02*
X254592380Y-80956428D01*
X252592380Y-81337380D02*
X252592380Y-80337380D01*
X252259047Y-81051666D01*
X251925714Y-80337380D01*
X251925714Y-81337380D01*
X251449523Y-81337380D02*
X251449523Y-80337380D01*
X251020952Y-81289761D02*
X250878095Y-81337380D01*
X250640000Y-81337380D01*
X250544761Y-81289761D01*
X250497142Y-81242142D01*
X250449523Y-81146904D01*
X250449523Y-81051666D01*
X250497142Y-80956428D01*
X250544761Y-80908809D01*
X250640000Y-80861190D01*
X250830476Y-80813571D01*
X250925714Y-80765952D01*
X250973333Y-80718333D01*
X251020952Y-80623095D01*
X251020952Y-80527857D01*
X250973333Y-80432619D01*
X250925714Y-80385000D01*
X250830476Y-80337380D01*
X250592380Y-80337380D01*
X250449523Y-80385000D01*
X249830476Y-80337380D02*
X249640000Y-80337380D01*
X249544761Y-80385000D01*
X249449523Y-80480238D01*
X249401904Y-80670714D01*
X249401904Y-81004047D01*
X249449523Y-81194523D01*
X249544761Y-81289761D01*
X249640000Y-81337380D01*
X249830476Y-81337380D01*
X249925714Y-81289761D01*
X250020952Y-81194523D01*
X250068571Y-81004047D01*
X250068571Y-80670714D01*
X250020952Y-80480238D01*
X249925714Y-80385000D01*
X249830476Y-80337380D01*
X259830476Y-81947380D02*
X259259047Y-81947380D01*
X259544761Y-82947380D02*
X259544761Y-81947380D01*
X258925714Y-82947380D02*
X258925714Y-81947380D01*
X258544761Y-81947380D01*
X258449523Y-81995000D01*
X258401904Y-82042619D01*
X258354285Y-82137857D01*
X258354285Y-82280714D01*
X258401904Y-82375952D01*
X258449523Y-82423571D01*
X258544761Y-82471190D01*
X258925714Y-82471190D01*
X258020952Y-81947380D02*
X257354285Y-81947380D01*
X257782857Y-82947380D01*
X256211428Y-82566428D02*
X255449523Y-82566428D01*
X253925714Y-81947380D02*
X253925714Y-82661666D01*
X253973333Y-82804523D01*
X254068571Y-82899761D01*
X254211428Y-82947380D01*
X254306666Y-82947380D01*
X253592380Y-81947380D02*
X253020952Y-81947380D01*
X253306666Y-82947380D02*
X253306666Y-81947380D01*
X252163809Y-81995000D02*
X252259047Y-81947380D01*
X252401904Y-81947380D01*
X252544761Y-81995000D01*
X252640000Y-82090238D01*
X252687619Y-82185476D01*
X252735238Y-82375952D01*
X252735238Y-82518809D01*
X252687619Y-82709285D01*
X252640000Y-82804523D01*
X252544761Y-82899761D01*
X252401904Y-82947380D01*
X252306666Y-82947380D01*
X252163809Y-82899761D01*
X252116190Y-82852142D01*
X252116190Y-82518809D01*
X252306666Y-82518809D01*
X251925714Y-83042619D02*
X251163809Y-83042619D01*
X250354285Y-82852142D02*
X250401904Y-82899761D01*
X250544761Y-82947380D01*
X250640000Y-82947380D01*
X250782857Y-82899761D01*
X250878095Y-82804523D01*
X250925714Y-82709285D01*
X250973333Y-82518809D01*
X250973333Y-82375952D01*
X250925714Y-82185476D01*
X250878095Y-82090238D01*
X250782857Y-81995000D01*
X250640000Y-81947380D01*
X250544761Y-81947380D01*
X250401904Y-81995000D01*
X250354285Y-82042619D01*
X249449523Y-82947380D02*
X249925714Y-82947380D01*
X249925714Y-81947380D01*
X249116190Y-82947380D02*
X249116190Y-81947380D01*
X248544761Y-82947380D02*
X248973333Y-82375952D01*
X248544761Y-81947380D02*
X249116190Y-82518809D01*
X259973333Y-83557380D02*
X259401904Y-83557380D01*
X259687619Y-84557380D02*
X259687619Y-83557380D01*
X259068571Y-84557380D02*
X259068571Y-83557380D01*
X258687619Y-83557380D01*
X258592380Y-83605000D01*
X258544761Y-83652619D01*
X258497142Y-83747857D01*
X258497142Y-83890714D01*
X258544761Y-83985952D01*
X258592380Y-84033571D01*
X258687619Y-84081190D01*
X259068571Y-84081190D01*
X257925714Y-83985952D02*
X258020952Y-83938333D01*
X258068571Y-83890714D01*
X258116190Y-83795476D01*
X258116190Y-83747857D01*
X258068571Y-83652619D01*
X258020952Y-83605000D01*
X257925714Y-83557380D01*
X257735238Y-83557380D01*
X257640000Y-83605000D01*
X257592380Y-83652619D01*
X257544761Y-83747857D01*
X257544761Y-83795476D01*
X257592380Y-83890714D01*
X257640000Y-83938333D01*
X257735238Y-83985952D01*
X257925714Y-83985952D01*
X258020952Y-84033571D01*
X258068571Y-84081190D01*
X258116190Y-84176428D01*
X258116190Y-84366904D01*
X258068571Y-84462142D01*
X258020952Y-84509761D01*
X257925714Y-84557380D01*
X257735238Y-84557380D01*
X257640000Y-84509761D01*
X257592380Y-84462142D01*
X257544761Y-84366904D01*
X257544761Y-84176428D01*
X257592380Y-84081190D01*
X257640000Y-84033571D01*
X257735238Y-83985952D01*
X256354285Y-84176428D02*
X255592380Y-84176428D01*
X254068571Y-83557380D02*
X254068571Y-84271666D01*
X254116190Y-84414523D01*
X254211428Y-84509761D01*
X254354285Y-84557380D01*
X254449523Y-84557380D01*
X253735238Y-83557380D02*
X253163809Y-83557380D01*
X253449523Y-84557380D02*
X253449523Y-83557380D01*
X252306666Y-83605000D02*
X252401904Y-83557380D01*
X252544761Y-83557380D01*
X252687619Y-83605000D01*
X252782857Y-83700238D01*
X252830476Y-83795476D01*
X252878095Y-83985952D01*
X252878095Y-84128809D01*
X252830476Y-84319285D01*
X252782857Y-84414523D01*
X252687619Y-84509761D01*
X252544761Y-84557380D01*
X252449523Y-84557380D01*
X252306666Y-84509761D01*
X252259047Y-84462142D01*
X252259047Y-84128809D01*
X252449523Y-84128809D01*
X252068571Y-84652619D02*
X251306666Y-84652619D01*
X251116190Y-84509761D02*
X250973333Y-84557380D01*
X250735238Y-84557380D01*
X250640000Y-84509761D01*
X250592380Y-84462142D01*
X250544761Y-84366904D01*
X250544761Y-84271666D01*
X250592380Y-84176428D01*
X250640000Y-84128809D01*
X250735238Y-84081190D01*
X250925714Y-84033571D01*
X251020952Y-83985952D01*
X251068571Y-83938333D01*
X251116190Y-83843095D01*
X251116190Y-83747857D01*
X251068571Y-83652619D01*
X251020952Y-83605000D01*
X250925714Y-83557380D01*
X250687619Y-83557380D01*
X250544761Y-83605000D01*
X250211428Y-83557380D02*
X249973333Y-84557380D01*
X249782857Y-83843095D01*
X249592380Y-84557380D01*
X249354285Y-83557380D01*
X248973333Y-84557380D02*
X248973333Y-83557380D01*
X248735238Y-83557380D01*
X248592380Y-83605000D01*
X248497142Y-83700238D01*
X248449523Y-83795476D01*
X248401904Y-83985952D01*
X248401904Y-84128809D01*
X248449523Y-84319285D01*
X248497142Y-84414523D01*
X248592380Y-84509761D01*
X248735238Y-84557380D01*
X248973333Y-84557380D01*
D12*
X258155238Y-92451904D02*
X258155238Y-93023333D01*
X258193333Y-93137619D01*
X258269523Y-93213809D01*
X258383809Y-93251904D01*
X258460000Y-93251904D01*
X257393333Y-93251904D02*
X257774285Y-93251904D01*
X257774285Y-92451904D01*
X256669523Y-93175714D02*
X256707619Y-93213809D01*
X256821904Y-93251904D01*
X256898095Y-93251904D01*
X257012380Y-93213809D01*
X257088571Y-93137619D01*
X257126666Y-93061428D01*
X257164761Y-92909047D01*
X257164761Y-92794761D01*
X257126666Y-92642380D01*
X257088571Y-92566190D01*
X257012380Y-92490000D01*
X256898095Y-92451904D01*
X256821904Y-92451904D01*
X256707619Y-92490000D01*
X256669523Y-92528095D01*
X256098095Y-92451904D02*
X256098095Y-93023333D01*
X256136190Y-93137619D01*
X256212380Y-93213809D01*
X256326666Y-93251904D01*
X256402857Y-93251904D01*
X255336190Y-93251904D02*
X255717142Y-93251904D01*
X255717142Y-92451904D01*
X254612380Y-93175714D02*
X254650476Y-93213809D01*
X254764761Y-93251904D01*
X254840952Y-93251904D01*
X254955238Y-93213809D01*
X255031428Y-93137619D01*
X255069523Y-93061428D01*
X255107619Y-92909047D01*
X255107619Y-92794761D01*
X255069523Y-92642380D01*
X255031428Y-92566190D01*
X254955238Y-92490000D01*
X254840952Y-92451904D01*
X254764761Y-92451904D01*
X254650476Y-92490000D01*
X254612380Y-92528095D01*
X254040952Y-92451904D02*
X254040952Y-93023333D01*
X254079047Y-93137619D01*
X254155238Y-93213809D01*
X254269523Y-93251904D01*
X254345714Y-93251904D01*
X253279047Y-93251904D02*
X253660000Y-93251904D01*
X253660000Y-92451904D01*
X252555238Y-93175714D02*
X252593333Y-93213809D01*
X252707619Y-93251904D01*
X252783809Y-93251904D01*
X252898095Y-93213809D01*
X252974285Y-93137619D01*
X253012380Y-93061428D01*
X253050476Y-92909047D01*
X253050476Y-92794761D01*
X253012380Y-92642380D01*
X252974285Y-92566190D01*
X252898095Y-92490000D01*
X252783809Y-92451904D01*
X252707619Y-92451904D01*
X252593333Y-92490000D01*
X252555238Y-92528095D01*
X251983809Y-92451904D02*
X251983809Y-93023333D01*
X252021904Y-93137619D01*
X252098095Y-93213809D01*
X252212380Y-93251904D01*
X252288571Y-93251904D01*
X251221904Y-93251904D02*
X251602857Y-93251904D01*
X251602857Y-92451904D01*
X250498095Y-93175714D02*
X250536190Y-93213809D01*
X250650476Y-93251904D01*
X250726666Y-93251904D01*
X250840952Y-93213809D01*
X250917142Y-93137619D01*
X250955238Y-93061428D01*
X250993333Y-92909047D01*
X250993333Y-92794761D01*
X250955238Y-92642380D01*
X250917142Y-92566190D01*
X250840952Y-92490000D01*
X250726666Y-92451904D01*
X250650476Y-92451904D01*
X250536190Y-92490000D01*
X250498095Y-92528095D01*
D10*
%TO.C,TP8*%
X262070952Y-63258190D02*
X261785238Y-63258190D01*
X261928095Y-63758190D02*
X261928095Y-63258190D01*
X261618571Y-63758190D02*
X261618571Y-63258190D01*
X261428095Y-63258190D01*
X261380476Y-63282000D01*
X261356666Y-63305809D01*
X261332857Y-63353428D01*
X261332857Y-63424857D01*
X261356666Y-63472476D01*
X261380476Y-63496285D01*
X261428095Y-63520095D01*
X261618571Y-63520095D01*
X261047142Y-63472476D02*
X261094761Y-63448666D01*
X261118571Y-63424857D01*
X261142380Y-63377238D01*
X261142380Y-63353428D01*
X261118571Y-63305809D01*
X261094761Y-63282000D01*
X261047142Y-63258190D01*
X260951904Y-63258190D01*
X260904285Y-63282000D01*
X260880476Y-63305809D01*
X260856666Y-63353428D01*
X260856666Y-63377238D01*
X260880476Y-63424857D01*
X260904285Y-63448666D01*
X260951904Y-63472476D01*
X261047142Y-63472476D01*
X261094761Y-63496285D01*
X261118571Y-63520095D01*
X261142380Y-63567714D01*
X261142380Y-63662952D01*
X261118571Y-63710571D01*
X261094761Y-63734380D01*
X261047142Y-63758190D01*
X260951904Y-63758190D01*
X260904285Y-63734380D01*
X260880476Y-63710571D01*
X260856666Y-63662952D01*
X260856666Y-63567714D01*
X260880476Y-63520095D01*
X260904285Y-63496285D01*
X260951904Y-63472476D01*
%TO.C,TP7*%
X261060952Y-71288190D02*
X260775238Y-71288190D01*
X260918095Y-71788190D02*
X260918095Y-71288190D01*
X260608571Y-71788190D02*
X260608571Y-71288190D01*
X260418095Y-71288190D01*
X260370476Y-71312000D01*
X260346666Y-71335809D01*
X260322857Y-71383428D01*
X260322857Y-71454857D01*
X260346666Y-71502476D01*
X260370476Y-71526285D01*
X260418095Y-71550095D01*
X260608571Y-71550095D01*
X260156190Y-71288190D02*
X259822857Y-71288190D01*
X260037142Y-71788190D01*
%TO.C,TP3*%
X246410952Y-82038190D02*
X246125238Y-82038190D01*
X246268095Y-82538190D02*
X246268095Y-82038190D01*
X245958571Y-82538190D02*
X245958571Y-82038190D01*
X245768095Y-82038190D01*
X245720476Y-82062000D01*
X245696666Y-82085809D01*
X245672857Y-82133428D01*
X245672857Y-82204857D01*
X245696666Y-82252476D01*
X245720476Y-82276285D01*
X245768095Y-82300095D01*
X245958571Y-82300095D01*
X245506190Y-82038190D02*
X245196666Y-82038190D01*
X245363333Y-82228666D01*
X245291904Y-82228666D01*
X245244285Y-82252476D01*
X245220476Y-82276285D01*
X245196666Y-82323904D01*
X245196666Y-82442952D01*
X245220476Y-82490571D01*
X245244285Y-82514380D01*
X245291904Y-82538190D01*
X245434761Y-82538190D01*
X245482380Y-82514380D01*
X245506190Y-82490571D01*
D13*
%TO.C,TP8*%
X262140000Y-64980000D02*
G75*
G03*
X262140000Y-64980000I-700000J0D01*
G01*
%TO.C,TP7*%
X261130000Y-73010000D02*
G75*
G03*
X261130000Y-73010000I-700000J0D01*
G01*
%TO.C,TP3*%
X246480000Y-83760000D02*
G75*
G03*
X246480000Y-83760000I-700000J0D01*
G01*
%TD*%
M02*
