%TF.GenerationSoftware,KiCad,Pcbnew,(6.0.0-0)*%
%TF.CreationDate,2022-10-07T18:10:28-04:00*%
%TF.ProjectId,hermes_v1,6865726d-6573-45f7-9631-2e6b69636164,rev?*%
%TF.SameCoordinates,Original*%
%TF.FileFunction,Copper,L1,Top*%
%TF.FilePolarity,Positive*%
%FSLAX46Y46*%
G04 Gerber Fmt 4.6, Leading zero omitted, Abs format (unit mm)*
G04 Created by KiCad (PCBNEW (6.0.0-0)) date 2022-10-07 18:10:28*
%MOMM*%
%LPD*%
G01*
G04 APERTURE LIST*
G04 Aperture macros list*
%AMRoundRect*
0 Rectangle with rounded corners*
0 $1 Rounding radius*
0 $2 $3 $4 $5 $6 $7 $8 $9 X,Y pos of 4 corners*
0 Add a 4 corners polygon primitive as box body*
4,1,4,$2,$3,$4,$5,$6,$7,$8,$9,$2,$3,0*
0 Add four circle primitives for the rounded corners*
1,1,$1+$1,$2,$3*
1,1,$1+$1,$4,$5*
1,1,$1+$1,$6,$7*
1,1,$1+$1,$8,$9*
0 Add four rect primitives between the rounded corners*
20,1,$1+$1,$2,$3,$4,$5,0*
20,1,$1+$1,$4,$5,$6,$7,0*
20,1,$1+$1,$6,$7,$8,$9,0*
20,1,$1+$1,$8,$9,$2,$3,0*%
%AMFreePoly0*
4,1,22,0.500000,-0.750000,0.000000,-0.750000,0.000000,-0.745033,-0.079941,-0.743568,-0.215256,-0.701293,-0.333266,-0.622738,-0.424486,-0.514219,-0.481581,-0.384460,-0.499164,-0.250000,-0.500000,-0.250000,-0.500000,0.250000,-0.499164,0.250000,-0.499963,0.256109,-0.478152,0.396186,-0.417904,0.524511,-0.324060,0.630769,-0.204165,0.706417,-0.067858,0.745374,0.000000,0.744959,0.000000,0.750000,
0.500000,0.750000,0.500000,-0.750000,0.500000,-0.750000,$1*%
%AMFreePoly1*
4,1,20,0.000000,0.744959,0.073905,0.744508,0.209726,0.703889,0.328688,0.626782,0.421226,0.519385,0.479903,0.390333,0.500000,0.250000,0.500000,-0.250000,0.499851,-0.262216,0.476331,-0.402017,0.414519,-0.529596,0.319384,-0.634700,0.198574,-0.708877,0.061801,-0.746166,0.000000,-0.745033,0.000000,-0.750000,-0.500000,-0.750000,-0.500000,0.750000,0.000000,0.750000,0.000000,0.744959,
0.000000,0.744959,$1*%
%AMFreePoly2*
4,1,22,0.550000,-0.750000,0.000000,-0.750000,0.000000,-0.745033,-0.079941,-0.743568,-0.215256,-0.701293,-0.333266,-0.622738,-0.424486,-0.514219,-0.481581,-0.384460,-0.499164,-0.250000,-0.500000,-0.250000,-0.500000,0.250000,-0.499164,0.250000,-0.499963,0.256109,-0.478152,0.396186,-0.417904,0.524511,-0.324060,0.630769,-0.204165,0.706417,-0.067858,0.745374,0.000000,0.744959,0.000000,0.750000,
0.550000,0.750000,0.550000,-0.750000,0.550000,-0.750000,$1*%
%AMFreePoly3*
4,1,20,0.000000,0.744959,0.073905,0.744508,0.209726,0.703889,0.328688,0.626782,0.421226,0.519385,0.479903,0.390333,0.500000,0.250000,0.500000,-0.250000,0.499851,-0.262216,0.476331,-0.402017,0.414519,-0.529596,0.319384,-0.634700,0.198574,-0.708877,0.061801,-0.746166,0.000000,-0.745033,0.000000,-0.750000,-0.550000,-0.750000,-0.550000,0.750000,0.000000,0.750000,0.000000,0.744959,
0.000000,0.744959,$1*%
%AMFreePoly4*
4,1,17,1.395000,0.765000,0.855000,0.765000,0.855000,0.535000,1.395000,0.535000,1.395000,0.115000,0.855000,0.115000,0.855000,-0.115000,1.395000,-0.115000,1.395000,-0.535000,0.855000,-0.535000,0.855000,-0.765000,1.395000,-0.765000,1.395000,-1.185000,-0.855000,-1.185000,-0.855000,1.185000,1.395000,1.185000,1.395000,0.765000,1.395000,0.765000,$1*%
G04 Aperture macros list end*
%TA.AperFunction,SMDPad,CuDef*%
%ADD10R,0.254000X0.482600*%
%TD*%
%TA.AperFunction,SMDPad,CuDef*%
%ADD11R,0.482600X0.254000*%
%TD*%
%TA.AperFunction,SMDPad,CuDef*%
%ADD12RoundRect,0.155000X0.155000X-0.212500X0.155000X0.212500X-0.155000X0.212500X-0.155000X-0.212500X0*%
%TD*%
%TA.AperFunction,SMDPad,CuDef*%
%ADD13RoundRect,0.155000X0.212500X0.155000X-0.212500X0.155000X-0.212500X-0.155000X0.212500X-0.155000X0*%
%TD*%
%TA.AperFunction,SMDPad,CuDef*%
%ADD14RoundRect,0.155000X-0.155000X0.212500X-0.155000X-0.212500X0.155000X-0.212500X0.155000X0.212500X0*%
%TD*%
%TA.AperFunction,SMDPad,CuDef*%
%ADD15RoundRect,0.160000X0.160000X-0.222500X0.160000X0.222500X-0.160000X0.222500X-0.160000X-0.222500X0*%
%TD*%
%TA.AperFunction,SMDPad,CuDef*%
%ADD16RoundRect,0.750000X1.250000X-0.750000X1.250000X0.750000X-1.250000X0.750000X-1.250000X-0.750000X0*%
%TD*%
%TA.AperFunction,SMDPad,CuDef*%
%ADD17RoundRect,0.750000X-0.750000X-1.250000X0.750000X-1.250000X0.750000X1.250000X-0.750000X1.250000X0*%
%TD*%
%TA.AperFunction,SMDPad,CuDef*%
%ADD18RoundRect,0.160000X-0.197500X-0.160000X0.197500X-0.160000X0.197500X0.160000X-0.197500X0.160000X0*%
%TD*%
%TA.AperFunction,SMDPad,CuDef*%
%ADD19RoundRect,0.160000X-0.160000X0.197500X-0.160000X-0.197500X0.160000X-0.197500X0.160000X0.197500X0*%
%TD*%
%TA.AperFunction,SMDPad,CuDef*%
%ADD20RoundRect,0.050000X0.050000X-0.387500X0.050000X0.387500X-0.050000X0.387500X-0.050000X-0.387500X0*%
%TD*%
%TA.AperFunction,SMDPad,CuDef*%
%ADD21RoundRect,0.050000X0.387500X-0.050000X0.387500X0.050000X-0.387500X0.050000X-0.387500X-0.050000X0*%
%TD*%
%TA.AperFunction,ComponentPad*%
%ADD22C,0.600000*%
%TD*%
%TA.AperFunction,SMDPad,CuDef*%
%ADD23RoundRect,0.144000X1.456000X-1.456000X1.456000X1.456000X-1.456000X1.456000X-1.456000X-1.456000X0*%
%TD*%
%TA.AperFunction,SMDPad,CuDef*%
%ADD24RoundRect,0.150000X0.150000X-0.650000X0.150000X0.650000X-0.150000X0.650000X-0.150000X-0.650000X0*%
%TD*%
%TA.AperFunction,SMDPad,CuDef*%
%ADD25R,2.400000X1.700000*%
%TD*%
%TA.AperFunction,SMDPad,CuDef*%
%ADD26RoundRect,0.750000X-1.250000X0.750000X-1.250000X-0.750000X1.250000X-0.750000X1.250000X0.750000X0*%
%TD*%
%TA.AperFunction,SMDPad,CuDef*%
%ADD27RoundRect,0.155000X-0.212500X-0.155000X0.212500X-0.155000X0.212500X0.155000X-0.212500X0.155000X0*%
%TD*%
%TA.AperFunction,SMDPad,CuDef*%
%ADD28R,0.650000X1.050000*%
%TD*%
%TA.AperFunction,SMDPad,CuDef*%
%ADD29R,1.350000X0.400000*%
%TD*%
%TA.AperFunction,ComponentPad*%
%ADD30O,1.550000X0.890000*%
%TD*%
%TA.AperFunction,SMDPad,CuDef*%
%ADD31R,1.550000X1.500000*%
%TD*%
%TA.AperFunction,ComponentPad*%
%ADD32O,0.950000X1.250000*%
%TD*%
%TA.AperFunction,SMDPad,CuDef*%
%ADD33R,1.550000X1.200000*%
%TD*%
%TA.AperFunction,SMDPad,CuDef*%
%ADD34RoundRect,0.160000X0.160000X-0.197500X0.160000X0.197500X-0.160000X0.197500X-0.160000X-0.197500X0*%
%TD*%
%TA.AperFunction,SMDPad,CuDef*%
%ADD35FreePoly0,270.000000*%
%TD*%
%TA.AperFunction,SMDPad,CuDef*%
%ADD36FreePoly1,270.000000*%
%TD*%
%TA.AperFunction,SMDPad,CuDef*%
%ADD37RoundRect,0.160000X-0.160000X0.222500X-0.160000X-0.222500X0.160000X-0.222500X0.160000X0.222500X0*%
%TD*%
%TA.AperFunction,SMDPad,CuDef*%
%ADD38R,0.500000X0.375000*%
%TD*%
%TA.AperFunction,SMDPad,CuDef*%
%ADD39R,0.650000X0.300000*%
%TD*%
%TA.AperFunction,SMDPad,CuDef*%
%ADD40FreePoly2,180.000000*%
%TD*%
%TA.AperFunction,SMDPad,CuDef*%
%ADD41R,1.000000X1.500000*%
%TD*%
%TA.AperFunction,SMDPad,CuDef*%
%ADD42FreePoly3,180.000000*%
%TD*%
%TA.AperFunction,SMDPad,CuDef*%
%ADD43RoundRect,0.140000X-0.140000X-0.170000X0.140000X-0.170000X0.140000X0.170000X-0.140000X0.170000X0*%
%TD*%
%TA.AperFunction,SMDPad,CuDef*%
%ADD44R,2.950000X3.500000*%
%TD*%
%TA.AperFunction,SMDPad,CuDef*%
%ADD45RoundRect,0.140000X0.170000X-0.140000X0.170000X0.140000X-0.170000X0.140000X-0.170000X-0.140000X0*%
%TD*%
%TA.AperFunction,SMDPad,CuDef*%
%ADD46RoundRect,0.135000X0.135000X0.185000X-0.135000X0.185000X-0.135000X-0.185000X0.135000X-0.185000X0*%
%TD*%
%TA.AperFunction,SMDPad,CuDef*%
%ADD47R,1.550000X0.600000*%
%TD*%
%TA.AperFunction,SMDPad,CuDef*%
%ADD48R,2.950000X4.900000*%
%TD*%
%TA.AperFunction,SMDPad,CuDef*%
%ADD49RoundRect,0.135000X0.185000X-0.135000X0.185000X0.135000X-0.185000X0.135000X-0.185000X-0.135000X0*%
%TD*%
%TA.AperFunction,ComponentPad*%
%ADD50R,1.700000X1.700000*%
%TD*%
%TA.AperFunction,ComponentPad*%
%ADD51O,1.700000X1.700000*%
%TD*%
%TA.AperFunction,SMDPad,CuDef*%
%ADD52RoundRect,0.140000X-0.170000X0.140000X-0.170000X-0.140000X0.170000X-0.140000X0.170000X0.140000X0*%
%TD*%
%TA.AperFunction,SMDPad,CuDef*%
%ADD53RoundRect,0.140000X0.140000X0.170000X-0.140000X0.170000X-0.140000X-0.170000X0.140000X-0.170000X0*%
%TD*%
%TA.AperFunction,SMDPad,CuDef*%
%ADD54R,0.420000X0.700000*%
%TD*%
%TA.AperFunction,SMDPad,CuDef*%
%ADD55FreePoly4,270.000000*%
%TD*%
%TA.AperFunction,SMDPad,CuDef*%
%ADD56R,0.800000X0.900000*%
%TD*%
%TA.AperFunction,SMDPad,CuDef*%
%ADD57R,1.500000X2.000000*%
%TD*%
%TA.AperFunction,SMDPad,CuDef*%
%ADD58R,3.800000X2.000000*%
%TD*%
%TA.AperFunction,SMDPad,CuDef*%
%ADD59R,2.300000X2.500000*%
%TD*%
%TA.AperFunction,ViaPad*%
%ADD60C,0.800000*%
%TD*%
%TA.AperFunction,Conductor*%
%ADD61C,0.200000*%
%TD*%
%TA.AperFunction,Conductor*%
%ADD62C,0.205740*%
%TD*%
%TA.AperFunction,Conductor*%
%ADD63C,0.300000*%
%TD*%
%TA.AperFunction,Conductor*%
%ADD64C,0.250000*%
%TD*%
%TA.AperFunction,Conductor*%
%ADD65C,0.400000*%
%TD*%
%TA.AperFunction,Conductor*%
%ADD66C,0.600000*%
%TD*%
%TA.AperFunction,Conductor*%
%ADD67C,0.350000*%
%TD*%
%TA.AperFunction,Conductor*%
%ADD68C,0.800000*%
%TD*%
%TA.AperFunction,Conductor*%
%ADD69C,0.450000*%
%TD*%
%TA.AperFunction,Conductor*%
%ADD70C,1.500000*%
%TD*%
G04 APERTURE END LIST*
D10*
%TO.P,U1,16,INT1*%
%TO.N,unconnected-(U1-Pad16)*%
X258617828Y-81798950D03*
D11*
%TO.P,U1,15,SDO1*%
%TO.N,FC_SPI0_MISO*%
X259773528Y-81387650D03*
%TO.P,U1,14,CSB1*%
%TO.N,FC_SPI0_CS1*%
X259773528Y-80887651D03*
%TO.P,U1,13,INT4*%
%TO.N,unconnected-(U1-Pad13)*%
X259773528Y-80387649D03*
%TO.P,U1,12,INT3*%
%TO.N,unconnected-(U1-Pad12)*%
X259773528Y-79887650D03*
%TO.P,U1,11,VDDIO*%
%TO.N,Net-(C2-Pad1)*%
X259773528Y-79387651D03*
%TO.P,U1,10,SDO2*%
%TO.N,FC_SPI0_MISO*%
X259773528Y-78887649D03*
%TO.P,U1,9,SDA/SDI*%
%TO.N,FC_SPI0_MOSI*%
X259773528Y-78387650D03*
D10*
%TO.P,U1,8,SCL/SCK*%
%TO.N,FC_SPI0_SCK*%
X258617828Y-77976350D03*
D11*
%TO.P,U1,7,PS*%
%TO.N,GND*%
X257462128Y-78387650D03*
%TO.P,U1,6,GNDIO*%
X257462128Y-78887649D03*
%TO.P,U1,5,CSB2*%
%TO.N,FC_SPI0_CS2*%
X257462128Y-79387651D03*
%TO.P,U1,4,GNDA*%
%TO.N,GND*%
X257462128Y-79887650D03*
%TO.P,U1,3,VDD*%
%TO.N,Net-(C1-Pad2)*%
X257462128Y-80387649D03*
%TO.P,U1,2,NC*%
%TO.N,unconnected-(U1-Pad2)*%
X257462128Y-80887651D03*
%TO.P,U1,1,INT2*%
%TO.N,unconnected-(U1-Pad1)*%
X257462128Y-81387650D03*
%TD*%
D12*
%TO.P,C2,1*%
%TO.N,Net-(C2-Pad1)*%
X261640000Y-79377500D03*
%TO.P,C2,2*%
%TO.N,3V3_IO*%
X261640000Y-78242500D03*
%TD*%
%TO.P,C1,1*%
%TO.N,3V3_IO*%
X256200000Y-81707500D03*
%TO.P,C1,2*%
%TO.N,Net-(C1-Pad2)*%
X256200000Y-80572500D03*
%TD*%
D13*
%TO.P,C6,1*%
%TO.N,+1V1*%
X247460000Y-67775000D03*
%TO.P,C6,2*%
%TO.N,GND*%
X246325000Y-67775000D03*
%TD*%
%TO.P,C8,1*%
%TO.N,+1V1*%
X247460000Y-66825000D03*
%TO.P,C8,2*%
%TO.N,GND*%
X246325000Y-66825000D03*
%TD*%
D14*
%TO.P,C11,1*%
%TO.N,/FlightControlComputer/3V_MCU*%
X256050000Y-64320000D03*
%TO.P,C11,2*%
%TO.N,GND*%
X256050000Y-65455000D03*
%TD*%
%TO.P,C12,1*%
%TO.N,/FlightControlComputer/3V_MCU*%
X255000000Y-64320000D03*
%TO.P,C12,2*%
%TO.N,GND*%
X255000000Y-65455000D03*
%TD*%
%TO.P,C13,1*%
%TO.N,/FlightControlComputer/3V_MCU*%
X254000000Y-64320000D03*
%TO.P,C13,2*%
%TO.N,GND*%
X254000000Y-65455000D03*
%TD*%
%TO.P,C14,1*%
%TO.N,/FlightControlComputer/3V_MCU*%
X253000000Y-64320000D03*
%TO.P,C14,2*%
%TO.N,GND*%
X253000000Y-65455000D03*
%TD*%
%TO.P,C15,1*%
%TO.N,/FlightControlComputer/3V_MCU*%
X252000000Y-64320000D03*
%TO.P,C15,2*%
%TO.N,GND*%
X252000000Y-65455000D03*
%TD*%
%TO.P,C16,1*%
%TO.N,/FlightControlComputer/3V_MCU*%
X251000000Y-64320000D03*
%TO.P,C16,2*%
%TO.N,GND*%
X251000000Y-65455000D03*
%TD*%
D13*
%TO.P,C17,1*%
%TO.N,FC_XIN*%
X261108750Y-72625000D03*
%TO.P,C17,2*%
%TO.N,GND*%
X259973750Y-72625000D03*
%TD*%
%TO.P,C18,1*%
%TO.N,Net-(C18-Pad1)*%
X261133750Y-65592500D03*
%TO.P,C18,2*%
%TO.N,GND*%
X259998750Y-65592500D03*
%TD*%
D12*
%TO.P,C19,1*%
%TO.N,3V3_IO*%
X240125000Y-72842500D03*
%TO.P,C19,2*%
%TO.N,GND*%
X240125000Y-71707500D03*
%TD*%
D15*
%TO.P,D2,1,K*%
%TO.N,Net-(D2-Pad1)*%
X249300000Y-62510000D03*
%TO.P,D2,2,A*%
%TO.N,FC_STATUS_BLUE*%
X249300000Y-61365000D03*
%TD*%
%TO.P,D3,1,K*%
%TO.N,Net-(D3-Pad1)*%
X247700000Y-62510000D03*
%TO.P,D3,2,A*%
%TO.N,FC_STATUS_RED*%
X247700000Y-61365000D03*
%TD*%
%TO.P,D4,1,K*%
%TO.N,Net-(D4-Pad1)*%
X246100000Y-62510000D03*
%TO.P,D4,2,A*%
%TO.N,FC_STATUS_GREEN*%
X246100000Y-61365000D03*
%TD*%
D16*
%TO.P,P4,1,PAD*%
%TO.N,GND*%
X242000000Y-43100000D03*
%TD*%
D17*
%TO.P,P1,1,PAD*%
%TO.N,VCC*%
X252600000Y-37025000D03*
%TD*%
%TO.P,P2,1,PAD*%
%TO.N,GND*%
X248750000Y-37025000D03*
%TD*%
D18*
%TO.P,R7,1*%
%TO.N,FC_QSPI_SS*%
X240252500Y-83875000D03*
%TO.P,R7,2*%
%TO.N,FC_BOOTSEL*%
X241447500Y-83875000D03*
%TD*%
D19*
%TO.P,R13,1*%
%TO.N,Net-(D3-Pad1)*%
X247700000Y-63740000D03*
%TO.P,R13,2*%
%TO.N,GND*%
X247700000Y-64935000D03*
%TD*%
%TO.P,R14,1*%
%TO.N,Net-(D4-Pad1)*%
X246100000Y-63740000D03*
%TO.P,R14,2*%
%TO.N,GND*%
X246100000Y-64935000D03*
%TD*%
D20*
%TO.P,U3,1,IOVDD*%
%TO.N,/FlightControlComputer/3V_MCU*%
X249925000Y-74687500D03*
%TO.P,U3,2,GPIO0*%
%TO.N,FC_SPI0_MISO*%
X250325000Y-74687500D03*
%TO.P,U3,3,GPIO1*%
%TO.N,FC_SPI0_CS1*%
X250725000Y-74687500D03*
%TO.P,U3,4,GPIO2*%
%TO.N,FC_SPI0_SCK*%
X251125000Y-74687500D03*
%TO.P,U3,5,GPIO3*%
%TO.N,FC_SPI0_MOSI*%
X251525000Y-74687500D03*
%TO.P,U3,6,GPIO4*%
%TO.N,FC_I2C0_SDA*%
X251925000Y-74687500D03*
%TO.P,U3,7,GPIO5*%
%TO.N,FC_I2C0_SCL*%
X252325000Y-74687500D03*
%TO.P,U3,8,GPIO6*%
%TO.N,FC_RADIO_PPM*%
X252725000Y-74687500D03*
%TO.P,U3,9,GPIO7*%
%TO.N,FC_SERVO_7*%
X253125000Y-74687500D03*
%TO.P,U3,10,IOVDD*%
%TO.N,/FlightControlComputer/3V_MCU*%
X253525000Y-74687500D03*
%TO.P,U3,11,GPIO8*%
%TO.N,FC_UART1_TX*%
X253925000Y-74687500D03*
%TO.P,U3,12,GPIO9*%
%TO.N,FC_UART1_RX*%
X254325000Y-74687500D03*
%TO.P,U3,13,GPIO10*%
%TO.N,FC_SERVO_6*%
X254725000Y-74687500D03*
%TO.P,U3,14,GPIO11*%
%TO.N,FC_SERVO_5*%
X255125000Y-74687500D03*
D21*
%TO.P,U3,15,GPIO12*%
%TO.N,FC_SERVO_4*%
X255962500Y-73850000D03*
%TO.P,U3,16,GPIO13*%
%TO.N,FC_SERVO_3*%
X255962500Y-73450000D03*
%TO.P,U3,17,GPIO14*%
%TO.N,FC_SERVO_2*%
X255962500Y-73050000D03*
%TO.P,U3,18,GPIO15*%
%TO.N,FC_SERVO_1*%
X255962500Y-72650000D03*
%TO.P,U3,19,TESTEN*%
%TO.N,GND*%
X255962500Y-72250000D03*
%TO.P,U3,20,XIN*%
%TO.N,FC_XIN*%
X255962500Y-71850000D03*
%TO.P,U3,21,XOUT*%
%TO.N,FC_XOUT*%
X255962500Y-71450000D03*
%TO.P,U3,22,IOVDD*%
%TO.N,/FlightControlComputer/3V_MCU*%
X255962500Y-71050000D03*
%TO.P,U3,23,DVDD*%
%TO.N,+1V1*%
X255962500Y-70650000D03*
%TO.P,U3,24,SWCLK*%
%TO.N,FC_SWCLK*%
X255962500Y-70250000D03*
%TO.P,U3,25,SWD*%
%TO.N,FC_SWD*%
X255962500Y-69850000D03*
%TO.P,U3,26,RUN*%
%TO.N,FC_RUN*%
X255962500Y-69450000D03*
%TO.P,U3,27,GPIO16*%
%TO.N,FC_UART0_TX*%
X255962500Y-69050000D03*
%TO.P,U3,28,GPIO17*%
%TO.N,FC_UART0_RX*%
X255962500Y-68650000D03*
D20*
%TO.P,U3,29,GPIO18*%
%TO.N,FC_SPI0_CS2*%
X255125000Y-67812500D03*
%TO.P,U3,30,GPIO19*%
%TO.N,FC_GPIO19*%
X254725000Y-67812500D03*
%TO.P,U3,31,GPIO20*%
%TO.N,FC_GPIO20*%
X254325000Y-67812500D03*
%TO.P,U3,32,GPIO21*%
%TO.N,FC_STATUS_RED*%
X253925000Y-67812500D03*
%TO.P,U3,33,IOVDD*%
%TO.N,/FlightControlComputer/3V_MCU*%
X253525000Y-67812500D03*
%TO.P,U3,34,GPIO22*%
%TO.N,FC_STATUS_GREEN*%
X253125000Y-67812500D03*
%TO.P,U3,35,GPIO23*%
%TO.N,FC_STATUS_BLUE*%
X252725000Y-67812500D03*
%TO.P,U3,36,GPIO24*%
%TO.N,FC_GPIO24*%
X252325000Y-67812500D03*
%TO.P,U3,37,GPIO25*%
%TO.N,FC_GPIO25*%
X251925000Y-67812500D03*
%TO.P,U3,38,GPIO26_ADC0*%
%TO.N,FC_I2C1_SDA*%
X251525000Y-67812500D03*
%TO.P,U3,39,GPIO27_ADC1*%
%TO.N,FC_I2C1_SCL*%
X251125000Y-67812500D03*
%TO.P,U3,40,GPIO28_ADC2*%
%TO.N,FC_GPIO28_ADC2*%
X250725000Y-67812500D03*
%TO.P,U3,41,GPIO29_ADC3*%
%TO.N,FC_GPIO29_ADC3*%
X250325000Y-67812500D03*
%TO.P,U3,42,IOVDD*%
%TO.N,/FlightControlComputer/3V_MCU*%
X249925000Y-67812500D03*
D21*
%TO.P,U3,43,ADC_AVDD*%
X249087500Y-68650000D03*
%TO.P,U3,44,VREG_IN*%
X249087500Y-69050000D03*
%TO.P,U3,45,VREG_VOUT*%
%TO.N,+1V1*%
X249087500Y-69450000D03*
%TO.P,U3,46,USB_DM*%
%TO.N,/FlightControlComputer/USB-*%
X249087500Y-69850000D03*
%TO.P,U3,47,USB_DP*%
%TO.N,/FlightControlComputer/USB+*%
X249087500Y-70250000D03*
%TO.P,U3,48,USB_VDD*%
%TO.N,/FlightControlComputer/3V_MCU*%
X249087500Y-70650000D03*
%TO.P,U3,49,IOVDD*%
X249087500Y-71050000D03*
%TO.P,U3,50,DVDD*%
%TO.N,+1V1*%
X249087500Y-71450000D03*
%TO.P,U3,51,QSPI_SD3*%
%TO.N,FC_QSPI_SD3*%
X249087500Y-71850000D03*
%TO.P,U3,52,QSPI_SCLK*%
%TO.N,FC_QSPI_SCLK*%
X249087500Y-72250000D03*
%TO.P,U3,53,QSPI_SD0*%
%TO.N,FC_QSPI_SD0*%
X249087500Y-72650000D03*
%TO.P,U3,54,QSPI_SD2*%
%TO.N,FC_QSPI_SD2*%
X249087500Y-73050000D03*
%TO.P,U3,55,QSPI_SD1*%
%TO.N,FC_QSPI_SD1*%
X249087500Y-73450000D03*
%TO.P,U3,56,QSPI_SS*%
%TO.N,FC_QSPI_SS*%
X249087500Y-73850000D03*
D22*
%TO.P,U3,57,GND*%
%TO.N,GND*%
X252525000Y-69975000D03*
X253800000Y-69975000D03*
X252525000Y-72525000D03*
X253800000Y-72525000D03*
X251250000Y-72525000D03*
D23*
X252525000Y-71250000D03*
D22*
X251250000Y-69975000D03*
X253800000Y-71250000D03*
X251250000Y-71250000D03*
X252525000Y-71250000D03*
%TD*%
D24*
%TO.P,U4,1,~{CS}*%
%TO.N,FC_QSPI_SS*%
X240645000Y-81700000D03*
%TO.P,U4,2,DO(IO1)*%
%TO.N,FC_QSPI_SD1*%
X241915000Y-81700000D03*
%TO.P,U4,3,IO2*%
%TO.N,FC_QSPI_SD2*%
X243185000Y-81700000D03*
%TO.P,U4,4,GND*%
%TO.N,GND*%
X244455000Y-81700000D03*
%TO.P,U4,5,DI(IO0)*%
%TO.N,FC_QSPI_SD0*%
X244455000Y-74500000D03*
%TO.P,U4,6,CLK*%
%TO.N,FC_QSPI_SCLK*%
X243185000Y-74500000D03*
%TO.P,U4,7,IO3*%
%TO.N,FC_QSPI_SD3*%
X241915000Y-74500000D03*
%TO.P,U4,8,VCC*%
%TO.N,3V3_IO*%
X240645000Y-74500000D03*
%TD*%
D25*
%TO.P,Y1,1,1*%
%TO.N,FC_XIN*%
X261000000Y-70975000D03*
%TO.P,Y1,2,2*%
%TO.N,Net-(C18-Pad1)*%
X261000000Y-67275000D03*
%TD*%
D26*
%TO.P,P3,1,PAD*%
%TO.N,VCC*%
X242000000Y-47400000D03*
%TD*%
D17*
%TO.P,P6,1,PAD*%
%TO.N,GND*%
X260300000Y-37025000D03*
%TD*%
%TO.P,P5,1,PAD*%
%TO.N,VCC*%
X256400000Y-37025000D03*
%TD*%
D27*
%TO.P,C9,1*%
%TO.N,/FlightControlComputer/3V_MCU*%
X248832500Y-66550000D03*
%TO.P,C9,2*%
%TO.N,GND*%
X249967500Y-66550000D03*
%TD*%
D18*
%TO.P,R3,1*%
%TO.N,FC_USB_D+*%
X246155000Y-70830000D03*
%TO.P,R3,2*%
%TO.N,/FlightControlComputer/USB+*%
X247350000Y-70830000D03*
%TD*%
D28*
%TO.P,SW1,1,1*%
%TO.N,FC_BOOTSEL*%
X240650000Y-55925000D03*
X240650000Y-60075000D03*
%TO.P,SW1,2,2*%
%TO.N,GND*%
X242800000Y-55925000D03*
X242800000Y-60075000D03*
%TD*%
D29*
%TO.P,J2,1,VBUS*%
%TO.N,FC_USB_VBUS*%
X243650000Y-64125000D03*
%TO.P,J2,2,D-*%
%TO.N,/FCC Peripherals/d-*%
X243650000Y-64775000D03*
%TO.P,J2,3,D+*%
%TO.N,/FCC Peripherals/d+*%
X243650000Y-65425000D03*
%TO.P,J2,4,ID*%
%TO.N,unconnected-(J2-Pad4)*%
X243650000Y-66075000D03*
%TO.P,J2,5,GND*%
%TO.N,GND*%
X243650000Y-66725000D03*
D30*
%TO.P,J2,6,Shield*%
X240950000Y-68925000D03*
X240950000Y-61925000D03*
D31*
X240950000Y-64425000D03*
D32*
X243650000Y-62925000D03*
D31*
X240950000Y-66425000D03*
D33*
X240950000Y-62525000D03*
D32*
X243650000Y-67925000D03*
D33*
X240950000Y-68325000D03*
%TD*%
D34*
%TO.P,R9,1*%
%TO.N,FC_XOUT*%
X258600000Y-70472500D03*
%TO.P,R9,2*%
%TO.N,Net-(C18-Pad1)*%
X258600000Y-69277500D03*
%TD*%
D14*
%TO.P,C10,1*%
%TO.N,/FlightControlComputer/3V_MCU*%
X257100000Y-64320000D03*
%TO.P,C10,2*%
%TO.N,GND*%
X257100000Y-65455000D03*
%TD*%
D35*
%TO.P,JP3,1,A*%
%TO.N,+3V3*%
X261600000Y-62750000D03*
D36*
%TO.P,JP3,2,B*%
%TO.N,3V3_IO*%
X261600000Y-64050000D03*
%TD*%
D35*
%TO.P,JP2,1,A*%
%TO.N,+3V3*%
X259000000Y-62750000D03*
D36*
%TO.P,JP2,2,B*%
%TO.N,/FlightControlComputer/3V_MCU*%
X259000000Y-64050000D03*
%TD*%
D28*
%TO.P,SW2,1,1*%
%TO.N,FC_RUN*%
X242825000Y-54162500D03*
X242825000Y-50012500D03*
%TO.P,SW2,2,2*%
%TO.N,GND*%
X240675000Y-54162500D03*
X240675000Y-50012500D03*
%TD*%
D13*
%TO.P,C7,1*%
%TO.N,+1V1*%
X247460000Y-68725000D03*
%TO.P,C7,2*%
%TO.N,GND*%
X246325000Y-68725000D03*
%TD*%
D19*
%TO.P,R12,1*%
%TO.N,Net-(D2-Pad1)*%
X249300000Y-63740000D03*
%TO.P,R12,2*%
%TO.N,GND*%
X249300000Y-64935000D03*
%TD*%
%TO.P,R15,1*%
%TO.N,Net-(D5-Pad1)*%
X257315000Y-59420000D03*
%TO.P,R15,2*%
%TO.N,GND*%
X257315000Y-60615000D03*
%TD*%
%TO.P,R16,1*%
%TO.N,Net-(D6-Pad1)*%
X255340000Y-59420000D03*
%TO.P,R16,2*%
%TO.N,GND*%
X255340000Y-60615000D03*
%TD*%
D37*
%TO.P,D5,1,K*%
%TO.N,Net-(D5-Pad1)*%
X256315000Y-59445000D03*
%TO.P,D5,2,A*%
%TO.N,+3V3*%
X256315000Y-60590000D03*
%TD*%
%TO.P,D6,1,K*%
%TO.N,Net-(D6-Pad1)*%
X254365000Y-59445000D03*
%TO.P,D6,2,A*%
%TO.N,+5V*%
X254365000Y-60590000D03*
%TD*%
D18*
%TO.P,R4,1*%
%TO.N,FC_USB_D-*%
X246155000Y-69800000D03*
%TO.P,R4,2*%
%TO.N,/FlightControlComputer/USB-*%
X247350000Y-69800000D03*
%TD*%
D38*
%TO.P,U7,1,I/O1*%
%TO.N,FC_USB_D+*%
X244025000Y-71587500D03*
D39*
%TO.P,U7,2,GND*%
%TO.N,GND*%
X244100000Y-71050000D03*
D38*
%TO.P,U7,3,I/O2*%
%TO.N,FC_USB_D-*%
X244025000Y-70512500D03*
%TO.P,U7,4,I/O2*%
%TO.N,/FCC Peripherals/d-*%
X242325000Y-70512500D03*
D39*
%TO.P,U7,5,VBUS*%
%TO.N,FC_USB_VBUS*%
X242250000Y-71050000D03*
D38*
%TO.P,U7,6,I/O1*%
%TO.N,/FCC Peripherals/d+*%
X242325000Y-71587500D03*
%TD*%
D40*
%TO.P,JP1,1,A*%
%TO.N,FC_USB_VBUS*%
X261850000Y-59900000D03*
D41*
%TO.P,JP1,2,C*%
%TO.N,REG_5VIN*%
X260550000Y-59900000D03*
D42*
%TO.P,JP1,3,B*%
%TO.N,+5V*%
X259250000Y-59900000D03*
%TD*%
D43*
%TO.P,C24,1*%
%TO.N,GND*%
X253870000Y-56150000D03*
%TO.P,C24,2*%
%TO.N,+5V*%
X254830000Y-56150000D03*
%TD*%
D44*
%TO.P,L2,1*%
%TO.N,Net-(C32-Pad2)*%
X255675000Y-43800000D03*
%TO.P,L2,2*%
%TO.N,+5V*%
X261125000Y-43800000D03*
%TD*%
D27*
%TO.P,C3,1*%
%TO.N,REG_5VIN*%
X256182500Y-48125000D03*
%TO.P,C3,2*%
%TO.N,GND*%
X257317500Y-48125000D03*
%TD*%
%TO.P,C5,1*%
%TO.N,+3V3*%
X260207500Y-48125000D03*
%TO.P,C5,2*%
%TO.N,GND*%
X261342500Y-48125000D03*
%TD*%
D45*
%TO.P,C31,1*%
%TO.N,Net-(C31-Pad1)*%
X253750000Y-54230000D03*
%TO.P,C31,2*%
%TO.N,GND*%
X253750000Y-53270000D03*
%TD*%
D46*
%TO.P,R8,1*%
%TO.N,+5V*%
X251910000Y-58125000D03*
%TO.P,R8,2*%
%TO.N,FB*%
X250890000Y-58125000D03*
%TD*%
D47*
%TO.P,U6,1,PGND*%
%TO.N,Net-(C32-Pad1)*%
X246600000Y-52545000D03*
%TO.P,U6,2,VIN*%
%TO.N,/+12v*%
X246600000Y-53815000D03*
%TO.P,U6,3,EN*%
%TO.N,unconnected-(U6-Pad3)*%
X246600000Y-55085000D03*
%TO.P,U6,4,PG*%
%TO.N,Net-(R10-Pad1)*%
X246600000Y-56355000D03*
%TO.P,U6,5,FB*%
%TO.N,FB*%
X252000000Y-56355000D03*
%TO.P,U6,6,VCC*%
%TO.N,Net-(C31-Pad1)*%
X252000000Y-55085000D03*
%TO.P,U6,7,BOOT*%
%TO.N,GND*%
X252000000Y-53815000D03*
%TO.P,U6,8,SW*%
%TO.N,Net-(C32-Pad2)*%
X252000000Y-52545000D03*
D22*
%TO.P,U6,9,AGND*%
%TO.N,GND*%
X249950000Y-52500000D03*
X249950000Y-55100000D03*
X248650000Y-52500000D03*
X249950000Y-53800000D03*
X248650000Y-56400000D03*
D48*
X249300000Y-54450000D03*
D22*
X249950000Y-56400000D03*
X248650000Y-53800000D03*
X248650000Y-55100000D03*
%TD*%
D49*
%TO.P,R10,1*%
%TO.N,Net-(R10-Pad1)*%
X244925000Y-55885000D03*
%TO.P,R10,2*%
%TO.N,GND*%
X244925000Y-54865000D03*
%TD*%
D50*
%TO.P,J3,1,Pin_1*%
%TO.N,GND*%
X250700000Y-97100000D03*
D51*
%TO.P,J3,2,Pin_2*%
X250700000Y-94560000D03*
%TO.P,J3,3,Pin_3*%
%TO.N,FC_UART0_RX*%
X253240000Y-97100000D03*
%TO.P,J3,4,Pin_4*%
%TO.N,FC_UART1_RX*%
X253240000Y-94560000D03*
%TO.P,J3,5,Pin_5*%
%TO.N,FC_UART0_TX*%
X255780000Y-97100000D03*
%TO.P,J3,6,Pin_6*%
%TO.N,FC_UART1_TX*%
X255780000Y-94560000D03*
%TO.P,J3,7,Pin_7*%
%TO.N,+5V*%
X258320000Y-97100000D03*
%TO.P,J3,8,Pin_8*%
%TO.N,3V3_IO*%
X258320000Y-94560000D03*
%TD*%
D52*
%TO.P,C27,1*%
%TO.N,GND*%
X254950000Y-53270000D03*
%TO.P,C27,2*%
%TO.N,+5V*%
X254950000Y-54230000D03*
%TD*%
D50*
%TO.P,J1,1,Pin_1*%
%TO.N,+5V*%
X267275000Y-42965000D03*
D51*
%TO.P,J1,2,Pin_2*%
%TO.N,unconnected-(J1-Pad2)*%
X264735000Y-42965000D03*
%TO.P,J1,3,Pin_3*%
%TO.N,+5V*%
X267275000Y-45505000D03*
%TO.P,J1,4,Pin_4*%
%TO.N,FC_I2C0_SDA*%
X264735000Y-45505000D03*
%TO.P,J1,5,Pin_5*%
%TO.N,GND*%
X267275000Y-48045000D03*
%TO.P,J1,6,Pin_6*%
%TO.N,FC_I2C0_SCL*%
X264735000Y-48045000D03*
%TO.P,J1,7,Pin_7*%
%TO.N,unconnected-(J1-Pad7)*%
X267275000Y-50585000D03*
%TO.P,J1,8,Pin_8*%
%TO.N,unconnected-(J1-Pad8)*%
X264735000Y-50585000D03*
%TO.P,J1,9,Pin_9*%
%TO.N,unconnected-(J1-Pad9)*%
X267275000Y-53125000D03*
%TO.P,J1,10,Pin_10*%
%TO.N,GND*%
X264735000Y-53125000D03*
%TO.P,J1,11,Pin_11*%
%TO.N,unconnected-(J1-Pad11)*%
X267275000Y-55665000D03*
%TO.P,J1,12,Pin_12*%
%TO.N,unconnected-(J1-Pad12)*%
X264735000Y-55665000D03*
%TO.P,J1,13,Pin_13*%
%TO.N,unconnected-(J1-Pad13)*%
X267275000Y-58205000D03*
%TO.P,J1,14,Pin_14*%
%TO.N,unconnected-(J1-Pad14)*%
X264735000Y-58205000D03*
%TO.P,J1,15,Pin_15*%
%TO.N,unconnected-(J1-Pad15)*%
X267275000Y-60745000D03*
%TO.P,J1,16,Pin_16*%
%TO.N,unconnected-(J1-Pad16)*%
X264735000Y-60745000D03*
%TO.P,J1,17,Pin_17*%
%TO.N,unconnected-(J1-Pad17)*%
X267275000Y-63285000D03*
%TO.P,J1,18,Pin_18*%
%TO.N,unconnected-(J1-Pad18)*%
X264735000Y-63285000D03*
%TO.P,J1,19,Pin_19*%
%TO.N,GND*%
X267275000Y-65825000D03*
%TO.P,J1,20,Pin_20*%
%TO.N,unconnected-(J1-Pad20)*%
X264735000Y-65825000D03*
%TO.P,J1,21,Pin_21*%
%TO.N,unconnected-(J1-Pad21)*%
X267275000Y-68365000D03*
%TO.P,J1,22,Pin_22*%
%TO.N,unconnected-(J1-Pad22)*%
X264735000Y-68365000D03*
%TO.P,J1,23,Pin_23*%
%TO.N,unconnected-(J1-Pad23)*%
X267275000Y-70905000D03*
%TO.P,J1,24,Pin_24*%
%TO.N,unconnected-(J1-Pad24)*%
X264735000Y-70905000D03*
%TO.P,J1,25,Pin_25*%
%TO.N,unconnected-(J1-Pad25)*%
X267275000Y-73445000D03*
%TO.P,J1,26,Pin_26*%
%TO.N,GND*%
X264735000Y-73445000D03*
%TO.P,J1,27,Pin_27*%
%TO.N,unconnected-(J1-Pad27)*%
X267275000Y-75985000D03*
%TO.P,J1,28,Pin_28*%
%TO.N,unconnected-(J1-Pad28)*%
X264735000Y-75985000D03*
%TO.P,J1,29,Pin_29*%
%TO.N,GND*%
X267275000Y-78525000D03*
%TO.P,J1,30,Pin_30*%
%TO.N,unconnected-(J1-Pad30)*%
X264735000Y-78525000D03*
%TO.P,J1,31,Pin_31*%
%TO.N,unconnected-(J1-Pad31)*%
X267275000Y-81065000D03*
%TO.P,J1,32,Pin_32*%
%TO.N,unconnected-(J1-Pad32)*%
X264735000Y-81065000D03*
%TO.P,J1,33,Pin_33*%
%TO.N,GND*%
X267275000Y-83605000D03*
%TO.P,J1,34,Pin_34*%
%TO.N,unconnected-(J1-Pad34)*%
X264735000Y-83605000D03*
%TO.P,J1,35,Pin_35*%
%TO.N,unconnected-(J1-Pad35)*%
X267275000Y-86145000D03*
%TO.P,J1,36,Pin_36*%
%TO.N,unconnected-(J1-Pad36)*%
X264735000Y-86145000D03*
%TO.P,J1,37,Pin_37*%
%TO.N,unconnected-(J1-Pad37)*%
X267275000Y-88685000D03*
%TO.P,J1,38,Pin_38*%
%TO.N,unconnected-(J1-Pad38)*%
X264735000Y-88685000D03*
%TO.P,J1,39,Pin_39*%
%TO.N,unconnected-(J1-Pad39)*%
X267275000Y-91225000D03*
%TO.P,J1,40,Pin_40*%
%TO.N,GND*%
X264735000Y-91225000D03*
%TD*%
D53*
%TO.P,C28,1*%
%TO.N,VCC*%
X246180000Y-50425000D03*
%TO.P,C28,2*%
%TO.N,GND*%
X245220000Y-50425000D03*
%TD*%
D45*
%TO.P,C30,1*%
%TO.N,/+12v*%
X248550000Y-43555000D03*
%TO.P,C30,2*%
%TO.N,GND*%
X248550000Y-42595000D03*
%TD*%
D43*
%TO.P,C32,1*%
%TO.N,Net-(C32-Pad1)*%
X250445000Y-51075000D03*
%TO.P,C32,2*%
%TO.N,Net-(C32-Pad2)*%
X251405000Y-51075000D03*
%TD*%
D53*
%TO.P,C29,1*%
%TO.N,/+12v*%
X248705000Y-44600000D03*
%TO.P,C29,2*%
%TO.N,Net-(C29-Pad2)*%
X247745000Y-44600000D03*
%TD*%
D46*
%TO.P,R17,1*%
%TO.N,Net-(C29-Pad2)*%
X246660000Y-44600000D03*
%TO.P,R17,2*%
%TO.N,GND*%
X245640000Y-44600000D03*
%TD*%
D54*
%TO.P,Q1,1,S*%
%TO.N,/+12v*%
X247975000Y-46150000D03*
%TO.P,Q1,2,S*%
X247325000Y-46150000D03*
%TO.P,Q1,3,S*%
X246675000Y-46150000D03*
%TO.P,Q1,4,G*%
%TO.N,Net-(C29-Pad2)*%
X246025000Y-46150000D03*
D55*
%TO.P,Q1,5,D*%
%TO.N,VCC*%
X247000000Y-48105000D03*
%TD*%
D50*
%TO.P,J8,1,Pin_1*%
%TO.N,FC_SERVO_1*%
X261025000Y-86200000D03*
D51*
%TO.P,J8,2,Pin_2*%
%TO.N,FC_SERVO_2*%
X258485000Y-86200000D03*
%TO.P,J8,3,Pin_3*%
%TO.N,FC_SERVO_3*%
X255945000Y-86200000D03*
%TO.P,J8,4,Pin_4*%
%TO.N,FC_SERVO_4*%
X253405000Y-86200000D03*
%TO.P,J8,5,Pin_5*%
%TO.N,FC_SERVO_5*%
X250865000Y-86200000D03*
%TO.P,J8,6,Pin_6*%
%TO.N,FC_SERVO_6*%
X248325000Y-86200000D03*
%TO.P,J8,7,Pin_7*%
%TO.N,FC_SERVO_7*%
X245785000Y-86200000D03*
%TO.P,J8,8,Pin_8*%
%TO.N,FC_RADIO_PPM*%
X243245000Y-86200000D03*
%TD*%
D50*
%TO.P,J9,1,Pin_1*%
%TO.N,GND*%
X243225000Y-91300000D03*
D51*
%TO.P,J9,2,Pin_2*%
%TO.N,+5V*%
X243225000Y-88760000D03*
%TO.P,J9,3,Pin_3*%
%TO.N,GND*%
X245765000Y-91300000D03*
%TO.P,J9,4,Pin_4*%
%TO.N,+5V*%
X245765000Y-88760000D03*
%TO.P,J9,5,Pin_5*%
%TO.N,GND*%
X248305000Y-91300000D03*
%TO.P,J9,6,Pin_6*%
%TO.N,+5V*%
X248305000Y-88760000D03*
%TO.P,J9,7,Pin_7*%
%TO.N,GND*%
X250845000Y-91300000D03*
%TO.P,J9,8,Pin_8*%
%TO.N,+5V*%
X250845000Y-88760000D03*
%TO.P,J9,9,Pin_9*%
%TO.N,GND*%
X253385000Y-91300000D03*
%TO.P,J9,10,Pin_10*%
%TO.N,+5V*%
X253385000Y-88760000D03*
%TO.P,J9,11,Pin_11*%
%TO.N,GND*%
X255925000Y-91300000D03*
%TO.P,J9,12,Pin_12*%
%TO.N,+5V*%
X255925000Y-88760000D03*
%TO.P,J9,13,Pin_13*%
%TO.N,GND*%
X258465000Y-91300000D03*
%TO.P,J9,14,Pin_14*%
%TO.N,+5V*%
X258465000Y-88760000D03*
%TO.P,J9,15,Pin_15*%
%TO.N,GND*%
X261005000Y-91300000D03*
%TO.P,J9,16,Pin_16*%
%TO.N,+5V*%
X261005000Y-88760000D03*
%TD*%
D43*
%TO.P,C23,1*%
%TO.N,/+12v*%
X250440000Y-49925000D03*
%TO.P,C23,2*%
%TO.N,GND*%
X251400000Y-49925000D03*
%TD*%
D56*
%TO.P,D8,*%
%TO.N,*%
X247150000Y-43325000D03*
%TO.P,D8,1,K*%
%TO.N,/+12v*%
X246200000Y-41325000D03*
%TO.P,D8,2,A*%
%TO.N,Net-(C29-Pad2)*%
X245250000Y-43325000D03*
%TD*%
D43*
%TO.P,C21,1*%
%TO.N,/+12v*%
X250440000Y-48600000D03*
%TO.P,C21,2*%
%TO.N,GND*%
X251400000Y-48600000D03*
%TD*%
D57*
%TO.P,U2,1,GND*%
%TO.N,GND*%
X261535000Y-50095000D03*
D58*
%TO.P,U2,2,VO*%
%TO.N,+3V3*%
X259235000Y-56395000D03*
D57*
X259235000Y-50095000D03*
%TO.P,U2,3,VI*%
%TO.N,REG_5VIN*%
X256935000Y-50095000D03*
%TD*%
D59*
%TO.P,D7,1,K*%
%TO.N,Net-(C32-Pad2)*%
X251600000Y-46225000D03*
%TO.P,D7,2,A*%
%TO.N,GND*%
X251600000Y-41925000D03*
%TD*%
D46*
%TO.P,R11,1*%
%TO.N,FB*%
X248010000Y-58100000D03*
%TO.P,R11,2*%
%TO.N,GND*%
X246990000Y-58100000D03*
%TD*%
D60*
%TO.N,FC_SPI0_CS2*%
X255780000Y-66620000D03*
%TO.N,FC_SPI0_MISO*%
X261050000Y-81840000D03*
%TO.N,FC_SPI0_CS2*%
X256380749Y-78740749D03*
%TO.N,FC_SPI0_CS1*%
X261350000Y-80730000D03*
%TO.N,FC_SPI0_SCK*%
X258540000Y-76570000D03*
%TO.N,FC_SPI0_MOSI*%
X259780000Y-77560000D03*
%TO.N,FC_I2C0_SCL*%
X247960000Y-79260000D03*
%TO.N,FC_I2C0_SDA*%
X247220000Y-78490000D03*
%TO.N,FC_SPI0_MOSI*%
X247177122Y-77387122D03*
%TO.N,FC_SPI0_SCK*%
X248737535Y-77386442D03*
%TO.N,FC_SPI0_CS1*%
X247903679Y-76686942D03*
%TO.N,FC_SPI0_MISO*%
X248597122Y-75967122D03*
%TO.N,GND*%
X258497630Y-79382273D03*
X241000000Y-42550000D03*
X241000000Y-43650000D03*
X243100000Y-43650000D03*
X243100000Y-42550000D03*
X242050000Y-43650000D03*
X242050000Y-42550000D03*
X249250000Y-37075000D03*
X248150000Y-37075000D03*
X249250000Y-36025000D03*
X248150000Y-36025000D03*
X248150000Y-38125000D03*
X249250000Y-38125000D03*
X259750000Y-38125000D03*
X260850000Y-37075000D03*
X259750000Y-37075000D03*
X260850000Y-38125000D03*
X260850000Y-36025000D03*
X259750000Y-36025000D03*
X240075000Y-70075000D03*
X254250000Y-52175000D03*
X261525000Y-51800000D03*
X252325000Y-49225000D03*
X244450000Y-80075000D03*
X258750000Y-72650000D03*
X244250000Y-54250000D03*
X258625000Y-48100000D03*
X244400000Y-49700000D03*
X241642878Y-72767878D03*
X250975000Y-40025000D03*
X258900000Y-65600000D03*
X242835000Y-58065000D03*
X253850000Y-57100000D03*
X247625000Y-42225000D03*
X255340000Y-61592500D03*
X240700000Y-51837500D03*
X246425000Y-65875000D03*
X257315000Y-61592500D03*
%TO.N,+1V1*%
X257329128Y-70750500D03*
X245761881Y-71723876D03*
X247450000Y-65990000D03*
%TO.N,+3V3*%
X262150000Y-56800000D03*
X262900000Y-61725000D03*
%TO.N,VCC*%
X240950000Y-46900000D03*
X242000000Y-46900000D03*
X242000000Y-48000000D03*
X243050000Y-48000000D03*
X243050000Y-46900000D03*
X253150000Y-36025000D03*
X253150000Y-37075000D03*
X252050000Y-36025000D03*
X253150000Y-38125000D03*
X252050000Y-38125000D03*
X252050000Y-37075000D03*
X256950000Y-37075000D03*
X255850000Y-38125000D03*
X256950000Y-36025000D03*
X255850000Y-37075000D03*
X256950000Y-38125000D03*
X255850000Y-36025000D03*
X240950000Y-48000000D03*
%TO.N,+5V*%
X257890000Y-58470000D03*
%TO.N,FC_STATUS_BLUE*%
X250500000Y-61350000D03*
X252425000Y-66500000D03*
%TO.N,FC_STATUS_RED*%
X247675000Y-59325000D03*
X253919729Y-68938809D03*
%TO.N,FC_STATUS_GREEN*%
X246100000Y-59275000D03*
X253424503Y-66500000D03*
%TO.N,FC_BOOTSEL*%
X242475000Y-83899500D03*
X240655000Y-57995000D03*
%TO.N,FC_RUN*%
X242825000Y-51887500D03*
X254919075Y-68921123D03*
%TO.N,FC_USB_VBUS*%
X261875000Y-59925000D03*
X241210000Y-71050000D03*
X244975000Y-60400000D03*
%TO.N,FC_SERVO_1*%
X259425000Y-83600000D03*
X257631540Y-72795314D03*
%TO.N,FC_SERVO_5*%
X255677574Y-75533514D03*
X253416941Y-79225000D03*
%TO.N,FC_SWCLK*%
X257560982Y-69778262D03*
%TO.N,FC_SWD*%
X257668069Y-68784514D03*
%TO.N,REG_5VIN*%
X256975000Y-51775000D03*
X260575000Y-59925000D03*
%TO.N,FC_UART1_TX*%
X253824500Y-76175000D03*
%TO.N,FC_UART1_RX*%
X253519313Y-77126768D03*
%TO.N,FC_UART0_TX*%
X257014326Y-67358427D03*
%TO.N,FC_UART0_RX*%
X256075000Y-67700000D03*
%TO.N,/FlightControlComputer/3V_MCU*%
X250125000Y-68850000D03*
X254900000Y-71050000D03*
%TO.N,3V3_IO*%
X240520000Y-85030000D03*
X240520000Y-76460000D03*
%TD*%
D61*
%TO.N,FC_SPI0_CS2*%
X255125000Y-67275000D02*
X255780000Y-66620000D01*
X255125000Y-67812500D02*
X255125000Y-67275000D01*
%TO.N,FC_SPI0_MISO*%
X261050000Y-81840000D02*
X260225878Y-81840000D01*
X260225878Y-81840000D02*
X259773528Y-81387650D01*
%TO.N,FC_SPI0_CS2*%
X257027651Y-79387651D02*
X256380749Y-78740749D01*
X257462128Y-79387651D02*
X257027651Y-79387651D01*
%TO.N,FC_SPI0_CS1*%
X261192349Y-80887651D02*
X261350000Y-80730000D01*
X259773528Y-80887651D02*
X261192349Y-80887651D01*
%TO.N,FC_SPI0_SCK*%
X258617828Y-76647828D02*
X258540000Y-76570000D01*
X258617828Y-77976350D02*
X258617828Y-76647828D01*
%TO.N,FC_SPI0_MOSI*%
X259773528Y-77566472D02*
X259780000Y-77560000D01*
X259773528Y-78387650D02*
X259773528Y-77566472D01*
%TO.N,FC_I2C0_SCL*%
X249240030Y-79260000D02*
X247960000Y-79260000D01*
X252325000Y-76175030D02*
X249240030Y-79260000D01*
X252325000Y-74687500D02*
X252325000Y-76175030D01*
%TO.N,FC_I2C0_SDA*%
X249440024Y-78490000D02*
X247220000Y-78490000D01*
X251925000Y-76005024D02*
X249440024Y-78490000D01*
X251925000Y-74687500D02*
X251925000Y-76005024D01*
%TO.N,FC_SPI0_MOSI*%
X249279065Y-78085953D02*
X247875953Y-78085953D01*
X247875953Y-78085953D02*
X247177122Y-77387122D01*
X249712509Y-77652509D02*
X249279065Y-78085953D01*
X251525000Y-74687500D02*
X251525000Y-75840018D01*
X251525000Y-75840018D02*
X249712509Y-77652509D01*
%TO.N,FC_SPI0_SCK*%
X251125000Y-75675012D02*
X249413570Y-77386442D01*
X249413570Y-77386442D02*
X248737535Y-77386442D01*
X251125000Y-74687500D02*
X251125000Y-75675012D01*
%TO.N,FC_SPI0_CS1*%
X249548064Y-76686942D02*
X247903679Y-76686942D01*
X250725000Y-75510006D02*
X249548064Y-76686942D01*
X250725000Y-74687500D02*
X250725000Y-75510006D01*
%TO.N,FC_SPI0_MISO*%
X249702878Y-75967122D02*
X248597122Y-75967122D01*
X250325000Y-75345000D02*
X249702878Y-75967122D01*
X250325000Y-74687500D02*
X250325000Y-75345000D01*
D62*
%TO.N,GND*%
X257462128Y-79887650D02*
X257992253Y-79887650D01*
X257992253Y-79887650D02*
X258497630Y-79382273D01*
X257462128Y-78887649D02*
X257462128Y-78387650D01*
X257503007Y-78387650D02*
X258497630Y-79382273D01*
X257462128Y-78387650D02*
X257503007Y-78387650D01*
%TO.N,FC_SPI0_MISO*%
X259200000Y-81287185D02*
X259200000Y-79090000D01*
X259773528Y-81387650D02*
X259300465Y-81387650D01*
X259300465Y-81387650D02*
X259200000Y-81287185D01*
X259200000Y-79090000D02*
X259402351Y-78887649D01*
X259402351Y-78887649D02*
X259773528Y-78887649D01*
D63*
%TO.N,3V3_IO*%
X256200000Y-81707500D02*
X257232500Y-82740000D01*
X262900000Y-82120000D02*
X262900000Y-79502500D01*
X262900000Y-94200000D02*
X262900000Y-82120000D01*
X257232500Y-82740000D02*
X262280000Y-82740000D01*
X262280000Y-82740000D02*
X262900000Y-82120000D01*
X256380000Y-99030000D02*
X259230000Y-99030000D01*
X260030000Y-97070000D02*
X262900000Y-94200000D01*
X259230000Y-99030000D02*
X260030000Y-98230000D01*
X262900000Y-79502500D02*
X261640000Y-78242500D01*
X260030000Y-98230000D02*
X260030000Y-97070000D01*
D64*
X263430000Y-72460000D02*
X263430000Y-76452500D01*
X263430000Y-76452500D02*
X261640000Y-78242500D01*
%TO.N,Net-(C2-Pad1)*%
X259773528Y-79387651D02*
X261629849Y-79387651D01*
X261629849Y-79387651D02*
X261640000Y-79377500D01*
%TO.N,Net-(C1-Pad2)*%
X257462128Y-80387649D02*
X256384851Y-80387649D01*
X256384851Y-80387649D02*
X256200000Y-80572500D01*
D65*
%TO.N,GND*%
X246325000Y-66825000D02*
X246325000Y-65975000D01*
D66*
X247700000Y-64935000D02*
X246100000Y-64935000D01*
D67*
X240075000Y-70075000D02*
X240075000Y-69800000D01*
D65*
X246325000Y-65975000D02*
X246425000Y-65875000D01*
D66*
X261535000Y-48317500D02*
X261342500Y-48125000D01*
D61*
X243525978Y-71050000D02*
X243475000Y-71100978D01*
D66*
X244925000Y-54865000D02*
X244865000Y-54865000D01*
D68*
X250845000Y-91300000D02*
X248305000Y-91300000D01*
D61*
X242800000Y-60075000D02*
X242800000Y-58100000D01*
D66*
X253750000Y-53270000D02*
X253675489Y-53344511D01*
D67*
X240075000Y-69800000D02*
X240950000Y-68925000D01*
D66*
X245220000Y-50425000D02*
X245125000Y-50425000D01*
X257317500Y-48125000D02*
X258600000Y-48125000D01*
D69*
X251000000Y-65517500D02*
X249967500Y-66550000D01*
D68*
X255925000Y-91300000D02*
X253385000Y-91300000D01*
D69*
X258907500Y-65592500D02*
X258900000Y-65600000D01*
D67*
X240125000Y-71707500D02*
X240125000Y-70125000D01*
D66*
X253870000Y-56150000D02*
X253870000Y-57080000D01*
X243500000Y-44600000D02*
X242000000Y-43100000D01*
D61*
X242800000Y-58030000D02*
X242835000Y-58065000D01*
X244100000Y-71050000D02*
X243525978Y-71050000D01*
D66*
X261535000Y-50095000D02*
X261535000Y-48317500D01*
D61*
X242800000Y-55925000D02*
X242800000Y-58030000D01*
X254075000Y-72250000D02*
X255962500Y-72250000D01*
D66*
X250700000Y-94560000D02*
X250700000Y-97100000D01*
D65*
X249300000Y-55425000D02*
X249300000Y-54450000D01*
D66*
X254950000Y-53270000D02*
X253750000Y-53270000D01*
X257315000Y-60615000D02*
X257315000Y-61592500D01*
D61*
X240675000Y-54162500D02*
X240675000Y-51862500D01*
D69*
X255000000Y-65455000D02*
X254000000Y-65455000D01*
D61*
X253800000Y-72525000D02*
X254075000Y-72250000D01*
D68*
X258465000Y-91300000D02*
X255925000Y-91300000D01*
D69*
X258775000Y-72625000D02*
X258750000Y-72650000D01*
D61*
X242235756Y-72175000D02*
X241642878Y-72767878D01*
D66*
X253750000Y-53270000D02*
X253750000Y-52675000D01*
D68*
X240950000Y-64425000D02*
X240950000Y-62525000D01*
D63*
X243650000Y-66725000D02*
X243650000Y-67925000D01*
D69*
X251000000Y-65455000D02*
X251000000Y-65517500D01*
D66*
X258600000Y-48125000D02*
X258625000Y-48100000D01*
D68*
X248305000Y-91300000D02*
X245765000Y-91300000D01*
X242650000Y-61925000D02*
X243650000Y-62925000D01*
D66*
X245125000Y-50425000D02*
X244400000Y-49700000D01*
X261535000Y-50095000D02*
X261535000Y-51790000D01*
X247995000Y-42595000D02*
X247625000Y-42225000D01*
D69*
X257100000Y-65455000D02*
X258755000Y-65455000D01*
D67*
X240125000Y-70125000D02*
X240075000Y-70075000D01*
D65*
X246325000Y-67775000D02*
X246325000Y-66825000D01*
D69*
X254000000Y-65455000D02*
X253000000Y-65455000D01*
D65*
X246990000Y-57735000D02*
X249300000Y-55425000D01*
D66*
X244865000Y-54865000D02*
X244250000Y-54250000D01*
D63*
X251400000Y-49925000D02*
X251625000Y-49925000D01*
D61*
X243475000Y-71100978D02*
X243475000Y-72175000D01*
D68*
X245765000Y-91300000D02*
X243225000Y-91300000D01*
D63*
X251700000Y-48600000D02*
X252325000Y-49225000D01*
D69*
X259973750Y-72625000D02*
X258775000Y-72625000D01*
X256050000Y-65455000D02*
X255000000Y-65455000D01*
D66*
X244455000Y-81700000D02*
X244455000Y-80080000D01*
D65*
X246325000Y-68725000D02*
X246325000Y-67775000D01*
D61*
X240675000Y-51862500D02*
X240700000Y-51837500D01*
X242800000Y-58100000D02*
X242835000Y-58065000D01*
D66*
X253675489Y-53344511D02*
X252470489Y-53344511D01*
X248550000Y-42595000D02*
X247995000Y-42595000D01*
X251600000Y-40650000D02*
X250975000Y-40025000D01*
D63*
X251625000Y-49925000D02*
X252325000Y-49225000D01*
D66*
X253870000Y-57080000D02*
X253850000Y-57100000D01*
D65*
X246100000Y-64935000D02*
X246100000Y-65550000D01*
D69*
X259998750Y-65592500D02*
X258907500Y-65592500D01*
X257100000Y-65455000D02*
X256050000Y-65455000D01*
D68*
X240950000Y-68925000D02*
X240950000Y-66425000D01*
X253385000Y-91300000D02*
X250845000Y-91300000D01*
D61*
X240675000Y-51812500D02*
X240700000Y-51837500D01*
D66*
X252000000Y-53815000D02*
X249935000Y-53815000D01*
D63*
X251400000Y-48600000D02*
X251700000Y-48600000D01*
D66*
X249935000Y-53815000D02*
X249300000Y-54450000D01*
D69*
X252000000Y-65455000D02*
X251000000Y-65455000D01*
D66*
X249300000Y-64935000D02*
X247700000Y-64935000D01*
X251600000Y-41925000D02*
X251600000Y-40650000D01*
D61*
X243475000Y-72175000D02*
X242659994Y-72175000D01*
D66*
X261535000Y-51790000D02*
X261525000Y-51800000D01*
D61*
X240675000Y-50012500D02*
X240675000Y-51812500D01*
D69*
X253000000Y-65455000D02*
X252000000Y-65455000D01*
D65*
X246990000Y-58100000D02*
X246990000Y-57735000D01*
D66*
X245640000Y-44600000D02*
X243500000Y-44600000D01*
X255340000Y-60615000D02*
X255340000Y-61592500D01*
D69*
X258755000Y-65455000D02*
X258900000Y-65600000D01*
D66*
X244455000Y-80080000D02*
X244450000Y-80075000D01*
D65*
X246100000Y-65550000D02*
X246425000Y-65875000D01*
D61*
X242659994Y-72175000D02*
X242235756Y-72175000D01*
D68*
X261005000Y-91300000D02*
X258465000Y-91300000D01*
D66*
X253750000Y-52675000D02*
X254250000Y-52175000D01*
D68*
X240950000Y-61925000D02*
X242650000Y-61925000D01*
D66*
X252470489Y-53344511D02*
X252000000Y-53815000D01*
D61*
%TO.N,+1V1*%
X246035757Y-71450000D02*
X245761881Y-71723876D01*
X247460000Y-66825000D02*
X247460000Y-66000000D01*
D63*
X247460000Y-68725000D02*
X247460000Y-67775000D01*
D61*
X247460000Y-66000000D02*
X247450000Y-65990000D01*
D63*
X247460000Y-67775000D02*
X247460000Y-66825000D01*
D61*
X248185000Y-69450000D02*
X247460000Y-68725000D01*
X257228628Y-70650000D02*
X257329128Y-70750500D01*
X249087500Y-69450000D02*
X248185000Y-69450000D01*
X249087500Y-71450000D02*
X246035757Y-71450000D01*
X255962500Y-70650000D02*
X257228628Y-70650000D01*
D69*
%TO.N,FC_XIN*%
X261108750Y-72625000D02*
X261108750Y-71083750D01*
D61*
X255962500Y-71850000D02*
X260125000Y-71850000D01*
X260125000Y-71850000D02*
X261000000Y-70975000D01*
D69*
X261108750Y-71083750D02*
X261000000Y-70975000D01*
D66*
%TO.N,+3V3*%
X260207500Y-49122500D02*
X259235000Y-50095000D01*
X256315000Y-61864602D02*
X256315000Y-60590000D01*
X261875000Y-62750000D02*
X262900000Y-61725000D01*
X259000000Y-62750000D02*
X257200398Y-62750000D01*
X261600000Y-62750000D02*
X261875000Y-62750000D01*
X259235000Y-56395000D02*
X261745000Y-56395000D01*
X260207500Y-48125000D02*
X260207500Y-49122500D01*
X259235000Y-56395000D02*
X259235000Y-50095000D01*
X259000000Y-62750000D02*
X261600000Y-62750000D01*
X257200398Y-62750000D02*
X256315000Y-61864602D01*
X261745000Y-56395000D02*
X262150000Y-56800000D01*
D70*
%TO.N,VCC*%
X247000000Y-48105000D02*
X242705000Y-48105000D01*
D66*
X246180000Y-50425000D02*
X246180000Y-48925000D01*
X246180000Y-48925000D02*
X247000000Y-48105000D01*
D70*
X242705000Y-48105000D02*
X242000000Y-47400000D01*
D66*
%TO.N,+5V*%
X259250000Y-59900000D02*
X259250000Y-59830000D01*
X256050000Y-53725000D02*
X256050000Y-52150000D01*
X259950000Y-46850000D02*
X261125000Y-45675000D01*
X251910000Y-58125000D02*
X253345000Y-58125000D01*
X254950000Y-54230000D02*
X254950000Y-56030000D01*
X253345000Y-58125000D02*
X253690000Y-58470000D01*
X254830000Y-57430000D02*
X255870000Y-58470000D01*
X255870000Y-58470000D02*
X257890000Y-58470000D01*
D68*
X258465000Y-88760000D02*
X261005000Y-88760000D01*
D66*
X261125000Y-45675000D02*
X261125000Y-43800000D01*
X253320000Y-58840000D02*
X253690000Y-58470000D01*
D68*
X248305000Y-88760000D02*
X250845000Y-88760000D01*
D66*
X259250000Y-59830000D02*
X257890000Y-58470000D01*
X253690000Y-58470000D02*
X255870000Y-58470000D01*
D68*
X255925000Y-88760000D02*
X258465000Y-88760000D01*
X243225000Y-88760000D02*
X245765000Y-88760000D01*
D63*
X262204511Y-89959511D02*
X261005000Y-88760000D01*
D66*
X254950000Y-48064369D02*
X256164369Y-46850000D01*
D63*
X258320000Y-97100000D02*
X262204511Y-93215489D01*
D68*
X245765000Y-88760000D02*
X248305000Y-88760000D01*
X250845000Y-88760000D02*
X253385000Y-88760000D01*
D66*
X254830000Y-56150000D02*
X254830000Y-57430000D01*
D68*
X253385000Y-88760000D02*
X255925000Y-88760000D01*
D66*
X254950000Y-54230000D02*
X255545000Y-54230000D01*
X253320000Y-59960000D02*
X253320000Y-58840000D01*
X254950000Y-51050000D02*
X254950000Y-48064369D01*
D63*
X262204511Y-93215489D02*
X262204511Y-89959511D01*
D66*
X254365000Y-60590000D02*
X253950000Y-60590000D01*
X254950000Y-56030000D02*
X254830000Y-56150000D01*
X255545000Y-54230000D02*
X256050000Y-53725000D01*
X256164369Y-46850000D02*
X259950000Y-46850000D01*
X256050000Y-52150000D02*
X254950000Y-51050000D01*
X253950000Y-60590000D02*
X253320000Y-59960000D01*
D65*
%TO.N,FC_STATUS_BLUE*%
X249300000Y-61365000D02*
X250485000Y-61365000D01*
D61*
X252725000Y-67812500D02*
X252725000Y-66800000D01*
D65*
X250485000Y-61365000D02*
X250500000Y-61350000D01*
D61*
X252725000Y-66800000D02*
X252425000Y-66500000D01*
%TO.N,FC_STATUS_RED*%
X253925000Y-67812500D02*
X253925000Y-68933538D01*
D65*
X247700000Y-61365000D02*
X247700000Y-59350000D01*
D61*
X253925000Y-68933538D02*
X253919729Y-68938809D01*
D65*
X247700000Y-59350000D02*
X247675000Y-59325000D01*
D66*
%TO.N,Net-(D2-Pad1)*%
X249300000Y-62510000D02*
X249300000Y-63740000D01*
%TO.N,Net-(D3-Pad1)*%
X247700000Y-62510000D02*
X247700000Y-63740000D01*
D65*
%TO.N,FC_STATUS_GREEN*%
X246100000Y-61365000D02*
X246100000Y-59275000D01*
D61*
X253125000Y-67812500D02*
X253125000Y-66799503D01*
X253125000Y-66799503D02*
X253424503Y-66500000D01*
%TO.N,FC_BOOTSEL*%
X240650000Y-58000000D02*
X240655000Y-57995000D01*
X240650000Y-55925000D02*
X240650000Y-57990000D01*
X240650000Y-57990000D02*
X240655000Y-57995000D01*
X240650000Y-60075000D02*
X240650000Y-58000000D01*
X241447500Y-83875000D02*
X242450500Y-83875000D01*
X242450500Y-83875000D02*
X242475000Y-83899500D01*
%TO.N,FC_RUN*%
X242825000Y-50012500D02*
X242825000Y-51887500D01*
X255962500Y-69450000D02*
X255430705Y-69450000D01*
X242825000Y-54162500D02*
X242825000Y-51887500D01*
X254919075Y-68938370D02*
X254919075Y-68921123D01*
X255430705Y-69450000D02*
X254919075Y-68938370D01*
D66*
%TO.N,FC_USB_VBUS*%
X261850000Y-59900000D02*
X261875000Y-59925000D01*
D65*
X244975000Y-63275000D02*
X244975000Y-60400000D01*
X244125000Y-64125000D02*
X244975000Y-63275000D01*
X243650000Y-64125000D02*
X244125000Y-64125000D01*
D63*
X242250000Y-71050000D02*
X241210000Y-71050000D01*
D62*
%TO.N,FC_USB_D-*%
X245442500Y-70512500D02*
X246155000Y-69800000D01*
X244025000Y-70512500D02*
X245442500Y-70512500D01*
D61*
%TO.N,FC_USB_D+*%
X244900000Y-70914890D02*
X244900000Y-71324022D01*
X246155000Y-70830000D02*
X246070110Y-70914890D01*
X244636522Y-71587500D02*
X244025000Y-71587500D01*
X246070110Y-70914890D02*
X244900000Y-70914890D01*
X244900000Y-71324022D02*
X244636522Y-71587500D01*
%TO.N,FC_SERVO_1*%
X257486226Y-72650000D02*
X257631540Y-72795314D01*
X255962500Y-72650000D02*
X257486226Y-72650000D01*
X261025000Y-85200000D02*
X261025000Y-86200000D01*
X259425000Y-83600000D02*
X261025000Y-85200000D01*
%TO.N,FC_SERVO_2*%
X255962500Y-73050000D02*
X256859301Y-73050000D01*
X254915481Y-82630481D02*
X258485000Y-86200000D01*
X257299028Y-76031315D02*
X254915481Y-78414862D01*
X256859301Y-73050000D02*
X257299028Y-73489727D01*
X254915481Y-78414862D02*
X254915481Y-82630481D01*
X257299028Y-73489727D02*
X257299028Y-76031315D01*
%TO.N,FC_SERVO_3*%
X256694295Y-73450000D02*
X256899508Y-73655213D01*
X254515961Y-84770961D02*
X255945000Y-86200000D01*
X255962500Y-73450000D02*
X256694295Y-73450000D01*
X256899508Y-75865829D02*
X254515961Y-78249376D01*
X254515961Y-78249376D02*
X254515961Y-84770961D01*
X256899508Y-73655213D02*
X256899508Y-75865829D01*
%TO.N,FC_SERVO_4*%
X256100000Y-73850000D02*
X256499988Y-74249988D01*
X254116441Y-78083890D02*
X254116441Y-82500000D01*
X256499988Y-74249988D02*
X256499988Y-75700343D01*
X256499988Y-75700343D02*
X254116441Y-78083890D01*
X254116441Y-82500000D02*
X253405000Y-83211441D01*
X253405000Y-83211441D02*
X253405000Y-86200000D01*
X255962500Y-73850000D02*
X256100000Y-73850000D01*
%TO.N,FC_SERVO_5*%
X252500000Y-80141941D02*
X253416941Y-79225000D01*
X252500000Y-81350000D02*
X252500000Y-80141941D01*
X250865000Y-86200000D02*
X252500000Y-84565000D01*
X255125000Y-74687500D02*
X255125000Y-74980940D01*
X255125000Y-74980940D02*
X255677574Y-75533514D01*
X252500000Y-84565000D02*
X252500000Y-81350000D01*
%TO.N,FC_SERVO_6*%
X254725000Y-75521235D02*
X255053765Y-75850000D01*
X255053765Y-76581560D02*
X251075000Y-80560325D01*
X251075000Y-83450000D02*
X248325000Y-86200000D01*
X251075000Y-80560325D02*
X251075000Y-83450000D01*
X255053765Y-75850000D02*
X255053765Y-76581560D01*
X254725000Y-74687500D02*
X254725000Y-75521235D01*
%TO.N,FC_QSPI_SS*%
X244975000Y-83200000D02*
X241300000Y-83200000D01*
X246075000Y-82100000D02*
X244975000Y-83200000D01*
X246074520Y-82099520D02*
X246075000Y-82100000D01*
X248715006Y-73850000D02*
X246074520Y-76490486D01*
X246074520Y-76490486D02*
X246074520Y-82099520D01*
X240645000Y-82545000D02*
X240645000Y-81700000D01*
X240645000Y-83482500D02*
X240252500Y-83875000D01*
X249087500Y-73850000D02*
X248715006Y-73850000D01*
X241300000Y-83200000D02*
X240645000Y-82545000D01*
X240645000Y-81700000D02*
X240645000Y-83482500D01*
%TO.N,FC_XOUT*%
X257622500Y-71450000D02*
X258600000Y-70472500D01*
X255962500Y-71450000D02*
X257622500Y-71450000D01*
%TO.N,FC_SWCLK*%
X256725000Y-70250000D02*
X256975000Y-70000000D01*
X256675000Y-70250000D02*
X256700000Y-70250000D01*
X257196738Y-69778262D02*
X257560982Y-69778262D01*
X256700000Y-70250000D02*
X256725000Y-70250000D01*
X256975000Y-70000000D02*
X257196738Y-69778262D01*
X255962500Y-70250000D02*
X256675000Y-70250000D01*
%TO.N,FC_SWD*%
X257565486Y-68784514D02*
X257668069Y-68784514D01*
X257175000Y-69175000D02*
X257565486Y-68784514D01*
X256500000Y-69850000D02*
X257175000Y-69175000D01*
X255962500Y-69850000D02*
X256500000Y-69850000D01*
%TO.N,FC_QSPI_SD3*%
X246625000Y-71850000D02*
X245775000Y-72700000D01*
X249087500Y-71850000D02*
X246625000Y-71850000D01*
X241915000Y-73485000D02*
X241915000Y-74500000D01*
X242700000Y-72700000D02*
X241915000Y-73485000D01*
X245775000Y-72700000D02*
X242700000Y-72700000D01*
%TO.N,FC_QSPI_SCLK*%
X247075000Y-72250000D02*
X246050000Y-73275000D01*
X243875000Y-73275000D02*
X243185000Y-73965000D01*
X249087500Y-72250000D02*
X247075000Y-72250000D01*
X243185000Y-73965000D02*
X243185000Y-74500000D01*
X246050000Y-73275000D02*
X243875000Y-73275000D01*
%TO.N,FC_QSPI_SD0*%
X249087500Y-72650000D02*
X247375000Y-72650000D01*
X244530000Y-74425000D02*
X244455000Y-74500000D01*
X247375000Y-72650000D02*
X245600000Y-74425000D01*
X245600000Y-74425000D02*
X244530000Y-74425000D01*
%TO.N,FC_QSPI_SD2*%
X249087500Y-73050000D02*
X248250000Y-73050000D01*
X248250000Y-73050000D02*
X243185000Y-78115000D01*
X243185000Y-78115000D02*
X243185000Y-81700000D01*
%TO.N,FC_QSPI_SD1*%
X241915000Y-81700000D02*
X241915000Y-82115000D01*
X245675000Y-81915717D02*
X245675000Y-76325000D01*
X241915000Y-82115000D02*
X242600000Y-82800000D01*
X244790717Y-82800000D02*
X245675000Y-81915717D01*
X245675000Y-76325000D02*
X248550000Y-73450000D01*
X248550000Y-73450000D02*
X249087500Y-73450000D01*
X242600000Y-82800000D02*
X244790717Y-82800000D01*
D66*
%TO.N,REG_5VIN*%
X260550000Y-59900000D02*
X260575000Y-59925000D01*
X256975000Y-51775000D02*
X256975000Y-50135000D01*
X256182500Y-48125000D02*
X256182500Y-49342500D01*
X256975000Y-50135000D02*
X256935000Y-50095000D01*
X256182500Y-49342500D02*
X256935000Y-50095000D01*
D61*
%TO.N,FC_RADIO_PPM*%
X252725000Y-74687500D02*
X252725000Y-76340036D01*
X249927100Y-79137936D02*
X249927100Y-79517900D01*
X249927100Y-79517900D02*
X243245000Y-86200000D01*
X252725000Y-76340036D02*
X249927100Y-79137936D01*
%TO.N,FC_UART1_TX*%
X253925000Y-76074500D02*
X253824500Y-76175000D01*
X253925000Y-74687500D02*
X253925000Y-76074500D01*
%TO.N,FC_UART1_RX*%
X254524011Y-76464748D02*
X253861991Y-77126768D01*
X253861991Y-77126768D02*
X253519313Y-77126768D01*
X254325000Y-75686241D02*
X254524011Y-75885252D01*
X254325000Y-74687500D02*
X254325000Y-75686241D01*
X254524011Y-75885252D02*
X254524011Y-76464748D01*
%TO.N,FC_SERVO_7*%
X253125000Y-76505042D02*
X250350000Y-79280042D01*
X253125000Y-74687500D02*
X253125000Y-76505042D01*
X250350000Y-79280042D02*
X250350000Y-81635000D01*
X250350000Y-81635000D02*
X245785000Y-86200000D01*
%TO.N,FC_UART0_TX*%
X256775000Y-68775000D02*
X257014326Y-68535674D01*
X256500000Y-69050000D02*
X256775000Y-68775000D01*
X257014326Y-68535674D02*
X257014326Y-67358427D01*
X255962500Y-69050000D02*
X256500000Y-69050000D01*
%TO.N,FC_UART0_RX*%
X255962500Y-68650000D02*
X255962500Y-67812500D01*
X255962500Y-67812500D02*
X256075000Y-67700000D01*
D69*
%TO.N,Net-(C18-Pad1)*%
X261133750Y-67141250D02*
X261000000Y-67275000D01*
D61*
X258997500Y-69277500D02*
X261000000Y-67275000D01*
X258600000Y-69277500D02*
X258997500Y-69277500D01*
D69*
X261133750Y-65592500D02*
X261133750Y-67141250D01*
D66*
%TO.N,Net-(D4-Pad1)*%
X246100000Y-62510000D02*
X246100000Y-63740000D01*
D61*
%TO.N,/FlightControlComputer/USB+*%
X247930000Y-70250000D02*
X247350000Y-70830000D01*
X249087500Y-70250000D02*
X247930000Y-70250000D01*
%TO.N,/FlightControlComputer/USB-*%
X247400000Y-69850000D02*
X247350000Y-69800000D01*
X249087500Y-69850000D02*
X247400000Y-69850000D01*
%TO.N,/FlightControlComputer/3V_MCU*%
X249925000Y-67812500D02*
X249925000Y-67642500D01*
X249925000Y-71355705D02*
X249925000Y-73585000D01*
D63*
X248832500Y-66550000D02*
X248875000Y-66550000D01*
D61*
X249619295Y-70650000D02*
X250125000Y-70144295D01*
X253525000Y-67812500D02*
X253525000Y-68344279D01*
X253525000Y-68344279D02*
X253019279Y-68850000D01*
D69*
X254000000Y-64320000D02*
X253000000Y-64320000D01*
X258730000Y-64320000D02*
X259000000Y-64050000D01*
D61*
X249925000Y-67812500D02*
X249925000Y-68650000D01*
D63*
X250380000Y-64320000D02*
X251000000Y-64320000D01*
D61*
X249925000Y-67642500D02*
X248832500Y-66550000D01*
X249087500Y-71050000D02*
X249619295Y-71050000D01*
D69*
X257100000Y-64320000D02*
X258730000Y-64320000D01*
D61*
X249087500Y-68650000D02*
X249925000Y-68650000D01*
X249087500Y-69050000D02*
X249925000Y-69050000D01*
X250125000Y-70144295D02*
X250125000Y-68850000D01*
D63*
X249625000Y-65800000D02*
X249905006Y-65800000D01*
D61*
X249087500Y-71050000D02*
X249087500Y-70650000D01*
X249925000Y-68650000D02*
X250125000Y-68850000D01*
X249087500Y-70650000D02*
X249619295Y-70650000D01*
X249925000Y-73675000D02*
X249925000Y-74687500D01*
D69*
X256050000Y-64320000D02*
X255000000Y-64320000D01*
D63*
X250300000Y-64400000D02*
X250380000Y-64320000D01*
D61*
X253175000Y-73675000D02*
X249925000Y-73675000D01*
D63*
X249905006Y-65800000D02*
X250300000Y-65405006D01*
D69*
X255000000Y-64320000D02*
X254000000Y-64320000D01*
X253000000Y-64320000D02*
X252000000Y-64320000D01*
D61*
X255962500Y-71050000D02*
X254900000Y-71050000D01*
X253019279Y-68850000D02*
X250125000Y-68850000D01*
X253525000Y-74687500D02*
X253525000Y-74025000D01*
X249619295Y-71050000D02*
X249925000Y-71355705D01*
X253525000Y-74025000D02*
X253175000Y-73675000D01*
D63*
X250300000Y-65405006D02*
X250300000Y-64400000D01*
D69*
X257100000Y-64320000D02*
X256050000Y-64320000D01*
D61*
X249925000Y-73585000D02*
X249925000Y-73675000D01*
X249925000Y-69050000D02*
X250125000Y-68850000D01*
D63*
X248875000Y-66550000D02*
X249625000Y-65800000D01*
D69*
X252000000Y-64320000D02*
X251000000Y-64320000D01*
D63*
%TO.N,3V3_IO*%
X263430000Y-72460000D02*
X263430000Y-65880000D01*
X240520000Y-91440000D02*
X240520000Y-85030000D01*
D67*
X240645000Y-73362500D02*
X240125000Y-72842500D01*
D63*
X263430000Y-65880000D02*
X261600000Y-64050000D01*
X240520000Y-91440000D02*
X241660000Y-92580000D01*
X258320000Y-94560000D02*
X257040000Y-95840000D01*
X256380000Y-99030000D02*
X249440000Y-99030000D01*
X247220000Y-96810000D02*
X247220000Y-93950000D01*
X249440000Y-99030000D02*
X247220000Y-96810000D01*
D67*
X240645000Y-74500000D02*
X240645000Y-76335000D01*
D63*
X241660000Y-92580000D02*
X245850000Y-92580000D01*
X247220000Y-93950000D02*
X245850000Y-92580000D01*
X257040000Y-98370000D02*
X256380000Y-99030000D01*
X257040000Y-95840000D02*
X257040000Y-98370000D01*
D67*
X240645000Y-76335000D02*
X240520000Y-76460000D01*
X240645000Y-74500000D02*
X240645000Y-73362500D01*
D66*
%TO.N,Net-(D5-Pad1)*%
X256315000Y-59445000D02*
X257290000Y-59445000D01*
X257290000Y-59445000D02*
X257315000Y-59420000D01*
%TO.N,Net-(D6-Pad1)*%
X254365000Y-59445000D02*
X255315000Y-59445000D01*
X255315000Y-59445000D02*
X255340000Y-59420000D01*
%TO.N,/+12v*%
X246625000Y-51575000D02*
X245250000Y-51575000D01*
X247975000Y-46150000D02*
X247990000Y-46150000D01*
X249000000Y-50325000D02*
X247875000Y-50325000D01*
X250440000Y-49925000D02*
X249400000Y-49925000D01*
X249625000Y-42790000D02*
X248705000Y-43710000D01*
X249400000Y-49925000D02*
X249000000Y-50325000D01*
X247990000Y-46150000D02*
X250440000Y-48600000D01*
X249625000Y-41750000D02*
X249625000Y-42790000D01*
X248705000Y-44600000D02*
X248705000Y-43710000D01*
X250440000Y-48600000D02*
X250440000Y-49925000D01*
X245465000Y-53815000D02*
X244900000Y-53250000D01*
X248705000Y-44600000D02*
X248705000Y-45420000D01*
X245250000Y-51575000D02*
X244900000Y-51925000D01*
X247875000Y-50325000D02*
X246625000Y-51575000D01*
X246200000Y-41325000D02*
X249200000Y-41325000D01*
X244900000Y-51925000D02*
X244900000Y-53250000D01*
X249200000Y-41325000D02*
X249625000Y-41750000D01*
X246600000Y-53815000D02*
X245465000Y-53815000D01*
X248705000Y-43710000D02*
X248550000Y-43555000D01*
X248705000Y-45420000D02*
X247975000Y-46150000D01*
X247975000Y-46150000D02*
X246734511Y-46150000D01*
D65*
%TO.N,Net-(C29-Pad2)*%
X246660000Y-44655925D02*
X246660000Y-44600000D01*
X246025000Y-45290925D02*
X246660000Y-44655925D01*
D69*
X245250000Y-43325000D02*
X245600000Y-43325000D01*
D66*
X247745000Y-44600000D02*
X246660000Y-44600000D01*
D69*
X245600000Y-43325000D02*
X246660000Y-44385000D01*
X246660000Y-44385000D02*
X246660000Y-44600000D01*
D65*
X246025000Y-46150000D02*
X246025000Y-45290925D01*
D66*
%TO.N,Net-(C31-Pad1)*%
X252000000Y-55085000D02*
X252895000Y-55085000D01*
X252895000Y-55085000D02*
X253750000Y-54230000D01*
D63*
%TO.N,Net-(C32-Pad1)*%
X246630000Y-52545000D02*
X248100000Y-51075000D01*
X248100000Y-51075000D02*
X250445000Y-51075000D01*
X246600000Y-52545000D02*
X246630000Y-52545000D01*
D66*
%TO.N,Net-(C32-Pad2)*%
X253675000Y-49995000D02*
X252000000Y-51670000D01*
X255675000Y-43800000D02*
X254025000Y-43800000D01*
X251600000Y-46225000D02*
X253675000Y-48300000D01*
X252000000Y-52545000D02*
X252000000Y-51670000D01*
X252000000Y-51670000D02*
X251405000Y-51075000D01*
X254025000Y-43800000D02*
X251600000Y-46225000D01*
X253675000Y-48300000D02*
X253675000Y-49995000D01*
D65*
%TO.N,FB*%
X250890000Y-58010000D02*
X252000000Y-56900000D01*
X250890000Y-58125000D02*
X250890000Y-58010000D01*
X248035000Y-58125000D02*
X248010000Y-58100000D01*
X252000000Y-56900000D02*
X252000000Y-56355000D01*
X250890000Y-58125000D02*
X248035000Y-58125000D01*
D66*
%TO.N,Net-(R10-Pad1)*%
X245395000Y-56355000D02*
X244925000Y-55885000D01*
X246600000Y-56355000D02*
X245395000Y-56355000D01*
D62*
%TO.N,/FCC Peripherals/d-*%
X242164740Y-69482083D02*
X242164740Y-70352240D01*
X243650000Y-64775000D02*
X242820238Y-64775000D01*
X242120000Y-69437343D02*
X242164740Y-69482083D01*
X242120000Y-65475238D02*
X242120000Y-69437343D01*
X242164740Y-70352240D02*
X242325000Y-70512500D01*
X242820238Y-64775000D02*
X242120000Y-65475238D01*
%TO.N,/FCC Peripherals/d+*%
X242743362Y-65425000D02*
X242574181Y-65594181D01*
X242325000Y-71587500D02*
X242792262Y-71587500D01*
X243650000Y-65425000D02*
X242743362Y-65425000D01*
X242574181Y-69488248D02*
X242570000Y-69492429D01*
X242574181Y-65594181D02*
X242574181Y-69488248D01*
X242877381Y-71502381D02*
X242877381Y-70022619D01*
X242877381Y-70022619D02*
X242754762Y-69900000D01*
X242570000Y-69492429D02*
X242570000Y-69900000D01*
X242754762Y-69900000D02*
X242570000Y-69900000D01*
X242792262Y-71587500D02*
X242877381Y-71502381D01*
%TD*%
%TA.AperFunction,Conductor*%
%TO.N,/+12v*%
G36*
X247176828Y-51145002D02*
G01*
X247223321Y-51198658D01*
X247233425Y-51268932D01*
X247203931Y-51333512D01*
X247197802Y-51340095D01*
X246630302Y-51907595D01*
X246567990Y-51941621D01*
X246541207Y-51944500D01*
X245780354Y-51944500D01*
X245776650Y-51944941D01*
X245776647Y-51944941D01*
X245769254Y-51945821D01*
X245754154Y-51947618D01*
X245745514Y-51951456D01*
X245745513Y-51951456D01*
X245675499Y-51982555D01*
X245651847Y-51993061D01*
X245572759Y-52072287D01*
X245527494Y-52174673D01*
X245524500Y-52200354D01*
X245524500Y-52889646D01*
X245527618Y-52915846D01*
X245573061Y-53018153D01*
X245652287Y-53097241D01*
X245662924Y-53101944D01*
X245662926Y-53101945D01*
X245722462Y-53128265D01*
X245754673Y-53142506D01*
X245780354Y-53145500D01*
X247398500Y-53145500D01*
X247466621Y-53165502D01*
X247513114Y-53219158D01*
X247524500Y-53271500D01*
X247524500Y-54320146D01*
X247504498Y-54388267D01*
X247450842Y-54434760D01*
X247396579Y-54446131D01*
X246102973Y-54426381D01*
X245458247Y-54416538D01*
X245385311Y-54391904D01*
X245323663Y-54346370D01*
X245323662Y-54346369D01*
X245316085Y-54340773D01*
X245237341Y-54313120D01*
X245199774Y-54299927D01*
X245199772Y-54299926D01*
X245192526Y-54297382D01*
X245184881Y-54296659D01*
X245177378Y-54295013D01*
X245177779Y-54293184D01*
X245121046Y-54270532D01*
X245109747Y-54260512D01*
X244957108Y-54107873D01*
X244928337Y-54063316D01*
X244878029Y-53930180D01*
X244875345Y-53923077D01*
X244779312Y-53783349D01*
X244747509Y-53755013D01*
X244658392Y-53675612D01*
X244658388Y-53675610D01*
X244652721Y-53670560D01*
X244502881Y-53591224D01*
X244495518Y-53589374D01*
X244495514Y-53589373D01*
X244475483Y-53584341D01*
X244414288Y-53548345D01*
X244382269Y-53484979D01*
X244380776Y-53474370D01*
X244375595Y-53421253D01*
X244375000Y-53409021D01*
X244375000Y-52131187D01*
X244375607Y-52118837D01*
X244392581Y-51946501D01*
X244392999Y-51942260D01*
X244397815Y-51918043D01*
X244447518Y-51754190D01*
X244456971Y-51731371D01*
X244537681Y-51580372D01*
X244551399Y-51559842D01*
X244660026Y-51427479D01*
X244677479Y-51410026D01*
X244809842Y-51301399D01*
X244830369Y-51287683D01*
X244981371Y-51206971D01*
X245004191Y-51197518D01*
X245168043Y-51147815D01*
X245192260Y-51142999D01*
X245368837Y-51125607D01*
X245381187Y-51125000D01*
X247108707Y-51125000D01*
X247176828Y-51145002D01*
G37*
%TD.AperFunction*%
%TA.AperFunction,Conductor*%
G36*
X250507549Y-39266522D02*
G01*
X250561350Y-39312847D01*
X250581564Y-39380905D01*
X250561775Y-39449087D01*
X250538394Y-39476247D01*
X250450604Y-39552831D01*
X250353113Y-39691547D01*
X250291524Y-39849513D01*
X250269394Y-40017611D01*
X250287999Y-40186135D01*
X250322205Y-40279607D01*
X250326832Y-40350450D01*
X250292422Y-40412550D01*
X250283024Y-40420317D01*
X250276847Y-40423061D01*
X250197759Y-40502287D01*
X250193056Y-40512924D01*
X250193055Y-40512926D01*
X250166735Y-40572462D01*
X250152494Y-40604673D01*
X250149500Y-40630354D01*
X250149500Y-43219646D01*
X250152618Y-43245846D01*
X250198061Y-43348153D01*
X250277287Y-43427241D01*
X250287924Y-43431944D01*
X250287926Y-43431945D01*
X250347462Y-43458265D01*
X250379673Y-43472506D01*
X250405354Y-43475500D01*
X250924065Y-43475500D01*
X250992186Y-43495502D01*
X251038679Y-43549158D01*
X251050061Y-43602537D01*
X251047073Y-43965211D01*
X251042260Y-44549538D01*
X251021697Y-44617492D01*
X250967660Y-44663541D01*
X250916264Y-44674500D01*
X250405354Y-44674500D01*
X250401650Y-44674941D01*
X250401647Y-44674941D01*
X250394254Y-44675821D01*
X250379154Y-44677618D01*
X250276847Y-44723061D01*
X250197759Y-44802287D01*
X250193056Y-44812924D01*
X250193055Y-44812926D01*
X250187458Y-44825586D01*
X250152494Y-44904673D01*
X250149500Y-44930354D01*
X250149500Y-47519646D01*
X250152618Y-47545846D01*
X250198061Y-47648153D01*
X250277287Y-47727241D01*
X250287924Y-47731944D01*
X250287926Y-47731945D01*
X250347462Y-47758265D01*
X250379673Y-47772506D01*
X250405354Y-47775500D01*
X250888645Y-47775500D01*
X250956766Y-47795502D01*
X251003259Y-47849158D01*
X251014641Y-47902539D01*
X251013824Y-48001626D01*
X250993261Y-48069579D01*
X250962690Y-48101935D01*
X250945001Y-48115001D01*
X250866304Y-48221548D01*
X250863183Y-48230435D01*
X250863182Y-48230437D01*
X250856194Y-48250336D01*
X250822415Y-48346526D01*
X250819500Y-48377362D01*
X250819500Y-48822638D01*
X250822415Y-48853474D01*
X250824960Y-48860721D01*
X250833502Y-48885044D01*
X250866304Y-48978452D01*
X250945001Y-49084999D01*
X250952576Y-49090594D01*
X250952579Y-49090597D01*
X250952869Y-49090811D01*
X250953107Y-49091125D01*
X250959238Y-49097256D01*
X250958397Y-49098097D01*
X250995782Y-49147370D01*
X251004009Y-49193202D01*
X251002843Y-49334735D01*
X250982280Y-49402689D01*
X250958914Y-49427422D01*
X250959237Y-49427745D01*
X250952576Y-49434406D01*
X250945001Y-49440001D01*
X250866304Y-49546548D01*
X250863183Y-49555435D01*
X250863182Y-49555437D01*
X250843869Y-49610433D01*
X250822415Y-49671526D01*
X250819500Y-49702362D01*
X250819500Y-50147638D01*
X250822415Y-50178474D01*
X250866304Y-50303452D01*
X250869811Y-50308200D01*
X250883638Y-50375941D01*
X250857976Y-50442137D01*
X250800599Y-50483951D01*
X250729724Y-50488107D01*
X250716337Y-50484223D01*
X250675721Y-50469960D01*
X250668474Y-50467415D01*
X250660828Y-50466692D01*
X250660827Y-50466692D01*
X250655597Y-50466198D01*
X250637638Y-50464500D01*
X250252362Y-50464500D01*
X250234403Y-50466198D01*
X250229173Y-50466692D01*
X250229172Y-50466692D01*
X250221526Y-50467415D01*
X250214279Y-50469960D01*
X250105437Y-50508182D01*
X250105435Y-50508183D01*
X250096548Y-50511304D01*
X249990001Y-50590001D01*
X249989995Y-50589993D01*
X249932075Y-50621621D01*
X249905292Y-50624500D01*
X248757028Y-50624500D01*
X248688907Y-50604498D01*
X248642414Y-50550842D01*
X248639430Y-50533072D01*
X248625164Y-49734193D01*
X248625156Y-49733666D01*
X248625048Y-49725565D01*
X248625038Y-49724457D01*
X248625001Y-49716302D01*
X248625000Y-49715730D01*
X248625000Y-46600000D01*
X247618247Y-46606802D01*
X247618243Y-46606802D01*
X247607494Y-46606875D01*
X246662351Y-46613260D01*
X246594097Y-46593719D01*
X246547243Y-46540378D01*
X246535500Y-46487263D01*
X246535500Y-45755354D01*
X246532382Y-45729154D01*
X246529612Y-45722918D01*
X246525500Y-45692437D01*
X246525500Y-45550429D01*
X246545502Y-45482308D01*
X246562405Y-45461334D01*
X246766749Y-45256990D01*
X246829061Y-45222964D01*
X246847048Y-45220601D01*
X246847038Y-45220500D01*
X246849800Y-45220239D01*
X246849802Y-45220239D01*
X246854944Y-45219753D01*
X246869882Y-45218341D01*
X246869885Y-45218340D01*
X246877526Y-45217618D01*
X246884766Y-45215076D01*
X246884773Y-45215074D01*
X246906006Y-45207617D01*
X246947754Y-45200500D01*
X247479927Y-45200500D01*
X247506932Y-45203428D01*
X247514281Y-45205041D01*
X247521526Y-45207585D01*
X247529167Y-45208307D01*
X247529170Y-45208308D01*
X247540371Y-45209366D01*
X247552362Y-45210500D01*
X247937638Y-45210500D01*
X247955597Y-45208802D01*
X247960827Y-45208308D01*
X247960828Y-45208308D01*
X247968474Y-45207585D01*
X248032662Y-45185044D01*
X248084563Y-45166818D01*
X248084565Y-45166817D01*
X248093452Y-45163696D01*
X248199999Y-45084999D01*
X248278696Y-44978452D01*
X248294301Y-44934017D01*
X248320040Y-44860721D01*
X248322585Y-44853474D01*
X248325500Y-44822638D01*
X248325500Y-44786144D01*
X248329053Y-44759154D01*
X248330044Y-44756762D01*
X248350682Y-44600000D01*
X248330044Y-44443238D01*
X248329053Y-44440846D01*
X248325500Y-44413856D01*
X248325500Y-44377362D01*
X248322585Y-44346526D01*
X248278696Y-44221548D01*
X248199999Y-44115001D01*
X248093452Y-44036304D01*
X248084565Y-44033183D01*
X248084563Y-44033182D01*
X247975721Y-43994960D01*
X247968474Y-43992415D01*
X247960163Y-43991629D01*
X247959124Y-43991531D01*
X247957942Y-43991059D01*
X247953329Y-43990047D01*
X247953496Y-43989285D01*
X247893187Y-43965211D01*
X247851946Y-43907420D01*
X247849843Y-43845600D01*
X247847506Y-43845327D01*
X247850500Y-43819646D01*
X247850500Y-43325334D01*
X247870502Y-43257213D01*
X247924158Y-43210720D01*
X247978554Y-43202563D01*
X247978554Y-43199604D01*
X247986812Y-43199604D01*
X247995000Y-43200682D01*
X248003188Y-43199604D01*
X248026173Y-43196578D01*
X248042619Y-43195500D01*
X248589361Y-43195500D01*
X248598340Y-43194318D01*
X248698574Y-43181122D01*
X248706762Y-43180044D01*
X248709154Y-43179053D01*
X248736144Y-43175500D01*
X248772638Y-43175500D01*
X248790597Y-43173802D01*
X248795827Y-43173308D01*
X248795828Y-43173308D01*
X248803474Y-43172585D01*
X248821008Y-43166428D01*
X248919563Y-43131818D01*
X248919565Y-43131817D01*
X248928452Y-43128696D01*
X249034999Y-43049999D01*
X249113696Y-42943452D01*
X249157585Y-42818474D01*
X249160500Y-42787638D01*
X249160500Y-42402362D01*
X249157585Y-42371526D01*
X249113696Y-42246548D01*
X249034999Y-42140001D01*
X248928452Y-42061304D01*
X248919565Y-42058183D01*
X248919563Y-42058182D01*
X248810721Y-42019960D01*
X248803474Y-42017415D01*
X248795828Y-42016692D01*
X248795827Y-42016692D01*
X248790597Y-42016198D01*
X248772638Y-42014500D01*
X248736144Y-42014500D01*
X248709154Y-42010947D01*
X248706762Y-42009956D01*
X248589361Y-41994500D01*
X248373864Y-41994500D01*
X248305743Y-41974498D01*
X248259250Y-41920842D01*
X248256002Y-41913049D01*
X248250345Y-41898077D01*
X248241584Y-41885330D01*
X248158614Y-41764608D01*
X248158613Y-41764607D01*
X248154312Y-41758349D01*
X248142514Y-41747837D01*
X248033392Y-41650612D01*
X248033388Y-41650610D01*
X248027721Y-41645560D01*
X247877881Y-41566224D01*
X247713441Y-41524919D01*
X247705843Y-41524879D01*
X247705841Y-41524879D01*
X247628668Y-41524475D01*
X247543895Y-41524031D01*
X247536508Y-41525805D01*
X247536504Y-41525805D01*
X247393162Y-41560220D01*
X247379032Y-41563612D01*
X247372288Y-41567093D01*
X247372285Y-41567094D01*
X247235117Y-41637892D01*
X247228369Y-41641375D01*
X247100604Y-41752831D01*
X247003113Y-41891547D01*
X246941524Y-42049513D01*
X246940532Y-42057046D01*
X246940532Y-42057047D01*
X246939235Y-42066903D01*
X246919394Y-42217611D01*
X246937999Y-42386135D01*
X246943482Y-42401119D01*
X246944976Y-42405201D01*
X246949601Y-42476047D01*
X246915190Y-42538147D01*
X246852667Y-42571784D01*
X246826649Y-42574500D01*
X246705354Y-42574500D01*
X246701650Y-42574941D01*
X246701647Y-42574941D01*
X246694254Y-42575821D01*
X246679154Y-42577618D01*
X246576847Y-42623061D01*
X246497759Y-42702287D01*
X246452494Y-42804673D01*
X246449500Y-42830354D01*
X246449500Y-43127141D01*
X246429498Y-43195262D01*
X246375842Y-43241755D01*
X246305568Y-43251859D01*
X246240988Y-43222365D01*
X246234405Y-43216236D01*
X245987405Y-42969236D01*
X245953379Y-42906924D01*
X245950500Y-42880141D01*
X245950500Y-42830354D01*
X245947382Y-42804154D01*
X245941356Y-42790586D01*
X245906663Y-42712482D01*
X245901939Y-42701847D01*
X245822713Y-42622759D01*
X245812076Y-42618056D01*
X245812074Y-42618055D01*
X245752538Y-42591735D01*
X245720327Y-42577494D01*
X245694646Y-42574500D01*
X244805354Y-42574500D01*
X244801650Y-42574941D01*
X244801647Y-42574941D01*
X244794254Y-42575821D01*
X244779154Y-42577618D01*
X244676847Y-42623061D01*
X244645538Y-42654425D01*
X244583255Y-42688505D01*
X244512435Y-42683502D01*
X244455562Y-42641005D01*
X244430693Y-42574507D01*
X244430397Y-42562545D01*
X244452346Y-41596793D01*
X244453224Y-41584532D01*
X244460208Y-41526770D01*
X244474400Y-41409394D01*
X244479709Y-41385419D01*
X244532533Y-41223602D01*
X244542388Y-41201119D01*
X244625604Y-41052606D01*
X244639629Y-41032468D01*
X244750070Y-40902919D01*
X244767735Y-40885882D01*
X244901207Y-40780216D01*
X244921849Y-40766926D01*
X244997560Y-40728043D01*
X245073275Y-40689159D01*
X245096096Y-40680127D01*
X245259736Y-40633206D01*
X245283886Y-40628772D01*
X245459668Y-40613967D01*
X245471953Y-40613534D01*
X247360706Y-40639173D01*
X249287566Y-40665329D01*
X250000000Y-40675000D01*
X250000000Y-39801272D01*
X250001056Y-39784996D01*
X250016303Y-39667949D01*
X250024641Y-39636485D01*
X250066245Y-39534866D01*
X250082366Y-39506588D01*
X250148610Y-39419023D01*
X250171438Y-39395817D01*
X250172884Y-39394686D01*
X250257906Y-39328143D01*
X250285916Y-39311561D01*
X250309003Y-39301663D01*
X250386834Y-39268296D01*
X250418157Y-39259442D01*
X250427465Y-39258074D01*
X250437244Y-39256637D01*
X250507549Y-39266522D01*
G37*
%TD.AperFunction*%
%TD*%
M02*
