%TF.GenerationSoftware,KiCad,Pcbnew,(6.0.0-0)*%
%TF.CreationDate,2022-10-07T18:10:28-04:00*%
%TF.ProjectId,hermes_v1,6865726d-6573-45f7-9631-2e6b69636164,rev?*%
%TF.SameCoordinates,Original*%
%TF.FileFunction,Legend,Top*%
%TF.FilePolarity,Positive*%
%FSLAX46Y46*%
G04 Gerber Fmt 4.6, Leading zero omitted, Abs format (unit mm)*
G04 Created by KiCad (PCBNEW (6.0.0-0)) date 2022-10-07 18:10:28*
%MOMM*%
%LPD*%
G01*
G04 APERTURE LIST*
%ADD10C,0.120000*%
%ADD11C,0.100000*%
%ADD12C,0.150000*%
%ADD13C,0.125000*%
G04 APERTURE END LIST*
D10*
X244475000Y-83350000D02*
X244475000Y-92625000D01*
D11*
X251250000Y-78004658D02*
X251800000Y-78304658D01*
X251800000Y-78304658D02*
X252350000Y-78004658D01*
X252350000Y-78004658D02*
X251800000Y-79254658D01*
X251800000Y-79254658D02*
X251250000Y-78004658D01*
G36*
X251800000Y-79254658D02*
G01*
X251250000Y-78004658D01*
X251800000Y-78304658D01*
X252350000Y-78004658D01*
X251800000Y-79254658D01*
G37*
X251800000Y-79254658D02*
X251250000Y-78004658D01*
X251800000Y-78304658D01*
X252350000Y-78004658D01*
X251800000Y-79254658D01*
D12*
X240046428Y-45130952D02*
X240046428Y-44369047D01*
X248369047Y-39771428D02*
X249130952Y-39771428D01*
X252269047Y-39746428D02*
X253030952Y-39746428D01*
X252650000Y-40127380D02*
X252650000Y-39365476D01*
X256069047Y-39746428D02*
X256830952Y-39746428D01*
X256450000Y-40127380D02*
X256450000Y-39365476D01*
X260019047Y-39696428D02*
X260780952Y-39696428D01*
X240046428Y-46130952D02*
X240046428Y-45369047D01*
X240427380Y-45750000D02*
X239665476Y-45750000D01*
%TO.C,U1*%
X258070208Y-80649554D02*
X258879732Y-80649554D01*
X258974970Y-80601935D01*
X259022589Y-80554316D01*
X259070208Y-80459078D01*
X259070208Y-80268602D01*
X259022589Y-80173364D01*
X258974970Y-80125745D01*
X258879732Y-80078126D01*
X258070208Y-80078126D01*
X259070208Y-79078126D02*
X259070208Y-79649554D01*
X259070208Y-79363840D02*
X258070208Y-79363840D01*
X258213066Y-79459078D01*
X258308304Y-79554316D01*
X258355923Y-79649554D01*
D13*
%TO.C,C2*%
X261828571Y-80553333D02*
X261852380Y-80577142D01*
X261876190Y-80648571D01*
X261876190Y-80696190D01*
X261852380Y-80767619D01*
X261804761Y-80815238D01*
X261757142Y-80839047D01*
X261661904Y-80862857D01*
X261590476Y-80862857D01*
X261495238Y-80839047D01*
X261447619Y-80815238D01*
X261400000Y-80767619D01*
X261376190Y-80696190D01*
X261376190Y-80648571D01*
X261400000Y-80577142D01*
X261423809Y-80553333D01*
X261423809Y-80362857D02*
X261400000Y-80339047D01*
X261376190Y-80291428D01*
X261376190Y-80172380D01*
X261400000Y-80124761D01*
X261423809Y-80100952D01*
X261471428Y-80077142D01*
X261519047Y-80077142D01*
X261590476Y-80100952D01*
X261876190Y-80386666D01*
X261876190Y-80077142D01*
%TO.C,C1*%
X256358571Y-82813333D02*
X256382380Y-82837142D01*
X256406190Y-82908571D01*
X256406190Y-82956190D01*
X256382380Y-83027619D01*
X256334761Y-83075238D01*
X256287142Y-83099047D01*
X256191904Y-83122857D01*
X256120476Y-83122857D01*
X256025238Y-83099047D01*
X255977619Y-83075238D01*
X255930000Y-83027619D01*
X255906190Y-82956190D01*
X255906190Y-82908571D01*
X255930000Y-82837142D01*
X255953809Y-82813333D01*
X256406190Y-82337142D02*
X256406190Y-82622857D01*
X256406190Y-82480000D02*
X255906190Y-82480000D01*
X255977619Y-82527619D01*
X256025238Y-82575238D01*
X256049047Y-82622857D01*
%TO.C,C6*%
X245259166Y-67953571D02*
X245235357Y-67977380D01*
X245163928Y-68001190D01*
X245116309Y-68001190D01*
X245044880Y-67977380D01*
X244997261Y-67929761D01*
X244973452Y-67882142D01*
X244949642Y-67786904D01*
X244949642Y-67715476D01*
X244973452Y-67620238D01*
X244997261Y-67572619D01*
X245044880Y-67525000D01*
X245116309Y-67501190D01*
X245163928Y-67501190D01*
X245235357Y-67525000D01*
X245259166Y-67548809D01*
X245687738Y-67501190D02*
X245592500Y-67501190D01*
X245544880Y-67525000D01*
X245521071Y-67548809D01*
X245473452Y-67620238D01*
X245449642Y-67715476D01*
X245449642Y-67905952D01*
X245473452Y-67953571D01*
X245497261Y-67977380D01*
X245544880Y-68001190D01*
X245640119Y-68001190D01*
X245687738Y-67977380D01*
X245711547Y-67953571D01*
X245735357Y-67905952D01*
X245735357Y-67786904D01*
X245711547Y-67739285D01*
X245687738Y-67715476D01*
X245640119Y-67691666D01*
X245544880Y-67691666D01*
X245497261Y-67715476D01*
X245473452Y-67739285D01*
X245449642Y-67786904D01*
%TO.C,C8*%
X245259166Y-67003571D02*
X245235357Y-67027380D01*
X245163928Y-67051190D01*
X245116309Y-67051190D01*
X245044880Y-67027380D01*
X244997261Y-66979761D01*
X244973452Y-66932142D01*
X244949642Y-66836904D01*
X244949642Y-66765476D01*
X244973452Y-66670238D01*
X244997261Y-66622619D01*
X245044880Y-66575000D01*
X245116309Y-66551190D01*
X245163928Y-66551190D01*
X245235357Y-66575000D01*
X245259166Y-66598809D01*
X245544880Y-66765476D02*
X245497261Y-66741666D01*
X245473452Y-66717857D01*
X245449642Y-66670238D01*
X245449642Y-66646428D01*
X245473452Y-66598809D01*
X245497261Y-66575000D01*
X245544880Y-66551190D01*
X245640119Y-66551190D01*
X245687738Y-66575000D01*
X245711547Y-66598809D01*
X245735357Y-66646428D01*
X245735357Y-66670238D01*
X245711547Y-66717857D01*
X245687738Y-66741666D01*
X245640119Y-66765476D01*
X245544880Y-66765476D01*
X245497261Y-66789285D01*
X245473452Y-66813095D01*
X245449642Y-66860714D01*
X245449642Y-66955952D01*
X245473452Y-67003571D01*
X245497261Y-67027380D01*
X245544880Y-67051190D01*
X245640119Y-67051190D01*
X245687738Y-67027380D01*
X245711547Y-67003571D01*
X245735357Y-66955952D01*
X245735357Y-66860714D01*
X245711547Y-66813095D01*
X245687738Y-66789285D01*
X245640119Y-66765476D01*
%TO.C,C11*%
X256278571Y-63258928D02*
X256302380Y-63282738D01*
X256326190Y-63354166D01*
X256326190Y-63401785D01*
X256302380Y-63473214D01*
X256254761Y-63520833D01*
X256207142Y-63544642D01*
X256111904Y-63568452D01*
X256040476Y-63568452D01*
X255945238Y-63544642D01*
X255897619Y-63520833D01*
X255850000Y-63473214D01*
X255826190Y-63401785D01*
X255826190Y-63354166D01*
X255850000Y-63282738D01*
X255873809Y-63258928D01*
X256326190Y-62782738D02*
X256326190Y-63068452D01*
X256326190Y-62925595D02*
X255826190Y-62925595D01*
X255897619Y-62973214D01*
X255945238Y-63020833D01*
X255969047Y-63068452D01*
X256326190Y-62306547D02*
X256326190Y-62592261D01*
X256326190Y-62449404D02*
X255826190Y-62449404D01*
X255897619Y-62497023D01*
X255945238Y-62544642D01*
X255969047Y-62592261D01*
%TO.C,C12*%
X255178571Y-63258928D02*
X255202380Y-63282738D01*
X255226190Y-63354166D01*
X255226190Y-63401785D01*
X255202380Y-63473214D01*
X255154761Y-63520833D01*
X255107142Y-63544642D01*
X255011904Y-63568452D01*
X254940476Y-63568452D01*
X254845238Y-63544642D01*
X254797619Y-63520833D01*
X254750000Y-63473214D01*
X254726190Y-63401785D01*
X254726190Y-63354166D01*
X254750000Y-63282738D01*
X254773809Y-63258928D01*
X255226190Y-62782738D02*
X255226190Y-63068452D01*
X255226190Y-62925595D02*
X254726190Y-62925595D01*
X254797619Y-62973214D01*
X254845238Y-63020833D01*
X254869047Y-63068452D01*
X254773809Y-62592261D02*
X254750000Y-62568452D01*
X254726190Y-62520833D01*
X254726190Y-62401785D01*
X254750000Y-62354166D01*
X254773809Y-62330357D01*
X254821428Y-62306547D01*
X254869047Y-62306547D01*
X254940476Y-62330357D01*
X255226190Y-62616071D01*
X255226190Y-62306547D01*
%TO.C,C13*%
X254178571Y-63258928D02*
X254202380Y-63282738D01*
X254226190Y-63354166D01*
X254226190Y-63401785D01*
X254202380Y-63473214D01*
X254154761Y-63520833D01*
X254107142Y-63544642D01*
X254011904Y-63568452D01*
X253940476Y-63568452D01*
X253845238Y-63544642D01*
X253797619Y-63520833D01*
X253750000Y-63473214D01*
X253726190Y-63401785D01*
X253726190Y-63354166D01*
X253750000Y-63282738D01*
X253773809Y-63258928D01*
X254226190Y-62782738D02*
X254226190Y-63068452D01*
X254226190Y-62925595D02*
X253726190Y-62925595D01*
X253797619Y-62973214D01*
X253845238Y-63020833D01*
X253869047Y-63068452D01*
X253726190Y-62616071D02*
X253726190Y-62306547D01*
X253916666Y-62473214D01*
X253916666Y-62401785D01*
X253940476Y-62354166D01*
X253964285Y-62330357D01*
X254011904Y-62306547D01*
X254130952Y-62306547D01*
X254178571Y-62330357D01*
X254202380Y-62354166D01*
X254226190Y-62401785D01*
X254226190Y-62544642D01*
X254202380Y-62592261D01*
X254178571Y-62616071D01*
%TO.C,C14*%
X253178571Y-63308928D02*
X253202380Y-63332738D01*
X253226190Y-63404166D01*
X253226190Y-63451785D01*
X253202380Y-63523214D01*
X253154761Y-63570833D01*
X253107142Y-63594642D01*
X253011904Y-63618452D01*
X252940476Y-63618452D01*
X252845238Y-63594642D01*
X252797619Y-63570833D01*
X252750000Y-63523214D01*
X252726190Y-63451785D01*
X252726190Y-63404166D01*
X252750000Y-63332738D01*
X252773809Y-63308928D01*
X253226190Y-62832738D02*
X253226190Y-63118452D01*
X253226190Y-62975595D02*
X252726190Y-62975595D01*
X252797619Y-63023214D01*
X252845238Y-63070833D01*
X252869047Y-63118452D01*
X252892857Y-62404166D02*
X253226190Y-62404166D01*
X252702380Y-62523214D02*
X253059523Y-62642261D01*
X253059523Y-62332738D01*
%TO.C,C15*%
X252178571Y-63258928D02*
X252202380Y-63282738D01*
X252226190Y-63354166D01*
X252226190Y-63401785D01*
X252202380Y-63473214D01*
X252154761Y-63520833D01*
X252107142Y-63544642D01*
X252011904Y-63568452D01*
X251940476Y-63568452D01*
X251845238Y-63544642D01*
X251797619Y-63520833D01*
X251750000Y-63473214D01*
X251726190Y-63401785D01*
X251726190Y-63354166D01*
X251750000Y-63282738D01*
X251773809Y-63258928D01*
X252226190Y-62782738D02*
X252226190Y-63068452D01*
X252226190Y-62925595D02*
X251726190Y-62925595D01*
X251797619Y-62973214D01*
X251845238Y-63020833D01*
X251869047Y-63068452D01*
X251726190Y-62330357D02*
X251726190Y-62568452D01*
X251964285Y-62592261D01*
X251940476Y-62568452D01*
X251916666Y-62520833D01*
X251916666Y-62401785D01*
X251940476Y-62354166D01*
X251964285Y-62330357D01*
X252011904Y-62306547D01*
X252130952Y-62306547D01*
X252178571Y-62330357D01*
X252202380Y-62354166D01*
X252226190Y-62401785D01*
X252226190Y-62520833D01*
X252202380Y-62568452D01*
X252178571Y-62592261D01*
%TO.C,C16*%
X251178571Y-63258928D02*
X251202380Y-63282738D01*
X251226190Y-63354166D01*
X251226190Y-63401785D01*
X251202380Y-63473214D01*
X251154761Y-63520833D01*
X251107142Y-63544642D01*
X251011904Y-63568452D01*
X250940476Y-63568452D01*
X250845238Y-63544642D01*
X250797619Y-63520833D01*
X250750000Y-63473214D01*
X250726190Y-63401785D01*
X250726190Y-63354166D01*
X250750000Y-63282738D01*
X250773809Y-63258928D01*
X251226190Y-62782738D02*
X251226190Y-63068452D01*
X251226190Y-62925595D02*
X250726190Y-62925595D01*
X250797619Y-62973214D01*
X250845238Y-63020833D01*
X250869047Y-63068452D01*
X250726190Y-62354166D02*
X250726190Y-62449404D01*
X250750000Y-62497023D01*
X250773809Y-62520833D01*
X250845238Y-62568452D01*
X250940476Y-62592261D01*
X251130952Y-62592261D01*
X251178571Y-62568452D01*
X251202380Y-62544642D01*
X251226190Y-62497023D01*
X251226190Y-62401785D01*
X251202380Y-62354166D01*
X251178571Y-62330357D01*
X251130952Y-62306547D01*
X251011904Y-62306547D01*
X250964285Y-62330357D01*
X250940476Y-62354166D01*
X250916666Y-62401785D01*
X250916666Y-62497023D01*
X250940476Y-62544642D01*
X250964285Y-62568452D01*
X251011904Y-62592261D01*
%TO.C,C17*%
X262019821Y-72778571D02*
X261996011Y-72802380D01*
X261924583Y-72826190D01*
X261876964Y-72826190D01*
X261805535Y-72802380D01*
X261757916Y-72754761D01*
X261734107Y-72707142D01*
X261710297Y-72611904D01*
X261710297Y-72540476D01*
X261734107Y-72445238D01*
X261757916Y-72397619D01*
X261805535Y-72350000D01*
X261876964Y-72326190D01*
X261924583Y-72326190D01*
X261996011Y-72350000D01*
X262019821Y-72373809D01*
X262496011Y-72826190D02*
X262210297Y-72826190D01*
X262353154Y-72826190D02*
X262353154Y-72326190D01*
X262305535Y-72397619D01*
X262257916Y-72445238D01*
X262210297Y-72469047D01*
X262662678Y-72326190D02*
X262996011Y-72326190D01*
X262781726Y-72826190D01*
%TO.C,C18*%
X262053571Y-65778571D02*
X262029761Y-65802380D01*
X261958333Y-65826190D01*
X261910714Y-65826190D01*
X261839285Y-65802380D01*
X261791666Y-65754761D01*
X261767857Y-65707142D01*
X261744047Y-65611904D01*
X261744047Y-65540476D01*
X261767857Y-65445238D01*
X261791666Y-65397619D01*
X261839285Y-65350000D01*
X261910714Y-65326190D01*
X261958333Y-65326190D01*
X262029761Y-65350000D01*
X262053571Y-65373809D01*
X262529761Y-65826190D02*
X262244047Y-65826190D01*
X262386904Y-65826190D02*
X262386904Y-65326190D01*
X262339285Y-65397619D01*
X262291666Y-65445238D01*
X262244047Y-65469047D01*
X262815476Y-65540476D02*
X262767857Y-65516666D01*
X262744047Y-65492857D01*
X262720238Y-65445238D01*
X262720238Y-65421428D01*
X262744047Y-65373809D01*
X262767857Y-65350000D01*
X262815476Y-65326190D01*
X262910714Y-65326190D01*
X262958333Y-65350000D01*
X262982142Y-65373809D01*
X263005952Y-65421428D01*
X263005952Y-65445238D01*
X262982142Y-65492857D01*
X262958333Y-65516666D01*
X262910714Y-65540476D01*
X262815476Y-65540476D01*
X262767857Y-65564285D01*
X262744047Y-65588095D01*
X262720238Y-65635714D01*
X262720238Y-65730952D01*
X262744047Y-65778571D01*
X262767857Y-65802380D01*
X262815476Y-65826190D01*
X262910714Y-65826190D01*
X262958333Y-65802380D01*
X262982142Y-65778571D01*
X263005952Y-65730952D01*
X263005952Y-65635714D01*
X262982142Y-65588095D01*
X262958333Y-65564285D01*
X262910714Y-65540476D01*
%TO.C,C19*%
X239953571Y-71003571D02*
X239929761Y-71027380D01*
X239858333Y-71051190D01*
X239810714Y-71051190D01*
X239739285Y-71027380D01*
X239691666Y-70979761D01*
X239667857Y-70932142D01*
X239644047Y-70836904D01*
X239644047Y-70765476D01*
X239667857Y-70670238D01*
X239691666Y-70622619D01*
X239739285Y-70575000D01*
X239810714Y-70551190D01*
X239858333Y-70551190D01*
X239929761Y-70575000D01*
X239953571Y-70598809D01*
X240429761Y-71051190D02*
X240144047Y-71051190D01*
X240286904Y-71051190D02*
X240286904Y-70551190D01*
X240239285Y-70622619D01*
X240191666Y-70670238D01*
X240144047Y-70694047D01*
X240667857Y-71051190D02*
X240763095Y-71051190D01*
X240810714Y-71027380D01*
X240834523Y-71003571D01*
X240882142Y-70932142D01*
X240905952Y-70836904D01*
X240905952Y-70646428D01*
X240882142Y-70598809D01*
X240858333Y-70575000D01*
X240810714Y-70551190D01*
X240715476Y-70551190D01*
X240667857Y-70575000D01*
X240644047Y-70598809D01*
X240620238Y-70646428D01*
X240620238Y-70765476D01*
X240644047Y-70813095D01*
X240667857Y-70836904D01*
X240715476Y-70860714D01*
X240810714Y-70860714D01*
X240858333Y-70836904D01*
X240882142Y-70813095D01*
X240905952Y-70765476D01*
%TO.C,D2*%
X250326190Y-62856547D02*
X249826190Y-62856547D01*
X249826190Y-62737500D01*
X249850000Y-62666071D01*
X249897619Y-62618452D01*
X249945238Y-62594642D01*
X250040476Y-62570833D01*
X250111904Y-62570833D01*
X250207142Y-62594642D01*
X250254761Y-62618452D01*
X250302380Y-62666071D01*
X250326190Y-62737500D01*
X250326190Y-62856547D01*
X249873809Y-62380357D02*
X249850000Y-62356547D01*
X249826190Y-62308928D01*
X249826190Y-62189880D01*
X249850000Y-62142261D01*
X249873809Y-62118452D01*
X249921428Y-62094642D01*
X249969047Y-62094642D01*
X250040476Y-62118452D01*
X250326190Y-62404166D01*
X250326190Y-62094642D01*
%TO.C,D3*%
X248726190Y-62831547D02*
X248226190Y-62831547D01*
X248226190Y-62712500D01*
X248250000Y-62641071D01*
X248297619Y-62593452D01*
X248345238Y-62569642D01*
X248440476Y-62545833D01*
X248511904Y-62545833D01*
X248607142Y-62569642D01*
X248654761Y-62593452D01*
X248702380Y-62641071D01*
X248726190Y-62712500D01*
X248726190Y-62831547D01*
X248226190Y-62379166D02*
X248226190Y-62069642D01*
X248416666Y-62236309D01*
X248416666Y-62164880D01*
X248440476Y-62117261D01*
X248464285Y-62093452D01*
X248511904Y-62069642D01*
X248630952Y-62069642D01*
X248678571Y-62093452D01*
X248702380Y-62117261D01*
X248726190Y-62164880D01*
X248726190Y-62307738D01*
X248702380Y-62355357D01*
X248678571Y-62379166D01*
%TO.C,D4*%
X247126190Y-62806547D02*
X246626190Y-62806547D01*
X246626190Y-62687500D01*
X246650000Y-62616071D01*
X246697619Y-62568452D01*
X246745238Y-62544642D01*
X246840476Y-62520833D01*
X246911904Y-62520833D01*
X247007142Y-62544642D01*
X247054761Y-62568452D01*
X247102380Y-62616071D01*
X247126190Y-62687500D01*
X247126190Y-62806547D01*
X246792857Y-62092261D02*
X247126190Y-62092261D01*
X246602380Y-62211309D02*
X246959523Y-62330357D01*
X246959523Y-62020833D01*
%TO.C,R7*%
X240766666Y-83351190D02*
X240600000Y-83113095D01*
X240480952Y-83351190D02*
X240480952Y-82851190D01*
X240671428Y-82851190D01*
X240719047Y-82875000D01*
X240742857Y-82898809D01*
X240766666Y-82946428D01*
X240766666Y-83017857D01*
X240742857Y-83065476D01*
X240719047Y-83089285D01*
X240671428Y-83113095D01*
X240480952Y-83113095D01*
X240933333Y-82851190D02*
X241266666Y-82851190D01*
X241052380Y-83351190D01*
%TO.C,R13*%
X248726190Y-64658928D02*
X248488095Y-64825595D01*
X248726190Y-64944642D02*
X248226190Y-64944642D01*
X248226190Y-64754166D01*
X248250000Y-64706547D01*
X248273809Y-64682738D01*
X248321428Y-64658928D01*
X248392857Y-64658928D01*
X248440476Y-64682738D01*
X248464285Y-64706547D01*
X248488095Y-64754166D01*
X248488095Y-64944642D01*
X248726190Y-64182738D02*
X248726190Y-64468452D01*
X248726190Y-64325595D02*
X248226190Y-64325595D01*
X248297619Y-64373214D01*
X248345238Y-64420833D01*
X248369047Y-64468452D01*
X248226190Y-64016071D02*
X248226190Y-63706547D01*
X248416666Y-63873214D01*
X248416666Y-63801785D01*
X248440476Y-63754166D01*
X248464285Y-63730357D01*
X248511904Y-63706547D01*
X248630952Y-63706547D01*
X248678571Y-63730357D01*
X248702380Y-63754166D01*
X248726190Y-63801785D01*
X248726190Y-63944642D01*
X248702380Y-63992261D01*
X248678571Y-64016071D01*
%TO.C,R14*%
X247126190Y-64658928D02*
X246888095Y-64825595D01*
X247126190Y-64944642D02*
X246626190Y-64944642D01*
X246626190Y-64754166D01*
X246650000Y-64706547D01*
X246673809Y-64682738D01*
X246721428Y-64658928D01*
X246792857Y-64658928D01*
X246840476Y-64682738D01*
X246864285Y-64706547D01*
X246888095Y-64754166D01*
X246888095Y-64944642D01*
X247126190Y-64182738D02*
X247126190Y-64468452D01*
X247126190Y-64325595D02*
X246626190Y-64325595D01*
X246697619Y-64373214D01*
X246745238Y-64420833D01*
X246769047Y-64468452D01*
X246792857Y-63754166D02*
X247126190Y-63754166D01*
X246602380Y-63873214D02*
X246959523Y-63992261D01*
X246959523Y-63682738D01*
D12*
%TO.C,U3*%
X249627380Y-73961904D02*
X250436904Y-73961904D01*
X250532142Y-73914285D01*
X250579761Y-73866666D01*
X250627380Y-73771428D01*
X250627380Y-73580952D01*
X250579761Y-73485714D01*
X250532142Y-73438095D01*
X250436904Y-73390476D01*
X249627380Y-73390476D01*
X249627380Y-73009523D02*
X249627380Y-72390476D01*
X250008333Y-72723809D01*
X250008333Y-72580952D01*
X250055952Y-72485714D01*
X250103571Y-72438095D01*
X250198809Y-72390476D01*
X250436904Y-72390476D01*
X250532142Y-72438095D01*
X250579761Y-72485714D01*
X250627380Y-72580952D01*
X250627380Y-72866666D01*
X250579761Y-72961904D01*
X250532142Y-73009523D01*
%TO.C,U4*%
X242002380Y-78861904D02*
X242811904Y-78861904D01*
X242907142Y-78814285D01*
X242954761Y-78766666D01*
X243002380Y-78671428D01*
X243002380Y-78480952D01*
X242954761Y-78385714D01*
X242907142Y-78338095D01*
X242811904Y-78290476D01*
X242002380Y-78290476D01*
X242335714Y-77385714D02*
X243002380Y-77385714D01*
X241954761Y-77623809D02*
X242669047Y-77861904D01*
X242669047Y-77242857D01*
%TO.C,Y1*%
X261026190Y-69601190D02*
X261502380Y-69601190D01*
X260502380Y-69934523D02*
X261026190Y-69601190D01*
X260502380Y-69267857D01*
X261502380Y-68410714D02*
X261502380Y-68982142D01*
X261502380Y-68696428D02*
X260502380Y-68696428D01*
X260645238Y-68791666D01*
X260740476Y-68886904D01*
X260788095Y-68982142D01*
D13*
%TO.C,C9*%
X250971666Y-66678571D02*
X250947857Y-66702380D01*
X250876428Y-66726190D01*
X250828809Y-66726190D01*
X250757380Y-66702380D01*
X250709761Y-66654761D01*
X250685952Y-66607142D01*
X250662142Y-66511904D01*
X250662142Y-66440476D01*
X250685952Y-66345238D01*
X250709761Y-66297619D01*
X250757380Y-66250000D01*
X250828809Y-66226190D01*
X250876428Y-66226190D01*
X250947857Y-66250000D01*
X250971666Y-66273809D01*
X251209761Y-66726190D02*
X251305000Y-66726190D01*
X251352619Y-66702380D01*
X251376428Y-66678571D01*
X251424047Y-66607142D01*
X251447857Y-66511904D01*
X251447857Y-66321428D01*
X251424047Y-66273809D01*
X251400238Y-66250000D01*
X251352619Y-66226190D01*
X251257380Y-66226190D01*
X251209761Y-66250000D01*
X251185952Y-66273809D01*
X251162142Y-66321428D01*
X251162142Y-66440476D01*
X251185952Y-66488095D01*
X251209761Y-66511904D01*
X251257380Y-66535714D01*
X251352619Y-66535714D01*
X251400238Y-66511904D01*
X251424047Y-66488095D01*
X251447857Y-66440476D01*
%TO.C,R3*%
X245069166Y-71056190D02*
X244902500Y-70818095D01*
X244783452Y-71056190D02*
X244783452Y-70556190D01*
X244973928Y-70556190D01*
X245021547Y-70580000D01*
X245045357Y-70603809D01*
X245069166Y-70651428D01*
X245069166Y-70722857D01*
X245045357Y-70770476D01*
X245021547Y-70794285D01*
X244973928Y-70818095D01*
X244783452Y-70818095D01*
X245235833Y-70556190D02*
X245545357Y-70556190D01*
X245378690Y-70746666D01*
X245450119Y-70746666D01*
X245497738Y-70770476D01*
X245521547Y-70794285D01*
X245545357Y-70841904D01*
X245545357Y-70960952D01*
X245521547Y-71008571D01*
X245497738Y-71032380D01*
X245450119Y-71056190D01*
X245307261Y-71056190D01*
X245259642Y-71032380D01*
X245235833Y-71008571D01*
D12*
%TO.C,SW1*%
X242129761Y-59233333D02*
X242177380Y-59090476D01*
X242177380Y-58852380D01*
X242129761Y-58757142D01*
X242082142Y-58709523D01*
X241986904Y-58661904D01*
X241891666Y-58661904D01*
X241796428Y-58709523D01*
X241748809Y-58757142D01*
X241701190Y-58852380D01*
X241653571Y-59042857D01*
X241605952Y-59138095D01*
X241558333Y-59185714D01*
X241463095Y-59233333D01*
X241367857Y-59233333D01*
X241272619Y-59185714D01*
X241225000Y-59138095D01*
X241177380Y-59042857D01*
X241177380Y-58804761D01*
X241225000Y-58661904D01*
X241177380Y-58328571D02*
X242177380Y-58090476D01*
X241463095Y-57900000D01*
X242177380Y-57709523D01*
X241177380Y-57471428D01*
X242177380Y-56566666D02*
X242177380Y-57138095D01*
X242177380Y-56852380D02*
X241177380Y-56852380D01*
X241320238Y-56947619D01*
X241415476Y-57042857D01*
X241463095Y-57138095D01*
%TO.C,J2*%
X241752380Y-65733333D02*
X242466666Y-65733333D01*
X242609523Y-65780952D01*
X242704761Y-65876190D01*
X242752380Y-66019047D01*
X242752380Y-66114285D01*
X241847619Y-65304761D02*
X241800000Y-65257142D01*
X241752380Y-65161904D01*
X241752380Y-64923809D01*
X241800000Y-64828571D01*
X241847619Y-64780952D01*
X241942857Y-64733333D01*
X242038095Y-64733333D01*
X242180952Y-64780952D01*
X242752380Y-65352380D01*
X242752380Y-64733333D01*
D13*
%TO.C,R9*%
X258826190Y-71508333D02*
X258588095Y-71675000D01*
X258826190Y-71794047D02*
X258326190Y-71794047D01*
X258326190Y-71603571D01*
X258350000Y-71555952D01*
X258373809Y-71532142D01*
X258421428Y-71508333D01*
X258492857Y-71508333D01*
X258540476Y-71532142D01*
X258564285Y-71555952D01*
X258588095Y-71603571D01*
X258588095Y-71794047D01*
X258826190Y-71270238D02*
X258826190Y-71175000D01*
X258802380Y-71127380D01*
X258778571Y-71103571D01*
X258707142Y-71055952D01*
X258611904Y-71032142D01*
X258421428Y-71032142D01*
X258373809Y-71055952D01*
X258350000Y-71079761D01*
X258326190Y-71127380D01*
X258326190Y-71222619D01*
X258350000Y-71270238D01*
X258373809Y-71294047D01*
X258421428Y-71317857D01*
X258540476Y-71317857D01*
X258588095Y-71294047D01*
X258611904Y-71270238D01*
X258635714Y-71222619D01*
X258635714Y-71127380D01*
X258611904Y-71079761D01*
X258588095Y-71055952D01*
X258540476Y-71032142D01*
%TO.C,C10*%
X257278571Y-63258928D02*
X257302380Y-63282738D01*
X257326190Y-63354166D01*
X257326190Y-63401785D01*
X257302380Y-63473214D01*
X257254761Y-63520833D01*
X257207142Y-63544642D01*
X257111904Y-63568452D01*
X257040476Y-63568452D01*
X256945238Y-63544642D01*
X256897619Y-63520833D01*
X256850000Y-63473214D01*
X256826190Y-63401785D01*
X256826190Y-63354166D01*
X256850000Y-63282738D01*
X256873809Y-63258928D01*
X257326190Y-62782738D02*
X257326190Y-63068452D01*
X257326190Y-62925595D02*
X256826190Y-62925595D01*
X256897619Y-62973214D01*
X256945238Y-63020833D01*
X256969047Y-63068452D01*
X256826190Y-62473214D02*
X256826190Y-62425595D01*
X256850000Y-62377976D01*
X256873809Y-62354166D01*
X256921428Y-62330357D01*
X257016666Y-62306547D01*
X257135714Y-62306547D01*
X257230952Y-62330357D01*
X257278571Y-62354166D01*
X257302380Y-62377976D01*
X257326190Y-62425595D01*
X257326190Y-62473214D01*
X257302380Y-62520833D01*
X257278571Y-62544642D01*
X257230952Y-62568452D01*
X257135714Y-62592261D01*
X257016666Y-62592261D01*
X256921428Y-62568452D01*
X256873809Y-62544642D01*
X256850000Y-62520833D01*
X256826190Y-62473214D01*
D12*
%TO.C,SW2*%
X242104761Y-53470833D02*
X242152380Y-53327976D01*
X242152380Y-53089880D01*
X242104761Y-52994642D01*
X242057142Y-52947023D01*
X241961904Y-52899404D01*
X241866666Y-52899404D01*
X241771428Y-52947023D01*
X241723809Y-52994642D01*
X241676190Y-53089880D01*
X241628571Y-53280357D01*
X241580952Y-53375595D01*
X241533333Y-53423214D01*
X241438095Y-53470833D01*
X241342857Y-53470833D01*
X241247619Y-53423214D01*
X241200000Y-53375595D01*
X241152380Y-53280357D01*
X241152380Y-53042261D01*
X241200000Y-52899404D01*
X241152380Y-52566071D02*
X242152380Y-52327976D01*
X241438095Y-52137500D01*
X242152380Y-51947023D01*
X241152380Y-51708928D01*
X241247619Y-51375595D02*
X241200000Y-51327976D01*
X241152380Y-51232738D01*
X241152380Y-50994642D01*
X241200000Y-50899404D01*
X241247619Y-50851785D01*
X241342857Y-50804166D01*
X241438095Y-50804166D01*
X241580952Y-50851785D01*
X242152380Y-51423214D01*
X242152380Y-50804166D01*
D13*
%TO.C,C7*%
X245259166Y-68903571D02*
X245235357Y-68927380D01*
X245163928Y-68951190D01*
X245116309Y-68951190D01*
X245044880Y-68927380D01*
X244997261Y-68879761D01*
X244973452Y-68832142D01*
X244949642Y-68736904D01*
X244949642Y-68665476D01*
X244973452Y-68570238D01*
X244997261Y-68522619D01*
X245044880Y-68475000D01*
X245116309Y-68451190D01*
X245163928Y-68451190D01*
X245235357Y-68475000D01*
X245259166Y-68498809D01*
X245425833Y-68451190D02*
X245759166Y-68451190D01*
X245544880Y-68951190D01*
%TO.C,R12*%
X250326190Y-64658928D02*
X250088095Y-64825595D01*
X250326190Y-64944642D02*
X249826190Y-64944642D01*
X249826190Y-64754166D01*
X249850000Y-64706547D01*
X249873809Y-64682738D01*
X249921428Y-64658928D01*
X249992857Y-64658928D01*
X250040476Y-64682738D01*
X250064285Y-64706547D01*
X250088095Y-64754166D01*
X250088095Y-64944642D01*
X250326190Y-64182738D02*
X250326190Y-64468452D01*
X250326190Y-64325595D02*
X249826190Y-64325595D01*
X249897619Y-64373214D01*
X249945238Y-64420833D01*
X249969047Y-64468452D01*
X249873809Y-63992261D02*
X249850000Y-63968452D01*
X249826190Y-63920833D01*
X249826190Y-63801785D01*
X249850000Y-63754166D01*
X249873809Y-63730357D01*
X249921428Y-63706547D01*
X249969047Y-63706547D01*
X250040476Y-63730357D01*
X250326190Y-64016071D01*
X250326190Y-63706547D01*
%TO.C,R15*%
X257541190Y-58671428D02*
X257303095Y-58838095D01*
X257541190Y-58957142D02*
X257041190Y-58957142D01*
X257041190Y-58766666D01*
X257065000Y-58719047D01*
X257088809Y-58695238D01*
X257136428Y-58671428D01*
X257207857Y-58671428D01*
X257255476Y-58695238D01*
X257279285Y-58719047D01*
X257303095Y-58766666D01*
X257303095Y-58957142D01*
X257541190Y-58195238D02*
X257541190Y-58480952D01*
X257541190Y-58338095D02*
X257041190Y-58338095D01*
X257112619Y-58385714D01*
X257160238Y-58433333D01*
X257184047Y-58480952D01*
X257041190Y-57742857D02*
X257041190Y-57980952D01*
X257279285Y-58004761D01*
X257255476Y-57980952D01*
X257231666Y-57933333D01*
X257231666Y-57814285D01*
X257255476Y-57766666D01*
X257279285Y-57742857D01*
X257326904Y-57719047D01*
X257445952Y-57719047D01*
X257493571Y-57742857D01*
X257517380Y-57766666D01*
X257541190Y-57814285D01*
X257541190Y-57933333D01*
X257517380Y-57980952D01*
X257493571Y-58004761D01*
%TO.C,R16*%
X255591190Y-58671428D02*
X255353095Y-58838095D01*
X255591190Y-58957142D02*
X255091190Y-58957142D01*
X255091190Y-58766666D01*
X255115000Y-58719047D01*
X255138809Y-58695238D01*
X255186428Y-58671428D01*
X255257857Y-58671428D01*
X255305476Y-58695238D01*
X255329285Y-58719047D01*
X255353095Y-58766666D01*
X255353095Y-58957142D01*
X255591190Y-58195238D02*
X255591190Y-58480952D01*
X255591190Y-58338095D02*
X255091190Y-58338095D01*
X255162619Y-58385714D01*
X255210238Y-58433333D01*
X255234047Y-58480952D01*
X255091190Y-57766666D02*
X255091190Y-57861904D01*
X255115000Y-57909523D01*
X255138809Y-57933333D01*
X255210238Y-57980952D01*
X255305476Y-58004761D01*
X255495952Y-58004761D01*
X255543571Y-57980952D01*
X255567380Y-57957142D01*
X255591190Y-57909523D01*
X255591190Y-57814285D01*
X255567380Y-57766666D01*
X255543571Y-57742857D01*
X255495952Y-57719047D01*
X255376904Y-57719047D01*
X255329285Y-57742857D01*
X255305476Y-57766666D01*
X255281666Y-57814285D01*
X255281666Y-57909523D01*
X255305476Y-57957142D01*
X255329285Y-57980952D01*
X255376904Y-58004761D01*
%TO.C,D5*%
X256541190Y-58569047D02*
X256041190Y-58569047D01*
X256041190Y-58450000D01*
X256065000Y-58378571D01*
X256112619Y-58330952D01*
X256160238Y-58307142D01*
X256255476Y-58283333D01*
X256326904Y-58283333D01*
X256422142Y-58307142D01*
X256469761Y-58330952D01*
X256517380Y-58378571D01*
X256541190Y-58450000D01*
X256541190Y-58569047D01*
X256041190Y-57830952D02*
X256041190Y-58069047D01*
X256279285Y-58092857D01*
X256255476Y-58069047D01*
X256231666Y-58021428D01*
X256231666Y-57902380D01*
X256255476Y-57854761D01*
X256279285Y-57830952D01*
X256326904Y-57807142D01*
X256445952Y-57807142D01*
X256493571Y-57830952D01*
X256517380Y-57854761D01*
X256541190Y-57902380D01*
X256541190Y-58021428D01*
X256517380Y-58069047D01*
X256493571Y-58092857D01*
%TO.C,D6*%
X254616190Y-58569047D02*
X254116190Y-58569047D01*
X254116190Y-58450000D01*
X254140000Y-58378571D01*
X254187619Y-58330952D01*
X254235238Y-58307142D01*
X254330476Y-58283333D01*
X254401904Y-58283333D01*
X254497142Y-58307142D01*
X254544761Y-58330952D01*
X254592380Y-58378571D01*
X254616190Y-58450000D01*
X254616190Y-58569047D01*
X254116190Y-57854761D02*
X254116190Y-57950000D01*
X254140000Y-57997619D01*
X254163809Y-58021428D01*
X254235238Y-58069047D01*
X254330476Y-58092857D01*
X254520952Y-58092857D01*
X254568571Y-58069047D01*
X254592380Y-58045238D01*
X254616190Y-57997619D01*
X254616190Y-57902380D01*
X254592380Y-57854761D01*
X254568571Y-57830952D01*
X254520952Y-57807142D01*
X254401904Y-57807142D01*
X254354285Y-57830952D01*
X254330476Y-57854761D01*
X254306666Y-57902380D01*
X254306666Y-57997619D01*
X254330476Y-58045238D01*
X254354285Y-58069047D01*
X254401904Y-58092857D01*
%TO.C,R4*%
X245069166Y-70026190D02*
X244902500Y-69788095D01*
X244783452Y-70026190D02*
X244783452Y-69526190D01*
X244973928Y-69526190D01*
X245021547Y-69550000D01*
X245045357Y-69573809D01*
X245069166Y-69621428D01*
X245069166Y-69692857D01*
X245045357Y-69740476D01*
X245021547Y-69764285D01*
X244973928Y-69788095D01*
X244783452Y-69788095D01*
X245497738Y-69692857D02*
X245497738Y-70026190D01*
X245378690Y-69502380D02*
X245259642Y-69859523D01*
X245569166Y-69859523D01*
%TO.C,U7*%
X242876190Y-71405952D02*
X243280952Y-71405952D01*
X243328571Y-71382142D01*
X243352380Y-71358333D01*
X243376190Y-71310714D01*
X243376190Y-71215476D01*
X243352380Y-71167857D01*
X243328571Y-71144047D01*
X243280952Y-71120238D01*
X242876190Y-71120238D01*
X242876190Y-70929761D02*
X242876190Y-70596428D01*
X243376190Y-70810714D01*
%TO.C,C24*%
X254028571Y-55503571D02*
X254004761Y-55527380D01*
X253933333Y-55551190D01*
X253885714Y-55551190D01*
X253814285Y-55527380D01*
X253766666Y-55479761D01*
X253742857Y-55432142D01*
X253719047Y-55336904D01*
X253719047Y-55265476D01*
X253742857Y-55170238D01*
X253766666Y-55122619D01*
X253814285Y-55075000D01*
X253885714Y-55051190D01*
X253933333Y-55051190D01*
X254004761Y-55075000D01*
X254028571Y-55098809D01*
X254219047Y-55098809D02*
X254242857Y-55075000D01*
X254290476Y-55051190D01*
X254409523Y-55051190D01*
X254457142Y-55075000D01*
X254480952Y-55098809D01*
X254504761Y-55146428D01*
X254504761Y-55194047D01*
X254480952Y-55265476D01*
X254195238Y-55551190D01*
X254504761Y-55551190D01*
X254933333Y-55217857D02*
X254933333Y-55551190D01*
X254814285Y-55027380D02*
X254695238Y-55384523D01*
X255004761Y-55384523D01*
D12*
%TO.C,L2*%
X258258333Y-44227380D02*
X257782142Y-44227380D01*
X257782142Y-43227380D01*
X258544047Y-43322619D02*
X258591666Y-43275000D01*
X258686904Y-43227380D01*
X258925000Y-43227380D01*
X259020238Y-43275000D01*
X259067857Y-43322619D01*
X259115476Y-43417857D01*
X259115476Y-43513095D01*
X259067857Y-43655952D01*
X258496428Y-44227380D01*
X259115476Y-44227380D01*
D13*
%TO.C,C3*%
X258246666Y-48888571D02*
X258222857Y-48912380D01*
X258151428Y-48936190D01*
X258103809Y-48936190D01*
X258032380Y-48912380D01*
X257984761Y-48864761D01*
X257960952Y-48817142D01*
X257937142Y-48721904D01*
X257937142Y-48650476D01*
X257960952Y-48555238D01*
X257984761Y-48507619D01*
X258032380Y-48460000D01*
X258103809Y-48436190D01*
X258151428Y-48436190D01*
X258222857Y-48460000D01*
X258246666Y-48483809D01*
X258413333Y-48436190D02*
X258722857Y-48436190D01*
X258556190Y-48626666D01*
X258627619Y-48626666D01*
X258675238Y-48650476D01*
X258699047Y-48674285D01*
X258722857Y-48721904D01*
X258722857Y-48840952D01*
X258699047Y-48888571D01*
X258675238Y-48912380D01*
X258627619Y-48936190D01*
X258484761Y-48936190D01*
X258437142Y-48912380D01*
X258413333Y-48888571D01*
%TO.C,C5*%
X262341666Y-48303571D02*
X262317857Y-48327380D01*
X262246428Y-48351190D01*
X262198809Y-48351190D01*
X262127380Y-48327380D01*
X262079761Y-48279761D01*
X262055952Y-48232142D01*
X262032142Y-48136904D01*
X262032142Y-48065476D01*
X262055952Y-47970238D01*
X262079761Y-47922619D01*
X262127380Y-47875000D01*
X262198809Y-47851190D01*
X262246428Y-47851190D01*
X262317857Y-47875000D01*
X262341666Y-47898809D01*
X262794047Y-47851190D02*
X262555952Y-47851190D01*
X262532142Y-48089285D01*
X262555952Y-48065476D01*
X262603571Y-48041666D01*
X262722619Y-48041666D01*
X262770238Y-48065476D01*
X262794047Y-48089285D01*
X262817857Y-48136904D01*
X262817857Y-48255952D01*
X262794047Y-48303571D01*
X262770238Y-48327380D01*
X262722619Y-48351190D01*
X262603571Y-48351190D01*
X262555952Y-48327380D01*
X262532142Y-48303571D01*
%TO.C,C31*%
X253928571Y-52396428D02*
X253952380Y-52420238D01*
X253976190Y-52491666D01*
X253976190Y-52539285D01*
X253952380Y-52610714D01*
X253904761Y-52658333D01*
X253857142Y-52682142D01*
X253761904Y-52705952D01*
X253690476Y-52705952D01*
X253595238Y-52682142D01*
X253547619Y-52658333D01*
X253500000Y-52610714D01*
X253476190Y-52539285D01*
X253476190Y-52491666D01*
X253500000Y-52420238D01*
X253523809Y-52396428D01*
X253476190Y-52229761D02*
X253476190Y-51920238D01*
X253666666Y-52086904D01*
X253666666Y-52015476D01*
X253690476Y-51967857D01*
X253714285Y-51944047D01*
X253761904Y-51920238D01*
X253880952Y-51920238D01*
X253928571Y-51944047D01*
X253952380Y-51967857D01*
X253976190Y-52015476D01*
X253976190Y-52158333D01*
X253952380Y-52205952D01*
X253928571Y-52229761D01*
X253976190Y-51444047D02*
X253976190Y-51729761D01*
X253976190Y-51586904D02*
X253476190Y-51586904D01*
X253547619Y-51634523D01*
X253595238Y-51682142D01*
X253619047Y-51729761D01*
%TO.C,R8*%
X252791666Y-58351190D02*
X252625000Y-58113095D01*
X252505952Y-58351190D02*
X252505952Y-57851190D01*
X252696428Y-57851190D01*
X252744047Y-57875000D01*
X252767857Y-57898809D01*
X252791666Y-57946428D01*
X252791666Y-58017857D01*
X252767857Y-58065476D01*
X252744047Y-58089285D01*
X252696428Y-58113095D01*
X252505952Y-58113095D01*
X253077380Y-58065476D02*
X253029761Y-58041666D01*
X253005952Y-58017857D01*
X252982142Y-57970238D01*
X252982142Y-57946428D01*
X253005952Y-57898809D01*
X253029761Y-57875000D01*
X253077380Y-57851190D01*
X253172619Y-57851190D01*
X253220238Y-57875000D01*
X253244047Y-57898809D01*
X253267857Y-57946428D01*
X253267857Y-57970238D01*
X253244047Y-58017857D01*
X253220238Y-58041666D01*
X253172619Y-58065476D01*
X253077380Y-58065476D01*
X253029761Y-58089285D01*
X253005952Y-58113095D01*
X252982142Y-58160714D01*
X252982142Y-58255952D01*
X253005952Y-58303571D01*
X253029761Y-58327380D01*
X253077380Y-58351190D01*
X253172619Y-58351190D01*
X253220238Y-58327380D01*
X253244047Y-58303571D01*
X253267857Y-58255952D01*
X253267857Y-58160714D01*
X253244047Y-58113095D01*
X253220238Y-58089285D01*
X253172619Y-58065476D01*
D12*
%TO.C,U6*%
X248563095Y-54027380D02*
X248563095Y-54836904D01*
X248610714Y-54932142D01*
X248658333Y-54979761D01*
X248753571Y-55027380D01*
X248944047Y-55027380D01*
X249039285Y-54979761D01*
X249086904Y-54932142D01*
X249134523Y-54836904D01*
X249134523Y-54027380D01*
X250039285Y-54027380D02*
X249848809Y-54027380D01*
X249753571Y-54075000D01*
X249705952Y-54122619D01*
X249610714Y-54265476D01*
X249563095Y-54455952D01*
X249563095Y-54836904D01*
X249610714Y-54932142D01*
X249658333Y-54979761D01*
X249753571Y-55027380D01*
X249944047Y-55027380D01*
X250039285Y-54979761D01*
X250086904Y-54932142D01*
X250134523Y-54836904D01*
X250134523Y-54598809D01*
X250086904Y-54503571D01*
X250039285Y-54455952D01*
X249944047Y-54408333D01*
X249753571Y-54408333D01*
X249658333Y-54455952D01*
X249610714Y-54503571D01*
X249563095Y-54598809D01*
D13*
%TO.C,R10*%
X244351190Y-55696428D02*
X244113095Y-55863095D01*
X244351190Y-55982142D02*
X243851190Y-55982142D01*
X243851190Y-55791666D01*
X243875000Y-55744047D01*
X243898809Y-55720238D01*
X243946428Y-55696428D01*
X244017857Y-55696428D01*
X244065476Y-55720238D01*
X244089285Y-55744047D01*
X244113095Y-55791666D01*
X244113095Y-55982142D01*
X244351190Y-55220238D02*
X244351190Y-55505952D01*
X244351190Y-55363095D02*
X243851190Y-55363095D01*
X243922619Y-55410714D01*
X243970238Y-55458333D01*
X243994047Y-55505952D01*
X243851190Y-54910714D02*
X243851190Y-54863095D01*
X243875000Y-54815476D01*
X243898809Y-54791666D01*
X243946428Y-54767857D01*
X244041666Y-54744047D01*
X244160714Y-54744047D01*
X244255952Y-54767857D01*
X244303571Y-54791666D01*
X244327380Y-54815476D01*
X244351190Y-54863095D01*
X244351190Y-54910714D01*
X244327380Y-54958333D01*
X244303571Y-54982142D01*
X244255952Y-55005952D01*
X244160714Y-55029761D01*
X244041666Y-55029761D01*
X243946428Y-55005952D01*
X243898809Y-54982142D01*
X243875000Y-54958333D01*
X243851190Y-54910714D01*
%TO.C,C27*%
X255128571Y-52396428D02*
X255152380Y-52420238D01*
X255176190Y-52491666D01*
X255176190Y-52539285D01*
X255152380Y-52610714D01*
X255104761Y-52658333D01*
X255057142Y-52682142D01*
X254961904Y-52705952D01*
X254890476Y-52705952D01*
X254795238Y-52682142D01*
X254747619Y-52658333D01*
X254700000Y-52610714D01*
X254676190Y-52539285D01*
X254676190Y-52491666D01*
X254700000Y-52420238D01*
X254723809Y-52396428D01*
X254723809Y-52205952D02*
X254700000Y-52182142D01*
X254676190Y-52134523D01*
X254676190Y-52015476D01*
X254700000Y-51967857D01*
X254723809Y-51944047D01*
X254771428Y-51920238D01*
X254819047Y-51920238D01*
X254890476Y-51944047D01*
X255176190Y-52229761D01*
X255176190Y-51920238D01*
X254676190Y-51753571D02*
X254676190Y-51420238D01*
X255176190Y-51634523D01*
%TO.C,C28*%
X247128571Y-50578571D02*
X247104761Y-50602380D01*
X247033333Y-50626190D01*
X246985714Y-50626190D01*
X246914285Y-50602380D01*
X246866666Y-50554761D01*
X246842857Y-50507142D01*
X246819047Y-50411904D01*
X246819047Y-50340476D01*
X246842857Y-50245238D01*
X246866666Y-50197619D01*
X246914285Y-50150000D01*
X246985714Y-50126190D01*
X247033333Y-50126190D01*
X247104761Y-50150000D01*
X247128571Y-50173809D01*
X247319047Y-50173809D02*
X247342857Y-50150000D01*
X247390476Y-50126190D01*
X247509523Y-50126190D01*
X247557142Y-50150000D01*
X247580952Y-50173809D01*
X247604761Y-50221428D01*
X247604761Y-50269047D01*
X247580952Y-50340476D01*
X247295238Y-50626190D01*
X247604761Y-50626190D01*
X247890476Y-50340476D02*
X247842857Y-50316666D01*
X247819047Y-50292857D01*
X247795238Y-50245238D01*
X247795238Y-50221428D01*
X247819047Y-50173809D01*
X247842857Y-50150000D01*
X247890476Y-50126190D01*
X247985714Y-50126190D01*
X248033333Y-50150000D01*
X248057142Y-50173809D01*
X248080952Y-50221428D01*
X248080952Y-50245238D01*
X248057142Y-50292857D01*
X248033333Y-50316666D01*
X247985714Y-50340476D01*
X247890476Y-50340476D01*
X247842857Y-50364285D01*
X247819047Y-50388095D01*
X247795238Y-50435714D01*
X247795238Y-50530952D01*
X247819047Y-50578571D01*
X247842857Y-50602380D01*
X247890476Y-50626190D01*
X247985714Y-50626190D01*
X248033333Y-50602380D01*
X248057142Y-50578571D01*
X248080952Y-50530952D01*
X248080952Y-50435714D01*
X248057142Y-50388095D01*
X248033333Y-50364285D01*
X247985714Y-50340476D01*
%TO.C,C30*%
X248778571Y-41696428D02*
X248802380Y-41720238D01*
X248826190Y-41791666D01*
X248826190Y-41839285D01*
X248802380Y-41910714D01*
X248754761Y-41958333D01*
X248707142Y-41982142D01*
X248611904Y-42005952D01*
X248540476Y-42005952D01*
X248445238Y-41982142D01*
X248397619Y-41958333D01*
X248350000Y-41910714D01*
X248326190Y-41839285D01*
X248326190Y-41791666D01*
X248350000Y-41720238D01*
X248373809Y-41696428D01*
X248326190Y-41529761D02*
X248326190Y-41220238D01*
X248516666Y-41386904D01*
X248516666Y-41315476D01*
X248540476Y-41267857D01*
X248564285Y-41244047D01*
X248611904Y-41220238D01*
X248730952Y-41220238D01*
X248778571Y-41244047D01*
X248802380Y-41267857D01*
X248826190Y-41315476D01*
X248826190Y-41458333D01*
X248802380Y-41505952D01*
X248778571Y-41529761D01*
X248326190Y-40910714D02*
X248326190Y-40863095D01*
X248350000Y-40815476D01*
X248373809Y-40791666D01*
X248421428Y-40767857D01*
X248516666Y-40744047D01*
X248635714Y-40744047D01*
X248730952Y-40767857D01*
X248778571Y-40791666D01*
X248802380Y-40815476D01*
X248826190Y-40863095D01*
X248826190Y-40910714D01*
X248802380Y-40958333D01*
X248778571Y-40982142D01*
X248730952Y-41005952D01*
X248635714Y-41029761D01*
X248516666Y-41029761D01*
X248421428Y-41005952D01*
X248373809Y-40982142D01*
X248350000Y-40958333D01*
X248326190Y-40910714D01*
%TO.C,C32*%
X252328571Y-51278571D02*
X252304761Y-51302380D01*
X252233333Y-51326190D01*
X252185714Y-51326190D01*
X252114285Y-51302380D01*
X252066666Y-51254761D01*
X252042857Y-51207142D01*
X252019047Y-51111904D01*
X252019047Y-51040476D01*
X252042857Y-50945238D01*
X252066666Y-50897619D01*
X252114285Y-50850000D01*
X252185714Y-50826190D01*
X252233333Y-50826190D01*
X252304761Y-50850000D01*
X252328571Y-50873809D01*
X252495238Y-50826190D02*
X252804761Y-50826190D01*
X252638095Y-51016666D01*
X252709523Y-51016666D01*
X252757142Y-51040476D01*
X252780952Y-51064285D01*
X252804761Y-51111904D01*
X252804761Y-51230952D01*
X252780952Y-51278571D01*
X252757142Y-51302380D01*
X252709523Y-51326190D01*
X252566666Y-51326190D01*
X252519047Y-51302380D01*
X252495238Y-51278571D01*
X252995238Y-50873809D02*
X253019047Y-50850000D01*
X253066666Y-50826190D01*
X253185714Y-50826190D01*
X253233333Y-50850000D01*
X253257142Y-50873809D01*
X253280952Y-50921428D01*
X253280952Y-50969047D01*
X253257142Y-51040476D01*
X252971428Y-51326190D01*
X253280952Y-51326190D01*
%TO.C,C29*%
X247928571Y-45553571D02*
X247904761Y-45577380D01*
X247833333Y-45601190D01*
X247785714Y-45601190D01*
X247714285Y-45577380D01*
X247666666Y-45529761D01*
X247642857Y-45482142D01*
X247619047Y-45386904D01*
X247619047Y-45315476D01*
X247642857Y-45220238D01*
X247666666Y-45172619D01*
X247714285Y-45125000D01*
X247785714Y-45101190D01*
X247833333Y-45101190D01*
X247904761Y-45125000D01*
X247928571Y-45148809D01*
X248119047Y-45148809D02*
X248142857Y-45125000D01*
X248190476Y-45101190D01*
X248309523Y-45101190D01*
X248357142Y-45125000D01*
X248380952Y-45148809D01*
X248404761Y-45196428D01*
X248404761Y-45244047D01*
X248380952Y-45315476D01*
X248095238Y-45601190D01*
X248404761Y-45601190D01*
X248642857Y-45601190D02*
X248738095Y-45601190D01*
X248785714Y-45577380D01*
X248809523Y-45553571D01*
X248857142Y-45482142D01*
X248880952Y-45386904D01*
X248880952Y-45196428D01*
X248857142Y-45148809D01*
X248833333Y-45125000D01*
X248785714Y-45101190D01*
X248690476Y-45101190D01*
X248642857Y-45125000D01*
X248619047Y-45148809D01*
X248595238Y-45196428D01*
X248595238Y-45315476D01*
X248619047Y-45363095D01*
X248642857Y-45386904D01*
X248690476Y-45410714D01*
X248785714Y-45410714D01*
X248833333Y-45386904D01*
X248857142Y-45363095D01*
X248880952Y-45315476D01*
%TO.C,R17*%
X245803571Y-45626190D02*
X245636904Y-45388095D01*
X245517857Y-45626190D02*
X245517857Y-45126190D01*
X245708333Y-45126190D01*
X245755952Y-45150000D01*
X245779761Y-45173809D01*
X245803571Y-45221428D01*
X245803571Y-45292857D01*
X245779761Y-45340476D01*
X245755952Y-45364285D01*
X245708333Y-45388095D01*
X245517857Y-45388095D01*
X246279761Y-45626190D02*
X245994047Y-45626190D01*
X246136904Y-45626190D02*
X246136904Y-45126190D01*
X246089285Y-45197619D01*
X246041666Y-45245238D01*
X245994047Y-45269047D01*
X246446428Y-45126190D02*
X246779761Y-45126190D01*
X246565476Y-45626190D01*
D12*
%TO.C,Q1*%
X246758333Y-47258333D02*
X246691666Y-47225000D01*
X246625000Y-47158333D01*
X246525000Y-47058333D01*
X246458333Y-47025000D01*
X246391666Y-47025000D01*
X246425000Y-47191666D02*
X246358333Y-47158333D01*
X246291666Y-47091666D01*
X246258333Y-46958333D01*
X246258333Y-46725000D01*
X246291666Y-46591666D01*
X246358333Y-46525000D01*
X246425000Y-46491666D01*
X246558333Y-46491666D01*
X246625000Y-46525000D01*
X246691666Y-46591666D01*
X246725000Y-46725000D01*
X246725000Y-46958333D01*
X246691666Y-47091666D01*
X246625000Y-47158333D01*
X246558333Y-47191666D01*
X246425000Y-47191666D01*
X247391666Y-47191666D02*
X246991666Y-47191666D01*
X247191666Y-47191666D02*
X247191666Y-46491666D01*
X247125000Y-46591666D01*
X247058333Y-46658333D01*
X246991666Y-46691666D01*
D13*
%TO.C,C23*%
X252323571Y-50103571D02*
X252299761Y-50127380D01*
X252228333Y-50151190D01*
X252180714Y-50151190D01*
X252109285Y-50127380D01*
X252061666Y-50079761D01*
X252037857Y-50032142D01*
X252014047Y-49936904D01*
X252014047Y-49865476D01*
X252037857Y-49770238D01*
X252061666Y-49722619D01*
X252109285Y-49675000D01*
X252180714Y-49651190D01*
X252228333Y-49651190D01*
X252299761Y-49675000D01*
X252323571Y-49698809D01*
X252514047Y-49698809D02*
X252537857Y-49675000D01*
X252585476Y-49651190D01*
X252704523Y-49651190D01*
X252752142Y-49675000D01*
X252775952Y-49698809D01*
X252799761Y-49746428D01*
X252799761Y-49794047D01*
X252775952Y-49865476D01*
X252490238Y-50151190D01*
X252799761Y-50151190D01*
X252966428Y-49651190D02*
X253275952Y-49651190D01*
X253109285Y-49841666D01*
X253180714Y-49841666D01*
X253228333Y-49865476D01*
X253252142Y-49889285D01*
X253275952Y-49936904D01*
X253275952Y-50055952D01*
X253252142Y-50103571D01*
X253228333Y-50127380D01*
X253180714Y-50151190D01*
X253037857Y-50151190D01*
X252990238Y-50127380D01*
X252966428Y-50103571D01*
D12*
%TO.C,D8*%
X245486904Y-42877380D02*
X245486904Y-41877380D01*
X245725000Y-41877380D01*
X245867857Y-41925000D01*
X245963095Y-42020238D01*
X246010714Y-42115476D01*
X246058333Y-42305952D01*
X246058333Y-42448809D01*
X246010714Y-42639285D01*
X245963095Y-42734523D01*
X245867857Y-42829761D01*
X245725000Y-42877380D01*
X245486904Y-42877380D01*
X246629761Y-42305952D02*
X246534523Y-42258333D01*
X246486904Y-42210714D01*
X246439285Y-42115476D01*
X246439285Y-42067857D01*
X246486904Y-41972619D01*
X246534523Y-41925000D01*
X246629761Y-41877380D01*
X246820238Y-41877380D01*
X246915476Y-41925000D01*
X246963095Y-41972619D01*
X247010714Y-42067857D01*
X247010714Y-42115476D01*
X246963095Y-42210714D01*
X246915476Y-42258333D01*
X246820238Y-42305952D01*
X246629761Y-42305952D01*
X246534523Y-42353571D01*
X246486904Y-42401190D01*
X246439285Y-42496428D01*
X246439285Y-42686904D01*
X246486904Y-42782142D01*
X246534523Y-42829761D01*
X246629761Y-42877380D01*
X246820238Y-42877380D01*
X246915476Y-42829761D01*
X246963095Y-42782142D01*
X247010714Y-42686904D01*
X247010714Y-42496428D01*
X246963095Y-42401190D01*
X246915476Y-42353571D01*
X246820238Y-42305952D01*
D13*
%TO.C,C21*%
X252323571Y-48778571D02*
X252299761Y-48802380D01*
X252228333Y-48826190D01*
X252180714Y-48826190D01*
X252109285Y-48802380D01*
X252061666Y-48754761D01*
X252037857Y-48707142D01*
X252014047Y-48611904D01*
X252014047Y-48540476D01*
X252037857Y-48445238D01*
X252061666Y-48397619D01*
X252109285Y-48350000D01*
X252180714Y-48326190D01*
X252228333Y-48326190D01*
X252299761Y-48350000D01*
X252323571Y-48373809D01*
X252514047Y-48373809D02*
X252537857Y-48350000D01*
X252585476Y-48326190D01*
X252704523Y-48326190D01*
X252752142Y-48350000D01*
X252775952Y-48373809D01*
X252799761Y-48421428D01*
X252799761Y-48469047D01*
X252775952Y-48540476D01*
X252490238Y-48826190D01*
X252799761Y-48826190D01*
X253275952Y-48826190D02*
X252990238Y-48826190D01*
X253133095Y-48826190D02*
X253133095Y-48326190D01*
X253085476Y-48397619D01*
X253037857Y-48445238D01*
X252990238Y-48469047D01*
D12*
%TO.C,U2*%
X258692380Y-54051904D02*
X259501904Y-54051904D01*
X259597142Y-54004285D01*
X259644761Y-53956666D01*
X259692380Y-53861428D01*
X259692380Y-53670952D01*
X259644761Y-53575714D01*
X259597142Y-53528095D01*
X259501904Y-53480476D01*
X258692380Y-53480476D01*
X258787619Y-53051904D02*
X258740000Y-53004285D01*
X258692380Y-52909047D01*
X258692380Y-52670952D01*
X258740000Y-52575714D01*
X258787619Y-52528095D01*
X258882857Y-52480476D01*
X258978095Y-52480476D01*
X259120952Y-52528095D01*
X259692380Y-53099523D01*
X259692380Y-52480476D01*
%TO.C,D7*%
X252127380Y-44938095D02*
X251127380Y-44938095D01*
X251127380Y-44700000D01*
X251175000Y-44557142D01*
X251270238Y-44461904D01*
X251365476Y-44414285D01*
X251555952Y-44366666D01*
X251698809Y-44366666D01*
X251889285Y-44414285D01*
X251984523Y-44461904D01*
X252079761Y-44557142D01*
X252127380Y-44700000D01*
X252127380Y-44938095D01*
X251127380Y-44033333D02*
X251127380Y-43366666D01*
X252127380Y-43795238D01*
D13*
%TO.C,R11*%
X248878571Y-58326190D02*
X248711904Y-58088095D01*
X248592857Y-58326190D02*
X248592857Y-57826190D01*
X248783333Y-57826190D01*
X248830952Y-57850000D01*
X248854761Y-57873809D01*
X248878571Y-57921428D01*
X248878571Y-57992857D01*
X248854761Y-58040476D01*
X248830952Y-58064285D01*
X248783333Y-58088095D01*
X248592857Y-58088095D01*
X249354761Y-58326190D02*
X249069047Y-58326190D01*
X249211904Y-58326190D02*
X249211904Y-57826190D01*
X249164285Y-57897619D01*
X249116666Y-57945238D01*
X249069047Y-57969047D01*
X249830952Y-58326190D02*
X249545238Y-58326190D01*
X249688095Y-58326190D02*
X249688095Y-57826190D01*
X249640476Y-57897619D01*
X249592857Y-57945238D01*
X249545238Y-57969047D01*
D10*
%TO.C,U1*%
X260243428Y-82262550D02*
X260243428Y-81756430D01*
X260243428Y-77512750D02*
X256992228Y-77512750D01*
X256992228Y-77512750D02*
X256992228Y-78018870D01*
X256992228Y-82262550D02*
X260243428Y-82262550D01*
X260243428Y-78018870D02*
X260243428Y-77512750D01*
X256992228Y-81756430D02*
X256992228Y-82262550D01*
%TO.C,C2*%
X261280000Y-78925835D02*
X261280000Y-78694165D01*
X262000000Y-78925835D02*
X262000000Y-78694165D01*
%TO.C,C1*%
X255840000Y-81255835D02*
X255840000Y-81024165D01*
X256560000Y-81255835D02*
X256560000Y-81024165D01*
%TO.C,C6*%
X247008335Y-68135000D02*
X246776665Y-68135000D01*
X247008335Y-67415000D02*
X246776665Y-67415000D01*
%TO.C,C8*%
X247008335Y-67185000D02*
X246776665Y-67185000D01*
X247008335Y-66465000D02*
X246776665Y-66465000D01*
%TO.C,C11*%
X255690000Y-64771665D02*
X255690000Y-65003335D01*
X256410000Y-64771665D02*
X256410000Y-65003335D01*
%TO.C,C12*%
X254640000Y-64771665D02*
X254640000Y-65003335D01*
X255360000Y-64771665D02*
X255360000Y-65003335D01*
%TO.C,C13*%
X253640000Y-64771665D02*
X253640000Y-65003335D01*
X254360000Y-64771665D02*
X254360000Y-65003335D01*
%TO.C,C14*%
X253360000Y-64771665D02*
X253360000Y-65003335D01*
X252640000Y-64771665D02*
X252640000Y-65003335D01*
%TO.C,C15*%
X252360000Y-64771665D02*
X252360000Y-65003335D01*
X251640000Y-64771665D02*
X251640000Y-65003335D01*
%TO.C,C16*%
X251360000Y-64771665D02*
X251360000Y-65003335D01*
X250640000Y-64771665D02*
X250640000Y-65003335D01*
%TO.C,C17*%
X260657085Y-72985000D02*
X260425415Y-72985000D01*
X260657085Y-72265000D02*
X260425415Y-72265000D01*
%TO.C,C18*%
X260682085Y-65952500D02*
X260450415Y-65952500D01*
X260682085Y-65232500D02*
X260450415Y-65232500D01*
%TO.C,C19*%
X240485000Y-72390835D02*
X240485000Y-72159165D01*
X239765000Y-72390835D02*
X239765000Y-72159165D01*
D11*
%TO.C,D2*%
X249350000Y-63202500D02*
G75*
G03*
X249350000Y-63202500I-50000J0D01*
G01*
%TO.C,D3*%
X247750000Y-63202500D02*
G75*
G03*
X247750000Y-63202500I-50000J0D01*
G01*
%TO.C,D4*%
X246150000Y-63202500D02*
G75*
G03*
X246150000Y-63202500I-50000J0D01*
G01*
D10*
%TO.C,P4*%
X243200000Y-43100000D02*
G75*
G03*
X243200000Y-43100000I-1200000J0D01*
G01*
%TO.C,P1*%
X253800000Y-35825000D02*
X253800000Y-38225000D01*
X251400000Y-38225000D02*
X251400000Y-35825000D01*
X251400000Y-35825000D02*
X253800000Y-35825000D01*
X253800000Y-38225000D02*
X251400000Y-38225000D01*
%TO.C,P2*%
X249950000Y-37025000D02*
G75*
G03*
X249950000Y-37025000I-1200000J0D01*
G01*
%TO.C,R7*%
X240682379Y-83495000D02*
X241017621Y-83495000D01*
X240682379Y-84255000D02*
X241017621Y-84255000D01*
%TO.C,R13*%
X248080000Y-64169879D02*
X248080000Y-64505121D01*
X247320000Y-64169879D02*
X247320000Y-64505121D01*
%TO.C,R14*%
X246480000Y-64169879D02*
X246480000Y-64505121D01*
X245720000Y-64169879D02*
X245720000Y-64505121D01*
%TO.C,U3*%
X256135000Y-74210000D02*
X256135000Y-74860000D01*
X256135000Y-74860000D02*
X255485000Y-74860000D01*
X248915000Y-74210000D02*
X248915000Y-74860000D01*
X248915000Y-67640000D02*
X249565000Y-67640000D01*
X256135000Y-68290000D02*
X256135000Y-67640000D01*
X256135000Y-67640000D02*
X255485000Y-67640000D01*
X248915000Y-68290000D02*
X248915000Y-67640000D01*
%TO.C,U4*%
X245275000Y-75375000D02*
X245015000Y-75375000D01*
X240085000Y-80825000D02*
X240085000Y-82500000D01*
X245275000Y-78100000D02*
X245275000Y-75375000D01*
X239825000Y-80825000D02*
X240085000Y-80825000D01*
X239825000Y-78100000D02*
X239825000Y-75375000D01*
X239825000Y-75375000D02*
X240085000Y-75375000D01*
X239825000Y-78100000D02*
X239825000Y-80825000D01*
X245275000Y-78100000D02*
X245275000Y-80825000D01*
X245275000Y-80825000D02*
X245015000Y-80825000D01*
%TO.C,Y1*%
X259290000Y-71625000D02*
X259290000Y-66625000D01*
X262710000Y-71625000D02*
X262710000Y-66625000D01*
%TO.C,P3*%
X243200000Y-46200000D02*
X243200000Y-48600000D01*
X240800000Y-48600000D02*
X240800000Y-46200000D01*
X243200000Y-48600000D02*
X240800000Y-48600000D01*
X240800000Y-46200000D02*
X243200000Y-46200000D01*
%TO.C,P6*%
X261500000Y-37025000D02*
G75*
G03*
X261500000Y-37025000I-1200000J0D01*
G01*
%TO.C,P5*%
X257600000Y-38225000D02*
X255200000Y-38225000D01*
X257600000Y-35825000D02*
X257600000Y-38225000D01*
X255200000Y-35825000D02*
X257600000Y-35825000D01*
X255200000Y-38225000D02*
X255200000Y-35825000D01*
%TO.C,C9*%
X249284165Y-66910000D02*
X249515835Y-66910000D01*
X249284165Y-66190000D02*
X249515835Y-66190000D01*
%TO.C,R3*%
X246584879Y-71210000D02*
X246920121Y-71210000D01*
X246584879Y-70450000D02*
X246920121Y-70450000D01*
%TO.C,SW1*%
X240025000Y-55800000D02*
X240025000Y-60200000D01*
X241155000Y-60200000D02*
X242295000Y-60200000D01*
X242295000Y-55800000D02*
X241155000Y-55800000D01*
X240025000Y-60200000D02*
X240145000Y-60200000D01*
X243305000Y-60200000D02*
X243425000Y-60200000D01*
X243425000Y-55800000D02*
X243305000Y-55800000D01*
X240145000Y-55800000D02*
X240025000Y-55800000D01*
X243425000Y-60200000D02*
X243425000Y-55800000D01*
%TO.C,J2*%
X244140000Y-63665000D02*
X244590000Y-63665000D01*
X239560000Y-61665000D02*
X239960000Y-61665000D01*
X241930000Y-61665000D02*
X243910000Y-61665000D01*
X239960000Y-69185000D02*
X239560000Y-69185000D01*
X243910000Y-61665000D02*
X243910000Y-62085000D01*
X241930000Y-69185000D02*
X243910000Y-69185000D01*
X243910000Y-69185000D02*
X243910000Y-68765000D01*
X244590000Y-64115000D02*
X244590000Y-63665000D01*
%TO.C,R9*%
X258220000Y-70042621D02*
X258220000Y-69707379D01*
X258980000Y-70042621D02*
X258980000Y-69707379D01*
%TO.C,C10*%
X256740000Y-64771665D02*
X256740000Y-65003335D01*
X257460000Y-64771665D02*
X257460000Y-65003335D01*
%TO.C,JP3*%
X262600000Y-62700000D02*
X262600000Y-64100000D01*
X261900000Y-64800000D02*
X261300000Y-64800000D01*
X260600000Y-64100000D02*
X260600000Y-62700000D01*
X261300000Y-62000000D02*
X261900000Y-62000000D01*
X261900000Y-64800000D02*
G75*
G03*
X262600000Y-64100000I1J699999D01*
G01*
X261300000Y-62000000D02*
G75*
G03*
X260600000Y-62700000I-1J-699999D01*
G01*
X260600000Y-64100000D02*
G75*
G03*
X261300000Y-64800000I699999J-1D01*
G01*
X262600000Y-62700000D02*
G75*
G03*
X261900000Y-62000000I-699999J1D01*
G01*
%TO.C,JP2*%
X258700000Y-62000000D02*
X259300000Y-62000000D01*
X260000000Y-62700000D02*
X260000000Y-64100000D01*
X259300000Y-64800000D02*
X258700000Y-64800000D01*
X258000000Y-64100000D02*
X258000000Y-62700000D01*
X258700000Y-62000000D02*
G75*
G03*
X258000000Y-62700000I-1J-699999D01*
G01*
X260000000Y-62700000D02*
G75*
G03*
X259300000Y-62000000I-699999J1D01*
G01*
X259300000Y-64800000D02*
G75*
G03*
X260000000Y-64100000I1J699999D01*
G01*
X258000000Y-64100000D02*
G75*
G03*
X258700000Y-64800000I699999J-1D01*
G01*
%TO.C,SW2*%
X240050000Y-54287500D02*
X240170000Y-54287500D01*
X243450000Y-49887500D02*
X243330000Y-49887500D01*
X242320000Y-49887500D02*
X241180000Y-49887500D01*
X240050000Y-49887500D02*
X240050000Y-54287500D01*
X241180000Y-54287500D02*
X242320000Y-54287500D01*
X243330000Y-54287500D02*
X243450000Y-54287500D01*
X243450000Y-54287500D02*
X243450000Y-49887500D01*
X240170000Y-49887500D02*
X240050000Y-49887500D01*
%TO.C,C7*%
X247008335Y-68365000D02*
X246776665Y-68365000D01*
X247008335Y-69085000D02*
X246776665Y-69085000D01*
%TO.C,R12*%
X249680000Y-64169879D02*
X249680000Y-64505121D01*
X248920000Y-64169879D02*
X248920000Y-64505121D01*
%TO.C,R15*%
X257695000Y-59849879D02*
X257695000Y-60185121D01*
X256935000Y-59849879D02*
X256935000Y-60185121D01*
%TO.C,R16*%
X255720000Y-59849879D02*
X255720000Y-60185121D01*
X254960000Y-59849879D02*
X254960000Y-60185121D01*
D11*
%TO.C,D5*%
X256365000Y-58752500D02*
G75*
G03*
X256365000Y-58752500I-50000J0D01*
G01*
%TO.C,D6*%
X254415000Y-58752500D02*
G75*
G03*
X254415000Y-58752500I-50000J0D01*
G01*
D10*
%TO.C,R4*%
X246584879Y-70180000D02*
X246920121Y-70180000D01*
X246584879Y-69420000D02*
X246920121Y-69420000D01*
%TO.C,U7*%
X242375000Y-71950000D02*
X244275000Y-71950000D01*
X243975000Y-70150000D02*
X242375000Y-70150000D01*
%TO.C,kibuzzard-62ADCC37*%
G36*
X253610580Y-98858672D02*
G01*
X253732533Y-98605079D01*
X253929708Y-98605079D01*
X253719996Y-98967517D01*
X253949084Y-99394921D01*
X253747919Y-99394921D01*
X253608301Y-99093459D01*
X253470962Y-99394921D01*
X253272646Y-99394921D01*
X253497176Y-98975496D01*
X253290312Y-98605079D01*
X253491477Y-98605079D01*
X253610580Y-98858672D01*
G37*
G36*
X253178617Y-98982619D02*
G01*
X253127471Y-99028707D01*
X253066353Y-99061546D01*
X253273216Y-99394921D01*
X253061794Y-99394921D01*
X252890832Y-99092889D01*
X252837834Y-99092889D01*
X252837834Y-99394921D01*
X252650916Y-99394921D01*
X252650916Y-98964668D01*
X252837834Y-98964668D01*
X252907358Y-98964668D01*
X252961069Y-98957545D01*
X253000247Y-98936174D01*
X253024182Y-98899133D01*
X253032160Y-98844995D01*
X253023826Y-98795772D01*
X252998823Y-98762079D01*
X252957436Y-98742632D01*
X252899950Y-98736149D01*
X252837834Y-98736149D01*
X252837834Y-98964668D01*
X252650916Y-98964668D01*
X252650916Y-98605079D01*
X252899380Y-98605079D01*
X252998095Y-98611601D01*
X253079206Y-98631166D01*
X253142715Y-98663776D01*
X253188305Y-98709999D01*
X253215659Y-98770405D01*
X253224777Y-98844995D01*
X253213237Y-98921856D01*
X253178617Y-98982619D01*
G37*
%TO.C,kibuzzard-62AF803C*%
G36*
X250812516Y-82688906D02*
G01*
X251203937Y-82688906D01*
X251181793Y-82857588D01*
X250598896Y-82857588D01*
X250598896Y-81954912D01*
X250812516Y-81954912D01*
X250812516Y-82688906D01*
G37*
G36*
X251579567Y-84277694D02*
G01*
X251968000Y-84277694D01*
X251946025Y-84445088D01*
X251367578Y-84445088D01*
X251367578Y-83549302D01*
X251579567Y-83549302D01*
X251579567Y-84277694D01*
G37*
G36*
X251150417Y-83704417D02*
G01*
X250965573Y-83704417D01*
X250965573Y-84289328D01*
X251150417Y-84289328D01*
X251150417Y-84445088D01*
X250568738Y-84445088D01*
X250568738Y-84289328D01*
X250753583Y-84289328D01*
X250753583Y-83704417D01*
X250568738Y-83704417D01*
X250568738Y-83549302D01*
X251150417Y-83549302D01*
X251150417Y-83704417D01*
G37*
G36*
X249950865Y-84251842D02*
G01*
X249903684Y-84445088D01*
X249682000Y-84445088D01*
X249788174Y-84098020D01*
X249984473Y-84098020D01*
X250178366Y-84098020D01*
X250081420Y-83701831D01*
X249984473Y-84098020D01*
X249788174Y-84098020D01*
X249956036Y-83549302D01*
X250213267Y-83549302D01*
X250487303Y-84445088D01*
X250260448Y-84445088D01*
X250213267Y-84251842D01*
X249950865Y-84251842D01*
G37*
%TO.C,kibuzzard-62ADCCBA*%
G36*
X261705872Y-94522931D02*
G01*
X261654726Y-94569019D01*
X261593608Y-94601858D01*
X261800471Y-94935233D01*
X261589049Y-94935233D01*
X261418087Y-94633201D01*
X261365089Y-94633201D01*
X261365089Y-94935233D01*
X261178171Y-94935233D01*
X261178171Y-94504980D01*
X261365089Y-94504980D01*
X261434613Y-94504980D01*
X261488324Y-94497857D01*
X261527503Y-94476487D01*
X261551437Y-94439445D01*
X261559415Y-94385307D01*
X261551081Y-94336084D01*
X261526078Y-94302391D01*
X261484691Y-94282944D01*
X261427205Y-94276462D01*
X261365089Y-94276462D01*
X261365089Y-94504980D01*
X261178171Y-94504980D01*
X261178171Y-94145391D01*
X261426635Y-94145391D01*
X261525350Y-94151913D01*
X261606461Y-94171478D01*
X261669971Y-94204088D01*
X261715560Y-94250311D01*
X261742914Y-94310717D01*
X261752032Y-94385307D01*
X261740492Y-94462169D01*
X261705872Y-94522931D01*
G37*
G36*
X259979731Y-94601288D02*
G01*
X259984575Y-94694676D01*
X259999106Y-94761707D01*
X260030592Y-94802097D01*
X260086297Y-94815560D01*
X260142002Y-94802097D01*
X260173487Y-94761707D01*
X260188019Y-94694676D01*
X260192863Y-94601288D01*
X260192863Y-94145391D01*
X260380351Y-94145391D01*
X260380351Y-94670813D01*
X260372159Y-94747532D01*
X260347583Y-94815845D01*
X260306695Y-94873260D01*
X260249565Y-94917282D01*
X260176123Y-94945277D01*
X260086297Y-94954609D01*
X259996043Y-94945633D01*
X259922459Y-94918707D01*
X259865400Y-94875824D01*
X259824726Y-94818979D01*
X259800364Y-94750025D01*
X259792243Y-94670813D01*
X259792243Y-94145391D01*
X259979731Y-94145391D01*
X259979731Y-94601288D01*
G37*
G36*
X262441577Y-94288429D02*
G01*
X262230154Y-94288429D01*
X262230154Y-94935233D01*
X262043237Y-94935233D01*
X262043237Y-94288429D01*
X261821556Y-94288429D01*
X261821556Y-94145391D01*
X262460953Y-94145391D01*
X262441577Y-94288429D01*
G37*
G36*
X262960160Y-94799034D02*
G01*
X263107757Y-94799034D01*
X263107757Y-94935233D01*
X262594303Y-94935233D01*
X262594303Y-94799034D01*
X262784640Y-94799034D01*
X262784640Y-94322621D01*
X262622226Y-94424058D01*
X262545863Y-94300396D01*
X262800596Y-94145391D01*
X262960160Y-94145391D01*
X262960160Y-94799034D01*
G37*
G36*
X260652749Y-94764842D02*
G01*
X260611149Y-94935233D01*
X260415683Y-94935233D01*
X260509300Y-94629212D01*
X260682383Y-94629212D01*
X260853344Y-94629212D01*
X260767863Y-94279881D01*
X260682383Y-94629212D01*
X260509300Y-94629212D01*
X260657308Y-94145391D01*
X260884117Y-94145391D01*
X261125743Y-94935233D01*
X260925718Y-94935233D01*
X260884117Y-94764842D01*
X260652749Y-94764842D01*
G37*
%TO.C,JP1*%
X259150000Y-58900000D02*
X261950000Y-58900000D01*
X261950000Y-60900000D02*
X259150000Y-60900000D01*
X258500000Y-60200000D02*
X258500000Y-59600000D01*
X262600000Y-59600000D02*
X262600000Y-60200000D01*
X259200000Y-58900000D02*
G75*
G03*
X258500000Y-59600000I-1J-699999D01*
G01*
X262600000Y-59600000D02*
G75*
G03*
X261900000Y-58900000I-699999J1D01*
G01*
X261900000Y-60900000D02*
G75*
G03*
X262600000Y-60200000I1J699999D01*
G01*
X258500000Y-60200000D02*
G75*
G03*
X259200000Y-60900000I699999J-1D01*
G01*
%TO.C,kibuzzard-62AD2A8F*%
G36*
X244510976Y-71895218D02*
G01*
X244707582Y-71805178D01*
X244760580Y-71967592D01*
X244548018Y-72010332D01*
X244693905Y-72170466D01*
X244556566Y-72269624D01*
X244450000Y-72082706D01*
X244343434Y-72269624D01*
X244206095Y-72170466D01*
X244351982Y-72010332D01*
X244139420Y-71967592D01*
X244192418Y-71805178D01*
X244389024Y-71895218D01*
X244364519Y-71680376D01*
X244535481Y-71680376D01*
X244510976Y-71895218D01*
G37*
%TO.C,kibuzzard-62ADCDEA*%
G36*
X256639230Y-61856819D02*
G01*
X256787966Y-61212864D01*
X256979443Y-61212864D01*
X256751495Y-62002706D01*
X256520127Y-62002706D01*
X256293318Y-61212864D01*
X256491633Y-61212864D01*
X256639230Y-61856819D01*
G37*
G36*
X255999193Y-61199828D02*
G01*
X256065654Y-61220557D01*
X256118652Y-61252755D01*
X256157403Y-61294071D01*
X256181124Y-61342296D01*
X256189031Y-61395223D01*
X256177990Y-61463251D01*
X256144866Y-61516890D01*
X256093506Y-61556995D01*
X256027757Y-61584420D01*
X256101983Y-61603725D01*
X256161677Y-61639983D01*
X256200998Y-61697469D01*
X256214105Y-61780456D01*
X256204916Y-61844139D01*
X256177349Y-61901839D01*
X256132685Y-61951061D01*
X256072207Y-61989314D01*
X255997127Y-62013890D01*
X255908654Y-62022082D01*
X255824883Y-62014317D01*
X255750230Y-61991024D01*
X255685264Y-61953626D01*
X255630557Y-61903548D01*
X255731994Y-61808950D01*
X255768110Y-61842928D01*
X255808072Y-61866222D01*
X255896687Y-61884173D01*
X255949970Y-61876693D01*
X255992425Y-61854254D01*
X256020207Y-61817711D01*
X256029467Y-61767919D01*
X256020705Y-61713995D01*
X255994420Y-61677594D01*
X255952178Y-61656865D01*
X255895547Y-61649955D01*
X255823743Y-61649955D01*
X255844259Y-61525723D01*
X255895547Y-61525723D01*
X255943203Y-61519312D01*
X255981313Y-61500079D01*
X256006316Y-61467881D01*
X256014650Y-61422577D01*
X255982737Y-61352482D01*
X255900106Y-61326838D01*
X255814340Y-61345074D01*
X255742252Y-61395223D01*
X255649932Y-61299484D01*
X255707347Y-61253396D01*
X255771315Y-61219987D01*
X255842122Y-61199685D01*
X255920052Y-61192918D01*
X255999193Y-61199828D01*
G37*
%TO.C,C24*%
X254242164Y-55790000D02*
X254457836Y-55790000D01*
X254242164Y-56510000D02*
X254457836Y-56510000D01*
%TO.C,kibuzzard-62ADC3FE*%
G36*
X241709359Y-91437877D02*
G01*
X241691788Y-91494611D01*
X241654532Y-91564064D01*
X241606022Y-91616279D01*
X241548251Y-91653392D01*
X241483214Y-91677540D01*
X241413334Y-91690790D01*
X241341031Y-91695206D01*
X241127899Y-91695206D01*
X241127899Y-91560146D01*
X241314817Y-91560146D01*
X241354708Y-91560146D01*
X241403432Y-91554519D01*
X241445888Y-91537637D01*
X241480935Y-91506365D01*
X241507434Y-91457570D01*
X241524103Y-91388473D01*
X241529659Y-91296296D01*
X241523889Y-91202694D01*
X241506579Y-91135022D01*
X241479368Y-91089076D01*
X241443893Y-91060654D01*
X241401794Y-91045908D01*
X241354708Y-91040993D01*
X241314817Y-91040993D01*
X241314817Y-91560146D01*
X241127899Y-91560146D01*
X241127899Y-90905364D01*
X241327354Y-90905364D01*
X241401936Y-90909282D01*
X241474096Y-90921035D01*
X241541341Y-90943260D01*
X241601178Y-90978592D01*
X241651540Y-91029168D01*
X241690363Y-91097126D01*
X241708725Y-91153321D01*
X241719743Y-91219711D01*
X241723415Y-91296296D01*
X241719901Y-91371772D01*
X241709359Y-91437877D01*
G37*
G36*
X240878865Y-91537352D02*
G01*
X240869605Y-91475663D01*
X240860060Y-91398873D01*
X240854677Y-91340176D01*
X240851448Y-91276540D01*
X240850372Y-91207966D01*
X240850372Y-90905364D01*
X241009366Y-90905364D01*
X241009366Y-91695206D01*
X240782557Y-91695206D01*
X240574554Y-91059799D01*
X240586521Y-91146135D01*
X240592861Y-91201768D01*
X240598204Y-91263243D01*
X240601836Y-91328921D01*
X240603047Y-91397163D01*
X240603047Y-91695206D01*
X240444053Y-91695206D01*
X240444053Y-90905364D01*
X240677131Y-90905364D01*
X240878865Y-91537352D01*
G37*
G36*
X240173364Y-90892114D02*
G01*
X240239469Y-90912202D01*
X240295459Y-90943260D01*
X240344896Y-90982866D01*
X240246878Y-91084304D01*
X240177923Y-91037004D01*
X240102700Y-91021618D01*
X240052623Y-91028670D01*
X240008386Y-91049826D01*
X239971416Y-91086298D01*
X239943136Y-91139296D01*
X239925185Y-91210031D01*
X239919201Y-91299715D01*
X239923404Y-91392319D01*
X239936013Y-91463838D01*
X239957169Y-91516195D01*
X239987016Y-91551313D01*
X240025767Y-91571188D01*
X240073637Y-91577812D01*
X240126065Y-91571259D01*
X240171654Y-91553878D01*
X240171654Y-91373229D01*
X240072497Y-91373229D01*
X240054261Y-91242158D01*
X240348315Y-91242158D01*
X240348315Y-91634800D01*
X240286840Y-91667567D01*
X240220948Y-91692927D01*
X240149643Y-91709168D01*
X240071927Y-91714582D01*
X239992839Y-91707939D01*
X239923689Y-91688011D01*
X239864476Y-91654799D01*
X239815200Y-91608301D01*
X239776431Y-91549087D01*
X239748738Y-91477729D01*
X239732123Y-91394225D01*
X239726585Y-91298575D01*
X239732030Y-91213633D01*
X239748366Y-91138125D01*
X239775594Y-91072051D01*
X239812065Y-91015666D01*
X239856135Y-90969221D01*
X239907804Y-90932718D01*
X239965424Y-90906440D01*
X240027350Y-90890674D01*
X240093582Y-90885418D01*
X240173364Y-90892114D01*
G37*
%TO.C,L2*%
X261250000Y-47210000D02*
X255600000Y-47210000D01*
X254940000Y-46550000D02*
X254940000Y-45750000D01*
X254940000Y-41850000D02*
X254940000Y-41000000D01*
X261860000Y-45750000D02*
X261860000Y-46600000D01*
X255550000Y-40390000D02*
X261250000Y-40390000D01*
X261860000Y-41000000D02*
X261860000Y-41850000D01*
X254940000Y-46550000D02*
G75*
G03*
X255600000Y-47210000I660002J2D01*
G01*
X261860000Y-41000000D02*
G75*
G03*
X261250000Y-40390000I-610000J0D01*
G01*
X261250000Y-47210000D02*
G75*
G03*
X261860000Y-46600000I0J610000D01*
G01*
X255550000Y-40390000D02*
G75*
G03*
X254940000Y-41000000I0J-610000D01*
G01*
%TO.C,kibuzzard-62ADCCCD*%
G36*
X263060384Y-96744549D02*
G01*
X263091923Y-96804474D01*
X263114451Y-96875121D01*
X263127968Y-96956488D01*
X263132473Y-97048575D01*
X263127968Y-97140984D01*
X263114451Y-97222742D01*
X263091923Y-97293852D01*
X263060384Y-97354312D01*
X263004632Y-97415573D01*
X262933493Y-97452329D01*
X262846967Y-97464582D01*
X262759872Y-97452329D01*
X262688543Y-97415573D01*
X262632980Y-97354312D01*
X262611893Y-97313566D01*
X262777443Y-97313566D01*
X262807361Y-97330092D01*
X262846967Y-97334651D01*
X262912788Y-97307297D01*
X262934799Y-97271039D01*
X262950114Y-97216972D01*
X262959090Y-97143388D01*
X262962081Y-97048575D01*
X262961369Y-96988169D01*
X262959232Y-96938020D01*
X262777443Y-97313566D01*
X262611893Y-97313566D01*
X262601691Y-97293852D01*
X262579341Y-97222742D01*
X262565932Y-97140984D01*
X262561462Y-97048575D01*
X262730714Y-97048575D01*
X262732423Y-97137760D01*
X262737552Y-97207000D01*
X262930169Y-96804100D01*
X262896261Y-96774182D01*
X262846967Y-96765919D01*
X262794682Y-96782089D01*
X262758637Y-96830599D01*
X262743124Y-96883566D01*
X262733816Y-96956224D01*
X262730714Y-97048575D01*
X262561462Y-97048575D01*
X262565932Y-96956488D01*
X262579341Y-96875121D01*
X262601691Y-96804474D01*
X262632980Y-96744549D01*
X262688543Y-96683921D01*
X262759872Y-96647544D01*
X262846967Y-96635418D01*
X262933493Y-96647544D01*
X263004632Y-96683921D01*
X263060384Y-96744549D01*
G37*
G36*
X260005017Y-97111261D02*
G01*
X260009861Y-97204649D01*
X260024392Y-97271680D01*
X260055878Y-97312070D01*
X260111583Y-97325533D01*
X260167288Y-97312070D01*
X260198773Y-97271680D01*
X260213305Y-97204649D01*
X260218149Y-97111261D01*
X260218149Y-96655364D01*
X260405637Y-96655364D01*
X260405637Y-97180786D01*
X260397445Y-97257505D01*
X260372869Y-97325818D01*
X260331981Y-97383233D01*
X260274851Y-97427255D01*
X260201409Y-97455250D01*
X260111583Y-97464582D01*
X260021329Y-97455606D01*
X259947745Y-97428680D01*
X259890686Y-97385797D01*
X259850012Y-97328952D01*
X259825650Y-97259998D01*
X259817529Y-97180786D01*
X259817529Y-96655364D01*
X260005017Y-96655364D01*
X260005017Y-97111261D01*
G37*
G36*
X261731158Y-97032904D02*
G01*
X261680012Y-97078992D01*
X261618894Y-97111831D01*
X261825757Y-97445206D01*
X261614335Y-97445206D01*
X261443373Y-97143174D01*
X261390375Y-97143174D01*
X261390375Y-97445206D01*
X261203457Y-97445206D01*
X261203457Y-97014953D01*
X261390375Y-97014953D01*
X261459899Y-97014953D01*
X261513610Y-97007829D01*
X261552789Y-96986459D01*
X261576723Y-96949418D01*
X261584701Y-96895280D01*
X261576367Y-96846057D01*
X261551364Y-96812363D01*
X261509977Y-96792917D01*
X261452491Y-96786434D01*
X261390375Y-96786434D01*
X261390375Y-97014953D01*
X261203457Y-97014953D01*
X261203457Y-96655364D01*
X261451921Y-96655364D01*
X261550636Y-96661886D01*
X261631747Y-96681451D01*
X261695256Y-96714061D01*
X261740846Y-96760284D01*
X261768200Y-96820690D01*
X261777318Y-96895280D01*
X261765778Y-96972141D01*
X261731158Y-97032904D01*
G37*
G36*
X262466863Y-96798402D02*
G01*
X262255440Y-96798402D01*
X262255440Y-97445206D01*
X262068522Y-97445206D01*
X262068522Y-96798402D01*
X261846842Y-96798402D01*
X261846842Y-96655364D01*
X262486239Y-96655364D01*
X262466863Y-96798402D01*
G37*
G36*
X260678035Y-97274814D02*
G01*
X260636435Y-97445206D01*
X260440969Y-97445206D01*
X260534586Y-97139185D01*
X260707669Y-97139185D01*
X260878630Y-97139185D01*
X260793149Y-96789854D01*
X260707669Y-97139185D01*
X260534586Y-97139185D01*
X260682594Y-96655364D01*
X260909403Y-96655364D01*
X261151029Y-97445206D01*
X260951004Y-97445206D01*
X260909403Y-97274814D01*
X260678035Y-97274814D01*
G37*
%TO.C,kibuzzard-62ADC3D6*%
G36*
X241385481Y-86240684D02*
G01*
X241468683Y-85730079D01*
X241660729Y-85730079D01*
X241705179Y-86519921D01*
X241542196Y-86519921D01*
X241532508Y-86181987D01*
X241531440Y-86123433D01*
X241531654Y-86073142D01*
X241535358Y-85984527D01*
X241538492Y-85939435D01*
X241542196Y-85889073D01*
X241453296Y-86385431D01*
X241311968Y-86385431D01*
X241216229Y-85889073D01*
X241220361Y-85937156D01*
X241223638Y-85982247D01*
X241227342Y-86073712D01*
X241227698Y-86125427D01*
X241227057Y-86184837D01*
X241221358Y-86519921D01*
X241061224Y-86519921D01*
X241105674Y-85730079D01*
X241297721Y-85730079D01*
X241385481Y-86240684D01*
G37*
G36*
X240092379Y-85737171D02*
G01*
X240175390Y-85758446D01*
X240242319Y-85793904D01*
X240291391Y-85843737D01*
X240320834Y-85908132D01*
X240330649Y-85987091D01*
X240320818Y-86070862D01*
X240291328Y-86138677D01*
X240244171Y-86190891D01*
X240181342Y-86227862D01*
X240104979Y-86249873D01*
X240017219Y-86257210D01*
X239931738Y-86257210D01*
X239931738Y-86519921D01*
X239744821Y-86519921D01*
X239744821Y-86121581D01*
X239931738Y-86121581D01*
X240005252Y-86121581D01*
X240061028Y-86113531D01*
X240102985Y-86089383D01*
X240129270Y-86047854D01*
X240138032Y-85987661D01*
X240122202Y-85918643D01*
X240074713Y-85877232D01*
X239995564Y-85863429D01*
X239931738Y-85863429D01*
X239931738Y-86121581D01*
X239744821Y-86121581D01*
X239744821Y-85730079D01*
X239993285Y-85730079D01*
X240092379Y-85737171D01*
G37*
G36*
X240776225Y-85737171D02*
G01*
X240859236Y-85758446D01*
X240926165Y-85793904D01*
X240975237Y-85843737D01*
X241004680Y-85908132D01*
X241014495Y-85987091D01*
X241004665Y-86070862D01*
X240975174Y-86138677D01*
X240928017Y-86190891D01*
X240865188Y-86227862D01*
X240788826Y-86249873D01*
X240701065Y-86257210D01*
X240615585Y-86257210D01*
X240615585Y-86519921D01*
X240428667Y-86519921D01*
X240428667Y-86121581D01*
X240615585Y-86121581D01*
X240689098Y-86121581D01*
X240744874Y-86113531D01*
X240786831Y-86089383D01*
X240813116Y-86047854D01*
X240821878Y-85987661D01*
X240806048Y-85918643D01*
X240758559Y-85877232D01*
X240679410Y-85863429D01*
X240615585Y-85863429D01*
X240615585Y-86121581D01*
X240428667Y-86121581D01*
X240428667Y-85730079D01*
X240677131Y-85730079D01*
X240776225Y-85737171D01*
G37*
%TO.C,kibuzzard-62ADD081*%
G36*
X258561972Y-61571980D02*
G01*
X258552759Y-61657967D01*
X258525120Y-61731291D01*
X258479055Y-61791950D01*
X258416148Y-61837223D01*
X258337981Y-61864387D01*
X258244553Y-61873442D01*
X258173390Y-61868527D01*
X258112628Y-61853781D01*
X258058134Y-61830345D01*
X258005777Y-61799359D01*
X258077011Y-61684245D01*
X258152804Y-61723281D01*
X258233156Y-61734393D01*
X258289074Y-61724634D01*
X258334878Y-61695357D01*
X258365437Y-61645565D01*
X258375624Y-61574259D01*
X258375624Y-61203273D01*
X258132858Y-61203273D01*
X258132858Y-61066504D01*
X258561972Y-61066504D01*
X258561972Y-61571980D01*
G37*
G36*
X259726291Y-61054394D02*
G01*
X259794320Y-61077901D01*
X259847460Y-61114302D01*
X259885499Y-61160817D01*
X259908365Y-61214599D01*
X259915987Y-61272797D01*
X259911927Y-61320168D01*
X259899746Y-61366541D01*
X259878304Y-61413698D01*
X259846463Y-61463419D01*
X259803366Y-61517201D01*
X259748160Y-61576539D01*
X259704122Y-61619976D01*
X259653688Y-61667465D01*
X259596859Y-61719007D01*
X259934223Y-61719007D01*
X259914847Y-61856346D01*
X259389996Y-61856346D01*
X259389996Y-61728695D01*
X259451447Y-61668921D01*
X259505869Y-61614973D01*
X259553264Y-61566851D01*
X259612530Y-61503666D01*
X259658690Y-61449742D01*
X259692669Y-61403227D01*
X259715392Y-61362267D01*
X259732488Y-61288754D01*
X259704850Y-61212961D01*
X259626492Y-61185037D01*
X259548420Y-61203843D01*
X259484594Y-61264819D01*
X259374039Y-61181618D01*
X259423618Y-61126269D01*
X259483454Y-61083315D01*
X259555971Y-61055747D01*
X259643588Y-61046558D01*
X259726291Y-61054394D01*
G37*
G36*
X259063966Y-61073595D02*
G01*
X259146977Y-61094870D01*
X259213905Y-61130329D01*
X259262977Y-61180161D01*
X259292421Y-61244557D01*
X259302235Y-61323516D01*
X259292405Y-61407287D01*
X259262914Y-61475102D01*
X259215757Y-61527316D01*
X259152929Y-61564287D01*
X259076566Y-61586298D01*
X258988806Y-61593635D01*
X258903325Y-61593635D01*
X258903325Y-61856346D01*
X258716407Y-61856346D01*
X258716407Y-61458005D01*
X258903325Y-61458005D01*
X258976838Y-61458005D01*
X259032615Y-61449956D01*
X259074571Y-61425808D01*
X259100857Y-61384278D01*
X259109619Y-61324086D01*
X259093789Y-61255068D01*
X259046300Y-61213657D01*
X258967151Y-61199854D01*
X258903325Y-61199854D01*
X258903325Y-61458005D01*
X258716407Y-61458005D01*
X258716407Y-61066504D01*
X258964871Y-61066504D01*
X259063966Y-61073595D01*
G37*
%TO.C,C3*%
X256634165Y-47765000D02*
X256865835Y-47765000D01*
X256634165Y-48485000D02*
X256865835Y-48485000D01*
%TO.C,C5*%
X260659165Y-47765000D02*
X260890835Y-47765000D01*
X260659165Y-48485000D02*
X260890835Y-48485000D01*
%TO.C,kibuzzard-62ADCC2A*%
G36*
X255750706Y-98748117D02*
G01*
X255539284Y-98748117D01*
X255539284Y-99394921D01*
X255352366Y-99394921D01*
X255352366Y-98748117D01*
X255130686Y-98748117D01*
X255130686Y-98605079D01*
X255770082Y-98605079D01*
X255750706Y-98748117D01*
G37*
G36*
X256130811Y-98858672D02*
G01*
X256252763Y-98605079D01*
X256449939Y-98605079D01*
X256240226Y-98967517D01*
X256469314Y-99394921D01*
X256268150Y-99394921D01*
X256128531Y-99093459D01*
X255991192Y-99394921D01*
X255792877Y-99394921D01*
X256017406Y-98975496D01*
X255810543Y-98605079D01*
X256011707Y-98605079D01*
X256130811Y-98858672D01*
G37*
%TO.C,C31*%
X253390000Y-53857836D02*
X253390000Y-53642164D01*
X254110000Y-53857836D02*
X254110000Y-53642164D01*
%TO.C,R8*%
X251553641Y-58505000D02*
X251246359Y-58505000D01*
X251553641Y-57745000D02*
X251246359Y-57745000D01*
%TO.C,kibuzzard-62ADCCCD*%
G36*
X248591862Y-96823402D02*
G01*
X248380439Y-96823402D01*
X248380439Y-97470206D01*
X248193521Y-97470206D01*
X248193521Y-96823402D01*
X247971841Y-96823402D01*
X247971841Y-96680364D01*
X248611238Y-96680364D01*
X248591862Y-96823402D01*
G37*
G36*
X247856157Y-97057904D02*
G01*
X247805011Y-97103992D01*
X247743893Y-97136831D01*
X247950756Y-97470206D01*
X247739334Y-97470206D01*
X247568372Y-97168174D01*
X247515374Y-97168174D01*
X247515374Y-97470206D01*
X247328456Y-97470206D01*
X247328456Y-97039953D01*
X247515374Y-97039953D01*
X247584898Y-97039953D01*
X247638609Y-97032829D01*
X247677788Y-97011459D01*
X247701722Y-96974418D01*
X247709700Y-96920280D01*
X247701366Y-96871057D01*
X247676363Y-96837363D01*
X247634976Y-96817917D01*
X247577490Y-96811434D01*
X247515374Y-96811434D01*
X247515374Y-97039953D01*
X247328456Y-97039953D01*
X247328456Y-96680364D01*
X247576920Y-96680364D01*
X247675635Y-96686886D01*
X247756746Y-96706451D01*
X247820255Y-96739061D01*
X247865845Y-96785284D01*
X247893199Y-96845690D01*
X247902317Y-96920280D01*
X247890777Y-96997141D01*
X247856157Y-97057904D01*
G37*
G36*
X246130016Y-97136261D02*
G01*
X246134860Y-97229649D01*
X246149391Y-97296680D01*
X246180877Y-97337070D01*
X246236582Y-97350533D01*
X246292287Y-97337070D01*
X246323772Y-97296680D01*
X246338304Y-97229649D01*
X246343148Y-97136261D01*
X246343148Y-96680364D01*
X246530636Y-96680364D01*
X246530636Y-97205786D01*
X246522444Y-97282505D01*
X246497868Y-97350818D01*
X246456980Y-97408233D01*
X246399850Y-97452255D01*
X246326408Y-97480250D01*
X246236582Y-97489582D01*
X246146328Y-97480606D01*
X246072744Y-97453680D01*
X246015685Y-97410797D01*
X245975011Y-97353952D01*
X245950649Y-97284998D01*
X245942528Y-97205786D01*
X245942528Y-96680364D01*
X246130016Y-96680364D01*
X246130016Y-97136261D01*
G37*
G36*
X249185383Y-96769549D02*
G01*
X249216922Y-96829474D01*
X249239450Y-96900121D01*
X249252967Y-96981488D01*
X249257472Y-97073575D01*
X249252967Y-97165984D01*
X249239450Y-97247742D01*
X249216922Y-97318852D01*
X249185383Y-97379312D01*
X249129631Y-97440573D01*
X249058492Y-97477329D01*
X248971966Y-97489582D01*
X248884871Y-97477329D01*
X248813542Y-97440573D01*
X248757979Y-97379312D01*
X248736892Y-97338566D01*
X248902442Y-97338566D01*
X248932360Y-97355092D01*
X248971966Y-97359651D01*
X249037787Y-97332297D01*
X249059798Y-97296039D01*
X249075113Y-97241972D01*
X249084089Y-97168388D01*
X249087080Y-97073575D01*
X249086368Y-97013169D01*
X249084231Y-96963020D01*
X248902442Y-97338566D01*
X248736892Y-97338566D01*
X248726690Y-97318852D01*
X248704340Y-97247742D01*
X248690931Y-97165984D01*
X248686461Y-97073575D01*
X248855713Y-97073575D01*
X248857422Y-97162760D01*
X248862551Y-97232000D01*
X249055168Y-96829100D01*
X249021260Y-96799182D01*
X248971966Y-96790919D01*
X248919681Y-96807089D01*
X248883636Y-96855599D01*
X248868123Y-96908566D01*
X248858815Y-96981224D01*
X248855713Y-97073575D01*
X248686461Y-97073575D01*
X248690931Y-96981488D01*
X248704340Y-96900121D01*
X248726690Y-96829474D01*
X248757979Y-96769549D01*
X248813542Y-96708921D01*
X248884871Y-96672544D01*
X248971966Y-96660418D01*
X249058492Y-96672544D01*
X249129631Y-96708921D01*
X249185383Y-96769549D01*
G37*
G36*
X246803034Y-97299814D02*
G01*
X246761434Y-97470206D01*
X246565968Y-97470206D01*
X246659585Y-97164185D01*
X246832668Y-97164185D01*
X247003629Y-97164185D01*
X246918148Y-96814854D01*
X246832668Y-97164185D01*
X246659585Y-97164185D01*
X246807593Y-96680364D01*
X247034402Y-96680364D01*
X247276028Y-97470206D01*
X247076003Y-97470206D01*
X247034402Y-97299814D01*
X246803034Y-97299814D01*
G37*
D12*
%TO.C,U6*%
X251375000Y-51875000D02*
X251375000Y-52020000D01*
X247225000Y-57025000D02*
X251375000Y-57025000D01*
X247225000Y-51875000D02*
X247225000Y-51925000D01*
X247225000Y-57025000D02*
X247225000Y-56880000D01*
X247225000Y-51925000D02*
X245825000Y-51925000D01*
X247225000Y-51875000D02*
X251375000Y-51875000D01*
X251375000Y-57025000D02*
X251375000Y-56880000D01*
D10*
%TO.C,R10*%
X244545000Y-55528641D02*
X244545000Y-55221359D01*
X245305000Y-55528641D02*
X245305000Y-55221359D01*
%TO.C,J3*%
X259650000Y-98430000D02*
X259650000Y-93230000D01*
X249370000Y-95830000D02*
X249370000Y-93230000D01*
X249370000Y-98430000D02*
X249370000Y-97100000D01*
X249370000Y-93230000D02*
X259650000Y-93230000D01*
X251970000Y-98430000D02*
X251970000Y-95830000D01*
X251970000Y-95830000D02*
X249370000Y-95830000D01*
X250700000Y-98430000D02*
X249370000Y-98430000D01*
X251970000Y-98430000D02*
X259650000Y-98430000D01*
%TO.C,kibuzzard-62AF8084*%
G36*
X258457044Y-84058615D02*
G01*
X258462579Y-84165344D01*
X258479187Y-84241951D01*
X258515171Y-84288111D01*
X258578833Y-84303497D01*
X258642496Y-84288111D01*
X258678479Y-84241951D01*
X258695087Y-84165344D01*
X258700623Y-84058615D01*
X258700623Y-83537590D01*
X258914895Y-83537590D01*
X258914895Y-84138072D01*
X258905533Y-84225751D01*
X258877446Y-84303823D01*
X258830717Y-84369440D01*
X258765426Y-84419751D01*
X258681492Y-84451746D01*
X258578833Y-84462410D01*
X258475687Y-84452153D01*
X258391590Y-84421379D01*
X258326380Y-84372371D01*
X258279895Y-84307405D01*
X258252053Y-84228600D01*
X258242772Y-84138072D01*
X258242772Y-83537590D01*
X258457044Y-83537590D01*
X258457044Y-84058615D01*
G37*
G36*
X258085162Y-83969064D02*
G01*
X258026709Y-84021737D01*
X257956859Y-84059267D01*
X258193274Y-84440267D01*
X257951649Y-84440267D01*
X257756264Y-84095087D01*
X257695695Y-84095087D01*
X257695695Y-84440267D01*
X257482074Y-84440267D01*
X257482074Y-83948549D01*
X257695695Y-83948549D01*
X257775151Y-83948549D01*
X257836535Y-83940408D01*
X257881310Y-83915985D01*
X257908664Y-83873651D01*
X257917782Y-83811779D01*
X257908257Y-83755525D01*
X257879682Y-83717018D01*
X257832383Y-83694793D01*
X257766685Y-83687385D01*
X257695695Y-83687385D01*
X257695695Y-83948549D01*
X257482074Y-83948549D01*
X257482074Y-83537590D01*
X257766033Y-83537590D01*
X257878850Y-83545043D01*
X257971549Y-83567404D01*
X258044131Y-83604672D01*
X258096233Y-83657498D01*
X258127495Y-83726534D01*
X258137915Y-83811779D01*
X258124727Y-83899621D01*
X258085162Y-83969064D01*
G37*
G36*
X259701861Y-84146177D02*
G01*
X259681779Y-84211015D01*
X259639202Y-84290390D01*
X259583762Y-84350064D01*
X259517738Y-84392479D01*
X259443410Y-84420077D01*
X259363547Y-84435219D01*
X259280915Y-84440267D01*
X259037336Y-84440267D01*
X259037336Y-84285913D01*
X259250956Y-84285913D01*
X259296546Y-84285913D01*
X259352231Y-84279481D01*
X259400751Y-84260187D01*
X259440805Y-84224448D01*
X259471090Y-84168682D01*
X259490140Y-84089714D01*
X259496490Y-83984369D01*
X259489896Y-83877396D01*
X259470113Y-83800056D01*
X259439014Y-83747547D01*
X259398472Y-83715064D01*
X259350358Y-83698212D01*
X259296546Y-83692595D01*
X259250956Y-83692595D01*
X259250956Y-84285913D01*
X259037336Y-84285913D01*
X259037336Y-83537590D01*
X259265285Y-83537590D01*
X259350521Y-83542067D01*
X259432990Y-83555500D01*
X259509841Y-83580900D01*
X259578226Y-83621279D01*
X259635783Y-83679081D01*
X259680151Y-83756746D01*
X259701137Y-83820970D01*
X259713728Y-83896844D01*
X259717926Y-83984369D01*
X259713909Y-84070628D01*
X259701861Y-84146177D01*
G37*
%TO.C,C27*%
X254590000Y-53642164D02*
X254590000Y-53857836D01*
X255310000Y-53642164D02*
X255310000Y-53857836D01*
%TO.C,kibuzzard-62ADD099*%
G36*
X261252542Y-61580840D02*
G01*
X261243329Y-61666827D01*
X261215690Y-61740151D01*
X261169625Y-61800811D01*
X261106718Y-61846084D01*
X261028550Y-61873248D01*
X260935123Y-61882302D01*
X260863960Y-61877387D01*
X260803198Y-61862642D01*
X260748704Y-61839206D01*
X260696347Y-61808219D01*
X260767581Y-61693105D01*
X260843374Y-61732141D01*
X260923726Y-61743254D01*
X260979644Y-61733494D01*
X261025448Y-61704217D01*
X261056007Y-61654425D01*
X261066194Y-61583120D01*
X261066194Y-61212133D01*
X260823428Y-61212133D01*
X260823428Y-61075364D01*
X261252542Y-61075364D01*
X261252542Y-61580840D01*
G37*
G36*
X261754535Y-61082456D02*
G01*
X261837547Y-61103731D01*
X261904475Y-61139189D01*
X261953547Y-61189022D01*
X261982991Y-61253417D01*
X261992805Y-61332376D01*
X261982975Y-61416147D01*
X261953484Y-61483962D01*
X261906327Y-61536176D01*
X261843499Y-61573147D01*
X261767136Y-61595158D01*
X261679376Y-61602495D01*
X261593895Y-61602495D01*
X261593895Y-61865206D01*
X261406977Y-61865206D01*
X261406977Y-61466866D01*
X261593895Y-61466866D01*
X261667408Y-61466866D01*
X261723185Y-61458816D01*
X261765141Y-61434668D01*
X261791427Y-61393139D01*
X261800188Y-61332946D01*
X261784359Y-61263928D01*
X261736869Y-61222517D01*
X261657721Y-61208714D01*
X261593895Y-61208714D01*
X261593895Y-61466866D01*
X261406977Y-61466866D01*
X261406977Y-61075364D01*
X261655441Y-61075364D01*
X261754535Y-61082456D01*
G37*
G36*
X262408740Y-61062328D02*
G01*
X262475202Y-61083057D01*
X262528200Y-61115255D01*
X262566951Y-61156571D01*
X262590672Y-61204796D01*
X262598579Y-61257723D01*
X262587538Y-61325751D01*
X262554414Y-61379390D01*
X262503054Y-61419495D01*
X262437305Y-61446920D01*
X262511531Y-61466225D01*
X262571225Y-61502483D01*
X262610546Y-61559969D01*
X262623653Y-61642956D01*
X262614464Y-61706639D01*
X262586896Y-61764339D01*
X262542233Y-61813561D01*
X262481755Y-61851814D01*
X262406675Y-61876390D01*
X262318202Y-61884582D01*
X262234431Y-61876817D01*
X262159778Y-61853524D01*
X262094812Y-61816126D01*
X262040104Y-61766048D01*
X262141542Y-61671450D01*
X262177657Y-61705428D01*
X262217620Y-61728722D01*
X262306235Y-61746673D01*
X262359518Y-61739193D01*
X262401973Y-61716754D01*
X262429754Y-61680211D01*
X262439015Y-61630419D01*
X262430253Y-61576495D01*
X262403968Y-61540094D01*
X262361726Y-61519365D01*
X262305095Y-61512455D01*
X262233291Y-61512455D01*
X262253806Y-61388223D01*
X262305095Y-61388223D01*
X262352750Y-61381812D01*
X262390861Y-61362579D01*
X262415864Y-61330381D01*
X262424198Y-61285077D01*
X262392285Y-61214982D01*
X262309654Y-61189338D01*
X262223888Y-61207574D01*
X262151799Y-61257723D01*
X262059480Y-61161984D01*
X262116895Y-61115896D01*
X262180863Y-61082487D01*
X262251669Y-61062185D01*
X262329599Y-61055418D01*
X262408740Y-61062328D01*
G37*
%TO.C,J1*%
X268605000Y-44235000D02*
X268605000Y-92555000D01*
X263405000Y-92555000D02*
X268605000Y-92555000D01*
X266005000Y-44235000D02*
X268605000Y-44235000D01*
X268605000Y-41635000D02*
X268605000Y-42965000D01*
X266005000Y-41635000D02*
X266005000Y-44235000D01*
X267275000Y-41635000D02*
X268605000Y-41635000D01*
X263405000Y-41635000D02*
X266005000Y-41635000D01*
X263405000Y-41635000D02*
X263405000Y-92555000D01*
%TO.C,kibuzzard-62ADCC83*%
G36*
X260059999Y-99230872D02*
G01*
X260208736Y-98586917D01*
X260400212Y-98586917D01*
X260172264Y-99376760D01*
X259940896Y-99376760D01*
X259714087Y-98586917D01*
X259912402Y-98586917D01*
X260059999Y-99230872D01*
G37*
G36*
X258998328Y-98509985D02*
G01*
X258520205Y-99504411D01*
X258379447Y-99440015D01*
X258858709Y-98445589D01*
X258998328Y-98509985D01*
G37*
G36*
X257368423Y-98573881D02*
G01*
X257434885Y-98594611D01*
X257487883Y-98626808D01*
X257526634Y-98668124D01*
X257550355Y-98716349D01*
X257558262Y-98769276D01*
X257547221Y-98837305D01*
X257514097Y-98890944D01*
X257462737Y-98931049D01*
X257396988Y-98958474D01*
X257471214Y-98977778D01*
X257530908Y-99014036D01*
X257570229Y-99071522D01*
X257583336Y-99154510D01*
X257574147Y-99218193D01*
X257546579Y-99275892D01*
X257501916Y-99325115D01*
X257441438Y-99363368D01*
X257366358Y-99387943D01*
X257277885Y-99396135D01*
X257194114Y-99388371D01*
X257119461Y-99365077D01*
X257054495Y-99327679D01*
X256999787Y-99277602D01*
X257101225Y-99183003D01*
X257137340Y-99216982D01*
X257177303Y-99240275D01*
X257265918Y-99258226D01*
X257319201Y-99250747D01*
X257361656Y-99228308D01*
X257389437Y-99191765D01*
X257398698Y-99141972D01*
X257389936Y-99088048D01*
X257363651Y-99051648D01*
X257321409Y-99030919D01*
X257264778Y-99024009D01*
X257192974Y-99024009D01*
X257213489Y-98899777D01*
X257264778Y-98899777D01*
X257312433Y-98893366D01*
X257350544Y-98874133D01*
X257375547Y-98841935D01*
X257383881Y-98796630D01*
X257351968Y-98726536D01*
X257269337Y-98700892D01*
X257183571Y-98719128D01*
X257111482Y-98769276D01*
X257019163Y-98673538D01*
X257076578Y-98627449D01*
X257140546Y-98594041D01*
X257211352Y-98573739D01*
X257289282Y-98566972D01*
X257368423Y-98573881D01*
G37*
G36*
X259597833Y-98715708D02*
G01*
X259308908Y-98715708D01*
X259308908Y-98886100D01*
X259368745Y-98866724D01*
X259425732Y-98861026D01*
X259484072Y-98868719D01*
X259537142Y-98891799D01*
X259582446Y-98929268D01*
X259617494Y-98980129D01*
X259639932Y-99043242D01*
X259647412Y-99117468D01*
X259637653Y-99193118D01*
X259608376Y-99260506D01*
X259561717Y-99316994D01*
X259499815Y-99359948D01*
X259424450Y-99387089D01*
X259337402Y-99396135D01*
X259256337Y-99388086D01*
X259185246Y-99363937D01*
X259124697Y-99326397D01*
X259075261Y-99278172D01*
X259178977Y-99183573D01*
X259244797Y-99239136D01*
X259323155Y-99258226D01*
X259379643Y-99248681D01*
X259423737Y-99220045D01*
X259452160Y-99176022D01*
X259461634Y-99120317D01*
X259454297Y-99057845D01*
X259432285Y-99016316D01*
X259355068Y-98985258D01*
X259308908Y-98990956D01*
X259258189Y-99011472D01*
X259136807Y-99011472D01*
X259136807Y-98586917D01*
X259617779Y-98586917D01*
X259597833Y-98715708D01*
G37*
G36*
X258008461Y-99230872D02*
G01*
X258157197Y-98586917D01*
X258348674Y-98586917D01*
X258120725Y-99376760D01*
X257889357Y-99376760D01*
X257662548Y-98586917D01*
X257860864Y-98586917D01*
X258008461Y-99230872D01*
G37*
%TO.C,kibuzzard-62AF80C4*%
G36*
X248687566Y-83546219D02*
G01*
X248765313Y-83573085D01*
X248826045Y-83614685D01*
X248869518Y-83667846D01*
X248895651Y-83729311D01*
X248904362Y-83795823D01*
X248899721Y-83849961D01*
X248885800Y-83902959D01*
X248861296Y-83956853D01*
X248824905Y-84013677D01*
X248775652Y-84075142D01*
X248712559Y-84142956D01*
X248662229Y-84192599D01*
X248604591Y-84246872D01*
X248539644Y-84305777D01*
X248925203Y-84305777D01*
X248903059Y-84462736D01*
X248303228Y-84462736D01*
X248303228Y-84316849D01*
X248373458Y-84248536D01*
X248435656Y-84186882D01*
X248489821Y-84131885D01*
X248557554Y-84059674D01*
X248610308Y-83998046D01*
X248649140Y-83944885D01*
X248675110Y-83898074D01*
X248694649Y-83814059D01*
X248663062Y-83727438D01*
X248573510Y-83695526D01*
X248484285Y-83717018D01*
X248411341Y-83786705D01*
X248284992Y-83691618D01*
X248341654Y-83628362D01*
X248410038Y-83579272D01*
X248492914Y-83547766D01*
X248593049Y-83537264D01*
X248687566Y-83546219D01*
G37*
G36*
X247845377Y-84143608D02*
G01*
X247940464Y-83560059D01*
X248159946Y-83560059D01*
X248210746Y-84462736D01*
X248024479Y-84462736D01*
X248013408Y-84076526D01*
X248012187Y-84009606D01*
X248012431Y-83952131D01*
X248016664Y-83850856D01*
X248020246Y-83799324D01*
X248024479Y-83741767D01*
X247922879Y-84309033D01*
X247761362Y-84309033D01*
X247651946Y-83741767D01*
X247656668Y-83796719D01*
X247660413Y-83848251D01*
X247664646Y-83952782D01*
X247665053Y-84011886D01*
X247664321Y-84079782D01*
X247657808Y-84462736D01*
X247474797Y-84462736D01*
X247525597Y-83560059D01*
X247745079Y-83560059D01*
X247845377Y-84143608D01*
G37*
%TO.C,kibuzzard-62ADCDD5*%
G36*
X254245096Y-61321682D02*
G01*
X253956171Y-61321682D01*
X253956171Y-61492074D01*
X254016008Y-61472698D01*
X254072995Y-61466999D01*
X254131336Y-61474693D01*
X254184405Y-61497772D01*
X254229710Y-61535242D01*
X254264757Y-61586103D01*
X254287196Y-61649216D01*
X254294675Y-61723442D01*
X254284916Y-61799092D01*
X254255639Y-61866479D01*
X254208981Y-61922968D01*
X254147079Y-61965922D01*
X254071713Y-61993062D01*
X253984665Y-62002109D01*
X253903601Y-61994060D01*
X253832509Y-61969911D01*
X253771960Y-61932371D01*
X253722524Y-61884146D01*
X253826241Y-61789547D01*
X253892061Y-61845109D01*
X253970418Y-61864200D01*
X254026907Y-61854655D01*
X254071001Y-61826019D01*
X254099423Y-61781996D01*
X254108897Y-61726291D01*
X254101560Y-61663819D01*
X254079549Y-61622289D01*
X254002331Y-61591231D01*
X253956171Y-61596930D01*
X253905453Y-61617446D01*
X253784070Y-61617446D01*
X253784070Y-61192891D01*
X254265042Y-61192891D01*
X254245096Y-61321682D01*
G37*
G36*
X254707262Y-61836846D02*
G01*
X254855999Y-61192891D01*
X255047476Y-61192891D01*
X254819527Y-61982733D01*
X254588159Y-61982733D01*
X254361350Y-61192891D01*
X254559666Y-61192891D01*
X254707262Y-61836846D01*
G37*
%TO.C,kibuzzard-62ADCE79*%
G36*
X244082904Y-53106959D02*
G01*
X244128992Y-53158105D01*
X244161831Y-53219223D01*
X244495206Y-53012360D01*
X244495206Y-53223782D01*
X244193174Y-53394744D01*
X244193174Y-53447742D01*
X244495206Y-53447742D01*
X244495206Y-53634660D01*
X243705364Y-53634660D01*
X243705364Y-53447742D01*
X243836434Y-53447742D01*
X244064953Y-53447742D01*
X244064953Y-53378218D01*
X244057829Y-53324507D01*
X244036459Y-53285329D01*
X243999418Y-53261394D01*
X243945280Y-53253416D01*
X243896057Y-53261750D01*
X243862363Y-53286753D01*
X243842917Y-53328140D01*
X243836434Y-53385626D01*
X243836434Y-53447742D01*
X243705364Y-53447742D01*
X243705364Y-53386196D01*
X243711886Y-53287481D01*
X243731451Y-53206370D01*
X243764061Y-53142861D01*
X243810284Y-53097271D01*
X243870690Y-53069917D01*
X243945280Y-53060799D01*
X244022141Y-53072339D01*
X244082904Y-53106959D01*
G37*
G36*
X243848402Y-50319716D02*
G01*
X243848402Y-50531138D01*
X244495206Y-50531138D01*
X244495206Y-50718056D01*
X243848402Y-50718056D01*
X243848402Y-50939736D01*
X243705364Y-50939736D01*
X243705364Y-50300340D01*
X243848402Y-50319716D01*
G37*
G36*
X244495206Y-52910923D02*
G01*
X243705364Y-52910923D01*
X243705364Y-52394619D01*
X243838714Y-52413425D01*
X243838714Y-52724005D01*
X244028481Y-52724005D01*
X244028481Y-52450466D01*
X244159552Y-52450466D01*
X244159552Y-52724005D01*
X244361286Y-52724005D01*
X244361286Y-52394049D01*
X244495206Y-52394049D01*
X244495206Y-52910923D01*
G37*
G36*
X244333647Y-51695315D02*
G01*
X244394339Y-51724165D01*
X244444630Y-51770965D01*
X244482669Y-51834435D01*
X244506604Y-51913505D01*
X244514582Y-52007106D01*
X244510941Y-52077549D01*
X244500018Y-52139950D01*
X244481814Y-52194309D01*
X244445129Y-52263335D01*
X244400607Y-52319396D01*
X244295751Y-52224797D01*
X244329587Y-52178638D01*
X244354733Y-52127919D01*
X244370333Y-52072356D01*
X244375533Y-52011665D01*
X244369193Y-51958525D01*
X244350174Y-51916496D01*
X244278655Y-51880025D01*
X244210840Y-51910513D01*
X244186193Y-51954037D01*
X244161261Y-52023632D01*
X244131470Y-52107055D01*
X244098322Y-52172686D01*
X244061819Y-52220523D01*
X243996355Y-52264332D01*
X243914507Y-52278935D01*
X243847404Y-52268891D01*
X243790845Y-52238759D01*
X243745611Y-52191673D01*
X243712487Y-52130768D01*
X243692185Y-52059534D01*
X243685418Y-51981462D01*
X243692043Y-51895126D01*
X243711917Y-51819618D01*
X243744044Y-51754225D01*
X243787425Y-51698236D01*
X243888862Y-51786566D01*
X243859585Y-51828024D01*
X243838999Y-51872616D01*
X243826818Y-51919203D01*
X243822757Y-51966645D01*
X243842418Y-52052696D01*
X243900260Y-52085179D01*
X243942430Y-52070932D01*
X243974628Y-52021353D01*
X243990941Y-51979182D01*
X244009675Y-51923335D01*
X244034678Y-51854024D01*
X244064098Y-51795399D01*
X244099786Y-51748384D01*
X244143595Y-51713907D01*
X244197733Y-51692751D01*
X244264408Y-51685698D01*
X244333647Y-51695315D01*
G37*
G36*
X244495206Y-51543230D02*
G01*
X243705364Y-51543230D01*
X243705364Y-51026927D01*
X243838714Y-51045732D01*
X243838714Y-51356313D01*
X244028481Y-51356313D01*
X244028481Y-51082774D01*
X244159552Y-51082774D01*
X244159552Y-51356313D01*
X244361286Y-51356313D01*
X244361286Y-51026357D01*
X244495206Y-51026357D01*
X244495206Y-51543230D01*
G37*
%TO.C,C28*%
X245807836Y-50065000D02*
X245592164Y-50065000D01*
X245807836Y-50785000D02*
X245592164Y-50785000D01*
%TO.C,kibuzzard-62ADC3E7*%
G36*
X240922262Y-88989346D02*
G01*
X241070999Y-88345391D01*
X241262476Y-88345391D01*
X241034527Y-89135233D01*
X240803159Y-89135233D01*
X240576350Y-88345391D01*
X240774666Y-88345391D01*
X240922262Y-88989346D01*
G37*
G36*
X240460096Y-88474182D02*
G01*
X240171171Y-88474182D01*
X240171171Y-88644574D01*
X240231008Y-88625198D01*
X240287995Y-88619499D01*
X240346336Y-88627193D01*
X240399405Y-88650272D01*
X240444710Y-88687742D01*
X240479757Y-88738603D01*
X240502196Y-88801716D01*
X240509675Y-88875942D01*
X240499916Y-88951592D01*
X240470639Y-89018979D01*
X240423981Y-89075468D01*
X240362079Y-89118422D01*
X240286713Y-89145562D01*
X240199665Y-89154609D01*
X240118601Y-89146560D01*
X240047509Y-89122411D01*
X239986960Y-89084871D01*
X239937524Y-89036646D01*
X240041241Y-88942047D01*
X240107061Y-88997609D01*
X240185418Y-89016700D01*
X240241907Y-89007155D01*
X240286001Y-88978519D01*
X240314423Y-88934496D01*
X240323897Y-88878791D01*
X240316560Y-88816319D01*
X240294549Y-88774789D01*
X240217331Y-88743731D01*
X240171171Y-88749430D01*
X240120453Y-88769946D01*
X239999070Y-88769946D01*
X239999070Y-88345391D01*
X240480042Y-88345391D01*
X240460096Y-88474182D01*
G37*
%TO.C,C30*%
X248190000Y-43182836D02*
X248190000Y-42967164D01*
X248910000Y-43182836D02*
X248910000Y-42967164D01*
%TO.C,kibuzzard-62AF8074*%
G36*
X255441674Y-83701062D02*
G01*
X255086726Y-83701062D01*
X255086726Y-83917938D01*
X255399341Y-83917938D01*
X255399341Y-84067733D01*
X255086726Y-84067733D01*
X255086726Y-84298287D01*
X255463818Y-84298287D01*
X255463818Y-84451338D01*
X254873105Y-84451338D01*
X254873105Y-83548662D01*
X255463167Y-83548662D01*
X255441674Y-83701062D01*
G37*
G36*
X255868264Y-84282656D02*
G01*
X256259685Y-84282656D01*
X256237541Y-84451338D01*
X255654644Y-84451338D01*
X255654644Y-83548662D01*
X255868264Y-83548662D01*
X255868264Y-84282656D01*
G37*
G36*
X257004751Y-83701062D02*
G01*
X256649803Y-83701062D01*
X256649803Y-83917938D01*
X256962418Y-83917938D01*
X256962418Y-84067733D01*
X256649803Y-84067733D01*
X256649803Y-84298287D01*
X257026895Y-84298287D01*
X257026895Y-84451338D01*
X256436182Y-84451338D01*
X256436182Y-83548662D01*
X257026244Y-83548662D01*
X257004751Y-83701062D01*
G37*
%TO.C,kibuzzard-62ADD0E6*%
G36*
X261859811Y-58423758D02*
G01*
X261863271Y-58490464D01*
X261873651Y-58538343D01*
X261896140Y-58567193D01*
X261935929Y-58576809D01*
X261975719Y-58567193D01*
X261998208Y-58538343D01*
X262008588Y-58490464D01*
X262012048Y-58423758D01*
X262012048Y-58098117D01*
X262145968Y-58098117D01*
X262145968Y-58473418D01*
X262140117Y-58528218D01*
X262122563Y-58577013D01*
X262093357Y-58618023D01*
X262052550Y-58649468D01*
X262000091Y-58669464D01*
X261935929Y-58676130D01*
X261871463Y-58669719D01*
X261818902Y-58650486D01*
X261778146Y-58619855D01*
X261749093Y-58579252D01*
X261731692Y-58529998D01*
X261725891Y-58473418D01*
X261725891Y-58098117D01*
X261859811Y-58098117D01*
X261859811Y-58423758D01*
G37*
G36*
X263128793Y-58541701D02*
G01*
X263114750Y-58578030D01*
X263092566Y-58606728D01*
X263063462Y-58628505D01*
X263028608Y-58644176D01*
X262989175Y-58654556D01*
X262946383Y-58660357D01*
X262901455Y-58662290D01*
X262714212Y-58662290D01*
X262714212Y-58565005D01*
X262847724Y-58565005D01*
X262896978Y-58565005D01*
X262945620Y-58559510D01*
X262982051Y-58538139D01*
X262995891Y-58491736D01*
X262989531Y-58453880D01*
X262970450Y-58429864D01*
X262940786Y-58417042D01*
X262902676Y-58412768D01*
X262847724Y-58412768D01*
X262847724Y-58565005D01*
X262714212Y-58565005D01*
X262714212Y-58323216D01*
X262847724Y-58323216D01*
X262892907Y-58323216D01*
X262930101Y-58319248D01*
X262955389Y-58307341D01*
X262974724Y-58255646D01*
X262953761Y-58207410D01*
X262927048Y-58196267D01*
X262888837Y-58192553D01*
X262847724Y-58192553D01*
X262847724Y-58323216D01*
X262714212Y-58323216D01*
X262714212Y-58098117D01*
X262892907Y-58098117D01*
X262948826Y-58101373D01*
X263000165Y-58111143D01*
X263044432Y-58128798D01*
X263079133Y-58155715D01*
X263101572Y-58193113D01*
X263109051Y-58242213D01*
X263101317Y-58287599D01*
X263078115Y-58322809D01*
X263044534Y-58348046D01*
X263005660Y-58363514D01*
X263065293Y-58382442D01*
X263092260Y-58399895D01*
X263114139Y-58424165D01*
X263128641Y-58456220D01*
X263133474Y-58497027D01*
X263128793Y-58541701D01*
G37*
G36*
X262492979Y-58088602D02*
G01*
X262546913Y-58102798D01*
X262593623Y-58125746D01*
X262633615Y-58156732D01*
X262570522Y-58229187D01*
X262540909Y-58208275D01*
X262509058Y-58193571D01*
X262475781Y-58184870D01*
X262441894Y-58181970D01*
X262380429Y-58196013D01*
X262357228Y-58237329D01*
X262367404Y-58267450D01*
X262402817Y-58290449D01*
X262432939Y-58302101D01*
X262472830Y-58315482D01*
X262522338Y-58333342D01*
X262564213Y-58354356D01*
X262597795Y-58379847D01*
X262622421Y-58411139D01*
X262637533Y-58449809D01*
X262642571Y-58497434D01*
X262635702Y-58546891D01*
X262615095Y-58590242D01*
X262581665Y-58626164D01*
X262536330Y-58653335D01*
X262479852Y-58670431D01*
X262412994Y-58676130D01*
X262362678Y-58673529D01*
X262318105Y-58665727D01*
X262279277Y-58652724D01*
X262229973Y-58626520D01*
X262189929Y-58594720D01*
X262257500Y-58519822D01*
X262290471Y-58543991D01*
X262326699Y-58561952D01*
X262366386Y-58573095D01*
X262409737Y-58576809D01*
X262447695Y-58572281D01*
X262477715Y-58558696D01*
X262503766Y-58507611D01*
X262481989Y-58459171D01*
X262450900Y-58441567D01*
X262401189Y-58423758D01*
X262341601Y-58402478D01*
X262294723Y-58378801D01*
X262260553Y-58352728D01*
X262229261Y-58305968D01*
X262218830Y-58247505D01*
X262226004Y-58199575D01*
X262247527Y-58159175D01*
X262281160Y-58126865D01*
X262324663Y-58103205D01*
X262375545Y-58088704D01*
X262431311Y-58083870D01*
X262492979Y-58088602D01*
G37*
G36*
X261449910Y-58558085D02*
G01*
X261556151Y-58098117D01*
X261692920Y-58098117D01*
X261530099Y-58662290D01*
X261364837Y-58662290D01*
X261202830Y-58098117D01*
X261344484Y-58098117D01*
X261449910Y-58558085D01*
G37*
G36*
X261119792Y-58190111D02*
G01*
X260913417Y-58190111D01*
X260913417Y-58311819D01*
X260956157Y-58297979D01*
X260996862Y-58293909D01*
X261038534Y-58299404D01*
X261076441Y-58315889D01*
X261108801Y-58342653D01*
X261133835Y-58378982D01*
X261149863Y-58424063D01*
X261155205Y-58477082D01*
X261148234Y-58531118D01*
X261127322Y-58579252D01*
X261093995Y-58619601D01*
X261049779Y-58650282D01*
X260995946Y-58669668D01*
X260933769Y-58676130D01*
X260875866Y-58670380D01*
X260825087Y-58653131D01*
X260781837Y-58626317D01*
X260746526Y-58591870D01*
X260820609Y-58524300D01*
X260867623Y-58563987D01*
X260923593Y-58577623D01*
X260963942Y-58570805D01*
X260995438Y-58550351D01*
X261015739Y-58518906D01*
X261022506Y-58479117D01*
X261017266Y-58434494D01*
X261001543Y-58404830D01*
X260946388Y-58382646D01*
X260913417Y-58386716D01*
X260877189Y-58401370D01*
X260790487Y-58401370D01*
X260790487Y-58098117D01*
X261134038Y-58098117D01*
X261119792Y-58190111D01*
G37*
%TO.C,kibuzzard-62ADCE61*%
G36*
X243823402Y-56730499D02*
G01*
X243823402Y-56941921D01*
X244470206Y-56941921D01*
X244470206Y-57128839D01*
X243823402Y-57128839D01*
X243823402Y-57350520D01*
X243680364Y-57350520D01*
X243680364Y-56711123D01*
X243823402Y-56730499D01*
G37*
G36*
X244227567Y-57417764D02*
G01*
X244293261Y-57437710D01*
X244350755Y-57465475D01*
X244399004Y-57500902D01*
X244438008Y-57543991D01*
X244466660Y-57594615D01*
X244483851Y-57652647D01*
X244489582Y-57718087D01*
X244483978Y-57783242D01*
X244467167Y-57841179D01*
X244439148Y-57891898D01*
X244400808Y-57935145D01*
X244353034Y-57970667D01*
X244295825Y-57998464D01*
X244229973Y-58018409D01*
X244156270Y-58030377D01*
X244074715Y-58034366D01*
X243994743Y-58030377D01*
X243921989Y-58018409D01*
X243856454Y-57998464D01*
X243799119Y-57970667D01*
X243750965Y-57935145D01*
X243711992Y-57891898D01*
X243683340Y-57841179D01*
X243666149Y-57783242D01*
X243660418Y-57718087D01*
X243796618Y-57718087D01*
X243813215Y-57775359D01*
X243863008Y-57813825D01*
X243916037Y-57829972D01*
X243986607Y-57839660D01*
X244074715Y-57842889D01*
X244163109Y-57839596D01*
X244233773Y-57829718D01*
X244286707Y-57813255D01*
X244336286Y-57774647D01*
X244352812Y-57718087D01*
X244336073Y-57659746D01*
X244285853Y-57621494D01*
X244232633Y-57605822D01*
X244162254Y-57596419D01*
X244074715Y-57593285D01*
X243986322Y-57596514D01*
X243915658Y-57606202D01*
X243862723Y-57622348D01*
X243813144Y-57660815D01*
X243796618Y-57718087D01*
X243660418Y-57718087D01*
X243665990Y-57652647D01*
X243682707Y-57594615D01*
X243710567Y-57543991D01*
X243748748Y-57500902D01*
X243796428Y-57465475D01*
X243853605Y-57437710D01*
X243919457Y-57417764D01*
X243993160Y-57405797D01*
X244074715Y-57401808D01*
X244154719Y-57405797D01*
X244227567Y-57417764D01*
G37*
G36*
X244352243Y-58803123D02*
G01*
X244392419Y-58834181D01*
X244422907Y-58874927D01*
X244444847Y-58923722D01*
X244459379Y-58978928D01*
X244467499Y-59038836D01*
X244470206Y-59101736D01*
X244470206Y-59363877D01*
X243680364Y-59363877D01*
X243680364Y-59176959D01*
X243812574Y-59176959D01*
X243995503Y-59176959D01*
X244120875Y-59176959D01*
X244334007Y-59176959D01*
X244334007Y-59108004D01*
X244326313Y-59039904D01*
X244296395Y-58988901D01*
X244231430Y-58969525D01*
X244178432Y-58978430D01*
X244144809Y-59005142D01*
X244126858Y-59046672D01*
X244120875Y-59100026D01*
X244120875Y-59176959D01*
X243995503Y-59176959D01*
X243995503Y-59113703D01*
X243989947Y-59061631D01*
X243973278Y-59026228D01*
X243900904Y-58999159D01*
X243833374Y-59028507D01*
X243817774Y-59065905D01*
X243812574Y-59119402D01*
X243812574Y-59176959D01*
X243680364Y-59176959D01*
X243680364Y-59113703D01*
X243684923Y-59035417D01*
X243698600Y-58963542D01*
X243723318Y-58901568D01*
X243761001Y-58852987D01*
X243813358Y-58821572D01*
X243882098Y-58811101D01*
X243945639Y-58821929D01*
X243994933Y-58854411D01*
X244030265Y-58901426D01*
X244051920Y-58955848D01*
X244078419Y-58872362D01*
X244102852Y-58834608D01*
X244136831Y-58803978D01*
X244181708Y-58783676D01*
X244238838Y-58776909D01*
X244301382Y-58783462D01*
X244352243Y-58803123D01*
G37*
G36*
X244227567Y-58101611D02*
G01*
X244293261Y-58121556D01*
X244350755Y-58149322D01*
X244399004Y-58184749D01*
X244438008Y-58227837D01*
X244466660Y-58278461D01*
X244483851Y-58336493D01*
X244489582Y-58401933D01*
X244483978Y-58467088D01*
X244467167Y-58525025D01*
X244439148Y-58575744D01*
X244400808Y-58618991D01*
X244353034Y-58654513D01*
X244295825Y-58682310D01*
X244229973Y-58702255D01*
X244156270Y-58714223D01*
X244074715Y-58718212D01*
X243994743Y-58714223D01*
X243921989Y-58702255D01*
X243856454Y-58682310D01*
X243799119Y-58654513D01*
X243750965Y-58618991D01*
X243711992Y-58575744D01*
X243683340Y-58525025D01*
X243666149Y-58467088D01*
X243660418Y-58401933D01*
X243796618Y-58401933D01*
X243813215Y-58459205D01*
X243863008Y-58497671D01*
X243916037Y-58513818D01*
X243986607Y-58523506D01*
X244074715Y-58526735D01*
X244163109Y-58523442D01*
X244233773Y-58513565D01*
X244286707Y-58497102D01*
X244336286Y-58458493D01*
X244352812Y-58401933D01*
X244336073Y-58343592D01*
X244285853Y-58305340D01*
X244232633Y-58289668D01*
X244162254Y-58280265D01*
X244074715Y-58277131D01*
X243986322Y-58280360D01*
X243915658Y-58290048D01*
X243862723Y-58306195D01*
X243813144Y-58344661D01*
X243796618Y-58401933D01*
X243660418Y-58401933D01*
X243665990Y-58336493D01*
X243682707Y-58278461D01*
X243710567Y-58227837D01*
X243748748Y-58184749D01*
X243796428Y-58149322D01*
X243853605Y-58121556D01*
X243919457Y-58101611D01*
X243993160Y-58089643D01*
X244074715Y-58085654D01*
X244154719Y-58089643D01*
X244227567Y-58101611D01*
G37*
%TO.C,kibuzzard-62ADCE31*%
G36*
X247682619Y-58922048D02*
G01*
X247728707Y-58973194D01*
X247761546Y-59034313D01*
X248094921Y-58827449D01*
X248094921Y-59038872D01*
X247792889Y-59209833D01*
X247792889Y-59262831D01*
X248094921Y-59262831D01*
X248094921Y-59449749D01*
X247305079Y-59449749D01*
X247305079Y-59262831D01*
X247436149Y-59262831D01*
X247664668Y-59262831D01*
X247664668Y-59193307D01*
X247657545Y-59139597D01*
X247636174Y-59100418D01*
X247599133Y-59076483D01*
X247544995Y-59068505D01*
X247495772Y-59076840D01*
X247462079Y-59101843D01*
X247442632Y-59143230D01*
X247436149Y-59200715D01*
X247436149Y-59262831D01*
X247305079Y-59262831D01*
X247305079Y-59201285D01*
X247311601Y-59102571D01*
X247331166Y-59021459D01*
X247363776Y-58957950D01*
X247409999Y-58912360D01*
X247470405Y-58885006D01*
X247544995Y-58875888D01*
X247621856Y-58887428D01*
X247682619Y-58922048D01*
G37*
G36*
X248094921Y-60777551D02*
G01*
X247305079Y-60777551D01*
X247305079Y-60261247D01*
X247438429Y-60280053D01*
X247438429Y-60590633D01*
X247628196Y-60590633D01*
X247628196Y-60317094D01*
X247759267Y-60317094D01*
X247759267Y-60590633D01*
X247961001Y-60590633D01*
X247961001Y-60260677D01*
X248094921Y-60260677D01*
X248094921Y-60777551D01*
G37*
G36*
X247682619Y-59605894D02*
G01*
X247728707Y-59657040D01*
X247761546Y-59718159D01*
X248094921Y-59511296D01*
X248094921Y-59722718D01*
X247792889Y-59893679D01*
X247792889Y-59946678D01*
X248094921Y-59946678D01*
X248094921Y-60133596D01*
X247305079Y-60133596D01*
X247305079Y-59946678D01*
X247436149Y-59946678D01*
X247664668Y-59946678D01*
X247664668Y-59877153D01*
X247657545Y-59823443D01*
X247636174Y-59784264D01*
X247599133Y-59760329D01*
X247544995Y-59752351D01*
X247495772Y-59760686D01*
X247462079Y-59785689D01*
X247442632Y-59827076D01*
X247436149Y-59884562D01*
X247436149Y-59946678D01*
X247305079Y-59946678D01*
X247305079Y-59885131D01*
X247311601Y-59786417D01*
X247331166Y-59705305D01*
X247363776Y-59641796D01*
X247409999Y-59596206D01*
X247470405Y-59568853D01*
X247544995Y-59559735D01*
X247621856Y-59571275D01*
X247682619Y-59605894D01*
G37*
%TO.C,C32*%
X250817164Y-51435000D02*
X251032836Y-51435000D01*
X250817164Y-50715000D02*
X251032836Y-50715000D01*
%TO.C,C29*%
X248332836Y-44240000D02*
X248117164Y-44240000D01*
X248332836Y-44960000D02*
X248117164Y-44960000D01*
%TO.C,R17*%
X246303641Y-44220000D02*
X245996359Y-44220000D01*
X246303641Y-44980000D02*
X245996359Y-44980000D01*
%TO.C,kibuzzard-62ADC89D*%
G36*
X252393311Y-80002904D02*
G01*
X252342165Y-80048992D01*
X252281046Y-80081831D01*
X252487910Y-80415206D01*
X252276487Y-80415206D01*
X252105526Y-80113174D01*
X252052528Y-80113174D01*
X252052528Y-80415206D01*
X251865610Y-80415206D01*
X251865610Y-79984953D01*
X252052528Y-79984953D01*
X252122052Y-79984953D01*
X252175762Y-79977829D01*
X252214941Y-79956459D01*
X252238876Y-79919418D01*
X252246854Y-79865280D01*
X252238519Y-79816057D01*
X252213516Y-79782363D01*
X252172129Y-79762917D01*
X252114644Y-79756434D01*
X252052528Y-79756434D01*
X252052528Y-79984953D01*
X251865610Y-79984953D01*
X251865610Y-79625364D01*
X252114074Y-79625364D01*
X252212788Y-79631886D01*
X252293900Y-79651451D01*
X252357409Y-79684061D01*
X252402999Y-79730284D01*
X252430353Y-79790690D01*
X252439471Y-79865280D01*
X252427931Y-79942141D01*
X252393311Y-80002904D01*
G37*
G36*
X252921297Y-79612043D02*
G01*
X252996805Y-79631917D01*
X253062198Y-79664044D01*
X253118188Y-79707425D01*
X253029858Y-79808862D01*
X252988400Y-79779585D01*
X252943807Y-79758999D01*
X252897220Y-79746818D01*
X252849778Y-79742757D01*
X252763728Y-79762418D01*
X252731245Y-79820260D01*
X252745492Y-79862430D01*
X252795071Y-79894628D01*
X252837241Y-79910941D01*
X252893088Y-79929675D01*
X252962399Y-79954678D01*
X253021025Y-79984098D01*
X253068039Y-80019786D01*
X253102516Y-80063595D01*
X253123673Y-80117733D01*
X253130725Y-80184408D01*
X253121108Y-80253647D01*
X253092259Y-80314339D01*
X253045458Y-80364630D01*
X252981988Y-80402669D01*
X252902919Y-80426604D01*
X252809317Y-80434582D01*
X252738875Y-80430941D01*
X252676474Y-80420018D01*
X252622114Y-80401814D01*
X252553089Y-80365129D01*
X252497028Y-80320607D01*
X252591626Y-80215751D01*
X252637786Y-80249587D01*
X252688504Y-80274733D01*
X252744067Y-80290333D01*
X252804758Y-80295533D01*
X252857899Y-80289193D01*
X252899927Y-80270174D01*
X252936399Y-80198655D01*
X252905911Y-80130840D01*
X252862387Y-80106193D01*
X252792791Y-80081261D01*
X252709368Y-80051470D01*
X252643738Y-80018322D01*
X252595900Y-79981819D01*
X252552091Y-79916355D01*
X252537488Y-79834507D01*
X252547532Y-79767404D01*
X252577664Y-79710845D01*
X252624750Y-79665611D01*
X252685655Y-79632487D01*
X252756889Y-79612185D01*
X252834962Y-79605418D01*
X252921297Y-79612043D01*
G37*
G36*
X251361843Y-79928536D02*
G01*
X251553320Y-79928536D01*
X251553320Y-79625364D01*
X251740238Y-79625364D01*
X251740238Y-80415206D01*
X251553320Y-80415206D01*
X251553320Y-80082401D01*
X251361843Y-80082401D01*
X251361843Y-80415206D01*
X251174925Y-80415206D01*
X251174925Y-79625364D01*
X251361843Y-79625364D01*
X251361843Y-79928536D01*
G37*
G36*
X250656342Y-80244814D02*
G01*
X250614741Y-80415206D01*
X250419275Y-80415206D01*
X250512892Y-80109185D01*
X250685975Y-80109185D01*
X250856937Y-80109185D01*
X250771456Y-79759854D01*
X250685975Y-80109185D01*
X250512892Y-80109185D01*
X250660901Y-79625364D01*
X250887710Y-79625364D01*
X251129335Y-80415206D01*
X250929310Y-80415206D01*
X250887710Y-80244814D01*
X250656342Y-80244814D01*
G37*
%TO.C,kibuzzard-62AF8092*%
G36*
X262258985Y-83980462D02*
G01*
X262200532Y-84033134D01*
X262130682Y-84070664D01*
X262367097Y-84451664D01*
X262125472Y-84451664D01*
X261930087Y-84106485D01*
X261869518Y-84106485D01*
X261869518Y-84451664D01*
X261655897Y-84451664D01*
X261655897Y-83959946D01*
X261869518Y-83959946D01*
X261948974Y-83959946D01*
X262010358Y-83951805D01*
X262055133Y-83927382D01*
X262082487Y-83885049D01*
X262091605Y-83823177D01*
X262082080Y-83766922D01*
X262053505Y-83728415D01*
X262006206Y-83706190D01*
X261940508Y-83698782D01*
X261869518Y-83698782D01*
X261869518Y-83959946D01*
X261655897Y-83959946D01*
X261655897Y-83548987D01*
X261939856Y-83548987D01*
X262052673Y-83556441D01*
X262145372Y-83578801D01*
X262217954Y-83616069D01*
X262270056Y-83668895D01*
X262301318Y-83737931D01*
X262311738Y-83823177D01*
X262298550Y-83911019D01*
X262258985Y-83980462D01*
G37*
G36*
X261536713Y-83712459D02*
G01*
X261295087Y-83712459D01*
X261295087Y-84451664D01*
X261081467Y-84451664D01*
X261081467Y-83712459D01*
X260828118Y-83712459D01*
X260828118Y-83548987D01*
X261558856Y-83548987D01*
X261536713Y-83712459D01*
G37*
G36*
X260517782Y-83533763D02*
G01*
X260604077Y-83556477D01*
X260678812Y-83593193D01*
X260742800Y-83642772D01*
X260641851Y-83758700D01*
X260594471Y-83725240D01*
X260543508Y-83701713D01*
X260490265Y-83687792D01*
X260436046Y-83683151D01*
X260337703Y-83705621D01*
X260300579Y-83771726D01*
X260316862Y-83819921D01*
X260373523Y-83856718D01*
X260421718Y-83875361D01*
X260485544Y-83896772D01*
X260564756Y-83925347D01*
X260631756Y-83958969D01*
X260685487Y-83999756D01*
X260724890Y-84049823D01*
X260749069Y-84111695D01*
X260757128Y-84187895D01*
X260746138Y-84267026D01*
X260713167Y-84336387D01*
X260659680Y-84393863D01*
X260587144Y-84437336D01*
X260496778Y-84464690D01*
X260389805Y-84473808D01*
X260309299Y-84469647D01*
X260237984Y-84457164D01*
X260175859Y-84436359D01*
X260096972Y-84394433D01*
X260032903Y-84343551D01*
X260141015Y-84223715D01*
X260193769Y-84262385D01*
X260251733Y-84291123D01*
X260315233Y-84308952D01*
X260384595Y-84314895D01*
X260445327Y-84307649D01*
X260493359Y-84285913D01*
X260535041Y-84204177D01*
X260500197Y-84126674D01*
X260450456Y-84098506D01*
X260370918Y-84070013D01*
X260275577Y-84035965D01*
X260200572Y-83998082D01*
X260145900Y-83956364D01*
X260095833Y-83881548D01*
X260079144Y-83788008D01*
X260090622Y-83711319D01*
X260125059Y-83646679D01*
X260178871Y-83594984D01*
X260248477Y-83557128D01*
X260329887Y-83533926D01*
X260419113Y-83526192D01*
X260517782Y-83533763D01*
G37*
%TO.C,kibuzzard-62ADCE22*%
G36*
X246032619Y-60212074D02*
G01*
X246078707Y-60263220D01*
X246111546Y-60324339D01*
X246444921Y-60117476D01*
X246444921Y-60328898D01*
X246142889Y-60499860D01*
X246142889Y-60552858D01*
X246444921Y-60552858D01*
X246444921Y-60739776D01*
X245655079Y-60739776D01*
X245655079Y-60552858D01*
X245786149Y-60552858D01*
X246014668Y-60552858D01*
X246014668Y-60483333D01*
X246007545Y-60429623D01*
X245986174Y-60390444D01*
X245949133Y-60366510D01*
X245894995Y-60358531D01*
X245845772Y-60366866D01*
X245812079Y-60391869D01*
X245792632Y-60433256D01*
X245786149Y-60490742D01*
X245786149Y-60552858D01*
X245655079Y-60552858D01*
X245655079Y-60491312D01*
X245661601Y-60392597D01*
X245681166Y-60311485D01*
X245713776Y-60247976D01*
X245759999Y-60202387D01*
X245820405Y-60175033D01*
X245894995Y-60165915D01*
X245971856Y-60177455D01*
X246032619Y-60212074D01*
G37*
G36*
X246187592Y-59481309D02*
G01*
X246244326Y-59498880D01*
X246313779Y-59536135D01*
X246365994Y-59584646D01*
X246403107Y-59642416D01*
X246427255Y-59707453D01*
X246440505Y-59777333D01*
X246444921Y-59849636D01*
X246444921Y-60062768D01*
X245655079Y-60062768D01*
X245655079Y-59875850D01*
X245790708Y-59875850D01*
X246309862Y-59875850D01*
X246309862Y-59835959D01*
X246304234Y-59787235D01*
X246287352Y-59744779D01*
X246256080Y-59709732D01*
X246207285Y-59683233D01*
X246138188Y-59666565D01*
X246046011Y-59661008D01*
X245952409Y-59666778D01*
X245884737Y-59684088D01*
X245838791Y-59711300D01*
X245810369Y-59746774D01*
X245795623Y-59788873D01*
X245790708Y-59835959D01*
X245790708Y-59875850D01*
X245655079Y-59875850D01*
X245655079Y-59863313D01*
X245658997Y-59788731D01*
X245670750Y-59716571D01*
X245692975Y-59649326D01*
X245728307Y-59589489D01*
X245778883Y-59539127D01*
X245846841Y-59500304D01*
X245903036Y-59481942D01*
X245969426Y-59470924D01*
X246046011Y-59467252D01*
X246121487Y-59470766D01*
X246187592Y-59481309D01*
G37*
G36*
X246148588Y-59002806D02*
G01*
X246444921Y-59002806D01*
X246444921Y-59189724D01*
X246149728Y-59189724D01*
X245655079Y-59447306D01*
X245655079Y-59242722D01*
X245995292Y-59092846D01*
X245655079Y-58941830D01*
X245655079Y-58745224D01*
X246148588Y-59002806D01*
G37*
%TO.C,kibuzzard-62AF804C*%
G36*
X253831393Y-82386386D02*
G01*
X253772941Y-82439058D01*
X253703091Y-82476588D01*
X253939506Y-82857588D01*
X253697880Y-82857588D01*
X253502496Y-82512409D01*
X253441927Y-82512409D01*
X253441927Y-82857588D01*
X253228306Y-82857588D01*
X253228306Y-82365871D01*
X253441927Y-82365871D01*
X253521383Y-82365871D01*
X253582766Y-82357729D01*
X253627542Y-82333306D01*
X253654896Y-82290973D01*
X253664014Y-82229101D01*
X253654489Y-82172847D01*
X253625914Y-82134340D01*
X253578614Y-82112115D01*
X253512916Y-82104706D01*
X253441927Y-82104706D01*
X253441927Y-82365871D01*
X253228306Y-82365871D01*
X253228306Y-81954912D01*
X253512265Y-81954912D01*
X253625082Y-81962365D01*
X253717781Y-81984726D01*
X253790362Y-82021994D01*
X253842465Y-82074820D01*
X253873727Y-82143856D01*
X253884147Y-82229101D01*
X253870959Y-82316943D01*
X253831393Y-82386386D01*
G37*
G36*
X254254567Y-84277694D02*
G01*
X254643000Y-84277694D01*
X254621025Y-84445088D01*
X254042578Y-84445088D01*
X254042578Y-83549302D01*
X254254567Y-83549302D01*
X254254567Y-84277694D01*
G37*
G36*
X253825417Y-83704417D02*
G01*
X253640573Y-83704417D01*
X253640573Y-84289328D01*
X253825417Y-84289328D01*
X253825417Y-84445088D01*
X253243738Y-84445088D01*
X253243738Y-84289328D01*
X253428583Y-84289328D01*
X253428583Y-83704417D01*
X253243738Y-83704417D01*
X253243738Y-83549302D01*
X253825417Y-83549302D01*
X253825417Y-83704417D01*
G37*
G36*
X252625865Y-84251842D02*
G01*
X252578684Y-84445088D01*
X252357000Y-84445088D01*
X252463174Y-84098020D01*
X252659473Y-84098020D01*
X252853366Y-84098020D01*
X252756420Y-83701831D01*
X252659473Y-84098020D01*
X252463174Y-84098020D01*
X252631036Y-83549302D01*
X252888267Y-83549302D01*
X253162303Y-84445088D01*
X252935448Y-84445088D01*
X252888267Y-84251842D01*
X252625865Y-84251842D01*
G37*
%TO.C,Q1*%
X245230000Y-45880000D02*
X245600000Y-45880000D01*
X245230000Y-49420000D02*
X245600000Y-49420000D01*
X245230000Y-45880000D02*
X245230000Y-49420000D01*
X248770000Y-49420000D02*
X248770000Y-45650000D01*
X248770000Y-49420000D02*
X248400000Y-49420000D01*
%TO.C,kibuzzard-62ADCCBA*%
G36*
X247830871Y-94547931D02*
G01*
X247779725Y-94594019D01*
X247718607Y-94626858D01*
X247925470Y-94960233D01*
X247714048Y-94960233D01*
X247543086Y-94658201D01*
X247490088Y-94658201D01*
X247490088Y-94960233D01*
X247303170Y-94960233D01*
X247303170Y-94529980D01*
X247490088Y-94529980D01*
X247559612Y-94529980D01*
X247613323Y-94522857D01*
X247652502Y-94501487D01*
X247676436Y-94464445D01*
X247684414Y-94410307D01*
X247676080Y-94361084D01*
X247651077Y-94327391D01*
X247609690Y-94307944D01*
X247552204Y-94301462D01*
X247490088Y-94301462D01*
X247490088Y-94529980D01*
X247303170Y-94529980D01*
X247303170Y-94170391D01*
X247551634Y-94170391D01*
X247650349Y-94176913D01*
X247731460Y-94196478D01*
X247794970Y-94229088D01*
X247840559Y-94275311D01*
X247867913Y-94335717D01*
X247877031Y-94410307D01*
X247865491Y-94487169D01*
X247830871Y-94547931D01*
G37*
G36*
X248566576Y-94313429D02*
G01*
X248355153Y-94313429D01*
X248355153Y-94960233D01*
X248168236Y-94960233D01*
X248168236Y-94313429D01*
X247946555Y-94313429D01*
X247946555Y-94170391D01*
X248585952Y-94170391D01*
X248566576Y-94313429D01*
G37*
G36*
X246777748Y-94789842D02*
G01*
X246736148Y-94960233D01*
X246540682Y-94960233D01*
X246634299Y-94654212D01*
X246807382Y-94654212D01*
X246978343Y-94654212D01*
X246892862Y-94304881D01*
X246807382Y-94654212D01*
X246634299Y-94654212D01*
X246782307Y-94170391D01*
X247009116Y-94170391D01*
X247250742Y-94960233D01*
X247050717Y-94960233D01*
X247009116Y-94789842D01*
X246777748Y-94789842D01*
G37*
G36*
X249085159Y-94824034D02*
G01*
X249232756Y-94824034D01*
X249232756Y-94960233D01*
X248719302Y-94960233D01*
X248719302Y-94824034D01*
X248909639Y-94824034D01*
X248909639Y-94347621D01*
X248747225Y-94449058D01*
X248670862Y-94325396D01*
X248925595Y-94170391D01*
X249085159Y-94170391D01*
X249085159Y-94824034D01*
G37*
G36*
X246104730Y-94626288D02*
G01*
X246109574Y-94719676D01*
X246124105Y-94786707D01*
X246155591Y-94827097D01*
X246211296Y-94840560D01*
X246267001Y-94827097D01*
X246298486Y-94786707D01*
X246313018Y-94719676D01*
X246317862Y-94626288D01*
X246317862Y-94170391D01*
X246505350Y-94170391D01*
X246505350Y-94695813D01*
X246497158Y-94772532D01*
X246472582Y-94840845D01*
X246431694Y-94898260D01*
X246374564Y-94942282D01*
X246301122Y-94970277D01*
X246211296Y-94979609D01*
X246121042Y-94970633D01*
X246047458Y-94943707D01*
X245990399Y-94900824D01*
X245949725Y-94843979D01*
X245925363Y-94775025D01*
X245917242Y-94695813D01*
X245917242Y-94170391D01*
X246104730Y-94170391D01*
X246104730Y-94626288D01*
G37*
%TO.C,kibuzzard-62ADCC62*%
G36*
X250953865Y-99237352D02*
G01*
X250944605Y-99175663D01*
X250935060Y-99098873D01*
X250929677Y-99040176D01*
X250926448Y-98976540D01*
X250925372Y-98907966D01*
X250925372Y-98605364D01*
X251084366Y-98605364D01*
X251084366Y-99395206D01*
X250857557Y-99395206D01*
X250649554Y-98759799D01*
X250661521Y-98846135D01*
X250667861Y-98901768D01*
X250673204Y-98963243D01*
X250676836Y-99028921D01*
X250678047Y-99097163D01*
X250678047Y-99395206D01*
X250519053Y-99395206D01*
X250519053Y-98605364D01*
X250752131Y-98605364D01*
X250953865Y-99237352D01*
G37*
G36*
X251784359Y-99137877D02*
G01*
X251766788Y-99194611D01*
X251729532Y-99264064D01*
X251681022Y-99316279D01*
X251623251Y-99353392D01*
X251558214Y-99377540D01*
X251488334Y-99390790D01*
X251416031Y-99395206D01*
X251202899Y-99395206D01*
X251202899Y-99260146D01*
X251389817Y-99260146D01*
X251429708Y-99260146D01*
X251478432Y-99254519D01*
X251520888Y-99237637D01*
X251555935Y-99206365D01*
X251582434Y-99157570D01*
X251599103Y-99088473D01*
X251604659Y-98996296D01*
X251598889Y-98902694D01*
X251581579Y-98835022D01*
X251554368Y-98789076D01*
X251518893Y-98760654D01*
X251476794Y-98745908D01*
X251429708Y-98740993D01*
X251389817Y-98740993D01*
X251389817Y-99260146D01*
X251202899Y-99260146D01*
X251202899Y-98605364D01*
X251402354Y-98605364D01*
X251476936Y-98609282D01*
X251549096Y-98621035D01*
X251616341Y-98643260D01*
X251676178Y-98678592D01*
X251726540Y-98729168D01*
X251765363Y-98797126D01*
X251783725Y-98853321D01*
X251794743Y-98919711D01*
X251798415Y-98996296D01*
X251794901Y-99071772D01*
X251784359Y-99137877D01*
G37*
G36*
X250248364Y-98592114D02*
G01*
X250314469Y-98612202D01*
X250370459Y-98643260D01*
X250419896Y-98682866D01*
X250321878Y-98784304D01*
X250252923Y-98737004D01*
X250177700Y-98721618D01*
X250127623Y-98728670D01*
X250083386Y-98749826D01*
X250046416Y-98786298D01*
X250018136Y-98839296D01*
X250000185Y-98910031D01*
X249994201Y-98999715D01*
X249998404Y-99092319D01*
X250011013Y-99163838D01*
X250032169Y-99216195D01*
X250062016Y-99251313D01*
X250100767Y-99271188D01*
X250148637Y-99277812D01*
X250201065Y-99271259D01*
X250246654Y-99253878D01*
X250246654Y-99073229D01*
X250147497Y-99073229D01*
X250129261Y-98942158D01*
X250423315Y-98942158D01*
X250423315Y-99334800D01*
X250361840Y-99367567D01*
X250295948Y-99392927D01*
X250224643Y-99409168D01*
X250146927Y-99414582D01*
X250067839Y-99407939D01*
X249998689Y-99388011D01*
X249939476Y-99354799D01*
X249890200Y-99308301D01*
X249851431Y-99249087D01*
X249823738Y-99177729D01*
X249807123Y-99094225D01*
X249801585Y-98998575D01*
X249807030Y-98913633D01*
X249823366Y-98838125D01*
X249850594Y-98772051D01*
X249887065Y-98715666D01*
X249931135Y-98669221D01*
X249982804Y-98632718D01*
X250040424Y-98606440D01*
X250102350Y-98590674D01*
X250168582Y-98585418D01*
X250248364Y-98592114D01*
G37*
%TO.C,J8*%
X259755000Y-87530000D02*
X241915000Y-87530000D01*
X261025000Y-84870000D02*
X262355000Y-84870000D01*
X262355000Y-84870000D02*
X262355000Y-86200000D01*
X241915000Y-84870000D02*
X241915000Y-87530000D01*
X259755000Y-84870000D02*
X259755000Y-87530000D01*
X259755000Y-84870000D02*
X241915000Y-84870000D01*
%TO.C,J9*%
X244495000Y-92630000D02*
X262335000Y-92630000D01*
X241895000Y-87430000D02*
X262335000Y-87430000D01*
X241895000Y-90030000D02*
X241895000Y-87430000D01*
X262335000Y-92630000D02*
X262335000Y-87430000D01*
X243225000Y-92630000D02*
X241895000Y-92630000D01*
X241895000Y-92630000D02*
X241895000Y-91300000D01*
X244495000Y-90030000D02*
X241895000Y-90030000D01*
X244495000Y-92630000D02*
X244495000Y-90030000D01*
%TO.C,C23*%
X250812164Y-49565000D02*
X251027836Y-49565000D01*
X250812164Y-50285000D02*
X251027836Y-50285000D01*
%TO.C,D8*%
X247780000Y-41565000D02*
X246850000Y-41565000D01*
X244620000Y-41565000D02*
X245550000Y-41565000D01*
X244620000Y-41565000D02*
X244620000Y-43725000D01*
X247780000Y-41565000D02*
X247780000Y-43025000D01*
%TO.C,C21*%
X250812164Y-48240000D02*
X251027836Y-48240000D01*
X250812164Y-48960000D02*
X251027836Y-48960000D01*
%TO.C,kibuzzard-62ADD0C2*%
G36*
X258674822Y-58570962D02*
G01*
X258781062Y-58110994D01*
X258917832Y-58110994D01*
X258755011Y-58675167D01*
X258589748Y-58675167D01*
X258427742Y-58110994D01*
X258569396Y-58110994D01*
X258674822Y-58570962D01*
G37*
G36*
X259565450Y-58553458D02*
G01*
X259535736Y-58675167D01*
X259396117Y-58675167D01*
X259462986Y-58456580D01*
X259586617Y-58456580D01*
X259708732Y-58456580D01*
X259647675Y-58207058D01*
X259586617Y-58456580D01*
X259462986Y-58456580D01*
X259568707Y-58110994D01*
X259730713Y-58110994D01*
X259903303Y-58675167D01*
X259760428Y-58675167D01*
X259730713Y-58553458D01*
X259565450Y-58553458D01*
G37*
G36*
X258344704Y-58202987D02*
G01*
X258138329Y-58202987D01*
X258138329Y-58324696D01*
X258181069Y-58310856D01*
X258221774Y-58306785D01*
X258263446Y-58312280D01*
X258301353Y-58328766D01*
X258333713Y-58355530D01*
X258358747Y-58391859D01*
X258374774Y-58436940D01*
X258380117Y-58489958D01*
X258373146Y-58543994D01*
X258352234Y-58592128D01*
X258318907Y-58632477D01*
X258274691Y-58663159D01*
X258220858Y-58682544D01*
X258158681Y-58689006D01*
X258100778Y-58683257D01*
X258049998Y-58666008D01*
X258006749Y-58639194D01*
X257971437Y-58604747D01*
X258045521Y-58537176D01*
X258092535Y-58576864D01*
X258148505Y-58590500D01*
X258188854Y-58583682D01*
X258220349Y-58563228D01*
X258240651Y-58531783D01*
X258247418Y-58491994D01*
X258242177Y-58447371D01*
X258226455Y-58417707D01*
X258171300Y-58395522D01*
X258138329Y-58399593D01*
X258102101Y-58414247D01*
X258015399Y-58414247D01*
X258015399Y-58110994D01*
X258358950Y-58110994D01*
X258344704Y-58202987D01*
G37*
G36*
X260354723Y-58213163D02*
G01*
X260203707Y-58213163D01*
X260203707Y-58675167D01*
X260070194Y-58675167D01*
X260070194Y-58213163D01*
X259911851Y-58213163D01*
X259911851Y-58110994D01*
X260368563Y-58110994D01*
X260354723Y-58213163D01*
G37*
G36*
X259376782Y-58554578D02*
G01*
X259362739Y-58590907D01*
X259340554Y-58619604D01*
X259311450Y-58641381D01*
X259276597Y-58657053D01*
X259237163Y-58667433D01*
X259194372Y-58673233D01*
X259149444Y-58675167D01*
X258962200Y-58675167D01*
X258962200Y-58577881D01*
X259095713Y-58577881D01*
X259144966Y-58577881D01*
X259193609Y-58572386D01*
X259230040Y-58551016D01*
X259243880Y-58504612D01*
X259237520Y-58466756D01*
X259218439Y-58442740D01*
X259188775Y-58429918D01*
X259150665Y-58425644D01*
X259095713Y-58425644D01*
X259095713Y-58577881D01*
X258962200Y-58577881D01*
X258962200Y-58336093D01*
X259095713Y-58336093D01*
X259140896Y-58336093D01*
X259178090Y-58332124D01*
X259203378Y-58320218D01*
X259222713Y-58268522D01*
X259201750Y-58220287D01*
X259175037Y-58209144D01*
X259136825Y-58205429D01*
X259095713Y-58205429D01*
X259095713Y-58336093D01*
X258962200Y-58336093D01*
X258962200Y-58110994D01*
X259140896Y-58110994D01*
X259196815Y-58114250D01*
X259248154Y-58124019D01*
X259292421Y-58141675D01*
X259327122Y-58168591D01*
X259349560Y-58205989D01*
X259357040Y-58255090D01*
X259349306Y-58300476D01*
X259326104Y-58335686D01*
X259292522Y-58360923D01*
X259253649Y-58376391D01*
X259313282Y-58395319D01*
X259340249Y-58412771D01*
X259362128Y-58437042D01*
X259376629Y-58469097D01*
X259381463Y-58509904D01*
X259376782Y-58554578D01*
G37*
%TO.C,kibuzzard-62ADCE43*%
G36*
X249705206Y-59946650D02*
G01*
X249705206Y-60142116D01*
X248915364Y-59900491D01*
X248915364Y-59789936D01*
X249049854Y-59789936D01*
X249399185Y-59875416D01*
X249399185Y-59704455D01*
X249049854Y-59789936D01*
X248915364Y-59789936D01*
X248915364Y-59673682D01*
X249705206Y-59432056D01*
X249705206Y-59632081D01*
X249534814Y-59673682D01*
X249534814Y-59905050D01*
X249705206Y-59946650D01*
G37*
G36*
X249658762Y-60191125D02*
G01*
X249693239Y-60250962D01*
X249716746Y-60322623D01*
X249724582Y-60407677D01*
X249719295Y-60476409D01*
X249703433Y-60539760D01*
X249676997Y-60597729D01*
X249640272Y-60649017D01*
X249593543Y-60692328D01*
X249536809Y-60727660D01*
X249470292Y-60753779D01*
X249394214Y-60769450D01*
X249308575Y-60774674D01*
X249224867Y-60769260D01*
X249150024Y-60753019D01*
X249084046Y-60725950D01*
X249027407Y-60689573D01*
X248980582Y-60645408D01*
X248943572Y-60593455D01*
X248916820Y-60535328D01*
X248900769Y-60472642D01*
X248895418Y-60405397D01*
X248901046Y-60326826D01*
X248917928Y-60260935D01*
X248945068Y-60203876D01*
X248981469Y-60151804D01*
X249092024Y-60243554D01*
X249049569Y-60315357D01*
X249033897Y-60400838D01*
X249040949Y-60448280D01*
X249062106Y-60491448D01*
X249098435Y-60528347D01*
X249151006Y-60556983D01*
X249220744Y-60575361D01*
X249308575Y-60581488D01*
X249394911Y-60575757D01*
X249463960Y-60558566D01*
X249515724Y-60529914D01*
X249564234Y-60471004D01*
X249580404Y-60397419D01*
X249574848Y-60343139D01*
X249558179Y-60298831D01*
X249509740Y-60226457D01*
X249618016Y-60141546D01*
X249658762Y-60191125D01*
G37*
G36*
X249705206Y-58829702D02*
G01*
X249705206Y-59339737D01*
X248915364Y-59339737D01*
X248915364Y-59152819D01*
X249557609Y-59152819D01*
X249557609Y-58810326D01*
X249705206Y-58829702D01*
G37*
%TO.C,kibuzzard-62ADCEA8*%
G36*
X242879771Y-44842043D02*
G01*
X242955279Y-44861917D01*
X243020672Y-44894044D01*
X243076662Y-44937425D01*
X242988331Y-45038862D01*
X242946873Y-45009585D01*
X242902281Y-44988999D01*
X242855694Y-44976818D01*
X242808252Y-44972757D01*
X242722201Y-44992418D01*
X242689719Y-45050260D01*
X242703965Y-45092430D01*
X242753544Y-45124628D01*
X242795715Y-45140941D01*
X242851562Y-45159675D01*
X242920873Y-45184678D01*
X242979498Y-45214098D01*
X243026513Y-45249786D01*
X243060990Y-45293595D01*
X243082147Y-45347733D01*
X243089199Y-45414408D01*
X243079582Y-45483647D01*
X243050732Y-45544339D01*
X243003932Y-45594630D01*
X242940462Y-45632669D01*
X242861392Y-45656604D01*
X242767791Y-45664582D01*
X242697349Y-45660941D01*
X242634948Y-45650018D01*
X242580588Y-45631814D01*
X242511562Y-45595129D01*
X242455501Y-45550607D01*
X242550100Y-45445751D01*
X242596260Y-45479587D01*
X242646978Y-45504733D01*
X242702541Y-45520333D01*
X242763232Y-45525533D01*
X242816373Y-45519193D01*
X242858401Y-45500174D01*
X242894872Y-45428655D01*
X242864384Y-45360840D01*
X242820860Y-45336193D01*
X242751265Y-45311261D01*
X242667842Y-45281470D01*
X242602212Y-45248322D01*
X242554374Y-45211819D01*
X242510565Y-45146355D01*
X242495962Y-45064507D01*
X242506006Y-44997404D01*
X242536138Y-44940845D01*
X242583224Y-44895611D01*
X242644129Y-44862487D01*
X242715363Y-44842185D01*
X242793435Y-44835418D01*
X242879771Y-44842043D01*
G37*
G36*
X242226983Y-45123417D02*
G01*
X242279981Y-45146283D01*
X242325001Y-45183752D01*
X242359763Y-45235183D01*
X242381988Y-45299935D01*
X242389396Y-45377366D01*
X242380848Y-45453088D01*
X242355204Y-45521829D01*
X242313817Y-45580454D01*
X242258041Y-45625830D01*
X242189300Y-45654894D01*
X242109019Y-45664582D01*
X242036076Y-45657102D01*
X241974529Y-45634663D01*
X241923811Y-45599189D01*
X241883350Y-45552602D01*
X241852719Y-45496470D01*
X241831492Y-45432359D01*
X241819097Y-45362194D01*
X241815662Y-45300434D01*
X242002453Y-45300434D01*
X242009577Y-45403937D01*
X242027528Y-45477379D01*
X242060153Y-45521188D01*
X242111299Y-45535791D01*
X242155250Y-45524963D01*
X242185667Y-45492480D01*
X242203404Y-45444611D01*
X242209317Y-45387624D01*
X242203547Y-45318598D01*
X242186237Y-45273365D01*
X242121556Y-45240027D01*
X242058443Y-45255129D01*
X242002453Y-45300434D01*
X241815662Y-45300434D01*
X241814965Y-45287896D01*
X241819556Y-45202479D01*
X241833328Y-45124027D01*
X241856281Y-45052539D01*
X241887751Y-44989474D01*
X241927072Y-44936286D01*
X241974245Y-44892975D01*
X242028667Y-44860999D01*
X242089739Y-44841813D01*
X242157458Y-44835418D01*
X242207536Y-44838837D01*
X242252912Y-44849095D01*
X242328990Y-44886137D01*
X242260605Y-44995552D01*
X242211881Y-44971333D01*
X242160878Y-44963639D01*
X242101682Y-44978029D01*
X242052887Y-45021196D01*
X242018481Y-45091576D01*
X242002453Y-45187599D01*
X242039994Y-45155473D01*
X242081950Y-45133176D01*
X242168286Y-45115795D01*
X242226983Y-45123417D01*
G37*
G36*
X241662810Y-45358561D02*
G01*
X241169301Y-45358561D01*
X241169301Y-45218372D01*
X241662810Y-45218372D01*
X241662810Y-45358561D01*
G37*
G36*
X240779437Y-44842328D02*
G01*
X240845898Y-44863057D01*
X240898896Y-44895255D01*
X240937648Y-44936571D01*
X240961369Y-44984796D01*
X240969276Y-45037723D01*
X240958234Y-45105751D01*
X240925111Y-45159390D01*
X240873751Y-45199495D01*
X240808002Y-45226920D01*
X240882228Y-45246225D01*
X240941922Y-45282483D01*
X240981243Y-45339969D01*
X240994350Y-45422956D01*
X240985161Y-45486639D01*
X240957593Y-45544339D01*
X240912930Y-45593561D01*
X240852452Y-45631814D01*
X240777371Y-45656390D01*
X240688899Y-45664582D01*
X240605128Y-45656817D01*
X240530474Y-45633524D01*
X240465509Y-45596126D01*
X240410801Y-45546048D01*
X240512238Y-45451450D01*
X240548354Y-45485428D01*
X240588316Y-45508722D01*
X240676931Y-45526673D01*
X240730214Y-45519193D01*
X240772670Y-45496754D01*
X240800451Y-45460211D01*
X240809712Y-45410419D01*
X240800950Y-45356495D01*
X240774664Y-45320094D01*
X240732423Y-45299365D01*
X240675792Y-45292455D01*
X240603988Y-45292455D01*
X240624503Y-45168223D01*
X240675792Y-45168223D01*
X240723447Y-45161812D01*
X240761557Y-45142579D01*
X240786560Y-45110381D01*
X240794895Y-45065077D01*
X240762982Y-44994982D01*
X240680351Y-44969338D01*
X240594585Y-44987574D01*
X240522496Y-45037723D01*
X240430177Y-44941984D01*
X240487592Y-44895896D01*
X240551560Y-44862487D01*
X240622366Y-44842185D01*
X240700296Y-44835418D01*
X240779437Y-44842328D01*
G37*
%TO.C,kibuzzard-62AF80AA*%
G36*
X245432351Y-84132210D02*
G01*
X245527438Y-83548662D01*
X245746921Y-83548662D01*
X245797721Y-84451338D01*
X245611454Y-84451338D01*
X245600382Y-84065128D01*
X245599161Y-83998209D01*
X245599405Y-83940733D01*
X245603638Y-83839459D01*
X245607221Y-83787926D01*
X245611454Y-83730369D01*
X245509854Y-84297636D01*
X245348336Y-84297636D01*
X245238921Y-83730369D01*
X245243642Y-83785321D01*
X245247387Y-83836854D01*
X245251621Y-83941385D01*
X245252028Y-84000488D01*
X245251295Y-84068385D01*
X245244782Y-84451338D01*
X245061772Y-84451338D01*
X245112572Y-83548662D01*
X245332054Y-83548662D01*
X245432351Y-84132210D01*
G37*
G36*
X246369546Y-84295682D02*
G01*
X246538228Y-84295682D01*
X246538228Y-84451338D01*
X245951423Y-84451338D01*
X245951423Y-84295682D01*
X246168951Y-84295682D01*
X246168951Y-83751210D01*
X245983336Y-83867138D01*
X245896064Y-83725810D01*
X246187187Y-83548662D01*
X246369546Y-83548662D01*
X246369546Y-84295682D01*
G37*
%TO.C,U2*%
X255825000Y-55155000D02*
X257085000Y-55155000D01*
X262645000Y-55155000D02*
X261385000Y-55155000D01*
X255825000Y-51395000D02*
X255825000Y-55155000D01*
X262645000Y-49145000D02*
X262645000Y-55155000D01*
%TO.C,D7*%
X253750000Y-47625000D02*
X253750000Y-41925000D01*
X249450000Y-47625000D02*
X253750000Y-47625000D01*
X249450000Y-47625000D02*
X249450000Y-41925000D01*
%TO.C,R11*%
X247653641Y-57720000D02*
X247346359Y-57720000D01*
X247653641Y-58480000D02*
X247346359Y-58480000D01*
%TD*%
M02*
