0
SECTION
2
HEADER
9
$ANGDIR
70
1
9
$AUNITS
70
0
9
$PROJECTNAME
1
AVA_top_r1
9
$TDCREATE
40
2459267.32532073
9
$INSUNITS
70
4
0
ENDSEC
0
SECTION
2
ENTITIES
0
POLYLINE
66
1
8
outline
10
0.0
20
0.0
30
0.0
70
1
0
VERTEX
8
0
10
0
20
3.5
30
0
0
VERTEX
8
0
10
0.01331875
20
3.19495625
30
0
0
VERTEX
8
0
10
0.053171875
20
2.89223125
30
0
0
VERTEX
8
0
10
0.119259375
20
2.5941343750000003
30
0
0
VERTEX
8
0
10
0.211075
20
2.302928125
30
0
0
VERTEX
8
0
10
0.32792187500000003
20
2.0208375000000003
30
0
0
VERTEX
8
0
10
0.4689125
20
1.75
30
0
0
VERTEX
8
0
10
0.6329687500000001
20
1.49248125
30
0
0
VERTEX
8
0
10
0.8188437500000001
20
1.25024375
30
0
0
VERTEX
8
0
10
1.025125
20
1.025125
30
0
0
VERTEX
8
0
10
1.25024375
20
0.8188437500000001
30
0
0
VERTEX
8
0
10
1.49248125
20
0.6329687500000001
30
0
0
VERTEX
8
0
10
1.75
20
0.4689125
30
0
0
VERTEX
8
0
10
2.0208375000000003
20
0.32792187500000003
30
0
0
VERTEX
8
0
10
2.302928125
20
0.211075
30
0
0
VERTEX
8
0
10
2.5941343750000003
20
0.119259375
30
0
0
VERTEX
8
0
10
2.89223125
20
0.053171875
30
0
0
VERTEX
8
0
10
3.19495625
20
0.01331875
30
0
0
VERTEX
8
0
10
3.5
20
0
30
0
0
VERTEX
8
0
10
48.5
20
0
30
0
0
VERTEX
8
0
10
48.80504375
20
0.01331875
30
0
0
VERTEX
8
0
10
49.107768750000005
20
0.053171875
30
0
0
VERTEX
8
0
10
49.405865625000004
20
0.119259375
30
0
0
VERTEX
8
0
10
49.697071875
20
0.211078125
30
0
0
VERTEX
8
0
10
49.9791625
20
0.327925
30
0
0
VERTEX
8
0
10
50.25
20
0.4689125
30
0
0
VERTEX
8
0
10
50.507515625
20
0.6329687500000001
30
0
0
VERTEX
8
0
10
50.749756250000004
20
0.8188468750000001
30
0
0
VERTEX
8
0
10
50.974871875000005
20
1.025128125
30
0
0
VERTEX
8
0
10
51.181153125
20
1.250246875
30
0
0
VERTEX
8
0
10
51.367031250000004
20
1.492484375
30
0
0
VERTEX
8
0
10
51.531087500000005
20
1.750003125
30
0
0
VERTEX
8
0
10
51.672075
20
2.0208375000000003
30
0
0
VERTEX
8
0
10
51.788921875
20
2.3029312500000003
30
0
0
VERTEX
8
0
10
51.8807375
20
2.5941375
30
0
0
VERTEX
8
0
10
51.946825000000004
20
2.892234375
30
0
0
VERTEX
8
0
10
51.986678125000005
20
3.1949593750000003
30
0
0
VERTEX
8
0
10
51.999996875
20
3.500003125
30
0
0
VERTEX
8
0
10
52
20
3.502440625
30
0
0
VERTEX
8
0
10
52.000240625
20
68.49975
30
0
0
VERTEX
8
0
10
51.986921875
20
68.80479375
30
0
0
VERTEX
8
0
10
51.94706875
20
69.10751875
30
0
0
VERTEX
8
0
10
51.880984375000004
20
69.40561562500001
30
0
0
VERTEX
8
0
10
51.78916875
20
69.696821875
30
0
0
VERTEX
8
0
10
51.672321875
20
69.978915625
30
0
0
VERTEX
8
0
10
51.531334375
20
70.24975
30
0
0
VERTEX
8
0
10
51.367278125000006
20
70.50726875000001
30
0
0
VERTEX
8
0
10
51.181403125
20
70.749509375
30
0
0
VERTEX
8
0
10
50.975121875
20
70.974625
30
0
0
VERTEX
8
0
10
50.750003125
20
71.180909375
30
0
0
VERTEX
8
0
10
50.507765625000005
20
71.3667875
30
0
0
VERTEX
8
0
10
50.25025
20
71.53084375
30
0
0
VERTEX
8
0
10
49.9794125
20
71.67183125
30
0
0
VERTEX
8
0
10
49.69731875
20
71.78868125000001
30
0
0
VERTEX
8
0
10
49.406115625000005
20
71.880496875
30
0
0
VERTEX
8
0
10
49.10801875
20
71.946584375
30
0
0
VERTEX
8
0
10
48.805293750000004
20
71.986440625
30
0
0
VERTEX
8
0
10
48.50025
20
71.999759375
30
0
0
VERTEX
8
0
10
48.5
20
71.999759375
30
0
0
VERTEX
8
0
10
3.347040625
20
71.99665937500001
30
0
0
VERTEX
8
0
10
3.0428687500000002
20
71.970021875
30
0
0
VERTEX
8
0
10
2.742175
20
71.91697500000001
30
0
0
VERTEX
8
0
10
2.44725
20
71.837925
30
0
0
VERTEX
8
0
10
2.1603375000000002
20
71.73346875
30
0
0
VERTEX
8
0
10
1.8836187500000001
20
71.60440625
30
0
0
VERTEX
8
0
10
1.619203125
20
71.451715625
30
0
0
VERTEX
8
0
10
1.369103125
20
71.2765625
30
0
0
VERTEX
8
0
10
1.135215625
20
71.080275
30
0
0
VERTEX
8
0
10
0.91933125
20
70.86435312500001
30
0
0
VERTEX
8
0
10
0.723084375
20
70.63043437500001
30
0
0
VERTEX
8
0
10
0.547971875
20
70.380303125
30
0
0
VERTEX
8
0
10
0.39532500000000004
20
70.1158625
30
0
0
VERTEX
8
0
10
0.26630625
20
69.83912500000001
30
0
0
VERTEX
8
0
10
0.16190000000000002
20
69.55219375
30
0
0
VERTEX
8
0
10
0.08289687500000001
20
69.257253125
30
0
0
VERTEX
8
0
10
0.029903125000000003
20
68.956553125
30
0
0
VERTEX
8
0
10
0.003315625
20
68.652378125
30
0
0
VERTEX
8
0
10
0
20
68.5
30
0
0
VERTEX
8
0
10
0
20
48.589409375
30
0
0
VERTEX
8
0
10
0.0026906250000000003
20
48.527781250000004
30
0
0
VERTEX
8
0
10
0.01074375
20
48.466621875
30
0
0
VERTEX
8
0
10
0.02409375
20
48.406396875000006
30
0
0
VERTEX
8
0
10
0.04264375
20
48.3475625
30
0
0
VERTEX
8
0
10
0.06625
20
48.290571875000005
30
0
0
VERTEX
8
0
10
0.09473437500000001
20
48.235856250000005
30
0
0
VERTEX
8
0
10
0.127878125
20
48.183828125000005
30
0
0
VERTEX
8
0
10
0.16543125
20
48.134887500000005
30
0
0
VERTEX
8
0
10
0.20710625000000002
20
48.08940625
30
0
0
VERTEX
8
0
10
0.2525875
20
48.047731250000005
30
0
0
VERTEX
8
0
10
0.30152812500000004
20
48.010178125
30
0
0
VERTEX
8
0
10
0.353553125
20
47.977034375
30
0
0
VERTEX
8
0
10
0.408271875
20
47.948550000000004
30
0
0
VERTEX
8
0
10
0.4652625
20
47.924943750000004
30
0
0
VERTEX
8
0
10
0.524096875
20
47.90639375
30
0
0
VERTEX
8
0
10
0.584321875
20
47.893043750000004
30
0
0
VERTEX
8
0
10
0.64548125
20
47.884990625
30
0
0
VERTEX
8
0
10
0.707109375
20
47.8823
30
0
0
VERTEX
8
0
10
10.18511875
20
47.8823
30
0
0
VERTEX
8
0
10
10.246746875000001
20
47.879609375
30
0
0
VERTEX
8
0
10
10.30790625
20
47.871556250000005
30
0
0
VERTEX
8
0
10
10.368131250000001
20
47.858203125
30
0
0
VERTEX
8
0
10
10.4269625
20
47.839653125000005
30
0
0
VERTEX
8
0
10
10.483953125000001
20
47.816046875000005
30
0
0
VERTEX
8
0
10
10.538671875
20
47.7875625
30
0
0
VERTEX
8
0
10
10.590696875
20
47.75441875
30
0
0
VERTEX
8
0
10
10.639637500000001
20
47.716865625000004
30
0
0
VERTEX
8
0
10
10.685115625
20
47.6751875
30
0
0
VERTEX
8
0
10
10.726790625000001
20
47.629709375000004
30
0
0
VERTEX
8
0
10
10.76434375
20
47.580768750000004
30
0
0
VERTEX
8
0
10
10.7974875
20
47.528740625000005
30
0
0
VERTEX
8
0
10
10.825971875
20
47.474025000000005
30
0
0
VERTEX
8
0
10
10.849578125
20
47.41703125
30
0
0
VERTEX
8
0
10
10.868125000000001
20
47.358200000000004
30
0
0
VERTEX
8
0
10
10.881478125000001
20
47.297975
30
0
0
VERTEX
8
0
10
10.889528125
20
47.236815625000006
30
0
0
VERTEX
8
0
10
10.892218750000001
20
47.175190625
30
0
0
VERTEX
8
0
10
10.892218750000001
20
25.629809375
30
0
0
VERTEX
8
0
10
10.894909375000001
20
25.568181250000002
30
0
0
VERTEX
8
0
10
10.902962500000001
20
25.507021875
30
0
0
VERTEX
8
0
10
10.9163125
20
25.446796875
30
0
0
VERTEX
8
0
10
10.934862500000001
20
25.3879625
30
0
0
VERTEX
8
0
10
10.95846875
20
25.330971875
30
0
0
VERTEX
8
0
10
10.986953125000001
20
25.276256250000003
30
0
0
VERTEX
8
0
10
11.020096875
20
25.224228125
30
0
0
VERTEX
8
0
10
11.05765
20
25.1752875
30
0
0
VERTEX
8
0
10
11.099325
20
25.12980625
30
0
0
VERTEX
8
0
10
11.14480625
20
25.08813125
30
0
0
VERTEX
8
0
10
11.193746875
20
25.050578125
30
0
0
VERTEX
8
0
10
11.245771875
20
25.017434375
30
0
0
VERTEX
8
0
10
11.300490625
20
24.988950000000003
30
0
0
VERTEX
8
0
10
11.357481250000001
20
24.965343750000002
30
0
0
VERTEX
8
0
10
11.416315625000001
20
24.94679375
30
0
0
VERTEX
8
0
10
11.476540625
20
24.933443750000002
30
0
0
VERTEX
8
0
10
11.537700000000001
20
24.925390625000002
30
0
0
VERTEX
8
0
10
11.59933125
20
24.922700000000003
30
0
0
VERTEX
8
0
10
12.573350000000001
20
24.922700000000003
30
0
0
VERTEX
8
0
10
12.634978125
20
24.920009375000003
30
0
0
VERTEX
8
0
10
12.6961375
20
24.911956250000003
30
0
0
VERTEX
8
0
10
12.7563625
20
24.89860625
30
0
0
VERTEX
8
0
10
12.815196875
20
24.880056250000003
30
0
0
VERTEX
8
0
10
12.8721875
20
24.856450000000002
30
0
0
VERTEX
8
0
10
12.926903125
20
24.827965625
30
0
0
VERTEX
8
0
10
12.97893125
20
24.794821875
30
0
0
VERTEX
8
0
10
13.027871875
20
24.75726875
30
0
0
VERTEX
8
0
10
13.073353125
20
24.71559375
30
0
0
VERTEX
8
0
10
13.115028125
20
24.670112500000002
30
0
0
VERTEX
8
0
10
13.15258125
20
24.621171875
30
0
0
VERTEX
8
0
10
13.185725000000001
20
24.569146875
30
0
0
VERTEX
8
0
10
13.214209375000001
20
24.514428125000002
30
0
0
VERTEX
8
0
10
13.237815625000001
20
24.4574375
30
0
0
VERTEX
8
0
10
13.256365625
20
24.398603125
30
0
0
VERTEX
8
0
10
13.269715625
20
24.338378125000002
30
0
0
VERTEX
8
0
10
13.27776875
20
24.27721875
30
0
0
VERTEX
8
0
10
13.280459375000001
20
24.215590625
30
0
0
VERTEX
8
0
10
13.280459375000001
20
21.341840625
30
0
0
VERTEX
8
0
10
13.27776875
20
21.2802125
30
0
0
VERTEX
8
0
10
13.269715625
20
21.219053125000002
30
0
0
VERTEX
8
0
10
13.256365625
20
21.158828125
30
0
0
VERTEX
8
0
10
13.237815625000001
20
21.099996875000002
30
0
0
VERTEX
8
0
10
13.21420625
20
21.04300625
30
0
0
VERTEX
8
0
10
13.185725000000001
20
20.988287500000002
30
0
0
VERTEX
8
0
10
13.152578125
20
20.9362625
30
0
0
VERTEX
8
0
10
13.115025000000001
20
20.887321875
30
0
0
VERTEX
8
0
10
13.073350000000001
20
20.841840625
30
0
0
VERTEX
8
0
10
13.027868750000001
20
20.800165625
30
0
0
VERTEX
8
0
10
12.97893125
20
20.762615625000002
30
0
0
VERTEX
8
0
10
12.926903125
20
20.729468750000002
30
0
0
VERTEX
8
0
10
12.8721875
20
20.7009875
30
0
0
VERTEX
8
0
10
12.81519375
20
20.67738125
30
0
0
VERTEX
8
0
10
12.7563625
20
20.658831250000002
30
0
0
VERTEX
8
0
10
12.6961375
20
20.645478125
30
0
0
VERTEX
8
0
10
12.634978125
20
20.637428125
30
0
0
VERTEX
8
0
10
12.573350000000001
20
20.634740625000003
30
0
0
VERTEX
8
0
10
0.707109375
20
20.634740625000003
30
0
0
VERTEX
8
0
10
0.64548125
20
20.63205
30
0
0
VERTEX
8
0
10
0.584321875
20
20.623996875
30
0
0
VERTEX
8
0
10
0.524096875
20
20.610646875
30
0
0
VERTEX
8
0
10
0.4652625
20
20.592096875
30
0
0
VERTEX
8
0
10
0.408271875
20
20.568490625000003
30
0
0
VERTEX
8
0
10
0.35355625
20
20.54000625
30
0
0
VERTEX
8
0
10
0.30152812500000004
20
20.5068625
30
0
0
VERTEX
8
0
10
0.2525875
20
20.469309375
30
0
0
VERTEX
8
0
10
0.20710625000000002
20
20.427634375
30
0
0
VERTEX
8
0
10
0.16543125
20
20.382153125000002
30
0
0
VERTEX
8
0
10
0.127878125
20
20.333212500000002
30
0
0
VERTEX
8
0
10
0.09473437500000001
20
20.2811875
30
0
0
VERTEX
8
0
10
0.06625
20
20.226468750000002
30
0
0
VERTEX
8
0
10
0.04264375
20
20.169478125
30
0
0
VERTEX
8
0
10
0.02409375
20
20.11064375
30
0
0
VERTEX
8
0
10
0.01074375
20
20.050418750000002
30
0
0
VERTEX
8
0
10
0.0026906250000000003
20
19.989259375
30
0
0
VERTEX
8
0
10
0
20
19.92763125
30
0
0
VERTEX
8
0
10
0
20
3.5
30
0
0
SEQEND
0
POLYLINE
66
1
8
holes
10
0.0
20
0.0
30
0.0
70
1
0
VERTEX
8
0
10
50.24
20
3.4430375
30
0
0
VERTEX
8
0
10
50.24
20
3.5569625
30
0
0
VERTEX
8
0
10
50.23255
20
3.6706406250000003
30
0
0
VERTEX
8
0
10
50.217678125
20
3.783590625
30
0
0
VERTEX
8
0
10
50.195453125
20
3.895325
30
0
0
VERTEX
8
0
10
50.165968750000005
20
4.0053656250000005
30
0
0
VERTEX
8
0
10
50.12935
20
4.1132437500000005
30
0
0
VERTEX
8
0
10
50.085753125000004
20
4.21849375
30
0
0
VERTEX
8
0
10
50.035365625000004
20
4.32066875
30
0
0
VERTEX
8
0
10
49.978403125
20
4.41933125
30
0
0
VERTEX
8
0
10
49.915109375
20
4.514053125
30
0
0
VERTEX
8
0
10
49.845759375
20
4.604434375
30
0
0
VERTEX
8
0
10
49.770643750000005
20
4.690087500000001
30
0
0
VERTEX
8
0
10
49.690087500000004
20
4.7706437500000005
30
0
0
VERTEX
8
0
10
49.604434375000004
20
4.845759375
30
0
0
VERTEX
8
0
10
49.514053125000004
20
4.915109375
30
0
0
VERTEX
8
0
10
49.41933125
20
4.978403125
30
0
0
VERTEX
8
0
10
49.32066875
20
5.035365625
30
0
0
VERTEX
8
0
10
49.21849375
20
5.085753125
30
0
0
VERTEX
8
0
10
49.11324375
20
5.1293500000000005
30
0
0
VERTEX
8
0
10
49.005365625
20
5.16596875
30
0
0
VERTEX
8
0
10
48.895325
20
5.195453125
30
0
0
VERTEX
8
0
10
48.783590625
20
5.217678125
30
0
0
VERTEX
8
0
10
48.670640625000004
20
5.23255
30
0
0
VERTEX
8
0
10
48.556962500000004
20
5.24
30
0
0
VERTEX
8
0
10
48.4430375
20
5.24
30
0
0
VERTEX
8
0
10
48.329359375
20
5.23255
30
0
0
VERTEX
8
0
10
48.216409375000005
20
5.217678125
30
0
0
VERTEX
8
0
10
48.104675
20
5.195453125
30
0
0
VERTEX
8
0
10
47.994634375000004
20
5.16596875
30
0
0
VERTEX
8
0
10
47.886756250000005
20
5.1293500000000005
30
0
0
VERTEX
8
0
10
47.78150625
20
5.085753125
30
0
0
VERTEX
8
0
10
47.679331250000004
20
5.035365625
30
0
0
VERTEX
8
0
10
47.58066875
20
4.978403125
30
0
0
VERTEX
8
0
10
47.485946875
20
4.915109375
30
0
0
VERTEX
8
0
10
47.395565625
20
4.845759375
30
0
0
VERTEX
8
0
10
47.3099125
20
4.7706437500000005
30
0
0
VERTEX
8
0
10
47.22935625
20
4.690087500000001
30
0
0
VERTEX
8
0
10
47.154240625
20
4.604434375
30
0
0
VERTEX
8
0
10
47.084890625
20
4.514053125
30
0
0
VERTEX
8
0
10
47.021596875
20
4.41933125
30
0
0
VERTEX
8
0
10
46.964634375
20
4.32066875
30
0
0
VERTEX
8
0
10
46.914246875
20
4.21849375
30
0
0
VERTEX
8
0
10
46.870650000000005
20
4.1132437500000005
30
0
0
VERTEX
8
0
10
46.83403125
20
4.0053656250000005
30
0
0
VERTEX
8
0
10
46.804546875
20
3.895325
30
0
0
VERTEX
8
0
10
46.782321875
20
3.783590625
30
0
0
VERTEX
8
0
10
46.767450000000004
20
3.6706406250000003
30
0
0
VERTEX
8
0
10
46.760000000000005
20
3.5569625
30
0
0
VERTEX
8
0
10
46.760000000000005
20
3.4430375
30
0
0
VERTEX
8
0
10
46.767450000000004
20
3.329359375
30
0
0
VERTEX
8
0
10
46.782321875
20
3.216409375
30
0
0
VERTEX
8
0
10
46.804546875
20
3.1046750000000003
30
0
0
VERTEX
8
0
10
46.83403125
20
2.994634375
30
0
0
VERTEX
8
0
10
46.870650000000005
20
2.8867562500000004
30
0
0
VERTEX
8
0
10
46.914246875
20
2.78150625
30
0
0
VERTEX
8
0
10
46.964634375
20
2.67933125
30
0
0
VERTEX
8
0
10
47.021596875
20
2.58066875
30
0
0
VERTEX
8
0
10
47.084890625
20
2.4859468750000002
30
0
0
VERTEX
8
0
10
47.154240625
20
2.395565625
30
0
0
VERTEX
8
0
10
47.22935625
20
2.3099125000000003
30
0
0
VERTEX
8
0
10
47.3099125
20
2.22935625
30
0
0
VERTEX
8
0
10
47.395565625
20
2.154240625
30
0
0
VERTEX
8
0
10
47.485946875
20
2.084890625
30
0
0
VERTEX
8
0
10
47.58066875
20
2.021596875
30
0
0
VERTEX
8
0
10
47.679331250000004
20
1.9646343750000002
30
0
0
VERTEX
8
0
10
47.78150625
20
1.9142468750000001
30
0
0
VERTEX
8
0
10
47.886756250000005
20
1.8706500000000001
30
0
0
VERTEX
8
0
10
47.994634375000004
20
1.83403125
30
0
0
VERTEX
8
0
10
48.104675
20
1.804546875
30
0
0
VERTEX
8
0
10
48.216409375000005
20
1.782321875
30
0
0
VERTEX
8
0
10
48.329359375
20
1.7674500000000002
30
0
0
VERTEX
8
0
10
48.4430375
20
1.76
30
0
0
VERTEX
8
0
10
48.556962500000004
20
1.76
30
0
0
VERTEX
8
0
10
48.670640625000004
20
1.7674500000000002
30
0
0
VERTEX
8
0
10
48.783590625
20
1.782321875
30
0
0
VERTEX
8
0
10
48.895325
20
1.804546875
30
0
0
VERTEX
8
0
10
49.005365625
20
1.83403125
30
0
0
VERTEX
8
0
10
49.11324375
20
1.8706500000000001
30
0
0
VERTEX
8
0
10
49.21849375
20
1.9142468750000001
30
0
0
VERTEX
8
0
10
49.32066875
20
1.9646343750000002
30
0
0
VERTEX
8
0
10
49.41933125
20
2.021596875
30
0
0
VERTEX
8
0
10
49.514053125000004
20
2.084890625
30
0
0
VERTEX
8
0
10
49.604434375000004
20
2.154240625
30
0
0
VERTEX
8
0
10
49.690087500000004
20
2.22935625
30
0
0
VERTEX
8
0
10
49.770643750000005
20
2.3099125000000003
30
0
0
VERTEX
8
0
10
49.845759375
20
2.395565625
30
0
0
VERTEX
8
0
10
49.915109375
20
2.4859468750000002
30
0
0
VERTEX
8
0
10
49.978403125
20
2.58066875
30
0
0
VERTEX
8
0
10
50.035365625000004
20
2.67933125
30
0
0
VERTEX
8
0
10
50.085753125000004
20
2.78150625
30
0
0
VERTEX
8
0
10
50.12935
20
2.8867562500000004
30
0
0
VERTEX
8
0
10
50.165968750000005
20
2.994634375
30
0
0
VERTEX
8
0
10
50.195453125
20
3.1046750000000003
30
0
0
VERTEX
8
0
10
50.217678125
20
3.216409375
30
0
0
VERTEX
8
0
10
50.23255
20
3.329359375
30
0
0
VERTEX
8
0
10
50.24
20
3.4430375
30
0
0
SEQEND
0
POLYLINE
66
1
8
holes
10
0.0
20
0.0
30
0.0
70
1
0
VERTEX
8
0
10
5.25
20
3.442709375
30
0
0
VERTEX
8
0
10
5.25
20
3.5572906250000003
30
0
0
VERTEX
8
0
10
5.24250625
20
3.671621875
30
0
0
VERTEX
8
0
10
5.22755
20
3.7852187500000003
30
0
0
VERTEX
8
0
10
5.205196875
20
3.897596875
30
0
0
VERTEX
8
0
10
5.17554375
20
4.008271875
30
0
0
VERTEX
8
0
10
5.1387125000000005
20
4.11676875
30
0
0
VERTEX
8
0
10
5.094865625000001
20
4.222625
30
0
0
VERTEX
8
0
10
5.0441875000000005
20
4.325387500000001
30
0
0
VERTEX
8
0
10
4.9869
20
4.4246125
30
0
0
VERTEX
8
0
10
4.92324375
20
4.51988125
30
0
0
VERTEX
8
0
10
4.85349375
20
4.610784375000001
30
0
0
VERTEX
8
0
10
4.7779468750000005
20
4.696928125
30
0
0
VERTEX
8
0
10
4.696928125
20
4.7779468750000005
30
0
0
VERTEX
8
0
10
4.610784375000001
20
4.85349375
30
0
0
VERTEX
8
0
10
4.51988125
20
4.92324375
30
0
0
VERTEX
8
0
10
4.4246125
20
4.9869
30
0
0
VERTEX
8
0
10
4.325387500000001
20
5.0441875000000005
30
0
0
VERTEX
8
0
10
4.222625
20
5.094865625000001
30
0
0
VERTEX
8
0
10
4.11676875
20
5.1387125000000005
30
0
0
VERTEX
8
0
10
4.008271875
20
5.17554375
30
0
0
VERTEX
8
0
10
3.897596875
20
5.205196875
30
0
0
VERTEX
8
0
10
3.7852187500000003
20
5.22755
30
0
0
VERTEX
8
0
10
3.671621875
20
5.24250625
30
0
0
VERTEX
8
0
10
3.5572906250000003
20
5.25
30
0
0
VERTEX
8
0
10
3.442709375
20
5.25
30
0
0
VERTEX
8
0
10
3.328378125
20
5.24250625
30
0
0
VERTEX
8
0
10
3.21478125
20
5.22755
30
0
0
VERTEX
8
0
10
3.102403125
20
5.205196875
30
0
0
VERTEX
8
0
10
2.9917281250000003
20
5.17554375
30
0
0
VERTEX
8
0
10
2.88323125
20
5.1387125000000005
30
0
0
VERTEX
8
0
10
2.777375
20
5.094865625000001
30
0
0
VERTEX
8
0
10
2.6746125000000003
20
5.0441875000000005
30
0
0
VERTEX
8
0
10
2.5753875
20
4.9869
30
0
0
VERTEX
8
0
10
2.48011875
20
4.92324375
30
0
0
VERTEX
8
0
10
2.3892156250000003
20
4.85349375
30
0
0
VERTEX
8
0
10
2.303071875
20
4.7779468750000005
30
0
0
VERTEX
8
0
10
2.222053125
20
4.696928125
30
0
0
VERTEX
8
0
10
2.1465062500000003
20
4.610784375000001
30
0
0
VERTEX
8
0
10
2.0767562500000003
20
4.51988125
30
0
0
VERTEX
8
0
10
2.0131
20
4.4246125
30
0
0
VERTEX
8
0
10
1.9558125000000002
20
4.325387500000001
30
0
0
VERTEX
8
0
10
1.905134375
20
4.222625
30
0
0
VERTEX
8
0
10
1.8612875
20
4.11676875
30
0
0
VERTEX
8
0
10
1.8244562500000001
20
4.008271875
30
0
0
VERTEX
8
0
10
1.794803125
20
3.897596875
30
0
0
VERTEX
8
0
10
1.77245
20
3.7852187500000003
30
0
0
VERTEX
8
0
10
1.75749375
20
3.671621875
30
0
0
VERTEX
8
0
10
1.75
20
3.5572906250000003
30
0
0
VERTEX
8
0
10
1.75
20
3.442709375
30
0
0
VERTEX
8
0
10
1.75749375
20
3.328378125
30
0
0
VERTEX
8
0
10
1.77245
20
3.21478125
30
0
0
VERTEX
8
0
10
1.794803125
20
3.102403125
30
0
0
VERTEX
8
0
10
1.8244562500000001
20
2.9917281250000003
30
0
0
VERTEX
8
0
10
1.8612875
20
2.88323125
30
0
0
VERTEX
8
0
10
1.905134375
20
2.777375
30
0
0
VERTEX
8
0
10
1.9558125000000002
20
2.6746125000000003
30
0
0
VERTEX
8
0
10
2.0131
20
2.5753875
30
0
0
VERTEX
8
0
10
2.0767562500000003
20
2.48011875
30
0
0
VERTEX
8
0
10
2.1465062500000003
20
2.3892156250000003
30
0
0
VERTEX
8
0
10
2.222053125
20
2.303071875
30
0
0
VERTEX
8
0
10
2.303071875
20
2.222053125
30
0
0
VERTEX
8
0
10
2.3892156250000003
20
2.1465062500000003
30
0
0
VERTEX
8
0
10
2.48011875
20
2.0767562500000003
30
0
0
VERTEX
8
0
10
2.5753875
20
2.0131
30
0
0
VERTEX
8
0
10
2.6746125000000003
20
1.9558125000000002
30
0
0
VERTEX
8
0
10
2.777375
20
1.905134375
30
0
0
VERTEX
8
0
10
2.88323125
20
1.8612875
30
0
0
VERTEX
8
0
10
2.9917281250000003
20
1.8244562500000001
30
0
0
VERTEX
8
0
10
3.102403125
20
1.794803125
30
0
0
VERTEX
8
0
10
3.21478125
20
1.77245
30
0
0
VERTEX
8
0
10
3.328378125
20
1.75749375
30
0
0
VERTEX
8
0
10
3.442709375
20
1.75
30
0
0
VERTEX
8
0
10
3.5572906250000003
20
1.75
30
0
0
VERTEX
8
0
10
3.671621875
20
1.75749375
30
0
0
VERTEX
8
0
10
3.7852187500000003
20
1.77245
30
0
0
VERTEX
8
0
10
3.897596875
20
1.794803125
30
0
0
VERTEX
8
0
10
4.008271875
20
1.8244562500000001
30
0
0
VERTEX
8
0
10
4.11676875
20
1.8612875
30
0
0
VERTEX
8
0
10
4.222625
20
1.905134375
30
0
0
VERTEX
8
0
10
4.325387500000001
20
1.9558125000000002
30
0
0
VERTEX
8
0
10
4.4246125
20
2.0131
30
0
0
VERTEX
8
0
10
4.51988125
20
2.0767562500000003
30
0
0
VERTEX
8
0
10
4.610784375000001
20
2.1465062500000003
30
0
0
VERTEX
8
0
10
4.696928125
20
2.222053125
30
0
0
VERTEX
8
0
10
4.7779468750000005
20
2.303071875
30
0
0
VERTEX
8
0
10
4.85349375
20
2.3892156250000003
30
0
0
VERTEX
8
0
10
4.92324375
20
2.48011875
30
0
0
VERTEX
8
0
10
4.9869
20
2.5753875
30
0
0
VERTEX
8
0
10
5.0441875000000005
20
2.6746125000000003
30
0
0
VERTEX
8
0
10
5.094865625000001
20
2.777375
30
0
0
VERTEX
8
0
10
5.1387125000000005
20
2.88323125
30
0
0
VERTEX
8
0
10
5.17554375
20
2.9917281250000003
30
0
0
VERTEX
8
0
10
5.205196875
20
3.102403125
30
0
0
VERTEX
8
0
10
5.22755
20
3.21478125
30
0
0
VERTEX
8
0
10
5.24250625
20
3.328378125
30
0
0
VERTEX
8
0
10
5.25
20
3.442709375
30
0
0
SEQEND
0
POLYLINE
66
1
8
holes
10
0.0
20
0.0
30
0.0
70
1
0
VERTEX
8
0
10
5.25
20
68.442709375
30
0
0
VERTEX
8
0
10
5.25
20
68.55729062500001
30
0
0
VERTEX
8
0
10
5.24250625
20
68.671621875
30
0
0
VERTEX
8
0
10
5.22755
20
68.78521875
30
0
0
VERTEX
8
0
10
5.205196875
20
68.897596875
30
0
0
VERTEX
8
0
10
5.17554375
20
69.008271875
30
0
0
VERTEX
8
0
10
5.1387125000000005
20
69.11676875
30
0
0
VERTEX
8
0
10
5.094865625000001
20
69.22262500000001
30
0
0
VERTEX
8
0
10
5.0441875000000005
20
69.3253875
30
0
0
VERTEX
8
0
10
4.9869
20
69.42461250000001
30
0
0
VERTEX
8
0
10
4.92324375
20
69.51988125
30
0
0
VERTEX
8
0
10
4.85349375
20
69.61078437500001
30
0
0
VERTEX
8
0
10
4.7779468750000005
20
69.696928125
30
0
0
VERTEX
8
0
10
4.696928125
20
69.777946875
30
0
0
VERTEX
8
0
10
4.610784375000001
20
69.85349375
30
0
0
VERTEX
8
0
10
4.51988125
20
69.92324375
30
0
0
VERTEX
8
0
10
4.4246125
20
69.9869
30
0
0
VERTEX
8
0
10
4.325387500000001
20
70.0441875
30
0
0
VERTEX
8
0
10
4.222625
20
70.094865625
30
0
0
VERTEX
8
0
10
4.11676875
20
70.1387125
30
0
0
VERTEX
8
0
10
4.008271875
20
70.17554375
30
0
0
VERTEX
8
0
10
3.897596875
20
70.205196875
30
0
0
VERTEX
8
0
10
3.7852187500000003
20
70.22755000000001
30
0
0
VERTEX
8
0
10
3.671621875
20
70.24250625
30
0
0
VERTEX
8
0
10
3.5572906250000003
20
70.25
30
0
0
VERTEX
8
0
10
3.442709375
20
70.25
30
0
0
VERTEX
8
0
10
3.328378125
20
70.24250625
30
0
0
VERTEX
8
0
10
3.21478125
20
70.22755000000001
30
0
0
VERTEX
8
0
10
3.102403125
20
70.205196875
30
0
0
VERTEX
8
0
10
2.9917281250000003
20
70.17554375
30
0
0
VERTEX
8
0
10
2.88323125
20
70.1387125
30
0
0
VERTEX
8
0
10
2.777375
20
70.094865625
30
0
0
VERTEX
8
0
10
2.6746125000000003
20
70.0441875
30
0
0
VERTEX
8
0
10
2.5753875
20
69.9869
30
0
0
VERTEX
8
0
10
2.48011875
20
69.92324375
30
0
0
VERTEX
8
0
10
2.3892156250000003
20
69.85349375
30
0
0
VERTEX
8
0
10
2.303071875
20
69.777946875
30
0
0
VERTEX
8
0
10
2.222053125
20
69.696928125
30
0
0
VERTEX
8
0
10
2.1465062500000003
20
69.61078437500001
30
0
0
VERTEX
8
0
10
2.0767562500000003
20
69.51988125
30
0
0
VERTEX
8
0
10
2.0131
20
69.42461250000001
30
0
0
VERTEX
8
0
10
1.9558125000000002
20
69.3253875
30
0
0
VERTEX
8
0
10
1.905134375
20
69.22262500000001
30
0
0
VERTEX
8
0
10
1.8612875
20
69.11676875
30
0
0
VERTEX
8
0
10
1.8244562500000001
20
69.008271875
30
0
0
VERTEX
8
0
10
1.794803125
20
68.897596875
30
0
0
VERTEX
8
0
10
1.77245
20
68.78521875
30
0
0
VERTEX
8
0
10
1.75749375
20
68.671621875
30
0
0
VERTEX
8
0
10
1.75
20
68.55729062500001
30
0
0
VERTEX
8
0
10
1.75
20
68.442709375
30
0
0
VERTEX
8
0
10
1.75749375
20
68.328378125
30
0
0
VERTEX
8
0
10
1.77245
20
68.21478125
30
0
0
VERTEX
8
0
10
1.794803125
20
68.10240312500001
30
0
0
VERTEX
8
0
10
1.8244562500000001
20
67.99172812500001
30
0
0
VERTEX
8
0
10
1.8612875
20
67.88323125000001
30
0
0
VERTEX
8
0
10
1.905134375
20
67.777375
30
0
0
VERTEX
8
0
10
1.9558125000000002
20
67.67461250000001
30
0
0
VERTEX
8
0
10
2.0131
20
67.5753875
30
0
0
VERTEX
8
0
10
2.0767562500000003
20
67.48011875
30
0
0
VERTEX
8
0
10
2.1465062500000003
20
67.389215625
30
0
0
VERTEX
8
0
10
2.222053125
20
67.303071875
30
0
0
VERTEX
8
0
10
2.303071875
20
67.222053125
30
0
0
VERTEX
8
0
10
2.3892156250000003
20
67.14650625
30
0
0
VERTEX
8
0
10
2.48011875
20
67.07675625
30
0
0
VERTEX
8
0
10
2.5753875
20
67.01310000000001
30
0
0
VERTEX
8
0
10
2.6746125000000003
20
66.95581250000001
30
0
0
VERTEX
8
0
10
2.777375
20
66.905134375
30
0
0
VERTEX
8
0
10
2.88323125
20
66.8612875
30
0
0
VERTEX
8
0
10
2.9917281250000003
20
66.82445625
30
0
0
VERTEX
8
0
10
3.102403125
20
66.794803125
30
0
0
VERTEX
8
0
10
3.21478125
20
66.77245
30
0
0
VERTEX
8
0
10
3.328378125
20
66.75749375000001
30
0
0
VERTEX
8
0
10
3.442709375
20
66.75
30
0
0
VERTEX
8
0
10
3.5572906250000003
20
66.75
30
0
0
VERTEX
8
0
10
3.671621875
20
66.75749375000001
30
0
0
VERTEX
8
0
10
3.7852187500000003
20
66.77245
30
0
0
VERTEX
8
0
10
3.897596875
20
66.794803125
30
0
0
VERTEX
8
0
10
4.008271875
20
66.82445625
30
0
0
VERTEX
8
0
10
4.11676875
20
66.8612875
30
0
0
VERTEX
8
0
10
4.222625
20
66.905134375
30
0
0
VERTEX
8
0
10
4.325387500000001
20
66.95581250000001
30
0
0
VERTEX
8
0
10
4.4246125
20
67.01310000000001
30
0
0
VERTEX
8
0
10
4.51988125
20
67.07675625
30
0
0
VERTEX
8
0
10
4.610784375000001
20
67.14650625
30
0
0
VERTEX
8
0
10
4.696928125
20
67.222053125
30
0
0
VERTEX
8
0
10
4.7779468750000005
20
67.303071875
30
0
0
VERTEX
8
0
10
4.85349375
20
67.389215625
30
0
0
VERTEX
8
0
10
4.92324375
20
67.48011875
30
0
0
VERTEX
8
0
10
4.9869
20
67.5753875
30
0
0
VERTEX
8
0
10
5.0441875000000005
20
67.67461250000001
30
0
0
VERTEX
8
0
10
5.094865625000001
20
67.777375
30
0
0
VERTEX
8
0
10
5.1387125000000005
20
67.88323125000001
30
0
0
VERTEX
8
0
10
5.17554375
20
67.99172812500001
30
0
0
VERTEX
8
0
10
5.205196875
20
68.10240312500001
30
0
0
VERTEX
8
0
10
5.22755
20
68.21478125
30
0
0
VERTEX
8
0
10
5.24250625
20
68.328378125
30
0
0
VERTEX
8
0
10
5.25
20
68.442709375
30
0
0
SEQEND
0
POLYLINE
66
1
8
holes
10
0.0
20
0.0
30
0.0
70
1
0
VERTEX
8
0
10
50.250240625
20
68.44246875
30
0
0
VERTEX
8
0
10
50.250240625
20
68.55705
30
0
0
VERTEX
8
0
10
50.242746875
20
68.67138125000001
30
0
0
VERTEX
8
0
10
50.227790625000004
20
68.78497812500001
30
0
0
VERTEX
8
0
10
50.2054375
20
68.89735625
30
0
0
VERTEX
8
0
10
50.175784375
20
69.00803125
30
0
0
VERTEX
8
0
10
50.138953125
20
69.116528125
30
0
0
VERTEX
8
0
10
50.09510625
20
69.222384375
30
0
0
VERTEX
8
0
10
50.044428125
20
69.325146875
30
0
0
VERTEX
8
0
10
49.987140625
20
69.424371875
30
0
0
VERTEX
8
0
10
49.923484375
20
69.51964062500001
30
0
0
VERTEX
8
0
10
49.853734375
20
69.61054375
30
0
0
VERTEX
8
0
10
49.7781875
20
69.69668750000001
30
0
0
VERTEX
8
0
10
49.69716875
20
69.77770625000001
30
0
0
VERTEX
8
0
10
49.611025000000005
20
69.85325312500001
30
0
0
VERTEX
8
0
10
49.520121875
20
69.92300312500001
30
0
0
VERTEX
8
0
10
49.424853125000006
20
69.986659375
30
0
0
VERTEX
8
0
10
49.325628125
20
70.043946875
30
0
0
VERTEX
8
0
10
49.222865625000004
20
70.09462500000001
30
0
0
VERTEX
8
0
10
49.117009375
20
70.13847187500001
30
0
0
VERTEX
8
0
10
49.0085125
20
70.175303125
30
0
0
VERTEX
8
0
10
48.8978375
20
70.20495625000001
30
0
0
VERTEX
8
0
10
48.785459375
20
70.227309375
30
0
0
VERTEX
8
0
10
48.6718625
20
70.242265625
30
0
0
VERTEX
8
0
10
48.557531250000004
20
70.249759375
30
0
0
VERTEX
8
0
10
48.44295
20
70.249759375
30
0
0
VERTEX
8
0
10
48.328618750000004
20
70.242265625
30
0
0
VERTEX
8
0
10
48.215021875000005
20
70.227309375
30
0
0
VERTEX
8
0
10
48.102643750000006
20
70.20495625000001
30
0
0
VERTEX
8
0
10
47.991968750000005
20
70.175303125
30
0
0
VERTEX
8
0
10
47.883471875000005
20
70.13847187500001
30
0
0
VERTEX
8
0
10
47.777615625
20
70.09462500000001
30
0
0
VERTEX
8
0
10
47.674853125000006
20
70.043946875
30
0
0
VERTEX
8
0
10
47.575628125
20
69.986659375
30
0
0
VERTEX
8
0
10
47.480359375
20
69.92300312500001
30
0
0
VERTEX
8
0
10
47.38945625
20
69.85325312500001
30
0
0
VERTEX
8
0
10
47.303312500000004
20
69.77770625000001
30
0
0
VERTEX
8
0
10
47.222293750000006
20
69.69668750000001
30
0
0
VERTEX
8
0
10
47.146746875000005
20
69.61054375
30
0
0
VERTEX
8
0
10
47.076996875
20
69.51964062500001
30
0
0
VERTEX
8
0
10
47.013340625000005
20
69.424371875
30
0
0
VERTEX
8
0
10
46.956053125000004
20
69.325146875
30
0
0
VERTEX
8
0
10
46.905375
20
69.222384375
30
0
0
VERTEX
8
0
10
46.861528125
20
69.116528125
30
0
0
VERTEX
8
0
10
46.824696875
20
69.00803125
30
0
0
VERTEX
8
0
10
46.795043750000005
20
68.89735625
30
0
0
VERTEX
8
0
10
46.772690625
20
68.78497812500001
30
0
0
VERTEX
8
0
10
46.757734375000005
20
68.67138125000001
30
0
0
VERTEX
8
0
10
46.750240625
20
68.55705
30
0
0
VERTEX
8
0
10
46.750240625
20
68.44246875
30
0
0
VERTEX
8
0
10
46.757734375000005
20
68.3281375
30
0
0
VERTEX
8
0
10
46.772690625
20
68.214540625
30
0
0
VERTEX
8
0
10
46.795043750000005
20
68.1021625
30
0
0
VERTEX
8
0
10
46.824696875
20
67.9914875
30
0
0
VERTEX
8
0
10
46.861528125
20
67.882990625
30
0
0
VERTEX
8
0
10
46.905375
20
67.777134375
30
0
0
VERTEX
8
0
10
46.956053125000004
20
67.674371875
30
0
0
VERTEX
8
0
10
47.013340625000005
20
67.575146875
30
0
0
VERTEX
8
0
10
47.076996875
20
67.479878125
30
0
0
VERTEX
8
0
10
47.146746875000005
20
67.388975
30
0
0
VERTEX
8
0
10
47.222293750000006
20
67.30283125
30
0
0
VERTEX
8
0
10
47.303312500000004
20
67.2218125
30
0
0
VERTEX
8
0
10
47.38945625
20
67.146265625
30
0
0
VERTEX
8
0
10
47.480359375
20
67.076515625
30
0
0
VERTEX
8
0
10
47.575628125
20
67.012859375
30
0
0
VERTEX
8
0
10
47.674853125000006
20
66.955571875
30
0
0
VERTEX
8
0
10
47.777615625
20
66.90489375
30
0
0
VERTEX
8
0
10
47.883471875000005
20
66.861046875
30
0
0
VERTEX
8
0
10
47.991968750000005
20
66.82421562500001
30
0
0
VERTEX
8
0
10
48.102643750000006
20
66.7945625
30
0
0
VERTEX
8
0
10
48.215021875000005
20
66.772209375
30
0
0
VERTEX
8
0
10
48.328618750000004
20
66.757253125
30
0
0
VERTEX
8
0
10
48.44295
20
66.749759375
30
0
0
VERTEX
8
0
10
48.557531250000004
20
66.749759375
30
0
0
VERTEX
8
0
10
48.6718625
20
66.757253125
30
0
0
VERTEX
8
0
10
48.785459375
20
66.772209375
30
0
0
VERTEX
8
0
10
48.8978375
20
66.7945625
30
0
0
VERTEX
8
0
10
49.0085125
20
66.82421562500001
30
0
0
VERTEX
8
0
10
49.117009375
20
66.861046875
30
0
0
VERTEX
8
0
10
49.222865625000004
20
66.90489375
30
0
0
VERTEX
8
0
10
49.325628125
20
66.955571875
30
0
0
VERTEX
8
0
10
49.424853125000006
20
67.012859375
30
0
0
VERTEX
8
0
10
49.520121875
20
67.076515625
30
0
0
VERTEX
8
0
10
49.611025000000005
20
67.146265625
30
0
0
VERTEX
8
0
10
49.69716875
20
67.2218125
30
0
0
VERTEX
8
0
10
49.7781875
20
67.30283125
30
0
0
VERTEX
8
0
10
49.853734375
20
67.388975
30
0
0
VERTEX
8
0
10
49.923484375
20
67.479878125
30
0
0
VERTEX
8
0
10
49.987140625
20
67.575146875
30
0
0
VERTEX
8
0
10
50.044428125
20
67.674371875
30
0
0
VERTEX
8
0
10
50.09510625
20
67.777134375
30
0
0
VERTEX
8
0
10
50.138953125
20
67.882990625
30
0
0
VERTEX
8
0
10
50.175784375
20
67.9914875
30
0
0
VERTEX
8
0
10
50.2054375
20
68.1021625
30
0
0
VERTEX
8
0
10
50.227790625000004
20
68.214540625
30
0
0
VERTEX
8
0
10
50.242746875
20
68.3281375
30
0
0
VERTEX
8
0
10
50.250240625
20
68.44246875
30
0
0
SEQEND
0
POLYLINE
66
1
8
1_copper
10
0.0
20
0.0
30
0.0
70
1
0
VERTEX
8
0
10
-18.938056250000002
20
-0.17046250000000002
30
0
0
VERTEX
8
0
10
-18.864625
20
-0.15585625
30
0
0
VERTEX
8
0
10
-18.79298125
20
-0.134121875
30
0
0
VERTEX
8
0
10
-18.723809375000002
20
-0.105471875
30
0
0
VERTEX
8
0
10
-18.65778125
20
-0.07017812500000001
30
0
0
VERTEX
8
0
10
-18.59553125
20
-0.028581250000000002
30
0
0
VERTEX
8
0
10
-18.53765625
20
0.018915625000000002
30
0
0
VERTEX
8
0
10
-18.484715625
20
0.07185625
30
0
0
VERTEX
8
0
10
-18.43721875
20
0.12973125
30
0
0
VERTEX
8
0
10
-18.395621875
20
0.19198125000000002
30
0
0
VERTEX
8
0
10
-18.360328125000002
20
0.258009375
30
0
0
VERTEX
8
0
10
-18.331678125
20
0.32718125000000003
30
0
0
VERTEX
8
0
10
-18.309943750000002
20
0.39882500000000004
30
0
0
VERTEX
8
0
10
-18.295337500000002
20
0.47225625000000004
30
0
0
VERTEX
8
0
10
-18.288
20
0.546765625
30
0
0
VERTEX
8
0
10
-18.288
20
2.145634375
30
0
0
VERTEX
8
0
10
-18.295337500000002
20
2.22014375
30
0
0
VERTEX
8
0
10
-18.309943750000002
20
2.293575
30
0
0
VERTEX
8
0
10
-18.331678125
20
2.36521875
30
0
0
VERTEX
8
0
10
-18.360328125000002
20
2.4343906250000003
30
0
0
VERTEX
8
0
10
-18.395621875
20
2.50041875
30
0
0
VERTEX
8
0
10
-18.43721875
20
2.5626687500000003
30
0
0
VERTEX
8
0
10
-18.484715625
20
2.62054375
30
0
0
VERTEX
8
0
10
-18.53765625
20
2.673484375
30
0
0
VERTEX
8
0
10
-18.59553125
20
2.7209812500000004
30
0
0
VERTEX
8
0
10
-18.65778125
20
2.762578125
30
0
0
VERTEX
8
0
10
-18.723809375000002
20
2.7978718750000002
30
0
0
VERTEX
8
0
10
-18.79298125
20
2.826521875
30
0
0
VERTEX
8
0
10
-18.864625
20
2.84825625
30
0
0
VERTEX
8
0
10
-18.938056250000002
20
2.8628625000000003
30
0
0
VERTEX
8
0
10
-19.012565625
20
2.8702
30
0
0
VERTEX
8
0
10
-19.087434375
20
2.8702
30
0
0
VERTEX
8
0
10
-19.161943750000002
20
2.8628625000000003
30
0
0
VERTEX
8
0
10
-19.235375
20
2.84825625
30
0
0
VERTEX
8
0
10
-19.30701875
20
2.826521875
30
0
0
VERTEX
8
0
10
-19.376190625
20
2.7978718750000002
30
0
0
VERTEX
8
0
10
-19.442218750000002
20
2.762578125
30
0
0
VERTEX
8
0
10
-19.50446875
20
2.7209812500000004
30
0
0
VERTEX
8
0
10
-19.56234375
20
2.673484375
30
0
0
VERTEX
8
0
10
-19.615284375
20
2.62054375
30
0
0
VERTEX
8
0
10
-19.662781250000002
20
2.5626687500000003
30
0
0
VERTEX
8
0
10
-19.704378125
20
2.50041875
30
0
0
VERTEX
8
0
10
-19.739671875000003
20
2.4343906250000003
30
0
0
VERTEX
8
0
10
-19.768321875
20
2.36521875
30
0
0
VERTEX
8
0
10
-19.79005625
20
2.293575
30
0
0
VERTEX
8
0
10
-19.804662500000003
20
2.22014375
30
0
0
VERTEX
8
0
10
-19.812
20
2.145634375
30
0
0
VERTEX
8
0
10
-19.812
20
0.546765625
30
0
0
VERTEX
8
0
10
-19.804662500000003
20
0.47225625000000004
30
0
0
VERTEX
8
0
10
-19.79005625
20
0.39882500000000004
30
0
0
VERTEX
8
0
10
-19.768321875
20
0.32718125000000003
30
0
0
VERTEX
8
0
10
-19.739671875000003
20
0.258009375
30
0
0
VERTEX
8
0
10
-19.704378125
20
0.19198125000000002
30
0
0
VERTEX
8
0
10
-19.662781250000002
20
0.12973125
30
0
0
VERTEX
8
0
10
-19.615284375
20
0.07185625
30
0
0
VERTEX
8
0
10
-19.56234375
20
0.018915625000000002
30
0
0
VERTEX
8
0
10
-19.50446875
20
-0.028581250000000002
30
0
0
VERTEX
8
0
10
-19.442218750000002
20
-0.07017812500000001
30
0
0
VERTEX
8
0
10
-19.376190625
20
-0.105471875
30
0
0
VERTEX
8
0
10
-19.30701875
20
-0.134121875
30
0
0
VERTEX
8
0
10
-19.235375
20
-0.15585625
30
0
0
VERTEX
8
0
10
-19.161943750000002
20
-0.17046250000000002
30
0
0
VERTEX
8
0
10
-19.087434375
20
-0.1778
30
0
0
VERTEX
8
0
10
-19.012565625
20
-0.1778
30
0
0
SEQEND
0
POLYLINE
66
1
8
1_copper
10
0.0
20
0.0
30
0.0
70
1
0
VERTEX
8
0
10
-8.77805625
20
-0.17046250000000002
30
0
0
VERTEX
8
0
10
-8.704625
20
-0.15585625
30
0
0
VERTEX
8
0
10
-8.63298125
20
-0.134121875
30
0
0
VERTEX
8
0
10
-8.563809375
20
-0.105471875
30
0
0
VERTEX
8
0
10
-8.497781250000001
20
-0.07017812500000001
30
0
0
VERTEX
8
0
10
-8.43553125
20
-0.028581250000000002
30
0
0
VERTEX
8
0
10
-8.377656250000001
20
0.018915625000000002
30
0
0
VERTEX
8
0
10
-8.324715625
20
0.07185625
30
0
0
VERTEX
8
0
10
-8.277218750000001
20
0.12973125
30
0
0
VERTEX
8
0
10
-8.235621875
20
0.19198125000000002
30
0
0
VERTEX
8
0
10
-8.200328125
20
0.258009375
30
0
0
VERTEX
8
0
10
-8.171678125
20
0.32718125000000003
30
0
0
VERTEX
8
0
10
-8.14994375
20
0.39882500000000004
30
0
0
VERTEX
8
0
10
-8.1353375
20
0.47225625000000004
30
0
0
VERTEX
8
0
10
-8.128
20
0.546765625
30
0
0
VERTEX
8
0
10
-8.128
20
2.145634375
30
0
0
VERTEX
8
0
10
-8.1353375
20
2.22014375
30
0
0
VERTEX
8
0
10
-8.14994375
20
2.293575
30
0
0
VERTEX
8
0
10
-8.171678125
20
2.36521875
30
0
0
VERTEX
8
0
10
-8.200328125
20
2.4343906250000003
30
0
0
VERTEX
8
0
10
-8.235621875
20
2.50041875
30
0
0
VERTEX
8
0
10
-8.277218750000001
20
2.5626687500000003
30
0
0
VERTEX
8
0
10
-8.324715625
20
2.62054375
30
0
0
VERTEX
8
0
10
-8.377656250000001
20
2.673484375
30
0
0
VERTEX
8
0
10
-8.43553125
20
2.7209812500000004
30
0
0
VERTEX
8
0
10
-8.497781250000001
20
2.762578125
30
0
0
VERTEX
8
0
10
-8.563809375
20
2.7978718750000002
30
0
0
VERTEX
8
0
10
-8.63298125
20
2.826521875
30
0
0
VERTEX
8
0
10
-8.704625
20
2.84825625
30
0
0
VERTEX
8
0
10
-8.77805625
20
2.8628625000000003
30
0
0
VERTEX
8
0
10
-8.852565625
20
2.8702
30
0
0
VERTEX
8
0
10
-8.927434375
20
2.8702
30
0
0
VERTEX
8
0
10
-9.00194375
20
2.8628625000000003
30
0
0
VERTEX
8
0
10
-9.075375000000001
20
2.84825625
30
0
0
VERTEX
8
0
10
-9.14701875
20
2.826521875
30
0
0
VERTEX
8
0
10
-9.216190625000001
20
2.7978718750000002
30
0
0
VERTEX
8
0
10
-9.28221875
20
2.762578125
30
0
0
VERTEX
8
0
10
-9.34446875
20
2.7209812500000004
30
0
0
VERTEX
8
0
10
-9.40234375
20
2.673484375
30
0
0
VERTEX
8
0
10
-9.455284375
20
2.62054375
30
0
0
VERTEX
8
0
10
-9.50278125
20
2.5626687500000003
30
0
0
VERTEX
8
0
10
-9.544378125
20
2.50041875
30
0
0
VERTEX
8
0
10
-9.579671875
20
2.4343906250000003
30
0
0
VERTEX
8
0
10
-9.608321875
20
2.36521875
30
0
0
VERTEX
8
0
10
-9.63005625
20
2.293575
30
0
0
VERTEX
8
0
10
-9.6446625
20
2.22014375
30
0
0
VERTEX
8
0
10
-9.652000000000001
20
2.145634375
30
0
0
VERTEX
8
0
10
-9.652000000000001
20
0.546765625
30
0
0
VERTEX
8
0
10
-9.6446625
20
0.47225625000000004
30
0
0
VERTEX
8
0
10
-9.63005625
20
0.39882500000000004
30
0
0
VERTEX
8
0
10
-9.608321875
20
0.32718125000000003
30
0
0
VERTEX
8
0
10
-9.579671875
20
0.258009375
30
0
0
VERTEX
8
0
10
-9.544378125
20
0.19198125000000002
30
0
0
VERTEX
8
0
10
-9.50278125
20
0.12973125
30
0
0
VERTEX
8
0
10
-9.455284375
20
0.07185625
30
0
0
VERTEX
8
0
10
-9.40234375
20
0.018915625000000002
30
0
0
VERTEX
8
0
10
-9.34446875
20
-0.028581250000000002
30
0
0
VERTEX
8
0
10
-9.28221875
20
-0.07017812500000001
30
0
0
VERTEX
8
0
10
-9.216190625000001
20
-0.105471875
30
0
0
VERTEX
8
0
10
-9.14701875
20
-0.134121875
30
0
0
VERTEX
8
0
10
-9.075375000000001
20
-0.15585625
30
0
0
VERTEX
8
0
10
-9.00194375
20
-0.17046250000000002
30
0
0
VERTEX
8
0
10
-8.927434375
20
-0.1778
30
0
0
VERTEX
8
0
10
-8.852565625
20
-0.1778
30
0
0
SEQEND
0
POLYLINE
66
1
8
16_copper
10
0.0
20
0.0
30
0.0
70
1
0
VERTEX
8
0
10
-18.938056250000002
20
-0.17046250000000002
30
0
0
VERTEX
8
0
10
-18.864625
20
-0.15585625
30
0
0
VERTEX
8
0
10
-18.79298125
20
-0.134121875
30
0
0
VERTEX
8
0
10
-18.723809375000002
20
-0.105471875
30
0
0
VERTEX
8
0
10
-18.65778125
20
-0.07017812500000001
30
0
0
VERTEX
8
0
10
-18.59553125
20
-0.028581250000000002
30
0
0
VERTEX
8
0
10
-18.53765625
20
0.018915625000000002
30
0
0
VERTEX
8
0
10
-18.484715625
20
0.07185625
30
0
0
VERTEX
8
0
10
-18.43721875
20
0.12973125
30
0
0
VERTEX
8
0
10
-18.395621875
20
0.19198125000000002
30
0
0
VERTEX
8
0
10
-18.360328125000002
20
0.258009375
30
0
0
VERTEX
8
0
10
-18.331678125
20
0.32718125000000003
30
0
0
VERTEX
8
0
10
-18.309943750000002
20
0.39882500000000004
30
0
0
VERTEX
8
0
10
-18.295337500000002
20
0.47225625000000004
30
0
0
VERTEX
8
0
10
-18.288
20
0.546765625
30
0
0
VERTEX
8
0
10
-18.288
20
2.145634375
30
0
0
VERTEX
8
0
10
-18.295337500000002
20
2.22014375
30
0
0
VERTEX
8
0
10
-18.309943750000002
20
2.293575
30
0
0
VERTEX
8
0
10
-18.331678125
20
2.36521875
30
0
0
VERTEX
8
0
10
-18.360328125000002
20
2.4343906250000003
30
0
0
VERTEX
8
0
10
-18.395621875
20
2.50041875
30
0
0
VERTEX
8
0
10
-18.43721875
20
2.5626687500000003
30
0
0
VERTEX
8
0
10
-18.484715625
20
2.62054375
30
0
0
VERTEX
8
0
10
-18.53765625
20
2.673484375
30
0
0
VERTEX
8
0
10
-18.59553125
20
2.7209812500000004
30
0
0
VERTEX
8
0
10
-18.65778125
20
2.762578125
30
0
0
VERTEX
8
0
10
-18.723809375000002
20
2.7978718750000002
30
0
0
VERTEX
8
0
10
-18.79298125
20
2.826521875
30
0
0
VERTEX
8
0
10
-18.864625
20
2.84825625
30
0
0
VERTEX
8
0
10
-18.938056250000002
20
2.8628625000000003
30
0
0
VERTEX
8
0
10
-19.012565625
20
2.8702
30
0
0
VERTEX
8
0
10
-19.087434375
20
2.8702
30
0
0
VERTEX
8
0
10
-19.161943750000002
20
2.8628625000000003
30
0
0
VERTEX
8
0
10
-19.235375
20
2.84825625
30
0
0
VERTEX
8
0
10
-19.30701875
20
2.826521875
30
0
0
VERTEX
8
0
10
-19.376190625
20
2.7978718750000002
30
0
0
VERTEX
8
0
10
-19.442218750000002
20
2.762578125
30
0
0
VERTEX
8
0
10
-19.50446875
20
2.7209812500000004
30
0
0
VERTEX
8
0
10
-19.56234375
20
2.673484375
30
0
0
VERTEX
8
0
10
-19.615284375
20
2.62054375
30
0
0
VERTEX
8
0
10
-19.662781250000002
20
2.5626687500000003
30
0
0
VERTEX
8
0
10
-19.704378125
20
2.50041875
30
0
0
VERTEX
8
0
10
-19.739671875000003
20
2.4343906250000003
30
0
0
VERTEX
8
0
10
-19.768321875
20
2.36521875
30
0
0
VERTEX
8
0
10
-19.79005625
20
2.293575
30
0
0
VERTEX
8
0
10
-19.804662500000003
20
2.22014375
30
0
0
VERTEX
8
0
10
-19.812
20
2.145634375
30
0
0
VERTEX
8
0
10
-19.812
20
0.546765625
30
0
0
VERTEX
8
0
10
-19.804662500000003
20
0.47225625000000004
30
0
0
VERTEX
8
0
10
-19.79005625
20
0.39882500000000004
30
0
0
VERTEX
8
0
10
-19.768321875
20
0.32718125000000003
30
0
0
VERTEX
8
0
10
-19.739671875000003
20
0.258009375
30
0
0
VERTEX
8
0
10
-19.704378125
20
0.19198125000000002
30
0
0
VERTEX
8
0
10
-19.662781250000002
20
0.12973125
30
0
0
VERTEX
8
0
10
-19.615284375
20
0.07185625
30
0
0
VERTEX
8
0
10
-19.56234375
20
0.018915625000000002
30
0
0
VERTEX
8
0
10
-19.50446875
20
-0.028581250000000002
30
0
0
VERTEX
8
0
10
-19.442218750000002
20
-0.07017812500000001
30
0
0
VERTEX
8
0
10
-19.376190625
20
-0.105471875
30
0
0
VERTEX
8
0
10
-19.30701875
20
-0.134121875
30
0
0
VERTEX
8
0
10
-19.235375
20
-0.15585625
30
0
0
VERTEX
8
0
10
-19.161943750000002
20
-0.17046250000000002
30
0
0
VERTEX
8
0
10
-19.087434375
20
-0.1778
30
0
0
VERTEX
8
0
10
-19.012565625
20
-0.1778
30
0
0
SEQEND
0
POLYLINE
66
1
8
16_copper
10
0.0
20
0.0
30
0.0
70
1
0
VERTEX
8
0
10
-8.77805625
20
-0.17046250000000002
30
0
0
VERTEX
8
0
10
-8.704625
20
-0.15585625
30
0
0
VERTEX
8
0
10
-8.63298125
20
-0.134121875
30
0
0
VERTEX
8
0
10
-8.563809375
20
-0.105471875
30
0
0
VERTEX
8
0
10
-8.497781250000001
20
-0.07017812500000001
30
0
0
VERTEX
8
0
10
-8.43553125
20
-0.028581250000000002
30
0
0
VERTEX
8
0
10
-8.377656250000001
20
0.018915625000000002
30
0
0
VERTEX
8
0
10
-8.324715625
20
0.07185625
30
0
0
VERTEX
8
0
10
-8.277218750000001
20
0.12973125
30
0
0
VERTEX
8
0
10
-8.235621875
20
0.19198125000000002
30
0
0
VERTEX
8
0
10
-8.200328125
20
0.258009375
30
0
0
VERTEX
8
0
10
-8.171678125
20
0.32718125000000003
30
0
0
VERTEX
8
0
10
-8.14994375
20
0.39882500000000004
30
0
0
VERTEX
8
0
10
-8.1353375
20
0.47225625000000004
30
0
0
VERTEX
8
0
10
-8.128
20
0.546765625
30
0
0
VERTEX
8
0
10
-8.128
20
2.145634375
30
0
0
VERTEX
8
0
10
-8.1353375
20
2.22014375
30
0
0
VERTEX
8
0
10
-8.14994375
20
2.293575
30
0
0
VERTEX
8
0
10
-8.171678125
20
2.36521875
30
0
0
VERTEX
8
0
10
-8.200328125
20
2.4343906250000003
30
0
0
VERTEX
8
0
10
-8.235621875
20
2.50041875
30
0
0
VERTEX
8
0
10
-8.277218750000001
20
2.5626687500000003
30
0
0
VERTEX
8
0
10
-8.324715625
20
2.62054375
30
0
0
VERTEX
8
0
10
-8.377656250000001
20
2.673484375
30
0
0
VERTEX
8
0
10
-8.43553125
20
2.7209812500000004
30
0
0
VERTEX
8
0
10
-8.497781250000001
20
2.762578125
30
0
0
VERTEX
8
0
10
-8.563809375
20
2.7978718750000002
30
0
0
VERTEX
8
0
10
-8.63298125
20
2.826521875
30
0
0
VERTEX
8
0
10
-8.704625
20
2.84825625
30
0
0
VERTEX
8
0
10
-8.77805625
20
2.8628625000000003
30
0
0
VERTEX
8
0
10
-8.852565625
20
2.8702
30
0
0
VERTEX
8
0
10
-8.927434375
20
2.8702
30
0
0
VERTEX
8
0
10
-9.00194375
20
2.8628625000000003
30
0
0
VERTEX
8
0
10
-9.075375000000001
20
2.84825625
30
0
0
VERTEX
8
0
10
-9.14701875
20
2.826521875
30
0
0
VERTEX
8
0
10
-9.216190625000001
20
2.7978718750000002
30
0
0
VERTEX
8
0
10
-9.28221875
20
2.762578125
30
0
0
VERTEX
8
0
10
-9.34446875
20
2.7209812500000004
30
0
0
VERTEX
8
0
10
-9.40234375
20
2.673484375
30
0
0
VERTEX
8
0
10
-9.455284375
20
2.62054375
30
0
0
VERTEX
8
0
10
-9.50278125
20
2.5626687500000003
30
0
0
VERTEX
8
0
10
-9.544378125
20
2.50041875
30
0
0
VERTEX
8
0
10
-9.579671875
20
2.4343906250000003
30
0
0
VERTEX
8
0
10
-9.608321875
20
2.36521875
30
0
0
VERTEX
8
0
10
-9.63005625
20
2.293575
30
0
0
VERTEX
8
0
10
-9.6446625
20
2.22014375
30
0
0
VERTEX
8
0
10
-9.652000000000001
20
2.145634375
30
0
0
VERTEX
8
0
10
-9.652000000000001
20
0.546765625
30
0
0
VERTEX
8
0
10
-9.6446625
20
0.47225625000000004
30
0
0
VERTEX
8
0
10
-9.63005625
20
0.39882500000000004
30
0
0
VERTEX
8
0
10
-9.608321875
20
0.32718125000000003
30
0
0
VERTEX
8
0
10
-9.579671875
20
0.258009375
30
0
0
VERTEX
8
0
10
-9.544378125
20
0.19198125000000002
30
0
0
VERTEX
8
0
10
-9.50278125
20
0.12973125
30
0
0
VERTEX
8
0
10
-9.455284375
20
0.07185625
30
0
0
VERTEX
8
0
10
-9.40234375
20
0.018915625000000002
30
0
0
VERTEX
8
0
10
-9.34446875
20
-0.028581250000000002
30
0
0
VERTEX
8
0
10
-9.28221875
20
-0.07017812500000001
30
0
0
VERTEX
8
0
10
-9.216190625000001
20
-0.105471875
30
0
0
VERTEX
8
0
10
-9.14701875
20
-0.134121875
30
0
0
VERTEX
8
0
10
-9.075375000000001
20
-0.15585625
30
0
0
VERTEX
8
0
10
-9.00194375
20
-0.17046250000000002
30
0
0
VERTEX
8
0
10
-8.927434375
20
-0.1778
30
0
0
VERTEX
8
0
10
-8.852565625
20
-0.1778
30
0
0
SEQEND
0
POLYLINE
66
1
8
1_copper
10
0.0
20
0.0
30
0.0
70
1
0
VERTEX
8
0
10
-6.037165625
20
10.736740625000001
30
0
0
VERTEX
8
0
10
-5.969709375
20
10.750159375
30
0
0
VERTEX
8
0
10
-5.90389375
20
10.770125
30
0
0
VERTEX
8
0
10
-5.84035
20
10.79644375
30
0
0
VERTEX
8
0
10
-5.77969375
20
10.828865625
30
0
0
VERTEX
8
0
10
-5.72250625
20
10.867078125
30
0
0
VERTEX
8
0
10
-5.669340625
20
10.910709375
30
0
0
VERTEX
8
0
10
-5.620709375000001
20
10.959340625000001
30
0
0
VERTEX
8
0
10
-5.577078125
20
11.012506250000001
30
0
0
VERTEX
8
0
10
-5.538865625000001
20
11.06969375
30
0
0
VERTEX
8
0
10
-5.50644375
20
11.13035
30
0
0
VERTEX
8
0
10
-5.480125
20
11.19389375
30
0
0
VERTEX
8
0
10
-5.460159375
20
11.259709375
30
0
0
VERTEX
8
0
10
-5.446740625
20
11.327165625000001
30
0
0
VERTEX
8
0
10
-5.44
20
11.3956125
30
0
0
VERTEX
8
0
10
-5.44
20
11.4643875
30
0
0
VERTEX
8
0
10
-5.446740625
20
11.532834375
30
0
0
VERTEX
8
0
10
-5.460159375
20
11.600290625000001
30
0
0
VERTEX
8
0
10
-5.480125
20
11.66610625
30
0
0
VERTEX
8
0
10
-5.50644375
20
11.729650000000001
30
0
0
VERTEX
8
0
10
-5.538865625000001
20
11.79030625
30
0
0
VERTEX
8
0
10
-5.577078125
20
11.84749375
30
0
0
VERTEX
8
0
10
-5.620709375000001
20
11.900659375
30
0
0
VERTEX
8
0
10
-5.669340625
20
11.949290625
30
0
0
VERTEX
8
0
10
-5.72250625
20
11.992921875
30
0
0
VERTEX
8
0
10
-5.77969375
20
12.031134375
30
0
0
VERTEX
8
0
10
-5.84035
20
12.063556250000001
30
0
0
VERTEX
8
0
10
-5.90389375
20
12.089875000000001
30
0
0
VERTEX
8
0
10
-5.969709375
20
12.109840625
30
0
0
VERTEX
8
0
10
-6.037165625
20
12.123259375
30
0
0
VERTEX
8
0
10
-6.1056125
20
12.13
30
0
0
VERTEX
8
0
10
-6.1743875
20
12.13
30
0
0
VERTEX
8
0
10
-6.242834375
20
12.123259375
30
0
0
VERTEX
8
0
10
-6.310290625
20
12.109840625
30
0
0
VERTEX
8
0
10
-6.37610625
20
12.089875000000001
30
0
0
VERTEX
8
0
10
-6.43965
20
12.063556250000001
30
0
0
VERTEX
8
0
10
-6.50030625
20
12.031134375
30
0
0
VERTEX
8
0
10
-6.55749375
20
11.992921875
30
0
0
VERTEX
8
0
10
-6.610659375
20
11.949290625
30
0
0
VERTEX
8
0
10
-6.659290625000001
20
11.900659375
30
0
0
VERTEX
8
0
10
-6.702921875
20
11.84749375
30
0
0
VERTEX
8
0
10
-6.741134375000001
20
11.79030625
30
0
0
VERTEX
8
0
10
-6.77355625
20
11.729650000000001
30
0
0
VERTEX
8
0
10
-6.799875
20
11.66610625
30
0
0
VERTEX
8
0
10
-6.819840625
20
11.600290625000001
30
0
0
VERTEX
8
0
10
-6.833259375
20
11.532834375
30
0
0
VERTEX
8
0
10
-6.840000000000001
20
11.4643875
30
0
0
VERTEX
8
0
10
-6.840000000000001
20
11.3956125
30
0
0
VERTEX
8
0
10
-6.833259375
20
11.327165625000001
30
0
0
VERTEX
8
0
10
-6.819840625
20
11.259709375
30
0
0
VERTEX
8
0
10
-6.799875
20
11.19389375
30
0
0
VERTEX
8
0
10
-6.77355625
20
11.13035
30
0
0
VERTEX
8
0
10
-6.741134375000001
20
11.06969375
30
0
0
VERTEX
8
0
10
-6.702921875
20
11.012506250000001
30
0
0
VERTEX
8
0
10
-6.659290625000001
20
10.959340625000001
30
0
0
VERTEX
8
0
10
-6.610659375
20
10.910709375
30
0
0
VERTEX
8
0
10
-6.55749375
20
10.867078125
30
0
0
VERTEX
8
0
10
-6.50030625
20
10.828865625
30
0
0
VERTEX
8
0
10
-6.43965
20
10.79644375
30
0
0
VERTEX
8
0
10
-6.37610625
20
10.770125
30
0
0
VERTEX
8
0
10
-6.310290625
20
10.750159375
30
0
0
VERTEX
8
0
10
-6.242834375
20
10.736740625000001
30
0
0
VERTEX
8
0
10
-6.1743875
20
10.73
30
0
0
VERTEX
8
0
10
-6.1056125
20
10.73
30
0
0
SEQEND
0
POLYLINE
66
1
8
1_copper
10
0.0
20
0.0
30
0.0
70
1
0
VERTEX
8
0
10
-25.8823
20
10.24765
30
0
0
VERTEX
8
0
10
-27.0469
20
10.24765
30
0
0
VERTEX
8
0
10
-27.0469
20
7.53235
30
0
0
VERTEX
8
0
10
-25.8823
20
7.53235
30
0
0
SEQEND
0
POLYLINE
66
1
8
1_copper
10
0.0
20
0.0
30
0.0
70
1
0
VERTEX
8
0
10
-28.575000000000003
20
0.9381250000000001
30
0
0
VERTEX
8
0
10
-28.575000000000003
20
2.5162750000000003
30
0
0
VERTEX
8
0
10
-29.690925
20
3.6322
30
0
0
VERTEX
8
0
10
-31.269075
20
3.6322
30
0
0
VERTEX
8
0
10
-32.385
20
2.5162750000000003
30
0
0
VERTEX
8
0
10
-32.385
20
0.9381250000000001
30
0
0
VERTEX
8
0
10
-31.269075
20
-0.1778
30
0
0
VERTEX
8
0
10
-29.690925
20
-0.1778
30
0
0
SEQEND
0
POLYLINE
66
1
8
1_copper
10
0.0
20
0.0
30
0.0
70
1
0
VERTEX
8
0
10
-16.39805625
20
-0.17046250000000002
30
0
0
VERTEX
8
0
10
-16.324625
20
-0.15585625
30
0
0
VERTEX
8
0
10
-16.25298125
20
-0.134121875
30
0
0
VERTEX
8
0
10
-16.183809375
20
-0.105471875
30
0
0
VERTEX
8
0
10
-16.11778125
20
-0.07017812500000001
30
0
0
VERTEX
8
0
10
-16.05553125
20
-0.028581250000000002
30
0
0
VERTEX
8
0
10
-15.99765625
20
0.018915625000000002
30
0
0
VERTEX
8
0
10
-15.944715625
20
0.07185625
30
0
0
VERTEX
8
0
10
-15.89721875
20
0.12973125
30
0
0
VERTEX
8
0
10
-15.855621875
20
0.19198125000000002
30
0
0
VERTEX
8
0
10
-15.820328125000001
20
0.258009375
30
0
0
VERTEX
8
0
10
-15.791678125
20
0.32718125000000003
30
0
0
VERTEX
8
0
10
-15.769943750000001
20
0.39882500000000004
30
0
0
VERTEX
8
0
10
-15.755337500000001
20
0.47225625000000004
30
0
0
VERTEX
8
0
10
-15.748000000000001
20
0.546765625
30
0
0
VERTEX
8
0
10
-15.748000000000001
20
2.145634375
30
0
0
VERTEX
8
0
10
-15.755337500000001
20
2.22014375
30
0
0
VERTEX
8
0
10
-15.769943750000001
20
2.293575
30
0
0
VERTEX
8
0
10
-15.791678125
20
2.36521875
30
0
0
VERTEX
8
0
10
-15.820328125000001
20
2.4343906250000003
30
0
0
VERTEX
8
0
10
-15.855621875
20
2.50041875
30
0
0
VERTEX
8
0
10
-15.89721875
20
2.5626687500000003
30
0
0
VERTEX
8
0
10
-15.944715625
20
2.62054375
30
0
0
VERTEX
8
0
10
-15.99765625
20
2.673484375
30
0
0
VERTEX
8
0
10
-16.05553125
20
2.7209812500000004
30
0
0
VERTEX
8
0
10
-16.11778125
20
2.762578125
30
0
0
VERTEX
8
0
10
-16.183809375
20
2.7978718750000002
30
0
0
VERTEX
8
0
10
-16.25298125
20
2.826521875
30
0
0
VERTEX
8
0
10
-16.324625
20
2.84825625
30
0
0
VERTEX
8
0
10
-16.39805625
20
2.8628625000000003
30
0
0
VERTEX
8
0
10
-16.472565625
20
2.8702
30
0
0
VERTEX
8
0
10
-16.547434375
20
2.8702
30
0
0
VERTEX
8
0
10
-16.62194375
20
2.8628625000000003
30
0
0
VERTEX
8
0
10
-16.695375000000002
20
2.84825625
30
0
0
VERTEX
8
0
10
-16.767018750000002
20
2.826521875
30
0
0
VERTEX
8
0
10
-16.836190625
20
2.7978718750000002
30
0
0
VERTEX
8
0
10
-16.90221875
20
2.762578125
30
0
0
VERTEX
8
0
10
-16.96446875
20
2.7209812500000004
30
0
0
VERTEX
8
0
10
-17.02234375
20
2.673484375
30
0
0
VERTEX
8
0
10
-17.075284375000003
20
2.62054375
30
0
0
VERTEX
8
0
10
-17.12278125
20
2.5626687500000003
30
0
0
VERTEX
8
0
10
-17.164378125000002
20
2.50041875
30
0
0
VERTEX
8
0
10
-17.199671875
20
2.4343906250000003
30
0
0
VERTEX
8
0
10
-17.228321875000002
20
2.36521875
30
0
0
VERTEX
8
0
10
-17.25005625
20
2.293575
30
0
0
VERTEX
8
0
10
-17.2646625
20
2.22014375
30
0
0
VERTEX
8
0
10
-17.272000000000002
20
2.145634375
30
0
0
VERTEX
8
0
10
-17.272000000000002
20
0.546765625
30
0
0
VERTEX
8
0
10
-17.2646625
20
0.47225625000000004
30
0
0
VERTEX
8
0
10
-17.25005625
20
0.39882500000000004
30
0
0
VERTEX
8
0
10
-17.228321875000002
20
0.32718125000000003
30
0
0
VERTEX
8
0
10
-17.199671875
20
0.258009375
30
0
0
VERTEX
8
0
10
-17.164378125000002
20
0.19198125000000002
30
0
0
VERTEX
8
0
10
-17.12278125
20
0.12973125
30
0
0
VERTEX
8
0
10
-17.075284375000003
20
0.07185625
30
0
0
VERTEX
8
0
10
-17.02234375
20
0.018915625000000002
30
0
0
VERTEX
8
0
10
-16.96446875
20
-0.028581250000000002
30
0
0
VERTEX
8
0
10
-16.90221875
20
-0.07017812500000001
30
0
0
VERTEX
8
0
10
-16.836190625
20
-0.105471875
30
0
0
VERTEX
8
0
10
-16.767018750000002
20
-0.134121875
30
0
0
VERTEX
8
0
10
-16.695375000000002
20
-0.15585625
30
0
0
VERTEX
8
0
10
-16.62194375
20
-0.17046250000000002
30
0
0
VERTEX
8
0
10
-16.547434375
20
-0.1778
30
0
0
VERTEX
8
0
10
-16.472565625
20
-0.1778
30
0
0
SEQEND
0
POLYLINE
66
1
8
1_copper
10
0.0
20
0.0
30
0.0
70
1
0
VERTEX
8
0
10
-6.2380562500000005
20
-0.17046250000000002
30
0
0
VERTEX
8
0
10
-6.164625
20
-0.15585625
30
0
0
VERTEX
8
0
10
-6.09298125
20
-0.134121875
30
0
0
VERTEX
8
0
10
-6.023809375
20
-0.105471875
30
0
0
VERTEX
8
0
10
-5.95778125
20
-0.07017812500000001
30
0
0
VERTEX
8
0
10
-5.89553125
20
-0.028581250000000002
30
0
0
VERTEX
8
0
10
-5.83765625
20
0.018915625000000002
30
0
0
VERTEX
8
0
10
-5.7847156250000005
20
0.07185625
30
0
0
VERTEX
8
0
10
-5.73721875
20
0.12973125
30
0
0
VERTEX
8
0
10
-5.6956218750000005
20
0.19198125000000002
30
0
0
VERTEX
8
0
10
-5.660328125
20
0.258009375
30
0
0
VERTEX
8
0
10
-5.6316781250000005
20
0.32718125000000003
30
0
0
VERTEX
8
0
10
-5.60994375
20
0.39882500000000004
30
0
0
VERTEX
8
0
10
-5.5953375
20
0.47225625000000004
30
0
0
VERTEX
8
0
10
-5.588
20
0.546765625
30
0
0
VERTEX
8
0
10
-5.588
20
2.145634375
30
0
0
VERTEX
8
0
10
-5.5953375
20
2.22014375
30
0
0
VERTEX
8
0
10
-5.60994375
20
2.293575
30
0
0
VERTEX
8
0
10
-5.6316781250000005
20
2.36521875
30
0
0
VERTEX
8
0
10
-5.660328125
20
2.4343906250000003
30
0
0
VERTEX
8
0
10
-5.6956218750000005
20
2.50041875
30
0
0
VERTEX
8
0
10
-5.73721875
20
2.5626687500000003
30
0
0
VERTEX
8
0
10
-5.7847156250000005
20
2.62054375
30
0
0
VERTEX
8
0
10
-5.83765625
20
2.673484375
30
0
0
VERTEX
8
0
10
-5.89553125
20
2.7209812500000004
30
0
0
VERTEX
8
0
10
-5.95778125
20
2.762578125
30
0
0
VERTEX
8
0
10
-6.023809375
20
2.7978718750000002
30
0
0
VERTEX
8
0
10
-6.09298125
20
2.826521875
30
0
0
VERTEX
8
0
10
-6.164625
20
2.84825625
30
0
0
VERTEX
8
0
10
-6.2380562500000005
20
2.8628625000000003
30
0
0
VERTEX
8
0
10
-6.312565625
20
2.8702
30
0
0
VERTEX
8
0
10
-6.387434375000001
20
2.8702
30
0
0
VERTEX
8
0
10
-6.4619437500000005
20
2.8628625000000003
30
0
0
VERTEX
8
0
10
-6.535375
20
2.84825625
30
0
0
VERTEX
8
0
10
-6.60701875
20
2.826521875
30
0
0
VERTEX
8
0
10
-6.676190625
20
2.7978718750000002
30
0
0
VERTEX
8
0
10
-6.74221875
20
2.762578125
30
0
0
VERTEX
8
0
10
-6.804468750000001
20
2.7209812500000004
30
0
0
VERTEX
8
0
10
-6.86234375
20
2.673484375
30
0
0
VERTEX
8
0
10
-6.915284375000001
20
2.62054375
30
0
0
VERTEX
8
0
10
-6.96278125
20
2.5626687500000003
30
0
0
VERTEX
8
0
10
-7.004378125000001
20
2.50041875
30
0
0
VERTEX
8
0
10
-7.039671875000001
20
2.4343906250000003
30
0
0
VERTEX
8
0
10
-7.0683218750000005
20
2.36521875
30
0
0
VERTEX
8
0
10
-7.09005625
20
2.293575
30
0
0
VERTEX
8
0
10
-7.104662500000001
20
2.22014375
30
0
0
VERTEX
8
0
10
-7.112
20
2.145634375
30
0
0
VERTEX
8
0
10
-7.112
20
0.546765625
30
0
0
VERTEX
8
0
10
-7.104662500000001
20
0.47225625000000004
30
0
0
VERTEX
8
0
10
-7.09005625
20
0.39882500000000004
30
0
0
VERTEX
8
0
10
-7.0683218750000005
20
0.32718125000000003
30
0
0
VERTEX
8
0
10
-7.039671875000001
20
0.258009375
30
0
0
VERTEX
8
0
10
-7.004378125000001
20
0.19198125000000002
30
0
0
VERTEX
8
0
10
-6.96278125
20
0.12973125
30
0
0
VERTEX
8
0
10
-6.915284375000001
20
0.07185625
30
0
0
VERTEX
8
0
10
-6.86234375
20
0.018915625000000002
30
0
0
VERTEX
8
0
10
-6.804468750000001
20
-0.028581250000000002
30
0
0
VERTEX
8
0
10
-6.74221875
20
-0.07017812500000001
30
0
0
VERTEX
8
0
10
-6.676190625
20
-0.105471875
30
0
0
VERTEX
8
0
10
-6.60701875
20
-0.134121875
30
0
0
VERTEX
8
0
10
-6.535375
20
-0.15585625
30
0
0
VERTEX
8
0
10
-6.4619437500000005
20
-0.17046250000000002
30
0
0
VERTEX
8
0
10
-6.387434375000001
20
-0.1778
30
0
0
VERTEX
8
0
10
-6.312565625
20
-0.1778
30
0
0
SEQEND
0
POLYLINE
66
1
8
16_copper
10
0.0
20
0.0
30
0.0
70
1
0
VERTEX
8
0
10
-6.037165625
20
10.736740625000001
30
0
0
VERTEX
8
0
10
-5.969709375
20
10.750159375
30
0
0
VERTEX
8
0
10
-5.90389375
20
10.770125
30
0
0
VERTEX
8
0
10
-5.84035
20
10.79644375
30
0
0
VERTEX
8
0
10
-5.77969375
20
10.828865625
30
0
0
VERTEX
8
0
10
-5.72250625
20
10.867078125
30
0
0
VERTEX
8
0
10
-5.669340625
20
10.910709375
30
0
0
VERTEX
8
0
10
-5.620709375000001
20
10.959340625000001
30
0
0
VERTEX
8
0
10
-5.577078125
20
11.012506250000001
30
0
0
VERTEX
8
0
10
-5.538865625000001
20
11.06969375
30
0
0
VERTEX
8
0
10
-5.50644375
20
11.13035
30
0
0
VERTEX
8
0
10
-5.480125
20
11.19389375
30
0
0
VERTEX
8
0
10
-5.460159375
20
11.259709375
30
0
0
VERTEX
8
0
10
-5.446740625
20
11.327165625000001
30
0
0
VERTEX
8
0
10
-5.44
20
11.3956125
30
0
0
VERTEX
8
0
10
-5.44
20
11.4643875
30
0
0
VERTEX
8
0
10
-5.446740625
20
11.532834375
30
0
0
VERTEX
8
0
10
-5.460159375
20
11.600290625000001
30
0
0
VERTEX
8
0
10
-5.480125
20
11.66610625
30
0
0
VERTEX
8
0
10
-5.50644375
20
11.729650000000001
30
0
0
VERTEX
8
0
10
-5.538865625000001
20
11.79030625
30
0
0
VERTEX
8
0
10
-5.577078125
20
11.84749375
30
0
0
VERTEX
8
0
10
-5.620709375000001
20
11.900659375
30
0
0
VERTEX
8
0
10
-5.669340625
20
11.949290625
30
0
0
VERTEX
8
0
10
-5.72250625
20
11.992921875
30
0
0
VERTEX
8
0
10
-5.77969375
20
12.031134375
30
0
0
VERTEX
8
0
10
-5.84035
20
12.063556250000001
30
0
0
VERTEX
8
0
10
-5.90389375
20
12.089875000000001
30
0
0
VERTEX
8
0
10
-5.969709375
20
12.109840625
30
0
0
VERTEX
8
0
10
-6.037165625
20
12.123259375
30
0
0
VERTEX
8
0
10
-6.1056125
20
12.13
30
0
0
VERTEX
8
0
10
-6.1743875
20
12.13
30
0
0
VERTEX
8
0
10
-6.242834375
20
12.123259375
30
0
0
VERTEX
8
0
10
-6.310290625
20
12.109840625
30
0
0
VERTEX
8
0
10
-6.37610625
20
12.089875000000001
30
0
0
VERTEX
8
0
10
-6.43965
20
12.063556250000001
30
0
0
VERTEX
8
0
10
-6.50030625
20
12.031134375
30
0
0
VERTEX
8
0
10
-6.55749375
20
11.992921875
30
0
0
VERTEX
8
0
10
-6.610659375
20
11.949290625
30
0
0
VERTEX
8
0
10
-6.659290625000001
20
11.900659375
30
0
0
VERTEX
8
0
10
-6.702921875
20
11.84749375
30
0
0
VERTEX
8
0
10
-6.741134375000001
20
11.79030625
30
0
0
VERTEX
8
0
10
-6.77355625
20
11.729650000000001
30
0
0
VERTEX
8
0
10
-6.799875
20
11.66610625
30
0
0
VERTEX
8
0
10
-6.819840625
20
11.600290625000001
30
0
0
VERTEX
8
0
10
-6.833259375
20
11.532834375
30
0
0
VERTEX
8
0
10
-6.840000000000001
20
11.4643875
30
0
0
VERTEX
8
0
10
-6.840000000000001
20
11.3956125
30
0
0
VERTEX
8
0
10
-6.833259375
20
11.327165625000001
30
0
0
VERTEX
8
0
10
-6.819840625
20
11.259709375
30
0
0
VERTEX
8
0
10
-6.799875
20
11.19389375
30
0
0
VERTEX
8
0
10
-6.77355625
20
11.13035
30
0
0
VERTEX
8
0
10
-6.741134375000001
20
11.06969375
30
0
0
VERTEX
8
0
10
-6.702921875
20
11.012506250000001
30
0
0
VERTEX
8
0
10
-6.659290625000001
20
10.959340625000001
30
0
0
VERTEX
8
0
10
-6.610659375
20
10.910709375
30
0
0
VERTEX
8
0
10
-6.55749375
20
10.867078125
30
0
0
VERTEX
8
0
10
-6.50030625
20
10.828865625
30
0
0
VERTEX
8
0
10
-6.43965
20
10.79644375
30
0
0
VERTEX
8
0
10
-6.37610625
20
10.770125
30
0
0
VERTEX
8
0
10
-6.310290625
20
10.750159375
30
0
0
VERTEX
8
0
10
-6.242834375
20
10.736740625000001
30
0
0
VERTEX
8
0
10
-6.1743875
20
10.73
30
0
0
VERTEX
8
0
10
-6.1056125
20
10.73
30
0
0
SEQEND
0
POLYLINE
66
1
8
16_copper
10
0.0
20
0.0
30
0.0
70
1
0
VERTEX
8
0
10
-28.575000000000003
20
0.9381250000000001
30
0
0
VERTEX
8
0
10
-28.575000000000003
20
2.5162750000000003
30
0
0
VERTEX
8
0
10
-29.690925
20
3.6322
30
0
0
VERTEX
8
0
10
-31.269075
20
3.6322
30
0
0
VERTEX
8
0
10
-32.385
20
2.5162750000000003
30
0
0
VERTEX
8
0
10
-32.385
20
0.9381250000000001
30
0
0
VERTEX
8
0
10
-31.269075
20
-0.1778
30
0
0
VERTEX
8
0
10
-29.690925
20
-0.1778
30
0
0
SEQEND
0
POLYLINE
66
1
8
16_copper
10
0.0
20
0.0
30
0.0
70
1
0
VERTEX
8
0
10
-16.39805625
20
-0.17046250000000002
30
0
0
VERTEX
8
0
10
-16.324625
20
-0.15585625
30
0
0
VERTEX
8
0
10
-16.25298125
20
-0.134121875
30
0
0
VERTEX
8
0
10
-16.183809375
20
-0.105471875
30
0
0
VERTEX
8
0
10
-16.11778125
20
-0.07017812500000001
30
0
0
VERTEX
8
0
10
-16.05553125
20
-0.028581250000000002
30
0
0
VERTEX
8
0
10
-15.99765625
20
0.018915625000000002
30
0
0
VERTEX
8
0
10
-15.944715625
20
0.07185625
30
0
0
VERTEX
8
0
10
-15.89721875
20
0.12973125
30
0
0
VERTEX
8
0
10
-15.855621875
20
0.19198125000000002
30
0
0
VERTEX
8
0
10
-15.820328125000001
20
0.258009375
30
0
0
VERTEX
8
0
10
-15.791678125
20
0.32718125000000003
30
0
0
VERTEX
8
0
10
-15.769943750000001
20
0.39882500000000004
30
0
0
VERTEX
8
0
10
-15.755337500000001
20
0.47225625000000004
30
0
0
VERTEX
8
0
10
-15.748000000000001
20
0.546765625
30
0
0
VERTEX
8
0
10
-15.748000000000001
20
2.145634375
30
0
0
VERTEX
8
0
10
-15.755337500000001
20
2.22014375
30
0
0
VERTEX
8
0
10
-15.769943750000001
20
2.293575
30
0
0
VERTEX
8
0
10
-15.791678125
20
2.36521875
30
0
0
VERTEX
8
0
10
-15.820328125000001
20
2.4343906250000003
30
0
0
VERTEX
8
0
10
-15.855621875
20
2.50041875
30
0
0
VERTEX
8
0
10
-15.89721875
20
2.5626687500000003
30
0
0
VERTEX
8
0
10
-15.944715625
20
2.62054375
30
0
0
VERTEX
8
0
10
-15.99765625
20
2.673484375
30
0
0
VERTEX
8
0
10
-16.05553125
20
2.7209812500000004
30
0
0
VERTEX
8
0
10
-16.11778125
20
2.762578125
30
0
0
VERTEX
8
0
10
-16.183809375
20
2.7978718750000002
30
0
0
VERTEX
8
0
10
-16.25298125
20
2.826521875
30
0
0
VERTEX
8
0
10
-16.324625
20
2.84825625
30
0
0
VERTEX
8
0
10
-16.39805625
20
2.8628625000000003
30
0
0
VERTEX
8
0
10
-16.472565625
20
2.8702
30
0
0
VERTEX
8
0
10
-16.547434375
20
2.8702
30
0
0
VERTEX
8
0
10
-16.62194375
20
2.8628625000000003
30
0
0
VERTEX
8
0
10
-16.695375000000002
20
2.84825625
30
0
0
VERTEX
8
0
10
-16.767018750000002
20
2.826521875
30
0
0
VERTEX
8
0
10
-16.836190625
20
2.7978718750000002
30
0
0
VERTEX
8
0
10
-16.90221875
20
2.762578125
30
0
0
VERTEX
8
0
10
-16.96446875
20
2.7209812500000004
30
0
0
VERTEX
8
0
10
-17.02234375
20
2.673484375
30
0
0
VERTEX
8
0
10
-17.075284375000003
20
2.62054375
30
0
0
VERTEX
8
0
10
-17.12278125
20
2.5626687500000003
30
0
0
VERTEX
8
0
10
-17.164378125000002
20
2.50041875
30
0
0
VERTEX
8
0
10
-17.199671875
20
2.4343906250000003
30
0
0
VERTEX
8
0
10
-17.228321875000002
20
2.36521875
30
0
0
VERTEX
8
0
10
-17.25005625
20
2.293575
30
0
0
VERTEX
8
0
10
-17.2646625
20
2.22014375
30
0
0
VERTEX
8
0
10
-17.272000000000002
20
2.145634375
30
0
0
VERTEX
8
0
10
-17.272000000000002
20
0.546765625
30
0
0
VERTEX
8
0
10
-17.2646625
20
0.47225625000000004
30
0
0
VERTEX
8
0
10
-17.25005625
20
0.39882500000000004
30
0
0
VERTEX
8
0
10
-17.228321875000002
20
0.32718125000000003
30
0
0
VERTEX
8
0
10
-17.199671875
20
0.258009375
30
0
0
VERTEX
8
0
10
-17.164378125000002
20
0.19198125000000002
30
0
0
VERTEX
8
0
10
-17.12278125
20
0.12973125
30
0
0
VERTEX
8
0
10
-17.075284375000003
20
0.07185625
30
0
0
VERTEX
8
0
10
-17.02234375
20
0.018915625000000002
30
0
0
VERTEX
8
0
10
-16.96446875
20
-0.028581250000000002
30
0
0
VERTEX
8
0
10
-16.90221875
20
-0.07017812500000001
30
0
0
VERTEX
8
0
10
-16.836190625
20
-0.105471875
30
0
0
VERTEX
8
0
10
-16.767018750000002
20
-0.134121875
30
0
0
VERTEX
8
0
10
-16.695375000000002
20
-0.15585625
30
0
0
VERTEX
8
0
10
-16.62194375
20
-0.17046250000000002
30
0
0
VERTEX
8
0
10
-16.547434375
20
-0.1778
30
0
0
VERTEX
8
0
10
-16.472565625
20
-0.1778
30
0
0
SEQEND
0
POLYLINE
66
1
8
16_copper
10
0.0
20
0.0
30
0.0
70
1
0
VERTEX
8
0
10
-6.2380562500000005
20
-0.17046250000000002
30
0
0
VERTEX
8
0
10
-6.164625
20
-0.15585625
30
0
0
VERTEX
8
0
10
-6.09298125
20
-0.134121875
30
0
0
VERTEX
8
0
10
-6.023809375
20
-0.105471875
30
0
0
VERTEX
8
0
10
-5.95778125
20
-0.07017812500000001
30
0
0
VERTEX
8
0
10
-5.89553125
20
-0.028581250000000002
30
0
0
VERTEX
8
0
10
-5.83765625
20
0.018915625000000002
30
0
0
VERTEX
8
0
10
-5.7847156250000005
20
0.07185625
30
0
0
VERTEX
8
0
10
-5.73721875
20
0.12973125
30
0
0
VERTEX
8
0
10
-5.6956218750000005
20
0.19198125000000002
30
0
0
VERTEX
8
0
10
-5.660328125
20
0.258009375
30
0
0
VERTEX
8
0
10
-5.6316781250000005
20
0.32718125000000003
30
0
0
VERTEX
8
0
10
-5.60994375
20
0.39882500000000004
30
0
0
VERTEX
8
0
10
-5.5953375
20
0.47225625000000004
30
0
0
VERTEX
8
0
10
-5.588
20
0.546765625
30
0
0
VERTEX
8
0
10
-5.588
20
2.145634375
30
0
0
VERTEX
8
0
10
-5.5953375
20
2.22014375
30
0
0
VERTEX
8
0
10
-5.60994375
20
2.293575
30
0
0
VERTEX
8
0
10
-5.6316781250000005
20
2.36521875
30
0
0
VERTEX
8
0
10
-5.660328125
20
2.4343906250000003
30
0
0
VERTEX
8
0
10
-5.6956218750000005
20
2.50041875
30
0
0
VERTEX
8
0
10
-5.73721875
20
2.5626687500000003
30
0
0
VERTEX
8
0
10
-5.7847156250000005
20
2.62054375
30
0
0
VERTEX
8
0
10
-5.83765625
20
2.673484375
30
0
0
VERTEX
8
0
10
-5.89553125
20
2.7209812500000004
30
0
0
VERTEX
8
0
10
-5.95778125
20
2.762578125
30
0
0
VERTEX
8
0
10
-6.023809375
20
2.7978718750000002
30
0
0
VERTEX
8
0
10
-6.09298125
20
2.826521875
30
0
0
VERTEX
8
0
10
-6.164625
20
2.84825625
30
0
0
VERTEX
8
0
10
-6.2380562500000005
20
2.8628625000000003
30
0
0
VERTEX
8
0
10
-6.312565625
20
2.8702
30
0
0
VERTEX
8
0
10
-6.387434375000001
20
2.8702
30
0
0
VERTEX
8
0
10
-6.4619437500000005
20
2.8628625000000003
30
0
0
VERTEX
8
0
10
-6.535375
20
2.84825625
30
0
0
VERTEX
8
0
10
-6.60701875
20
2.826521875
30
0
0
VERTEX
8
0
10
-6.676190625
20
2.7978718750000002
30
0
0
VERTEX
8
0
10
-6.74221875
20
2.762578125
30
0
0
VERTEX
8
0
10
-6.804468750000001
20
2.7209812500000004
30
0
0
VERTEX
8
0
10
-6.86234375
20
2.673484375
30
0
0
VERTEX
8
0
10
-6.915284375000001
20
2.62054375
30
0
0
VERTEX
8
0
10
-6.96278125
20
2.5626687500000003
30
0
0
VERTEX
8
0
10
-7.004378125000001
20
2.50041875
30
0
0
VERTEX
8
0
10
-7.039671875000001
20
2.4343906250000003
30
0
0
VERTEX
8
0
10
-7.0683218750000005
20
2.36521875
30
0
0
VERTEX
8
0
10
-7.09005625
20
2.293575
30
0
0
VERTEX
8
0
10
-7.104662500000001
20
2.22014375
30
0
0
VERTEX
8
0
10
-7.112
20
2.145634375
30
0
0
VERTEX
8
0
10
-7.112
20
0.546765625
30
0
0
VERTEX
8
0
10
-7.104662500000001
20
0.47225625000000004
30
0
0
VERTEX
8
0
10
-7.09005625
20
0.39882500000000004
30
0
0
VERTEX
8
0
10
-7.0683218750000005
20
0.32718125000000003
30
0
0
VERTEX
8
0
10
-7.039671875000001
20
0.258009375
30
0
0
VERTEX
8
0
10
-7.004378125000001
20
0.19198125000000002
30
0
0
VERTEX
8
0
10
-6.96278125
20
0.12973125
30
0
0
VERTEX
8
0
10
-6.915284375000001
20
0.07185625
30
0
0
VERTEX
8
0
10
-6.86234375
20
0.018915625000000002
30
0
0
VERTEX
8
0
10
-6.804468750000001
20
-0.028581250000000002
30
0
0
VERTEX
8
0
10
-6.74221875
20
-0.07017812500000001
30
0
0
VERTEX
8
0
10
-6.676190625
20
-0.105471875
30
0
0
VERTEX
8
0
10
-6.60701875
20
-0.134121875
30
0
0
VERTEX
8
0
10
-6.535375
20
-0.15585625
30
0
0
VERTEX
8
0
10
-6.4619437500000005
20
-0.17046250000000002
30
0
0
VERTEX
8
0
10
-6.387434375000001
20
-0.1778
30
0
0
VERTEX
8
0
10
-6.312565625
20
-0.1778
30
0
0
SEQEND
0
POLYLINE
66
1
8
1_copper
10
0.0
20
0.0
30
0.0
70
1
0
VERTEX
8
0
10
-33.655
20
0.9381250000000001
30
0
0
VERTEX
8
0
10
-33.655
20
2.5162750000000003
30
0
0
VERTEX
8
0
10
-34.770925
20
3.6322
30
0
0
VERTEX
8
0
10
-36.349075
20
3.6322
30
0
0
VERTEX
8
0
10
-37.465
20
2.5162750000000003
30
0
0
VERTEX
8
0
10
-37.465
20
0.9381250000000001
30
0
0
VERTEX
8
0
10
-36.349075
20
-0.1778
30
0
0
VERTEX
8
0
10
-34.770925
20
-0.1778
30
0
0
SEQEND
0
POLYLINE
66
1
8
16_copper
10
0.0
20
0.0
30
0.0
70
1
0
VERTEX
8
0
10
-33.655
20
0.9381250000000001
30
0
0
VERTEX
8
0
10
-33.655
20
2.5162750000000003
30
0
0
VERTEX
8
0
10
-34.770925
20
3.6322
30
0
0
VERTEX
8
0
10
-36.349075
20
3.6322
30
0
0
VERTEX
8
0
10
-37.465
20
2.5162750000000003
30
0
0
VERTEX
8
0
10
-37.465
20
0.9381250000000001
30
0
0
VERTEX
8
0
10
-36.349075
20
-0.1778
30
0
0
VERTEX
8
0
10
-34.770925
20
-0.1778
30
0
0
SEQEND
0
POLYLINE
66
1
8
1_copper
10
0.0
20
0.0
30
0.0
70
1
0
VERTEX
8
0
10
-21.4039
20
10.5751
30
0
0
VERTEX
8
0
10
-22.6351
20
10.5751
30
0
0
VERTEX
8
0
10
-22.6351
20
7.2049
30
0
0
VERTEX
8
0
10
-21.4039
20
7.2049
30
0
0
SEQEND
0
POLYLINE
66
1
8
1_copper
10
0.0
20
0.0
30
0.0
70
1
0
VERTEX
8
0
10
-21.47805625
20
-0.17046250000000002
30
0
0
VERTEX
8
0
10
-21.404625
20
-0.15585625
30
0
0
VERTEX
8
0
10
-21.33298125
20
-0.134121875
30
0
0
VERTEX
8
0
10
-21.263809375
20
-0.105471875
30
0
0
VERTEX
8
0
10
-21.197781250000002
20
-0.07017812500000001
30
0
0
VERTEX
8
0
10
-21.13553125
20
-0.028581250000000002
30
0
0
VERTEX
8
0
10
-21.07765625
20
0.018915625000000002
30
0
0
VERTEX
8
0
10
-21.024715625000002
20
0.07185625
30
0
0
VERTEX
8
0
10
-20.977218750000002
20
0.12973125
30
0
0
VERTEX
8
0
10
-20.935621875000002
20
0.19198125000000002
30
0
0
VERTEX
8
0
10
-20.900328125
20
0.258009375
30
0
0
VERTEX
8
0
10
-20.871678125000003
20
0.32718125000000003
30
0
0
VERTEX
8
0
10
-20.84994375
20
0.39882500000000004
30
0
0
VERTEX
8
0
10
-20.8353375
20
0.47225625000000004
30
0
0
VERTEX
8
0
10
-20.828
20
0.546765625
30
0
0
VERTEX
8
0
10
-20.828
20
2.145634375
30
0
0
VERTEX
8
0
10
-20.8353375
20
2.22014375
30
0
0
VERTEX
8
0
10
-20.84994375
20
2.293575
30
0
0
VERTEX
8
0
10
-20.871678125000003
20
2.36521875
30
0
0
VERTEX
8
0
10
-20.900328125
20
2.4343906250000003
30
0
0
VERTEX
8
0
10
-20.935621875000002
20
2.50041875
30
0
0
VERTEX
8
0
10
-20.977218750000002
20
2.5626687500000003
30
0
0
VERTEX
8
0
10
-21.024715625000002
20
2.62054375
30
0
0
VERTEX
8
0
10
-21.07765625
20
2.673484375
30
0
0
VERTEX
8
0
10
-21.13553125
20
2.7209812500000004
30
0
0
VERTEX
8
0
10
-21.197781250000002
20
2.762578125
30
0
0
VERTEX
8
0
10
-21.263809375
20
2.7978718750000002
30
0
0
VERTEX
8
0
10
-21.33298125
20
2.826521875
30
0
0
VERTEX
8
0
10
-21.404625
20
2.84825625
30
0
0
VERTEX
8
0
10
-21.47805625
20
2.8628625000000003
30
0
0
VERTEX
8
0
10
-21.552565625
20
2.8702
30
0
0
VERTEX
8
0
10
-21.627434375
20
2.8702
30
0
0
VERTEX
8
0
10
-21.70194375
20
2.8628625000000003
30
0
0
VERTEX
8
0
10
-21.775375
20
2.84825625
30
0
0
VERTEX
8
0
10
-21.84701875
20
2.826521875
30
0
0
VERTEX
8
0
10
-21.916190625000002
20
2.7978718750000002
30
0
0
VERTEX
8
0
10
-21.98221875
20
2.762578125
30
0
0
VERTEX
8
0
10
-22.04446875
20
2.7209812500000004
30
0
0
VERTEX
8
0
10
-22.10234375
20
2.673484375
30
0
0
VERTEX
8
0
10
-22.155284375
20
2.62054375
30
0
0
VERTEX
8
0
10
-22.20278125
20
2.5626687500000003
30
0
0
VERTEX
8
0
10
-22.244378125
20
2.50041875
30
0
0
VERTEX
8
0
10
-22.279671875000002
20
2.4343906250000003
30
0
0
VERTEX
8
0
10
-22.308321875
20
2.36521875
30
0
0
VERTEX
8
0
10
-22.330056250000002
20
2.293575
30
0
0
VERTEX
8
0
10
-22.344662500000002
20
2.22014375
30
0
0
VERTEX
8
0
10
-22.352
20
2.145634375
30
0
0
VERTEX
8
0
10
-22.352
20
0.546765625
30
0
0
VERTEX
8
0
10
-22.344662500000002
20
0.47225625000000004
30
0
0
VERTEX
8
0
10
-22.330056250000002
20
0.39882500000000004
30
0
0
VERTEX
8
0
10
-22.308321875
20
0.32718125000000003
30
0
0
VERTEX
8
0
10
-22.279671875000002
20
0.258009375
30
0
0
VERTEX
8
0
10
-22.244378125
20
0.19198125000000002
30
0
0
VERTEX
8
0
10
-22.20278125
20
0.12973125
30
0
0
VERTEX
8
0
10
-22.155284375
20
0.07185625
30
0
0
VERTEX
8
0
10
-22.10234375
20
0.018915625000000002
30
0
0
VERTEX
8
0
10
-22.04446875
20
-0.028581250000000002
30
0
0
VERTEX
8
0
10
-21.98221875
20
-0.07017812500000001
30
0
0
VERTEX
8
0
10
-21.916190625000002
20
-0.105471875
30
0
0
VERTEX
8
0
10
-21.84701875
20
-0.134121875
30
0
0
VERTEX
8
0
10
-21.775375
20
-0.15585625
30
0
0
VERTEX
8
0
10
-21.70194375
20
-0.17046250000000002
30
0
0
VERTEX
8
0
10
-21.627434375
20
-0.1778
30
0
0
VERTEX
8
0
10
-21.552565625
20
-0.1778
30
0
0
SEQEND
0
POLYLINE
66
1
8
1_copper
10
0.0
20
0.0
30
0.0
70
1
0
VERTEX
8
0
10
-11.31805625
20
-0.17046250000000002
30
0
0
VERTEX
8
0
10
-11.244625000000001
20
-0.15585625
30
0
0
VERTEX
8
0
10
-11.172981250000001
20
-0.134121875
30
0
0
VERTEX
8
0
10
-11.103809375
20
-0.105471875
30
0
0
VERTEX
8
0
10
-11.03778125
20
-0.07017812500000001
30
0
0
VERTEX
8
0
10
-10.975531250000001
20
-0.028581250000000002
30
0
0
VERTEX
8
0
10
-10.91765625
20
0.018915625000000002
30
0
0
VERTEX
8
0
10
-10.864715625
20
0.07185625
30
0
0
VERTEX
8
0
10
-10.81721875
20
0.12973125
30
0
0
VERTEX
8
0
10
-10.775621875
20
0.19198125000000002
30
0
0
VERTEX
8
0
10
-10.740328125000001
20
0.258009375
30
0
0
VERTEX
8
0
10
-10.711678125
20
0.32718125000000003
30
0
0
VERTEX
8
0
10
-10.689943750000001
20
0.39882500000000004
30
0
0
VERTEX
8
0
10
-10.675337500000001
20
0.47225625000000004
30
0
0
VERTEX
8
0
10
-10.668000000000001
20
0.546765625
30
0
0
VERTEX
8
0
10
-10.668000000000001
20
2.145634375
30
0
0
VERTEX
8
0
10
-10.675337500000001
20
2.22014375
30
0
0
VERTEX
8
0
10
-10.689943750000001
20
2.293575
30
0
0
VERTEX
8
0
10
-10.711678125
20
2.36521875
30
0
0
VERTEX
8
0
10
-10.740328125000001
20
2.4343906250000003
30
0
0
VERTEX
8
0
10
-10.775621875
20
2.50041875
30
0
0
VERTEX
8
0
10
-10.81721875
20
2.5626687500000003
30
0
0
VERTEX
8
0
10
-10.864715625
20
2.62054375
30
0
0
VERTEX
8
0
10
-10.91765625
20
2.673484375
30
0
0
VERTEX
8
0
10
-10.975531250000001
20
2.7209812500000004
30
0
0
VERTEX
8
0
10
-11.03778125
20
2.762578125
30
0
0
VERTEX
8
0
10
-11.103809375
20
2.7978718750000002
30
0
0
VERTEX
8
0
10
-11.172981250000001
20
2.826521875
30
0
0
VERTEX
8
0
10
-11.244625000000001
20
2.84825625
30
0
0
VERTEX
8
0
10
-11.31805625
20
2.8628625000000003
30
0
0
VERTEX
8
0
10
-11.392565625000001
20
2.8702
30
0
0
VERTEX
8
0
10
-11.467434375
20
2.8702
30
0
0
VERTEX
8
0
10
-11.54194375
20
2.8628625000000003
30
0
0
VERTEX
8
0
10
-11.615375
20
2.84825625
30
0
0
VERTEX
8
0
10
-11.68701875
20
2.826521875
30
0
0
VERTEX
8
0
10
-11.756190625
20
2.7978718750000002
30
0
0
VERTEX
8
0
10
-11.822218750000001
20
2.762578125
30
0
0
VERTEX
8
0
10
-11.88446875
20
2.7209812500000004
30
0
0
VERTEX
8
0
10
-11.942343750000001
20
2.673484375
30
0
0
VERTEX
8
0
10
-11.995284375
20
2.62054375
30
0
0
VERTEX
8
0
10
-12.04278125
20
2.5626687500000003
30
0
0
VERTEX
8
0
10
-12.084378125
20
2.50041875
30
0
0
VERTEX
8
0
10
-12.119671875
20
2.4343906250000003
30
0
0
VERTEX
8
0
10
-12.148321875
20
2.36521875
30
0
0
VERTEX
8
0
10
-12.17005625
20
2.293575
30
0
0
VERTEX
8
0
10
-12.1846625
20
2.22014375
30
0
0
VERTEX
8
0
10
-12.192
20
2.145634375
30
0
0
VERTEX
8
0
10
-12.192
20
0.546765625
30
0
0
VERTEX
8
0
10
-12.1846625
20
0.47225625000000004
30
0
0
VERTEX
8
0
10
-12.17005625
20
0.39882500000000004
30
0
0
VERTEX
8
0
10
-12.148321875
20
0.32718125000000003
30
0
0
VERTEX
8
0
10
-12.119671875
20
0.258009375
30
0
0
VERTEX
8
0
10
-12.084378125
20
0.19198125000000002
30
0
0
VERTEX
8
0
10
-12.04278125
20
0.12973125
30
0
0
VERTEX
8
0
10
-11.995284375
20
0.07185625
30
0
0
VERTEX
8
0
10
-11.942343750000001
20
0.018915625000000002
30
0
0
VERTEX
8
0
10
-11.88446875
20
-0.028581250000000002
30
0
0
VERTEX
8
0
10
-11.822218750000001
20
-0.07017812500000001
30
0
0
VERTEX
8
0
10
-11.756190625
20
-0.105471875
30
0
0
VERTEX
8
0
10
-11.68701875
20
-0.134121875
30
0
0
VERTEX
8
0
10
-11.615375
20
-0.15585625
30
0
0
VERTEX
8
0
10
-11.54194375
20
-0.17046250000000002
30
0
0
VERTEX
8
0
10
-11.467434375
20
-0.1778
30
0
0
VERTEX
8
0
10
-11.392565625000001
20
-0.1778
30
0
0
SEQEND
0
POLYLINE
66
1
8
16_copper
10
0.0
20
0.0
30
0.0
70
1
0
VERTEX
8
0
10
-21.47805625
20
-0.17046250000000002
30
0
0
VERTEX
8
0
10
-21.404625
20
-0.15585625
30
0
0
VERTEX
8
0
10
-21.33298125
20
-0.134121875
30
0
0
VERTEX
8
0
10
-21.263809375
20
-0.105471875
30
0
0
VERTEX
8
0
10
-21.197781250000002
20
-0.07017812500000001
30
0
0
VERTEX
8
0
10
-21.13553125
20
-0.028581250000000002
30
0
0
VERTEX
8
0
10
-21.07765625
20
0.018915625000000002
30
0
0
VERTEX
8
0
10
-21.024715625000002
20
0.07185625
30
0
0
VERTEX
8
0
10
-20.977218750000002
20
0.12973125
30
0
0
VERTEX
8
0
10
-20.935621875000002
20
0.19198125000000002
30
0
0
VERTEX
8
0
10
-20.900328125
20
0.258009375
30
0
0
VERTEX
8
0
10
-20.871678125000003
20
0.32718125000000003
30
0
0
VERTEX
8
0
10
-20.84994375
20
0.39882500000000004
30
0
0
VERTEX
8
0
10
-20.8353375
20
0.47225625000000004
30
0
0
VERTEX
8
0
10
-20.828
20
0.546765625
30
0
0
VERTEX
8
0
10
-20.828
20
2.145634375
30
0
0
VERTEX
8
0
10
-20.8353375
20
2.22014375
30
0
0
VERTEX
8
0
10
-20.84994375
20
2.293575
30
0
0
VERTEX
8
0
10
-20.871678125000003
20
2.36521875
30
0
0
VERTEX
8
0
10
-20.900328125
20
2.4343906250000003
30
0
0
VERTEX
8
0
10
-20.935621875000002
20
2.50041875
30
0
0
VERTEX
8
0
10
-20.977218750000002
20
2.5626687500000003
30
0
0
VERTEX
8
0
10
-21.024715625000002
20
2.62054375
30
0
0
VERTEX
8
0
10
-21.07765625
20
2.673484375
30
0
0
VERTEX
8
0
10
-21.13553125
20
2.7209812500000004
30
0
0
VERTEX
8
0
10
-21.197781250000002
20
2.762578125
30
0
0
VERTEX
8
0
10
-21.263809375
20
2.7978718750000002
30
0
0
VERTEX
8
0
10
-21.33298125
20
2.826521875
30
0
0
VERTEX
8
0
10
-21.404625
20
2.84825625
30
0
0
VERTEX
8
0
10
-21.47805625
20
2.8628625000000003
30
0
0
VERTEX
8
0
10
-21.552565625
20
2.8702
30
0
0
VERTEX
8
0
10
-21.627434375
20
2.8702
30
0
0
VERTEX
8
0
10
-21.70194375
20
2.8628625000000003
30
0
0
VERTEX
8
0
10
-21.775375
20
2.84825625
30
0
0
VERTEX
8
0
10
-21.84701875
20
2.826521875
30
0
0
VERTEX
8
0
10
-21.916190625000002
20
2.7978718750000002
30
0
0
VERTEX
8
0
10
-21.98221875
20
2.762578125
30
0
0
VERTEX
8
0
10
-22.04446875
20
2.7209812500000004
30
0
0
VERTEX
8
0
10
-22.10234375
20
2.673484375
30
0
0
VERTEX
8
0
10
-22.155284375
20
2.62054375
30
0
0
VERTEX
8
0
10
-22.20278125
20
2.5626687500000003
30
0
0
VERTEX
8
0
10
-22.244378125
20
2.50041875
30
0
0
VERTEX
8
0
10
-22.279671875000002
20
2.4343906250000003
30
0
0
VERTEX
8
0
10
-22.308321875
20
2.36521875
30
0
0
VERTEX
8
0
10
-22.330056250000002
20
2.293575
30
0
0
VERTEX
8
0
10
-22.344662500000002
20
2.22014375
30
0
0
VERTEX
8
0
10
-22.352
20
2.145634375
30
0
0
VERTEX
8
0
10
-22.352
20
0.546765625
30
0
0
VERTEX
8
0
10
-22.344662500000002
20
0.47225625000000004
30
0
0
VERTEX
8
0
10
-22.330056250000002
20
0.39882500000000004
30
0
0
VERTEX
8
0
10
-22.308321875
20
0.32718125000000003
30
0
0
VERTEX
8
0
10
-22.279671875000002
20
0.258009375
30
0
0
VERTEX
8
0
10
-22.244378125
20
0.19198125000000002
30
0
0
VERTEX
8
0
10
-22.20278125
20
0.12973125
30
0
0
VERTEX
8
0
10
-22.155284375
20
0.07185625
30
0
0
VERTEX
8
0
10
-22.10234375
20
0.018915625000000002
30
0
0
VERTEX
8
0
10
-22.04446875
20
-0.028581250000000002
30
0
0
VERTEX
8
0
10
-21.98221875
20
-0.07017812500000001
30
0
0
VERTEX
8
0
10
-21.916190625000002
20
-0.105471875
30
0
0
VERTEX
8
0
10
-21.84701875
20
-0.134121875
30
0
0
VERTEX
8
0
10
-21.775375
20
-0.15585625
30
0
0
VERTEX
8
0
10
-21.70194375
20
-0.17046250000000002
30
0
0
VERTEX
8
0
10
-21.627434375
20
-0.1778
30
0
0
VERTEX
8
0
10
-21.552565625
20
-0.1778
30
0
0
SEQEND
0
POLYLINE
66
1
8
16_copper
10
0.0
20
0.0
30
0.0
70
1
0
VERTEX
8
0
10
-11.31805625
20
-0.17046250000000002
30
0
0
VERTEX
8
0
10
-11.244625000000001
20
-0.15585625
30
0
0
VERTEX
8
0
10
-11.172981250000001
20
-0.134121875
30
0
0
VERTEX
8
0
10
-11.103809375
20
-0.105471875
30
0
0
VERTEX
8
0
10
-11.03778125
20
-0.07017812500000001
30
0
0
VERTEX
8
0
10
-10.975531250000001
20
-0.028581250000000002
30
0
0
VERTEX
8
0
10
-10.91765625
20
0.018915625000000002
30
0
0
VERTEX
8
0
10
-10.864715625
20
0.07185625
30
0
0
VERTEX
8
0
10
-10.81721875
20
0.12973125
30
0
0
VERTEX
8
0
10
-10.775621875
20
0.19198125000000002
30
0
0
VERTEX
8
0
10
-10.740328125000001
20
0.258009375
30
0
0
VERTEX
8
0
10
-10.711678125
20
0.32718125000000003
30
0
0
VERTEX
8
0
10
-10.689943750000001
20
0.39882500000000004
30
0
0
VERTEX
8
0
10
-10.675337500000001
20
0.47225625000000004
30
0
0
VERTEX
8
0
10
-10.668000000000001
20
0.546765625
30
0
0
VERTEX
8
0
10
-10.668000000000001
20
2.145634375
30
0
0
VERTEX
8
0
10
-10.675337500000001
20
2.22014375
30
0
0
VERTEX
8
0
10
-10.689943750000001
20
2.293575
30
0
0
VERTEX
8
0
10
-10.711678125
20
2.36521875
30
0
0
VERTEX
8
0
10
-10.740328125000001
20
2.4343906250000003
30
0
0
VERTEX
8
0
10
-10.775621875
20
2.50041875
30
0
0
VERTEX
8
0
10
-10.81721875
20
2.5626687500000003
30
0
0
VERTEX
8
0
10
-10.864715625
20
2.62054375
30
0
0
VERTEX
8
0
10
-10.91765625
20
2.673484375
30
0
0
VERTEX
8
0
10
-10.975531250000001
20
2.7209812500000004
30
0
0
VERTEX
8
0
10
-11.03778125
20
2.762578125
30
0
0
VERTEX
8
0
10
-11.103809375
20
2.7978718750000002
30
0
0
VERTEX
8
0
10
-11.172981250000001
20
2.826521875
30
0
0
VERTEX
8
0
10
-11.244625000000001
20
2.84825625
30
0
0
VERTEX
8
0
10
-11.31805625
20
2.8628625000000003
30
0
0
VERTEX
8
0
10
-11.392565625000001
20
2.8702
30
0
0
VERTEX
8
0
10
-11.467434375
20
2.8702
30
0
0
VERTEX
8
0
10
-11.54194375
20
2.8628625000000003
30
0
0
VERTEX
8
0
10
-11.615375
20
2.84825625
30
0
0
VERTEX
8
0
10
-11.68701875
20
2.826521875
30
0
0
VERTEX
8
0
10
-11.756190625
20
2.7978718750000002
30
0
0
VERTEX
8
0
10
-11.822218750000001
20
2.762578125
30
0
0
VERTEX
8
0
10
-11.88446875
20
2.7209812500000004
30
0
0
VERTEX
8
0
10
-11.942343750000001
20
2.673484375
30
0
0
VERTEX
8
0
10
-11.995284375
20
2.62054375
30
0
0
VERTEX
8
0
10
-12.04278125
20
2.5626687500000003
30
0
0
VERTEX
8
0
10
-12.084378125
20
2.50041875
30
0
0
VERTEX
8
0
10
-12.119671875
20
2.4343906250000003
30
0
0
VERTEX
8
0
10
-12.148321875
20
2.36521875
30
0
0
VERTEX
8
0
10
-12.17005625
20
2.293575
30
0
0
VERTEX
8
0
10
-12.1846625
20
2.22014375
30
0
0
VERTEX
8
0
10
-12.192
20
2.145634375
30
0
0
VERTEX
8
0
10
-12.192
20
0.546765625
30
0
0
VERTEX
8
0
10
-12.1846625
20
0.47225625000000004
30
0
0
VERTEX
8
0
10
-12.17005625
20
0.39882500000000004
30
0
0
VERTEX
8
0
10
-12.148321875
20
0.32718125000000003
30
0
0
VERTEX
8
0
10
-12.119671875
20
0.258009375
30
0
0
VERTEX
8
0
10
-12.084378125
20
0.19198125000000002
30
0
0
VERTEX
8
0
10
-12.04278125
20
0.12973125
30
0
0
VERTEX
8
0
10
-11.995284375
20
0.07185625
30
0
0
VERTEX
8
0
10
-11.942343750000001
20
0.018915625000000002
30
0
0
VERTEX
8
0
10
-11.88446875
20
-0.028581250000000002
30
0
0
VERTEX
8
0
10
-11.822218750000001
20
-0.07017812500000001
30
0
0
VERTEX
8
0
10
-11.756190625
20
-0.105471875
30
0
0
VERTEX
8
0
10
-11.68701875
20
-0.134121875
30
0
0
VERTEX
8
0
10
-11.615375
20
-0.15585625
30
0
0
VERTEX
8
0
10
-11.54194375
20
-0.17046250000000002
30
0
0
VERTEX
8
0
10
-11.467434375
20
-0.1778
30
0
0
VERTEX
8
0
10
-11.392565625000001
20
-0.1778
30
0
0
SEQEND
0
POLYLINE
66
1
8
1_copper
10
0.0
20
0.0
30
0.0
70
1
0
VERTEX
8
0
10
-11.537165625
20
10.736740625000001
30
0
0
VERTEX
8
0
10
-11.469709375
20
10.750159375
30
0
0
VERTEX
8
0
10
-11.40389375
20
10.770125
30
0
0
VERTEX
8
0
10
-11.34035
20
10.79644375
30
0
0
VERTEX
8
0
10
-11.27969375
20
10.828865625
30
0
0
VERTEX
8
0
10
-11.22250625
20
10.867078125
30
0
0
VERTEX
8
0
10
-11.169340625
20
10.910709375
30
0
0
VERTEX
8
0
10
-11.120709375
20
10.959340625000001
30
0
0
VERTEX
8
0
10
-11.077078125
20
11.012506250000001
30
0
0
VERTEX
8
0
10
-11.038865625
20
11.06969375
30
0
0
VERTEX
8
0
10
-11.00644375
20
11.13035
30
0
0
VERTEX
8
0
10
-10.980125000000001
20
11.19389375
30
0
0
VERTEX
8
0
10
-10.960159375
20
11.259709375
30
0
0
VERTEX
8
0
10
-10.946740625
20
11.327165625000001
30
0
0
VERTEX
8
0
10
-10.940000000000001
20
11.3956125
30
0
0
VERTEX
8
0
10
-10.940000000000001
20
11.4643875
30
0
0
VERTEX
8
0
10
-10.946740625
20
11.532834375
30
0
0
VERTEX
8
0
10
-10.960159375
20
11.600290625000001
30
0
0
VERTEX
8
0
10
-10.980125000000001
20
11.66610625
30
0
0
VERTEX
8
0
10
-11.00644375
20
11.729650000000001
30
0
0
VERTEX
8
0
10
-11.038865625
20
11.79030625
30
0
0
VERTEX
8
0
10
-11.077078125
20
11.84749375
30
0
0
VERTEX
8
0
10
-11.120709375
20
11.900659375
30
0
0
VERTEX
8
0
10
-11.169340625
20
11.949290625
30
0
0
VERTEX
8
0
10
-11.22250625
20
11.992921875
30
0
0
VERTEX
8
0
10
-11.27969375
20
12.031134375
30
0
0
VERTEX
8
0
10
-11.34035
20
12.063556250000001
30
0
0
VERTEX
8
0
10
-11.40389375
20
12.089875000000001
30
0
0
VERTEX
8
0
10
-11.469709375
20
12.109840625
30
0
0
VERTEX
8
0
10
-11.537165625
20
12.123259375
30
0
0
VERTEX
8
0
10
-11.605612500000001
20
12.13
30
0
0
VERTEX
8
0
10
-11.6743875
20
12.13
30
0
0
VERTEX
8
0
10
-11.742834375000001
20
12.123259375
30
0
0
VERTEX
8
0
10
-11.810290625
20
12.109840625
30
0
0
VERTEX
8
0
10
-11.876106250000001
20
12.089875000000001
30
0
0
VERTEX
8
0
10
-11.93965
20
12.063556250000001
30
0
0
VERTEX
8
0
10
-12.000306250000001
20
12.031134375
30
0
0
VERTEX
8
0
10
-12.05749375
20
11.992921875
30
0
0
VERTEX
8
0
10
-12.110659375000001
20
11.949290625
30
0
0
VERTEX
8
0
10
-12.159290625
20
11.900659375
30
0
0
VERTEX
8
0
10
-12.202921875000001
20
11.84749375
30
0
0
VERTEX
8
0
10
-12.241134375000001
20
11.79030625
30
0
0
VERTEX
8
0
10
-12.27355625
20
11.729650000000001
30
0
0
VERTEX
8
0
10
-12.299875
20
11.66610625
30
0
0
VERTEX
8
0
10
-12.319840625000001
20
11.600290625000001
30
0
0
VERTEX
8
0
10
-12.333259375
20
11.532834375
30
0
0
VERTEX
8
0
10
-12.34
20
11.4643875
30
0
0
VERTEX
8
0
10
-12.34
20
11.3956125
30
0
0
VERTEX
8
0
10
-12.333259375
20
11.327165625000001
30
0
0
VERTEX
8
0
10
-12.319840625000001
20
11.259709375
30
0
0
VERTEX
8
0
10
-12.299875
20
11.19389375
30
0
0
VERTEX
8
0
10
-12.27355625
20
11.13035
30
0
0
VERTEX
8
0
10
-12.241134375000001
20
11.06969375
30
0
0
VERTEX
8
0
10
-12.202921875000001
20
11.012506250000001
30
0
0
VERTEX
8
0
10
-12.159290625
20
10.959340625000001
30
0
0
VERTEX
8
0
10
-12.110659375000001
20
10.910709375
30
0
0
VERTEX
8
0
10
-12.05749375
20
10.867078125
30
0
0
VERTEX
8
0
10
-12.000306250000001
20
10.828865625
30
0
0
VERTEX
8
0
10
-11.93965
20
10.79644375
30
0
0
VERTEX
8
0
10
-11.876106250000001
20
10.770125
30
0
0
VERTEX
8
0
10
-11.810290625
20
10.750159375
30
0
0
VERTEX
8
0
10
-11.742834375000001
20
10.736740625000001
30
0
0
VERTEX
8
0
10
-11.6743875
20
10.73
30
0
0
VERTEX
8
0
10
-11.605612500000001
20
10.73
30
0
0
SEQEND
0
POLYLINE
66
1
8
1_copper
10
0.0
20
0.0
30
0.0
70
1
0
VERTEX
8
0
10
-36.4639
20
11.4901
30
0
0
VERTEX
8
0
10
-37.5951
20
11.4901
30
0
0
VERTEX
8
0
10
-37.5951
20
8.8299
30
0
0
VERTEX
8
0
10
-36.4639
20
8.8299
30
0
0
SEQEND
0
POLYLINE
66
1
8
1_copper
10
0.0
20
0.0
30
0.0
70
1
0
VERTEX
8
0
10
-15.4649
20
10.5751
30
0
0
VERTEX
8
0
10
-16.6961
20
10.5751
30
0
0
VERTEX
8
0
10
-16.6961
20
7.2049
30
0
0
VERTEX
8
0
10
-15.4649
20
7.2049
30
0
0
SEQEND
0
POLYLINE
66
1
8
1_copper
10
0.0
20
0.0
30
0.0
70
1
0
VERTEX
8
0
10
-28.8331
20
10.24765
30
0
0
VERTEX
8
0
10
-29.997700000000002
20
10.24765
30
0
0
VERTEX
8
0
10
-29.997700000000002
20
7.53235
30
0
0
VERTEX
8
0
10
-28.8331
20
7.53235
30
0
0
SEQEND
0
POLYLINE
66
1
8
16_copper
10
0.0
20
0.0
30
0.0
70
1
0
VERTEX
8
0
10
-11.537165625
20
10.736740625000001
30
0
0
VERTEX
8
0
10
-11.469709375
20
10.750159375
30
0
0
VERTEX
8
0
10
-11.40389375
20
10.770125
30
0
0
VERTEX
8
0
10
-11.34035
20
10.79644375
30
0
0
VERTEX
8
0
10
-11.27969375
20
10.828865625
30
0
0
VERTEX
8
0
10
-11.22250625
20
10.867078125
30
0
0
VERTEX
8
0
10
-11.169340625
20
10.910709375
30
0
0
VERTEX
8
0
10
-11.120709375
20
10.959340625000001
30
0
0
VERTEX
8
0
10
-11.077078125
20
11.012506250000001
30
0
0
VERTEX
8
0
10
-11.038865625
20
11.06969375
30
0
0
VERTEX
8
0
10
-11.00644375
20
11.13035
30
0
0
VERTEX
8
0
10
-10.980125000000001
20
11.19389375
30
0
0
VERTEX
8
0
10
-10.960159375
20
11.259709375
30
0
0
VERTEX
8
0
10
-10.946740625
20
11.327165625000001
30
0
0
VERTEX
8
0
10
-10.940000000000001
20
11.3956125
30
0
0
VERTEX
8
0
10
-10.940000000000001
20
11.4643875
30
0
0
VERTEX
8
0
10
-10.946740625
20
11.532834375
30
0
0
VERTEX
8
0
10
-10.960159375
20
11.600290625000001
30
0
0
VERTEX
8
0
10
-10.980125000000001
20
11.66610625
30
0
0
VERTEX
8
0
10
-11.00644375
20
11.729650000000001
30
0
0
VERTEX
8
0
10
-11.038865625
20
11.79030625
30
0
0
VERTEX
8
0
10
-11.077078125
20
11.84749375
30
0
0
VERTEX
8
0
10
-11.120709375
20
11.900659375
30
0
0
VERTEX
8
0
10
-11.169340625
20
11.949290625
30
0
0
VERTEX
8
0
10
-11.22250625
20
11.992921875
30
0
0
VERTEX
8
0
10
-11.27969375
20
12.031134375
30
0
0
VERTEX
8
0
10
-11.34035
20
12.063556250000001
30
0
0
VERTEX
8
0
10
-11.40389375
20
12.089875000000001
30
0
0
VERTEX
8
0
10
-11.469709375
20
12.109840625
30
0
0
VERTEX
8
0
10
-11.537165625
20
12.123259375
30
0
0
VERTEX
8
0
10
-11.605612500000001
20
12.13
30
0
0
VERTEX
8
0
10
-11.6743875
20
12.13
30
0
0
VERTEX
8
0
10
-11.742834375000001
20
12.123259375
30
0
0
VERTEX
8
0
10
-11.810290625
20
12.109840625
30
0
0
VERTEX
8
0
10
-11.876106250000001
20
12.089875000000001
30
0
0
VERTEX
8
0
10
-11.93965
20
12.063556250000001
30
0
0
VERTEX
8
0
10
-12.000306250000001
20
12.031134375
30
0
0
VERTEX
8
0
10
-12.05749375
20
11.992921875
30
0
0
VERTEX
8
0
10
-12.110659375000001
20
11.949290625
30
0
0
VERTEX
8
0
10
-12.159290625
20
11.900659375
30
0
0
VERTEX
8
0
10
-12.202921875000001
20
11.84749375
30
0
0
VERTEX
8
0
10
-12.241134375000001
20
11.79030625
30
0
0
VERTEX
8
0
10
-12.27355625
20
11.729650000000001
30
0
0
VERTEX
8
0
10
-12.299875
20
11.66610625
30
0
0
VERTEX
8
0
10
-12.319840625000001
20
11.600290625000001
30
0
0
VERTEX
8
0
10
-12.333259375
20
11.532834375
30
0
0
VERTEX
8
0
10
-12.34
20
11.4643875
30
0
0
VERTEX
8
0
10
-12.34
20
11.3956125
30
0
0
VERTEX
8
0
10
-12.333259375
20
11.327165625000001
30
0
0
VERTEX
8
0
10
-12.319840625000001
20
11.259709375
30
0
0
VERTEX
8
0
10
-12.299875
20
11.19389375
30
0
0
VERTEX
8
0
10
-12.27355625
20
11.13035
30
0
0
VERTEX
8
0
10
-12.241134375000001
20
11.06969375
30
0
0
VERTEX
8
0
10
-12.202921875000001
20
11.012506250000001
30
0
0
VERTEX
8
0
10
-12.159290625
20
10.959340625000001
30
0
0
VERTEX
8
0
10
-12.110659375000001
20
10.910709375
30
0
0
VERTEX
8
0
10
-12.05749375
20
10.867078125
30
0
0
VERTEX
8
0
10
-12.000306250000001
20
10.828865625
30
0
0
VERTEX
8
0
10
-11.93965
20
10.79644375
30
0
0
VERTEX
8
0
10
-11.876106250000001
20
10.770125
30
0
0
VERTEX
8
0
10
-11.810290625
20
10.750159375
30
0
0
VERTEX
8
0
10
-11.742834375000001
20
10.736740625000001
30
0
0
VERTEX
8
0
10
-11.6743875
20
10.73
30
0
0
VERTEX
8
0
10
-11.605612500000001
20
10.73
30
0
0
SEQEND
0
POLYLINE
66
1
8
1_copper
10
0.0
20
0.0
30
0.0
70
1
0
VERTEX
8
0
10
-33.5249
20
11.4901
30
0
0
VERTEX
8
0
10
-34.6561
20
11.4901
30
0
0
VERTEX
8
0
10
-34.6561
20
8.8299
30
0
0
VERTEX
8
0
10
-33.5249
20
8.8299
30
0
0
SEQEND
0
CIRCLE
8
drills_PTH
10
-35.56
20
1.7272
30
0
40
0.6985
0
CIRCLE
8
drills_PTH
10
-30.48
20
1.7272
30
0
40
0.6985
0
CIRCLE
8
drills_PTH
10
-21.59
20
1.3462
30
0
40
0.508
0
CIRCLE
8
drills_PTH
10
-19.05
20
1.3462
30
0
40
0.508
0
CIRCLE
8
drills_PTH
10
-16.51
20
1.3462
30
0
40
0.508
0
CIRCLE
8
drills_PTH
10
-11.43
20
1.3462
30
0
40
0.508
0
CIRCLE
8
drills_PTH
10
-8.89
20
1.3462
30
0
40
0.508
0
CIRCLE
8
drills_PTH
10
-6.3500000000000005
20
1.3462
30
0
40
0.508
0
CIRCLE
8
drills_PTH
10
-11.64
20
11.43
30
0
40
0.4
0
CIRCLE
8
drills_PTH
10
-6.140000000000001
20
11.43
30
0
40
0.4
0
ENDSEC
0
EOF