M48
; DRILL file {KiCad (6.0.0-0)} date Sunday, October 23, 2022 at 04:11:05 pm
; FORMAT={-:-/ absolute / inch / decimal}
; #@! TF.CreationDate,2022-10-23T16:11:05-04:00
; #@! TF.GenerationSoftware,Kicad,Pcbnew,(6.0.0-0)
; #@! TF.FileFunction,Plated,1,2,PTH
FMAT,2
INCH
; #@! TA.AperFunction,Plated,PTH,ViaDrill
T1C0.0157
; #@! TA.AperFunction,Plated,PTH,ComponentDrill
T2C0.0354
; #@! TA.AperFunction,Plated,PTH,ComponentDrill
T3C0.0402
%
G90
G05
T1
X7.1161Y-5.0876
X7.2343Y-5.0876
X7.2933Y-5.0876
X7.3524Y-5.0876
X7.4114Y-5.0876
T3
X6.9226Y-2.4781
X6.9226Y-2.5781
X6.9226Y-2.6781
X6.9226Y-2.7781
X6.9226Y-2.8781
X6.9226Y-2.9781
X6.9226Y-3.0781
X6.9226Y-3.1781
X6.9226Y-3.2781
X6.9226Y-3.3781
X6.9226Y-3.4781
X6.9226Y-3.5781
X6.9226Y-3.6781
X6.9226Y-3.7781
X6.9226Y-3.8781
X6.9226Y-3.9781
X6.9226Y-4.0781
X6.9226Y-4.1781
X6.9226Y-4.2781
X6.9226Y-4.3781
X7.1726Y-4.3691
X7.2726Y-4.3691
X7.3726Y-4.3691
X7.6226Y-2.4781
X7.6226Y-2.5781
X7.6226Y-2.6781
X7.6226Y-2.7781
X7.6226Y-2.8781
X7.6226Y-2.9781
X7.6226Y-3.0781
X7.6226Y-3.1781
X7.6226Y-3.2781
X7.6226Y-3.3781
X7.6226Y-3.4781
X7.6226Y-3.5781
X7.6226Y-3.6781
X7.6226Y-3.7781
X7.6226Y-3.8781
X7.6226Y-3.9781
X7.6226Y-4.0781
X7.6226Y-4.1781
X7.6226Y-4.2781
X7.6226Y-4.3781
T2
G00X6.9685Y-4.9869
M15
G01X6.9685Y-5.0578
M16
G05
G00X6.9685Y-5.2413
M15
G01X6.9685Y-5.2728
M16
G05
G00X7.5394Y-4.9869
M15
G01X7.5394Y-5.0578
M16
G05
G00X7.5394Y-5.2413
M15
G01X7.5394Y-5.2728
M16
G05
T0
M30
