%TF.GenerationSoftware,KiCad,Pcbnew,(6.0.0-0)*%
%TF.CreationDate,2022-10-23T16:11:07-04:00*%
%TF.ProjectId,HDMI_PICO,48444d49-5f50-4494-934f-2e6b69636164,rev?*%
%TF.SameCoordinates,Original*%
%TF.FileFunction,Copper,L1,Top*%
%TF.FilePolarity,Positive*%
%FSLAX46Y46*%
G04 Gerber Fmt 4.6, Leading zero omitted, Abs format (unit mm)*
G04 Created by KiCad (PCBNEW (6.0.0-0)) date 2022-10-23 16:11:07*
%MOMM*%
%LPD*%
G01*
G04 APERTURE LIST*
G04 Aperture macros list*
%AMRoundRect*
0 Rectangle with rounded corners*
0 $1 Rounding radius*
0 $2 $3 $4 $5 $6 $7 $8 $9 X,Y pos of 4 corners*
0 Add a 4 corners polygon primitive as box body*
4,1,4,$2,$3,$4,$5,$6,$7,$8,$9,$2,$3,0*
0 Add four circle primitives for the rounded corners*
1,1,$1+$1,$2,$3*
1,1,$1+$1,$4,$5*
1,1,$1+$1,$6,$7*
1,1,$1+$1,$8,$9*
0 Add four rect primitives between the rounded corners*
20,1,$1+$1,$2,$3,$4,$5,0*
20,1,$1+$1,$4,$5,$6,$7,0*
20,1,$1+$1,$6,$7,$8,$9,0*
20,1,$1+$1,$8,$9,$2,$3,0*%
G04 Aperture macros list end*
%TA.AperFunction,ComponentPad*%
%ADD10O,1.700000X1.700000*%
%TD*%
%TA.AperFunction,ComponentPad*%
%ADD11R,1.700000X1.700000*%
%TD*%
%TA.AperFunction,SMDPad,CuDef*%
%ADD12R,3.500000X1.700000*%
%TD*%
%TA.AperFunction,SMDPad,CuDef*%
%ADD13R,1.700000X3.500000*%
%TD*%
%TA.AperFunction,SMDPad,CuDef*%
%ADD14RoundRect,0.160000X-0.160000X0.197500X-0.160000X-0.197500X0.160000X-0.197500X0.160000X0.197500X0*%
%TD*%
%TA.AperFunction,SMDPad,CuDef*%
%ADD15R,0.300000X2.600000*%
%TD*%
%TA.AperFunction,ComponentPad*%
%ADD16O,1.500000X3.300000*%
%TD*%
%TA.AperFunction,ComponentPad*%
%ADD17O,1.500000X2.300000*%
%TD*%
%TA.AperFunction,SMDPad,CuDef*%
%ADD18R,0.650000X1.050000*%
%TD*%
%TA.AperFunction,ViaPad*%
%ADD19C,0.800000*%
%TD*%
%TA.AperFunction,Conductor*%
%ADD20C,0.200000*%
%TD*%
%TA.AperFunction,Conductor*%
%ADD21C,0.300000*%
%TD*%
G04 APERTURE END LIST*
D10*
%TO.P,U1,1,GPIO0*%
%TO.N,unconnected-(U1-Pad1)*%
X175835000Y-62945000D03*
%TO.P,U1,2,GPIO1*%
%TO.N,unconnected-(U1-Pad2)*%
X175835000Y-65485000D03*
D11*
%TO.P,U1,3,GND*%
%TO.N,unconnected-(U1-Pad3)*%
X175835000Y-68025000D03*
D10*
%TO.P,U1,4,GPIO2*%
%TO.N,unconnected-(U1-Pad4)*%
X175835000Y-70565000D03*
%TO.P,U1,5,GPIO3*%
%TO.N,unconnected-(U1-Pad5)*%
X175835000Y-73105000D03*
%TO.P,U1,6,GPIO4*%
%TO.N,unconnected-(U1-Pad6)*%
X175835000Y-75645000D03*
%TO.P,U1,7,GPIO5*%
%TO.N,unconnected-(U1-Pad7)*%
X175835000Y-78185000D03*
D11*
%TO.P,U1,8,GND*%
%TO.N,unconnected-(U1-Pad8)*%
X175835000Y-80725000D03*
D10*
%TO.P,U1,9,GPIO6*%
%TO.N,unconnected-(U1-Pad9)*%
X175835000Y-83265000D03*
%TO.P,U1,10,GPIO7*%
%TO.N,unconnected-(U1-Pad10)*%
X175835000Y-85805000D03*
%TO.P,U1,11,GPIO8*%
%TO.N,unconnected-(U1-Pad11)*%
X175835000Y-88345000D03*
%TO.P,U1,12,GPIO9*%
%TO.N,unconnected-(U1-Pad12)*%
X175835000Y-90885000D03*
D11*
%TO.P,U1,13,GND*%
%TO.N,unconnected-(U1-Pad13)*%
X175835000Y-93425000D03*
D10*
%TO.P,U1,14,GPIO10*%
%TO.N,unconnected-(U1-Pad14)*%
X175835000Y-95965000D03*
%TO.P,U1,15,GPIO11*%
%TO.N,unconnected-(U1-Pad15)*%
X175835000Y-98505000D03*
%TO.P,U1,16,GPIO12*%
%TO.N,FC_HDMI_D0+*%
X175835000Y-101045000D03*
%TO.P,U1,17,GPIO13*%
%TO.N,FC_HDMI_D0-*%
X175835000Y-103585000D03*
D11*
%TO.P,U1,18,GND*%
%TO.N,GND*%
X175835000Y-106125000D03*
D10*
%TO.P,U1,19,GPIO14*%
%TO.N,FC_HDMI_CK+*%
X175835000Y-108665000D03*
%TO.P,U1,20,GPIO15*%
%TO.N,FC_HDMI_CK-*%
X175835000Y-111205000D03*
%TO.P,U1,21,GPIO16*%
%TO.N,FC_HDMI_D2+*%
X193615000Y-111205000D03*
%TO.P,U1,22,GPIO17*%
%TO.N,FC_HDMI_D2-*%
X193615000Y-108665000D03*
D11*
%TO.P,U1,23,GND*%
%TO.N,GND*%
X193615000Y-106125000D03*
D10*
%TO.P,U1,24,GPIO18*%
%TO.N,FC_HDMI_D1+*%
X193615000Y-103585000D03*
%TO.P,U1,25,GPIO19*%
%TO.N,FC_HDMI_D1-*%
X193615000Y-101045000D03*
%TO.P,U1,26,GPIO20*%
%TO.N,unconnected-(U1-Pad26)*%
X193615000Y-98505000D03*
%TO.P,U1,27,GPIO21*%
%TO.N,unconnected-(U1-Pad27)*%
X193615000Y-95965000D03*
D11*
%TO.P,U1,28,GND*%
%TO.N,unconnected-(U1-Pad28)*%
X193615000Y-93425000D03*
D10*
%TO.P,U1,29,GPIO22*%
%TO.N,unconnected-(U1-Pad29)*%
X193615000Y-90885000D03*
%TO.P,U1,30,RUN*%
%TO.N,Net-(SW1-Pad1)*%
X193615000Y-88345000D03*
%TO.P,U1,31,GPIO26_ADC0*%
%TO.N,unconnected-(U1-Pad31)*%
X193615000Y-85805000D03*
%TO.P,U1,32,GPIO27_ADC1*%
%TO.N,unconnected-(U1-Pad32)*%
X193615000Y-83265000D03*
D11*
%TO.P,U1,33,AGND*%
%TO.N,unconnected-(U1-Pad33)*%
X193615000Y-80725000D03*
D10*
%TO.P,U1,34,GPIO28_ADC2*%
%TO.N,unconnected-(U1-Pad34)*%
X193615000Y-78185000D03*
%TO.P,U1,35,ADC_VREF*%
%TO.N,unconnected-(U1-Pad35)*%
X193615000Y-75645000D03*
%TO.P,U1,36,3V3*%
%TO.N,unconnected-(U1-Pad36)*%
X193615000Y-73105000D03*
%TO.P,U1,37,3V3_EN*%
%TO.N,unconnected-(U1-Pad37)*%
X193615000Y-70565000D03*
D11*
%TO.P,U1,38,GND*%
%TO.N,unconnected-(U1-Pad38)*%
X193615000Y-68025000D03*
D10*
%TO.P,U1,39,VSYS*%
%TO.N,unconnected-(U1-Pad39)*%
X193615000Y-65485000D03*
%TO.P,U1,40,VBUS*%
%TO.N,unconnected-(U1-Pad40)*%
X193615000Y-62945000D03*
D12*
%TO.P,U1,1,GPIO0*%
%TO.N,unconnected-(U1-Pad1)*%
X174935000Y-62945000D03*
%TO.P,U1,2,GPIO1*%
%TO.N,unconnected-(U1-Pad2)*%
X174935000Y-65485000D03*
%TO.P,U1,3,GND*%
%TO.N,unconnected-(U1-Pad3)*%
X174935000Y-68025000D03*
%TO.P,U1,4,GPIO2*%
%TO.N,unconnected-(U1-Pad4)*%
X174935000Y-70565000D03*
%TO.P,U1,5,GPIO3*%
%TO.N,unconnected-(U1-Pad5)*%
X174935000Y-73105000D03*
%TO.P,U1,6,GPIO4*%
%TO.N,unconnected-(U1-Pad6)*%
X174935000Y-75645000D03*
%TO.P,U1,7,GPIO5*%
%TO.N,unconnected-(U1-Pad7)*%
X174935000Y-78185000D03*
%TO.P,U1,8,GND*%
%TO.N,unconnected-(U1-Pad8)*%
X174935000Y-80725000D03*
%TO.P,U1,9,GPIO6*%
%TO.N,unconnected-(U1-Pad9)*%
X174935000Y-83265000D03*
%TO.P,U1,10,GPIO7*%
%TO.N,unconnected-(U1-Pad10)*%
X174935000Y-85805000D03*
%TO.P,U1,11,GPIO8*%
%TO.N,unconnected-(U1-Pad11)*%
X174935000Y-88345000D03*
%TO.P,U1,12,GPIO9*%
%TO.N,unconnected-(U1-Pad12)*%
X174935000Y-90885000D03*
%TO.P,U1,13,GND*%
%TO.N,unconnected-(U1-Pad13)*%
X174935000Y-93425000D03*
%TO.P,U1,14,GPIO10*%
%TO.N,unconnected-(U1-Pad14)*%
X174935000Y-95965000D03*
%TO.P,U1,15,GPIO11*%
%TO.N,unconnected-(U1-Pad15)*%
X174935000Y-98505000D03*
%TO.P,U1,16,GPIO12*%
%TO.N,FC_HDMI_D0+*%
X174935000Y-101045000D03*
%TO.P,U1,17,GPIO13*%
%TO.N,FC_HDMI_D0-*%
X174935000Y-103585000D03*
%TO.P,U1,18,GND*%
%TO.N,GND*%
X174935000Y-106125000D03*
%TO.P,U1,19,GPIO14*%
%TO.N,FC_HDMI_CK+*%
X174935000Y-108665000D03*
%TO.P,U1,20,GPIO15*%
%TO.N,FC_HDMI_CK-*%
X174935000Y-111205000D03*
%TO.P,U1,40,VBUS*%
%TO.N,unconnected-(U1-Pad40)*%
X194515000Y-62945000D03*
%TO.P,U1,39,VSYS*%
%TO.N,unconnected-(U1-Pad39)*%
X194515000Y-65485000D03*
%TO.P,U1,38,GND*%
%TO.N,unconnected-(U1-Pad38)*%
X194515000Y-68025000D03*
%TO.P,U1,37,3V3_EN*%
%TO.N,unconnected-(U1-Pad37)*%
X194515000Y-70565000D03*
%TO.P,U1,36,3V3*%
%TO.N,unconnected-(U1-Pad36)*%
X194515000Y-73105000D03*
%TO.P,U1,35,ADC_VREF*%
%TO.N,unconnected-(U1-Pad35)*%
X194515000Y-75645000D03*
%TO.P,U1,34,GPIO28_ADC2*%
%TO.N,unconnected-(U1-Pad34)*%
X194515000Y-78185000D03*
%TO.P,U1,33,AGND*%
%TO.N,unconnected-(U1-Pad33)*%
X194515000Y-80725000D03*
%TO.P,U1,32,GPIO27_ADC1*%
%TO.N,unconnected-(U1-Pad32)*%
X194515000Y-83265000D03*
%TO.P,U1,31,GPIO26_ADC0*%
%TO.N,unconnected-(U1-Pad31)*%
X194515000Y-85805000D03*
%TO.P,U1,30,RUN*%
%TO.N,Net-(SW1-Pad1)*%
X194515000Y-88345000D03*
%TO.P,U1,29,GPIO22*%
%TO.N,unconnected-(U1-Pad29)*%
X194515000Y-90885000D03*
%TO.P,U1,28,GND*%
%TO.N,unconnected-(U1-Pad28)*%
X194515000Y-93425000D03*
%TO.P,U1,27,GPIO21*%
%TO.N,unconnected-(U1-Pad27)*%
X194515000Y-95965000D03*
%TO.P,U1,26,GPIO20*%
%TO.N,unconnected-(U1-Pad26)*%
X194515000Y-98505000D03*
%TO.P,U1,25,GPIO19*%
%TO.N,FC_HDMI_D1-*%
X194515000Y-101045000D03*
%TO.P,U1,24,GPIO18*%
%TO.N,FC_HDMI_D1+*%
X194515000Y-103585000D03*
%TO.P,U1,23,GND*%
%TO.N,GND*%
X194515000Y-106125000D03*
%TO.P,U1,22,GPIO17*%
%TO.N,FC_HDMI_D2-*%
X194515000Y-108665000D03*
%TO.P,U1,21,GPIO16*%
%TO.N,FC_HDMI_D2+*%
X194515000Y-111205000D03*
D13*
%TO.P,U1,41,SWCLK*%
%TO.N,unconnected-(U1-Pad41)*%
X182185000Y-111875000D03*
D10*
X182185000Y-110975000D03*
D13*
%TO.P,U1,42,GND*%
%TO.N,GND*%
X184725000Y-111875000D03*
D11*
X184725000Y-110975000D03*
D13*
%TO.P,U1,43,SWDIO*%
%TO.N,unconnected-(U1-Pad43)*%
X187265000Y-111875000D03*
D10*
X187265000Y-110975000D03*
%TD*%
D14*
%TO.P,R7,1*%
%TO.N,FC_HDMI_CK+*%
X182735714Y-118202500D03*
%TO.P,R7,2*%
%TO.N,/ck+*%
X182735714Y-119397500D03*
%TD*%
%TO.P,R2,1*%
%TO.N,FC_HDMI_D2-*%
X189039284Y-118202500D03*
%TO.P,R2,2*%
%TO.N,/d2-*%
X189039284Y-119397500D03*
%TD*%
%TO.P,R1,1*%
%TO.N,FC_HDMI_D2+*%
X190300000Y-118202500D03*
%TO.P,R1,2*%
%TO.N,/d2+*%
X190300000Y-119397500D03*
%TD*%
%TO.P,R4,1*%
%TO.N,FC_HDMI_D1-*%
X186517856Y-118202500D03*
%TO.P,R4,2*%
%TO.N,/d1-*%
X186517856Y-119397500D03*
%TD*%
%TO.P,R8,1*%
%TO.N,FC_HDMI_CK-*%
X181475000Y-118202500D03*
%TO.P,R8,2*%
%TO.N,/ck-*%
X181475000Y-119397500D03*
%TD*%
%TO.P,R6,1*%
%TO.N,FC_HDMI_D0-*%
X183996428Y-118202500D03*
%TO.P,R6,2*%
%TO.N,/d0-*%
X183996428Y-119397500D03*
%TD*%
D15*
%TO.P,J1,1,D2+*%
%TO.N,/d2+*%
X188750000Y-126838250D03*
%TO.P,J1,2,D2S*%
%TO.N,GND*%
X188250000Y-126838250D03*
%TO.P,J1,3,D2-*%
%TO.N,/d2-*%
X187750000Y-126838250D03*
%TO.P,J1,4,D1+*%
%TO.N,/d1+*%
X187250000Y-126838250D03*
%TO.P,J1,5,D1S*%
%TO.N,GND*%
X186750000Y-126838250D03*
%TO.P,J1,6,D1-*%
%TO.N,/d1-*%
X186250000Y-126838250D03*
%TO.P,J1,7,D0+*%
%TO.N,/d0+*%
X185750000Y-126838250D03*
%TO.P,J1,8,D0S*%
%TO.N,GND*%
X185250000Y-126838250D03*
%TO.P,J1,9,D0-*%
%TO.N,/d0-*%
X184750000Y-126838250D03*
%TO.P,J1,10,CK+*%
%TO.N,/ck+*%
X184250000Y-126838250D03*
%TO.P,J1,11,CKS*%
%TO.N,GND*%
X183750000Y-126838250D03*
%TO.P,J1,12,CK-*%
%TO.N,/ck-*%
X183250000Y-126838250D03*
%TO.P,J1,13,CEC*%
%TO.N,unconnected-(J1-Pad13)*%
X182750000Y-126838250D03*
%TO.P,J1,14,UTILITY/HEAC+*%
%TO.N,unconnected-(J1-Pad14)*%
X182250000Y-126838250D03*
%TO.P,J1,15,SCL*%
%TO.N,unconnected-(J1-Pad15)*%
X181750000Y-126838250D03*
%TO.P,J1,16,SDA*%
%TO.N,unconnected-(J1-Pad16)*%
X181250000Y-126838250D03*
%TO.P,J1,17,GND*%
%TO.N,GND*%
X180750000Y-126838250D03*
%TO.P,J1,18,+5V*%
%TO.N,unconnected-(J1-Pad18)*%
X180250000Y-126838250D03*
%TO.P,J1,19,HPD/HEAC-*%
%TO.N,unconnected-(J1-Pad19)*%
X179750000Y-126838250D03*
D16*
%TO.P,J1,SH1,SH*%
%TO.N,GND*%
X191500000Y-127568250D03*
%TO.P,J1,SH2,SH*%
X177000000Y-127568250D03*
D17*
%TO.P,J1,SH3,SH*%
X177000000Y-133528250D03*
%TO.P,J1,SH4,SH*%
X191500000Y-133528250D03*
%TD*%
D14*
%TO.P,R5,1*%
%TO.N,FC_HDMI_D0+*%
X185257142Y-118202500D03*
%TO.P,R5,2*%
%TO.N,/d0+*%
X185257142Y-119397500D03*
%TD*%
%TO.P,R3,2*%
%TO.N,/d1+*%
X187778570Y-119397500D03*
%TO.P,R3,1*%
%TO.N,FC_HDMI_D1+*%
X187778570Y-118202500D03*
%TD*%
D18*
%TO.P,SW1,1,1*%
%TO.N,Net-(SW1-Pad1)*%
X200200000Y-92500000D03*
X200200000Y-88350000D03*
%TO.P,SW1,2,2*%
%TO.N,GND*%
X202350000Y-92500000D03*
X202350000Y-88350000D03*
%TD*%
D19*
%TO.N,GND*%
X180750000Y-129225000D03*
X183750000Y-129225000D03*
X185250000Y-129225000D03*
X186750000Y-129225000D03*
X188250000Y-129225000D03*
%TD*%
D20*
%TO.N,FC_HDMI_CK+*%
X176954200Y-109784200D02*
X177497464Y-109784200D01*
X178575800Y-110862536D02*
X178575800Y-114042586D01*
X175835000Y-108665000D02*
X176954200Y-109784200D01*
%TO.N,FC_HDMI_CK-*%
X177372536Y-110085800D02*
X178274200Y-110987464D01*
%TO.N,FC_HDMI_CK+*%
X177497464Y-109784200D02*
X178575800Y-110862536D01*
%TO.N,FC_HDMI_CK-*%
X175835000Y-111205000D02*
X176954200Y-110085800D01*
%TO.N,FC_HDMI_CK+*%
X178575800Y-114042586D02*
X182735714Y-118202500D01*
%TO.N,FC_HDMI_CK-*%
X181475000Y-117368313D02*
X181475000Y-118202500D01*
X176954200Y-110085800D02*
X177372536Y-110085800D01*
X178274200Y-110987464D02*
X178274200Y-114167513D01*
X178274200Y-114167513D02*
X181475000Y-117368313D01*
%TO.N,/ck+*%
X184250000Y-124888249D02*
X183975000Y-124613249D01*
X184250000Y-126838250D02*
X184250000Y-124888249D01*
%TO.N,/ck-*%
X183525000Y-124331451D02*
X181880356Y-122686807D01*
%TO.N,/ck+*%
X183975000Y-124145051D02*
X182330358Y-122500409D01*
X183975000Y-124613249D02*
X183975000Y-124145051D01*
X182330358Y-122500409D02*
X182330358Y-119802856D01*
%TO.N,/ck-*%
X183250000Y-126838250D02*
X183250000Y-124888249D01*
X183250000Y-124888249D02*
X183525000Y-124613249D01*
X181880356Y-119802856D02*
X181475000Y-119397500D01*
X183525000Y-124613249D02*
X183525000Y-124331451D01*
X181880356Y-122686807D02*
X181880356Y-119802856D01*
%TO.N,/ck+*%
X182330358Y-119802856D02*
X182735714Y-119397500D01*
%TO.N,/d0+*%
X184851786Y-123083586D02*
X185475000Y-123706800D01*
X185475000Y-123706800D02*
X185475000Y-124613249D01*
X185475000Y-124613249D02*
X185750000Y-124888249D01*
%TO.N,/d0-*%
X184401784Y-123269984D02*
X185025000Y-123893200D01*
%TO.N,/d0+*%
X185750000Y-124888249D02*
X185750000Y-126838250D01*
%TO.N,/d0-*%
X185025000Y-123893200D02*
X185025000Y-124613249D01*
X185025000Y-124613249D02*
X184750000Y-124888249D01*
X184750000Y-124888249D02*
X184750000Y-126838250D01*
%TO.N,/d0+*%
X185257142Y-119397500D02*
X184851786Y-119802856D01*
X184851786Y-119802856D02*
X184851786Y-123083586D01*
%TO.N,/d0-*%
X183996428Y-119397500D02*
X184401784Y-119802856D01*
X184401784Y-119802856D02*
X184401784Y-123269984D01*
%TO.N,/d1+*%
X186975000Y-124613249D02*
X187250000Y-124888249D01*
X187250000Y-124888249D02*
X187250000Y-126838250D01*
%TO.N,/d1-*%
X186525000Y-123906800D02*
X186525000Y-124613249D01*
%TO.N,/d1+*%
X186975000Y-124093200D02*
X186975000Y-124613249D01*
%TO.N,/d1-*%
X186525000Y-124613249D02*
X186250000Y-124888249D01*
X186250000Y-124888249D02*
X186250000Y-126838250D01*
%TO.N,/d1+*%
X187373214Y-123694986D02*
X186975000Y-124093200D01*
%TO.N,/d1-*%
X186923212Y-123508588D02*
X186525000Y-123906800D01*
%TO.N,/d1+*%
X187778570Y-119397500D02*
X187373214Y-119802856D01*
%TO.N,/d1-*%
X186517856Y-119397500D02*
X186923212Y-119802856D01*
%TO.N,/d1+*%
X187373214Y-119802856D02*
X187373214Y-123694986D01*
%TO.N,/d1-*%
X186923212Y-119802856D02*
X186923212Y-123508588D01*
%TO.N,/d2+*%
X188475000Y-124443200D02*
X188475000Y-124613249D01*
X190300000Y-119397500D02*
X189894643Y-119802857D01*
X189894643Y-119802857D02*
X189894643Y-123023557D01*
X189894643Y-123023557D02*
X188475000Y-124443200D01*
X188750000Y-124888249D02*
X188750000Y-126838250D01*
%TO.N,/d2-*%
X189039284Y-119397500D02*
X189444641Y-119802857D01*
X188025000Y-124613249D02*
X187750000Y-124888249D01*
%TO.N,/d2+*%
X188475000Y-124613249D02*
X188750000Y-124888249D01*
%TO.N,/d2-*%
X189444641Y-119802857D02*
X189444641Y-122837159D01*
X189444641Y-122837159D02*
X188025000Y-124256800D01*
X188025000Y-124256800D02*
X188025000Y-124613249D01*
X187750000Y-124888249D02*
X187750000Y-126838250D01*
%TO.N,FC_HDMI_D1+*%
X189025800Y-115312464D02*
X189025800Y-106060727D01*
%TO.N,FC_HDMI_D1-*%
X186517856Y-118202500D02*
X186997413Y-117722943D01*
%TO.N,FC_HDMI_D1+*%
X187778570Y-118202500D02*
X187299013Y-117722943D01*
%TO.N,FC_HDMI_D1-*%
X186997413Y-117722943D02*
X186997413Y-116914323D01*
%TO.N,FC_HDMI_D1+*%
X187299013Y-117722943D02*
X187299013Y-117039251D01*
X187299013Y-117039251D02*
X189025800Y-115312464D01*
X189025800Y-106060727D02*
X191501527Y-103585000D01*
%TO.N,FC_HDMI_D1-*%
X186997413Y-116914323D02*
X188724200Y-115187536D01*
%TO.N,FC_HDMI_D1+*%
X191501527Y-103585000D02*
X193615000Y-103585000D01*
%TO.N,FC_HDMI_D1-*%
X188724200Y-115187536D02*
X188724200Y-105935800D01*
X188724200Y-105935800D02*
X193615000Y-101045000D01*
%TO.N,FC_HDMI_D2+*%
X190300000Y-118202500D02*
X189820442Y-117722942D01*
X189820442Y-117722942D02*
X189820442Y-112886085D01*
X189820442Y-112886085D02*
X191501527Y-111205000D01*
X191501527Y-111205000D02*
X193615000Y-111205000D01*
%TO.N,FC_HDMI_D2-*%
X189039284Y-118202500D02*
X189518842Y-117722942D01*
X189518842Y-117722942D02*
X189518842Y-112761158D01*
X189518842Y-112761158D02*
X193615000Y-108665000D01*
%TO.N,FC_HDMI_D0+*%
X179575800Y-103812536D02*
X177912464Y-102149200D01*
X177912464Y-102149200D02*
X176149200Y-102149200D01*
X185257142Y-118202500D02*
X179575800Y-112521158D01*
X176149200Y-102149200D02*
X175835000Y-101835000D01*
X179575800Y-112521158D02*
X179575800Y-103812536D01*
X175835000Y-101835000D02*
X175835000Y-101045000D01*
%TO.N,FC_HDMI_D0-*%
X183996428Y-117368313D02*
X179274200Y-112646085D01*
X179274200Y-112646085D02*
X179274200Y-103937464D01*
X179274200Y-103937464D02*
X177787536Y-102450800D01*
X177787536Y-102450800D02*
X176174200Y-102450800D01*
X183996428Y-118202500D02*
X183996428Y-117368313D01*
X176174200Y-102450800D02*
X175835000Y-102790000D01*
X175835000Y-102790000D02*
X175835000Y-103585000D01*
%TO.N,FC_HDMI_CK-*%
X175950000Y-111090000D02*
X175835000Y-111205000D01*
%TO.N,FC_HDMI_CK+*%
X175950000Y-108780000D02*
X175835000Y-108665000D01*
D21*
%TO.N,GND*%
X180750000Y-126838250D02*
X180750000Y-129225000D01*
X183750000Y-126838250D02*
X183750000Y-129225000D01*
X185250000Y-126838250D02*
X185250000Y-129225000D01*
X186750000Y-126838250D02*
X186750000Y-129225000D01*
X188250000Y-126838250D02*
X188250000Y-129225000D01*
X202350000Y-92500000D02*
X202350000Y-88350000D01*
X193615000Y-106125000D02*
X195274022Y-106125000D01*
X195274022Y-106125000D02*
X202350000Y-99049022D01*
X202350000Y-99049022D02*
X202350000Y-92500000D01*
%TO.N,Net-(SW1-Pad1)*%
X200200000Y-88350000D02*
X200200000Y-92500000D01*
X193615000Y-88345000D02*
X200195000Y-88345000D01*
X200195000Y-88345000D02*
X200200000Y-88350000D01*
%TD*%
M02*
