%TF.GenerationSoftware,KiCad,Pcbnew,(6.0.0-0)*%
%TF.CreationDate,2022-10-23T16:11:07-04:00*%
%TF.ProjectId,HDMI_PICO,48444d49-5f50-4494-934f-2e6b69636164,rev?*%
%TF.SameCoordinates,Original*%
%TF.FileFunction,Soldermask,Top*%
%TF.FilePolarity,Negative*%
%FSLAX46Y46*%
G04 Gerber Fmt 4.6, Leading zero omitted, Abs format (unit mm)*
G04 Created by KiCad (PCBNEW (6.0.0-0)) date 2022-10-23 16:11:07*
%MOMM*%
%LPD*%
G01*
G04 APERTURE LIST*
G04 Aperture macros list*
%AMRoundRect*
0 Rectangle with rounded corners*
0 $1 Rounding radius*
0 $2 $3 $4 $5 $6 $7 $8 $9 X,Y pos of 4 corners*
0 Add a 4 corners polygon primitive as box body*
4,1,4,$2,$3,$4,$5,$6,$7,$8,$9,$2,$3,0*
0 Add four circle primitives for the rounded corners*
1,1,$1+$1,$2,$3*
1,1,$1+$1,$4,$5*
1,1,$1+$1,$6,$7*
1,1,$1+$1,$8,$9*
0 Add four rect primitives between the rounded corners*
20,1,$1+$1,$2,$3,$4,$5,0*
20,1,$1+$1,$4,$5,$6,$7,0*
20,1,$1+$1,$6,$7,$8,$9,0*
20,1,$1+$1,$8,$9,$2,$3,0*%
G04 Aperture macros list end*
%ADD10O,1.700000X1.700000*%
%ADD11R,1.700000X1.700000*%
%ADD12R,3.500000X1.700000*%
%ADD13O,1.800000X1.800000*%
%ADD14O,1.500000X1.500000*%
%ADD15R,1.700000X3.500000*%
%ADD16RoundRect,0.160000X-0.160000X0.197500X-0.160000X-0.197500X0.160000X-0.197500X0.160000X0.197500X0*%
%ADD17R,0.300000X2.600000*%
%ADD18O,1.500000X3.300000*%
%ADD19O,1.500000X2.300000*%
%ADD20R,0.650000X1.050000*%
G04 APERTURE END LIST*
D10*
%TO.C,U1*%
X175835000Y-62945000D03*
X175835000Y-65485000D03*
D11*
X175835000Y-68025000D03*
D10*
X175835000Y-70565000D03*
X175835000Y-73105000D03*
X175835000Y-75645000D03*
X175835000Y-78185000D03*
D11*
X175835000Y-80725000D03*
D10*
X175835000Y-83265000D03*
X175835000Y-85805000D03*
X175835000Y-88345000D03*
X175835000Y-90885000D03*
D11*
X175835000Y-93425000D03*
D10*
X175835000Y-95965000D03*
X175835000Y-98505000D03*
X175835000Y-101045000D03*
X175835000Y-103585000D03*
D11*
X175835000Y-106125000D03*
D10*
X175835000Y-108665000D03*
X175835000Y-111205000D03*
X193615000Y-111205000D03*
X193615000Y-108665000D03*
D11*
X193615000Y-106125000D03*
D10*
X193615000Y-103585000D03*
X193615000Y-101045000D03*
X193615000Y-98505000D03*
X193615000Y-95965000D03*
D11*
X193615000Y-93425000D03*
D10*
X193615000Y-90885000D03*
X193615000Y-88345000D03*
X193615000Y-85805000D03*
X193615000Y-83265000D03*
D11*
X193615000Y-80725000D03*
D10*
X193615000Y-78185000D03*
X193615000Y-75645000D03*
X193615000Y-73105000D03*
X193615000Y-70565000D03*
D11*
X193615000Y-68025000D03*
D10*
X193615000Y-65485000D03*
X193615000Y-62945000D03*
D12*
X174935000Y-62945000D03*
X174935000Y-65485000D03*
X174935000Y-68025000D03*
X174935000Y-70565000D03*
X174935000Y-73105000D03*
X174935000Y-75645000D03*
X174935000Y-78185000D03*
X174935000Y-80725000D03*
X174935000Y-83265000D03*
X174935000Y-85805000D03*
X174935000Y-88345000D03*
X174935000Y-90885000D03*
X174935000Y-93425000D03*
X174935000Y-95965000D03*
X174935000Y-98505000D03*
X174935000Y-101045000D03*
X174935000Y-103585000D03*
X174935000Y-106125000D03*
X174935000Y-108665000D03*
X174935000Y-111205000D03*
X194515000Y-62945000D03*
X194515000Y-65485000D03*
X194515000Y-68025000D03*
X194515000Y-70565000D03*
X194515000Y-73105000D03*
X194515000Y-75645000D03*
X194515000Y-78185000D03*
X194515000Y-80725000D03*
X194515000Y-83265000D03*
X194515000Y-85805000D03*
X194515000Y-88345000D03*
X194515000Y-90885000D03*
X194515000Y-93425000D03*
X194515000Y-95965000D03*
X194515000Y-98505000D03*
X194515000Y-101045000D03*
X194515000Y-103585000D03*
X194515000Y-106125000D03*
X194515000Y-108665000D03*
X194515000Y-111205000D03*
D13*
X182000000Y-63075000D03*
X187450000Y-63075000D03*
D14*
X182300000Y-66105000D03*
X187150000Y-66105000D03*
D15*
X182185000Y-111875000D03*
D10*
X182185000Y-110975000D03*
D15*
X184725000Y-111875000D03*
D11*
X184725000Y-110975000D03*
D15*
X187265000Y-111875000D03*
D10*
X187265000Y-110975000D03*
%TD*%
D16*
%TO.C,R7*%
X182735714Y-118202500D03*
X182735714Y-119397500D03*
%TD*%
%TO.C,R2*%
X189039284Y-118202500D03*
X189039284Y-119397500D03*
%TD*%
%TO.C,R1*%
X190300000Y-118202500D03*
X190300000Y-119397500D03*
%TD*%
%TO.C,R4*%
X186517856Y-118202500D03*
X186517856Y-119397500D03*
%TD*%
%TO.C,R8*%
X181475000Y-118202500D03*
X181475000Y-119397500D03*
%TD*%
%TO.C,R6*%
X183996428Y-118202500D03*
X183996428Y-119397500D03*
%TD*%
D17*
%TO.C,J1*%
X188750000Y-126838250D03*
X188250000Y-126838250D03*
X187750000Y-126838250D03*
X187250000Y-126838250D03*
X186750000Y-126838250D03*
X186250000Y-126838250D03*
X185750000Y-126838250D03*
X185250000Y-126838250D03*
X184750000Y-126838250D03*
X184250000Y-126838250D03*
X183750000Y-126838250D03*
X183250000Y-126838250D03*
X182750000Y-126838250D03*
X182250000Y-126838250D03*
X181750000Y-126838250D03*
X181250000Y-126838250D03*
X180750000Y-126838250D03*
X180250000Y-126838250D03*
X179750000Y-126838250D03*
D18*
X191500000Y-127568250D03*
X177000000Y-127568250D03*
D19*
X177000000Y-133528250D03*
X191500000Y-133528250D03*
%TD*%
D16*
%TO.C,R5*%
X185257142Y-118202500D03*
X185257142Y-119397500D03*
%TD*%
%TO.C,R3*%
X187778570Y-119397500D03*
X187778570Y-118202500D03*
%TD*%
D20*
%TO.C,SW1*%
X200200000Y-92500000D03*
X200200000Y-88350000D03*
X202350000Y-92500000D03*
X202350000Y-88350000D03*
%TD*%
M02*
