%TF.GenerationSoftware,KiCad,Pcbnew,(6.0.0-0)*%
%TF.CreationDate,2022-10-23T16:11:07-04:00*%
%TF.ProjectId,HDMI_PICO,48444d49-5f50-4494-934f-2e6b69636164,rev?*%
%TF.SameCoordinates,Original*%
%TF.FileFunction,Soldermask,Bot*%
%TF.FilePolarity,Negative*%
%FSLAX46Y46*%
G04 Gerber Fmt 4.6, Leading zero omitted, Abs format (unit mm)*
G04 Created by KiCad (PCBNEW (6.0.0-0)) date 2022-10-23 16:11:07*
%MOMM*%
%LPD*%
G01*
G04 APERTURE LIST*
%ADD10O,1.700000X1.700000*%
%ADD11R,1.700000X1.700000*%
%ADD12O,1.800000X1.800000*%
%ADD13O,1.500000X1.500000*%
%ADD14O,1.500000X3.300000*%
%ADD15O,1.500000X2.300000*%
G04 APERTURE END LIST*
D10*
%TO.C,U1*%
X175835000Y-62945000D03*
X175835000Y-65485000D03*
D11*
X175835000Y-68025000D03*
D10*
X175835000Y-70565000D03*
X175835000Y-73105000D03*
X175835000Y-75645000D03*
X175835000Y-78185000D03*
D11*
X175835000Y-80725000D03*
D10*
X175835000Y-83265000D03*
X175835000Y-85805000D03*
X175835000Y-88345000D03*
X175835000Y-90885000D03*
D11*
X175835000Y-93425000D03*
D10*
X175835000Y-95965000D03*
X175835000Y-98505000D03*
X175835000Y-101045000D03*
X175835000Y-103585000D03*
D11*
X175835000Y-106125000D03*
D10*
X175835000Y-108665000D03*
X175835000Y-111205000D03*
X193615000Y-111205000D03*
X193615000Y-108665000D03*
D11*
X193615000Y-106125000D03*
D10*
X193615000Y-103585000D03*
X193615000Y-101045000D03*
X193615000Y-98505000D03*
X193615000Y-95965000D03*
D11*
X193615000Y-93425000D03*
D10*
X193615000Y-90885000D03*
X193615000Y-88345000D03*
X193615000Y-85805000D03*
X193615000Y-83265000D03*
D11*
X193615000Y-80725000D03*
D10*
X193615000Y-78185000D03*
X193615000Y-75645000D03*
X193615000Y-73105000D03*
X193615000Y-70565000D03*
D11*
X193615000Y-68025000D03*
D10*
X193615000Y-65485000D03*
X193615000Y-62945000D03*
D12*
X182000000Y-63075000D03*
X187450000Y-63075000D03*
D13*
X182300000Y-66105000D03*
X187150000Y-66105000D03*
D10*
X182185000Y-110975000D03*
D11*
X184725000Y-110975000D03*
D10*
X187265000Y-110975000D03*
%TD*%
D14*
%TO.C,J1*%
X191500000Y-127568250D03*
X177000000Y-127568250D03*
D15*
X177000000Y-133528250D03*
X191500000Y-133528250D03*
%TD*%
M02*
