M48
; DRILL file {KiCad (6.0.0-0)} date Thursday, April 14, 2022 at 08:43:55 pm
; FORMAT={-:-/ absolute / inch / decimal}
; #@! TF.CreationDate,2022-04-14T20:43:55-04:00
; #@! TF.GenerationSoftware,Kicad,Pcbnew,(6.0.0-0)
; #@! TF.FileFunction,Plated,1,4,PTH
FMAT,2
INCH
; #@! TA.AperFunction,Plated,PTH,ViaDrill
T1C0.0098
; #@! TA.AperFunction,Plated,PTH,ComponentDrill
T2C0.0118
; #@! TA.AperFunction,Plated,PTH,ViaDrill
T3C0.0157
; #@! TA.AperFunction,Plated,PTH,ComponentDrill
T4C0.0197
; #@! TA.AperFunction,Plated,PTH,ComponentDrill
T5C0.0217
; #@! TA.AperFunction,Plated,PTH,ComponentDrill
T6C0.0354
; #@! TA.AperFunction,Plated,PTH,ComponentDrill
T7C0.0374
; #@! TA.AperFunction,Plated,PTH,ComponentDrill
T8C0.0394
; #@! TA.AperFunction,Plated,PTH,ComponentDrill
T9C0.0906
; #@! TA.AperFunction,Plated,PTH,ComponentDrill
T10C0.1181
; #@! TA.AperFunction,Plated,PTH,ComponentDrill
T11C0.1378
%
G90
G05
T1
X2.8042Y-2.3348
X2.8238Y-2.3152
X3.0748Y-1.9174
X3.0748Y-1.9451
X3.0752Y-2.027
X3.0752Y-2.0547
X3.0756Y-1.9697
X3.0756Y-1.9974
X3.0757Y-1.865
X3.0757Y-1.8927
X3.309Y-2.2132
X3.3327Y-2.1108
X3.3367Y-2.2132
X3.3523Y-2.0913
X3.3871Y-2.0896
X3.4067Y-2.0701
X3.4507Y-2.0706
X3.4784Y-2.0706
X4.2718Y-3.8024
X4.2914Y-3.7828
T2
X3.8012Y-1.1913
X3.8012Y-1.2425
X3.8012Y-1.2937
X3.8012Y-1.3449
X3.8524Y-1.1913
X3.8524Y-1.2425
X3.8524Y-1.2937
X3.8524Y-1.3449
T3
X1.2706Y-1.4421
X1.2953Y-3.7953
X1.3346Y-3.1339
X1.3386Y-3.0315
X1.3465Y-1.311
X1.3465Y-1.4291
X1.3465Y-1.4882
X1.3465Y-1.5433
X1.3465Y-1.6063
X1.3465Y-2.9134
X1.3469Y-1.2705
X1.3898Y-2.6772
X1.3898Y-2.7559
X1.526Y-1.3676
X1.5389Y-1.3296
X1.5394Y-1.2903
X1.5978Y-2.6778
X1.6732Y-2.7598
X1.7165Y-2.6496
X1.7913Y-3.374
X1.815Y-2.4724
X1.8308Y-3.3735
X2.0315Y-0.9016
X2.1063Y-2.622
X2.2441Y-0.7402
X2.248Y-2.5945
X2.3545Y-1.7579
X2.4409Y-3.1732
X2.5157Y-1.7362
X2.5276Y-0.8937
X2.5945Y-1.498
X2.6732Y-0.7362
X2.7087Y-3.3543
X2.7165Y-3.315
X2.7165Y-3.4449
X2.748Y-3.4134
X2.7717Y-3.378
X2.7817Y-2.359
X2.8246Y-2.2062
X2.8268Y-3.5551
X2.8465Y-1.498
X2.8505Y-2.2358
X2.8763Y-2.2061
X2.9094Y-3.248
X2.9213Y-2.2087
X2.9331Y-3.5512
X2.9331Y-3.685
X2.9488Y-3.248
X2.9685Y-2.2087
X2.9921Y-3.248
X3.0039Y-3.5706
X3.0157Y-2.2087
X3.0315Y-3.248
X3.063Y-2.2087
X3.0709Y-3.248
X3.0933Y-2.2343
X3.1063Y-3.5702
X3.1102Y-3.248
X3.1231Y-2.2048
X3.1383Y-3.3269
X3.1477Y-3.2887
X3.1496Y-3.248
X3.1693Y-3.4062
X3.1764Y-3.3667
X3.1791Y-3.3125
X3.1968Y-3.5433
X3.201Y-3.6533
X3.2047Y-2.2165
X3.2075Y-3.3909
X3.2275Y-3.4248
X3.2691Y-3.4124
X3.286Y-3.5407
X3.2913Y-3.4449
X3.2995Y-2.3186
X3.3386Y-3.4409
X3.3411Y-3.5374
X3.3425Y-3.7176
X3.3462Y-2.3186
X3.3622Y-3.6614
X3.3671Y-3.5705
X3.3939Y-2.3187
X3.3976Y-3.3071
X3.3997Y-3.5484
X3.4291Y-3.3346
X3.437Y-3.5315
X3.4406Y-2.3185
X3.4567Y-3.6614
X3.458Y-3.3718
X3.4883Y-2.3182
X3.4921Y-3.316
X3.4961Y-4.3937
X3.5157Y-3.5354
X3.5276Y-3.2874
X3.5349Y-2.1044
X3.535Y-2.3182
X3.5394Y-3.6732
X3.5551Y-3.5387
X3.5758Y-2.1048
X3.6575Y-1.3902
X3.7441Y-3.8701
X3.7756Y-2.9685
X3.7913Y-1.7323
X3.8071Y-3.0197
X3.9016Y-1.8031
X3.9134Y-3.8701
X3.9488Y-1.4177
X3.9921Y-1.3307
X4.0118Y-1.6339
X4.0236Y-5.5551
X4.0414Y-1.9585
X4.0433Y-4.3583
X4.0433Y-4.4055
X4.0433Y-4.4449
X4.0459Y-4.3163
X4.0787Y-5.3504
X4.0827Y-1.9567
X4.1063Y-1.0118
X4.1142Y-5.7874
X4.126Y-3.9567
X4.1283Y-3.9966
X4.1339Y-2.0197
X4.1404Y-5.0047
X4.1417Y-2.3346
X4.1427Y-5.3181
X4.1614Y-5.7874
X4.1632Y-4.7778
X4.1772Y-1.5118
X4.1772Y-2.2598
X4.1798Y-5.0032
X4.2008Y-5.9646
X4.2236Y-5.0068
X4.2399Y-5.7831
X4.2569Y-3.9556
X4.2617Y-5.0167
X4.2638Y-0.8268
X4.2638Y-4.378
X4.2638Y-4.5787
X4.2713Y-5.8068
X4.2735Y-4.1317
X4.2913Y-2.057
X4.2953Y-4.0945
X4.2953Y-5.3898
X4.2992Y-4.4843
X4.3003Y-5.0046
X4.3031Y-3.3031
X4.3228Y-1.1378
X4.3425Y-3.122
X4.3465Y-5.0118
X4.349Y-4.1242
X4.3504Y-4.2795
X4.3504Y-4.3268
X4.3504Y-5.7431
X4.378Y-5.7874
X4.4045Y-5.4038
X4.4094Y-5.2835
X4.4213Y-5.7874
X4.4409Y-4.6457
X4.4581Y-4.0198
X4.4581Y-4.0592
X4.4606Y-0.8268
X4.5079Y-4.1614
X4.5571Y-3.1562
X4.5709Y-1.9291
X4.5807Y-2.9003
X4.6417Y-5.6417
X4.7717Y-1.4173
X4.7756Y-1.122
X4.8898Y-2.5787
X5.0276Y-3.3858
X5.1417Y-2.2638
X5.1417Y-2.3228
X5.1417Y-2.3819
X5.1417Y-2.4409
X5.1417Y-2.5591
X5.1811Y-2.9252
X5.1827Y-3.113
T4
X1.1398Y-4.5
X1.1657Y-4.4374
X1.1657Y-4.5626
X1.2283Y-4.4114
X1.2283Y-4.5886
X1.291Y-4.4374
X1.291Y-4.5626
X1.3169Y-4.5
X5.1201Y-0.9134
X5.1201Y-4.063
X5.146Y-0.8507
X5.146Y-0.976
X5.146Y-4.0004
X5.146Y-4.1256
X5.2087Y-0.8248
X5.2087Y-1.002
X5.2087Y-3.9744
X5.2087Y-4.1516
X5.2713Y-0.8507
X5.2713Y-0.976
X5.2713Y-4.0004
X5.2713Y-4.1256
X5.2972Y-0.9134
X5.2972Y-4.063
T7
X4.9406Y-3.3898
X4.9406Y-3.4882
X4.9406Y-3.5669
X4.9406Y-3.6654
X4.9406Y-4.3543
X4.9406Y-4.4528
X4.9406Y-4.5315
X4.9406Y-4.6299
X4.9406Y-5.0551
X4.9406Y-5.1535
X4.9406Y-5.2323
X4.9406Y-5.3307
X4.9406Y-5.7559
X4.9406Y-5.8543
X4.9406Y-5.9331
X4.9406Y-6.0315
T8
X1.4252Y-3.3465
X1.4252Y-3.4465
X1.4252Y-3.5465
X1.4488Y-1.9843
X1.4488Y-2.0843
X1.4488Y-2.1843
X1.4488Y-2.2843
X1.4488Y-2.3843
X1.4488Y-2.4843
X1.4488Y-2.5843
X1.4498Y-3.0335
X1.4498Y-3.1335
X1.537Y-4.5079
X1.537Y-4.6079
X1.5488Y-1.9843
X1.5488Y-2.0843
X1.5488Y-2.1843
X1.5488Y-2.2843
X1.5488Y-2.3843
X1.5488Y-2.4843
X1.5488Y-2.5843
X1.5498Y-3.0335
X1.5498Y-3.1335
X1.5709Y-3.3465
X1.5709Y-3.4465
X1.5709Y-3.5465
X1.637Y-4.5079
X1.637Y-4.6079
X1.737Y-4.5079
X1.737Y-4.6079
X1.837Y-4.5079
X1.837Y-4.6079
X1.937Y-4.5079
X1.937Y-4.6079
X2.037Y-4.5079
X2.037Y-4.6079
X2.137Y-4.5079
X2.137Y-4.6079
X2.237Y-4.5079
X2.237Y-4.6079
X2.337Y-4.5079
X2.337Y-4.6079
X2.437Y-4.5079
X2.437Y-4.6079
X2.537Y-4.5079
X2.537Y-4.6079
X2.637Y-4.5079
X2.637Y-4.6079
X2.737Y-4.5079
X2.737Y-4.6079
X2.837Y-4.5079
X2.837Y-4.6079
X2.937Y-4.5079
X2.937Y-4.6079
X3.037Y-4.5079
X3.037Y-4.6079
X3.137Y-4.5079
X3.137Y-4.6079
X3.237Y-4.5079
X3.237Y-4.6079
X3.337Y-4.5079
X3.337Y-4.6079
X3.437Y-4.5079
X3.437Y-4.6079
X4.4606Y-0.7441
X4.5606Y-0.7441
X4.6606Y-0.7441
X4.7606Y-0.7441
T9
X5.0472Y-3.2689
X5.0472Y-3.7862
X5.0472Y-4.2335
X5.0472Y-4.7508
X5.0472Y-4.9343
X5.0472Y-5.4516
X5.0472Y-5.635
X5.0472Y-6.1524
T10
X1.2283Y-4.5
X5.2087Y-0.9134
X5.2087Y-4.063
T4
G00X1.1028Y-3.7087
M15
G01X1.0772Y-3.7087
M16
G05
G00X1.1028Y-3.9843
M15
G01X1.0772Y-3.9843
M16
G05
G00X5.3258Y-2.8622
M15
G01X5.3514Y-2.8622
M16
G05
G00X5.3258Y-3.1378
M15
G01X5.3514Y-3.1378
M16
G05
T5
G00X1.1963Y-3.7421
M15
G01X1.1963Y-3.7539
M16
G05
G00X1.1963Y-3.939
M15
G01X1.1963Y-3.9508
M16
G05
G00X5.2323Y-2.9075
M15
G01X5.2323Y-2.8957
M16
G05
G00X5.2323Y-3.1043
M15
G01X5.2323Y-3.0925
M16
G05
T6
G00X1.1967Y-1.1624
M15
G01X1.1652Y-1.1624
M16
G05
G00X1.1967Y-1.7333
M15
G01X1.1652Y-1.7333
M16
G05
G00X1.4511Y-1.1624
M15
G01X1.3802Y-1.1624
M16
G05
G00X1.4511Y-1.7333
M15
G01X1.3802Y-1.7333
M16
G05
G00X4.9702Y-2.1368
M15
G01X5.0411Y-2.1368
M16
G05
G00X4.9702Y-2.7077
M15
G01X5.0411Y-2.7077
M16
G05
G00X5.2245Y-2.1368
M15
G01X5.256Y-2.1368
M16
G05
G00X5.2245Y-2.7077
M15
G01X5.256Y-2.7077
M16
G05
T8
G00X4.6806Y-1.124
M15
G01X4.6216Y-1.124
M16
G05
G00X4.6806Y-1.4154
M15
G01X4.6216Y-1.4154
M16
G05
G00X4.8834Y-1.2402
M15
G01X4.8834Y-1.2992
M16
G05
T11
G00X2.5217Y-1.189
M15
G01X2.5807Y-1.189
M16
G05
T0
M30
