%TF.GenerationSoftware,KiCad,Pcbnew,(6.0.0-0)*%
%TF.CreationDate,2022-04-14T20:44:02-04:00*%
%TF.ProjectId,SIL-CM4,53494c2d-434d-4342-9e6b-696361645f70,rev?*%
%TF.SameCoordinates,Original*%
%TF.FileFunction,Copper,L1,Top*%
%TF.FilePolarity,Positive*%
%FSLAX46Y46*%
G04 Gerber Fmt 4.6, Leading zero omitted, Abs format (unit mm)*
G04 Created by KiCad (PCBNEW (6.0.0-0)) date 2022-04-14 20:44:02*
%MOMM*%
%LPD*%
G01*
G04 APERTURE LIST*
G04 Aperture macros list*
%AMRoundRect*
0 Rectangle with rounded corners*
0 $1 Rounding radius*
0 $2 $3 $4 $5 $6 $7 $8 $9 X,Y pos of 4 corners*
0 Add a 4 corners polygon primitive as box body*
4,1,4,$2,$3,$4,$5,$6,$7,$8,$9,$2,$3,0*
0 Add four circle primitives for the rounded corners*
1,1,$1+$1,$2,$3*
1,1,$1+$1,$4,$5*
1,1,$1+$1,$6,$7*
1,1,$1+$1,$8,$9*
0 Add four rect primitives between the rounded corners*
20,1,$1+$1,$2,$3,$4,$5,0*
20,1,$1+$1,$4,$5,$6,$7,0*
20,1,$1+$1,$6,$7,$8,$9,0*
20,1,$1+$1,$8,$9,$2,$3,0*%
%AMFreePoly0*
4,1,17,1.395000,0.765000,0.855000,0.765000,0.855000,0.535000,1.395000,0.535000,1.395000,0.115000,0.855000,0.115000,0.855000,-0.115000,1.395000,-0.115000,1.395000,-0.535000,0.855000,-0.535000,0.855000,-0.765000,1.395000,-0.765000,1.395000,-1.185000,-0.855000,-1.185000,-0.855000,1.185000,1.395000,1.185000,1.395000,0.765000,1.395000,0.765000,$1*%
%AMFreePoly1*
4,1,22,0.550000,-0.750000,0.000000,-0.750000,0.000000,-0.745033,-0.079941,-0.743568,-0.215256,-0.701293,-0.333266,-0.622738,-0.424486,-0.514219,-0.481581,-0.384460,-0.499164,-0.250000,-0.500000,-0.250000,-0.500000,0.250000,-0.499164,0.250000,-0.499963,0.256109,-0.478152,0.396186,-0.417904,0.524511,-0.324060,0.630769,-0.204165,0.706417,-0.067858,0.745374,0.000000,0.744959,0.000000,0.750000,
0.550000,0.750000,0.550000,-0.750000,0.550000,-0.750000,$1*%
%AMFreePoly2*
4,1,20,0.000000,0.744959,0.073905,0.744508,0.209726,0.703889,0.328688,0.626782,0.421226,0.519385,0.479903,0.390333,0.500000,0.250000,0.500000,-0.250000,0.499851,-0.262216,0.476331,-0.402017,0.414519,-0.529596,0.319384,-0.634700,0.198574,-0.708877,0.061801,-0.746166,0.000000,-0.745033,0.000000,-0.750000,-0.550000,-0.750000,-0.550000,0.750000,0.000000,0.750000,0.000000,0.744959,
0.000000,0.744959,$1*%
%AMFreePoly3*
4,1,22,0.500000,-0.750000,0.000000,-0.750000,0.000000,-0.745033,-0.079941,-0.743568,-0.215256,-0.701293,-0.333266,-0.622738,-0.424486,-0.514219,-0.481581,-0.384460,-0.499164,-0.250000,-0.500000,-0.250000,-0.500000,0.250000,-0.499164,0.250000,-0.499963,0.256109,-0.478152,0.396186,-0.417904,0.524511,-0.324060,0.630769,-0.204165,0.706417,-0.067858,0.745374,0.000000,0.744959,0.000000,0.750000,
0.500000,0.750000,0.500000,-0.750000,0.500000,-0.750000,$1*%
%AMFreePoly4*
4,1,20,0.000000,0.744959,0.073905,0.744508,0.209726,0.703889,0.328688,0.626782,0.421226,0.519385,0.479903,0.390333,0.500000,0.250000,0.500000,-0.250000,0.499851,-0.262216,0.476331,-0.402017,0.414519,-0.529596,0.319384,-0.634700,0.198574,-0.708877,0.061801,-0.746166,0.000000,-0.745033,0.000000,-0.750000,-0.500000,-0.750000,-0.500000,0.750000,0.000000,0.750000,0.000000,0.744959,
0.000000,0.744959,$1*%
G04 Aperture macros list end*
%TA.AperFunction,SMDPad,CuDef*%
%ADD10RoundRect,0.100000X0.625000X0.100000X-0.625000X0.100000X-0.625000X-0.100000X0.625000X-0.100000X0*%
%TD*%
%TA.AperFunction,SMDPad,CuDef*%
%ADD11R,1.680000X1.880000*%
%TD*%
%TA.AperFunction,SMDPad,CuDef*%
%ADD12RoundRect,0.135000X0.185000X-0.135000X0.185000X0.135000X-0.185000X0.135000X-0.185000X-0.135000X0*%
%TD*%
%TA.AperFunction,SMDPad,CuDef*%
%ADD13RoundRect,0.140000X0.170000X-0.140000X0.170000X0.140000X-0.170000X0.140000X-0.170000X-0.140000X0*%
%TD*%
%TA.AperFunction,SMDPad,CuDef*%
%ADD14RoundRect,0.140000X-0.170000X0.140000X-0.170000X-0.140000X0.170000X-0.140000X0.170000X0.140000X0*%
%TD*%
%TA.AperFunction,ComponentPad*%
%ADD15R,1.500000X1.600000*%
%TD*%
%TA.AperFunction,ComponentPad*%
%ADD16C,1.600000*%
%TD*%
%TA.AperFunction,ComponentPad*%
%ADD17C,3.000000*%
%TD*%
%TA.AperFunction,SMDPad,CuDef*%
%ADD18R,0.700000X0.420000*%
%TD*%
%TA.AperFunction,SMDPad,CuDef*%
%ADD19FreePoly0,0.000000*%
%TD*%
%TA.AperFunction,SMDPad,CuDef*%
%ADD20C,2.500000*%
%TD*%
%TA.AperFunction,SMDPad,CuDef*%
%ADD21R,1.500000X2.000000*%
%TD*%
%TA.AperFunction,SMDPad,CuDef*%
%ADD22R,3.800000X2.000000*%
%TD*%
%TA.AperFunction,ComponentPad*%
%ADD23R,1.700000X1.700000*%
%TD*%
%TA.AperFunction,ComponentPad*%
%ADD24O,1.700000X1.700000*%
%TD*%
%TA.AperFunction,SMDPad,CuDef*%
%ADD25RoundRect,0.150000X0.150000X-0.512500X0.150000X0.512500X-0.150000X0.512500X-0.150000X-0.512500X0*%
%TD*%
%TA.AperFunction,SMDPad,CuDef*%
%ADD26RoundRect,0.135000X0.135000X0.185000X-0.135000X0.185000X-0.135000X-0.185000X0.135000X-0.185000X0*%
%TD*%
%TA.AperFunction,SMDPad,CuDef*%
%ADD27RoundRect,0.135000X-0.135000X-0.185000X0.135000X-0.185000X0.135000X0.185000X-0.135000X0.185000X0*%
%TD*%
%TA.AperFunction,SMDPad,CuDef*%
%ADD28R,0.800000X1.500000*%
%TD*%
%TA.AperFunction,SMDPad,CuDef*%
%ADD29R,1.450000X2.000000*%
%TD*%
%TA.AperFunction,SMDPad,CuDef*%
%ADD30RoundRect,0.140000X-0.140000X-0.170000X0.140000X-0.170000X0.140000X0.170000X-0.140000X0.170000X0*%
%TD*%
%TA.AperFunction,SMDPad,CuDef*%
%ADD31R,1.050000X0.650000*%
%TD*%
%TA.AperFunction,SMDPad,CuDef*%
%ADD32FreePoly1,0.000000*%
%TD*%
%TA.AperFunction,SMDPad,CuDef*%
%ADD33R,1.000000X1.500000*%
%TD*%
%TA.AperFunction,SMDPad,CuDef*%
%ADD34FreePoly2,0.000000*%
%TD*%
%TA.AperFunction,SMDPad,CuDef*%
%ADD35R,0.800000X0.900000*%
%TD*%
%TA.AperFunction,SMDPad,CuDef*%
%ADD36R,1.700000X2.400000*%
%TD*%
%TA.AperFunction,SMDPad,CuDef*%
%ADD37R,1.350000X0.400000*%
%TD*%
%TA.AperFunction,ComponentPad*%
%ADD38O,1.550000X0.890000*%
%TD*%
%TA.AperFunction,SMDPad,CuDef*%
%ADD39R,1.550000X1.200000*%
%TD*%
%TA.AperFunction,ComponentPad*%
%ADD40O,0.950000X1.250000*%
%TD*%
%TA.AperFunction,SMDPad,CuDef*%
%ADD41R,1.550000X1.500000*%
%TD*%
%TA.AperFunction,SMDPad,CuDef*%
%ADD42RoundRect,0.147500X-0.147500X-0.172500X0.147500X-0.172500X0.147500X0.172500X-0.147500X0.172500X0*%
%TD*%
%TA.AperFunction,SMDPad,CuDef*%
%ADD43R,1.550000X0.600000*%
%TD*%
%TA.AperFunction,ComponentPad*%
%ADD44C,0.600000*%
%TD*%
%TA.AperFunction,SMDPad,CuDef*%
%ADD45R,2.950000X4.900000*%
%TD*%
%TA.AperFunction,SMDPad,CuDef*%
%ADD46RoundRect,0.135000X-0.185000X0.135000X-0.185000X-0.135000X0.185000X-0.135000X0.185000X0.135000X0*%
%TD*%
%TA.AperFunction,ComponentPad*%
%ADD47C,6.000000*%
%TD*%
%TA.AperFunction,ComponentPad*%
%ADD48C,0.800000*%
%TD*%
%TA.AperFunction,SMDPad,CuDef*%
%ADD49R,0.200000X0.700000*%
%TD*%
%TA.AperFunction,SMDPad,CuDef*%
%ADD50RoundRect,0.155000X0.155000X-0.212500X0.155000X0.212500X-0.155000X0.212500X-0.155000X-0.212500X0*%
%TD*%
%TA.AperFunction,SMDPad,CuDef*%
%ADD51R,2.600000X0.300000*%
%TD*%
%TA.AperFunction,ComponentPad*%
%ADD52O,3.300000X1.500000*%
%TD*%
%TA.AperFunction,ComponentPad*%
%ADD53O,2.300000X1.500000*%
%TD*%
%TA.AperFunction,SMDPad,CuDef*%
%ADD54RoundRect,0.075000X-0.350000X-0.075000X0.350000X-0.075000X0.350000X0.075000X-0.350000X0.075000X0*%
%TD*%
%TA.AperFunction,SMDPad,CuDef*%
%ADD55RoundRect,0.075000X0.075000X-0.350000X0.075000X0.350000X-0.075000X0.350000X-0.075000X-0.350000X0*%
%TD*%
%TA.AperFunction,ComponentPad*%
%ADD56O,6.000000X4.500000*%
%TD*%
%TA.AperFunction,SMDPad,CuDef*%
%ADD57RoundRect,0.155000X0.212500X0.155000X-0.212500X0.155000X-0.212500X-0.155000X0.212500X-0.155000X0*%
%TD*%
%TA.AperFunction,SMDPad,CuDef*%
%ADD58RoundRect,0.155000X-0.212500X-0.155000X0.212500X-0.155000X0.212500X0.155000X-0.212500X0.155000X0*%
%TD*%
%TA.AperFunction,SMDPad,CuDef*%
%ADD59R,3.500000X2.950000*%
%TD*%
%TA.AperFunction,SMDPad,CuDef*%
%ADD60R,1.200000X0.400000*%
%TD*%
%TA.AperFunction,SMDPad,CuDef*%
%ADD61R,1.498600X0.279400*%
%TD*%
%TA.AperFunction,ComponentPad*%
%ADD62RoundRect,1.000000X0.000000X-0.750000X0.000000X-0.750000X0.000000X0.750000X0.000000X0.750000X0*%
%TD*%
%TA.AperFunction,ComponentPad*%
%ADD63RoundRect,1.000000X-0.750000X0.000000X-0.750000X0.000000X0.750000X0.000000X0.750000X0.000000X0*%
%TD*%
%TA.AperFunction,SMDPad,CuDef*%
%ADD64RoundRect,0.150000X-0.512500X-0.150000X0.512500X-0.150000X0.512500X0.150000X-0.512500X0.150000X0*%
%TD*%
%TA.AperFunction,SMDPad,CuDef*%
%ADD65RoundRect,0.140000X0.140000X0.170000X-0.140000X0.170000X-0.140000X-0.170000X0.140000X-0.170000X0*%
%TD*%
%TA.AperFunction,SMDPad,CuDef*%
%ADD66RoundRect,0.150000X0.512500X0.150000X-0.512500X0.150000X-0.512500X-0.150000X0.512500X-0.150000X0*%
%TD*%
%TA.AperFunction,SMDPad,CuDef*%
%ADD67FreePoly3,0.000000*%
%TD*%
%TA.AperFunction,SMDPad,CuDef*%
%ADD68FreePoly4,0.000000*%
%TD*%
%TA.AperFunction,SMDPad,CuDef*%
%ADD69R,2.500000X3.300000*%
%TD*%
%TA.AperFunction,ViaPad*%
%ADD70C,0.800000*%
%TD*%
%TA.AperFunction,ViaPad*%
%ADD71C,0.450000*%
%TD*%
%TA.AperFunction,Conductor*%
%ADD72C,0.400000*%
%TD*%
%TA.AperFunction,Conductor*%
%ADD73C,0.600000*%
%TD*%
%TA.AperFunction,Conductor*%
%ADD74C,0.250000*%
%TD*%
%TA.AperFunction,Conductor*%
%ADD75C,0.200000*%
%TD*%
%TA.AperFunction,Conductor*%
%ADD76C,0.450000*%
%TD*%
%TA.AperFunction,Conductor*%
%ADD77C,0.800000*%
%TD*%
%TA.AperFunction,Conductor*%
%ADD78C,0.500000*%
%TD*%
%TA.AperFunction,Conductor*%
%ADD79C,0.300000*%
%TD*%
%TA.AperFunction,Conductor*%
%ADD80C,0.147000*%
%TD*%
%TA.AperFunction,Conductor*%
%ADD81C,0.127000*%
%TD*%
G04 APERTURE END LIST*
D10*
%TO.P,U7,1,GND*%
%TO.N,GND*%
X64220000Y-21235000D03*
%TO.P,U7,2,IN*%
%TO.N,5v*%
X64220000Y-20585000D03*
%TO.P,U7,3,IN*%
X64220000Y-19935000D03*
%TO.P,U7,4,EN*%
%TO.N,GND*%
X64220000Y-19285000D03*
%TO.P,U7,5,FLG*%
%TO.N,Net-(R6-Pad2)*%
X59920000Y-19285000D03*
%TO.P,U7,6,OUT*%
%TO.N,/SIL-Motherboard/HDMI_5v*%
X59920000Y-19935000D03*
%TO.P,U7,7,OUT*%
X59920000Y-20585000D03*
%TO.P,U7,8,NC*%
%TO.N,unconnected-(U7-Pad8)*%
X59920000Y-21235000D03*
D11*
%TO.P,U7,9*%
%TO.N,N/C*%
X62070000Y-20260000D03*
%TD*%
D12*
%TO.P,R6,1*%
%TO.N,5v*%
X69800000Y-20810000D03*
%TO.P,R6,2*%
%TO.N,Net-(R6-Pad2)*%
X69800000Y-19790000D03*
%TD*%
D13*
%TO.P,C29,1*%
%TO.N,/SIL-Motherboard/HDMI_5v*%
X56200000Y-20580000D03*
%TO.P,C29,2*%
%TO.N,GND*%
X56200000Y-19620000D03*
%TD*%
D14*
%TO.P,C28,1*%
%TO.N,GND*%
X57600000Y-19620000D03*
%TO.P,C28,2*%
%TO.N,/SIL-Motherboard/HDMI_5v*%
X57600000Y-20580000D03*
%TD*%
%TO.P,C25,1*%
%TO.N,GND*%
X67200000Y-19820000D03*
%TO.P,C25,2*%
%TO.N,5v*%
X67200000Y-20780000D03*
%TD*%
D13*
%TO.P,C24,2*%
%TO.N,GND*%
X68500000Y-19820000D03*
%TO.P,C24,1*%
%TO.N,5v*%
X68500000Y-20780000D03*
%TD*%
D15*
%TO.P,J13,1,VBUS*%
%TO.N,5v*%
X125490000Y-93100000D03*
D16*
%TO.P,J13,2,D-*%
%TO.N,/SIL-Motherboard/USB1-*%
X125490000Y-90600000D03*
%TO.P,J13,3,D+*%
%TO.N,/SIL-Motherboard/USB1+*%
X125490000Y-88600000D03*
%TO.P,J13,4,GND*%
%TO.N,GND*%
X125490000Y-86100000D03*
D17*
%TO.P,J13,5,Shield*%
X128200000Y-96170000D03*
X128200000Y-83030000D03*
%TD*%
D18*
%TO.P,Q1,1,S*%
%TO.N,/SIL-Motherboard/+12v*%
X109900000Y-32625000D03*
%TO.P,Q1,2,S*%
X109900000Y-33275000D03*
%TO.P,Q1,3,S*%
X109900000Y-33925000D03*
%TO.P,Q1,4,G*%
%TO.N,Net-(C2-Pad2)*%
X109900000Y-34575000D03*
D19*
%TO.P,Q1,5,D*%
%TO.N,/SIL-Motherboard/VCC_IN*%
X111855000Y-33600000D03*
%TD*%
D20*
%TO.P,TP4,1,1*%
%TO.N,Net-(D3-Pad1)*%
X110500000Y-47300000D03*
%TD*%
D21*
%TO.P,U1,1,GND*%
%TO.N,GND*%
X65100000Y-41200000D03*
%TO.P,U1,2,VO*%
%TO.N,/SIL-Motherboard/+3v3_Reg*%
X67400000Y-41200000D03*
D22*
X67400000Y-34900000D03*
D21*
%TO.P,U1,3,VI*%
%TO.N,5v*%
X69700000Y-41200000D03*
%TD*%
D14*
%TO.P,C5,1*%
%TO.N,/SIL-Motherboard/+3v3_Reg*%
X72300000Y-35370000D03*
%TO.P,C5,2*%
%TO.N,GND*%
X72300000Y-36330000D03*
%TD*%
%TO.P,C11,1*%
%TO.N,Net-(C11-Pad1)*%
X101500000Y-35030000D03*
%TO.P,C11,2*%
%TO.N,Net-(C11-Pad2)*%
X101500000Y-35990000D03*
%TD*%
D15*
%TO.P,J16,1,VBUS*%
%TO.N,5v*%
X125490000Y-135400000D03*
D16*
%TO.P,J16,2,D-*%
%TO.N,/SIL-Motherboard/USB3-*%
X125490000Y-132900000D03*
%TO.P,J16,3,D+*%
%TO.N,/SIL-Motherboard/USB3+*%
X125490000Y-130900000D03*
%TO.P,J16,4,GND*%
%TO.N,GND*%
X125490000Y-128400000D03*
D17*
%TO.P,J16,5,Shield*%
X128200000Y-125330000D03*
X128200000Y-138470000D03*
%TD*%
D13*
%TO.P,C4,1*%
%TO.N,5v*%
X72300000Y-40730000D03*
%TO.P,C4,2*%
%TO.N,GND*%
X72300000Y-39770000D03*
%TD*%
D23*
%TO.P,J4,1,Pin_1*%
%TO.N,/SIL-Motherboard/GLOBAL_EN*%
X36200000Y-85000000D03*
D24*
%TO.P,J4,2,Pin_2*%
%TO.N,GND*%
X36200000Y-87540000D03*
%TO.P,J4,3,Pin_3*%
%TO.N,/SIL-Motherboard/RUN_PG*%
X36200000Y-90080000D03*
%TD*%
D25*
%TO.P,U8,1*%
%TO.N,N/C*%
X101850000Y-48437500D03*
%TO.P,U8,2*%
%TO.N,/SIL-Motherboard/nPWR_LED*%
X102800000Y-48437500D03*
%TO.P,U8,3,GND*%
%TO.N,GND*%
X103750000Y-48437500D03*
%TO.P,U8,4*%
%TO.N,Net-(R13-Pad2)*%
X103750000Y-46162500D03*
%TO.P,U8,5,VCC*%
%TO.N,5v*%
X101850000Y-46162500D03*
%TD*%
D14*
%TO.P,C10,1*%
%TO.N,Net-(C10-Pad1)*%
X92200000Y-31630000D03*
%TO.P,C10,2*%
%TO.N,GND*%
X92200000Y-32590000D03*
%TD*%
D23*
%TO.P,J11,1,Pin_1*%
%TO.N,GND*%
X36800000Y-50400000D03*
D24*
%TO.P,J11,2,Pin_2*%
%TO.N,/SIL-Motherboard/nRPiBOOT*%
X39340000Y-50400000D03*
%TO.P,J11,3,Pin_3*%
%TO.N,GND*%
X36800000Y-52940000D03*
%TO.P,J11,4,Pin_4*%
%TO.N,/SIL-Motherboard/EEPROM_nWP*%
X39340000Y-52940000D03*
%TO.P,J11,5,Pin_5*%
%TO.N,/SIL-Motherboard/AIN0*%
X36800000Y-55480000D03*
%TO.P,J11,6,Pin_6*%
%TO.N,/SIL-Motherboard/AIN1*%
X39340000Y-55480000D03*
%TO.P,J11,7,Pin_7*%
%TO.N,GND*%
X36800000Y-58020000D03*
%TO.P,J11,8,Pin_8*%
%TO.N,/SIL-Motherboard/SYNC_IN*%
X39340000Y-58020000D03*
%TO.P,J11,9,Pin_9*%
%TO.N,/SIL-Motherboard/SYNC_OUT*%
X36800000Y-60560000D03*
%TO.P,J11,10,Pin_10*%
%TO.N,GND*%
X39340000Y-60560000D03*
%TO.P,J11,11,Pin_11*%
%TO.N,/SIL-Motherboard/TV_OUT*%
X36800000Y-63100000D03*
%TO.P,J11,12,Pin_12*%
%TO.N,GND*%
X39340000Y-63100000D03*
%TO.P,J11,13,Pin_13*%
%TO.N,Net-(J11-Pad13)*%
X36800000Y-65640000D03*
%TO.P,J11,14,Pin_14*%
%TO.N,/SIL-Motherboard/GLOBAL_EN*%
X39340000Y-65640000D03*
%TD*%
D26*
%TO.P,R3,1*%
%TO.N,Net-(R3-Pad1)*%
X99410000Y-28810000D03*
%TO.P,R3,2*%
%TO.N,GND*%
X98390000Y-28810000D03*
%TD*%
D27*
%TO.P,R5,1*%
%TO.N,Net-(D3-Pad1)*%
X115090000Y-47600000D03*
%TO.P,R5,2*%
%TO.N,Net-(Module1-Pad21)*%
X116110000Y-47600000D03*
%TD*%
D28*
%TO.P,J14,1,DAT2*%
%TO.N,/SIL-Motherboard/SD_DAT2*%
X112250000Y-149017500D03*
%TO.P,J14,2,DAT3/CD*%
%TO.N,/SIL-Motherboard/SD_DAT3*%
X111150000Y-149017500D03*
%TO.P,J14,3,CMD*%
%TO.N,/SIL-Motherboard/SD_CMD*%
X110050000Y-149017500D03*
%TO.P,J14,4,VDD*%
%TO.N,/SIL-Motherboard/SD_PWR*%
X108950000Y-149017500D03*
%TO.P,J14,5,CLK*%
%TO.N,/SIL-Motherboard/SD_CLK*%
X107850000Y-149017500D03*
%TO.P,J14,6,VSS*%
%TO.N,GND*%
X106750000Y-149017500D03*
%TO.P,J14,7,DAT0*%
%TO.N,/SIL-Motherboard/SD_DAT0*%
X105650000Y-149017500D03*
%TO.P,J14,8,DAT1*%
%TO.N,/SIL-Motherboard/SD_DAT1*%
X104550000Y-149017500D03*
D29*
%TO.P,J14,9,SHIELD*%
%TO.N,GND*%
X102175000Y-143317500D03*
X115925000Y-151617500D03*
X102175000Y-151617500D03*
X115925000Y-143317500D03*
%TD*%
D30*
%TO.P,C3,1*%
%TO.N,/SIL-Motherboard/+12v*%
X110320000Y-30400000D03*
%TO.P,C3,2*%
%TO.N,GND*%
X111280000Y-30400000D03*
%TD*%
D31*
%TO.P,SW1,1,1*%
%TO.N,Net-(J11-Pad13)*%
X40075000Y-74025000D03*
X35925000Y-74025000D03*
%TO.P,SW1,2,2*%
%TO.N,/SIL-Motherboard/GLOBAL_EN*%
X40075000Y-71875000D03*
X35925000Y-71875000D03*
%TD*%
D32*
%TO.P,JP1,1,A*%
%TO.N,/SIL-Motherboard/+3v3_Reg*%
X105700000Y-19042500D03*
D33*
%TO.P,JP1,2,C*%
%TO.N,/SIL-Motherboard/+3V3*%
X107000000Y-19042500D03*
D34*
%TO.P,JP1,3,B*%
%TO.N,/SIL-Motherboard/+3v3_CM4*%
X108300000Y-19042500D03*
%TD*%
D35*
%TO.P,D1,*%
%TO.N,*%
X108150000Y-34800000D03*
%TO.P,D1,1,K*%
%TO.N,/SIL-Motherboard/+12v*%
X107200000Y-32800000D03*
%TO.P,D1,2,A*%
%TO.N,Net-(C2-Pad2)*%
X106250000Y-34800000D03*
%TD*%
D30*
%TO.P,C17,1*%
%TO.N,/SIL-Motherboard/1V8*%
X113465000Y-107800000D03*
%TO.P,C17,2*%
%TO.N,GND*%
X114425000Y-107800000D03*
%TD*%
D20*
%TO.P,TP3,1,1*%
%TO.N,5v*%
X118400000Y-23700000D03*
%TD*%
D36*
%TO.P,Y1,1,1*%
%TO.N,Net-(C12-Pad2)*%
X107575000Y-120000000D03*
%TO.P,Y1,2,2*%
%TO.N,Net-(C21-Pad2)*%
X111275000Y-120000000D03*
%TD*%
D26*
%TO.P,R13,1*%
%TO.N,Net-(D4-Pad1)*%
X103420000Y-44800000D03*
%TO.P,R13,2*%
%TO.N,Net-(R13-Pad2)*%
X102400000Y-44800000D03*
%TD*%
D13*
%TO.P,C13,1*%
%TO.N,/SIL-Motherboard/SD_PWR*%
X112050000Y-136280000D03*
%TO.P,C13,2*%
%TO.N,GND*%
X112050000Y-135320000D03*
%TD*%
D37*
%TO.P,J9,1,VBUS*%
%TO.N,5v*%
X30385000Y-96400000D03*
%TO.P,J9,2,D-*%
%TO.N,unconnected-(J9-Pad2)*%
X30385000Y-97050000D03*
%TO.P,J9,3,D+*%
%TO.N,unconnected-(J9-Pad3)*%
X30385000Y-97700000D03*
%TO.P,J9,4,ID*%
%TO.N,unconnected-(J9-Pad4)*%
X30385000Y-98350000D03*
%TO.P,J9,5,GND*%
%TO.N,GND*%
X30385000Y-99000000D03*
D38*
%TO.P,J9,6,Shield*%
X27685000Y-94200000D03*
D39*
X27685000Y-94800000D03*
D40*
X30385000Y-95200000D03*
D39*
X27685000Y-100600000D03*
D41*
X27685000Y-98700000D03*
X27685000Y-96700000D03*
D38*
X27685000Y-101200000D03*
D40*
X30385000Y-100200000D03*
%TD*%
D13*
%TO.P,C12,1*%
%TO.N,GND*%
X105600000Y-120480000D03*
%TO.P,C12,2*%
%TO.N,Net-(C12-Pad2)*%
X105600000Y-119520000D03*
%TD*%
D15*
%TO.P,J15,1,VBUS*%
%TO.N,5v*%
X125490000Y-117600000D03*
D16*
%TO.P,J15,2,D-*%
%TO.N,/SIL-Motherboard/USB2-*%
X125490000Y-115100000D03*
%TO.P,J15,3,D+*%
%TO.N,/SIL-Motherboard/USB2+*%
X125490000Y-113100000D03*
%TO.P,J15,4,GND*%
%TO.N,GND*%
X125490000Y-110600000D03*
D17*
%TO.P,J15,5,Shield*%
X128200000Y-120670000D03*
X128200000Y-107530000D03*
%TD*%
D15*
%TO.P,J17,1,VBUS*%
%TO.N,5v*%
X125490000Y-153200000D03*
D16*
%TO.P,J17,2,D-*%
%TO.N,/SIL-Motherboard/USB4-*%
X125490000Y-150700000D03*
%TO.P,J17,3,D+*%
%TO.N,/SIL-Motherboard/USB4+*%
X125490000Y-148700000D03*
%TO.P,J17,4,GND*%
%TO.N,GND*%
X125490000Y-146200000D03*
D17*
%TO.P,J17,5,Shield*%
X128200000Y-156270000D03*
X128200000Y-143130000D03*
%TD*%
D14*
%TO.P,C21,1*%
%TO.N,GND*%
X113250000Y-119520000D03*
%TO.P,C21,2*%
%TO.N,Net-(C21-Pad2)*%
X113250000Y-120480000D03*
%TD*%
D13*
%TO.P,C1,1*%
%TO.N,/SIL-Motherboard/VCC_IN*%
X113200000Y-30880000D03*
%TO.P,C1,2*%
%TO.N,GND*%
X113200000Y-29920000D03*
%TD*%
%TO.P,C14,1*%
%TO.N,GND*%
X104925000Y-112880000D03*
%TO.P,C14,2*%
%TO.N,/SIL-Motherboard/+3V3*%
X104925000Y-111920000D03*
%TD*%
D42*
%TO.P,D4,1,K*%
%TO.N,Net-(D4-Pad1)*%
X104825000Y-44800000D03*
%TO.P,D4,2,A*%
%TO.N,5v*%
X105795000Y-44800000D03*
%TD*%
D14*
%TO.P,C8,1*%
%TO.N,GND*%
X99100000Y-40530000D03*
%TO.P,C8,2*%
%TO.N,5v*%
X99100000Y-41490000D03*
%TD*%
D23*
%TO.P,J1,1,Pin_1*%
%TO.N,GND*%
X113300000Y-18900000D03*
D24*
%TO.P,J1,2,Pin_2*%
%TO.N,/SIL-Motherboard/+3V3*%
X115840000Y-18900000D03*
%TO.P,J1,3,Pin_3*%
%TO.N,5v*%
X118380000Y-18900000D03*
%TO.P,J1,4,Pin_4*%
%TO.N,/SIL-Motherboard/+12v*%
X120920000Y-18900000D03*
%TD*%
D43*
%TO.P,U2,1,PGND*%
%TO.N,Net-(C11-Pad1)*%
X99900000Y-34115000D03*
%TO.P,U2,2,VIN*%
%TO.N,/SIL-Motherboard/+12v*%
X99900000Y-32845000D03*
%TO.P,U2,3,EN*%
%TO.N,unconnected-(U2-Pad3)*%
X99900000Y-31575000D03*
%TO.P,U2,4,PG*%
%TO.N,Net-(R3-Pad1)*%
X99900000Y-30305000D03*
%TO.P,U2,5,FB*%
%TO.N,FB*%
X94500000Y-30305000D03*
%TO.P,U2,6,VCC*%
%TO.N,Net-(C10-Pad1)*%
X94500000Y-31575000D03*
%TO.P,U2,7,BOOT*%
%TO.N,GND*%
X94500000Y-32845000D03*
%TO.P,U2,8,SW*%
%TO.N,Net-(C11-Pad2)*%
X94500000Y-34115000D03*
D44*
%TO.P,U2,9,AGND*%
%TO.N,GND*%
X97850000Y-34160000D03*
X96550000Y-30260000D03*
X96550000Y-32860000D03*
X97850000Y-32860000D03*
X97850000Y-31560000D03*
D45*
X97200000Y-32210000D03*
D44*
X96550000Y-34160000D03*
X97850000Y-30260000D03*
X96550000Y-31560000D03*
%TD*%
D46*
%TO.P,R18,1*%
%TO.N,Net-(J5-Pad1)*%
X107075000Y-100500000D03*
%TO.P,R18,2*%
%TO.N,/SIL-Motherboard/USBOTG_ID*%
X107075000Y-101520000D03*
%TD*%
D14*
%TO.P,C18,1*%
%TO.N,/SIL-Motherboard/+3V3*%
X103825000Y-111920000D03*
%TO.P,C18,2*%
%TO.N,GND*%
X103825000Y-112880000D03*
%TD*%
%TO.P,C7,1*%
%TO.N,/SIL-Motherboard/+12v*%
X102400000Y-32850000D03*
%TO.P,C7,2*%
%TO.N,GND*%
X102400000Y-33810000D03*
%TD*%
D12*
%TO.P,R19,1*%
%TO.N,/SIL-Motherboard/USBOTG_ID*%
X105775000Y-101520000D03*
%TO.P,R19,2*%
%TO.N,GND*%
X105775000Y-100500000D03*
%TD*%
D20*
%TO.P,TP1,1,1*%
%TO.N,5v*%
X35700000Y-96400000D03*
%TD*%
%TO.P,TP2,1,1*%
%TO.N,/SIL-Motherboard/+12v*%
X124800000Y-18900000D03*
%TD*%
D47*
%TO.P,H4,1*%
%TO.N,N/C*%
X132300000Y-103200000D03*
D48*
X133890990Y-101609010D03*
X132300000Y-105450000D03*
X134550000Y-103200000D03*
X133890990Y-104790990D03*
X130050000Y-103200000D03*
X130709010Y-104790990D03*
X130709010Y-101609010D03*
X132300000Y-100950000D03*
%TD*%
D49*
%TO.P,Module1,1,GND*%
%TO.N,GND*%
X70600000Y-91650000D03*
%TO.P,Module1,2,GND*%
X70600000Y-88570000D03*
%TO.P,Module1,3,Ethernet_Pair3_P*%
%TO.N,/SIL-Motherboard/TRD3_P*%
X71000000Y-91650000D03*
%TO.P,Module1,4,Ethernet_Pair1_P*%
%TO.N,/SIL-Motherboard/TRD1_P*%
X71000000Y-88570000D03*
%TO.P,Module1,5,Ethernet_Pair3_N*%
%TO.N,/SIL-Motherboard/TRD3_N*%
X71400000Y-91650000D03*
%TO.P,Module1,6,Ethernet_Pair1_N*%
%TO.N,/SIL-Motherboard/TRD1_N*%
X71400000Y-88570000D03*
%TO.P,Module1,7,GND*%
%TO.N,GND*%
X71800000Y-91650000D03*
%TO.P,Module1,8,GND*%
X71800000Y-88570000D03*
%TO.P,Module1,9,Ethernet_Pair2_N*%
%TO.N,/SIL-Motherboard/TRD2_P*%
X72200000Y-91650000D03*
%TO.P,Module1,10,Ethernet_Pair0_N*%
%TO.N,/SIL-Motherboard/TRD0_P*%
X72200000Y-88570000D03*
%TO.P,Module1,11,Ethernet_Pair2_P*%
%TO.N,/SIL-Motherboard/TRD2_N*%
X72600000Y-91650000D03*
%TO.P,Module1,12,Ethernet_Pair0_P*%
%TO.N,/SIL-Motherboard/TRD0_N*%
X72600000Y-88570000D03*
%TO.P,Module1,13,GND*%
%TO.N,GND*%
X73000000Y-91650000D03*
%TO.P,Module1,14,GND*%
X73000000Y-88570000D03*
%TO.P,Module1,15,Ethernet_nLED3(3.3v)*%
%TO.N,/SIL-Motherboard/ETH_LEDY*%
X73400000Y-91650000D03*
%TO.P,Module1,16,Ethernet_SYNC_IN(1.8v)*%
%TO.N,/SIL-Motherboard/SYNC_IN*%
X73400000Y-88570000D03*
%TO.P,Module1,17,Ethernet_nLED2(3.3v)*%
%TO.N,/SIL-Motherboard/ETH_LEDG*%
X73800000Y-91650000D03*
%TO.P,Module1,18,Ethernet_SYNC_OUT(1.8v)*%
%TO.N,/SIL-Motherboard/SYNC_OUT*%
X73800000Y-88570000D03*
%TO.P,Module1,19,Ethernet_nLED1(3.3v)*%
%TO.N,unconnected-(Module1-Pad19)*%
X74200000Y-91650000D03*
%TO.P,Module1,20,EEPROM_nWP*%
%TO.N,/SIL-Motherboard/EEPROM_nWP*%
X74200000Y-88570000D03*
%TO.P,Module1,21,PI_nLED_Activity*%
%TO.N,Net-(Module1-Pad21)*%
X74600000Y-91650000D03*
%TO.P,Module1,22,GND*%
%TO.N,GND*%
X74600000Y-88570000D03*
%TO.P,Module1,23,GND*%
X75000000Y-91650000D03*
%TO.P,Module1,24,GPIO26*%
%TO.N,/SIL-Motherboard/GPIO26*%
X75000000Y-88570000D03*
%TO.P,Module1,25,GPIO21*%
%TO.N,/SIL-Motherboard/GPIO21*%
X75400000Y-91650000D03*
%TO.P,Module1,26,GPIO19*%
%TO.N,/SIL-Motherboard/GPIO19*%
X75400000Y-88570000D03*
%TO.P,Module1,27,GPIO20*%
%TO.N,/SIL-Motherboard/GPIO20*%
X75800000Y-91650000D03*
%TO.P,Module1,28,GPIO13*%
%TO.N,/SIL-Motherboard/GPIO13*%
X75800000Y-88570000D03*
%TO.P,Module1,29,GPIO16*%
%TO.N,/SIL-Motherboard/GPIO16*%
X76200000Y-91650000D03*
%TO.P,Module1,30,GPIO6*%
%TO.N,/SIL-Motherboard/GPIO6*%
X76200000Y-88570000D03*
%TO.P,Module1,31,GPIO12*%
%TO.N,/SIL-Motherboard/GPIO12*%
X76600000Y-91650000D03*
%TO.P,Module1,32,GND*%
%TO.N,GND*%
X76600000Y-88570000D03*
%TO.P,Module1,33,GND*%
X77000000Y-91650000D03*
%TO.P,Module1,34,GPIO5*%
%TO.N,/SIL-Motherboard/GPIO5*%
X77000000Y-88570000D03*
%TO.P,Module1,35,ID_SC*%
%TO.N,/SIL-Motherboard/ID_SC*%
X77400000Y-91650000D03*
%TO.P,Module1,36,ID_SD*%
%TO.N,/SIL-Motherboard/ID_SD*%
X77400000Y-88570000D03*
%TO.P,Module1,37,GPIO7*%
%TO.N,/SIL-Motherboard/GPIO7*%
X77800000Y-91650000D03*
%TO.P,Module1,38,GPIO11*%
%TO.N,/SIL-Motherboard/GPIO11*%
X77800000Y-88570000D03*
%TO.P,Module1,39,GPIO8*%
%TO.N,/SIL-Motherboard/GPIO8*%
X78200000Y-91650000D03*
%TO.P,Module1,40,GPIO9*%
%TO.N,/SIL-Motherboard/GPIO9*%
X78200000Y-88570000D03*
%TO.P,Module1,41,GPIO25*%
%TO.N,/SIL-Motherboard/GPIO25*%
X78600000Y-91650000D03*
%TO.P,Module1,42,GND*%
%TO.N,GND*%
X78600000Y-88570000D03*
%TO.P,Module1,43,GND*%
X79000000Y-91650000D03*
%TO.P,Module1,44,GPIO10*%
%TO.N,/SIL-Motherboard/GPIO10*%
X79000000Y-88570000D03*
%TO.P,Module1,45,GPIO24*%
%TO.N,/SIL-Motherboard/GPIO24*%
X79400000Y-91650000D03*
%TO.P,Module1,46,GPIO22*%
%TO.N,/SIL-Motherboard/GPIO22*%
X79400000Y-88570000D03*
%TO.P,Module1,47,GPIO23*%
%TO.N,/SIL-Motherboard/GPIO23*%
X79800000Y-91650000D03*
%TO.P,Module1,48,GPIO27*%
%TO.N,/SIL-Motherboard/GPIO27*%
X79800000Y-88570000D03*
%TO.P,Module1,49,GPIO18*%
%TO.N,/SIL-Motherboard/GPIO18*%
X80200000Y-91650000D03*
%TO.P,Module1,50,GPIO17*%
%TO.N,/SIL-Motherboard/GPIO17*%
X80200000Y-88570000D03*
%TO.P,Module1,51,GPIO15*%
%TO.N,/SIL-Motherboard/GPIO15*%
X80600000Y-91650000D03*
%TO.P,Module1,52,GND*%
%TO.N,GND*%
X80600000Y-88570000D03*
%TO.P,Module1,53,GND*%
X81000000Y-91650000D03*
%TO.P,Module1,54,GPIO4*%
%TO.N,/SIL-Motherboard/GPIO4*%
X81000000Y-88570000D03*
%TO.P,Module1,55,GPIO14*%
%TO.N,/SIL-Motherboard/GPIO14*%
X81400000Y-91650000D03*
%TO.P,Module1,56,GPIO3*%
%TO.N,/SIL-Motherboard/GPIO3*%
X81400000Y-88570000D03*
%TO.P,Module1,57,SD_CLK*%
%TO.N,/SIL-Motherboard/SD_CLK*%
X81800000Y-91650000D03*
%TO.P,Module1,58,GPIO2*%
%TO.N,/SIL-Motherboard/GPIO2*%
X81800000Y-88570000D03*
%TO.P,Module1,59,GND*%
%TO.N,GND*%
X82200000Y-91650000D03*
%TO.P,Module1,60,GND*%
X82200000Y-88570000D03*
%TO.P,Module1,61,SD_DAT3*%
%TO.N,/SIL-Motherboard/SD_DAT3*%
X82600000Y-91650000D03*
%TO.P,Module1,62,SD_CMD*%
%TO.N,/SIL-Motherboard/SD_CMD*%
X82600000Y-88570000D03*
%TO.P,Module1,63,SD_DAT0*%
%TO.N,/SIL-Motherboard/SD_DAT0*%
X83000000Y-91650000D03*
%TO.P,Module1,64,SD_DAT5*%
%TO.N,unconnected-(Module1-Pad64)*%
X83000000Y-88570000D03*
%TO.P,Module1,65,GND*%
%TO.N,GND*%
X83400000Y-91650000D03*
%TO.P,Module1,66,GND*%
X83400000Y-88570000D03*
%TO.P,Module1,67,SD_DAT1*%
%TO.N,/SIL-Motherboard/SD_DAT1*%
X83800000Y-91650000D03*
%TO.P,Module1,68,SD_DAT4*%
%TO.N,unconnected-(Module1-Pad68)*%
X83800000Y-88570000D03*
%TO.P,Module1,69,SD_DAT2*%
%TO.N,/SIL-Motherboard/SD_DAT2*%
X84200000Y-91650000D03*
%TO.P,Module1,70,SD_DAT7*%
%TO.N,unconnected-(Module1-Pad70)*%
X84200000Y-88570000D03*
%TO.P,Module1,71,GND*%
%TO.N,GND*%
X84600000Y-91650000D03*
%TO.P,Module1,72,SD_DAT6*%
%TO.N,unconnected-(Module1-Pad72)*%
X84600000Y-88570000D03*
%TO.P,Module1,73,SD_VDD_Override*%
%TO.N,unconnected-(Module1-Pad73)*%
X85000000Y-91650000D03*
%TO.P,Module1,74,GND*%
%TO.N,GND*%
X85000000Y-88570000D03*
%TO.P,Module1,75,SD_PWR_ON*%
%TO.N,/SIL-Motherboard/SD_PWR_ON*%
X85400000Y-91650000D03*
%TO.P,Module1,76,Reserved*%
%TO.N,/SIL-Motherboard/Reserved*%
X85400000Y-88570000D03*
%TO.P,Module1,77,+5v_(Input)*%
%TO.N,/SIL-Motherboard/5V*%
X85800000Y-91650000D03*
%TO.P,Module1,78,GPIO_VREF(1.8v/3.3v_Input)*%
%TO.N,/SIL-Motherboard/+3v3_CM4*%
X85800000Y-88570000D03*
%TO.P,Module1,79,+5v_(Input)*%
%TO.N,/SIL-Motherboard/5V*%
X86200000Y-91650000D03*
%TO.P,Module1,80,SCL0*%
%TO.N,/SIL-Motherboard/SCL0*%
X86200000Y-88570000D03*
%TO.P,Module1,81,+5v_(Input)*%
%TO.N,/SIL-Motherboard/5V*%
X86600000Y-91650000D03*
%TO.P,Module1,82,SDA0*%
%TO.N,/SIL-Motherboard/SDA0*%
X86600000Y-88570000D03*
%TO.P,Module1,83,+5v_(Input)*%
%TO.N,/SIL-Motherboard/5V*%
X87000000Y-91650000D03*
%TO.P,Module1,84,+3.3v_(Output)*%
%TO.N,/SIL-Motherboard/+3v3_CM4*%
X87000000Y-88570000D03*
%TO.P,Module1,85,+5v_(Input)*%
%TO.N,/SIL-Motherboard/5V*%
X87400000Y-91650000D03*
%TO.P,Module1,86,+3.3v_(Output)*%
%TO.N,/SIL-Motherboard/+3v3_CM4*%
X87400000Y-88570000D03*
%TO.P,Module1,87,+5v_(Input)*%
%TO.N,/SIL-Motherboard/5V*%
X87800000Y-91650000D03*
%TO.P,Module1,88,+1.8v_(Output)*%
%TO.N,/SIL-Motherboard/+1v8*%
X87800000Y-88570000D03*
%TO.P,Module1,89,WiFi_nDisable*%
%TO.N,/SIL-Motherboard/WiFi_Disable*%
X88200000Y-91650000D03*
%TO.P,Module1,90,+1.8v_(Output)*%
%TO.N,/SIL-Motherboard/+1v8*%
X88200000Y-88570000D03*
%TO.P,Module1,91,BT_nDisable*%
%TO.N,/SIL-Motherboard/BT_Disable*%
X88600000Y-91650000D03*
%TO.P,Module1,92,RUN_PG*%
%TO.N,/SIL-Motherboard/RUN_PG*%
X88600000Y-88570000D03*
%TO.P,Module1,93,nRPIBOOT*%
%TO.N,/SIL-Motherboard/nRPiBOOT*%
X89000000Y-91650000D03*
%TO.P,Module1,94,AnalogIP1*%
%TO.N,/SIL-Motherboard/AIN1*%
X89000000Y-88570000D03*
%TO.P,Module1,95,nPI_LED_PWR*%
%TO.N,/SIL-Motherboard/nPWR_LED*%
X89400000Y-91650000D03*
%TO.P,Module1,96,AnalogIP0*%
%TO.N,/SIL-Motherboard/AIN0*%
X89400000Y-88570000D03*
%TO.P,Module1,97,Camera_GPIO*%
%TO.N,/SIL-Motherboard/CAM_GPIO*%
X89800000Y-91650000D03*
%TO.P,Module1,98,GND*%
%TO.N,GND*%
X89800000Y-88570000D03*
%TO.P,Module1,99,Global_EN*%
%TO.N,/SIL-Motherboard/GLOBAL_EN*%
X90200000Y-91650000D03*
%TO.P,Module1,100,nEXTRST*%
%TO.N,/SIL-Motherboard/nEXTRST*%
X90200000Y-88570000D03*
%TO.P,Module1,101,USB_OTG_ID*%
%TO.N,/SIL-Motherboard/USBOTG_ID*%
X70600000Y-57730000D03*
%TO.P,Module1,102,PCIe_CLK_nREQ*%
%TO.N,/SIL-Motherboard/PCI_CLK_nREQ*%
X70600000Y-54650000D03*
%TO.P,Module1,103,USB2_N*%
%TO.N,/SIL-Motherboard/USB2_N*%
X71000000Y-57730000D03*
%TO.P,Module1,104,Reserved*%
%TO.N,unconnected-(Module1-Pad104)*%
X71000000Y-54650000D03*
%TO.P,Module1,105,USB2_P*%
%TO.N,/SIL-Motherboard/USB2_P*%
X71400000Y-57730000D03*
%TO.P,Module1,106,Reserved*%
%TO.N,unconnected-(Module1-Pad106)*%
X71400000Y-54650000D03*
%TO.P,Module1,107,GND*%
%TO.N,GND*%
X71800000Y-57730000D03*
%TO.P,Module1,108,GND*%
X71800000Y-54650000D03*
%TO.P,Module1,109,PCIe_nRST*%
%TO.N,/SIL-Motherboard/PCIE_nRST*%
X72200000Y-57730000D03*
%TO.P,Module1,110,PCIe_CLK_P*%
%TO.N,/SIL-Motherboard/PCIE_CLK_P*%
X72200000Y-54650000D03*
%TO.P,Module1,111,VDAC_COMP*%
%TO.N,/SIL-Motherboard/TV_OUT*%
X72600000Y-57730000D03*
%TO.P,Module1,112,PCIe_CLK_N*%
%TO.N,/SIL-Motherboard/PCIE_CLK_N*%
X72600000Y-54650000D03*
%TO.P,Module1,113,GND*%
%TO.N,GND*%
X73000000Y-57730000D03*
%TO.P,Module1,114,GND*%
X73000000Y-54650000D03*
%TO.P,Module1,115,CAM1_D0_N*%
%TO.N,/SIL-Motherboard/CAM1_D0_N*%
X73400000Y-57730000D03*
%TO.P,Module1,116,PCIe_RX_P*%
%TO.N,/SIL-Motherboard/PCIE_RX_P*%
X73400000Y-54650000D03*
%TO.P,Module1,117,CAM1_D0_P*%
%TO.N,/SIL-Motherboard/CAM1_D0_P*%
X73800000Y-57730000D03*
%TO.P,Module1,118,PCIe_RX_N*%
%TO.N,/SIL-Motherboard/PCIE_RX_N*%
X73800000Y-54650000D03*
%TO.P,Module1,119,GND*%
%TO.N,GND*%
X74200000Y-57730000D03*
%TO.P,Module1,120,GND*%
X74200000Y-54650000D03*
%TO.P,Module1,121,CAM1_D1_N*%
%TO.N,/SIL-Motherboard/CAM1_D1_N*%
X74600000Y-57730000D03*
%TO.P,Module1,122,PCIe_TX_P*%
%TO.N,/SIL-Motherboard/PCIE_TX_P*%
X74600000Y-54650000D03*
%TO.P,Module1,123,CAM1_D1_P*%
%TO.N,/SIL-Motherboard/CAM1_D1_P*%
X75000000Y-57730000D03*
%TO.P,Module1,124,PCIe_TX_N*%
%TO.N,/SIL-Motherboard/PCIE_TX_N*%
X75000000Y-54650000D03*
%TO.P,Module1,125,GND*%
%TO.N,GND*%
X75400000Y-57730000D03*
%TO.P,Module1,126,GND*%
X75400000Y-54650000D03*
%TO.P,Module1,127,CAM1_C_N*%
%TO.N,/SIL-Motherboard/CAM1_C_N*%
X75800000Y-57730000D03*
%TO.P,Module1,128,CAM0_D0_N*%
%TO.N,/SIL-Motherboard/CAM0_D0_N*%
X75800000Y-54650000D03*
%TO.P,Module1,129,CAM1_C_P*%
%TO.N,/SIL-Motherboard/CAM1_C_P*%
X76200000Y-57730000D03*
%TO.P,Module1,130,CAM0_D0_P*%
%TO.N,/SIL-Motherboard/CAM0_D0_P*%
X76200000Y-54650000D03*
%TO.P,Module1,131,GND*%
%TO.N,GND*%
X76600000Y-57730000D03*
%TO.P,Module1,132,GND*%
X76600000Y-54650000D03*
%TO.P,Module1,133,CAM1_D2_N*%
%TO.N,/SIL-Motherboard/CAM1_D2_N*%
X77000000Y-57730000D03*
%TO.P,Module1,134,CAM0_D1_N*%
%TO.N,/SIL-Motherboard/CAM0_D1_N*%
X77000000Y-54650000D03*
%TO.P,Module1,135,CAM1_D2_P*%
%TO.N,/SIL-Motherboard/CAM1_D2_P*%
X77400000Y-57730000D03*
%TO.P,Module1,136,CAM0_D1_P*%
%TO.N,/SIL-Motherboard/CAM0_D1_P*%
X77400000Y-54650000D03*
%TO.P,Module1,137,GND*%
%TO.N,GND*%
X77800000Y-57730000D03*
%TO.P,Module1,138,GND*%
X77800000Y-54650000D03*
%TO.P,Module1,139,CAM1_D3_N*%
%TO.N,/SIL-Motherboard/CAM1_D3_N*%
X78200000Y-57730000D03*
%TO.P,Module1,140,CAM0_C_N*%
%TO.N,/SIL-Motherboard/CAM0_C_N*%
X78200000Y-54650000D03*
%TO.P,Module1,141,CAM1_D3_P*%
%TO.N,/SIL-Motherboard/CAM1_D3_P*%
X78600000Y-57730000D03*
%TO.P,Module1,142,CAM0_C_P*%
%TO.N,/SIL-Motherboard/CAM0_C_P*%
X78600000Y-54650000D03*
%TO.P,Module1,143,HDMI1_HOTPLUG*%
%TO.N,/SIL-Motherboard/HDMI1_HOTPLUG*%
X79000000Y-57730000D03*
%TO.P,Module1,144,GND*%
%TO.N,GND*%
X79000000Y-54650000D03*
%TO.P,Module1,145,HDMI1_SDA*%
%TO.N,/SIL-Motherboard/HDMI1_SDA*%
X79400000Y-57730000D03*
%TO.P,Module1,146,HDMI1_TX2_P*%
%TO.N,/SIL-Motherboard/HDMI1_D2_P*%
X79400000Y-54650000D03*
%TO.P,Module1,147,HDMI1_SCL*%
%TO.N,/SIL-Motherboard/HDMI1_SCL*%
X79800000Y-57730000D03*
%TO.P,Module1,148,HDMI1_TX2_N*%
%TO.N,/SIL-Motherboard/HDMI1_D2_N*%
X79800000Y-54650000D03*
%TO.P,Module1,149,HDMI1_CEC*%
%TO.N,/SIL-Motherboard/HDMI1_CEC*%
X80200000Y-57730000D03*
%TO.P,Module1,150,GND*%
%TO.N,GND*%
X80200000Y-54650000D03*
%TO.P,Module1,151,HDMI0_CEC*%
%TO.N,/SIL-Motherboard/HDMI0_CEC*%
X80600000Y-57730000D03*
%TO.P,Module1,152,HDMI1_TX1_P*%
%TO.N,/SIL-Motherboard/HDMI1_D1_P*%
X80600000Y-54650000D03*
%TO.P,Module1,153,HDMI0_HOTPLUG*%
%TO.N,/SIL-Motherboard/HDMI0_HOTPLUG*%
X81000000Y-57730000D03*
%TO.P,Module1,154,HDMI1_TX1_N*%
%TO.N,/SIL-Motherboard/HDMI1_D1_N*%
X81000000Y-54650000D03*
%TO.P,Module1,155,GND*%
%TO.N,GND*%
X81400000Y-57730000D03*
%TO.P,Module1,156,GND*%
X81400000Y-54650000D03*
%TO.P,Module1,157,DSI0_D0_N*%
%TO.N,/SIL-Motherboard/DSI0_D0_N*%
X81800000Y-57730000D03*
%TO.P,Module1,158,HDMI1_TX0_P*%
%TO.N,/SIL-Motherboard/HDMI1_D0_P*%
X81800000Y-54650000D03*
%TO.P,Module1,159,DSI0_D0_P*%
%TO.N,/SIL-Motherboard/DSI0_D0_P*%
X82200000Y-57730000D03*
%TO.P,Module1,160,HDMI1_TX0_N*%
%TO.N,/SIL-Motherboard/HDMI1_D0_N*%
X82200000Y-54650000D03*
%TO.P,Module1,161,GND*%
%TO.N,GND*%
X82600000Y-57730000D03*
%TO.P,Module1,162,GND*%
X82600000Y-54650000D03*
%TO.P,Module1,163,DSI0_D1_N*%
%TO.N,/SIL-Motherboard/DSI0_D1_N*%
X83000000Y-57730000D03*
%TO.P,Module1,164,HDMI1_CLK_P*%
%TO.N,/SIL-Motherboard/HDMI1_CK_P*%
X83000000Y-54650000D03*
%TO.P,Module1,165,DSI0_D1_P*%
%TO.N,/SIL-Motherboard/DSI0_D1_P*%
X83400000Y-57730000D03*
%TO.P,Module1,166,HDMI1_CLK_N*%
%TO.N,/SIL-Motherboard/HDMI1_CK_N*%
X83400000Y-54650000D03*
%TO.P,Module1,167,GND*%
%TO.N,GND*%
X83800000Y-57730000D03*
%TO.P,Module1,168,GND*%
X83800000Y-54650000D03*
%TO.P,Module1,169,DSI0_C_N*%
%TO.N,/SIL-Motherboard/DSI0_C_N*%
X84200000Y-57730000D03*
%TO.P,Module1,170,HDMI0_TX2_P*%
%TO.N,/SIL-Motherboard/HDMI0_D2_P*%
X84200000Y-54650000D03*
%TO.P,Module1,171,DSI0_C_P*%
%TO.N,/SIL-Motherboard/DSI0_C_P*%
X84600000Y-57730000D03*
%TO.P,Module1,172,HDMI0_TX2_N*%
%TO.N,/SIL-Motherboard/HDMI0_D2_N*%
X84600000Y-54650000D03*
%TO.P,Module1,173,GND*%
%TO.N,GND*%
X85000000Y-57730000D03*
%TO.P,Module1,174,GND*%
X85000000Y-54650000D03*
%TO.P,Module1,175,DSI1_D0_N*%
%TO.N,/SIL-Motherboard/DSI1_D0_N*%
X85400000Y-57730000D03*
%TO.P,Module1,176,HDMI0_TX1_P*%
%TO.N,/SIL-Motherboard/HDMI0_D1_P*%
X85400000Y-54650000D03*
%TO.P,Module1,177,DSI1_D0_P*%
%TO.N,/SIL-Motherboard/DSI1_D0_P*%
X85800000Y-57730000D03*
%TO.P,Module1,178,HDMI0_TX1_N*%
%TO.N,/SIL-Motherboard/HDMI0_D1_N*%
X85800000Y-54650000D03*
%TO.P,Module1,179,GND*%
%TO.N,GND*%
X86200000Y-57730000D03*
%TO.P,Module1,180,GND*%
X86200000Y-54650000D03*
%TO.P,Module1,181,DSI1_D1_N*%
%TO.N,/SIL-Motherboard/DSI1_D1_N*%
X86600000Y-57730000D03*
%TO.P,Module1,182,HDMI0_TX0_P*%
%TO.N,/SIL-Motherboard/HDMI0_D0_P*%
X86600000Y-54650000D03*
%TO.P,Module1,183,DSI1_D1_P*%
%TO.N,/SIL-Motherboard/DSI1_D1_P*%
X87000000Y-57730000D03*
%TO.P,Module1,184,HDMI0_TX0_N*%
%TO.N,/SIL-Motherboard/HDMI0_D0_N*%
X87000000Y-54650000D03*
%TO.P,Module1,185,GND*%
%TO.N,GND*%
X87400000Y-57730000D03*
%TO.P,Module1,186,GND*%
X87400000Y-54650000D03*
%TO.P,Module1,187,DSI1_C_N*%
%TO.N,/SIL-Motherboard/DSI1_C_N*%
X87800000Y-57730000D03*
%TO.P,Module1,188,HDMI0_CLK_P*%
%TO.N,/SIL-Motherboard/HDMI0_CK_P*%
X87800000Y-54650000D03*
%TO.P,Module1,189,DSI1_C_P*%
%TO.N,/SIL-Motherboard/DSI1_C_P*%
X88200000Y-57730000D03*
%TO.P,Module1,190,HDMI0_CLK_N*%
%TO.N,/SIL-Motherboard/HDMI0_CK_N*%
X88200000Y-54650000D03*
%TO.P,Module1,191,GND*%
%TO.N,GND*%
X88600000Y-57730000D03*
%TO.P,Module1,192,GND*%
X88600000Y-54650000D03*
%TO.P,Module1,193,DSI1_D2_N*%
%TO.N,/SIL-Motherboard/DSI1_D2_N*%
X89000000Y-57730000D03*
%TO.P,Module1,194,DSI1_D3_N*%
%TO.N,/SIL-Motherboard/DSI1_D3_N*%
X89000000Y-54650000D03*
%TO.P,Module1,195,DSI1_D2_P*%
%TO.N,/SIL-Motherboard/DSI1_D2_P*%
X89400000Y-57730000D03*
%TO.P,Module1,196,DSI1_D3_P*%
%TO.N,/SIL-Motherboard/DSI1_D3_P*%
X89400000Y-54650000D03*
%TO.P,Module1,197,GND*%
%TO.N,GND*%
X89800000Y-57730000D03*
%TO.P,Module1,198,GND*%
X89800000Y-54650000D03*
%TO.P,Module1,199,HDMI0_SDA*%
%TO.N,/SIL-Motherboard/HDMI0_SDA*%
X90200000Y-57730000D03*
%TO.P,Module1,200,HDMI0_SCL*%
%TO.N,/SIL-Motherboard/HDMI0_SCL*%
X90200000Y-54650000D03*
%TD*%
D50*
%TO.P,C22,1*%
%TO.N,GND*%
X116550000Y-79135000D03*
%TO.P,C22,2*%
%TO.N,/SIL-Motherboard/+3V3*%
X116550000Y-78000000D03*
%TD*%
D12*
%TO.P,R8,1*%
%TO.N,/SIL-Motherboard/+3V3*%
X106150000Y-136910000D03*
%TO.P,R8,2*%
%TO.N,/SIL-Motherboard/SD_PWR_ON*%
X106150000Y-135890000D03*
%TD*%
%TO.P,R2,1*%
%TO.N,5v*%
X89600000Y-31320000D03*
%TO.P,R2,2*%
%TO.N,FB*%
X89600000Y-30300000D03*
%TD*%
D51*
%TO.P,J7,1,D2+*%
%TO.N,/SIL-Motherboard/HDMI0_D2_P*%
X36686750Y-41275000D03*
%TO.P,J7,2,D2S*%
%TO.N,GND*%
X36686750Y-40775000D03*
%TO.P,J7,3,D2-*%
%TO.N,/SIL-Motherboard/HDMI0_D2_N*%
X36686750Y-40275000D03*
%TO.P,J7,4,D1+*%
%TO.N,/SIL-Motherboard/HDMI0_D1_P*%
X36686750Y-39775000D03*
%TO.P,J7,5,D1S*%
%TO.N,GND*%
X36686750Y-39275000D03*
%TO.P,J7,6,D1-*%
%TO.N,/SIL-Motherboard/HDMI0_D1_N*%
X36686750Y-38775000D03*
%TO.P,J7,7,D0+*%
%TO.N,/SIL-Motherboard/HDMI0_D0_P*%
X36686750Y-38275000D03*
%TO.P,J7,8,D0S*%
%TO.N,GND*%
X36686750Y-37775000D03*
%TO.P,J7,9,D0-*%
%TO.N,/SIL-Motherboard/HDMI0_D0_N*%
X36686750Y-37275000D03*
%TO.P,J7,10,CK+*%
%TO.N,/SIL-Motherboard/HDMI0_CK_P*%
X36686750Y-36775000D03*
%TO.P,J7,11,CKS*%
%TO.N,GND*%
X36686750Y-36275000D03*
%TO.P,J7,12,CK-*%
%TO.N,/SIL-Motherboard/HDMI0_CK_N*%
X36686750Y-35775000D03*
%TO.P,J7,13,CEC*%
%TO.N,/SIL-Motherboard/HDMI0_CEC*%
X36686750Y-35275000D03*
%TO.P,J7,14,UTILITY/HEAC+*%
%TO.N,unconnected-(J7-Pad14)*%
X36686750Y-34775000D03*
%TO.P,J7,15,SCL*%
%TO.N,/SIL-Motherboard/HDMI0_SCL*%
X36686750Y-34275000D03*
%TO.P,J7,16,SDA*%
%TO.N,/SIL-Motherboard/HDMI0_SDA*%
X36686750Y-33775000D03*
%TO.P,J7,17,GND*%
%TO.N,GND*%
X36686750Y-33275000D03*
%TO.P,J7,18,+5V*%
%TO.N,/SIL-Motherboard/HDMI_5v*%
X36686750Y-32775000D03*
%TO.P,J7,19,HPD/HEAC-*%
%TO.N,/SIL-Motherboard/HDMI0_HOTPLUG*%
X36686750Y-32275000D03*
D52*
%TO.P,J7,SH1,SH*%
%TO.N,GND*%
X35956750Y-44025000D03*
%TO.P,J7,SH2,SH*%
X35956750Y-29525000D03*
D53*
%TO.P,J7,SH3,SH*%
X29996750Y-29525000D03*
%TO.P,J7,SH4,SH*%
X29996750Y-44025000D03*
%TD*%
D54*
%TO.P,U14,1,CLKIN*%
%TO.N,GND*%
X111250000Y-75767500D03*
%TO.P,U14,2*%
%TO.N,N/C*%
X111250000Y-76267500D03*
%TO.P,U14,3*%
X111250000Y-76767500D03*
%TO.P,U14,4*%
X111250000Y-77267500D03*
%TO.P,U14,5*%
X111250000Y-77767500D03*
%TO.P,U14,6,AUX_SDA*%
%TO.N,unconnected-(U14-Pad6)*%
X111250000Y-78267500D03*
D55*
%TO.P,U14,7,AUX_SCL*%
%TO.N,unconnected-(U14-Pad7)*%
X111950000Y-78967500D03*
%TO.P,U14,8,VDDIO*%
%TO.N,/SIL-Motherboard/+3V3*%
X112450000Y-78967500D03*
%TO.P,U14,9,AD0*%
%TO.N,unconnected-(U14-Pad9)*%
X112950000Y-78967500D03*
%TO.P,U14,10,REGOUT*%
%TO.N,Net-(C27-Pad1)*%
X113450000Y-78967500D03*
%TO.P,U14,11,FSYNC*%
%TO.N,GND*%
X113950000Y-78967500D03*
%TO.P,U14,12,INT*%
%TO.N,unconnected-(U14-Pad12)*%
X114450000Y-78967500D03*
D54*
%TO.P,U14,13,VDD*%
%TO.N,/SIL-Motherboard/+3V3*%
X115150000Y-78267500D03*
%TO.P,U14,14*%
%TO.N,N/C*%
X115150000Y-77767500D03*
%TO.P,U14,15*%
X115150000Y-77267500D03*
%TO.P,U14,16*%
X115150000Y-76767500D03*
%TO.P,U14,17*%
X115150000Y-76267500D03*
%TO.P,U14,18,GND*%
%TO.N,GND*%
X115150000Y-75767500D03*
D55*
%TO.P,U14,19*%
%TO.N,N/C*%
X114450000Y-75067500D03*
%TO.P,U14,20,CPOUT*%
%TO.N,Net-(C26-Pad1)*%
X113950000Y-75067500D03*
%TO.P,U14,21*%
%TO.N,N/C*%
X113450000Y-75067500D03*
%TO.P,U14,22*%
X112950000Y-75067500D03*
%TO.P,U14,23,SCL*%
%TO.N,/SIL-Motherboard/SCL0*%
X112450000Y-75067500D03*
%TO.P,U14,24,SDA*%
%TO.N,/SIL-Motherboard/SDA0*%
X111950000Y-75067500D03*
%TD*%
D56*
%TO.P,H3,1*%
%TO.N,N/C*%
X64800000Y-30200000D03*
%TD*%
D57*
%TO.P,C23,1*%
%TO.N,/SIL-Motherboard/+3V3*%
X112150000Y-80367500D03*
%TO.P,C23,2*%
%TO.N,GND*%
X111015000Y-80367500D03*
%TD*%
D58*
%TO.P,C27,1*%
%TO.N,Net-(C27-Pad1)*%
X113415000Y-80367500D03*
%TO.P,C27,2*%
%TO.N,GND*%
X114550000Y-80367500D03*
%TD*%
D23*
%TO.P,J6,1,Pin_1*%
%TO.N,/SIL-Motherboard/ID_SC*%
X36825000Y-77050000D03*
D24*
%TO.P,J6,2,Pin_2*%
%TO.N,unconnected-(J6-Pad2)*%
X39365000Y-77050000D03*
%TO.P,J6,3,Pin_3*%
%TO.N,/SIL-Motherboard/ID_SD*%
X36825000Y-79590000D03*
%TO.P,J6,4,Pin_4*%
%TO.N,unconnected-(J6-Pad4)*%
X39365000Y-79590000D03*
%TD*%
D59*
%TO.P,L1,1*%
%TO.N,Net-(C11-Pad2)*%
X81500000Y-37925000D03*
%TO.P,L1,2*%
%TO.N,5v*%
X81500000Y-32475000D03*
%TD*%
D14*
%TO.P,C19,1*%
%TO.N,GND*%
X103825000Y-109720000D03*
%TO.P,C19,2*%
%TO.N,5v*%
X103825000Y-110680000D03*
%TD*%
D23*
%TO.P,J3,1,Pin_1*%
%TO.N,/SIL-Motherboard/WiFi_Disable*%
X39900000Y-85000000D03*
D24*
%TO.P,J3,2,Pin_2*%
%TO.N,GND*%
X39900000Y-87540000D03*
%TO.P,J3,3,Pin_3*%
%TO.N,/SIL-Motherboard/BT_Disable*%
X39900000Y-90080000D03*
%TD*%
D60*
%TO.P,U3,1,VSS*%
%TO.N,GND*%
X112025000Y-116327500D03*
%TO.P,U3,2,XOUT*%
%TO.N,Net-(C12-Pad2)*%
X112025000Y-115692500D03*
%TO.P,U3,3,XIN*%
%TO.N,Net-(C21-Pad2)*%
X112025000Y-115057500D03*
%TO.P,U3,4,DM4*%
%TO.N,/SIL-Motherboard/USB4-*%
X112025000Y-114422500D03*
%TO.P,U3,5,DP4*%
%TO.N,/SIL-Motherboard/USB4+*%
X112025000Y-113787500D03*
%TO.P,U3,6,DM3*%
%TO.N,/SIL-Motherboard/USB3-*%
X112025000Y-113152500D03*
%TO.P,U3,7,DP3*%
%TO.N,/SIL-Motherboard/USB3+*%
X112025000Y-112517500D03*
%TO.P,U3,8,DM2*%
%TO.N,/SIL-Motherboard/USB2-*%
X112025000Y-111882500D03*
%TO.P,U3,9,DP2*%
%TO.N,/SIL-Motherboard/USB2+*%
X112025000Y-111247500D03*
%TO.P,U3,10,DM1*%
%TO.N,/SIL-Motherboard/USB1-*%
X112025000Y-110612500D03*
%TO.P,U3,11,DP1*%
%TO.N,/SIL-Motherboard/USB1+*%
X112025000Y-109977500D03*
%TO.P,U3,12,VD18_O*%
%TO.N,/SIL-Motherboard/1V8*%
X112025000Y-109342500D03*
%TO.P,U3,13,VD33*%
%TO.N,/SIL-Motherboard/+3V3*%
X112025000Y-108707500D03*
%TO.P,U3,14,REXT*%
%TO.N,Net-(R15-Pad1)*%
X112025000Y-108072500D03*
%TO.P,U3,15,DMU*%
%TO.N,/SIL-Motherboard/HSD1-*%
X106825000Y-108072500D03*
%TO.P,U3,16,DPU*%
%TO.N,/SIL-Motherboard/HSD1+*%
X106825000Y-108707500D03*
%TO.P,U3,17,~{XRSTJ}*%
%TO.N,/SIL-Motherboard/+3V3*%
X106825000Y-109342500D03*
%TO.P,U3,18,VBUSM*%
X106825000Y-109977500D03*
%TO.P,U3,19,BUSJ*%
X106825000Y-110612500D03*
%TO.P,U3,20,VDD5*%
%TO.N,5v*%
X106825000Y-111247500D03*
%TO.P,U3,21,VD33_O*%
%TO.N,/SIL-Motherboard/+3V3*%
X106825000Y-111882500D03*
%TO.P,U3,22,DRV*%
%TO.N,unconnected-(U3-Pad22)*%
X106825000Y-112517500D03*
%TO.P,U3,23,LED1/EESCL*%
%TO.N,unconnected-(U3-Pad23)*%
X106825000Y-113152500D03*
%TO.P,U3,24,LED2*%
%TO.N,unconnected-(U3-Pad24)*%
X106825000Y-113787500D03*
%TO.P,U3,25,PWRJ*%
%TO.N,unconnected-(U3-Pad25)*%
X106825000Y-114422500D03*
%TO.P,U3,26,OVCJ*%
%TO.N,/SIL-Motherboard/+3V3*%
X106825000Y-115057500D03*
%TO.P,U3,27,TESTJ/EESDA*%
%TO.N,unconnected-(U3-Pad27)*%
X106825000Y-115692500D03*
%TO.P,U3,28,VD18*%
%TO.N,/SIL-Motherboard/1V8*%
X106825000Y-116327500D03*
%TD*%
D61*
%TO.P,U6,1,SEL*%
%TO.N,/SIL-Motherboard/USBOTG_ID*%
X107417600Y-102609400D03*
%TO.P,U6,2,HSD1+*%
%TO.N,/SIL-Motherboard/HSD1+*%
X107417600Y-103092000D03*
%TO.P,U6,3,HSD2+*%
%TO.N,/SIL-Motherboard/HSD2+*%
X107417600Y-103600000D03*
%TO.P,U6,4,D+*%
%TO.N,/SIL-Motherboard/USB2_P*%
X107417600Y-104108000D03*
%TO.P,U6,5,GND*%
%TO.N,GND*%
X107417600Y-104590600D03*
%TO.P,U6,6,D-*%
%TO.N,/SIL-Motherboard/USB2_N*%
X111532400Y-104590600D03*
%TO.P,U6,7,HSD2-*%
%TO.N,/SIL-Motherboard/HSD2-*%
X111532400Y-104108000D03*
%TO.P,U6,8,HSD1-*%
%TO.N,/SIL-Motherboard/HSD1-*%
X111532400Y-103600000D03*
%TO.P,U6,9,OE*%
%TO.N,GND*%
X111532400Y-103092000D03*
%TO.P,U6,10,VCC*%
%TO.N,5v*%
X111532400Y-102609400D03*
%TD*%
D48*
%TO.P,H2,1*%
%TO.N,N/C*%
X132300000Y-25450000D03*
X130709010Y-24790990D03*
X133890990Y-21609010D03*
X130050000Y-23200000D03*
D47*
X132300000Y-23200000D03*
D48*
X132300000Y-20950000D03*
X133890990Y-24790990D03*
X130709010Y-21609010D03*
X134550000Y-23200000D03*
%TD*%
D51*
%TO.P,J8,1,D2+*%
%TO.N,/SIL-Motherboard/HDMI1_D2_P*%
X126413250Y-57025000D03*
%TO.P,J8,2,D2S*%
%TO.N,GND*%
X126413250Y-57525000D03*
%TO.P,J8,3,D2-*%
%TO.N,/SIL-Motherboard/HDMI1_D2_N*%
X126413250Y-58025000D03*
%TO.P,J8,4,D1+*%
%TO.N,/SIL-Motherboard/HDMI1_D1_P*%
X126413250Y-58525000D03*
%TO.P,J8,5,D1S*%
%TO.N,GND*%
X126413250Y-59025000D03*
%TO.P,J8,6,D1-*%
%TO.N,/SIL-Motherboard/HDMI1_D1_N*%
X126413250Y-59525000D03*
%TO.P,J8,7,D0+*%
%TO.N,/SIL-Motherboard/HDMI1_D0_P*%
X126413250Y-60025000D03*
%TO.P,J8,8,D0S*%
%TO.N,GND*%
X126413250Y-60525000D03*
%TO.P,J8,9,D0-*%
%TO.N,/SIL-Motherboard/HDMI1_D0_N*%
X126413250Y-61025000D03*
%TO.P,J8,10,CK+*%
%TO.N,/SIL-Motherboard/HDMI1_CK_P*%
X126413250Y-61525000D03*
%TO.P,J8,11,CKS*%
%TO.N,GND*%
X126413250Y-62025000D03*
%TO.P,J8,12,CK-*%
%TO.N,/SIL-Motherboard/HDMI1_CK_N*%
X126413250Y-62525000D03*
%TO.P,J8,13,CEC*%
%TO.N,/SIL-Motherboard/HDMI1_CEC*%
X126413250Y-63025000D03*
%TO.P,J8,14,UTILITY/HEAC+*%
%TO.N,unconnected-(J8-Pad14)*%
X126413250Y-63525000D03*
%TO.P,J8,15,SCL*%
%TO.N,/SIL-Motherboard/HDMI1_SCL*%
X126413250Y-64025000D03*
%TO.P,J8,16,SDA*%
%TO.N,/SIL-Motherboard/HDMI1_SDA*%
X126413250Y-64525000D03*
%TO.P,J8,17,GND*%
%TO.N,GND*%
X126413250Y-65025000D03*
%TO.P,J8,18,+5V*%
%TO.N,/SIL-Motherboard/HDMI_5v*%
X126413250Y-65525000D03*
%TO.P,J8,19,HPD/HEAC-*%
%TO.N,/SIL-Motherboard/HDMI1_HOTPLUG*%
X126413250Y-66025000D03*
D52*
%TO.P,J8,SH1,SH*%
%TO.N,GND*%
X127143250Y-54275000D03*
%TO.P,J8,SH2,SH*%
X127143250Y-68775000D03*
D53*
%TO.P,J8,SH3,SH*%
X133103250Y-68775000D03*
%TO.P,J8,SH4,SH*%
X133103250Y-54275000D03*
%TD*%
D62*
%TO.P,J2,1*%
%TO.N,/SIL-Motherboard/VCC_IN*%
X124037500Y-32250000D03*
D63*
%TO.P,J2,2*%
%TO.N,GND*%
X118137500Y-28550000D03*
%TO.P,J2,3*%
X118137500Y-35950000D03*
%TD*%
D13*
%TO.P,C16,1*%
%TO.N,5v*%
X104925000Y-110680000D03*
%TO.P,C16,2*%
%TO.N,GND*%
X104925000Y-109720000D03*
%TD*%
D37*
%TO.P,J5,1,VBUS*%
%TO.N,Net-(J5-Pad1)*%
X132900000Y-77500000D03*
%TO.P,J5,2,D-*%
%TO.N,/SIL-Motherboard/HSD2-*%
X132900000Y-76850000D03*
%TO.P,J5,3,D+*%
%TO.N,/SIL-Motherboard/HSD2+*%
X132900000Y-76200000D03*
%TO.P,J5,4,ID*%
%TO.N,GND*%
X132900000Y-75550000D03*
%TO.P,J5,5,GND*%
X132900000Y-74900000D03*
D41*
%TO.P,J5,6,Shield*%
X135600000Y-77200000D03*
D39*
X135600000Y-79100000D03*
D38*
X135600000Y-79700000D03*
D40*
X132900000Y-78700000D03*
D39*
X135600000Y-73300000D03*
D41*
X135600000Y-75200000D03*
D38*
X135600000Y-72700000D03*
D40*
X132900000Y-73700000D03*
%TD*%
D23*
%TO.P,J10,1,Pin_1*%
%TO.N,/SIL-Motherboard/+3V3*%
X87300000Y-114500000D03*
D24*
%TO.P,J10,2,Pin_2*%
%TO.N,5v*%
X87300000Y-117040000D03*
%TO.P,J10,3,Pin_3*%
%TO.N,/SIL-Motherboard/GPIO2*%
X84760000Y-114500000D03*
%TO.P,J10,4,Pin_4*%
%TO.N,5v*%
X84760000Y-117040000D03*
%TO.P,J10,5,Pin_5*%
%TO.N,/SIL-Motherboard/GPIO3*%
X82220000Y-114500000D03*
%TO.P,J10,6,Pin_6*%
%TO.N,GND*%
X82220000Y-117040000D03*
%TO.P,J10,7,Pin_7*%
%TO.N,/SIL-Motherboard/GPIO4*%
X79680000Y-114500000D03*
%TO.P,J10,8,Pin_8*%
%TO.N,/SIL-Motherboard/GPIO14*%
X79680000Y-117040000D03*
%TO.P,J10,9,Pin_9*%
%TO.N,GND*%
X77140000Y-114500000D03*
%TO.P,J10,10,Pin_10*%
%TO.N,/SIL-Motherboard/GPIO15*%
X77140000Y-117040000D03*
%TO.P,J10,11,Pin_11*%
%TO.N,/SIL-Motherboard/GPIO17*%
X74600000Y-114500000D03*
%TO.P,J10,12,Pin_12*%
%TO.N,/SIL-Motherboard/GPIO18*%
X74600000Y-117040000D03*
%TO.P,J10,13,Pin_13*%
%TO.N,/SIL-Motherboard/GPIO27*%
X72060000Y-114500000D03*
%TO.P,J10,14,Pin_14*%
%TO.N,GND*%
X72060000Y-117040000D03*
%TO.P,J10,15,Pin_15*%
%TO.N,/SIL-Motherboard/GPIO22*%
X69520000Y-114500000D03*
%TO.P,J10,16,Pin_16*%
%TO.N,/SIL-Motherboard/GPIO23*%
X69520000Y-117040000D03*
%TO.P,J10,17,Pin_17*%
%TO.N,/SIL-Motherboard/+3V3*%
X66980000Y-114500000D03*
%TO.P,J10,18,Pin_18*%
%TO.N,/SIL-Motherboard/GPIO24*%
X66980000Y-117040000D03*
%TO.P,J10,19,Pin_19*%
%TO.N,/SIL-Motherboard/GPIO10*%
X64440000Y-114500000D03*
%TO.P,J10,20,Pin_20*%
%TO.N,GND*%
X64440000Y-117040000D03*
%TO.P,J10,21,Pin_21*%
%TO.N,/SIL-Motherboard/GPIO9*%
X61900000Y-114500000D03*
%TO.P,J10,22,Pin_22*%
%TO.N,/SIL-Motherboard/GPIO25*%
X61900000Y-117040000D03*
%TO.P,J10,23,Pin_23*%
%TO.N,/SIL-Motherboard/GPIO11*%
X59360000Y-114500000D03*
%TO.P,J10,24,Pin_24*%
%TO.N,/SIL-Motherboard/GPIO8*%
X59360000Y-117040000D03*
%TO.P,J10,25,Pin_25*%
%TO.N,GND*%
X56820000Y-114500000D03*
%TO.P,J10,26,Pin_26*%
%TO.N,/SIL-Motherboard/GPIO7*%
X56820000Y-117040000D03*
%TO.P,J10,27,Pin_27*%
%TO.N,/SIL-Motherboard/ID_SD*%
X54280000Y-114500000D03*
%TO.P,J10,28,Pin_28*%
%TO.N,/SIL-Motherboard/ID_SC*%
X54280000Y-117040000D03*
%TO.P,J10,29,Pin_29*%
%TO.N,/SIL-Motherboard/GPIO5*%
X51740000Y-114500000D03*
%TO.P,J10,30,Pin_30*%
%TO.N,GND*%
X51740000Y-117040000D03*
%TO.P,J10,31,Pin_31*%
%TO.N,/SIL-Motherboard/GPIO6*%
X49200000Y-114500000D03*
%TO.P,J10,32,Pin_32*%
%TO.N,/SIL-Motherboard/GPIO12*%
X49200000Y-117040000D03*
%TO.P,J10,33,Pin_33*%
%TO.N,/SIL-Motherboard/GPIO13*%
X46660000Y-114500000D03*
%TO.P,J10,34,Pin_34*%
%TO.N,GND*%
X46660000Y-117040000D03*
%TO.P,J10,35,Pin_35*%
%TO.N,/SIL-Motherboard/GPIO19*%
X44120000Y-114500000D03*
%TO.P,J10,36,Pin_36*%
%TO.N,/SIL-Motherboard/GPIO16*%
X44120000Y-117040000D03*
%TO.P,J10,37,Pin_37*%
%TO.N,/SIL-Motherboard/GPIO26*%
X41580000Y-114500000D03*
%TO.P,J10,38,Pin_38*%
%TO.N,/SIL-Motherboard/GPIO20*%
X41580000Y-117040000D03*
%TO.P,J10,39,Pin_39*%
%TO.N,GND*%
X39040000Y-114500000D03*
%TO.P,J10,40,Pin_40*%
%TO.N,/SIL-Motherboard/GPIO21*%
X39040000Y-117040000D03*
%TD*%
D58*
%TO.P,C26,1*%
%TO.N,Net-(C26-Pad1)*%
X114182500Y-73667500D03*
%TO.P,C26,2*%
%TO.N,GND*%
X115317500Y-73667500D03*
%TD*%
D64*
%TO.P,U5,1,EN*%
%TO.N,/SIL-Motherboard/SD_PWR_ON*%
X108012500Y-135950000D03*
%TO.P,U5,2,GND*%
%TO.N,GND*%
X108012500Y-136900000D03*
%TO.P,U5,3,~{FLG}*%
%TO.N,unconnected-(U5-Pad3)*%
X108012500Y-137850000D03*
%TO.P,U5,4,VIN*%
%TO.N,/SIL-Motherboard/+3V3*%
X110287500Y-137850000D03*
%TO.P,U5,5,VOUT*%
%TO.N,/SIL-Motherboard/SD_PWR*%
X110287500Y-135950000D03*
%TD*%
D14*
%TO.P,C6,1*%
%TO.N,/SIL-Motherboard/+12v*%
X103650000Y-32850000D03*
%TO.P,C6,2*%
%TO.N,GND*%
X103650000Y-33810000D03*
%TD*%
D20*
%TO.P,TP5,1,1*%
%TO.N,Net-(D4-Pad1)*%
X106100000Y-47300000D03*
%TD*%
D14*
%TO.P,C2,1*%
%TO.N,/SIL-Motherboard/+12v*%
X104900000Y-32850000D03*
%TO.P,C2,2*%
%TO.N,Net-(C2-Pad2)*%
X104900000Y-33810000D03*
%TD*%
D65*
%TO.P,C20,1*%
%TO.N,GND*%
X114425000Y-108900000D03*
%TO.P,C20,2*%
%TO.N,/SIL-Motherboard/1V8*%
X113465000Y-108900000D03*
%TD*%
D27*
%TO.P,R15,1*%
%TO.N,Net-(R15-Pad1)*%
X113435000Y-106700000D03*
%TO.P,R15,2*%
%TO.N,GND*%
X114455000Y-106700000D03*
%TD*%
D48*
%TO.P,H1,1*%
%TO.N,N/C*%
X32790990Y-115890990D03*
X31200000Y-112050000D03*
X29609010Y-112709010D03*
X32790990Y-112709010D03*
X33450000Y-114300000D03*
X29609010Y-115890990D03*
X28950000Y-114300000D03*
X31200000Y-116550000D03*
D47*
X31200000Y-114300000D03*
%TD*%
D46*
%TO.P,R4,1*%
%TO.N,FB*%
X90900000Y-30300000D03*
%TO.P,R4,2*%
%TO.N,GND*%
X90900000Y-31320000D03*
%TD*%
D14*
%TO.P,C9,1*%
%TO.N,GND*%
X100400000Y-40530000D03*
%TO.P,C9,2*%
%TO.N,5v*%
X100400000Y-41490000D03*
%TD*%
D27*
%TO.P,R1,1*%
%TO.N,Net-(C2-Pad2)*%
X109690000Y-36100000D03*
%TO.P,R1,2*%
%TO.N,GND*%
X110710000Y-36100000D03*
%TD*%
D66*
%TO.P,U9,1*%
%TO.N,N/C*%
X39137500Y-69950000D03*
%TO.P,U9,2*%
%TO.N,/SIL-Motherboard/RUN_PG*%
X39137500Y-69000000D03*
%TO.P,U9,3,GND*%
%TO.N,GND*%
X39137500Y-68050000D03*
%TO.P,U9,4*%
%TO.N,Net-(J11-Pad13)*%
X36862500Y-68050000D03*
%TO.P,U9,5,VCC*%
%TO.N,5v*%
X36862500Y-69950000D03*
%TD*%
D67*
%TO.P,JP2,1,A*%
%TO.N,/SIL-Motherboard/5V*%
X96550000Y-98350000D03*
D68*
%TO.P,JP2,2,B*%
%TO.N,5v*%
X97850000Y-98350000D03*
%TD*%
D69*
%TO.P,D2,1,K*%
%TO.N,Net-(C11-Pad2)*%
X89800000Y-38710000D03*
%TO.P,D2,2,A*%
%TO.N,GND*%
X96600000Y-38710000D03*
%TD*%
D42*
%TO.P,D3,1,K*%
%TO.N,Net-(D3-Pad1)*%
X115115000Y-46200000D03*
%TO.P,D3,2,A*%
%TO.N,/SIL-Motherboard/+3v3_CM4*%
X116085000Y-46200000D03*
%TD*%
D70*
%TO.N,GND*%
X64200000Y-22700000D03*
X57000000Y-18800000D03*
X67900000Y-18700000D03*
%TO.N,/SIL-Motherboard/+12v*%
X109800000Y-28900000D03*
%TO.N,GND*%
X130600000Y-57500000D03*
X83465136Y-89934398D03*
X130600000Y-65000000D03*
X34200000Y-37800000D03*
X130600000Y-60500000D03*
X71744427Y-56036361D03*
X106700000Y-151500000D03*
X74499500Y-90200000D03*
X83808000Y-58893000D03*
X102765332Y-109634668D03*
X87390000Y-58891000D03*
X34200000Y-40800000D03*
X34200000Y-33300000D03*
X121300000Y-28500000D03*
X101400000Y-33800000D03*
X112000000Y-134200000D03*
X73056977Y-56034347D03*
X108548000Y-104944000D03*
X81199500Y-90000000D03*
X88602000Y-58883000D03*
X84864137Y-89849051D03*
X113236000Y-103103112D03*
X115750000Y-80167500D03*
X89789000Y-58883000D03*
X90299362Y-89883208D03*
X74200000Y-56100000D03*
X40584668Y-68015332D03*
X116350000Y-73667500D03*
X78899500Y-90683371D03*
X131600000Y-74300000D03*
X104800000Y-100500000D03*
X110300000Y-79300000D03*
X102700000Y-112900000D03*
X112800000Y-118000000D03*
X81400000Y-56300000D03*
X76600000Y-56100000D03*
X103700000Y-49700000D03*
X121200000Y-36000000D03*
X117900000Y-143300000D03*
X75400000Y-56100000D03*
X72300000Y-38050000D03*
X86204000Y-58895000D03*
X71799500Y-90300000D03*
X34200000Y-36300000D03*
X130600000Y-59000000D03*
X130600000Y-62000000D03*
X113300000Y-21000000D03*
X84993000Y-58892000D03*
X77800000Y-56100000D03*
X34200000Y-39200000D03*
X76299500Y-90694348D03*
X102200000Y-141100000D03*
X109100000Y-136900000D03*
X114500000Y-105700000D03*
X105744622Y-121355378D03*
X65900000Y-38050000D03*
%TO.N,/SIL-Motherboard/SCL0*%
X95900000Y-75400000D03*
X86300000Y-84000000D03*
%TO.N,/SIL-Motherboard/SDA0*%
X96700000Y-76700000D03*
X87100000Y-84700000D03*
%TO.N,Net-(Module1-Pad21)*%
X74500000Y-93600000D03*
X116100000Y-49000000D03*
X105200000Y-59300000D03*
%TO.N,/SIL-Motherboard/SD_PWR_ON*%
X105224500Y-135080386D03*
X85400000Y-93000000D03*
%TO.N,/SIL-Motherboard/USBOTG_ID*%
X104858000Y-101514000D03*
X70655000Y-59919000D03*
%TO.N,/SIL-Motherboard/1V8*%
X110500000Y-109900000D03*
X108300000Y-116300000D03*
%TO.N,/SIL-Motherboard/SD_PWR*%
X108490924Y-147492336D03*
X111875500Y-137257407D03*
%TO.N,/SIL-Motherboard/HDMI_5v*%
X124200000Y-65500000D03*
X39100260Y-32773586D03*
X105000000Y-51300000D03*
X63900000Y-44100000D03*
X51600000Y-22900000D03*
%TO.N,Net-(J5-Pad1)*%
X108124000Y-100471000D03*
X131641000Y-79071000D03*
%TO.N,/SIL-Motherboard/5V*%
X95100000Y-98300000D03*
X87800000Y-93000000D03*
%TO.N,Net-(C11-Pad2)*%
X100300000Y-36010000D03*
X92900000Y-35310000D03*
D71*
%TO.N,/SIL-Motherboard/USB2_P*%
X109001549Y-96083451D03*
X71724549Y-58806451D03*
D70*
X109100000Y-104000000D03*
D71*
%TO.N,/SIL-Motherboard/USB2_N*%
X71227451Y-59303549D03*
X108504451Y-96580549D03*
D70*
X110465032Y-104755868D03*
%TO.N,/SIL-Motherboard/+3v3_CM4*%
X87832033Y-85642790D03*
X84800000Y-87400000D03*
X106100000Y-38400000D03*
X108300000Y-21000000D03*
%TO.N,/SIL-Motherboard/GPIO2*%
X83035984Y-86674839D03*
%TO.N,/SIL-Motherboard/GPIO3*%
X81977980Y-86988762D03*
%TO.N,/SIL-Motherboard/GPIO4*%
X81469488Y-86128272D03*
%TO.N,/SIL-Motherboard/GPIO14*%
X81305982Y-92794248D03*
%TO.N,/SIL-Motherboard/GPIO17*%
X80499500Y-86516795D03*
%TO.N,/SIL-Motherboard/GPIO27*%
X80681149Y-85513841D03*
%TO.N,/SIL-Motherboard/GPIO22*%
X80750142Y-84138602D03*
%TO.N,/SIL-Motherboard/GPIO10*%
X79713068Y-84503433D03*
%TO.N,/SIL-Motherboard/GPIO9*%
X79952386Y-83533004D03*
%TO.N,/SIL-Motherboard/GPIO11*%
X80000000Y-82500000D03*
%TO.N,/SIL-Motherboard/ID_SD*%
X79000000Y-82500000D03*
X33900000Y-79600000D03*
%TO.N,/SIL-Motherboard/ID_SC*%
X34000000Y-77000000D03*
%TO.N,/SIL-Motherboard/GPIO5*%
X78000000Y-82500000D03*
%TO.N,/SIL-Motherboard/GPIO6*%
X77000000Y-82500000D03*
%TO.N,/SIL-Motherboard/GPIO13*%
X76000000Y-82500000D03*
%TO.N,/SIL-Motherboard/GPIO19*%
X74900000Y-82500000D03*
%TO.N,/SIL-Motherboard/GPIO26*%
X73900000Y-82500000D03*
%TO.N,/SIL-Motherboard/nRPiBOOT*%
X87300000Y-89700000D03*
%TO.N,/SIL-Motherboard/EEPROM_nWP*%
X69000000Y-84200000D03*
X70400000Y-85800000D03*
%TO.N,/SIL-Motherboard/AIN0*%
X89600000Y-83500000D03*
%TO.N,/SIL-Motherboard/AIN1*%
X88700500Y-84226193D03*
%TO.N,/SIL-Motherboard/SYNC_IN*%
X69000000Y-87500000D03*
X62000000Y-80600000D03*
%TO.N,/SIL-Motherboard/SYNC_OUT*%
X68800000Y-85200000D03*
X69800000Y-86700000D03*
%TO.N,/SIL-Motherboard/TV_OUT*%
X72401859Y-56789215D03*
X46100000Y-62800000D03*
%TO.N,Net-(J11-Pad13)*%
X35300000Y-68000000D03*
X34200000Y-74000000D03*
%TO.N,/SIL-Motherboard/GLOBAL_EN*%
X42500000Y-70100000D03*
X57100000Y-65900000D03*
X53500000Y-66600000D03*
X89300000Y-89800000D03*
%TO.N,/SIL-Motherboard/WiFi_Disable*%
X85524814Y-90690178D03*
X46502743Y-85686500D03*
%TO.N,/SIL-Motherboard/BT_Disable*%
X45500000Y-85700000D03*
X86352627Y-90130061D03*
%TO.N,/SIL-Motherboard/RUN_PG*%
X35300000Y-70000000D03*
%TO.N,/SIL-Motherboard/SD_DAT1*%
X104500000Y-147000000D03*
X108247410Y-127424635D03*
%TO.N,/SIL-Motherboard/SD_DAT0*%
X105700000Y-147000000D03*
X107280499Y-127171479D03*
%TO.N,/SIL-Motherboard/SD_CLK*%
X107693180Y-146890165D03*
X105166953Y-127119706D03*
%TO.N,/SIL-Motherboard/SD_CMD*%
X110400000Y-127300000D03*
X83600000Y-87500000D03*
X84899500Y-94427855D03*
X110500049Y-145875451D03*
%TO.N,/SIL-Motherboard/SD_DAT3*%
X111200000Y-147000000D03*
X106165718Y-127081296D03*
%TO.N,/SIL-Motherboard/SD_DAT2*%
X109228585Y-127117829D03*
X112300000Y-147000000D03*
%TO.N,/SIL-Motherboard/nPWR_LED*%
X106100000Y-57400000D03*
X89900000Y-93300000D03*
X102650461Y-49745912D03*
%TO.N,/SIL-Motherboard/HDMI0_CEC*%
X78570000Y-56751000D03*
X32272000Y-36630000D03*
%TO.N,/SIL-Motherboard/HDMI0_HOTPLUG*%
X79325500Y-56001417D03*
X34210000Y-32271000D03*
D71*
%TO.N,/SIL-Motherboard/HDMI0_D2_P*%
X78110000Y-52188500D03*
X84048500Y-56216000D03*
%TO.N,/SIL-Motherboard/HDMI0_D2_N*%
X84751500Y-56216000D03*
X78110000Y-51485500D03*
%TO.N,/SIL-Motherboard/HDMI0_D1_P*%
X78121000Y-50734500D03*
X84650451Y-53615549D03*
%TO.N,/SIL-Motherboard/HDMI0_D1_N*%
X78121000Y-50031500D03*
X85147549Y-53118451D03*
%TO.N,/SIL-Motherboard/HDMI0_D0_P*%
X86033451Y-53076549D03*
X78101000Y-49404500D03*
%TO.N,/SIL-Motherboard/HDMI0_D0_N*%
X86530549Y-52579451D03*
X78101000Y-48701500D03*
%TO.N,/SIL-Motherboard/HDMI0_CK_P*%
X78122000Y-48073500D03*
X87648500Y-52593000D03*
%TO.N,/SIL-Motherboard/HDMI0_CK_N*%
X78122000Y-47370500D03*
X88351500Y-52593000D03*
D70*
%TO.N,/SIL-Motherboard/HDMI0_SDA*%
X90825000Y-53462000D03*
X39087000Y-33773000D03*
%TO.N,/SIL-Motherboard/HDMI0_SCL*%
X38761000Y-34736000D03*
X89787000Y-53451000D03*
%TO.N,5v*%
X108300000Y-111200000D03*
X127700000Y-86000000D03*
X101900000Y-41500000D03*
X32900000Y-96400000D03*
X99400000Y-98300000D03*
X43600000Y-67300000D03*
X109000000Y-52248000D03*
X59804342Y-44650500D03*
X88800000Y-111600000D03*
X102700000Y-110700000D03*
X113236000Y-102103609D03*
%TO.N,/SIL-Motherboard/+3V3*%
X102700000Y-111900000D03*
X109300000Y-83900000D03*
X110500000Y-108700000D03*
X104300000Y-25700000D03*
X103600000Y-135900000D03*
X109200000Y-113900000D03*
X99100000Y-45800000D03*
X96300000Y-44000000D03*
%TD*%
D72*
%TO.N,5v*%
X63200000Y-42800000D02*
X59700000Y-39300000D01*
X71910000Y-20810000D02*
X69800000Y-20810000D01*
X59700000Y-39300000D02*
X59700000Y-29300000D01*
X64100000Y-24900000D02*
X72200000Y-24900000D01*
X73300000Y-23800000D02*
X73300000Y-22200000D01*
X59700000Y-29300000D02*
X64100000Y-24900000D01*
X72200000Y-24900000D02*
X73300000Y-23800000D01*
X73300000Y-22200000D02*
X71910000Y-20810000D01*
%TO.N,/SIL-Motherboard/HDMI_5v*%
X56200000Y-20580000D02*
X53920000Y-20580000D01*
X53920000Y-20580000D02*
X51600000Y-22900000D01*
%TO.N,GND*%
X64220000Y-21235000D02*
X64220000Y-22680000D01*
X64220000Y-22680000D02*
X64200000Y-22700000D01*
X56200000Y-19620000D02*
X56200000Y-19600000D01*
X56200000Y-19600000D02*
X57000000Y-18800000D01*
X57600000Y-19620000D02*
X57600000Y-19400000D01*
X57600000Y-19400000D02*
X57000000Y-18800000D01*
%TO.N,/SIL-Motherboard/HDMI_5v*%
X57600000Y-20580000D02*
X56200000Y-20580000D01*
X59920000Y-20585000D02*
X57605000Y-20585000D01*
X57605000Y-20585000D02*
X57600000Y-20580000D01*
X59920000Y-19935000D02*
X58565000Y-19935000D01*
X58565000Y-19935000D02*
X57920000Y-20580000D01*
X57920000Y-20580000D02*
X57600000Y-20580000D01*
%TO.N,Net-(R6-Pad2)*%
X69800000Y-19790000D02*
X69800000Y-19200000D01*
X69800000Y-19200000D02*
X68300000Y-17700000D01*
X68300000Y-17700000D02*
X61505000Y-17700000D01*
X61505000Y-17700000D02*
X59920000Y-19285000D01*
%TO.N,GND*%
X67900000Y-18700000D02*
X64805000Y-18700000D01*
X64805000Y-18700000D02*
X64220000Y-19285000D01*
X67200000Y-19820000D02*
X67200000Y-19400000D01*
X67200000Y-19400000D02*
X67900000Y-18700000D01*
X68500000Y-19820000D02*
X68500000Y-19300000D01*
X68500000Y-19300000D02*
X67900000Y-18700000D01*
%TO.N,5v*%
X65715000Y-20585000D02*
X67005000Y-20585000D01*
X64220000Y-20585000D02*
X65715000Y-20585000D01*
X65715000Y-20585000D02*
X65715000Y-20115000D01*
X65535000Y-19935000D02*
X64220000Y-19935000D01*
X65715000Y-20115000D02*
X65535000Y-19935000D01*
X68500000Y-20780000D02*
X69770000Y-20780000D01*
X69770000Y-20780000D02*
X69800000Y-20810000D01*
X67200000Y-20780000D02*
X68500000Y-20780000D01*
X67005000Y-20585000D02*
X67200000Y-20780000D01*
%TO.N,Net-(C12-Pad2)*%
X107095000Y-119520000D02*
X105600000Y-119520000D01*
X110282500Y-115692500D02*
X112025000Y-115692500D01*
X107575000Y-120000000D02*
X107575000Y-118400000D01*
X107575000Y-120000000D02*
X107095000Y-119520000D01*
X107575000Y-118400000D02*
X110282500Y-115692500D01*
%TO.N,/SIL-Motherboard/+12v*%
X109900000Y-33925000D02*
X109900000Y-33275000D01*
D73*
X99900000Y-32845000D02*
X102395000Y-32845000D01*
D72*
X109900000Y-33275000D02*
X109900000Y-32625000D01*
X109850000Y-28950000D02*
X109800000Y-28900000D01*
D73*
X102400000Y-32850000D02*
X103650000Y-32850000D01*
X120920000Y-18900000D02*
X124800000Y-18900000D01*
X109425000Y-32800000D02*
X109900000Y-33275000D01*
X104950000Y-32800000D02*
X104900000Y-32850000D01*
D72*
X109850000Y-30400000D02*
X109850000Y-28950000D01*
X109900000Y-32625000D02*
X109900000Y-30450000D01*
D73*
X102395000Y-32845000D02*
X102400000Y-32850000D01*
X107200000Y-32800000D02*
X109425000Y-32800000D01*
D72*
X109900000Y-30450000D02*
X109850000Y-30400000D01*
D73*
X104900000Y-32850000D02*
X103650000Y-32850000D01*
X107200000Y-32800000D02*
X104950000Y-32800000D01*
%TO.N,Net-(D3-Pad1)*%
X115115000Y-47575000D02*
X115090000Y-47600000D01*
X115090000Y-47600000D02*
X110800000Y-47600000D01*
X115115000Y-46200000D02*
X115115000Y-47575000D01*
X110800000Y-47600000D02*
X110500000Y-47300000D01*
%TO.N,Net-(D4-Pad1)*%
X104825000Y-46025000D02*
X106100000Y-47300000D01*
X104825000Y-44800000D02*
X103420000Y-44800000D01*
X104825000Y-44800000D02*
X104825000Y-46025000D01*
D74*
%TO.N,GND*%
X126413250Y-60525000D02*
X130575000Y-60525000D01*
D73*
X110710000Y-36100000D02*
X117987500Y-36100000D01*
D72*
X112025000Y-117225000D02*
X112800000Y-118000000D01*
D75*
X111015000Y-80367500D02*
X111015000Y-80015000D01*
X71702358Y-57078959D02*
X71702358Y-56078430D01*
D72*
X102850664Y-109720000D02*
X102765332Y-109634668D01*
D75*
X71800000Y-57176601D02*
X71702358Y-57078959D01*
X77000000Y-91000978D02*
X76693370Y-90694348D01*
X133300000Y-73300000D02*
X132900000Y-73700000D01*
X82200000Y-91650000D02*
X82200000Y-90580978D01*
X88600000Y-54650000D02*
X88600000Y-57730000D01*
X85000000Y-89713188D02*
X84864137Y-89849051D01*
X89800000Y-58872000D02*
X89789000Y-58883000D01*
X108194600Y-104590600D02*
X108548000Y-104944000D01*
X85000000Y-56709258D02*
X85000000Y-57730000D01*
D73*
X102400000Y-33810000D02*
X101410000Y-33810000D01*
D72*
X112025000Y-116327500D02*
X112025000Y-117225000D01*
D76*
X90900000Y-31438351D02*
X90900000Y-31320000D01*
D72*
X105600000Y-121210756D02*
X105744622Y-121355378D01*
D75*
X83800000Y-55211969D02*
X83523999Y-55487970D01*
X77800000Y-57730000D02*
X77800000Y-56100000D01*
X83400000Y-89869262D02*
X83465136Y-89934398D01*
D77*
X27685000Y-101200000D02*
X29385000Y-101200000D01*
D75*
X90299362Y-89810117D02*
X90299362Y-89883208D01*
X87400000Y-54650000D02*
X87400000Y-57730000D01*
D73*
X117987500Y-36100000D02*
X118137500Y-35950000D01*
D75*
X83800000Y-57730000D02*
X83800000Y-58885000D01*
D73*
X121250000Y-28550000D02*
X121300000Y-28500000D01*
D75*
X84600000Y-91650000D02*
X84600000Y-90113188D01*
X82600000Y-54650000D02*
X82600000Y-55299022D01*
D74*
X36686750Y-39275000D02*
X34275000Y-39275000D01*
D75*
X73101360Y-56078730D02*
X73056977Y-56034347D01*
D76*
X114455000Y-106700000D02*
X114455000Y-105745000D01*
X92051649Y-32590000D02*
X90900000Y-31438351D01*
D75*
X135600000Y-73300000D02*
X133300000Y-73300000D01*
X70600000Y-91650000D02*
X70600000Y-91000978D01*
X135600000Y-73300000D02*
X135600000Y-75200000D01*
X71800000Y-54650000D02*
X71800000Y-55980788D01*
D72*
X113250000Y-119520000D02*
X113250000Y-118450000D01*
D74*
X112050000Y-135320000D02*
X112050000Y-134250000D01*
D75*
X135200000Y-78700000D02*
X135600000Y-79100000D01*
X85276001Y-56433257D02*
X85000000Y-56709258D01*
D74*
X34225000Y-33275000D02*
X34200000Y-33300000D01*
D72*
X113250000Y-118450000D02*
X112800000Y-118000000D01*
D75*
X73000000Y-91000978D02*
X72299022Y-90300000D01*
D73*
X102175000Y-151617500D02*
X102175000Y-143317500D01*
D75*
X81819022Y-56300000D02*
X81400000Y-56300000D01*
X80600000Y-88570000D02*
X80600000Y-89400500D01*
D74*
X115150000Y-73835000D02*
X115317500Y-73667500D01*
D76*
X94500000Y-32845000D02*
X92455000Y-32845000D01*
D72*
X103825000Y-109720000D02*
X102850664Y-109720000D01*
D75*
X71300978Y-90300000D02*
X71799500Y-90300000D01*
X81400000Y-57730000D02*
X81400000Y-56300000D01*
X88600000Y-58881000D02*
X88602000Y-58883000D01*
X86200000Y-58891000D02*
X86204000Y-58895000D01*
X83800000Y-54650000D02*
X83800000Y-55211969D01*
D74*
X126413250Y-57525000D02*
X130575000Y-57525000D01*
D73*
X113200000Y-29920000D02*
X112230000Y-29920000D01*
X97200000Y-38110000D02*
X96600000Y-38710000D01*
D75*
X81000000Y-91650000D02*
X81000000Y-90199500D01*
D74*
X114550000Y-80367500D02*
X115550000Y-80367500D01*
D75*
X83400000Y-89999534D02*
X83465136Y-89934398D01*
D73*
X101410000Y-33810000D02*
X101400000Y-33800000D01*
D75*
X81599022Y-56300000D02*
X81400000Y-56300000D01*
D74*
X130575000Y-60525000D02*
X130600000Y-60500000D01*
D73*
X100400000Y-40530000D02*
X100400000Y-40210000D01*
D74*
X115150000Y-75767500D02*
X115150000Y-73835000D01*
X113224888Y-103092000D02*
X113236000Y-103103112D01*
D75*
X78996523Y-55302499D02*
X78597501Y-55302499D01*
X82880978Y-89900000D02*
X82200000Y-89219022D01*
D73*
X112230000Y-29920000D02*
X111750000Y-30400000D01*
D75*
X89800000Y-88570000D02*
X89800000Y-89310755D01*
X89800000Y-54650000D02*
X89800000Y-57730000D01*
X73000000Y-91650000D02*
X73000000Y-91000978D01*
X111015000Y-80015000D02*
X110300000Y-79300000D01*
D74*
X36686750Y-36275000D02*
X34225000Y-36275000D01*
D75*
X110300000Y-76262849D02*
X110300000Y-79300000D01*
X71800000Y-91650000D02*
X71800000Y-90300500D01*
X70600000Y-89100500D02*
X71799500Y-90300000D01*
X79000000Y-90783871D02*
X78899500Y-90683371D01*
D76*
X98390000Y-28810000D02*
X98390000Y-29720000D01*
D75*
X132900000Y-74900000D02*
X132900000Y-73700000D01*
D72*
X105600000Y-120480000D02*
X105600000Y-121210756D01*
X40550000Y-68050000D02*
X40584668Y-68015332D01*
X102720000Y-112880000D02*
X102700000Y-112900000D01*
D75*
X70600000Y-91000978D02*
X71300978Y-90300000D01*
X75000000Y-90700500D02*
X74499500Y-90200000D01*
X70600000Y-88570000D02*
X70600000Y-89100500D01*
D73*
X113300000Y-18900000D02*
X113300000Y-21000000D01*
D76*
X114455000Y-105745000D02*
X114500000Y-105700000D01*
D75*
X83400000Y-88570000D02*
X83400000Y-89869262D01*
X80199511Y-55299511D02*
X79000489Y-55299511D01*
X81000000Y-90199500D02*
X81199500Y-90000000D01*
D74*
X111532400Y-103092000D02*
X113224888Y-103092000D01*
D75*
X74600000Y-88570000D02*
X74600000Y-90099500D01*
D73*
X99100000Y-40530000D02*
X99100000Y-40110000D01*
D75*
X135600000Y-77200000D02*
X135600000Y-75200000D01*
X132200000Y-74900000D02*
X131600000Y-74300000D01*
X71800000Y-57730000D02*
X71800000Y-57176601D01*
X83400000Y-91650000D02*
X83400000Y-89999534D01*
X73000000Y-89219022D02*
X71919022Y-90300000D01*
D74*
X130575000Y-62025000D02*
X130600000Y-62000000D01*
D75*
X87400000Y-57730000D02*
X87400000Y-58881000D01*
X86200000Y-57730000D02*
X86200000Y-58891000D01*
D74*
X126413250Y-59025000D02*
X130575000Y-59025000D01*
D75*
X80200000Y-54650000D02*
X80200000Y-55299022D01*
X74200000Y-57730000D02*
X74200000Y-56100000D01*
D76*
X92200000Y-32590000D02*
X92051649Y-32590000D01*
D72*
X103825000Y-112880000D02*
X102720000Y-112880000D01*
D75*
X82200000Y-89219022D02*
X82200000Y-88570000D01*
D73*
X103650000Y-33810000D02*
X102400000Y-33810000D01*
D75*
X83430738Y-89900000D02*
X83465136Y-89934398D01*
D73*
X106750000Y-149017500D02*
X106750000Y-151450000D01*
X99100000Y-40110000D02*
X99700000Y-39510000D01*
D75*
X132900000Y-75550000D02*
X132900000Y-74900000D01*
D77*
X27685000Y-98700000D02*
X27685000Y-101200000D01*
D75*
X71800000Y-90300500D02*
X71799500Y-90300000D01*
D76*
X92455000Y-32845000D02*
X92200000Y-32590000D01*
D75*
X135600000Y-77200000D02*
X135600000Y-79100000D01*
D77*
X29385000Y-101200000D02*
X30385000Y-100200000D01*
D74*
X34275000Y-39275000D02*
X34200000Y-39200000D01*
D75*
X71702358Y-56078430D02*
X71744427Y-56036361D01*
X75400000Y-57730000D02*
X75400000Y-56100000D01*
X83523999Y-56433257D02*
X83800000Y-56709258D01*
X88600000Y-57730000D02*
X88600000Y-58881000D01*
D73*
X96600000Y-38710000D02*
X98900000Y-38710000D01*
D75*
X111250000Y-75767500D02*
X110795349Y-75767500D01*
X86200000Y-54650000D02*
X86200000Y-57730000D01*
D77*
X27685000Y-96700000D02*
X27685000Y-94200000D01*
D74*
X36686750Y-40775000D02*
X34225000Y-40775000D01*
D75*
X132900000Y-74900000D02*
X132200000Y-74900000D01*
D73*
X117882500Y-143317500D02*
X117900000Y-143300000D01*
D76*
X96535000Y-32845000D02*
X96550000Y-32860000D01*
D77*
X29385000Y-94200000D02*
X30385000Y-95200000D01*
D75*
X79000000Y-55299022D02*
X78996523Y-55302499D01*
X85000000Y-58885000D02*
X84993000Y-58892000D01*
X85000000Y-54650000D02*
X85000000Y-55602375D01*
D72*
X104925000Y-112880000D02*
X103825000Y-112880000D01*
D75*
X76600000Y-90393848D02*
X76299500Y-90694348D01*
X73000000Y-55977370D02*
X73056977Y-56034347D01*
D73*
X118137500Y-35950000D02*
X121150000Y-35950000D01*
X116767500Y-29920000D02*
X118137500Y-28550000D01*
D75*
X82600000Y-55299022D02*
X81599022Y-56300000D01*
X76600000Y-88570000D02*
X76600000Y-90393848D01*
X78597501Y-55302499D02*
X77800000Y-56100000D01*
X78600000Y-88570000D02*
X78600000Y-90383871D01*
D78*
X27685000Y-98700000D02*
X27685000Y-96700000D01*
D75*
X83800000Y-58885000D02*
X83808000Y-58893000D01*
D73*
X103750000Y-48437500D02*
X103750000Y-49650000D01*
D75*
X79000000Y-54650000D02*
X79000000Y-55299022D01*
D73*
X65100000Y-38850000D02*
X65900000Y-38050000D01*
X97200000Y-32210000D02*
X97200000Y-38110000D01*
D75*
X73000000Y-57730000D02*
X73000000Y-57180000D01*
X74600000Y-90099500D02*
X74499500Y-90200000D01*
X81400000Y-54650000D02*
X81400000Y-56300000D01*
X71800000Y-90299500D02*
X71799500Y-90300000D01*
D73*
X118137500Y-28550000D02*
X121250000Y-28550000D01*
D74*
X34225000Y-36275000D02*
X34200000Y-36300000D01*
D75*
X110795349Y-75767500D02*
X110300000Y-76262849D01*
D74*
X115550000Y-80367500D02*
X115750000Y-80167500D01*
D75*
X73101360Y-57078640D02*
X73101360Y-56078730D01*
D73*
X72300000Y-36800000D02*
X72300000Y-38050000D01*
D74*
X105775000Y-100500000D02*
X104800000Y-100500000D01*
D75*
X85000000Y-88570000D02*
X85000000Y-89713188D01*
D73*
X65100000Y-41200000D02*
X65100000Y-38850000D01*
D76*
X94500000Y-32845000D02*
X96535000Y-32845000D01*
D75*
X83800000Y-56709258D02*
X83800000Y-57730000D01*
X82600000Y-57730000D02*
X82600000Y-57080978D01*
D73*
X115925000Y-151617500D02*
X115925000Y-143317500D01*
X103750000Y-49650000D02*
X103700000Y-49700000D01*
D75*
X132900000Y-78700000D02*
X135200000Y-78700000D01*
D78*
X30385000Y-99000000D02*
X30385000Y-100200000D01*
D73*
X108012500Y-136900000D02*
X109100000Y-136900000D01*
D75*
X89800000Y-89310755D02*
X90299362Y-89810117D01*
D74*
X130575000Y-57525000D02*
X130600000Y-57500000D01*
D75*
X73000000Y-54650000D02*
X73000000Y-55977370D01*
D76*
X114425000Y-106730000D02*
X114455000Y-106700000D01*
D75*
X82200000Y-90580978D02*
X82880978Y-89900000D01*
X82880978Y-89900000D02*
X83430738Y-89900000D01*
D76*
X114425000Y-108900000D02*
X114425000Y-107800000D01*
D75*
X79000489Y-55299511D02*
X79000000Y-55299022D01*
X73000000Y-88570000D02*
X73000000Y-89219022D01*
D73*
X115925000Y-143317500D02*
X117882500Y-143317500D01*
D75*
X89800000Y-57730000D02*
X89800000Y-58872000D01*
X76600000Y-54650000D02*
X76600000Y-56100000D01*
X80600000Y-89400500D02*
X81199500Y-90000000D01*
D77*
X27685000Y-94200000D02*
X29385000Y-94200000D01*
D74*
X115317500Y-73667500D02*
X116350000Y-73667500D01*
D73*
X72300000Y-39300000D02*
X72300000Y-38050000D01*
D75*
X71919022Y-90300000D02*
X71799500Y-90300000D01*
X77800000Y-54650000D02*
X77800000Y-56100000D01*
X74200000Y-54650000D02*
X74200000Y-56100000D01*
D72*
X39137500Y-68050000D02*
X40550000Y-68050000D01*
D75*
X84600000Y-90113188D02*
X84864137Y-89849051D01*
D74*
X126413250Y-65025000D02*
X130575000Y-65025000D01*
D75*
X82600000Y-57080978D02*
X81819022Y-56300000D01*
D73*
X106750000Y-151450000D02*
X106700000Y-151500000D01*
D74*
X130575000Y-65025000D02*
X130600000Y-65000000D01*
D73*
X121150000Y-35950000D02*
X121200000Y-36000000D01*
D75*
X76693370Y-90694348D02*
X76299500Y-90694348D01*
X85000000Y-55602375D02*
X85276001Y-55878376D01*
D73*
X98900000Y-38710000D02*
X99700000Y-39510000D01*
D74*
X113950000Y-78967500D02*
X113950000Y-79767500D01*
D73*
X102175000Y-141125000D02*
X102200000Y-141100000D01*
D75*
X80200000Y-55299022D02*
X80199511Y-55299511D01*
D72*
X104925000Y-109720000D02*
X103825000Y-109720000D01*
D75*
X72299022Y-90300000D02*
X71799500Y-90300000D01*
D74*
X130575000Y-59025000D02*
X130600000Y-59000000D01*
D75*
X87400000Y-58881000D02*
X87390000Y-58891000D01*
D73*
X113200000Y-29920000D02*
X116767500Y-29920000D01*
D75*
X77000000Y-91650000D02*
X77000000Y-91000978D01*
D74*
X34225000Y-37775000D02*
X34200000Y-37800000D01*
X126413250Y-62025000D02*
X130575000Y-62025000D01*
D73*
X100400000Y-40210000D02*
X99700000Y-39510000D01*
D74*
X113950000Y-79767500D02*
X114550000Y-80367500D01*
X116550000Y-79367500D02*
X115750000Y-80167500D01*
X36686750Y-37775000D02*
X34225000Y-37775000D01*
D73*
X102175000Y-143317500D02*
X102175000Y-141125000D01*
D75*
X85000000Y-57730000D02*
X85000000Y-58885000D01*
X107417600Y-104590600D02*
X108194600Y-104590600D01*
X75400000Y-54650000D02*
X75400000Y-56100000D01*
X78600000Y-90383871D02*
X78899500Y-90683371D01*
X75000000Y-91650000D02*
X75000000Y-90700500D01*
X83523999Y-55487970D02*
X83523999Y-56433257D01*
X73000000Y-57180000D02*
X73101360Y-57078640D01*
X79000000Y-91650000D02*
X79000000Y-90783871D01*
X76600000Y-57730000D02*
X76600000Y-56100000D01*
X71800000Y-88570000D02*
X71800000Y-90299500D01*
X71800000Y-55980788D02*
X71744427Y-56036361D01*
D74*
X112050000Y-134250000D02*
X112000000Y-134200000D01*
D75*
X85276001Y-55878376D02*
X85276001Y-56433257D01*
D74*
X34225000Y-40775000D02*
X34200000Y-40800000D01*
D76*
X114425000Y-107800000D02*
X114425000Y-106730000D01*
D74*
X36686750Y-33275000D02*
X34225000Y-33275000D01*
X116550000Y-79135000D02*
X116550000Y-79367500D01*
D76*
X98390000Y-29720000D02*
X97850000Y-30260000D01*
D74*
%TO.N,Net-(C27-Pad1)*%
X113450000Y-78967500D02*
X113450000Y-80332500D01*
X113450000Y-80332500D02*
X113415000Y-80367500D01*
D79*
%TO.N,Net-(C26-Pad1)*%
X113950000Y-75067500D02*
X113950000Y-73900000D01*
X113950000Y-73900000D02*
X114182500Y-73667500D01*
D75*
%TO.N,/SIL-Motherboard/SCL0*%
X96100000Y-75400000D02*
X95900000Y-75400000D01*
X112450000Y-74612849D02*
X112180131Y-74342980D01*
X97157020Y-74342980D02*
X96100000Y-75400000D01*
X86200000Y-88570000D02*
X86200000Y-84100000D01*
X86200000Y-84100000D02*
X86300000Y-84000000D01*
X112180131Y-74342980D02*
X97157020Y-74342980D01*
X112450000Y-75067500D02*
X112450000Y-74612849D01*
%TO.N,/SIL-Motherboard/SDA0*%
X96700000Y-76700000D02*
X98332500Y-75067500D01*
X86600000Y-88570000D02*
X86600000Y-85200000D01*
X86600000Y-85200000D02*
X87100000Y-84700000D01*
X98332500Y-75067500D02*
X111950000Y-75067500D01*
D73*
%TO.N,Net-(R13-Pad2)*%
X102400000Y-44997346D02*
X102400000Y-44800000D01*
X103750000Y-46162500D02*
X103565154Y-46162500D01*
X103565154Y-46162500D02*
X102400000Y-44997346D01*
D75*
%TO.N,Net-(Module1-Pad21)*%
X116100000Y-49000000D02*
X116100000Y-47610000D01*
X74600000Y-91650000D02*
X74600000Y-93500000D01*
X116100000Y-47610000D02*
X116110000Y-47600000D01*
X74600000Y-93500000D02*
X74500000Y-93600000D01*
D76*
%TO.N,FB*%
X90900000Y-30300000D02*
X89600000Y-30300000D01*
X94500000Y-30305000D02*
X90905000Y-30305000D01*
X90905000Y-30305000D02*
X90900000Y-30300000D01*
%TO.N,Net-(R3-Pad1)*%
X99410000Y-28810000D02*
X99410000Y-29815000D01*
X99410000Y-29815000D02*
X99900000Y-30305000D01*
D72*
%TO.N,Net-(C2-Pad2)*%
X109690000Y-34785000D02*
X109900000Y-34575000D01*
X109690000Y-36100000D02*
X107550000Y-36100000D01*
X109690000Y-36100000D02*
X109690000Y-34785000D01*
D73*
X105260000Y-33810000D02*
X106250000Y-34800000D01*
D72*
X107550000Y-36100000D02*
X106250000Y-34800000D01*
D73*
X104900000Y-33810000D02*
X105260000Y-33810000D01*
D75*
%TO.N,/SIL-Motherboard/SD_PWR_ON*%
X106140000Y-135900000D02*
X106150000Y-135890000D01*
D73*
X106210000Y-135950000D02*
X106150000Y-135890000D01*
X106044114Y-135900000D02*
X105224500Y-135080386D01*
D75*
X85400000Y-91650000D02*
X85400000Y-93000000D01*
D73*
X108012500Y-135950000D02*
X106210000Y-135950000D01*
X106140000Y-135900000D02*
X106044114Y-135900000D01*
D74*
%TO.N,/SIL-Motherboard/USBOTG_ID*%
X105775000Y-101520000D02*
X107075000Y-101520000D01*
D75*
X70600000Y-57730000D02*
X70600000Y-59864000D01*
D74*
X107075000Y-101520000D02*
X107075000Y-102266800D01*
D75*
X105769000Y-101514000D02*
X105775000Y-101520000D01*
X70600000Y-59864000D02*
X70655000Y-59919000D01*
D74*
X107075000Y-102266800D02*
X107417600Y-102609400D01*
D75*
X104858000Y-101514000D02*
X105769000Y-101514000D01*
D74*
%TO.N,/SIL-Motherboard/1V8*%
X108272500Y-116327500D02*
X108300000Y-116300000D01*
X112025000Y-109342500D02*
X111057500Y-109342500D01*
X106825000Y-116327500D02*
X108272500Y-116327500D01*
X113022500Y-109342500D02*
X113465000Y-108900000D01*
X112025000Y-109342500D02*
X113022500Y-109342500D01*
X113465000Y-108900000D02*
X113465000Y-107800000D01*
X111057500Y-109342500D02*
X110500000Y-109900000D01*
D72*
%TO.N,Net-(C21-Pad2)*%
X113250000Y-120480000D02*
X113362996Y-120480000D01*
X113959520Y-115992020D02*
X113025000Y-115057500D01*
X113362996Y-120480000D02*
X113959520Y-119883476D01*
X113959520Y-119883476D02*
X113959520Y-115992020D01*
X111755000Y-120480000D02*
X111275000Y-120000000D01*
X113025000Y-115057500D02*
X112025000Y-115057500D01*
X113250000Y-120480000D02*
X111755000Y-120480000D01*
D74*
%TO.N,/SIL-Motherboard/SD_PWR*%
X108950000Y-147951412D02*
X108490924Y-147492336D01*
X112050000Y-137082907D02*
X111875500Y-137257407D01*
X112050000Y-136280000D02*
X112050000Y-137082907D01*
X108950000Y-149017500D02*
X108950000Y-147951412D01*
X111720000Y-135950000D02*
X112050000Y-136280000D01*
X110287500Y-135950000D02*
X111720000Y-135950000D01*
D75*
%TO.N,/SIL-Motherboard/HDMI_5v*%
X124225000Y-65525000D02*
X124200000Y-65500000D01*
D73*
X105000000Y-51300000D02*
X101891000Y-51300000D01*
D75*
X126413250Y-65525000D02*
X124225000Y-65525000D01*
X39075000Y-32775000D02*
X39098846Y-32775000D01*
D73*
X94691000Y-44100000D02*
X63900000Y-44100000D01*
X101891000Y-51300000D02*
X94691000Y-44100000D01*
D75*
X39098846Y-32775000D02*
X39100260Y-32773586D01*
D74*
X39075000Y-32775000D02*
X36686750Y-32775000D01*
D73*
%TO.N,/SIL-Motherboard/+3v3_Reg*%
X72300000Y-30800000D02*
X77800000Y-25300000D01*
X72300000Y-34900000D02*
X72300000Y-30800000D01*
X105700000Y-20300000D02*
X105700000Y-19042500D01*
X100700000Y-25300000D02*
X105700000Y-20300000D01*
X77800000Y-25300000D02*
X100700000Y-25300000D01*
X72300000Y-34900000D02*
X67400000Y-34900000D01*
X67400000Y-41200000D02*
X67400000Y-34900000D01*
D72*
%TO.N,Net-(J5-Pad1)*%
X132425000Y-77500000D02*
X131641000Y-78284000D01*
X131641000Y-78284000D02*
X131641000Y-79071000D01*
X132900000Y-77500000D02*
X132425000Y-77500000D01*
X107075000Y-100500000D02*
X108095000Y-100500000D01*
X108095000Y-100500000D02*
X108124000Y-100471000D01*
D75*
%TO.N,/SIL-Motherboard/5V*%
X87800000Y-91650000D02*
X87800000Y-93000000D01*
X86900000Y-93000000D02*
X87800000Y-93000000D01*
X86600000Y-91650000D02*
X86600000Y-92200000D01*
X86600000Y-92200000D02*
X87400000Y-93000000D01*
X87400000Y-91650000D02*
X87400000Y-92600000D01*
X87400000Y-92600000D02*
X87800000Y-93000000D01*
X87800000Y-91650000D02*
X87400000Y-91650000D01*
D73*
X96550000Y-98350000D02*
X95150000Y-98350000D01*
D75*
X86600000Y-91650000D02*
X87000000Y-91650000D01*
X87400000Y-93000000D02*
X87800000Y-93000000D01*
X86200000Y-91650000D02*
X86200000Y-92300000D01*
D73*
X95150000Y-98350000D02*
X95100000Y-98300000D01*
D75*
X87000000Y-91650000D02*
X87000000Y-92200000D01*
X86200000Y-92300000D02*
X86900000Y-93000000D01*
X85800000Y-91650000D02*
X85800000Y-92400000D01*
X85800000Y-92400000D02*
X86400000Y-93000000D01*
X86400000Y-93000000D02*
X87800000Y-93000000D01*
X87000000Y-92200000D02*
X87800000Y-93000000D01*
X85800000Y-91650000D02*
X86200000Y-91650000D01*
D76*
%TO.N,Net-(C11-Pad1)*%
X100815000Y-35030000D02*
X101500000Y-35030000D01*
X99900000Y-34115000D02*
X100815000Y-35030000D01*
%TO.N,Net-(C10-Pad1)*%
X92255000Y-31575000D02*
X92200000Y-31630000D01*
X94500000Y-31575000D02*
X92255000Y-31575000D01*
%TO.N,Net-(C11-Pad2)*%
X94095000Y-34115000D02*
X92900000Y-35310000D01*
X89800000Y-38410000D02*
X89800000Y-38710000D01*
D73*
X89015000Y-37925000D02*
X89800000Y-38710000D01*
D76*
X100320000Y-35990000D02*
X100300000Y-36010000D01*
D73*
X81500000Y-37925000D02*
X89015000Y-37925000D01*
D76*
X101500000Y-35990000D02*
X100320000Y-35990000D01*
X94500000Y-34115000D02*
X94095000Y-34115000D01*
X92900000Y-35310000D02*
X89800000Y-38410000D01*
D75*
%TO.N,/SIL-Motherboard/USB2_P*%
X107417600Y-104108000D02*
X108992000Y-104108000D01*
D80*
X71510294Y-58806451D02*
X71724549Y-58806451D01*
X71400000Y-58696157D02*
X71510294Y-58806451D01*
D75*
X108992000Y-104108000D02*
X109100000Y-104000000D01*
D80*
X71400000Y-57730000D02*
X71400000Y-58696157D01*
%TO.N,/SIL-Motherboard/USB2_N*%
X71227451Y-59089294D02*
X71227451Y-59303549D01*
D75*
X111532400Y-104590600D02*
X110630300Y-104590600D01*
X110630300Y-104590600D02*
X110465032Y-104755868D01*
D80*
X71000000Y-57730000D02*
X71000000Y-58861843D01*
X71000000Y-58861843D02*
X71227451Y-59089294D01*
D75*
%TO.N,/SIL-Motherboard/+3v3_CM4*%
X85800000Y-88570000D02*
X85800000Y-87920978D01*
D73*
X116085000Y-46200000D02*
X116085000Y-45934976D01*
D75*
X85800000Y-87920978D02*
X85279022Y-87400000D01*
X85279022Y-87400000D02*
X84800000Y-87400000D01*
X87400000Y-88570000D02*
X87400000Y-86074823D01*
X87400000Y-86074823D02*
X87832033Y-85642790D01*
D73*
X116085000Y-45934976D02*
X108550024Y-38400000D01*
X108300000Y-19042500D02*
X108300000Y-21000000D01*
D75*
X87400000Y-88570000D02*
X87000000Y-88570000D01*
D73*
X108550024Y-38400000D02*
X106100000Y-38400000D01*
D75*
%TO.N,/SIL-Motherboard/GPIO2*%
X82069948Y-87750052D02*
X82205932Y-87750052D01*
X82755496Y-87200489D02*
X82755496Y-86955327D01*
X81800000Y-88570000D02*
X81800000Y-88020000D01*
X82755496Y-86955327D02*
X83035984Y-86674839D01*
X81800000Y-88020000D02*
X82069948Y-87750052D01*
X82205932Y-87750052D02*
X82755496Y-87200489D01*
%TO.N,/SIL-Motherboard/GPIO3*%
X81400000Y-87566742D02*
X81977980Y-86988762D01*
X81400000Y-88570000D02*
X81400000Y-87566742D01*
%TO.N,/SIL-Motherboard/GPIO4*%
X81469488Y-86274989D02*
X81469488Y-86128272D01*
X81215546Y-86651158D02*
X81215546Y-86528931D01*
X81215546Y-86528931D02*
X81469488Y-86274989D01*
X81213492Y-86792048D02*
X81213492Y-86653212D01*
X81000000Y-88570000D02*
X81000000Y-87005540D01*
X81000000Y-87005540D02*
X81213492Y-86792048D01*
X81213492Y-86653212D02*
X81215546Y-86651158D01*
%TO.N,/SIL-Motherboard/GPIO14*%
X81400000Y-91650000D02*
X81400000Y-92700230D01*
X81400000Y-92700230D02*
X81305982Y-92794248D01*
%TO.N,/SIL-Motherboard/GPIO15*%
X80600000Y-91650000D02*
X80600000Y-111954345D01*
X78289511Y-114264834D02*
X78289511Y-115890489D01*
X80600000Y-111954345D02*
X78289511Y-114264834D01*
X78289511Y-115890489D02*
X77140000Y-117040000D01*
%TO.N,/SIL-Motherboard/GPIO17*%
X80200000Y-86816295D02*
X80499500Y-86516795D01*
X80200000Y-88570000D02*
X80200000Y-86816295D01*
%TO.N,/SIL-Motherboard/GPIO18*%
X75990489Y-114023856D02*
X75990489Y-115649511D01*
X80200000Y-109814345D02*
X75990489Y-114023856D01*
X75990489Y-115649511D02*
X74600000Y-117040000D01*
X80200000Y-91650000D02*
X80200000Y-109814345D01*
%TO.N,/SIL-Motherboard/GPIO27*%
X79800000Y-88570000D02*
X79800000Y-86129107D01*
X79800000Y-86129107D02*
X80415266Y-85513841D01*
X80415266Y-85513841D02*
X80681149Y-85513841D01*
%TO.N,/SIL-Motherboard/GPIO22*%
X80750142Y-84517592D02*
X80750142Y-84138602D01*
X80453394Y-84814340D02*
X80750142Y-84517592D01*
X80391405Y-84814340D02*
X80453394Y-84814340D01*
X79400000Y-85805745D02*
X80391405Y-84814340D01*
X79400000Y-88570000D02*
X79400000Y-85805745D01*
%TO.N,/SIL-Motherboard/GPIO23*%
X70910489Y-114023856D02*
X79800000Y-105134345D01*
X79800000Y-105134345D02*
X79800000Y-91650000D01*
X69520000Y-117040000D02*
X70910489Y-115649511D01*
X70910489Y-115649511D02*
X70910489Y-114023856D01*
%TO.N,/SIL-Motherboard/GPIO24*%
X68370489Y-115649511D02*
X68370489Y-114023856D01*
X66980000Y-117040000D02*
X68370489Y-115649511D01*
X79400000Y-102994345D02*
X79400000Y-91650000D01*
X68370489Y-114023856D02*
X79400000Y-102994345D01*
%TO.N,/SIL-Motherboard/GPIO10*%
X79000000Y-88570000D02*
X79000000Y-85216501D01*
X79000000Y-85216501D02*
X79713068Y-84503433D01*
%TO.N,/SIL-Motherboard/GPIO9*%
X78200000Y-85027256D02*
X79423324Y-83803932D01*
X78200000Y-88570000D02*
X78200000Y-85027256D01*
X79756242Y-83533004D02*
X79952386Y-83533004D01*
X79423324Y-83803932D02*
X79485314Y-83803932D01*
X79485314Y-83803932D02*
X79756242Y-83533004D01*
%TO.N,/SIL-Motherboard/GPIO25*%
X65589511Y-114264834D02*
X65589511Y-114976144D01*
X65589511Y-114976144D02*
X64675166Y-115890489D01*
X64675166Y-115890489D02*
X63049511Y-115890489D01*
X78600000Y-91650000D02*
X78600000Y-101254345D01*
X63049511Y-115890489D02*
X61900000Y-117040000D01*
X78600000Y-101254345D02*
X65589511Y-114264834D01*
%TO.N,/SIL-Motherboard/GPIO11*%
X79662642Y-82833503D02*
X79666497Y-82833503D01*
X77800000Y-84696145D02*
X79662642Y-82833503D01*
X77800000Y-88570000D02*
X77800000Y-84696145D01*
X79666497Y-82833503D02*
X80000000Y-82500000D01*
%TO.N,/SIL-Motherboard/GPIO8*%
X78200000Y-91650000D02*
X78200000Y-101000000D01*
X66400489Y-112799511D02*
X64514834Y-112799511D01*
X63049511Y-114264834D02*
X63049511Y-114976144D01*
X63049511Y-114976144D02*
X62135166Y-115890489D01*
X60509511Y-115890489D02*
X59360000Y-117040000D01*
X78200000Y-101000000D02*
X66400489Y-112799511D01*
X62135166Y-115890489D02*
X60509511Y-115890489D01*
X64514834Y-112799511D02*
X63049511Y-114264834D01*
%TO.N,/SIL-Motherboard/GPIO7*%
X57969511Y-115890489D02*
X56820000Y-117040000D01*
X77800000Y-100400000D02*
X65800000Y-112400000D01*
X59595166Y-115890489D02*
X57969511Y-115890489D01*
X60509511Y-114264834D02*
X60509511Y-114976144D01*
X65800000Y-112400000D02*
X62374345Y-112400000D01*
X60509511Y-114976144D02*
X59595166Y-115890489D01*
X77800000Y-91650000D02*
X77800000Y-100400000D01*
X62374345Y-112400000D02*
X60509511Y-114264834D01*
%TO.N,/SIL-Motherboard/ID_SD*%
X77400000Y-88570000D02*
X77400000Y-84100000D01*
X33910000Y-79590000D02*
X36825000Y-79590000D01*
X77400000Y-84100000D02*
X79000000Y-82500000D01*
X33900000Y-79600000D02*
X33910000Y-79590000D01*
%TO.N,/SIL-Motherboard/ID_SC*%
X55670489Y-115649511D02*
X55670489Y-114023856D01*
X54280000Y-117040000D02*
X55670489Y-115649511D01*
X77400000Y-99900000D02*
X77400000Y-91650000D01*
X55670489Y-114023856D02*
X57894345Y-111800000D01*
X34000000Y-77000000D02*
X34050000Y-77050000D01*
X65500000Y-111800000D02*
X77400000Y-99900000D01*
X57894345Y-111800000D02*
X65500000Y-111800000D01*
X34050000Y-77050000D02*
X36825000Y-77050000D01*
%TO.N,/SIL-Motherboard/GPIO5*%
X77000000Y-88570000D02*
X77000000Y-83500000D01*
X77000000Y-83500000D02*
X78000000Y-82500000D01*
%TO.N,/SIL-Motherboard/GPIO6*%
X76200000Y-88570000D02*
X76200000Y-83300000D01*
X76200000Y-83300000D02*
X77000000Y-82500000D01*
%TO.N,/SIL-Motherboard/GPIO12*%
X65500000Y-111000000D02*
X55200000Y-111000000D01*
X55200000Y-111000000D02*
X52889511Y-113310489D01*
X76600000Y-91650000D02*
X76600000Y-99900000D01*
X52889511Y-114976144D02*
X51975166Y-115890489D01*
X50349511Y-115890489D02*
X49200000Y-117040000D01*
X52889511Y-113310489D02*
X52889511Y-114976144D01*
X76600000Y-99900000D02*
X65500000Y-111000000D01*
X51975166Y-115890489D02*
X50349511Y-115890489D01*
%TO.N,/SIL-Motherboard/GPIO13*%
X75800000Y-88570000D02*
X75800000Y-82700000D01*
X75800000Y-82700000D02*
X76000000Y-82500000D01*
%TO.N,/SIL-Motherboard/GPIO19*%
X75400000Y-88570000D02*
X75400000Y-83000000D01*
X75400000Y-83000000D02*
X74900000Y-82500000D01*
%TO.N,/SIL-Motherboard/GPIO16*%
X49676144Y-115649511D02*
X50349511Y-114976144D01*
X50349511Y-114264834D02*
X54214345Y-110400000D01*
X65400000Y-110400000D02*
X76200000Y-99600000D01*
X44120000Y-117040000D02*
X45510489Y-115649511D01*
X45510489Y-115649511D02*
X49676144Y-115649511D01*
X54214345Y-110400000D02*
X65400000Y-110400000D01*
X50349511Y-114976144D02*
X50349511Y-114264834D01*
X76200000Y-99600000D02*
X76200000Y-91650000D01*
%TO.N,/SIL-Motherboard/GPIO26*%
X75000000Y-83600000D02*
X73900000Y-82500000D01*
X75000000Y-88570000D02*
X75000000Y-83600000D01*
%TO.N,/SIL-Motherboard/GPIO20*%
X49000000Y-110000000D02*
X45269511Y-113730489D01*
X75800000Y-99400000D02*
X65200000Y-110000000D01*
X65200000Y-110000000D02*
X49000000Y-110000000D01*
X42729511Y-115890489D02*
X41580000Y-117040000D01*
X45269511Y-114976144D02*
X44355166Y-115890489D01*
X75800000Y-91650000D02*
X75800000Y-99400000D01*
X44355166Y-115890489D02*
X42729511Y-115890489D01*
X45269511Y-113730489D02*
X45269511Y-114976144D01*
%TO.N,/SIL-Motherboard/GPIO21*%
X40189511Y-115890489D02*
X40189511Y-114264834D01*
X75400000Y-99100000D02*
X75400000Y-91650000D01*
X39040000Y-117040000D02*
X40189511Y-115890489D01*
X65000000Y-109500000D02*
X75400000Y-99100000D01*
X44954345Y-109500000D02*
X65000000Y-109500000D01*
X40189511Y-114264834D02*
X44954345Y-109500000D01*
%TO.N,/SIL-Motherboard/nRPiBOOT*%
X88800489Y-90565482D02*
X88800490Y-90471468D01*
X88800490Y-90471468D02*
X88029022Y-89700000D01*
X88029022Y-89700000D02*
X87300000Y-89700000D01*
X89000000Y-91650000D02*
X89000000Y-90764994D01*
X89000000Y-90764994D02*
X88800489Y-90565482D01*
%TO.N,/SIL-Motherboard/EEPROM_nWP*%
X69000000Y-84200000D02*
X69000000Y-83514345D01*
X72409011Y-85800000D02*
X70400000Y-85800000D01*
X39340000Y-53854345D02*
X39340000Y-52940000D01*
X69000000Y-83514345D02*
X39340000Y-53854345D01*
X74200000Y-88570000D02*
X74200000Y-87590989D01*
X74200000Y-87590989D02*
X72409011Y-85800000D01*
%TO.N,/SIL-Motherboard/AIN0*%
X89400000Y-83700000D02*
X89600000Y-83500000D01*
X89400000Y-88570000D02*
X89400000Y-83700000D01*
%TO.N,/SIL-Motherboard/AIN1*%
X89000000Y-88570000D02*
X89000000Y-84525693D01*
X89000000Y-84525693D02*
X88700500Y-84226193D01*
%TO.N,/SIL-Motherboard/SYNC_IN*%
X73400000Y-87920978D02*
X72979022Y-87500000D01*
X72979022Y-87500000D02*
X69000000Y-87500000D01*
X73400000Y-88570000D02*
X73400000Y-87920978D01*
%TO.N,/SIL-Motherboard/SYNC_OUT*%
X35650489Y-63576144D02*
X36474345Y-64400000D01*
X35650489Y-61709511D02*
X35650489Y-63576144D01*
X36800000Y-60560000D02*
X35650489Y-61709511D01*
X36474345Y-64400000D02*
X48000000Y-64400000D01*
X69800000Y-86700000D02*
X72744015Y-86700000D01*
X72744015Y-86700000D02*
X73800000Y-87755985D01*
X48000000Y-64400000D02*
X68800000Y-85200000D01*
X73800000Y-87755985D02*
X73800000Y-88570000D01*
%TO.N,/SIL-Motherboard/TV_OUT*%
X72600000Y-56987356D02*
X72401859Y-56789215D01*
X45250489Y-61950489D02*
X37949511Y-61950489D01*
X72600000Y-57730000D02*
X72600000Y-56987356D01*
X46100000Y-62800000D02*
X45250489Y-61950489D01*
X37949511Y-61950489D02*
X36800000Y-63100000D01*
D72*
%TO.N,Net-(J11-Pad13)*%
X35925000Y-74025000D02*
X40075000Y-74025000D01*
X36812500Y-68000000D02*
X36862500Y-68050000D01*
X34225000Y-74025000D02*
X34200000Y-74000000D01*
X36862500Y-68050000D02*
X36862500Y-65702500D01*
X35925000Y-74025000D02*
X34225000Y-74025000D01*
X36862500Y-65702500D02*
X36800000Y-65640000D01*
X35300000Y-68000000D02*
X36812500Y-68000000D01*
%TO.N,/SIL-Motherboard/GLOBAL_EN*%
X35925000Y-71875000D02*
X34125000Y-71875000D01*
D75*
X89899022Y-90700000D02*
X89500000Y-90700000D01*
X89500000Y-90700000D02*
X89300000Y-90500000D01*
D72*
X32100000Y-85000000D02*
X36200000Y-85000000D01*
X31100000Y-74900000D02*
X31100000Y-84000000D01*
X35925000Y-71875000D02*
X40075000Y-71875000D01*
X40075000Y-71875000D02*
X40725000Y-71875000D01*
D75*
X57100000Y-65900000D02*
X54200000Y-65900000D01*
X89300000Y-90500000D02*
X89300000Y-89800000D01*
D72*
X34125000Y-71875000D02*
X31100000Y-74900000D01*
D75*
X90200000Y-91000978D02*
X89899022Y-90700000D01*
D72*
X31100000Y-84000000D02*
X32100000Y-85000000D01*
X40725000Y-71875000D02*
X42500000Y-70100000D01*
D75*
X90200000Y-91650000D02*
X90200000Y-91000978D01*
X54200000Y-65900000D02*
X53500000Y-66600000D01*
%TO.N,/SIL-Motherboard/WiFi_Disable*%
X44600499Y-84700499D02*
X44900000Y-85000000D01*
X40199501Y-84700499D02*
X44600499Y-84700499D01*
X39900000Y-85000000D02*
X40199501Y-84700499D01*
X85835125Y-91000489D02*
X85524814Y-90690178D01*
X88105510Y-91000489D02*
X85835125Y-91000489D01*
X44900000Y-85000000D02*
X45816243Y-85000000D01*
X88200000Y-91094980D02*
X88105510Y-91000489D01*
X88200000Y-91650000D02*
X88200000Y-91094980D01*
X45816243Y-85000000D02*
X46502743Y-85686500D01*
%TO.N,/SIL-Motherboard/BT_Disable*%
X88600000Y-90929987D02*
X88400976Y-90730960D01*
X41120000Y-90080000D02*
X39900000Y-90080000D01*
X88364997Y-90600969D02*
X86823535Y-90600969D01*
X88600000Y-91650000D02*
X88600000Y-90929987D01*
X88400976Y-90730960D02*
X88400978Y-90636950D01*
X45500000Y-85700000D02*
X41120000Y-90080000D01*
X86823535Y-90600969D02*
X86352627Y-90130061D01*
X88400978Y-90636950D02*
X88364997Y-90600969D01*
D72*
%TO.N,/SIL-Motherboard/RUN_PG*%
X36300000Y-69000000D02*
X35300000Y-70000000D01*
D75*
X60700000Y-94400000D02*
X40520000Y-94400000D01*
X85185062Y-81700000D02*
X73400000Y-81700000D01*
D72*
X39137500Y-69000000D02*
X36300000Y-69000000D01*
D75*
X88600000Y-88570000D02*
X88600000Y-85114938D01*
X73400000Y-81700000D02*
X60700000Y-94400000D01*
X88600000Y-85114938D02*
X85185062Y-81700000D01*
X40520000Y-94400000D02*
X36200000Y-90080000D01*
%TO.N,/SIL-Motherboard/SD_DAT1*%
X83800000Y-91650000D02*
X83800000Y-92299022D01*
X83800000Y-92299022D02*
X83600000Y-92499022D01*
X83600000Y-102500000D02*
X108247410Y-127147410D01*
X108247410Y-127147410D02*
X108247410Y-127424635D01*
D74*
X104550000Y-149017500D02*
X104550000Y-147050000D01*
D75*
X83600000Y-92499022D02*
X83600000Y-102500000D01*
D74*
X104550000Y-147050000D02*
X104500000Y-147000000D01*
%TO.N,/SIL-Motherboard/SD_DAT0*%
X105650000Y-147050000D02*
X105700000Y-147000000D01*
D75*
X107280499Y-126745493D02*
X107280499Y-127171479D01*
D74*
X105650000Y-149017500D02*
X105650000Y-147050000D01*
D75*
X83000000Y-91650000D02*
X83000000Y-102464994D01*
X83000000Y-102464994D02*
X107280499Y-126745493D01*
%TO.N,/SIL-Motherboard/SD_CLK*%
X82200000Y-92699022D02*
X82200000Y-107000000D01*
X82200000Y-107000000D02*
X85800000Y-110600000D01*
X105166953Y-126066953D02*
X105166953Y-127119706D01*
D74*
X107850000Y-149017500D02*
X107693180Y-148860680D01*
D75*
X81800000Y-91650000D02*
X81800000Y-92299022D01*
D74*
X107693180Y-148860680D02*
X107693180Y-146890165D01*
D75*
X85800000Y-110600000D02*
X89700000Y-110600000D01*
X89700000Y-110600000D02*
X105166953Y-126066953D01*
X81800000Y-92299022D02*
X82200000Y-92699022D01*
D74*
%TO.N,/SIL-Motherboard/SD_CMD*%
X110050000Y-149017500D02*
X110050000Y-146325500D01*
D75*
X83020978Y-87500000D02*
X83600000Y-87500000D01*
X84899500Y-101799500D02*
X110400000Y-127300000D01*
X84899500Y-94427855D02*
X84899500Y-101799500D01*
X82600000Y-88570000D02*
X82600000Y-87920978D01*
D74*
X110050000Y-146325500D02*
X110500049Y-145875451D01*
D75*
X82600000Y-87920978D02*
X83020978Y-87500000D01*
%TO.N,/SIL-Motherboard/SD_DAT3*%
X82600000Y-102900000D02*
X106165718Y-126465718D01*
X106165718Y-126465718D02*
X106165718Y-127081296D01*
D74*
X111150000Y-149017500D02*
X111150000Y-147050000D01*
X111150000Y-147050000D02*
X111200000Y-147000000D01*
D75*
X82600000Y-91650000D02*
X82600000Y-102900000D01*
D74*
%TO.N,/SIL-Motherboard/SD_DAT2*%
X112250000Y-149017500D02*
X112250000Y-147050000D01*
D75*
X84200000Y-91650000D02*
X84200000Y-102089244D01*
D74*
X112250000Y-147050000D02*
X112300000Y-147000000D01*
D75*
X84200000Y-102089244D02*
X109228585Y-127117829D01*
%TO.N,/SIL-Motherboard/+1v8*%
X87800000Y-88570000D02*
X88200000Y-88570000D01*
D74*
%TO.N,/SIL-Motherboard/nPWR_LED*%
X102800000Y-48437500D02*
X102800000Y-49596373D01*
D75*
X89400000Y-92800000D02*
X89900000Y-93300000D01*
D74*
X102800000Y-49596373D02*
X102650461Y-49745912D01*
D75*
X89400000Y-91650000D02*
X89400000Y-92800000D01*
%TO.N,/SIL-Motherboard/HDMI1_HOTPLUG*%
X84380000Y-66458000D02*
X79000000Y-61078000D01*
X124709000Y-66025000D02*
X124276000Y-66458000D01*
X126413250Y-66025000D02*
X124709000Y-66025000D01*
X124276000Y-66458000D02*
X84380000Y-66458000D01*
X79000000Y-61078000D02*
X79000000Y-57730000D01*
%TO.N,/SIL-Motherboard/HDMI1_SDA*%
X126413250Y-64525000D02*
X83192000Y-64525000D01*
X83192000Y-64525000D02*
X79400000Y-60733000D01*
X79400000Y-60733000D02*
X79400000Y-57730000D01*
D81*
%TO.N,/SIL-Motherboard/HDMI1_D2_P*%
X110807702Y-57335000D02*
X124153249Y-57335000D01*
X124153249Y-57335000D02*
X124463249Y-57025000D01*
X79410000Y-54114999D02*
X79410000Y-53292298D01*
X96930702Y-48689000D02*
X100303702Y-52062000D01*
X79400000Y-54124999D02*
X79410000Y-54114999D01*
X124463249Y-57025000D02*
X126413250Y-57025000D01*
X100303702Y-52062000D02*
X105534702Y-52062000D01*
X105534702Y-52062000D02*
X110807702Y-57335000D01*
X84013298Y-48689000D02*
X96930702Y-48689000D01*
X79410000Y-53292298D02*
X84013298Y-48689000D01*
X79400000Y-54650000D02*
X79400000Y-54124999D01*
D75*
%TO.N,/SIL-Motherboard/HDMI1_SCL*%
X83311000Y-64025000D02*
X79800000Y-60514000D01*
X126413250Y-64025000D02*
X83311000Y-64025000D01*
X79800000Y-60514000D02*
X79800000Y-57730000D01*
D81*
%TO.N,/SIL-Motherboard/HDMI1_D2_N*%
X79800000Y-54650000D02*
X79800000Y-54124999D01*
X105377298Y-52442000D02*
X110650298Y-57715000D01*
X84170702Y-49069000D02*
X96773298Y-49069000D01*
X124153249Y-57715000D02*
X124463249Y-58025000D01*
X100146298Y-52442000D02*
X105377298Y-52442000D01*
X110650298Y-57715000D02*
X124153249Y-57715000D01*
X79790000Y-53449702D02*
X84170702Y-49069000D01*
X79790000Y-54114999D02*
X79790000Y-53449702D01*
X124463249Y-58025000D02*
X126413250Y-58025000D01*
X96773298Y-49069000D02*
X100146298Y-52442000D01*
X79800000Y-54124999D02*
X79790000Y-54114999D01*
D75*
%TO.N,/SIL-Motherboard/HDMI1_CEC*%
X80200000Y-60218000D02*
X80200000Y-57730000D01*
X83007000Y-63025000D02*
X80200000Y-60218000D01*
X126413250Y-63025000D02*
X83007000Y-63025000D01*
%TO.N,/SIL-Motherboard/HDMI0_CEC*%
X36686750Y-35275000D02*
X33627000Y-35275000D01*
X80600000Y-57080978D02*
X80270022Y-56751000D01*
X80600000Y-57730000D02*
X80600000Y-57080978D01*
X80270022Y-56751000D02*
X78570000Y-56751000D01*
X33627000Y-35275000D02*
X32272000Y-36630000D01*
D81*
%TO.N,/SIL-Motherboard/HDMI1_D1_P*%
X124463249Y-58525000D02*
X126413250Y-58525000D01*
X110688702Y-58832000D02*
X122963702Y-58832000D01*
X80600000Y-54124999D02*
X80610000Y-54114999D01*
X80610000Y-54114999D02*
X80610000Y-53478298D01*
X124153249Y-58835000D02*
X124463249Y-58525000D01*
X84433298Y-49655000D02*
X96335702Y-49655000D01*
X122966702Y-58835000D02*
X124153249Y-58835000D01*
X122963702Y-58832000D02*
X122966702Y-58835000D01*
X80610000Y-53478298D02*
X84433298Y-49655000D01*
X80600000Y-54650000D02*
X80600000Y-54124999D01*
X99590702Y-52910000D02*
X104766702Y-52910000D01*
X96335702Y-49655000D02*
X99590702Y-52910000D01*
X104766702Y-52910000D02*
X110688702Y-58832000D01*
D75*
%TO.N,/SIL-Motherboard/HDMI0_HOTPLUG*%
X80100417Y-56001417D02*
X79325500Y-56001417D01*
X81000000Y-57730000D02*
X81000000Y-56901000D01*
X81000000Y-56901000D02*
X80100417Y-56001417D01*
X36686750Y-32275000D02*
X34214000Y-32275000D01*
X34214000Y-32275000D02*
X34210000Y-32271000D01*
D81*
%TO.N,/SIL-Motherboard/HDMI1_D1_N*%
X122598000Y-59215000D02*
X122595000Y-59212000D01*
X104609298Y-53290000D02*
X99433298Y-53290000D01*
X81000000Y-54124999D02*
X81000000Y-54650000D01*
X99433298Y-53290000D02*
X96178298Y-50035000D01*
X80990000Y-53635702D02*
X80990000Y-54114999D01*
X124153249Y-59215000D02*
X122598000Y-59215000D01*
X126413250Y-59525000D02*
X124463249Y-59525000D01*
X122595000Y-59212000D02*
X110531298Y-59212000D01*
X96178298Y-50035000D02*
X84590702Y-50035000D01*
X84590702Y-50035000D02*
X80990000Y-53635702D01*
X124463249Y-59525000D02*
X124153249Y-59215000D01*
X80990000Y-54114999D02*
X81000000Y-54124999D01*
X110531298Y-59212000D02*
X104609298Y-53290000D01*
%TO.N,/SIL-Motherboard/HDMI1_D0_P*%
X81810000Y-53628298D02*
X81810000Y-54114999D01*
X124153249Y-60335000D02*
X101114702Y-60335000D01*
X101114702Y-60335000D02*
X91526702Y-50747000D01*
X126413250Y-60025000D02*
X124463249Y-60025000D01*
X84691298Y-50747000D02*
X81810000Y-53628298D01*
X81800000Y-54124999D02*
X81800000Y-54650000D01*
X124463249Y-60025000D02*
X124153249Y-60335000D01*
X81810000Y-54114999D02*
X81800000Y-54124999D01*
X91526702Y-50747000D02*
X84691298Y-50747000D01*
%TO.N,/SIL-Motherboard/HDMI1_D0_N*%
X124153249Y-60715000D02*
X100957298Y-60715000D01*
X82190000Y-53785702D02*
X82190000Y-54114999D01*
X84848702Y-51127000D02*
X82190000Y-53785702D01*
X91369298Y-51127000D02*
X84848702Y-51127000D01*
X82190000Y-54114999D02*
X82200000Y-54124999D01*
X124463249Y-61025000D02*
X124153249Y-60715000D01*
X126413250Y-61025000D02*
X124463249Y-61025000D01*
X100957298Y-60715000D02*
X91369298Y-51127000D01*
X82200000Y-54124999D02*
X82200000Y-54650000D01*
%TO.N,/SIL-Motherboard/HDMI1_CK_P*%
X90989702Y-51718000D02*
X85062298Y-51718000D01*
X101106702Y-61835000D02*
X90989702Y-51718000D01*
X83010000Y-54114999D02*
X83000000Y-54124999D01*
X124153249Y-61835000D02*
X101106702Y-61835000D01*
X83010000Y-53770298D02*
X83010000Y-54114999D01*
X83000000Y-54124999D02*
X83000000Y-54650000D01*
X126413250Y-61525000D02*
X124463249Y-61525000D01*
X85062298Y-51718000D02*
X83010000Y-53770298D01*
X124463249Y-61525000D02*
X124153249Y-61835000D01*
%TO.N,/SIL-Motherboard/HDMI1_CK_N*%
X85219702Y-52098000D02*
X83390000Y-53927702D01*
X124153249Y-62215000D02*
X100949298Y-62215000D01*
X83390000Y-53927702D02*
X83390000Y-54114999D01*
X124463249Y-62525000D02*
X124153249Y-62215000D01*
X100949298Y-62215000D02*
X90832298Y-52098000D01*
X83400000Y-54124999D02*
X83400000Y-54650000D01*
X83390000Y-54114999D02*
X83400000Y-54124999D01*
X126413250Y-62525000D02*
X124463249Y-62525000D01*
X90832298Y-52098000D02*
X85219702Y-52098000D01*
%TO.N,/SIL-Motherboard/HDMI0_D2_P*%
X38636751Y-41275000D02*
X38946751Y-40965000D01*
X40322298Y-40965000D02*
X51384298Y-52027000D01*
X51384298Y-52027000D02*
X77948500Y-52027000D01*
X77948500Y-52027000D02*
X78110000Y-52188500D01*
X84210000Y-56054500D02*
X84048500Y-56216000D01*
X84200000Y-54650000D02*
X84200000Y-55175001D01*
X36686750Y-41275000D02*
X38636751Y-41275000D01*
X84200000Y-55175001D02*
X84210000Y-55185001D01*
X84210000Y-55185001D02*
X84210000Y-56054500D01*
X38946751Y-40965000D02*
X40322298Y-40965000D01*
%TO.N,/SIL-Motherboard/HDMI0_D2_N*%
X38946751Y-40585000D02*
X40479702Y-40585000D01*
X77948500Y-51647000D02*
X78110000Y-51485500D01*
X36686750Y-40275000D02*
X38636751Y-40275000D01*
X51541702Y-51647000D02*
X77948500Y-51647000D01*
X38636751Y-40275000D02*
X38946751Y-40585000D01*
X84590000Y-55185001D02*
X84590000Y-56054500D01*
X84600000Y-54650000D02*
X84600000Y-55175001D01*
X84600000Y-55175001D02*
X84590000Y-55185001D01*
X40479702Y-40585000D02*
X51541702Y-51647000D01*
X84590000Y-56054500D02*
X84751500Y-56216000D01*
%TO.N,/SIL-Motherboard/HDMI0_D1_P*%
X85410000Y-54146701D02*
X84878848Y-53615549D01*
X85400000Y-54650000D02*
X85400000Y-54400000D01*
X84878848Y-53615549D02*
X84650451Y-53615549D01*
X40628298Y-39465000D02*
X51736298Y-50573000D01*
X85410000Y-54390000D02*
X85410000Y-54146701D01*
X51736298Y-50573000D02*
X77959500Y-50573000D01*
X36686750Y-39775000D02*
X38636751Y-39775000D01*
X85400000Y-54400000D02*
X85410000Y-54390000D01*
X77959500Y-50573000D02*
X78121000Y-50734500D01*
X38636751Y-39775000D02*
X38946751Y-39465000D01*
X38946751Y-39465000D02*
X40628298Y-39465000D01*
%TO.N,/SIL-Motherboard/HDMI0_D1_N*%
X85790000Y-54390000D02*
X85790000Y-53989299D01*
X85147549Y-53346848D02*
X85147549Y-53118451D01*
X36686750Y-38775000D02*
X38636751Y-38775000D01*
X51893702Y-50193000D02*
X77959500Y-50193000D01*
X85800000Y-54650000D02*
X85800000Y-54400000D01*
X38946751Y-39085000D02*
X40785702Y-39085000D01*
X40785702Y-39085000D02*
X51893702Y-50193000D01*
X77959500Y-50193000D02*
X78121000Y-50031500D01*
X85800000Y-54400000D02*
X85790000Y-54390000D01*
X38636751Y-38775000D02*
X38946751Y-39085000D01*
X85790000Y-53989299D02*
X85147549Y-53346848D01*
%TO.N,/SIL-Motherboard/HDMI0_D0_P*%
X86261848Y-53076549D02*
X86033451Y-53076549D01*
X38946751Y-37965000D02*
X41709298Y-37965000D01*
X86610000Y-53424701D02*
X86261848Y-53076549D01*
X38636751Y-38275000D02*
X38946751Y-37965000D01*
X52987298Y-49243000D02*
X77939500Y-49243000D01*
X86600000Y-54124999D02*
X86610000Y-54114999D01*
X86600000Y-54650000D02*
X86600000Y-54124999D01*
X41709298Y-37965000D02*
X52987298Y-49243000D01*
X77939500Y-49243000D02*
X78101000Y-49404500D01*
X36686750Y-38275000D02*
X38636751Y-38275000D01*
X86610000Y-54114999D02*
X86610000Y-53424701D01*
%TO.N,/SIL-Motherboard/HDMI0_D0_N*%
X86530549Y-52807848D02*
X86530549Y-52579451D01*
X53144702Y-48863000D02*
X77939500Y-48863000D01*
X87000000Y-54650000D02*
X87000000Y-54124999D01*
X86990000Y-54114999D02*
X86990000Y-53267299D01*
X38636751Y-37275000D02*
X38946751Y-37585000D01*
X41866702Y-37585000D02*
X53144702Y-48863000D01*
X36686750Y-37275000D02*
X38636751Y-37275000D01*
X77939500Y-48863000D02*
X78101000Y-48701500D01*
X87000000Y-54124999D02*
X86990000Y-54114999D01*
X86990000Y-53267299D02*
X86530549Y-52807848D01*
X38946751Y-37585000D02*
X41866702Y-37585000D01*
%TO.N,/SIL-Motherboard/HDMI0_CK_P*%
X42244298Y-36465000D02*
X53691298Y-47912000D01*
X36686750Y-36775000D02*
X38636751Y-36775000D01*
X38946751Y-36465000D02*
X42244298Y-36465000D01*
X38636751Y-36775000D02*
X38946751Y-36465000D01*
X87800000Y-54124999D02*
X87810000Y-54114999D01*
X53691298Y-47912000D02*
X77960500Y-47912000D01*
X77960500Y-47912000D02*
X78122000Y-48073500D01*
X87810000Y-54114999D02*
X87810000Y-52754500D01*
X87800000Y-54650000D02*
X87800000Y-54124999D01*
X87810000Y-52754500D02*
X87648500Y-52593000D01*
%TO.N,/SIL-Motherboard/HDMI0_CK_N*%
X88190000Y-54114999D02*
X88190000Y-52754500D01*
X88200000Y-54124999D02*
X88190000Y-54114999D01*
X88200000Y-54650000D02*
X88200000Y-54124999D01*
X42401702Y-36085000D02*
X53848702Y-47532000D01*
X36686750Y-35775000D02*
X38636751Y-35775000D01*
X77960500Y-47532000D02*
X78122000Y-47370500D01*
X38636751Y-35775000D02*
X38946751Y-36085000D01*
X88190000Y-52754500D02*
X88351500Y-52593000D01*
X53848702Y-47532000D02*
X77960500Y-47532000D01*
X38946751Y-36085000D02*
X42401702Y-36085000D01*
D75*
%TO.N,/SIL-Motherboard/HDMI0_SDA*%
X36686750Y-33775000D02*
X39085000Y-33775000D01*
X90200000Y-57730000D02*
X90858000Y-57072000D01*
X39085000Y-33775000D02*
X39087000Y-33773000D01*
X90858000Y-57072000D02*
X90858000Y-53495000D01*
X90858000Y-53495000D02*
X90825000Y-53462000D01*
%TO.N,/SIL-Motherboard/HDMI0_SCL*%
X90200000Y-54650000D02*
X90200000Y-53864000D01*
X38300000Y-34275000D02*
X38761000Y-34736000D01*
X36686750Y-34275000D02*
X38300000Y-34275000D01*
X90200000Y-53864000D02*
X89787000Y-53451000D01*
D73*
%TO.N,5v*%
X128000000Y-150690000D02*
X125490000Y-153200000D01*
X118400000Y-23700000D02*
X118400000Y-18920000D01*
X102760024Y-41500000D02*
X101900000Y-41500000D01*
X127600000Y-110300000D02*
X127600000Y-115490000D01*
X108400000Y-51648000D02*
X109000000Y-52248000D01*
D78*
X32900000Y-96400000D02*
X30385000Y-96400000D01*
D73*
X101900000Y-41500000D02*
X101200000Y-42200000D01*
D74*
X112038191Y-102103609D02*
X113236000Y-102103609D01*
D73*
X105795000Y-44534976D02*
X103880012Y-42619988D01*
X97850000Y-98350000D02*
X99350000Y-98350000D01*
X88445000Y-32475000D02*
X81500000Y-32475000D01*
X99350000Y-98350000D02*
X99400000Y-98300000D01*
X69700000Y-41450000D02*
X68350000Y-42800000D01*
D72*
X103825000Y-110680000D02*
X102720000Y-110680000D01*
D73*
X125490000Y-108190000D02*
X127600000Y-110300000D01*
X84760000Y-117040000D02*
X87300000Y-117040000D01*
X128000000Y-146400000D02*
X128000000Y-150690000D01*
D72*
X105492500Y-111247500D02*
X104925000Y-110680000D01*
D73*
X73060000Y-41490000D02*
X99100000Y-41490000D01*
X61349500Y-44650500D02*
X59804342Y-44650500D01*
D72*
X88800000Y-111600000D02*
X88800000Y-115540000D01*
D73*
X108400000Y-46400000D02*
X108400000Y-51648000D01*
X69700000Y-41200000D02*
X69700000Y-41450000D01*
D72*
X106825000Y-111247500D02*
X105492500Y-111247500D01*
D73*
X89600000Y-31320000D02*
X88445000Y-32475000D01*
X63200000Y-42800000D02*
X61349500Y-44650500D01*
X68350000Y-42800000D02*
X63950978Y-42800000D01*
D72*
X104925000Y-110680000D02*
X103825000Y-110680000D01*
D73*
X127700000Y-133190000D02*
X125490000Y-135400000D01*
X100400000Y-41490000D02*
X99100000Y-41490000D01*
X100410000Y-41500000D02*
X100400000Y-41490000D01*
X103880012Y-42619988D02*
X102760024Y-41500000D01*
X101200000Y-45512500D02*
X101850000Y-46162500D01*
D79*
X40800480Y-70599520D02*
X43600000Y-67800000D01*
D73*
X105795000Y-44800000D02*
X106800000Y-44800000D01*
X71830000Y-41200000D02*
X72300000Y-40730000D01*
X127700000Y-86000000D02*
X127700000Y-90890000D01*
X127600000Y-115490000D02*
X125490000Y-117600000D01*
X125490000Y-125990000D02*
X127700000Y-128200000D01*
X69700000Y-41200000D02*
X71830000Y-41200000D01*
X80809417Y-32475000D02*
X81500000Y-32475000D01*
X101200000Y-42200000D02*
X101200000Y-45512500D01*
X125490000Y-143890000D02*
X128000000Y-146400000D01*
D78*
X32900000Y-96400000D02*
X35700000Y-96400000D01*
D73*
X72300000Y-40730000D02*
X73060000Y-41490000D01*
X63950978Y-42800000D02*
X63200000Y-42800000D01*
D72*
X88800000Y-115540000D02*
X87300000Y-117040000D01*
D73*
X101900000Y-41500000D02*
X100410000Y-41500000D01*
X125490000Y-93100000D02*
X125490000Y-108190000D01*
X72300000Y-40730000D02*
X72554417Y-40730000D01*
X105795000Y-44800000D02*
X105795000Y-44534976D01*
D79*
X36862500Y-69950000D02*
X37512020Y-70599520D01*
D73*
X106800000Y-44800000D02*
X108400000Y-46400000D01*
D72*
X108252500Y-111247500D02*
X108300000Y-111200000D01*
D73*
X72554417Y-40730000D02*
X80809417Y-32475000D01*
D72*
X102720000Y-110680000D02*
X102700000Y-110700000D01*
D73*
X125490000Y-135400000D02*
X125490000Y-143890000D01*
X127700000Y-128200000D02*
X127700000Y-133190000D01*
D72*
X106825000Y-111247500D02*
X108252500Y-111247500D01*
D74*
X111532400Y-102609400D02*
X112038191Y-102103609D01*
D73*
X125490000Y-117600000D02*
X125490000Y-125990000D01*
X127700000Y-90890000D02*
X125490000Y-93100000D01*
X118400000Y-18920000D02*
X118380000Y-18900000D01*
D79*
X37512020Y-70599520D02*
X40800480Y-70599520D01*
X43600000Y-67800000D02*
X43600000Y-67300000D01*
%TO.N,/SIL-Motherboard/+3V3*%
X109200000Y-113393478D02*
X107689022Y-111882500D01*
D72*
X108042500Y-115057500D02*
X109200000Y-113900000D01*
D73*
X109300000Y-83900000D02*
X112150000Y-81050000D01*
D72*
X102720000Y-111920000D02*
X102700000Y-111900000D01*
X106825000Y-111882500D02*
X104962500Y-111882500D01*
D73*
X106150000Y-136910000D02*
X106150000Y-138050000D01*
D74*
X117184520Y-78634520D02*
X117184520Y-79932980D01*
X112450000Y-80067500D02*
X112450000Y-78967500D01*
D72*
X104962500Y-111882500D02*
X104925000Y-111920000D01*
D73*
X109487980Y-138649520D02*
X110287500Y-137850000D01*
D74*
X112784520Y-81002020D02*
X112150000Y-80367500D01*
D79*
X112025000Y-108707500D02*
X110507500Y-108707500D01*
D73*
X110242081Y-25700000D02*
X104300000Y-25700000D01*
D79*
X106825000Y-109342500D02*
X106825000Y-109977500D01*
D74*
X115150000Y-78267500D02*
X116282500Y-78267500D01*
D79*
X106825000Y-109977500D02*
X106825000Y-110612500D01*
D72*
X103825000Y-111920000D02*
X102720000Y-111920000D01*
D73*
X104610000Y-136910000D02*
X103600000Y-135900000D01*
X114490489Y-17550489D02*
X107142011Y-17550489D01*
X112150000Y-81050000D02*
X112150000Y-80367500D01*
X106749520Y-138649520D02*
X109487980Y-138649520D01*
X96300000Y-44000000D02*
X98100000Y-45800000D01*
D72*
X104925000Y-111920000D02*
X103825000Y-111920000D01*
D79*
X107689022Y-111882500D02*
X106825000Y-111882500D01*
X110507500Y-108707500D02*
X110500000Y-108700000D01*
D73*
X107142011Y-17550489D02*
X107000000Y-17692500D01*
X107000000Y-17692500D02*
X107000000Y-19042500D01*
D74*
X116282500Y-78267500D02*
X116550000Y-78000000D01*
D79*
X109200000Y-113900000D02*
X109200000Y-113393478D01*
D74*
X117184520Y-79932980D02*
X116115480Y-81002020D01*
D73*
X115840000Y-18900000D02*
X115840000Y-20102081D01*
X115840000Y-20102081D02*
X110242081Y-25700000D01*
X115840000Y-18900000D02*
X114490489Y-17550489D01*
D72*
X106825000Y-115057500D02*
X108042500Y-115057500D01*
D74*
X116115480Y-81002020D02*
X112784520Y-81002020D01*
X112150000Y-80367500D02*
X112450000Y-80067500D01*
D73*
X106150000Y-136910000D02*
X104610000Y-136910000D01*
D74*
X116550000Y-78000000D02*
X117184520Y-78634520D01*
D79*
X109857500Y-109342500D02*
X110500000Y-108700000D01*
D73*
X98100000Y-45800000D02*
X99100000Y-45800000D01*
X106150000Y-138050000D02*
X106749520Y-138649520D01*
D79*
X106825000Y-109342500D02*
X109857500Y-109342500D01*
D77*
%TO.N,/SIL-Motherboard/VCC_IN*%
X115250000Y-32250000D02*
X114150000Y-32250000D01*
X115750000Y-32250000D02*
X115250000Y-32250000D01*
X114150000Y-32250000D02*
X112800000Y-33600000D01*
X114150000Y-32250000D02*
X113205000Y-32250000D01*
X113900000Y-33600000D02*
X111855000Y-33600000D01*
D73*
X113200000Y-32245000D02*
X113205000Y-32250000D01*
D77*
X115750000Y-32250000D02*
X113700000Y-34300000D01*
X113205000Y-32250000D02*
X111855000Y-33600000D01*
D73*
X113200000Y-30880000D02*
X113200000Y-32245000D01*
D77*
X113700000Y-34300000D02*
X112555000Y-34300000D01*
X115250000Y-32250000D02*
X113900000Y-33600000D01*
X124037500Y-32250000D02*
X115750000Y-32250000D01*
X112555000Y-34300000D02*
X111855000Y-33600000D01*
X112800000Y-33600000D02*
X111855000Y-33600000D01*
D72*
%TO.N,Net-(R15-Pad1)*%
X112062500Y-108072500D02*
X113435000Y-106700000D01*
X112025000Y-108072500D02*
X112062500Y-108072500D01*
D80*
%TO.N,/SIL-Motherboard/HSD2-*%
X131887499Y-76850000D02*
X132900000Y-76850000D01*
X113909000Y-93982844D02*
X131166844Y-76725000D01*
X113322000Y-104108000D02*
X113909000Y-103521000D01*
X131762499Y-76725000D02*
X131887499Y-76850000D01*
X131166844Y-76725000D02*
X131762499Y-76725000D01*
X113909000Y-103521000D02*
X113909000Y-93982844D01*
X111532400Y-104108000D02*
X113322000Y-104108000D01*
%TO.N,/SIL-Motherboard/HSD2+*%
X110413301Y-101828699D02*
X110608561Y-101828699D01*
X108642000Y-103600000D02*
X110413301Y-101828699D01*
X131126156Y-76200000D02*
X132900000Y-76200000D01*
X113509000Y-98928260D02*
X113509000Y-93817156D01*
X110608561Y-101828699D02*
X113509000Y-98928260D01*
X113509000Y-93817156D02*
X131126156Y-76200000D01*
X107417600Y-103600000D02*
X108642000Y-103600000D01*
%TO.N,/SIL-Motherboard/USB1-*%
X114519844Y-110495000D02*
X117799000Y-107215844D01*
X122576844Y-89800000D02*
X124690000Y-89800000D01*
X117799000Y-107215844D02*
X117799000Y-94577844D01*
X112925001Y-110612500D02*
X113042501Y-110495000D01*
X112025000Y-110612500D02*
X112925001Y-110612500D01*
X124690000Y-89800000D02*
X125490000Y-90600000D01*
X117799000Y-94577844D02*
X122576844Y-89800000D01*
X113042501Y-110495000D02*
X114519844Y-110495000D01*
%TO.N,/SIL-Motherboard/USB1+*%
X122411156Y-89400000D02*
X124690000Y-89400000D01*
X114354156Y-110095000D02*
X117399000Y-107050156D01*
X124690000Y-89400000D02*
X125490000Y-88600000D01*
X117399000Y-94412156D02*
X122411156Y-89400000D01*
X113042501Y-110095000D02*
X114354156Y-110095000D01*
X112925001Y-109977500D02*
X113042501Y-110095000D01*
X112025000Y-109977500D02*
X112925001Y-109977500D01*
X117399000Y-107050156D02*
X117399000Y-94412156D01*
%TO.N,/SIL-Motherboard/USB2-*%
X122155000Y-111765000D02*
X125490000Y-115100000D01*
X113042501Y-111765000D02*
X122155000Y-111765000D01*
X112025000Y-111882500D02*
X112925001Y-111882500D01*
X112925001Y-111882500D02*
X113042501Y-111765000D01*
%TO.N,/SIL-Motherboard/USB2+*%
X124055686Y-113100000D02*
X125490000Y-113100000D01*
X122320686Y-111365000D02*
X124055686Y-113100000D01*
X113042501Y-111365000D02*
X122320686Y-111365000D01*
X112925001Y-111247500D02*
X113042501Y-111365000D01*
X112025000Y-111247500D02*
X112925001Y-111247500D01*
%TO.N,/SIL-Motherboard/USB3-*%
X112025000Y-113152500D02*
X112925001Y-113152500D01*
X120800000Y-119282844D02*
X120800000Y-128210000D01*
X120800000Y-128210000D02*
X125490000Y-132900000D01*
X112925001Y-113152500D02*
X113042501Y-113035000D01*
X114552156Y-113035000D02*
X120800000Y-119282844D01*
X113042501Y-113035000D02*
X114552156Y-113035000D01*
%TO.N,/SIL-Motherboard/USB3+*%
X113042501Y-112635000D02*
X114717844Y-112635000D01*
X112925001Y-112517500D02*
X113042501Y-112635000D01*
X121200000Y-119117156D02*
X121200000Y-128044314D01*
X114717844Y-112635000D02*
X121200000Y-119117156D01*
X124055686Y-130900000D02*
X125490000Y-130900000D01*
X121200000Y-128044314D02*
X124055686Y-130900000D01*
X112025000Y-112517500D02*
X112925001Y-112517500D01*
%TO.N,/SIL-Motherboard/USB4-*%
X117000000Y-117582844D02*
X113722156Y-114305000D01*
X117000000Y-127782844D02*
X117000000Y-117582844D01*
X120200000Y-130982844D02*
X117000000Y-127782844D01*
X125490000Y-150700000D02*
X120200000Y-145410000D01*
X112925001Y-114422500D02*
X113042501Y-114305000D01*
X120200000Y-145410000D02*
X120200000Y-130982844D01*
X112025000Y-114422500D02*
X112925001Y-114422500D01*
X113042501Y-114305000D02*
X113722156Y-114305000D01*
%TO.N,/SIL-Motherboard/USB4+*%
X117400000Y-117417156D02*
X113887844Y-113905000D01*
X120600000Y-130817156D02*
X117400000Y-127617156D01*
X125490000Y-148700000D02*
X124055686Y-148700000D01*
X112025000Y-113787500D02*
X112925001Y-113787500D01*
X124055686Y-148700000D02*
X120600000Y-145244314D01*
X120600000Y-145244314D02*
X120600000Y-130817156D01*
X113042501Y-113905000D02*
X113887844Y-113905000D01*
X117400000Y-127617156D02*
X117400000Y-117417156D01*
X112925001Y-113787500D02*
X113042501Y-113905000D01*
%TO.N,/SIL-Motherboard/HSD1-*%
X110525000Y-103600000D02*
X109704000Y-104421000D01*
X109704000Y-104421000D02*
X109704000Y-105594000D01*
X109704000Y-105594000D02*
X109634578Y-105663422D01*
X106285422Y-105663422D02*
X105152000Y-106796844D01*
X105924999Y-108072500D02*
X106825000Y-108072500D01*
X109634578Y-105663422D02*
X106285422Y-105663422D01*
X105152000Y-108104156D02*
X105237844Y-108190000D01*
X105807499Y-108190000D02*
X105924999Y-108072500D01*
X105237844Y-108190000D02*
X105807499Y-108190000D01*
X105152000Y-106796844D02*
X105152000Y-108104156D01*
X111532400Y-103600000D02*
X110525000Y-103600000D01*
%TO.N,/SIL-Motherboard/HSD1+*%
X106002578Y-103610722D02*
X106002578Y-105380578D01*
X106521300Y-103092000D02*
X106002578Y-103610722D01*
X106825000Y-108707500D02*
X105924999Y-108707500D01*
X105924999Y-108707500D02*
X105807499Y-108590000D01*
X105807499Y-108590000D02*
X105072156Y-108590000D01*
X105072156Y-108590000D02*
X104752000Y-108269844D01*
X104752000Y-108269844D02*
X104752000Y-106631156D01*
X107417600Y-103092000D02*
X106521300Y-103092000D01*
X104752000Y-106631156D02*
X106002578Y-105380578D01*
%TD*%
%TA.AperFunction,Conductor*%
%TO.N,/SIL-Motherboard/VCC_IN*%
G36*
X122924928Y-30257115D02*
G01*
X122972254Y-30310037D01*
X122983454Y-30380145D01*
X122954426Y-30445827D01*
X122813720Y-30611157D01*
X122807812Y-30619348D01*
X122687352Y-30818251D01*
X122682832Y-30827277D01*
X122595719Y-31042888D01*
X122592703Y-31052512D01*
X122541122Y-31279552D01*
X122539720Y-31288984D01*
X122529661Y-31429310D01*
X122529500Y-31433823D01*
X122529500Y-31977885D01*
X122533975Y-31993124D01*
X122535365Y-31994329D01*
X122543048Y-31996000D01*
X124165500Y-31996000D01*
X124233621Y-32016002D01*
X124280114Y-32069658D01*
X124291500Y-32122000D01*
X124291500Y-32378000D01*
X124271498Y-32446121D01*
X124217842Y-32492614D01*
X124165500Y-32504000D01*
X122547615Y-32504000D01*
X122532376Y-32508475D01*
X122531171Y-32509865D01*
X122529500Y-32517548D01*
X122529500Y-33066177D01*
X122529661Y-33070690D01*
X122539720Y-33211016D01*
X122541122Y-33220448D01*
X122592703Y-33447488D01*
X122595719Y-33457112D01*
X122682832Y-33672723D01*
X122687352Y-33681749D01*
X122807812Y-33880652D01*
X122813720Y-33888844D01*
X122937853Y-34034700D01*
X122966771Y-34099540D01*
X122956043Y-34169722D01*
X122909075Y-34222962D01*
X122844072Y-34242344D01*
X119097206Y-34306945D01*
X113884176Y-34396824D01*
X113815721Y-34378000D01*
X113768310Y-34325153D01*
X113758763Y-34295560D01*
X113758500Y-34291889D01*
X113754590Y-34278573D01*
X113750768Y-34225139D01*
X113763087Y-34139462D01*
X113763729Y-34135000D01*
X113763729Y-33715000D01*
X113760705Y-33672723D01*
X113758982Y-33648625D01*
X113758982Y-33648623D01*
X113758500Y-33641889D01*
X113754590Y-33628573D01*
X113750768Y-33575139D01*
X113763087Y-33489462D01*
X113763729Y-33485000D01*
X113763729Y-33065000D01*
X113758500Y-32991889D01*
X113754590Y-32978573D01*
X113750768Y-32925139D01*
X113763087Y-32839462D01*
X113763729Y-32835000D01*
X113763729Y-32415000D01*
X113758500Y-32341889D01*
X113717304Y-32201589D01*
X113666155Y-32122000D01*
X113643122Y-32086159D01*
X113643120Y-32086156D01*
X113638250Y-32078579D01*
X113627747Y-32069478D01*
X113534555Y-31988726D01*
X113534552Y-31988724D01*
X113527743Y-31982824D01*
X113394734Y-31922081D01*
X113371337Y-31918717D01*
X113306756Y-31889224D01*
X113268373Y-31829498D01*
X113268373Y-31758502D01*
X113306757Y-31698775D01*
X113371337Y-31669282D01*
X113389269Y-31668000D01*
X113432969Y-31668000D01*
X113437898Y-31667807D01*
X113465756Y-31665614D01*
X113478359Y-31663312D01*
X113621784Y-31621643D01*
X113636220Y-31615396D01*
X113763499Y-31540124D01*
X113775926Y-31530484D01*
X113880484Y-31425926D01*
X113890124Y-31413499D01*
X113965396Y-31286220D01*
X113971643Y-31271784D01*
X114006619Y-31151395D01*
X114006579Y-31137295D01*
X113999309Y-31134000D01*
X113072000Y-31134000D01*
X113003879Y-31113998D01*
X112957386Y-31060342D01*
X112946000Y-31008000D01*
X112946000Y-30854500D01*
X112966002Y-30786379D01*
X113019658Y-30739886D01*
X113072000Y-30728500D01*
X116758286Y-30728500D01*
X116759606Y-30728507D01*
X116849721Y-30729451D01*
X116892097Y-30720289D01*
X116904663Y-30718231D01*
X116947755Y-30713397D01*
X116954406Y-30711081D01*
X116954410Y-30711080D01*
X116979430Y-30702367D01*
X116994242Y-30698204D01*
X117020119Y-30692609D01*
X117027010Y-30691119D01*
X117066313Y-30672792D01*
X117078089Y-30668010D01*
X117119052Y-30653745D01*
X117125027Y-30650011D01*
X117125030Y-30650010D01*
X117147495Y-30635973D01*
X117161012Y-30628634D01*
X117185014Y-30617441D01*
X117185015Y-30617440D01*
X117191402Y-30614462D01*
X117225653Y-30587894D01*
X117236112Y-30580598D01*
X117266904Y-30561358D01*
X117266907Y-30561356D01*
X117272876Y-30557626D01*
X117301679Y-30529024D01*
X117302304Y-30528439D01*
X117302970Y-30527922D01*
X117328958Y-30501934D01*
X117401582Y-30429815D01*
X117402240Y-30428778D01*
X117403343Y-30427549D01*
X117473068Y-30357824D01*
X117535380Y-30323798D01*
X117560189Y-30320935D01*
X122856505Y-30238180D01*
X122924928Y-30257115D01*
G37*
%TD.AperFunction*%
%TD*%
%TA.AperFunction,Conductor*%
%TO.N,/SIL-Motherboard/5V*%
G36*
X86448510Y-92507631D02*
G01*
X86455329Y-92508000D01*
X86744668Y-92507999D01*
X86751493Y-92507629D01*
X86786393Y-92503839D01*
X86813603Y-92503839D01*
X86848510Y-92507631D01*
X86855329Y-92508000D01*
X87144668Y-92507999D01*
X87151493Y-92507629D01*
X87186393Y-92503839D01*
X87213603Y-92503839D01*
X87248510Y-92507631D01*
X87255329Y-92508000D01*
X87544668Y-92507999D01*
X87551493Y-92507629D01*
X87586393Y-92503839D01*
X87613603Y-92503839D01*
X87648510Y-92507631D01*
X87655329Y-92508000D01*
X87944670Y-92507999D01*
X87951488Y-92507630D01*
X87984067Y-92504091D01*
X88011280Y-92504091D01*
X88051866Y-92508500D01*
X88110587Y-92508500D01*
X88428285Y-92820204D01*
X88430077Y-92821962D01*
X88962119Y-93343966D01*
X88996736Y-93405952D01*
X88999185Y-93420731D01*
X89006458Y-93489928D01*
X89065473Y-93671556D01*
X89160960Y-93836944D01*
X89165378Y-93841851D01*
X89165379Y-93841852D01*
X89209552Y-93890911D01*
X89288747Y-93978866D01*
X89443248Y-94091118D01*
X89449276Y-94093802D01*
X89449278Y-94093803D01*
X89611681Y-94166109D01*
X89617712Y-94168794D01*
X89804513Y-94208500D01*
X89805396Y-94208500D01*
X89869093Y-94234708D01*
X89878506Y-94243063D01*
X92588119Y-96901551D01*
X92716610Y-97027618D01*
X92716615Y-97027622D01*
X93300000Y-97600000D01*
X95300000Y-97600000D01*
X95300000Y-97250000D01*
X95314008Y-97161554D01*
X95326190Y-97124063D01*
X95357785Y-97062054D01*
X95380957Y-97030162D01*
X95430162Y-96980957D01*
X95462054Y-96957785D01*
X95524063Y-96926190D01*
X95561554Y-96914008D01*
X95640208Y-96901551D01*
X95659917Y-96900000D01*
X96243813Y-96900000D01*
X96256163Y-96900607D01*
X96422984Y-96917037D01*
X96447205Y-96921854D01*
X96601679Y-96968713D01*
X96624493Y-96978164D01*
X96629719Y-96980957D01*
X96766847Y-97054254D01*
X96787385Y-97067977D01*
X96894063Y-97155526D01*
X96934032Y-97214203D01*
X96935932Y-97285174D01*
X96921423Y-97318104D01*
X96917824Y-97322257D01*
X96857081Y-97455266D01*
X96836271Y-97600000D01*
X96836271Y-98061047D01*
X96836273Y-98061047D01*
X96836682Y-98064015D01*
X96835503Y-98160438D01*
X96836063Y-98164723D01*
X96836271Y-98171760D01*
X96836271Y-98561047D01*
X96836273Y-98561047D01*
X96836682Y-98564015D01*
X96835503Y-98660438D01*
X96836063Y-98664723D01*
X96836271Y-98671760D01*
X96836271Y-99100000D01*
X96841500Y-99173111D01*
X96843402Y-99179589D01*
X96843403Y-99179594D01*
X96849535Y-99200475D01*
X96849537Y-99271472D01*
X96817735Y-99325071D01*
X96689840Y-99452966D01*
X96673016Y-99467084D01*
X96484031Y-99599413D01*
X96465010Y-99610395D01*
X96255920Y-99707895D01*
X96235283Y-99715406D01*
X96012433Y-99775119D01*
X95990814Y-99778931D01*
X95755475Y-99799521D01*
X95744493Y-99800000D01*
X94009760Y-99800000D01*
X94000127Y-99799631D01*
X93966837Y-99797078D01*
X93709658Y-99777359D01*
X93690622Y-99774422D01*
X93411646Y-99709226D01*
X93393277Y-99703420D01*
X93162141Y-99610395D01*
X93127509Y-99596457D01*
X93110242Y-99587920D01*
X92863885Y-99441687D01*
X92848118Y-99430615D01*
X92623207Y-99245463D01*
X92616004Y-99239056D01*
X87377873Y-94207694D01*
X86340282Y-93211060D01*
X86305010Y-93149446D01*
X86302256Y-93107020D01*
X86312814Y-93006566D01*
X86312814Y-93006565D01*
X86313504Y-93000000D01*
X86297174Y-92844630D01*
X86294232Y-92816635D01*
X86294232Y-92816633D01*
X86293542Y-92810072D01*
X86248509Y-92671476D01*
X86246481Y-92600509D01*
X86283144Y-92539711D01*
X86346856Y-92508385D01*
X86354737Y-92507277D01*
X86386392Y-92503839D01*
X86413603Y-92503839D01*
X86448510Y-92507631D01*
G37*
%TD.AperFunction*%
%TD*%
M02*
