%TF.GenerationSoftware,KiCad,Pcbnew,(6.0.0-0)*%
%TF.CreationDate,2022-04-14T20:44:02-04:00*%
%TF.ProjectId,SIL-CM4,53494c2d-434d-4342-9e6b-696361645f70,rev?*%
%TF.SameCoordinates,Original*%
%TF.FileFunction,Legend,Top*%
%TF.FilePolarity,Positive*%
%FSLAX46Y46*%
G04 Gerber Fmt 4.6, Leading zero omitted, Abs format (unit mm)*
G04 Created by KiCad (PCBNEW (6.0.0-0)) date 2022-04-14 20:44:02*
%MOMM*%
%LPD*%
G01*
G04 APERTURE LIST*
%ADD10C,0.150000*%
%ADD11C,0.050000*%
%ADD12C,0.120000*%
%ADD13C,0.100000*%
%ADD14C,0.127000*%
%ADD15C,0.200000*%
%ADD16C,0.152400*%
G04 APERTURE END LIST*
D10*
%TO.C,U7*%
X61308095Y-22162380D02*
X61308095Y-22971904D01*
X61355714Y-23067142D01*
X61403333Y-23114761D01*
X61498571Y-23162380D01*
X61689047Y-23162380D01*
X61784285Y-23114761D01*
X61831904Y-23067142D01*
X61879523Y-22971904D01*
X61879523Y-22162380D01*
X62260476Y-22162380D02*
X62927142Y-22162380D01*
X62498571Y-23162380D01*
%TO.C,R6*%
X70252380Y-22366666D02*
X69776190Y-22700000D01*
X70252380Y-22938095D02*
X69252380Y-22938095D01*
X69252380Y-22557142D01*
X69300000Y-22461904D01*
X69347619Y-22414285D01*
X69442857Y-22366666D01*
X69585714Y-22366666D01*
X69680952Y-22414285D01*
X69728571Y-22461904D01*
X69776190Y-22557142D01*
X69776190Y-22938095D01*
X69252380Y-21509523D02*
X69252380Y-21700000D01*
X69300000Y-21795238D01*
X69347619Y-21842857D01*
X69490476Y-21938095D01*
X69680952Y-21985714D01*
X70061904Y-21985714D01*
X70157142Y-21938095D01*
X70204761Y-21890476D01*
X70252380Y-21795238D01*
X70252380Y-21604761D01*
X70204761Y-21509523D01*
X70157142Y-21461904D01*
X70061904Y-21414285D01*
X69823809Y-21414285D01*
X69728571Y-21461904D01*
X69680952Y-21509523D01*
X69633333Y-21604761D01*
X69633333Y-21795238D01*
X69680952Y-21890476D01*
X69728571Y-21938095D01*
X69823809Y-21985714D01*
%TO.C,C29*%
X56557142Y-23142857D02*
X56604761Y-23190476D01*
X56652380Y-23333333D01*
X56652380Y-23428571D01*
X56604761Y-23571428D01*
X56509523Y-23666666D01*
X56414285Y-23714285D01*
X56223809Y-23761904D01*
X56080952Y-23761904D01*
X55890476Y-23714285D01*
X55795238Y-23666666D01*
X55700000Y-23571428D01*
X55652380Y-23428571D01*
X55652380Y-23333333D01*
X55700000Y-23190476D01*
X55747619Y-23142857D01*
X55747619Y-22761904D02*
X55700000Y-22714285D01*
X55652380Y-22619047D01*
X55652380Y-22380952D01*
X55700000Y-22285714D01*
X55747619Y-22238095D01*
X55842857Y-22190476D01*
X55938095Y-22190476D01*
X56080952Y-22238095D01*
X56652380Y-22809523D01*
X56652380Y-22190476D01*
X56652380Y-21714285D02*
X56652380Y-21523809D01*
X56604761Y-21428571D01*
X56557142Y-21380952D01*
X56414285Y-21285714D01*
X56223809Y-21238095D01*
X55842857Y-21238095D01*
X55747619Y-21285714D01*
X55700000Y-21333333D01*
X55652380Y-21428571D01*
X55652380Y-21619047D01*
X55700000Y-21714285D01*
X55747619Y-21761904D01*
X55842857Y-21809523D01*
X56080952Y-21809523D01*
X56176190Y-21761904D01*
X56223809Y-21714285D01*
X56271428Y-21619047D01*
X56271428Y-21428571D01*
X56223809Y-21333333D01*
X56176190Y-21285714D01*
X56080952Y-21238095D01*
%TO.C,C28*%
X57957142Y-23142857D02*
X58004761Y-23190476D01*
X58052380Y-23333333D01*
X58052380Y-23428571D01*
X58004761Y-23571428D01*
X57909523Y-23666666D01*
X57814285Y-23714285D01*
X57623809Y-23761904D01*
X57480952Y-23761904D01*
X57290476Y-23714285D01*
X57195238Y-23666666D01*
X57100000Y-23571428D01*
X57052380Y-23428571D01*
X57052380Y-23333333D01*
X57100000Y-23190476D01*
X57147619Y-23142857D01*
X57147619Y-22761904D02*
X57100000Y-22714285D01*
X57052380Y-22619047D01*
X57052380Y-22380952D01*
X57100000Y-22285714D01*
X57147619Y-22238095D01*
X57242857Y-22190476D01*
X57338095Y-22190476D01*
X57480952Y-22238095D01*
X58052380Y-22809523D01*
X58052380Y-22190476D01*
X57480952Y-21619047D02*
X57433333Y-21714285D01*
X57385714Y-21761904D01*
X57290476Y-21809523D01*
X57242857Y-21809523D01*
X57147619Y-21761904D01*
X57100000Y-21714285D01*
X57052380Y-21619047D01*
X57052380Y-21428571D01*
X57100000Y-21333333D01*
X57147619Y-21285714D01*
X57242857Y-21238095D01*
X57290476Y-21238095D01*
X57385714Y-21285714D01*
X57433333Y-21333333D01*
X57480952Y-21428571D01*
X57480952Y-21619047D01*
X57528571Y-21714285D01*
X57576190Y-21761904D01*
X57671428Y-21809523D01*
X57861904Y-21809523D01*
X57957142Y-21761904D01*
X58004761Y-21714285D01*
X58052380Y-21619047D01*
X58052380Y-21428571D01*
X58004761Y-21333333D01*
X57957142Y-21285714D01*
X57861904Y-21238095D01*
X57671428Y-21238095D01*
X57576190Y-21285714D01*
X57528571Y-21333333D01*
X57480952Y-21428571D01*
%TO.C,C25*%
X67557142Y-23342857D02*
X67604761Y-23390476D01*
X67652380Y-23533333D01*
X67652380Y-23628571D01*
X67604761Y-23771428D01*
X67509523Y-23866666D01*
X67414285Y-23914285D01*
X67223809Y-23961904D01*
X67080952Y-23961904D01*
X66890476Y-23914285D01*
X66795238Y-23866666D01*
X66700000Y-23771428D01*
X66652380Y-23628571D01*
X66652380Y-23533333D01*
X66700000Y-23390476D01*
X66747619Y-23342857D01*
X66747619Y-22961904D02*
X66700000Y-22914285D01*
X66652380Y-22819047D01*
X66652380Y-22580952D01*
X66700000Y-22485714D01*
X66747619Y-22438095D01*
X66842857Y-22390476D01*
X66938095Y-22390476D01*
X67080952Y-22438095D01*
X67652380Y-23009523D01*
X67652380Y-22390476D01*
X66652380Y-21485714D02*
X66652380Y-21961904D01*
X67128571Y-22009523D01*
X67080952Y-21961904D01*
X67033333Y-21866666D01*
X67033333Y-21628571D01*
X67080952Y-21533333D01*
X67128571Y-21485714D01*
X67223809Y-21438095D01*
X67461904Y-21438095D01*
X67557142Y-21485714D01*
X67604761Y-21533333D01*
X67652380Y-21628571D01*
X67652380Y-21866666D01*
X67604761Y-21961904D01*
X67557142Y-22009523D01*
%TO.C,C24*%
X68857142Y-23342857D02*
X68904761Y-23390476D01*
X68952380Y-23533333D01*
X68952380Y-23628571D01*
X68904761Y-23771428D01*
X68809523Y-23866666D01*
X68714285Y-23914285D01*
X68523809Y-23961904D01*
X68380952Y-23961904D01*
X68190476Y-23914285D01*
X68095238Y-23866666D01*
X68000000Y-23771428D01*
X67952380Y-23628571D01*
X67952380Y-23533333D01*
X68000000Y-23390476D01*
X68047619Y-23342857D01*
X68047619Y-22961904D02*
X68000000Y-22914285D01*
X67952380Y-22819047D01*
X67952380Y-22580952D01*
X68000000Y-22485714D01*
X68047619Y-22438095D01*
X68142857Y-22390476D01*
X68238095Y-22390476D01*
X68380952Y-22438095D01*
X68952380Y-23009523D01*
X68952380Y-22390476D01*
X68285714Y-21533333D02*
X68952380Y-21533333D01*
X67904761Y-21771428D02*
X68619047Y-22009523D01*
X68619047Y-21390476D01*
%TO.C,J13*%
X128632380Y-90394523D02*
X129346666Y-90394523D01*
X129489523Y-90442142D01*
X129584761Y-90537380D01*
X129632380Y-90680238D01*
X129632380Y-90775476D01*
X129632380Y-89394523D02*
X129632380Y-89965952D01*
X129632380Y-89680238D02*
X128632380Y-89680238D01*
X128775238Y-89775476D01*
X128870476Y-89870714D01*
X128918095Y-89965952D01*
X128632380Y-89061190D02*
X128632380Y-88442142D01*
X129013333Y-88775476D01*
X129013333Y-88632619D01*
X129060952Y-88537380D01*
X129108571Y-88489761D01*
X129203809Y-88442142D01*
X129441904Y-88442142D01*
X129537142Y-88489761D01*
X129584761Y-88537380D01*
X129632380Y-88632619D01*
X129632380Y-88918333D01*
X129584761Y-89013571D01*
X129537142Y-89061190D01*
%TO.C,Q1*%
X112704761Y-36847619D02*
X112609523Y-36800000D01*
X112514285Y-36704761D01*
X112371428Y-36561904D01*
X112276190Y-36514285D01*
X112180952Y-36514285D01*
X112228571Y-36752380D02*
X112133333Y-36704761D01*
X112038095Y-36609523D01*
X111990476Y-36419047D01*
X111990476Y-36085714D01*
X112038095Y-35895238D01*
X112133333Y-35800000D01*
X112228571Y-35752380D01*
X112419047Y-35752380D01*
X112514285Y-35800000D01*
X112609523Y-35895238D01*
X112657142Y-36085714D01*
X112657142Y-36419047D01*
X112609523Y-36609523D01*
X112514285Y-36704761D01*
X112419047Y-36752380D01*
X112228571Y-36752380D01*
X113609523Y-36752380D02*
X113038095Y-36752380D01*
X113323809Y-36752380D02*
X113323809Y-35752380D01*
X113228571Y-35895238D01*
X113133333Y-35990476D01*
X113038095Y-36038095D01*
%TO.C,U1*%
X62352380Y-38811904D02*
X63161904Y-38811904D01*
X63257142Y-38764285D01*
X63304761Y-38716666D01*
X63352380Y-38621428D01*
X63352380Y-38430952D01*
X63304761Y-38335714D01*
X63257142Y-38288095D01*
X63161904Y-38240476D01*
X62352380Y-38240476D01*
X63352380Y-37240476D02*
X63352380Y-37811904D01*
X63352380Y-37526190D02*
X62352380Y-37526190D01*
X62495238Y-37621428D01*
X62590476Y-37716666D01*
X62638095Y-37811904D01*
%TO.C,C5*%
X73817142Y-36016666D02*
X73864761Y-36064285D01*
X73912380Y-36207142D01*
X73912380Y-36302380D01*
X73864761Y-36445238D01*
X73769523Y-36540476D01*
X73674285Y-36588095D01*
X73483809Y-36635714D01*
X73340952Y-36635714D01*
X73150476Y-36588095D01*
X73055238Y-36540476D01*
X72960000Y-36445238D01*
X72912380Y-36302380D01*
X72912380Y-36207142D01*
X72960000Y-36064285D01*
X73007619Y-36016666D01*
X72912380Y-35111904D02*
X72912380Y-35588095D01*
X73388571Y-35635714D01*
X73340952Y-35588095D01*
X73293333Y-35492857D01*
X73293333Y-35254761D01*
X73340952Y-35159523D01*
X73388571Y-35111904D01*
X73483809Y-35064285D01*
X73721904Y-35064285D01*
X73817142Y-35111904D01*
X73864761Y-35159523D01*
X73912380Y-35254761D01*
X73912380Y-35492857D01*
X73864761Y-35588095D01*
X73817142Y-35635714D01*
%TO.C,C11*%
X101757142Y-38552857D02*
X101804761Y-38600476D01*
X101852380Y-38743333D01*
X101852380Y-38838571D01*
X101804761Y-38981428D01*
X101709523Y-39076666D01*
X101614285Y-39124285D01*
X101423809Y-39171904D01*
X101280952Y-39171904D01*
X101090476Y-39124285D01*
X100995238Y-39076666D01*
X100900000Y-38981428D01*
X100852380Y-38838571D01*
X100852380Y-38743333D01*
X100900000Y-38600476D01*
X100947619Y-38552857D01*
X101852380Y-37600476D02*
X101852380Y-38171904D01*
X101852380Y-37886190D02*
X100852380Y-37886190D01*
X100995238Y-37981428D01*
X101090476Y-38076666D01*
X101138095Y-38171904D01*
X101852380Y-36648095D02*
X101852380Y-37219523D01*
X101852380Y-36933809D02*
X100852380Y-36933809D01*
X100995238Y-37029047D01*
X101090476Y-37124285D01*
X101138095Y-37219523D01*
%TO.C,J16*%
X128632380Y-132713523D02*
X129346666Y-132713523D01*
X129489523Y-132761142D01*
X129584761Y-132856380D01*
X129632380Y-132999238D01*
X129632380Y-133094476D01*
X129632380Y-131713523D02*
X129632380Y-132284952D01*
X129632380Y-131999238D02*
X128632380Y-131999238D01*
X128775238Y-132094476D01*
X128870476Y-132189714D01*
X128918095Y-132284952D01*
X128632380Y-130856380D02*
X128632380Y-131046857D01*
X128680000Y-131142095D01*
X128727619Y-131189714D01*
X128870476Y-131284952D01*
X129060952Y-131332571D01*
X129441904Y-131332571D01*
X129537142Y-131284952D01*
X129584761Y-131237333D01*
X129632380Y-131142095D01*
X129632380Y-130951619D01*
X129584761Y-130856380D01*
X129537142Y-130808761D01*
X129441904Y-130761142D01*
X129203809Y-130761142D01*
X129108571Y-130808761D01*
X129060952Y-130856380D01*
X129013333Y-130951619D01*
X129013333Y-131142095D01*
X129060952Y-131237333D01*
X129108571Y-131284952D01*
X129203809Y-131332571D01*
%TO.C,C4*%
X73957142Y-40366666D02*
X74004761Y-40414285D01*
X74052380Y-40557142D01*
X74052380Y-40652380D01*
X74004761Y-40795238D01*
X73909523Y-40890476D01*
X73814285Y-40938095D01*
X73623809Y-40985714D01*
X73480952Y-40985714D01*
X73290476Y-40938095D01*
X73195238Y-40890476D01*
X73100000Y-40795238D01*
X73052380Y-40652380D01*
X73052380Y-40557142D01*
X73100000Y-40414285D01*
X73147619Y-40366666D01*
X73385714Y-39509523D02*
X74052380Y-39509523D01*
X73004761Y-39747619D02*
X73719047Y-39985714D01*
X73719047Y-39366666D01*
%TO.C,U8*%
X99852380Y-48061904D02*
X100661904Y-48061904D01*
X100757142Y-48014285D01*
X100804761Y-47966666D01*
X100852380Y-47871428D01*
X100852380Y-47680952D01*
X100804761Y-47585714D01*
X100757142Y-47538095D01*
X100661904Y-47490476D01*
X99852380Y-47490476D01*
X100280952Y-46871428D02*
X100233333Y-46966666D01*
X100185714Y-47014285D01*
X100090476Y-47061904D01*
X100042857Y-47061904D01*
X99947619Y-47014285D01*
X99900000Y-46966666D01*
X99852380Y-46871428D01*
X99852380Y-46680952D01*
X99900000Y-46585714D01*
X99947619Y-46538095D01*
X100042857Y-46490476D01*
X100090476Y-46490476D01*
X100185714Y-46538095D01*
X100233333Y-46585714D01*
X100280952Y-46680952D01*
X100280952Y-46871428D01*
X100328571Y-46966666D01*
X100376190Y-47014285D01*
X100471428Y-47061904D01*
X100661904Y-47061904D01*
X100757142Y-47014285D01*
X100804761Y-46966666D01*
X100852380Y-46871428D01*
X100852380Y-46680952D01*
X100804761Y-46585714D01*
X100757142Y-46538095D01*
X100661904Y-46490476D01*
X100471428Y-46490476D01*
X100376190Y-46538095D01*
X100328571Y-46585714D01*
X100280952Y-46680952D01*
%TO.C,C10*%
X92557142Y-30352857D02*
X92604761Y-30400476D01*
X92652380Y-30543333D01*
X92652380Y-30638571D01*
X92604761Y-30781428D01*
X92509523Y-30876666D01*
X92414285Y-30924285D01*
X92223809Y-30971904D01*
X92080952Y-30971904D01*
X91890476Y-30924285D01*
X91795238Y-30876666D01*
X91700000Y-30781428D01*
X91652380Y-30638571D01*
X91652380Y-30543333D01*
X91700000Y-30400476D01*
X91747619Y-30352857D01*
X92652380Y-29400476D02*
X92652380Y-29971904D01*
X92652380Y-29686190D02*
X91652380Y-29686190D01*
X91795238Y-29781428D01*
X91890476Y-29876666D01*
X91938095Y-29971904D01*
X91652380Y-28781428D02*
X91652380Y-28686190D01*
X91700000Y-28590952D01*
X91747619Y-28543333D01*
X91842857Y-28495714D01*
X92033333Y-28448095D01*
X92271428Y-28448095D01*
X92461904Y-28495714D01*
X92557142Y-28543333D01*
X92604761Y-28590952D01*
X92652380Y-28686190D01*
X92652380Y-28781428D01*
X92604761Y-28876666D01*
X92557142Y-28924285D01*
X92461904Y-28971904D01*
X92271428Y-29019523D01*
X92033333Y-29019523D01*
X91842857Y-28971904D01*
X91747619Y-28924285D01*
X91700000Y-28876666D01*
X91652380Y-28781428D01*
%TO.C,J11*%
X37260476Y-47522380D02*
X37260476Y-48236666D01*
X37212857Y-48379523D01*
X37117619Y-48474761D01*
X36974761Y-48522380D01*
X36879523Y-48522380D01*
X38260476Y-48522380D02*
X37689047Y-48522380D01*
X37974761Y-48522380D02*
X37974761Y-47522380D01*
X37879523Y-47665238D01*
X37784285Y-47760476D01*
X37689047Y-47808095D01*
X39212857Y-48522380D02*
X38641428Y-48522380D01*
X38927142Y-48522380D02*
X38927142Y-47522380D01*
X38831904Y-47665238D01*
X38736666Y-47760476D01*
X38641428Y-47808095D01*
%TO.C,R3*%
X98733333Y-28062380D02*
X98400000Y-27586190D01*
X98161904Y-28062380D02*
X98161904Y-27062380D01*
X98542857Y-27062380D01*
X98638095Y-27110000D01*
X98685714Y-27157619D01*
X98733333Y-27252857D01*
X98733333Y-27395714D01*
X98685714Y-27490952D01*
X98638095Y-27538571D01*
X98542857Y-27586190D01*
X98161904Y-27586190D01*
X99066666Y-27062380D02*
X99685714Y-27062380D01*
X99352380Y-27443333D01*
X99495238Y-27443333D01*
X99590476Y-27490952D01*
X99638095Y-27538571D01*
X99685714Y-27633809D01*
X99685714Y-27871904D01*
X99638095Y-27967142D01*
X99590476Y-28014761D01*
X99495238Y-28062380D01*
X99209523Y-28062380D01*
X99114285Y-28014761D01*
X99066666Y-27967142D01*
%TO.C,R5*%
X113433333Y-48152380D02*
X113100000Y-47676190D01*
X112861904Y-48152380D02*
X112861904Y-47152380D01*
X113242857Y-47152380D01*
X113338095Y-47200000D01*
X113385714Y-47247619D01*
X113433333Y-47342857D01*
X113433333Y-47485714D01*
X113385714Y-47580952D01*
X113338095Y-47628571D01*
X113242857Y-47676190D01*
X112861904Y-47676190D01*
X114338095Y-47152380D02*
X113861904Y-47152380D01*
X113814285Y-47628571D01*
X113861904Y-47580952D01*
X113957142Y-47533333D01*
X114195238Y-47533333D01*
X114290476Y-47580952D01*
X114338095Y-47628571D01*
X114385714Y-47723809D01*
X114385714Y-47961904D01*
X114338095Y-48057142D01*
X114290476Y-48104761D01*
X114195238Y-48152380D01*
X113957142Y-48152380D01*
X113861904Y-48104761D01*
X113814285Y-48057142D01*
%TO.C,J14*%
X108190476Y-142952380D02*
X108190476Y-143666666D01*
X108142857Y-143809523D01*
X108047619Y-143904761D01*
X107904761Y-143952380D01*
X107809523Y-143952380D01*
X109190476Y-143952380D02*
X108619047Y-143952380D01*
X108904761Y-143952380D02*
X108904761Y-142952380D01*
X108809523Y-143095238D01*
X108714285Y-143190476D01*
X108619047Y-143238095D01*
X110047619Y-143285714D02*
X110047619Y-143952380D01*
X109809523Y-142904761D02*
X109571428Y-143619047D01*
X110190476Y-143619047D01*
%TO.C,C3*%
X110633333Y-29597142D02*
X110585714Y-29644761D01*
X110442857Y-29692380D01*
X110347619Y-29692380D01*
X110204761Y-29644761D01*
X110109523Y-29549523D01*
X110061904Y-29454285D01*
X110014285Y-29263809D01*
X110014285Y-29120952D01*
X110061904Y-28930476D01*
X110109523Y-28835238D01*
X110204761Y-28740000D01*
X110347619Y-28692380D01*
X110442857Y-28692380D01*
X110585714Y-28740000D01*
X110633333Y-28787619D01*
X110966666Y-28692380D02*
X111585714Y-28692380D01*
X111252380Y-29073333D01*
X111395238Y-29073333D01*
X111490476Y-29120952D01*
X111538095Y-29168571D01*
X111585714Y-29263809D01*
X111585714Y-29501904D01*
X111538095Y-29597142D01*
X111490476Y-29644761D01*
X111395238Y-29692380D01*
X111109523Y-29692380D01*
X111014285Y-29644761D01*
X110966666Y-29597142D01*
%TO.C,D1*%
X106461904Y-36652380D02*
X106461904Y-35652380D01*
X106700000Y-35652380D01*
X106842857Y-35700000D01*
X106938095Y-35795238D01*
X106985714Y-35890476D01*
X107033333Y-36080952D01*
X107033333Y-36223809D01*
X106985714Y-36414285D01*
X106938095Y-36509523D01*
X106842857Y-36604761D01*
X106700000Y-36652380D01*
X106461904Y-36652380D01*
X107985714Y-36652380D02*
X107414285Y-36652380D01*
X107700000Y-36652380D02*
X107700000Y-35652380D01*
X107604761Y-35795238D01*
X107509523Y-35890476D01*
X107414285Y-35938095D01*
%TO.C,C17*%
X115703142Y-108242142D02*
X115655523Y-108289761D01*
X115512666Y-108337380D01*
X115417428Y-108337380D01*
X115274571Y-108289761D01*
X115179333Y-108194523D01*
X115131714Y-108099285D01*
X115084095Y-107908809D01*
X115084095Y-107765952D01*
X115131714Y-107575476D01*
X115179333Y-107480238D01*
X115274571Y-107385000D01*
X115417428Y-107337380D01*
X115512666Y-107337380D01*
X115655523Y-107385000D01*
X115703142Y-107432619D01*
X116655523Y-108337380D02*
X116084095Y-108337380D01*
X116369809Y-108337380D02*
X116369809Y-107337380D01*
X116274571Y-107480238D01*
X116179333Y-107575476D01*
X116084095Y-107623095D01*
X116988857Y-107337380D02*
X117655523Y-107337380D01*
X117226952Y-108337380D01*
%TO.C,Y1*%
X108948809Y-120076190D02*
X108948809Y-120552380D01*
X108615476Y-119552380D02*
X108948809Y-120076190D01*
X109282142Y-119552380D01*
X110139285Y-120552380D02*
X109567857Y-120552380D01*
X109853571Y-120552380D02*
X109853571Y-119552380D01*
X109758333Y-119695238D01*
X109663095Y-119790476D01*
X109567857Y-119838095D01*
%TO.C,R13*%
X99867142Y-45252380D02*
X99533809Y-44776190D01*
X99295714Y-45252380D02*
X99295714Y-44252380D01*
X99676666Y-44252380D01*
X99771904Y-44300000D01*
X99819523Y-44347619D01*
X99867142Y-44442857D01*
X99867142Y-44585714D01*
X99819523Y-44680952D01*
X99771904Y-44728571D01*
X99676666Y-44776190D01*
X99295714Y-44776190D01*
X100819523Y-45252380D02*
X100248095Y-45252380D01*
X100533809Y-45252380D02*
X100533809Y-44252380D01*
X100438571Y-44395238D01*
X100343333Y-44490476D01*
X100248095Y-44538095D01*
X101152857Y-44252380D02*
X101771904Y-44252380D01*
X101438571Y-44633333D01*
X101581428Y-44633333D01*
X101676666Y-44680952D01*
X101724285Y-44728571D01*
X101771904Y-44823809D01*
X101771904Y-45061904D01*
X101724285Y-45157142D01*
X101676666Y-45204761D01*
X101581428Y-45252380D01*
X101295714Y-45252380D01*
X101200476Y-45204761D01*
X101152857Y-45157142D01*
%TO.C,C13*%
X113707142Y-136442857D02*
X113754761Y-136490476D01*
X113802380Y-136633333D01*
X113802380Y-136728571D01*
X113754761Y-136871428D01*
X113659523Y-136966666D01*
X113564285Y-137014285D01*
X113373809Y-137061904D01*
X113230952Y-137061904D01*
X113040476Y-137014285D01*
X112945238Y-136966666D01*
X112850000Y-136871428D01*
X112802380Y-136728571D01*
X112802380Y-136633333D01*
X112850000Y-136490476D01*
X112897619Y-136442857D01*
X113802380Y-135490476D02*
X113802380Y-136061904D01*
X113802380Y-135776190D02*
X112802380Y-135776190D01*
X112945238Y-135871428D01*
X113040476Y-135966666D01*
X113088095Y-136061904D01*
X112802380Y-135157142D02*
X112802380Y-134538095D01*
X113183333Y-134871428D01*
X113183333Y-134728571D01*
X113230952Y-134633333D01*
X113278571Y-134585714D01*
X113373809Y-134538095D01*
X113611904Y-134538095D01*
X113707142Y-134585714D01*
X113754761Y-134633333D01*
X113802380Y-134728571D01*
X113802380Y-135014285D01*
X113754761Y-135109523D01*
X113707142Y-135157142D01*
%TO.C,J9*%
X28452380Y-98033333D02*
X29166666Y-98033333D01*
X29309523Y-98080952D01*
X29404761Y-98176190D01*
X29452380Y-98319047D01*
X29452380Y-98414285D01*
X29452380Y-97509523D02*
X29452380Y-97319047D01*
X29404761Y-97223809D01*
X29357142Y-97176190D01*
X29214285Y-97080952D01*
X29023809Y-97033333D01*
X28642857Y-97033333D01*
X28547619Y-97080952D01*
X28500000Y-97128571D01*
X28452380Y-97223809D01*
X28452380Y-97414285D01*
X28500000Y-97509523D01*
X28547619Y-97557142D01*
X28642857Y-97604761D01*
X28880952Y-97604761D01*
X28976190Y-97557142D01*
X29023809Y-97509523D01*
X29071428Y-97414285D01*
X29071428Y-97223809D01*
X29023809Y-97128571D01*
X28976190Y-97080952D01*
X28880952Y-97033333D01*
%TO.C,C12*%
X104797142Y-120642857D02*
X104844761Y-120690476D01*
X104892380Y-120833333D01*
X104892380Y-120928571D01*
X104844761Y-121071428D01*
X104749523Y-121166666D01*
X104654285Y-121214285D01*
X104463809Y-121261904D01*
X104320952Y-121261904D01*
X104130476Y-121214285D01*
X104035238Y-121166666D01*
X103940000Y-121071428D01*
X103892380Y-120928571D01*
X103892380Y-120833333D01*
X103940000Y-120690476D01*
X103987619Y-120642857D01*
X104892380Y-119690476D02*
X104892380Y-120261904D01*
X104892380Y-119976190D02*
X103892380Y-119976190D01*
X104035238Y-120071428D01*
X104130476Y-120166666D01*
X104178095Y-120261904D01*
X103987619Y-119309523D02*
X103940000Y-119261904D01*
X103892380Y-119166666D01*
X103892380Y-118928571D01*
X103940000Y-118833333D01*
X103987619Y-118785714D01*
X104082857Y-118738095D01*
X104178095Y-118738095D01*
X104320952Y-118785714D01*
X104892380Y-119357142D01*
X104892380Y-118738095D01*
%TO.C,J15*%
X128632380Y-114874523D02*
X129346666Y-114874523D01*
X129489523Y-114922142D01*
X129584761Y-115017380D01*
X129632380Y-115160238D01*
X129632380Y-115255476D01*
X129632380Y-113874523D02*
X129632380Y-114445952D01*
X129632380Y-114160238D02*
X128632380Y-114160238D01*
X128775238Y-114255476D01*
X128870476Y-114350714D01*
X128918095Y-114445952D01*
X128632380Y-112969761D02*
X128632380Y-113445952D01*
X129108571Y-113493571D01*
X129060952Y-113445952D01*
X129013333Y-113350714D01*
X129013333Y-113112619D01*
X129060952Y-113017380D01*
X129108571Y-112969761D01*
X129203809Y-112922142D01*
X129441904Y-112922142D01*
X129537142Y-112969761D01*
X129584761Y-113017380D01*
X129632380Y-113112619D01*
X129632380Y-113350714D01*
X129584761Y-113445952D01*
X129537142Y-113493571D01*
%TO.C,J17*%
X128632380Y-150492523D02*
X129346666Y-150492523D01*
X129489523Y-150540142D01*
X129584761Y-150635380D01*
X129632380Y-150778238D01*
X129632380Y-150873476D01*
X129632380Y-149492523D02*
X129632380Y-150063952D01*
X129632380Y-149778238D02*
X128632380Y-149778238D01*
X128775238Y-149873476D01*
X128870476Y-149968714D01*
X128918095Y-150063952D01*
X128632380Y-149159190D02*
X128632380Y-148492523D01*
X129632380Y-148921095D01*
%TO.C,C21*%
X114767142Y-120642857D02*
X114814761Y-120690476D01*
X114862380Y-120833333D01*
X114862380Y-120928571D01*
X114814761Y-121071428D01*
X114719523Y-121166666D01*
X114624285Y-121214285D01*
X114433809Y-121261904D01*
X114290952Y-121261904D01*
X114100476Y-121214285D01*
X114005238Y-121166666D01*
X113910000Y-121071428D01*
X113862380Y-120928571D01*
X113862380Y-120833333D01*
X113910000Y-120690476D01*
X113957619Y-120642857D01*
X113957619Y-120261904D02*
X113910000Y-120214285D01*
X113862380Y-120119047D01*
X113862380Y-119880952D01*
X113910000Y-119785714D01*
X113957619Y-119738095D01*
X114052857Y-119690476D01*
X114148095Y-119690476D01*
X114290952Y-119738095D01*
X114862380Y-120309523D01*
X114862380Y-119690476D01*
X114862380Y-118738095D02*
X114862380Y-119309523D01*
X114862380Y-119023809D02*
X113862380Y-119023809D01*
X114005238Y-119119047D01*
X114100476Y-119214285D01*
X114148095Y-119309523D01*
%TO.C,C1*%
X112833333Y-29257142D02*
X112785714Y-29304761D01*
X112642857Y-29352380D01*
X112547619Y-29352380D01*
X112404761Y-29304761D01*
X112309523Y-29209523D01*
X112261904Y-29114285D01*
X112214285Y-28923809D01*
X112214285Y-28780952D01*
X112261904Y-28590476D01*
X112309523Y-28495238D01*
X112404761Y-28400000D01*
X112547619Y-28352380D01*
X112642857Y-28352380D01*
X112785714Y-28400000D01*
X112833333Y-28447619D01*
X113785714Y-29352380D02*
X113214285Y-29352380D01*
X113500000Y-29352380D02*
X113500000Y-28352380D01*
X113404761Y-28495238D01*
X113309523Y-28590476D01*
X113214285Y-28638095D01*
%TO.C,C14*%
X105282142Y-115442857D02*
X105329761Y-115490476D01*
X105377380Y-115633333D01*
X105377380Y-115728571D01*
X105329761Y-115871428D01*
X105234523Y-115966666D01*
X105139285Y-116014285D01*
X104948809Y-116061904D01*
X104805952Y-116061904D01*
X104615476Y-116014285D01*
X104520238Y-115966666D01*
X104425000Y-115871428D01*
X104377380Y-115728571D01*
X104377380Y-115633333D01*
X104425000Y-115490476D01*
X104472619Y-115442857D01*
X105377380Y-114490476D02*
X105377380Y-115061904D01*
X105377380Y-114776190D02*
X104377380Y-114776190D01*
X104520238Y-114871428D01*
X104615476Y-114966666D01*
X104663095Y-115061904D01*
X104710714Y-113633333D02*
X105377380Y-113633333D01*
X104329761Y-113871428D02*
X105044047Y-114109523D01*
X105044047Y-113490476D01*
%TO.C,D4*%
X106471904Y-45252380D02*
X106471904Y-44252380D01*
X106710000Y-44252380D01*
X106852857Y-44300000D01*
X106948095Y-44395238D01*
X106995714Y-44490476D01*
X107043333Y-44680952D01*
X107043333Y-44823809D01*
X106995714Y-45014285D01*
X106948095Y-45109523D01*
X106852857Y-45204761D01*
X106710000Y-45252380D01*
X106471904Y-45252380D01*
X107900476Y-44585714D02*
X107900476Y-45252380D01*
X107662380Y-44204761D02*
X107424285Y-44919047D01*
X108043333Y-44919047D01*
%TO.C,C8*%
X99457142Y-43076666D02*
X99504761Y-43124285D01*
X99552380Y-43267142D01*
X99552380Y-43362380D01*
X99504761Y-43505238D01*
X99409523Y-43600476D01*
X99314285Y-43648095D01*
X99123809Y-43695714D01*
X98980952Y-43695714D01*
X98790476Y-43648095D01*
X98695238Y-43600476D01*
X98600000Y-43505238D01*
X98552380Y-43362380D01*
X98552380Y-43267142D01*
X98600000Y-43124285D01*
X98647619Y-43076666D01*
X98980952Y-42505238D02*
X98933333Y-42600476D01*
X98885714Y-42648095D01*
X98790476Y-42695714D01*
X98742857Y-42695714D01*
X98647619Y-42648095D01*
X98600000Y-42600476D01*
X98552380Y-42505238D01*
X98552380Y-42314761D01*
X98600000Y-42219523D01*
X98647619Y-42171904D01*
X98742857Y-42124285D01*
X98790476Y-42124285D01*
X98885714Y-42171904D01*
X98933333Y-42219523D01*
X98980952Y-42314761D01*
X98980952Y-42505238D01*
X99028571Y-42600476D01*
X99076190Y-42648095D01*
X99171428Y-42695714D01*
X99361904Y-42695714D01*
X99457142Y-42648095D01*
X99504761Y-42600476D01*
X99552380Y-42505238D01*
X99552380Y-42314761D01*
X99504761Y-42219523D01*
X99457142Y-42171904D01*
X99361904Y-42124285D01*
X99171428Y-42124285D01*
X99076190Y-42171904D01*
X99028571Y-42219523D01*
X98980952Y-42314761D01*
%TO.C,U2*%
X94738095Y-28262380D02*
X94738095Y-29071904D01*
X94785714Y-29167142D01*
X94833333Y-29214761D01*
X94928571Y-29262380D01*
X95119047Y-29262380D01*
X95214285Y-29214761D01*
X95261904Y-29167142D01*
X95309523Y-29071904D01*
X95309523Y-28262380D01*
X95738095Y-28357619D02*
X95785714Y-28310000D01*
X95880952Y-28262380D01*
X96119047Y-28262380D01*
X96214285Y-28310000D01*
X96261904Y-28357619D01*
X96309523Y-28452857D01*
X96309523Y-28548095D01*
X96261904Y-28690952D01*
X95690476Y-29262380D01*
X96309523Y-29262380D01*
%TO.C,R18*%
X107527380Y-99252857D02*
X107051190Y-99586190D01*
X107527380Y-99824285D02*
X106527380Y-99824285D01*
X106527380Y-99443333D01*
X106575000Y-99348095D01*
X106622619Y-99300476D01*
X106717857Y-99252857D01*
X106860714Y-99252857D01*
X106955952Y-99300476D01*
X107003571Y-99348095D01*
X107051190Y-99443333D01*
X107051190Y-99824285D01*
X107527380Y-98300476D02*
X107527380Y-98871904D01*
X107527380Y-98586190D02*
X106527380Y-98586190D01*
X106670238Y-98681428D01*
X106765476Y-98776666D01*
X106813095Y-98871904D01*
X106955952Y-97729047D02*
X106908333Y-97824285D01*
X106860714Y-97871904D01*
X106765476Y-97919523D01*
X106717857Y-97919523D01*
X106622619Y-97871904D01*
X106575000Y-97824285D01*
X106527380Y-97729047D01*
X106527380Y-97538571D01*
X106575000Y-97443333D01*
X106622619Y-97395714D01*
X106717857Y-97348095D01*
X106765476Y-97348095D01*
X106860714Y-97395714D01*
X106908333Y-97443333D01*
X106955952Y-97538571D01*
X106955952Y-97729047D01*
X107003571Y-97824285D01*
X107051190Y-97871904D01*
X107146428Y-97919523D01*
X107336904Y-97919523D01*
X107432142Y-97871904D01*
X107479761Y-97824285D01*
X107527380Y-97729047D01*
X107527380Y-97538571D01*
X107479761Y-97443333D01*
X107432142Y-97395714D01*
X107336904Y-97348095D01*
X107146428Y-97348095D01*
X107051190Y-97395714D01*
X107003571Y-97443333D01*
X106955952Y-97538571D01*
%TO.C,C18*%
X104082142Y-115442857D02*
X104129761Y-115490476D01*
X104177380Y-115633333D01*
X104177380Y-115728571D01*
X104129761Y-115871428D01*
X104034523Y-115966666D01*
X103939285Y-116014285D01*
X103748809Y-116061904D01*
X103605952Y-116061904D01*
X103415476Y-116014285D01*
X103320238Y-115966666D01*
X103225000Y-115871428D01*
X103177380Y-115728571D01*
X103177380Y-115633333D01*
X103225000Y-115490476D01*
X103272619Y-115442857D01*
X104177380Y-114490476D02*
X104177380Y-115061904D01*
X104177380Y-114776190D02*
X103177380Y-114776190D01*
X103320238Y-114871428D01*
X103415476Y-114966666D01*
X103463095Y-115061904D01*
X103605952Y-113919047D02*
X103558333Y-114014285D01*
X103510714Y-114061904D01*
X103415476Y-114109523D01*
X103367857Y-114109523D01*
X103272619Y-114061904D01*
X103225000Y-114014285D01*
X103177380Y-113919047D01*
X103177380Y-113728571D01*
X103225000Y-113633333D01*
X103272619Y-113585714D01*
X103367857Y-113538095D01*
X103415476Y-113538095D01*
X103510714Y-113585714D01*
X103558333Y-113633333D01*
X103605952Y-113728571D01*
X103605952Y-113919047D01*
X103653571Y-114014285D01*
X103701190Y-114061904D01*
X103796428Y-114109523D01*
X103986904Y-114109523D01*
X104082142Y-114061904D01*
X104129761Y-114014285D01*
X104177380Y-113919047D01*
X104177380Y-113728571D01*
X104129761Y-113633333D01*
X104082142Y-113585714D01*
X103986904Y-113538095D01*
X103796428Y-113538095D01*
X103701190Y-113585714D01*
X103653571Y-113633333D01*
X103605952Y-113728571D01*
%TO.C,C7*%
X102757142Y-31496666D02*
X102804761Y-31544285D01*
X102852380Y-31687142D01*
X102852380Y-31782380D01*
X102804761Y-31925238D01*
X102709523Y-32020476D01*
X102614285Y-32068095D01*
X102423809Y-32115714D01*
X102280952Y-32115714D01*
X102090476Y-32068095D01*
X101995238Y-32020476D01*
X101900000Y-31925238D01*
X101852380Y-31782380D01*
X101852380Y-31687142D01*
X101900000Y-31544285D01*
X101947619Y-31496666D01*
X101852380Y-31163333D02*
X101852380Y-30496666D01*
X102852380Y-30925238D01*
%TO.C,R19*%
X106227380Y-99252857D02*
X105751190Y-99586190D01*
X106227380Y-99824285D02*
X105227380Y-99824285D01*
X105227380Y-99443333D01*
X105275000Y-99348095D01*
X105322619Y-99300476D01*
X105417857Y-99252857D01*
X105560714Y-99252857D01*
X105655952Y-99300476D01*
X105703571Y-99348095D01*
X105751190Y-99443333D01*
X105751190Y-99824285D01*
X106227380Y-98300476D02*
X106227380Y-98871904D01*
X106227380Y-98586190D02*
X105227380Y-98586190D01*
X105370238Y-98681428D01*
X105465476Y-98776666D01*
X105513095Y-98871904D01*
X106227380Y-97824285D02*
X106227380Y-97633809D01*
X106179761Y-97538571D01*
X106132142Y-97490952D01*
X105989285Y-97395714D01*
X105798809Y-97348095D01*
X105417857Y-97348095D01*
X105322619Y-97395714D01*
X105275000Y-97443333D01*
X105227380Y-97538571D01*
X105227380Y-97729047D01*
X105275000Y-97824285D01*
X105322619Y-97871904D01*
X105417857Y-97919523D01*
X105655952Y-97919523D01*
X105751190Y-97871904D01*
X105798809Y-97824285D01*
X105846428Y-97729047D01*
X105846428Y-97538571D01*
X105798809Y-97443333D01*
X105751190Y-97395714D01*
X105655952Y-97348095D01*
%TO.C,C22*%
X118107142Y-79210357D02*
X118154761Y-79257976D01*
X118202380Y-79400833D01*
X118202380Y-79496071D01*
X118154761Y-79638928D01*
X118059523Y-79734166D01*
X117964285Y-79781785D01*
X117773809Y-79829404D01*
X117630952Y-79829404D01*
X117440476Y-79781785D01*
X117345238Y-79734166D01*
X117250000Y-79638928D01*
X117202380Y-79496071D01*
X117202380Y-79400833D01*
X117250000Y-79257976D01*
X117297619Y-79210357D01*
X117297619Y-78829404D02*
X117250000Y-78781785D01*
X117202380Y-78686547D01*
X117202380Y-78448452D01*
X117250000Y-78353214D01*
X117297619Y-78305595D01*
X117392857Y-78257976D01*
X117488095Y-78257976D01*
X117630952Y-78305595D01*
X118202380Y-78877023D01*
X118202380Y-78257976D01*
X117297619Y-77877023D02*
X117250000Y-77829404D01*
X117202380Y-77734166D01*
X117202380Y-77496071D01*
X117250000Y-77400833D01*
X117297619Y-77353214D01*
X117392857Y-77305595D01*
X117488095Y-77305595D01*
X117630952Y-77353214D01*
X118202380Y-77924642D01*
X118202380Y-77305595D01*
%TO.C,R8*%
X105432380Y-136566666D02*
X104956190Y-136900000D01*
X105432380Y-137138095D02*
X104432380Y-137138095D01*
X104432380Y-136757142D01*
X104480000Y-136661904D01*
X104527619Y-136614285D01*
X104622857Y-136566666D01*
X104765714Y-136566666D01*
X104860952Y-136614285D01*
X104908571Y-136661904D01*
X104956190Y-136757142D01*
X104956190Y-137138095D01*
X104860952Y-135995238D02*
X104813333Y-136090476D01*
X104765714Y-136138095D01*
X104670476Y-136185714D01*
X104622857Y-136185714D01*
X104527619Y-136138095D01*
X104480000Y-136090476D01*
X104432380Y-135995238D01*
X104432380Y-135804761D01*
X104480000Y-135709523D01*
X104527619Y-135661904D01*
X104622857Y-135614285D01*
X104670476Y-135614285D01*
X104765714Y-135661904D01*
X104813333Y-135709523D01*
X104860952Y-135804761D01*
X104860952Y-135995238D01*
X104908571Y-136090476D01*
X104956190Y-136138095D01*
X105051428Y-136185714D01*
X105241904Y-136185714D01*
X105337142Y-136138095D01*
X105384761Y-136090476D01*
X105432380Y-135995238D01*
X105432380Y-135804761D01*
X105384761Y-135709523D01*
X105337142Y-135661904D01*
X105241904Y-135614285D01*
X105051428Y-135614285D01*
X104956190Y-135661904D01*
X104908571Y-135709523D01*
X104860952Y-135804761D01*
%TO.C,R2*%
X90052380Y-28976666D02*
X89576190Y-29310000D01*
X90052380Y-29548095D02*
X89052380Y-29548095D01*
X89052380Y-29167142D01*
X89100000Y-29071904D01*
X89147619Y-29024285D01*
X89242857Y-28976666D01*
X89385714Y-28976666D01*
X89480952Y-29024285D01*
X89528571Y-29071904D01*
X89576190Y-29167142D01*
X89576190Y-29548095D01*
X89147619Y-28595714D02*
X89100000Y-28548095D01*
X89052380Y-28452857D01*
X89052380Y-28214761D01*
X89100000Y-28119523D01*
X89147619Y-28071904D01*
X89242857Y-28024285D01*
X89338095Y-28024285D01*
X89480952Y-28071904D01*
X90052380Y-28643333D01*
X90052380Y-28024285D01*
X89528571Y-33938095D02*
X89528571Y-34271428D01*
X90052380Y-34271428D02*
X89052380Y-34271428D01*
X89052380Y-33795238D01*
X89528571Y-33080952D02*
X89576190Y-32938095D01*
X89623809Y-32890476D01*
X89719047Y-32842857D01*
X89861904Y-32842857D01*
X89957142Y-32890476D01*
X90004761Y-32938095D01*
X90052380Y-33033333D01*
X90052380Y-33414285D01*
X89052380Y-33414285D01*
X89052380Y-33080952D01*
X89100000Y-32985714D01*
X89147619Y-32938095D01*
X89242857Y-32890476D01*
X89338095Y-32890476D01*
X89433333Y-32938095D01*
X89480952Y-32985714D01*
X89528571Y-33080952D01*
X89528571Y-33414285D01*
X89052380Y-32557142D02*
X89052380Y-31985714D01*
X90052380Y-32271428D02*
X89052380Y-32271428D01*
D11*
%TO.C,J7*%
X38361654Y-31030399D02*
X38933409Y-31030399D01*
X39047760Y-31068516D01*
X39123994Y-31144750D01*
X39162111Y-31259101D01*
X39162111Y-31335335D01*
X38361654Y-30725463D02*
X38361654Y-30191825D01*
X39162111Y-30534878D01*
X25779660Y-34462116D02*
X24978321Y-34462116D01*
X25359911Y-34462116D02*
X25359911Y-34004208D01*
X25779660Y-34004208D02*
X24978321Y-34004208D01*
X25779660Y-33622618D02*
X24978321Y-33622618D01*
X24978321Y-33431823D01*
X25016480Y-33317346D01*
X25092798Y-33241028D01*
X25169116Y-33202869D01*
X25321752Y-33164710D01*
X25436229Y-33164710D01*
X25588865Y-33202869D01*
X25665183Y-33241028D01*
X25741501Y-33317346D01*
X25779660Y-33431823D01*
X25779660Y-33622618D01*
X25779660Y-32821279D02*
X24978321Y-32821279D01*
X25550706Y-32554166D01*
X24978321Y-32287053D01*
X25779660Y-32287053D01*
X25779660Y-31905463D02*
X24978321Y-31905463D01*
X25855978Y-31714668D02*
X25855978Y-31104124D01*
X25550706Y-30951488D02*
X25550706Y-30569898D01*
X25779660Y-31027806D02*
X24978321Y-30760693D01*
X25779660Y-30493580D01*
X25855978Y-30417262D02*
X25855978Y-29806718D01*
X25779660Y-29196174D02*
X25779660Y-29654082D01*
X25779660Y-29425128D02*
X24978321Y-29425128D01*
X25092798Y-29501446D01*
X25169116Y-29577764D01*
X25207275Y-29654082D01*
X25703342Y-28852743D02*
X25741501Y-28814584D01*
X25779660Y-28852743D01*
X25741501Y-28890902D01*
X25703342Y-28852743D01*
X25779660Y-28852743D01*
X25245434Y-28127722D02*
X25779660Y-28127722D01*
X24940162Y-28318517D02*
X25512547Y-28509312D01*
X25512547Y-28013245D01*
D10*
%TO.C,U14*%
X111961904Y-76452380D02*
X111961904Y-77261904D01*
X112009523Y-77357142D01*
X112057142Y-77404761D01*
X112152380Y-77452380D01*
X112342857Y-77452380D01*
X112438095Y-77404761D01*
X112485714Y-77357142D01*
X112533333Y-77261904D01*
X112533333Y-76452380D01*
X113533333Y-77452380D02*
X112961904Y-77452380D01*
X113247619Y-77452380D02*
X113247619Y-76452380D01*
X113152380Y-76595238D01*
X113057142Y-76690476D01*
X112961904Y-76738095D01*
X114390476Y-76785714D02*
X114390476Y-77452380D01*
X114152380Y-76404761D02*
X113914285Y-77119047D01*
X114533333Y-77119047D01*
%TO.C,C23*%
X110607142Y-81884642D02*
X110559523Y-81932261D01*
X110416666Y-81979880D01*
X110321428Y-81979880D01*
X110178571Y-81932261D01*
X110083333Y-81837023D01*
X110035714Y-81741785D01*
X109988095Y-81551309D01*
X109988095Y-81408452D01*
X110035714Y-81217976D01*
X110083333Y-81122738D01*
X110178571Y-81027500D01*
X110321428Y-80979880D01*
X110416666Y-80979880D01*
X110559523Y-81027500D01*
X110607142Y-81075119D01*
X110988095Y-81075119D02*
X111035714Y-81027500D01*
X111130952Y-80979880D01*
X111369047Y-80979880D01*
X111464285Y-81027500D01*
X111511904Y-81075119D01*
X111559523Y-81170357D01*
X111559523Y-81265595D01*
X111511904Y-81408452D01*
X110940476Y-81979880D01*
X111559523Y-81979880D01*
X111892857Y-80979880D02*
X112511904Y-80979880D01*
X112178571Y-81360833D01*
X112321428Y-81360833D01*
X112416666Y-81408452D01*
X112464285Y-81456071D01*
X112511904Y-81551309D01*
X112511904Y-81789404D01*
X112464285Y-81884642D01*
X112416666Y-81932261D01*
X112321428Y-81979880D01*
X112035714Y-81979880D01*
X111940476Y-81932261D01*
X111892857Y-81884642D01*
%TO.C,C27*%
X113607142Y-81924642D02*
X113559523Y-81972261D01*
X113416666Y-82019880D01*
X113321428Y-82019880D01*
X113178571Y-81972261D01*
X113083333Y-81877023D01*
X113035714Y-81781785D01*
X112988095Y-81591309D01*
X112988095Y-81448452D01*
X113035714Y-81257976D01*
X113083333Y-81162738D01*
X113178571Y-81067500D01*
X113321428Y-81019880D01*
X113416666Y-81019880D01*
X113559523Y-81067500D01*
X113607142Y-81115119D01*
X113988095Y-81115119D02*
X114035714Y-81067500D01*
X114130952Y-81019880D01*
X114369047Y-81019880D01*
X114464285Y-81067500D01*
X114511904Y-81115119D01*
X114559523Y-81210357D01*
X114559523Y-81305595D01*
X114511904Y-81448452D01*
X113940476Y-82019880D01*
X114559523Y-82019880D01*
X114892857Y-81019880D02*
X115559523Y-81019880D01*
X115130952Y-82019880D01*
%TO.C,L1*%
X81952380Y-35366666D02*
X81952380Y-35842857D01*
X80952380Y-35842857D01*
X81952380Y-34509523D02*
X81952380Y-35080952D01*
X81952380Y-34795238D02*
X80952380Y-34795238D01*
X81095238Y-34890476D01*
X81190476Y-34985714D01*
X81238095Y-35080952D01*
%TO.C,C19*%
X104182142Y-108442857D02*
X104229761Y-108490476D01*
X104277380Y-108633333D01*
X104277380Y-108728571D01*
X104229761Y-108871428D01*
X104134523Y-108966666D01*
X104039285Y-109014285D01*
X103848809Y-109061904D01*
X103705952Y-109061904D01*
X103515476Y-109014285D01*
X103420238Y-108966666D01*
X103325000Y-108871428D01*
X103277380Y-108728571D01*
X103277380Y-108633333D01*
X103325000Y-108490476D01*
X103372619Y-108442857D01*
X104277380Y-107490476D02*
X104277380Y-108061904D01*
X104277380Y-107776190D02*
X103277380Y-107776190D01*
X103420238Y-107871428D01*
X103515476Y-107966666D01*
X103563095Y-108061904D01*
X104277380Y-107014285D02*
X104277380Y-106823809D01*
X104229761Y-106728571D01*
X104182142Y-106680952D01*
X104039285Y-106585714D01*
X103848809Y-106538095D01*
X103467857Y-106538095D01*
X103372619Y-106585714D01*
X103325000Y-106633333D01*
X103277380Y-106728571D01*
X103277380Y-106919047D01*
X103325000Y-107014285D01*
X103372619Y-107061904D01*
X103467857Y-107109523D01*
X103705952Y-107109523D01*
X103801190Y-107061904D01*
X103848809Y-107014285D01*
X103896428Y-106919047D01*
X103896428Y-106728571D01*
X103848809Y-106633333D01*
X103801190Y-106585714D01*
X103705952Y-106538095D01*
%TO.C,U3*%
X108763095Y-111652380D02*
X108763095Y-112461904D01*
X108810714Y-112557142D01*
X108858333Y-112604761D01*
X108953571Y-112652380D01*
X109144047Y-112652380D01*
X109239285Y-112604761D01*
X109286904Y-112557142D01*
X109334523Y-112461904D01*
X109334523Y-111652380D01*
X109715476Y-111652380D02*
X110334523Y-111652380D01*
X110001190Y-112033333D01*
X110144047Y-112033333D01*
X110239285Y-112080952D01*
X110286904Y-112128571D01*
X110334523Y-112223809D01*
X110334523Y-112461904D01*
X110286904Y-112557142D01*
X110239285Y-112604761D01*
X110144047Y-112652380D01*
X109858333Y-112652380D01*
X109763095Y-112604761D01*
X109715476Y-112557142D01*
%TO.C,U6*%
X108713095Y-100852380D02*
X108713095Y-101661904D01*
X108760714Y-101757142D01*
X108808333Y-101804761D01*
X108903571Y-101852380D01*
X109094047Y-101852380D01*
X109189285Y-101804761D01*
X109236904Y-101757142D01*
X109284523Y-101661904D01*
X109284523Y-100852380D01*
X110189285Y-100852380D02*
X109998809Y-100852380D01*
X109903571Y-100900000D01*
X109855952Y-100947619D01*
X109760714Y-101090476D01*
X109713095Y-101280952D01*
X109713095Y-101661904D01*
X109760714Y-101757142D01*
X109808333Y-101804761D01*
X109903571Y-101852380D01*
X110094047Y-101852380D01*
X110189285Y-101804761D01*
X110236904Y-101757142D01*
X110284523Y-101661904D01*
X110284523Y-101423809D01*
X110236904Y-101328571D01*
X110189285Y-101280952D01*
X110094047Y-101233333D01*
X109903571Y-101233333D01*
X109808333Y-101280952D01*
X109760714Y-101328571D01*
X109713095Y-101423809D01*
D11*
%TO.C,J8*%
X124265514Y-67803239D02*
X124837269Y-67803239D01*
X124951620Y-67841356D01*
X125027854Y-67917590D01*
X125065971Y-68031941D01*
X125065971Y-68108175D01*
X124608567Y-67307718D02*
X124570450Y-67383952D01*
X124532333Y-67422069D01*
X124456099Y-67460186D01*
X124417982Y-67460186D01*
X124341748Y-67422069D01*
X124303631Y-67383952D01*
X124265514Y-67307718D01*
X124265514Y-67155250D01*
X124303631Y-67079016D01*
X124341748Y-67040899D01*
X124417982Y-67002782D01*
X124456099Y-67002782D01*
X124532333Y-67040899D01*
X124570450Y-67079016D01*
X124608567Y-67155250D01*
X124608567Y-67307718D01*
X124646684Y-67383952D01*
X124684801Y-67422069D01*
X124761035Y-67460186D01*
X124913503Y-67460186D01*
X124989737Y-67422069D01*
X125027854Y-67383952D01*
X125065971Y-67307718D01*
X125065971Y-67155250D01*
X125027854Y-67079016D01*
X124989737Y-67040899D01*
X124913503Y-67002782D01*
X124761035Y-67002782D01*
X124684801Y-67040899D01*
X124646684Y-67079016D01*
X124608567Y-67155250D01*
D10*
%TO.C,J2*%
X120952381Y-33383334D02*
X121666667Y-33383334D01*
X121809524Y-33430953D01*
X121904762Y-33526191D01*
X121952381Y-33669048D01*
X121952381Y-33764286D01*
X121047620Y-32954762D02*
X121000001Y-32907143D01*
X120952381Y-32811905D01*
X120952381Y-32573810D01*
X121000001Y-32478572D01*
X121047620Y-32430953D01*
X121142858Y-32383334D01*
X121238096Y-32383334D01*
X121380953Y-32430953D01*
X121952381Y-33002381D01*
X121952381Y-32383334D01*
%TO.C,C16*%
X105382142Y-108442857D02*
X105429761Y-108490476D01*
X105477380Y-108633333D01*
X105477380Y-108728571D01*
X105429761Y-108871428D01*
X105334523Y-108966666D01*
X105239285Y-109014285D01*
X105048809Y-109061904D01*
X104905952Y-109061904D01*
X104715476Y-109014285D01*
X104620238Y-108966666D01*
X104525000Y-108871428D01*
X104477380Y-108728571D01*
X104477380Y-108633333D01*
X104525000Y-108490476D01*
X104572619Y-108442857D01*
X105477380Y-107490476D02*
X105477380Y-108061904D01*
X105477380Y-107776190D02*
X104477380Y-107776190D01*
X104620238Y-107871428D01*
X104715476Y-107966666D01*
X104763095Y-108061904D01*
X104477380Y-106633333D02*
X104477380Y-106823809D01*
X104525000Y-106919047D01*
X104572619Y-106966666D01*
X104715476Y-107061904D01*
X104905952Y-107109523D01*
X105286904Y-107109523D01*
X105382142Y-107061904D01*
X105429761Y-107014285D01*
X105477380Y-106919047D01*
X105477380Y-106728571D01*
X105429761Y-106633333D01*
X105382142Y-106585714D01*
X105286904Y-106538095D01*
X105048809Y-106538095D01*
X104953571Y-106585714D01*
X104905952Y-106633333D01*
X104858333Y-106728571D01*
X104858333Y-106919047D01*
X104905952Y-107014285D01*
X104953571Y-107061904D01*
X105048809Y-107109523D01*
%TO.C,J5*%
X133722380Y-76561333D02*
X134436666Y-76561333D01*
X134579523Y-76608952D01*
X134674761Y-76704190D01*
X134722380Y-76847047D01*
X134722380Y-76942285D01*
X133722380Y-75608952D02*
X133722380Y-76085142D01*
X134198571Y-76132761D01*
X134150952Y-76085142D01*
X134103333Y-75989904D01*
X134103333Y-75751809D01*
X134150952Y-75656571D01*
X134198571Y-75608952D01*
X134293809Y-75561333D01*
X134531904Y-75561333D01*
X134627142Y-75608952D01*
X134674761Y-75656571D01*
X134722380Y-75751809D01*
X134722380Y-75989904D01*
X134674761Y-76085142D01*
X134627142Y-76132761D01*
%TO.C,C26*%
X111557142Y-74057142D02*
X111509523Y-74104761D01*
X111366666Y-74152380D01*
X111271428Y-74152380D01*
X111128571Y-74104761D01*
X111033333Y-74009523D01*
X110985714Y-73914285D01*
X110938095Y-73723809D01*
X110938095Y-73580952D01*
X110985714Y-73390476D01*
X111033333Y-73295238D01*
X111128571Y-73200000D01*
X111271428Y-73152380D01*
X111366666Y-73152380D01*
X111509523Y-73200000D01*
X111557142Y-73247619D01*
X111938095Y-73247619D02*
X111985714Y-73200000D01*
X112080952Y-73152380D01*
X112319047Y-73152380D01*
X112414285Y-73200000D01*
X112461904Y-73247619D01*
X112509523Y-73342857D01*
X112509523Y-73438095D01*
X112461904Y-73580952D01*
X111890476Y-74152380D01*
X112509523Y-74152380D01*
X113366666Y-73152380D02*
X113176190Y-73152380D01*
X113080952Y-73200000D01*
X113033333Y-73247619D01*
X112938095Y-73390476D01*
X112890476Y-73580952D01*
X112890476Y-73961904D01*
X112938095Y-74057142D01*
X112985714Y-74104761D01*
X113080952Y-74152380D01*
X113271428Y-74152380D01*
X113366666Y-74104761D01*
X113414285Y-74057142D01*
X113461904Y-73961904D01*
X113461904Y-73723809D01*
X113414285Y-73628571D01*
X113366666Y-73580952D01*
X113271428Y-73533333D01*
X113080952Y-73533333D01*
X112985714Y-73580952D01*
X112938095Y-73628571D01*
X112890476Y-73723809D01*
%TO.C,U5*%
X108388095Y-133952380D02*
X108388095Y-134761904D01*
X108435714Y-134857142D01*
X108483333Y-134904761D01*
X108578571Y-134952380D01*
X108769047Y-134952380D01*
X108864285Y-134904761D01*
X108911904Y-134857142D01*
X108959523Y-134761904D01*
X108959523Y-133952380D01*
X109911904Y-133952380D02*
X109435714Y-133952380D01*
X109388095Y-134428571D01*
X109435714Y-134380952D01*
X109530952Y-134333333D01*
X109769047Y-134333333D01*
X109864285Y-134380952D01*
X109911904Y-134428571D01*
X109959523Y-134523809D01*
X109959523Y-134761904D01*
X109911904Y-134857142D01*
X109864285Y-134904761D01*
X109769047Y-134952380D01*
X109530952Y-134952380D01*
X109435714Y-134904761D01*
X109388095Y-134857142D01*
%TO.C,C6*%
X104007142Y-31496666D02*
X104054761Y-31544285D01*
X104102380Y-31687142D01*
X104102380Y-31782380D01*
X104054761Y-31925238D01*
X103959523Y-32020476D01*
X103864285Y-32068095D01*
X103673809Y-32115714D01*
X103530952Y-32115714D01*
X103340476Y-32068095D01*
X103245238Y-32020476D01*
X103150000Y-31925238D01*
X103102380Y-31782380D01*
X103102380Y-31687142D01*
X103150000Y-31544285D01*
X103197619Y-31496666D01*
X103102380Y-30639523D02*
X103102380Y-30830000D01*
X103150000Y-30925238D01*
X103197619Y-30972857D01*
X103340476Y-31068095D01*
X103530952Y-31115714D01*
X103911904Y-31115714D01*
X104007142Y-31068095D01*
X104054761Y-31020476D01*
X104102380Y-30925238D01*
X104102380Y-30734761D01*
X104054761Y-30639523D01*
X104007142Y-30591904D01*
X103911904Y-30544285D01*
X103673809Y-30544285D01*
X103578571Y-30591904D01*
X103530952Y-30639523D01*
X103483333Y-30734761D01*
X103483333Y-30925238D01*
X103530952Y-31020476D01*
X103578571Y-31068095D01*
X103673809Y-31115714D01*
%TO.C,C2*%
X105257142Y-31596666D02*
X105304761Y-31644285D01*
X105352380Y-31787142D01*
X105352380Y-31882380D01*
X105304761Y-32025238D01*
X105209523Y-32120476D01*
X105114285Y-32168095D01*
X104923809Y-32215714D01*
X104780952Y-32215714D01*
X104590476Y-32168095D01*
X104495238Y-32120476D01*
X104400000Y-32025238D01*
X104352380Y-31882380D01*
X104352380Y-31787142D01*
X104400000Y-31644285D01*
X104447619Y-31596666D01*
X104447619Y-31215714D02*
X104400000Y-31168095D01*
X104352380Y-31072857D01*
X104352380Y-30834761D01*
X104400000Y-30739523D01*
X104447619Y-30691904D01*
X104542857Y-30644285D01*
X104638095Y-30644285D01*
X104780952Y-30691904D01*
X105352380Y-31263333D01*
X105352380Y-30644285D01*
%TO.C,C20*%
X115702142Y-109458142D02*
X115654523Y-109505761D01*
X115511666Y-109553380D01*
X115416428Y-109553380D01*
X115273571Y-109505761D01*
X115178333Y-109410523D01*
X115130714Y-109315285D01*
X115083095Y-109124809D01*
X115083095Y-108981952D01*
X115130714Y-108791476D01*
X115178333Y-108696238D01*
X115273571Y-108601000D01*
X115416428Y-108553380D01*
X115511666Y-108553380D01*
X115654523Y-108601000D01*
X115702142Y-108648619D01*
X116083095Y-108648619D02*
X116130714Y-108601000D01*
X116225952Y-108553380D01*
X116464047Y-108553380D01*
X116559285Y-108601000D01*
X116606904Y-108648619D01*
X116654523Y-108743857D01*
X116654523Y-108839095D01*
X116606904Y-108981952D01*
X116035476Y-109553380D01*
X116654523Y-109553380D01*
X117273571Y-108553380D02*
X117368809Y-108553380D01*
X117464047Y-108601000D01*
X117511666Y-108648619D01*
X117559285Y-108743857D01*
X117606904Y-108934333D01*
X117606904Y-109172428D01*
X117559285Y-109362904D01*
X117511666Y-109458142D01*
X117464047Y-109505761D01*
X117368809Y-109553380D01*
X117273571Y-109553380D01*
X117178333Y-109505761D01*
X117130714Y-109458142D01*
X117083095Y-109362904D01*
X117035476Y-109172428D01*
X117035476Y-108934333D01*
X117083095Y-108743857D01*
X117130714Y-108648619D01*
X117178333Y-108601000D01*
X117273571Y-108553380D01*
%TO.C,R15*%
X115703142Y-107106380D02*
X115369809Y-106630190D01*
X115131714Y-107106380D02*
X115131714Y-106106380D01*
X115512666Y-106106380D01*
X115607904Y-106154000D01*
X115655523Y-106201619D01*
X115703142Y-106296857D01*
X115703142Y-106439714D01*
X115655523Y-106534952D01*
X115607904Y-106582571D01*
X115512666Y-106630190D01*
X115131714Y-106630190D01*
X116655523Y-107106380D02*
X116084095Y-107106380D01*
X116369809Y-107106380D02*
X116369809Y-106106380D01*
X116274571Y-106249238D01*
X116179333Y-106344476D01*
X116084095Y-106392095D01*
X117560285Y-106106380D02*
X117084095Y-106106380D01*
X117036476Y-106582571D01*
X117084095Y-106534952D01*
X117179333Y-106487333D01*
X117417428Y-106487333D01*
X117512666Y-106534952D01*
X117560285Y-106582571D01*
X117607904Y-106677809D01*
X117607904Y-106915904D01*
X117560285Y-107011142D01*
X117512666Y-107058761D01*
X117417428Y-107106380D01*
X117179333Y-107106380D01*
X117084095Y-107058761D01*
X117036476Y-107011142D01*
%TO.C,R4*%
X91352380Y-28976666D02*
X90876190Y-29310000D01*
X91352380Y-29548095D02*
X90352380Y-29548095D01*
X90352380Y-29167142D01*
X90400000Y-29071904D01*
X90447619Y-29024285D01*
X90542857Y-28976666D01*
X90685714Y-28976666D01*
X90780952Y-29024285D01*
X90828571Y-29071904D01*
X90876190Y-29167142D01*
X90876190Y-29548095D01*
X90685714Y-28119523D02*
X91352380Y-28119523D01*
X90304761Y-28357619D02*
X91019047Y-28595714D01*
X91019047Y-27976666D01*
X90828571Y-33957142D02*
X90828571Y-34290476D01*
X91352380Y-34290476D02*
X90352380Y-34290476D01*
X90352380Y-33814285D01*
X90828571Y-33100000D02*
X90876190Y-32957142D01*
X90923809Y-32909523D01*
X91019047Y-32861904D01*
X91161904Y-32861904D01*
X91257142Y-32909523D01*
X91304761Y-32957142D01*
X91352380Y-33052380D01*
X91352380Y-33433333D01*
X90352380Y-33433333D01*
X90352380Y-33100000D01*
X90400000Y-33004761D01*
X90447619Y-32957142D01*
X90542857Y-32909523D01*
X90638095Y-32909523D01*
X90733333Y-32957142D01*
X90780952Y-33004761D01*
X90828571Y-33100000D01*
X90828571Y-33433333D01*
X90828571Y-32100000D02*
X90876190Y-31957142D01*
X90923809Y-31909523D01*
X91019047Y-31861904D01*
X91161904Y-31861904D01*
X91257142Y-31909523D01*
X91304761Y-31957142D01*
X91352380Y-32052380D01*
X91352380Y-32433333D01*
X90352380Y-32433333D01*
X90352380Y-32100000D01*
X90400000Y-32004761D01*
X90447619Y-31957142D01*
X90542857Y-31909523D01*
X90638095Y-31909523D01*
X90733333Y-31957142D01*
X90780952Y-32004761D01*
X90828571Y-32100000D01*
X90828571Y-32433333D01*
%TO.C,C9*%
X100757142Y-43076666D02*
X100804761Y-43124285D01*
X100852380Y-43267142D01*
X100852380Y-43362380D01*
X100804761Y-43505238D01*
X100709523Y-43600476D01*
X100614285Y-43648095D01*
X100423809Y-43695714D01*
X100280952Y-43695714D01*
X100090476Y-43648095D01*
X99995238Y-43600476D01*
X99900000Y-43505238D01*
X99852380Y-43362380D01*
X99852380Y-43267142D01*
X99900000Y-43124285D01*
X99947619Y-43076666D01*
X100852380Y-42600476D02*
X100852380Y-42410000D01*
X100804761Y-42314761D01*
X100757142Y-42267142D01*
X100614285Y-42171904D01*
X100423809Y-42124285D01*
X100042857Y-42124285D01*
X99947619Y-42171904D01*
X99900000Y-42219523D01*
X99852380Y-42314761D01*
X99852380Y-42505238D01*
X99900000Y-42600476D01*
X99947619Y-42648095D01*
X100042857Y-42695714D01*
X100280952Y-42695714D01*
X100376190Y-42648095D01*
X100423809Y-42600476D01*
X100471428Y-42505238D01*
X100471428Y-42314761D01*
X100423809Y-42219523D01*
X100376190Y-42171904D01*
X100280952Y-42124285D01*
%TO.C,R1*%
X110033333Y-37752380D02*
X109700000Y-37276190D01*
X109461904Y-37752380D02*
X109461904Y-36752380D01*
X109842857Y-36752380D01*
X109938095Y-36800000D01*
X109985714Y-36847619D01*
X110033333Y-36942857D01*
X110033333Y-37085714D01*
X109985714Y-37180952D01*
X109938095Y-37228571D01*
X109842857Y-37276190D01*
X109461904Y-37276190D01*
X110985714Y-37752380D02*
X110414285Y-37752380D01*
X110700000Y-37752380D02*
X110700000Y-36752380D01*
X110604761Y-36895238D01*
X110509523Y-36990476D01*
X110414285Y-37038095D01*
%TO.C,U9*%
X36788095Y-68502380D02*
X36788095Y-69311904D01*
X36835714Y-69407142D01*
X36883333Y-69454761D01*
X36978571Y-69502380D01*
X37169047Y-69502380D01*
X37264285Y-69454761D01*
X37311904Y-69407142D01*
X37359523Y-69311904D01*
X37359523Y-68502380D01*
X37883333Y-69502380D02*
X38073809Y-69502380D01*
X38169047Y-69454761D01*
X38216666Y-69407142D01*
X38311904Y-69264285D01*
X38359523Y-69073809D01*
X38359523Y-68692857D01*
X38311904Y-68597619D01*
X38264285Y-68550000D01*
X38169047Y-68502380D01*
X37978571Y-68502380D01*
X37883333Y-68550000D01*
X37835714Y-68597619D01*
X37788095Y-68692857D01*
X37788095Y-68930952D01*
X37835714Y-69026190D01*
X37883333Y-69073809D01*
X37978571Y-69121428D01*
X38169047Y-69121428D01*
X38264285Y-69073809D01*
X38311904Y-69026190D01*
X38359523Y-68930952D01*
%TO.C,D2*%
X92461904Y-37262380D02*
X92461904Y-36262380D01*
X92700000Y-36262380D01*
X92842857Y-36310000D01*
X92938095Y-36405238D01*
X92985714Y-36500476D01*
X93033333Y-36690952D01*
X93033333Y-36833809D01*
X92985714Y-37024285D01*
X92938095Y-37119523D01*
X92842857Y-37214761D01*
X92700000Y-37262380D01*
X92461904Y-37262380D01*
X93414285Y-36357619D02*
X93461904Y-36310000D01*
X93557142Y-36262380D01*
X93795238Y-36262380D01*
X93890476Y-36310000D01*
X93938095Y-36357619D01*
X93985714Y-36452857D01*
X93985714Y-36548095D01*
X93938095Y-36690952D01*
X93366666Y-37262380D01*
X93985714Y-37262380D01*
%TO.C,D3*%
X112661904Y-46752380D02*
X112661904Y-45752380D01*
X112900000Y-45752380D01*
X113042857Y-45800000D01*
X113138095Y-45895238D01*
X113185714Y-45990476D01*
X113233333Y-46180952D01*
X113233333Y-46323809D01*
X113185714Y-46514285D01*
X113138095Y-46609523D01*
X113042857Y-46704761D01*
X112900000Y-46752380D01*
X112661904Y-46752380D01*
X113566666Y-45752380D02*
X114185714Y-45752380D01*
X113852380Y-46133333D01*
X113995238Y-46133333D01*
X114090476Y-46180952D01*
X114138095Y-46228571D01*
X114185714Y-46323809D01*
X114185714Y-46561904D01*
X114138095Y-46657142D01*
X114090476Y-46704761D01*
X113995238Y-46752380D01*
X113709523Y-46752380D01*
X113614285Y-46704761D01*
X113566666Y-46657142D01*
D12*
%TO.C,U7*%
X62070000Y-18650000D02*
X60570000Y-18650000D01*
X62070000Y-18650000D02*
X63570000Y-18650000D01*
X62070000Y-21870000D02*
X60570000Y-21870000D01*
X62070000Y-21870000D02*
X64945000Y-21870000D01*
%TO.C,R6*%
X69420000Y-20453641D02*
X69420000Y-20146359D01*
X70180000Y-20453641D02*
X70180000Y-20146359D01*
%TO.C,C29*%
X55840000Y-20207836D02*
X55840000Y-19992164D01*
X56560000Y-20207836D02*
X56560000Y-19992164D01*
%TO.C,C28*%
X57960000Y-19992164D02*
X57960000Y-20207836D01*
X57240000Y-19992164D02*
X57240000Y-20207836D01*
%TO.C,C25*%
X67560000Y-20192164D02*
X67560000Y-20407836D01*
X66840000Y-20192164D02*
X66840000Y-20407836D01*
%TO.C,C24*%
X68860000Y-20407836D02*
X68860000Y-20192164D01*
X68140000Y-20407836D02*
X68140000Y-20192164D01*
%TO.C,kibuzzard-6252E8F1*%
G36*
X87300000Y-112946509D02*
G01*
X86951768Y-112714354D01*
X86951768Y-112658715D01*
X87017913Y-112658715D01*
X87115199Y-112658715D01*
X87115199Y-112553289D01*
X87582087Y-112553289D01*
X87582087Y-112439314D01*
X87471369Y-112257362D01*
X87383038Y-112311907D01*
X87455494Y-112427917D01*
X87115199Y-112427917D01*
X87115199Y-112291962D01*
X87017913Y-112291962D01*
X87017913Y-112658715D01*
X86951768Y-112658715D01*
X86951768Y-112201724D01*
X86953444Y-112167591D01*
X86958459Y-112133787D01*
X86966762Y-112100637D01*
X86978275Y-112068461D01*
X86992886Y-112037568D01*
X87010455Y-112008256D01*
X87030813Y-111980807D01*
X87053763Y-111955486D01*
X87079084Y-111932536D01*
X87106532Y-111912179D01*
X87135844Y-111894610D01*
X87166737Y-111879999D01*
X87198913Y-111868486D01*
X87232063Y-111860182D01*
X87265867Y-111855168D01*
X87300000Y-111853491D01*
X87334133Y-111855168D01*
X87367937Y-111860182D01*
X87401087Y-111868486D01*
X87433263Y-111879999D01*
X87464156Y-111894610D01*
X87493468Y-111912179D01*
X87520916Y-111932536D01*
X87546237Y-111955486D01*
X87569187Y-111980807D01*
X87589545Y-112008256D01*
X87607114Y-112037568D01*
X87621725Y-112068461D01*
X87633238Y-112100637D01*
X87641541Y-112133787D01*
X87646556Y-112167591D01*
X87648232Y-112201724D01*
X87648232Y-112714354D01*
X87300000Y-112946509D01*
G37*
%TO.C,J13*%
X138590000Y-82290000D02*
X138070000Y-82290000D01*
X123110000Y-96260000D02*
X126440000Y-96260000D01*
X123110000Y-96260000D02*
X123110000Y-82940000D01*
X138070000Y-96910000D02*
X138590000Y-96910000D01*
X138070000Y-96260000D02*
X129960000Y-96260000D01*
X129960000Y-82940000D02*
X138070000Y-82940000D01*
X138590000Y-96910000D02*
X138590000Y-82290000D01*
X123110000Y-82940000D02*
X126440000Y-82940000D01*
X122890000Y-94000000D02*
X122890000Y-92200000D01*
X138070000Y-82290000D02*
X138070000Y-82940000D01*
X138070000Y-96260000D02*
X138070000Y-96910000D01*
%TO.C,Q1*%
X113170000Y-31830000D02*
X109400000Y-31830000D01*
X113170000Y-35370000D02*
X113170000Y-35000000D01*
X113170000Y-31830000D02*
X113170000Y-32200000D01*
X109630000Y-35370000D02*
X109630000Y-35000000D01*
X109630000Y-35370000D02*
X113170000Y-35370000D01*
%TO.C,TP4*%
X111950000Y-47300000D02*
G75*
G03*
X111950000Y-47300000I-1450000J0D01*
G01*
%TO.C,U1*%
X63990000Y-36140000D02*
X65250000Y-36140000D01*
X70810000Y-39900000D02*
X70810000Y-36140000D01*
X70810000Y-36140000D02*
X69550000Y-36140000D01*
X63990000Y-42150000D02*
X63990000Y-36140000D01*
%TO.C,C5*%
X72660000Y-35742164D02*
X72660000Y-35957836D01*
X71940000Y-35742164D02*
X71940000Y-35957836D01*
%TO.C,C11*%
X101860000Y-35402164D02*
X101860000Y-35617836D01*
X101140000Y-35402164D02*
X101140000Y-35617836D01*
%TO.C,J16*%
X123110000Y-138560000D02*
X126440000Y-138560000D01*
X138070000Y-124590000D02*
X138070000Y-125240000D01*
X122890000Y-136300000D02*
X122890000Y-134500000D01*
X123110000Y-125240000D02*
X126440000Y-125240000D01*
X138070000Y-138560000D02*
X138070000Y-139210000D01*
X129960000Y-125240000D02*
X138070000Y-125240000D01*
X138070000Y-138560000D02*
X129960000Y-138560000D01*
X138070000Y-139210000D02*
X138590000Y-139210000D01*
X138590000Y-139210000D02*
X138590000Y-124590000D01*
X123110000Y-138560000D02*
X123110000Y-125240000D01*
X138590000Y-124590000D02*
X138070000Y-124590000D01*
%TO.C,C4*%
X71940000Y-40357836D02*
X71940000Y-40142164D01*
X72660000Y-40357836D02*
X72660000Y-40142164D01*
%TO.C,J4*%
X34870000Y-91410000D02*
X37530000Y-91410000D01*
X37530000Y-86270000D02*
X37530000Y-91410000D01*
X34870000Y-86270000D02*
X34870000Y-91410000D01*
X34870000Y-85000000D02*
X34870000Y-83670000D01*
X34870000Y-86270000D02*
X37530000Y-86270000D01*
X34870000Y-83670000D02*
X36200000Y-83670000D01*
%TO.C,kibuzzard-6252E67C*%
G36*
X41852146Y-41705303D02*
G01*
X41770970Y-41794867D01*
X41681406Y-41876043D01*
X41584316Y-41948050D01*
X41480637Y-42010193D01*
X41371365Y-42061874D01*
X41257554Y-42102596D01*
X41140300Y-42131967D01*
X41020731Y-42149703D01*
X40900000Y-42155635D01*
X40779269Y-42149703D01*
X40659700Y-42131967D01*
X40542446Y-42102596D01*
X40428635Y-42061874D01*
X40319363Y-42010193D01*
X40215684Y-41948050D01*
X40118594Y-41876043D01*
X40029030Y-41794867D01*
X39947854Y-41705303D01*
X39875848Y-41608214D01*
X39813705Y-41504535D01*
X39762023Y-41395263D01*
X39721301Y-41281452D01*
X39691930Y-41164198D01*
X39674194Y-41044629D01*
X39668263Y-40923898D01*
X39668263Y-40118079D01*
X39893159Y-40118079D01*
X39922914Y-40328212D01*
X40012180Y-40500978D01*
X40160958Y-40636377D01*
X40307789Y-40712971D01*
X40480483Y-40767682D01*
X40679040Y-40800508D01*
X40903460Y-40811450D01*
X41127102Y-40800508D01*
X41324707Y-40767682D01*
X41496277Y-40712971D01*
X41641810Y-40636377D01*
X41789050Y-40500978D01*
X41877393Y-40328212D01*
X41906841Y-40118079D01*
X41877393Y-39906561D01*
X41789050Y-39733334D01*
X41641810Y-39598396D01*
X41496277Y-39522408D01*
X41324707Y-39468130D01*
X41127102Y-39435563D01*
X40903460Y-39424708D01*
X40679040Y-39435563D01*
X40480483Y-39468130D01*
X40307789Y-39522408D01*
X40160958Y-39598396D01*
X40012180Y-39733334D01*
X39922914Y-39906561D01*
X39893159Y-40118079D01*
X39668263Y-40118079D01*
X39668263Y-39080098D01*
X39940214Y-39080098D01*
X40273752Y-39080098D01*
X40273752Y-38684281D01*
X41526248Y-38684281D01*
X41526248Y-39080098D01*
X41858402Y-39080098D01*
X41858402Y-37834521D01*
X41526248Y-37834521D01*
X41526248Y-38230338D01*
X40273752Y-38230338D01*
X40273752Y-37834521D01*
X39940214Y-37834521D01*
X39940214Y-39080098D01*
X39668263Y-39080098D01*
X39668263Y-37578486D01*
X39940214Y-37578486D01*
X41858402Y-37470536D01*
X41858402Y-37004136D01*
X40618361Y-36802076D01*
X41858402Y-36588944D01*
X41858402Y-36122545D01*
X39940214Y-36014595D01*
X39940214Y-36403492D01*
X40753991Y-36417331D01*
X40898270Y-36418888D01*
X41023866Y-36418023D01*
X41245994Y-36409027D01*
X41355501Y-36401070D01*
X41472273Y-36391036D01*
X40266832Y-36623543D01*
X40266832Y-36966769D01*
X41472273Y-37182669D01*
X41349965Y-37173673D01*
X41240458Y-37166061D01*
X41025250Y-37157066D01*
X40903114Y-37156547D01*
X40760911Y-37159142D01*
X39940214Y-37182669D01*
X39940214Y-37578486D01*
X39668263Y-37578486D01*
X39668263Y-34966926D01*
X39940214Y-34966926D01*
X39950940Y-35142518D01*
X39983117Y-35312228D01*
X40041763Y-35470174D01*
X40131894Y-35610474D01*
X40258701Y-35728285D01*
X40427373Y-35818762D01*
X40565155Y-35861435D01*
X40725696Y-35887038D01*
X40908996Y-35895573D01*
X41094987Y-35886654D01*
X41256220Y-35859897D01*
X41392695Y-35815302D01*
X41557734Y-35721019D01*
X41680562Y-35598710D01*
X41766368Y-35453393D01*
X41820343Y-35290084D01*
X41848887Y-35114838D01*
X41858402Y-34933711D01*
X41858402Y-34449320D01*
X39940214Y-34449320D01*
X39940214Y-34966926D01*
X39668263Y-34966926D01*
X39668263Y-32788551D01*
X39940214Y-32788551D01*
X39940214Y-33242494D01*
X40748455Y-33242494D01*
X40748455Y-33707510D01*
X39940214Y-33707510D01*
X39940214Y-34161453D01*
X41858402Y-34161453D01*
X41858402Y-33707510D01*
X41122128Y-33707510D01*
X41122128Y-33242494D01*
X41858402Y-33242494D01*
X41858402Y-32788551D01*
X39940214Y-32788551D01*
X39668263Y-32788551D01*
X39668263Y-32676103D01*
X39674194Y-32555371D01*
X39691930Y-32435803D01*
X39721301Y-32318548D01*
X39762023Y-32204737D01*
X39813705Y-32095466D01*
X39875848Y-31991786D01*
X39947854Y-31894697D01*
X40029030Y-31805133D01*
X40118594Y-31723957D01*
X40215683Y-31651951D01*
X40319363Y-31589807D01*
X40428635Y-31538126D01*
X40542446Y-31497404D01*
X40659700Y-31468033D01*
X40779269Y-31450297D01*
X40900000Y-31444365D01*
X41020731Y-31450297D01*
X41140300Y-31468033D01*
X41257554Y-31497404D01*
X41371365Y-31538126D01*
X41480637Y-31589807D01*
X41584317Y-31651951D01*
X41681406Y-31723957D01*
X41770970Y-31805133D01*
X41852146Y-31894697D01*
X41924152Y-31991786D01*
X41986295Y-32095466D01*
X42037977Y-32204737D01*
X42078699Y-32318548D01*
X42108070Y-32435803D01*
X42125806Y-32555371D01*
X42131737Y-32676103D01*
X42131737Y-40923898D01*
X42125806Y-41044629D01*
X42108070Y-41164198D01*
X42078699Y-41281452D01*
X42037977Y-41395263D01*
X41986295Y-41504535D01*
X41924152Y-41608214D01*
X41852146Y-41705303D01*
G37*
G36*
X41171951Y-40390722D02*
G01*
X41050161Y-40395912D01*
X40903460Y-40397642D01*
X40673201Y-40390376D01*
X40494496Y-40368578D01*
X40363191Y-40331384D01*
X40275136Y-40277928D01*
X40208705Y-40118079D01*
X40219777Y-40021893D01*
X40259912Y-39949234D01*
X41171951Y-40390722D01*
G37*
G36*
X41127741Y-39843283D02*
G01*
X41304197Y-39865888D01*
X41432830Y-39903563D01*
X41550641Y-39991099D01*
X41589911Y-40118079D01*
X41569844Y-40237793D01*
X41497185Y-40320139D01*
X40518715Y-39852356D01*
X40686868Y-39839900D01*
X40903460Y-39835748D01*
X41127741Y-39843283D01*
G37*
G36*
X41529016Y-35000142D02*
G01*
X41517080Y-35114492D01*
X41481269Y-35216734D01*
X41412244Y-35302886D01*
X41300661Y-35368971D01*
X41136314Y-35411009D01*
X40908996Y-35425022D01*
X40685138Y-35411528D01*
X40517331Y-35371047D01*
X40398828Y-35306692D01*
X40322883Y-35221577D01*
X40281882Y-35118471D01*
X40268216Y-35000142D01*
X40268216Y-34903263D01*
X41529016Y-34903263D01*
X41529016Y-35000142D01*
G37*
%TO.C,U8*%
X104360000Y-47300000D02*
X104360000Y-46500000D01*
X101240000Y-47300000D02*
X101240000Y-49100000D01*
X101240000Y-47300000D02*
X101240000Y-46500000D01*
X104360000Y-47300000D02*
X104360000Y-48100000D01*
%TO.C,C10*%
X92560000Y-32002164D02*
X92560000Y-32217836D01*
X91840000Y-32002164D02*
X91840000Y-32217836D01*
%TO.C,kibuzzard-6252E779*%
G36*
X110639966Y-72901703D02*
G01*
X110522748Y-72884316D01*
X110407800Y-72855522D01*
X110296226Y-72815601D01*
X110189104Y-72764935D01*
X110087463Y-72704014D01*
X109995172Y-72635567D01*
X110870771Y-72635567D01*
X112116348Y-72635567D01*
X112372384Y-72635567D01*
X112761280Y-72635567D01*
X112775120Y-71821790D01*
X112776677Y-71677510D01*
X112775812Y-71551915D01*
X112766816Y-71329787D01*
X112758858Y-71220280D01*
X112748825Y-71103507D01*
X112981332Y-72308949D01*
X113324558Y-72308949D01*
X113540458Y-71103507D01*
X113531462Y-71225816D01*
X113523850Y-71335323D01*
X113514854Y-71550531D01*
X113514335Y-71672667D01*
X113516930Y-71814870D01*
X113540458Y-72635567D01*
X113936275Y-72635567D01*
X113900136Y-71993403D01*
X114100968Y-71993403D01*
X114120689Y-72185775D01*
X114179854Y-72353236D01*
X114278635Y-72491287D01*
X114417206Y-72595431D01*
X114595911Y-72660824D01*
X114815098Y-72682622D01*
X115033247Y-72659959D01*
X115211607Y-72591971D01*
X115350350Y-72485059D01*
X115449651Y-72345624D01*
X115509334Y-72179720D01*
X115529229Y-71993403D01*
X115529229Y-70717378D01*
X115073901Y-70717378D01*
X115073901Y-71824558D01*
X115062138Y-72051356D01*
X115026846Y-72214146D01*
X114950382Y-72312236D01*
X114815098Y-72344932D01*
X114679815Y-72312236D01*
X114603350Y-72214146D01*
X114568059Y-72051356D01*
X114556295Y-71824558D01*
X114556295Y-70717378D01*
X114100968Y-70717378D01*
X114100968Y-71993403D01*
X113900136Y-71993403D01*
X113828325Y-70717378D01*
X113361925Y-70717378D01*
X113159865Y-71957419D01*
X112946733Y-70717378D01*
X112480334Y-70717378D01*
X112372384Y-72635567D01*
X112116348Y-72635567D01*
X112116348Y-72302029D01*
X111720532Y-72302029D01*
X111720532Y-71049532D01*
X112116348Y-71049532D01*
X112116348Y-70717378D01*
X110870771Y-70717378D01*
X110870771Y-71049532D01*
X111266588Y-71049532D01*
X111266588Y-72302029D01*
X110870771Y-72302029D01*
X110870771Y-72635567D01*
X109995172Y-72635567D01*
X109992282Y-72633424D01*
X109904480Y-72553844D01*
X109824900Y-72466041D01*
X109754309Y-72370861D01*
X109693388Y-72269220D01*
X109642723Y-72162097D01*
X109602801Y-72050524D01*
X109574008Y-71935575D01*
X109556620Y-71818357D01*
X109550806Y-71700000D01*
X109556620Y-71581643D01*
X109574008Y-71464425D01*
X109602801Y-71349476D01*
X109642723Y-71237903D01*
X109693388Y-71130780D01*
X109754309Y-71029139D01*
X109824900Y-70933959D01*
X109904480Y-70846156D01*
X109992282Y-70766576D01*
X110087463Y-70695986D01*
X110189104Y-70635065D01*
X110296226Y-70584399D01*
X110407800Y-70544478D01*
X110522748Y-70515684D01*
X110639966Y-70498297D01*
X110758323Y-70492482D01*
X115641677Y-70492482D01*
X115760034Y-70498297D01*
X115877252Y-70515685D01*
X115992201Y-70544478D01*
X116103774Y-70584399D01*
X116210897Y-70635065D01*
X116312538Y-70695986D01*
X116407718Y-70766576D01*
X116495521Y-70846156D01*
X116575100Y-70933959D01*
X116645691Y-71029139D01*
X116706612Y-71130780D01*
X116757277Y-71237903D01*
X116797199Y-71349476D01*
X116825992Y-71464425D01*
X116843380Y-71581643D01*
X116849194Y-71700000D01*
X116843380Y-71818357D01*
X116825992Y-71935575D01*
X116797199Y-72050524D01*
X116757277Y-72162097D01*
X116706612Y-72269220D01*
X116645691Y-72370861D01*
X116575100Y-72466041D01*
X116495521Y-72553844D01*
X116407718Y-72633424D01*
X116312538Y-72704014D01*
X116210897Y-72764935D01*
X116103774Y-72815601D01*
X115992201Y-72855522D01*
X115877252Y-72884315D01*
X115760034Y-72901703D01*
X115641677Y-72907518D01*
X110758323Y-72907518D01*
X110639966Y-72901703D01*
G37*
%TO.C,J11*%
X35470000Y-50400000D02*
X35470000Y-49070000D01*
X40670000Y-49070000D02*
X40670000Y-66970000D01*
X35470000Y-51670000D02*
X38070000Y-51670000D01*
X35470000Y-49070000D02*
X36800000Y-49070000D01*
X38070000Y-49070000D02*
X40670000Y-49070000D01*
X35470000Y-51670000D02*
X35470000Y-66970000D01*
X35470000Y-66970000D02*
X40670000Y-66970000D01*
X38070000Y-51670000D02*
X38070000Y-49070000D01*
%TO.C,R3*%
X99053641Y-29190000D02*
X98746359Y-29190000D01*
X99053641Y-28430000D02*
X98746359Y-28430000D01*
%TO.C,R5*%
X115446359Y-47220000D02*
X115753641Y-47220000D01*
X115446359Y-47980000D02*
X115753641Y-47980000D01*
%TO.C,J14*%
X115960000Y-153277500D02*
X102140000Y-153277500D01*
X114550000Y-153277500D02*
X114550000Y-154277500D01*
X106850000Y-153577500D02*
X105350000Y-153777500D01*
X114050000Y-154777500D02*
X104050000Y-154777500D01*
X102140000Y-139357500D02*
X115960000Y-139357500D01*
X103550000Y-153277500D02*
X103550000Y-154277500D01*
X112050000Y-153677500D02*
X111250000Y-153577500D01*
X102140000Y-153277500D02*
X102140000Y-152877500D01*
X115960000Y-142057500D02*
X115960000Y-139357500D01*
X109950000Y-153477500D02*
X108150000Y-153477500D01*
X104050000Y-154077500D02*
X103550000Y-154177500D01*
X115960000Y-150357500D02*
X115960000Y-144577500D01*
X108150000Y-153477500D02*
X106850000Y-153577500D01*
X105350000Y-153777500D02*
X104050000Y-154077500D01*
X115960000Y-153277500D02*
X115960000Y-152877500D01*
X102140000Y-142057500D02*
X102140000Y-139357500D01*
X111250000Y-153577500D02*
X109950000Y-153477500D01*
X102140000Y-150357500D02*
X102140000Y-144577500D01*
X114550000Y-154177500D02*
X113750000Y-153977500D01*
X113750000Y-153977500D02*
X112050000Y-153677500D01*
X114050000Y-154777500D02*
G75*
G03*
X114550000Y-154277500I-1J500001D01*
G01*
X103550000Y-154277500D02*
G75*
G03*
X104050000Y-154777500I500001J1D01*
G01*
%TO.C,C3*%
X110692164Y-30760000D02*
X110907836Y-30760000D01*
X110692164Y-30040000D02*
X110907836Y-30040000D01*
%TO.C,SW1*%
X40200000Y-73520000D02*
X40200000Y-72380000D01*
X35800000Y-72380000D02*
X35800000Y-73520000D01*
X35800000Y-71250000D02*
X35800000Y-71370000D01*
X35800000Y-74530000D02*
X35800000Y-74650000D01*
X40200000Y-74650000D02*
X40200000Y-74530000D01*
X40200000Y-71250000D02*
X35800000Y-71250000D01*
X40200000Y-71370000D02*
X40200000Y-71250000D01*
X35800000Y-74650000D02*
X40200000Y-74650000D01*
%TO.C,JP1*%
X105500000Y-20542500D02*
X106100000Y-20542500D01*
X105600000Y-18042500D02*
X108400000Y-18042500D01*
X109050000Y-18742500D02*
X109050000Y-19342500D01*
X105800000Y-20242500D02*
X106100000Y-20542500D01*
X108400000Y-20042500D02*
X105600000Y-20042500D01*
X104950000Y-19342500D02*
X104950000Y-18742500D01*
X105800000Y-20242500D02*
X105500000Y-20542500D01*
X108350000Y-20042500D02*
G75*
G03*
X109050000Y-19342500I1J699999D01*
G01*
X104950000Y-19342500D02*
G75*
G03*
X105650000Y-20042500I699999J-1D01*
G01*
X109050000Y-18742500D02*
G75*
G03*
X108350000Y-18042500I-699999J1D01*
G01*
X105650000Y-18042500D02*
G75*
G03*
X104950000Y-18742500I-1J-699999D01*
G01*
%TO.C,D1*%
X105620000Y-33040000D02*
X106550000Y-33040000D01*
X105620000Y-33040000D02*
X105620000Y-35200000D01*
X108780000Y-33040000D02*
X108780000Y-34500000D01*
X108780000Y-33040000D02*
X107850000Y-33040000D01*
%TO.C,C17*%
X113837164Y-108160000D02*
X114052836Y-108160000D01*
X113837164Y-107440000D02*
X114052836Y-107440000D01*
%TO.C,kibuzzard-6252E5F1*%
G36*
X115753823Y-37214869D02*
G01*
X115676306Y-37285127D01*
X115592275Y-37347448D01*
X115502541Y-37401233D01*
X115407966Y-37445963D01*
X115309463Y-37481208D01*
X115207979Y-37506629D01*
X115104493Y-37521979D01*
X115000000Y-37527113D01*
X114895507Y-37521979D01*
X114792021Y-37506629D01*
X114690537Y-37481208D01*
X114592034Y-37445963D01*
X114497459Y-37401233D01*
X114407725Y-37347448D01*
X114323694Y-37285127D01*
X114246177Y-37214869D01*
X114175919Y-37137351D01*
X114113597Y-37053321D01*
X114059813Y-36963586D01*
X114015082Y-36869012D01*
X113979837Y-36770508D01*
X113954417Y-36669025D01*
X113939066Y-36565538D01*
X113933933Y-36461045D01*
X113933933Y-35815971D01*
X114175111Y-35815971D01*
X114507264Y-36361827D01*
X114772255Y-36198192D01*
X114554889Y-35850163D01*
X115575774Y-35850163D01*
X115575774Y-36258029D01*
X115867630Y-36258029D01*
X115867630Y-35157769D01*
X115575774Y-35157769D01*
X115575774Y-35474048D01*
X114175111Y-35474048D01*
X114175111Y-35815971D01*
X113933933Y-35815971D01*
X113933933Y-34364019D01*
X114132370Y-34364019D01*
X114152061Y-34551771D01*
X114211135Y-34707163D01*
X114303179Y-34835384D01*
X114421784Y-34941625D01*
X114600072Y-34704721D01*
X114469409Y-34567952D01*
X114429111Y-34400654D01*
X114488947Y-34232745D01*
X114651361Y-34173519D01*
X114808889Y-34210154D01*
X114896660Y-34258847D01*
X114996337Y-34331658D01*
X115111888Y-34430572D01*
X115247284Y-34557572D01*
X115350403Y-34659131D01*
X115466006Y-34775751D01*
X115594091Y-34907432D01*
X115867630Y-34907432D01*
X115867630Y-33782750D01*
X115573332Y-33741231D01*
X115573332Y-34464154D01*
X115462885Y-34342377D01*
X115361122Y-34234305D01*
X115268043Y-34139937D01*
X115140891Y-34021638D01*
X115025644Y-33929288D01*
X114919099Y-33861056D01*
X114818048Y-33815110D01*
X114718677Y-33789008D01*
X114617168Y-33780307D01*
X114492458Y-33796640D01*
X114377212Y-33845639D01*
X114277535Y-33927151D01*
X114199534Y-34041024D01*
X114149161Y-34186799D01*
X114132370Y-34364019D01*
X113933933Y-34364019D01*
X113933933Y-33573932D01*
X114175111Y-33573932D01*
X115867630Y-33087913D01*
X115867630Y-32592125D01*
X114175111Y-32103663D01*
X114175111Y-32513971D01*
X115555014Y-32832692D01*
X114175111Y-33148971D01*
X114175111Y-33573932D01*
X113933933Y-33573932D01*
X113933933Y-30458769D01*
X114175111Y-30458769D01*
X114468188Y-30458769D01*
X114468188Y-30109519D01*
X115573332Y-30109519D01*
X115573332Y-30458769D01*
X115867630Y-30458769D01*
X115867630Y-29359731D01*
X115573332Y-29359731D01*
X115573332Y-29708981D01*
X114468188Y-29708981D01*
X114468188Y-29359731D01*
X114175111Y-29359731D01*
X114175111Y-30458769D01*
X113933933Y-30458769D01*
X113933933Y-29049557D01*
X114175111Y-29049557D01*
X115867630Y-29049557D01*
X115867630Y-28708856D01*
X115228966Y-28708856D01*
X115082733Y-28711450D01*
X114941995Y-28719235D01*
X114810263Y-28730684D01*
X114691048Y-28744269D01*
X114506043Y-28769913D01*
X115867630Y-28324192D01*
X115867630Y-27838173D01*
X114175111Y-27838173D01*
X114175111Y-28178875D01*
X114823543Y-28178875D01*
X114970489Y-28176568D01*
X115106851Y-28169648D01*
X115232630Y-28158115D01*
X115397180Y-28137661D01*
X115529370Y-28117817D01*
X114175111Y-28550106D01*
X114175111Y-29049557D01*
X113933933Y-29049557D01*
X113933933Y-27738954D01*
X113939066Y-27634461D01*
X113954417Y-27530975D01*
X113979837Y-27429491D01*
X114015082Y-27330988D01*
X114059813Y-27236414D01*
X114113598Y-27146679D01*
X114175919Y-27062648D01*
X114246177Y-26985131D01*
X114323694Y-26914873D01*
X114407725Y-26852552D01*
X114497459Y-26798767D01*
X114592034Y-26754037D01*
X114690537Y-26718792D01*
X114792021Y-26693371D01*
X114895507Y-26678021D01*
X115000000Y-26672887D01*
X115104493Y-26678021D01*
X115207979Y-26693371D01*
X115309463Y-26718792D01*
X115407966Y-26754037D01*
X115502541Y-26798767D01*
X115592275Y-26852552D01*
X115676306Y-26914873D01*
X115753823Y-26985131D01*
X115824081Y-27062648D01*
X115886402Y-27146679D01*
X115940187Y-27236414D01*
X115984918Y-27330988D01*
X116020163Y-27429491D01*
X116045583Y-27530975D01*
X116060934Y-27634461D01*
X116066067Y-27738954D01*
X116066067Y-36461045D01*
X116060934Y-36565538D01*
X116045583Y-36669025D01*
X116020163Y-36770508D01*
X115984918Y-36869012D01*
X115940187Y-36963586D01*
X115886403Y-37053321D01*
X115824081Y-37137351D01*
X115753823Y-37214869D01*
G37*
%TO.C,kibuzzard-6252E7D0*%
G36*
X112009857Y-122298297D02*
G01*
X112127075Y-122315685D01*
X112242024Y-122344478D01*
X112353597Y-122384399D01*
X112460720Y-122435065D01*
X112562361Y-122495986D01*
X112657541Y-122566576D01*
X112745344Y-122646156D01*
X112824923Y-122733959D01*
X112895514Y-122829139D01*
X112956435Y-122930780D01*
X113007100Y-123037903D01*
X113047022Y-123149476D01*
X113075815Y-123264425D01*
X113093203Y-123381643D01*
X113099017Y-123500000D01*
X113093203Y-123618357D01*
X113075815Y-123735575D01*
X113047022Y-123850524D01*
X113007100Y-123962097D01*
X112956435Y-124069220D01*
X112895514Y-124170861D01*
X112824923Y-124266041D01*
X112745344Y-124353844D01*
X112657541Y-124433424D01*
X112562361Y-124504014D01*
X112460720Y-124564935D01*
X112353597Y-124615601D01*
X112242024Y-124655522D01*
X112127075Y-124684315D01*
X112009857Y-124701703D01*
X111891500Y-124707518D01*
X106908500Y-124707518D01*
X106790143Y-124701703D01*
X106672925Y-124684316D01*
X106557977Y-124655522D01*
X106446403Y-124615601D01*
X106339281Y-124564935D01*
X106237640Y-124504014D01*
X106145349Y-124435567D01*
X107020948Y-124435567D01*
X107474892Y-124435567D01*
X107474892Y-123627326D01*
X107939907Y-123627326D01*
X107939907Y-124435567D01*
X108393851Y-124435567D01*
X108393851Y-123793403D01*
X108654038Y-123793403D01*
X108673760Y-123985775D01*
X108732925Y-124153236D01*
X108831706Y-124291287D01*
X108970276Y-124395431D01*
X109148982Y-124460824D01*
X109368169Y-124482622D01*
X109586318Y-124459959D01*
X109650308Y-124435567D01*
X110353559Y-124435567D01*
X110990187Y-124435567D01*
X111142943Y-124428993D01*
X111288433Y-124409271D01*
X111422506Y-124373980D01*
X111541009Y-124320697D01*
X111639963Y-124246654D01*
X111715389Y-124149084D01*
X111763136Y-124025564D01*
X111779052Y-123873673D01*
X111762617Y-123734930D01*
X111713313Y-123625942D01*
X111638925Y-123543422D01*
X111547236Y-123484084D01*
X111344484Y-123419729D01*
X111476654Y-123367138D01*
X111590832Y-123281332D01*
X111669718Y-123161618D01*
X111696014Y-123007305D01*
X111670583Y-122840363D01*
X111594292Y-122713211D01*
X111476308Y-122621695D01*
X111325801Y-122561665D01*
X111151247Y-122528450D01*
X110961123Y-122517378D01*
X110353559Y-122517378D01*
X110353559Y-124435567D01*
X109650308Y-124435567D01*
X109764677Y-124391971D01*
X109903421Y-124285059D01*
X110002721Y-124145624D01*
X110062405Y-123979720D01*
X110082300Y-123793403D01*
X110082300Y-122517378D01*
X109626972Y-122517378D01*
X109626972Y-123624558D01*
X109615208Y-123851356D01*
X109579917Y-124014146D01*
X109503452Y-124112236D01*
X109368169Y-124144932D01*
X109232885Y-124112236D01*
X109156421Y-124014146D01*
X109121129Y-123851356D01*
X109109366Y-123624558D01*
X109109366Y-122517378D01*
X108654038Y-122517378D01*
X108654038Y-123793403D01*
X108393851Y-123793403D01*
X108393851Y-122517378D01*
X107939907Y-122517378D01*
X107939907Y-123253653D01*
X107474892Y-123253653D01*
X107474892Y-122517378D01*
X107020948Y-122517378D01*
X107020948Y-124435567D01*
X106145349Y-124435567D01*
X106142459Y-124433424D01*
X106054656Y-124353844D01*
X105975077Y-124266041D01*
X105904486Y-124170861D01*
X105843565Y-124069220D01*
X105792900Y-123962097D01*
X105752978Y-123850524D01*
X105724185Y-123735575D01*
X105706797Y-123618357D01*
X105700983Y-123500000D01*
X105706797Y-123381643D01*
X105724185Y-123264425D01*
X105752978Y-123149476D01*
X105792900Y-123037903D01*
X105843565Y-122930780D01*
X105904486Y-122829139D01*
X105975077Y-122733959D01*
X106054656Y-122646156D01*
X106142459Y-122566576D01*
X106237640Y-122495986D01*
X106339281Y-122435065D01*
X106446403Y-122384399D01*
X106557977Y-122344478D01*
X106672925Y-122315684D01*
X106790143Y-122298297D01*
X106908500Y-122292482D01*
X111891500Y-122292482D01*
X112009857Y-122298297D01*
G37*
G36*
X111077204Y-122851089D02*
G01*
X111168027Y-122888975D01*
X111239302Y-123052976D01*
X111173563Y-123228741D01*
X111087584Y-123269222D01*
X110961123Y-123282716D01*
X110807502Y-123282716D01*
X110807502Y-122838460D01*
X110947284Y-122838460D01*
X111077204Y-122851089D01*
G37*
G36*
X111123913Y-123601722D02*
G01*
X111224770Y-123645317D01*
X111289644Y-123726972D01*
X111311269Y-123855681D01*
X111264214Y-124013454D01*
X111140348Y-124086113D01*
X110974963Y-124104797D01*
X110807502Y-124104797D01*
X110807502Y-123587190D01*
X110994339Y-123587190D01*
X111123913Y-123601722D01*
G37*
%TO.C,TP3*%
X119850000Y-23700000D02*
G75*
G03*
X119850000Y-23700000I-1450000J0D01*
G01*
%TO.C,Y1*%
X106925000Y-121710000D02*
X111925000Y-121710000D01*
X106925000Y-118290000D02*
X111925000Y-118290000D01*
%TO.C,R13*%
X103063641Y-45180000D02*
X102756359Y-45180000D01*
X103063641Y-44420000D02*
X102756359Y-44420000D01*
%TO.C,C13*%
X112410000Y-135907836D02*
X112410000Y-135692164D01*
X111690000Y-135907836D02*
X111690000Y-135692164D01*
%TO.C,J9*%
X26695000Y-101460000D02*
X26295000Y-101460000D01*
X28665000Y-101460000D02*
X30645000Y-101460000D01*
X28665000Y-93940000D02*
X30645000Y-93940000D01*
X30645000Y-93940000D02*
X30645000Y-94360000D01*
X31325000Y-96390000D02*
X31325000Y-95940000D01*
X30645000Y-101460000D02*
X30645000Y-101040000D01*
X26295000Y-93940000D02*
X26695000Y-93940000D01*
X30875000Y-95940000D02*
X31325000Y-95940000D01*
%TO.C,kibuzzard-6252E1A6*%
G36*
X59654500Y-99779923D02*
G01*
X59750971Y-99808620D01*
X59678923Y-100350812D01*
X59437135Y-100350812D01*
X59437135Y-100111466D01*
X59333947Y-100151001D01*
X59244192Y-100230529D01*
X59170618Y-100341501D01*
X59115971Y-100475370D01*
X59115971Y-100846601D01*
X59372413Y-100846601D01*
X59372413Y-101105486D01*
X58559125Y-101105486D01*
X58559125Y-100846601D01*
X58730087Y-100846601D01*
X58730087Y-100065062D01*
X58559125Y-100065062D01*
X58559125Y-99808620D01*
X59024385Y-99808620D01*
X59095212Y-100100476D01*
X59174434Y-99954548D01*
X59272889Y-99851361D01*
X59393020Y-99789998D01*
X59537269Y-99769543D01*
X59654500Y-99779923D01*
G37*
G36*
X53792962Y-99779923D02*
G01*
X53889433Y-99808620D01*
X53817385Y-100350812D01*
X53575596Y-100350812D01*
X53575596Y-100111466D01*
X53472409Y-100151001D01*
X53382654Y-100230529D01*
X53309079Y-100341501D01*
X53254433Y-100475370D01*
X53254433Y-100846601D01*
X53510875Y-100846601D01*
X53510875Y-101105486D01*
X52697587Y-101105486D01*
X52697587Y-100846601D01*
X52868548Y-100846601D01*
X52868548Y-100065062D01*
X52697587Y-100065062D01*
X52697587Y-99808620D01*
X53162846Y-99808620D01*
X53233673Y-100100476D01*
X53312895Y-99954548D01*
X53411351Y-99851361D01*
X53531482Y-99789998D01*
X53675731Y-99769543D01*
X53792962Y-99779923D01*
G37*
G36*
X47726269Y-99851361D02*
G01*
X47850216Y-99954090D01*
X47941192Y-100091317D01*
X47997060Y-100259073D01*
X48015683Y-100453389D01*
X47997230Y-100654337D01*
X47941871Y-100824077D01*
X47849606Y-100962611D01*
X47724234Y-101065052D01*
X47569554Y-101126517D01*
X47385567Y-101147005D01*
X47201580Y-101126788D01*
X47046901Y-101066137D01*
X46921529Y-100965053D01*
X46829264Y-100827605D01*
X46773905Y-100657865D01*
X46755452Y-100455832D01*
X47153548Y-100455832D01*
X47167744Y-100641142D01*
X47210332Y-100767226D01*
X47282532Y-100839579D01*
X47385567Y-100863697D01*
X47488602Y-100839579D01*
X47560803Y-100767226D01*
X47603391Y-100640531D01*
X47617587Y-100453389D01*
X47603391Y-100271743D01*
X47560803Y-100146880D01*
X47488602Y-100074526D01*
X47385567Y-100050409D01*
X47282532Y-100074679D01*
X47210332Y-100147490D01*
X47167744Y-100273117D01*
X47153548Y-100455832D01*
X46755452Y-100455832D01*
X46774227Y-100262279D01*
X46830553Y-100094370D01*
X46922139Y-99956380D01*
X47046697Y-99852582D01*
X47201936Y-99787555D01*
X47385567Y-99765880D01*
X47570877Y-99787250D01*
X47726269Y-99851361D01*
G37*
G36*
X68358274Y-99604077D02*
G01*
X68425857Y-99732489D01*
X68474131Y-99883874D01*
X68503095Y-100058232D01*
X68512750Y-100255562D01*
X68503095Y-100453580D01*
X68474131Y-100628778D01*
X68425857Y-100781155D01*
X68358274Y-100910712D01*
X68238804Y-101041986D01*
X68086364Y-101120750D01*
X67900952Y-101147005D01*
X67714319Y-101120750D01*
X67561471Y-101041986D01*
X67442409Y-100910712D01*
X67397222Y-100823399D01*
X67751971Y-100823399D01*
X67816082Y-100858812D01*
X67900952Y-100868582D01*
X68041995Y-100809966D01*
X68089162Y-100732270D01*
X68121981Y-100616413D01*
X68141214Y-100458732D01*
X68147625Y-100255562D01*
X68146099Y-100126120D01*
X68141519Y-100018659D01*
X67751971Y-100823399D01*
X67397222Y-100823399D01*
X67375360Y-100781155D01*
X67327468Y-100628778D01*
X67298732Y-100453580D01*
X67289154Y-100255562D01*
X67651837Y-100255562D01*
X67655500Y-100446673D01*
X67666490Y-100595043D01*
X68079240Y-99731687D01*
X68006582Y-99667577D01*
X67900952Y-99649870D01*
X67788911Y-99684520D01*
X67711673Y-99788471D01*
X67678431Y-99901971D01*
X67658485Y-100057668D01*
X67651837Y-100255562D01*
X67289154Y-100255562D01*
X67298732Y-100058232D01*
X67327468Y-99883874D01*
X67375360Y-99732489D01*
X67442409Y-99604077D01*
X67561471Y-99474160D01*
X67714319Y-99396209D01*
X67900952Y-99370226D01*
X68086364Y-99396209D01*
X68238804Y-99474160D01*
X68358274Y-99604077D01*
G37*
G36*
X71128462Y-100813630D02*
G01*
X71444740Y-100813630D01*
X71444740Y-101105486D01*
X70344481Y-101105486D01*
X70344481Y-100813630D01*
X70752346Y-100813630D01*
X70752346Y-99792745D01*
X70404317Y-100010111D01*
X70240683Y-99745120D01*
X70786538Y-99412966D01*
X71128462Y-99412966D01*
X71128462Y-100813630D01*
G37*
G36*
X51590305Y-100705710D02*
G01*
X51658385Y-100797144D01*
X51752413Y-100848891D01*
X51865981Y-100866139D01*
X52038163Y-100836832D01*
X52198135Y-100758678D01*
X52353221Y-100968716D01*
X52252018Y-101039849D01*
X52131582Y-101096937D01*
X51992523Y-101134488D01*
X51835452Y-101147005D01*
X51631214Y-101124871D01*
X51463000Y-101058471D01*
X51331421Y-100953299D01*
X51237087Y-100814851D01*
X51180303Y-100648163D01*
X51161375Y-100458274D01*
X51173474Y-100337380D01*
X51549702Y-100337380D01*
X52025952Y-100337380D01*
X52011603Y-100209769D01*
X51971000Y-100110245D01*
X51899868Y-100046135D01*
X51793933Y-100024764D01*
X51700209Y-100043387D01*
X51626635Y-100099255D01*
X51575651Y-100196031D01*
X51549702Y-100337380D01*
X51173474Y-100337380D01*
X51179692Y-100275254D01*
X51234644Y-100109635D01*
X51324857Y-99968591D01*
X51448957Y-99859298D01*
X51605722Y-99789234D01*
X51793933Y-99765880D01*
X51967184Y-99785724D01*
X52115707Y-99845255D01*
X52236601Y-99942031D01*
X52326966Y-100073611D01*
X52383292Y-100237550D01*
X52402067Y-100431409D01*
X52400236Y-100502236D01*
X52394740Y-100569399D01*
X51554587Y-100569399D01*
X51590305Y-100705710D01*
G37*
G36*
X42884394Y-100789207D02*
G01*
X43618308Y-100789207D01*
X43576788Y-101105486D01*
X42483856Y-101105486D01*
X42483856Y-99412966D01*
X42884394Y-99412966D01*
X42884394Y-100789207D01*
G37*
G36*
X58258721Y-100888120D02*
G01*
X58179346Y-101142120D01*
X58073564Y-101123956D01*
X57985793Y-101091442D01*
X57861846Y-100971159D01*
X57776976Y-101048855D01*
X57671346Y-101103654D01*
X57554115Y-101136167D01*
X57434442Y-101147005D01*
X57254475Y-101118460D01*
X57115111Y-101032827D01*
X57025814Y-100902316D01*
X56996048Y-100739139D01*
X56999844Y-100712274D01*
X57394144Y-100712274D01*
X57439938Y-100828894D01*
X57567548Y-100871024D01*
X57698212Y-100833779D01*
X57802010Y-100728149D01*
X57802010Y-100518111D01*
X57706760Y-100518111D01*
X57566938Y-100530475D01*
X57469856Y-100567567D01*
X57394144Y-100712274D01*
X56999844Y-100712274D01*
X57014433Y-100609019D01*
X57069589Y-100500336D01*
X57161514Y-100413091D01*
X57286818Y-100349320D01*
X57442108Y-100311057D01*
X57627385Y-100298303D01*
X57802010Y-100298303D01*
X57802010Y-100249457D01*
X57773516Y-100138874D01*
X57688035Y-100072525D01*
X57545567Y-100050409D01*
X57385596Y-100068115D01*
X57287904Y-100089638D01*
X57190212Y-100118793D01*
X57101067Y-99862351D01*
X57229441Y-99820526D01*
X57363005Y-99790303D01*
X57491989Y-99771986D01*
X57606625Y-99765880D01*
X57782810Y-99778973D01*
X57925482Y-99818254D01*
X58034639Y-99883721D01*
X58111640Y-99973883D01*
X58157840Y-100087247D01*
X58173240Y-100223812D01*
X58173240Y-100731812D01*
X58193389Y-100838053D01*
X58258721Y-100888120D01*
G37*
G36*
X48916894Y-99808620D02*
G01*
X49334529Y-99808620D01*
X49296673Y-100074832D01*
X48916894Y-100074832D01*
X48916894Y-100663428D01*
X48960856Y-100801418D01*
X49101288Y-100842937D01*
X49226457Y-100826452D01*
X49328423Y-100784322D01*
X49456644Y-101029774D01*
X49372995Y-101074957D01*
X49273471Y-101112812D01*
X49159293Y-101138457D01*
X49031683Y-101147005D01*
X48876868Y-101132554D01*
X48751089Y-101089204D01*
X48654346Y-101016952D01*
X48585826Y-100919870D01*
X48544714Y-100802029D01*
X48531010Y-100663428D01*
X48531010Y-100074832D01*
X48258692Y-100074832D01*
X48258692Y-99808620D01*
X48531010Y-99808620D01*
X48531010Y-99527755D01*
X48916894Y-99481351D01*
X48916894Y-99808620D01*
G37*
G36*
X54683793Y-99813505D02*
G01*
X54868798Y-99765880D01*
X55020560Y-99786504D01*
X55142065Y-99848376D01*
X55233313Y-99951495D01*
X55296745Y-100089757D01*
X55334804Y-100257055D01*
X55347490Y-100453389D01*
X55332684Y-100642821D01*
X55288264Y-100810577D01*
X55214843Y-100950704D01*
X55113029Y-101057250D01*
X54983892Y-101124566D01*
X54828500Y-101147005D01*
X54702178Y-101129366D01*
X54595124Y-101076449D01*
X54507337Y-100988255D01*
X54492683Y-101105486D01*
X54150760Y-101105486D01*
X54150760Y-100747687D01*
X54536644Y-100747687D01*
X54618462Y-100835611D01*
X54727144Y-100866139D01*
X54819036Y-100842480D01*
X54889558Y-100771500D01*
X54934435Y-100645874D01*
X54949394Y-100458274D01*
X54943136Y-100315246D01*
X54924361Y-100208548D01*
X54853534Y-100085212D01*
X54746683Y-100050409D01*
X54630673Y-100090707D01*
X54536644Y-100200611D01*
X54536644Y-100747687D01*
X54150760Y-100747687D01*
X54150760Y-99293293D01*
X54536644Y-99252995D01*
X54536644Y-99941726D01*
X54603960Y-99869373D01*
X54683793Y-99813505D01*
G37*
G36*
X60749875Y-99252995D02*
G01*
X61135760Y-99293293D01*
X61135760Y-101105486D01*
X60793837Y-101105486D01*
X60774298Y-100962611D01*
X60631423Y-101092663D01*
X60532815Y-101133419D01*
X60415279Y-101147005D01*
X60267977Y-101125329D01*
X60148457Y-101060303D01*
X60056260Y-100956352D01*
X59990928Y-100817904D01*
X59952004Y-100648927D01*
X59939191Y-100455832D01*
X60337125Y-100455832D01*
X60343536Y-100597944D01*
X60362769Y-100704337D01*
X60433596Y-100828284D01*
X60537394Y-100863697D01*
X60655236Y-100823399D01*
X60749875Y-100713495D01*
X60749875Y-100154207D01*
X60664394Y-100076053D01*
X60559375Y-100047966D01*
X60469010Y-100071626D01*
X60398183Y-100142606D01*
X60352389Y-100268232D01*
X60337125Y-100455832D01*
X59939191Y-100455832D01*
X59939029Y-100453389D01*
X59954599Y-100264416D01*
X60001308Y-100098034D01*
X60077019Y-99959585D01*
X60179596Y-99854413D01*
X60306596Y-99788013D01*
X60455577Y-99765880D01*
X60616464Y-99795798D01*
X60749875Y-99885553D01*
X60749875Y-99252995D01*
G37*
G36*
X56518577Y-99851361D02*
G01*
X56642524Y-99954090D01*
X56733500Y-100091317D01*
X56789368Y-100259073D01*
X56807990Y-100453389D01*
X56789537Y-100654337D01*
X56734178Y-100824077D01*
X56641913Y-100962611D01*
X56516542Y-101065052D01*
X56361862Y-101126517D01*
X56177875Y-101147005D01*
X55993888Y-101126788D01*
X55839208Y-101066137D01*
X55713837Y-100965053D01*
X55621572Y-100827605D01*
X55566213Y-100657865D01*
X55547760Y-100455832D01*
X55945856Y-100455832D01*
X55960052Y-100641142D01*
X56002639Y-100767226D01*
X56074840Y-100839579D01*
X56177875Y-100863697D01*
X56280910Y-100839579D01*
X56353111Y-100767226D01*
X56395698Y-100640531D01*
X56409894Y-100453389D01*
X56395698Y-100271743D01*
X56353111Y-100146880D01*
X56280910Y-100074526D01*
X56177875Y-100050409D01*
X56074840Y-100074679D01*
X56002639Y-100147490D01*
X55960052Y-100273117D01*
X55945856Y-100455832D01*
X55547760Y-100455832D01*
X55566535Y-100262279D01*
X55622861Y-100094370D01*
X55714447Y-99956380D01*
X55839005Y-99852582D01*
X55994244Y-99787555D01*
X56177875Y-99765880D01*
X56363185Y-99787250D01*
X56518577Y-99851361D01*
G37*
G36*
X45925067Y-100507120D02*
G01*
X46103356Y-99412966D01*
X46514885Y-99412966D01*
X46610135Y-101105486D01*
X46260885Y-101105486D01*
X46240125Y-100381341D01*
X46237835Y-100255868D01*
X46238293Y-100148101D01*
X46246231Y-99958212D01*
X46252947Y-99861588D01*
X46260885Y-99753668D01*
X46070385Y-100817293D01*
X45767538Y-100817293D01*
X45562385Y-99753668D01*
X45571238Y-99856703D01*
X45578260Y-99953327D01*
X45586197Y-100149322D01*
X45586960Y-100260142D01*
X45585587Y-100387447D01*
X45573375Y-101105486D01*
X45230231Y-101105486D01*
X45325481Y-99412966D01*
X45737010Y-99412966D01*
X45925067Y-100507120D01*
G37*
G36*
X66442894Y-100809966D02*
G01*
X66706663Y-99808620D01*
X67097433Y-99808620D01*
X66665144Y-101105486D01*
X66210875Y-101105486D01*
X65773702Y-99808620D01*
X66190115Y-99808620D01*
X66442894Y-100809966D01*
G37*
G36*
X40264409Y-99384422D02*
G01*
X40426212Y-99427010D01*
X40566339Y-99495852D01*
X40686317Y-99588812D01*
X40497038Y-99806178D01*
X40408200Y-99743441D01*
X40312644Y-99699327D01*
X40212815Y-99673225D01*
X40111154Y-99664524D01*
X39926760Y-99706654D01*
X39857154Y-99830601D01*
X39887683Y-99920966D01*
X39993923Y-99989962D01*
X40084288Y-100024917D01*
X40203962Y-100065062D01*
X40352484Y-100118641D01*
X40478111Y-100181683D01*
X40578856Y-100258157D01*
X40652736Y-100352034D01*
X40698071Y-100468043D01*
X40713183Y-100610918D01*
X40692576Y-100759288D01*
X40630755Y-100889341D01*
X40530468Y-100997108D01*
X40394462Y-101078620D01*
X40225026Y-101129909D01*
X40024452Y-101147005D01*
X39873504Y-101139203D01*
X39739787Y-101115798D01*
X39623303Y-101076788D01*
X39475391Y-100998177D01*
X39355260Y-100902774D01*
X39557971Y-100678082D01*
X39656885Y-100750588D01*
X39765567Y-100804471D01*
X39884630Y-100837900D01*
X40014683Y-100849043D01*
X40128555Y-100835458D01*
X40218615Y-100794702D01*
X40296769Y-100641447D01*
X40231438Y-100496130D01*
X40138172Y-100443315D01*
X39989038Y-100389889D01*
X39810275Y-100326050D01*
X39669639Y-100255020D01*
X39567130Y-100176798D01*
X39473254Y-100036518D01*
X39441962Y-99861130D01*
X39463484Y-99717339D01*
X39528053Y-99596139D01*
X39628951Y-99499210D01*
X39759462Y-99428231D01*
X39912106Y-99384727D01*
X40079404Y-99370226D01*
X40264409Y-99384422D01*
G37*
G36*
X42073548Y-99706043D02*
G01*
X41724298Y-99706043D01*
X41724298Y-100811187D01*
X42073548Y-100811187D01*
X42073548Y-101105486D01*
X40974510Y-101105486D01*
X40974510Y-100811187D01*
X41323760Y-100811187D01*
X41323760Y-99706043D01*
X40974510Y-99706043D01*
X40974510Y-99412966D01*
X42073548Y-99412966D01*
X42073548Y-99706043D01*
G37*
G36*
X64778767Y-100705710D02*
G01*
X64846846Y-100797144D01*
X64940875Y-100848891D01*
X65054442Y-100866139D01*
X65226625Y-100836832D01*
X65386596Y-100758678D01*
X65541683Y-100968716D01*
X65440480Y-101039849D01*
X65320043Y-101096937D01*
X65180984Y-101134488D01*
X65023913Y-101147005D01*
X64819675Y-101124871D01*
X64651462Y-101058471D01*
X64519882Y-100953299D01*
X64425548Y-100814851D01*
X64368764Y-100648163D01*
X64349837Y-100458274D01*
X64361936Y-100337380D01*
X64738163Y-100337380D01*
X65214413Y-100337380D01*
X65200065Y-100209769D01*
X65159462Y-100110245D01*
X65088329Y-100046135D01*
X64982394Y-100024764D01*
X64888671Y-100043387D01*
X64815096Y-100099255D01*
X64764113Y-100196031D01*
X64738163Y-100337380D01*
X64361936Y-100337380D01*
X64368154Y-100275254D01*
X64423106Y-100109635D01*
X64513319Y-99968591D01*
X64637418Y-99859298D01*
X64794184Y-99789234D01*
X64982394Y-99765880D01*
X65155645Y-99785724D01*
X65304168Y-99845255D01*
X65425063Y-99942031D01*
X65515428Y-100073611D01*
X65571754Y-100237550D01*
X65590529Y-100431409D01*
X65588697Y-100502236D01*
X65583202Y-100569399D01*
X64743048Y-100569399D01*
X64778767Y-100705710D01*
G37*
G36*
X50140490Y-99936841D02*
G01*
X50255007Y-99841863D01*
X50382007Y-99784876D01*
X50521490Y-99765880D01*
X50674440Y-99791219D01*
X50786481Y-99867236D01*
X50855171Y-99989351D01*
X50878067Y-100152986D01*
X50878067Y-101105486D01*
X50492183Y-101105486D01*
X50492183Y-100260447D01*
X50465928Y-100096812D01*
X50367625Y-100050409D01*
X50251005Y-100092538D01*
X50140490Y-100207937D01*
X50140490Y-101105486D01*
X49754606Y-101105486D01*
X49754606Y-99293293D01*
X50140490Y-99255437D01*
X50140490Y-99936841D01*
G37*
G36*
X69503716Y-100639615D02*
G01*
X69602019Y-100738529D01*
X69638654Y-100874687D01*
X69602019Y-101010236D01*
X69503716Y-101109760D01*
X69366337Y-101147005D01*
X69229567Y-101109760D01*
X69130654Y-101010236D01*
X69094019Y-100874687D01*
X69130654Y-100738529D01*
X69229567Y-100639615D01*
X69366337Y-100602370D01*
X69503716Y-100639615D01*
G37*
G36*
X64044548Y-100221981D02*
G01*
X63934950Y-100320742D01*
X63803981Y-100391111D01*
X64247260Y-101105486D01*
X63794212Y-101105486D01*
X63427865Y-100458274D01*
X63314298Y-100458274D01*
X63314298Y-101105486D01*
X62913760Y-101105486D01*
X62913760Y-100183514D01*
X63314298Y-100183514D01*
X63463279Y-100183514D01*
X63578373Y-100168250D01*
X63662327Y-100122457D01*
X63713615Y-100043082D01*
X63730712Y-99927072D01*
X63712852Y-99821595D01*
X63659274Y-99749394D01*
X63570588Y-99707722D01*
X63447404Y-99693832D01*
X63314298Y-99693832D01*
X63314298Y-100183514D01*
X62913760Y-100183514D01*
X62913760Y-99412966D01*
X63446183Y-99412966D01*
X63657714Y-99426942D01*
X63831525Y-99468868D01*
X63967615Y-99538745D01*
X64065308Y-99637794D01*
X64123923Y-99767237D01*
X64143462Y-99927072D01*
X64118733Y-100091775D01*
X64044548Y-100221981D01*
G37*
%TO.C,C12*%
X105960000Y-120107836D02*
X105960000Y-119892164D01*
X105240000Y-120107836D02*
X105240000Y-119892164D01*
%TO.C,J15*%
X123110000Y-120760000D02*
X126440000Y-120760000D01*
X138070000Y-106790000D02*
X138070000Y-107440000D01*
X129960000Y-107440000D02*
X138070000Y-107440000D01*
X138590000Y-121410000D02*
X138590000Y-106790000D01*
X138070000Y-120760000D02*
X138070000Y-121410000D01*
X138590000Y-106790000D02*
X138070000Y-106790000D01*
X138070000Y-121410000D02*
X138590000Y-121410000D01*
X138070000Y-120760000D02*
X129960000Y-120760000D01*
X123110000Y-120760000D02*
X123110000Y-107440000D01*
X123110000Y-107440000D02*
X126440000Y-107440000D01*
X122890000Y-118500000D02*
X122890000Y-116700000D01*
%TO.C,kibuzzard-6252E8F1*%
G36*
X89800000Y-40653491D02*
G01*
X90148232Y-40885646D01*
X90148232Y-41398276D01*
X90146556Y-41432409D01*
X90141541Y-41466213D01*
X90133238Y-41499363D01*
X90121725Y-41531539D01*
X90107114Y-41562432D01*
X90089545Y-41591744D01*
X90069187Y-41619193D01*
X90046237Y-41644514D01*
X90020916Y-41667464D01*
X89993468Y-41687821D01*
X89964156Y-41705390D01*
X89933263Y-41720001D01*
X89901087Y-41731514D01*
X89867937Y-41739818D01*
X89834133Y-41744832D01*
X89800000Y-41746509D01*
X89765867Y-41744832D01*
X89732063Y-41739818D01*
X89698913Y-41731514D01*
X89666737Y-41720001D01*
X89635844Y-41705390D01*
X89606532Y-41687821D01*
X89579084Y-41667464D01*
X89553763Y-41644514D01*
X89530813Y-41619193D01*
X89510455Y-41591744D01*
X89492886Y-41562432D01*
X89478275Y-41531539D01*
X89466762Y-41499363D01*
X89458459Y-41466213D01*
X89453444Y-41432409D01*
X89451768Y-41398276D01*
X89451768Y-41160686D01*
X89517913Y-41160686D01*
X89628631Y-41342638D01*
X89716962Y-41288093D01*
X89644506Y-41172083D01*
X89984801Y-41172083D01*
X89984801Y-41308038D01*
X90082087Y-41308038D01*
X90082087Y-40941285D01*
X89984801Y-40941285D01*
X89984801Y-41046711D01*
X89517913Y-41046711D01*
X89517913Y-41160686D01*
X89451768Y-41160686D01*
X89451768Y-40885646D01*
X89800000Y-40653491D01*
G37*
%TO.C,J17*%
X138590000Y-142390000D02*
X138070000Y-142390000D01*
X129960000Y-143040000D02*
X138070000Y-143040000D01*
X138070000Y-156360000D02*
X138070000Y-157010000D01*
X138590000Y-157010000D02*
X138590000Y-142390000D01*
X123110000Y-156360000D02*
X123110000Y-143040000D01*
X138070000Y-157010000D02*
X138590000Y-157010000D01*
X123110000Y-156360000D02*
X126440000Y-156360000D01*
X123110000Y-143040000D02*
X126440000Y-143040000D01*
X138070000Y-142390000D02*
X138070000Y-143040000D01*
X122890000Y-154100000D02*
X122890000Y-152300000D01*
X138070000Y-156360000D02*
X129960000Y-156360000D01*
%TO.C,C21*%
X113610000Y-119892164D02*
X113610000Y-120107836D01*
X112890000Y-119892164D02*
X112890000Y-120107836D01*
%TO.C,kibuzzard-6252E8F1*%
G36*
X99800000Y-34553491D02*
G01*
X100148232Y-34785646D01*
X100148232Y-35298276D01*
X100146556Y-35332409D01*
X100141541Y-35366213D01*
X100133238Y-35399363D01*
X100121725Y-35431539D01*
X100107114Y-35462432D01*
X100089545Y-35491744D01*
X100069187Y-35519193D01*
X100046237Y-35544514D01*
X100020916Y-35567464D01*
X99993468Y-35587821D01*
X99964156Y-35605390D01*
X99933263Y-35620001D01*
X99901087Y-35631514D01*
X99867937Y-35639818D01*
X99834133Y-35644832D01*
X99800000Y-35646509D01*
X99765867Y-35644832D01*
X99732063Y-35639818D01*
X99698913Y-35631514D01*
X99666737Y-35620001D01*
X99635844Y-35605390D01*
X99606532Y-35587821D01*
X99579084Y-35567464D01*
X99553763Y-35544514D01*
X99530813Y-35519193D01*
X99510455Y-35491744D01*
X99492886Y-35462432D01*
X99478275Y-35431539D01*
X99466762Y-35399363D01*
X99458459Y-35366213D01*
X99453444Y-35332409D01*
X99451768Y-35298276D01*
X99451768Y-35060686D01*
X99517913Y-35060686D01*
X99628631Y-35242638D01*
X99716962Y-35188093D01*
X99644506Y-35072083D01*
X99984801Y-35072083D01*
X99984801Y-35208038D01*
X100082087Y-35208038D01*
X100082087Y-34841285D01*
X99984801Y-34841285D01*
X99984801Y-34946711D01*
X99517913Y-34946711D01*
X99517913Y-35060686D01*
X99451768Y-35060686D01*
X99451768Y-34785646D01*
X99800000Y-34553491D01*
G37*
%TO.C,C1*%
X112840000Y-30507836D02*
X112840000Y-30292164D01*
X113560000Y-30507836D02*
X113560000Y-30292164D01*
%TO.C,kibuzzard-6252E708*%
G36*
X122225806Y-117401096D02*
G01*
X122208070Y-117520665D01*
X122178699Y-117637919D01*
X122137977Y-117751730D01*
X122086295Y-117861002D01*
X122024152Y-117964682D01*
X121952146Y-118061771D01*
X121870970Y-118151335D01*
X121781406Y-118232511D01*
X121684317Y-118304517D01*
X121580637Y-118366660D01*
X121471365Y-118418342D01*
X121357554Y-118459064D01*
X121240300Y-118488435D01*
X121120731Y-118506171D01*
X121000000Y-118512102D01*
X120879269Y-118506171D01*
X120759700Y-118488435D01*
X120642446Y-118459064D01*
X120528635Y-118418342D01*
X120419363Y-118366660D01*
X120315683Y-118304517D01*
X120218594Y-118232511D01*
X120129030Y-118151335D01*
X120047854Y-118061771D01*
X119975848Y-117964682D01*
X119913705Y-117861002D01*
X119862023Y-117751730D01*
X119821301Y-117637919D01*
X119791930Y-117520665D01*
X119774194Y-117401096D01*
X119768263Y-117280365D01*
X119768263Y-117167917D01*
X120041598Y-117167917D01*
X121317622Y-117167917D01*
X121509995Y-117148195D01*
X121677455Y-117089031D01*
X121815507Y-116990249D01*
X121919651Y-116851679D01*
X121985044Y-116672973D01*
X122006841Y-116453786D01*
X121984179Y-116235637D01*
X121916191Y-116057278D01*
X121809279Y-115918534D01*
X121669844Y-115819234D01*
X121503940Y-115759550D01*
X121317622Y-115739656D01*
X120041598Y-115739656D01*
X120041598Y-116194983D01*
X121148777Y-116194983D01*
X121375576Y-116206747D01*
X121538366Y-116242038D01*
X121636455Y-116318503D01*
X121669152Y-116453786D01*
X121636455Y-116589070D01*
X121538366Y-116665534D01*
X121375576Y-116700826D01*
X121148777Y-116712590D01*
X120041598Y-116712590D01*
X120041598Y-117167917D01*
X119768263Y-117167917D01*
X119768263Y-114769490D01*
X119993159Y-114769490D01*
X120009593Y-114959094D01*
X120058897Y-115132091D01*
X120139341Y-115280003D01*
X120249194Y-115394354D01*
X120386553Y-115467532D01*
X120549516Y-115491924D01*
X120748290Y-115456460D01*
X120907274Y-115350067D01*
X120995925Y-115233890D01*
X121076426Y-115074502D01*
X121148777Y-114871904D01*
X121209326Y-114702886D01*
X121269183Y-114597185D01*
X121433876Y-114523142D01*
X121607565Y-114611716D01*
X121653755Y-114713785D01*
X121669152Y-114842840D01*
X121656523Y-114990233D01*
X121618637Y-115125171D01*
X121557569Y-115248345D01*
X121475395Y-115360447D01*
X121730046Y-115590186D01*
X121838169Y-115454038D01*
X121927263Y-115286404D01*
X121971473Y-115154388D01*
X121997999Y-115002843D01*
X122006841Y-114831768D01*
X121987466Y-114604451D01*
X121929339Y-114412424D01*
X121836958Y-114258284D01*
X121714823Y-114144625D01*
X121567429Y-114074561D01*
X121399277Y-114051207D01*
X121237352Y-114068334D01*
X121105874Y-114119714D01*
X120999481Y-114203444D01*
X120912810Y-114317622D01*
X120841362Y-114459998D01*
X120780640Y-114628324D01*
X120735142Y-114763954D01*
X120695526Y-114866368D01*
X120617331Y-114986774D01*
X120514917Y-115021373D01*
X120374444Y-114942486D01*
X120326696Y-114733506D01*
X120336557Y-114618290D01*
X120366140Y-114505150D01*
X120416136Y-114396854D01*
X120487237Y-114296170D01*
X120240890Y-114081654D01*
X120135535Y-114217630D01*
X120057513Y-114376441D01*
X120009247Y-114559817D01*
X119993159Y-114769490D01*
X119768263Y-114769490D01*
X119768263Y-113807627D01*
X120041598Y-113807627D01*
X121959786Y-113807627D01*
X121959786Y-113170999D01*
X121953212Y-113018243D01*
X121933491Y-112872753D01*
X121898199Y-112738680D01*
X121844916Y-112620177D01*
X121770874Y-112521223D01*
X121673304Y-112445797D01*
X121549784Y-112398049D01*
X121397893Y-112382134D01*
X121259149Y-112398568D01*
X121150161Y-112447873D01*
X121067642Y-112522261D01*
X121008304Y-112613949D01*
X120943949Y-112816702D01*
X120891358Y-112684532D01*
X120805552Y-112570354D01*
X120685838Y-112491468D01*
X120531525Y-112465172D01*
X120364583Y-112490603D01*
X120237430Y-112566894D01*
X120145915Y-112684878D01*
X120085885Y-112835385D01*
X120052670Y-113009939D01*
X120041598Y-113200063D01*
X120041598Y-113807627D01*
X119768263Y-113807627D01*
X119768263Y-111537909D01*
X119993159Y-111537909D01*
X120015475Y-111750695D01*
X120082425Y-111926806D01*
X120186742Y-112072124D01*
X120321161Y-112192529D01*
X120523221Y-111924038D01*
X120375136Y-111769033D01*
X120329464Y-111579429D01*
X120397279Y-111389132D01*
X120581348Y-111322009D01*
X120759880Y-111363529D01*
X120859354Y-111418715D01*
X120972321Y-111501234D01*
X121103279Y-111613336D01*
X121256727Y-111757269D01*
X121373596Y-111872370D01*
X121504612Y-112004539D01*
X121649776Y-112153778D01*
X121959786Y-112153778D01*
X121959786Y-110879138D01*
X121626248Y-110832082D01*
X121626248Y-111651395D01*
X121501076Y-111513382D01*
X121385744Y-111390901D01*
X121280255Y-111283950D01*
X121136148Y-111149878D01*
X121005536Y-111045215D01*
X120884784Y-110967885D01*
X120770260Y-110915813D01*
X120657639Y-110886230D01*
X120542596Y-110876370D01*
X120401258Y-110894880D01*
X120270646Y-110950412D01*
X120157679Y-111042793D01*
X120069277Y-111171848D01*
X120012188Y-111337060D01*
X119993159Y-111537909D01*
X119768263Y-111537909D01*
X119768263Y-110719635D01*
X119774194Y-110598903D01*
X119791930Y-110479335D01*
X119821301Y-110362080D01*
X119862023Y-110248269D01*
X119913705Y-110138998D01*
X119975848Y-110035318D01*
X120047854Y-109938229D01*
X120129030Y-109848665D01*
X120218594Y-109767489D01*
X120315684Y-109695483D01*
X120419363Y-109633340D01*
X120528635Y-109581658D01*
X120642446Y-109540936D01*
X120759700Y-109511565D01*
X120879269Y-109493829D01*
X121000000Y-109487898D01*
X121120731Y-109493829D01*
X121240300Y-109511565D01*
X121357554Y-109540936D01*
X121471365Y-109581658D01*
X121580637Y-109633340D01*
X121684316Y-109695483D01*
X121781406Y-109767489D01*
X121870970Y-109848665D01*
X121952146Y-109938229D01*
X122024152Y-110035318D01*
X122086295Y-110138998D01*
X122137977Y-110248269D01*
X122178699Y-110362080D01*
X122208070Y-110479335D01*
X122225806Y-110598903D01*
X122231737Y-110719635D01*
X122231737Y-117280365D01*
X122225806Y-117401096D01*
G37*
G36*
X121537674Y-112896972D02*
G01*
X121610333Y-113020838D01*
X121629016Y-113186223D01*
X121629016Y-113353684D01*
X121111410Y-113353684D01*
X121111410Y-113166847D01*
X121125942Y-113037273D01*
X121169537Y-112936415D01*
X121251191Y-112871542D01*
X121379901Y-112849917D01*
X121537674Y-112896972D01*
G37*
G36*
X120752961Y-112987623D02*
G01*
X120793442Y-113073602D01*
X120806936Y-113200063D01*
X120806936Y-113353684D01*
X120362680Y-113353684D01*
X120362680Y-113213902D01*
X120375309Y-113083982D01*
X120413195Y-112993158D01*
X120577196Y-112921884D01*
X120752961Y-112987623D01*
G37*
%TO.C,kibuzzard-6252E8F1*%
G36*
X110646509Y-75800000D02*
G01*
X110414354Y-76148232D01*
X109901724Y-76148232D01*
X109867591Y-76146556D01*
X109833787Y-76141541D01*
X109800637Y-76133238D01*
X109768461Y-76121725D01*
X109737568Y-76107114D01*
X109708256Y-76089545D01*
X109680807Y-76069187D01*
X109655486Y-76046237D01*
X109632536Y-76020916D01*
X109612179Y-75993468D01*
X109594610Y-75964156D01*
X109579999Y-75933263D01*
X109568486Y-75901087D01*
X109560182Y-75867937D01*
X109555168Y-75834133D01*
X109553491Y-75800000D01*
X109555168Y-75765867D01*
X109560182Y-75732063D01*
X109568486Y-75698913D01*
X109579999Y-75666737D01*
X109594610Y-75635844D01*
X109598933Y-75628631D01*
X109957362Y-75628631D01*
X110011907Y-75716962D01*
X110127917Y-75644506D01*
X110127917Y-75984801D01*
X109991962Y-75984801D01*
X109991962Y-76082087D01*
X110358715Y-76082087D01*
X110358715Y-75984801D01*
X110253289Y-75984801D01*
X110253289Y-75517913D01*
X110139314Y-75517913D01*
X109957362Y-75628631D01*
X109598933Y-75628631D01*
X109612179Y-75606532D01*
X109632536Y-75579084D01*
X109655486Y-75553763D01*
X109680807Y-75530813D01*
X109708256Y-75510455D01*
X109737568Y-75492886D01*
X109768461Y-75478275D01*
X109800637Y-75466762D01*
X109833787Y-75458459D01*
X109867591Y-75453444D01*
X109901724Y-75451768D01*
X110414354Y-75451768D01*
X110646509Y-75800000D01*
G37*
%TO.C,C14*%
X104565000Y-112507836D02*
X104565000Y-112292164D01*
X105285000Y-112507836D02*
X105285000Y-112292164D01*
D13*
%TO.C,D4*%
X104270000Y-44800000D02*
G75*
G03*
X104270000Y-44800000I-50000J0D01*
G01*
D12*
%TO.C,C8*%
X98740000Y-40902164D02*
X98740000Y-41117836D01*
X99460000Y-40902164D02*
X99460000Y-41117836D01*
%TO.C,J1*%
X114570000Y-20230000D02*
X114570000Y-17570000D01*
X114570000Y-17570000D02*
X122250000Y-17570000D01*
X122250000Y-20230000D02*
X122250000Y-17570000D01*
X114570000Y-20230000D02*
X122250000Y-20230000D01*
X113300000Y-20230000D02*
X111970000Y-20230000D01*
X111970000Y-20230000D02*
X111970000Y-18900000D01*
%TO.C,kibuzzard-6252E662*%
G36*
X121321711Y-57159359D02*
G01*
X121338760Y-57044425D01*
X121366992Y-56931716D01*
X121406136Y-56822317D01*
X121455814Y-56717281D01*
X121515548Y-56617621D01*
X121584763Y-56524295D01*
X121662793Y-56438203D01*
X121748885Y-56360174D01*
X121842210Y-56290959D01*
X121941871Y-56231225D01*
X122046907Y-56181546D01*
X122156306Y-56142403D01*
X122269015Y-56114171D01*
X122383949Y-56097122D01*
X122500000Y-56091421D01*
X122616051Y-56097122D01*
X122730985Y-56114171D01*
X122843694Y-56142403D01*
X122953093Y-56181546D01*
X123058129Y-56231225D01*
X123157790Y-56290959D01*
X123251115Y-56360174D01*
X123337207Y-56438203D01*
X123415237Y-56524295D01*
X123484452Y-56617621D01*
X123544186Y-56717281D01*
X123593864Y-56822317D01*
X123633008Y-56931716D01*
X123661240Y-57044425D01*
X123678289Y-57159359D01*
X123683990Y-57275410D01*
X123683990Y-65524589D01*
X123678289Y-65640641D01*
X123661240Y-65755574D01*
X123633008Y-65868284D01*
X123593864Y-65977683D01*
X123544186Y-66082718D01*
X123484452Y-66182379D01*
X123415237Y-66275705D01*
X123337207Y-66361797D01*
X123251115Y-66439826D01*
X123157790Y-66509041D01*
X123058129Y-66568775D01*
X122953093Y-66618454D01*
X122843694Y-66657597D01*
X122730985Y-66685829D01*
X122616051Y-66702878D01*
X122500000Y-66708579D01*
X122383949Y-66702878D01*
X122269015Y-66685829D01*
X122156306Y-66657597D01*
X122046907Y-66618454D01*
X121941871Y-66568775D01*
X121842210Y-66509041D01*
X121748885Y-66439826D01*
X121662793Y-66361797D01*
X121584763Y-66275705D01*
X121515548Y-66182379D01*
X121455814Y-66082718D01*
X121406136Y-65977683D01*
X121366992Y-65868284D01*
X121338760Y-65755574D01*
X121321711Y-65640641D01*
X121316010Y-65524589D01*
X121316010Y-64493182D01*
X121540906Y-64493182D01*
X122277180Y-64493182D01*
X122277180Y-64958198D01*
X121540906Y-64958198D01*
X121540906Y-65412141D01*
X123459094Y-65412141D01*
X123459094Y-64958198D01*
X122650853Y-64958198D01*
X122650853Y-64493182D01*
X123459094Y-64493182D01*
X123459094Y-64039239D01*
X121540906Y-64039239D01*
X121540906Y-64493182D01*
X121316010Y-64493182D01*
X121316010Y-63751372D01*
X121540906Y-63751372D01*
X123459094Y-63751372D01*
X123459094Y-63233766D01*
X123448368Y-63058174D01*
X123416191Y-62888464D01*
X123357545Y-62730518D01*
X123267414Y-62590218D01*
X123140607Y-62472407D01*
X122971935Y-62381930D01*
X122834153Y-62339257D01*
X122673612Y-62313654D01*
X122490312Y-62305119D01*
X122304321Y-62314038D01*
X122143088Y-62340795D01*
X122006613Y-62385390D01*
X121841574Y-62479673D01*
X121718746Y-62601982D01*
X121632940Y-62747299D01*
X121578965Y-62910608D01*
X121550421Y-63085854D01*
X121540906Y-63266981D01*
X121540906Y-63751372D01*
X121316010Y-63751372D01*
X121316010Y-60730156D01*
X121540906Y-60730156D01*
X121540906Y-61196556D01*
X122780947Y-61398616D01*
X121540906Y-61611748D01*
X121540906Y-62078147D01*
X123459094Y-62186097D01*
X123459094Y-61797200D01*
X122645317Y-61783361D01*
X122501038Y-61781804D01*
X122375442Y-61782669D01*
X122153314Y-61791665D01*
X122043807Y-61799622D01*
X121927035Y-61809656D01*
X123132476Y-61577149D01*
X123132476Y-61233923D01*
X121927035Y-61018023D01*
X122049343Y-61027019D01*
X122158850Y-61034631D01*
X122374058Y-61043626D01*
X122496194Y-61044145D01*
X122638397Y-61041550D01*
X123459094Y-61018023D01*
X123459094Y-60622206D01*
X121540906Y-60730156D01*
X121316010Y-60730156D01*
X121316010Y-60366171D01*
X121540906Y-60366171D01*
X121873060Y-60366171D01*
X121873060Y-59970354D01*
X123125556Y-59970354D01*
X123125556Y-60366171D01*
X123459094Y-60366171D01*
X123459094Y-59120594D01*
X123125556Y-59120594D01*
X123125556Y-59516411D01*
X121873060Y-59516411D01*
X121873060Y-59120594D01*
X121540906Y-59120594D01*
X121540906Y-60366171D01*
X121316010Y-60366171D01*
X121316010Y-58133820D01*
X121540906Y-58133820D01*
X121917347Y-58752457D01*
X122217669Y-58567004D01*
X121971322Y-58172572D01*
X123128324Y-58172572D01*
X123128324Y-58634819D01*
X123459094Y-58634819D01*
X123459094Y-57387858D01*
X123128324Y-57387858D01*
X123128324Y-57746307D01*
X121540906Y-57746307D01*
X121540906Y-58133820D01*
X121316010Y-58133820D01*
X121316010Y-57275410D01*
X121321711Y-57159359D01*
G37*
G36*
X122714170Y-62789164D02*
G01*
X122881977Y-62829645D01*
X123000480Y-62894000D01*
X123076425Y-62979115D01*
X123117426Y-63082221D01*
X123131092Y-63200550D01*
X123131092Y-63297429D01*
X121870292Y-63297429D01*
X121870292Y-63200550D01*
X121882228Y-63086200D01*
X121918039Y-62983958D01*
X121987065Y-62897806D01*
X122098647Y-62831721D01*
X122262994Y-62789683D01*
X122490312Y-62775670D01*
X122714170Y-62789164D01*
G37*
%TO.C,kibuzzard-6252E20C*%
G36*
X41631643Y-102128774D02*
G01*
X41809525Y-102174363D01*
X41952942Y-102250346D01*
X42058097Y-102357129D01*
X42121190Y-102495120D01*
X42142221Y-102664317D01*
X42121156Y-102843827D01*
X42057962Y-102989144D01*
X41956911Y-103101032D01*
X41822279Y-103180255D01*
X41658644Y-103227422D01*
X41470587Y-103243144D01*
X41287413Y-103243144D01*
X41287413Y-103806096D01*
X40886875Y-103806096D01*
X40886875Y-102952510D01*
X41287413Y-102952510D01*
X41444942Y-102952510D01*
X41564463Y-102935261D01*
X41654370Y-102883514D01*
X41710696Y-102794523D01*
X41729471Y-102665538D01*
X41695550Y-102517643D01*
X41593787Y-102428906D01*
X41424183Y-102399327D01*
X41287413Y-102399327D01*
X41287413Y-102952510D01*
X40886875Y-102952510D01*
X40886875Y-102113577D01*
X41419298Y-102113577D01*
X41631643Y-102128774D01*
G37*
G36*
X43472058Y-102922591D02*
G01*
X43362459Y-103021352D01*
X43231490Y-103091721D01*
X43674769Y-103806096D01*
X43221721Y-103806096D01*
X42855375Y-103158885D01*
X42741808Y-103158885D01*
X42741808Y-103806096D01*
X42341269Y-103806096D01*
X42341269Y-102884125D01*
X42741808Y-102884125D01*
X42890788Y-102884125D01*
X43005882Y-102868861D01*
X43089837Y-102823067D01*
X43141125Y-102743692D01*
X43158221Y-102627683D01*
X43140362Y-102522206D01*
X43086784Y-102450005D01*
X42998097Y-102408333D01*
X42874913Y-102394442D01*
X42741808Y-102394442D01*
X42741808Y-102884125D01*
X42341269Y-102884125D01*
X42341269Y-102113577D01*
X42873692Y-102113577D01*
X43085223Y-102127552D01*
X43259034Y-102169479D01*
X43395125Y-102239356D01*
X43492817Y-102338405D01*
X43551433Y-102467847D01*
X43570971Y-102627683D01*
X43546243Y-102792386D01*
X43472058Y-102922591D01*
G37*
G36*
X48912451Y-102087627D02*
G01*
X49058226Y-102138000D01*
X49172099Y-102216001D01*
X49253611Y-102315678D01*
X49302609Y-102430924D01*
X49318942Y-102555635D01*
X49310242Y-102657143D01*
X49284139Y-102756514D01*
X49238194Y-102857565D01*
X49169962Y-102964111D01*
X49077612Y-103079357D01*
X48959312Y-103206510D01*
X48864944Y-103299589D01*
X48756872Y-103401351D01*
X48635096Y-103511798D01*
X49358019Y-103511798D01*
X49316500Y-103806096D01*
X48191817Y-103806096D01*
X48191817Y-103532558D01*
X48323498Y-103404472D01*
X48440119Y-103288870D01*
X48541678Y-103185750D01*
X48668678Y-103050355D01*
X48767591Y-102934803D01*
X48840403Y-102835126D01*
X48889096Y-102747356D01*
X48925731Y-102589827D01*
X48866505Y-102427413D01*
X48698596Y-102367577D01*
X48531298Y-102407875D01*
X48394529Y-102538538D01*
X48157625Y-102360250D01*
X48263865Y-102241645D01*
X48392087Y-102149601D01*
X48547478Y-102090528D01*
X48735231Y-102070837D01*
X48912451Y-102087627D01*
G37*
G36*
X47447066Y-102087627D02*
G01*
X47592841Y-102138000D01*
X47706714Y-102216001D01*
X47788226Y-102315678D01*
X47837225Y-102430924D01*
X47853558Y-102555635D01*
X47844857Y-102657143D01*
X47818755Y-102756514D01*
X47772809Y-102857565D01*
X47704577Y-102964111D01*
X47612227Y-103079357D01*
X47493928Y-103206510D01*
X47399560Y-103299589D01*
X47291488Y-103401351D01*
X47169712Y-103511798D01*
X47892635Y-103511798D01*
X47851115Y-103806096D01*
X46726433Y-103806096D01*
X46726433Y-103532558D01*
X46858114Y-103404472D01*
X46974734Y-103288870D01*
X47076293Y-103185750D01*
X47203293Y-103050355D01*
X47302207Y-102934803D01*
X47375018Y-102835126D01*
X47423712Y-102747356D01*
X47460346Y-102589827D01*
X47401120Y-102427413D01*
X47233212Y-102367577D01*
X47065913Y-102407875D01*
X46929144Y-102538538D01*
X46692240Y-102360250D01*
X46798481Y-102241645D01*
X46926702Y-102149601D01*
X47082094Y-102090528D01*
X47269846Y-102070837D01*
X47447066Y-102087627D01*
G37*
G36*
X45998625Y-102676529D02*
G01*
X45725087Y-102676529D01*
X45678683Y-101993904D01*
X46045029Y-101993904D01*
X45998625Y-102676529D01*
G37*
G36*
X39749981Y-103440971D02*
G01*
X39660837Y-103806096D01*
X39241981Y-103806096D01*
X39442588Y-103150337D01*
X39813481Y-103150337D01*
X40179827Y-103150337D01*
X39996654Y-102401769D01*
X39813481Y-103150337D01*
X39442588Y-103150337D01*
X39759750Y-102113577D01*
X40245769Y-102113577D01*
X40763538Y-103806096D01*
X40334913Y-103806096D01*
X40245769Y-103440971D01*
X39749981Y-103440971D01*
G37*
D10*
%TO.C,U2*%
X99275000Y-34735000D02*
X100675000Y-34735000D01*
X95125000Y-29635000D02*
X95125000Y-29780000D01*
X95125000Y-34785000D02*
X95125000Y-34640000D01*
X99275000Y-34785000D02*
X95125000Y-34785000D01*
X99275000Y-34785000D02*
X99275000Y-34735000D01*
X99275000Y-29635000D02*
X99275000Y-29780000D01*
X99275000Y-29635000D02*
X95125000Y-29635000D01*
D12*
%TO.C,R18*%
X107455000Y-100856359D02*
X107455000Y-101163641D01*
X106695000Y-100856359D02*
X106695000Y-101163641D01*
%TO.C,C18*%
X103465000Y-112292164D02*
X103465000Y-112507836D01*
X104185000Y-112292164D02*
X104185000Y-112507836D01*
%TO.C,kibuzzard-6252E763*%
G36*
X110781513Y-157016592D02*
G01*
X110366321Y-157016592D01*
X110573917Y-156168216D01*
X110781513Y-157016592D01*
G37*
G36*
X113879713Y-156182920D02*
G01*
X113981954Y-156218731D01*
X114068106Y-156287756D01*
X114134191Y-156399339D01*
X114176229Y-156563686D01*
X114190242Y-156791004D01*
X114176748Y-157014862D01*
X114136267Y-157182669D01*
X114071912Y-157301172D01*
X113986798Y-157377117D01*
X113883692Y-157418118D01*
X113765362Y-157431784D01*
X113668484Y-157431784D01*
X113668484Y-156170984D01*
X113765362Y-156170984D01*
X113879713Y-156182920D01*
G37*
G36*
X115725387Y-156018594D02*
G01*
X115797393Y-156115684D01*
X115859536Y-156219363D01*
X115911218Y-156328635D01*
X115951940Y-156442446D01*
X115981311Y-156559700D01*
X115999047Y-156679269D01*
X116004978Y-156800000D01*
X115999047Y-156920731D01*
X115981311Y-157040300D01*
X115951940Y-157157554D01*
X115911218Y-157271365D01*
X115859536Y-157380637D01*
X115797393Y-157484316D01*
X115725387Y-157581406D01*
X115644211Y-157670970D01*
X115554647Y-157752146D01*
X115457558Y-157824152D01*
X115353878Y-157886295D01*
X115244607Y-157937977D01*
X115130796Y-157978699D01*
X115013541Y-158008070D01*
X114893973Y-158025806D01*
X114773241Y-158031737D01*
X103026759Y-158031737D01*
X102906028Y-158025806D01*
X102786459Y-158008070D01*
X102669205Y-157978699D01*
X102555394Y-157937977D01*
X102446122Y-157886295D01*
X102342443Y-157824152D01*
X102245353Y-157752146D01*
X102155789Y-157670970D01*
X102074613Y-157581406D01*
X102036522Y-157530046D01*
X103139207Y-157530046D01*
X103275355Y-157638169D01*
X103442989Y-157727263D01*
X103575005Y-157771473D01*
X103726550Y-157797999D01*
X103897625Y-157806841D01*
X104124943Y-157787466D01*
X104216386Y-157759786D01*
X104910694Y-157759786D01*
X105428301Y-157759786D01*
X105603892Y-157749060D01*
X105773602Y-157716883D01*
X105931548Y-157658237D01*
X106071849Y-157568106D01*
X106189659Y-157441299D01*
X106280137Y-157272627D01*
X106322809Y-157134845D01*
X106334164Y-157063647D01*
X106658654Y-157063647D01*
X107857176Y-157063647D01*
X107857176Y-156796540D01*
X108182410Y-156796540D01*
X108195096Y-157004521D01*
X108233155Y-157189281D01*
X108296587Y-157350822D01*
X108382394Y-157488604D01*
X108487576Y-157602090D01*
X108612134Y-157691279D01*
X108752914Y-157755481D01*
X108906766Y-157794001D01*
X109073689Y-157806841D01*
X109280247Y-157787812D01*
X109365684Y-157759786D01*
X109718621Y-157759786D01*
X110193324Y-157759786D01*
X110294354Y-157345978D01*
X110856248Y-157345978D01*
X110957278Y-157759786D01*
X111443053Y-157759786D01*
X111570379Y-157759786D01*
X112024322Y-157759786D01*
X112024322Y-157026280D01*
X112153032Y-157026280D01*
X112568224Y-157759786D01*
X113081679Y-157759786D01*
X113214540Y-157759786D01*
X113732147Y-157759786D01*
X113907738Y-157749060D01*
X114077448Y-157716883D01*
X114235394Y-157658237D01*
X114375695Y-157568106D01*
X114493506Y-157441299D01*
X114583983Y-157272627D01*
X114626655Y-157134845D01*
X114652259Y-156974304D01*
X114660793Y-156791004D01*
X114651875Y-156605013D01*
X114625118Y-156443780D01*
X114580523Y-156307305D01*
X114486240Y-156142266D01*
X114363931Y-156019438D01*
X114218614Y-155933632D01*
X114055305Y-155879657D01*
X113880059Y-155851113D01*
X113698931Y-155841598D01*
X113214540Y-155841598D01*
X113214540Y-157759786D01*
X113081679Y-157759786D01*
X112579296Y-156950161D01*
X112727727Y-156870410D01*
X112851939Y-156758481D01*
X112936015Y-156610915D01*
X112964041Y-156424251D01*
X112941897Y-156243104D01*
X112875467Y-156096403D01*
X112764749Y-155984147D01*
X112610512Y-155904953D01*
X112413527Y-155857437D01*
X112173792Y-155841598D01*
X111570379Y-155841598D01*
X111570379Y-157759786D01*
X111443053Y-157759786D01*
X110856248Y-155841598D01*
X110305426Y-155841598D01*
X109718621Y-157759786D01*
X109365684Y-157759786D01*
X109454282Y-157730723D01*
X109599599Y-157646992D01*
X109720005Y-157548038D01*
X109513793Y-157285083D01*
X109338028Y-157402721D01*
X109230424Y-157443202D01*
X109098601Y-157456696D01*
X108919895Y-157417426D01*
X108776826Y-157299615D01*
X108707243Y-157173904D01*
X108665493Y-157006212D01*
X108651577Y-156796540D01*
X108666455Y-156583235D01*
X108711088Y-156413871D01*
X108780632Y-156286200D01*
X108870245Y-156197971D01*
X108975081Y-156146591D01*
X109090297Y-156129464D01*
X109297893Y-156167524D01*
X109472274Y-156270630D01*
X109695093Y-156002139D01*
X109568633Y-155913737D01*
X109430062Y-155847826D01*
X109270040Y-155806825D01*
X109079225Y-155793159D01*
X108915916Y-155806153D01*
X108763679Y-155845135D01*
X108622513Y-155910104D01*
X108496341Y-155999986D01*
X108389083Y-156113702D01*
X108300739Y-156251254D01*
X108235001Y-156411488D01*
X108195557Y-156593250D01*
X108182410Y-156796540D01*
X107857176Y-156796540D01*
X107857176Y-156723189D01*
X106658654Y-156723189D01*
X106658654Y-157063647D01*
X106334164Y-157063647D01*
X106348413Y-156974304D01*
X106356947Y-156791004D01*
X106348028Y-156605013D01*
X106321272Y-156443780D01*
X106276677Y-156307305D01*
X106182394Y-156142266D01*
X106060085Y-156019438D01*
X105914768Y-155933632D01*
X105751459Y-155879657D01*
X105576213Y-155851113D01*
X105395085Y-155841598D01*
X104910694Y-155841598D01*
X104910694Y-157759786D01*
X104216386Y-157759786D01*
X104316969Y-157729339D01*
X104471109Y-157636958D01*
X104584768Y-157514823D01*
X104654832Y-157367429D01*
X104678186Y-157199277D01*
X104661060Y-157037352D01*
X104609680Y-156905874D01*
X104525949Y-156799481D01*
X104411771Y-156712810D01*
X104269395Y-156641362D01*
X104101069Y-156580640D01*
X103965440Y-156535142D01*
X103863026Y-156495526D01*
X103742620Y-156417331D01*
X103708020Y-156314917D01*
X103786907Y-156174444D01*
X103995887Y-156126696D01*
X104111103Y-156136557D01*
X104224243Y-156166140D01*
X104332539Y-156216136D01*
X104433223Y-156287237D01*
X104647739Y-156040890D01*
X104511764Y-155935535D01*
X104352952Y-155857513D01*
X104169576Y-155809247D01*
X103959904Y-155793159D01*
X103770299Y-155809593D01*
X103597302Y-155858897D01*
X103449390Y-155939341D01*
X103335039Y-156049194D01*
X103261862Y-156186553D01*
X103237469Y-156349516D01*
X103272933Y-156548290D01*
X103379326Y-156707274D01*
X103495503Y-156795925D01*
X103654891Y-156876426D01*
X103857490Y-156948777D01*
X104026508Y-157009326D01*
X104132209Y-157069183D01*
X104206251Y-157233876D01*
X104117677Y-157407565D01*
X104015609Y-157453755D01*
X103886553Y-157469152D01*
X103739160Y-157456523D01*
X103604222Y-157418637D01*
X103481049Y-157357569D01*
X103368947Y-157275395D01*
X103139207Y-157530046D01*
X102036522Y-157530046D01*
X102002607Y-157484317D01*
X101940464Y-157380637D01*
X101888782Y-157271365D01*
X101848060Y-157157554D01*
X101818689Y-157040300D01*
X101800953Y-156920731D01*
X101795022Y-156800000D01*
X101800953Y-156679269D01*
X101818689Y-156559700D01*
X101848060Y-156442446D01*
X101888782Y-156328635D01*
X101940464Y-156219363D01*
X102002607Y-156115683D01*
X102074613Y-156018594D01*
X102155789Y-155929030D01*
X102245353Y-155847854D01*
X102342443Y-155775848D01*
X102446122Y-155713705D01*
X102555394Y-155662023D01*
X102669205Y-155621301D01*
X102786459Y-155591930D01*
X102906028Y-155574194D01*
X103026759Y-155568263D01*
X114773241Y-155568263D01*
X114893973Y-155574194D01*
X115013541Y-155591930D01*
X115130796Y-155621301D01*
X115244607Y-155662023D01*
X115353878Y-155713705D01*
X115457558Y-155775848D01*
X115554647Y-155847854D01*
X115644211Y-155929030D01*
X115725387Y-156018594D01*
G37*
G36*
X105575867Y-156182920D02*
G01*
X105678108Y-156218731D01*
X105764260Y-156287756D01*
X105830345Y-156399339D01*
X105872383Y-156563686D01*
X105886396Y-156791004D01*
X105872902Y-157014862D01*
X105832421Y-157182669D01*
X105768066Y-157301172D01*
X105682952Y-157377117D01*
X105579846Y-157418118D01*
X105461516Y-157431784D01*
X105364638Y-157431784D01*
X105364638Y-156170984D01*
X105461516Y-156170984D01*
X105575867Y-156182920D01*
G37*
G36*
X112314784Y-156175655D02*
G01*
X112415295Y-156222883D01*
X112476017Y-156304710D01*
X112496258Y-156424251D01*
X112476882Y-156555729D01*
X112418755Y-156645687D01*
X112323607Y-156697586D01*
X112193167Y-156714886D01*
X112024322Y-156714886D01*
X112024322Y-156159912D01*
X112175176Y-156159912D01*
X112314784Y-156175655D01*
G37*
%TO.C,C7*%
X102040000Y-33222164D02*
X102040000Y-33437836D01*
X102760000Y-33222164D02*
X102760000Y-33437836D01*
%TO.C,R19*%
X106155000Y-101163641D02*
X106155000Y-100856359D01*
X105395000Y-101163641D02*
X105395000Y-100856359D01*
%TO.C,TP1*%
X37150000Y-96400000D02*
G75*
G03*
X37150000Y-96400000I-1450000J0D01*
G01*
%TO.C,TP2*%
X126250000Y-18900000D02*
G75*
G03*
X126250000Y-18900000I-1450000J0D01*
G01*
%TO.C,Module1*%
X69000000Y-58080000D02*
X69000000Y-54300000D01*
X69000000Y-58080000D02*
X70000000Y-58080000D01*
X91800000Y-92000000D02*
X91800000Y-88220000D01*
X91800000Y-54300000D02*
X90800000Y-54300000D01*
X91800000Y-58080000D02*
X91800000Y-54300000D01*
X50400000Y-56650000D02*
X50400000Y-89650000D01*
X91800000Y-92000000D02*
X90800000Y-92000000D01*
X91800000Y-88220000D02*
X90800000Y-88220000D01*
X91800000Y-58080000D02*
X90800000Y-58080000D01*
X101900000Y-53150000D02*
X53900000Y-53150000D01*
X105400000Y-89650000D02*
X105400000Y-56650000D01*
X69000000Y-54300000D02*
X70000000Y-54300000D01*
X69000000Y-92000000D02*
X69000000Y-88220000D01*
X53900000Y-93150000D02*
X101900000Y-93150000D01*
X50400000Y-89650000D02*
G75*
G03*
X53900000Y-93150000I3499999J-1D01*
G01*
X53900000Y-53150000D02*
G75*
G03*
X50400000Y-56650000I-1J-3499999D01*
G01*
X101900000Y-93150000D02*
G75*
G03*
X105400000Y-89650000I1J3499999D01*
G01*
X105400000Y-56650000D02*
G75*
G03*
X101900000Y-53150000I-3499999J1D01*
G01*
%TO.C,C22*%
X116190000Y-78683335D02*
X116190000Y-78451665D01*
X116910000Y-78683335D02*
X116910000Y-78451665D01*
%TO.C,R8*%
X106530000Y-136553641D02*
X106530000Y-136246359D01*
X105770000Y-136553641D02*
X105770000Y-136246359D01*
%TO.C,R2*%
X89980000Y-30963641D02*
X89980000Y-30656359D01*
X89220000Y-30963641D02*
X89220000Y-30656359D01*
%TO.C,G\u002A\u002A\u002A*%
G36*
X34816836Y-99754805D02*
G01*
X34862131Y-99719175D01*
X34871915Y-99711849D01*
X34882918Y-99705616D01*
X34897739Y-99700401D01*
X34918978Y-99696132D01*
X34949232Y-99692733D01*
X34991102Y-99690130D01*
X35047186Y-99688249D01*
X35120084Y-99687016D01*
X35212393Y-99686355D01*
X35326714Y-99686194D01*
X35465646Y-99686457D01*
X35631787Y-99687071D01*
X35827737Y-99687960D01*
X35935905Y-99688477D01*
X36964382Y-99693408D01*
X37074119Y-99736200D01*
X37235222Y-99815302D01*
X37374427Y-99916346D01*
X37490876Y-100035882D01*
X37583712Y-100170462D01*
X37652078Y-100316638D01*
X37695116Y-100470961D01*
X37711969Y-100629982D01*
X37701779Y-100790252D01*
X37663688Y-100948322D01*
X37596839Y-101100745D01*
X37500375Y-101244071D01*
X37460533Y-101290275D01*
X37363549Y-101396116D01*
X37458727Y-101444967D01*
X37518391Y-101482491D01*
X37589741Y-101537953D01*
X37662839Y-101603460D01*
X37682061Y-101622322D01*
X37803906Y-101765592D01*
X37893942Y-101919614D01*
X37952656Y-102085558D01*
X37980535Y-102264592D01*
X37983165Y-102345587D01*
X37972492Y-102508620D01*
X37938924Y-102657466D01*
X37879230Y-102805287D01*
X37861888Y-102839712D01*
X37765582Y-102989225D01*
X37643585Y-103120407D01*
X37500639Y-103229367D01*
X37341487Y-103312218D01*
X37243454Y-103346824D01*
X37217436Y-103353287D01*
X37185260Y-103358639D01*
X37143790Y-103362974D01*
X37089889Y-103366387D01*
X37020421Y-103368971D01*
X36932250Y-103370820D01*
X36822239Y-103372028D01*
X36687252Y-103372689D01*
X36524152Y-103372898D01*
X36376014Y-103372807D01*
X36191315Y-103372486D01*
X36037096Y-103371916D01*
X35910150Y-103370985D01*
X35807269Y-103369578D01*
X35725246Y-103367583D01*
X35660875Y-103364887D01*
X35610947Y-103361375D01*
X35572256Y-103356935D01*
X35541595Y-103351453D01*
X35515756Y-103344816D01*
X35506943Y-103342098D01*
X35337449Y-103271770D01*
X35187924Y-103176567D01*
X35060921Y-103058643D01*
X34958992Y-102920152D01*
X34919287Y-102846095D01*
X34886441Y-102771364D01*
X34857718Y-102695469D01*
X34838190Y-102632102D01*
X34835197Y-102619137D01*
X34831306Y-102583442D01*
X34827886Y-102516299D01*
X34824934Y-102417427D01*
X34822445Y-102286548D01*
X34820416Y-102123381D01*
X34818844Y-101927649D01*
X34817726Y-101699070D01*
X34817058Y-101437366D01*
X34816997Y-101356066D01*
X35423202Y-101356066D01*
X35423429Y-101601443D01*
X35424124Y-101814491D01*
X35425311Y-101996566D01*
X35427013Y-102149024D01*
X35429253Y-102273219D01*
X35432053Y-102370508D01*
X35435438Y-102442245D01*
X35439431Y-102489787D01*
X35442867Y-102510500D01*
X35481715Y-102600203D01*
X35545201Y-102673834D01*
X35626661Y-102727767D01*
X35719430Y-102758375D01*
X35816842Y-102762031D01*
X35879674Y-102748177D01*
X35974612Y-102699811D01*
X36048240Y-102626929D01*
X36079307Y-102575281D01*
X36087824Y-102556888D01*
X36094887Y-102537975D01*
X36100628Y-102515390D01*
X36105174Y-102485983D01*
X36108657Y-102446605D01*
X36111205Y-102394105D01*
X36112948Y-102325333D01*
X36114016Y-102237139D01*
X36114538Y-102126372D01*
X36114643Y-101989884D01*
X36114461Y-101824522D01*
X36114294Y-101724442D01*
X36112936Y-100948681D01*
X36168112Y-100888473D01*
X36221115Y-100842750D01*
X36278932Y-100821145D01*
X36292109Y-100819034D01*
X36337544Y-100815509D01*
X36364746Y-100825673D01*
X36388481Y-100856709D01*
X36396270Y-100869701D01*
X36432070Y-100916323D01*
X36481190Y-100964116D01*
X36502681Y-100981082D01*
X36603511Y-101035734D01*
X36708334Y-101060353D01*
X36812460Y-101057325D01*
X36911201Y-101029032D01*
X36999870Y-100977862D01*
X37073778Y-100906197D01*
X37128237Y-100816423D01*
X37158560Y-100710925D01*
X37163248Y-100645065D01*
X37147103Y-100530143D01*
X37102081Y-100427329D01*
X37032119Y-100341100D01*
X36941152Y-100275933D01*
X36833114Y-100236304D01*
X36798512Y-100230139D01*
X36693972Y-100228565D01*
X36575295Y-100247525D01*
X36452232Y-100283801D01*
X36334534Y-100334177D01*
X36231952Y-100395433D01*
X36185808Y-100432326D01*
X36119774Y-100491983D01*
X36084102Y-100418560D01*
X36025960Y-100335817D01*
X35944084Y-100272046D01*
X35879674Y-100243147D01*
X35837919Y-100234817D01*
X35773213Y-100228316D01*
X35696279Y-100224552D01*
X35653613Y-100223978D01*
X35570303Y-100225206D01*
X35513882Y-100229517D01*
X35477624Y-100237850D01*
X35454799Y-100251145D01*
X35454004Y-100251854D01*
X35447787Y-100258845D01*
X35442465Y-100269372D01*
X35437971Y-100285924D01*
X35434233Y-100310993D01*
X35431183Y-100347066D01*
X35428751Y-100396635D01*
X35426867Y-100462189D01*
X35425463Y-100546217D01*
X35424469Y-100651211D01*
X35423816Y-100779658D01*
X35423433Y-100934050D01*
X35423252Y-101116877D01*
X35423202Y-101330627D01*
X35423202Y-101356066D01*
X34816997Y-101356066D01*
X34816836Y-101142342D01*
X34816836Y-99754805D01*
G37*
%TO.C,kibuzzard-6252E722*%
G36*
X120652961Y-130886239D02*
G01*
X120693442Y-130972218D01*
X120706936Y-131098679D01*
X120706936Y-131252300D01*
X120262680Y-131252300D01*
X120262680Y-131112518D01*
X120275309Y-130982598D01*
X120313195Y-130891774D01*
X120477196Y-130820500D01*
X120652961Y-130886239D01*
G37*
G36*
X121437674Y-130795588D02*
G01*
X121510333Y-130919454D01*
X121529016Y-131084839D01*
X121529016Y-131252300D01*
X121011410Y-131252300D01*
X121011410Y-131065463D01*
X121025942Y-130935889D01*
X121069537Y-130835032D01*
X121151191Y-130770158D01*
X121279901Y-130748533D01*
X121437674Y-130795588D01*
G37*
G36*
X122125806Y-135299712D02*
G01*
X122108070Y-135419281D01*
X122078699Y-135536535D01*
X122037977Y-135650346D01*
X121986295Y-135759618D01*
X121924152Y-135863298D01*
X121852146Y-135960387D01*
X121770970Y-136049951D01*
X121681406Y-136131127D01*
X121584317Y-136203133D01*
X121480637Y-136265276D01*
X121371365Y-136316958D01*
X121257554Y-136357680D01*
X121140300Y-136387051D01*
X121020731Y-136404787D01*
X120900000Y-136410718D01*
X120779269Y-136404787D01*
X120659700Y-136387051D01*
X120542446Y-136357680D01*
X120428635Y-136316958D01*
X120319363Y-136265276D01*
X120215683Y-136203133D01*
X120118594Y-136131127D01*
X120029030Y-136049951D01*
X119947854Y-135960387D01*
X119875848Y-135863298D01*
X119813705Y-135759618D01*
X119762023Y-135650346D01*
X119721301Y-135536535D01*
X119691930Y-135419281D01*
X119674194Y-135299712D01*
X119668263Y-135178981D01*
X119668263Y-135066533D01*
X119941598Y-135066533D01*
X121217622Y-135066533D01*
X121409995Y-135046811D01*
X121577455Y-134987647D01*
X121715507Y-134888865D01*
X121819651Y-134750295D01*
X121885044Y-134571589D01*
X121906841Y-134352402D01*
X121884179Y-134134253D01*
X121816191Y-133955894D01*
X121709279Y-133817150D01*
X121569844Y-133717850D01*
X121403940Y-133658166D01*
X121217622Y-133638272D01*
X119941598Y-133638272D01*
X119941598Y-134093599D01*
X121048777Y-134093599D01*
X121275576Y-134105363D01*
X121438366Y-134140654D01*
X121536455Y-134217119D01*
X121569152Y-134352402D01*
X121536455Y-134487686D01*
X121438366Y-134564150D01*
X121275576Y-134599442D01*
X121048777Y-134611206D01*
X119941598Y-134611206D01*
X119941598Y-135066533D01*
X119668263Y-135066533D01*
X119668263Y-132668106D01*
X119893159Y-132668106D01*
X119909593Y-132857710D01*
X119958897Y-133030707D01*
X120039341Y-133178619D01*
X120149194Y-133292970D01*
X120286553Y-133366148D01*
X120449516Y-133390540D01*
X120648290Y-133355076D01*
X120807274Y-133248683D01*
X120895925Y-133132506D01*
X120976426Y-132973118D01*
X121048777Y-132770520D01*
X121109326Y-132601502D01*
X121169183Y-132495801D01*
X121333876Y-132421758D01*
X121507565Y-132510332D01*
X121553755Y-132612401D01*
X121569152Y-132741456D01*
X121556523Y-132888849D01*
X121518637Y-133023787D01*
X121457569Y-133146961D01*
X121375395Y-133259063D01*
X121630046Y-133488802D01*
X121738169Y-133352654D01*
X121827263Y-133185020D01*
X121871473Y-133053004D01*
X121897999Y-132901459D01*
X121906841Y-132730384D01*
X121887466Y-132503067D01*
X121829339Y-132311040D01*
X121736958Y-132156900D01*
X121614823Y-132043241D01*
X121467429Y-131973177D01*
X121299277Y-131949823D01*
X121137352Y-131966950D01*
X121005874Y-132018330D01*
X120899481Y-132102060D01*
X120812810Y-132216238D01*
X120741362Y-132358614D01*
X120680640Y-132526940D01*
X120635142Y-132662570D01*
X120595526Y-132764984D01*
X120517331Y-132885390D01*
X120414917Y-132919989D01*
X120274444Y-132841102D01*
X120226696Y-132632122D01*
X120236557Y-132516906D01*
X120266140Y-132403766D01*
X120316136Y-132295470D01*
X120387237Y-132194786D01*
X120140890Y-131980270D01*
X120035535Y-132116246D01*
X119957513Y-132275057D01*
X119909247Y-132458433D01*
X119893159Y-132668106D01*
X119668263Y-132668106D01*
X119668263Y-131706243D01*
X119941598Y-131706243D01*
X121859786Y-131706243D01*
X121859786Y-131069615D01*
X121853212Y-130916859D01*
X121833491Y-130771369D01*
X121798199Y-130637296D01*
X121744916Y-130518793D01*
X121670874Y-130419839D01*
X121573304Y-130344413D01*
X121449784Y-130296665D01*
X121297893Y-130280750D01*
X121159149Y-130297184D01*
X121050161Y-130346489D01*
X120967642Y-130420877D01*
X120908304Y-130512565D01*
X120843949Y-130715318D01*
X120791358Y-130583148D01*
X120705552Y-130468970D01*
X120585838Y-130390084D01*
X120431525Y-130363788D01*
X120264583Y-130389219D01*
X120137430Y-130465510D01*
X120045915Y-130583494D01*
X119985885Y-130734001D01*
X119952670Y-130908555D01*
X119941598Y-131098679D01*
X119941598Y-131706243D01*
X119668263Y-131706243D01*
X119668263Y-129447597D01*
X119893159Y-129447597D01*
X119909593Y-129636856D01*
X119958897Y-129808815D01*
X120040033Y-129964166D01*
X120151962Y-130103601D01*
X120384470Y-129879397D01*
X120262680Y-129704324D01*
X120218393Y-129496036D01*
X120280671Y-129295360D01*
X120450900Y-129217857D01*
X120560926Y-129238098D01*
X120639121Y-129298820D01*
X120685830Y-129391373D01*
X120701400Y-129507108D01*
X120701400Y-129631666D01*
X121003106Y-129681489D01*
X121003106Y-129507108D01*
X121019887Y-129369576D01*
X121070229Y-129266989D01*
X121158630Y-129203153D01*
X121289589Y-129181874D01*
X121410514Y-129204364D01*
X121499261Y-129271832D01*
X121553755Y-129374939D01*
X121571920Y-129504340D01*
X121528324Y-129719548D01*
X121471754Y-129816599D01*
X121389235Y-129904309D01*
X121618975Y-130150656D01*
X121740591Y-130017795D01*
X121831415Y-129860022D01*
X121887985Y-129678721D01*
X121906841Y-129475277D01*
X121886947Y-129260415D01*
X121827263Y-129078076D01*
X121734364Y-128931202D01*
X121614823Y-128822733D01*
X121474695Y-128755783D01*
X121320036Y-128733466D01*
X121118495Y-128765298D01*
X120978887Y-128860792D01*
X120890831Y-129005763D01*
X120843949Y-129186026D01*
X120777345Y-129026350D01*
X120679948Y-128901619D01*
X120549681Y-128821176D01*
X120384470Y-128794361D01*
X120255933Y-128813564D01*
X120138814Y-128871172D01*
X120038476Y-128965282D01*
X119960281Y-129093992D01*
X119909939Y-129255398D01*
X119893159Y-129447597D01*
X119668263Y-129447597D01*
X119668263Y-128621019D01*
X119674194Y-128500287D01*
X119691930Y-128380719D01*
X119721301Y-128263464D01*
X119762023Y-128149653D01*
X119813705Y-128040382D01*
X119875848Y-127936702D01*
X119947854Y-127839613D01*
X120029030Y-127750049D01*
X120118594Y-127668873D01*
X120215684Y-127596867D01*
X120319363Y-127534724D01*
X120428635Y-127483042D01*
X120542446Y-127442320D01*
X120659700Y-127412949D01*
X120779269Y-127395213D01*
X120900000Y-127389282D01*
X121020731Y-127395213D01*
X121140300Y-127412949D01*
X121257554Y-127442320D01*
X121371365Y-127483042D01*
X121480637Y-127534724D01*
X121584316Y-127596867D01*
X121681406Y-127668873D01*
X121770970Y-127750049D01*
X121852146Y-127839613D01*
X121924152Y-127936702D01*
X121986295Y-128040382D01*
X122037977Y-128149653D01*
X122078699Y-128263464D01*
X122108070Y-128380719D01*
X122125806Y-128500287D01*
X122131737Y-128621019D01*
X122131737Y-135178981D01*
X122125806Y-135299712D01*
G37*
D14*
%TO.C,J7*%
X37956750Y-42375000D02*
X37956750Y-43475000D01*
X34056750Y-44875000D02*
X31256750Y-44875000D01*
X26406750Y-28675000D02*
X26406750Y-44875000D01*
X28856750Y-44875000D02*
X26406750Y-44875000D01*
X37956750Y-30075000D02*
X37956750Y-31575000D01*
X31256750Y-28675000D02*
X34156750Y-28675000D01*
X26406750Y-28675000D02*
X28756750Y-28675000D01*
D15*
X38556750Y-42075000D02*
G75*
G03*
X38556750Y-42075000I-100000J0D01*
G01*
D10*
%TO.C,U14*%
X115350000Y-79167500D02*
X115350000Y-78642500D01*
X111050000Y-79167500D02*
X111575000Y-79167500D01*
X111050000Y-74867500D02*
X111575000Y-74867500D01*
X111050000Y-79167500D02*
X111050000Y-78642500D01*
X115350000Y-74867500D02*
X114825000Y-74867500D01*
X115350000Y-74867500D02*
X115350000Y-75392500D01*
X115350000Y-79167500D02*
X114825000Y-79167500D01*
D12*
%TO.C,C23*%
X111698335Y-80007500D02*
X111466665Y-80007500D01*
X111698335Y-80727500D02*
X111466665Y-80727500D01*
%TO.C,C27*%
X113866665Y-80727500D02*
X114098335Y-80727500D01*
X113866665Y-80007500D02*
X114098335Y-80007500D01*
%TO.C,J6*%
X35495000Y-80920000D02*
X40695000Y-80920000D01*
X35495000Y-75720000D02*
X36825000Y-75720000D01*
X40695000Y-75720000D02*
X40695000Y-80920000D01*
X38095000Y-78320000D02*
X38095000Y-75720000D01*
X38095000Y-75720000D02*
X40695000Y-75720000D01*
X35495000Y-78320000D02*
X35495000Y-80920000D01*
X35495000Y-78320000D02*
X38095000Y-78320000D01*
X35495000Y-77050000D02*
X35495000Y-75720000D01*
%TO.C,L1*%
X84910000Y-32350000D02*
X84910000Y-38000000D01*
X79550000Y-38660000D02*
X78700000Y-38660000D01*
X83450000Y-31740000D02*
X84300000Y-31740000D01*
X84250000Y-38660000D02*
X83450000Y-38660000D01*
X78090000Y-38050000D02*
X78090000Y-32350000D01*
X78700000Y-31740000D02*
X79550000Y-31740000D01*
X84250000Y-38660000D02*
G75*
G03*
X84910000Y-38000000I-2J660002D01*
G01*
X78090000Y-38050000D02*
G75*
G03*
X78700000Y-38660000I610000J0D01*
G01*
X84910000Y-32350000D02*
G75*
G03*
X84300000Y-31740000I-610000J0D01*
G01*
X78700000Y-31740000D02*
G75*
G03*
X78090000Y-32350000I0J-610000D01*
G01*
%TO.C,C19*%
X104185000Y-110092164D02*
X104185000Y-110307836D01*
X103465000Y-110092164D02*
X103465000Y-110307836D01*
%TO.C,J3*%
X38570000Y-85000000D02*
X38570000Y-83670000D01*
X38570000Y-86270000D02*
X41230000Y-86270000D01*
X38570000Y-86270000D02*
X38570000Y-91410000D01*
X41230000Y-86270000D02*
X41230000Y-91410000D01*
X38570000Y-91410000D02*
X41230000Y-91410000D01*
X38570000Y-83670000D02*
X39900000Y-83670000D01*
D10*
%TO.C,U3*%
X111500000Y-107120000D02*
X111500000Y-107600000D01*
X111500000Y-107120000D02*
X107350000Y-107120000D01*
X111500000Y-117280000D02*
X111500000Y-116800000D01*
X107350000Y-117280000D02*
X107350000Y-116800000D01*
X107350000Y-107120000D02*
X107350000Y-107600000D01*
X111500000Y-117280000D02*
X107350000Y-117280000D01*
X111500000Y-116800000D02*
X112625000Y-116800000D01*
D16*
%TO.C,U6*%
X109779800Y-102101400D02*
X109170200Y-102101400D01*
X107976400Y-105098600D02*
X110973600Y-105098600D01*
X110973600Y-102101400D02*
X109779800Y-102101400D01*
X109170200Y-102101400D02*
X107976400Y-102101400D01*
X109170200Y-102101400D02*
G75*
G03*
X109779800Y-102101400I304800J0D01*
G01*
%TO.C,kibuzzard-6252E6F0*%
G36*
X119674194Y-86171224D02*
G01*
X119691930Y-86051655D01*
X119721301Y-85934401D01*
X119762023Y-85820590D01*
X119813705Y-85711318D01*
X119875848Y-85607639D01*
X119947854Y-85510550D01*
X120029030Y-85420986D01*
X120118594Y-85339810D01*
X120215684Y-85267803D01*
X120319363Y-85205660D01*
X120428635Y-85153979D01*
X120542446Y-85113256D01*
X120659700Y-85083886D01*
X120779269Y-85066149D01*
X120900000Y-85060218D01*
X121020731Y-85066149D01*
X121140300Y-85083886D01*
X121257554Y-85113256D01*
X121371365Y-85153979D01*
X121480637Y-85205660D01*
X121584316Y-85267803D01*
X121681406Y-85339810D01*
X121770970Y-85420986D01*
X121852146Y-85510550D01*
X121924152Y-85607639D01*
X121986295Y-85711318D01*
X122037977Y-85820590D01*
X122078699Y-85934401D01*
X122108070Y-86051655D01*
X122125806Y-86171224D01*
X122131737Y-86291955D01*
X122131737Y-92908044D01*
X122125806Y-93028776D01*
X122108070Y-93148345D01*
X122078699Y-93265599D01*
X122037977Y-93379410D01*
X121986295Y-93488681D01*
X121924152Y-93592361D01*
X121852146Y-93689450D01*
X121770970Y-93779014D01*
X121681406Y-93860190D01*
X121584317Y-93932197D01*
X121480637Y-93994340D01*
X121371365Y-94046021D01*
X121257554Y-94086743D01*
X121140300Y-94116114D01*
X121020731Y-94133851D01*
X120900000Y-94139782D01*
X120779269Y-94133851D01*
X120659700Y-94116114D01*
X120542446Y-94086743D01*
X120428635Y-94046021D01*
X120319363Y-93994340D01*
X120215683Y-93932197D01*
X120118594Y-93860190D01*
X120029030Y-93779014D01*
X119947854Y-93689450D01*
X119875848Y-93592361D01*
X119813705Y-93488681D01*
X119762023Y-93379410D01*
X119721301Y-93265599D01*
X119691930Y-93148345D01*
X119674194Y-93028776D01*
X119668263Y-92908044D01*
X119668263Y-92795597D01*
X119941598Y-92795597D01*
X121217622Y-92795597D01*
X121409995Y-92775875D01*
X121577455Y-92716710D01*
X121715507Y-92617929D01*
X121819651Y-92479358D01*
X121885044Y-92300653D01*
X121906841Y-92081466D01*
X121884179Y-91863317D01*
X121816191Y-91684957D01*
X121709279Y-91546214D01*
X121569844Y-91446914D01*
X121403940Y-91387230D01*
X121217622Y-91367335D01*
X119941598Y-91367335D01*
X119941598Y-91822663D01*
X121048777Y-91822663D01*
X121275576Y-91834426D01*
X121438366Y-91869718D01*
X121536455Y-91946182D01*
X121569152Y-92081466D01*
X121536455Y-92216749D01*
X121438366Y-92293214D01*
X121275576Y-92328505D01*
X121048777Y-92340269D01*
X119941598Y-92340269D01*
X119941598Y-92795597D01*
X119668263Y-92795597D01*
X119668263Y-90397169D01*
X119893159Y-90397169D01*
X119909593Y-90586774D01*
X119958897Y-90759770D01*
X120039341Y-90907683D01*
X120149194Y-91022033D01*
X120286553Y-91095211D01*
X120449516Y-91119604D01*
X120648290Y-91084139D01*
X120807274Y-90977746D01*
X120895925Y-90861569D01*
X120976426Y-90702182D01*
X121048777Y-90499583D01*
X121109326Y-90330565D01*
X121169183Y-90224864D01*
X121333876Y-90150822D01*
X121507565Y-90239396D01*
X121553755Y-90341464D01*
X121569152Y-90470520D01*
X121556523Y-90617913D01*
X121518637Y-90752850D01*
X121457569Y-90876024D01*
X121375395Y-90988126D01*
X121630046Y-91217866D01*
X121738169Y-91081717D01*
X121827263Y-90914083D01*
X121871473Y-90782068D01*
X121897999Y-90630522D01*
X121906841Y-90459448D01*
X121887466Y-90232130D01*
X121829339Y-90040104D01*
X121736958Y-89885963D01*
X121614823Y-89772305D01*
X121467429Y-89702241D01*
X121299277Y-89678886D01*
X121137352Y-89696013D01*
X121005874Y-89747393D01*
X120899481Y-89831124D01*
X120812810Y-89945301D01*
X120741362Y-90087678D01*
X120680640Y-90256004D01*
X120635142Y-90391633D01*
X120595526Y-90494047D01*
X120517331Y-90614453D01*
X120414917Y-90649052D01*
X120274444Y-90570166D01*
X120226696Y-90361186D01*
X120236557Y-90245970D01*
X120266140Y-90132830D01*
X120316136Y-90024534D01*
X120387237Y-89923850D01*
X120140890Y-89709334D01*
X120035535Y-89845309D01*
X119957513Y-90004120D01*
X119909247Y-90187497D01*
X119893159Y-90397169D01*
X119668263Y-90397169D01*
X119668263Y-89435307D01*
X119941598Y-89435307D01*
X121859786Y-89435307D01*
X121859786Y-88798679D01*
X121853212Y-88645922D01*
X121833491Y-88500432D01*
X121798199Y-88366360D01*
X121744916Y-88247857D01*
X121670874Y-88148903D01*
X121573304Y-88073476D01*
X121449784Y-88025729D01*
X121297893Y-88009813D01*
X121159149Y-88026248D01*
X121050161Y-88075552D01*
X120967642Y-88149941D01*
X120908304Y-88241629D01*
X120843949Y-88444381D01*
X120791358Y-88312212D01*
X120705552Y-88198034D01*
X120585838Y-88119147D01*
X120431525Y-88092852D01*
X120264583Y-88118282D01*
X120137430Y-88194574D01*
X120045915Y-88312558D01*
X119985885Y-88463065D01*
X119952670Y-88637619D01*
X119941598Y-88827742D01*
X119941598Y-89435307D01*
X119668263Y-89435307D01*
X119668263Y-87150365D01*
X119941598Y-87150365D01*
X120318039Y-87769002D01*
X120618361Y-87583549D01*
X120372014Y-87189116D01*
X121529016Y-87189116D01*
X121529016Y-87651364D01*
X121859786Y-87651364D01*
X121859786Y-86404403D01*
X121529016Y-86404403D01*
X121529016Y-86762852D01*
X119941598Y-86762852D01*
X119941598Y-87150365D01*
X119668263Y-87150365D01*
X119668263Y-86291955D01*
X119674194Y-86171224D01*
G37*
G36*
X120652961Y-88615302D02*
G01*
X120693442Y-88701281D01*
X120706936Y-88827742D01*
X120706936Y-88981363D01*
X120262680Y-88981363D01*
X120262680Y-88841582D01*
X120275309Y-88711661D01*
X120313195Y-88620838D01*
X120477196Y-88549563D01*
X120652961Y-88615302D01*
G37*
G36*
X121437674Y-88524652D02*
G01*
X121510333Y-88648517D01*
X121529016Y-88813902D01*
X121529016Y-88981363D01*
X121011410Y-88981363D01*
X121011410Y-88794527D01*
X121025942Y-88664952D01*
X121069537Y-88564095D01*
X121151191Y-88499221D01*
X121279901Y-88477597D01*
X121437674Y-88524652D01*
G37*
D14*
%TO.C,J8*%
X131843250Y-69625000D02*
X128943250Y-69625000D01*
X136693250Y-69625000D02*
X134343250Y-69625000D01*
X134243250Y-53425000D02*
X136693250Y-53425000D01*
X136693250Y-69625000D02*
X136693250Y-53425000D01*
X129043250Y-53425000D02*
X131843250Y-53425000D01*
X125143250Y-68225000D02*
X125143250Y-66725000D01*
X125143250Y-55925000D02*
X125143250Y-54825000D01*
D15*
X124743250Y-56225000D02*
G75*
G03*
X124743250Y-56225000I-100000J0D01*
G01*
D12*
%TO.C,J2*%
X140327500Y-37360000D02*
X137267500Y-37360000D01*
X140337500Y-37210000D02*
X140327500Y-37360000D01*
X137267500Y-27140000D02*
X140327500Y-27140000D01*
X140337500Y-37210000D02*
X140337500Y-27290000D01*
X122077500Y-37360000D02*
X116017500Y-37360000D01*
X116017500Y-29950000D02*
X116017500Y-27140000D01*
X116017500Y-27140000D02*
X122077500Y-27140000D01*
X140327500Y-27140000D02*
X140337500Y-27290000D01*
X114827500Y-33250000D02*
X114827500Y-31250000D01*
X116017500Y-37360000D02*
X116017500Y-34550000D01*
%TO.C,C16*%
X105285000Y-110307836D02*
X105285000Y-110092164D01*
X104565000Y-110307836D02*
X104565000Y-110092164D01*
%TO.C,kibuzzard-6252E8F1*%
G36*
X65353491Y-21300000D02*
G01*
X65476692Y-21115199D01*
X65641285Y-21115199D01*
X65746711Y-21115199D01*
X65746711Y-21582087D01*
X65860686Y-21582087D01*
X66042638Y-21471369D01*
X65988093Y-21383038D01*
X65872083Y-21455494D01*
X65872083Y-21115199D01*
X66008038Y-21115199D01*
X66008038Y-21017913D01*
X65641285Y-21017913D01*
X65641285Y-21115199D01*
X65476692Y-21115199D01*
X65585646Y-20951768D01*
X66098276Y-20951768D01*
X66132409Y-20953444D01*
X66166213Y-20958459D01*
X66199363Y-20966762D01*
X66231539Y-20978275D01*
X66262432Y-20992886D01*
X66291744Y-21010455D01*
X66319193Y-21030813D01*
X66344514Y-21053763D01*
X66367464Y-21079084D01*
X66387821Y-21106532D01*
X66405390Y-21135844D01*
X66420001Y-21166737D01*
X66431514Y-21198913D01*
X66439818Y-21232063D01*
X66444832Y-21265867D01*
X66446509Y-21300000D01*
X66444832Y-21334133D01*
X66439818Y-21367937D01*
X66431514Y-21401087D01*
X66420001Y-21433263D01*
X66405390Y-21464156D01*
X66387821Y-21493468D01*
X66367464Y-21520916D01*
X66344514Y-21546237D01*
X66319193Y-21569187D01*
X66291744Y-21589545D01*
X66262432Y-21607114D01*
X66231539Y-21621725D01*
X66199363Y-21633238D01*
X66166213Y-21641541D01*
X66132409Y-21646556D01*
X66098276Y-21648232D01*
X65585646Y-21648232D01*
X65353491Y-21300000D01*
G37*
%TO.C,J5*%
X131960000Y-77510000D02*
X131960000Y-77960000D01*
X132410000Y-77960000D02*
X131960000Y-77960000D01*
X136590000Y-72440000D02*
X136990000Y-72440000D01*
X136990000Y-79960000D02*
X136590000Y-79960000D01*
X132640000Y-79960000D02*
X132640000Y-79540000D01*
X134620000Y-72440000D02*
X132640000Y-72440000D01*
X132640000Y-72440000D02*
X132640000Y-72860000D01*
X134620000Y-79960000D02*
X132640000Y-79960000D01*
%TO.C,J10*%
X88630000Y-113170000D02*
X88630000Y-114500000D01*
X87300000Y-113170000D02*
X88630000Y-113170000D01*
X86030000Y-113170000D02*
X37710000Y-113170000D01*
X88630000Y-118370000D02*
X37710000Y-118370000D01*
X86030000Y-113170000D02*
X86030000Y-115770000D01*
X37710000Y-113170000D02*
X37710000Y-118370000D01*
X86030000Y-115770000D02*
X88630000Y-115770000D01*
X88630000Y-115770000D02*
X88630000Y-118370000D01*
%TO.C,C26*%
X114634165Y-74027500D02*
X114865835Y-74027500D01*
X114634165Y-73307500D02*
X114865835Y-73307500D01*
%TO.C,U5*%
X109150000Y-135340000D02*
X107350000Y-135340000D01*
X109150000Y-138460000D02*
X108350000Y-138460000D01*
X109150000Y-135340000D02*
X109950000Y-135340000D01*
X109150000Y-138460000D02*
X109950000Y-138460000D01*
%TO.C,C6*%
X104010000Y-33222164D02*
X104010000Y-33437836D01*
X103290000Y-33222164D02*
X103290000Y-33437836D01*
%TO.C,TP5*%
X107550000Y-47300000D02*
G75*
G03*
X107550000Y-47300000I-1450000J0D01*
G01*
%TO.C,kibuzzard-6252E6B2*%
G36*
X129911902Y-76684037D02*
G01*
X130082823Y-76706873D01*
X130212071Y-76744932D01*
X130334033Y-76837831D01*
X130374687Y-76979515D01*
X130334552Y-77116875D01*
X130214146Y-77210639D01*
X130085591Y-77250621D01*
X129913978Y-77274610D01*
X129699308Y-77282606D01*
X129485330Y-77274763D01*
X129313948Y-77251236D01*
X129185162Y-77212023D01*
X129064237Y-77118605D01*
X129023929Y-76979515D01*
X129064064Y-76840426D01*
X129184470Y-76747008D01*
X129313025Y-76707795D01*
X129484638Y-76684268D01*
X129699308Y-76676425D01*
X129911902Y-76684037D01*
G37*
G36*
X130925806Y-79559915D02*
G01*
X130908070Y-79679484D01*
X130878699Y-79796738D01*
X130837977Y-79910549D01*
X130786295Y-80019821D01*
X130724152Y-80123500D01*
X130652146Y-80220590D01*
X130570970Y-80310154D01*
X130481406Y-80391330D01*
X130384317Y-80463336D01*
X130280637Y-80525479D01*
X130171365Y-80577161D01*
X130057554Y-80617883D01*
X129940300Y-80647254D01*
X129820731Y-80664990D01*
X129700000Y-80670921D01*
X129579269Y-80664990D01*
X129459700Y-80647254D01*
X129342446Y-80617883D01*
X129228635Y-80577161D01*
X129119363Y-80525479D01*
X129015683Y-80463336D01*
X128918594Y-80391330D01*
X128829030Y-80310154D01*
X128747854Y-80220590D01*
X128675848Y-80123500D01*
X128613705Y-80019821D01*
X128562023Y-79910549D01*
X128521301Y-79796738D01*
X128491930Y-79679484D01*
X128474194Y-79559915D01*
X128468263Y-79439184D01*
X128468263Y-78407777D01*
X128741598Y-78407777D01*
X129477872Y-78407777D01*
X129477872Y-78872792D01*
X128741598Y-78872792D01*
X128741598Y-79326736D01*
X130659786Y-79326736D01*
X130659786Y-78872792D01*
X129851545Y-78872792D01*
X129851545Y-78407777D01*
X130659786Y-78407777D01*
X130659786Y-77953833D01*
X128741598Y-77953833D01*
X128741598Y-78407777D01*
X128468263Y-78407777D01*
X128468263Y-76979515D01*
X128693159Y-76979515D01*
X128707075Y-77137750D01*
X128748825Y-77278454D01*
X128818408Y-77401628D01*
X128913057Y-77506656D01*
X129030003Y-77592924D01*
X129169246Y-77660431D01*
X129328403Y-77708870D01*
X129505090Y-77737933D01*
X129699308Y-77747621D01*
X129897370Y-77737933D01*
X130076364Y-77708870D01*
X130236290Y-77660431D01*
X130375226Y-77592924D01*
X130491249Y-77506656D01*
X130584360Y-77401628D01*
X130652405Y-77278454D01*
X130693232Y-77137750D01*
X130706841Y-76979515D01*
X130692925Y-76820589D01*
X130651175Y-76679654D01*
X130581592Y-76556711D01*
X130486866Y-76452067D01*
X130369690Y-76366030D01*
X130230062Y-76298600D01*
X130070521Y-76250161D01*
X129893603Y-76221098D01*
X129699308Y-76211410D01*
X129501246Y-76221098D01*
X129322252Y-76250161D01*
X129162326Y-76298600D01*
X129023467Y-76366030D01*
X128907675Y-76452067D01*
X128814948Y-76556711D01*
X128747287Y-76679654D01*
X128706691Y-76820589D01*
X128693159Y-76979515D01*
X128468263Y-76979515D01*
X128468263Y-75295219D01*
X128693159Y-75295219D01*
X128709593Y-75484823D01*
X128758897Y-75657820D01*
X128839341Y-75805732D01*
X128949194Y-75920083D01*
X129086553Y-75993261D01*
X129249516Y-76017653D01*
X129448290Y-75982189D01*
X129607274Y-75875796D01*
X129695925Y-75759619D01*
X129776426Y-75600231D01*
X129848777Y-75397633D01*
X129909326Y-75228615D01*
X129969183Y-75122914D01*
X130133876Y-75048871D01*
X130307565Y-75137446D01*
X130353755Y-75239514D01*
X130369152Y-75368569D01*
X130356523Y-75515963D01*
X130318637Y-75650900D01*
X130257569Y-75774074D01*
X130175395Y-75886176D01*
X130430046Y-76115915D01*
X130538169Y-75979767D01*
X130627263Y-75812133D01*
X130671473Y-75680117D01*
X130697999Y-75528572D01*
X130706841Y-75357498D01*
X130687466Y-75130180D01*
X130629339Y-74938153D01*
X130536958Y-74784013D01*
X130414823Y-74670354D01*
X130267429Y-74600291D01*
X130099277Y-74576936D01*
X129937352Y-74594063D01*
X129805874Y-74645443D01*
X129699481Y-74729173D01*
X129612810Y-74843351D01*
X129541362Y-74985727D01*
X129480640Y-75154053D01*
X129435142Y-75289683D01*
X129395526Y-75392097D01*
X129317331Y-75512503D01*
X129214917Y-75547102D01*
X129074444Y-75468215D01*
X129026696Y-75259235D01*
X129036557Y-75144019D01*
X129066140Y-75030880D01*
X129116136Y-74922584D01*
X129187237Y-74821899D01*
X128940890Y-74607383D01*
X128835535Y-74743359D01*
X128757513Y-74902170D01*
X128709247Y-75085547D01*
X128693159Y-75295219D01*
X128468263Y-75295219D01*
X128468263Y-74426083D01*
X128741598Y-74426083D01*
X129088975Y-74426083D01*
X129088975Y-73887717D01*
X130659786Y-73887717D01*
X130659786Y-73433773D01*
X129088975Y-73433773D01*
X129088975Y-72920319D01*
X128741598Y-72873264D01*
X128741598Y-74426083D01*
X128468263Y-74426083D01*
X128468263Y-72760816D01*
X128474194Y-72640084D01*
X128491930Y-72520516D01*
X128521301Y-72403261D01*
X128562023Y-72289450D01*
X128613705Y-72180179D01*
X128675848Y-72076499D01*
X128747854Y-71979410D01*
X128829030Y-71889846D01*
X128918594Y-71808670D01*
X129015684Y-71736664D01*
X129119363Y-71674521D01*
X129228635Y-71622839D01*
X129342446Y-71582117D01*
X129459700Y-71552746D01*
X129579269Y-71535010D01*
X129700000Y-71529079D01*
X129820731Y-71535010D01*
X129940300Y-71552746D01*
X130057554Y-71582117D01*
X130171365Y-71622839D01*
X130280637Y-71674521D01*
X130384316Y-71736664D01*
X130481406Y-71808670D01*
X130570970Y-71889846D01*
X130652146Y-71979410D01*
X130724152Y-72076499D01*
X130786295Y-72180179D01*
X130837977Y-72289450D01*
X130878699Y-72403261D01*
X130908070Y-72520516D01*
X130925806Y-72640084D01*
X130931737Y-72760816D01*
X130931737Y-79439184D01*
X130925806Y-79559915D01*
G37*
%TO.C,kibuzzard-6252E74F*%
G36*
X120652961Y-148418762D02*
G01*
X120693442Y-148504741D01*
X120706936Y-148631202D01*
X120706936Y-148784823D01*
X120262680Y-148784823D01*
X120262680Y-148645042D01*
X120275309Y-148515121D01*
X120313195Y-148424298D01*
X120477196Y-148353023D01*
X120652961Y-148418762D01*
G37*
G36*
X121437674Y-148328112D02*
G01*
X121510333Y-148451977D01*
X121529016Y-148617362D01*
X121529016Y-148784823D01*
X121011410Y-148784823D01*
X121011410Y-148597987D01*
X121025942Y-148468412D01*
X121069537Y-148367555D01*
X121151191Y-148302681D01*
X121279901Y-148281057D01*
X121437674Y-148328112D01*
G37*
G36*
X119674194Y-145967764D02*
G01*
X119691930Y-145848195D01*
X119721301Y-145730941D01*
X119762023Y-145617130D01*
X119813705Y-145507858D01*
X119875848Y-145404179D01*
X119947854Y-145307090D01*
X120029030Y-145217526D01*
X120118594Y-145136350D01*
X120215684Y-145064343D01*
X120319363Y-145002200D01*
X120428635Y-144950519D01*
X120542446Y-144909797D01*
X120659700Y-144880426D01*
X120779269Y-144862690D01*
X120900000Y-144856758D01*
X121020731Y-144862690D01*
X121140300Y-144880426D01*
X121257554Y-144909797D01*
X121371365Y-144950519D01*
X121480637Y-145002200D01*
X121584316Y-145064343D01*
X121681406Y-145136350D01*
X121770970Y-145217526D01*
X121852146Y-145307090D01*
X121924152Y-145404179D01*
X121986295Y-145507858D01*
X122037977Y-145617130D01*
X122078699Y-145730941D01*
X122108070Y-145848195D01*
X122125806Y-145967764D01*
X122131737Y-146088495D01*
X122131737Y-152711504D01*
X122125806Y-152832236D01*
X122108070Y-152951804D01*
X122078699Y-153069059D01*
X122037977Y-153182870D01*
X121986295Y-153292141D01*
X121924152Y-153395821D01*
X121852146Y-153492910D01*
X121770970Y-153582474D01*
X121681406Y-153663650D01*
X121584317Y-153735656D01*
X121480637Y-153797800D01*
X121371365Y-153849481D01*
X121257554Y-153890203D01*
X121140300Y-153919574D01*
X121020731Y-153937310D01*
X120900000Y-153943242D01*
X120779269Y-153937310D01*
X120659700Y-153919574D01*
X120542446Y-153890203D01*
X120428635Y-153849481D01*
X120319363Y-153797800D01*
X120215683Y-153735656D01*
X120118594Y-153663650D01*
X120029030Y-153582474D01*
X119947854Y-153492910D01*
X119875848Y-153395821D01*
X119813705Y-153292141D01*
X119762023Y-153182870D01*
X119721301Y-153069059D01*
X119691930Y-152951804D01*
X119674194Y-152832236D01*
X119668263Y-152711504D01*
X119668263Y-152599057D01*
X119941598Y-152599057D01*
X121217622Y-152599057D01*
X121409995Y-152579335D01*
X121577455Y-152520170D01*
X121715507Y-152421389D01*
X121819651Y-152282818D01*
X121885044Y-152104113D01*
X121906841Y-151884926D01*
X121884179Y-151666777D01*
X121816191Y-151488417D01*
X121709279Y-151349674D01*
X121569844Y-151250374D01*
X121403940Y-151190690D01*
X121217622Y-151170795D01*
X119941598Y-151170795D01*
X119941598Y-151626123D01*
X121048777Y-151626123D01*
X121275576Y-151637886D01*
X121438366Y-151673178D01*
X121536455Y-151749642D01*
X121569152Y-151884926D01*
X121536455Y-152020209D01*
X121438366Y-152096674D01*
X121275576Y-152131965D01*
X121048777Y-152143729D01*
X119941598Y-152143729D01*
X119941598Y-152599057D01*
X119668263Y-152599057D01*
X119668263Y-150200629D01*
X119893159Y-150200629D01*
X119909593Y-150390233D01*
X119958897Y-150563230D01*
X120039341Y-150711142D01*
X120149194Y-150825493D01*
X120286553Y-150898671D01*
X120449516Y-150923064D01*
X120648290Y-150887599D01*
X120807274Y-150781206D01*
X120895925Y-150665029D01*
X120976426Y-150505642D01*
X121048777Y-150303043D01*
X121109326Y-150134025D01*
X121169183Y-150028324D01*
X121333876Y-149954282D01*
X121507565Y-150042856D01*
X121553755Y-150144924D01*
X121569152Y-150273980D01*
X121556523Y-150421373D01*
X121518637Y-150556310D01*
X121457569Y-150679484D01*
X121375395Y-150791586D01*
X121630046Y-151021326D01*
X121738169Y-150885177D01*
X121827263Y-150717543D01*
X121871473Y-150585528D01*
X121897999Y-150433982D01*
X121906841Y-150262908D01*
X121887466Y-150035590D01*
X121829339Y-149843564D01*
X121736958Y-149689423D01*
X121614823Y-149575765D01*
X121467429Y-149505701D01*
X121299277Y-149482346D01*
X121137352Y-149499473D01*
X121005874Y-149550853D01*
X120899481Y-149634583D01*
X120812810Y-149748761D01*
X120741362Y-149891138D01*
X120680640Y-150059464D01*
X120635142Y-150195093D01*
X120595526Y-150297507D01*
X120517331Y-150417913D01*
X120414917Y-150452512D01*
X120274444Y-150373626D01*
X120226696Y-150164646D01*
X120236557Y-150049430D01*
X120266140Y-149936290D01*
X120316136Y-149827994D01*
X120387237Y-149727310D01*
X120140890Y-149512794D01*
X120035535Y-149648769D01*
X119957513Y-149807580D01*
X119909247Y-149990957D01*
X119893159Y-150200629D01*
X119668263Y-150200629D01*
X119668263Y-149238767D01*
X119941598Y-149238767D01*
X121859786Y-149238767D01*
X121859786Y-148602139D01*
X121853212Y-148449382D01*
X121833491Y-148303892D01*
X121798199Y-148169820D01*
X121744916Y-148051317D01*
X121670874Y-147952363D01*
X121573304Y-147876936D01*
X121449784Y-147829189D01*
X121297893Y-147813273D01*
X121159149Y-147829708D01*
X121050161Y-147879012D01*
X120967642Y-147953401D01*
X120908304Y-148045089D01*
X120843949Y-148247841D01*
X120791358Y-148115672D01*
X120705552Y-148001494D01*
X120585838Y-147922607D01*
X120431525Y-147896312D01*
X120264583Y-147921742D01*
X120137430Y-147998034D01*
X120045915Y-148116018D01*
X119985885Y-148266525D01*
X119952670Y-148441079D01*
X119941598Y-148631202D01*
X119941598Y-149238767D01*
X119668263Y-149238767D01*
X119668263Y-147076999D01*
X119893159Y-147076999D01*
X121166415Y-147609829D01*
X121457050Y-147609829D01*
X121457050Y-146815428D01*
X121859786Y-146812660D01*
X121859786Y-146393315D01*
X121457050Y-146393315D01*
X121457050Y-146200943D01*
X121129048Y-146200943D01*
X121129048Y-146393315D01*
X120666800Y-146393315D01*
X120666800Y-146762837D01*
X121129048Y-146814044D01*
X121129048Y-147158653D01*
X120030172Y-146704710D01*
X119893159Y-147076999D01*
X119668263Y-147076999D01*
X119668263Y-146088495D01*
X119674194Y-145967764D01*
G37*
%TO.C,C2*%
X104540000Y-33222164D02*
X104540000Y-33437836D01*
X105260000Y-33222164D02*
X105260000Y-33437836D01*
%TO.C,C20*%
X114052836Y-109260000D02*
X113837164Y-109260000D01*
X114052836Y-108540000D02*
X113837164Y-108540000D01*
%TO.C,R15*%
X113791359Y-106320000D02*
X114098641Y-106320000D01*
X113791359Y-107080000D02*
X114098641Y-107080000D01*
%TO.C,R4*%
X90520000Y-30656359D02*
X90520000Y-30963641D01*
X91280000Y-30656359D02*
X91280000Y-30963641D01*
%TO.C,C9*%
X100040000Y-40902164D02*
X100040000Y-41117836D01*
X100760000Y-40902164D02*
X100760000Y-41117836D01*
%TO.C,kibuzzard-6252E8F1*%
G36*
X111146509Y-116300000D02*
G01*
X110914354Y-116648232D01*
X110401724Y-116648232D01*
X110367591Y-116646556D01*
X110333787Y-116641541D01*
X110300637Y-116633238D01*
X110268461Y-116621725D01*
X110237568Y-116607114D01*
X110208256Y-116589545D01*
X110180807Y-116569187D01*
X110155486Y-116546237D01*
X110132536Y-116520916D01*
X110112179Y-116493468D01*
X110094610Y-116464156D01*
X110079999Y-116433263D01*
X110068486Y-116401087D01*
X110060182Y-116367937D01*
X110055168Y-116334133D01*
X110053491Y-116300000D01*
X110055168Y-116265867D01*
X110060182Y-116232063D01*
X110068486Y-116198913D01*
X110079999Y-116166737D01*
X110094610Y-116135844D01*
X110098933Y-116128631D01*
X110457362Y-116128631D01*
X110511907Y-116216962D01*
X110627917Y-116144506D01*
X110627917Y-116484801D01*
X110491962Y-116484801D01*
X110491962Y-116582087D01*
X110858715Y-116582087D01*
X110858715Y-116484801D01*
X110753289Y-116484801D01*
X110753289Y-116017913D01*
X110639314Y-116017913D01*
X110457362Y-116128631D01*
X110098933Y-116128631D01*
X110112179Y-116106532D01*
X110132536Y-116079084D01*
X110155486Y-116053763D01*
X110180807Y-116030813D01*
X110208256Y-116010455D01*
X110237568Y-115992886D01*
X110268461Y-115978275D01*
X110300637Y-115966762D01*
X110333787Y-115958459D01*
X110367591Y-115953444D01*
X110401724Y-115951768D01*
X110914354Y-115951768D01*
X111146509Y-116300000D01*
G37*
%TO.C,R1*%
X110046359Y-36480000D02*
X110353641Y-36480000D01*
X110046359Y-35720000D02*
X110353641Y-35720000D01*
%TO.C,U9*%
X38000000Y-70560000D02*
X39800000Y-70560000D01*
X38000000Y-67440000D02*
X37200000Y-67440000D01*
X38000000Y-67440000D02*
X38800000Y-67440000D01*
X38000000Y-70560000D02*
X37200000Y-70560000D01*
%TO.C,JP2*%
X96500000Y-97350000D02*
X97900000Y-97350000D01*
X98600000Y-98050000D02*
X98600000Y-98650000D01*
X97900000Y-99350000D02*
X96500000Y-99350000D01*
X95800000Y-98650000D02*
X95800000Y-98050000D01*
X95800000Y-98650000D02*
G75*
G03*
X96500000Y-99350000I699999J-1D01*
G01*
X96500000Y-97350000D02*
G75*
G03*
X95800000Y-98050000I-1J-699999D01*
G01*
X98600000Y-98050000D02*
G75*
G03*
X97900000Y-97350000I-699999J1D01*
G01*
X97900000Y-99350000D02*
G75*
G03*
X98600000Y-98650000I1J699999D01*
G01*
%TO.C,D2*%
X88400000Y-35460000D02*
X96800000Y-35460000D01*
X88400000Y-41960000D02*
X88400000Y-35460000D01*
X88400000Y-41960000D02*
X96800000Y-41960000D01*
D13*
%TO.C,D3*%
X114560000Y-46200000D02*
G75*
G03*
X114560000Y-46200000I-50000J0D01*
G01*
%TD*%
M02*
