M48
; DRILL file {KiCad (6.0.0-0)} date Wednesday, June 22, 2022 at 07:40:45 am
; FORMAT={-:-/ absolute / inch / decimal}
; #@! TF.CreationDate,2022-06-22T07:40:45-04:00
; #@! TF.GenerationSoftware,Kicad,Pcbnew,(6.0.0-0)
; #@! TF.FileFunction,Plated,1,4,PTH
FMAT,2
INCH
; #@! TA.AperFunction,Plated,PTH,ComponentDrill
T1C0.0118
; #@! TA.AperFunction,Plated,PTH,ComponentDrill
T2C0.0138
; #@! TA.AperFunction,Plated,PTH,ViaDrill
T3C0.0157
; #@! TA.AperFunction,Plated,PTH,ComponentDrill
T4C0.0197
; #@! TA.AperFunction,Plated,PTH,ComponentDrill
T5C0.0217
; #@! TA.AperFunction,Plated,PTH,ComponentDrill
T6C0.0394
%
G90
G05
T1
X9.7894Y-2.0669
X9.7894Y-2.1181
X9.7894Y-2.1693
X9.7894Y-2.2205
X9.8406Y-2.0669
X9.8406Y-2.1181
X9.8406Y-2.1693
X9.8406Y-2.2205
T2
X9.8917Y-2.7549
X9.8917Y-2.8051
X9.8917Y-2.8553
X9.9419Y-2.7549
X9.9419Y-2.8051
X9.9419Y-2.8553
X9.9921Y-2.7549
X9.9921Y-2.8051
X9.9921Y-2.8553
T3
X9.4518Y-2.7589
X9.4693Y-3.0102
X9.4693Y-3.3476
X9.4746Y-2.2833
X9.4764Y-2.0408
X9.4862Y-1.8465
X9.4862Y-1.8898
X9.4882Y-1.6752
X9.4882Y-1.7185
X9.4965Y-2.7972
X9.5135Y-2.8649
X9.5276Y-1.8465
X9.5276Y-1.8898
X9.5295Y-1.6752
X9.5295Y-1.7185
X9.5463Y-3.3031
X9.56Y-2.0428
X9.5604Y-2.286
X9.5689Y-1.8465
X9.5689Y-1.8898
X9.5709Y-1.6752
X9.5709Y-1.7185
X9.6161Y-2.1358
X9.622Y-1.9567
X9.624Y-3.1526
X9.6447Y-2.378
X9.6757Y-2.8238
X9.689Y-2.3337
X9.7018Y-2.5935
X9.7421Y-2.598
X9.749Y-1.6624
X9.751Y-2.3356
X9.7667Y-3.0522
X9.7675Y-3.0121
X9.7697Y-1.4183
X9.7697Y-1.4596
X9.7697Y-1.501
X9.7835Y-3.0878
X9.7953Y-2.9843
X9.8063Y-3.0553
X9.8121Y-3.1153
X9.813Y-1.4183
X9.813Y-1.4596
X9.813Y-1.501
X9.8474Y-2.7106
X9.8622Y-2.4154
X9.8809Y-1.5758
X9.9232Y-1.4183
X9.9232Y-1.4596
X9.9232Y-1.501
X9.9341Y-1.938
X9.938Y-2.6181
X9.9665Y-1.4183
X9.9665Y-1.4596
X9.9665Y-1.501
X9.977Y-3.1191
X9.9773Y-2.6181
X9.9811Y-3.0365
X9.9931Y-2.999
X9.9941Y-2.248
X9.9968Y-2.7141
X10.0098Y-2.0541
X10.0354Y-2.7972
X10.0362Y-2.7134
X10.0528Y-2.4249
X10.066Y-2.9738
X10.0728Y-1.4183
X10.0728Y-1.4596
X10.0728Y-1.501
X10.0817Y-2.6654
X10.0827Y-3.189
X10.1102Y-3.2205
X10.1161Y-1.4183
X10.1161Y-1.4596
X10.1161Y-1.501
X10.1171Y-2.0384
X10.1187Y-2.6519
X10.1305Y-2.4249
X10.1311Y-2.7855
X10.1402Y-2.7472
X10.143Y-2.866
X10.1444Y-2.7081
X10.1463Y-3.2411
X10.1531Y-2.302
X10.1574Y-2.9449
X10.1574Y-2.9026
X10.1821Y-1.8937
X10.186Y-2.9882
X10.187Y-2.8602
X10.1929Y-2.5827
X10.2136Y-3.2913
X10.2264Y-1.4183
X10.2264Y-1.4596
X10.2264Y-1.501
X10.2589Y-2.3593
X10.2697Y-1.4183
X10.2697Y-1.4596
X10.2697Y-1.501
X10.2963Y-2.0394
X10.31Y-2.3593
X10.3116Y-3.0089
X10.3195Y-3.2303
X10.3209Y-2.2362
X10.3504Y-2.4301
T6
X9.5758Y-3.4945
X9.5758Y-3.5945
X9.5766Y-3.3937
X9.6758Y-3.4945
X9.6758Y-3.5945
X9.6766Y-3.3937
X9.7758Y-3.4945
X9.7758Y-3.5945
X9.7766Y-3.3937
X9.8701Y-3.7228
X9.8701Y-3.8228
X9.8758Y-3.4945
X9.8758Y-3.5945
X9.8766Y-3.3937
X9.9701Y-3.7228
X9.9701Y-3.8228
X9.9758Y-3.4945
X9.9758Y-3.5945
X9.9766Y-3.3937
X10.0701Y-3.7228
X10.0701Y-3.8228
X10.0758Y-3.4945
X10.0758Y-3.5945
X10.0766Y-3.3937
X10.1701Y-3.7228
X10.1701Y-3.8228
X10.1758Y-3.4945
X10.1758Y-3.5945
X10.1766Y-3.3937
X10.2758Y-3.4945
X10.2758Y-3.5945
X10.2766Y-3.3937
X10.4226Y-1.6915
X10.4226Y-1.7915
X10.4226Y-1.8915
X10.4226Y-1.9915
X10.4226Y-2.0915
X10.4226Y-2.1915
X10.4226Y-2.2915
X10.4226Y-2.3915
X10.4226Y-2.4915
X10.4226Y-2.5915
X10.4226Y-2.6915
X10.4226Y-2.7915
X10.4226Y-2.8915
X10.4226Y-2.9915
X10.4226Y-3.0915
X10.4226Y-3.1915
X10.4226Y-3.2915
X10.4226Y-3.3915
X10.4226Y-3.4915
X10.4226Y-3.5915
X10.5226Y-1.6915
X10.5226Y-1.7915
X10.5226Y-1.8915
X10.5226Y-1.9915
X10.5226Y-2.0915
X10.5226Y-2.1915
X10.5226Y-2.2915
X10.5226Y-2.3915
X10.5226Y-2.4915
X10.5226Y-2.5915
X10.5226Y-2.6915
X10.5226Y-2.7915
X10.5226Y-2.8915
X10.5226Y-2.9915
X10.5226Y-3.0915
X10.5226Y-3.1915
X10.5226Y-3.2915
X10.5226Y-3.3915
X10.5226Y-3.4915
X10.5226Y-3.5915
T4
G00X9.499Y-2.438
M15
G01X9.4734Y-2.438
M16
G05
G00X9.499Y-2.7136
M15
G01X9.4734Y-2.7136
M16
G05
T5
G00X9.5925Y-2.4715
M15
G01X9.5925Y-2.4833
M16
G05
G00X9.5925Y-2.6683
M15
G01X9.5925Y-2.6801
M16
G05
T0
M30
