%TF.GenerationSoftware,KiCad,Pcbnew,(6.0.0-0)*%
%TF.CreationDate,2022-06-22T07:40:47-04:00*%
%TF.ProjectId,hermes_v1,6865726d-6573-45f7-9631-2e6b69636164,rev?*%
%TF.SameCoordinates,Original*%
%TF.FileFunction,Paste,Top*%
%TF.FilePolarity,Positive*%
%FSLAX46Y46*%
G04 Gerber Fmt 4.6, Leading zero omitted, Abs format (unit mm)*
G04 Created by KiCad (PCBNEW (6.0.0-0)) date 2022-06-22 07:40:47*
%MOMM*%
%LPD*%
G01*
G04 APERTURE LIST*
G04 Aperture macros list*
%AMRoundRect*
0 Rectangle with rounded corners*
0 $1 Rounding radius*
0 $2 $3 $4 $5 $6 $7 $8 $9 X,Y pos of 4 corners*
0 Add a 4 corners polygon primitive as box body*
4,1,4,$2,$3,$4,$5,$6,$7,$8,$9,$2,$3,0*
0 Add four circle primitives for the rounded corners*
1,1,$1+$1,$2,$3*
1,1,$1+$1,$4,$5*
1,1,$1+$1,$6,$7*
1,1,$1+$1,$8,$9*
0 Add four rect primitives between the rounded corners*
20,1,$1+$1,$2,$3,$4,$5,0*
20,1,$1+$1,$4,$5,$6,$7,0*
20,1,$1+$1,$6,$7,$8,$9,0*
20,1,$1+$1,$8,$9,$2,$3,0*%
G04 Aperture macros list end*
%ADD10RoundRect,0.155000X0.212500X0.155000X-0.212500X0.155000X-0.212500X-0.155000X0.212500X-0.155000X0*%
%ADD11RoundRect,0.155000X-0.155000X0.212500X-0.155000X-0.212500X0.155000X-0.212500X0.155000X0.212500X0*%
%ADD12RoundRect,0.155000X0.155000X-0.212500X0.155000X0.212500X-0.155000X0.212500X-0.155000X-0.212500X0*%
%ADD13RoundRect,0.160000X0.160000X-0.222500X0.160000X0.222500X-0.160000X0.222500X-0.160000X-0.222500X0*%
%ADD14RoundRect,0.160000X0.197500X0.160000X-0.197500X0.160000X-0.197500X-0.160000X0.197500X-0.160000X0*%
%ADD15RoundRect,0.160000X-0.197500X-0.160000X0.197500X-0.160000X0.197500X0.160000X-0.197500X0.160000X0*%
%ADD16RoundRect,0.160000X-0.160000X0.197500X-0.160000X-0.197500X0.160000X-0.197500X0.160000X0.197500X0*%
%ADD17RoundRect,0.250000X0.292217X-0.292217X0.292217X0.292217X-0.292217X0.292217X-0.292217X-0.292217X0*%
%ADD18RoundRect,0.050000X0.050000X-0.387500X0.050000X0.387500X-0.050000X0.387500X-0.050000X-0.387500X0*%
%ADD19RoundRect,0.050000X0.387500X-0.050000X0.387500X0.050000X-0.387500X0.050000X-0.387500X-0.050000X0*%
%ADD20RoundRect,0.150000X0.150000X-0.650000X0.150000X0.650000X-0.150000X0.650000X-0.150000X-0.650000X0*%
%ADD21RoundRect,0.075000X0.075000X-0.350000X0.075000X0.350000X-0.075000X0.350000X-0.075000X-0.350000X0*%
%ADD22RoundRect,0.075000X0.350000X0.075000X-0.350000X0.075000X-0.350000X-0.075000X0.350000X-0.075000X0*%
%ADD23R,2.400000X1.700000*%
%ADD24RoundRect,0.155000X-0.212500X-0.155000X0.212500X-0.155000X0.212500X0.155000X-0.212500X0.155000X0*%
%ADD25R,0.650000X1.050000*%
%ADD26O,0.950000X1.250000*%
%ADD27O,1.550000X0.890000*%
%ADD28R,1.350000X0.400000*%
%ADD29R,1.550000X1.500000*%
%ADD30R,1.550000X1.200000*%
%ADD31RoundRect,0.160000X0.160000X-0.197500X0.160000X0.197500X-0.160000X0.197500X-0.160000X-0.197500X0*%
%ADD32RoundRect,0.160000X-0.160000X0.222500X-0.160000X-0.222500X0.160000X-0.222500X0.160000X0.222500X0*%
%ADD33R,0.500000X0.375000*%
%ADD34R,0.650000X0.300000*%
%ADD35RoundRect,0.140000X-0.140000X-0.170000X0.140000X-0.170000X0.140000X0.170000X-0.140000X0.170000X0*%
%ADD36R,2.950000X3.500000*%
%ADD37RoundRect,0.140000X0.170000X-0.140000X0.170000X0.140000X-0.170000X0.140000X-0.170000X-0.140000X0*%
%ADD38RoundRect,0.135000X0.135000X0.185000X-0.135000X0.185000X-0.135000X-0.185000X0.135000X-0.185000X0*%
%ADD39R,2.600000X3.100000*%
%ADD40R,1.550000X0.600000*%
%ADD41RoundRect,0.135000X0.185000X-0.135000X0.185000X0.135000X-0.185000X0.135000X-0.185000X-0.135000X0*%
%ADD42RoundRect,0.140000X-0.170000X0.140000X-0.170000X-0.140000X0.170000X-0.140000X0.170000X0.140000X0*%
%ADD43RoundRect,0.140000X0.140000X0.170000X-0.140000X0.170000X-0.140000X-0.170000X0.140000X-0.170000X0*%
%ADD44R,0.420000X0.700000*%
%ADD45R,1.000000X0.600000*%
%ADD46R,0.800000X0.900000*%
%ADD47R,1.500000X2.000000*%
%ADD48R,3.800000X2.000000*%
%ADD49R,2.300000X2.500000*%
G04 APERTURE END LIST*
D10*
%TO.C,C6*%
X247460000Y-67775000D03*
X246325000Y-67775000D03*
%TD*%
%TO.C,C8*%
X247460000Y-66825000D03*
X246325000Y-66825000D03*
%TD*%
D11*
%TO.C,C11*%
X256050000Y-64320000D03*
X256050000Y-65455000D03*
%TD*%
%TO.C,C12*%
X255000000Y-64320000D03*
X255000000Y-65455000D03*
%TD*%
%TO.C,C13*%
X254000000Y-64320000D03*
X254000000Y-65455000D03*
%TD*%
%TO.C,C14*%
X253000000Y-64320000D03*
X253000000Y-65455000D03*
%TD*%
%TO.C,C15*%
X252000000Y-64320000D03*
X252000000Y-65455000D03*
%TD*%
%TO.C,C16*%
X251000000Y-64320000D03*
X251000000Y-65455000D03*
%TD*%
D10*
%TO.C,C17*%
X261108750Y-72625000D03*
X259973750Y-72625000D03*
%TD*%
%TO.C,C18*%
X261133750Y-65592500D03*
X259998750Y-65592500D03*
%TD*%
D12*
%TO.C,C19*%
X240125000Y-72842500D03*
X240125000Y-71707500D03*
%TD*%
%TO.C,C20*%
X255525000Y-79967500D03*
X255525000Y-78832500D03*
%TD*%
%TO.C,C22*%
X262125000Y-78792500D03*
X262125000Y-77657500D03*
%TD*%
D10*
%TO.C,C25*%
X260942500Y-75875000D03*
X259807500Y-75875000D03*
%TD*%
D11*
%TO.C,C26*%
X262125000Y-79857500D03*
X262125000Y-80992500D03*
%TD*%
D13*
%TO.C,D2*%
X249300000Y-62510000D03*
X249300000Y-61365000D03*
%TD*%
%TO.C,D3*%
X247700000Y-62510000D03*
X247700000Y-61365000D03*
%TD*%
%TO.C,D4*%
X246100000Y-62510000D03*
X246100000Y-61365000D03*
%TD*%
D14*
%TO.C,R5*%
X260972500Y-74800000D03*
X259777500Y-74800000D03*
%TD*%
%TO.C,R6*%
X260972500Y-73725000D03*
X259777500Y-73725000D03*
%TD*%
D15*
%TO.C,R7*%
X240252500Y-83875000D03*
X241447500Y-83875000D03*
%TD*%
D16*
%TO.C,R13*%
X247700000Y-63740000D03*
X247700000Y-64935000D03*
%TD*%
%TO.C,R14*%
X246100000Y-63740000D03*
X246100000Y-64935000D03*
%TD*%
D17*
%TO.C,U3*%
X251887500Y-71887500D03*
X251887500Y-70612500D03*
X253162500Y-70612500D03*
X253162500Y-71887500D03*
D18*
X249925000Y-74687500D03*
X250325000Y-74687500D03*
X250725000Y-74687500D03*
X251125000Y-74687500D03*
X251525000Y-74687500D03*
X251925000Y-74687500D03*
X252325000Y-74687500D03*
X252725000Y-74687500D03*
X253125000Y-74687500D03*
X253525000Y-74687500D03*
X253925000Y-74687500D03*
X254325000Y-74687500D03*
X254725000Y-74687500D03*
X255125000Y-74687500D03*
D19*
X255962500Y-73850000D03*
X255962500Y-73450000D03*
X255962500Y-73050000D03*
X255962500Y-72650000D03*
X255962500Y-72250000D03*
X255962500Y-71850000D03*
X255962500Y-71450000D03*
X255962500Y-71050000D03*
X255962500Y-70650000D03*
X255962500Y-70250000D03*
X255962500Y-69850000D03*
X255962500Y-69450000D03*
X255962500Y-69050000D03*
X255962500Y-68650000D03*
D18*
X255125000Y-67812500D03*
X254725000Y-67812500D03*
X254325000Y-67812500D03*
X253925000Y-67812500D03*
X253525000Y-67812500D03*
X253125000Y-67812500D03*
X252725000Y-67812500D03*
X252325000Y-67812500D03*
X251925000Y-67812500D03*
X251525000Y-67812500D03*
X251125000Y-67812500D03*
X250725000Y-67812500D03*
X250325000Y-67812500D03*
X249925000Y-67812500D03*
D19*
X249087500Y-68650000D03*
X249087500Y-69050000D03*
X249087500Y-69450000D03*
X249087500Y-69850000D03*
X249087500Y-70250000D03*
X249087500Y-70650000D03*
X249087500Y-71050000D03*
X249087500Y-71450000D03*
X249087500Y-71850000D03*
X249087500Y-72250000D03*
X249087500Y-72650000D03*
X249087500Y-73050000D03*
X249087500Y-73450000D03*
X249087500Y-73850000D03*
%TD*%
D20*
%TO.C,U4*%
X240645000Y-81700000D03*
X241915000Y-81700000D03*
X243185000Y-81700000D03*
X244455000Y-81700000D03*
X244455000Y-74500000D03*
X243185000Y-74500000D03*
X241915000Y-74500000D03*
X240645000Y-74500000D03*
%TD*%
D21*
%TO.C,U5*%
X257725000Y-81025000D03*
X258225000Y-81025000D03*
X258725000Y-81025000D03*
X259225000Y-81025000D03*
X259725000Y-81025000D03*
X260225000Y-81025000D03*
D22*
X260925000Y-80325000D03*
X260925000Y-79825000D03*
X260925000Y-79325000D03*
X260925000Y-78825000D03*
X260925000Y-78325000D03*
X260925000Y-77825000D03*
D21*
X260225000Y-77125000D03*
X259725000Y-77125000D03*
X259225000Y-77125000D03*
X258725000Y-77125000D03*
X258225000Y-77125000D03*
X257725000Y-77125000D03*
D22*
X257025000Y-77825000D03*
X257025000Y-78325000D03*
X257025000Y-78825000D03*
X257025000Y-79325000D03*
X257025000Y-79825000D03*
X257025000Y-80325000D03*
%TD*%
D23*
%TO.C,Y1*%
X261000000Y-70975000D03*
X261000000Y-67275000D03*
%TD*%
D24*
%TO.C,C9*%
X248832500Y-66550000D03*
X249967500Y-66550000D03*
%TD*%
D15*
%TO.C,R3*%
X246155000Y-70830000D03*
X247350000Y-70830000D03*
%TD*%
D25*
%TO.C,SW1*%
X240650000Y-55925000D03*
X240650000Y-60075000D03*
X242800000Y-55925000D03*
X242800000Y-60075000D03*
%TD*%
D26*
%TO.C,J2*%
X243650000Y-67925000D03*
D27*
X240950000Y-61925000D03*
X240950000Y-68925000D03*
D26*
X243650000Y-62925000D03*
D28*
X243650000Y-64125000D03*
X243650000Y-64775000D03*
X243650000Y-65425000D03*
X243650000Y-66075000D03*
X243650000Y-66725000D03*
D29*
X240950000Y-64425000D03*
X240950000Y-66425000D03*
D30*
X240950000Y-62525000D03*
X240950000Y-68325000D03*
%TD*%
D31*
%TO.C,R9*%
X258600000Y-70472500D03*
X258600000Y-69277500D03*
%TD*%
D11*
%TO.C,C10*%
X257100000Y-64320000D03*
X257100000Y-65455000D03*
%TD*%
D25*
%TO.C,SW2*%
X242825000Y-54162500D03*
X242825000Y-50012500D03*
X240675000Y-54162500D03*
X240675000Y-50012500D03*
%TD*%
D10*
%TO.C,C7*%
X247460000Y-68725000D03*
X246325000Y-68725000D03*
%TD*%
D16*
%TO.C,R12*%
X249300000Y-63740000D03*
X249300000Y-64935000D03*
%TD*%
%TO.C,R15*%
X257315000Y-59420000D03*
X257315000Y-60615000D03*
%TD*%
%TO.C,R16*%
X255340000Y-59420000D03*
X255340000Y-60615000D03*
%TD*%
D32*
%TO.C,D5*%
X256315000Y-59445000D03*
X256315000Y-60590000D03*
%TD*%
%TO.C,D6*%
X254365000Y-59445000D03*
X254365000Y-60590000D03*
%TD*%
D15*
%TO.C,R4*%
X246155000Y-69800000D03*
X247350000Y-69800000D03*
%TD*%
D33*
%TO.C,U7*%
X244025000Y-71587500D03*
D34*
X244100000Y-71050000D03*
D33*
X244025000Y-70512500D03*
X242325000Y-70512500D03*
D34*
X242250000Y-71050000D03*
D33*
X242325000Y-71587500D03*
%TD*%
D35*
%TO.C,C24*%
X253870000Y-56150000D03*
X254830000Y-56150000D03*
%TD*%
D36*
%TO.C,L2*%
X255675000Y-43800000D03*
X261125000Y-43800000D03*
%TD*%
D24*
%TO.C,C3*%
X256182500Y-48125000D03*
X257317500Y-48125000D03*
%TD*%
%TO.C,C5*%
X260207500Y-48125000D03*
X261342500Y-48125000D03*
%TD*%
D37*
%TO.C,C31*%
X253750000Y-54230000D03*
X253750000Y-53270000D03*
%TD*%
D38*
%TO.C,R8*%
X251910000Y-58125000D03*
X250890000Y-58125000D03*
%TD*%
D39*
%TO.C,U6*%
X249300000Y-54450000D03*
D40*
X246600000Y-52545000D03*
X246600000Y-53815000D03*
X246600000Y-55085000D03*
X246600000Y-56355000D03*
X252000000Y-56355000D03*
X252000000Y-55085000D03*
X252000000Y-53815000D03*
X252000000Y-52545000D03*
%TD*%
D41*
%TO.C,R10*%
X244925000Y-55885000D03*
X244925000Y-54865000D03*
%TD*%
D42*
%TO.C,C27*%
X254950000Y-53270000D03*
X254950000Y-54230000D03*
%TD*%
D43*
%TO.C,C28*%
X246180000Y-50425000D03*
X245220000Y-50425000D03*
%TD*%
D37*
%TO.C,C30*%
X248550000Y-43555000D03*
X248550000Y-42595000D03*
%TD*%
D35*
%TO.C,C32*%
X250445000Y-51075000D03*
X251405000Y-51075000D03*
%TD*%
D43*
%TO.C,C29*%
X248705000Y-44600000D03*
X247745000Y-44600000D03*
%TD*%
D38*
%TO.C,R17*%
X246660000Y-44600000D03*
X245640000Y-44600000D03*
%TD*%
D44*
%TO.C,Q1*%
X246025000Y-49150000D03*
D45*
X246435000Y-47670000D03*
X247565000Y-48380000D03*
X247565000Y-47670000D03*
D44*
X247325000Y-49150000D03*
X247975000Y-49150000D03*
D45*
X246435000Y-48380000D03*
D44*
X246675000Y-49150000D03*
X247975000Y-46150000D03*
X247325000Y-46150000D03*
X246675000Y-46150000D03*
X246025000Y-46150000D03*
%TD*%
D35*
%TO.C,C23*%
X250440000Y-49925000D03*
X251400000Y-49925000D03*
%TD*%
D46*
%TO.C,D8*%
X247150000Y-43325000D03*
X246200000Y-41325000D03*
X245250000Y-43325000D03*
%TD*%
D35*
%TO.C,C21*%
X250440000Y-48600000D03*
X251400000Y-48600000D03*
%TD*%
D47*
%TO.C,U2*%
X261535000Y-50095000D03*
D48*
X259235000Y-56395000D03*
D47*
X259235000Y-50095000D03*
X256935000Y-50095000D03*
%TD*%
D49*
%TO.C,D7*%
X251600000Y-46225000D03*
X251600000Y-41925000D03*
%TD*%
D38*
%TO.C,R11*%
X248010000Y-58100000D03*
X246990000Y-58100000D03*
%TD*%
M02*
