%TF.GenerationSoftware,KiCad,Pcbnew,(5.1.10-1-10_14)*%
%TF.CreationDate,2021-12-24T07:56:15-05:00*%
%TF.ProjectId,hermes_v1,6865726d-6573-45f7-9631-2e6b69636164,rev?*%
%TF.SameCoordinates,Original*%
%TF.FileFunction,Legend,Bot*%
%TF.FilePolarity,Positive*%
%FSLAX46Y46*%
G04 Gerber Fmt 4.6, Leading zero omitted, Abs format (unit mm)*
G04 Created by KiCad (PCBNEW (5.1.10-1-10_14)) date 2021-12-24 07:56:15*
%MOMM*%
%LPD*%
G01*
G04 APERTURE LIST*
%ADD10C,0.125000*%
%ADD11C,0.120000*%
%ADD12C,0.150000*%
G04 APERTURE END LIST*
D10*
X202344761Y-63316190D02*
X202344761Y-62816190D01*
X202154285Y-62816190D01*
X202106666Y-62840000D01*
X202082857Y-62863809D01*
X202059047Y-62911428D01*
X202059047Y-62982857D01*
X202082857Y-63030476D01*
X202106666Y-63054285D01*
X202154285Y-63078095D01*
X202344761Y-63078095D01*
X201844761Y-63316190D02*
X201844761Y-62982857D01*
X201844761Y-62816190D02*
X201868571Y-62840000D01*
X201844761Y-62863809D01*
X201820952Y-62840000D01*
X201844761Y-62816190D01*
X201844761Y-62863809D01*
X201606666Y-62982857D02*
X201606666Y-63316190D01*
X201606666Y-63030476D02*
X201582857Y-63006666D01*
X201535238Y-62982857D01*
X201463809Y-62982857D01*
X201416190Y-63006666D01*
X201392380Y-63054285D01*
X201392380Y-63316190D01*
X200773333Y-63316190D02*
X200773333Y-62816190D01*
X200654285Y-62816190D01*
X200582857Y-62840000D01*
X200535238Y-62887619D01*
X200511428Y-62935238D01*
X200487619Y-63030476D01*
X200487619Y-63101904D01*
X200511428Y-63197142D01*
X200535238Y-63244761D01*
X200582857Y-63292380D01*
X200654285Y-63316190D01*
X200773333Y-63316190D01*
X200082857Y-63292380D02*
X200130476Y-63316190D01*
X200225714Y-63316190D01*
X200273333Y-63292380D01*
X200297142Y-63244761D01*
X200297142Y-63054285D01*
X200273333Y-63006666D01*
X200225714Y-62982857D01*
X200130476Y-62982857D01*
X200082857Y-63006666D01*
X200059047Y-63054285D01*
X200059047Y-63101904D01*
X200297142Y-63149523D01*
X199916190Y-62982857D02*
X199725714Y-62982857D01*
X199844761Y-63316190D02*
X199844761Y-62887619D01*
X199820952Y-62840000D01*
X199773333Y-62816190D01*
X199725714Y-62816190D01*
X199559047Y-63316190D02*
X199559047Y-62982857D01*
X199559047Y-62816190D02*
X199582857Y-62840000D01*
X199559047Y-62863809D01*
X199535238Y-62840000D01*
X199559047Y-62816190D01*
X199559047Y-62863809D01*
X199320952Y-62982857D02*
X199320952Y-63316190D01*
X199320952Y-63030476D02*
X199297142Y-63006666D01*
X199249523Y-62982857D01*
X199178095Y-62982857D01*
X199130476Y-63006666D01*
X199106666Y-63054285D01*
X199106666Y-63316190D01*
X198868571Y-63316190D02*
X198868571Y-62982857D01*
X198868571Y-62816190D02*
X198892380Y-62840000D01*
X198868571Y-62863809D01*
X198844761Y-62840000D01*
X198868571Y-62816190D01*
X198868571Y-62863809D01*
X198701904Y-62982857D02*
X198511428Y-62982857D01*
X198630476Y-62816190D02*
X198630476Y-63244761D01*
X198606666Y-63292380D01*
X198559047Y-63316190D01*
X198511428Y-63316190D01*
X198344761Y-63316190D02*
X198344761Y-62982857D01*
X198344761Y-62816190D02*
X198368571Y-62840000D01*
X198344761Y-62863809D01*
X198320952Y-62840000D01*
X198344761Y-62816190D01*
X198344761Y-62863809D01*
X198035238Y-63316190D02*
X198082857Y-63292380D01*
X198106666Y-63268571D01*
X198130476Y-63220952D01*
X198130476Y-63078095D01*
X198106666Y-63030476D01*
X198082857Y-63006666D01*
X198035238Y-62982857D01*
X197963809Y-62982857D01*
X197916190Y-63006666D01*
X197892380Y-63030476D01*
X197868571Y-63078095D01*
X197868571Y-63220952D01*
X197892380Y-63268571D01*
X197916190Y-63292380D01*
X197963809Y-63316190D01*
X198035238Y-63316190D01*
X197654285Y-62982857D02*
X197654285Y-63316190D01*
X197654285Y-63030476D02*
X197630476Y-63006666D01*
X197582857Y-62982857D01*
X197511428Y-62982857D01*
X197463809Y-63006666D01*
X197440000Y-63054285D01*
X197440000Y-63316190D01*
X197225714Y-63292380D02*
X197178095Y-63316190D01*
X197082857Y-63316190D01*
X197035238Y-63292380D01*
X197011428Y-63244761D01*
X197011428Y-63220952D01*
X197035238Y-63173333D01*
X197082857Y-63149523D01*
X197154285Y-63149523D01*
X197201904Y-63125714D01*
X197225714Y-63078095D01*
X197225714Y-63054285D01*
X197201904Y-63006666D01*
X197154285Y-62982857D01*
X197082857Y-62982857D01*
X197035238Y-63006666D01*
X202356666Y-63738809D02*
X202261428Y-63667380D01*
X202166190Y-63738809D01*
X202070952Y-63738809D02*
X201975714Y-63667380D01*
X201880476Y-63738809D01*
X201785238Y-63738809D02*
X201690000Y-63667380D01*
X201594761Y-63738809D01*
X201499523Y-63738809D02*
X201404285Y-63667380D01*
X201309047Y-63738809D01*
X201213809Y-63738809D02*
X201118571Y-63667380D01*
X201023333Y-63738809D01*
X200928095Y-63738809D02*
X200832857Y-63667380D01*
X200737619Y-63738809D01*
X200642380Y-63738809D02*
X200547142Y-63667380D01*
X200451904Y-63738809D01*
X200356666Y-63738809D02*
X200261428Y-63667380D01*
X200166190Y-63738809D01*
X200070952Y-63738809D02*
X199975714Y-63667380D01*
X199880476Y-63738809D01*
X199785238Y-63738809D02*
X199690000Y-63667380D01*
X199594761Y-63738809D01*
X199499523Y-63738809D02*
X199404285Y-63667380D01*
X199309047Y-63738809D01*
X199213809Y-63738809D02*
X199118571Y-63667380D01*
X199023333Y-63738809D01*
X198928095Y-63738809D02*
X198832857Y-63667380D01*
X198737619Y-63738809D01*
X198642380Y-63738809D02*
X198547142Y-63667380D01*
X198451904Y-63738809D01*
X198356666Y-63738809D02*
X198261428Y-63667380D01*
X198166190Y-63738809D01*
X198070952Y-63738809D02*
X197975714Y-63667380D01*
X197880476Y-63738809D01*
X197785238Y-63738809D02*
X197690000Y-63667380D01*
X197594761Y-63738809D01*
X197499523Y-63738809D02*
X197404285Y-63667380D01*
X197309047Y-63738809D01*
X197213809Y-63738809D02*
X197118571Y-63667380D01*
X197023333Y-63738809D01*
X203059047Y-64590000D02*
X203106666Y-64566190D01*
X203178095Y-64566190D01*
X203249523Y-64590000D01*
X203297142Y-64637619D01*
X203320952Y-64685238D01*
X203344761Y-64780476D01*
X203344761Y-64851904D01*
X203320952Y-64947142D01*
X203297142Y-64994761D01*
X203249523Y-65042380D01*
X203178095Y-65066190D01*
X203130476Y-65066190D01*
X203059047Y-65042380D01*
X203035238Y-65018571D01*
X203035238Y-64851904D01*
X203130476Y-64851904D01*
X202820952Y-65066190D02*
X202820952Y-64566190D01*
X202630476Y-64566190D01*
X202582857Y-64590000D01*
X202559047Y-64613809D01*
X202535238Y-64661428D01*
X202535238Y-64732857D01*
X202559047Y-64780476D01*
X202582857Y-64804285D01*
X202630476Y-64828095D01*
X202820952Y-64828095D01*
X202320952Y-65066190D02*
X202320952Y-64566190D01*
X201987619Y-64566190D02*
X201892380Y-64566190D01*
X201844761Y-64590000D01*
X201797142Y-64637619D01*
X201773333Y-64732857D01*
X201773333Y-64899523D01*
X201797142Y-64994761D01*
X201844761Y-65042380D01*
X201892380Y-65066190D01*
X201987619Y-65066190D01*
X202035238Y-65042380D01*
X202082857Y-64994761D01*
X202106666Y-64899523D01*
X202106666Y-64732857D01*
X202082857Y-64637619D01*
X202035238Y-64590000D01*
X201987619Y-64566190D01*
X201463809Y-64566190D02*
X201416190Y-64566190D01*
X201368571Y-64590000D01*
X201344761Y-64613809D01*
X201320952Y-64661428D01*
X201297142Y-64756666D01*
X201297142Y-64875714D01*
X201320952Y-64970952D01*
X201344761Y-65018571D01*
X201368571Y-65042380D01*
X201416190Y-65066190D01*
X201463809Y-65066190D01*
X201511428Y-65042380D01*
X201535238Y-65018571D01*
X201559047Y-64970952D01*
X201582857Y-64875714D01*
X201582857Y-64756666D01*
X201559047Y-64661428D01*
X201535238Y-64613809D01*
X201511428Y-64590000D01*
X201463809Y-64566190D01*
X200701904Y-64875714D02*
X200320952Y-64875714D01*
X199725714Y-65042380D02*
X199654285Y-65066190D01*
X199535238Y-65066190D01*
X199487619Y-65042380D01*
X199463809Y-65018571D01*
X199440000Y-64970952D01*
X199440000Y-64923333D01*
X199463809Y-64875714D01*
X199487619Y-64851904D01*
X199535238Y-64828095D01*
X199630476Y-64804285D01*
X199678095Y-64780476D01*
X199701904Y-64756666D01*
X199725714Y-64709047D01*
X199725714Y-64661428D01*
X199701904Y-64613809D01*
X199678095Y-64590000D01*
X199630476Y-64566190D01*
X199511428Y-64566190D01*
X199440000Y-64590000D01*
X199225714Y-65066190D02*
X199225714Y-64566190D01*
X199035238Y-64566190D01*
X198987619Y-64590000D01*
X198963809Y-64613809D01*
X198940000Y-64661428D01*
X198940000Y-64732857D01*
X198963809Y-64780476D01*
X198987619Y-64804285D01*
X199035238Y-64828095D01*
X199225714Y-64828095D01*
X198725714Y-65066190D02*
X198725714Y-64566190D01*
X198392380Y-64566190D02*
X198344761Y-64566190D01*
X198297142Y-64590000D01*
X198273333Y-64613809D01*
X198249523Y-64661428D01*
X198225714Y-64756666D01*
X198225714Y-64875714D01*
X198249523Y-64970952D01*
X198273333Y-65018571D01*
X198297142Y-65042380D01*
X198344761Y-65066190D01*
X198392380Y-65066190D01*
X198440000Y-65042380D01*
X198463809Y-65018571D01*
X198487619Y-64970952D01*
X198511428Y-64875714D01*
X198511428Y-64756666D01*
X198487619Y-64661428D01*
X198463809Y-64613809D01*
X198440000Y-64590000D01*
X198392380Y-64566190D01*
X197630476Y-65066190D02*
X197630476Y-64566190D01*
X197463809Y-64923333D01*
X197297142Y-64566190D01*
X197297142Y-65066190D01*
X196963809Y-64566190D02*
X196868571Y-64566190D01*
X196820952Y-64590000D01*
X196773333Y-64637619D01*
X196749523Y-64732857D01*
X196749523Y-64899523D01*
X196773333Y-64994761D01*
X196820952Y-65042380D01*
X196868571Y-65066190D01*
X196963809Y-65066190D01*
X197011428Y-65042380D01*
X197059047Y-64994761D01*
X197082857Y-64899523D01*
X197082857Y-64732857D01*
X197059047Y-64637619D01*
X197011428Y-64590000D01*
X196963809Y-64566190D01*
X196559047Y-65042380D02*
X196487619Y-65066190D01*
X196368571Y-65066190D01*
X196320952Y-65042380D01*
X196297142Y-65018571D01*
X196273333Y-64970952D01*
X196273333Y-64923333D01*
X196297142Y-64875714D01*
X196320952Y-64851904D01*
X196368571Y-64828095D01*
X196463809Y-64804285D01*
X196511428Y-64780476D01*
X196535238Y-64756666D01*
X196559047Y-64709047D01*
X196559047Y-64661428D01*
X196535238Y-64613809D01*
X196511428Y-64590000D01*
X196463809Y-64566190D01*
X196344761Y-64566190D01*
X196273333Y-64590000D01*
X196059047Y-65066190D02*
X196059047Y-64566190D01*
X202642380Y-65465000D02*
X202690000Y-65441190D01*
X202761428Y-65441190D01*
X202832857Y-65465000D01*
X202880476Y-65512619D01*
X202904285Y-65560238D01*
X202928095Y-65655476D01*
X202928095Y-65726904D01*
X202904285Y-65822142D01*
X202880476Y-65869761D01*
X202832857Y-65917380D01*
X202761428Y-65941190D01*
X202713809Y-65941190D01*
X202642380Y-65917380D01*
X202618571Y-65893571D01*
X202618571Y-65726904D01*
X202713809Y-65726904D01*
X202404285Y-65941190D02*
X202404285Y-65441190D01*
X202213809Y-65441190D01*
X202166190Y-65465000D01*
X202142380Y-65488809D01*
X202118571Y-65536428D01*
X202118571Y-65607857D01*
X202142380Y-65655476D01*
X202166190Y-65679285D01*
X202213809Y-65703095D01*
X202404285Y-65703095D01*
X201904285Y-65941190D02*
X201904285Y-65441190D01*
X201570952Y-65441190D02*
X201475714Y-65441190D01*
X201428095Y-65465000D01*
X201380476Y-65512619D01*
X201356666Y-65607857D01*
X201356666Y-65774523D01*
X201380476Y-65869761D01*
X201428095Y-65917380D01*
X201475714Y-65941190D01*
X201570952Y-65941190D01*
X201618571Y-65917380D01*
X201666190Y-65869761D01*
X201690000Y-65774523D01*
X201690000Y-65607857D01*
X201666190Y-65512619D01*
X201618571Y-65465000D01*
X201570952Y-65441190D01*
X200880476Y-65941190D02*
X201166190Y-65941190D01*
X201023333Y-65941190D02*
X201023333Y-65441190D01*
X201070952Y-65512619D01*
X201118571Y-65560238D01*
X201166190Y-65584047D01*
X200285238Y-65750714D02*
X199904285Y-65750714D01*
X199309047Y-65917380D02*
X199237619Y-65941190D01*
X199118571Y-65941190D01*
X199070952Y-65917380D01*
X199047142Y-65893571D01*
X199023333Y-65845952D01*
X199023333Y-65798333D01*
X199047142Y-65750714D01*
X199070952Y-65726904D01*
X199118571Y-65703095D01*
X199213809Y-65679285D01*
X199261428Y-65655476D01*
X199285238Y-65631666D01*
X199309047Y-65584047D01*
X199309047Y-65536428D01*
X199285238Y-65488809D01*
X199261428Y-65465000D01*
X199213809Y-65441190D01*
X199094761Y-65441190D01*
X199023333Y-65465000D01*
X198809047Y-65941190D02*
X198809047Y-65441190D01*
X198618571Y-65441190D01*
X198570952Y-65465000D01*
X198547142Y-65488809D01*
X198523333Y-65536428D01*
X198523333Y-65607857D01*
X198547142Y-65655476D01*
X198570952Y-65679285D01*
X198618571Y-65703095D01*
X198809047Y-65703095D01*
X198309047Y-65941190D02*
X198309047Y-65441190D01*
X197975714Y-65441190D02*
X197928095Y-65441190D01*
X197880476Y-65465000D01*
X197856666Y-65488809D01*
X197832857Y-65536428D01*
X197809047Y-65631666D01*
X197809047Y-65750714D01*
X197832857Y-65845952D01*
X197856666Y-65893571D01*
X197880476Y-65917380D01*
X197928095Y-65941190D01*
X197975714Y-65941190D01*
X198023333Y-65917380D01*
X198047142Y-65893571D01*
X198070952Y-65845952D01*
X198094761Y-65750714D01*
X198094761Y-65631666D01*
X198070952Y-65536428D01*
X198047142Y-65488809D01*
X198023333Y-65465000D01*
X197975714Y-65441190D01*
X196928095Y-65893571D02*
X196951904Y-65917380D01*
X197023333Y-65941190D01*
X197070952Y-65941190D01*
X197142380Y-65917380D01*
X197190000Y-65869761D01*
X197213809Y-65822142D01*
X197237619Y-65726904D01*
X197237619Y-65655476D01*
X197213809Y-65560238D01*
X197190000Y-65512619D01*
X197142380Y-65465000D01*
X197070952Y-65441190D01*
X197023333Y-65441190D01*
X196951904Y-65465000D01*
X196928095Y-65488809D01*
X196737619Y-65917380D02*
X196666190Y-65941190D01*
X196547142Y-65941190D01*
X196499523Y-65917380D01*
X196475714Y-65893571D01*
X196451904Y-65845952D01*
X196451904Y-65798333D01*
X196475714Y-65750714D01*
X196499523Y-65726904D01*
X196547142Y-65703095D01*
X196642380Y-65679285D01*
X196690000Y-65655476D01*
X196713809Y-65631666D01*
X196737619Y-65584047D01*
X196737619Y-65536428D01*
X196713809Y-65488809D01*
X196690000Y-65465000D01*
X196642380Y-65441190D01*
X196523333Y-65441190D01*
X196451904Y-65465000D01*
X202892380Y-66340000D02*
X202940000Y-66316190D01*
X203011428Y-66316190D01*
X203082857Y-66340000D01*
X203130476Y-66387619D01*
X203154285Y-66435238D01*
X203178095Y-66530476D01*
X203178095Y-66601904D01*
X203154285Y-66697142D01*
X203130476Y-66744761D01*
X203082857Y-66792380D01*
X203011428Y-66816190D01*
X202963809Y-66816190D01*
X202892380Y-66792380D01*
X202868571Y-66768571D01*
X202868571Y-66601904D01*
X202963809Y-66601904D01*
X202654285Y-66816190D02*
X202654285Y-66316190D01*
X202463809Y-66316190D01*
X202416190Y-66340000D01*
X202392380Y-66363809D01*
X202368571Y-66411428D01*
X202368571Y-66482857D01*
X202392380Y-66530476D01*
X202416190Y-66554285D01*
X202463809Y-66578095D01*
X202654285Y-66578095D01*
X202154285Y-66816190D02*
X202154285Y-66316190D01*
X201820952Y-66316190D02*
X201725714Y-66316190D01*
X201678095Y-66340000D01*
X201630476Y-66387619D01*
X201606666Y-66482857D01*
X201606666Y-66649523D01*
X201630476Y-66744761D01*
X201678095Y-66792380D01*
X201725714Y-66816190D01*
X201820952Y-66816190D01*
X201868571Y-66792380D01*
X201916190Y-66744761D01*
X201940000Y-66649523D01*
X201940000Y-66482857D01*
X201916190Y-66387619D01*
X201868571Y-66340000D01*
X201820952Y-66316190D01*
X201416190Y-66363809D02*
X201392380Y-66340000D01*
X201344761Y-66316190D01*
X201225714Y-66316190D01*
X201178095Y-66340000D01*
X201154285Y-66363809D01*
X201130476Y-66411428D01*
X201130476Y-66459047D01*
X201154285Y-66530476D01*
X201440000Y-66816190D01*
X201130476Y-66816190D01*
X200535238Y-66625714D02*
X200154285Y-66625714D01*
X199559047Y-66792380D02*
X199487619Y-66816190D01*
X199368571Y-66816190D01*
X199320952Y-66792380D01*
X199297142Y-66768571D01*
X199273333Y-66720952D01*
X199273333Y-66673333D01*
X199297142Y-66625714D01*
X199320952Y-66601904D01*
X199368571Y-66578095D01*
X199463809Y-66554285D01*
X199511428Y-66530476D01*
X199535238Y-66506666D01*
X199559047Y-66459047D01*
X199559047Y-66411428D01*
X199535238Y-66363809D01*
X199511428Y-66340000D01*
X199463809Y-66316190D01*
X199344761Y-66316190D01*
X199273333Y-66340000D01*
X199059047Y-66816190D02*
X199059047Y-66316190D01*
X198868571Y-66316190D01*
X198820952Y-66340000D01*
X198797142Y-66363809D01*
X198773333Y-66411428D01*
X198773333Y-66482857D01*
X198797142Y-66530476D01*
X198820952Y-66554285D01*
X198868571Y-66578095D01*
X199059047Y-66578095D01*
X198559047Y-66816190D02*
X198559047Y-66316190D01*
X198225714Y-66316190D02*
X198178095Y-66316190D01*
X198130476Y-66340000D01*
X198106666Y-66363809D01*
X198082857Y-66411428D01*
X198059047Y-66506666D01*
X198059047Y-66625714D01*
X198082857Y-66720952D01*
X198106666Y-66768571D01*
X198130476Y-66792380D01*
X198178095Y-66816190D01*
X198225714Y-66816190D01*
X198273333Y-66792380D01*
X198297142Y-66768571D01*
X198320952Y-66720952D01*
X198344761Y-66625714D01*
X198344761Y-66506666D01*
X198320952Y-66411428D01*
X198297142Y-66363809D01*
X198273333Y-66340000D01*
X198225714Y-66316190D01*
X197487619Y-66792380D02*
X197416190Y-66816190D01*
X197297142Y-66816190D01*
X197249523Y-66792380D01*
X197225714Y-66768571D01*
X197201904Y-66720952D01*
X197201904Y-66673333D01*
X197225714Y-66625714D01*
X197249523Y-66601904D01*
X197297142Y-66578095D01*
X197392380Y-66554285D01*
X197440000Y-66530476D01*
X197463809Y-66506666D01*
X197487619Y-66459047D01*
X197487619Y-66411428D01*
X197463809Y-66363809D01*
X197440000Y-66340000D01*
X197392380Y-66316190D01*
X197273333Y-66316190D01*
X197201904Y-66340000D01*
X196701904Y-66768571D02*
X196725714Y-66792380D01*
X196797142Y-66816190D01*
X196844761Y-66816190D01*
X196916190Y-66792380D01*
X196963809Y-66744761D01*
X196987619Y-66697142D01*
X197011428Y-66601904D01*
X197011428Y-66530476D01*
X196987619Y-66435238D01*
X196963809Y-66387619D01*
X196916190Y-66340000D01*
X196844761Y-66316190D01*
X196797142Y-66316190D01*
X196725714Y-66340000D01*
X196701904Y-66363809D01*
X196487619Y-66816190D02*
X196487619Y-66316190D01*
X196201904Y-66816190D02*
X196416190Y-66530476D01*
X196201904Y-66316190D02*
X196487619Y-66601904D01*
X203059047Y-67215000D02*
X203106666Y-67191190D01*
X203178095Y-67191190D01*
X203249523Y-67215000D01*
X203297142Y-67262619D01*
X203320952Y-67310238D01*
X203344761Y-67405476D01*
X203344761Y-67476904D01*
X203320952Y-67572142D01*
X203297142Y-67619761D01*
X203249523Y-67667380D01*
X203178095Y-67691190D01*
X203130476Y-67691190D01*
X203059047Y-67667380D01*
X203035238Y-67643571D01*
X203035238Y-67476904D01*
X203130476Y-67476904D01*
X202820952Y-67691190D02*
X202820952Y-67191190D01*
X202630476Y-67191190D01*
X202582857Y-67215000D01*
X202559047Y-67238809D01*
X202535238Y-67286428D01*
X202535238Y-67357857D01*
X202559047Y-67405476D01*
X202582857Y-67429285D01*
X202630476Y-67453095D01*
X202820952Y-67453095D01*
X202320952Y-67691190D02*
X202320952Y-67191190D01*
X201987619Y-67191190D02*
X201892380Y-67191190D01*
X201844761Y-67215000D01*
X201797142Y-67262619D01*
X201773333Y-67357857D01*
X201773333Y-67524523D01*
X201797142Y-67619761D01*
X201844761Y-67667380D01*
X201892380Y-67691190D01*
X201987619Y-67691190D01*
X202035238Y-67667380D01*
X202082857Y-67619761D01*
X202106666Y-67524523D01*
X202106666Y-67357857D01*
X202082857Y-67262619D01*
X202035238Y-67215000D01*
X201987619Y-67191190D01*
X201606666Y-67191190D02*
X201297142Y-67191190D01*
X201463809Y-67381666D01*
X201392380Y-67381666D01*
X201344761Y-67405476D01*
X201320952Y-67429285D01*
X201297142Y-67476904D01*
X201297142Y-67595952D01*
X201320952Y-67643571D01*
X201344761Y-67667380D01*
X201392380Y-67691190D01*
X201535238Y-67691190D01*
X201582857Y-67667380D01*
X201606666Y-67643571D01*
X200701904Y-67500714D02*
X200320952Y-67500714D01*
X199725714Y-67667380D02*
X199654285Y-67691190D01*
X199535238Y-67691190D01*
X199487619Y-67667380D01*
X199463809Y-67643571D01*
X199440000Y-67595952D01*
X199440000Y-67548333D01*
X199463809Y-67500714D01*
X199487619Y-67476904D01*
X199535238Y-67453095D01*
X199630476Y-67429285D01*
X199678095Y-67405476D01*
X199701904Y-67381666D01*
X199725714Y-67334047D01*
X199725714Y-67286428D01*
X199701904Y-67238809D01*
X199678095Y-67215000D01*
X199630476Y-67191190D01*
X199511428Y-67191190D01*
X199440000Y-67215000D01*
X199225714Y-67691190D02*
X199225714Y-67191190D01*
X199035238Y-67191190D01*
X198987619Y-67215000D01*
X198963809Y-67238809D01*
X198940000Y-67286428D01*
X198940000Y-67357857D01*
X198963809Y-67405476D01*
X198987619Y-67429285D01*
X199035238Y-67453095D01*
X199225714Y-67453095D01*
X198725714Y-67691190D02*
X198725714Y-67191190D01*
X198392380Y-67191190D02*
X198344761Y-67191190D01*
X198297142Y-67215000D01*
X198273333Y-67238809D01*
X198249523Y-67286428D01*
X198225714Y-67381666D01*
X198225714Y-67500714D01*
X198249523Y-67595952D01*
X198273333Y-67643571D01*
X198297142Y-67667380D01*
X198344761Y-67691190D01*
X198392380Y-67691190D01*
X198440000Y-67667380D01*
X198463809Y-67643571D01*
X198487619Y-67595952D01*
X198511428Y-67500714D01*
X198511428Y-67381666D01*
X198487619Y-67286428D01*
X198463809Y-67238809D01*
X198440000Y-67215000D01*
X198392380Y-67191190D01*
X197630476Y-67691190D02*
X197630476Y-67191190D01*
X197463809Y-67548333D01*
X197297142Y-67191190D01*
X197297142Y-67691190D01*
X196963809Y-67191190D02*
X196868571Y-67191190D01*
X196820952Y-67215000D01*
X196773333Y-67262619D01*
X196749523Y-67357857D01*
X196749523Y-67524523D01*
X196773333Y-67619761D01*
X196820952Y-67667380D01*
X196868571Y-67691190D01*
X196963809Y-67691190D01*
X197011428Y-67667380D01*
X197059047Y-67619761D01*
X197082857Y-67524523D01*
X197082857Y-67357857D01*
X197059047Y-67262619D01*
X197011428Y-67215000D01*
X196963809Y-67191190D01*
X196559047Y-67667380D02*
X196487619Y-67691190D01*
X196368571Y-67691190D01*
X196320952Y-67667380D01*
X196297142Y-67643571D01*
X196273333Y-67595952D01*
X196273333Y-67548333D01*
X196297142Y-67500714D01*
X196320952Y-67476904D01*
X196368571Y-67453095D01*
X196463809Y-67429285D01*
X196511428Y-67405476D01*
X196535238Y-67381666D01*
X196559047Y-67334047D01*
X196559047Y-67286428D01*
X196535238Y-67238809D01*
X196511428Y-67215000D01*
X196463809Y-67191190D01*
X196344761Y-67191190D01*
X196273333Y-67215000D01*
X196059047Y-67691190D02*
X196059047Y-67191190D01*
X202856666Y-68090000D02*
X202904285Y-68066190D01*
X202975714Y-68066190D01*
X203047142Y-68090000D01*
X203094761Y-68137619D01*
X203118571Y-68185238D01*
X203142380Y-68280476D01*
X203142380Y-68351904D01*
X203118571Y-68447142D01*
X203094761Y-68494761D01*
X203047142Y-68542380D01*
X202975714Y-68566190D01*
X202928095Y-68566190D01*
X202856666Y-68542380D01*
X202832857Y-68518571D01*
X202832857Y-68351904D01*
X202928095Y-68351904D01*
X202618571Y-68566190D02*
X202618571Y-68066190D01*
X202428095Y-68066190D01*
X202380476Y-68090000D01*
X202356666Y-68113809D01*
X202332857Y-68161428D01*
X202332857Y-68232857D01*
X202356666Y-68280476D01*
X202380476Y-68304285D01*
X202428095Y-68328095D01*
X202618571Y-68328095D01*
X202118571Y-68566190D02*
X202118571Y-68066190D01*
X201785238Y-68066190D02*
X201690000Y-68066190D01*
X201642380Y-68090000D01*
X201594761Y-68137619D01*
X201570952Y-68232857D01*
X201570952Y-68399523D01*
X201594761Y-68494761D01*
X201642380Y-68542380D01*
X201690000Y-68566190D01*
X201785238Y-68566190D01*
X201832857Y-68542380D01*
X201880476Y-68494761D01*
X201904285Y-68399523D01*
X201904285Y-68232857D01*
X201880476Y-68137619D01*
X201832857Y-68090000D01*
X201785238Y-68066190D01*
X201142380Y-68232857D02*
X201142380Y-68566190D01*
X201261428Y-68042380D02*
X201380476Y-68399523D01*
X201070952Y-68399523D01*
X200499523Y-68375714D02*
X200118571Y-68375714D01*
X199499523Y-68566190D02*
X199499523Y-68066190D01*
X199285238Y-68113809D02*
X199261428Y-68090000D01*
X199213809Y-68066190D01*
X199094761Y-68066190D01*
X199047142Y-68090000D01*
X199023333Y-68113809D01*
X198999523Y-68161428D01*
X198999523Y-68209047D01*
X199023333Y-68280476D01*
X199309047Y-68566190D01*
X198999523Y-68566190D01*
X198499523Y-68518571D02*
X198523333Y-68542380D01*
X198594761Y-68566190D01*
X198642380Y-68566190D01*
X198713809Y-68542380D01*
X198761428Y-68494761D01*
X198785238Y-68447142D01*
X198809047Y-68351904D01*
X198809047Y-68280476D01*
X198785238Y-68185238D01*
X198761428Y-68137619D01*
X198713809Y-68090000D01*
X198642380Y-68066190D01*
X198594761Y-68066190D01*
X198523333Y-68090000D01*
X198499523Y-68113809D01*
X198190000Y-68066190D02*
X198142380Y-68066190D01*
X198094761Y-68090000D01*
X198070952Y-68113809D01*
X198047142Y-68161428D01*
X198023333Y-68256666D01*
X198023333Y-68375714D01*
X198047142Y-68470952D01*
X198070952Y-68518571D01*
X198094761Y-68542380D01*
X198142380Y-68566190D01*
X198190000Y-68566190D01*
X198237619Y-68542380D01*
X198261428Y-68518571D01*
X198285238Y-68470952D01*
X198309047Y-68375714D01*
X198309047Y-68256666D01*
X198285238Y-68161428D01*
X198261428Y-68113809D01*
X198237619Y-68090000D01*
X198190000Y-68066190D01*
X197451904Y-68542380D02*
X197380476Y-68566190D01*
X197261428Y-68566190D01*
X197213809Y-68542380D01*
X197190000Y-68518571D01*
X197166190Y-68470952D01*
X197166190Y-68423333D01*
X197190000Y-68375714D01*
X197213809Y-68351904D01*
X197261428Y-68328095D01*
X197356666Y-68304285D01*
X197404285Y-68280476D01*
X197428095Y-68256666D01*
X197451904Y-68209047D01*
X197451904Y-68161428D01*
X197428095Y-68113809D01*
X197404285Y-68090000D01*
X197356666Y-68066190D01*
X197237619Y-68066190D01*
X197166190Y-68090000D01*
X196951904Y-68566190D02*
X196951904Y-68066190D01*
X196832857Y-68066190D01*
X196761428Y-68090000D01*
X196713809Y-68137619D01*
X196690000Y-68185238D01*
X196666190Y-68280476D01*
X196666190Y-68351904D01*
X196690000Y-68447142D01*
X196713809Y-68494761D01*
X196761428Y-68542380D01*
X196832857Y-68566190D01*
X196951904Y-68566190D01*
X196475714Y-68423333D02*
X196237619Y-68423333D01*
X196523333Y-68566190D02*
X196356666Y-68066190D01*
X196190000Y-68566190D01*
X202844761Y-68965000D02*
X202892380Y-68941190D01*
X202963809Y-68941190D01*
X203035238Y-68965000D01*
X203082857Y-69012619D01*
X203106666Y-69060238D01*
X203130476Y-69155476D01*
X203130476Y-69226904D01*
X203106666Y-69322142D01*
X203082857Y-69369761D01*
X203035238Y-69417380D01*
X202963809Y-69441190D01*
X202916190Y-69441190D01*
X202844761Y-69417380D01*
X202820952Y-69393571D01*
X202820952Y-69226904D01*
X202916190Y-69226904D01*
X202606666Y-69441190D02*
X202606666Y-68941190D01*
X202416190Y-68941190D01*
X202368571Y-68965000D01*
X202344761Y-68988809D01*
X202320952Y-69036428D01*
X202320952Y-69107857D01*
X202344761Y-69155476D01*
X202368571Y-69179285D01*
X202416190Y-69203095D01*
X202606666Y-69203095D01*
X202106666Y-69441190D02*
X202106666Y-68941190D01*
X201773333Y-68941190D02*
X201678095Y-68941190D01*
X201630476Y-68965000D01*
X201582857Y-69012619D01*
X201559047Y-69107857D01*
X201559047Y-69274523D01*
X201582857Y-69369761D01*
X201630476Y-69417380D01*
X201678095Y-69441190D01*
X201773333Y-69441190D01*
X201820952Y-69417380D01*
X201868571Y-69369761D01*
X201892380Y-69274523D01*
X201892380Y-69107857D01*
X201868571Y-69012619D01*
X201820952Y-68965000D01*
X201773333Y-68941190D01*
X201106666Y-68941190D02*
X201344761Y-68941190D01*
X201368571Y-69179285D01*
X201344761Y-69155476D01*
X201297142Y-69131666D01*
X201178095Y-69131666D01*
X201130476Y-69155476D01*
X201106666Y-69179285D01*
X201082857Y-69226904D01*
X201082857Y-69345952D01*
X201106666Y-69393571D01*
X201130476Y-69417380D01*
X201178095Y-69441190D01*
X201297142Y-69441190D01*
X201344761Y-69417380D01*
X201368571Y-69393571D01*
X200487619Y-69250714D02*
X200106666Y-69250714D01*
X199487619Y-69441190D02*
X199487619Y-68941190D01*
X199273333Y-68988809D02*
X199249523Y-68965000D01*
X199201904Y-68941190D01*
X199082857Y-68941190D01*
X199035238Y-68965000D01*
X199011428Y-68988809D01*
X198987619Y-69036428D01*
X198987619Y-69084047D01*
X199011428Y-69155476D01*
X199297142Y-69441190D01*
X198987619Y-69441190D01*
X198487619Y-69393571D02*
X198511428Y-69417380D01*
X198582857Y-69441190D01*
X198630476Y-69441190D01*
X198701904Y-69417380D01*
X198749523Y-69369761D01*
X198773333Y-69322142D01*
X198797142Y-69226904D01*
X198797142Y-69155476D01*
X198773333Y-69060238D01*
X198749523Y-69012619D01*
X198701904Y-68965000D01*
X198630476Y-68941190D01*
X198582857Y-68941190D01*
X198511428Y-68965000D01*
X198487619Y-68988809D01*
X198178095Y-68941190D02*
X198130476Y-68941190D01*
X198082857Y-68965000D01*
X198059047Y-68988809D01*
X198035238Y-69036428D01*
X198011428Y-69131666D01*
X198011428Y-69250714D01*
X198035238Y-69345952D01*
X198059047Y-69393571D01*
X198082857Y-69417380D01*
X198130476Y-69441190D01*
X198178095Y-69441190D01*
X198225714Y-69417380D01*
X198249523Y-69393571D01*
X198273333Y-69345952D01*
X198297142Y-69250714D01*
X198297142Y-69131666D01*
X198273333Y-69036428D01*
X198249523Y-68988809D01*
X198225714Y-68965000D01*
X198178095Y-68941190D01*
X197440000Y-69417380D02*
X197368571Y-69441190D01*
X197249523Y-69441190D01*
X197201904Y-69417380D01*
X197178095Y-69393571D01*
X197154285Y-69345952D01*
X197154285Y-69298333D01*
X197178095Y-69250714D01*
X197201904Y-69226904D01*
X197249523Y-69203095D01*
X197344761Y-69179285D01*
X197392380Y-69155476D01*
X197416190Y-69131666D01*
X197440000Y-69084047D01*
X197440000Y-69036428D01*
X197416190Y-68988809D01*
X197392380Y-68965000D01*
X197344761Y-68941190D01*
X197225714Y-68941190D01*
X197154285Y-68965000D01*
X196654285Y-69393571D02*
X196678095Y-69417380D01*
X196749523Y-69441190D01*
X196797142Y-69441190D01*
X196868571Y-69417380D01*
X196916190Y-69369761D01*
X196940000Y-69322142D01*
X196963809Y-69226904D01*
X196963809Y-69155476D01*
X196940000Y-69060238D01*
X196916190Y-69012619D01*
X196868571Y-68965000D01*
X196797142Y-68941190D01*
X196749523Y-68941190D01*
X196678095Y-68965000D01*
X196654285Y-68988809D01*
X196201904Y-69441190D02*
X196440000Y-69441190D01*
X196440000Y-68941190D01*
X203190000Y-69840000D02*
X203237619Y-69816190D01*
X203309047Y-69816190D01*
X203380476Y-69840000D01*
X203428095Y-69887619D01*
X203451904Y-69935238D01*
X203475714Y-70030476D01*
X203475714Y-70101904D01*
X203451904Y-70197142D01*
X203428095Y-70244761D01*
X203380476Y-70292380D01*
X203309047Y-70316190D01*
X203261428Y-70316190D01*
X203190000Y-70292380D01*
X203166190Y-70268571D01*
X203166190Y-70101904D01*
X203261428Y-70101904D01*
X202951904Y-70316190D02*
X202951904Y-69816190D01*
X202761428Y-69816190D01*
X202713809Y-69840000D01*
X202690000Y-69863809D01*
X202666190Y-69911428D01*
X202666190Y-69982857D01*
X202690000Y-70030476D01*
X202713809Y-70054285D01*
X202761428Y-70078095D01*
X202951904Y-70078095D01*
X202451904Y-70316190D02*
X202451904Y-69816190D01*
X202118571Y-69816190D02*
X202023333Y-69816190D01*
X201975714Y-69840000D01*
X201928095Y-69887619D01*
X201904285Y-69982857D01*
X201904285Y-70149523D01*
X201928095Y-70244761D01*
X201975714Y-70292380D01*
X202023333Y-70316190D01*
X202118571Y-70316190D01*
X202166190Y-70292380D01*
X202213809Y-70244761D01*
X202237619Y-70149523D01*
X202237619Y-69982857D01*
X202213809Y-69887619D01*
X202166190Y-69840000D01*
X202118571Y-69816190D01*
X201475714Y-69816190D02*
X201570952Y-69816190D01*
X201618571Y-69840000D01*
X201642380Y-69863809D01*
X201690000Y-69935238D01*
X201713809Y-70030476D01*
X201713809Y-70220952D01*
X201690000Y-70268571D01*
X201666190Y-70292380D01*
X201618571Y-70316190D01*
X201523333Y-70316190D01*
X201475714Y-70292380D01*
X201451904Y-70268571D01*
X201428095Y-70220952D01*
X201428095Y-70101904D01*
X201451904Y-70054285D01*
X201475714Y-70030476D01*
X201523333Y-70006666D01*
X201618571Y-70006666D01*
X201666190Y-70030476D01*
X201690000Y-70054285D01*
X201713809Y-70101904D01*
X200832857Y-70125714D02*
X200451904Y-70125714D01*
X199547142Y-70316190D02*
X199713809Y-70078095D01*
X199832857Y-70316190D02*
X199832857Y-69816190D01*
X199642380Y-69816190D01*
X199594761Y-69840000D01*
X199570952Y-69863809D01*
X199547142Y-69911428D01*
X199547142Y-69982857D01*
X199570952Y-70030476D01*
X199594761Y-70054285D01*
X199642380Y-70078095D01*
X199832857Y-70078095D01*
X199356666Y-70173333D02*
X199118571Y-70173333D01*
X199404285Y-70316190D02*
X199237619Y-69816190D01*
X199070952Y-70316190D01*
X198904285Y-70316190D02*
X198904285Y-69816190D01*
X198785238Y-69816190D01*
X198713809Y-69840000D01*
X198666190Y-69887619D01*
X198642380Y-69935238D01*
X198618571Y-70030476D01*
X198618571Y-70101904D01*
X198642380Y-70197142D01*
X198666190Y-70244761D01*
X198713809Y-70292380D01*
X198785238Y-70316190D01*
X198904285Y-70316190D01*
X198404285Y-70316190D02*
X198404285Y-69816190D01*
X198070952Y-69816190D02*
X197975714Y-69816190D01*
X197928095Y-69840000D01*
X197880476Y-69887619D01*
X197856666Y-69982857D01*
X197856666Y-70149523D01*
X197880476Y-70244761D01*
X197928095Y-70292380D01*
X197975714Y-70316190D01*
X198070952Y-70316190D01*
X198118571Y-70292380D01*
X198166190Y-70244761D01*
X198190000Y-70149523D01*
X198190000Y-69982857D01*
X198166190Y-69887619D01*
X198118571Y-69840000D01*
X198070952Y-69816190D01*
X197261428Y-70316190D02*
X197261428Y-69816190D01*
X197070952Y-69816190D01*
X197023333Y-69840000D01*
X196999523Y-69863809D01*
X196975714Y-69911428D01*
X196975714Y-69982857D01*
X196999523Y-70030476D01*
X197023333Y-70054285D01*
X197070952Y-70078095D01*
X197261428Y-70078095D01*
X196761428Y-70316190D02*
X196761428Y-69816190D01*
X196570952Y-69816190D01*
X196523333Y-69840000D01*
X196499523Y-69863809D01*
X196475714Y-69911428D01*
X196475714Y-69982857D01*
X196499523Y-70030476D01*
X196523333Y-70054285D01*
X196570952Y-70078095D01*
X196761428Y-70078095D01*
X196261428Y-70316190D02*
X196261428Y-69816190D01*
X196094761Y-70173333D01*
X195928095Y-69816190D01*
X195928095Y-70316190D01*
X202737619Y-70715000D02*
X202785238Y-70691190D01*
X202856666Y-70691190D01*
X202928095Y-70715000D01*
X202975714Y-70762619D01*
X202999523Y-70810238D01*
X203023333Y-70905476D01*
X203023333Y-70976904D01*
X202999523Y-71072142D01*
X202975714Y-71119761D01*
X202928095Y-71167380D01*
X202856666Y-71191190D01*
X202809047Y-71191190D01*
X202737619Y-71167380D01*
X202713809Y-71143571D01*
X202713809Y-70976904D01*
X202809047Y-70976904D01*
X202499523Y-71191190D02*
X202499523Y-70691190D01*
X202309047Y-70691190D01*
X202261428Y-70715000D01*
X202237619Y-70738809D01*
X202213809Y-70786428D01*
X202213809Y-70857857D01*
X202237619Y-70905476D01*
X202261428Y-70929285D01*
X202309047Y-70953095D01*
X202499523Y-70953095D01*
X201999523Y-71191190D02*
X201999523Y-70691190D01*
X201666190Y-70691190D02*
X201570952Y-70691190D01*
X201523333Y-70715000D01*
X201475714Y-70762619D01*
X201451904Y-70857857D01*
X201451904Y-71024523D01*
X201475714Y-71119761D01*
X201523333Y-71167380D01*
X201570952Y-71191190D01*
X201666190Y-71191190D01*
X201713809Y-71167380D01*
X201761428Y-71119761D01*
X201785238Y-71024523D01*
X201785238Y-70857857D01*
X201761428Y-70762619D01*
X201713809Y-70715000D01*
X201666190Y-70691190D01*
X201285238Y-70691190D02*
X200951904Y-70691190D01*
X201166190Y-71191190D01*
X200380476Y-71000714D02*
X199999523Y-71000714D01*
X199404285Y-71167380D02*
X199332857Y-71191190D01*
X199213809Y-71191190D01*
X199166190Y-71167380D01*
X199142380Y-71143571D01*
X199118571Y-71095952D01*
X199118571Y-71048333D01*
X199142380Y-71000714D01*
X199166190Y-70976904D01*
X199213809Y-70953095D01*
X199309047Y-70929285D01*
X199356666Y-70905476D01*
X199380476Y-70881666D01*
X199404285Y-70834047D01*
X199404285Y-70786428D01*
X199380476Y-70738809D01*
X199356666Y-70715000D01*
X199309047Y-70691190D01*
X199190000Y-70691190D01*
X199118571Y-70715000D01*
X198904285Y-70929285D02*
X198737619Y-70929285D01*
X198666190Y-71191190D02*
X198904285Y-71191190D01*
X198904285Y-70691190D01*
X198666190Y-70691190D01*
X198166190Y-71191190D02*
X198332857Y-70953095D01*
X198451904Y-71191190D02*
X198451904Y-70691190D01*
X198261428Y-70691190D01*
X198213809Y-70715000D01*
X198190000Y-70738809D01*
X198166190Y-70786428D01*
X198166190Y-70857857D01*
X198190000Y-70905476D01*
X198213809Y-70929285D01*
X198261428Y-70953095D01*
X198451904Y-70953095D01*
X198023333Y-70691190D02*
X197856666Y-71191190D01*
X197690000Y-70691190D01*
X197428095Y-70691190D02*
X197332857Y-70691190D01*
X197285238Y-70715000D01*
X197237619Y-70762619D01*
X197213809Y-70857857D01*
X197213809Y-71024523D01*
X197237619Y-71119761D01*
X197285238Y-71167380D01*
X197332857Y-71191190D01*
X197428095Y-71191190D01*
X197475714Y-71167380D01*
X197523333Y-71119761D01*
X197547142Y-71024523D01*
X197547142Y-70857857D01*
X197523333Y-70762619D01*
X197475714Y-70715000D01*
X197428095Y-70691190D01*
X196666190Y-70691190D02*
X196332857Y-70691190D01*
X196547142Y-71191190D01*
X202892380Y-71590000D02*
X202940000Y-71566190D01*
X203011428Y-71566190D01*
X203082857Y-71590000D01*
X203130476Y-71637619D01*
X203154285Y-71685238D01*
X203178095Y-71780476D01*
X203178095Y-71851904D01*
X203154285Y-71947142D01*
X203130476Y-71994761D01*
X203082857Y-72042380D01*
X203011428Y-72066190D01*
X202963809Y-72066190D01*
X202892380Y-72042380D01*
X202868571Y-72018571D01*
X202868571Y-71851904D01*
X202963809Y-71851904D01*
X202654285Y-72066190D02*
X202654285Y-71566190D01*
X202463809Y-71566190D01*
X202416190Y-71590000D01*
X202392380Y-71613809D01*
X202368571Y-71661428D01*
X202368571Y-71732857D01*
X202392380Y-71780476D01*
X202416190Y-71804285D01*
X202463809Y-71828095D01*
X202654285Y-71828095D01*
X202154285Y-72066190D02*
X202154285Y-71566190D01*
X201820952Y-71566190D02*
X201725714Y-71566190D01*
X201678095Y-71590000D01*
X201630476Y-71637619D01*
X201606666Y-71732857D01*
X201606666Y-71899523D01*
X201630476Y-71994761D01*
X201678095Y-72042380D01*
X201725714Y-72066190D01*
X201820952Y-72066190D01*
X201868571Y-72042380D01*
X201916190Y-71994761D01*
X201940000Y-71899523D01*
X201940000Y-71732857D01*
X201916190Y-71637619D01*
X201868571Y-71590000D01*
X201820952Y-71566190D01*
X201320952Y-71780476D02*
X201368571Y-71756666D01*
X201392380Y-71732857D01*
X201416190Y-71685238D01*
X201416190Y-71661428D01*
X201392380Y-71613809D01*
X201368571Y-71590000D01*
X201320952Y-71566190D01*
X201225714Y-71566190D01*
X201178095Y-71590000D01*
X201154285Y-71613809D01*
X201130476Y-71661428D01*
X201130476Y-71685238D01*
X201154285Y-71732857D01*
X201178095Y-71756666D01*
X201225714Y-71780476D01*
X201320952Y-71780476D01*
X201368571Y-71804285D01*
X201392380Y-71828095D01*
X201416190Y-71875714D01*
X201416190Y-71970952D01*
X201392380Y-72018571D01*
X201368571Y-72042380D01*
X201320952Y-72066190D01*
X201225714Y-72066190D01*
X201178095Y-72042380D01*
X201154285Y-72018571D01*
X201130476Y-71970952D01*
X201130476Y-71875714D01*
X201154285Y-71828095D01*
X201178095Y-71804285D01*
X201225714Y-71780476D01*
X200535238Y-71875714D02*
X200154285Y-71875714D01*
X199535238Y-71566190D02*
X199535238Y-71970952D01*
X199511428Y-72018571D01*
X199487619Y-72042380D01*
X199440000Y-72066190D01*
X199344761Y-72066190D01*
X199297142Y-72042380D01*
X199273333Y-72018571D01*
X199249523Y-71970952D01*
X199249523Y-71566190D01*
X199035238Y-71923333D02*
X198797142Y-71923333D01*
X199082857Y-72066190D02*
X198916190Y-71566190D01*
X198749523Y-72066190D01*
X198297142Y-72066190D02*
X198463809Y-71828095D01*
X198582857Y-72066190D02*
X198582857Y-71566190D01*
X198392380Y-71566190D01*
X198344761Y-71590000D01*
X198320952Y-71613809D01*
X198297142Y-71661428D01*
X198297142Y-71732857D01*
X198320952Y-71780476D01*
X198344761Y-71804285D01*
X198392380Y-71828095D01*
X198582857Y-71828095D01*
X198154285Y-71566190D02*
X197868571Y-71566190D01*
X198011428Y-72066190D02*
X198011428Y-71566190D01*
X197440000Y-72066190D02*
X197725714Y-72066190D01*
X197582857Y-72066190D02*
X197582857Y-71566190D01*
X197630476Y-71637619D01*
X197678095Y-71685238D01*
X197725714Y-71709047D01*
X196916190Y-71566190D02*
X196630476Y-71566190D01*
X196773333Y-72066190D02*
X196773333Y-71566190D01*
X196511428Y-71566190D02*
X196178095Y-72066190D01*
X196178095Y-71566190D02*
X196511428Y-72066190D01*
X202951904Y-72465000D02*
X202999523Y-72441190D01*
X203070952Y-72441190D01*
X203142380Y-72465000D01*
X203190000Y-72512619D01*
X203213809Y-72560238D01*
X203237619Y-72655476D01*
X203237619Y-72726904D01*
X203213809Y-72822142D01*
X203190000Y-72869761D01*
X203142380Y-72917380D01*
X203070952Y-72941190D01*
X203023333Y-72941190D01*
X202951904Y-72917380D01*
X202928095Y-72893571D01*
X202928095Y-72726904D01*
X203023333Y-72726904D01*
X202713809Y-72941190D02*
X202713809Y-72441190D01*
X202523333Y-72441190D01*
X202475714Y-72465000D01*
X202451904Y-72488809D01*
X202428095Y-72536428D01*
X202428095Y-72607857D01*
X202451904Y-72655476D01*
X202475714Y-72679285D01*
X202523333Y-72703095D01*
X202713809Y-72703095D01*
X202213809Y-72941190D02*
X202213809Y-72441190D01*
X201880476Y-72441190D02*
X201785238Y-72441190D01*
X201737619Y-72465000D01*
X201690000Y-72512619D01*
X201666190Y-72607857D01*
X201666190Y-72774523D01*
X201690000Y-72869761D01*
X201737619Y-72917380D01*
X201785238Y-72941190D01*
X201880476Y-72941190D01*
X201928095Y-72917380D01*
X201975714Y-72869761D01*
X201999523Y-72774523D01*
X201999523Y-72607857D01*
X201975714Y-72512619D01*
X201928095Y-72465000D01*
X201880476Y-72441190D01*
X201428095Y-72941190D02*
X201332857Y-72941190D01*
X201285238Y-72917380D01*
X201261428Y-72893571D01*
X201213809Y-72822142D01*
X201190000Y-72726904D01*
X201190000Y-72536428D01*
X201213809Y-72488809D01*
X201237619Y-72465000D01*
X201285238Y-72441190D01*
X201380476Y-72441190D01*
X201428095Y-72465000D01*
X201451904Y-72488809D01*
X201475714Y-72536428D01*
X201475714Y-72655476D01*
X201451904Y-72703095D01*
X201428095Y-72726904D01*
X201380476Y-72750714D01*
X201285238Y-72750714D01*
X201237619Y-72726904D01*
X201213809Y-72703095D01*
X201190000Y-72655476D01*
X200594761Y-72750714D02*
X200213809Y-72750714D01*
X199594761Y-72441190D02*
X199594761Y-72845952D01*
X199570952Y-72893571D01*
X199547142Y-72917380D01*
X199499523Y-72941190D01*
X199404285Y-72941190D01*
X199356666Y-72917380D01*
X199332857Y-72893571D01*
X199309047Y-72845952D01*
X199309047Y-72441190D01*
X199094761Y-72798333D02*
X198856666Y-72798333D01*
X199142380Y-72941190D02*
X198975714Y-72441190D01*
X198809047Y-72941190D01*
X198356666Y-72941190D02*
X198523333Y-72703095D01*
X198642380Y-72941190D02*
X198642380Y-72441190D01*
X198451904Y-72441190D01*
X198404285Y-72465000D01*
X198380476Y-72488809D01*
X198356666Y-72536428D01*
X198356666Y-72607857D01*
X198380476Y-72655476D01*
X198404285Y-72679285D01*
X198451904Y-72703095D01*
X198642380Y-72703095D01*
X198213809Y-72441190D02*
X197928095Y-72441190D01*
X198070952Y-72941190D02*
X198070952Y-72441190D01*
X197499523Y-72941190D02*
X197785238Y-72941190D01*
X197642380Y-72941190D02*
X197642380Y-72441190D01*
X197690000Y-72512619D01*
X197737619Y-72560238D01*
X197785238Y-72584047D01*
X196618571Y-72941190D02*
X196785238Y-72703095D01*
X196904285Y-72941190D02*
X196904285Y-72441190D01*
X196713809Y-72441190D01*
X196666190Y-72465000D01*
X196642380Y-72488809D01*
X196618571Y-72536428D01*
X196618571Y-72607857D01*
X196642380Y-72655476D01*
X196666190Y-72679285D01*
X196713809Y-72703095D01*
X196904285Y-72703095D01*
X196451904Y-72441190D02*
X196118571Y-72941190D01*
X196118571Y-72441190D02*
X196451904Y-72941190D01*
X202975714Y-73340000D02*
X203023333Y-73316190D01*
X203094761Y-73316190D01*
X203166190Y-73340000D01*
X203213809Y-73387619D01*
X203237619Y-73435238D01*
X203261428Y-73530476D01*
X203261428Y-73601904D01*
X203237619Y-73697142D01*
X203213809Y-73744761D01*
X203166190Y-73792380D01*
X203094761Y-73816190D01*
X203047142Y-73816190D01*
X202975714Y-73792380D01*
X202951904Y-73768571D01*
X202951904Y-73601904D01*
X203047142Y-73601904D01*
X202737619Y-73816190D02*
X202737619Y-73316190D01*
X202547142Y-73316190D01*
X202499523Y-73340000D01*
X202475714Y-73363809D01*
X202451904Y-73411428D01*
X202451904Y-73482857D01*
X202475714Y-73530476D01*
X202499523Y-73554285D01*
X202547142Y-73578095D01*
X202737619Y-73578095D01*
X202237619Y-73816190D02*
X202237619Y-73316190D01*
X201904285Y-73316190D02*
X201809047Y-73316190D01*
X201761428Y-73340000D01*
X201713809Y-73387619D01*
X201690000Y-73482857D01*
X201690000Y-73649523D01*
X201713809Y-73744761D01*
X201761428Y-73792380D01*
X201809047Y-73816190D01*
X201904285Y-73816190D01*
X201951904Y-73792380D01*
X201999523Y-73744761D01*
X202023333Y-73649523D01*
X202023333Y-73482857D01*
X201999523Y-73387619D01*
X201951904Y-73340000D01*
X201904285Y-73316190D01*
X201213809Y-73816190D02*
X201499523Y-73816190D01*
X201356666Y-73816190D02*
X201356666Y-73316190D01*
X201404285Y-73387619D01*
X201451904Y-73435238D01*
X201499523Y-73459047D01*
X200904285Y-73316190D02*
X200856666Y-73316190D01*
X200809047Y-73340000D01*
X200785238Y-73363809D01*
X200761428Y-73411428D01*
X200737619Y-73506666D01*
X200737619Y-73625714D01*
X200761428Y-73720952D01*
X200785238Y-73768571D01*
X200809047Y-73792380D01*
X200856666Y-73816190D01*
X200904285Y-73816190D01*
X200951904Y-73792380D01*
X200975714Y-73768571D01*
X200999523Y-73720952D01*
X201023333Y-73625714D01*
X201023333Y-73506666D01*
X200999523Y-73411428D01*
X200975714Y-73363809D01*
X200951904Y-73340000D01*
X200904285Y-73316190D01*
X200142380Y-73625714D02*
X199761428Y-73625714D01*
X199166190Y-73792380D02*
X199094761Y-73816190D01*
X198975714Y-73816190D01*
X198928095Y-73792380D01*
X198904285Y-73768571D01*
X198880476Y-73720952D01*
X198880476Y-73673333D01*
X198904285Y-73625714D01*
X198928095Y-73601904D01*
X198975714Y-73578095D01*
X199070952Y-73554285D01*
X199118571Y-73530476D01*
X199142380Y-73506666D01*
X199166190Y-73459047D01*
X199166190Y-73411428D01*
X199142380Y-73363809D01*
X199118571Y-73340000D01*
X199070952Y-73316190D01*
X198951904Y-73316190D01*
X198880476Y-73340000D01*
X198666190Y-73554285D02*
X198499523Y-73554285D01*
X198428095Y-73816190D02*
X198666190Y-73816190D01*
X198666190Y-73316190D01*
X198428095Y-73316190D01*
X197928095Y-73816190D02*
X198094761Y-73578095D01*
X198213809Y-73816190D02*
X198213809Y-73316190D01*
X198023333Y-73316190D01*
X197975714Y-73340000D01*
X197951904Y-73363809D01*
X197928095Y-73411428D01*
X197928095Y-73482857D01*
X197951904Y-73530476D01*
X197975714Y-73554285D01*
X198023333Y-73578095D01*
X198213809Y-73578095D01*
X197785238Y-73316190D02*
X197618571Y-73816190D01*
X197451904Y-73316190D01*
X197190000Y-73316190D02*
X197094761Y-73316190D01*
X197047142Y-73340000D01*
X196999523Y-73387619D01*
X196975714Y-73482857D01*
X196975714Y-73649523D01*
X196999523Y-73744761D01*
X197047142Y-73792380D01*
X197094761Y-73816190D01*
X197190000Y-73816190D01*
X197237619Y-73792380D01*
X197285238Y-73744761D01*
X197309047Y-73649523D01*
X197309047Y-73482857D01*
X197285238Y-73387619D01*
X197237619Y-73340000D01*
X197190000Y-73316190D01*
X196166190Y-73316190D02*
X196261428Y-73316190D01*
X196309047Y-73340000D01*
X196332857Y-73363809D01*
X196380476Y-73435238D01*
X196404285Y-73530476D01*
X196404285Y-73720952D01*
X196380476Y-73768571D01*
X196356666Y-73792380D01*
X196309047Y-73816190D01*
X196213809Y-73816190D01*
X196166190Y-73792380D01*
X196142380Y-73768571D01*
X196118571Y-73720952D01*
X196118571Y-73601904D01*
X196142380Y-73554285D01*
X196166190Y-73530476D01*
X196213809Y-73506666D01*
X196309047Y-73506666D01*
X196356666Y-73530476D01*
X196380476Y-73554285D01*
X196404285Y-73601904D01*
X202975714Y-74215000D02*
X203023333Y-74191190D01*
X203094761Y-74191190D01*
X203166190Y-74215000D01*
X203213809Y-74262619D01*
X203237619Y-74310238D01*
X203261428Y-74405476D01*
X203261428Y-74476904D01*
X203237619Y-74572142D01*
X203213809Y-74619761D01*
X203166190Y-74667380D01*
X203094761Y-74691190D01*
X203047142Y-74691190D01*
X202975714Y-74667380D01*
X202951904Y-74643571D01*
X202951904Y-74476904D01*
X203047142Y-74476904D01*
X202737619Y-74691190D02*
X202737619Y-74191190D01*
X202547142Y-74191190D01*
X202499523Y-74215000D01*
X202475714Y-74238809D01*
X202451904Y-74286428D01*
X202451904Y-74357857D01*
X202475714Y-74405476D01*
X202499523Y-74429285D01*
X202547142Y-74453095D01*
X202737619Y-74453095D01*
X202237619Y-74691190D02*
X202237619Y-74191190D01*
X201904285Y-74191190D02*
X201809047Y-74191190D01*
X201761428Y-74215000D01*
X201713809Y-74262619D01*
X201690000Y-74357857D01*
X201690000Y-74524523D01*
X201713809Y-74619761D01*
X201761428Y-74667380D01*
X201809047Y-74691190D01*
X201904285Y-74691190D01*
X201951904Y-74667380D01*
X201999523Y-74619761D01*
X202023333Y-74524523D01*
X202023333Y-74357857D01*
X201999523Y-74262619D01*
X201951904Y-74215000D01*
X201904285Y-74191190D01*
X201213809Y-74691190D02*
X201499523Y-74691190D01*
X201356666Y-74691190D02*
X201356666Y-74191190D01*
X201404285Y-74262619D01*
X201451904Y-74310238D01*
X201499523Y-74334047D01*
X200737619Y-74691190D02*
X201023333Y-74691190D01*
X200880476Y-74691190D02*
X200880476Y-74191190D01*
X200928095Y-74262619D01*
X200975714Y-74310238D01*
X201023333Y-74334047D01*
X200142380Y-74500714D02*
X199761428Y-74500714D01*
X199166190Y-74667380D02*
X199094761Y-74691190D01*
X198975714Y-74691190D01*
X198928095Y-74667380D01*
X198904285Y-74643571D01*
X198880476Y-74595952D01*
X198880476Y-74548333D01*
X198904285Y-74500714D01*
X198928095Y-74476904D01*
X198975714Y-74453095D01*
X199070952Y-74429285D01*
X199118571Y-74405476D01*
X199142380Y-74381666D01*
X199166190Y-74334047D01*
X199166190Y-74286428D01*
X199142380Y-74238809D01*
X199118571Y-74215000D01*
X199070952Y-74191190D01*
X198951904Y-74191190D01*
X198880476Y-74215000D01*
X198666190Y-74429285D02*
X198499523Y-74429285D01*
X198428095Y-74691190D02*
X198666190Y-74691190D01*
X198666190Y-74191190D01*
X198428095Y-74191190D01*
X197928095Y-74691190D02*
X198094761Y-74453095D01*
X198213809Y-74691190D02*
X198213809Y-74191190D01*
X198023333Y-74191190D01*
X197975714Y-74215000D01*
X197951904Y-74238809D01*
X197928095Y-74286428D01*
X197928095Y-74357857D01*
X197951904Y-74405476D01*
X197975714Y-74429285D01*
X198023333Y-74453095D01*
X198213809Y-74453095D01*
X197785238Y-74191190D02*
X197618571Y-74691190D01*
X197451904Y-74191190D01*
X197190000Y-74191190D02*
X197094761Y-74191190D01*
X197047142Y-74215000D01*
X196999523Y-74262619D01*
X196975714Y-74357857D01*
X196975714Y-74524523D01*
X196999523Y-74619761D01*
X197047142Y-74667380D01*
X197094761Y-74691190D01*
X197190000Y-74691190D01*
X197237619Y-74667380D01*
X197285238Y-74619761D01*
X197309047Y-74524523D01*
X197309047Y-74357857D01*
X197285238Y-74262619D01*
X197237619Y-74215000D01*
X197190000Y-74191190D01*
X196142380Y-74191190D02*
X196380476Y-74191190D01*
X196404285Y-74429285D01*
X196380476Y-74405476D01*
X196332857Y-74381666D01*
X196213809Y-74381666D01*
X196166190Y-74405476D01*
X196142380Y-74429285D01*
X196118571Y-74476904D01*
X196118571Y-74595952D01*
X196142380Y-74643571D01*
X196166190Y-74667380D01*
X196213809Y-74691190D01*
X196332857Y-74691190D01*
X196380476Y-74667380D01*
X196404285Y-74643571D01*
X202975714Y-75090000D02*
X203023333Y-75066190D01*
X203094761Y-75066190D01*
X203166190Y-75090000D01*
X203213809Y-75137619D01*
X203237619Y-75185238D01*
X203261428Y-75280476D01*
X203261428Y-75351904D01*
X203237619Y-75447142D01*
X203213809Y-75494761D01*
X203166190Y-75542380D01*
X203094761Y-75566190D01*
X203047142Y-75566190D01*
X202975714Y-75542380D01*
X202951904Y-75518571D01*
X202951904Y-75351904D01*
X203047142Y-75351904D01*
X202737619Y-75566190D02*
X202737619Y-75066190D01*
X202547142Y-75066190D01*
X202499523Y-75090000D01*
X202475714Y-75113809D01*
X202451904Y-75161428D01*
X202451904Y-75232857D01*
X202475714Y-75280476D01*
X202499523Y-75304285D01*
X202547142Y-75328095D01*
X202737619Y-75328095D01*
X202237619Y-75566190D02*
X202237619Y-75066190D01*
X201904285Y-75066190D02*
X201809047Y-75066190D01*
X201761428Y-75090000D01*
X201713809Y-75137619D01*
X201690000Y-75232857D01*
X201690000Y-75399523D01*
X201713809Y-75494761D01*
X201761428Y-75542380D01*
X201809047Y-75566190D01*
X201904285Y-75566190D01*
X201951904Y-75542380D01*
X201999523Y-75494761D01*
X202023333Y-75399523D01*
X202023333Y-75232857D01*
X201999523Y-75137619D01*
X201951904Y-75090000D01*
X201904285Y-75066190D01*
X201213809Y-75566190D02*
X201499523Y-75566190D01*
X201356666Y-75566190D02*
X201356666Y-75066190D01*
X201404285Y-75137619D01*
X201451904Y-75185238D01*
X201499523Y-75209047D01*
X201023333Y-75113809D02*
X200999523Y-75090000D01*
X200951904Y-75066190D01*
X200832857Y-75066190D01*
X200785238Y-75090000D01*
X200761428Y-75113809D01*
X200737619Y-75161428D01*
X200737619Y-75209047D01*
X200761428Y-75280476D01*
X201047142Y-75566190D01*
X200737619Y-75566190D01*
X200142380Y-75375714D02*
X199761428Y-75375714D01*
X199166190Y-75542380D02*
X199094761Y-75566190D01*
X198975714Y-75566190D01*
X198928095Y-75542380D01*
X198904285Y-75518571D01*
X198880476Y-75470952D01*
X198880476Y-75423333D01*
X198904285Y-75375714D01*
X198928095Y-75351904D01*
X198975714Y-75328095D01*
X199070952Y-75304285D01*
X199118571Y-75280476D01*
X199142380Y-75256666D01*
X199166190Y-75209047D01*
X199166190Y-75161428D01*
X199142380Y-75113809D01*
X199118571Y-75090000D01*
X199070952Y-75066190D01*
X198951904Y-75066190D01*
X198880476Y-75090000D01*
X198666190Y-75304285D02*
X198499523Y-75304285D01*
X198428095Y-75566190D02*
X198666190Y-75566190D01*
X198666190Y-75066190D01*
X198428095Y-75066190D01*
X197928095Y-75566190D02*
X198094761Y-75328095D01*
X198213809Y-75566190D02*
X198213809Y-75066190D01*
X198023333Y-75066190D01*
X197975714Y-75090000D01*
X197951904Y-75113809D01*
X197928095Y-75161428D01*
X197928095Y-75232857D01*
X197951904Y-75280476D01*
X197975714Y-75304285D01*
X198023333Y-75328095D01*
X198213809Y-75328095D01*
X197785238Y-75066190D02*
X197618571Y-75566190D01*
X197451904Y-75066190D01*
X197190000Y-75066190D02*
X197094761Y-75066190D01*
X197047142Y-75090000D01*
X196999523Y-75137619D01*
X196975714Y-75232857D01*
X196975714Y-75399523D01*
X196999523Y-75494761D01*
X197047142Y-75542380D01*
X197094761Y-75566190D01*
X197190000Y-75566190D01*
X197237619Y-75542380D01*
X197285238Y-75494761D01*
X197309047Y-75399523D01*
X197309047Y-75232857D01*
X197285238Y-75137619D01*
X197237619Y-75090000D01*
X197190000Y-75066190D01*
X196166190Y-75232857D02*
X196166190Y-75566190D01*
X196285238Y-75042380D02*
X196404285Y-75399523D01*
X196094761Y-75399523D01*
X202975714Y-75965000D02*
X203023333Y-75941190D01*
X203094761Y-75941190D01*
X203166190Y-75965000D01*
X203213809Y-76012619D01*
X203237619Y-76060238D01*
X203261428Y-76155476D01*
X203261428Y-76226904D01*
X203237619Y-76322142D01*
X203213809Y-76369761D01*
X203166190Y-76417380D01*
X203094761Y-76441190D01*
X203047142Y-76441190D01*
X202975714Y-76417380D01*
X202951904Y-76393571D01*
X202951904Y-76226904D01*
X203047142Y-76226904D01*
X202737619Y-76441190D02*
X202737619Y-75941190D01*
X202547142Y-75941190D01*
X202499523Y-75965000D01*
X202475714Y-75988809D01*
X202451904Y-76036428D01*
X202451904Y-76107857D01*
X202475714Y-76155476D01*
X202499523Y-76179285D01*
X202547142Y-76203095D01*
X202737619Y-76203095D01*
X202237619Y-76441190D02*
X202237619Y-75941190D01*
X201904285Y-75941190D02*
X201809047Y-75941190D01*
X201761428Y-75965000D01*
X201713809Y-76012619D01*
X201690000Y-76107857D01*
X201690000Y-76274523D01*
X201713809Y-76369761D01*
X201761428Y-76417380D01*
X201809047Y-76441190D01*
X201904285Y-76441190D01*
X201951904Y-76417380D01*
X201999523Y-76369761D01*
X202023333Y-76274523D01*
X202023333Y-76107857D01*
X201999523Y-76012619D01*
X201951904Y-75965000D01*
X201904285Y-75941190D01*
X201213809Y-76441190D02*
X201499523Y-76441190D01*
X201356666Y-76441190D02*
X201356666Y-75941190D01*
X201404285Y-76012619D01*
X201451904Y-76060238D01*
X201499523Y-76084047D01*
X201047142Y-75941190D02*
X200737619Y-75941190D01*
X200904285Y-76131666D01*
X200832857Y-76131666D01*
X200785238Y-76155476D01*
X200761428Y-76179285D01*
X200737619Y-76226904D01*
X200737619Y-76345952D01*
X200761428Y-76393571D01*
X200785238Y-76417380D01*
X200832857Y-76441190D01*
X200975714Y-76441190D01*
X201023333Y-76417380D01*
X201047142Y-76393571D01*
X200142380Y-76250714D02*
X199761428Y-76250714D01*
X199166190Y-76417380D02*
X199094761Y-76441190D01*
X198975714Y-76441190D01*
X198928095Y-76417380D01*
X198904285Y-76393571D01*
X198880476Y-76345952D01*
X198880476Y-76298333D01*
X198904285Y-76250714D01*
X198928095Y-76226904D01*
X198975714Y-76203095D01*
X199070952Y-76179285D01*
X199118571Y-76155476D01*
X199142380Y-76131666D01*
X199166190Y-76084047D01*
X199166190Y-76036428D01*
X199142380Y-75988809D01*
X199118571Y-75965000D01*
X199070952Y-75941190D01*
X198951904Y-75941190D01*
X198880476Y-75965000D01*
X198666190Y-76179285D02*
X198499523Y-76179285D01*
X198428095Y-76441190D02*
X198666190Y-76441190D01*
X198666190Y-75941190D01*
X198428095Y-75941190D01*
X197928095Y-76441190D02*
X198094761Y-76203095D01*
X198213809Y-76441190D02*
X198213809Y-75941190D01*
X198023333Y-75941190D01*
X197975714Y-75965000D01*
X197951904Y-75988809D01*
X197928095Y-76036428D01*
X197928095Y-76107857D01*
X197951904Y-76155476D01*
X197975714Y-76179285D01*
X198023333Y-76203095D01*
X198213809Y-76203095D01*
X197785238Y-75941190D02*
X197618571Y-76441190D01*
X197451904Y-75941190D01*
X197190000Y-75941190D02*
X197094761Y-75941190D01*
X197047142Y-75965000D01*
X196999523Y-76012619D01*
X196975714Y-76107857D01*
X196975714Y-76274523D01*
X196999523Y-76369761D01*
X197047142Y-76417380D01*
X197094761Y-76441190D01*
X197190000Y-76441190D01*
X197237619Y-76417380D01*
X197285238Y-76369761D01*
X197309047Y-76274523D01*
X197309047Y-76107857D01*
X197285238Y-76012619D01*
X197237619Y-75965000D01*
X197190000Y-75941190D01*
X196428095Y-75941190D02*
X196118571Y-75941190D01*
X196285238Y-76131666D01*
X196213809Y-76131666D01*
X196166190Y-76155476D01*
X196142380Y-76179285D01*
X196118571Y-76226904D01*
X196118571Y-76345952D01*
X196142380Y-76393571D01*
X196166190Y-76417380D01*
X196213809Y-76441190D01*
X196356666Y-76441190D01*
X196404285Y-76417380D01*
X196428095Y-76393571D01*
X202975714Y-76840000D02*
X203023333Y-76816190D01*
X203094761Y-76816190D01*
X203166190Y-76840000D01*
X203213809Y-76887619D01*
X203237619Y-76935238D01*
X203261428Y-77030476D01*
X203261428Y-77101904D01*
X203237619Y-77197142D01*
X203213809Y-77244761D01*
X203166190Y-77292380D01*
X203094761Y-77316190D01*
X203047142Y-77316190D01*
X202975714Y-77292380D01*
X202951904Y-77268571D01*
X202951904Y-77101904D01*
X203047142Y-77101904D01*
X202737619Y-77316190D02*
X202737619Y-76816190D01*
X202547142Y-76816190D01*
X202499523Y-76840000D01*
X202475714Y-76863809D01*
X202451904Y-76911428D01*
X202451904Y-76982857D01*
X202475714Y-77030476D01*
X202499523Y-77054285D01*
X202547142Y-77078095D01*
X202737619Y-77078095D01*
X202237619Y-77316190D02*
X202237619Y-76816190D01*
X201904285Y-76816190D02*
X201809047Y-76816190D01*
X201761428Y-76840000D01*
X201713809Y-76887619D01*
X201690000Y-76982857D01*
X201690000Y-77149523D01*
X201713809Y-77244761D01*
X201761428Y-77292380D01*
X201809047Y-77316190D01*
X201904285Y-77316190D01*
X201951904Y-77292380D01*
X201999523Y-77244761D01*
X202023333Y-77149523D01*
X202023333Y-76982857D01*
X201999523Y-76887619D01*
X201951904Y-76840000D01*
X201904285Y-76816190D01*
X201213809Y-77316190D02*
X201499523Y-77316190D01*
X201356666Y-77316190D02*
X201356666Y-76816190D01*
X201404285Y-76887619D01*
X201451904Y-76935238D01*
X201499523Y-76959047D01*
X200785238Y-76982857D02*
X200785238Y-77316190D01*
X200904285Y-76792380D02*
X201023333Y-77149523D01*
X200713809Y-77149523D01*
X200142380Y-77125714D02*
X199761428Y-77125714D01*
X199166190Y-77292380D02*
X199094761Y-77316190D01*
X198975714Y-77316190D01*
X198928095Y-77292380D01*
X198904285Y-77268571D01*
X198880476Y-77220952D01*
X198880476Y-77173333D01*
X198904285Y-77125714D01*
X198928095Y-77101904D01*
X198975714Y-77078095D01*
X199070952Y-77054285D01*
X199118571Y-77030476D01*
X199142380Y-77006666D01*
X199166190Y-76959047D01*
X199166190Y-76911428D01*
X199142380Y-76863809D01*
X199118571Y-76840000D01*
X199070952Y-76816190D01*
X198951904Y-76816190D01*
X198880476Y-76840000D01*
X198666190Y-77054285D02*
X198499523Y-77054285D01*
X198428095Y-77316190D02*
X198666190Y-77316190D01*
X198666190Y-76816190D01*
X198428095Y-76816190D01*
X197928095Y-77316190D02*
X198094761Y-77078095D01*
X198213809Y-77316190D02*
X198213809Y-76816190D01*
X198023333Y-76816190D01*
X197975714Y-76840000D01*
X197951904Y-76863809D01*
X197928095Y-76911428D01*
X197928095Y-76982857D01*
X197951904Y-77030476D01*
X197975714Y-77054285D01*
X198023333Y-77078095D01*
X198213809Y-77078095D01*
X197785238Y-76816190D02*
X197618571Y-77316190D01*
X197451904Y-76816190D01*
X197190000Y-76816190D02*
X197094761Y-76816190D01*
X197047142Y-76840000D01*
X196999523Y-76887619D01*
X196975714Y-76982857D01*
X196975714Y-77149523D01*
X196999523Y-77244761D01*
X197047142Y-77292380D01*
X197094761Y-77316190D01*
X197190000Y-77316190D01*
X197237619Y-77292380D01*
X197285238Y-77244761D01*
X197309047Y-77149523D01*
X197309047Y-76982857D01*
X197285238Y-76887619D01*
X197237619Y-76840000D01*
X197190000Y-76816190D01*
X196404285Y-76863809D02*
X196380476Y-76840000D01*
X196332857Y-76816190D01*
X196213809Y-76816190D01*
X196166190Y-76840000D01*
X196142380Y-76863809D01*
X196118571Y-76911428D01*
X196118571Y-76959047D01*
X196142380Y-77030476D01*
X196428095Y-77316190D01*
X196118571Y-77316190D01*
X202975714Y-77715000D02*
X203023333Y-77691190D01*
X203094761Y-77691190D01*
X203166190Y-77715000D01*
X203213809Y-77762619D01*
X203237619Y-77810238D01*
X203261428Y-77905476D01*
X203261428Y-77976904D01*
X203237619Y-78072142D01*
X203213809Y-78119761D01*
X203166190Y-78167380D01*
X203094761Y-78191190D01*
X203047142Y-78191190D01*
X202975714Y-78167380D01*
X202951904Y-78143571D01*
X202951904Y-77976904D01*
X203047142Y-77976904D01*
X202737619Y-78191190D02*
X202737619Y-77691190D01*
X202547142Y-77691190D01*
X202499523Y-77715000D01*
X202475714Y-77738809D01*
X202451904Y-77786428D01*
X202451904Y-77857857D01*
X202475714Y-77905476D01*
X202499523Y-77929285D01*
X202547142Y-77953095D01*
X202737619Y-77953095D01*
X202237619Y-78191190D02*
X202237619Y-77691190D01*
X201904285Y-77691190D02*
X201809047Y-77691190D01*
X201761428Y-77715000D01*
X201713809Y-77762619D01*
X201690000Y-77857857D01*
X201690000Y-78024523D01*
X201713809Y-78119761D01*
X201761428Y-78167380D01*
X201809047Y-78191190D01*
X201904285Y-78191190D01*
X201951904Y-78167380D01*
X201999523Y-78119761D01*
X202023333Y-78024523D01*
X202023333Y-77857857D01*
X201999523Y-77762619D01*
X201951904Y-77715000D01*
X201904285Y-77691190D01*
X201213809Y-78191190D02*
X201499523Y-78191190D01*
X201356666Y-78191190D02*
X201356666Y-77691190D01*
X201404285Y-77762619D01*
X201451904Y-77810238D01*
X201499523Y-77834047D01*
X200761428Y-77691190D02*
X200999523Y-77691190D01*
X201023333Y-77929285D01*
X200999523Y-77905476D01*
X200951904Y-77881666D01*
X200832857Y-77881666D01*
X200785238Y-77905476D01*
X200761428Y-77929285D01*
X200737619Y-77976904D01*
X200737619Y-78095952D01*
X200761428Y-78143571D01*
X200785238Y-78167380D01*
X200832857Y-78191190D01*
X200951904Y-78191190D01*
X200999523Y-78167380D01*
X201023333Y-78143571D01*
X200142380Y-78000714D02*
X199761428Y-78000714D01*
X199166190Y-78167380D02*
X199094761Y-78191190D01*
X198975714Y-78191190D01*
X198928095Y-78167380D01*
X198904285Y-78143571D01*
X198880476Y-78095952D01*
X198880476Y-78048333D01*
X198904285Y-78000714D01*
X198928095Y-77976904D01*
X198975714Y-77953095D01*
X199070952Y-77929285D01*
X199118571Y-77905476D01*
X199142380Y-77881666D01*
X199166190Y-77834047D01*
X199166190Y-77786428D01*
X199142380Y-77738809D01*
X199118571Y-77715000D01*
X199070952Y-77691190D01*
X198951904Y-77691190D01*
X198880476Y-77715000D01*
X198666190Y-77929285D02*
X198499523Y-77929285D01*
X198428095Y-78191190D02*
X198666190Y-78191190D01*
X198666190Y-77691190D01*
X198428095Y-77691190D01*
X197928095Y-78191190D02*
X198094761Y-77953095D01*
X198213809Y-78191190D02*
X198213809Y-77691190D01*
X198023333Y-77691190D01*
X197975714Y-77715000D01*
X197951904Y-77738809D01*
X197928095Y-77786428D01*
X197928095Y-77857857D01*
X197951904Y-77905476D01*
X197975714Y-77929285D01*
X198023333Y-77953095D01*
X198213809Y-77953095D01*
X197785238Y-77691190D02*
X197618571Y-78191190D01*
X197451904Y-77691190D01*
X197190000Y-77691190D02*
X197094761Y-77691190D01*
X197047142Y-77715000D01*
X196999523Y-77762619D01*
X196975714Y-77857857D01*
X196975714Y-78024523D01*
X196999523Y-78119761D01*
X197047142Y-78167380D01*
X197094761Y-78191190D01*
X197190000Y-78191190D01*
X197237619Y-78167380D01*
X197285238Y-78119761D01*
X197309047Y-78024523D01*
X197309047Y-77857857D01*
X197285238Y-77762619D01*
X197237619Y-77715000D01*
X197190000Y-77691190D01*
X196118571Y-78191190D02*
X196404285Y-78191190D01*
X196261428Y-78191190D02*
X196261428Y-77691190D01*
X196309047Y-77762619D01*
X196356666Y-77810238D01*
X196404285Y-77834047D01*
X203130476Y-78590000D02*
X203178095Y-78566190D01*
X203249523Y-78566190D01*
X203320952Y-78590000D01*
X203368571Y-78637619D01*
X203392380Y-78685238D01*
X203416190Y-78780476D01*
X203416190Y-78851904D01*
X203392380Y-78947142D01*
X203368571Y-78994761D01*
X203320952Y-79042380D01*
X203249523Y-79066190D01*
X203201904Y-79066190D01*
X203130476Y-79042380D01*
X203106666Y-79018571D01*
X203106666Y-78851904D01*
X203201904Y-78851904D01*
X202892380Y-79066190D02*
X202892380Y-78566190D01*
X202701904Y-78566190D01*
X202654285Y-78590000D01*
X202630476Y-78613809D01*
X202606666Y-78661428D01*
X202606666Y-78732857D01*
X202630476Y-78780476D01*
X202654285Y-78804285D01*
X202701904Y-78828095D01*
X202892380Y-78828095D01*
X202392380Y-79066190D02*
X202392380Y-78566190D01*
X202059047Y-78566190D02*
X201963809Y-78566190D01*
X201916190Y-78590000D01*
X201868571Y-78637619D01*
X201844761Y-78732857D01*
X201844761Y-78899523D01*
X201868571Y-78994761D01*
X201916190Y-79042380D01*
X201963809Y-79066190D01*
X202059047Y-79066190D01*
X202106666Y-79042380D01*
X202154285Y-78994761D01*
X202178095Y-78899523D01*
X202178095Y-78732857D01*
X202154285Y-78637619D01*
X202106666Y-78590000D01*
X202059047Y-78566190D01*
X201368571Y-79066190D02*
X201654285Y-79066190D01*
X201511428Y-79066190D02*
X201511428Y-78566190D01*
X201559047Y-78637619D01*
X201606666Y-78685238D01*
X201654285Y-78709047D01*
X200940000Y-78566190D02*
X201035238Y-78566190D01*
X201082857Y-78590000D01*
X201106666Y-78613809D01*
X201154285Y-78685238D01*
X201178095Y-78780476D01*
X201178095Y-78970952D01*
X201154285Y-79018571D01*
X201130476Y-79042380D01*
X201082857Y-79066190D01*
X200987619Y-79066190D01*
X200940000Y-79042380D01*
X200916190Y-79018571D01*
X200892380Y-78970952D01*
X200892380Y-78851904D01*
X200916190Y-78804285D01*
X200940000Y-78780476D01*
X200987619Y-78756666D01*
X201082857Y-78756666D01*
X201130476Y-78780476D01*
X201154285Y-78804285D01*
X201178095Y-78851904D01*
X200297142Y-78875714D02*
X199916190Y-78875714D01*
X199297142Y-78566190D02*
X199297142Y-78970952D01*
X199273333Y-79018571D01*
X199249523Y-79042380D01*
X199201904Y-79066190D01*
X199106666Y-79066190D01*
X199059047Y-79042380D01*
X199035238Y-79018571D01*
X199011428Y-78970952D01*
X199011428Y-78566190D01*
X198797142Y-78923333D02*
X198559047Y-78923333D01*
X198844761Y-79066190D02*
X198678095Y-78566190D01*
X198511428Y-79066190D01*
X198059047Y-79066190D02*
X198225714Y-78828095D01*
X198344761Y-79066190D02*
X198344761Y-78566190D01*
X198154285Y-78566190D01*
X198106666Y-78590000D01*
X198082857Y-78613809D01*
X198059047Y-78661428D01*
X198059047Y-78732857D01*
X198082857Y-78780476D01*
X198106666Y-78804285D01*
X198154285Y-78828095D01*
X198344761Y-78828095D01*
X197916190Y-78566190D02*
X197630476Y-78566190D01*
X197773333Y-79066190D02*
X197773333Y-78566190D01*
X197368571Y-78566190D02*
X197320952Y-78566190D01*
X197273333Y-78590000D01*
X197249523Y-78613809D01*
X197225714Y-78661428D01*
X197201904Y-78756666D01*
X197201904Y-78875714D01*
X197225714Y-78970952D01*
X197249523Y-79018571D01*
X197273333Y-79042380D01*
X197320952Y-79066190D01*
X197368571Y-79066190D01*
X197416190Y-79042380D01*
X197440000Y-79018571D01*
X197463809Y-78970952D01*
X197487619Y-78875714D01*
X197487619Y-78756666D01*
X197463809Y-78661428D01*
X197440000Y-78613809D01*
X197416190Y-78590000D01*
X197368571Y-78566190D01*
X196678095Y-78566190D02*
X196392380Y-78566190D01*
X196535238Y-79066190D02*
X196535238Y-78566190D01*
X196273333Y-78566190D02*
X195940000Y-79066190D01*
X195940000Y-78566190D02*
X196273333Y-79066190D01*
X203190000Y-79465000D02*
X203237619Y-79441190D01*
X203309047Y-79441190D01*
X203380476Y-79465000D01*
X203428095Y-79512619D01*
X203451904Y-79560238D01*
X203475714Y-79655476D01*
X203475714Y-79726904D01*
X203451904Y-79822142D01*
X203428095Y-79869761D01*
X203380476Y-79917380D01*
X203309047Y-79941190D01*
X203261428Y-79941190D01*
X203190000Y-79917380D01*
X203166190Y-79893571D01*
X203166190Y-79726904D01*
X203261428Y-79726904D01*
X202951904Y-79941190D02*
X202951904Y-79441190D01*
X202761428Y-79441190D01*
X202713809Y-79465000D01*
X202690000Y-79488809D01*
X202666190Y-79536428D01*
X202666190Y-79607857D01*
X202690000Y-79655476D01*
X202713809Y-79679285D01*
X202761428Y-79703095D01*
X202951904Y-79703095D01*
X202451904Y-79941190D02*
X202451904Y-79441190D01*
X202118571Y-79441190D02*
X202023333Y-79441190D01*
X201975714Y-79465000D01*
X201928095Y-79512619D01*
X201904285Y-79607857D01*
X201904285Y-79774523D01*
X201928095Y-79869761D01*
X201975714Y-79917380D01*
X202023333Y-79941190D01*
X202118571Y-79941190D01*
X202166190Y-79917380D01*
X202213809Y-79869761D01*
X202237619Y-79774523D01*
X202237619Y-79607857D01*
X202213809Y-79512619D01*
X202166190Y-79465000D01*
X202118571Y-79441190D01*
X201428095Y-79941190D02*
X201713809Y-79941190D01*
X201570952Y-79941190D02*
X201570952Y-79441190D01*
X201618571Y-79512619D01*
X201666190Y-79560238D01*
X201713809Y-79584047D01*
X201261428Y-79441190D02*
X200928095Y-79441190D01*
X201142380Y-79941190D01*
X200356666Y-79750714D02*
X199975714Y-79750714D01*
X199356666Y-79441190D02*
X199356666Y-79845952D01*
X199332857Y-79893571D01*
X199309047Y-79917380D01*
X199261428Y-79941190D01*
X199166190Y-79941190D01*
X199118571Y-79917380D01*
X199094761Y-79893571D01*
X199070952Y-79845952D01*
X199070952Y-79441190D01*
X198856666Y-79798333D02*
X198618571Y-79798333D01*
X198904285Y-79941190D02*
X198737619Y-79441190D01*
X198570952Y-79941190D01*
X198118571Y-79941190D02*
X198285238Y-79703095D01*
X198404285Y-79941190D02*
X198404285Y-79441190D01*
X198213809Y-79441190D01*
X198166190Y-79465000D01*
X198142380Y-79488809D01*
X198118571Y-79536428D01*
X198118571Y-79607857D01*
X198142380Y-79655476D01*
X198166190Y-79679285D01*
X198213809Y-79703095D01*
X198404285Y-79703095D01*
X197975714Y-79441190D02*
X197690000Y-79441190D01*
X197832857Y-79941190D02*
X197832857Y-79441190D01*
X197428095Y-79441190D02*
X197380476Y-79441190D01*
X197332857Y-79465000D01*
X197309047Y-79488809D01*
X197285238Y-79536428D01*
X197261428Y-79631666D01*
X197261428Y-79750714D01*
X197285238Y-79845952D01*
X197309047Y-79893571D01*
X197332857Y-79917380D01*
X197380476Y-79941190D01*
X197428095Y-79941190D01*
X197475714Y-79917380D01*
X197499523Y-79893571D01*
X197523333Y-79845952D01*
X197547142Y-79750714D01*
X197547142Y-79631666D01*
X197523333Y-79536428D01*
X197499523Y-79488809D01*
X197475714Y-79465000D01*
X197428095Y-79441190D01*
X196380476Y-79941190D02*
X196547142Y-79703095D01*
X196666190Y-79941190D02*
X196666190Y-79441190D01*
X196475714Y-79441190D01*
X196428095Y-79465000D01*
X196404285Y-79488809D01*
X196380476Y-79536428D01*
X196380476Y-79607857D01*
X196404285Y-79655476D01*
X196428095Y-79679285D01*
X196475714Y-79703095D01*
X196666190Y-79703095D01*
X196213809Y-79441190D02*
X195880476Y-79941190D01*
X195880476Y-79441190D02*
X196213809Y-79941190D01*
X204856666Y-80340000D02*
X204904285Y-80316190D01*
X204975714Y-80316190D01*
X205047142Y-80340000D01*
X205094761Y-80387619D01*
X205118571Y-80435238D01*
X205142380Y-80530476D01*
X205142380Y-80601904D01*
X205118571Y-80697142D01*
X205094761Y-80744761D01*
X205047142Y-80792380D01*
X204975714Y-80816190D01*
X204928095Y-80816190D01*
X204856666Y-80792380D01*
X204832857Y-80768571D01*
X204832857Y-80601904D01*
X204928095Y-80601904D01*
X204618571Y-80816190D02*
X204618571Y-80316190D01*
X204428095Y-80316190D01*
X204380476Y-80340000D01*
X204356666Y-80363809D01*
X204332857Y-80411428D01*
X204332857Y-80482857D01*
X204356666Y-80530476D01*
X204380476Y-80554285D01*
X204428095Y-80578095D01*
X204618571Y-80578095D01*
X204118571Y-80816190D02*
X204118571Y-80316190D01*
X203785238Y-80316190D02*
X203690000Y-80316190D01*
X203642380Y-80340000D01*
X203594761Y-80387619D01*
X203570952Y-80482857D01*
X203570952Y-80649523D01*
X203594761Y-80744761D01*
X203642380Y-80792380D01*
X203690000Y-80816190D01*
X203785238Y-80816190D01*
X203832857Y-80792380D01*
X203880476Y-80744761D01*
X203904285Y-80649523D01*
X203904285Y-80482857D01*
X203880476Y-80387619D01*
X203832857Y-80340000D01*
X203785238Y-80316190D01*
X203380476Y-80363809D02*
X203356666Y-80340000D01*
X203309047Y-80316190D01*
X203190000Y-80316190D01*
X203142380Y-80340000D01*
X203118571Y-80363809D01*
X203094761Y-80411428D01*
X203094761Y-80459047D01*
X203118571Y-80530476D01*
X203404285Y-80816190D01*
X203094761Y-80816190D01*
X202618571Y-80816190D02*
X202904285Y-80816190D01*
X202761428Y-80816190D02*
X202761428Y-80316190D01*
X202809047Y-80387619D01*
X202856666Y-80435238D01*
X202904285Y-80459047D01*
X202023333Y-80625714D02*
X201642380Y-80625714D01*
X201047142Y-80792380D02*
X200975714Y-80816190D01*
X200856666Y-80816190D01*
X200809047Y-80792380D01*
X200785238Y-80768571D01*
X200761428Y-80720952D01*
X200761428Y-80673333D01*
X200785238Y-80625714D01*
X200809047Y-80601904D01*
X200856666Y-80578095D01*
X200951904Y-80554285D01*
X200999523Y-80530476D01*
X201023333Y-80506666D01*
X201047142Y-80459047D01*
X201047142Y-80411428D01*
X201023333Y-80363809D01*
X200999523Y-80340000D01*
X200951904Y-80316190D01*
X200832857Y-80316190D01*
X200761428Y-80340000D01*
X200618571Y-80316190D02*
X200332857Y-80316190D01*
X200475714Y-80816190D02*
X200475714Y-80316190D01*
X200190000Y-80673333D02*
X199951904Y-80673333D01*
X200237619Y-80816190D02*
X200070952Y-80316190D01*
X199904285Y-80816190D01*
X199809047Y-80316190D02*
X199523333Y-80316190D01*
X199666190Y-80816190D02*
X199666190Y-80316190D01*
X199356666Y-80316190D02*
X199356666Y-80720952D01*
X199332857Y-80768571D01*
X199309047Y-80792380D01*
X199261428Y-80816190D01*
X199166190Y-80816190D01*
X199118571Y-80792380D01*
X199094761Y-80768571D01*
X199070952Y-80720952D01*
X199070952Y-80316190D01*
X198856666Y-80792380D02*
X198785238Y-80816190D01*
X198666190Y-80816190D01*
X198618571Y-80792380D01*
X198594761Y-80768571D01*
X198570952Y-80720952D01*
X198570952Y-80673333D01*
X198594761Y-80625714D01*
X198618571Y-80601904D01*
X198666190Y-80578095D01*
X198761428Y-80554285D01*
X198809047Y-80530476D01*
X198832857Y-80506666D01*
X198856666Y-80459047D01*
X198856666Y-80411428D01*
X198832857Y-80363809D01*
X198809047Y-80340000D01*
X198761428Y-80316190D01*
X198642380Y-80316190D01*
X198570952Y-80340000D01*
X197690000Y-80816190D02*
X197856666Y-80578095D01*
X197975714Y-80816190D02*
X197975714Y-80316190D01*
X197785238Y-80316190D01*
X197737619Y-80340000D01*
X197713809Y-80363809D01*
X197690000Y-80411428D01*
X197690000Y-80482857D01*
X197713809Y-80530476D01*
X197737619Y-80554285D01*
X197785238Y-80578095D01*
X197975714Y-80578095D01*
X197475714Y-80554285D02*
X197309047Y-80554285D01*
X197237619Y-80816190D02*
X197475714Y-80816190D01*
X197475714Y-80316190D01*
X197237619Y-80316190D01*
X197023333Y-80816190D02*
X197023333Y-80316190D01*
X196904285Y-80316190D01*
X196832857Y-80340000D01*
X196785238Y-80387619D01*
X196761428Y-80435238D01*
X196737619Y-80530476D01*
X196737619Y-80601904D01*
X196761428Y-80697142D01*
X196785238Y-80744761D01*
X196832857Y-80792380D01*
X196904285Y-80816190D01*
X197023333Y-80816190D01*
X195999523Y-80982857D02*
X196118571Y-80982857D01*
X196118571Y-80268571D01*
X195999523Y-80268571D01*
X195809047Y-80554285D02*
X195642380Y-80554285D01*
X195570952Y-80816190D02*
X195809047Y-80816190D01*
X195809047Y-80316190D01*
X195570952Y-80316190D01*
X195070952Y-80816190D02*
X195237619Y-80578095D01*
X195356666Y-80816190D02*
X195356666Y-80316190D01*
X195166190Y-80316190D01*
X195118571Y-80340000D01*
X195094761Y-80363809D01*
X195070952Y-80411428D01*
X195070952Y-80482857D01*
X195094761Y-80530476D01*
X195118571Y-80554285D01*
X195166190Y-80578095D01*
X195356666Y-80578095D01*
X194570952Y-80816190D02*
X194737619Y-80578095D01*
X194856666Y-80816190D02*
X194856666Y-80316190D01*
X194666190Y-80316190D01*
X194618571Y-80340000D01*
X194594761Y-80363809D01*
X194570952Y-80411428D01*
X194570952Y-80482857D01*
X194594761Y-80530476D01*
X194618571Y-80554285D01*
X194666190Y-80578095D01*
X194856666Y-80578095D01*
X194404285Y-80982857D02*
X194285238Y-80982857D01*
X194285238Y-80268571D01*
X194404285Y-80268571D01*
X205332857Y-81215000D02*
X205380476Y-81191190D01*
X205451904Y-81191190D01*
X205523333Y-81215000D01*
X205570952Y-81262619D01*
X205594761Y-81310238D01*
X205618571Y-81405476D01*
X205618571Y-81476904D01*
X205594761Y-81572142D01*
X205570952Y-81619761D01*
X205523333Y-81667380D01*
X205451904Y-81691190D01*
X205404285Y-81691190D01*
X205332857Y-81667380D01*
X205309047Y-81643571D01*
X205309047Y-81476904D01*
X205404285Y-81476904D01*
X205094761Y-81691190D02*
X205094761Y-81191190D01*
X204904285Y-81191190D01*
X204856666Y-81215000D01*
X204832857Y-81238809D01*
X204809047Y-81286428D01*
X204809047Y-81357857D01*
X204832857Y-81405476D01*
X204856666Y-81429285D01*
X204904285Y-81453095D01*
X205094761Y-81453095D01*
X204594761Y-81691190D02*
X204594761Y-81191190D01*
X204261428Y-81191190D02*
X204166190Y-81191190D01*
X204118571Y-81215000D01*
X204070952Y-81262619D01*
X204047142Y-81357857D01*
X204047142Y-81524523D01*
X204070952Y-81619761D01*
X204118571Y-81667380D01*
X204166190Y-81691190D01*
X204261428Y-81691190D01*
X204309047Y-81667380D01*
X204356666Y-81619761D01*
X204380476Y-81524523D01*
X204380476Y-81357857D01*
X204356666Y-81262619D01*
X204309047Y-81215000D01*
X204261428Y-81191190D01*
X203856666Y-81238809D02*
X203832857Y-81215000D01*
X203785238Y-81191190D01*
X203666190Y-81191190D01*
X203618571Y-81215000D01*
X203594761Y-81238809D01*
X203570952Y-81286428D01*
X203570952Y-81334047D01*
X203594761Y-81405476D01*
X203880476Y-81691190D01*
X203570952Y-81691190D01*
X203380476Y-81238809D02*
X203356666Y-81215000D01*
X203309047Y-81191190D01*
X203190000Y-81191190D01*
X203142380Y-81215000D01*
X203118571Y-81238809D01*
X203094761Y-81286428D01*
X203094761Y-81334047D01*
X203118571Y-81405476D01*
X203404285Y-81691190D01*
X203094761Y-81691190D01*
X202499523Y-81500714D02*
X202118571Y-81500714D01*
X201523333Y-81667380D02*
X201451904Y-81691190D01*
X201332857Y-81691190D01*
X201285238Y-81667380D01*
X201261428Y-81643571D01*
X201237619Y-81595952D01*
X201237619Y-81548333D01*
X201261428Y-81500714D01*
X201285238Y-81476904D01*
X201332857Y-81453095D01*
X201428095Y-81429285D01*
X201475714Y-81405476D01*
X201499523Y-81381666D01*
X201523333Y-81334047D01*
X201523333Y-81286428D01*
X201499523Y-81238809D01*
X201475714Y-81215000D01*
X201428095Y-81191190D01*
X201309047Y-81191190D01*
X201237619Y-81215000D01*
X201094761Y-81191190D02*
X200809047Y-81191190D01*
X200951904Y-81691190D02*
X200951904Y-81191190D01*
X200666190Y-81548333D02*
X200428095Y-81548333D01*
X200713809Y-81691190D02*
X200547142Y-81191190D01*
X200380476Y-81691190D01*
X200285238Y-81191190D02*
X199999523Y-81191190D01*
X200142380Y-81691190D02*
X200142380Y-81191190D01*
X199832857Y-81191190D02*
X199832857Y-81595952D01*
X199809047Y-81643571D01*
X199785238Y-81667380D01*
X199737619Y-81691190D01*
X199642380Y-81691190D01*
X199594761Y-81667380D01*
X199570952Y-81643571D01*
X199547142Y-81595952D01*
X199547142Y-81191190D01*
X199332857Y-81667380D02*
X199261428Y-81691190D01*
X199142380Y-81691190D01*
X199094761Y-81667380D01*
X199070952Y-81643571D01*
X199047142Y-81595952D01*
X199047142Y-81548333D01*
X199070952Y-81500714D01*
X199094761Y-81476904D01*
X199142380Y-81453095D01*
X199237619Y-81429285D01*
X199285238Y-81405476D01*
X199309047Y-81381666D01*
X199332857Y-81334047D01*
X199332857Y-81286428D01*
X199309047Y-81238809D01*
X199285238Y-81215000D01*
X199237619Y-81191190D01*
X199118571Y-81191190D01*
X199047142Y-81215000D01*
X198190000Y-81215000D02*
X198237619Y-81191190D01*
X198309047Y-81191190D01*
X198380476Y-81215000D01*
X198428095Y-81262619D01*
X198451904Y-81310238D01*
X198475714Y-81405476D01*
X198475714Y-81476904D01*
X198451904Y-81572142D01*
X198428095Y-81619761D01*
X198380476Y-81667380D01*
X198309047Y-81691190D01*
X198261428Y-81691190D01*
X198190000Y-81667380D01*
X198166190Y-81643571D01*
X198166190Y-81476904D01*
X198261428Y-81476904D01*
X197666190Y-81691190D02*
X197832857Y-81453095D01*
X197951904Y-81691190D02*
X197951904Y-81191190D01*
X197761428Y-81191190D01*
X197713809Y-81215000D01*
X197690000Y-81238809D01*
X197666190Y-81286428D01*
X197666190Y-81357857D01*
X197690000Y-81405476D01*
X197713809Y-81429285D01*
X197761428Y-81453095D01*
X197951904Y-81453095D01*
X197451904Y-81429285D02*
X197285238Y-81429285D01*
X197213809Y-81691190D02*
X197451904Y-81691190D01*
X197451904Y-81191190D01*
X197213809Y-81191190D01*
X196999523Y-81429285D02*
X196832857Y-81429285D01*
X196761428Y-81691190D02*
X196999523Y-81691190D01*
X196999523Y-81191190D01*
X196761428Y-81191190D01*
X196547142Y-81691190D02*
X196547142Y-81191190D01*
X196261428Y-81691190D01*
X196261428Y-81191190D01*
X195499523Y-81857857D02*
X195618571Y-81857857D01*
X195618571Y-81143571D01*
X195499523Y-81143571D01*
X195023333Y-81691190D02*
X195190000Y-81453095D01*
X195309047Y-81691190D02*
X195309047Y-81191190D01*
X195118571Y-81191190D01*
X195070952Y-81215000D01*
X195047142Y-81238809D01*
X195023333Y-81286428D01*
X195023333Y-81357857D01*
X195047142Y-81405476D01*
X195070952Y-81429285D01*
X195118571Y-81453095D01*
X195309047Y-81453095D01*
X194809047Y-81691190D02*
X194809047Y-81191190D01*
X194690000Y-81191190D01*
X194618571Y-81215000D01*
X194570952Y-81262619D01*
X194547142Y-81310238D01*
X194523333Y-81405476D01*
X194523333Y-81476904D01*
X194547142Y-81572142D01*
X194570952Y-81619761D01*
X194618571Y-81667380D01*
X194690000Y-81691190D01*
X194809047Y-81691190D01*
X194213809Y-81453095D02*
X194213809Y-81691190D01*
X194380476Y-81191190D02*
X194213809Y-81453095D01*
X194047142Y-81191190D01*
X193928095Y-81857857D02*
X193809047Y-81857857D01*
X193809047Y-81143571D01*
X193928095Y-81143571D01*
X205011428Y-82090000D02*
X205059047Y-82066190D01*
X205130476Y-82066190D01*
X205201904Y-82090000D01*
X205249523Y-82137619D01*
X205273333Y-82185238D01*
X205297142Y-82280476D01*
X205297142Y-82351904D01*
X205273333Y-82447142D01*
X205249523Y-82494761D01*
X205201904Y-82542380D01*
X205130476Y-82566190D01*
X205082857Y-82566190D01*
X205011428Y-82542380D01*
X204987619Y-82518571D01*
X204987619Y-82351904D01*
X205082857Y-82351904D01*
X204773333Y-82566190D02*
X204773333Y-82066190D01*
X204582857Y-82066190D01*
X204535238Y-82090000D01*
X204511428Y-82113809D01*
X204487619Y-82161428D01*
X204487619Y-82232857D01*
X204511428Y-82280476D01*
X204535238Y-82304285D01*
X204582857Y-82328095D01*
X204773333Y-82328095D01*
X204273333Y-82566190D02*
X204273333Y-82066190D01*
X203940000Y-82066190D02*
X203844761Y-82066190D01*
X203797142Y-82090000D01*
X203749523Y-82137619D01*
X203725714Y-82232857D01*
X203725714Y-82399523D01*
X203749523Y-82494761D01*
X203797142Y-82542380D01*
X203844761Y-82566190D01*
X203940000Y-82566190D01*
X203987619Y-82542380D01*
X204035238Y-82494761D01*
X204059047Y-82399523D01*
X204059047Y-82232857D01*
X204035238Y-82137619D01*
X203987619Y-82090000D01*
X203940000Y-82066190D01*
X203535238Y-82113809D02*
X203511428Y-82090000D01*
X203463809Y-82066190D01*
X203344761Y-82066190D01*
X203297142Y-82090000D01*
X203273333Y-82113809D01*
X203249523Y-82161428D01*
X203249523Y-82209047D01*
X203273333Y-82280476D01*
X203559047Y-82566190D01*
X203249523Y-82566190D01*
X203082857Y-82066190D02*
X202773333Y-82066190D01*
X202940000Y-82256666D01*
X202868571Y-82256666D01*
X202820952Y-82280476D01*
X202797142Y-82304285D01*
X202773333Y-82351904D01*
X202773333Y-82470952D01*
X202797142Y-82518571D01*
X202820952Y-82542380D01*
X202868571Y-82566190D01*
X203011428Y-82566190D01*
X203059047Y-82542380D01*
X203082857Y-82518571D01*
X202178095Y-82375714D02*
X201797142Y-82375714D01*
X201201904Y-82542380D02*
X201130476Y-82566190D01*
X201011428Y-82566190D01*
X200963809Y-82542380D01*
X200940000Y-82518571D01*
X200916190Y-82470952D01*
X200916190Y-82423333D01*
X200940000Y-82375714D01*
X200963809Y-82351904D01*
X201011428Y-82328095D01*
X201106666Y-82304285D01*
X201154285Y-82280476D01*
X201178095Y-82256666D01*
X201201904Y-82209047D01*
X201201904Y-82161428D01*
X201178095Y-82113809D01*
X201154285Y-82090000D01*
X201106666Y-82066190D01*
X200987619Y-82066190D01*
X200916190Y-82090000D01*
X200773333Y-82066190D02*
X200487619Y-82066190D01*
X200630476Y-82566190D02*
X200630476Y-82066190D01*
X200344761Y-82423333D02*
X200106666Y-82423333D01*
X200392380Y-82566190D02*
X200225714Y-82066190D01*
X200059047Y-82566190D01*
X199963809Y-82066190D02*
X199678095Y-82066190D01*
X199820952Y-82566190D02*
X199820952Y-82066190D01*
X199511428Y-82066190D02*
X199511428Y-82470952D01*
X199487619Y-82518571D01*
X199463809Y-82542380D01*
X199416190Y-82566190D01*
X199320952Y-82566190D01*
X199273333Y-82542380D01*
X199249523Y-82518571D01*
X199225714Y-82470952D01*
X199225714Y-82066190D01*
X199011428Y-82542380D02*
X198940000Y-82566190D01*
X198820952Y-82566190D01*
X198773333Y-82542380D01*
X198749523Y-82518571D01*
X198725714Y-82470952D01*
X198725714Y-82423333D01*
X198749523Y-82375714D01*
X198773333Y-82351904D01*
X198820952Y-82328095D01*
X198916190Y-82304285D01*
X198963809Y-82280476D01*
X198987619Y-82256666D01*
X199011428Y-82209047D01*
X199011428Y-82161428D01*
X198987619Y-82113809D01*
X198963809Y-82090000D01*
X198916190Y-82066190D01*
X198797142Y-82066190D01*
X198725714Y-82090000D01*
X197963809Y-82304285D02*
X197892380Y-82328095D01*
X197868571Y-82351904D01*
X197844761Y-82399523D01*
X197844761Y-82470952D01*
X197868571Y-82518571D01*
X197892380Y-82542380D01*
X197940000Y-82566190D01*
X198130476Y-82566190D01*
X198130476Y-82066190D01*
X197963809Y-82066190D01*
X197916190Y-82090000D01*
X197892380Y-82113809D01*
X197868571Y-82161428D01*
X197868571Y-82209047D01*
X197892380Y-82256666D01*
X197916190Y-82280476D01*
X197963809Y-82304285D01*
X198130476Y-82304285D01*
X197392380Y-82566190D02*
X197630476Y-82566190D01*
X197630476Y-82066190D01*
X197225714Y-82066190D02*
X197225714Y-82470952D01*
X197201904Y-82518571D01*
X197178095Y-82542380D01*
X197130476Y-82566190D01*
X197035238Y-82566190D01*
X196987619Y-82542380D01*
X196963809Y-82518571D01*
X196940000Y-82470952D01*
X196940000Y-82066190D01*
X196701904Y-82304285D02*
X196535238Y-82304285D01*
X196463809Y-82566190D02*
X196701904Y-82566190D01*
X196701904Y-82066190D01*
X196463809Y-82066190D01*
X195725714Y-82732857D02*
X195844761Y-82732857D01*
X195844761Y-82018571D01*
X195725714Y-82018571D01*
X195249523Y-82518571D02*
X195273333Y-82542380D01*
X195344761Y-82566190D01*
X195392380Y-82566190D01*
X195463809Y-82542380D01*
X195511428Y-82494761D01*
X195535238Y-82447142D01*
X195559047Y-82351904D01*
X195559047Y-82280476D01*
X195535238Y-82185238D01*
X195511428Y-82137619D01*
X195463809Y-82090000D01*
X195392380Y-82066190D01*
X195344761Y-82066190D01*
X195273333Y-82090000D01*
X195249523Y-82113809D01*
X195059047Y-82423333D02*
X194820952Y-82423333D01*
X195106666Y-82566190D02*
X194940000Y-82066190D01*
X194773333Y-82566190D01*
X194368571Y-82566190D02*
X194606666Y-82566190D01*
X194606666Y-82066190D01*
X194249523Y-82732857D02*
X194130476Y-82732857D01*
X194130476Y-82018571D01*
X194249523Y-82018571D01*
X203094761Y-82965000D02*
X203142380Y-82941190D01*
X203213809Y-82941190D01*
X203285238Y-82965000D01*
X203332857Y-83012619D01*
X203356666Y-83060238D01*
X203380476Y-83155476D01*
X203380476Y-83226904D01*
X203356666Y-83322142D01*
X203332857Y-83369761D01*
X203285238Y-83417380D01*
X203213809Y-83441190D01*
X203166190Y-83441190D01*
X203094761Y-83417380D01*
X203070952Y-83393571D01*
X203070952Y-83226904D01*
X203166190Y-83226904D01*
X202856666Y-83441190D02*
X202856666Y-82941190D01*
X202666190Y-82941190D01*
X202618571Y-82965000D01*
X202594761Y-82988809D01*
X202570952Y-83036428D01*
X202570952Y-83107857D01*
X202594761Y-83155476D01*
X202618571Y-83179285D01*
X202666190Y-83203095D01*
X202856666Y-83203095D01*
X202356666Y-83441190D02*
X202356666Y-82941190D01*
X202023333Y-82941190D02*
X201928095Y-82941190D01*
X201880476Y-82965000D01*
X201832857Y-83012619D01*
X201809047Y-83107857D01*
X201809047Y-83274523D01*
X201832857Y-83369761D01*
X201880476Y-83417380D01*
X201928095Y-83441190D01*
X202023333Y-83441190D01*
X202070952Y-83417380D01*
X202118571Y-83369761D01*
X202142380Y-83274523D01*
X202142380Y-83107857D01*
X202118571Y-83012619D01*
X202070952Y-82965000D01*
X202023333Y-82941190D01*
X201618571Y-82988809D02*
X201594761Y-82965000D01*
X201547142Y-82941190D01*
X201428095Y-82941190D01*
X201380476Y-82965000D01*
X201356666Y-82988809D01*
X201332857Y-83036428D01*
X201332857Y-83084047D01*
X201356666Y-83155476D01*
X201642380Y-83441190D01*
X201332857Y-83441190D01*
X200904285Y-82941190D02*
X200999523Y-82941190D01*
X201047142Y-82965000D01*
X201070952Y-82988809D01*
X201118571Y-83060238D01*
X201142380Y-83155476D01*
X201142380Y-83345952D01*
X201118571Y-83393571D01*
X201094761Y-83417380D01*
X201047142Y-83441190D01*
X200951904Y-83441190D01*
X200904285Y-83417380D01*
X200880476Y-83393571D01*
X200856666Y-83345952D01*
X200856666Y-83226904D01*
X200880476Y-83179285D01*
X200904285Y-83155476D01*
X200951904Y-83131666D01*
X201047142Y-83131666D01*
X201094761Y-83155476D01*
X201118571Y-83179285D01*
X201142380Y-83226904D01*
X200261428Y-83250714D02*
X199880476Y-83250714D01*
X199261428Y-83441190D02*
X199261428Y-82941190D01*
X199047142Y-82988809D02*
X199023333Y-82965000D01*
X198975714Y-82941190D01*
X198856666Y-82941190D01*
X198809047Y-82965000D01*
X198785238Y-82988809D01*
X198761428Y-83036428D01*
X198761428Y-83084047D01*
X198785238Y-83155476D01*
X199070952Y-83441190D01*
X198761428Y-83441190D01*
X198261428Y-83393571D02*
X198285238Y-83417380D01*
X198356666Y-83441190D01*
X198404285Y-83441190D01*
X198475714Y-83417380D01*
X198523333Y-83369761D01*
X198547142Y-83322142D01*
X198570952Y-83226904D01*
X198570952Y-83155476D01*
X198547142Y-83060238D01*
X198523333Y-83012619D01*
X198475714Y-82965000D01*
X198404285Y-82941190D01*
X198356666Y-82941190D01*
X198285238Y-82965000D01*
X198261428Y-82988809D01*
X197785238Y-83441190D02*
X198070952Y-83441190D01*
X197928095Y-83441190D02*
X197928095Y-82941190D01*
X197975714Y-83012619D01*
X198023333Y-83060238D01*
X198070952Y-83084047D01*
X197213809Y-83417380D02*
X197142380Y-83441190D01*
X197023333Y-83441190D01*
X196975714Y-83417380D01*
X196951904Y-83393571D01*
X196928095Y-83345952D01*
X196928095Y-83298333D01*
X196951904Y-83250714D01*
X196975714Y-83226904D01*
X197023333Y-83203095D01*
X197118571Y-83179285D01*
X197166190Y-83155476D01*
X197190000Y-83131666D01*
X197213809Y-83084047D01*
X197213809Y-83036428D01*
X197190000Y-82988809D01*
X197166190Y-82965000D01*
X197118571Y-82941190D01*
X196999523Y-82941190D01*
X196928095Y-82965000D01*
X196713809Y-83441190D02*
X196713809Y-82941190D01*
X196594761Y-82941190D01*
X196523333Y-82965000D01*
X196475714Y-83012619D01*
X196451904Y-83060238D01*
X196428095Y-83155476D01*
X196428095Y-83226904D01*
X196451904Y-83322142D01*
X196475714Y-83369761D01*
X196523333Y-83417380D01*
X196594761Y-83441190D01*
X196713809Y-83441190D01*
X196237619Y-83298333D02*
X195999523Y-83298333D01*
X196285238Y-83441190D02*
X196118571Y-82941190D01*
X195951904Y-83441190D01*
X203082857Y-83840000D02*
X203130476Y-83816190D01*
X203201904Y-83816190D01*
X203273333Y-83840000D01*
X203320952Y-83887619D01*
X203344761Y-83935238D01*
X203368571Y-84030476D01*
X203368571Y-84101904D01*
X203344761Y-84197142D01*
X203320952Y-84244761D01*
X203273333Y-84292380D01*
X203201904Y-84316190D01*
X203154285Y-84316190D01*
X203082857Y-84292380D01*
X203059047Y-84268571D01*
X203059047Y-84101904D01*
X203154285Y-84101904D01*
X202844761Y-84316190D02*
X202844761Y-83816190D01*
X202654285Y-83816190D01*
X202606666Y-83840000D01*
X202582857Y-83863809D01*
X202559047Y-83911428D01*
X202559047Y-83982857D01*
X202582857Y-84030476D01*
X202606666Y-84054285D01*
X202654285Y-84078095D01*
X202844761Y-84078095D01*
X202344761Y-84316190D02*
X202344761Y-83816190D01*
X202011428Y-83816190D02*
X201916190Y-83816190D01*
X201868571Y-83840000D01*
X201820952Y-83887619D01*
X201797142Y-83982857D01*
X201797142Y-84149523D01*
X201820952Y-84244761D01*
X201868571Y-84292380D01*
X201916190Y-84316190D01*
X202011428Y-84316190D01*
X202059047Y-84292380D01*
X202106666Y-84244761D01*
X202130476Y-84149523D01*
X202130476Y-83982857D01*
X202106666Y-83887619D01*
X202059047Y-83840000D01*
X202011428Y-83816190D01*
X201606666Y-83863809D02*
X201582857Y-83840000D01*
X201535238Y-83816190D01*
X201416190Y-83816190D01*
X201368571Y-83840000D01*
X201344761Y-83863809D01*
X201320952Y-83911428D01*
X201320952Y-83959047D01*
X201344761Y-84030476D01*
X201630476Y-84316190D01*
X201320952Y-84316190D01*
X201154285Y-83816190D02*
X200820952Y-83816190D01*
X201035238Y-84316190D01*
X200249523Y-84125714D02*
X199868571Y-84125714D01*
X199249523Y-84316190D02*
X199249523Y-83816190D01*
X199035238Y-83863809D02*
X199011428Y-83840000D01*
X198963809Y-83816190D01*
X198844761Y-83816190D01*
X198797142Y-83840000D01*
X198773333Y-83863809D01*
X198749523Y-83911428D01*
X198749523Y-83959047D01*
X198773333Y-84030476D01*
X199059047Y-84316190D01*
X198749523Y-84316190D01*
X198249523Y-84268571D02*
X198273333Y-84292380D01*
X198344761Y-84316190D01*
X198392380Y-84316190D01*
X198463809Y-84292380D01*
X198511428Y-84244761D01*
X198535238Y-84197142D01*
X198559047Y-84101904D01*
X198559047Y-84030476D01*
X198535238Y-83935238D01*
X198511428Y-83887619D01*
X198463809Y-83840000D01*
X198392380Y-83816190D01*
X198344761Y-83816190D01*
X198273333Y-83840000D01*
X198249523Y-83863809D01*
X197773333Y-84316190D02*
X198059047Y-84316190D01*
X197916190Y-84316190D02*
X197916190Y-83816190D01*
X197963809Y-83887619D01*
X198011428Y-83935238D01*
X198059047Y-83959047D01*
X197201904Y-84292380D02*
X197130476Y-84316190D01*
X197011428Y-84316190D01*
X196963809Y-84292380D01*
X196940000Y-84268571D01*
X196916190Y-84220952D01*
X196916190Y-84173333D01*
X196940000Y-84125714D01*
X196963809Y-84101904D01*
X197011428Y-84078095D01*
X197106666Y-84054285D01*
X197154285Y-84030476D01*
X197178095Y-84006666D01*
X197201904Y-83959047D01*
X197201904Y-83911428D01*
X197178095Y-83863809D01*
X197154285Y-83840000D01*
X197106666Y-83816190D01*
X196987619Y-83816190D01*
X196916190Y-83840000D01*
X196416190Y-84268571D02*
X196440000Y-84292380D01*
X196511428Y-84316190D01*
X196559047Y-84316190D01*
X196630476Y-84292380D01*
X196678095Y-84244761D01*
X196701904Y-84197142D01*
X196725714Y-84101904D01*
X196725714Y-84030476D01*
X196701904Y-83935238D01*
X196678095Y-83887619D01*
X196630476Y-83840000D01*
X196559047Y-83816190D01*
X196511428Y-83816190D01*
X196440000Y-83840000D01*
X196416190Y-83863809D01*
X195963809Y-84316190D02*
X196201904Y-84316190D01*
X196201904Y-83816190D01*
D11*
%TO.C,J6*%
X223410000Y-53100000D02*
X223510000Y-52600000D01*
X223110000Y-54400000D02*
X223410000Y-53100000D01*
X222910000Y-55900000D02*
X223110000Y-54400000D01*
X222810000Y-57200000D02*
X222910000Y-55900000D01*
X222810000Y-59000000D02*
X222810000Y-57200000D01*
X222910000Y-60300000D02*
X222810000Y-59000000D01*
X223010000Y-61100000D02*
X222910000Y-60300000D01*
X223310000Y-62800000D02*
X223010000Y-61100000D01*
X223510000Y-63600000D02*
X223310000Y-62800000D01*
X224110000Y-63100000D02*
X224110000Y-53100000D01*
X222610000Y-63600000D02*
X223610000Y-63600000D01*
X222610000Y-52600000D02*
X223610000Y-52600000D01*
X222610000Y-65010000D02*
X222610000Y-51190000D01*
X208690000Y-51190000D02*
X208690000Y-65010000D01*
X211390000Y-51190000D02*
X208690000Y-51190000D01*
X222610000Y-51190000D02*
X222210000Y-51190000D01*
X219690000Y-51190000D02*
X213910000Y-51190000D01*
X211390000Y-65010000D02*
X208690000Y-65010000D01*
X219690000Y-65010000D02*
X213910000Y-65010000D01*
X222610000Y-65010000D02*
X222210000Y-65010000D01*
X224110000Y-63100000D02*
G75*
G02*
X223610000Y-63600000I-500000J0D01*
G01*
X223610000Y-52600000D02*
G75*
G02*
X224110000Y-53100000I0J-500000D01*
G01*
D12*
X216302380Y-57766666D02*
X217016666Y-57766666D01*
X217159523Y-57719047D01*
X217254761Y-57623809D01*
X217302380Y-57480952D01*
X217302380Y-57385714D01*
X216302380Y-58671428D02*
X216302380Y-58480952D01*
X216350000Y-58385714D01*
X216397619Y-58338095D01*
X216540476Y-58242857D01*
X216730952Y-58195238D01*
X217111904Y-58195238D01*
X217207142Y-58242857D01*
X217254761Y-58290476D01*
X217302380Y-58385714D01*
X217302380Y-58576190D01*
X217254761Y-58671428D01*
X217207142Y-58719047D01*
X217111904Y-58766666D01*
X216873809Y-58766666D01*
X216778571Y-58719047D01*
X216730952Y-58671428D01*
X216683333Y-58576190D01*
X216683333Y-58385714D01*
X216730952Y-58290476D01*
X216778571Y-58242857D01*
X216873809Y-58195238D01*
%TD*%
M02*
