%TF.GenerationSoftware,KiCad,Pcbnew,(5.1.10-1-10_14)*%
%TF.CreationDate,2021-12-24T07:56:15-05:00*%
%TF.ProjectId,hermes_v1,6865726d-6573-45f7-9631-2e6b69636164,rev?*%
%TF.SameCoordinates,Original*%
%TF.FileFunction,Profile,NP*%
%FSLAX46Y46*%
G04 Gerber Fmt 4.6, Leading zero omitted, Abs format (unit mm)*
G04 Created by KiCad (PCBNEW (5.1.10-1-10_14)) date 2021-12-24 07:56:15*
%MOMM*%
%LPD*%
G01*
G04 APERTURE LIST*
%TA.AperFunction,Profile*%
%ADD10C,0.050000*%
%TD*%
G04 APERTURE END LIST*
D10*
X223000000Y-93500000D02*
X222500000Y-93500000D01*
X223001833Y-86528853D02*
X223000000Y-54450000D01*
X223001833Y-86528853D02*
G75*
G03*
X225230000Y-88860000I2238167J-91147D01*
G01*
X225230000Y-93500000D02*
G75*
G03*
X225230000Y-88860000I0J2320000D01*
G01*
X223000000Y-93500000D02*
X225230000Y-93500000D01*
X190340000Y-43650000D02*
X192350000Y-43650000D01*
X190350000Y-54450000D02*
X190338167Y-50621147D01*
X190338167Y-50621147D02*
G75*
G03*
X188110000Y-48290000I-2238167J91147D01*
G01*
X188110000Y-43650000D02*
G75*
G03*
X188110000Y-48290000I0J-2320000D01*
G01*
X190340000Y-43650000D02*
X188110000Y-43650000D01*
X190350000Y-93500000D02*
X190600000Y-93500000D01*
X190350000Y-54450000D02*
X190348167Y-86528853D01*
X188120000Y-93500000D02*
G75*
G02*
X188120000Y-88860000I0J2320000D01*
G01*
X190350000Y-93500000D02*
X188120000Y-93500000D01*
X190348167Y-86528853D02*
G75*
G02*
X188120000Y-88860000I-2238167J-91147D01*
G01*
X223000000Y-54450000D02*
X223001833Y-50621147D01*
X223001833Y-50621147D02*
G75*
G02*
X225230000Y-48290000I2238167J91147D01*
G01*
X223000000Y-43650000D02*
X225230000Y-43650000D01*
X225230000Y-43650000D02*
G75*
G02*
X225230000Y-48290000I0J-2320000D01*
G01*
X221000000Y-43650000D02*
X223000000Y-43650000D01*
X192600000Y-43650000D02*
X192350000Y-43650000D01*
X197000000Y-43650000D02*
X192600000Y-43650000D01*
X195000000Y-93500000D02*
X190600000Y-93500000D01*
X221000000Y-43650000D02*
X197000000Y-43650000D01*
X195450000Y-93500000D02*
X195000000Y-93500000D01*
X195450000Y-93500000D02*
X197000000Y-93500000D01*
X222500000Y-93500000D02*
X221000000Y-93500000D01*
X197000000Y-93500000D02*
X221000000Y-93500000D01*
M02*
