%TF.GenerationSoftware,KiCad,Pcbnew,(5.1.10-1-10_14)*%
%TF.CreationDate,2021-12-24T07:56:15-05:00*%
%TF.ProjectId,hermes_v1,6865726d-6573-45f7-9631-2e6b69636164,rev?*%
%TF.SameCoordinates,Original*%
%TF.FileFunction,Copper,L2,Inr*%
%TF.FilePolarity,Positive*%
%FSLAX46Y46*%
G04 Gerber Fmt 4.6, Leading zero omitted, Abs format (unit mm)*
G04 Created by KiCad (PCBNEW (5.1.10-1-10_14)) date 2021-12-24 07:56:15*
%MOMM*%
%LPD*%
G01*
G04 APERTURE LIST*
%TA.AperFunction,ComponentPad*%
%ADD10C,3.800000*%
%TD*%
%TA.AperFunction,ComponentPad*%
%ADD11O,1.850000X0.850000*%
%TD*%
%TA.AperFunction,ComponentPad*%
%ADD12C,0.840000*%
%TD*%
%TA.AperFunction,ComponentPad*%
%ADD13R,0.840000X0.840000*%
%TD*%
%TA.AperFunction,ComponentPad*%
%ADD14O,1.700000X1.700000*%
%TD*%
%TA.AperFunction,ComponentPad*%
%ADD15R,1.700000X1.700000*%
%TD*%
%TA.AperFunction,ComponentPad*%
%ADD16C,1.700000*%
%TD*%
%TA.AperFunction,ComponentPad*%
%ADD17C,0.600000*%
%TD*%
%TA.AperFunction,ViaPad*%
%ADD18C,0.800000*%
%TD*%
%TA.AperFunction,Conductor*%
%ADD19C,0.600000*%
%TD*%
%TA.AperFunction,Conductor*%
%ADD20C,0.200000*%
%TD*%
%TA.AperFunction,Conductor*%
%ADD21C,0.300000*%
%TD*%
%TA.AperFunction,Conductor*%
%ADD22C,0.100000*%
%TD*%
G04 APERTURE END LIST*
D10*
%TO.N,N/C*%
%TO.C,H4*%
X188110000Y-45960000D03*
%TD*%
%TO.N,N/C*%
%TO.C,H3*%
X225250000Y-91190000D03*
%TD*%
%TO.N,N/C*%
%TO.C,H2*%
X188110000Y-91170000D03*
%TD*%
%TO.N,N/C*%
%TO.C,H1*%
X225230000Y-45960000D03*
%TD*%
D11*
%TO.N,GND*%
%TO.C,J2*%
X192480000Y-71275000D03*
X192480000Y-64125000D03*
D12*
X192700000Y-69000000D03*
%TO.N,Net-(J2-Pad4)*%
X191700000Y-68350000D03*
%TO.N,Net-(J2-Pad3)*%
X192700000Y-67700000D03*
%TO.N,Net-(J2-Pad2)*%
X191700000Y-67050000D03*
D13*
%TO.N,FC_USB_VBUS*%
X192700000Y-66400000D03*
%TD*%
D14*
%TO.N,GND*%
%TO.C,J7*%
X221740000Y-92130000D03*
%TO.N,+5V*%
X219200000Y-92130000D03*
%TO.N,GND*%
X221740000Y-89590000D03*
%TO.N,+5V*%
X219200000Y-89590000D03*
%TO.N,GND*%
X221740000Y-87050000D03*
D15*
%TO.N,3V3_IO*%
X219200000Y-87050000D03*
%TD*%
D14*
%TO.N,FC_UART0_RX*%
%TO.C,J5*%
X216640000Y-92130000D03*
%TO.N,FC_UART0_TX*%
X214100000Y-92130000D03*
%TO.N,FC_UART1_RX*%
X216640000Y-89590000D03*
%TO.N,FC_UART1_TX*%
X214100000Y-89590000D03*
%TO.N,FC_I2C1_SDA*%
X216640000Y-87050000D03*
D16*
%TO.N,FC_I2C1_SCL*%
X214100000Y-87050000D03*
%TD*%
D14*
%TO.N,+5V*%
%TO.C,J4*%
X211540000Y-89610000D03*
%TO.N,GND*%
X211540000Y-92150000D03*
%TO.N,+5V*%
X209000000Y-89610000D03*
%TO.N,GND*%
X209000000Y-92150000D03*
%TO.N,+5V*%
X206460000Y-89610000D03*
%TO.N,GND*%
X206460000Y-92150000D03*
%TO.N,+5V*%
X203920000Y-89610000D03*
%TO.N,GND*%
X203920000Y-92150000D03*
%TO.N,+5V*%
X201380000Y-89610000D03*
%TO.N,GND*%
X201380000Y-92150000D03*
%TO.N,+5V*%
X198840000Y-89610000D03*
%TO.N,GND*%
X198840000Y-92150000D03*
%TO.N,+5V*%
X196300000Y-89610000D03*
D15*
%TO.N,GND*%
X196300000Y-92150000D03*
%TD*%
D14*
%TO.N,FC_RADIO_PPM*%
%TO.C,J3*%
X196310000Y-87050000D03*
%TO.N,FC_SERVO_6*%
X198850000Y-87050000D03*
%TO.N,FC_SERVO_5*%
X201390000Y-87050000D03*
%TO.N,FC_SERVO_4*%
X203930000Y-87050000D03*
%TO.N,FC_SERVO_3*%
X206470000Y-87050000D03*
%TO.N,FC_SERVO_2*%
X209010000Y-87050000D03*
D15*
%TO.N,FC_SERVO_1*%
X211550000Y-87050000D03*
%TD*%
D17*
%TO.N,GND*%
%TO.C,U3*%
X205675000Y-69275000D03*
X205675000Y-68000000D03*
X205675000Y-66725000D03*
X206950000Y-69275000D03*
X206950000Y-68000000D03*
X206950000Y-66725000D03*
X208225000Y-69275000D03*
X208225000Y-68000000D03*
X208225000Y-66725000D03*
%TD*%
D18*
%TO.N,GND*%
X193800000Y-52900000D03*
X193800000Y-51800000D03*
X205150000Y-44900000D03*
X204050000Y-44900000D03*
X204050000Y-47000000D03*
X205150000Y-47000000D03*
X204050000Y-45950000D03*
X205150000Y-45950000D03*
X209050000Y-45950000D03*
X207950000Y-45950000D03*
X209050000Y-44900000D03*
X207950000Y-44900000D03*
X207950000Y-47000000D03*
X209050000Y-47000000D03*
X219550000Y-47000000D03*
X220650000Y-45950000D03*
X219550000Y-45950000D03*
X220650000Y-47000000D03*
X220650000Y-44900000D03*
X219550000Y-44900000D03*
X220950000Y-82350000D03*
X220950000Y-78050000D03*
X214500000Y-74450000D03*
X214700000Y-78250000D03*
X217546776Y-83315647D03*
X212650000Y-49900000D03*
X211050000Y-64700000D03*
X207008856Y-62009857D03*
X219900000Y-66800000D03*
X200100005Y-62650011D03*
X196150731Y-81150731D03*
X221750000Y-58718282D03*
X191400000Y-89300000D03*
X191300000Y-59600000D03*
X191950000Y-47000000D03*
X195800000Y-57550000D03*
X195550000Y-51800000D03*
X195550000Y-52900000D03*
X195350000Y-48300000D03*
X200950000Y-52300000D03*
X220950000Y-49900000D03*
X196070000Y-66920000D03*
%TO.N,+1V1*%
X200129319Y-68679319D03*
X214257101Y-65592887D03*
X201100006Y-62649994D03*
%TO.N,+3V3*%
X216250000Y-55900000D03*
X195000000Y-71000000D03*
%TO.N,VCC*%
X212950000Y-44900000D03*
X212950000Y-45950000D03*
X211850000Y-44900000D03*
X212950000Y-47000000D03*
X211850000Y-47000000D03*
X211850000Y-45950000D03*
X216750000Y-45950000D03*
X215650000Y-47000000D03*
X216750000Y-44900000D03*
X215650000Y-45950000D03*
X216750000Y-47000000D03*
X215650000Y-44900000D03*
X199700000Y-44850000D03*
X200800000Y-45900000D03*
X199700000Y-46950000D03*
X199700000Y-45900000D03*
X200800000Y-44850000D03*
X200800000Y-46950000D03*
%TO.N,+5V*%
X208900000Y-58350000D03*
X195000000Y-69100000D03*
%TO.N,FC_STATUS_BLUE*%
X197400000Y-61025000D03*
X206455977Y-63213886D03*
%TO.N,FC_STATUS_RED*%
X195800000Y-61025000D03*
X208350000Y-65700000D03*
X214993193Y-64916003D03*
%TO.N,FC_STATUS_GREEN*%
X193921680Y-62787534D03*
X207413182Y-62924474D03*
%TO.N,FC_BOOTSEL*%
X190975000Y-85400000D03*
X193450000Y-59600000D03*
%TO.N,FC_RUN*%
X209350000Y-65700000D03*
X193600000Y-89300000D03*
%TO.N,FC_USB_VBUS*%
X213400000Y-58300000D03*
%TO.N,FC_I2C0_SCL*%
X206750010Y-73300000D03*
X216800000Y-71550000D03*
X221878753Y-74202539D03*
%TO.N,FC_I2C0_SDA*%
X206433580Y-74283580D03*
X218000001Y-71601974D03*
%TO.N,FC_I2C1_SCL*%
X214094975Y-84255025D03*
X205050000Y-62300000D03*
X203450000Y-74500000D03*
%TO.N,FC_I2C1_SDA*%
X216650000Y-84300000D03*
X206050003Y-62300000D03*
X203450000Y-76100000D03*
%TO.N,FC_SWCLK*%
X209351362Y-66700001D03*
%TO.N,FC_SWD*%
X211572881Y-66512718D03*
%TO.N,FC_SPI0_CS*%
X203022609Y-61689690D03*
X206394309Y-61220975D03*
X203268869Y-72875010D03*
%TO.N,FC_SPI0_MOSI*%
X204949999Y-74302160D03*
%TO.N,FC_SPI0_SCK*%
X204100000Y-73575010D03*
%TO.N,FC_SPI0_MISO*%
X202642829Y-72092829D03*
%TO.N,FC_UART1_TX*%
X208150010Y-72999999D03*
%TO.N,FC_UART1_RX*%
X207899798Y-74800003D03*
%TO.N,FC_UART0_TX*%
X212549997Y-66300002D03*
X212271274Y-79115560D03*
%TO.N,FC_UART0_RX*%
X213550000Y-66300002D03*
X213249997Y-69175001D03*
%TO.N,/FlightControlComputer/3V_MCU*%
X209349990Y-67706681D03*
X204950010Y-65700000D03*
%TO.N,3V3_IO*%
X214380025Y-72980024D03*
X221900049Y-75202314D03*
X220350000Y-58000000D03*
X191450000Y-76100000D03*
X192300000Y-85000000D03*
X200350000Y-74500000D03*
X200350000Y-76100000D03*
%TD*%
D19*
%TO.N,+3V3*%
X213769271Y-67412719D02*
X216250000Y-64931990D01*
X211140880Y-67412719D02*
X213769271Y-67412719D01*
X210672880Y-66944719D02*
X211140880Y-67412719D01*
X210672880Y-65690878D02*
X210672880Y-66944719D01*
X216250000Y-64931990D02*
X216250000Y-55900000D01*
X209381992Y-64399990D02*
X210672880Y-65690878D01*
X201600010Y-64399990D02*
X209381992Y-64399990D01*
X195000000Y-71000000D02*
X201600010Y-64399990D01*
%TO.N,+5V*%
X213832001Y-57399999D02*
X209850001Y-57399999D01*
X214300001Y-57867999D02*
X213832001Y-57399999D01*
X214300001Y-58732001D02*
X214300001Y-57867999D01*
X209850001Y-57399999D02*
X208900000Y-58350000D01*
X212981991Y-60050011D02*
X214300001Y-58732001D01*
X201368003Y-60050011D02*
X212981991Y-60050011D01*
X195000000Y-66418014D02*
X201368003Y-60050011D01*
X195000000Y-69100000D02*
X195000000Y-66418014D01*
D20*
%TO.N,FC_RUN*%
X202772637Y-64999999D02*
X208649999Y-64999999D01*
X208649999Y-64999999D02*
X209350000Y-65700000D01*
X193600000Y-74172636D02*
X202772637Y-64999999D01*
X193600000Y-89300000D02*
X193600000Y-74172636D01*
D19*
%TO.N,FC_USB_VBUS*%
X195546838Y-59250001D02*
X212449999Y-59250001D01*
X212449999Y-59250001D02*
X213400000Y-58300000D01*
X191054990Y-63741849D02*
X195546838Y-59250001D01*
X191054990Y-64854990D02*
X191054990Y-63741849D01*
X192600000Y-66400000D02*
X191054990Y-64854990D01*
X192700000Y-66400000D02*
X192600000Y-66400000D01*
%TD*%
D21*
%TO.N,GND*%
X199158156Y-44189762D02*
X199039762Y-44308156D01*
X198946740Y-44447374D01*
X198882665Y-44602064D01*
X198850000Y-44766282D01*
X198850000Y-44933718D01*
X198882665Y-45097936D01*
X198946740Y-45252626D01*
X199028507Y-45375000D01*
X198946740Y-45497374D01*
X198882665Y-45652064D01*
X198850000Y-45816282D01*
X198850000Y-45983718D01*
X198882665Y-46147936D01*
X198946740Y-46302626D01*
X199028507Y-46425000D01*
X198946740Y-46547374D01*
X198882665Y-46702064D01*
X198850000Y-46866282D01*
X198850000Y-47033718D01*
X198882665Y-47197936D01*
X198946740Y-47352626D01*
X199039762Y-47491844D01*
X199158156Y-47610238D01*
X199297374Y-47703260D01*
X199452064Y-47767335D01*
X199616282Y-47800000D01*
X199783718Y-47800000D01*
X199947936Y-47767335D01*
X200102626Y-47703260D01*
X200241844Y-47610238D01*
X200250000Y-47602082D01*
X200258156Y-47610238D01*
X200397374Y-47703260D01*
X200552064Y-47767335D01*
X200716282Y-47800000D01*
X200883718Y-47800000D01*
X201047936Y-47767335D01*
X201202626Y-47703260D01*
X201341844Y-47610238D01*
X201460238Y-47491844D01*
X201553260Y-47352626D01*
X201617335Y-47197936D01*
X201650000Y-47033718D01*
X201650000Y-46866282D01*
X201617335Y-46702064D01*
X201553260Y-46547374D01*
X201471493Y-46425000D01*
X201553260Y-46302626D01*
X201617335Y-46147936D01*
X201650000Y-45983718D01*
X201650000Y-45816282D01*
X201617335Y-45652064D01*
X201553260Y-45497374D01*
X201471493Y-45375000D01*
X201553260Y-45252626D01*
X201617335Y-45097936D01*
X201650000Y-44933718D01*
X201650000Y-44766282D01*
X201617335Y-44602064D01*
X201553260Y-44447374D01*
X201460238Y-44308156D01*
X201341844Y-44189762D01*
X201244920Y-44125000D01*
X211499859Y-44125000D01*
X211447374Y-44146740D01*
X211308156Y-44239762D01*
X211189762Y-44358156D01*
X211096740Y-44497374D01*
X211032665Y-44652064D01*
X211000000Y-44816282D01*
X211000000Y-44983718D01*
X211032665Y-45147936D01*
X211096740Y-45302626D01*
X211178507Y-45425000D01*
X211096740Y-45547374D01*
X211032665Y-45702064D01*
X211000000Y-45866282D01*
X211000000Y-46033718D01*
X211032665Y-46197936D01*
X211096740Y-46352626D01*
X211178507Y-46475000D01*
X211096740Y-46597374D01*
X211032665Y-46752064D01*
X211000000Y-46916282D01*
X211000000Y-47083718D01*
X211032665Y-47247936D01*
X211096740Y-47402626D01*
X211189762Y-47541844D01*
X211308156Y-47660238D01*
X211447374Y-47753260D01*
X211602064Y-47817335D01*
X211766282Y-47850000D01*
X211933718Y-47850000D01*
X212097936Y-47817335D01*
X212252626Y-47753260D01*
X212391844Y-47660238D01*
X212400000Y-47652082D01*
X212408156Y-47660238D01*
X212547374Y-47753260D01*
X212702064Y-47817335D01*
X212866282Y-47850000D01*
X213033718Y-47850000D01*
X213197936Y-47817335D01*
X213352626Y-47753260D01*
X213491844Y-47660238D01*
X213610238Y-47541844D01*
X213703260Y-47402626D01*
X213767335Y-47247936D01*
X213800000Y-47083718D01*
X213800000Y-46916282D01*
X213767335Y-46752064D01*
X213703260Y-46597374D01*
X213621493Y-46475000D01*
X213703260Y-46352626D01*
X213767335Y-46197936D01*
X213800000Y-46033718D01*
X213800000Y-45866282D01*
X213767335Y-45702064D01*
X213703260Y-45547374D01*
X213621493Y-45425000D01*
X213703260Y-45302626D01*
X213767335Y-45147936D01*
X213800000Y-44983718D01*
X213800000Y-44816282D01*
X213767335Y-44652064D01*
X213703260Y-44497374D01*
X213610238Y-44358156D01*
X213491844Y-44239762D01*
X213352626Y-44146740D01*
X213300141Y-44125000D01*
X215299859Y-44125000D01*
X215247374Y-44146740D01*
X215108156Y-44239762D01*
X214989762Y-44358156D01*
X214896740Y-44497374D01*
X214832665Y-44652064D01*
X214800000Y-44816282D01*
X214800000Y-44983718D01*
X214832665Y-45147936D01*
X214896740Y-45302626D01*
X214978507Y-45425000D01*
X214896740Y-45547374D01*
X214832665Y-45702064D01*
X214800000Y-45866282D01*
X214800000Y-46033718D01*
X214832665Y-46197936D01*
X214896740Y-46352626D01*
X214978507Y-46475000D01*
X214896740Y-46597374D01*
X214832665Y-46752064D01*
X214800000Y-46916282D01*
X214800000Y-47083718D01*
X214832665Y-47247936D01*
X214896740Y-47402626D01*
X214989762Y-47541844D01*
X215108156Y-47660238D01*
X215247374Y-47753260D01*
X215402064Y-47817335D01*
X215566282Y-47850000D01*
X215733718Y-47850000D01*
X215897936Y-47817335D01*
X216052626Y-47753260D01*
X216191844Y-47660238D01*
X216200000Y-47652082D01*
X216208156Y-47660238D01*
X216347374Y-47753260D01*
X216502064Y-47817335D01*
X216666282Y-47850000D01*
X216833718Y-47850000D01*
X216997936Y-47817335D01*
X217152626Y-47753260D01*
X217291844Y-47660238D01*
X217410238Y-47541844D01*
X217503260Y-47402626D01*
X217567335Y-47247936D01*
X217600000Y-47083718D01*
X217600000Y-46916282D01*
X217567335Y-46752064D01*
X217503260Y-46597374D01*
X217421493Y-46475000D01*
X217503260Y-46352626D01*
X217567335Y-46197936D01*
X217600000Y-46033718D01*
X217600000Y-45866282D01*
X217567335Y-45702064D01*
X217503260Y-45547374D01*
X217421493Y-45425000D01*
X217503260Y-45302626D01*
X217567335Y-45147936D01*
X217600000Y-44983718D01*
X217600000Y-44816282D01*
X217567335Y-44652064D01*
X217503260Y-44497374D01*
X217410238Y-44358156D01*
X217291844Y-44239762D01*
X217152626Y-44146740D01*
X217100141Y-44125000D01*
X222900000Y-44125000D01*
X222900000Y-45627998D01*
X222880000Y-45728545D01*
X222880000Y-46191455D01*
X222900000Y-46292002D01*
X222900000Y-49155897D01*
X222897221Y-49161579D01*
X222897216Y-49161587D01*
X222897213Y-49161596D01*
X222707852Y-49555621D01*
X222693075Y-49596069D01*
X222677743Y-49636287D01*
X222676041Y-49642697D01*
X222566818Y-50066009D01*
X222560183Y-50108535D01*
X222552951Y-50150985D01*
X222552527Y-50157604D01*
X222528166Y-50584237D01*
X222526845Y-50597589D01*
X222525011Y-54426571D01*
X222524999Y-54426696D01*
X222525000Y-54449501D01*
X222524989Y-54473104D01*
X222525002Y-54473233D01*
X222526098Y-73647802D01*
X222420597Y-73542301D01*
X222281379Y-73449279D01*
X222126689Y-73385204D01*
X221962471Y-73352539D01*
X221795035Y-73352539D01*
X221630817Y-73385204D01*
X221476127Y-73449279D01*
X221336909Y-73542301D01*
X221218515Y-73660695D01*
X221125493Y-73799913D01*
X221061418Y-73954603D01*
X221028753Y-74118821D01*
X221028753Y-74286257D01*
X221061418Y-74450475D01*
X221125493Y-74605165D01*
X221201129Y-74718362D01*
X221146789Y-74799688D01*
X221082714Y-74954378D01*
X221050049Y-75118596D01*
X221050049Y-75286032D01*
X221082714Y-75450250D01*
X221146789Y-75604940D01*
X221239811Y-75744158D01*
X221358205Y-75862552D01*
X221497423Y-75955574D01*
X221652113Y-76019649D01*
X221816331Y-76052314D01*
X221983767Y-76052314D01*
X222147985Y-76019649D01*
X222302675Y-75955574D01*
X222441893Y-75862552D01*
X222526219Y-75778226D01*
X222526790Y-85771194D01*
X222358275Y-85674569D01*
X222078062Y-85580378D01*
X221844000Y-85710087D01*
X221844000Y-86946000D01*
X221864000Y-86946000D01*
X221864000Y-87154000D01*
X221844000Y-87154000D01*
X221844000Y-89486000D01*
X221864000Y-89486000D01*
X221864000Y-89694000D01*
X221844000Y-89694000D01*
X221844000Y-92026000D01*
X221864000Y-92026000D01*
X221864000Y-92234000D01*
X221844000Y-92234000D01*
X221844000Y-92254000D01*
X221636000Y-92254000D01*
X221636000Y-92234000D01*
X221616000Y-92234000D01*
X221616000Y-92026000D01*
X221636000Y-92026000D01*
X221636000Y-89694000D01*
X221616000Y-89694000D01*
X221616000Y-89486000D01*
X221636000Y-89486000D01*
X221636000Y-87154000D01*
X221616000Y-87154000D01*
X221616000Y-86946000D01*
X221636000Y-86946000D01*
X221636000Y-85710087D01*
X221401938Y-85580378D01*
X221121725Y-85674569D01*
X220865272Y-85821617D01*
X220642434Y-86015871D01*
X220501962Y-86197815D01*
X220493489Y-86111785D01*
X220467757Y-86026959D01*
X220425971Y-85948784D01*
X220369737Y-85880263D01*
X220301216Y-85824029D01*
X220223041Y-85782243D01*
X220138215Y-85756511D01*
X220050000Y-85747823D01*
X218350000Y-85747823D01*
X218261785Y-85756511D01*
X218176959Y-85782243D01*
X218098784Y-85824029D01*
X218030263Y-85880263D01*
X217974029Y-85948784D01*
X217932243Y-86026959D01*
X217906511Y-86111785D01*
X217897823Y-86200000D01*
X217897823Y-86709922D01*
X217890042Y-86670804D01*
X217792045Y-86434219D01*
X217649776Y-86221298D01*
X217468702Y-86040224D01*
X217255781Y-85897955D01*
X217019196Y-85799958D01*
X216768039Y-85750000D01*
X216511961Y-85750000D01*
X216260804Y-85799958D01*
X216024219Y-85897955D01*
X215811298Y-86040224D01*
X215630224Y-86221298D01*
X215487955Y-86434219D01*
X215389958Y-86670804D01*
X215370000Y-86771140D01*
X215350042Y-86670804D01*
X215252045Y-86434219D01*
X215109776Y-86221298D01*
X214928702Y-86040224D01*
X214715781Y-85897955D01*
X214479196Y-85799958D01*
X214228039Y-85750000D01*
X213971961Y-85750000D01*
X213720804Y-85799958D01*
X213484219Y-85897955D01*
X213271298Y-86040224D01*
X213090224Y-86221298D01*
X212947955Y-86434219D01*
X212852177Y-86665447D01*
X212852177Y-86200000D01*
X212843489Y-86111785D01*
X212817757Y-86026959D01*
X212775971Y-85948784D01*
X212719737Y-85880263D01*
X212651216Y-85824029D01*
X212573041Y-85782243D01*
X212488215Y-85756511D01*
X212400000Y-85747823D01*
X210700000Y-85747823D01*
X210611785Y-85756511D01*
X210526959Y-85782243D01*
X210448784Y-85824029D01*
X210380263Y-85880263D01*
X210324029Y-85948784D01*
X210282243Y-86026959D01*
X210256511Y-86111785D01*
X210247823Y-86200000D01*
X210247823Y-86641305D01*
X210162045Y-86434219D01*
X210019776Y-86221298D01*
X209838702Y-86040224D01*
X209625781Y-85897955D01*
X209389196Y-85799958D01*
X209138039Y-85750000D01*
X208881961Y-85750000D01*
X208630804Y-85799958D01*
X208394219Y-85897955D01*
X208181298Y-86040224D01*
X208000224Y-86221298D01*
X207857955Y-86434219D01*
X207759958Y-86670804D01*
X207740000Y-86771140D01*
X207720042Y-86670804D01*
X207622045Y-86434219D01*
X207479776Y-86221298D01*
X207298702Y-86040224D01*
X207085781Y-85897955D01*
X206849196Y-85799958D01*
X206598039Y-85750000D01*
X206341961Y-85750000D01*
X206090804Y-85799958D01*
X205854219Y-85897955D01*
X205641298Y-86040224D01*
X205460224Y-86221298D01*
X205317955Y-86434219D01*
X205219958Y-86670804D01*
X205200000Y-86771140D01*
X205180042Y-86670804D01*
X205082045Y-86434219D01*
X204939776Y-86221298D01*
X204758702Y-86040224D01*
X204545781Y-85897955D01*
X204309196Y-85799958D01*
X204058039Y-85750000D01*
X203801961Y-85750000D01*
X203550804Y-85799958D01*
X203314219Y-85897955D01*
X203101298Y-86040224D01*
X202920224Y-86221298D01*
X202777955Y-86434219D01*
X202679958Y-86670804D01*
X202660000Y-86771140D01*
X202640042Y-86670804D01*
X202542045Y-86434219D01*
X202399776Y-86221298D01*
X202218702Y-86040224D01*
X202005781Y-85897955D01*
X201769196Y-85799958D01*
X201518039Y-85750000D01*
X201261961Y-85750000D01*
X201010804Y-85799958D01*
X200774219Y-85897955D01*
X200561298Y-86040224D01*
X200380224Y-86221298D01*
X200237955Y-86434219D01*
X200139958Y-86670804D01*
X200120000Y-86771140D01*
X200100042Y-86670804D01*
X200002045Y-86434219D01*
X199859776Y-86221298D01*
X199678702Y-86040224D01*
X199465781Y-85897955D01*
X199229196Y-85799958D01*
X198978039Y-85750000D01*
X198721961Y-85750000D01*
X198470804Y-85799958D01*
X198234219Y-85897955D01*
X198021298Y-86040224D01*
X197840224Y-86221298D01*
X197697955Y-86434219D01*
X197599958Y-86670804D01*
X197580000Y-86771140D01*
X197560042Y-86670804D01*
X197462045Y-86434219D01*
X197319776Y-86221298D01*
X197138702Y-86040224D01*
X196925781Y-85897955D01*
X196689196Y-85799958D01*
X196438039Y-85750000D01*
X196181961Y-85750000D01*
X195930804Y-85799958D01*
X195694219Y-85897955D01*
X195481298Y-86040224D01*
X195300224Y-86221298D01*
X195157955Y-86434219D01*
X195059958Y-86670804D01*
X195010000Y-86921961D01*
X195010000Y-87178039D01*
X195059958Y-87429196D01*
X195157955Y-87665781D01*
X195300224Y-87878702D01*
X195481298Y-88059776D01*
X195694219Y-88202045D01*
X195930804Y-88300042D01*
X196076414Y-88329005D01*
X195920804Y-88359958D01*
X195684219Y-88457955D01*
X195471298Y-88600224D01*
X195290224Y-88781298D01*
X195147955Y-88994219D01*
X195049958Y-89230804D01*
X195000000Y-89481961D01*
X195000000Y-89738039D01*
X195049958Y-89989196D01*
X195147955Y-90225781D01*
X195290224Y-90438702D01*
X195471298Y-90619776D01*
X195500205Y-90639091D01*
X195450000Y-90638816D01*
X195321009Y-90651520D01*
X195196976Y-90689146D01*
X195082666Y-90750246D01*
X194982472Y-90832472D01*
X194900246Y-90932666D01*
X194839146Y-91046976D01*
X194801520Y-91171009D01*
X194788816Y-91300000D01*
X194792000Y-91881500D01*
X194956500Y-92046000D01*
X196196000Y-92046000D01*
X196196000Y-92026000D01*
X196404000Y-92026000D01*
X196404000Y-92046000D01*
X198736000Y-92046000D01*
X198736000Y-92026000D01*
X198944000Y-92026000D01*
X198944000Y-92046000D01*
X201276000Y-92046000D01*
X201276000Y-92026000D01*
X201484000Y-92026000D01*
X201484000Y-92046000D01*
X203816000Y-92046000D01*
X203816000Y-92026000D01*
X204024000Y-92026000D01*
X204024000Y-92046000D01*
X206356000Y-92046000D01*
X206356000Y-92026000D01*
X206564000Y-92026000D01*
X206564000Y-92046000D01*
X208896000Y-92046000D01*
X208896000Y-92026000D01*
X209104000Y-92026000D01*
X209104000Y-92046000D01*
X211436000Y-92046000D01*
X211436000Y-92026000D01*
X211644000Y-92026000D01*
X211644000Y-92046000D01*
X211664000Y-92046000D01*
X211664000Y-92254000D01*
X211644000Y-92254000D01*
X211644000Y-92274000D01*
X211436000Y-92274000D01*
X211436000Y-92254000D01*
X209104000Y-92254000D01*
X209104000Y-92274000D01*
X208896000Y-92274000D01*
X208896000Y-92254000D01*
X206564000Y-92254000D01*
X206564000Y-92274000D01*
X206356000Y-92274000D01*
X206356000Y-92254000D01*
X204024000Y-92254000D01*
X204024000Y-92274000D01*
X203816000Y-92274000D01*
X203816000Y-92254000D01*
X201484000Y-92254000D01*
X201484000Y-92274000D01*
X201276000Y-92274000D01*
X201276000Y-92254000D01*
X198944000Y-92254000D01*
X198944000Y-92274000D01*
X198736000Y-92274000D01*
X198736000Y-92254000D01*
X196404000Y-92254000D01*
X196404000Y-92274000D01*
X196196000Y-92274000D01*
X196196000Y-92254000D01*
X194956500Y-92254000D01*
X194792000Y-92418500D01*
X194788816Y-93000000D01*
X194791278Y-93025000D01*
X190300000Y-93025000D01*
X190300000Y-92023719D01*
X190369691Y-91855470D01*
X190460000Y-91401455D01*
X190460000Y-90938545D01*
X190369691Y-90484530D01*
X190300000Y-90316281D01*
X190300000Y-88207216D01*
X190404666Y-88067651D01*
X190427012Y-88030852D01*
X190449869Y-87994371D01*
X190452779Y-87988421D01*
X190452784Y-87988413D01*
X190452787Y-87988404D01*
X190642149Y-87594379D01*
X190656937Y-87553898D01*
X190672257Y-87513713D01*
X190673959Y-87507303D01*
X190783182Y-87083991D01*
X190789817Y-87041465D01*
X190797049Y-86999015D01*
X190797473Y-86992396D01*
X190821839Y-86565666D01*
X190823165Y-86552212D01*
X190823183Y-86236454D01*
X190891282Y-86250000D01*
X191058718Y-86250000D01*
X191222936Y-86217335D01*
X191377626Y-86153260D01*
X191516844Y-86060238D01*
X191635238Y-85941844D01*
X191728260Y-85802626D01*
X191780935Y-85675458D01*
X191897374Y-85753260D01*
X192052064Y-85817335D01*
X192216282Y-85850000D01*
X192383718Y-85850000D01*
X192547936Y-85817335D01*
X192702626Y-85753260D01*
X192841844Y-85660238D01*
X192960238Y-85541844D01*
X193050000Y-85407505D01*
X193050000Y-88647918D01*
X192939762Y-88758156D01*
X192846740Y-88897374D01*
X192782665Y-89052064D01*
X192750000Y-89216282D01*
X192750000Y-89383718D01*
X192782665Y-89547936D01*
X192846740Y-89702626D01*
X192939762Y-89841844D01*
X193058156Y-89960238D01*
X193197374Y-90053260D01*
X193352064Y-90117335D01*
X193516282Y-90150000D01*
X193683718Y-90150000D01*
X193847936Y-90117335D01*
X194002626Y-90053260D01*
X194141844Y-89960238D01*
X194260238Y-89841844D01*
X194353260Y-89702626D01*
X194417335Y-89547936D01*
X194450000Y-89383718D01*
X194450000Y-89216282D01*
X194417335Y-89052064D01*
X194353260Y-88897374D01*
X194260238Y-88758156D01*
X194150000Y-88647918D01*
X194150000Y-84171307D01*
X213244975Y-84171307D01*
X213244975Y-84338743D01*
X213277640Y-84502961D01*
X213341715Y-84657651D01*
X213434737Y-84796869D01*
X213553131Y-84915263D01*
X213692349Y-85008285D01*
X213847039Y-85072360D01*
X214011257Y-85105025D01*
X214178693Y-85105025D01*
X214342911Y-85072360D01*
X214497601Y-85008285D01*
X214636819Y-84915263D01*
X214755213Y-84796869D01*
X214848235Y-84657651D01*
X214912310Y-84502961D01*
X214944975Y-84338743D01*
X214944975Y-84216282D01*
X215800000Y-84216282D01*
X215800000Y-84383718D01*
X215832665Y-84547936D01*
X215896740Y-84702626D01*
X215989762Y-84841844D01*
X216108156Y-84960238D01*
X216247374Y-85053260D01*
X216402064Y-85117335D01*
X216566282Y-85150000D01*
X216733718Y-85150000D01*
X216897936Y-85117335D01*
X217052626Y-85053260D01*
X217191844Y-84960238D01*
X217310238Y-84841844D01*
X217403260Y-84702626D01*
X217467335Y-84547936D01*
X217500000Y-84383718D01*
X217500000Y-84216282D01*
X217467335Y-84052064D01*
X217403260Y-83897374D01*
X217310238Y-83758156D01*
X217191844Y-83639762D01*
X217052626Y-83546740D01*
X216897936Y-83482665D01*
X216733718Y-83450000D01*
X216566282Y-83450000D01*
X216402064Y-83482665D01*
X216247374Y-83546740D01*
X216108156Y-83639762D01*
X215989762Y-83758156D01*
X215896740Y-83897374D01*
X215832665Y-84052064D01*
X215800000Y-84216282D01*
X214944975Y-84216282D01*
X214944975Y-84171307D01*
X214912310Y-84007089D01*
X214848235Y-83852399D01*
X214755213Y-83713181D01*
X214636819Y-83594787D01*
X214497601Y-83501765D01*
X214342911Y-83437690D01*
X214178693Y-83405025D01*
X214011257Y-83405025D01*
X213847039Y-83437690D01*
X213692349Y-83501765D01*
X213553131Y-83594787D01*
X213434737Y-83713181D01*
X213341715Y-83852399D01*
X213277640Y-84007089D01*
X213244975Y-84171307D01*
X194150000Y-84171307D01*
X194150000Y-79031842D01*
X211421274Y-79031842D01*
X211421274Y-79199278D01*
X211453939Y-79363496D01*
X211518014Y-79518186D01*
X211611036Y-79657404D01*
X211729430Y-79775798D01*
X211868648Y-79868820D01*
X212023338Y-79932895D01*
X212187556Y-79965560D01*
X212354992Y-79965560D01*
X212519210Y-79932895D01*
X212673900Y-79868820D01*
X212813118Y-79775798D01*
X212931512Y-79657404D01*
X213024534Y-79518186D01*
X213088609Y-79363496D01*
X213121274Y-79199278D01*
X213121274Y-79031842D01*
X213088609Y-78867624D01*
X213024534Y-78712934D01*
X212931512Y-78573716D01*
X212813118Y-78455322D01*
X212673900Y-78362300D01*
X212519210Y-78298225D01*
X212354992Y-78265560D01*
X212187556Y-78265560D01*
X212023338Y-78298225D01*
X211868648Y-78362300D01*
X211729430Y-78455322D01*
X211611036Y-78573716D01*
X211518014Y-78712934D01*
X211453939Y-78867624D01*
X211421274Y-79031842D01*
X194150000Y-79031842D01*
X194150000Y-74416282D01*
X199500000Y-74416282D01*
X199500000Y-74583718D01*
X199532665Y-74747936D01*
X199596740Y-74902626D01*
X199689762Y-75041844D01*
X199808156Y-75160238D01*
X199947374Y-75253260D01*
X200060214Y-75300000D01*
X199947374Y-75346740D01*
X199808156Y-75439762D01*
X199689762Y-75558156D01*
X199596740Y-75697374D01*
X199532665Y-75852064D01*
X199500000Y-76016282D01*
X199500000Y-76183718D01*
X199532665Y-76347936D01*
X199596740Y-76502626D01*
X199689762Y-76641844D01*
X199808156Y-76760238D01*
X199947374Y-76853260D01*
X200102064Y-76917335D01*
X200266282Y-76950000D01*
X200433718Y-76950000D01*
X200597936Y-76917335D01*
X200752626Y-76853260D01*
X200891844Y-76760238D01*
X201010238Y-76641844D01*
X201103260Y-76502626D01*
X201167335Y-76347936D01*
X201200000Y-76183718D01*
X201200000Y-76016282D01*
X201167335Y-75852064D01*
X201103260Y-75697374D01*
X201010238Y-75558156D01*
X200891844Y-75439762D01*
X200752626Y-75346740D01*
X200639786Y-75300000D01*
X200752626Y-75253260D01*
X200891844Y-75160238D01*
X201010238Y-75041844D01*
X201103260Y-74902626D01*
X201167335Y-74747936D01*
X201200000Y-74583718D01*
X201200000Y-74416282D01*
X201167335Y-74252064D01*
X201103260Y-74097374D01*
X201010238Y-73958156D01*
X200891844Y-73839762D01*
X200752626Y-73746740D01*
X200597936Y-73682665D01*
X200433718Y-73650000D01*
X200266282Y-73650000D01*
X200102064Y-73682665D01*
X199947374Y-73746740D01*
X199808156Y-73839762D01*
X199689762Y-73958156D01*
X199596740Y-74097374D01*
X199532665Y-74252064D01*
X199500000Y-74416282D01*
X194150000Y-74416282D01*
X194150000Y-74400453D01*
X196541342Y-72009111D01*
X201792829Y-72009111D01*
X201792829Y-72176547D01*
X201825494Y-72340765D01*
X201889569Y-72495455D01*
X201982591Y-72634673D01*
X202100985Y-72753067D01*
X202240203Y-72846089D01*
X202394893Y-72910164D01*
X202418869Y-72914933D01*
X202418869Y-72958728D01*
X202451534Y-73122946D01*
X202515609Y-73277636D01*
X202608631Y-73416854D01*
X202727025Y-73535248D01*
X202866243Y-73628270D01*
X203020933Y-73692345D01*
X203127513Y-73713545D01*
X203047374Y-73746740D01*
X202908156Y-73839762D01*
X202789762Y-73958156D01*
X202696740Y-74097374D01*
X202632665Y-74252064D01*
X202600000Y-74416282D01*
X202600000Y-74583718D01*
X202632665Y-74747936D01*
X202696740Y-74902626D01*
X202789762Y-75041844D01*
X202908156Y-75160238D01*
X203047374Y-75253260D01*
X203160214Y-75300000D01*
X203047374Y-75346740D01*
X202908156Y-75439762D01*
X202789762Y-75558156D01*
X202696740Y-75697374D01*
X202632665Y-75852064D01*
X202600000Y-76016282D01*
X202600000Y-76183718D01*
X202632665Y-76347936D01*
X202696740Y-76502626D01*
X202789762Y-76641844D01*
X202908156Y-76760238D01*
X203047374Y-76853260D01*
X203202064Y-76917335D01*
X203366282Y-76950000D01*
X203533718Y-76950000D01*
X203697936Y-76917335D01*
X203852626Y-76853260D01*
X203991844Y-76760238D01*
X204110238Y-76641844D01*
X204203260Y-76502626D01*
X204267335Y-76347936D01*
X204300000Y-76183718D01*
X204300000Y-76016282D01*
X204267335Y-75852064D01*
X204203260Y-75697374D01*
X204110238Y-75558156D01*
X203991844Y-75439762D01*
X203852626Y-75346740D01*
X203739786Y-75300000D01*
X203852626Y-75253260D01*
X203991844Y-75160238D01*
X204110238Y-75041844D01*
X204203260Y-74902626D01*
X204251352Y-74786521D01*
X204289761Y-74844004D01*
X204408155Y-74962398D01*
X204547373Y-75055420D01*
X204702063Y-75119495D01*
X204866281Y-75152160D01*
X205033717Y-75152160D01*
X205197935Y-75119495D01*
X205352625Y-75055420D01*
X205491843Y-74962398D01*
X205610237Y-74844004D01*
X205697997Y-74712661D01*
X205773342Y-74825424D01*
X205891736Y-74943818D01*
X206030954Y-75036840D01*
X206185644Y-75100915D01*
X206349862Y-75133580D01*
X206517298Y-75133580D01*
X206681516Y-75100915D01*
X206836206Y-75036840D01*
X206975424Y-74943818D01*
X207049798Y-74869444D01*
X207049798Y-74883721D01*
X207082463Y-75047939D01*
X207146538Y-75202629D01*
X207239560Y-75341847D01*
X207357954Y-75460241D01*
X207497172Y-75553263D01*
X207651862Y-75617338D01*
X207816080Y-75650003D01*
X207983516Y-75650003D01*
X208147734Y-75617338D01*
X208302424Y-75553263D01*
X208441642Y-75460241D01*
X208560036Y-75341847D01*
X208653058Y-75202629D01*
X208717133Y-75047939D01*
X208749798Y-74883721D01*
X208749798Y-74716285D01*
X208717133Y-74552067D01*
X208653058Y-74397377D01*
X208560036Y-74258159D01*
X208441642Y-74139765D01*
X208302424Y-74046743D01*
X208147734Y-73982668D01*
X207983516Y-73950003D01*
X207816080Y-73950003D01*
X207651862Y-73982668D01*
X207497172Y-74046743D01*
X207357954Y-74139765D01*
X207283580Y-74214139D01*
X207283580Y-74199862D01*
X207250915Y-74035644D01*
X207235326Y-73998009D01*
X207291854Y-73960238D01*
X207410248Y-73841844D01*
X207503270Y-73702626D01*
X207546409Y-73598480D01*
X207608166Y-73660237D01*
X207747384Y-73753259D01*
X207902074Y-73817334D01*
X208066292Y-73849999D01*
X208233728Y-73849999D01*
X208397946Y-73817334D01*
X208552636Y-73753259D01*
X208691854Y-73660237D01*
X208810248Y-73541843D01*
X208903270Y-73402625D01*
X208967345Y-73247935D01*
X209000010Y-73083717D01*
X209000010Y-72916281D01*
X208996037Y-72896306D01*
X213530025Y-72896306D01*
X213530025Y-73063742D01*
X213562690Y-73227960D01*
X213626765Y-73382650D01*
X213719787Y-73521868D01*
X213838181Y-73640262D01*
X213977399Y-73733284D01*
X214132089Y-73797359D01*
X214296307Y-73830024D01*
X214463743Y-73830024D01*
X214627961Y-73797359D01*
X214782651Y-73733284D01*
X214921869Y-73640262D01*
X215040263Y-73521868D01*
X215133285Y-73382650D01*
X215197360Y-73227960D01*
X215230025Y-73063742D01*
X215230025Y-72896306D01*
X215197360Y-72732088D01*
X215133285Y-72577398D01*
X215040263Y-72438180D01*
X214921869Y-72319786D01*
X214782651Y-72226764D01*
X214627961Y-72162689D01*
X214463743Y-72130024D01*
X214296307Y-72130024D01*
X214132089Y-72162689D01*
X213977399Y-72226764D01*
X213838181Y-72319786D01*
X213719787Y-72438180D01*
X213626765Y-72577398D01*
X213562690Y-72732088D01*
X213530025Y-72896306D01*
X208996037Y-72896306D01*
X208967345Y-72752063D01*
X208903270Y-72597373D01*
X208810248Y-72458155D01*
X208691854Y-72339761D01*
X208552636Y-72246739D01*
X208397946Y-72182664D01*
X208233728Y-72149999D01*
X208066292Y-72149999D01*
X207902074Y-72182664D01*
X207747384Y-72246739D01*
X207608166Y-72339761D01*
X207489772Y-72458155D01*
X207396750Y-72597373D01*
X207353611Y-72701519D01*
X207291854Y-72639762D01*
X207152636Y-72546740D01*
X206997946Y-72482665D01*
X206833728Y-72450000D01*
X206666292Y-72450000D01*
X206502074Y-72482665D01*
X206347384Y-72546740D01*
X206208166Y-72639762D01*
X206089772Y-72758156D01*
X205996750Y-72897374D01*
X205932675Y-73052064D01*
X205900010Y-73216282D01*
X205900010Y-73383718D01*
X205932675Y-73547936D01*
X205948264Y-73585571D01*
X205891736Y-73623342D01*
X205773342Y-73741736D01*
X205685582Y-73873079D01*
X205610237Y-73760316D01*
X205491843Y-73641922D01*
X205352625Y-73548900D01*
X205197935Y-73484825D01*
X205033717Y-73452160D01*
X204942216Y-73452160D01*
X204917335Y-73327074D01*
X204853260Y-73172384D01*
X204760238Y-73033166D01*
X204641844Y-72914772D01*
X204502626Y-72821750D01*
X204347936Y-72757675D01*
X204183718Y-72725010D01*
X204105685Y-72725010D01*
X204086204Y-72627074D01*
X204022129Y-72472384D01*
X203929107Y-72333166D01*
X203810713Y-72214772D01*
X203671495Y-72121750D01*
X203516805Y-72057675D01*
X203492829Y-72052906D01*
X203492829Y-72009111D01*
X203460164Y-71844893D01*
X203396089Y-71690203D01*
X203303067Y-71550985D01*
X203218364Y-71466282D01*
X215950000Y-71466282D01*
X215950000Y-71633718D01*
X215982665Y-71797936D01*
X216046740Y-71952626D01*
X216139762Y-72091844D01*
X216258156Y-72210238D01*
X216397374Y-72303260D01*
X216552064Y-72367335D01*
X216716282Y-72400000D01*
X216883718Y-72400000D01*
X217047936Y-72367335D01*
X217202626Y-72303260D01*
X217341844Y-72210238D01*
X217374014Y-72178069D01*
X217458157Y-72262212D01*
X217597375Y-72355234D01*
X217752065Y-72419309D01*
X217916283Y-72451974D01*
X218083719Y-72451974D01*
X218247937Y-72419309D01*
X218402627Y-72355234D01*
X218541845Y-72262212D01*
X218660239Y-72143818D01*
X218753261Y-72004600D01*
X218817336Y-71849910D01*
X218850001Y-71685692D01*
X218850001Y-71518256D01*
X218817336Y-71354038D01*
X218753261Y-71199348D01*
X218660239Y-71060130D01*
X218541845Y-70941736D01*
X218402627Y-70848714D01*
X218247937Y-70784639D01*
X218083719Y-70751974D01*
X217916283Y-70751974D01*
X217752065Y-70784639D01*
X217597375Y-70848714D01*
X217458157Y-70941736D01*
X217425988Y-70973906D01*
X217341844Y-70889762D01*
X217202626Y-70796740D01*
X217047936Y-70732665D01*
X216883718Y-70700000D01*
X216716282Y-70700000D01*
X216552064Y-70732665D01*
X216397374Y-70796740D01*
X216258156Y-70889762D01*
X216139762Y-71008156D01*
X216046740Y-71147374D01*
X215982665Y-71302064D01*
X215950000Y-71466282D01*
X203218364Y-71466282D01*
X203184673Y-71432591D01*
X203045455Y-71339569D01*
X202890765Y-71275494D01*
X202726547Y-71242829D01*
X202559111Y-71242829D01*
X202394893Y-71275494D01*
X202240203Y-71339569D01*
X202100985Y-71432591D01*
X201982591Y-71550985D01*
X201889569Y-71690203D01*
X201825494Y-71844893D01*
X201792829Y-72009111D01*
X196541342Y-72009111D01*
X198642359Y-69908094D01*
X205188984Y-69908094D01*
X205196627Y-70110360D01*
X205368790Y-70187635D01*
X205552719Y-70229838D01*
X205741349Y-70235346D01*
X205927428Y-70203950D01*
X206103807Y-70136854D01*
X206153373Y-70110360D01*
X206161016Y-69908094D01*
X206463984Y-69908094D01*
X206471627Y-70110360D01*
X206643790Y-70187635D01*
X206827719Y-70229838D01*
X207016349Y-70235346D01*
X207202428Y-70203950D01*
X207378807Y-70136854D01*
X207428373Y-70110360D01*
X207436016Y-69908094D01*
X207738984Y-69908094D01*
X207746627Y-70110360D01*
X207918790Y-70187635D01*
X208102719Y-70229838D01*
X208291349Y-70235346D01*
X208477428Y-70203950D01*
X208653807Y-70136854D01*
X208703373Y-70110360D01*
X208711016Y-69908094D01*
X208225000Y-69422078D01*
X207738984Y-69908094D01*
X207436016Y-69908094D01*
X206950000Y-69422078D01*
X206463984Y-69908094D01*
X206161016Y-69908094D01*
X205675000Y-69422078D01*
X205188984Y-69908094D01*
X198642359Y-69908094D01*
X199413089Y-69137364D01*
X199469081Y-69221163D01*
X199587475Y-69339557D01*
X199726693Y-69432579D01*
X199881383Y-69496654D01*
X200045601Y-69529319D01*
X200213037Y-69529319D01*
X200377255Y-69496654D01*
X200531945Y-69432579D01*
X200668481Y-69341349D01*
X204714654Y-69341349D01*
X204746050Y-69527428D01*
X204813146Y-69703807D01*
X204839640Y-69753373D01*
X205041906Y-69761016D01*
X205527922Y-69275000D01*
X205041906Y-68788984D01*
X204839640Y-68796627D01*
X204762365Y-68968790D01*
X204720162Y-69152719D01*
X204714654Y-69341349D01*
X200668481Y-69341349D01*
X200671163Y-69339557D01*
X200789557Y-69221163D01*
X200882579Y-69081945D01*
X200946654Y-68927255D01*
X200979319Y-68763037D01*
X200979319Y-68595601D01*
X200946654Y-68431383D01*
X200882579Y-68276693D01*
X200789557Y-68137475D01*
X200718431Y-68066349D01*
X204714654Y-68066349D01*
X204746050Y-68252428D01*
X204813146Y-68428807D01*
X204839640Y-68478373D01*
X205041906Y-68486016D01*
X205527922Y-68000000D01*
X205041906Y-67513984D01*
X204839640Y-67521627D01*
X204762365Y-67693790D01*
X204720162Y-67877719D01*
X204714654Y-68066349D01*
X200718431Y-68066349D01*
X200671163Y-68019081D01*
X200587364Y-67963089D01*
X203000454Y-65549999D01*
X204113195Y-65549999D01*
X204100010Y-65616282D01*
X204100010Y-65783718D01*
X204132675Y-65947936D01*
X204196750Y-66102626D01*
X204289772Y-66241844D01*
X204408166Y-66360238D01*
X204547384Y-66453260D01*
X204702074Y-66517335D01*
X204738109Y-66524503D01*
X204720162Y-66602719D01*
X204714654Y-66791349D01*
X204746050Y-66977428D01*
X204813146Y-67153807D01*
X204839640Y-67203373D01*
X205041906Y-67211016D01*
X205527922Y-66725000D01*
X205513780Y-66710858D01*
X205660858Y-66563780D01*
X205675000Y-66577922D01*
X206161016Y-66091906D01*
X206153373Y-65889640D01*
X205981210Y-65812365D01*
X205800010Y-65770788D01*
X205800010Y-65616282D01*
X205786825Y-65549999D01*
X207513185Y-65549999D01*
X207500000Y-65616282D01*
X207500000Y-65783718D01*
X207532665Y-65947936D01*
X207546524Y-65981395D01*
X207436016Y-66091903D01*
X207428373Y-65889640D01*
X207256210Y-65812365D01*
X207072281Y-65770162D01*
X206883651Y-65764654D01*
X206697572Y-65796050D01*
X206521193Y-65863146D01*
X206471627Y-65889640D01*
X206463984Y-66091906D01*
X206950000Y-66577922D01*
X206964143Y-66563780D01*
X207111221Y-66710858D01*
X207097078Y-66725000D01*
X207285200Y-66913122D01*
X207296050Y-66977428D01*
X207354685Y-67131565D01*
X207256210Y-67087365D01*
X207138212Y-67060290D01*
X206950000Y-66872078D01*
X206761878Y-67060200D01*
X206697572Y-67071050D01*
X206543435Y-67129685D01*
X206587635Y-67031210D01*
X206614710Y-66913212D01*
X206802922Y-66725000D01*
X206614800Y-66536878D01*
X206603950Y-66472572D01*
X206536854Y-66296193D01*
X206510360Y-66246627D01*
X206317252Y-66239330D01*
X206316906Y-66238984D01*
X206312500Y-66239150D01*
X206308094Y-66238984D01*
X206307748Y-66239330D01*
X206114640Y-66246627D01*
X206037365Y-66418790D01*
X206010290Y-66536788D01*
X205822078Y-66725000D01*
X206010200Y-66913122D01*
X206021050Y-66977428D01*
X206079685Y-67131565D01*
X205981210Y-67087365D01*
X205863212Y-67060290D01*
X205675000Y-66872078D01*
X205486878Y-67060200D01*
X205422572Y-67071050D01*
X205246193Y-67138146D01*
X205196627Y-67164640D01*
X205189330Y-67357748D01*
X205188984Y-67358094D01*
X205189150Y-67362500D01*
X205188984Y-67366906D01*
X205189330Y-67367252D01*
X205196627Y-67560360D01*
X205368790Y-67637635D01*
X205486788Y-67664710D01*
X205675000Y-67852922D01*
X205863122Y-67664800D01*
X205927428Y-67653950D01*
X206081565Y-67595315D01*
X206037365Y-67693790D01*
X206010290Y-67811788D01*
X205822078Y-68000000D01*
X206010200Y-68188122D01*
X206021050Y-68252428D01*
X206079685Y-68406565D01*
X205981210Y-68362365D01*
X205863212Y-68335290D01*
X205675000Y-68147078D01*
X205486878Y-68335200D01*
X205422572Y-68346050D01*
X205246193Y-68413146D01*
X205196627Y-68439640D01*
X205189330Y-68632748D01*
X205188984Y-68633094D01*
X205189150Y-68637500D01*
X205188984Y-68641906D01*
X205189330Y-68642252D01*
X205196627Y-68835360D01*
X205368790Y-68912635D01*
X205486788Y-68939710D01*
X205675000Y-69127922D01*
X205863122Y-68939800D01*
X205927428Y-68928950D01*
X206081565Y-68870315D01*
X206037365Y-68968790D01*
X206010290Y-69086788D01*
X205822078Y-69275000D01*
X206010200Y-69463122D01*
X206021050Y-69527428D01*
X206088146Y-69703807D01*
X206114640Y-69753373D01*
X206307748Y-69760670D01*
X206308094Y-69761016D01*
X206312500Y-69760850D01*
X206316906Y-69761016D01*
X206317252Y-69760670D01*
X206510360Y-69753373D01*
X206587635Y-69581210D01*
X206614710Y-69463212D01*
X206802922Y-69275000D01*
X206614800Y-69086878D01*
X206603950Y-69022572D01*
X206545315Y-68868435D01*
X206643790Y-68912635D01*
X206761788Y-68939710D01*
X206950000Y-69127922D01*
X207138122Y-68939800D01*
X207202428Y-68928950D01*
X207356565Y-68870315D01*
X207312365Y-68968790D01*
X207285290Y-69086788D01*
X207097078Y-69275000D01*
X207285200Y-69463122D01*
X207296050Y-69527428D01*
X207363146Y-69703807D01*
X207389640Y-69753373D01*
X207582748Y-69760670D01*
X207583094Y-69761016D01*
X207587500Y-69760850D01*
X207591906Y-69761016D01*
X207592252Y-69760670D01*
X207785360Y-69753373D01*
X207862635Y-69581210D01*
X207889710Y-69463212D01*
X208077922Y-69275000D01*
X208372078Y-69275000D01*
X208858094Y-69761016D01*
X209060360Y-69753373D01*
X209137635Y-69581210D01*
X209179838Y-69397281D01*
X209185346Y-69208651D01*
X209165544Y-69091283D01*
X212399997Y-69091283D01*
X212399997Y-69258719D01*
X212432662Y-69422937D01*
X212496737Y-69577627D01*
X212589759Y-69716845D01*
X212708153Y-69835239D01*
X212847371Y-69928261D01*
X213002061Y-69992336D01*
X213166279Y-70025001D01*
X213333715Y-70025001D01*
X213497933Y-69992336D01*
X213652623Y-69928261D01*
X213791841Y-69835239D01*
X213910235Y-69716845D01*
X214003257Y-69577627D01*
X214067332Y-69422937D01*
X214099997Y-69258719D01*
X214099997Y-69091283D01*
X214067332Y-68927065D01*
X214003257Y-68772375D01*
X213910235Y-68633157D01*
X213791841Y-68514763D01*
X213652623Y-68421741D01*
X213497933Y-68357666D01*
X213333715Y-68325001D01*
X213166279Y-68325001D01*
X213002061Y-68357666D01*
X212847371Y-68421741D01*
X212708153Y-68514763D01*
X212589759Y-68633157D01*
X212496737Y-68772375D01*
X212432662Y-68927065D01*
X212399997Y-69091283D01*
X209165544Y-69091283D01*
X209153950Y-69022572D01*
X209086854Y-68846193D01*
X209060360Y-68796627D01*
X208858094Y-68788984D01*
X208372078Y-69275000D01*
X208077922Y-69275000D01*
X207889800Y-69086878D01*
X207878950Y-69022572D01*
X207820315Y-68868435D01*
X207918790Y-68912635D01*
X208036788Y-68939710D01*
X208225000Y-69127922D01*
X208413122Y-68939800D01*
X208477428Y-68928950D01*
X208653807Y-68861854D01*
X208703373Y-68835360D01*
X208710670Y-68642252D01*
X208711016Y-68641906D01*
X208710850Y-68637500D01*
X208711016Y-68633094D01*
X208710670Y-68632748D01*
X208703373Y-68439640D01*
X208531210Y-68362365D01*
X208413212Y-68335290D01*
X208225000Y-68147078D01*
X208036878Y-68335200D01*
X207972572Y-68346050D01*
X207818435Y-68404685D01*
X207862635Y-68306210D01*
X207889710Y-68188212D01*
X208077922Y-68000000D01*
X207889800Y-67811878D01*
X207878950Y-67747572D01*
X207820315Y-67593435D01*
X207918790Y-67637635D01*
X208036788Y-67664710D01*
X208225000Y-67852922D01*
X208239143Y-67838780D01*
X208386221Y-67985858D01*
X208372078Y-68000000D01*
X208858094Y-68486016D01*
X208997589Y-68480745D01*
X209102054Y-68524016D01*
X209266272Y-68556681D01*
X209433708Y-68556681D01*
X209597926Y-68524016D01*
X209752616Y-68459941D01*
X209891834Y-68366919D01*
X210010228Y-68248525D01*
X210103250Y-68109307D01*
X210167325Y-67954617D01*
X210199990Y-67790399D01*
X210199990Y-67622963D01*
X210177525Y-67510023D01*
X210584501Y-67916999D01*
X210607985Y-67945614D01*
X210722187Y-68039338D01*
X210852479Y-68108980D01*
X210993854Y-68151866D01*
X211104045Y-68162719D01*
X211104052Y-68162719D01*
X211140880Y-68166346D01*
X211177707Y-68162719D01*
X213732444Y-68162719D01*
X213769271Y-68166346D01*
X213806098Y-68162719D01*
X213806106Y-68162719D01*
X213916297Y-68151866D01*
X214057672Y-68108980D01*
X214187964Y-68039338D01*
X214302166Y-67945614D01*
X214325650Y-67916999D01*
X216754287Y-65488363D01*
X216782895Y-65464885D01*
X216834113Y-65402477D01*
X216876619Y-65350683D01*
X216946261Y-65220391D01*
X216989147Y-65079016D01*
X216993013Y-65039762D01*
X217000000Y-64968825D01*
X217000000Y-64968818D01*
X217003627Y-64931990D01*
X217000000Y-64895162D01*
X217000000Y-57916282D01*
X219500000Y-57916282D01*
X219500000Y-58083718D01*
X219532665Y-58247936D01*
X219596740Y-58402626D01*
X219689762Y-58541844D01*
X219808156Y-58660238D01*
X219947374Y-58753260D01*
X220102064Y-58817335D01*
X220266282Y-58850000D01*
X220433718Y-58850000D01*
X220597936Y-58817335D01*
X220752626Y-58753260D01*
X220891844Y-58660238D01*
X221010238Y-58541844D01*
X221103260Y-58402626D01*
X221167335Y-58247936D01*
X221200000Y-58083718D01*
X221200000Y-57916282D01*
X221167335Y-57752064D01*
X221103260Y-57597374D01*
X221010238Y-57458156D01*
X220891844Y-57339762D01*
X220752626Y-57246740D01*
X220597936Y-57182665D01*
X220433718Y-57150000D01*
X220266282Y-57150000D01*
X220102064Y-57182665D01*
X219947374Y-57246740D01*
X219808156Y-57339762D01*
X219689762Y-57458156D01*
X219596740Y-57597374D01*
X219532665Y-57752064D01*
X219500000Y-57916282D01*
X217000000Y-57916282D01*
X217000000Y-56307505D01*
X217003260Y-56302626D01*
X217067335Y-56147936D01*
X217100000Y-55983718D01*
X217100000Y-55816282D01*
X217067335Y-55652064D01*
X217003260Y-55497374D01*
X216910238Y-55358156D01*
X216791844Y-55239762D01*
X216652626Y-55146740D01*
X216497936Y-55082665D01*
X216333718Y-55050000D01*
X216166282Y-55050000D01*
X216002064Y-55082665D01*
X215847374Y-55146740D01*
X215708156Y-55239762D01*
X215589762Y-55358156D01*
X215496740Y-55497374D01*
X215432665Y-55652064D01*
X215400000Y-55816282D01*
X215400000Y-55983718D01*
X215432665Y-56147936D01*
X215496740Y-56302626D01*
X215500001Y-56307506D01*
X215500000Y-64232354D01*
X215395819Y-64162743D01*
X215241129Y-64098668D01*
X215076911Y-64066003D01*
X214909475Y-64066003D01*
X214745257Y-64098668D01*
X214590567Y-64162743D01*
X214451349Y-64255765D01*
X214332955Y-64374159D01*
X214239933Y-64513377D01*
X214175858Y-64668067D01*
X214160464Y-64745457D01*
X214009165Y-64775552D01*
X213854475Y-64839627D01*
X213715257Y-64932649D01*
X213596863Y-65051043D01*
X213503841Y-65190261D01*
X213439766Y-65344951D01*
X213416917Y-65459821D01*
X213302064Y-65482667D01*
X213147374Y-65546742D01*
X213049999Y-65611806D01*
X212952623Y-65546742D01*
X212797933Y-65482667D01*
X212633715Y-65450002D01*
X212466279Y-65450002D01*
X212302061Y-65482667D01*
X212147371Y-65546742D01*
X212008153Y-65639764D01*
X211913955Y-65733962D01*
X211820817Y-65695383D01*
X211656599Y-65662718D01*
X211489163Y-65662718D01*
X211424991Y-65675483D01*
X211422880Y-65654052D01*
X211422880Y-65654043D01*
X211412027Y-65543852D01*
X211369141Y-65402477D01*
X211299499Y-65272185D01*
X211267116Y-65232727D01*
X211229256Y-65186593D01*
X211229249Y-65186586D01*
X211205775Y-65157983D01*
X211177172Y-65134509D01*
X209938370Y-63895709D01*
X209914887Y-63867095D01*
X209800685Y-63773371D01*
X209670393Y-63703729D01*
X209529018Y-63660843D01*
X209418827Y-63649990D01*
X209418819Y-63649990D01*
X209381992Y-63646363D01*
X209345165Y-63649990D01*
X207857330Y-63649990D01*
X207955026Y-63584712D01*
X208073420Y-63466318D01*
X208166442Y-63327100D01*
X208230517Y-63172410D01*
X208263182Y-63008192D01*
X208263182Y-62840756D01*
X208230517Y-62676538D01*
X208166442Y-62521848D01*
X208073420Y-62382630D01*
X207955026Y-62264236D01*
X207815808Y-62171214D01*
X207661118Y-62107139D01*
X207496900Y-62074474D01*
X207329464Y-62074474D01*
X207165246Y-62107139D01*
X207010556Y-62171214D01*
X206900003Y-62245083D01*
X206900003Y-62216282D01*
X206867338Y-62052064D01*
X206826827Y-61954262D01*
X206936153Y-61881213D01*
X207054547Y-61762819D01*
X207147569Y-61623601D01*
X207211644Y-61468911D01*
X207244309Y-61304693D01*
X207244309Y-61137257D01*
X207211644Y-60973039D01*
X207147569Y-60818349D01*
X207135316Y-60800011D01*
X212945164Y-60800011D01*
X212981991Y-60803638D01*
X213018818Y-60800011D01*
X213018826Y-60800011D01*
X213129017Y-60789158D01*
X213270392Y-60746272D01*
X213400684Y-60676630D01*
X213514886Y-60582906D01*
X213538369Y-60554292D01*
X214804288Y-59288374D01*
X214832896Y-59264896D01*
X214888311Y-59197374D01*
X214926620Y-59150694D01*
X214996262Y-59020402D01*
X215039148Y-58879027D01*
X215045224Y-58817335D01*
X215050001Y-58768836D01*
X215050001Y-58768829D01*
X215053628Y-58732001D01*
X215050001Y-58695173D01*
X215050001Y-57904826D01*
X215053628Y-57867999D01*
X215050001Y-57831171D01*
X215050001Y-57831164D01*
X215039148Y-57720973D01*
X214996262Y-57579598D01*
X214926620Y-57449306D01*
X214832896Y-57335104D01*
X214804281Y-57311620D01*
X214388380Y-56895719D01*
X214364896Y-56867104D01*
X214250694Y-56773380D01*
X214120402Y-56703738D01*
X213979027Y-56660852D01*
X213868836Y-56649999D01*
X213868828Y-56649999D01*
X213832001Y-56646372D01*
X213795174Y-56649999D01*
X209886825Y-56649999D01*
X209850000Y-56646372D01*
X209813175Y-56649999D01*
X209813166Y-56649999D01*
X209702975Y-56660852D01*
X209561600Y-56703738D01*
X209431308Y-56773380D01*
X209391850Y-56805763D01*
X209345716Y-56843623D01*
X209345709Y-56843630D01*
X209317106Y-56867104D01*
X209293631Y-56895708D01*
X208657820Y-57531520D01*
X208652064Y-57532665D01*
X208497374Y-57596740D01*
X208358156Y-57689762D01*
X208239762Y-57808156D01*
X208146740Y-57947374D01*
X208082665Y-58102064D01*
X208050000Y-58266282D01*
X208050000Y-58433718D01*
X208063185Y-58500001D01*
X195583662Y-58500001D01*
X195546837Y-58496374D01*
X195510012Y-58500001D01*
X195510003Y-58500001D01*
X195399812Y-58510854D01*
X195258437Y-58553740D01*
X195128145Y-58623382D01*
X195128143Y-58623383D01*
X195128144Y-58623383D01*
X195042553Y-58693625D01*
X195042546Y-58693632D01*
X195013943Y-58717106D01*
X194990468Y-58745710D01*
X194286710Y-59449468D01*
X194267335Y-59352064D01*
X194203260Y-59197374D01*
X194110238Y-59058156D01*
X193991844Y-58939762D01*
X193852626Y-58846740D01*
X193697936Y-58782665D01*
X193533718Y-58750000D01*
X193366282Y-58750000D01*
X193202064Y-58782665D01*
X193047374Y-58846740D01*
X192908156Y-58939762D01*
X192789762Y-59058156D01*
X192696740Y-59197374D01*
X192632665Y-59352064D01*
X192600000Y-59516282D01*
X192600000Y-59683718D01*
X192632665Y-59847936D01*
X192696740Y-60002626D01*
X192789762Y-60141844D01*
X192908156Y-60260238D01*
X193047374Y-60353260D01*
X193202064Y-60417335D01*
X193299469Y-60436710D01*
X190824516Y-62911664D01*
X190824998Y-54472604D01*
X190825069Y-54471863D01*
X190825000Y-54449439D01*
X190825001Y-54426696D01*
X190824927Y-54425945D01*
X190813180Y-50624956D01*
X190814928Y-50533430D01*
X190812961Y-50508470D01*
X190813248Y-50483423D01*
X190812630Y-50476820D01*
X190768874Y-50041839D01*
X190760403Y-49999616D01*
X190752528Y-49957305D01*
X190750639Y-49950947D01*
X190623229Y-49532750D01*
X190606723Y-49492988D01*
X190590774Y-49452999D01*
X190587686Y-49447130D01*
X190381473Y-49061644D01*
X190357584Y-49025884D01*
X190334147Y-48989716D01*
X190329978Y-48984558D01*
X190300000Y-48947990D01*
X190300000Y-46813719D01*
X190369691Y-46645470D01*
X190460000Y-46191455D01*
X190460000Y-45728545D01*
X190369691Y-45274530D01*
X190300000Y-45106281D01*
X190300000Y-44125000D01*
X199255080Y-44125000D01*
X199158156Y-44189762D01*
%TA.AperFunction,Conductor*%
D22*
G36*
X199158156Y-44189762D02*
G01*
X199039762Y-44308156D01*
X198946740Y-44447374D01*
X198882665Y-44602064D01*
X198850000Y-44766282D01*
X198850000Y-44933718D01*
X198882665Y-45097936D01*
X198946740Y-45252626D01*
X199028507Y-45375000D01*
X198946740Y-45497374D01*
X198882665Y-45652064D01*
X198850000Y-45816282D01*
X198850000Y-45983718D01*
X198882665Y-46147936D01*
X198946740Y-46302626D01*
X199028507Y-46425000D01*
X198946740Y-46547374D01*
X198882665Y-46702064D01*
X198850000Y-46866282D01*
X198850000Y-47033718D01*
X198882665Y-47197936D01*
X198946740Y-47352626D01*
X199039762Y-47491844D01*
X199158156Y-47610238D01*
X199297374Y-47703260D01*
X199452064Y-47767335D01*
X199616282Y-47800000D01*
X199783718Y-47800000D01*
X199947936Y-47767335D01*
X200102626Y-47703260D01*
X200241844Y-47610238D01*
X200250000Y-47602082D01*
X200258156Y-47610238D01*
X200397374Y-47703260D01*
X200552064Y-47767335D01*
X200716282Y-47800000D01*
X200883718Y-47800000D01*
X201047936Y-47767335D01*
X201202626Y-47703260D01*
X201341844Y-47610238D01*
X201460238Y-47491844D01*
X201553260Y-47352626D01*
X201617335Y-47197936D01*
X201650000Y-47033718D01*
X201650000Y-46866282D01*
X201617335Y-46702064D01*
X201553260Y-46547374D01*
X201471493Y-46425000D01*
X201553260Y-46302626D01*
X201617335Y-46147936D01*
X201650000Y-45983718D01*
X201650000Y-45816282D01*
X201617335Y-45652064D01*
X201553260Y-45497374D01*
X201471493Y-45375000D01*
X201553260Y-45252626D01*
X201617335Y-45097936D01*
X201650000Y-44933718D01*
X201650000Y-44766282D01*
X201617335Y-44602064D01*
X201553260Y-44447374D01*
X201460238Y-44308156D01*
X201341844Y-44189762D01*
X201244920Y-44125000D01*
X211499859Y-44125000D01*
X211447374Y-44146740D01*
X211308156Y-44239762D01*
X211189762Y-44358156D01*
X211096740Y-44497374D01*
X211032665Y-44652064D01*
X211000000Y-44816282D01*
X211000000Y-44983718D01*
X211032665Y-45147936D01*
X211096740Y-45302626D01*
X211178507Y-45425000D01*
X211096740Y-45547374D01*
X211032665Y-45702064D01*
X211000000Y-45866282D01*
X211000000Y-46033718D01*
X211032665Y-46197936D01*
X211096740Y-46352626D01*
X211178507Y-46475000D01*
X211096740Y-46597374D01*
X211032665Y-46752064D01*
X211000000Y-46916282D01*
X211000000Y-47083718D01*
X211032665Y-47247936D01*
X211096740Y-47402626D01*
X211189762Y-47541844D01*
X211308156Y-47660238D01*
X211447374Y-47753260D01*
X211602064Y-47817335D01*
X211766282Y-47850000D01*
X211933718Y-47850000D01*
X212097936Y-47817335D01*
X212252626Y-47753260D01*
X212391844Y-47660238D01*
X212400000Y-47652082D01*
X212408156Y-47660238D01*
X212547374Y-47753260D01*
X212702064Y-47817335D01*
X212866282Y-47850000D01*
X213033718Y-47850000D01*
X213197936Y-47817335D01*
X213352626Y-47753260D01*
X213491844Y-47660238D01*
X213610238Y-47541844D01*
X213703260Y-47402626D01*
X213767335Y-47247936D01*
X213800000Y-47083718D01*
X213800000Y-46916282D01*
X213767335Y-46752064D01*
X213703260Y-46597374D01*
X213621493Y-46475000D01*
X213703260Y-46352626D01*
X213767335Y-46197936D01*
X213800000Y-46033718D01*
X213800000Y-45866282D01*
X213767335Y-45702064D01*
X213703260Y-45547374D01*
X213621493Y-45425000D01*
X213703260Y-45302626D01*
X213767335Y-45147936D01*
X213800000Y-44983718D01*
X213800000Y-44816282D01*
X213767335Y-44652064D01*
X213703260Y-44497374D01*
X213610238Y-44358156D01*
X213491844Y-44239762D01*
X213352626Y-44146740D01*
X213300141Y-44125000D01*
X215299859Y-44125000D01*
X215247374Y-44146740D01*
X215108156Y-44239762D01*
X214989762Y-44358156D01*
X214896740Y-44497374D01*
X214832665Y-44652064D01*
X214800000Y-44816282D01*
X214800000Y-44983718D01*
X214832665Y-45147936D01*
X214896740Y-45302626D01*
X214978507Y-45425000D01*
X214896740Y-45547374D01*
X214832665Y-45702064D01*
X214800000Y-45866282D01*
X214800000Y-46033718D01*
X214832665Y-46197936D01*
X214896740Y-46352626D01*
X214978507Y-46475000D01*
X214896740Y-46597374D01*
X214832665Y-46752064D01*
X214800000Y-46916282D01*
X214800000Y-47083718D01*
X214832665Y-47247936D01*
X214896740Y-47402626D01*
X214989762Y-47541844D01*
X215108156Y-47660238D01*
X215247374Y-47753260D01*
X215402064Y-47817335D01*
X215566282Y-47850000D01*
X215733718Y-47850000D01*
X215897936Y-47817335D01*
X216052626Y-47753260D01*
X216191844Y-47660238D01*
X216200000Y-47652082D01*
X216208156Y-47660238D01*
X216347374Y-47753260D01*
X216502064Y-47817335D01*
X216666282Y-47850000D01*
X216833718Y-47850000D01*
X216997936Y-47817335D01*
X217152626Y-47753260D01*
X217291844Y-47660238D01*
X217410238Y-47541844D01*
X217503260Y-47402626D01*
X217567335Y-47247936D01*
X217600000Y-47083718D01*
X217600000Y-46916282D01*
X217567335Y-46752064D01*
X217503260Y-46597374D01*
X217421493Y-46475000D01*
X217503260Y-46352626D01*
X217567335Y-46197936D01*
X217600000Y-46033718D01*
X217600000Y-45866282D01*
X217567335Y-45702064D01*
X217503260Y-45547374D01*
X217421493Y-45425000D01*
X217503260Y-45302626D01*
X217567335Y-45147936D01*
X217600000Y-44983718D01*
X217600000Y-44816282D01*
X217567335Y-44652064D01*
X217503260Y-44497374D01*
X217410238Y-44358156D01*
X217291844Y-44239762D01*
X217152626Y-44146740D01*
X217100141Y-44125000D01*
X222900000Y-44125000D01*
X222900000Y-45627998D01*
X222880000Y-45728545D01*
X222880000Y-46191455D01*
X222900000Y-46292002D01*
X222900000Y-49155897D01*
X222897221Y-49161579D01*
X222897216Y-49161587D01*
X222897213Y-49161596D01*
X222707852Y-49555621D01*
X222693075Y-49596069D01*
X222677743Y-49636287D01*
X222676041Y-49642697D01*
X222566818Y-50066009D01*
X222560183Y-50108535D01*
X222552951Y-50150985D01*
X222552527Y-50157604D01*
X222528166Y-50584237D01*
X222526845Y-50597589D01*
X222525011Y-54426571D01*
X222524999Y-54426696D01*
X222525000Y-54449501D01*
X222524989Y-54473104D01*
X222525002Y-54473233D01*
X222526098Y-73647802D01*
X222420597Y-73542301D01*
X222281379Y-73449279D01*
X222126689Y-73385204D01*
X221962471Y-73352539D01*
X221795035Y-73352539D01*
X221630817Y-73385204D01*
X221476127Y-73449279D01*
X221336909Y-73542301D01*
X221218515Y-73660695D01*
X221125493Y-73799913D01*
X221061418Y-73954603D01*
X221028753Y-74118821D01*
X221028753Y-74286257D01*
X221061418Y-74450475D01*
X221125493Y-74605165D01*
X221201129Y-74718362D01*
X221146789Y-74799688D01*
X221082714Y-74954378D01*
X221050049Y-75118596D01*
X221050049Y-75286032D01*
X221082714Y-75450250D01*
X221146789Y-75604940D01*
X221239811Y-75744158D01*
X221358205Y-75862552D01*
X221497423Y-75955574D01*
X221652113Y-76019649D01*
X221816331Y-76052314D01*
X221983767Y-76052314D01*
X222147985Y-76019649D01*
X222302675Y-75955574D01*
X222441893Y-75862552D01*
X222526219Y-75778226D01*
X222526790Y-85771194D01*
X222358275Y-85674569D01*
X222078062Y-85580378D01*
X221844000Y-85710087D01*
X221844000Y-86946000D01*
X221864000Y-86946000D01*
X221864000Y-87154000D01*
X221844000Y-87154000D01*
X221844000Y-89486000D01*
X221864000Y-89486000D01*
X221864000Y-89694000D01*
X221844000Y-89694000D01*
X221844000Y-92026000D01*
X221864000Y-92026000D01*
X221864000Y-92234000D01*
X221844000Y-92234000D01*
X221844000Y-92254000D01*
X221636000Y-92254000D01*
X221636000Y-92234000D01*
X221616000Y-92234000D01*
X221616000Y-92026000D01*
X221636000Y-92026000D01*
X221636000Y-89694000D01*
X221616000Y-89694000D01*
X221616000Y-89486000D01*
X221636000Y-89486000D01*
X221636000Y-87154000D01*
X221616000Y-87154000D01*
X221616000Y-86946000D01*
X221636000Y-86946000D01*
X221636000Y-85710087D01*
X221401938Y-85580378D01*
X221121725Y-85674569D01*
X220865272Y-85821617D01*
X220642434Y-86015871D01*
X220501962Y-86197815D01*
X220493489Y-86111785D01*
X220467757Y-86026959D01*
X220425971Y-85948784D01*
X220369737Y-85880263D01*
X220301216Y-85824029D01*
X220223041Y-85782243D01*
X220138215Y-85756511D01*
X220050000Y-85747823D01*
X218350000Y-85747823D01*
X218261785Y-85756511D01*
X218176959Y-85782243D01*
X218098784Y-85824029D01*
X218030263Y-85880263D01*
X217974029Y-85948784D01*
X217932243Y-86026959D01*
X217906511Y-86111785D01*
X217897823Y-86200000D01*
X217897823Y-86709922D01*
X217890042Y-86670804D01*
X217792045Y-86434219D01*
X217649776Y-86221298D01*
X217468702Y-86040224D01*
X217255781Y-85897955D01*
X217019196Y-85799958D01*
X216768039Y-85750000D01*
X216511961Y-85750000D01*
X216260804Y-85799958D01*
X216024219Y-85897955D01*
X215811298Y-86040224D01*
X215630224Y-86221298D01*
X215487955Y-86434219D01*
X215389958Y-86670804D01*
X215370000Y-86771140D01*
X215350042Y-86670804D01*
X215252045Y-86434219D01*
X215109776Y-86221298D01*
X214928702Y-86040224D01*
X214715781Y-85897955D01*
X214479196Y-85799958D01*
X214228039Y-85750000D01*
X213971961Y-85750000D01*
X213720804Y-85799958D01*
X213484219Y-85897955D01*
X213271298Y-86040224D01*
X213090224Y-86221298D01*
X212947955Y-86434219D01*
X212852177Y-86665447D01*
X212852177Y-86200000D01*
X212843489Y-86111785D01*
X212817757Y-86026959D01*
X212775971Y-85948784D01*
X212719737Y-85880263D01*
X212651216Y-85824029D01*
X212573041Y-85782243D01*
X212488215Y-85756511D01*
X212400000Y-85747823D01*
X210700000Y-85747823D01*
X210611785Y-85756511D01*
X210526959Y-85782243D01*
X210448784Y-85824029D01*
X210380263Y-85880263D01*
X210324029Y-85948784D01*
X210282243Y-86026959D01*
X210256511Y-86111785D01*
X210247823Y-86200000D01*
X210247823Y-86641305D01*
X210162045Y-86434219D01*
X210019776Y-86221298D01*
X209838702Y-86040224D01*
X209625781Y-85897955D01*
X209389196Y-85799958D01*
X209138039Y-85750000D01*
X208881961Y-85750000D01*
X208630804Y-85799958D01*
X208394219Y-85897955D01*
X208181298Y-86040224D01*
X208000224Y-86221298D01*
X207857955Y-86434219D01*
X207759958Y-86670804D01*
X207740000Y-86771140D01*
X207720042Y-86670804D01*
X207622045Y-86434219D01*
X207479776Y-86221298D01*
X207298702Y-86040224D01*
X207085781Y-85897955D01*
X206849196Y-85799958D01*
X206598039Y-85750000D01*
X206341961Y-85750000D01*
X206090804Y-85799958D01*
X205854219Y-85897955D01*
X205641298Y-86040224D01*
X205460224Y-86221298D01*
X205317955Y-86434219D01*
X205219958Y-86670804D01*
X205200000Y-86771140D01*
X205180042Y-86670804D01*
X205082045Y-86434219D01*
X204939776Y-86221298D01*
X204758702Y-86040224D01*
X204545781Y-85897955D01*
X204309196Y-85799958D01*
X204058039Y-85750000D01*
X203801961Y-85750000D01*
X203550804Y-85799958D01*
X203314219Y-85897955D01*
X203101298Y-86040224D01*
X202920224Y-86221298D01*
X202777955Y-86434219D01*
X202679958Y-86670804D01*
X202660000Y-86771140D01*
X202640042Y-86670804D01*
X202542045Y-86434219D01*
X202399776Y-86221298D01*
X202218702Y-86040224D01*
X202005781Y-85897955D01*
X201769196Y-85799958D01*
X201518039Y-85750000D01*
X201261961Y-85750000D01*
X201010804Y-85799958D01*
X200774219Y-85897955D01*
X200561298Y-86040224D01*
X200380224Y-86221298D01*
X200237955Y-86434219D01*
X200139958Y-86670804D01*
X200120000Y-86771140D01*
X200100042Y-86670804D01*
X200002045Y-86434219D01*
X199859776Y-86221298D01*
X199678702Y-86040224D01*
X199465781Y-85897955D01*
X199229196Y-85799958D01*
X198978039Y-85750000D01*
X198721961Y-85750000D01*
X198470804Y-85799958D01*
X198234219Y-85897955D01*
X198021298Y-86040224D01*
X197840224Y-86221298D01*
X197697955Y-86434219D01*
X197599958Y-86670804D01*
X197580000Y-86771140D01*
X197560042Y-86670804D01*
X197462045Y-86434219D01*
X197319776Y-86221298D01*
X197138702Y-86040224D01*
X196925781Y-85897955D01*
X196689196Y-85799958D01*
X196438039Y-85750000D01*
X196181961Y-85750000D01*
X195930804Y-85799958D01*
X195694219Y-85897955D01*
X195481298Y-86040224D01*
X195300224Y-86221298D01*
X195157955Y-86434219D01*
X195059958Y-86670804D01*
X195010000Y-86921961D01*
X195010000Y-87178039D01*
X195059958Y-87429196D01*
X195157955Y-87665781D01*
X195300224Y-87878702D01*
X195481298Y-88059776D01*
X195694219Y-88202045D01*
X195930804Y-88300042D01*
X196076414Y-88329005D01*
X195920804Y-88359958D01*
X195684219Y-88457955D01*
X195471298Y-88600224D01*
X195290224Y-88781298D01*
X195147955Y-88994219D01*
X195049958Y-89230804D01*
X195000000Y-89481961D01*
X195000000Y-89738039D01*
X195049958Y-89989196D01*
X195147955Y-90225781D01*
X195290224Y-90438702D01*
X195471298Y-90619776D01*
X195500205Y-90639091D01*
X195450000Y-90638816D01*
X195321009Y-90651520D01*
X195196976Y-90689146D01*
X195082666Y-90750246D01*
X194982472Y-90832472D01*
X194900246Y-90932666D01*
X194839146Y-91046976D01*
X194801520Y-91171009D01*
X194788816Y-91300000D01*
X194792000Y-91881500D01*
X194956500Y-92046000D01*
X196196000Y-92046000D01*
X196196000Y-92026000D01*
X196404000Y-92026000D01*
X196404000Y-92046000D01*
X198736000Y-92046000D01*
X198736000Y-92026000D01*
X198944000Y-92026000D01*
X198944000Y-92046000D01*
X201276000Y-92046000D01*
X201276000Y-92026000D01*
X201484000Y-92026000D01*
X201484000Y-92046000D01*
X203816000Y-92046000D01*
X203816000Y-92026000D01*
X204024000Y-92026000D01*
X204024000Y-92046000D01*
X206356000Y-92046000D01*
X206356000Y-92026000D01*
X206564000Y-92026000D01*
X206564000Y-92046000D01*
X208896000Y-92046000D01*
X208896000Y-92026000D01*
X209104000Y-92026000D01*
X209104000Y-92046000D01*
X211436000Y-92046000D01*
X211436000Y-92026000D01*
X211644000Y-92026000D01*
X211644000Y-92046000D01*
X211664000Y-92046000D01*
X211664000Y-92254000D01*
X211644000Y-92254000D01*
X211644000Y-92274000D01*
X211436000Y-92274000D01*
X211436000Y-92254000D01*
X209104000Y-92254000D01*
X209104000Y-92274000D01*
X208896000Y-92274000D01*
X208896000Y-92254000D01*
X206564000Y-92254000D01*
X206564000Y-92274000D01*
X206356000Y-92274000D01*
X206356000Y-92254000D01*
X204024000Y-92254000D01*
X204024000Y-92274000D01*
X203816000Y-92274000D01*
X203816000Y-92254000D01*
X201484000Y-92254000D01*
X201484000Y-92274000D01*
X201276000Y-92274000D01*
X201276000Y-92254000D01*
X198944000Y-92254000D01*
X198944000Y-92274000D01*
X198736000Y-92274000D01*
X198736000Y-92254000D01*
X196404000Y-92254000D01*
X196404000Y-92274000D01*
X196196000Y-92274000D01*
X196196000Y-92254000D01*
X194956500Y-92254000D01*
X194792000Y-92418500D01*
X194788816Y-93000000D01*
X194791278Y-93025000D01*
X190300000Y-93025000D01*
X190300000Y-92023719D01*
X190369691Y-91855470D01*
X190460000Y-91401455D01*
X190460000Y-90938545D01*
X190369691Y-90484530D01*
X190300000Y-90316281D01*
X190300000Y-88207216D01*
X190404666Y-88067651D01*
X190427012Y-88030852D01*
X190449869Y-87994371D01*
X190452779Y-87988421D01*
X190452784Y-87988413D01*
X190452787Y-87988404D01*
X190642149Y-87594379D01*
X190656937Y-87553898D01*
X190672257Y-87513713D01*
X190673959Y-87507303D01*
X190783182Y-87083991D01*
X190789817Y-87041465D01*
X190797049Y-86999015D01*
X190797473Y-86992396D01*
X190821839Y-86565666D01*
X190823165Y-86552212D01*
X190823183Y-86236454D01*
X190891282Y-86250000D01*
X191058718Y-86250000D01*
X191222936Y-86217335D01*
X191377626Y-86153260D01*
X191516844Y-86060238D01*
X191635238Y-85941844D01*
X191728260Y-85802626D01*
X191780935Y-85675458D01*
X191897374Y-85753260D01*
X192052064Y-85817335D01*
X192216282Y-85850000D01*
X192383718Y-85850000D01*
X192547936Y-85817335D01*
X192702626Y-85753260D01*
X192841844Y-85660238D01*
X192960238Y-85541844D01*
X193050000Y-85407505D01*
X193050000Y-88647918D01*
X192939762Y-88758156D01*
X192846740Y-88897374D01*
X192782665Y-89052064D01*
X192750000Y-89216282D01*
X192750000Y-89383718D01*
X192782665Y-89547936D01*
X192846740Y-89702626D01*
X192939762Y-89841844D01*
X193058156Y-89960238D01*
X193197374Y-90053260D01*
X193352064Y-90117335D01*
X193516282Y-90150000D01*
X193683718Y-90150000D01*
X193847936Y-90117335D01*
X194002626Y-90053260D01*
X194141844Y-89960238D01*
X194260238Y-89841844D01*
X194353260Y-89702626D01*
X194417335Y-89547936D01*
X194450000Y-89383718D01*
X194450000Y-89216282D01*
X194417335Y-89052064D01*
X194353260Y-88897374D01*
X194260238Y-88758156D01*
X194150000Y-88647918D01*
X194150000Y-84171307D01*
X213244975Y-84171307D01*
X213244975Y-84338743D01*
X213277640Y-84502961D01*
X213341715Y-84657651D01*
X213434737Y-84796869D01*
X213553131Y-84915263D01*
X213692349Y-85008285D01*
X213847039Y-85072360D01*
X214011257Y-85105025D01*
X214178693Y-85105025D01*
X214342911Y-85072360D01*
X214497601Y-85008285D01*
X214636819Y-84915263D01*
X214755213Y-84796869D01*
X214848235Y-84657651D01*
X214912310Y-84502961D01*
X214944975Y-84338743D01*
X214944975Y-84216282D01*
X215800000Y-84216282D01*
X215800000Y-84383718D01*
X215832665Y-84547936D01*
X215896740Y-84702626D01*
X215989762Y-84841844D01*
X216108156Y-84960238D01*
X216247374Y-85053260D01*
X216402064Y-85117335D01*
X216566282Y-85150000D01*
X216733718Y-85150000D01*
X216897936Y-85117335D01*
X217052626Y-85053260D01*
X217191844Y-84960238D01*
X217310238Y-84841844D01*
X217403260Y-84702626D01*
X217467335Y-84547936D01*
X217500000Y-84383718D01*
X217500000Y-84216282D01*
X217467335Y-84052064D01*
X217403260Y-83897374D01*
X217310238Y-83758156D01*
X217191844Y-83639762D01*
X217052626Y-83546740D01*
X216897936Y-83482665D01*
X216733718Y-83450000D01*
X216566282Y-83450000D01*
X216402064Y-83482665D01*
X216247374Y-83546740D01*
X216108156Y-83639762D01*
X215989762Y-83758156D01*
X215896740Y-83897374D01*
X215832665Y-84052064D01*
X215800000Y-84216282D01*
X214944975Y-84216282D01*
X214944975Y-84171307D01*
X214912310Y-84007089D01*
X214848235Y-83852399D01*
X214755213Y-83713181D01*
X214636819Y-83594787D01*
X214497601Y-83501765D01*
X214342911Y-83437690D01*
X214178693Y-83405025D01*
X214011257Y-83405025D01*
X213847039Y-83437690D01*
X213692349Y-83501765D01*
X213553131Y-83594787D01*
X213434737Y-83713181D01*
X213341715Y-83852399D01*
X213277640Y-84007089D01*
X213244975Y-84171307D01*
X194150000Y-84171307D01*
X194150000Y-79031842D01*
X211421274Y-79031842D01*
X211421274Y-79199278D01*
X211453939Y-79363496D01*
X211518014Y-79518186D01*
X211611036Y-79657404D01*
X211729430Y-79775798D01*
X211868648Y-79868820D01*
X212023338Y-79932895D01*
X212187556Y-79965560D01*
X212354992Y-79965560D01*
X212519210Y-79932895D01*
X212673900Y-79868820D01*
X212813118Y-79775798D01*
X212931512Y-79657404D01*
X213024534Y-79518186D01*
X213088609Y-79363496D01*
X213121274Y-79199278D01*
X213121274Y-79031842D01*
X213088609Y-78867624D01*
X213024534Y-78712934D01*
X212931512Y-78573716D01*
X212813118Y-78455322D01*
X212673900Y-78362300D01*
X212519210Y-78298225D01*
X212354992Y-78265560D01*
X212187556Y-78265560D01*
X212023338Y-78298225D01*
X211868648Y-78362300D01*
X211729430Y-78455322D01*
X211611036Y-78573716D01*
X211518014Y-78712934D01*
X211453939Y-78867624D01*
X211421274Y-79031842D01*
X194150000Y-79031842D01*
X194150000Y-74416282D01*
X199500000Y-74416282D01*
X199500000Y-74583718D01*
X199532665Y-74747936D01*
X199596740Y-74902626D01*
X199689762Y-75041844D01*
X199808156Y-75160238D01*
X199947374Y-75253260D01*
X200060214Y-75300000D01*
X199947374Y-75346740D01*
X199808156Y-75439762D01*
X199689762Y-75558156D01*
X199596740Y-75697374D01*
X199532665Y-75852064D01*
X199500000Y-76016282D01*
X199500000Y-76183718D01*
X199532665Y-76347936D01*
X199596740Y-76502626D01*
X199689762Y-76641844D01*
X199808156Y-76760238D01*
X199947374Y-76853260D01*
X200102064Y-76917335D01*
X200266282Y-76950000D01*
X200433718Y-76950000D01*
X200597936Y-76917335D01*
X200752626Y-76853260D01*
X200891844Y-76760238D01*
X201010238Y-76641844D01*
X201103260Y-76502626D01*
X201167335Y-76347936D01*
X201200000Y-76183718D01*
X201200000Y-76016282D01*
X201167335Y-75852064D01*
X201103260Y-75697374D01*
X201010238Y-75558156D01*
X200891844Y-75439762D01*
X200752626Y-75346740D01*
X200639786Y-75300000D01*
X200752626Y-75253260D01*
X200891844Y-75160238D01*
X201010238Y-75041844D01*
X201103260Y-74902626D01*
X201167335Y-74747936D01*
X201200000Y-74583718D01*
X201200000Y-74416282D01*
X201167335Y-74252064D01*
X201103260Y-74097374D01*
X201010238Y-73958156D01*
X200891844Y-73839762D01*
X200752626Y-73746740D01*
X200597936Y-73682665D01*
X200433718Y-73650000D01*
X200266282Y-73650000D01*
X200102064Y-73682665D01*
X199947374Y-73746740D01*
X199808156Y-73839762D01*
X199689762Y-73958156D01*
X199596740Y-74097374D01*
X199532665Y-74252064D01*
X199500000Y-74416282D01*
X194150000Y-74416282D01*
X194150000Y-74400453D01*
X196541342Y-72009111D01*
X201792829Y-72009111D01*
X201792829Y-72176547D01*
X201825494Y-72340765D01*
X201889569Y-72495455D01*
X201982591Y-72634673D01*
X202100985Y-72753067D01*
X202240203Y-72846089D01*
X202394893Y-72910164D01*
X202418869Y-72914933D01*
X202418869Y-72958728D01*
X202451534Y-73122946D01*
X202515609Y-73277636D01*
X202608631Y-73416854D01*
X202727025Y-73535248D01*
X202866243Y-73628270D01*
X203020933Y-73692345D01*
X203127513Y-73713545D01*
X203047374Y-73746740D01*
X202908156Y-73839762D01*
X202789762Y-73958156D01*
X202696740Y-74097374D01*
X202632665Y-74252064D01*
X202600000Y-74416282D01*
X202600000Y-74583718D01*
X202632665Y-74747936D01*
X202696740Y-74902626D01*
X202789762Y-75041844D01*
X202908156Y-75160238D01*
X203047374Y-75253260D01*
X203160214Y-75300000D01*
X203047374Y-75346740D01*
X202908156Y-75439762D01*
X202789762Y-75558156D01*
X202696740Y-75697374D01*
X202632665Y-75852064D01*
X202600000Y-76016282D01*
X202600000Y-76183718D01*
X202632665Y-76347936D01*
X202696740Y-76502626D01*
X202789762Y-76641844D01*
X202908156Y-76760238D01*
X203047374Y-76853260D01*
X203202064Y-76917335D01*
X203366282Y-76950000D01*
X203533718Y-76950000D01*
X203697936Y-76917335D01*
X203852626Y-76853260D01*
X203991844Y-76760238D01*
X204110238Y-76641844D01*
X204203260Y-76502626D01*
X204267335Y-76347936D01*
X204300000Y-76183718D01*
X204300000Y-76016282D01*
X204267335Y-75852064D01*
X204203260Y-75697374D01*
X204110238Y-75558156D01*
X203991844Y-75439762D01*
X203852626Y-75346740D01*
X203739786Y-75300000D01*
X203852626Y-75253260D01*
X203991844Y-75160238D01*
X204110238Y-75041844D01*
X204203260Y-74902626D01*
X204251352Y-74786521D01*
X204289761Y-74844004D01*
X204408155Y-74962398D01*
X204547373Y-75055420D01*
X204702063Y-75119495D01*
X204866281Y-75152160D01*
X205033717Y-75152160D01*
X205197935Y-75119495D01*
X205352625Y-75055420D01*
X205491843Y-74962398D01*
X205610237Y-74844004D01*
X205697997Y-74712661D01*
X205773342Y-74825424D01*
X205891736Y-74943818D01*
X206030954Y-75036840D01*
X206185644Y-75100915D01*
X206349862Y-75133580D01*
X206517298Y-75133580D01*
X206681516Y-75100915D01*
X206836206Y-75036840D01*
X206975424Y-74943818D01*
X207049798Y-74869444D01*
X207049798Y-74883721D01*
X207082463Y-75047939D01*
X207146538Y-75202629D01*
X207239560Y-75341847D01*
X207357954Y-75460241D01*
X207497172Y-75553263D01*
X207651862Y-75617338D01*
X207816080Y-75650003D01*
X207983516Y-75650003D01*
X208147734Y-75617338D01*
X208302424Y-75553263D01*
X208441642Y-75460241D01*
X208560036Y-75341847D01*
X208653058Y-75202629D01*
X208717133Y-75047939D01*
X208749798Y-74883721D01*
X208749798Y-74716285D01*
X208717133Y-74552067D01*
X208653058Y-74397377D01*
X208560036Y-74258159D01*
X208441642Y-74139765D01*
X208302424Y-74046743D01*
X208147734Y-73982668D01*
X207983516Y-73950003D01*
X207816080Y-73950003D01*
X207651862Y-73982668D01*
X207497172Y-74046743D01*
X207357954Y-74139765D01*
X207283580Y-74214139D01*
X207283580Y-74199862D01*
X207250915Y-74035644D01*
X207235326Y-73998009D01*
X207291854Y-73960238D01*
X207410248Y-73841844D01*
X207503270Y-73702626D01*
X207546409Y-73598480D01*
X207608166Y-73660237D01*
X207747384Y-73753259D01*
X207902074Y-73817334D01*
X208066292Y-73849999D01*
X208233728Y-73849999D01*
X208397946Y-73817334D01*
X208552636Y-73753259D01*
X208691854Y-73660237D01*
X208810248Y-73541843D01*
X208903270Y-73402625D01*
X208967345Y-73247935D01*
X209000010Y-73083717D01*
X209000010Y-72916281D01*
X208996037Y-72896306D01*
X213530025Y-72896306D01*
X213530025Y-73063742D01*
X213562690Y-73227960D01*
X213626765Y-73382650D01*
X213719787Y-73521868D01*
X213838181Y-73640262D01*
X213977399Y-73733284D01*
X214132089Y-73797359D01*
X214296307Y-73830024D01*
X214463743Y-73830024D01*
X214627961Y-73797359D01*
X214782651Y-73733284D01*
X214921869Y-73640262D01*
X215040263Y-73521868D01*
X215133285Y-73382650D01*
X215197360Y-73227960D01*
X215230025Y-73063742D01*
X215230025Y-72896306D01*
X215197360Y-72732088D01*
X215133285Y-72577398D01*
X215040263Y-72438180D01*
X214921869Y-72319786D01*
X214782651Y-72226764D01*
X214627961Y-72162689D01*
X214463743Y-72130024D01*
X214296307Y-72130024D01*
X214132089Y-72162689D01*
X213977399Y-72226764D01*
X213838181Y-72319786D01*
X213719787Y-72438180D01*
X213626765Y-72577398D01*
X213562690Y-72732088D01*
X213530025Y-72896306D01*
X208996037Y-72896306D01*
X208967345Y-72752063D01*
X208903270Y-72597373D01*
X208810248Y-72458155D01*
X208691854Y-72339761D01*
X208552636Y-72246739D01*
X208397946Y-72182664D01*
X208233728Y-72149999D01*
X208066292Y-72149999D01*
X207902074Y-72182664D01*
X207747384Y-72246739D01*
X207608166Y-72339761D01*
X207489772Y-72458155D01*
X207396750Y-72597373D01*
X207353611Y-72701519D01*
X207291854Y-72639762D01*
X207152636Y-72546740D01*
X206997946Y-72482665D01*
X206833728Y-72450000D01*
X206666292Y-72450000D01*
X206502074Y-72482665D01*
X206347384Y-72546740D01*
X206208166Y-72639762D01*
X206089772Y-72758156D01*
X205996750Y-72897374D01*
X205932675Y-73052064D01*
X205900010Y-73216282D01*
X205900010Y-73383718D01*
X205932675Y-73547936D01*
X205948264Y-73585571D01*
X205891736Y-73623342D01*
X205773342Y-73741736D01*
X205685582Y-73873079D01*
X205610237Y-73760316D01*
X205491843Y-73641922D01*
X205352625Y-73548900D01*
X205197935Y-73484825D01*
X205033717Y-73452160D01*
X204942216Y-73452160D01*
X204917335Y-73327074D01*
X204853260Y-73172384D01*
X204760238Y-73033166D01*
X204641844Y-72914772D01*
X204502626Y-72821750D01*
X204347936Y-72757675D01*
X204183718Y-72725010D01*
X204105685Y-72725010D01*
X204086204Y-72627074D01*
X204022129Y-72472384D01*
X203929107Y-72333166D01*
X203810713Y-72214772D01*
X203671495Y-72121750D01*
X203516805Y-72057675D01*
X203492829Y-72052906D01*
X203492829Y-72009111D01*
X203460164Y-71844893D01*
X203396089Y-71690203D01*
X203303067Y-71550985D01*
X203218364Y-71466282D01*
X215950000Y-71466282D01*
X215950000Y-71633718D01*
X215982665Y-71797936D01*
X216046740Y-71952626D01*
X216139762Y-72091844D01*
X216258156Y-72210238D01*
X216397374Y-72303260D01*
X216552064Y-72367335D01*
X216716282Y-72400000D01*
X216883718Y-72400000D01*
X217047936Y-72367335D01*
X217202626Y-72303260D01*
X217341844Y-72210238D01*
X217374014Y-72178069D01*
X217458157Y-72262212D01*
X217597375Y-72355234D01*
X217752065Y-72419309D01*
X217916283Y-72451974D01*
X218083719Y-72451974D01*
X218247937Y-72419309D01*
X218402627Y-72355234D01*
X218541845Y-72262212D01*
X218660239Y-72143818D01*
X218753261Y-72004600D01*
X218817336Y-71849910D01*
X218850001Y-71685692D01*
X218850001Y-71518256D01*
X218817336Y-71354038D01*
X218753261Y-71199348D01*
X218660239Y-71060130D01*
X218541845Y-70941736D01*
X218402627Y-70848714D01*
X218247937Y-70784639D01*
X218083719Y-70751974D01*
X217916283Y-70751974D01*
X217752065Y-70784639D01*
X217597375Y-70848714D01*
X217458157Y-70941736D01*
X217425988Y-70973906D01*
X217341844Y-70889762D01*
X217202626Y-70796740D01*
X217047936Y-70732665D01*
X216883718Y-70700000D01*
X216716282Y-70700000D01*
X216552064Y-70732665D01*
X216397374Y-70796740D01*
X216258156Y-70889762D01*
X216139762Y-71008156D01*
X216046740Y-71147374D01*
X215982665Y-71302064D01*
X215950000Y-71466282D01*
X203218364Y-71466282D01*
X203184673Y-71432591D01*
X203045455Y-71339569D01*
X202890765Y-71275494D01*
X202726547Y-71242829D01*
X202559111Y-71242829D01*
X202394893Y-71275494D01*
X202240203Y-71339569D01*
X202100985Y-71432591D01*
X201982591Y-71550985D01*
X201889569Y-71690203D01*
X201825494Y-71844893D01*
X201792829Y-72009111D01*
X196541342Y-72009111D01*
X198642359Y-69908094D01*
X205188984Y-69908094D01*
X205196627Y-70110360D01*
X205368790Y-70187635D01*
X205552719Y-70229838D01*
X205741349Y-70235346D01*
X205927428Y-70203950D01*
X206103807Y-70136854D01*
X206153373Y-70110360D01*
X206161016Y-69908094D01*
X206463984Y-69908094D01*
X206471627Y-70110360D01*
X206643790Y-70187635D01*
X206827719Y-70229838D01*
X207016349Y-70235346D01*
X207202428Y-70203950D01*
X207378807Y-70136854D01*
X207428373Y-70110360D01*
X207436016Y-69908094D01*
X207738984Y-69908094D01*
X207746627Y-70110360D01*
X207918790Y-70187635D01*
X208102719Y-70229838D01*
X208291349Y-70235346D01*
X208477428Y-70203950D01*
X208653807Y-70136854D01*
X208703373Y-70110360D01*
X208711016Y-69908094D01*
X208225000Y-69422078D01*
X207738984Y-69908094D01*
X207436016Y-69908094D01*
X206950000Y-69422078D01*
X206463984Y-69908094D01*
X206161016Y-69908094D01*
X205675000Y-69422078D01*
X205188984Y-69908094D01*
X198642359Y-69908094D01*
X199413089Y-69137364D01*
X199469081Y-69221163D01*
X199587475Y-69339557D01*
X199726693Y-69432579D01*
X199881383Y-69496654D01*
X200045601Y-69529319D01*
X200213037Y-69529319D01*
X200377255Y-69496654D01*
X200531945Y-69432579D01*
X200668481Y-69341349D01*
X204714654Y-69341349D01*
X204746050Y-69527428D01*
X204813146Y-69703807D01*
X204839640Y-69753373D01*
X205041906Y-69761016D01*
X205527922Y-69275000D01*
X205041906Y-68788984D01*
X204839640Y-68796627D01*
X204762365Y-68968790D01*
X204720162Y-69152719D01*
X204714654Y-69341349D01*
X200668481Y-69341349D01*
X200671163Y-69339557D01*
X200789557Y-69221163D01*
X200882579Y-69081945D01*
X200946654Y-68927255D01*
X200979319Y-68763037D01*
X200979319Y-68595601D01*
X200946654Y-68431383D01*
X200882579Y-68276693D01*
X200789557Y-68137475D01*
X200718431Y-68066349D01*
X204714654Y-68066349D01*
X204746050Y-68252428D01*
X204813146Y-68428807D01*
X204839640Y-68478373D01*
X205041906Y-68486016D01*
X205527922Y-68000000D01*
X205041906Y-67513984D01*
X204839640Y-67521627D01*
X204762365Y-67693790D01*
X204720162Y-67877719D01*
X204714654Y-68066349D01*
X200718431Y-68066349D01*
X200671163Y-68019081D01*
X200587364Y-67963089D01*
X203000454Y-65549999D01*
X204113195Y-65549999D01*
X204100010Y-65616282D01*
X204100010Y-65783718D01*
X204132675Y-65947936D01*
X204196750Y-66102626D01*
X204289772Y-66241844D01*
X204408166Y-66360238D01*
X204547384Y-66453260D01*
X204702074Y-66517335D01*
X204738109Y-66524503D01*
X204720162Y-66602719D01*
X204714654Y-66791349D01*
X204746050Y-66977428D01*
X204813146Y-67153807D01*
X204839640Y-67203373D01*
X205041906Y-67211016D01*
X205527922Y-66725000D01*
X205513780Y-66710858D01*
X205660858Y-66563780D01*
X205675000Y-66577922D01*
X206161016Y-66091906D01*
X206153373Y-65889640D01*
X205981210Y-65812365D01*
X205800010Y-65770788D01*
X205800010Y-65616282D01*
X205786825Y-65549999D01*
X207513185Y-65549999D01*
X207500000Y-65616282D01*
X207500000Y-65783718D01*
X207532665Y-65947936D01*
X207546524Y-65981395D01*
X207436016Y-66091903D01*
X207428373Y-65889640D01*
X207256210Y-65812365D01*
X207072281Y-65770162D01*
X206883651Y-65764654D01*
X206697572Y-65796050D01*
X206521193Y-65863146D01*
X206471627Y-65889640D01*
X206463984Y-66091906D01*
X206950000Y-66577922D01*
X206964143Y-66563780D01*
X207111221Y-66710858D01*
X207097078Y-66725000D01*
X207285200Y-66913122D01*
X207296050Y-66977428D01*
X207354685Y-67131565D01*
X207256210Y-67087365D01*
X207138212Y-67060290D01*
X206950000Y-66872078D01*
X206761878Y-67060200D01*
X206697572Y-67071050D01*
X206543435Y-67129685D01*
X206587635Y-67031210D01*
X206614710Y-66913212D01*
X206802922Y-66725000D01*
X206614800Y-66536878D01*
X206603950Y-66472572D01*
X206536854Y-66296193D01*
X206510360Y-66246627D01*
X206317252Y-66239330D01*
X206316906Y-66238984D01*
X206312500Y-66239150D01*
X206308094Y-66238984D01*
X206307748Y-66239330D01*
X206114640Y-66246627D01*
X206037365Y-66418790D01*
X206010290Y-66536788D01*
X205822078Y-66725000D01*
X206010200Y-66913122D01*
X206021050Y-66977428D01*
X206079685Y-67131565D01*
X205981210Y-67087365D01*
X205863212Y-67060290D01*
X205675000Y-66872078D01*
X205486878Y-67060200D01*
X205422572Y-67071050D01*
X205246193Y-67138146D01*
X205196627Y-67164640D01*
X205189330Y-67357748D01*
X205188984Y-67358094D01*
X205189150Y-67362500D01*
X205188984Y-67366906D01*
X205189330Y-67367252D01*
X205196627Y-67560360D01*
X205368790Y-67637635D01*
X205486788Y-67664710D01*
X205675000Y-67852922D01*
X205863122Y-67664800D01*
X205927428Y-67653950D01*
X206081565Y-67595315D01*
X206037365Y-67693790D01*
X206010290Y-67811788D01*
X205822078Y-68000000D01*
X206010200Y-68188122D01*
X206021050Y-68252428D01*
X206079685Y-68406565D01*
X205981210Y-68362365D01*
X205863212Y-68335290D01*
X205675000Y-68147078D01*
X205486878Y-68335200D01*
X205422572Y-68346050D01*
X205246193Y-68413146D01*
X205196627Y-68439640D01*
X205189330Y-68632748D01*
X205188984Y-68633094D01*
X205189150Y-68637500D01*
X205188984Y-68641906D01*
X205189330Y-68642252D01*
X205196627Y-68835360D01*
X205368790Y-68912635D01*
X205486788Y-68939710D01*
X205675000Y-69127922D01*
X205863122Y-68939800D01*
X205927428Y-68928950D01*
X206081565Y-68870315D01*
X206037365Y-68968790D01*
X206010290Y-69086788D01*
X205822078Y-69275000D01*
X206010200Y-69463122D01*
X206021050Y-69527428D01*
X206088146Y-69703807D01*
X206114640Y-69753373D01*
X206307748Y-69760670D01*
X206308094Y-69761016D01*
X206312500Y-69760850D01*
X206316906Y-69761016D01*
X206317252Y-69760670D01*
X206510360Y-69753373D01*
X206587635Y-69581210D01*
X206614710Y-69463212D01*
X206802922Y-69275000D01*
X206614800Y-69086878D01*
X206603950Y-69022572D01*
X206545315Y-68868435D01*
X206643790Y-68912635D01*
X206761788Y-68939710D01*
X206950000Y-69127922D01*
X207138122Y-68939800D01*
X207202428Y-68928950D01*
X207356565Y-68870315D01*
X207312365Y-68968790D01*
X207285290Y-69086788D01*
X207097078Y-69275000D01*
X207285200Y-69463122D01*
X207296050Y-69527428D01*
X207363146Y-69703807D01*
X207389640Y-69753373D01*
X207582748Y-69760670D01*
X207583094Y-69761016D01*
X207587500Y-69760850D01*
X207591906Y-69761016D01*
X207592252Y-69760670D01*
X207785360Y-69753373D01*
X207862635Y-69581210D01*
X207889710Y-69463212D01*
X208077922Y-69275000D01*
X208372078Y-69275000D01*
X208858094Y-69761016D01*
X209060360Y-69753373D01*
X209137635Y-69581210D01*
X209179838Y-69397281D01*
X209185346Y-69208651D01*
X209165544Y-69091283D01*
X212399997Y-69091283D01*
X212399997Y-69258719D01*
X212432662Y-69422937D01*
X212496737Y-69577627D01*
X212589759Y-69716845D01*
X212708153Y-69835239D01*
X212847371Y-69928261D01*
X213002061Y-69992336D01*
X213166279Y-70025001D01*
X213333715Y-70025001D01*
X213497933Y-69992336D01*
X213652623Y-69928261D01*
X213791841Y-69835239D01*
X213910235Y-69716845D01*
X214003257Y-69577627D01*
X214067332Y-69422937D01*
X214099997Y-69258719D01*
X214099997Y-69091283D01*
X214067332Y-68927065D01*
X214003257Y-68772375D01*
X213910235Y-68633157D01*
X213791841Y-68514763D01*
X213652623Y-68421741D01*
X213497933Y-68357666D01*
X213333715Y-68325001D01*
X213166279Y-68325001D01*
X213002061Y-68357666D01*
X212847371Y-68421741D01*
X212708153Y-68514763D01*
X212589759Y-68633157D01*
X212496737Y-68772375D01*
X212432662Y-68927065D01*
X212399997Y-69091283D01*
X209165544Y-69091283D01*
X209153950Y-69022572D01*
X209086854Y-68846193D01*
X209060360Y-68796627D01*
X208858094Y-68788984D01*
X208372078Y-69275000D01*
X208077922Y-69275000D01*
X207889800Y-69086878D01*
X207878950Y-69022572D01*
X207820315Y-68868435D01*
X207918790Y-68912635D01*
X208036788Y-68939710D01*
X208225000Y-69127922D01*
X208413122Y-68939800D01*
X208477428Y-68928950D01*
X208653807Y-68861854D01*
X208703373Y-68835360D01*
X208710670Y-68642252D01*
X208711016Y-68641906D01*
X208710850Y-68637500D01*
X208711016Y-68633094D01*
X208710670Y-68632748D01*
X208703373Y-68439640D01*
X208531210Y-68362365D01*
X208413212Y-68335290D01*
X208225000Y-68147078D01*
X208036878Y-68335200D01*
X207972572Y-68346050D01*
X207818435Y-68404685D01*
X207862635Y-68306210D01*
X207889710Y-68188212D01*
X208077922Y-68000000D01*
X207889800Y-67811878D01*
X207878950Y-67747572D01*
X207820315Y-67593435D01*
X207918790Y-67637635D01*
X208036788Y-67664710D01*
X208225000Y-67852922D01*
X208239143Y-67838780D01*
X208386221Y-67985858D01*
X208372078Y-68000000D01*
X208858094Y-68486016D01*
X208997589Y-68480745D01*
X209102054Y-68524016D01*
X209266272Y-68556681D01*
X209433708Y-68556681D01*
X209597926Y-68524016D01*
X209752616Y-68459941D01*
X209891834Y-68366919D01*
X210010228Y-68248525D01*
X210103250Y-68109307D01*
X210167325Y-67954617D01*
X210199990Y-67790399D01*
X210199990Y-67622963D01*
X210177525Y-67510023D01*
X210584501Y-67916999D01*
X210607985Y-67945614D01*
X210722187Y-68039338D01*
X210852479Y-68108980D01*
X210993854Y-68151866D01*
X211104045Y-68162719D01*
X211104052Y-68162719D01*
X211140880Y-68166346D01*
X211177707Y-68162719D01*
X213732444Y-68162719D01*
X213769271Y-68166346D01*
X213806098Y-68162719D01*
X213806106Y-68162719D01*
X213916297Y-68151866D01*
X214057672Y-68108980D01*
X214187964Y-68039338D01*
X214302166Y-67945614D01*
X214325650Y-67916999D01*
X216754287Y-65488363D01*
X216782895Y-65464885D01*
X216834113Y-65402477D01*
X216876619Y-65350683D01*
X216946261Y-65220391D01*
X216989147Y-65079016D01*
X216993013Y-65039762D01*
X217000000Y-64968825D01*
X217000000Y-64968818D01*
X217003627Y-64931990D01*
X217000000Y-64895162D01*
X217000000Y-57916282D01*
X219500000Y-57916282D01*
X219500000Y-58083718D01*
X219532665Y-58247936D01*
X219596740Y-58402626D01*
X219689762Y-58541844D01*
X219808156Y-58660238D01*
X219947374Y-58753260D01*
X220102064Y-58817335D01*
X220266282Y-58850000D01*
X220433718Y-58850000D01*
X220597936Y-58817335D01*
X220752626Y-58753260D01*
X220891844Y-58660238D01*
X221010238Y-58541844D01*
X221103260Y-58402626D01*
X221167335Y-58247936D01*
X221200000Y-58083718D01*
X221200000Y-57916282D01*
X221167335Y-57752064D01*
X221103260Y-57597374D01*
X221010238Y-57458156D01*
X220891844Y-57339762D01*
X220752626Y-57246740D01*
X220597936Y-57182665D01*
X220433718Y-57150000D01*
X220266282Y-57150000D01*
X220102064Y-57182665D01*
X219947374Y-57246740D01*
X219808156Y-57339762D01*
X219689762Y-57458156D01*
X219596740Y-57597374D01*
X219532665Y-57752064D01*
X219500000Y-57916282D01*
X217000000Y-57916282D01*
X217000000Y-56307505D01*
X217003260Y-56302626D01*
X217067335Y-56147936D01*
X217100000Y-55983718D01*
X217100000Y-55816282D01*
X217067335Y-55652064D01*
X217003260Y-55497374D01*
X216910238Y-55358156D01*
X216791844Y-55239762D01*
X216652626Y-55146740D01*
X216497936Y-55082665D01*
X216333718Y-55050000D01*
X216166282Y-55050000D01*
X216002064Y-55082665D01*
X215847374Y-55146740D01*
X215708156Y-55239762D01*
X215589762Y-55358156D01*
X215496740Y-55497374D01*
X215432665Y-55652064D01*
X215400000Y-55816282D01*
X215400000Y-55983718D01*
X215432665Y-56147936D01*
X215496740Y-56302626D01*
X215500001Y-56307506D01*
X215500000Y-64232354D01*
X215395819Y-64162743D01*
X215241129Y-64098668D01*
X215076911Y-64066003D01*
X214909475Y-64066003D01*
X214745257Y-64098668D01*
X214590567Y-64162743D01*
X214451349Y-64255765D01*
X214332955Y-64374159D01*
X214239933Y-64513377D01*
X214175858Y-64668067D01*
X214160464Y-64745457D01*
X214009165Y-64775552D01*
X213854475Y-64839627D01*
X213715257Y-64932649D01*
X213596863Y-65051043D01*
X213503841Y-65190261D01*
X213439766Y-65344951D01*
X213416917Y-65459821D01*
X213302064Y-65482667D01*
X213147374Y-65546742D01*
X213049999Y-65611806D01*
X212952623Y-65546742D01*
X212797933Y-65482667D01*
X212633715Y-65450002D01*
X212466279Y-65450002D01*
X212302061Y-65482667D01*
X212147371Y-65546742D01*
X212008153Y-65639764D01*
X211913955Y-65733962D01*
X211820817Y-65695383D01*
X211656599Y-65662718D01*
X211489163Y-65662718D01*
X211424991Y-65675483D01*
X211422880Y-65654052D01*
X211422880Y-65654043D01*
X211412027Y-65543852D01*
X211369141Y-65402477D01*
X211299499Y-65272185D01*
X211267116Y-65232727D01*
X211229256Y-65186593D01*
X211229249Y-65186586D01*
X211205775Y-65157983D01*
X211177172Y-65134509D01*
X209938370Y-63895709D01*
X209914887Y-63867095D01*
X209800685Y-63773371D01*
X209670393Y-63703729D01*
X209529018Y-63660843D01*
X209418827Y-63649990D01*
X209418819Y-63649990D01*
X209381992Y-63646363D01*
X209345165Y-63649990D01*
X207857330Y-63649990D01*
X207955026Y-63584712D01*
X208073420Y-63466318D01*
X208166442Y-63327100D01*
X208230517Y-63172410D01*
X208263182Y-63008192D01*
X208263182Y-62840756D01*
X208230517Y-62676538D01*
X208166442Y-62521848D01*
X208073420Y-62382630D01*
X207955026Y-62264236D01*
X207815808Y-62171214D01*
X207661118Y-62107139D01*
X207496900Y-62074474D01*
X207329464Y-62074474D01*
X207165246Y-62107139D01*
X207010556Y-62171214D01*
X206900003Y-62245083D01*
X206900003Y-62216282D01*
X206867338Y-62052064D01*
X206826827Y-61954262D01*
X206936153Y-61881213D01*
X207054547Y-61762819D01*
X207147569Y-61623601D01*
X207211644Y-61468911D01*
X207244309Y-61304693D01*
X207244309Y-61137257D01*
X207211644Y-60973039D01*
X207147569Y-60818349D01*
X207135316Y-60800011D01*
X212945164Y-60800011D01*
X212981991Y-60803638D01*
X213018818Y-60800011D01*
X213018826Y-60800011D01*
X213129017Y-60789158D01*
X213270392Y-60746272D01*
X213400684Y-60676630D01*
X213514886Y-60582906D01*
X213538369Y-60554292D01*
X214804288Y-59288374D01*
X214832896Y-59264896D01*
X214888311Y-59197374D01*
X214926620Y-59150694D01*
X214996262Y-59020402D01*
X215039148Y-58879027D01*
X215045224Y-58817335D01*
X215050001Y-58768836D01*
X215050001Y-58768829D01*
X215053628Y-58732001D01*
X215050001Y-58695173D01*
X215050001Y-57904826D01*
X215053628Y-57867999D01*
X215050001Y-57831171D01*
X215050001Y-57831164D01*
X215039148Y-57720973D01*
X214996262Y-57579598D01*
X214926620Y-57449306D01*
X214832896Y-57335104D01*
X214804281Y-57311620D01*
X214388380Y-56895719D01*
X214364896Y-56867104D01*
X214250694Y-56773380D01*
X214120402Y-56703738D01*
X213979027Y-56660852D01*
X213868836Y-56649999D01*
X213868828Y-56649999D01*
X213832001Y-56646372D01*
X213795174Y-56649999D01*
X209886825Y-56649999D01*
X209850000Y-56646372D01*
X209813175Y-56649999D01*
X209813166Y-56649999D01*
X209702975Y-56660852D01*
X209561600Y-56703738D01*
X209431308Y-56773380D01*
X209391850Y-56805763D01*
X209345716Y-56843623D01*
X209345709Y-56843630D01*
X209317106Y-56867104D01*
X209293631Y-56895708D01*
X208657820Y-57531520D01*
X208652064Y-57532665D01*
X208497374Y-57596740D01*
X208358156Y-57689762D01*
X208239762Y-57808156D01*
X208146740Y-57947374D01*
X208082665Y-58102064D01*
X208050000Y-58266282D01*
X208050000Y-58433718D01*
X208063185Y-58500001D01*
X195583662Y-58500001D01*
X195546837Y-58496374D01*
X195510012Y-58500001D01*
X195510003Y-58500001D01*
X195399812Y-58510854D01*
X195258437Y-58553740D01*
X195128145Y-58623382D01*
X195128143Y-58623383D01*
X195128144Y-58623383D01*
X195042553Y-58693625D01*
X195042546Y-58693632D01*
X195013943Y-58717106D01*
X194990468Y-58745710D01*
X194286710Y-59449468D01*
X194267335Y-59352064D01*
X194203260Y-59197374D01*
X194110238Y-59058156D01*
X193991844Y-58939762D01*
X193852626Y-58846740D01*
X193697936Y-58782665D01*
X193533718Y-58750000D01*
X193366282Y-58750000D01*
X193202064Y-58782665D01*
X193047374Y-58846740D01*
X192908156Y-58939762D01*
X192789762Y-59058156D01*
X192696740Y-59197374D01*
X192632665Y-59352064D01*
X192600000Y-59516282D01*
X192600000Y-59683718D01*
X192632665Y-59847936D01*
X192696740Y-60002626D01*
X192789762Y-60141844D01*
X192908156Y-60260238D01*
X193047374Y-60353260D01*
X193202064Y-60417335D01*
X193299469Y-60436710D01*
X190824516Y-62911664D01*
X190824998Y-54472604D01*
X190825069Y-54471863D01*
X190825000Y-54449439D01*
X190825001Y-54426696D01*
X190824927Y-54425945D01*
X190813180Y-50624956D01*
X190814928Y-50533430D01*
X190812961Y-50508470D01*
X190813248Y-50483423D01*
X190812630Y-50476820D01*
X190768874Y-50041839D01*
X190760403Y-49999616D01*
X190752528Y-49957305D01*
X190750639Y-49950947D01*
X190623229Y-49532750D01*
X190606723Y-49492988D01*
X190590774Y-49452999D01*
X190587686Y-49447130D01*
X190381473Y-49061644D01*
X190357584Y-49025884D01*
X190334147Y-48989716D01*
X190329978Y-48984558D01*
X190300000Y-48947990D01*
X190300000Y-46813719D01*
X190369691Y-46645470D01*
X190460000Y-46191455D01*
X190460000Y-45728545D01*
X190369691Y-45274530D01*
X190300000Y-45106281D01*
X190300000Y-44125000D01*
X199255080Y-44125000D01*
X199158156Y-44189762D01*
G37*
%TD.AperFunction*%
D21*
X194495715Y-65861640D02*
X194467106Y-65885119D01*
X194443627Y-65913728D01*
X194443624Y-65913731D01*
X194416534Y-65946741D01*
X194373382Y-65999321D01*
X194336157Y-66068964D01*
X194303739Y-66129614D01*
X194260853Y-66270989D01*
X194246373Y-66418014D01*
X194250001Y-66454851D01*
X194250000Y-68692495D01*
X194246740Y-68697374D01*
X194182665Y-68852064D01*
X194150000Y-69016282D01*
X194150000Y-69183718D01*
X194182665Y-69347936D01*
X194246740Y-69502626D01*
X194339762Y-69641844D01*
X194458156Y-69760238D01*
X194597374Y-69853260D01*
X194752064Y-69917335D01*
X194916282Y-69950000D01*
X194989341Y-69950000D01*
X194757821Y-70181520D01*
X194752064Y-70182665D01*
X194597374Y-70246740D01*
X194458156Y-70339762D01*
X194339762Y-70458156D01*
X194246740Y-70597374D01*
X194182665Y-70752064D01*
X194150000Y-70916282D01*
X194150000Y-71083718D01*
X194182665Y-71247936D01*
X194246740Y-71402626D01*
X194339762Y-71541844D01*
X194458156Y-71660238D01*
X194597374Y-71753260D01*
X194752064Y-71817335D01*
X194916282Y-71850000D01*
X195083718Y-71850000D01*
X195159991Y-71834828D01*
X193230191Y-73764628D01*
X193209211Y-73781846D01*
X193191993Y-73802826D01*
X193191987Y-73802832D01*
X193140479Y-73865594D01*
X193095363Y-73950003D01*
X193089409Y-73961142D01*
X193057959Y-74064817D01*
X193052834Y-74116854D01*
X193047340Y-74172636D01*
X193050001Y-74199654D01*
X193050000Y-84592496D01*
X192960238Y-84458156D01*
X192841844Y-84339762D01*
X192702626Y-84246740D01*
X192547936Y-84182665D01*
X192383718Y-84150000D01*
X192216282Y-84150000D01*
X192052064Y-84182665D01*
X191897374Y-84246740D01*
X191758156Y-84339762D01*
X191639762Y-84458156D01*
X191546740Y-84597374D01*
X191494065Y-84724542D01*
X191377626Y-84646740D01*
X191222936Y-84582665D01*
X191058718Y-84550000D01*
X190891282Y-84550000D01*
X190823279Y-84563527D01*
X190823729Y-76675811D01*
X190908156Y-76760238D01*
X191047374Y-76853260D01*
X191202064Y-76917335D01*
X191366282Y-76950000D01*
X191533718Y-76950000D01*
X191697936Y-76917335D01*
X191852626Y-76853260D01*
X191991844Y-76760238D01*
X192110238Y-76641844D01*
X192203260Y-76502626D01*
X192267335Y-76347936D01*
X192300000Y-76183718D01*
X192300000Y-76016282D01*
X192267335Y-75852064D01*
X192203260Y-75697374D01*
X192110238Y-75558156D01*
X191991844Y-75439762D01*
X191852626Y-75346740D01*
X191697936Y-75282665D01*
X191533718Y-75250000D01*
X191366282Y-75250000D01*
X191202064Y-75282665D01*
X191047374Y-75346740D01*
X190908156Y-75439762D01*
X190823795Y-75524123D01*
X190824022Y-71546355D01*
X190931546Y-71546355D01*
X190939640Y-71593362D01*
X191021740Y-71790209D01*
X191140665Y-71967257D01*
X191291845Y-72117702D01*
X191469471Y-72235762D01*
X191666716Y-72316901D01*
X191876000Y-72358000D01*
X192376000Y-72358000D01*
X192376000Y-71379000D01*
X192584000Y-71379000D01*
X192584000Y-72358000D01*
X193084000Y-72358000D01*
X193293284Y-72316901D01*
X193490529Y-72235762D01*
X193668155Y-72117702D01*
X193819335Y-71967257D01*
X193938260Y-71790209D01*
X194020360Y-71593362D01*
X194028454Y-71546355D01*
X193892593Y-71379000D01*
X192584000Y-71379000D01*
X192376000Y-71379000D01*
X191067407Y-71379000D01*
X190931546Y-71546355D01*
X190824022Y-71546355D01*
X190824053Y-71003645D01*
X190931546Y-71003645D01*
X191067407Y-71171000D01*
X192376000Y-71171000D01*
X192376000Y-70192000D01*
X192584000Y-70192000D01*
X192584000Y-71171000D01*
X193892593Y-71171000D01*
X194028454Y-71003645D01*
X194020360Y-70956638D01*
X193938260Y-70759791D01*
X193819335Y-70582743D01*
X193668155Y-70432298D01*
X193490529Y-70314238D01*
X193293284Y-70233099D01*
X193084000Y-70192000D01*
X192584000Y-70192000D01*
X192376000Y-70192000D01*
X191876000Y-70192000D01*
X191666716Y-70233099D01*
X191469471Y-70314238D01*
X191291845Y-70432298D01*
X191140665Y-70582743D01*
X191021740Y-70759791D01*
X190939640Y-70956638D01*
X190931546Y-71003645D01*
X190824053Y-71003645D01*
X190824126Y-69718994D01*
X192128084Y-69718994D01*
X192150381Y-69933421D01*
X192343043Y-70022711D01*
X192549422Y-70072699D01*
X192761589Y-70081463D01*
X192971389Y-70048668D01*
X193170759Y-69975573D01*
X193249619Y-69933421D01*
X193271916Y-69718994D01*
X192700000Y-69147078D01*
X192128084Y-69718994D01*
X190824126Y-69718994D01*
X190824358Y-65685017D01*
X191380146Y-66240806D01*
X191287900Y-66279016D01*
X191145407Y-66374227D01*
X191024227Y-66495407D01*
X190929016Y-66637900D01*
X190863433Y-66796230D01*
X190830000Y-66964312D01*
X190830000Y-67135688D01*
X190863433Y-67303770D01*
X190929016Y-67462100D01*
X191024227Y-67604593D01*
X191119634Y-67700000D01*
X191024227Y-67795407D01*
X190929016Y-67937900D01*
X190863433Y-68096230D01*
X190830000Y-68264312D01*
X190830000Y-68435688D01*
X190863433Y-68603770D01*
X190929016Y-68762100D01*
X191024227Y-68904593D01*
X191145407Y-69025773D01*
X191287900Y-69120984D01*
X191446230Y-69186567D01*
X191614312Y-69220000D01*
X191643299Y-69220000D01*
X191651332Y-69271389D01*
X191724427Y-69470759D01*
X191766579Y-69549619D01*
X191981006Y-69571916D01*
X192552922Y-69000000D01*
X192847078Y-69000000D01*
X193418994Y-69571916D01*
X193633421Y-69549619D01*
X193722711Y-69356957D01*
X193772699Y-69150578D01*
X193781463Y-68938411D01*
X193748668Y-68728611D01*
X193675573Y-68529241D01*
X193633421Y-68450381D01*
X193418994Y-68428084D01*
X192847078Y-69000000D01*
X192552922Y-69000000D01*
X192538780Y-68985858D01*
X192685858Y-68838780D01*
X192700000Y-68852922D01*
X193060610Y-68492312D01*
X193112100Y-68470984D01*
X193254593Y-68375773D01*
X193375773Y-68254593D01*
X193470984Y-68112100D01*
X193536567Y-67953770D01*
X193570000Y-67785688D01*
X193570000Y-67614312D01*
X193536567Y-67446230D01*
X193470984Y-67287900D01*
X193395979Y-67175648D01*
X193439737Y-67139737D01*
X193495971Y-67071216D01*
X193537757Y-66993041D01*
X193563489Y-66908215D01*
X193572177Y-66820000D01*
X193572177Y-65980000D01*
X193563489Y-65891785D01*
X193537757Y-65806959D01*
X193495971Y-65728784D01*
X193439737Y-65660263D01*
X193371216Y-65604029D01*
X193293041Y-65562243D01*
X193208215Y-65536511D01*
X193120000Y-65527823D01*
X192788483Y-65527823D01*
X192376000Y-65115340D01*
X192376000Y-64229000D01*
X192584000Y-64229000D01*
X192584000Y-65208000D01*
X193084000Y-65208000D01*
X193293284Y-65166901D01*
X193490529Y-65085762D01*
X193668155Y-64967702D01*
X193819335Y-64817257D01*
X193938260Y-64640209D01*
X194020360Y-64443362D01*
X194028454Y-64396355D01*
X193892593Y-64229000D01*
X192584000Y-64229000D01*
X192376000Y-64229000D01*
X192356000Y-64229000D01*
X192356000Y-64021000D01*
X192376000Y-64021000D01*
X192376000Y-64001000D01*
X192584000Y-64001000D01*
X192584000Y-64021000D01*
X193892593Y-64021000D01*
X194028454Y-63853645D01*
X194020360Y-63806638D01*
X193949831Y-63637534D01*
X194005398Y-63637534D01*
X194169616Y-63604869D01*
X194324306Y-63540794D01*
X194463524Y-63447772D01*
X194581918Y-63329378D01*
X194674940Y-63190160D01*
X194739015Y-63035470D01*
X194771680Y-62871252D01*
X194771680Y-62703816D01*
X194739015Y-62539598D01*
X194674940Y-62384908D01*
X194581918Y-62245690D01*
X194463524Y-62127296D01*
X194324306Y-62034274D01*
X194169616Y-61970199D01*
X194005398Y-61937534D01*
X193919965Y-61937534D01*
X194958388Y-60899111D01*
X194950000Y-60941282D01*
X194950000Y-61108718D01*
X194982665Y-61272936D01*
X195046740Y-61427626D01*
X195139762Y-61566844D01*
X195258156Y-61685238D01*
X195397374Y-61778260D01*
X195552064Y-61842335D01*
X195716282Y-61875000D01*
X195883718Y-61875000D01*
X196047936Y-61842335D01*
X196202626Y-61778260D01*
X196341844Y-61685238D01*
X196460238Y-61566844D01*
X196553260Y-61427626D01*
X196600000Y-61314786D01*
X196646740Y-61427626D01*
X196739762Y-61566844D01*
X196858156Y-61685238D01*
X196997374Y-61778260D01*
X197152064Y-61842335D01*
X197316282Y-61875000D01*
X197483718Y-61875000D01*
X197647936Y-61842335D01*
X197802626Y-61778260D01*
X197941844Y-61685238D01*
X198060238Y-61566844D01*
X198153260Y-61427626D01*
X198217335Y-61272936D01*
X198250000Y-61108718D01*
X198250000Y-60941282D01*
X198217335Y-60777064D01*
X198153260Y-60622374D01*
X198060238Y-60483156D01*
X197941844Y-60364762D01*
X197802626Y-60271740D01*
X197647936Y-60207665D01*
X197483718Y-60175000D01*
X197316282Y-60175000D01*
X197152064Y-60207665D01*
X196997374Y-60271740D01*
X196858156Y-60364762D01*
X196739762Y-60483156D01*
X196646740Y-60622374D01*
X196600000Y-60735214D01*
X196553260Y-60622374D01*
X196460238Y-60483156D01*
X196341844Y-60364762D01*
X196202626Y-60271740D01*
X196047936Y-60207665D01*
X195883718Y-60175000D01*
X195716282Y-60175000D01*
X195674112Y-60183388D01*
X195857499Y-60000001D01*
X200357353Y-60000001D01*
X194495715Y-65861640D01*
%TA.AperFunction,Conductor*%
D22*
G36*
X194495715Y-65861640D02*
G01*
X194467106Y-65885119D01*
X194443627Y-65913728D01*
X194443624Y-65913731D01*
X194416534Y-65946741D01*
X194373382Y-65999321D01*
X194336157Y-66068964D01*
X194303739Y-66129614D01*
X194260853Y-66270989D01*
X194246373Y-66418014D01*
X194250001Y-66454851D01*
X194250000Y-68692495D01*
X194246740Y-68697374D01*
X194182665Y-68852064D01*
X194150000Y-69016282D01*
X194150000Y-69183718D01*
X194182665Y-69347936D01*
X194246740Y-69502626D01*
X194339762Y-69641844D01*
X194458156Y-69760238D01*
X194597374Y-69853260D01*
X194752064Y-69917335D01*
X194916282Y-69950000D01*
X194989341Y-69950000D01*
X194757821Y-70181520D01*
X194752064Y-70182665D01*
X194597374Y-70246740D01*
X194458156Y-70339762D01*
X194339762Y-70458156D01*
X194246740Y-70597374D01*
X194182665Y-70752064D01*
X194150000Y-70916282D01*
X194150000Y-71083718D01*
X194182665Y-71247936D01*
X194246740Y-71402626D01*
X194339762Y-71541844D01*
X194458156Y-71660238D01*
X194597374Y-71753260D01*
X194752064Y-71817335D01*
X194916282Y-71850000D01*
X195083718Y-71850000D01*
X195159991Y-71834828D01*
X193230191Y-73764628D01*
X193209211Y-73781846D01*
X193191993Y-73802826D01*
X193191987Y-73802832D01*
X193140479Y-73865594D01*
X193095363Y-73950003D01*
X193089409Y-73961142D01*
X193057959Y-74064817D01*
X193052834Y-74116854D01*
X193047340Y-74172636D01*
X193050001Y-74199654D01*
X193050000Y-84592496D01*
X192960238Y-84458156D01*
X192841844Y-84339762D01*
X192702626Y-84246740D01*
X192547936Y-84182665D01*
X192383718Y-84150000D01*
X192216282Y-84150000D01*
X192052064Y-84182665D01*
X191897374Y-84246740D01*
X191758156Y-84339762D01*
X191639762Y-84458156D01*
X191546740Y-84597374D01*
X191494065Y-84724542D01*
X191377626Y-84646740D01*
X191222936Y-84582665D01*
X191058718Y-84550000D01*
X190891282Y-84550000D01*
X190823279Y-84563527D01*
X190823729Y-76675811D01*
X190908156Y-76760238D01*
X191047374Y-76853260D01*
X191202064Y-76917335D01*
X191366282Y-76950000D01*
X191533718Y-76950000D01*
X191697936Y-76917335D01*
X191852626Y-76853260D01*
X191991844Y-76760238D01*
X192110238Y-76641844D01*
X192203260Y-76502626D01*
X192267335Y-76347936D01*
X192300000Y-76183718D01*
X192300000Y-76016282D01*
X192267335Y-75852064D01*
X192203260Y-75697374D01*
X192110238Y-75558156D01*
X191991844Y-75439762D01*
X191852626Y-75346740D01*
X191697936Y-75282665D01*
X191533718Y-75250000D01*
X191366282Y-75250000D01*
X191202064Y-75282665D01*
X191047374Y-75346740D01*
X190908156Y-75439762D01*
X190823795Y-75524123D01*
X190824022Y-71546355D01*
X190931546Y-71546355D01*
X190939640Y-71593362D01*
X191021740Y-71790209D01*
X191140665Y-71967257D01*
X191291845Y-72117702D01*
X191469471Y-72235762D01*
X191666716Y-72316901D01*
X191876000Y-72358000D01*
X192376000Y-72358000D01*
X192376000Y-71379000D01*
X192584000Y-71379000D01*
X192584000Y-72358000D01*
X193084000Y-72358000D01*
X193293284Y-72316901D01*
X193490529Y-72235762D01*
X193668155Y-72117702D01*
X193819335Y-71967257D01*
X193938260Y-71790209D01*
X194020360Y-71593362D01*
X194028454Y-71546355D01*
X193892593Y-71379000D01*
X192584000Y-71379000D01*
X192376000Y-71379000D01*
X191067407Y-71379000D01*
X190931546Y-71546355D01*
X190824022Y-71546355D01*
X190824053Y-71003645D01*
X190931546Y-71003645D01*
X191067407Y-71171000D01*
X192376000Y-71171000D01*
X192376000Y-70192000D01*
X192584000Y-70192000D01*
X192584000Y-71171000D01*
X193892593Y-71171000D01*
X194028454Y-71003645D01*
X194020360Y-70956638D01*
X193938260Y-70759791D01*
X193819335Y-70582743D01*
X193668155Y-70432298D01*
X193490529Y-70314238D01*
X193293284Y-70233099D01*
X193084000Y-70192000D01*
X192584000Y-70192000D01*
X192376000Y-70192000D01*
X191876000Y-70192000D01*
X191666716Y-70233099D01*
X191469471Y-70314238D01*
X191291845Y-70432298D01*
X191140665Y-70582743D01*
X191021740Y-70759791D01*
X190939640Y-70956638D01*
X190931546Y-71003645D01*
X190824053Y-71003645D01*
X190824126Y-69718994D01*
X192128084Y-69718994D01*
X192150381Y-69933421D01*
X192343043Y-70022711D01*
X192549422Y-70072699D01*
X192761589Y-70081463D01*
X192971389Y-70048668D01*
X193170759Y-69975573D01*
X193249619Y-69933421D01*
X193271916Y-69718994D01*
X192700000Y-69147078D01*
X192128084Y-69718994D01*
X190824126Y-69718994D01*
X190824358Y-65685017D01*
X191380146Y-66240806D01*
X191287900Y-66279016D01*
X191145407Y-66374227D01*
X191024227Y-66495407D01*
X190929016Y-66637900D01*
X190863433Y-66796230D01*
X190830000Y-66964312D01*
X190830000Y-67135688D01*
X190863433Y-67303770D01*
X190929016Y-67462100D01*
X191024227Y-67604593D01*
X191119634Y-67700000D01*
X191024227Y-67795407D01*
X190929016Y-67937900D01*
X190863433Y-68096230D01*
X190830000Y-68264312D01*
X190830000Y-68435688D01*
X190863433Y-68603770D01*
X190929016Y-68762100D01*
X191024227Y-68904593D01*
X191145407Y-69025773D01*
X191287900Y-69120984D01*
X191446230Y-69186567D01*
X191614312Y-69220000D01*
X191643299Y-69220000D01*
X191651332Y-69271389D01*
X191724427Y-69470759D01*
X191766579Y-69549619D01*
X191981006Y-69571916D01*
X192552922Y-69000000D01*
X192847078Y-69000000D01*
X193418994Y-69571916D01*
X193633421Y-69549619D01*
X193722711Y-69356957D01*
X193772699Y-69150578D01*
X193781463Y-68938411D01*
X193748668Y-68728611D01*
X193675573Y-68529241D01*
X193633421Y-68450381D01*
X193418994Y-68428084D01*
X192847078Y-69000000D01*
X192552922Y-69000000D01*
X192538780Y-68985858D01*
X192685858Y-68838780D01*
X192700000Y-68852922D01*
X193060610Y-68492312D01*
X193112100Y-68470984D01*
X193254593Y-68375773D01*
X193375773Y-68254593D01*
X193470984Y-68112100D01*
X193536567Y-67953770D01*
X193570000Y-67785688D01*
X193570000Y-67614312D01*
X193536567Y-67446230D01*
X193470984Y-67287900D01*
X193395979Y-67175648D01*
X193439737Y-67139737D01*
X193495971Y-67071216D01*
X193537757Y-66993041D01*
X193563489Y-66908215D01*
X193572177Y-66820000D01*
X193572177Y-65980000D01*
X193563489Y-65891785D01*
X193537757Y-65806959D01*
X193495971Y-65728784D01*
X193439737Y-65660263D01*
X193371216Y-65604029D01*
X193293041Y-65562243D01*
X193208215Y-65536511D01*
X193120000Y-65527823D01*
X192788483Y-65527823D01*
X192376000Y-65115340D01*
X192376000Y-64229000D01*
X192584000Y-64229000D01*
X192584000Y-65208000D01*
X193084000Y-65208000D01*
X193293284Y-65166901D01*
X193490529Y-65085762D01*
X193668155Y-64967702D01*
X193819335Y-64817257D01*
X193938260Y-64640209D01*
X194020360Y-64443362D01*
X194028454Y-64396355D01*
X193892593Y-64229000D01*
X192584000Y-64229000D01*
X192376000Y-64229000D01*
X192356000Y-64229000D01*
X192356000Y-64021000D01*
X192376000Y-64021000D01*
X192376000Y-64001000D01*
X192584000Y-64001000D01*
X192584000Y-64021000D01*
X193892593Y-64021000D01*
X194028454Y-63853645D01*
X194020360Y-63806638D01*
X193949831Y-63637534D01*
X194005398Y-63637534D01*
X194169616Y-63604869D01*
X194324306Y-63540794D01*
X194463524Y-63447772D01*
X194581918Y-63329378D01*
X194674940Y-63190160D01*
X194739015Y-63035470D01*
X194771680Y-62871252D01*
X194771680Y-62703816D01*
X194739015Y-62539598D01*
X194674940Y-62384908D01*
X194581918Y-62245690D01*
X194463524Y-62127296D01*
X194324306Y-62034274D01*
X194169616Y-61970199D01*
X194005398Y-61937534D01*
X193919965Y-61937534D01*
X194958388Y-60899111D01*
X194950000Y-60941282D01*
X194950000Y-61108718D01*
X194982665Y-61272936D01*
X195046740Y-61427626D01*
X195139762Y-61566844D01*
X195258156Y-61685238D01*
X195397374Y-61778260D01*
X195552064Y-61842335D01*
X195716282Y-61875000D01*
X195883718Y-61875000D01*
X196047936Y-61842335D01*
X196202626Y-61778260D01*
X196341844Y-61685238D01*
X196460238Y-61566844D01*
X196553260Y-61427626D01*
X196600000Y-61314786D01*
X196646740Y-61427626D01*
X196739762Y-61566844D01*
X196858156Y-61685238D01*
X196997374Y-61778260D01*
X197152064Y-61842335D01*
X197316282Y-61875000D01*
X197483718Y-61875000D01*
X197647936Y-61842335D01*
X197802626Y-61778260D01*
X197941844Y-61685238D01*
X198060238Y-61566844D01*
X198153260Y-61427626D01*
X198217335Y-61272936D01*
X198250000Y-61108718D01*
X198250000Y-60941282D01*
X198217335Y-60777064D01*
X198153260Y-60622374D01*
X198060238Y-60483156D01*
X197941844Y-60364762D01*
X197802626Y-60271740D01*
X197647936Y-60207665D01*
X197483718Y-60175000D01*
X197316282Y-60175000D01*
X197152064Y-60207665D01*
X196997374Y-60271740D01*
X196858156Y-60364762D01*
X196739762Y-60483156D01*
X196646740Y-60622374D01*
X196600000Y-60735214D01*
X196553260Y-60622374D01*
X196460238Y-60483156D01*
X196341844Y-60364762D01*
X196202626Y-60271740D01*
X196047936Y-60207665D01*
X195883718Y-60175000D01*
X195716282Y-60175000D01*
X195674112Y-60183388D01*
X195857499Y-60000001D01*
X200357353Y-60000001D01*
X194495715Y-65861640D01*
G37*
%TD.AperFunction*%
D21*
X205641049Y-60818349D02*
X205576974Y-60973039D01*
X205544309Y-61137257D01*
X205544309Y-61304693D01*
X205576974Y-61468911D01*
X205617485Y-61566713D01*
X205550002Y-61611804D01*
X205452626Y-61546740D01*
X205297936Y-61482665D01*
X205133718Y-61450000D01*
X204966282Y-61450000D01*
X204802064Y-61482665D01*
X204647374Y-61546740D01*
X204508156Y-61639762D01*
X204389762Y-61758156D01*
X204296740Y-61897374D01*
X204232665Y-62052064D01*
X204200000Y-62216282D01*
X204200000Y-62383718D01*
X204232665Y-62547936D01*
X204296740Y-62702626D01*
X204389762Y-62841844D01*
X204508156Y-62960238D01*
X204647374Y-63053260D01*
X204802064Y-63117335D01*
X204966282Y-63150000D01*
X205133718Y-63150000D01*
X205297936Y-63117335D01*
X205452626Y-63053260D01*
X205550002Y-62988196D01*
X205624337Y-63037865D01*
X205605977Y-63130168D01*
X205605977Y-63297604D01*
X205638642Y-63461822D01*
X205702717Y-63616512D01*
X205725086Y-63649990D01*
X201636838Y-63649990D01*
X201600010Y-63646363D01*
X201563182Y-63649990D01*
X201563175Y-63649990D01*
X201452984Y-63660843D01*
X201311609Y-63703729D01*
X201181317Y-63773371D01*
X201067115Y-63867095D01*
X201043636Y-63895704D01*
X195850000Y-69089341D01*
X195850000Y-69016282D01*
X195817335Y-68852064D01*
X195753260Y-68697374D01*
X195750000Y-68692495D01*
X195750000Y-66728673D01*
X199912397Y-62566276D01*
X200250006Y-62566276D01*
X200250006Y-62733712D01*
X200282671Y-62897930D01*
X200346746Y-63052620D01*
X200439768Y-63191838D01*
X200558162Y-63310232D01*
X200697380Y-63403254D01*
X200852070Y-63467329D01*
X201016288Y-63499994D01*
X201183724Y-63499994D01*
X201347942Y-63467329D01*
X201502632Y-63403254D01*
X201641850Y-63310232D01*
X201760244Y-63191838D01*
X201853266Y-63052620D01*
X201917341Y-62897930D01*
X201950006Y-62733712D01*
X201950006Y-62566276D01*
X201917341Y-62402058D01*
X201853266Y-62247368D01*
X201760244Y-62108150D01*
X201641850Y-61989756D01*
X201502632Y-61896734D01*
X201347942Y-61832659D01*
X201183724Y-61799994D01*
X201016288Y-61799994D01*
X200852070Y-61832659D01*
X200697380Y-61896734D01*
X200558162Y-61989756D01*
X200439768Y-62108150D01*
X200346746Y-62247368D01*
X200282671Y-62402058D01*
X200250006Y-62566276D01*
X199912397Y-62566276D01*
X200872701Y-61605972D01*
X202172609Y-61605972D01*
X202172609Y-61773408D01*
X202205274Y-61937626D01*
X202269349Y-62092316D01*
X202362371Y-62231534D01*
X202480765Y-62349928D01*
X202619983Y-62442950D01*
X202774673Y-62507025D01*
X202938891Y-62539690D01*
X203106327Y-62539690D01*
X203270545Y-62507025D01*
X203425235Y-62442950D01*
X203564453Y-62349928D01*
X203682847Y-62231534D01*
X203775869Y-62092316D01*
X203839944Y-61937626D01*
X203872609Y-61773408D01*
X203872609Y-61605972D01*
X203839944Y-61441754D01*
X203775869Y-61287064D01*
X203682847Y-61147846D01*
X203564453Y-61029452D01*
X203425235Y-60936430D01*
X203270545Y-60872355D01*
X203106327Y-60839690D01*
X202938891Y-60839690D01*
X202774673Y-60872355D01*
X202619983Y-60936430D01*
X202480765Y-61029452D01*
X202362371Y-61147846D01*
X202269349Y-61287064D01*
X202205274Y-61441754D01*
X202172609Y-61605972D01*
X200872701Y-61605972D01*
X201678663Y-60800011D01*
X205653302Y-60800011D01*
X205641049Y-60818349D01*
%TA.AperFunction,Conductor*%
D22*
G36*
X205641049Y-60818349D02*
G01*
X205576974Y-60973039D01*
X205544309Y-61137257D01*
X205544309Y-61304693D01*
X205576974Y-61468911D01*
X205617485Y-61566713D01*
X205550002Y-61611804D01*
X205452626Y-61546740D01*
X205297936Y-61482665D01*
X205133718Y-61450000D01*
X204966282Y-61450000D01*
X204802064Y-61482665D01*
X204647374Y-61546740D01*
X204508156Y-61639762D01*
X204389762Y-61758156D01*
X204296740Y-61897374D01*
X204232665Y-62052064D01*
X204200000Y-62216282D01*
X204200000Y-62383718D01*
X204232665Y-62547936D01*
X204296740Y-62702626D01*
X204389762Y-62841844D01*
X204508156Y-62960238D01*
X204647374Y-63053260D01*
X204802064Y-63117335D01*
X204966282Y-63150000D01*
X205133718Y-63150000D01*
X205297936Y-63117335D01*
X205452626Y-63053260D01*
X205550002Y-62988196D01*
X205624337Y-63037865D01*
X205605977Y-63130168D01*
X205605977Y-63297604D01*
X205638642Y-63461822D01*
X205702717Y-63616512D01*
X205725086Y-63649990D01*
X201636838Y-63649990D01*
X201600010Y-63646363D01*
X201563182Y-63649990D01*
X201563175Y-63649990D01*
X201452984Y-63660843D01*
X201311609Y-63703729D01*
X201181317Y-63773371D01*
X201067115Y-63867095D01*
X201043636Y-63895704D01*
X195850000Y-69089341D01*
X195850000Y-69016282D01*
X195817335Y-68852064D01*
X195753260Y-68697374D01*
X195750000Y-68692495D01*
X195750000Y-66728673D01*
X199912397Y-62566276D01*
X200250006Y-62566276D01*
X200250006Y-62733712D01*
X200282671Y-62897930D01*
X200346746Y-63052620D01*
X200439768Y-63191838D01*
X200558162Y-63310232D01*
X200697380Y-63403254D01*
X200852070Y-63467329D01*
X201016288Y-63499994D01*
X201183724Y-63499994D01*
X201347942Y-63467329D01*
X201502632Y-63403254D01*
X201641850Y-63310232D01*
X201760244Y-63191838D01*
X201853266Y-63052620D01*
X201917341Y-62897930D01*
X201950006Y-62733712D01*
X201950006Y-62566276D01*
X201917341Y-62402058D01*
X201853266Y-62247368D01*
X201760244Y-62108150D01*
X201641850Y-61989756D01*
X201502632Y-61896734D01*
X201347942Y-61832659D01*
X201183724Y-61799994D01*
X201016288Y-61799994D01*
X200852070Y-61832659D01*
X200697380Y-61896734D01*
X200558162Y-61989756D01*
X200439768Y-62108150D01*
X200346746Y-62247368D01*
X200282671Y-62402058D01*
X200250006Y-62566276D01*
X199912397Y-62566276D01*
X200872701Y-61605972D01*
X202172609Y-61605972D01*
X202172609Y-61773408D01*
X202205274Y-61937626D01*
X202269349Y-62092316D01*
X202362371Y-62231534D01*
X202480765Y-62349928D01*
X202619983Y-62442950D01*
X202774673Y-62507025D01*
X202938891Y-62539690D01*
X203106327Y-62539690D01*
X203270545Y-62507025D01*
X203425235Y-62442950D01*
X203564453Y-62349928D01*
X203682847Y-62231534D01*
X203775869Y-62092316D01*
X203839944Y-61937626D01*
X203872609Y-61773408D01*
X203872609Y-61605972D01*
X203839944Y-61441754D01*
X203775869Y-61287064D01*
X203682847Y-61147846D01*
X203564453Y-61029452D01*
X203425235Y-60936430D01*
X203270545Y-60872355D01*
X203106327Y-60839690D01*
X202938891Y-60839690D01*
X202774673Y-60872355D01*
X202619983Y-60936430D01*
X202480765Y-61029452D01*
X202362371Y-61147846D01*
X202269349Y-61287064D01*
X202205274Y-61441754D01*
X202172609Y-61605972D01*
X200872701Y-61605972D01*
X201678663Y-60800011D01*
X205653302Y-60800011D01*
X205641049Y-60818349D01*
G37*
%TD.AperFunction*%
D21*
X206643790Y-67637635D02*
X206761788Y-67664710D01*
X206950000Y-67852922D01*
X207138122Y-67664800D01*
X207202428Y-67653950D01*
X207356565Y-67595315D01*
X207312365Y-67693790D01*
X207285290Y-67811788D01*
X207097078Y-68000000D01*
X207285200Y-68188122D01*
X207296050Y-68252428D01*
X207354685Y-68406565D01*
X207256210Y-68362365D01*
X207138212Y-68335290D01*
X206950000Y-68147078D01*
X206761878Y-68335200D01*
X206697572Y-68346050D01*
X206543435Y-68404685D01*
X206587635Y-68306210D01*
X206614710Y-68188212D01*
X206802922Y-68000000D01*
X206614800Y-67811878D01*
X206603950Y-67747572D01*
X206545315Y-67593435D01*
X206643790Y-67637635D01*
%TA.AperFunction,Conductor*%
D22*
G36*
X206643790Y-67637635D02*
G01*
X206761788Y-67664710D01*
X206950000Y-67852922D01*
X207138122Y-67664800D01*
X207202428Y-67653950D01*
X207356565Y-67595315D01*
X207312365Y-67693790D01*
X207285290Y-67811788D01*
X207097078Y-68000000D01*
X207285200Y-68188122D01*
X207296050Y-68252428D01*
X207354685Y-68406565D01*
X207256210Y-68362365D01*
X207138212Y-68335290D01*
X206950000Y-68147078D01*
X206761878Y-68335200D01*
X206697572Y-68346050D01*
X206543435Y-68404685D01*
X206587635Y-68306210D01*
X206614710Y-68188212D01*
X206802922Y-68000000D01*
X206614800Y-67811878D01*
X206603950Y-67747572D01*
X206545315Y-67593435D01*
X206643790Y-67637635D01*
G37*
%TD.AperFunction*%
D21*
X207947374Y-66453260D02*
X208102064Y-66517335D01*
X208179894Y-66532816D01*
X208225000Y-66577922D01*
X208239143Y-66563780D01*
X208386221Y-66710858D01*
X208372078Y-66725000D01*
X208386221Y-66739143D01*
X208239143Y-66886221D01*
X208225000Y-66872078D01*
X208036878Y-67060200D01*
X207972572Y-67071050D01*
X207818435Y-67129685D01*
X207862635Y-67031210D01*
X207889710Y-66913212D01*
X208077922Y-66725000D01*
X207889800Y-66536878D01*
X207878950Y-66472572D01*
X207845781Y-66385378D01*
X207947374Y-66453260D01*
%TA.AperFunction,Conductor*%
D22*
G36*
X207947374Y-66453260D02*
G01*
X208102064Y-66517335D01*
X208179894Y-66532816D01*
X208225000Y-66577922D01*
X208239143Y-66563780D01*
X208386221Y-66710858D01*
X208372078Y-66725000D01*
X208386221Y-66739143D01*
X208239143Y-66886221D01*
X208225000Y-66872078D01*
X208036878Y-67060200D01*
X207972572Y-67071050D01*
X207818435Y-67129685D01*
X207862635Y-67031210D01*
X207889710Y-66913212D01*
X208077922Y-66725000D01*
X207889800Y-66536878D01*
X207878950Y-66472572D01*
X207845781Y-66385378D01*
X207947374Y-66453260D01*
G37*
%TD.AperFunction*%
%TD*%
M02*
