%TF.GenerationSoftware,KiCad,Pcbnew,(5.1.10-1-10_14)*%
%TF.CreationDate,2021-12-24T07:56:15-05:00*%
%TF.ProjectId,hermes_v1,6865726d-6573-45f7-9631-2e6b69636164,rev?*%
%TF.SameCoordinates,Original*%
%TF.FileFunction,Soldermask,Top*%
%TF.FilePolarity,Negative*%
%FSLAX46Y46*%
G04 Gerber Fmt 4.6, Leading zero omitted, Abs format (unit mm)*
G04 Created by KiCad (PCBNEW (5.1.10-1-10_14)) date 2021-12-24 07:56:15*
%MOMM*%
%LPD*%
G01*
G04 APERTURE LIST*
%ADD10C,3.800000*%
%ADD11R,0.500000X0.375000*%
%ADD12R,0.650000X0.300000*%
%ADD13C,0.100000*%
%ADD14R,0.650000X1.050000*%
%ADD15C,1.000000*%
%ADD16O,1.850000X0.850000*%
%ADD17C,0.840000*%
%ADD18R,0.840000X0.840000*%
%ADD19O,1.700000X1.700000*%
%ADD20R,1.700000X1.700000*%
%ADD21C,1.700000*%
%ADD22R,2.400000X1.700000*%
%ADD23R,3.300000X2.500000*%
%ADD24R,1.000000X1.500000*%
%ADD25R,0.532600X1.454899*%
%ADD26R,3.099999X2.400000*%
%ADD27R,3.800000X2.000000*%
%ADD28R,1.500000X2.000000*%
G04 APERTURE END LIST*
D10*
%TO.C,H4*%
X188110000Y-45960000D03*
%TD*%
%TO.C,H3*%
X225250000Y-91190000D03*
%TD*%
%TO.C,H2*%
X188110000Y-91170000D03*
%TD*%
%TO.C,H1*%
X225230000Y-45960000D03*
%TD*%
D11*
%TO.C,U7*%
X195170000Y-67447500D03*
X195170000Y-66372500D03*
D12*
X196945000Y-66910000D03*
X195095000Y-66910000D03*
D11*
X196870000Y-66372500D03*
X196870000Y-67447500D03*
%TD*%
D13*
%TO.C,JP3*%
G36*
X213250000Y-61850602D02*
G01*
X213274534Y-61850602D01*
X213323365Y-61855412D01*
X213371490Y-61864984D01*
X213418445Y-61879228D01*
X213463778Y-61898005D01*
X213507051Y-61921136D01*
X213547850Y-61948396D01*
X213585779Y-61979524D01*
X213620476Y-62014221D01*
X213651604Y-62052150D01*
X213678864Y-62092949D01*
X213701995Y-62136222D01*
X213720772Y-62181555D01*
X213735016Y-62228510D01*
X213744588Y-62276635D01*
X213749398Y-62325466D01*
X213749398Y-62350000D01*
X213750000Y-62350000D01*
X213750000Y-62850000D01*
X213749398Y-62850000D01*
X213749398Y-62874534D01*
X213744588Y-62923365D01*
X213735016Y-62971490D01*
X213720772Y-63018445D01*
X213701995Y-63063778D01*
X213678864Y-63107051D01*
X213651604Y-63147850D01*
X213620476Y-63185779D01*
X213585779Y-63220476D01*
X213547850Y-63251604D01*
X213507051Y-63278864D01*
X213463778Y-63301995D01*
X213418445Y-63320772D01*
X213371490Y-63335016D01*
X213323365Y-63344588D01*
X213274534Y-63349398D01*
X213250000Y-63349398D01*
X213250000Y-63350000D01*
X212750000Y-63350000D01*
X212750000Y-61850000D01*
X213250000Y-61850000D01*
X213250000Y-61850602D01*
G37*
G36*
X212450000Y-63350000D02*
G01*
X211950000Y-63350000D01*
X211950000Y-63349398D01*
X211925466Y-63349398D01*
X211876635Y-63344588D01*
X211828510Y-63335016D01*
X211781555Y-63320772D01*
X211736222Y-63301995D01*
X211692949Y-63278864D01*
X211652150Y-63251604D01*
X211614221Y-63220476D01*
X211579524Y-63185779D01*
X211548396Y-63147850D01*
X211521136Y-63107051D01*
X211498005Y-63063778D01*
X211479228Y-63018445D01*
X211464984Y-62971490D01*
X211455412Y-62923365D01*
X211450602Y-62874534D01*
X211450602Y-62850000D01*
X211450000Y-62850000D01*
X211450000Y-62350000D01*
X211450602Y-62350000D01*
X211450602Y-62325466D01*
X211455412Y-62276635D01*
X211464984Y-62228510D01*
X211479228Y-62181555D01*
X211498005Y-62136222D01*
X211521136Y-62092949D01*
X211548396Y-62052150D01*
X211579524Y-62014221D01*
X211614221Y-61979524D01*
X211652150Y-61948396D01*
X211692949Y-61921136D01*
X211736222Y-61898005D01*
X211781555Y-61879228D01*
X211828510Y-61864984D01*
X211876635Y-61855412D01*
X211925466Y-61850602D01*
X211950000Y-61850602D01*
X211950000Y-61850000D01*
X212450000Y-61850000D01*
X212450000Y-63350000D01*
G37*
%TD*%
%TO.C,JP2*%
G36*
X208600000Y-63349398D02*
G01*
X208575466Y-63349398D01*
X208526635Y-63344588D01*
X208478510Y-63335016D01*
X208431555Y-63320772D01*
X208386222Y-63301995D01*
X208342949Y-63278864D01*
X208302150Y-63251604D01*
X208264221Y-63220476D01*
X208229524Y-63185779D01*
X208198396Y-63147850D01*
X208171136Y-63107051D01*
X208148005Y-63063778D01*
X208129228Y-63018445D01*
X208114984Y-62971490D01*
X208105412Y-62923365D01*
X208100602Y-62874534D01*
X208100602Y-62850000D01*
X208100000Y-62850000D01*
X208100000Y-62350000D01*
X208100602Y-62350000D01*
X208100602Y-62325466D01*
X208105412Y-62276635D01*
X208114984Y-62228510D01*
X208129228Y-62181555D01*
X208148005Y-62136222D01*
X208171136Y-62092949D01*
X208198396Y-62052150D01*
X208229524Y-62014221D01*
X208264221Y-61979524D01*
X208302150Y-61948396D01*
X208342949Y-61921136D01*
X208386222Y-61898005D01*
X208431555Y-61879228D01*
X208478510Y-61864984D01*
X208526635Y-61855412D01*
X208575466Y-61850602D01*
X208600000Y-61850602D01*
X208600000Y-61850000D01*
X209100000Y-61850000D01*
X209100000Y-63350000D01*
X208600000Y-63350000D01*
X208600000Y-63349398D01*
G37*
G36*
X209400000Y-61850000D02*
G01*
X209900000Y-61850000D01*
X209900000Y-61850602D01*
X209924534Y-61850602D01*
X209973365Y-61855412D01*
X210021490Y-61864984D01*
X210068445Y-61879228D01*
X210113778Y-61898005D01*
X210157051Y-61921136D01*
X210197850Y-61948396D01*
X210235779Y-61979524D01*
X210270476Y-62014221D01*
X210301604Y-62052150D01*
X210328864Y-62092949D01*
X210351995Y-62136222D01*
X210370772Y-62181555D01*
X210385016Y-62228510D01*
X210394588Y-62276635D01*
X210399398Y-62325466D01*
X210399398Y-62350000D01*
X210400000Y-62350000D01*
X210400000Y-62850000D01*
X210399398Y-62850000D01*
X210399398Y-62874534D01*
X210394588Y-62923365D01*
X210385016Y-62971490D01*
X210370772Y-63018445D01*
X210351995Y-63063778D01*
X210328864Y-63107051D01*
X210301604Y-63147850D01*
X210270476Y-63185779D01*
X210235779Y-63220476D01*
X210197850Y-63251604D01*
X210157051Y-63278864D01*
X210113778Y-63301995D01*
X210068445Y-63320772D01*
X210021490Y-63335016D01*
X209973365Y-63344588D01*
X209924534Y-63349398D01*
X209900000Y-63349398D01*
X209900000Y-63350000D01*
X209400000Y-63350000D01*
X209400000Y-61850000D01*
G37*
%TD*%
%TO.C,R16*%
G36*
G01*
X196310000Y-69915000D02*
X196310000Y-70235000D01*
G75*
G02*
X196150000Y-70395000I-160000J0D01*
G01*
X195755000Y-70395000D01*
G75*
G02*
X195595000Y-70235000I0J160000D01*
G01*
X195595000Y-69915000D01*
G75*
G02*
X195755000Y-69755000I160000J0D01*
G01*
X196150000Y-69755000D01*
G75*
G02*
X196310000Y-69915000I0J-160000D01*
G01*
G37*
G36*
G01*
X197505000Y-69915000D02*
X197505000Y-70235000D01*
G75*
G02*
X197345000Y-70395000I-160000J0D01*
G01*
X196950000Y-70395000D01*
G75*
G02*
X196790000Y-70235000I0J160000D01*
G01*
X196790000Y-69915000D01*
G75*
G02*
X196950000Y-69755000I160000J0D01*
G01*
X197345000Y-69755000D01*
G75*
G02*
X197505000Y-69915000I0J-160000D01*
G01*
G37*
%TD*%
%TO.C,R15*%
G36*
G01*
X196310000Y-71890000D02*
X196310000Y-72210000D01*
G75*
G02*
X196150000Y-72370000I-160000J0D01*
G01*
X195755000Y-72370000D01*
G75*
G02*
X195595000Y-72210000I0J160000D01*
G01*
X195595000Y-71890000D01*
G75*
G02*
X195755000Y-71730000I160000J0D01*
G01*
X196150000Y-71730000D01*
G75*
G02*
X196310000Y-71890000I0J-160000D01*
G01*
G37*
G36*
G01*
X197505000Y-71890000D02*
X197505000Y-72210000D01*
G75*
G02*
X197345000Y-72370000I-160000J0D01*
G01*
X196950000Y-72370000D01*
G75*
G02*
X196790000Y-72210000I0J160000D01*
G01*
X196790000Y-71890000D01*
G75*
G02*
X196950000Y-71730000I160000J0D01*
G01*
X197345000Y-71730000D01*
G75*
G02*
X197505000Y-71890000I0J-160000D01*
G01*
G37*
%TD*%
%TO.C,D6*%
G36*
G01*
X196360000Y-68940000D02*
X196360000Y-69260000D01*
G75*
G02*
X196200000Y-69420000I-160000J0D01*
G01*
X195755000Y-69420000D01*
G75*
G02*
X195595000Y-69260000I0J160000D01*
G01*
X195595000Y-68940000D01*
G75*
G02*
X195755000Y-68780000I160000J0D01*
G01*
X196200000Y-68780000D01*
G75*
G02*
X196360000Y-68940000I0J-160000D01*
G01*
G37*
G36*
G01*
X197505000Y-68940000D02*
X197505000Y-69260000D01*
G75*
G02*
X197345000Y-69420000I-160000J0D01*
G01*
X196900000Y-69420000D01*
G75*
G02*
X196740000Y-69260000I0J160000D01*
G01*
X196740000Y-68940000D01*
G75*
G02*
X196900000Y-68780000I160000J0D01*
G01*
X197345000Y-68780000D01*
G75*
G02*
X197505000Y-68940000I0J-160000D01*
G01*
G37*
%TD*%
%TO.C,D5*%
G36*
G01*
X196360000Y-70890000D02*
X196360000Y-71210000D01*
G75*
G02*
X196200000Y-71370000I-160000J0D01*
G01*
X195755000Y-71370000D01*
G75*
G02*
X195595000Y-71210000I0J160000D01*
G01*
X195595000Y-70890000D01*
G75*
G02*
X195755000Y-70730000I160000J0D01*
G01*
X196200000Y-70730000D01*
G75*
G02*
X196360000Y-70890000I0J-160000D01*
G01*
G37*
G36*
G01*
X197505000Y-70890000D02*
X197505000Y-71210000D01*
G75*
G02*
X197345000Y-71370000I-160000J0D01*
G01*
X196900000Y-71370000D01*
G75*
G02*
X196740000Y-71210000I0J160000D01*
G01*
X196740000Y-70890000D01*
G75*
G02*
X196900000Y-70730000I160000J0D01*
G01*
X197345000Y-70730000D01*
G75*
G02*
X197505000Y-70890000I0J-160000D01*
G01*
G37*
%TD*%
D14*
%TO.C,SW2*%
X191425000Y-91125000D03*
X191425000Y-86975000D03*
X193575000Y-91125000D03*
X193575000Y-86975000D03*
%TD*%
%TO.C,SW1*%
X191325000Y-61675000D03*
X191325000Y-57525000D03*
X193475000Y-61675000D03*
X193475000Y-57525000D03*
%TD*%
%TO.C,C8*%
G36*
G01*
X201500000Y-63545000D02*
X201500000Y-63855000D01*
G75*
G02*
X201345000Y-64010000I-155000J0D01*
G01*
X200920000Y-64010000D01*
G75*
G02*
X200765000Y-63855000I0J155000D01*
G01*
X200765000Y-63545000D01*
G75*
G02*
X200920000Y-63390000I155000J0D01*
G01*
X201345000Y-63390000D01*
G75*
G02*
X201500000Y-63545000I0J-155000D01*
G01*
G37*
G36*
G01*
X202635000Y-63545000D02*
X202635000Y-63855000D01*
G75*
G02*
X202480000Y-64010000I-155000J0D01*
G01*
X202055000Y-64010000D01*
G75*
G02*
X201900000Y-63855000I0J155000D01*
G01*
X201900000Y-63545000D01*
G75*
G02*
X202055000Y-63390000I155000J0D01*
G01*
X202480000Y-63390000D01*
G75*
G02*
X202635000Y-63545000I0J-155000D01*
G01*
G37*
%TD*%
D15*
%TO.C,TP2*%
X196950000Y-44700000D03*
%TD*%
%TO.C,TP1*%
X194800000Y-44700000D03*
%TD*%
D16*
%TO.C,J2*%
X192480000Y-71275000D03*
X192480000Y-64125000D03*
D17*
X192700000Y-69000000D03*
X191700000Y-68350000D03*
X192700000Y-67700000D03*
X191700000Y-67050000D03*
D18*
X192700000Y-66400000D03*
%TD*%
D19*
%TO.C,J7*%
X221740000Y-92130000D03*
X219200000Y-92130000D03*
X221740000Y-89590000D03*
X219200000Y-89590000D03*
X221740000Y-87050000D03*
D20*
X219200000Y-87050000D03*
%TD*%
D19*
%TO.C,J5*%
X216640000Y-92130000D03*
X214100000Y-92130000D03*
X216640000Y-89590000D03*
X214100000Y-89590000D03*
X216640000Y-87050000D03*
D21*
X214100000Y-87050000D03*
%TD*%
D19*
%TO.C,J4*%
X211540000Y-89610000D03*
X211540000Y-92150000D03*
X209000000Y-89610000D03*
X209000000Y-92150000D03*
X206460000Y-89610000D03*
X206460000Y-92150000D03*
X203920000Y-89610000D03*
X203920000Y-92150000D03*
X201380000Y-89610000D03*
X201380000Y-92150000D03*
X198840000Y-89610000D03*
X198840000Y-92150000D03*
X196300000Y-89610000D03*
D20*
X196300000Y-92150000D03*
%TD*%
D19*
%TO.C,J3*%
X196310000Y-87050000D03*
X198850000Y-87050000D03*
X201390000Y-87050000D03*
X203930000Y-87050000D03*
X206470000Y-87050000D03*
X209010000Y-87050000D03*
D20*
X211550000Y-87050000D03*
%TD*%
D22*
%TO.C,Y1*%
X217500000Y-64900000D03*
X217500000Y-68600000D03*
%TD*%
%TO.C,C6*%
G36*
G01*
X201500000Y-64495000D02*
X201500000Y-64805000D01*
G75*
G02*
X201345000Y-64960000I-155000J0D01*
G01*
X200920000Y-64960000D01*
G75*
G02*
X200765000Y-64805000I0J155000D01*
G01*
X200765000Y-64495000D01*
G75*
G02*
X200920000Y-64340000I155000J0D01*
G01*
X201345000Y-64340000D01*
G75*
G02*
X201500000Y-64495000I0J-155000D01*
G01*
G37*
G36*
G01*
X202635000Y-64495000D02*
X202635000Y-64805000D01*
G75*
G02*
X202480000Y-64960000I-155000J0D01*
G01*
X202055000Y-64960000D01*
G75*
G02*
X201900000Y-64805000I0J155000D01*
G01*
X201900000Y-64495000D01*
G75*
G02*
X202055000Y-64340000I155000J0D01*
G01*
X202480000Y-64340000D01*
G75*
G02*
X202635000Y-64495000I0J-155000D01*
G01*
G37*
%TD*%
%TO.C,C7*%
G36*
G01*
X202635000Y-65445000D02*
X202635000Y-65755000D01*
G75*
G02*
X202480000Y-65910000I-155000J0D01*
G01*
X202055000Y-65910000D01*
G75*
G02*
X201900000Y-65755000I0J155000D01*
G01*
X201900000Y-65445000D01*
G75*
G02*
X202055000Y-65290000I155000J0D01*
G01*
X202480000Y-65290000D01*
G75*
G02*
X202635000Y-65445000I0J-155000D01*
G01*
G37*
G36*
G01*
X201500000Y-65445000D02*
X201500000Y-65755000D01*
G75*
G02*
X201345000Y-65910000I-155000J0D01*
G01*
X200920000Y-65910000D01*
G75*
G02*
X200765000Y-65755000I0J155000D01*
G01*
X200765000Y-65445000D01*
G75*
G02*
X200920000Y-65290000I155000J0D01*
G01*
X201345000Y-65290000D01*
G75*
G02*
X201500000Y-65445000I0J-155000D01*
G01*
G37*
%TD*%
%TO.C,C9*%
G36*
G01*
X204155000Y-62550000D02*
X203845000Y-62550000D01*
G75*
G02*
X203690000Y-62395000I0J155000D01*
G01*
X203690000Y-61970000D01*
G75*
G02*
X203845000Y-61815000I155000J0D01*
G01*
X204155000Y-61815000D01*
G75*
G02*
X204310000Y-61970000I0J-155000D01*
G01*
X204310000Y-62395000D01*
G75*
G02*
X204155000Y-62550000I-155000J0D01*
G01*
G37*
G36*
G01*
X204155000Y-63685000D02*
X203845000Y-63685000D01*
G75*
G02*
X203690000Y-63530000I0J155000D01*
G01*
X203690000Y-63105000D01*
G75*
G02*
X203845000Y-62950000I155000J0D01*
G01*
X204155000Y-62950000D01*
G75*
G02*
X204310000Y-63105000I0J-155000D01*
G01*
X204310000Y-63530000D01*
G75*
G02*
X204155000Y-63685000I-155000J0D01*
G01*
G37*
%TD*%
%TO.C,C10*%
G36*
G01*
X205445000Y-60100000D02*
X205755000Y-60100000D01*
G75*
G02*
X205910000Y-60255000I0J-155000D01*
G01*
X205910000Y-60680000D01*
G75*
G02*
X205755000Y-60835000I-155000J0D01*
G01*
X205445000Y-60835000D01*
G75*
G02*
X205290000Y-60680000I0J155000D01*
G01*
X205290000Y-60255000D01*
G75*
G02*
X205445000Y-60100000I155000J0D01*
G01*
G37*
G36*
G01*
X205445000Y-58965000D02*
X205755000Y-58965000D01*
G75*
G02*
X205910000Y-59120000I0J-155000D01*
G01*
X205910000Y-59545000D01*
G75*
G02*
X205755000Y-59700000I-155000J0D01*
G01*
X205445000Y-59700000D01*
G75*
G02*
X205290000Y-59545000I0J155000D01*
G01*
X205290000Y-59120000D01*
G75*
G02*
X205445000Y-58965000I155000J0D01*
G01*
G37*
%TD*%
%TO.C,C11*%
G36*
G01*
X204395000Y-58965000D02*
X204705000Y-58965000D01*
G75*
G02*
X204860000Y-59120000I0J-155000D01*
G01*
X204860000Y-59545000D01*
G75*
G02*
X204705000Y-59700000I-155000J0D01*
G01*
X204395000Y-59700000D01*
G75*
G02*
X204240000Y-59545000I0J155000D01*
G01*
X204240000Y-59120000D01*
G75*
G02*
X204395000Y-58965000I155000J0D01*
G01*
G37*
G36*
G01*
X204395000Y-60100000D02*
X204705000Y-60100000D01*
G75*
G02*
X204860000Y-60255000I0J-155000D01*
G01*
X204860000Y-60680000D01*
G75*
G02*
X204705000Y-60835000I-155000J0D01*
G01*
X204395000Y-60835000D01*
G75*
G02*
X204240000Y-60680000I0J155000D01*
G01*
X204240000Y-60255000D01*
G75*
G02*
X204395000Y-60100000I155000J0D01*
G01*
G37*
%TD*%
%TO.C,C12*%
G36*
G01*
X203345000Y-60100000D02*
X203655000Y-60100000D01*
G75*
G02*
X203810000Y-60255000I0J-155000D01*
G01*
X203810000Y-60680000D01*
G75*
G02*
X203655000Y-60835000I-155000J0D01*
G01*
X203345000Y-60835000D01*
G75*
G02*
X203190000Y-60680000I0J155000D01*
G01*
X203190000Y-60255000D01*
G75*
G02*
X203345000Y-60100000I155000J0D01*
G01*
G37*
G36*
G01*
X203345000Y-58965000D02*
X203655000Y-58965000D01*
G75*
G02*
X203810000Y-59120000I0J-155000D01*
G01*
X203810000Y-59545000D01*
G75*
G02*
X203655000Y-59700000I-155000J0D01*
G01*
X203345000Y-59700000D01*
G75*
G02*
X203190000Y-59545000I0J155000D01*
G01*
X203190000Y-59120000D01*
G75*
G02*
X203345000Y-58965000I155000J0D01*
G01*
G37*
%TD*%
%TO.C,C13*%
G36*
G01*
X202345000Y-58965000D02*
X202655000Y-58965000D01*
G75*
G02*
X202810000Y-59120000I0J-155000D01*
G01*
X202810000Y-59545000D01*
G75*
G02*
X202655000Y-59700000I-155000J0D01*
G01*
X202345000Y-59700000D01*
G75*
G02*
X202190000Y-59545000I0J155000D01*
G01*
X202190000Y-59120000D01*
G75*
G02*
X202345000Y-58965000I155000J0D01*
G01*
G37*
G36*
G01*
X202345000Y-60100000D02*
X202655000Y-60100000D01*
G75*
G02*
X202810000Y-60255000I0J-155000D01*
G01*
X202810000Y-60680000D01*
G75*
G02*
X202655000Y-60835000I-155000J0D01*
G01*
X202345000Y-60835000D01*
G75*
G02*
X202190000Y-60680000I0J155000D01*
G01*
X202190000Y-60255000D01*
G75*
G02*
X202345000Y-60100000I155000J0D01*
G01*
G37*
%TD*%
%TO.C,C14*%
G36*
G01*
X201345000Y-58965000D02*
X201655000Y-58965000D01*
G75*
G02*
X201810000Y-59120000I0J-155000D01*
G01*
X201810000Y-59545000D01*
G75*
G02*
X201655000Y-59700000I-155000J0D01*
G01*
X201345000Y-59700000D01*
G75*
G02*
X201190000Y-59545000I0J155000D01*
G01*
X201190000Y-59120000D01*
G75*
G02*
X201345000Y-58965000I155000J0D01*
G01*
G37*
G36*
G01*
X201345000Y-60100000D02*
X201655000Y-60100000D01*
G75*
G02*
X201810000Y-60255000I0J-155000D01*
G01*
X201810000Y-60680000D01*
G75*
G02*
X201655000Y-60835000I-155000J0D01*
G01*
X201345000Y-60835000D01*
G75*
G02*
X201190000Y-60680000I0J155000D01*
G01*
X201190000Y-60255000D01*
G75*
G02*
X201345000Y-60100000I155000J0D01*
G01*
G37*
%TD*%
%TO.C,C15*%
G36*
G01*
X200345000Y-60100000D02*
X200655000Y-60100000D01*
G75*
G02*
X200810000Y-60255000I0J-155000D01*
G01*
X200810000Y-60680000D01*
G75*
G02*
X200655000Y-60835000I-155000J0D01*
G01*
X200345000Y-60835000D01*
G75*
G02*
X200190000Y-60680000I0J155000D01*
G01*
X200190000Y-60255000D01*
G75*
G02*
X200345000Y-60100000I155000J0D01*
G01*
G37*
G36*
G01*
X200345000Y-58965000D02*
X200655000Y-58965000D01*
G75*
G02*
X200810000Y-59120000I0J-155000D01*
G01*
X200810000Y-59545000D01*
G75*
G02*
X200655000Y-59700000I-155000J0D01*
G01*
X200345000Y-59700000D01*
G75*
G02*
X200190000Y-59545000I0J155000D01*
G01*
X200190000Y-59120000D01*
G75*
G02*
X200345000Y-58965000I155000J0D01*
G01*
G37*
%TD*%
%TO.C,C16*%
G36*
G01*
X199345000Y-58965000D02*
X199655000Y-58965000D01*
G75*
G02*
X199810000Y-59120000I0J-155000D01*
G01*
X199810000Y-59545000D01*
G75*
G02*
X199655000Y-59700000I-155000J0D01*
G01*
X199345000Y-59700000D01*
G75*
G02*
X199190000Y-59545000I0J155000D01*
G01*
X199190000Y-59120000D01*
G75*
G02*
X199345000Y-58965000I155000J0D01*
G01*
G37*
G36*
G01*
X199345000Y-60100000D02*
X199655000Y-60100000D01*
G75*
G02*
X199810000Y-60255000I0J-155000D01*
G01*
X199810000Y-60680000D01*
G75*
G02*
X199655000Y-60835000I-155000J0D01*
G01*
X199345000Y-60835000D01*
G75*
G02*
X199190000Y-60680000I0J155000D01*
G01*
X199190000Y-60255000D01*
G75*
G02*
X199345000Y-60100000I155000J0D01*
G01*
G37*
%TD*%
%TO.C,C17*%
G36*
G01*
X220055000Y-69535000D02*
X219745000Y-69535000D01*
G75*
G02*
X219590000Y-69380000I0J155000D01*
G01*
X219590000Y-68955000D01*
G75*
G02*
X219745000Y-68800000I155000J0D01*
G01*
X220055000Y-68800000D01*
G75*
G02*
X220210000Y-68955000I0J-155000D01*
G01*
X220210000Y-69380000D01*
G75*
G02*
X220055000Y-69535000I-155000J0D01*
G01*
G37*
G36*
G01*
X220055000Y-68400000D02*
X219745000Y-68400000D01*
G75*
G02*
X219590000Y-68245000I0J155000D01*
G01*
X219590000Y-67820000D01*
G75*
G02*
X219745000Y-67665000I155000J0D01*
G01*
X220055000Y-67665000D01*
G75*
G02*
X220210000Y-67820000I0J-155000D01*
G01*
X220210000Y-68245000D01*
G75*
G02*
X220055000Y-68400000I-155000J0D01*
G01*
G37*
%TD*%
%TO.C,C18*%
G36*
G01*
X219745000Y-65100000D02*
X220055000Y-65100000D01*
G75*
G02*
X220210000Y-65255000I0J-155000D01*
G01*
X220210000Y-65680000D01*
G75*
G02*
X220055000Y-65835000I-155000J0D01*
G01*
X219745000Y-65835000D01*
G75*
G02*
X219590000Y-65680000I0J155000D01*
G01*
X219590000Y-65255000D01*
G75*
G02*
X219745000Y-65100000I155000J0D01*
G01*
G37*
G36*
G01*
X219745000Y-63965000D02*
X220055000Y-63965000D01*
G75*
G02*
X220210000Y-64120000I0J-155000D01*
G01*
X220210000Y-64545000D01*
G75*
G02*
X220055000Y-64700000I-155000J0D01*
G01*
X219745000Y-64700000D01*
G75*
G02*
X219590000Y-64545000I0J155000D01*
G01*
X219590000Y-64120000D01*
G75*
G02*
X219745000Y-63965000I155000J0D01*
G01*
G37*
%TD*%
%TO.C,C19*%
G36*
G01*
X192000000Y-72955000D02*
X192000000Y-72645000D01*
G75*
G02*
X192155000Y-72490000I155000J0D01*
G01*
X192580000Y-72490000D01*
G75*
G02*
X192735000Y-72645000I0J-155000D01*
G01*
X192735000Y-72955000D01*
G75*
G02*
X192580000Y-73110000I-155000J0D01*
G01*
X192155000Y-73110000D01*
G75*
G02*
X192000000Y-72955000I0J155000D01*
G01*
G37*
G36*
G01*
X190865000Y-72955000D02*
X190865000Y-72645000D01*
G75*
G02*
X191020000Y-72490000I155000J0D01*
G01*
X191445000Y-72490000D01*
G75*
G02*
X191600000Y-72645000I0J-155000D01*
G01*
X191600000Y-72955000D01*
G75*
G02*
X191445000Y-73110000I-155000J0D01*
G01*
X191020000Y-73110000D01*
G75*
G02*
X190865000Y-72955000I0J155000D01*
G01*
G37*
%TD*%
%TO.C,C20*%
G36*
G01*
X215805000Y-79735000D02*
X215495000Y-79735000D01*
G75*
G02*
X215340000Y-79580000I0J155000D01*
G01*
X215340000Y-79155000D01*
G75*
G02*
X215495000Y-79000000I155000J0D01*
G01*
X215805000Y-79000000D01*
G75*
G02*
X215960000Y-79155000I0J-155000D01*
G01*
X215960000Y-79580000D01*
G75*
G02*
X215805000Y-79735000I-155000J0D01*
G01*
G37*
G36*
G01*
X215805000Y-78600000D02*
X215495000Y-78600000D01*
G75*
G02*
X215340000Y-78445000I0J155000D01*
G01*
X215340000Y-78020000D01*
G75*
G02*
X215495000Y-77865000I155000J0D01*
G01*
X215805000Y-77865000D01*
G75*
G02*
X215960000Y-78020000I0J-155000D01*
G01*
X215960000Y-78445000D01*
G75*
G02*
X215805000Y-78600000I-155000J0D01*
G01*
G37*
%TD*%
%TO.C,C21*%
G36*
G01*
X215545000Y-75885000D02*
X215235000Y-75885000D01*
G75*
G02*
X215080000Y-75730000I0J155000D01*
G01*
X215080000Y-75305000D01*
G75*
G02*
X215235000Y-75150000I155000J0D01*
G01*
X215545000Y-75150000D01*
G75*
G02*
X215700000Y-75305000I0J-155000D01*
G01*
X215700000Y-75730000D01*
G75*
G02*
X215545000Y-75885000I-155000J0D01*
G01*
G37*
G36*
G01*
X215545000Y-74750000D02*
X215235000Y-74750000D01*
G75*
G02*
X215080000Y-74595000I0J155000D01*
G01*
X215080000Y-74170000D01*
G75*
G02*
X215235000Y-74015000I155000J0D01*
G01*
X215545000Y-74015000D01*
G75*
G02*
X215700000Y-74170000I0J-155000D01*
G01*
X215700000Y-74595000D01*
G75*
G02*
X215545000Y-74750000I-155000J0D01*
G01*
G37*
%TD*%
%TO.C,C22*%
G36*
G01*
X222105000Y-79100000D02*
X221795000Y-79100000D01*
G75*
G02*
X221640000Y-78945000I0J155000D01*
G01*
X221640000Y-78520000D01*
G75*
G02*
X221795000Y-78365000I155000J0D01*
G01*
X222105000Y-78365000D01*
G75*
G02*
X222260000Y-78520000I0J-155000D01*
G01*
X222260000Y-78945000D01*
G75*
G02*
X222105000Y-79100000I-155000J0D01*
G01*
G37*
G36*
G01*
X222105000Y-80235000D02*
X221795000Y-80235000D01*
G75*
G02*
X221640000Y-80080000I0J155000D01*
G01*
X221640000Y-79655000D01*
G75*
G02*
X221795000Y-79500000I155000J0D01*
G01*
X222105000Y-79500000D01*
G75*
G02*
X222260000Y-79655000I0J-155000D01*
G01*
X222260000Y-80080000D01*
G75*
G02*
X222105000Y-80235000I-155000J0D01*
G01*
G37*
%TD*%
%TO.C,C23*%
G36*
G01*
X216100000Y-76705000D02*
X216100000Y-76395000D01*
G75*
G02*
X216255000Y-76240000I155000J0D01*
G01*
X216680000Y-76240000D01*
G75*
G02*
X216835000Y-76395000I0J-155000D01*
G01*
X216835000Y-76705000D01*
G75*
G02*
X216680000Y-76860000I-155000J0D01*
G01*
X216255000Y-76860000D01*
G75*
G02*
X216100000Y-76705000I0J155000D01*
G01*
G37*
G36*
G01*
X214965000Y-76705000D02*
X214965000Y-76395000D01*
G75*
G02*
X215120000Y-76240000I155000J0D01*
G01*
X215545000Y-76240000D01*
G75*
G02*
X215700000Y-76395000I0J-155000D01*
G01*
X215700000Y-76705000D01*
G75*
G02*
X215545000Y-76860000I-155000J0D01*
G01*
X215120000Y-76860000D01*
G75*
G02*
X214965000Y-76705000I0J155000D01*
G01*
G37*
%TD*%
%TO.C,C24*%
G36*
G01*
X217165000Y-76705000D02*
X217165000Y-76395000D01*
G75*
G02*
X217320000Y-76240000I155000J0D01*
G01*
X217745000Y-76240000D01*
G75*
G02*
X217900000Y-76395000I0J-155000D01*
G01*
X217900000Y-76705000D01*
G75*
G02*
X217745000Y-76860000I-155000J0D01*
G01*
X217320000Y-76860000D01*
G75*
G02*
X217165000Y-76705000I0J155000D01*
G01*
G37*
G36*
G01*
X218300000Y-76705000D02*
X218300000Y-76395000D01*
G75*
G02*
X218455000Y-76240000I155000J0D01*
G01*
X218880000Y-76240000D01*
G75*
G02*
X219035000Y-76395000I0J-155000D01*
G01*
X219035000Y-76705000D01*
G75*
G02*
X218880000Y-76860000I-155000J0D01*
G01*
X218455000Y-76860000D01*
G75*
G02*
X218300000Y-76705000I0J155000D01*
G01*
G37*
%TD*%
%TO.C,C25*%
G36*
G01*
X221235000Y-76395000D02*
X221235000Y-76705000D01*
G75*
G02*
X221080000Y-76860000I-155000J0D01*
G01*
X220655000Y-76860000D01*
G75*
G02*
X220500000Y-76705000I0J155000D01*
G01*
X220500000Y-76395000D01*
G75*
G02*
X220655000Y-76240000I155000J0D01*
G01*
X221080000Y-76240000D01*
G75*
G02*
X221235000Y-76395000I0J-155000D01*
G01*
G37*
G36*
G01*
X220100000Y-76395000D02*
X220100000Y-76705000D01*
G75*
G02*
X219945000Y-76860000I-155000J0D01*
G01*
X219520000Y-76860000D01*
G75*
G02*
X219365000Y-76705000I0J155000D01*
G01*
X219365000Y-76395000D01*
G75*
G02*
X219520000Y-76240000I155000J0D01*
G01*
X219945000Y-76240000D01*
G75*
G02*
X220100000Y-76395000I0J-155000D01*
G01*
G37*
%TD*%
%TO.C,C26*%
G36*
G01*
X221795000Y-80565000D02*
X222105000Y-80565000D01*
G75*
G02*
X222260000Y-80720000I0J-155000D01*
G01*
X222260000Y-81145000D01*
G75*
G02*
X222105000Y-81300000I-155000J0D01*
G01*
X221795000Y-81300000D01*
G75*
G02*
X221640000Y-81145000I0J155000D01*
G01*
X221640000Y-80720000D01*
G75*
G02*
X221795000Y-80565000I155000J0D01*
G01*
G37*
G36*
G01*
X221795000Y-81700000D02*
X222105000Y-81700000D01*
G75*
G02*
X222260000Y-81855000I0J-155000D01*
G01*
X222260000Y-82280000D01*
G75*
G02*
X222105000Y-82435000I-155000J0D01*
G01*
X221795000Y-82435000D01*
G75*
G02*
X221640000Y-82280000I0J155000D01*
G01*
X221640000Y-81855000D01*
G75*
G02*
X221795000Y-81700000I155000J0D01*
G01*
G37*
%TD*%
%TO.C,C1*%
G36*
G01*
X194435000Y-46845000D02*
X194435000Y-47155000D01*
G75*
G02*
X194280000Y-47310000I-155000J0D01*
G01*
X193855000Y-47310000D01*
G75*
G02*
X193700000Y-47155000I0J155000D01*
G01*
X193700000Y-46845000D01*
G75*
G02*
X193855000Y-46690000I155000J0D01*
G01*
X194280000Y-46690000D01*
G75*
G02*
X194435000Y-46845000I0J-155000D01*
G01*
G37*
G36*
G01*
X193300000Y-46845000D02*
X193300000Y-47155000D01*
G75*
G02*
X193145000Y-47310000I-155000J0D01*
G01*
X192720000Y-47310000D01*
G75*
G02*
X192565000Y-47155000I0J155000D01*
G01*
X192565000Y-46845000D01*
G75*
G02*
X192720000Y-46690000I155000J0D01*
G01*
X193145000Y-46690000D01*
G75*
G02*
X193300000Y-46845000I0J-155000D01*
G01*
G37*
%TD*%
%TO.C,C2*%
G36*
G01*
X191555000Y-54300000D02*
X191245000Y-54300000D01*
G75*
G02*
X191090000Y-54145000I0J155000D01*
G01*
X191090000Y-53720000D01*
G75*
G02*
X191245000Y-53565000I155000J0D01*
G01*
X191555000Y-53565000D01*
G75*
G02*
X191710000Y-53720000I0J-155000D01*
G01*
X191710000Y-54145000D01*
G75*
G02*
X191555000Y-54300000I-155000J0D01*
G01*
G37*
G36*
G01*
X191555000Y-55435000D02*
X191245000Y-55435000D01*
G75*
G02*
X191090000Y-55280000I0J155000D01*
G01*
X191090000Y-54855000D01*
G75*
G02*
X191245000Y-54700000I155000J0D01*
G01*
X191555000Y-54700000D01*
G75*
G02*
X191710000Y-54855000I0J-155000D01*
G01*
X191710000Y-55280000D01*
G75*
G02*
X191555000Y-55435000I-155000J0D01*
G01*
G37*
%TD*%
%TO.C,C3*%
G36*
G01*
X217165000Y-51505000D02*
X217165000Y-51195000D01*
G75*
G02*
X217320000Y-51040000I155000J0D01*
G01*
X217745000Y-51040000D01*
G75*
G02*
X217900000Y-51195000I0J-155000D01*
G01*
X217900000Y-51505000D01*
G75*
G02*
X217745000Y-51660000I-155000J0D01*
G01*
X217320000Y-51660000D01*
G75*
G02*
X217165000Y-51505000I0J155000D01*
G01*
G37*
G36*
G01*
X218300000Y-51505000D02*
X218300000Y-51195000D01*
G75*
G02*
X218455000Y-51040000I155000J0D01*
G01*
X218880000Y-51040000D01*
G75*
G02*
X219035000Y-51195000I0J-155000D01*
G01*
X219035000Y-51505000D01*
G75*
G02*
X218880000Y-51660000I-155000J0D01*
G01*
X218455000Y-51660000D01*
G75*
G02*
X218300000Y-51505000I0J155000D01*
G01*
G37*
%TD*%
%TO.C,C4*%
G36*
G01*
X204650000Y-54950000D02*
X204650000Y-53850000D01*
G75*
G02*
X204900000Y-53600000I250000J0D01*
G01*
X207900000Y-53600000D01*
G75*
G02*
X208150000Y-53850000I0J-250000D01*
G01*
X208150000Y-54950000D01*
G75*
G02*
X207900000Y-55200000I-250000J0D01*
G01*
X204900000Y-55200000D01*
G75*
G02*
X204650000Y-54950000I0J250000D01*
G01*
G37*
G36*
G01*
X210250000Y-54950000D02*
X210250000Y-53850000D01*
G75*
G02*
X210500000Y-53600000I250000J0D01*
G01*
X213500000Y-53600000D01*
G75*
G02*
X213750000Y-53850000I0J-250000D01*
G01*
X213750000Y-54950000D01*
G75*
G02*
X213500000Y-55200000I-250000J0D01*
G01*
X210500000Y-55200000D01*
G75*
G02*
X210250000Y-54950000I0J250000D01*
G01*
G37*
%TD*%
%TO.C,C5*%
G36*
G01*
X221955000Y-55400000D02*
X221645000Y-55400000D01*
G75*
G02*
X221490000Y-55245000I0J155000D01*
G01*
X221490000Y-54820000D01*
G75*
G02*
X221645000Y-54665000I155000J0D01*
G01*
X221955000Y-54665000D01*
G75*
G02*
X222110000Y-54820000I0J-155000D01*
G01*
X222110000Y-55245000D01*
G75*
G02*
X221955000Y-55400000I-155000J0D01*
G01*
G37*
G36*
G01*
X221955000Y-56535000D02*
X221645000Y-56535000D01*
G75*
G02*
X221490000Y-56380000I0J155000D01*
G01*
X221490000Y-55955000D01*
G75*
G02*
X221645000Y-55800000I155000J0D01*
G01*
X221955000Y-55800000D01*
G75*
G02*
X222110000Y-55955000I0J-155000D01*
G01*
X222110000Y-56380000D01*
G75*
G02*
X221955000Y-56535000I-155000J0D01*
G01*
G37*
%TD*%
%TO.C,D2*%
G36*
G01*
X198360000Y-63205000D02*
X198040000Y-63205000D01*
G75*
G02*
X197880000Y-63045000I0J160000D01*
G01*
X197880000Y-62600000D01*
G75*
G02*
X198040000Y-62440000I160000J0D01*
G01*
X198360000Y-62440000D01*
G75*
G02*
X198520000Y-62600000I0J-160000D01*
G01*
X198520000Y-63045000D01*
G75*
G02*
X198360000Y-63205000I-160000J0D01*
G01*
G37*
G36*
G01*
X198360000Y-62060000D02*
X198040000Y-62060000D01*
G75*
G02*
X197880000Y-61900000I0J160000D01*
G01*
X197880000Y-61455000D01*
G75*
G02*
X198040000Y-61295000I160000J0D01*
G01*
X198360000Y-61295000D01*
G75*
G02*
X198520000Y-61455000I0J-160000D01*
G01*
X198520000Y-61900000D01*
G75*
G02*
X198360000Y-62060000I-160000J0D01*
G01*
G37*
%TD*%
%TO.C,D3*%
G36*
G01*
X196760000Y-62060000D02*
X196440000Y-62060000D01*
G75*
G02*
X196280000Y-61900000I0J160000D01*
G01*
X196280000Y-61455000D01*
G75*
G02*
X196440000Y-61295000I160000J0D01*
G01*
X196760000Y-61295000D01*
G75*
G02*
X196920000Y-61455000I0J-160000D01*
G01*
X196920000Y-61900000D01*
G75*
G02*
X196760000Y-62060000I-160000J0D01*
G01*
G37*
G36*
G01*
X196760000Y-63205000D02*
X196440000Y-63205000D01*
G75*
G02*
X196280000Y-63045000I0J160000D01*
G01*
X196280000Y-62600000D01*
G75*
G02*
X196440000Y-62440000I160000J0D01*
G01*
X196760000Y-62440000D01*
G75*
G02*
X196920000Y-62600000I0J-160000D01*
G01*
X196920000Y-63045000D01*
G75*
G02*
X196760000Y-63205000I-160000J0D01*
G01*
G37*
%TD*%
%TO.C,D4*%
G36*
G01*
X195160000Y-63205000D02*
X194840000Y-63205000D01*
G75*
G02*
X194680000Y-63045000I0J160000D01*
G01*
X194680000Y-62600000D01*
G75*
G02*
X194840000Y-62440000I160000J0D01*
G01*
X195160000Y-62440000D01*
G75*
G02*
X195320000Y-62600000I0J-160000D01*
G01*
X195320000Y-63045000D01*
G75*
G02*
X195160000Y-63205000I-160000J0D01*
G01*
G37*
G36*
G01*
X195160000Y-62060000D02*
X194840000Y-62060000D01*
G75*
G02*
X194680000Y-61900000I0J160000D01*
G01*
X194680000Y-61455000D01*
G75*
G02*
X194840000Y-61295000I160000J0D01*
G01*
X195160000Y-61295000D01*
G75*
G02*
X195320000Y-61455000I0J-160000D01*
G01*
X195320000Y-61900000D01*
G75*
G02*
X195160000Y-62060000I-160000J0D01*
G01*
G37*
%TD*%
D23*
%TO.C,D1*%
X200950000Y-57250000D03*
X200950000Y-50450000D03*
%TD*%
D13*
%TO.C,JP1*%
G36*
X209650000Y-60199398D02*
G01*
X209625466Y-60199398D01*
X209576635Y-60194588D01*
X209528510Y-60185016D01*
X209481555Y-60170772D01*
X209436222Y-60151995D01*
X209392949Y-60128864D01*
X209352150Y-60101604D01*
X209314221Y-60070476D01*
X209279524Y-60035779D01*
X209248396Y-59997850D01*
X209221136Y-59957051D01*
X209198005Y-59913778D01*
X209179228Y-59868445D01*
X209164984Y-59821490D01*
X209155412Y-59773365D01*
X209150602Y-59724534D01*
X209150602Y-59700000D01*
X209150000Y-59700000D01*
X209150000Y-59200000D01*
X209150602Y-59200000D01*
X209150602Y-59175466D01*
X209155412Y-59126635D01*
X209164984Y-59078510D01*
X209179228Y-59031555D01*
X209198005Y-58986222D01*
X209221136Y-58942949D01*
X209248396Y-58902150D01*
X209279524Y-58864221D01*
X209314221Y-58829524D01*
X209352150Y-58798396D01*
X209392949Y-58771136D01*
X209436222Y-58748005D01*
X209481555Y-58729228D01*
X209528510Y-58714984D01*
X209576635Y-58705412D01*
X209625466Y-58700602D01*
X209650000Y-58700602D01*
X209650000Y-58700000D01*
X210200000Y-58700000D01*
X210200000Y-60200000D01*
X209650000Y-60200000D01*
X209650000Y-60199398D01*
G37*
D24*
X210950000Y-59450000D03*
D13*
G36*
X211700000Y-58700000D02*
G01*
X212250000Y-58700000D01*
X212250000Y-58700602D01*
X212274534Y-58700602D01*
X212323365Y-58705412D01*
X212371490Y-58714984D01*
X212418445Y-58729228D01*
X212463778Y-58748005D01*
X212507051Y-58771136D01*
X212547850Y-58798396D01*
X212585779Y-58829524D01*
X212620476Y-58864221D01*
X212651604Y-58902150D01*
X212678864Y-58942949D01*
X212701995Y-58986222D01*
X212720772Y-59031555D01*
X212735016Y-59078510D01*
X212744588Y-59126635D01*
X212749398Y-59175466D01*
X212749398Y-59200000D01*
X212750000Y-59200000D01*
X212750000Y-59700000D01*
X212749398Y-59700000D01*
X212749398Y-59724534D01*
X212744588Y-59773365D01*
X212735016Y-59821490D01*
X212720772Y-59868445D01*
X212701995Y-59913778D01*
X212678864Y-59957051D01*
X212651604Y-59997850D01*
X212620476Y-60035779D01*
X212585779Y-60070476D01*
X212547850Y-60101604D01*
X212507051Y-60128864D01*
X212463778Y-60151995D01*
X212418445Y-60170772D01*
X212371490Y-60185016D01*
X212323365Y-60194588D01*
X212274534Y-60199398D01*
X212250000Y-60199398D01*
X212250000Y-60200000D01*
X211700000Y-60200000D01*
X211700000Y-58700000D01*
G37*
%TD*%
%TO.C,L1*%
G36*
G01*
X204777500Y-55970000D02*
X205122500Y-55970000D01*
G75*
G02*
X205270000Y-56117500I0J-147500D01*
G01*
X205270000Y-56412500D01*
G75*
G02*
X205122500Y-56560000I-147500J0D01*
G01*
X204777500Y-56560000D01*
G75*
G02*
X204630000Y-56412500I0J147500D01*
G01*
X204630000Y-56117500D01*
G75*
G02*
X204777500Y-55970000I147500J0D01*
G01*
G37*
G36*
G01*
X204777500Y-56940000D02*
X205122500Y-56940000D01*
G75*
G02*
X205270000Y-57087500I0J-147500D01*
G01*
X205270000Y-57382500D01*
G75*
G02*
X205122500Y-57530000I-147500J0D01*
G01*
X204777500Y-57530000D01*
G75*
G02*
X204630000Y-57382500I0J147500D01*
G01*
X204630000Y-57087500D01*
G75*
G02*
X204777500Y-56940000I147500J0D01*
G01*
G37*
%TD*%
%TO.C,P3*%
G36*
G01*
X201800000Y-44650000D02*
X201800000Y-47150000D01*
G75*
G02*
X201050000Y-47900000I-750000J0D01*
G01*
X199550000Y-47900000D01*
G75*
G02*
X198800000Y-47150000I0J750000D01*
G01*
X198800000Y-44650000D01*
G75*
G02*
X199550000Y-43900000I750000J0D01*
G01*
X201050000Y-43900000D01*
G75*
G02*
X201800000Y-44650000I0J-750000D01*
G01*
G37*
%TD*%
%TO.C,P4*%
G36*
G01*
X203100000Y-47150000D02*
X203100000Y-44650000D01*
G75*
G02*
X203850000Y-43900000I750000J0D01*
G01*
X205350000Y-43900000D01*
G75*
G02*
X206100000Y-44650000I0J-750000D01*
G01*
X206100000Y-47150000D01*
G75*
G02*
X205350000Y-47900000I-750000J0D01*
G01*
X203850000Y-47900000D01*
G75*
G02*
X203100000Y-47150000I0J750000D01*
G01*
G37*
%TD*%
%TO.C,P1*%
G36*
G01*
X210900000Y-47150000D02*
X210900000Y-44650000D01*
G75*
G02*
X211650000Y-43900000I750000J0D01*
G01*
X213150000Y-43900000D01*
G75*
G02*
X213900000Y-44650000I0J-750000D01*
G01*
X213900000Y-47150000D01*
G75*
G02*
X213150000Y-47900000I-750000J0D01*
G01*
X211650000Y-47900000D01*
G75*
G02*
X210900000Y-47150000I0J750000D01*
G01*
G37*
%TD*%
%TO.C,P2*%
G36*
G01*
X207050000Y-47150000D02*
X207050000Y-44650000D01*
G75*
G02*
X207800000Y-43900000I750000J0D01*
G01*
X209300000Y-43900000D01*
G75*
G02*
X210050000Y-44650000I0J-750000D01*
G01*
X210050000Y-47150000D01*
G75*
G02*
X209300000Y-47900000I-750000J0D01*
G01*
X207800000Y-47900000D01*
G75*
G02*
X207050000Y-47150000I0J750000D01*
G01*
G37*
%TD*%
%TO.C,P5*%
G36*
G01*
X214700000Y-47150000D02*
X214700000Y-44650000D01*
G75*
G02*
X215450000Y-43900000I750000J0D01*
G01*
X216950000Y-43900000D01*
G75*
G02*
X217700000Y-44650000I0J-750000D01*
G01*
X217700000Y-47150000D01*
G75*
G02*
X216950000Y-47900000I-750000J0D01*
G01*
X215450000Y-47900000D01*
G75*
G02*
X214700000Y-47150000I0J750000D01*
G01*
G37*
%TD*%
%TO.C,P6*%
G36*
G01*
X218600000Y-47150000D02*
X218600000Y-44650000D01*
G75*
G02*
X219350000Y-43900000I750000J0D01*
G01*
X220850000Y-43900000D01*
G75*
G02*
X221600000Y-44650000I0J-750000D01*
G01*
X221600000Y-47150000D01*
G75*
G02*
X220850000Y-47900000I-750000J0D01*
G01*
X219350000Y-47900000D01*
G75*
G02*
X218600000Y-47150000I0J750000D01*
G01*
G37*
%TD*%
%TO.C,R3*%
G36*
G01*
X201800000Y-67740000D02*
X201800000Y-67420000D01*
G75*
G02*
X201960000Y-67260000I160000J0D01*
G01*
X202355000Y-67260000D01*
G75*
G02*
X202515000Y-67420000I0J-160000D01*
G01*
X202515000Y-67740000D01*
G75*
G02*
X202355000Y-67900000I-160000J0D01*
G01*
X201960000Y-67900000D01*
G75*
G02*
X201800000Y-67740000I0J160000D01*
G01*
G37*
G36*
G01*
X200605000Y-67740000D02*
X200605000Y-67420000D01*
G75*
G02*
X200765000Y-67260000I160000J0D01*
G01*
X201160000Y-67260000D01*
G75*
G02*
X201320000Y-67420000I0J-160000D01*
G01*
X201320000Y-67740000D01*
G75*
G02*
X201160000Y-67900000I-160000J0D01*
G01*
X200765000Y-67900000D01*
G75*
G02*
X200605000Y-67740000I0J160000D01*
G01*
G37*
%TD*%
%TO.C,R4*%
G36*
G01*
X200605000Y-66710000D02*
X200605000Y-66390000D01*
G75*
G02*
X200765000Y-66230000I160000J0D01*
G01*
X201160000Y-66230000D01*
G75*
G02*
X201320000Y-66390000I0J-160000D01*
G01*
X201320000Y-66710000D01*
G75*
G02*
X201160000Y-66870000I-160000J0D01*
G01*
X200765000Y-66870000D01*
G75*
G02*
X200605000Y-66710000I0J160000D01*
G01*
G37*
G36*
G01*
X201800000Y-66710000D02*
X201800000Y-66390000D01*
G75*
G02*
X201960000Y-66230000I160000J0D01*
G01*
X202355000Y-66230000D01*
G75*
G02*
X202515000Y-66390000I0J-160000D01*
G01*
X202515000Y-66710000D01*
G75*
G02*
X202355000Y-66870000I-160000J0D01*
G01*
X201960000Y-66870000D01*
G75*
G02*
X201800000Y-66710000I0J160000D01*
G01*
G37*
%TD*%
%TO.C,R5*%
G36*
G01*
X221740000Y-72740000D02*
X222060000Y-72740000D01*
G75*
G02*
X222220000Y-72900000I0J-160000D01*
G01*
X222220000Y-73295000D01*
G75*
G02*
X222060000Y-73455000I-160000J0D01*
G01*
X221740000Y-73455000D01*
G75*
G02*
X221580000Y-73295000I0J160000D01*
G01*
X221580000Y-72900000D01*
G75*
G02*
X221740000Y-72740000I160000J0D01*
G01*
G37*
G36*
G01*
X221740000Y-71545000D02*
X222060000Y-71545000D01*
G75*
G02*
X222220000Y-71705000I0J-160000D01*
G01*
X222220000Y-72100000D01*
G75*
G02*
X222060000Y-72260000I-160000J0D01*
G01*
X221740000Y-72260000D01*
G75*
G02*
X221580000Y-72100000I0J160000D01*
G01*
X221580000Y-71705000D01*
G75*
G02*
X221740000Y-71545000I160000J0D01*
G01*
G37*
%TD*%
%TO.C,R6*%
G36*
G01*
X220855000Y-71390000D02*
X220855000Y-71710000D01*
G75*
G02*
X220695000Y-71870000I-160000J0D01*
G01*
X220300000Y-71870000D01*
G75*
G02*
X220140000Y-71710000I0J160000D01*
G01*
X220140000Y-71390000D01*
G75*
G02*
X220300000Y-71230000I160000J0D01*
G01*
X220695000Y-71230000D01*
G75*
G02*
X220855000Y-71390000I0J-160000D01*
G01*
G37*
G36*
G01*
X219660000Y-71390000D02*
X219660000Y-71710000D01*
G75*
G02*
X219500000Y-71870000I-160000J0D01*
G01*
X219105000Y-71870000D01*
G75*
G02*
X218945000Y-71710000I0J160000D01*
G01*
X218945000Y-71390000D01*
G75*
G02*
X219105000Y-71230000I160000J0D01*
G01*
X219500000Y-71230000D01*
G75*
G02*
X219660000Y-71390000I0J-160000D01*
G01*
G37*
%TD*%
%TO.C,R7*%
G36*
G01*
X190790000Y-82895000D02*
X191110000Y-82895000D01*
G75*
G02*
X191270000Y-83055000I0J-160000D01*
G01*
X191270000Y-83450000D01*
G75*
G02*
X191110000Y-83610000I-160000J0D01*
G01*
X190790000Y-83610000D01*
G75*
G02*
X190630000Y-83450000I0J160000D01*
G01*
X190630000Y-83055000D01*
G75*
G02*
X190790000Y-82895000I160000J0D01*
G01*
G37*
G36*
G01*
X190790000Y-84090000D02*
X191110000Y-84090000D01*
G75*
G02*
X191270000Y-84250000I0J-160000D01*
G01*
X191270000Y-84645000D01*
G75*
G02*
X191110000Y-84805000I-160000J0D01*
G01*
X190790000Y-84805000D01*
G75*
G02*
X190630000Y-84645000I0J160000D01*
G01*
X190630000Y-84250000D01*
G75*
G02*
X190790000Y-84090000I160000J0D01*
G01*
G37*
%TD*%
%TO.C,R8*%
G36*
G01*
X193410000Y-84160000D02*
X193090000Y-84160000D01*
G75*
G02*
X192930000Y-84000000I0J160000D01*
G01*
X192930000Y-83605000D01*
G75*
G02*
X193090000Y-83445000I160000J0D01*
G01*
X193410000Y-83445000D01*
G75*
G02*
X193570000Y-83605000I0J-160000D01*
G01*
X193570000Y-84000000D01*
G75*
G02*
X193410000Y-84160000I-160000J0D01*
G01*
G37*
G36*
G01*
X193410000Y-85355000D02*
X193090000Y-85355000D01*
G75*
G02*
X192930000Y-85195000I0J160000D01*
G01*
X192930000Y-84800000D01*
G75*
G02*
X193090000Y-84640000I160000J0D01*
G01*
X193410000Y-84640000D01*
G75*
G02*
X193570000Y-84800000I0J-160000D01*
G01*
X193570000Y-85195000D01*
G75*
G02*
X193410000Y-85355000I-160000J0D01*
G01*
G37*
%TD*%
%TO.C,R9*%
G36*
G01*
X214590000Y-67960000D02*
X214590000Y-67640000D01*
G75*
G02*
X214750000Y-67480000I160000J0D01*
G01*
X215145000Y-67480000D01*
G75*
G02*
X215305000Y-67640000I0J-160000D01*
G01*
X215305000Y-67960000D01*
G75*
G02*
X215145000Y-68120000I-160000J0D01*
G01*
X214750000Y-68120000D01*
G75*
G02*
X214590000Y-67960000I0J160000D01*
G01*
G37*
G36*
G01*
X213395000Y-67960000D02*
X213395000Y-67640000D01*
G75*
G02*
X213555000Y-67480000I160000J0D01*
G01*
X213950000Y-67480000D01*
G75*
G02*
X214110000Y-67640000I0J-160000D01*
G01*
X214110000Y-67960000D01*
G75*
G02*
X213950000Y-68120000I-160000J0D01*
G01*
X213555000Y-68120000D01*
G75*
G02*
X213395000Y-67960000I0J160000D01*
G01*
G37*
%TD*%
%TO.C,R10*%
G36*
G01*
X200945000Y-74660000D02*
X200945000Y-74340000D01*
G75*
G02*
X201105000Y-74180000I160000J0D01*
G01*
X201500000Y-74180000D01*
G75*
G02*
X201660000Y-74340000I0J-160000D01*
G01*
X201660000Y-74660000D01*
G75*
G02*
X201500000Y-74820000I-160000J0D01*
G01*
X201105000Y-74820000D01*
G75*
G02*
X200945000Y-74660000I0J160000D01*
G01*
G37*
G36*
G01*
X202140000Y-74660000D02*
X202140000Y-74340000D01*
G75*
G02*
X202300000Y-74180000I160000J0D01*
G01*
X202695000Y-74180000D01*
G75*
G02*
X202855000Y-74340000I0J-160000D01*
G01*
X202855000Y-74660000D01*
G75*
G02*
X202695000Y-74820000I-160000J0D01*
G01*
X202300000Y-74820000D01*
G75*
G02*
X202140000Y-74660000I0J160000D01*
G01*
G37*
%TD*%
%TO.C,R11*%
G36*
G01*
X202140000Y-76260000D02*
X202140000Y-75940000D01*
G75*
G02*
X202300000Y-75780000I160000J0D01*
G01*
X202695000Y-75780000D01*
G75*
G02*
X202855000Y-75940000I0J-160000D01*
G01*
X202855000Y-76260000D01*
G75*
G02*
X202695000Y-76420000I-160000J0D01*
G01*
X202300000Y-76420000D01*
G75*
G02*
X202140000Y-76260000I0J160000D01*
G01*
G37*
G36*
G01*
X200945000Y-76260000D02*
X200945000Y-75940000D01*
G75*
G02*
X201105000Y-75780000I160000J0D01*
G01*
X201500000Y-75780000D01*
G75*
G02*
X201660000Y-75940000I0J-160000D01*
G01*
X201660000Y-76260000D01*
G75*
G02*
X201500000Y-76420000I-160000J0D01*
G01*
X201105000Y-76420000D01*
G75*
G02*
X200945000Y-76260000I0J160000D01*
G01*
G37*
%TD*%
%TO.C,R12*%
G36*
G01*
X198040000Y-63695000D02*
X198360000Y-63695000D01*
G75*
G02*
X198520000Y-63855000I0J-160000D01*
G01*
X198520000Y-64250000D01*
G75*
G02*
X198360000Y-64410000I-160000J0D01*
G01*
X198040000Y-64410000D01*
G75*
G02*
X197880000Y-64250000I0J160000D01*
G01*
X197880000Y-63855000D01*
G75*
G02*
X198040000Y-63695000I160000J0D01*
G01*
G37*
G36*
G01*
X198040000Y-64890000D02*
X198360000Y-64890000D01*
G75*
G02*
X198520000Y-65050000I0J-160000D01*
G01*
X198520000Y-65445000D01*
G75*
G02*
X198360000Y-65605000I-160000J0D01*
G01*
X198040000Y-65605000D01*
G75*
G02*
X197880000Y-65445000I0J160000D01*
G01*
X197880000Y-65050000D01*
G75*
G02*
X198040000Y-64890000I160000J0D01*
G01*
G37*
%TD*%
%TO.C,R13*%
G36*
G01*
X196440000Y-64890000D02*
X196760000Y-64890000D01*
G75*
G02*
X196920000Y-65050000I0J-160000D01*
G01*
X196920000Y-65445000D01*
G75*
G02*
X196760000Y-65605000I-160000J0D01*
G01*
X196440000Y-65605000D01*
G75*
G02*
X196280000Y-65445000I0J160000D01*
G01*
X196280000Y-65050000D01*
G75*
G02*
X196440000Y-64890000I160000J0D01*
G01*
G37*
G36*
G01*
X196440000Y-63695000D02*
X196760000Y-63695000D01*
G75*
G02*
X196920000Y-63855000I0J-160000D01*
G01*
X196920000Y-64250000D01*
G75*
G02*
X196760000Y-64410000I-160000J0D01*
G01*
X196440000Y-64410000D01*
G75*
G02*
X196280000Y-64250000I0J160000D01*
G01*
X196280000Y-63855000D01*
G75*
G02*
X196440000Y-63695000I160000J0D01*
G01*
G37*
%TD*%
%TO.C,R14*%
G36*
G01*
X194840000Y-63695000D02*
X195160000Y-63695000D01*
G75*
G02*
X195320000Y-63855000I0J-160000D01*
G01*
X195320000Y-64250000D01*
G75*
G02*
X195160000Y-64410000I-160000J0D01*
G01*
X194840000Y-64410000D01*
G75*
G02*
X194680000Y-64250000I0J160000D01*
G01*
X194680000Y-63855000D01*
G75*
G02*
X194840000Y-63695000I160000J0D01*
G01*
G37*
G36*
G01*
X194840000Y-64890000D02*
X195160000Y-64890000D01*
G75*
G02*
X195320000Y-65050000I0J-160000D01*
G01*
X195320000Y-65445000D01*
G75*
G02*
X195160000Y-65605000I-160000J0D01*
G01*
X194840000Y-65605000D01*
G75*
G02*
X194680000Y-65445000I0J160000D01*
G01*
X194680000Y-65050000D01*
G75*
G02*
X194840000Y-64890000I160000J0D01*
G01*
G37*
%TD*%
%TO.C,R1*%
G36*
G01*
X196160000Y-56490000D02*
X196160000Y-56810000D01*
G75*
G02*
X196000000Y-56970000I-160000J0D01*
G01*
X195605000Y-56970000D01*
G75*
G02*
X195445000Y-56810000I0J160000D01*
G01*
X195445000Y-56490000D01*
G75*
G02*
X195605000Y-56330000I160000J0D01*
G01*
X196000000Y-56330000D01*
G75*
G02*
X196160000Y-56490000I0J-160000D01*
G01*
G37*
G36*
G01*
X197355000Y-56490000D02*
X197355000Y-56810000D01*
G75*
G02*
X197195000Y-56970000I-160000J0D01*
G01*
X196800000Y-56970000D01*
G75*
G02*
X196640000Y-56810000I0J160000D01*
G01*
X196640000Y-56490000D01*
G75*
G02*
X196800000Y-56330000I160000J0D01*
G01*
X197195000Y-56330000D01*
G75*
G02*
X197355000Y-56490000I0J-160000D01*
G01*
G37*
%TD*%
%TO.C,R2*%
G36*
G01*
X205160000Y-51505000D02*
X204840000Y-51505000D01*
G75*
G02*
X204680000Y-51345000I0J160000D01*
G01*
X204680000Y-50950000D01*
G75*
G02*
X204840000Y-50790000I160000J0D01*
G01*
X205160000Y-50790000D01*
G75*
G02*
X205320000Y-50950000I0J-160000D01*
G01*
X205320000Y-51345000D01*
G75*
G02*
X205160000Y-51505000I-160000J0D01*
G01*
G37*
G36*
G01*
X205160000Y-50310000D02*
X204840000Y-50310000D01*
G75*
G02*
X204680000Y-50150000I0J160000D01*
G01*
X204680000Y-49755000D01*
G75*
G02*
X204840000Y-49595000I160000J0D01*
G01*
X205160000Y-49595000D01*
G75*
G02*
X205320000Y-49755000I0J-160000D01*
G01*
X205320000Y-50150000D01*
G75*
G02*
X205160000Y-50310000I-160000J0D01*
G01*
G37*
%TD*%
%TO.C,U3*%
G36*
G01*
X208406000Y-69600000D02*
X205494000Y-69600000D01*
G75*
G02*
X205350000Y-69456000I0J144000D01*
G01*
X205350000Y-66544000D01*
G75*
G02*
X205494000Y-66400000I144000J0D01*
G01*
X208406000Y-66400000D01*
G75*
G02*
X208550000Y-66544000I0J-144000D01*
G01*
X208550000Y-69456000D01*
G75*
G02*
X208406000Y-69600000I-144000J0D01*
G01*
G37*
G36*
G01*
X204400000Y-71875000D02*
X204300000Y-71875000D01*
G75*
G02*
X204250000Y-71825000I0J50000D01*
G01*
X204250000Y-71050000D01*
G75*
G02*
X204300000Y-71000000I50000J0D01*
G01*
X204400000Y-71000000D01*
G75*
G02*
X204450000Y-71050000I0J-50000D01*
G01*
X204450000Y-71825000D01*
G75*
G02*
X204400000Y-71875000I-50000J0D01*
G01*
G37*
G36*
G01*
X204800000Y-71875000D02*
X204700000Y-71875000D01*
G75*
G02*
X204650000Y-71825000I0J50000D01*
G01*
X204650000Y-71050000D01*
G75*
G02*
X204700000Y-71000000I50000J0D01*
G01*
X204800000Y-71000000D01*
G75*
G02*
X204850000Y-71050000I0J-50000D01*
G01*
X204850000Y-71825000D01*
G75*
G02*
X204800000Y-71875000I-50000J0D01*
G01*
G37*
G36*
G01*
X205200000Y-71875000D02*
X205100000Y-71875000D01*
G75*
G02*
X205050000Y-71825000I0J50000D01*
G01*
X205050000Y-71050000D01*
G75*
G02*
X205100000Y-71000000I50000J0D01*
G01*
X205200000Y-71000000D01*
G75*
G02*
X205250000Y-71050000I0J-50000D01*
G01*
X205250000Y-71825000D01*
G75*
G02*
X205200000Y-71875000I-50000J0D01*
G01*
G37*
G36*
G01*
X205600000Y-71875000D02*
X205500000Y-71875000D01*
G75*
G02*
X205450000Y-71825000I0J50000D01*
G01*
X205450000Y-71050000D01*
G75*
G02*
X205500000Y-71000000I50000J0D01*
G01*
X205600000Y-71000000D01*
G75*
G02*
X205650000Y-71050000I0J-50000D01*
G01*
X205650000Y-71825000D01*
G75*
G02*
X205600000Y-71875000I-50000J0D01*
G01*
G37*
G36*
G01*
X206000000Y-71875000D02*
X205900000Y-71875000D01*
G75*
G02*
X205850000Y-71825000I0J50000D01*
G01*
X205850000Y-71050000D01*
G75*
G02*
X205900000Y-71000000I50000J0D01*
G01*
X206000000Y-71000000D01*
G75*
G02*
X206050000Y-71050000I0J-50000D01*
G01*
X206050000Y-71825000D01*
G75*
G02*
X206000000Y-71875000I-50000J0D01*
G01*
G37*
G36*
G01*
X206400000Y-71875000D02*
X206300000Y-71875000D01*
G75*
G02*
X206250000Y-71825000I0J50000D01*
G01*
X206250000Y-71050000D01*
G75*
G02*
X206300000Y-71000000I50000J0D01*
G01*
X206400000Y-71000000D01*
G75*
G02*
X206450000Y-71050000I0J-50000D01*
G01*
X206450000Y-71825000D01*
G75*
G02*
X206400000Y-71875000I-50000J0D01*
G01*
G37*
G36*
G01*
X206800000Y-71875000D02*
X206700000Y-71875000D01*
G75*
G02*
X206650000Y-71825000I0J50000D01*
G01*
X206650000Y-71050000D01*
G75*
G02*
X206700000Y-71000000I50000J0D01*
G01*
X206800000Y-71000000D01*
G75*
G02*
X206850000Y-71050000I0J-50000D01*
G01*
X206850000Y-71825000D01*
G75*
G02*
X206800000Y-71875000I-50000J0D01*
G01*
G37*
G36*
G01*
X207200000Y-71875000D02*
X207100000Y-71875000D01*
G75*
G02*
X207050000Y-71825000I0J50000D01*
G01*
X207050000Y-71050000D01*
G75*
G02*
X207100000Y-71000000I50000J0D01*
G01*
X207200000Y-71000000D01*
G75*
G02*
X207250000Y-71050000I0J-50000D01*
G01*
X207250000Y-71825000D01*
G75*
G02*
X207200000Y-71875000I-50000J0D01*
G01*
G37*
G36*
G01*
X207600000Y-71875000D02*
X207500000Y-71875000D01*
G75*
G02*
X207450000Y-71825000I0J50000D01*
G01*
X207450000Y-71050000D01*
G75*
G02*
X207500000Y-71000000I50000J0D01*
G01*
X207600000Y-71000000D01*
G75*
G02*
X207650000Y-71050000I0J-50000D01*
G01*
X207650000Y-71825000D01*
G75*
G02*
X207600000Y-71875000I-50000J0D01*
G01*
G37*
G36*
G01*
X208000000Y-71875000D02*
X207900000Y-71875000D01*
G75*
G02*
X207850000Y-71825000I0J50000D01*
G01*
X207850000Y-71050000D01*
G75*
G02*
X207900000Y-71000000I50000J0D01*
G01*
X208000000Y-71000000D01*
G75*
G02*
X208050000Y-71050000I0J-50000D01*
G01*
X208050000Y-71825000D01*
G75*
G02*
X208000000Y-71875000I-50000J0D01*
G01*
G37*
G36*
G01*
X208400000Y-71875000D02*
X208300000Y-71875000D01*
G75*
G02*
X208250000Y-71825000I0J50000D01*
G01*
X208250000Y-71050000D01*
G75*
G02*
X208300000Y-71000000I50000J0D01*
G01*
X208400000Y-71000000D01*
G75*
G02*
X208450000Y-71050000I0J-50000D01*
G01*
X208450000Y-71825000D01*
G75*
G02*
X208400000Y-71875000I-50000J0D01*
G01*
G37*
G36*
G01*
X208800000Y-71875000D02*
X208700000Y-71875000D01*
G75*
G02*
X208650000Y-71825000I0J50000D01*
G01*
X208650000Y-71050000D01*
G75*
G02*
X208700000Y-71000000I50000J0D01*
G01*
X208800000Y-71000000D01*
G75*
G02*
X208850000Y-71050000I0J-50000D01*
G01*
X208850000Y-71825000D01*
G75*
G02*
X208800000Y-71875000I-50000J0D01*
G01*
G37*
G36*
G01*
X209200000Y-71875000D02*
X209100000Y-71875000D01*
G75*
G02*
X209050000Y-71825000I0J50000D01*
G01*
X209050000Y-71050000D01*
G75*
G02*
X209100000Y-71000000I50000J0D01*
G01*
X209200000Y-71000000D01*
G75*
G02*
X209250000Y-71050000I0J-50000D01*
G01*
X209250000Y-71825000D01*
G75*
G02*
X209200000Y-71875000I-50000J0D01*
G01*
G37*
G36*
G01*
X209600000Y-71875000D02*
X209500000Y-71875000D01*
G75*
G02*
X209450000Y-71825000I0J50000D01*
G01*
X209450000Y-71050000D01*
G75*
G02*
X209500000Y-71000000I50000J0D01*
G01*
X209600000Y-71000000D01*
G75*
G02*
X209650000Y-71050000I0J-50000D01*
G01*
X209650000Y-71825000D01*
G75*
G02*
X209600000Y-71875000I-50000J0D01*
G01*
G37*
G36*
G01*
X210775000Y-70700000D02*
X210000000Y-70700000D01*
G75*
G02*
X209950000Y-70650000I0J50000D01*
G01*
X209950000Y-70550000D01*
G75*
G02*
X210000000Y-70500000I50000J0D01*
G01*
X210775000Y-70500000D01*
G75*
G02*
X210825000Y-70550000I0J-50000D01*
G01*
X210825000Y-70650000D01*
G75*
G02*
X210775000Y-70700000I-50000J0D01*
G01*
G37*
G36*
G01*
X210775000Y-70300000D02*
X210000000Y-70300000D01*
G75*
G02*
X209950000Y-70250000I0J50000D01*
G01*
X209950000Y-70150000D01*
G75*
G02*
X210000000Y-70100000I50000J0D01*
G01*
X210775000Y-70100000D01*
G75*
G02*
X210825000Y-70150000I0J-50000D01*
G01*
X210825000Y-70250000D01*
G75*
G02*
X210775000Y-70300000I-50000J0D01*
G01*
G37*
G36*
G01*
X210775000Y-69900000D02*
X210000000Y-69900000D01*
G75*
G02*
X209950000Y-69850000I0J50000D01*
G01*
X209950000Y-69750000D01*
G75*
G02*
X210000000Y-69700000I50000J0D01*
G01*
X210775000Y-69700000D01*
G75*
G02*
X210825000Y-69750000I0J-50000D01*
G01*
X210825000Y-69850000D01*
G75*
G02*
X210775000Y-69900000I-50000J0D01*
G01*
G37*
G36*
G01*
X210775000Y-69500000D02*
X210000000Y-69500000D01*
G75*
G02*
X209950000Y-69450000I0J50000D01*
G01*
X209950000Y-69350000D01*
G75*
G02*
X210000000Y-69300000I50000J0D01*
G01*
X210775000Y-69300000D01*
G75*
G02*
X210825000Y-69350000I0J-50000D01*
G01*
X210825000Y-69450000D01*
G75*
G02*
X210775000Y-69500000I-50000J0D01*
G01*
G37*
G36*
G01*
X210775000Y-69100000D02*
X210000000Y-69100000D01*
G75*
G02*
X209950000Y-69050000I0J50000D01*
G01*
X209950000Y-68950000D01*
G75*
G02*
X210000000Y-68900000I50000J0D01*
G01*
X210775000Y-68900000D01*
G75*
G02*
X210825000Y-68950000I0J-50000D01*
G01*
X210825000Y-69050000D01*
G75*
G02*
X210775000Y-69100000I-50000J0D01*
G01*
G37*
G36*
G01*
X210775000Y-68700000D02*
X210000000Y-68700000D01*
G75*
G02*
X209950000Y-68650000I0J50000D01*
G01*
X209950000Y-68550000D01*
G75*
G02*
X210000000Y-68500000I50000J0D01*
G01*
X210775000Y-68500000D01*
G75*
G02*
X210825000Y-68550000I0J-50000D01*
G01*
X210825000Y-68650000D01*
G75*
G02*
X210775000Y-68700000I-50000J0D01*
G01*
G37*
G36*
G01*
X210775000Y-68300000D02*
X210000000Y-68300000D01*
G75*
G02*
X209950000Y-68250000I0J50000D01*
G01*
X209950000Y-68150000D01*
G75*
G02*
X210000000Y-68100000I50000J0D01*
G01*
X210775000Y-68100000D01*
G75*
G02*
X210825000Y-68150000I0J-50000D01*
G01*
X210825000Y-68250000D01*
G75*
G02*
X210775000Y-68300000I-50000J0D01*
G01*
G37*
G36*
G01*
X210775000Y-67900000D02*
X210000000Y-67900000D01*
G75*
G02*
X209950000Y-67850000I0J50000D01*
G01*
X209950000Y-67750000D01*
G75*
G02*
X210000000Y-67700000I50000J0D01*
G01*
X210775000Y-67700000D01*
G75*
G02*
X210825000Y-67750000I0J-50000D01*
G01*
X210825000Y-67850000D01*
G75*
G02*
X210775000Y-67900000I-50000J0D01*
G01*
G37*
G36*
G01*
X210775000Y-67500000D02*
X210000000Y-67500000D01*
G75*
G02*
X209950000Y-67450000I0J50000D01*
G01*
X209950000Y-67350000D01*
G75*
G02*
X210000000Y-67300000I50000J0D01*
G01*
X210775000Y-67300000D01*
G75*
G02*
X210825000Y-67350000I0J-50000D01*
G01*
X210825000Y-67450000D01*
G75*
G02*
X210775000Y-67500000I-50000J0D01*
G01*
G37*
G36*
G01*
X210775000Y-67100000D02*
X210000000Y-67100000D01*
G75*
G02*
X209950000Y-67050000I0J50000D01*
G01*
X209950000Y-66950000D01*
G75*
G02*
X210000000Y-66900000I50000J0D01*
G01*
X210775000Y-66900000D01*
G75*
G02*
X210825000Y-66950000I0J-50000D01*
G01*
X210825000Y-67050000D01*
G75*
G02*
X210775000Y-67100000I-50000J0D01*
G01*
G37*
G36*
G01*
X210775000Y-66700000D02*
X210000000Y-66700000D01*
G75*
G02*
X209950000Y-66650000I0J50000D01*
G01*
X209950000Y-66550000D01*
G75*
G02*
X210000000Y-66500000I50000J0D01*
G01*
X210775000Y-66500000D01*
G75*
G02*
X210825000Y-66550000I0J-50000D01*
G01*
X210825000Y-66650000D01*
G75*
G02*
X210775000Y-66700000I-50000J0D01*
G01*
G37*
G36*
G01*
X210775000Y-66300000D02*
X210000000Y-66300000D01*
G75*
G02*
X209950000Y-66250000I0J50000D01*
G01*
X209950000Y-66150000D01*
G75*
G02*
X210000000Y-66100000I50000J0D01*
G01*
X210775000Y-66100000D01*
G75*
G02*
X210825000Y-66150000I0J-50000D01*
G01*
X210825000Y-66250000D01*
G75*
G02*
X210775000Y-66300000I-50000J0D01*
G01*
G37*
G36*
G01*
X210775000Y-65900000D02*
X210000000Y-65900000D01*
G75*
G02*
X209950000Y-65850000I0J50000D01*
G01*
X209950000Y-65750000D01*
G75*
G02*
X210000000Y-65700000I50000J0D01*
G01*
X210775000Y-65700000D01*
G75*
G02*
X210825000Y-65750000I0J-50000D01*
G01*
X210825000Y-65850000D01*
G75*
G02*
X210775000Y-65900000I-50000J0D01*
G01*
G37*
G36*
G01*
X210775000Y-65500000D02*
X210000000Y-65500000D01*
G75*
G02*
X209950000Y-65450000I0J50000D01*
G01*
X209950000Y-65350000D01*
G75*
G02*
X210000000Y-65300000I50000J0D01*
G01*
X210775000Y-65300000D01*
G75*
G02*
X210825000Y-65350000I0J-50000D01*
G01*
X210825000Y-65450000D01*
G75*
G02*
X210775000Y-65500000I-50000J0D01*
G01*
G37*
G36*
G01*
X209600000Y-65000000D02*
X209500000Y-65000000D01*
G75*
G02*
X209450000Y-64950000I0J50000D01*
G01*
X209450000Y-64175000D01*
G75*
G02*
X209500000Y-64125000I50000J0D01*
G01*
X209600000Y-64125000D01*
G75*
G02*
X209650000Y-64175000I0J-50000D01*
G01*
X209650000Y-64950000D01*
G75*
G02*
X209600000Y-65000000I-50000J0D01*
G01*
G37*
G36*
G01*
X209200000Y-65000000D02*
X209100000Y-65000000D01*
G75*
G02*
X209050000Y-64950000I0J50000D01*
G01*
X209050000Y-64175000D01*
G75*
G02*
X209100000Y-64125000I50000J0D01*
G01*
X209200000Y-64125000D01*
G75*
G02*
X209250000Y-64175000I0J-50000D01*
G01*
X209250000Y-64950000D01*
G75*
G02*
X209200000Y-65000000I-50000J0D01*
G01*
G37*
G36*
G01*
X208800000Y-65000000D02*
X208700000Y-65000000D01*
G75*
G02*
X208650000Y-64950000I0J50000D01*
G01*
X208650000Y-64175000D01*
G75*
G02*
X208700000Y-64125000I50000J0D01*
G01*
X208800000Y-64125000D01*
G75*
G02*
X208850000Y-64175000I0J-50000D01*
G01*
X208850000Y-64950000D01*
G75*
G02*
X208800000Y-65000000I-50000J0D01*
G01*
G37*
G36*
G01*
X208400000Y-65000000D02*
X208300000Y-65000000D01*
G75*
G02*
X208250000Y-64950000I0J50000D01*
G01*
X208250000Y-64175000D01*
G75*
G02*
X208300000Y-64125000I50000J0D01*
G01*
X208400000Y-64125000D01*
G75*
G02*
X208450000Y-64175000I0J-50000D01*
G01*
X208450000Y-64950000D01*
G75*
G02*
X208400000Y-65000000I-50000J0D01*
G01*
G37*
G36*
G01*
X208000000Y-65000000D02*
X207900000Y-65000000D01*
G75*
G02*
X207850000Y-64950000I0J50000D01*
G01*
X207850000Y-64175000D01*
G75*
G02*
X207900000Y-64125000I50000J0D01*
G01*
X208000000Y-64125000D01*
G75*
G02*
X208050000Y-64175000I0J-50000D01*
G01*
X208050000Y-64950000D01*
G75*
G02*
X208000000Y-65000000I-50000J0D01*
G01*
G37*
G36*
G01*
X207600000Y-65000000D02*
X207500000Y-65000000D01*
G75*
G02*
X207450000Y-64950000I0J50000D01*
G01*
X207450000Y-64175000D01*
G75*
G02*
X207500000Y-64125000I50000J0D01*
G01*
X207600000Y-64125000D01*
G75*
G02*
X207650000Y-64175000I0J-50000D01*
G01*
X207650000Y-64950000D01*
G75*
G02*
X207600000Y-65000000I-50000J0D01*
G01*
G37*
G36*
G01*
X207200000Y-65000000D02*
X207100000Y-65000000D01*
G75*
G02*
X207050000Y-64950000I0J50000D01*
G01*
X207050000Y-64175000D01*
G75*
G02*
X207100000Y-64125000I50000J0D01*
G01*
X207200000Y-64125000D01*
G75*
G02*
X207250000Y-64175000I0J-50000D01*
G01*
X207250000Y-64950000D01*
G75*
G02*
X207200000Y-65000000I-50000J0D01*
G01*
G37*
G36*
G01*
X206800000Y-65000000D02*
X206700000Y-65000000D01*
G75*
G02*
X206650000Y-64950000I0J50000D01*
G01*
X206650000Y-64175000D01*
G75*
G02*
X206700000Y-64125000I50000J0D01*
G01*
X206800000Y-64125000D01*
G75*
G02*
X206850000Y-64175000I0J-50000D01*
G01*
X206850000Y-64950000D01*
G75*
G02*
X206800000Y-65000000I-50000J0D01*
G01*
G37*
G36*
G01*
X206400000Y-65000000D02*
X206300000Y-65000000D01*
G75*
G02*
X206250000Y-64950000I0J50000D01*
G01*
X206250000Y-64175000D01*
G75*
G02*
X206300000Y-64125000I50000J0D01*
G01*
X206400000Y-64125000D01*
G75*
G02*
X206450000Y-64175000I0J-50000D01*
G01*
X206450000Y-64950000D01*
G75*
G02*
X206400000Y-65000000I-50000J0D01*
G01*
G37*
G36*
G01*
X206000000Y-65000000D02*
X205900000Y-65000000D01*
G75*
G02*
X205850000Y-64950000I0J50000D01*
G01*
X205850000Y-64175000D01*
G75*
G02*
X205900000Y-64125000I50000J0D01*
G01*
X206000000Y-64125000D01*
G75*
G02*
X206050000Y-64175000I0J-50000D01*
G01*
X206050000Y-64950000D01*
G75*
G02*
X206000000Y-65000000I-50000J0D01*
G01*
G37*
G36*
G01*
X205600000Y-65000000D02*
X205500000Y-65000000D01*
G75*
G02*
X205450000Y-64950000I0J50000D01*
G01*
X205450000Y-64175000D01*
G75*
G02*
X205500000Y-64125000I50000J0D01*
G01*
X205600000Y-64125000D01*
G75*
G02*
X205650000Y-64175000I0J-50000D01*
G01*
X205650000Y-64950000D01*
G75*
G02*
X205600000Y-65000000I-50000J0D01*
G01*
G37*
G36*
G01*
X205200000Y-65000000D02*
X205100000Y-65000000D01*
G75*
G02*
X205050000Y-64950000I0J50000D01*
G01*
X205050000Y-64175000D01*
G75*
G02*
X205100000Y-64125000I50000J0D01*
G01*
X205200000Y-64125000D01*
G75*
G02*
X205250000Y-64175000I0J-50000D01*
G01*
X205250000Y-64950000D01*
G75*
G02*
X205200000Y-65000000I-50000J0D01*
G01*
G37*
G36*
G01*
X204800000Y-65000000D02*
X204700000Y-65000000D01*
G75*
G02*
X204650000Y-64950000I0J50000D01*
G01*
X204650000Y-64175000D01*
G75*
G02*
X204700000Y-64125000I50000J0D01*
G01*
X204800000Y-64125000D01*
G75*
G02*
X204850000Y-64175000I0J-50000D01*
G01*
X204850000Y-64950000D01*
G75*
G02*
X204800000Y-65000000I-50000J0D01*
G01*
G37*
G36*
G01*
X204400000Y-65000000D02*
X204300000Y-65000000D01*
G75*
G02*
X204250000Y-64950000I0J50000D01*
G01*
X204250000Y-64175000D01*
G75*
G02*
X204300000Y-64125000I50000J0D01*
G01*
X204400000Y-64125000D01*
G75*
G02*
X204450000Y-64175000I0J-50000D01*
G01*
X204450000Y-64950000D01*
G75*
G02*
X204400000Y-65000000I-50000J0D01*
G01*
G37*
G36*
G01*
X203900000Y-65500000D02*
X203125000Y-65500000D01*
G75*
G02*
X203075000Y-65450000I0J50000D01*
G01*
X203075000Y-65350000D01*
G75*
G02*
X203125000Y-65300000I50000J0D01*
G01*
X203900000Y-65300000D01*
G75*
G02*
X203950000Y-65350000I0J-50000D01*
G01*
X203950000Y-65450000D01*
G75*
G02*
X203900000Y-65500000I-50000J0D01*
G01*
G37*
G36*
G01*
X203900000Y-65900000D02*
X203125000Y-65900000D01*
G75*
G02*
X203075000Y-65850000I0J50000D01*
G01*
X203075000Y-65750000D01*
G75*
G02*
X203125000Y-65700000I50000J0D01*
G01*
X203900000Y-65700000D01*
G75*
G02*
X203950000Y-65750000I0J-50000D01*
G01*
X203950000Y-65850000D01*
G75*
G02*
X203900000Y-65900000I-50000J0D01*
G01*
G37*
G36*
G01*
X203900000Y-66300000D02*
X203125000Y-66300000D01*
G75*
G02*
X203075000Y-66250000I0J50000D01*
G01*
X203075000Y-66150000D01*
G75*
G02*
X203125000Y-66100000I50000J0D01*
G01*
X203900000Y-66100000D01*
G75*
G02*
X203950000Y-66150000I0J-50000D01*
G01*
X203950000Y-66250000D01*
G75*
G02*
X203900000Y-66300000I-50000J0D01*
G01*
G37*
G36*
G01*
X203900000Y-66700000D02*
X203125000Y-66700000D01*
G75*
G02*
X203075000Y-66650000I0J50000D01*
G01*
X203075000Y-66550000D01*
G75*
G02*
X203125000Y-66500000I50000J0D01*
G01*
X203900000Y-66500000D01*
G75*
G02*
X203950000Y-66550000I0J-50000D01*
G01*
X203950000Y-66650000D01*
G75*
G02*
X203900000Y-66700000I-50000J0D01*
G01*
G37*
G36*
G01*
X203900000Y-67100000D02*
X203125000Y-67100000D01*
G75*
G02*
X203075000Y-67050000I0J50000D01*
G01*
X203075000Y-66950000D01*
G75*
G02*
X203125000Y-66900000I50000J0D01*
G01*
X203900000Y-66900000D01*
G75*
G02*
X203950000Y-66950000I0J-50000D01*
G01*
X203950000Y-67050000D01*
G75*
G02*
X203900000Y-67100000I-50000J0D01*
G01*
G37*
G36*
G01*
X203900000Y-67500000D02*
X203125000Y-67500000D01*
G75*
G02*
X203075000Y-67450000I0J50000D01*
G01*
X203075000Y-67350000D01*
G75*
G02*
X203125000Y-67300000I50000J0D01*
G01*
X203900000Y-67300000D01*
G75*
G02*
X203950000Y-67350000I0J-50000D01*
G01*
X203950000Y-67450000D01*
G75*
G02*
X203900000Y-67500000I-50000J0D01*
G01*
G37*
G36*
G01*
X203900000Y-67900000D02*
X203125000Y-67900000D01*
G75*
G02*
X203075000Y-67850000I0J50000D01*
G01*
X203075000Y-67750000D01*
G75*
G02*
X203125000Y-67700000I50000J0D01*
G01*
X203900000Y-67700000D01*
G75*
G02*
X203950000Y-67750000I0J-50000D01*
G01*
X203950000Y-67850000D01*
G75*
G02*
X203900000Y-67900000I-50000J0D01*
G01*
G37*
G36*
G01*
X203900000Y-68300000D02*
X203125000Y-68300000D01*
G75*
G02*
X203075000Y-68250000I0J50000D01*
G01*
X203075000Y-68150000D01*
G75*
G02*
X203125000Y-68100000I50000J0D01*
G01*
X203900000Y-68100000D01*
G75*
G02*
X203950000Y-68150000I0J-50000D01*
G01*
X203950000Y-68250000D01*
G75*
G02*
X203900000Y-68300000I-50000J0D01*
G01*
G37*
G36*
G01*
X203900000Y-68700000D02*
X203125000Y-68700000D01*
G75*
G02*
X203075000Y-68650000I0J50000D01*
G01*
X203075000Y-68550000D01*
G75*
G02*
X203125000Y-68500000I50000J0D01*
G01*
X203900000Y-68500000D01*
G75*
G02*
X203950000Y-68550000I0J-50000D01*
G01*
X203950000Y-68650000D01*
G75*
G02*
X203900000Y-68700000I-50000J0D01*
G01*
G37*
G36*
G01*
X203900000Y-69100000D02*
X203125000Y-69100000D01*
G75*
G02*
X203075000Y-69050000I0J50000D01*
G01*
X203075000Y-68950000D01*
G75*
G02*
X203125000Y-68900000I50000J0D01*
G01*
X203900000Y-68900000D01*
G75*
G02*
X203950000Y-68950000I0J-50000D01*
G01*
X203950000Y-69050000D01*
G75*
G02*
X203900000Y-69100000I-50000J0D01*
G01*
G37*
G36*
G01*
X203900000Y-69500000D02*
X203125000Y-69500000D01*
G75*
G02*
X203075000Y-69450000I0J50000D01*
G01*
X203075000Y-69350000D01*
G75*
G02*
X203125000Y-69300000I50000J0D01*
G01*
X203900000Y-69300000D01*
G75*
G02*
X203950000Y-69350000I0J-50000D01*
G01*
X203950000Y-69450000D01*
G75*
G02*
X203900000Y-69500000I-50000J0D01*
G01*
G37*
G36*
G01*
X203900000Y-69900000D02*
X203125000Y-69900000D01*
G75*
G02*
X203075000Y-69850000I0J50000D01*
G01*
X203075000Y-69750000D01*
G75*
G02*
X203125000Y-69700000I50000J0D01*
G01*
X203900000Y-69700000D01*
G75*
G02*
X203950000Y-69750000I0J-50000D01*
G01*
X203950000Y-69850000D01*
G75*
G02*
X203900000Y-69900000I-50000J0D01*
G01*
G37*
G36*
G01*
X203900000Y-70300000D02*
X203125000Y-70300000D01*
G75*
G02*
X203075000Y-70250000I0J50000D01*
G01*
X203075000Y-70150000D01*
G75*
G02*
X203125000Y-70100000I50000J0D01*
G01*
X203900000Y-70100000D01*
G75*
G02*
X203950000Y-70150000I0J-50000D01*
G01*
X203950000Y-70250000D01*
G75*
G02*
X203900000Y-70300000I-50000J0D01*
G01*
G37*
G36*
G01*
X203900000Y-70700000D02*
X203125000Y-70700000D01*
G75*
G02*
X203075000Y-70650000I0J50000D01*
G01*
X203075000Y-70550000D01*
G75*
G02*
X203125000Y-70500000I50000J0D01*
G01*
X203900000Y-70500000D01*
G75*
G02*
X203950000Y-70550000I0J-50000D01*
G01*
X203950000Y-70650000D01*
G75*
G02*
X203900000Y-70700000I-50000J0D01*
G01*
G37*
%TD*%
%TO.C,U4*%
G36*
G01*
X191595000Y-82400000D02*
X191295000Y-82400000D01*
G75*
G02*
X191145000Y-82250000I0J150000D01*
G01*
X191145000Y-80950000D01*
G75*
G02*
X191295000Y-80800000I150000J0D01*
G01*
X191595000Y-80800000D01*
G75*
G02*
X191745000Y-80950000I0J-150000D01*
G01*
X191745000Y-82250000D01*
G75*
G02*
X191595000Y-82400000I-150000J0D01*
G01*
G37*
G36*
G01*
X192865000Y-82400000D02*
X192565000Y-82400000D01*
G75*
G02*
X192415000Y-82250000I0J150000D01*
G01*
X192415000Y-80950000D01*
G75*
G02*
X192565000Y-80800000I150000J0D01*
G01*
X192865000Y-80800000D01*
G75*
G02*
X193015000Y-80950000I0J-150000D01*
G01*
X193015000Y-82250000D01*
G75*
G02*
X192865000Y-82400000I-150000J0D01*
G01*
G37*
G36*
G01*
X194135000Y-82400000D02*
X193835000Y-82400000D01*
G75*
G02*
X193685000Y-82250000I0J150000D01*
G01*
X193685000Y-80950000D01*
G75*
G02*
X193835000Y-80800000I150000J0D01*
G01*
X194135000Y-80800000D01*
G75*
G02*
X194285000Y-80950000I0J-150000D01*
G01*
X194285000Y-82250000D01*
G75*
G02*
X194135000Y-82400000I-150000J0D01*
G01*
G37*
G36*
G01*
X195405000Y-82400000D02*
X195105000Y-82400000D01*
G75*
G02*
X194955000Y-82250000I0J150000D01*
G01*
X194955000Y-80950000D01*
G75*
G02*
X195105000Y-80800000I150000J0D01*
G01*
X195405000Y-80800000D01*
G75*
G02*
X195555000Y-80950000I0J-150000D01*
G01*
X195555000Y-82250000D01*
G75*
G02*
X195405000Y-82400000I-150000J0D01*
G01*
G37*
G36*
G01*
X195405000Y-75200000D02*
X195105000Y-75200000D01*
G75*
G02*
X194955000Y-75050000I0J150000D01*
G01*
X194955000Y-73750000D01*
G75*
G02*
X195105000Y-73600000I150000J0D01*
G01*
X195405000Y-73600000D01*
G75*
G02*
X195555000Y-73750000I0J-150000D01*
G01*
X195555000Y-75050000D01*
G75*
G02*
X195405000Y-75200000I-150000J0D01*
G01*
G37*
G36*
G01*
X194135000Y-75200000D02*
X193835000Y-75200000D01*
G75*
G02*
X193685000Y-75050000I0J150000D01*
G01*
X193685000Y-73750000D01*
G75*
G02*
X193835000Y-73600000I150000J0D01*
G01*
X194135000Y-73600000D01*
G75*
G02*
X194285000Y-73750000I0J-150000D01*
G01*
X194285000Y-75050000D01*
G75*
G02*
X194135000Y-75200000I-150000J0D01*
G01*
G37*
G36*
G01*
X192865000Y-75200000D02*
X192565000Y-75200000D01*
G75*
G02*
X192415000Y-75050000I0J150000D01*
G01*
X192415000Y-73750000D01*
G75*
G02*
X192565000Y-73600000I150000J0D01*
G01*
X192865000Y-73600000D01*
G75*
G02*
X193015000Y-73750000I0J-150000D01*
G01*
X193015000Y-75050000D01*
G75*
G02*
X192865000Y-75200000I-150000J0D01*
G01*
G37*
G36*
G01*
X191595000Y-75200000D02*
X191295000Y-75200000D01*
G75*
G02*
X191145000Y-75050000I0J150000D01*
G01*
X191145000Y-73750000D01*
G75*
G02*
X191295000Y-73600000I150000J0D01*
G01*
X191595000Y-73600000D01*
G75*
G02*
X191745000Y-73750000I0J-150000D01*
G01*
X191745000Y-75050000D01*
G75*
G02*
X191595000Y-75200000I-150000J0D01*
G01*
G37*
%TD*%
%TO.C,U5*%
G36*
G01*
X217625000Y-82525000D02*
X217475000Y-82525000D01*
G75*
G02*
X217400000Y-82450000I0J75000D01*
G01*
X217400000Y-81750000D01*
G75*
G02*
X217475000Y-81675000I75000J0D01*
G01*
X217625000Y-81675000D01*
G75*
G02*
X217700000Y-81750000I0J-75000D01*
G01*
X217700000Y-82450000D01*
G75*
G02*
X217625000Y-82525000I-75000J0D01*
G01*
G37*
G36*
G01*
X218125000Y-82525000D02*
X217975000Y-82525000D01*
G75*
G02*
X217900000Y-82450000I0J75000D01*
G01*
X217900000Y-81750000D01*
G75*
G02*
X217975000Y-81675000I75000J0D01*
G01*
X218125000Y-81675000D01*
G75*
G02*
X218200000Y-81750000I0J-75000D01*
G01*
X218200000Y-82450000D01*
G75*
G02*
X218125000Y-82525000I-75000J0D01*
G01*
G37*
G36*
G01*
X218625000Y-82525000D02*
X218475000Y-82525000D01*
G75*
G02*
X218400000Y-82450000I0J75000D01*
G01*
X218400000Y-81750000D01*
G75*
G02*
X218475000Y-81675000I75000J0D01*
G01*
X218625000Y-81675000D01*
G75*
G02*
X218700000Y-81750000I0J-75000D01*
G01*
X218700000Y-82450000D01*
G75*
G02*
X218625000Y-82525000I-75000J0D01*
G01*
G37*
G36*
G01*
X219125000Y-82525000D02*
X218975000Y-82525000D01*
G75*
G02*
X218900000Y-82450000I0J75000D01*
G01*
X218900000Y-81750000D01*
G75*
G02*
X218975000Y-81675000I75000J0D01*
G01*
X219125000Y-81675000D01*
G75*
G02*
X219200000Y-81750000I0J-75000D01*
G01*
X219200000Y-82450000D01*
G75*
G02*
X219125000Y-82525000I-75000J0D01*
G01*
G37*
G36*
G01*
X219625000Y-82525000D02*
X219475000Y-82525000D01*
G75*
G02*
X219400000Y-82450000I0J75000D01*
G01*
X219400000Y-81750000D01*
G75*
G02*
X219475000Y-81675000I75000J0D01*
G01*
X219625000Y-81675000D01*
G75*
G02*
X219700000Y-81750000I0J-75000D01*
G01*
X219700000Y-82450000D01*
G75*
G02*
X219625000Y-82525000I-75000J0D01*
G01*
G37*
G36*
G01*
X220125000Y-82525000D02*
X219975000Y-82525000D01*
G75*
G02*
X219900000Y-82450000I0J75000D01*
G01*
X219900000Y-81750000D01*
G75*
G02*
X219975000Y-81675000I75000J0D01*
G01*
X220125000Y-81675000D01*
G75*
G02*
X220200000Y-81750000I0J-75000D01*
G01*
X220200000Y-82450000D01*
G75*
G02*
X220125000Y-82525000I-75000J0D01*
G01*
G37*
G36*
G01*
X221175000Y-81325000D02*
X221175000Y-81475000D01*
G75*
G02*
X221100000Y-81550000I-75000J0D01*
G01*
X220400000Y-81550000D01*
G75*
G02*
X220325000Y-81475000I0J75000D01*
G01*
X220325000Y-81325000D01*
G75*
G02*
X220400000Y-81250000I75000J0D01*
G01*
X221100000Y-81250000D01*
G75*
G02*
X221175000Y-81325000I0J-75000D01*
G01*
G37*
G36*
G01*
X221175000Y-80825000D02*
X221175000Y-80975000D01*
G75*
G02*
X221100000Y-81050000I-75000J0D01*
G01*
X220400000Y-81050000D01*
G75*
G02*
X220325000Y-80975000I0J75000D01*
G01*
X220325000Y-80825000D01*
G75*
G02*
X220400000Y-80750000I75000J0D01*
G01*
X221100000Y-80750000D01*
G75*
G02*
X221175000Y-80825000I0J-75000D01*
G01*
G37*
G36*
G01*
X221175000Y-80325000D02*
X221175000Y-80475000D01*
G75*
G02*
X221100000Y-80550000I-75000J0D01*
G01*
X220400000Y-80550000D01*
G75*
G02*
X220325000Y-80475000I0J75000D01*
G01*
X220325000Y-80325000D01*
G75*
G02*
X220400000Y-80250000I75000J0D01*
G01*
X221100000Y-80250000D01*
G75*
G02*
X221175000Y-80325000I0J-75000D01*
G01*
G37*
G36*
G01*
X221175000Y-79825000D02*
X221175000Y-79975000D01*
G75*
G02*
X221100000Y-80050000I-75000J0D01*
G01*
X220400000Y-80050000D01*
G75*
G02*
X220325000Y-79975000I0J75000D01*
G01*
X220325000Y-79825000D01*
G75*
G02*
X220400000Y-79750000I75000J0D01*
G01*
X221100000Y-79750000D01*
G75*
G02*
X221175000Y-79825000I0J-75000D01*
G01*
G37*
G36*
G01*
X221175000Y-79325000D02*
X221175000Y-79475000D01*
G75*
G02*
X221100000Y-79550000I-75000J0D01*
G01*
X220400000Y-79550000D01*
G75*
G02*
X220325000Y-79475000I0J75000D01*
G01*
X220325000Y-79325000D01*
G75*
G02*
X220400000Y-79250000I75000J0D01*
G01*
X221100000Y-79250000D01*
G75*
G02*
X221175000Y-79325000I0J-75000D01*
G01*
G37*
G36*
G01*
X221175000Y-78825000D02*
X221175000Y-78975000D01*
G75*
G02*
X221100000Y-79050000I-75000J0D01*
G01*
X220400000Y-79050000D01*
G75*
G02*
X220325000Y-78975000I0J75000D01*
G01*
X220325000Y-78825000D01*
G75*
G02*
X220400000Y-78750000I75000J0D01*
G01*
X221100000Y-78750000D01*
G75*
G02*
X221175000Y-78825000I0J-75000D01*
G01*
G37*
G36*
G01*
X220125000Y-78625000D02*
X219975000Y-78625000D01*
G75*
G02*
X219900000Y-78550000I0J75000D01*
G01*
X219900000Y-77850000D01*
G75*
G02*
X219975000Y-77775000I75000J0D01*
G01*
X220125000Y-77775000D01*
G75*
G02*
X220200000Y-77850000I0J-75000D01*
G01*
X220200000Y-78550000D01*
G75*
G02*
X220125000Y-78625000I-75000J0D01*
G01*
G37*
G36*
G01*
X219625000Y-78625000D02*
X219475000Y-78625000D01*
G75*
G02*
X219400000Y-78550000I0J75000D01*
G01*
X219400000Y-77850000D01*
G75*
G02*
X219475000Y-77775000I75000J0D01*
G01*
X219625000Y-77775000D01*
G75*
G02*
X219700000Y-77850000I0J-75000D01*
G01*
X219700000Y-78550000D01*
G75*
G02*
X219625000Y-78625000I-75000J0D01*
G01*
G37*
G36*
G01*
X219125000Y-78625000D02*
X218975000Y-78625000D01*
G75*
G02*
X218900000Y-78550000I0J75000D01*
G01*
X218900000Y-77850000D01*
G75*
G02*
X218975000Y-77775000I75000J0D01*
G01*
X219125000Y-77775000D01*
G75*
G02*
X219200000Y-77850000I0J-75000D01*
G01*
X219200000Y-78550000D01*
G75*
G02*
X219125000Y-78625000I-75000J0D01*
G01*
G37*
G36*
G01*
X218625000Y-78625000D02*
X218475000Y-78625000D01*
G75*
G02*
X218400000Y-78550000I0J75000D01*
G01*
X218400000Y-77850000D01*
G75*
G02*
X218475000Y-77775000I75000J0D01*
G01*
X218625000Y-77775000D01*
G75*
G02*
X218700000Y-77850000I0J-75000D01*
G01*
X218700000Y-78550000D01*
G75*
G02*
X218625000Y-78625000I-75000J0D01*
G01*
G37*
G36*
G01*
X218125000Y-78625000D02*
X217975000Y-78625000D01*
G75*
G02*
X217900000Y-78550000I0J75000D01*
G01*
X217900000Y-77850000D01*
G75*
G02*
X217975000Y-77775000I75000J0D01*
G01*
X218125000Y-77775000D01*
G75*
G02*
X218200000Y-77850000I0J-75000D01*
G01*
X218200000Y-78550000D01*
G75*
G02*
X218125000Y-78625000I-75000J0D01*
G01*
G37*
G36*
G01*
X217625000Y-78625000D02*
X217475000Y-78625000D01*
G75*
G02*
X217400000Y-78550000I0J75000D01*
G01*
X217400000Y-77850000D01*
G75*
G02*
X217475000Y-77775000I75000J0D01*
G01*
X217625000Y-77775000D01*
G75*
G02*
X217700000Y-77850000I0J-75000D01*
G01*
X217700000Y-78550000D01*
G75*
G02*
X217625000Y-78625000I-75000J0D01*
G01*
G37*
G36*
G01*
X217275000Y-78825000D02*
X217275000Y-78975000D01*
G75*
G02*
X217200000Y-79050000I-75000J0D01*
G01*
X216500000Y-79050000D01*
G75*
G02*
X216425000Y-78975000I0J75000D01*
G01*
X216425000Y-78825000D01*
G75*
G02*
X216500000Y-78750000I75000J0D01*
G01*
X217200000Y-78750000D01*
G75*
G02*
X217275000Y-78825000I0J-75000D01*
G01*
G37*
G36*
G01*
X217275000Y-79325000D02*
X217275000Y-79475000D01*
G75*
G02*
X217200000Y-79550000I-75000J0D01*
G01*
X216500000Y-79550000D01*
G75*
G02*
X216425000Y-79475000I0J75000D01*
G01*
X216425000Y-79325000D01*
G75*
G02*
X216500000Y-79250000I75000J0D01*
G01*
X217200000Y-79250000D01*
G75*
G02*
X217275000Y-79325000I0J-75000D01*
G01*
G37*
G36*
G01*
X217275000Y-79825000D02*
X217275000Y-79975000D01*
G75*
G02*
X217200000Y-80050000I-75000J0D01*
G01*
X216500000Y-80050000D01*
G75*
G02*
X216425000Y-79975000I0J75000D01*
G01*
X216425000Y-79825000D01*
G75*
G02*
X216500000Y-79750000I75000J0D01*
G01*
X217200000Y-79750000D01*
G75*
G02*
X217275000Y-79825000I0J-75000D01*
G01*
G37*
G36*
G01*
X217275000Y-80325000D02*
X217275000Y-80475000D01*
G75*
G02*
X217200000Y-80550000I-75000J0D01*
G01*
X216500000Y-80550000D01*
G75*
G02*
X216425000Y-80475000I0J75000D01*
G01*
X216425000Y-80325000D01*
G75*
G02*
X216500000Y-80250000I75000J0D01*
G01*
X217200000Y-80250000D01*
G75*
G02*
X217275000Y-80325000I0J-75000D01*
G01*
G37*
G36*
G01*
X217275000Y-80825000D02*
X217275000Y-80975000D01*
G75*
G02*
X217200000Y-81050000I-75000J0D01*
G01*
X216500000Y-81050000D01*
G75*
G02*
X216425000Y-80975000I0J75000D01*
G01*
X216425000Y-80825000D01*
G75*
G02*
X216500000Y-80750000I75000J0D01*
G01*
X217200000Y-80750000D01*
G75*
G02*
X217275000Y-80825000I0J-75000D01*
G01*
G37*
G36*
G01*
X217275000Y-81325000D02*
X217275000Y-81475000D01*
G75*
G02*
X217200000Y-81550000I-75000J0D01*
G01*
X216500000Y-81550000D01*
G75*
G02*
X216425000Y-81475000I0J75000D01*
G01*
X216425000Y-81325000D01*
G75*
G02*
X216500000Y-81250000I75000J0D01*
G01*
X217200000Y-81250000D01*
G75*
G02*
X217275000Y-81325000I0J-75000D01*
G01*
G37*
%TD*%
%TO.C,U6*%
G36*
G01*
X216900000Y-75800000D02*
X216650000Y-75800000D01*
G75*
G02*
X216525000Y-75675000I0J125000D01*
G01*
X216525000Y-74725000D01*
G75*
G02*
X216650000Y-74600000I125000J0D01*
G01*
X216900000Y-74600000D01*
G75*
G02*
X217025000Y-74725000I0J-125000D01*
G01*
X217025000Y-75675000D01*
G75*
G02*
X216900000Y-75800000I-125000J0D01*
G01*
G37*
G36*
G01*
X218150000Y-75800000D02*
X217900000Y-75800000D01*
G75*
G02*
X217775000Y-75675000I0J125000D01*
G01*
X217775000Y-74725000D01*
G75*
G02*
X217900000Y-74600000I125000J0D01*
G01*
X218150000Y-74600000D01*
G75*
G02*
X218275000Y-74725000I0J-125000D01*
G01*
X218275000Y-75675000D01*
G75*
G02*
X218150000Y-75800000I-125000J0D01*
G01*
G37*
G36*
G01*
X219400000Y-75800000D02*
X219150000Y-75800000D01*
G75*
G02*
X219025000Y-75675000I0J125000D01*
G01*
X219025000Y-74725000D01*
G75*
G02*
X219150000Y-74600000I125000J0D01*
G01*
X219400000Y-74600000D01*
G75*
G02*
X219525000Y-74725000I0J-125000D01*
G01*
X219525000Y-75675000D01*
G75*
G02*
X219400000Y-75800000I-125000J0D01*
G01*
G37*
G36*
G01*
X220650000Y-75800000D02*
X220400000Y-75800000D01*
G75*
G02*
X220275000Y-75675000I0J125000D01*
G01*
X220275000Y-74725000D01*
G75*
G02*
X220400000Y-74600000I125000J0D01*
G01*
X220650000Y-74600000D01*
G75*
G02*
X220775000Y-74725000I0J-125000D01*
G01*
X220775000Y-75675000D01*
G75*
G02*
X220650000Y-75800000I-125000J0D01*
G01*
G37*
G36*
G01*
X220650000Y-73500000D02*
X220400000Y-73500000D01*
G75*
G02*
X220275000Y-73375000I0J125000D01*
G01*
X220275000Y-72425000D01*
G75*
G02*
X220400000Y-72300000I125000J0D01*
G01*
X220650000Y-72300000D01*
G75*
G02*
X220775000Y-72425000I0J-125000D01*
G01*
X220775000Y-73375000D01*
G75*
G02*
X220650000Y-73500000I-125000J0D01*
G01*
G37*
G36*
G01*
X219400000Y-73500000D02*
X219150000Y-73500000D01*
G75*
G02*
X219025000Y-73375000I0J125000D01*
G01*
X219025000Y-72425000D01*
G75*
G02*
X219150000Y-72300000I125000J0D01*
G01*
X219400000Y-72300000D01*
G75*
G02*
X219525000Y-72425000I0J-125000D01*
G01*
X219525000Y-73375000D01*
G75*
G02*
X219400000Y-73500000I-125000J0D01*
G01*
G37*
G36*
G01*
X218150000Y-73500000D02*
X217900000Y-73500000D01*
G75*
G02*
X217775000Y-73375000I0J125000D01*
G01*
X217775000Y-72425000D01*
G75*
G02*
X217900000Y-72300000I125000J0D01*
G01*
X218150000Y-72300000D01*
G75*
G02*
X218275000Y-72425000I0J-125000D01*
G01*
X218275000Y-73375000D01*
G75*
G02*
X218150000Y-73500000I-125000J0D01*
G01*
G37*
G36*
G01*
X216900000Y-73500000D02*
X216650000Y-73500000D01*
G75*
G02*
X216525000Y-73375000I0J125000D01*
G01*
X216525000Y-72425000D01*
G75*
G02*
X216650000Y-72300000I125000J0D01*
G01*
X216900000Y-72300000D01*
G75*
G02*
X217025000Y-72425000I0J-125000D01*
G01*
X217025000Y-73375000D01*
G75*
G02*
X216900000Y-73500000I-125000J0D01*
G01*
G37*
%TD*%
D25*
%TO.C,U1*%
X192795000Y-55071348D03*
X194065000Y-55071348D03*
X195335000Y-55071348D03*
X196605000Y-55071348D03*
X196605000Y-49628652D03*
X195335000Y-49628652D03*
X194065000Y-49628652D03*
X192795000Y-49628652D03*
D26*
X194700000Y-52350000D03*
%TD*%
D27*
%TO.C,U2*%
X217700000Y-59900000D03*
D28*
X217700000Y-53600000D03*
X215400000Y-53600000D03*
X220000000Y-53600000D03*
%TD*%
M02*
