M48
; DRILL file {KiCad (6.0.0-0)} date Sunday, October 23, 2022 at 11:33:11 am
; FORMAT={-:-/ absolute / inch / decimal}
; #@! TF.CreationDate,2022-10-23T11:33:12-04:00
; #@! TF.GenerationSoftware,Kicad,Pcbnew,(6.0.0-0)
; #@! TF.FileFunction,Plated,1,4,PTH
FMAT,2
INCH
; #@! TA.AperFunction,Plated,PTH,ComponentDrill
T1C0.0118
; #@! TA.AperFunction,Plated,PTH,ComponentDrill
T2C0.0138
; #@! TA.AperFunction,Plated,PTH,ViaDrill
T3C0.0157
; #@! TA.AperFunction,Plated,PTH,ComponentDrill
T4C0.0197
; #@! TA.AperFunction,Plated,PTH,ComponentDrill
T5C0.0217
; #@! TA.AperFunction,Plated,PTH,ComponentDrill
T6C0.0354
; #@! TA.AperFunction,Plated,PTH,ComponentDrill
T7C0.0374
; #@! TA.AperFunction,Plated,PTH,ComponentDrill
T8C0.0394
; #@! TA.AperFunction,Plated,PTH,ComponentDrill
T9C0.0906
; #@! TA.AperFunction,Plated,PTH,ComponentDrill
T10C0.1181
%
G90
G05
T1
X5.4852Y-2.1722
X5.4852Y-2.2234
X5.4852Y-2.2746
X5.4852Y-2.3258
X5.5364Y-2.1722
X5.5364Y-2.2234
X5.5364Y-2.2746
X5.5364Y-2.3258
T2
X5.81Y-2.9163
X5.81Y-2.9665
X5.81Y-3.0167
X5.8602Y-2.9163
X5.8602Y-2.9665
X5.8602Y-3.0167
X5.9104Y-2.9163
X5.9104Y-2.9665
X5.9104Y-3.0167
T3
X5.0039Y-1.8917
X5.0039Y-1.935
X5.0039Y-2.0531
X5.0039Y-2.0965
X5.0039Y-2.2146
X5.0039Y-2.2579
X5.0039Y-2.378
X5.0039Y-2.4213
X5.0039Y-2.5394
X5.0039Y-2.5827
X5.0039Y-2.7008
X5.0039Y-2.7441
X5.0709Y-3.2933
X5.0758Y-3.0177
X5.0768Y-2.9331
X5.0803Y-2.9745
X5.0866Y-1.8917
X5.0866Y-1.935
X5.0866Y-2.0531
X5.0866Y-2.0965
X5.0866Y-2.2146
X5.0866Y-2.2579
X5.0866Y-2.378
X5.0866Y-2.4213
X5.0866Y-2.5394
X5.0866Y-2.5827
X5.0866Y-2.7008
X5.0866Y-2.7441
X5.2559Y-3.2441
X5.2815Y-3.0423
X5.3287Y-2.1004
X5.3425Y-2.2618
X5.3524Y-3.0551
X5.378Y-2.437
X5.3917Y-3.6496
X5.4134Y-1.6732
X5.4291Y-2.4882
X5.4409Y-2.8091
X5.4724Y-2.5748
X5.4724Y-2.6181
X5.4764Y-3.3642
X5.4843Y-2.811
X5.5728Y-2.9764
X5.6181Y-2.5177
X5.6476Y-1.9311
X5.6929Y-1.6791
X5.6929Y-3.1575
X5.7008Y-2.1555
X5.7192Y-3.2434
X5.7264Y-2.2756
X5.7598Y-3.2057
X5.7631Y-3.2449
X5.7684Y-2.8718
X5.8015Y-3.2358
X5.8248Y-3.2028
X5.8406Y-3.2403
X5.8701Y-2.6201
X5.9154Y-3.2185
X5.9264Y-3.1778
X5.9547Y-2.9331
X5.9547Y-2.9744
X5.9626Y-2.3681
X5.9744Y-1.9665
X6.0335Y-2.7461
X6.0496Y-2.8384
X6.0613Y-2.7182
X6.0754Y-2.8681
X6.1142Y-2.8799
X6.1142Y-2.9193
X6.1142Y-2.9587
X6.1319Y-1.9665
X6.1516Y-2.6339
X6.2343Y-2.7953
X6.2343Y-3.1614
X6.3031Y-2.4528
X6.3504Y-2.813
X6.374Y-2.7224
X6.3799Y-3.1083
X6.3799Y-3.1476
X6.4331Y-2.813
X6.454Y-2.517
X6.4791Y-2.5421
X6.5079Y-1.8602
X6.5157Y-2.813
X6.5669Y-1.8602
X6.6181Y-2.7244
X6.6201Y-2.4469
X6.626Y-1.8602
X6.6555Y-3.2323
X6.687Y-1.8583
X6.7067Y-3.1811
X6.7067Y-3.2244
X6.7106Y-2.8514
X6.7244Y-2.4862
X6.7244Y-2.5256
X6.7736Y-2.7756
X6.8031Y-1.8563
X6.8622Y-3.1398
X6.8819Y-2.3583
X6.8996Y-2.7953
X6.9026Y-2.8484
X6.9055Y-3.1398
X6.9272Y-2.8799
X6.9607Y-2.7323
X6.9784Y-2.4193
X7.0039Y-2.9862
X7.0098Y-3.0335
X7.0098Y-3.0846
X7.0472Y-3.1161
X7.1043Y-2.6811
X7.1191Y-2.9331
X7.1476Y-2.6004
X7.1555Y-2.5472
X7.2008Y-2.5335
X7.2146Y-3.0768
X7.2323Y-2.8228
X7.2638Y-2.5335
X7.2933Y-2.6654
X7.6693Y-3.0453
X7.6713Y-3.0906
X7.6713Y-3.1319
X7.6732Y-3.2185
X7.6969Y-3.3543
X7.7067Y-2.815
X7.8406Y-3.1752
T7
X7.5114Y-2.0
X7.5114Y-2.0984
X7.5114Y-2.1772
X7.5114Y-2.2756
T8
X5.687Y-3.5339
X5.687Y-3.6339
X5.6878Y-3.4331
X5.787Y-3.5339
X5.787Y-3.6339
X5.7878Y-3.4331
X5.887Y-3.5339
X5.887Y-3.6339
X5.8878Y-3.4331
X5.987Y-3.5339
X5.987Y-3.6339
X5.9878Y-3.4331
X6.087Y-3.5339
X6.087Y-3.6339
X6.0878Y-3.4331
X6.187Y-3.5339
X6.187Y-3.6339
X6.1878Y-3.4331
X6.287Y-3.5339
X6.287Y-3.6339
X6.2878Y-3.4331
X6.387Y-3.5339
X6.387Y-3.6339
X6.3878Y-3.4331
X6.5339Y-3.3339
X6.5339Y-3.4339
X6.5339Y-3.5339
X6.5339Y-3.6339
T9
X7.6181Y-1.8791
X7.6181Y-2.3965
T10
X5.0846Y-3.5866
X5.0866Y-1.6575
X7.3701Y-1.6555
X7.372Y-3.5827
T4
G00X5.0344Y-2.8602
M15
G01X5.0089Y-2.8602
M16
G05
G00X5.0344Y-3.1358
M15
G01X5.0089Y-3.1358
M16
G05
T5
G00X5.128Y-2.8937
M15
G01X5.128Y-2.9055
M16
G05
G00X5.128Y-3.0906
M15
G01X5.128Y-3.1024
M16
G05
T6
G00X6.3809Y-1.6928
M15
G01X6.3809Y-1.6613
M16
G05
G00X6.3809Y-1.9471
M15
G01X6.3809Y-1.8762
M16
G05
G00X6.9518Y-1.6928
M15
G01X6.9518Y-1.6613
M16
G05
G00X6.9518Y-1.9471
M15
G01X6.9518Y-1.8762
M16
G05
T0
M30
