%TF.GenerationSoftware,KiCad,Pcbnew,(6.0.0-0)*%
%TF.CreationDate,2022-10-23T11:33:14-04:00*%
%TF.ProjectId,hermes_v1,6865726d-6573-45f7-9631-2e6b69636164,rev?*%
%TF.SameCoordinates,Original*%
%TF.FileFunction,Legend,Top*%
%TF.FilePolarity,Positive*%
%FSLAX46Y46*%
G04 Gerber Fmt 4.6, Leading zero omitted, Abs format (unit mm)*
G04 Created by KiCad (PCBNEW (6.0.0-0)) date 2022-10-23 11:33:14*
%MOMM*%
%LPD*%
G01*
G04 APERTURE LIST*
%ADD10C,0.125000*%
%ADD11C,0.150000*%
%ADD12C,0.050000*%
%ADD13C,0.120000*%
%ADD14C,0.100000*%
%ADD15C,0.127000*%
%ADD16C,0.200000*%
G04 APERTURE END LIST*
D10*
%TO.C,C6*%
X137134166Y-73572321D02*
X137110357Y-73596130D01*
X137038928Y-73619940D01*
X136991309Y-73619940D01*
X136919880Y-73596130D01*
X136872261Y-73548511D01*
X136848452Y-73500892D01*
X136824642Y-73405654D01*
X136824642Y-73334226D01*
X136848452Y-73238988D01*
X136872261Y-73191369D01*
X136919880Y-73143750D01*
X136991309Y-73119940D01*
X137038928Y-73119940D01*
X137110357Y-73143750D01*
X137134166Y-73167559D01*
X137562738Y-73119940D02*
X137467500Y-73119940D01*
X137419880Y-73143750D01*
X137396071Y-73167559D01*
X137348452Y-73238988D01*
X137324642Y-73334226D01*
X137324642Y-73524702D01*
X137348452Y-73572321D01*
X137372261Y-73596130D01*
X137419880Y-73619940D01*
X137515119Y-73619940D01*
X137562738Y-73596130D01*
X137586547Y-73572321D01*
X137610357Y-73524702D01*
X137610357Y-73405654D01*
X137586547Y-73358035D01*
X137562738Y-73334226D01*
X137515119Y-73310416D01*
X137419880Y-73310416D01*
X137372261Y-73334226D01*
X137348452Y-73358035D01*
X137324642Y-73405654D01*
%TO.C,C8*%
X137134166Y-72578571D02*
X137110357Y-72602380D01*
X137038928Y-72626190D01*
X136991309Y-72626190D01*
X136919880Y-72602380D01*
X136872261Y-72554761D01*
X136848452Y-72507142D01*
X136824642Y-72411904D01*
X136824642Y-72340476D01*
X136848452Y-72245238D01*
X136872261Y-72197619D01*
X136919880Y-72150000D01*
X136991309Y-72126190D01*
X137038928Y-72126190D01*
X137110357Y-72150000D01*
X137134166Y-72173809D01*
X137419880Y-72340476D02*
X137372261Y-72316666D01*
X137348452Y-72292857D01*
X137324642Y-72245238D01*
X137324642Y-72221428D01*
X137348452Y-72173809D01*
X137372261Y-72150000D01*
X137419880Y-72126190D01*
X137515119Y-72126190D01*
X137562738Y-72150000D01*
X137586547Y-72173809D01*
X137610357Y-72221428D01*
X137610357Y-72245238D01*
X137586547Y-72292857D01*
X137562738Y-72316666D01*
X137515119Y-72340476D01*
X137419880Y-72340476D01*
X137372261Y-72364285D01*
X137348452Y-72388095D01*
X137324642Y-72435714D01*
X137324642Y-72530952D01*
X137348452Y-72578571D01*
X137372261Y-72602380D01*
X137419880Y-72626190D01*
X137515119Y-72626190D01*
X137562738Y-72602380D01*
X137586547Y-72578571D01*
X137610357Y-72530952D01*
X137610357Y-72435714D01*
X137586547Y-72388095D01*
X137562738Y-72364285D01*
X137515119Y-72340476D01*
%TO.C,C11*%
X140987322Y-70207141D02*
X140963512Y-70230950D01*
X140892084Y-70254760D01*
X140844465Y-70254760D01*
X140773036Y-70230950D01*
X140725417Y-70183331D01*
X140701608Y-70135712D01*
X140677798Y-70040474D01*
X140677798Y-69969046D01*
X140701608Y-69873808D01*
X140725417Y-69826189D01*
X140773036Y-69778570D01*
X140844465Y-69754760D01*
X140892084Y-69754760D01*
X140963512Y-69778570D01*
X140987322Y-69802379D01*
X141463512Y-70254760D02*
X141177798Y-70254760D01*
X141320655Y-70254760D02*
X141320655Y-69754760D01*
X141273036Y-69826189D01*
X141225417Y-69873808D01*
X141177798Y-69897617D01*
X141939703Y-70254760D02*
X141653989Y-70254760D01*
X141796846Y-70254760D02*
X141796846Y-69754760D01*
X141749227Y-69826189D01*
X141701608Y-69873808D01*
X141653989Y-69897617D01*
%TO.C,C12*%
X140987322Y-69121427D02*
X140963512Y-69145236D01*
X140892084Y-69169046D01*
X140844465Y-69169046D01*
X140773036Y-69145236D01*
X140725417Y-69097617D01*
X140701608Y-69049998D01*
X140677798Y-68954760D01*
X140677798Y-68883332D01*
X140701608Y-68788094D01*
X140725417Y-68740475D01*
X140773036Y-68692856D01*
X140844465Y-68669046D01*
X140892084Y-68669046D01*
X140963512Y-68692856D01*
X140987322Y-68716665D01*
X141463512Y-69169046D02*
X141177798Y-69169046D01*
X141320655Y-69169046D02*
X141320655Y-68669046D01*
X141273036Y-68740475D01*
X141225417Y-68788094D01*
X141177798Y-68811903D01*
X141653989Y-68716665D02*
X141677798Y-68692856D01*
X141725417Y-68669046D01*
X141844465Y-68669046D01*
X141892084Y-68692856D01*
X141915893Y-68716665D01*
X141939703Y-68764284D01*
X141939703Y-68811903D01*
X141915893Y-68883332D01*
X141630179Y-69169046D01*
X141939703Y-69169046D01*
%TO.C,C13*%
X140978571Y-68085713D02*
X140954761Y-68109522D01*
X140883333Y-68133332D01*
X140835714Y-68133332D01*
X140764285Y-68109522D01*
X140716666Y-68061903D01*
X140692857Y-68014284D01*
X140669047Y-67919046D01*
X140669047Y-67847618D01*
X140692857Y-67752380D01*
X140716666Y-67704761D01*
X140764285Y-67657142D01*
X140835714Y-67633332D01*
X140883333Y-67633332D01*
X140954761Y-67657142D01*
X140978571Y-67680951D01*
X141454761Y-68133332D02*
X141169047Y-68133332D01*
X141311904Y-68133332D02*
X141311904Y-67633332D01*
X141264285Y-67704761D01*
X141216666Y-67752380D01*
X141169047Y-67776189D01*
X141621428Y-67633332D02*
X141930952Y-67633332D01*
X141764285Y-67823808D01*
X141835714Y-67823808D01*
X141883333Y-67847618D01*
X141907142Y-67871427D01*
X141930952Y-67919046D01*
X141930952Y-68038094D01*
X141907142Y-68085713D01*
X141883333Y-68109522D01*
X141835714Y-68133332D01*
X141692857Y-68133332D01*
X141645238Y-68109522D01*
X141621428Y-68085713D01*
%TO.C,C14*%
X140928571Y-67049999D02*
X140904761Y-67073808D01*
X140833333Y-67097618D01*
X140785714Y-67097618D01*
X140714285Y-67073808D01*
X140666666Y-67026189D01*
X140642857Y-66978570D01*
X140619047Y-66883332D01*
X140619047Y-66811904D01*
X140642857Y-66716666D01*
X140666666Y-66669047D01*
X140714285Y-66621428D01*
X140785714Y-66597618D01*
X140833333Y-66597618D01*
X140904761Y-66621428D01*
X140928571Y-66645237D01*
X141404761Y-67097618D02*
X141119047Y-67097618D01*
X141261904Y-67097618D02*
X141261904Y-66597618D01*
X141214285Y-66669047D01*
X141166666Y-66716666D01*
X141119047Y-66740475D01*
X141833333Y-66764285D02*
X141833333Y-67097618D01*
X141714285Y-66573808D02*
X141595238Y-66930951D01*
X141904761Y-66930951D01*
%TO.C,C15*%
X140978571Y-66014285D02*
X140954761Y-66038094D01*
X140883333Y-66061904D01*
X140835714Y-66061904D01*
X140764285Y-66038094D01*
X140716666Y-65990475D01*
X140692857Y-65942856D01*
X140669047Y-65847618D01*
X140669047Y-65776190D01*
X140692857Y-65680952D01*
X140716666Y-65633333D01*
X140764285Y-65585714D01*
X140835714Y-65561904D01*
X140883333Y-65561904D01*
X140954761Y-65585714D01*
X140978571Y-65609523D01*
X141454761Y-66061904D02*
X141169047Y-66061904D01*
X141311904Y-66061904D02*
X141311904Y-65561904D01*
X141264285Y-65633333D01*
X141216666Y-65680952D01*
X141169047Y-65704761D01*
X141907142Y-65561904D02*
X141669047Y-65561904D01*
X141645238Y-65799999D01*
X141669047Y-65776190D01*
X141716666Y-65752380D01*
X141835714Y-65752380D01*
X141883333Y-65776190D01*
X141907142Y-65799999D01*
X141930952Y-65847618D01*
X141930952Y-65966666D01*
X141907142Y-66014285D01*
X141883333Y-66038094D01*
X141835714Y-66061904D01*
X141716666Y-66061904D01*
X141669047Y-66038094D01*
X141645238Y-66014285D01*
%TO.C,C16*%
X140978571Y-64978571D02*
X140954761Y-65002380D01*
X140883333Y-65026190D01*
X140835714Y-65026190D01*
X140764285Y-65002380D01*
X140716666Y-64954761D01*
X140692857Y-64907142D01*
X140669047Y-64811904D01*
X140669047Y-64740476D01*
X140692857Y-64645238D01*
X140716666Y-64597619D01*
X140764285Y-64550000D01*
X140835714Y-64526190D01*
X140883333Y-64526190D01*
X140954761Y-64550000D01*
X140978571Y-64573809D01*
X141454761Y-65026190D02*
X141169047Y-65026190D01*
X141311904Y-65026190D02*
X141311904Y-64526190D01*
X141264285Y-64597619D01*
X141216666Y-64645238D01*
X141169047Y-64669047D01*
X141883333Y-64526190D02*
X141788095Y-64526190D01*
X141740476Y-64550000D01*
X141716666Y-64573809D01*
X141669047Y-64645238D01*
X141645238Y-64740476D01*
X141645238Y-64930952D01*
X141669047Y-64978571D01*
X141692857Y-65002380D01*
X141740476Y-65026190D01*
X141835714Y-65026190D01*
X141883333Y-65002380D01*
X141907142Y-64978571D01*
X141930952Y-64930952D01*
X141930952Y-64811904D01*
X141907142Y-64764285D01*
X141883333Y-64740476D01*
X141835714Y-64716666D01*
X141740476Y-64716666D01*
X141692857Y-64740476D01*
X141669047Y-64764285D01*
X141645238Y-64811904D01*
%TO.C,C17*%
X156678571Y-79336071D02*
X156654761Y-79359880D01*
X156583333Y-79383690D01*
X156535714Y-79383690D01*
X156464285Y-79359880D01*
X156416666Y-79312261D01*
X156392857Y-79264642D01*
X156369047Y-79169404D01*
X156369047Y-79097976D01*
X156392857Y-79002738D01*
X156416666Y-78955119D01*
X156464285Y-78907500D01*
X156535714Y-78883690D01*
X156583333Y-78883690D01*
X156654761Y-78907500D01*
X156678571Y-78931309D01*
X157154761Y-79383690D02*
X156869047Y-79383690D01*
X157011904Y-79383690D02*
X157011904Y-78883690D01*
X156964285Y-78955119D01*
X156916666Y-79002738D01*
X156869047Y-79026547D01*
X157321428Y-78883690D02*
X157654761Y-78883690D01*
X157440476Y-79383690D01*
%TO.C,C18*%
X156678571Y-72378571D02*
X156654761Y-72402380D01*
X156583333Y-72426190D01*
X156535714Y-72426190D01*
X156464285Y-72402380D01*
X156416666Y-72354761D01*
X156392857Y-72307142D01*
X156369047Y-72211904D01*
X156369047Y-72140476D01*
X156392857Y-72045238D01*
X156416666Y-71997619D01*
X156464285Y-71950000D01*
X156535714Y-71926190D01*
X156583333Y-71926190D01*
X156654761Y-71950000D01*
X156678571Y-71973809D01*
X157154761Y-72426190D02*
X156869047Y-72426190D01*
X157011904Y-72426190D02*
X157011904Y-71926190D01*
X156964285Y-71997619D01*
X156916666Y-72045238D01*
X156869047Y-72069047D01*
X157440476Y-72140476D02*
X157392857Y-72116666D01*
X157369047Y-72092857D01*
X157345238Y-72045238D01*
X157345238Y-72021428D01*
X157369047Y-71973809D01*
X157392857Y-71950000D01*
X157440476Y-71926190D01*
X157535714Y-71926190D01*
X157583333Y-71950000D01*
X157607142Y-71973809D01*
X157630952Y-72021428D01*
X157630952Y-72045238D01*
X157607142Y-72092857D01*
X157583333Y-72116666D01*
X157535714Y-72140476D01*
X157440476Y-72140476D01*
X157392857Y-72164285D01*
X157369047Y-72188095D01*
X157345238Y-72235714D01*
X157345238Y-72330952D01*
X157369047Y-72378571D01*
X157392857Y-72402380D01*
X157440476Y-72426190D01*
X157535714Y-72426190D01*
X157583333Y-72402380D01*
X157607142Y-72378571D01*
X157630952Y-72330952D01*
X157630952Y-72235714D01*
X157607142Y-72188095D01*
X157583333Y-72164285D01*
X157535714Y-72140476D01*
%TO.C,C19*%
X133728571Y-82888928D02*
X133752380Y-82912738D01*
X133776190Y-82984166D01*
X133776190Y-83031785D01*
X133752380Y-83103214D01*
X133704761Y-83150833D01*
X133657142Y-83174642D01*
X133561904Y-83198452D01*
X133490476Y-83198452D01*
X133395238Y-83174642D01*
X133347619Y-83150833D01*
X133300000Y-83103214D01*
X133276190Y-83031785D01*
X133276190Y-82984166D01*
X133300000Y-82912738D01*
X133323809Y-82888928D01*
X133776190Y-82412738D02*
X133776190Y-82698452D01*
X133776190Y-82555595D02*
X133276190Y-82555595D01*
X133347619Y-82603214D01*
X133395238Y-82650833D01*
X133419047Y-82698452D01*
X133776190Y-82174642D02*
X133776190Y-82079404D01*
X133752380Y-82031785D01*
X133728571Y-82007976D01*
X133657142Y-81960357D01*
X133561904Y-81936547D01*
X133371428Y-81936547D01*
X133323809Y-81960357D01*
X133300000Y-81984166D01*
X133276190Y-82031785D01*
X133276190Y-82127023D01*
X133300000Y-82174642D01*
X133323809Y-82198452D01*
X133371428Y-82222261D01*
X133490476Y-82222261D01*
X133538095Y-82198452D01*
X133561904Y-82174642D01*
X133585714Y-82127023D01*
X133585714Y-82031785D01*
X133561904Y-81984166D01*
X133538095Y-81960357D01*
X133490476Y-81936547D01*
%TO.C,C26*%
X172578571Y-78978571D02*
X172554761Y-79002380D01*
X172483333Y-79026190D01*
X172435714Y-79026190D01*
X172364285Y-79002380D01*
X172316666Y-78954761D01*
X172292857Y-78907142D01*
X172269047Y-78811904D01*
X172269047Y-78740476D01*
X172292857Y-78645238D01*
X172316666Y-78597619D01*
X172364285Y-78550000D01*
X172435714Y-78526190D01*
X172483333Y-78526190D01*
X172554761Y-78550000D01*
X172578571Y-78573809D01*
X172769047Y-78573809D02*
X172792857Y-78550000D01*
X172840476Y-78526190D01*
X172959523Y-78526190D01*
X173007142Y-78550000D01*
X173030952Y-78573809D01*
X173054761Y-78621428D01*
X173054761Y-78669047D01*
X173030952Y-78740476D01*
X172745238Y-79026190D01*
X173054761Y-79026190D01*
X173483333Y-78526190D02*
X173388095Y-78526190D01*
X173340476Y-78550000D01*
X173316666Y-78573809D01*
X173269047Y-78645238D01*
X173245238Y-78740476D01*
X173245238Y-78930952D01*
X173269047Y-78978571D01*
X173292857Y-79002380D01*
X173340476Y-79026190D01*
X173435714Y-79026190D01*
X173483333Y-79002380D01*
X173507142Y-78978571D01*
X173530952Y-78930952D01*
X173530952Y-78811904D01*
X173507142Y-78764285D01*
X173483333Y-78740476D01*
X173435714Y-78716666D01*
X173340476Y-78716666D01*
X173292857Y-78740476D01*
X173269047Y-78764285D01*
X173245238Y-78811904D01*
%TO.C,D2*%
X163480952Y-67076190D02*
X163480952Y-66576190D01*
X163600000Y-66576190D01*
X163671428Y-66600000D01*
X163719047Y-66647619D01*
X163742857Y-66695238D01*
X163766666Y-66790476D01*
X163766666Y-66861904D01*
X163742857Y-66957142D01*
X163719047Y-67004761D01*
X163671428Y-67052380D01*
X163600000Y-67076190D01*
X163480952Y-67076190D01*
X163957142Y-66623809D02*
X163980952Y-66600000D01*
X164028571Y-66576190D01*
X164147619Y-66576190D01*
X164195238Y-66600000D01*
X164219047Y-66623809D01*
X164242857Y-66671428D01*
X164242857Y-66719047D01*
X164219047Y-66790476D01*
X163933333Y-67076190D01*
X164242857Y-67076190D01*
%TO.C,D3*%
X163530952Y-68676190D02*
X163530952Y-68176190D01*
X163650000Y-68176190D01*
X163721428Y-68200000D01*
X163769047Y-68247619D01*
X163792857Y-68295238D01*
X163816666Y-68390476D01*
X163816666Y-68461904D01*
X163792857Y-68557142D01*
X163769047Y-68604761D01*
X163721428Y-68652380D01*
X163650000Y-68676190D01*
X163530952Y-68676190D01*
X163983333Y-68176190D02*
X164292857Y-68176190D01*
X164126190Y-68366666D01*
X164197619Y-68366666D01*
X164245238Y-68390476D01*
X164269047Y-68414285D01*
X164292857Y-68461904D01*
X164292857Y-68580952D01*
X164269047Y-68628571D01*
X164245238Y-68652380D01*
X164197619Y-68676190D01*
X164054761Y-68676190D01*
X164007142Y-68652380D01*
X163983333Y-68628571D01*
%TO.C,D4*%
X163530952Y-70326190D02*
X163530952Y-69826190D01*
X163650000Y-69826190D01*
X163721428Y-69850000D01*
X163769047Y-69897619D01*
X163792857Y-69945238D01*
X163816666Y-70040476D01*
X163816666Y-70111904D01*
X163792857Y-70207142D01*
X163769047Y-70254761D01*
X163721428Y-70302380D01*
X163650000Y-70326190D01*
X163530952Y-70326190D01*
X164245238Y-69992857D02*
X164245238Y-70326190D01*
X164126190Y-69802380D02*
X164007142Y-70159523D01*
X164316666Y-70159523D01*
%TO.C,R5*%
X173478690Y-61933333D02*
X173240595Y-62100000D01*
X173478690Y-62219047D02*
X172978690Y-62219047D01*
X172978690Y-62028571D01*
X173002500Y-61980952D01*
X173026309Y-61957142D01*
X173073928Y-61933333D01*
X173145357Y-61933333D01*
X173192976Y-61957142D01*
X173216785Y-61980952D01*
X173240595Y-62028571D01*
X173240595Y-62219047D01*
X172978690Y-61480952D02*
X172978690Y-61719047D01*
X173216785Y-61742857D01*
X173192976Y-61719047D01*
X173169166Y-61671428D01*
X173169166Y-61552380D01*
X173192976Y-61504761D01*
X173216785Y-61480952D01*
X173264404Y-61457142D01*
X173383452Y-61457142D01*
X173431071Y-61480952D01*
X173454880Y-61504761D01*
X173478690Y-61552380D01*
X173478690Y-61671428D01*
X173454880Y-61719047D01*
X173431071Y-61742857D01*
%TO.C,R6*%
X168269166Y-62326190D02*
X168102500Y-62088095D01*
X167983452Y-62326190D02*
X167983452Y-61826190D01*
X168173928Y-61826190D01*
X168221547Y-61850000D01*
X168245357Y-61873809D01*
X168269166Y-61921428D01*
X168269166Y-61992857D01*
X168245357Y-62040476D01*
X168221547Y-62064285D01*
X168173928Y-62088095D01*
X167983452Y-62088095D01*
X168697738Y-61826190D02*
X168602500Y-61826190D01*
X168554880Y-61850000D01*
X168531071Y-61873809D01*
X168483452Y-61945238D01*
X168459642Y-62040476D01*
X168459642Y-62230952D01*
X168483452Y-62278571D01*
X168507261Y-62302380D01*
X168554880Y-62326190D01*
X168650119Y-62326190D01*
X168697738Y-62302380D01*
X168721547Y-62278571D01*
X168745357Y-62230952D01*
X168745357Y-62111904D01*
X168721547Y-62064285D01*
X168697738Y-62040476D01*
X168650119Y-62016666D01*
X168554880Y-62016666D01*
X168507261Y-62040476D01*
X168483452Y-62064285D01*
X168459642Y-62111904D01*
%TO.C,R7*%
X133576190Y-88950833D02*
X133338095Y-89117500D01*
X133576190Y-89236547D02*
X133076190Y-89236547D01*
X133076190Y-89046071D01*
X133100000Y-88998452D01*
X133123809Y-88974642D01*
X133171428Y-88950833D01*
X133242857Y-88950833D01*
X133290476Y-88974642D01*
X133314285Y-88998452D01*
X133338095Y-89046071D01*
X133338095Y-89236547D01*
X133076190Y-88784166D02*
X133076190Y-88450833D01*
X133576190Y-88665119D01*
%TO.C,R13*%
X165928571Y-68676190D02*
X165761904Y-68438095D01*
X165642857Y-68676190D02*
X165642857Y-68176190D01*
X165833333Y-68176190D01*
X165880952Y-68200000D01*
X165904761Y-68223809D01*
X165928571Y-68271428D01*
X165928571Y-68342857D01*
X165904761Y-68390476D01*
X165880952Y-68414285D01*
X165833333Y-68438095D01*
X165642857Y-68438095D01*
X166404761Y-68676190D02*
X166119047Y-68676190D01*
X166261904Y-68676190D02*
X166261904Y-68176190D01*
X166214285Y-68247619D01*
X166166666Y-68295238D01*
X166119047Y-68319047D01*
X166571428Y-68176190D02*
X166880952Y-68176190D01*
X166714285Y-68366666D01*
X166785714Y-68366666D01*
X166833333Y-68390476D01*
X166857142Y-68414285D01*
X166880952Y-68461904D01*
X166880952Y-68580952D01*
X166857142Y-68628571D01*
X166833333Y-68652380D01*
X166785714Y-68676190D01*
X166642857Y-68676190D01*
X166595238Y-68652380D01*
X166571428Y-68628571D01*
%TO.C,R14*%
X165928571Y-70326190D02*
X165761904Y-70088095D01*
X165642857Y-70326190D02*
X165642857Y-69826190D01*
X165833333Y-69826190D01*
X165880952Y-69850000D01*
X165904761Y-69873809D01*
X165928571Y-69921428D01*
X165928571Y-69992857D01*
X165904761Y-70040476D01*
X165880952Y-70064285D01*
X165833333Y-70088095D01*
X165642857Y-70088095D01*
X166404761Y-70326190D02*
X166119047Y-70326190D01*
X166261904Y-70326190D02*
X166261904Y-69826190D01*
X166214285Y-69897619D01*
X166166666Y-69945238D01*
X166119047Y-69969047D01*
X166833333Y-69992857D02*
X166833333Y-70326190D01*
X166714285Y-69802380D02*
X166595238Y-70159523D01*
X166904761Y-70159523D01*
D11*
%TO.C,U3*%
X145952380Y-78061904D02*
X146761904Y-78061904D01*
X146857142Y-78014285D01*
X146904761Y-77966666D01*
X146952380Y-77871428D01*
X146952380Y-77680952D01*
X146904761Y-77585714D01*
X146857142Y-77538095D01*
X146761904Y-77490476D01*
X145952380Y-77490476D01*
X145952380Y-77109523D02*
X145952380Y-76490476D01*
X146333333Y-76823809D01*
X146333333Y-76680952D01*
X146380952Y-76585714D01*
X146428571Y-76538095D01*
X146523809Y-76490476D01*
X146761904Y-76490476D01*
X146857142Y-76538095D01*
X146904761Y-76585714D01*
X146952380Y-76680952D01*
X146952380Y-76966666D01*
X146904761Y-77061904D01*
X146857142Y-77109523D01*
%TO.C,U4*%
X136652380Y-84379404D02*
X137461904Y-84379404D01*
X137557142Y-84331785D01*
X137604761Y-84284166D01*
X137652380Y-84188928D01*
X137652380Y-83998452D01*
X137604761Y-83903214D01*
X137557142Y-83855595D01*
X137461904Y-83807976D01*
X136652380Y-83807976D01*
X136985714Y-82903214D02*
X137652380Y-82903214D01*
X136604761Y-83141309D02*
X137319047Y-83379404D01*
X137319047Y-82760357D01*
%TO.C,Y1*%
X159409940Y-76158690D02*
X159886130Y-76158690D01*
X158886130Y-76492023D02*
X159409940Y-76158690D01*
X158886130Y-75825357D01*
X159886130Y-74968214D02*
X159886130Y-75539642D01*
X159886130Y-75253928D02*
X158886130Y-75253928D01*
X159028988Y-75349166D01*
X159124226Y-75444404D01*
X159171845Y-75539642D01*
D10*
%TO.C,C9*%
X141216666Y-72228571D02*
X141192857Y-72252380D01*
X141121428Y-72276190D01*
X141073809Y-72276190D01*
X141002380Y-72252380D01*
X140954761Y-72204761D01*
X140930952Y-72157142D01*
X140907142Y-72061904D01*
X140907142Y-71990476D01*
X140930952Y-71895238D01*
X140954761Y-71847619D01*
X141002380Y-71800000D01*
X141073809Y-71776190D01*
X141121428Y-71776190D01*
X141192857Y-71800000D01*
X141216666Y-71823809D01*
X141454761Y-72276190D02*
X141550000Y-72276190D01*
X141597619Y-72252380D01*
X141621428Y-72228571D01*
X141669047Y-72157142D01*
X141692857Y-72061904D01*
X141692857Y-71871428D01*
X141669047Y-71823809D01*
X141645238Y-71800000D01*
X141597619Y-71776190D01*
X141502380Y-71776190D01*
X141454761Y-71800000D01*
X141430952Y-71823809D01*
X141407142Y-71871428D01*
X141407142Y-71990476D01*
X141430952Y-72038095D01*
X141454761Y-72061904D01*
X141502380Y-72085714D01*
X141597619Y-72085714D01*
X141645238Y-72061904D01*
X141669047Y-72038095D01*
X141692857Y-71990476D01*
%TO.C,R3*%
X137084166Y-76631190D02*
X136917500Y-76393095D01*
X136798452Y-76631190D02*
X136798452Y-76131190D01*
X136988928Y-76131190D01*
X137036547Y-76155000D01*
X137060357Y-76178809D01*
X137084166Y-76226428D01*
X137084166Y-76297857D01*
X137060357Y-76345476D01*
X137036547Y-76369285D01*
X136988928Y-76393095D01*
X136798452Y-76393095D01*
X137250833Y-76131190D02*
X137560357Y-76131190D01*
X137393690Y-76321666D01*
X137465119Y-76321666D01*
X137512738Y-76345476D01*
X137536547Y-76369285D01*
X137560357Y-76416904D01*
X137560357Y-76535952D01*
X137536547Y-76583571D01*
X137512738Y-76607380D01*
X137465119Y-76631190D01*
X137322261Y-76631190D01*
X137274642Y-76607380D01*
X137250833Y-76583571D01*
D11*
%TO.C,SW1*%
X127516666Y-85154761D02*
X127659523Y-85202380D01*
X127897619Y-85202380D01*
X127992857Y-85154761D01*
X128040476Y-85107142D01*
X128088095Y-85011904D01*
X128088095Y-84916666D01*
X128040476Y-84821428D01*
X127992857Y-84773809D01*
X127897619Y-84726190D01*
X127707142Y-84678571D01*
X127611904Y-84630952D01*
X127564285Y-84583333D01*
X127516666Y-84488095D01*
X127516666Y-84392857D01*
X127564285Y-84297619D01*
X127611904Y-84250000D01*
X127707142Y-84202380D01*
X127945238Y-84202380D01*
X128088095Y-84250000D01*
X128421428Y-84202380D02*
X128659523Y-85202380D01*
X128850000Y-84488095D01*
X129040476Y-85202380D01*
X129278571Y-84202380D01*
X130183333Y-85202380D02*
X129611904Y-85202380D01*
X129897619Y-85202380D02*
X129897619Y-84202380D01*
X129802380Y-84345238D01*
X129707142Y-84440476D01*
X129611904Y-84488095D01*
%TO.C,J2*%
X128352380Y-76458333D02*
X129066666Y-76458333D01*
X129209523Y-76505952D01*
X129304761Y-76601190D01*
X129352380Y-76744047D01*
X129352380Y-76839285D01*
X128447619Y-76029761D02*
X128400000Y-75982142D01*
X128352380Y-75886904D01*
X128352380Y-75648809D01*
X128400000Y-75553571D01*
X128447619Y-75505952D01*
X128542857Y-75458333D01*
X128638095Y-75458333D01*
X128780952Y-75505952D01*
X129352380Y-76077380D01*
X129352380Y-75458333D01*
D10*
%TO.C,R9*%
X156842440Y-77800833D02*
X156604345Y-77967500D01*
X156842440Y-78086547D02*
X156342440Y-78086547D01*
X156342440Y-77896071D01*
X156366250Y-77848452D01*
X156390059Y-77824642D01*
X156437678Y-77800833D01*
X156509107Y-77800833D01*
X156556726Y-77824642D01*
X156580535Y-77848452D01*
X156604345Y-77896071D01*
X156604345Y-78086547D01*
X156842440Y-77562738D02*
X156842440Y-77467500D01*
X156818630Y-77419880D01*
X156794821Y-77396071D01*
X156723392Y-77348452D01*
X156628154Y-77324642D01*
X156437678Y-77324642D01*
X156390059Y-77348452D01*
X156366250Y-77372261D01*
X156342440Y-77419880D01*
X156342440Y-77515119D01*
X156366250Y-77562738D01*
X156390059Y-77586547D01*
X156437678Y-77610357D01*
X156556726Y-77610357D01*
X156604345Y-77586547D01*
X156628154Y-77562738D01*
X156651964Y-77515119D01*
X156651964Y-77419880D01*
X156628154Y-77372261D01*
X156604345Y-77348452D01*
X156556726Y-77324642D01*
%TO.C,C10*%
X140987322Y-71192855D02*
X140963512Y-71216664D01*
X140892084Y-71240474D01*
X140844465Y-71240474D01*
X140773036Y-71216664D01*
X140725417Y-71169045D01*
X140701608Y-71121426D01*
X140677798Y-71026188D01*
X140677798Y-70954760D01*
X140701608Y-70859522D01*
X140725417Y-70811903D01*
X140773036Y-70764284D01*
X140844465Y-70740474D01*
X140892084Y-70740474D01*
X140963512Y-70764284D01*
X140987322Y-70788093D01*
X141463512Y-71240474D02*
X141177798Y-71240474D01*
X141320655Y-71240474D02*
X141320655Y-70740474D01*
X141273036Y-70811903D01*
X141225417Y-70859522D01*
X141177798Y-70883331D01*
X141773036Y-70740474D02*
X141820655Y-70740474D01*
X141868274Y-70764284D01*
X141892084Y-70788093D01*
X141915893Y-70835712D01*
X141939703Y-70930950D01*
X141939703Y-71049998D01*
X141915893Y-71145236D01*
X141892084Y-71192855D01*
X141868274Y-71216664D01*
X141820655Y-71240474D01*
X141773036Y-71240474D01*
X141725417Y-71216664D01*
X141701608Y-71192855D01*
X141677798Y-71145236D01*
X141653989Y-71049998D01*
X141653989Y-70930950D01*
X141677798Y-70835712D01*
X141701608Y-70788093D01*
X141725417Y-70764284D01*
X141773036Y-70740474D01*
D11*
%TO.C,SW2*%
X135716666Y-92104761D02*
X135859523Y-92152380D01*
X136097619Y-92152380D01*
X136192857Y-92104761D01*
X136240476Y-92057142D01*
X136288095Y-91961904D01*
X136288095Y-91866666D01*
X136240476Y-91771428D01*
X136192857Y-91723809D01*
X136097619Y-91676190D01*
X135907142Y-91628571D01*
X135811904Y-91580952D01*
X135764285Y-91533333D01*
X135716666Y-91438095D01*
X135716666Y-91342857D01*
X135764285Y-91247619D01*
X135811904Y-91200000D01*
X135907142Y-91152380D01*
X136145238Y-91152380D01*
X136288095Y-91200000D01*
X136621428Y-91152380D02*
X136859523Y-92152380D01*
X137050000Y-91438095D01*
X137240476Y-92152380D01*
X137478571Y-91152380D01*
X137811904Y-91247619D02*
X137859523Y-91200000D01*
X137954761Y-91152380D01*
X138192857Y-91152380D01*
X138288095Y-91200000D01*
X138335714Y-91247619D01*
X138383333Y-91342857D01*
X138383333Y-91438095D01*
X138335714Y-91580952D01*
X137764285Y-92152380D01*
X138383333Y-92152380D01*
D10*
%TO.C,C7*%
X137134166Y-74566071D02*
X137110357Y-74589880D01*
X137038928Y-74613690D01*
X136991309Y-74613690D01*
X136919880Y-74589880D01*
X136872261Y-74542261D01*
X136848452Y-74494642D01*
X136824642Y-74399404D01*
X136824642Y-74327976D01*
X136848452Y-74232738D01*
X136872261Y-74185119D01*
X136919880Y-74137500D01*
X136991309Y-74113690D01*
X137038928Y-74113690D01*
X137110357Y-74137500D01*
X137134166Y-74161309D01*
X137300833Y-74113690D02*
X137634166Y-74113690D01*
X137419880Y-74613690D01*
%TO.C,R12*%
X165928571Y-67076190D02*
X165761904Y-66838095D01*
X165642857Y-67076190D02*
X165642857Y-66576190D01*
X165833333Y-66576190D01*
X165880952Y-66600000D01*
X165904761Y-66623809D01*
X165928571Y-66671428D01*
X165928571Y-66742857D01*
X165904761Y-66790476D01*
X165880952Y-66814285D01*
X165833333Y-66838095D01*
X165642857Y-66838095D01*
X166404761Y-67076190D02*
X166119047Y-67076190D01*
X166261904Y-67076190D02*
X166261904Y-66576190D01*
X166214285Y-66647619D01*
X166166666Y-66695238D01*
X166119047Y-66719047D01*
X166595238Y-66623809D02*
X166619047Y-66600000D01*
X166666666Y-66576190D01*
X166785714Y-66576190D01*
X166833333Y-66600000D01*
X166857142Y-66623809D01*
X166880952Y-66671428D01*
X166880952Y-66719047D01*
X166857142Y-66790476D01*
X166571428Y-67076190D01*
X166880952Y-67076190D01*
%TO.C,R15*%
X135311071Y-66726190D02*
X135144404Y-66488095D01*
X135025357Y-66726190D02*
X135025357Y-66226190D01*
X135215833Y-66226190D01*
X135263452Y-66250000D01*
X135287261Y-66273809D01*
X135311071Y-66321428D01*
X135311071Y-66392857D01*
X135287261Y-66440476D01*
X135263452Y-66464285D01*
X135215833Y-66488095D01*
X135025357Y-66488095D01*
X135787261Y-66726190D02*
X135501547Y-66726190D01*
X135644404Y-66726190D02*
X135644404Y-66226190D01*
X135596785Y-66297619D01*
X135549166Y-66345238D01*
X135501547Y-66369047D01*
X136239642Y-66226190D02*
X136001547Y-66226190D01*
X135977738Y-66464285D01*
X136001547Y-66440476D01*
X136049166Y-66416666D01*
X136168214Y-66416666D01*
X136215833Y-66440476D01*
X136239642Y-66464285D01*
X136263452Y-66511904D01*
X136263452Y-66630952D01*
X136239642Y-66678571D01*
X136215833Y-66702380D01*
X136168214Y-66726190D01*
X136049166Y-66726190D01*
X136001547Y-66702380D01*
X135977738Y-66678571D01*
%TO.C,R16*%
X135311071Y-64501190D02*
X135144404Y-64263095D01*
X135025357Y-64501190D02*
X135025357Y-64001190D01*
X135215833Y-64001190D01*
X135263452Y-64025000D01*
X135287261Y-64048809D01*
X135311071Y-64096428D01*
X135311071Y-64167857D01*
X135287261Y-64215476D01*
X135263452Y-64239285D01*
X135215833Y-64263095D01*
X135025357Y-64263095D01*
X135787261Y-64501190D02*
X135501547Y-64501190D01*
X135644404Y-64501190D02*
X135644404Y-64001190D01*
X135596785Y-64072619D01*
X135549166Y-64120238D01*
X135501547Y-64144047D01*
X136215833Y-64001190D02*
X136120595Y-64001190D01*
X136072976Y-64025000D01*
X136049166Y-64048809D01*
X136001547Y-64120238D01*
X135977738Y-64215476D01*
X135977738Y-64405952D01*
X136001547Y-64453571D01*
X136025357Y-64477380D01*
X136072976Y-64501190D01*
X136168214Y-64501190D01*
X136215833Y-64477380D01*
X136239642Y-64453571D01*
X136263452Y-64405952D01*
X136263452Y-64286904D01*
X136239642Y-64239285D01*
X136215833Y-64215476D01*
X136168214Y-64191666D01*
X136072976Y-64191666D01*
X136025357Y-64215476D01*
X136001547Y-64239285D01*
X135977738Y-64286904D01*
%TO.C,D5*%
X135113452Y-67826190D02*
X135113452Y-67326190D01*
X135232500Y-67326190D01*
X135303928Y-67350000D01*
X135351547Y-67397619D01*
X135375357Y-67445238D01*
X135399166Y-67540476D01*
X135399166Y-67611904D01*
X135375357Y-67707142D01*
X135351547Y-67754761D01*
X135303928Y-67802380D01*
X135232500Y-67826190D01*
X135113452Y-67826190D01*
X135851547Y-67326190D02*
X135613452Y-67326190D01*
X135589642Y-67564285D01*
X135613452Y-67540476D01*
X135661071Y-67516666D01*
X135780119Y-67516666D01*
X135827738Y-67540476D01*
X135851547Y-67564285D01*
X135875357Y-67611904D01*
X135875357Y-67730952D01*
X135851547Y-67778571D01*
X135827738Y-67802380D01*
X135780119Y-67826190D01*
X135661071Y-67826190D01*
X135613452Y-67802380D01*
X135589642Y-67778571D01*
%TO.C,D6*%
X135113452Y-65601190D02*
X135113452Y-65101190D01*
X135232500Y-65101190D01*
X135303928Y-65125000D01*
X135351547Y-65172619D01*
X135375357Y-65220238D01*
X135399166Y-65315476D01*
X135399166Y-65386904D01*
X135375357Y-65482142D01*
X135351547Y-65529761D01*
X135303928Y-65577380D01*
X135232500Y-65601190D01*
X135113452Y-65601190D01*
X135827738Y-65101190D02*
X135732500Y-65101190D01*
X135684880Y-65125000D01*
X135661071Y-65148809D01*
X135613452Y-65220238D01*
X135589642Y-65315476D01*
X135589642Y-65505952D01*
X135613452Y-65553571D01*
X135637261Y-65577380D01*
X135684880Y-65601190D01*
X135780119Y-65601190D01*
X135827738Y-65577380D01*
X135851547Y-65553571D01*
X135875357Y-65505952D01*
X135875357Y-65386904D01*
X135851547Y-65339285D01*
X135827738Y-65315476D01*
X135780119Y-65291666D01*
X135684880Y-65291666D01*
X135637261Y-65315476D01*
X135613452Y-65339285D01*
X135589642Y-65386904D01*
%TO.C,R4*%
X137084166Y-75617440D02*
X136917500Y-75379345D01*
X136798452Y-75617440D02*
X136798452Y-75117440D01*
X136988928Y-75117440D01*
X137036547Y-75141250D01*
X137060357Y-75165059D01*
X137084166Y-75212678D01*
X137084166Y-75284107D01*
X137060357Y-75331726D01*
X137036547Y-75355535D01*
X136988928Y-75379345D01*
X136798452Y-75379345D01*
X137512738Y-75284107D02*
X137512738Y-75617440D01*
X137393690Y-75093630D02*
X137274642Y-75450773D01*
X137584166Y-75450773D01*
%TO.C,U7*%
X133851190Y-76255952D02*
X134255952Y-76255952D01*
X134303571Y-76232142D01*
X134327380Y-76208333D01*
X134351190Y-76160714D01*
X134351190Y-76065476D01*
X134327380Y-76017857D01*
X134303571Y-75994047D01*
X134255952Y-75970238D01*
X133851190Y-75970238D01*
X133851190Y-75779761D02*
X133851190Y-75446428D01*
X134351190Y-75660714D01*
D11*
%TO.C,U8*%
X173340595Y-64802380D02*
X173340595Y-65611904D01*
X173388214Y-65707142D01*
X173435833Y-65754761D01*
X173531071Y-65802380D01*
X173721547Y-65802380D01*
X173816785Y-65754761D01*
X173864404Y-65707142D01*
X173912023Y-65611904D01*
X173912023Y-64802380D01*
X174531071Y-65230952D02*
X174435833Y-65183333D01*
X174388214Y-65135714D01*
X174340595Y-65040476D01*
X174340595Y-64992857D01*
X174388214Y-64897619D01*
X174435833Y-64850000D01*
X174531071Y-64802380D01*
X174721547Y-64802380D01*
X174816785Y-64850000D01*
X174864404Y-64897619D01*
X174912023Y-64992857D01*
X174912023Y-65040476D01*
X174864404Y-65135714D01*
X174816785Y-65183333D01*
X174721547Y-65230952D01*
X174531071Y-65230952D01*
X174435833Y-65278571D01*
X174388214Y-65326190D01*
X174340595Y-65421428D01*
X174340595Y-65611904D01*
X174388214Y-65707142D01*
X174435833Y-65754761D01*
X174531071Y-65802380D01*
X174721547Y-65802380D01*
X174816785Y-65754761D01*
X174864404Y-65707142D01*
X174912023Y-65611904D01*
X174912023Y-65421428D01*
X174864404Y-65326190D01*
X174816785Y-65278571D01*
X174721547Y-65230952D01*
D10*
%TO.C,C35*%
X186328571Y-66321428D02*
X186352380Y-66345238D01*
X186376190Y-66416666D01*
X186376190Y-66464285D01*
X186352380Y-66535714D01*
X186304761Y-66583333D01*
X186257142Y-66607142D01*
X186161904Y-66630952D01*
X186090476Y-66630952D01*
X185995238Y-66607142D01*
X185947619Y-66583333D01*
X185900000Y-66535714D01*
X185876190Y-66464285D01*
X185876190Y-66416666D01*
X185900000Y-66345238D01*
X185923809Y-66321428D01*
X185876190Y-66154761D02*
X185876190Y-65845238D01*
X186066666Y-66011904D01*
X186066666Y-65940476D01*
X186090476Y-65892857D01*
X186114285Y-65869047D01*
X186161904Y-65845238D01*
X186280952Y-65845238D01*
X186328571Y-65869047D01*
X186352380Y-65892857D01*
X186376190Y-65940476D01*
X186376190Y-66083333D01*
X186352380Y-66130952D01*
X186328571Y-66154761D01*
X185876190Y-65392857D02*
X185876190Y-65630952D01*
X186114285Y-65654761D01*
X186090476Y-65630952D01*
X186066666Y-65583333D01*
X186066666Y-65464285D01*
X186090476Y-65416666D01*
X186114285Y-65392857D01*
X186161904Y-65369047D01*
X186280952Y-65369047D01*
X186328571Y-65392857D01*
X186352380Y-65416666D01*
X186376190Y-65464285D01*
X186376190Y-65583333D01*
X186352380Y-65630952D01*
X186328571Y-65654761D01*
%TO.C,R19*%
X164911904Y-58021428D02*
X164673809Y-58188095D01*
X164911904Y-58307142D02*
X164411904Y-58307142D01*
X164411904Y-58116666D01*
X164435714Y-58069047D01*
X164459523Y-58045238D01*
X164507142Y-58021428D01*
X164578571Y-58021428D01*
X164626190Y-58045238D01*
X164649999Y-58069047D01*
X164673809Y-58116666D01*
X164673809Y-58307142D01*
X164911904Y-57545238D02*
X164911904Y-57830952D01*
X164911904Y-57688095D02*
X164411904Y-57688095D01*
X164483333Y-57735714D01*
X164530952Y-57783333D01*
X164554761Y-57830952D01*
X164911904Y-57307142D02*
X164911904Y-57211904D01*
X164888094Y-57164285D01*
X164864285Y-57140476D01*
X164792856Y-57092857D01*
X164697618Y-57069047D01*
X164507142Y-57069047D01*
X164459523Y-57092857D01*
X164435714Y-57116666D01*
X164411904Y-57164285D01*
X164411904Y-57259523D01*
X164435714Y-57307142D01*
X164459523Y-57330952D01*
X164507142Y-57354761D01*
X164626190Y-57354761D01*
X164673809Y-57330952D01*
X164697618Y-57307142D01*
X164721428Y-57259523D01*
X164721428Y-57164285D01*
X164697618Y-57116666D01*
X164673809Y-57092857D01*
X164626190Y-57069047D01*
%TO.C,C24*%
X145578571Y-59978571D02*
X145554761Y-60002380D01*
X145483333Y-60026190D01*
X145435714Y-60026190D01*
X145364285Y-60002380D01*
X145316666Y-59954761D01*
X145292857Y-59907142D01*
X145269047Y-59811904D01*
X145269047Y-59740476D01*
X145292857Y-59645238D01*
X145316666Y-59597619D01*
X145364285Y-59550000D01*
X145435714Y-59526190D01*
X145483333Y-59526190D01*
X145554761Y-59550000D01*
X145578571Y-59573809D01*
X145769047Y-59573809D02*
X145792857Y-59550000D01*
X145840476Y-59526190D01*
X145959523Y-59526190D01*
X146007142Y-59550000D01*
X146030952Y-59573809D01*
X146054761Y-59621428D01*
X146054761Y-59669047D01*
X146030952Y-59740476D01*
X145745238Y-60026190D01*
X146054761Y-60026190D01*
X146483333Y-59692857D02*
X146483333Y-60026190D01*
X146364285Y-59502380D02*
X146245238Y-59859523D01*
X146554761Y-59859523D01*
D11*
%TO.C,L2*%
X152058333Y-45177380D02*
X151582142Y-45177380D01*
X151582142Y-44177380D01*
X152344047Y-44272619D02*
X152391666Y-44225000D01*
X152486904Y-44177380D01*
X152725000Y-44177380D01*
X152820238Y-44225000D01*
X152867857Y-44272619D01*
X152915476Y-44367857D01*
X152915476Y-44463095D01*
X152867857Y-44605952D01*
X152296428Y-45177380D01*
X152915476Y-45177380D01*
D12*
%TO.C,J5*%
X168583181Y-43211654D02*
X168583181Y-43783409D01*
X168545064Y-43897760D01*
X168468830Y-43973994D01*
X168354479Y-44012111D01*
X168278245Y-44012111D01*
X169345521Y-43211654D02*
X168964351Y-43211654D01*
X168926234Y-43592824D01*
X168964351Y-43554707D01*
X169040585Y-43516590D01*
X169231170Y-43516590D01*
X169307404Y-43554707D01*
X169345521Y-43592824D01*
X169383638Y-43669058D01*
X169383638Y-43859643D01*
X169345521Y-43935877D01*
X169307404Y-43973994D01*
X169231170Y-44012111D01*
X169040585Y-44012111D01*
X168964351Y-43973994D01*
X168926234Y-43935877D01*
D10*
%TO.C,C3*%
X148066666Y-50128571D02*
X148042857Y-50152380D01*
X147971428Y-50176190D01*
X147923809Y-50176190D01*
X147852380Y-50152380D01*
X147804761Y-50104761D01*
X147780952Y-50057142D01*
X147757142Y-49961904D01*
X147757142Y-49890476D01*
X147780952Y-49795238D01*
X147804761Y-49747619D01*
X147852380Y-49700000D01*
X147923809Y-49676190D01*
X147971428Y-49676190D01*
X148042857Y-49700000D01*
X148066666Y-49723809D01*
X148233333Y-49676190D02*
X148542857Y-49676190D01*
X148376190Y-49866666D01*
X148447619Y-49866666D01*
X148495238Y-49890476D01*
X148519047Y-49914285D01*
X148542857Y-49961904D01*
X148542857Y-50080952D01*
X148519047Y-50128571D01*
X148495238Y-50152380D01*
X148447619Y-50176190D01*
X148304761Y-50176190D01*
X148257142Y-50152380D01*
X148233333Y-50128571D01*
%TO.C,C5*%
X152166666Y-50128571D02*
X152142857Y-50152380D01*
X152071428Y-50176190D01*
X152023809Y-50176190D01*
X151952380Y-50152380D01*
X151904761Y-50104761D01*
X151880952Y-50057142D01*
X151857142Y-49961904D01*
X151857142Y-49890476D01*
X151880952Y-49795238D01*
X151904761Y-49747619D01*
X151952380Y-49700000D01*
X152023809Y-49676190D01*
X152071428Y-49676190D01*
X152142857Y-49700000D01*
X152166666Y-49723809D01*
X152619047Y-49676190D02*
X152380952Y-49676190D01*
X152357142Y-49914285D01*
X152380952Y-49890476D01*
X152428571Y-49866666D01*
X152547619Y-49866666D01*
X152595238Y-49890476D01*
X152619047Y-49914285D01*
X152642857Y-49961904D01*
X152642857Y-50080952D01*
X152619047Y-50128571D01*
X152595238Y-50152380D01*
X152547619Y-50176190D01*
X152428571Y-50176190D01*
X152380952Y-50152380D01*
X152357142Y-50128571D01*
%TO.C,C31*%
X145878571Y-56621428D02*
X145902380Y-56645238D01*
X145926190Y-56716666D01*
X145926190Y-56764285D01*
X145902380Y-56835714D01*
X145854761Y-56883333D01*
X145807142Y-56907142D01*
X145711904Y-56930952D01*
X145640476Y-56930952D01*
X145545238Y-56907142D01*
X145497619Y-56883333D01*
X145450000Y-56835714D01*
X145426190Y-56764285D01*
X145426190Y-56716666D01*
X145450000Y-56645238D01*
X145473809Y-56621428D01*
X145426190Y-56454761D02*
X145426190Y-56145238D01*
X145616666Y-56311904D01*
X145616666Y-56240476D01*
X145640476Y-56192857D01*
X145664285Y-56169047D01*
X145711904Y-56145238D01*
X145830952Y-56145238D01*
X145878571Y-56169047D01*
X145902380Y-56192857D01*
X145926190Y-56240476D01*
X145926190Y-56383333D01*
X145902380Y-56430952D01*
X145878571Y-56454761D01*
X145926190Y-55669047D02*
X145926190Y-55954761D01*
X145926190Y-55811904D02*
X145426190Y-55811904D01*
X145497619Y-55859523D01*
X145545238Y-55907142D01*
X145569047Y-55954761D01*
%TO.C,R8*%
X141016666Y-61176190D02*
X140850000Y-60938095D01*
X140730952Y-61176190D02*
X140730952Y-60676190D01*
X140921428Y-60676190D01*
X140969047Y-60700000D01*
X140992857Y-60723809D01*
X141016666Y-60771428D01*
X141016666Y-60842857D01*
X140992857Y-60890476D01*
X140969047Y-60914285D01*
X140921428Y-60938095D01*
X140730952Y-60938095D01*
X141302380Y-60890476D02*
X141254761Y-60866666D01*
X141230952Y-60842857D01*
X141207142Y-60795238D01*
X141207142Y-60771428D01*
X141230952Y-60723809D01*
X141254761Y-60700000D01*
X141302380Y-60676190D01*
X141397619Y-60676190D01*
X141445238Y-60700000D01*
X141469047Y-60723809D01*
X141492857Y-60771428D01*
X141492857Y-60795238D01*
X141469047Y-60842857D01*
X141445238Y-60866666D01*
X141397619Y-60890476D01*
X141302380Y-60890476D01*
X141254761Y-60914285D01*
X141230952Y-60938095D01*
X141207142Y-60985714D01*
X141207142Y-61080952D01*
X141230952Y-61128571D01*
X141254761Y-61152380D01*
X141302380Y-61176190D01*
X141397619Y-61176190D01*
X141445238Y-61152380D01*
X141469047Y-61128571D01*
X141492857Y-61080952D01*
X141492857Y-60985714D01*
X141469047Y-60938095D01*
X141445238Y-60914285D01*
X141397619Y-60890476D01*
D11*
%TO.C,U6*%
X139238095Y-56702380D02*
X139238095Y-57511904D01*
X139285714Y-57607142D01*
X139333333Y-57654761D01*
X139428571Y-57702380D01*
X139619047Y-57702380D01*
X139714285Y-57654761D01*
X139761904Y-57607142D01*
X139809523Y-57511904D01*
X139809523Y-56702380D01*
X140714285Y-56702380D02*
X140523809Y-56702380D01*
X140428571Y-56750000D01*
X140380952Y-56797619D01*
X140285714Y-56940476D01*
X140238095Y-57130952D01*
X140238095Y-57511904D01*
X140285714Y-57607142D01*
X140333333Y-57654761D01*
X140428571Y-57702380D01*
X140619047Y-57702380D01*
X140714285Y-57654761D01*
X140761904Y-57607142D01*
X140809523Y-57511904D01*
X140809523Y-57273809D01*
X140761904Y-57178571D01*
X140714285Y-57130952D01*
X140619047Y-57083333D01*
X140428571Y-57083333D01*
X140333333Y-57130952D01*
X140285714Y-57178571D01*
X140238095Y-57273809D01*
D10*
%TO.C,C4*%
X181941666Y-76778571D02*
X181917857Y-76802380D01*
X181846428Y-76826190D01*
X181798809Y-76826190D01*
X181727380Y-76802380D01*
X181679761Y-76754761D01*
X181655952Y-76707142D01*
X181632142Y-76611904D01*
X181632142Y-76540476D01*
X181655952Y-76445238D01*
X181679761Y-76397619D01*
X181727380Y-76350000D01*
X181798809Y-76326190D01*
X181846428Y-76326190D01*
X181917857Y-76350000D01*
X181941666Y-76373809D01*
X182370238Y-76492857D02*
X182370238Y-76826190D01*
X182251190Y-76302380D02*
X182132142Y-76659523D01*
X182441666Y-76659523D01*
%TO.C,R10*%
X133901190Y-58271428D02*
X133663095Y-58438095D01*
X133901190Y-58557142D02*
X133401190Y-58557142D01*
X133401190Y-58366666D01*
X133425000Y-58319047D01*
X133448809Y-58295238D01*
X133496428Y-58271428D01*
X133567857Y-58271428D01*
X133615476Y-58295238D01*
X133639285Y-58319047D01*
X133663095Y-58366666D01*
X133663095Y-58557142D01*
X133901190Y-57795238D02*
X133901190Y-58080952D01*
X133901190Y-57938095D02*
X133401190Y-57938095D01*
X133472619Y-57985714D01*
X133520238Y-58033333D01*
X133544047Y-58080952D01*
X133401190Y-57485714D02*
X133401190Y-57438095D01*
X133425000Y-57390476D01*
X133448809Y-57366666D01*
X133496428Y-57342857D01*
X133591666Y-57319047D01*
X133710714Y-57319047D01*
X133805952Y-57342857D01*
X133853571Y-57366666D01*
X133877380Y-57390476D01*
X133901190Y-57438095D01*
X133901190Y-57485714D01*
X133877380Y-57533333D01*
X133853571Y-57557142D01*
X133805952Y-57580952D01*
X133710714Y-57604761D01*
X133591666Y-57604761D01*
X133496428Y-57580952D01*
X133448809Y-57557142D01*
X133425000Y-57533333D01*
X133401190Y-57485714D01*
%TO.C,C34*%
X181828571Y-69028571D02*
X181804761Y-69052380D01*
X181733333Y-69076190D01*
X181685714Y-69076190D01*
X181614285Y-69052380D01*
X181566666Y-69004761D01*
X181542857Y-68957142D01*
X181519047Y-68861904D01*
X181519047Y-68790476D01*
X181542857Y-68695238D01*
X181566666Y-68647619D01*
X181614285Y-68600000D01*
X181685714Y-68576190D01*
X181733333Y-68576190D01*
X181804761Y-68600000D01*
X181828571Y-68623809D01*
X181995238Y-68576190D02*
X182304761Y-68576190D01*
X182138095Y-68766666D01*
X182209523Y-68766666D01*
X182257142Y-68790476D01*
X182280952Y-68814285D01*
X182304761Y-68861904D01*
X182304761Y-68980952D01*
X182280952Y-69028571D01*
X182257142Y-69052380D01*
X182209523Y-69076190D01*
X182066666Y-69076190D01*
X182019047Y-69052380D01*
X181995238Y-69028571D01*
X182733333Y-68742857D02*
X182733333Y-69076190D01*
X182614285Y-68552380D02*
X182495238Y-68909523D01*
X182804761Y-68909523D01*
%TO.C,R20*%
X166097618Y-58021428D02*
X165859523Y-58188095D01*
X166097618Y-58307142D02*
X165597618Y-58307142D01*
X165597618Y-58116666D01*
X165621428Y-58069047D01*
X165645237Y-58045238D01*
X165692856Y-58021428D01*
X165764285Y-58021428D01*
X165811904Y-58045238D01*
X165835713Y-58069047D01*
X165859523Y-58116666D01*
X165859523Y-58307142D01*
X165645237Y-57830952D02*
X165621428Y-57807142D01*
X165597618Y-57759523D01*
X165597618Y-57640476D01*
X165621428Y-57592857D01*
X165645237Y-57569047D01*
X165692856Y-57545238D01*
X165740475Y-57545238D01*
X165811904Y-57569047D01*
X166097618Y-57854761D01*
X166097618Y-57545238D01*
X165597618Y-57235714D02*
X165597618Y-57188095D01*
X165621428Y-57140476D01*
X165645237Y-57116666D01*
X165692856Y-57092857D01*
X165788094Y-57069047D01*
X165907142Y-57069047D01*
X166002380Y-57092857D01*
X166049999Y-57116666D01*
X166073808Y-57140476D01*
X166097618Y-57188095D01*
X166097618Y-57235714D01*
X166073808Y-57283333D01*
X166049999Y-57307142D01*
X166002380Y-57330952D01*
X165907142Y-57354761D01*
X165788094Y-57354761D01*
X165692856Y-57330952D01*
X165645237Y-57307142D01*
X165621428Y-57283333D01*
X165597618Y-57235714D01*
%TO.C,C27*%
X147928571Y-56671428D02*
X147952380Y-56695238D01*
X147976190Y-56766666D01*
X147976190Y-56814285D01*
X147952380Y-56885714D01*
X147904761Y-56933333D01*
X147857142Y-56957142D01*
X147761904Y-56980952D01*
X147690476Y-56980952D01*
X147595238Y-56957142D01*
X147547619Y-56933333D01*
X147500000Y-56885714D01*
X147476190Y-56814285D01*
X147476190Y-56766666D01*
X147500000Y-56695238D01*
X147523809Y-56671428D01*
X147523809Y-56480952D02*
X147500000Y-56457142D01*
X147476190Y-56409523D01*
X147476190Y-56290476D01*
X147500000Y-56242857D01*
X147523809Y-56219047D01*
X147571428Y-56195238D01*
X147619047Y-56195238D01*
X147690476Y-56219047D01*
X147976190Y-56504761D01*
X147976190Y-56195238D01*
X147476190Y-56028571D02*
X147476190Y-55695238D01*
X147976190Y-55909523D01*
%TO.C,R24*%
X170840474Y-58021428D02*
X170602379Y-58188095D01*
X170840474Y-58307142D02*
X170340474Y-58307142D01*
X170340474Y-58116666D01*
X170364284Y-58069047D01*
X170388093Y-58045238D01*
X170435712Y-58021428D01*
X170507141Y-58021428D01*
X170554760Y-58045238D01*
X170578569Y-58069047D01*
X170602379Y-58116666D01*
X170602379Y-58307142D01*
X170388093Y-57830952D02*
X170364284Y-57807142D01*
X170340474Y-57759523D01*
X170340474Y-57640476D01*
X170364284Y-57592857D01*
X170388093Y-57569047D01*
X170435712Y-57545238D01*
X170483331Y-57545238D01*
X170554760Y-57569047D01*
X170840474Y-57854761D01*
X170840474Y-57545238D01*
X170507141Y-57116666D02*
X170840474Y-57116666D01*
X170316664Y-57235714D02*
X170673807Y-57354761D01*
X170673807Y-57045238D01*
%TO.C,R2*%
X185926190Y-82283333D02*
X185688095Y-82450000D01*
X185926190Y-82569047D02*
X185426190Y-82569047D01*
X185426190Y-82378571D01*
X185450000Y-82330952D01*
X185473809Y-82307142D01*
X185521428Y-82283333D01*
X185592857Y-82283333D01*
X185640476Y-82307142D01*
X185664285Y-82330952D01*
X185688095Y-82378571D01*
X185688095Y-82569047D01*
X185473809Y-82092857D02*
X185450000Y-82069047D01*
X185426190Y-82021428D01*
X185426190Y-81902380D01*
X185450000Y-81854761D01*
X185473809Y-81830952D01*
X185521428Y-81807142D01*
X185569047Y-81807142D01*
X185640476Y-81830952D01*
X185926190Y-82116666D01*
X185926190Y-81807142D01*
%TO.C,R18*%
X163726190Y-58021428D02*
X163488095Y-58188095D01*
X163726190Y-58307142D02*
X163226190Y-58307142D01*
X163226190Y-58116666D01*
X163250000Y-58069047D01*
X163273809Y-58045238D01*
X163321428Y-58021428D01*
X163392857Y-58021428D01*
X163440476Y-58045238D01*
X163464285Y-58069047D01*
X163488095Y-58116666D01*
X163488095Y-58307142D01*
X163726190Y-57545238D02*
X163726190Y-57830952D01*
X163726190Y-57688095D02*
X163226190Y-57688095D01*
X163297619Y-57735714D01*
X163345238Y-57783333D01*
X163369047Y-57830952D01*
X163440476Y-57259523D02*
X163416666Y-57307142D01*
X163392857Y-57330952D01*
X163345238Y-57354761D01*
X163321428Y-57354761D01*
X163273809Y-57330952D01*
X163250000Y-57307142D01*
X163226190Y-57259523D01*
X163226190Y-57164285D01*
X163250000Y-57116666D01*
X163273809Y-57092857D01*
X163321428Y-57069047D01*
X163345238Y-57069047D01*
X163392857Y-57092857D01*
X163416666Y-57116666D01*
X163440476Y-57164285D01*
X163440476Y-57259523D01*
X163464285Y-57307142D01*
X163488095Y-57330952D01*
X163535714Y-57354761D01*
X163630952Y-57354761D01*
X163678571Y-57330952D01*
X163702380Y-57307142D01*
X163726190Y-57259523D01*
X163726190Y-57164285D01*
X163702380Y-57116666D01*
X163678571Y-57092857D01*
X163630952Y-57069047D01*
X163535714Y-57069047D01*
X163488095Y-57092857D01*
X163464285Y-57116666D01*
X163440476Y-57164285D01*
D11*
%TO.C,U9*%
X180652380Y-66751904D02*
X181461904Y-66751904D01*
X181557142Y-66704285D01*
X181604761Y-66656666D01*
X181652380Y-66561428D01*
X181652380Y-66370952D01*
X181604761Y-66275714D01*
X181557142Y-66228095D01*
X181461904Y-66180476D01*
X180652380Y-66180476D01*
X181652380Y-65656666D02*
X181652380Y-65466190D01*
X181604761Y-65370952D01*
X181557142Y-65323333D01*
X181414285Y-65228095D01*
X181223809Y-65180476D01*
X180842857Y-65180476D01*
X180747619Y-65228095D01*
X180700000Y-65275714D01*
X180652380Y-65370952D01*
X180652380Y-65561428D01*
X180700000Y-65656666D01*
X180747619Y-65704285D01*
X180842857Y-65751904D01*
X181080952Y-65751904D01*
X181176190Y-65704285D01*
X181223809Y-65656666D01*
X181271428Y-65561428D01*
X181271428Y-65370952D01*
X181223809Y-65275714D01*
X181176190Y-65228095D01*
X181080952Y-65180476D01*
D10*
%TO.C,C28*%
X133728571Y-52353571D02*
X133704761Y-52377380D01*
X133633333Y-52401190D01*
X133585714Y-52401190D01*
X133514285Y-52377380D01*
X133466666Y-52329761D01*
X133442857Y-52282142D01*
X133419047Y-52186904D01*
X133419047Y-52115476D01*
X133442857Y-52020238D01*
X133466666Y-51972619D01*
X133514285Y-51925000D01*
X133585714Y-51901190D01*
X133633333Y-51901190D01*
X133704761Y-51925000D01*
X133728571Y-51948809D01*
X133919047Y-51948809D02*
X133942857Y-51925000D01*
X133990476Y-51901190D01*
X134109523Y-51901190D01*
X134157142Y-51925000D01*
X134180952Y-51948809D01*
X134204761Y-51996428D01*
X134204761Y-52044047D01*
X134180952Y-52115476D01*
X133895238Y-52401190D01*
X134204761Y-52401190D01*
X134490476Y-52115476D02*
X134442857Y-52091666D01*
X134419047Y-52067857D01*
X134395238Y-52020238D01*
X134395238Y-51996428D01*
X134419047Y-51948809D01*
X134442857Y-51925000D01*
X134490476Y-51901190D01*
X134585714Y-51901190D01*
X134633333Y-51925000D01*
X134657142Y-51948809D01*
X134680952Y-51996428D01*
X134680952Y-52020238D01*
X134657142Y-52067857D01*
X134633333Y-52091666D01*
X134585714Y-52115476D01*
X134490476Y-52115476D01*
X134442857Y-52139285D01*
X134419047Y-52163095D01*
X134395238Y-52210714D01*
X134395238Y-52305952D01*
X134419047Y-52353571D01*
X134442857Y-52377380D01*
X134490476Y-52401190D01*
X134585714Y-52401190D01*
X134633333Y-52377380D01*
X134657142Y-52353571D01*
X134680952Y-52305952D01*
X134680952Y-52210714D01*
X134657142Y-52163095D01*
X134633333Y-52139285D01*
X134585714Y-52115476D01*
%TO.C,C1*%
X171666666Y-72178571D02*
X171642857Y-72202380D01*
X171571428Y-72226190D01*
X171523809Y-72226190D01*
X171452380Y-72202380D01*
X171404761Y-72154761D01*
X171380952Y-72107142D01*
X171357142Y-72011904D01*
X171357142Y-71940476D01*
X171380952Y-71845238D01*
X171404761Y-71797619D01*
X171452380Y-71750000D01*
X171523809Y-71726190D01*
X171571428Y-71726190D01*
X171642857Y-71750000D01*
X171666666Y-71773809D01*
X172142857Y-72226190D02*
X171857142Y-72226190D01*
X172000000Y-72226190D02*
X172000000Y-71726190D01*
X171952380Y-71797619D01*
X171904761Y-71845238D01*
X171857142Y-71869047D01*
%TO.C,C30*%
X139653571Y-43571428D02*
X139677380Y-43595238D01*
X139701190Y-43666666D01*
X139701190Y-43714285D01*
X139677380Y-43785714D01*
X139629761Y-43833333D01*
X139582142Y-43857142D01*
X139486904Y-43880952D01*
X139415476Y-43880952D01*
X139320238Y-43857142D01*
X139272619Y-43833333D01*
X139225000Y-43785714D01*
X139201190Y-43714285D01*
X139201190Y-43666666D01*
X139225000Y-43595238D01*
X139248809Y-43571428D01*
X139201190Y-43404761D02*
X139201190Y-43095238D01*
X139391666Y-43261904D01*
X139391666Y-43190476D01*
X139415476Y-43142857D01*
X139439285Y-43119047D01*
X139486904Y-43095238D01*
X139605952Y-43095238D01*
X139653571Y-43119047D01*
X139677380Y-43142857D01*
X139701190Y-43190476D01*
X139701190Y-43333333D01*
X139677380Y-43380952D01*
X139653571Y-43404761D01*
X139201190Y-42785714D02*
X139201190Y-42738095D01*
X139225000Y-42690476D01*
X139248809Y-42666666D01*
X139296428Y-42642857D01*
X139391666Y-42619047D01*
X139510714Y-42619047D01*
X139605952Y-42642857D01*
X139653571Y-42666666D01*
X139677380Y-42690476D01*
X139701190Y-42738095D01*
X139701190Y-42785714D01*
X139677380Y-42833333D01*
X139653571Y-42857142D01*
X139605952Y-42880952D01*
X139510714Y-42904761D01*
X139391666Y-42904761D01*
X139296428Y-42880952D01*
X139248809Y-42857142D01*
X139225000Y-42833333D01*
X139201190Y-42785714D01*
D11*
%TO.C,J1*%
X194002380Y-78683333D02*
X194716666Y-78683333D01*
X194859523Y-78730952D01*
X194954761Y-78826190D01*
X195002380Y-78969047D01*
X195002380Y-79064285D01*
X195002380Y-77683333D02*
X195002380Y-78254761D01*
X195002380Y-77969047D02*
X194002380Y-77969047D01*
X194145238Y-78064285D01*
X194240476Y-78159523D01*
X194288095Y-78254761D01*
D10*
%TO.C,C32*%
X140838571Y-52853571D02*
X140814761Y-52877380D01*
X140743333Y-52901190D01*
X140695714Y-52901190D01*
X140624285Y-52877380D01*
X140576666Y-52829761D01*
X140552857Y-52782142D01*
X140529047Y-52686904D01*
X140529047Y-52615476D01*
X140552857Y-52520238D01*
X140576666Y-52472619D01*
X140624285Y-52425000D01*
X140695714Y-52401190D01*
X140743333Y-52401190D01*
X140814761Y-52425000D01*
X140838571Y-52448809D01*
X141005238Y-52401190D02*
X141314761Y-52401190D01*
X141148095Y-52591666D01*
X141219523Y-52591666D01*
X141267142Y-52615476D01*
X141290952Y-52639285D01*
X141314761Y-52686904D01*
X141314761Y-52805952D01*
X141290952Y-52853571D01*
X141267142Y-52877380D01*
X141219523Y-52901190D01*
X141076666Y-52901190D01*
X141029047Y-52877380D01*
X141005238Y-52853571D01*
X141505238Y-52448809D02*
X141529047Y-52425000D01*
X141576666Y-52401190D01*
X141695714Y-52401190D01*
X141743333Y-52425000D01*
X141767142Y-52448809D01*
X141790952Y-52496428D01*
X141790952Y-52544047D01*
X141767142Y-52615476D01*
X141481428Y-52901190D01*
X141790952Y-52901190D01*
%TO.C,C29*%
X137503571Y-46428571D02*
X137479761Y-46452380D01*
X137408333Y-46476190D01*
X137360714Y-46476190D01*
X137289285Y-46452380D01*
X137241666Y-46404761D01*
X137217857Y-46357142D01*
X137194047Y-46261904D01*
X137194047Y-46190476D01*
X137217857Y-46095238D01*
X137241666Y-46047619D01*
X137289285Y-46000000D01*
X137360714Y-45976190D01*
X137408333Y-45976190D01*
X137479761Y-46000000D01*
X137503571Y-46023809D01*
X137694047Y-46023809D02*
X137717857Y-46000000D01*
X137765476Y-45976190D01*
X137884523Y-45976190D01*
X137932142Y-46000000D01*
X137955952Y-46023809D01*
X137979761Y-46071428D01*
X137979761Y-46119047D01*
X137955952Y-46190476D01*
X137670238Y-46476190D01*
X137979761Y-46476190D01*
X138217857Y-46476190D02*
X138313095Y-46476190D01*
X138360714Y-46452380D01*
X138384523Y-46428571D01*
X138432142Y-46357142D01*
X138455952Y-46261904D01*
X138455952Y-46071428D01*
X138432142Y-46023809D01*
X138408333Y-46000000D01*
X138360714Y-45976190D01*
X138265476Y-45976190D01*
X138217857Y-46000000D01*
X138194047Y-46023809D01*
X138170238Y-46071428D01*
X138170238Y-46190476D01*
X138194047Y-46238095D01*
X138217857Y-46261904D01*
X138265476Y-46285714D01*
X138360714Y-46285714D01*
X138408333Y-46261904D01*
X138432142Y-46238095D01*
X138455952Y-46190476D01*
%TO.C,R17*%
X133353571Y-45576190D02*
X133186904Y-45338095D01*
X133067857Y-45576190D02*
X133067857Y-45076190D01*
X133258333Y-45076190D01*
X133305952Y-45100000D01*
X133329761Y-45123809D01*
X133353571Y-45171428D01*
X133353571Y-45242857D01*
X133329761Y-45290476D01*
X133305952Y-45314285D01*
X133258333Y-45338095D01*
X133067857Y-45338095D01*
X133829761Y-45576190D02*
X133544047Y-45576190D01*
X133686904Y-45576190D02*
X133686904Y-45076190D01*
X133639285Y-45147619D01*
X133591666Y-45195238D01*
X133544047Y-45219047D01*
X133996428Y-45076190D02*
X134329761Y-45076190D01*
X134115476Y-45576190D01*
D11*
%TO.C,U1*%
X174188095Y-75002380D02*
X174188095Y-75811904D01*
X174235714Y-75907142D01*
X174283333Y-75954761D01*
X174378571Y-76002380D01*
X174569047Y-76002380D01*
X174664285Y-75954761D01*
X174711904Y-75907142D01*
X174759523Y-75811904D01*
X174759523Y-75002380D01*
X175759523Y-76002380D02*
X175188095Y-76002380D01*
X175473809Y-76002380D02*
X175473809Y-75002380D01*
X175378571Y-75145238D01*
X175283333Y-75240476D01*
X175188095Y-75288095D01*
D10*
%TO.C,R1*%
X185876190Y-73583333D02*
X185638095Y-73750000D01*
X185876190Y-73869047D02*
X185376190Y-73869047D01*
X185376190Y-73678571D01*
X185400000Y-73630952D01*
X185423809Y-73607142D01*
X185471428Y-73583333D01*
X185542857Y-73583333D01*
X185590476Y-73607142D01*
X185614285Y-73630952D01*
X185638095Y-73678571D01*
X185638095Y-73869047D01*
X185876190Y-73107142D02*
X185876190Y-73392857D01*
X185876190Y-73250000D02*
X185376190Y-73250000D01*
X185447619Y-73297619D01*
X185495238Y-73345238D01*
X185519047Y-73392857D01*
D11*
%TO.C,Q1*%
X136233333Y-48908333D02*
X136166666Y-48875000D01*
X136100000Y-48808333D01*
X136000000Y-48708333D01*
X135933333Y-48675000D01*
X135866666Y-48675000D01*
X135900000Y-48841666D02*
X135833333Y-48808333D01*
X135766666Y-48741666D01*
X135733333Y-48608333D01*
X135733333Y-48375000D01*
X135766666Y-48241666D01*
X135833333Y-48175000D01*
X135900000Y-48141666D01*
X136033333Y-48141666D01*
X136100000Y-48175000D01*
X136166666Y-48241666D01*
X136200000Y-48375000D01*
X136200000Y-48608333D01*
X136166666Y-48741666D01*
X136100000Y-48808333D01*
X136033333Y-48841666D01*
X135900000Y-48841666D01*
X136866666Y-48841666D02*
X136466666Y-48841666D01*
X136666666Y-48841666D02*
X136666666Y-48141666D01*
X136600000Y-48241666D01*
X136533333Y-48308333D01*
X136466666Y-48341666D01*
D10*
%TO.C,C20*%
X170281071Y-69578571D02*
X170257261Y-69602380D01*
X170185833Y-69626190D01*
X170138214Y-69626190D01*
X170066785Y-69602380D01*
X170019166Y-69554761D01*
X169995357Y-69507142D01*
X169971547Y-69411904D01*
X169971547Y-69340476D01*
X169995357Y-69245238D01*
X170019166Y-69197619D01*
X170066785Y-69150000D01*
X170138214Y-69126190D01*
X170185833Y-69126190D01*
X170257261Y-69150000D01*
X170281071Y-69173809D01*
X170471547Y-69173809D02*
X170495357Y-69150000D01*
X170542976Y-69126190D01*
X170662023Y-69126190D01*
X170709642Y-69150000D01*
X170733452Y-69173809D01*
X170757261Y-69221428D01*
X170757261Y-69269047D01*
X170733452Y-69340476D01*
X170447738Y-69626190D01*
X170757261Y-69626190D01*
X171066785Y-69126190D02*
X171114404Y-69126190D01*
X171162023Y-69150000D01*
X171185833Y-69173809D01*
X171209642Y-69221428D01*
X171233452Y-69316666D01*
X171233452Y-69435714D01*
X171209642Y-69530952D01*
X171185833Y-69578571D01*
X171162023Y-69602380D01*
X171114404Y-69626190D01*
X171066785Y-69626190D01*
X171019166Y-69602380D01*
X170995357Y-69578571D01*
X170971547Y-69530952D01*
X170947738Y-69435714D01*
X170947738Y-69316666D01*
X170971547Y-69221428D01*
X170995357Y-69173809D01*
X171019166Y-69150000D01*
X171066785Y-69126190D01*
%TO.C,U5*%
X180694047Y-78076190D02*
X180694047Y-78480952D01*
X180717857Y-78528571D01*
X180741666Y-78552380D01*
X180789285Y-78576190D01*
X180884523Y-78576190D01*
X180932142Y-78552380D01*
X180955952Y-78528571D01*
X180979761Y-78480952D01*
X180979761Y-78076190D01*
X181455952Y-78076190D02*
X181217857Y-78076190D01*
X181194047Y-78314285D01*
X181217857Y-78290476D01*
X181265476Y-78266666D01*
X181384523Y-78266666D01*
X181432142Y-78290476D01*
X181455952Y-78314285D01*
X181479761Y-78361904D01*
X181479761Y-78480952D01*
X181455952Y-78528571D01*
X181432142Y-78552380D01*
X181384523Y-78576190D01*
X181265476Y-78576190D01*
X181217857Y-78552380D01*
X181194047Y-78528571D01*
D11*
%TO.C,J4*%
X193952380Y-54583333D02*
X194666666Y-54583333D01*
X194809523Y-54630952D01*
X194904761Y-54726190D01*
X194952380Y-54869047D01*
X194952380Y-54964285D01*
X194285714Y-53678571D02*
X194952380Y-53678571D01*
X193904761Y-53916666D02*
X194619047Y-54154761D01*
X194619047Y-53535714D01*
D10*
%TO.C,C25*%
X175031071Y-62228571D02*
X175007261Y-62252380D01*
X174935833Y-62276190D01*
X174888214Y-62276190D01*
X174816785Y-62252380D01*
X174769166Y-62204761D01*
X174745357Y-62157142D01*
X174721547Y-62061904D01*
X174721547Y-61990476D01*
X174745357Y-61895238D01*
X174769166Y-61847619D01*
X174816785Y-61800000D01*
X174888214Y-61776190D01*
X174935833Y-61776190D01*
X175007261Y-61800000D01*
X175031071Y-61823809D01*
X175221547Y-61823809D02*
X175245357Y-61800000D01*
X175292976Y-61776190D01*
X175412023Y-61776190D01*
X175459642Y-61800000D01*
X175483452Y-61823809D01*
X175507261Y-61871428D01*
X175507261Y-61919047D01*
X175483452Y-61990476D01*
X175197738Y-62276190D01*
X175507261Y-62276190D01*
X175959642Y-61776190D02*
X175721547Y-61776190D01*
X175697738Y-62014285D01*
X175721547Y-61990476D01*
X175769166Y-61966666D01*
X175888214Y-61966666D01*
X175935833Y-61990476D01*
X175959642Y-62014285D01*
X175983452Y-62061904D01*
X175983452Y-62180952D01*
X175959642Y-62228571D01*
X175935833Y-62252380D01*
X175888214Y-62276190D01*
X175769166Y-62276190D01*
X175721547Y-62252380D01*
X175697738Y-62228571D01*
%TO.C,C2*%
X179491666Y-76778571D02*
X179467857Y-76802380D01*
X179396428Y-76826190D01*
X179348809Y-76826190D01*
X179277380Y-76802380D01*
X179229761Y-76754761D01*
X179205952Y-76707142D01*
X179182142Y-76611904D01*
X179182142Y-76540476D01*
X179205952Y-76445238D01*
X179229761Y-76397619D01*
X179277380Y-76350000D01*
X179348809Y-76326190D01*
X179396428Y-76326190D01*
X179467857Y-76350000D01*
X179491666Y-76373809D01*
X179682142Y-76373809D02*
X179705952Y-76350000D01*
X179753571Y-76326190D01*
X179872619Y-76326190D01*
X179920238Y-76350000D01*
X179944047Y-76373809D01*
X179967857Y-76421428D01*
X179967857Y-76469047D01*
X179944047Y-76540476D01*
X179658333Y-76826190D01*
X179967857Y-76826190D01*
%TO.C,C23*%
X140833571Y-51453571D02*
X140809761Y-51477380D01*
X140738333Y-51501190D01*
X140690714Y-51501190D01*
X140619285Y-51477380D01*
X140571666Y-51429761D01*
X140547857Y-51382142D01*
X140524047Y-51286904D01*
X140524047Y-51215476D01*
X140547857Y-51120238D01*
X140571666Y-51072619D01*
X140619285Y-51025000D01*
X140690714Y-51001190D01*
X140738333Y-51001190D01*
X140809761Y-51025000D01*
X140833571Y-51048809D01*
X141024047Y-51048809D02*
X141047857Y-51025000D01*
X141095476Y-51001190D01*
X141214523Y-51001190D01*
X141262142Y-51025000D01*
X141285952Y-51048809D01*
X141309761Y-51096428D01*
X141309761Y-51144047D01*
X141285952Y-51215476D01*
X141000238Y-51501190D01*
X141309761Y-51501190D01*
X141476428Y-51001190D02*
X141785952Y-51001190D01*
X141619285Y-51191666D01*
X141690714Y-51191666D01*
X141738333Y-51215476D01*
X141762142Y-51239285D01*
X141785952Y-51286904D01*
X141785952Y-51405952D01*
X141762142Y-51453571D01*
X141738333Y-51477380D01*
X141690714Y-51501190D01*
X141547857Y-51501190D01*
X141500238Y-51477380D01*
X141476428Y-51453571D01*
D11*
%TO.C,D8*%
X135061904Y-43152380D02*
X135061904Y-42152380D01*
X135300000Y-42152380D01*
X135442857Y-42200000D01*
X135538095Y-42295238D01*
X135585714Y-42390476D01*
X135633333Y-42580952D01*
X135633333Y-42723809D01*
X135585714Y-42914285D01*
X135538095Y-43009523D01*
X135442857Y-43104761D01*
X135300000Y-43152380D01*
X135061904Y-43152380D01*
X136204761Y-42580952D02*
X136109523Y-42533333D01*
X136061904Y-42485714D01*
X136014285Y-42390476D01*
X136014285Y-42342857D01*
X136061904Y-42247619D01*
X136109523Y-42200000D01*
X136204761Y-42152380D01*
X136395238Y-42152380D01*
X136490476Y-42200000D01*
X136538095Y-42247619D01*
X136585714Y-42342857D01*
X136585714Y-42390476D01*
X136538095Y-42485714D01*
X136490476Y-42533333D01*
X136395238Y-42580952D01*
X136204761Y-42580952D01*
X136109523Y-42628571D01*
X136061904Y-42676190D01*
X136014285Y-42771428D01*
X136014285Y-42961904D01*
X136061904Y-43057142D01*
X136109523Y-43104761D01*
X136204761Y-43152380D01*
X136395238Y-43152380D01*
X136490476Y-43104761D01*
X136538095Y-43057142D01*
X136585714Y-42961904D01*
X136585714Y-42771428D01*
X136538095Y-42676190D01*
X136490476Y-42628571D01*
X136395238Y-42580952D01*
D10*
%TO.C,R21*%
X167283332Y-58021428D02*
X167045237Y-58188095D01*
X167283332Y-58307142D02*
X166783332Y-58307142D01*
X166783332Y-58116666D01*
X166807142Y-58069047D01*
X166830951Y-58045238D01*
X166878570Y-58021428D01*
X166949999Y-58021428D01*
X166997618Y-58045238D01*
X167021427Y-58069047D01*
X167045237Y-58116666D01*
X167045237Y-58307142D01*
X166830951Y-57830952D02*
X166807142Y-57807142D01*
X166783332Y-57759523D01*
X166783332Y-57640476D01*
X166807142Y-57592857D01*
X166830951Y-57569047D01*
X166878570Y-57545238D01*
X166926189Y-57545238D01*
X166997618Y-57569047D01*
X167283332Y-57854761D01*
X167283332Y-57545238D01*
X167283332Y-57069047D02*
X167283332Y-57354761D01*
X167283332Y-57211904D02*
X166783332Y-57211904D01*
X166854761Y-57259523D01*
X166902380Y-57307142D01*
X166926189Y-57354761D01*
%TO.C,R23*%
X169654760Y-58021428D02*
X169416665Y-58188095D01*
X169654760Y-58307142D02*
X169154760Y-58307142D01*
X169154760Y-58116666D01*
X169178570Y-58069047D01*
X169202379Y-58045238D01*
X169249998Y-58021428D01*
X169321427Y-58021428D01*
X169369046Y-58045238D01*
X169392855Y-58069047D01*
X169416665Y-58116666D01*
X169416665Y-58307142D01*
X169202379Y-57830952D02*
X169178570Y-57807142D01*
X169154760Y-57759523D01*
X169154760Y-57640476D01*
X169178570Y-57592857D01*
X169202379Y-57569047D01*
X169249998Y-57545238D01*
X169297617Y-57545238D01*
X169369046Y-57569047D01*
X169654760Y-57854761D01*
X169654760Y-57545238D01*
X169154760Y-57378571D02*
X169154760Y-57069047D01*
X169345236Y-57235714D01*
X169345236Y-57164285D01*
X169369046Y-57116666D01*
X169392855Y-57092857D01*
X169440474Y-57069047D01*
X169559522Y-57069047D01*
X169607141Y-57092857D01*
X169630950Y-57116666D01*
X169654760Y-57164285D01*
X169654760Y-57307142D01*
X169630950Y-57354761D01*
X169607141Y-57378571D01*
%TO.C,C21*%
X140833571Y-50078571D02*
X140809761Y-50102380D01*
X140738333Y-50126190D01*
X140690714Y-50126190D01*
X140619285Y-50102380D01*
X140571666Y-50054761D01*
X140547857Y-50007142D01*
X140524047Y-49911904D01*
X140524047Y-49840476D01*
X140547857Y-49745238D01*
X140571666Y-49697619D01*
X140619285Y-49650000D01*
X140690714Y-49626190D01*
X140738333Y-49626190D01*
X140809761Y-49650000D01*
X140833571Y-49673809D01*
X141024047Y-49673809D02*
X141047857Y-49650000D01*
X141095476Y-49626190D01*
X141214523Y-49626190D01*
X141262142Y-49650000D01*
X141285952Y-49673809D01*
X141309761Y-49721428D01*
X141309761Y-49769047D01*
X141285952Y-49840476D01*
X141000238Y-50126190D01*
X141309761Y-50126190D01*
X141785952Y-50126190D02*
X141500238Y-50126190D01*
X141643095Y-50126190D02*
X141643095Y-49626190D01*
X141595476Y-49697619D01*
X141547857Y-49745238D01*
X141500238Y-49769047D01*
%TO.C,R22*%
X168469046Y-58021428D02*
X168230951Y-58188095D01*
X168469046Y-58307142D02*
X167969046Y-58307142D01*
X167969046Y-58116666D01*
X167992856Y-58069047D01*
X168016665Y-58045238D01*
X168064284Y-58021428D01*
X168135713Y-58021428D01*
X168183332Y-58045238D01*
X168207141Y-58069047D01*
X168230951Y-58116666D01*
X168230951Y-58307142D01*
X168016665Y-57830952D02*
X167992856Y-57807142D01*
X167969046Y-57759523D01*
X167969046Y-57640476D01*
X167992856Y-57592857D01*
X168016665Y-57569047D01*
X168064284Y-57545238D01*
X168111903Y-57545238D01*
X168183332Y-57569047D01*
X168469046Y-57854761D01*
X168469046Y-57545238D01*
X168016665Y-57354761D02*
X167992856Y-57330952D01*
X167969046Y-57283333D01*
X167969046Y-57164285D01*
X167992856Y-57116666D01*
X168016665Y-57092857D01*
X168064284Y-57069047D01*
X168111903Y-57069047D01*
X168183332Y-57092857D01*
X168469046Y-57378571D01*
X168469046Y-57069047D01*
%TO.C,C33*%
X174731071Y-70578571D02*
X174707261Y-70602380D01*
X174635833Y-70626190D01*
X174588214Y-70626190D01*
X174516785Y-70602380D01*
X174469166Y-70554761D01*
X174445357Y-70507142D01*
X174421547Y-70411904D01*
X174421547Y-70340476D01*
X174445357Y-70245238D01*
X174469166Y-70197619D01*
X174516785Y-70150000D01*
X174588214Y-70126190D01*
X174635833Y-70126190D01*
X174707261Y-70150000D01*
X174731071Y-70173809D01*
X174897738Y-70126190D02*
X175207261Y-70126190D01*
X175040595Y-70316666D01*
X175112023Y-70316666D01*
X175159642Y-70340476D01*
X175183452Y-70364285D01*
X175207261Y-70411904D01*
X175207261Y-70530952D01*
X175183452Y-70578571D01*
X175159642Y-70602380D01*
X175112023Y-70626190D01*
X174969166Y-70626190D01*
X174921547Y-70602380D01*
X174897738Y-70578571D01*
X175373928Y-70126190D02*
X175683452Y-70126190D01*
X175516785Y-70316666D01*
X175588214Y-70316666D01*
X175635833Y-70340476D01*
X175659642Y-70364285D01*
X175683452Y-70411904D01*
X175683452Y-70530952D01*
X175659642Y-70578571D01*
X175635833Y-70602380D01*
X175588214Y-70626190D01*
X175445357Y-70626190D01*
X175397738Y-70602380D01*
X175373928Y-70578571D01*
%TO.C,C22*%
X178031071Y-69921428D02*
X178054880Y-69945238D01*
X178078690Y-70016666D01*
X178078690Y-70064285D01*
X178054880Y-70135714D01*
X178007261Y-70183333D01*
X177959642Y-70207142D01*
X177864404Y-70230952D01*
X177792976Y-70230952D01*
X177697738Y-70207142D01*
X177650119Y-70183333D01*
X177602500Y-70135714D01*
X177578690Y-70064285D01*
X177578690Y-70016666D01*
X177602500Y-69945238D01*
X177626309Y-69921428D01*
X177626309Y-69730952D02*
X177602500Y-69707142D01*
X177578690Y-69659523D01*
X177578690Y-69540476D01*
X177602500Y-69492857D01*
X177626309Y-69469047D01*
X177673928Y-69445238D01*
X177721547Y-69445238D01*
X177792976Y-69469047D01*
X178078690Y-69754761D01*
X178078690Y-69445238D01*
X177626309Y-69254761D02*
X177602500Y-69230952D01*
X177578690Y-69183333D01*
X177578690Y-69064285D01*
X177602500Y-69016666D01*
X177626309Y-68992857D01*
X177673928Y-68969047D01*
X177721547Y-68969047D01*
X177792976Y-68992857D01*
X178078690Y-69278571D01*
X178078690Y-68969047D01*
%TO.C,R25*%
X172026190Y-58021428D02*
X171788095Y-58188095D01*
X172026190Y-58307142D02*
X171526190Y-58307142D01*
X171526190Y-58116666D01*
X171550000Y-58069047D01*
X171573809Y-58045238D01*
X171621428Y-58021428D01*
X171692857Y-58021428D01*
X171740476Y-58045238D01*
X171764285Y-58069047D01*
X171788095Y-58116666D01*
X171788095Y-58307142D01*
X171573809Y-57830952D02*
X171550000Y-57807142D01*
X171526190Y-57759523D01*
X171526190Y-57640476D01*
X171550000Y-57592857D01*
X171573809Y-57569047D01*
X171621428Y-57545238D01*
X171669047Y-57545238D01*
X171740476Y-57569047D01*
X172026190Y-57854761D01*
X172026190Y-57545238D01*
X171526190Y-57092857D02*
X171526190Y-57330952D01*
X171764285Y-57354761D01*
X171740476Y-57330952D01*
X171716666Y-57283333D01*
X171716666Y-57164285D01*
X171740476Y-57116666D01*
X171764285Y-57092857D01*
X171811904Y-57069047D01*
X171930952Y-57069047D01*
X171978571Y-57092857D01*
X172002380Y-57116666D01*
X172026190Y-57164285D01*
X172026190Y-57283333D01*
X172002380Y-57330952D01*
X171978571Y-57354761D01*
D11*
%TO.C,U2*%
X151892380Y-55876904D02*
X152701904Y-55876904D01*
X152797142Y-55829285D01*
X152844761Y-55781666D01*
X152892380Y-55686428D01*
X152892380Y-55495952D01*
X152844761Y-55400714D01*
X152797142Y-55353095D01*
X152701904Y-55305476D01*
X151892380Y-55305476D01*
X151987619Y-54876904D02*
X151940000Y-54829285D01*
X151892380Y-54734047D01*
X151892380Y-54495952D01*
X151940000Y-54400714D01*
X151987619Y-54353095D01*
X152082857Y-54305476D01*
X152178095Y-54305476D01*
X152320952Y-54353095D01*
X152892380Y-54924523D01*
X152892380Y-54305476D01*
%TO.C,D7*%
X143152380Y-45663095D02*
X142152380Y-45663095D01*
X142152380Y-45425000D01*
X142200000Y-45282142D01*
X142295238Y-45186904D01*
X142390476Y-45139285D01*
X142580952Y-45091666D01*
X142723809Y-45091666D01*
X142914285Y-45139285D01*
X143009523Y-45186904D01*
X143104761Y-45282142D01*
X143152380Y-45425000D01*
X143152380Y-45663095D01*
X142152380Y-44758333D02*
X142152380Y-44091666D01*
X143152380Y-44520238D01*
D10*
%TO.C,R11*%
X134978571Y-61226190D02*
X134811904Y-60988095D01*
X134692857Y-61226190D02*
X134692857Y-60726190D01*
X134883333Y-60726190D01*
X134930952Y-60750000D01*
X134954761Y-60773809D01*
X134978571Y-60821428D01*
X134978571Y-60892857D01*
X134954761Y-60940476D01*
X134930952Y-60964285D01*
X134883333Y-60988095D01*
X134692857Y-60988095D01*
X135454761Y-61226190D02*
X135169047Y-61226190D01*
X135311904Y-61226190D02*
X135311904Y-60726190D01*
X135264285Y-60797619D01*
X135216666Y-60845238D01*
X135169047Y-60869047D01*
X135930952Y-61226190D02*
X135645238Y-61226190D01*
X135788095Y-61226190D02*
X135788095Y-60726190D01*
X135740476Y-60797619D01*
X135692857Y-60845238D01*
X135645238Y-60869047D01*
D13*
%TO.C,C6*%
X138883335Y-73753750D02*
X138651665Y-73753750D01*
X138883335Y-73033750D02*
X138651665Y-73033750D01*
%TO.C,C8*%
X138883335Y-72760000D02*
X138651665Y-72760000D01*
X138883335Y-72040000D02*
X138651665Y-72040000D01*
%TO.C,C11*%
X143392086Y-69618570D02*
X143160416Y-69618570D01*
X143392086Y-70338570D02*
X143160416Y-70338570D01*
%TO.C,C12*%
X143392086Y-68582856D02*
X143160416Y-68582856D01*
X143392086Y-69302856D02*
X143160416Y-69302856D01*
%TO.C,C13*%
X143383335Y-67547142D02*
X143151665Y-67547142D01*
X143383335Y-68267142D02*
X143151665Y-68267142D01*
%TO.C,C14*%
X143383335Y-67231428D02*
X143151665Y-67231428D01*
X143383335Y-66511428D02*
X143151665Y-66511428D01*
%TO.C,C15*%
X143383335Y-66195714D02*
X143151665Y-66195714D01*
X143383335Y-65475714D02*
X143151665Y-65475714D01*
%TO.C,C16*%
X143383335Y-65160000D02*
X143151665Y-65160000D01*
X143383335Y-64440000D02*
X143151665Y-64440000D01*
%TO.C,C17*%
X159040835Y-79542500D02*
X158809165Y-79542500D01*
X159040835Y-78822500D02*
X158809165Y-78822500D01*
%TO.C,C18*%
X159065835Y-72510000D02*
X158834165Y-72510000D01*
X159065835Y-71790000D02*
X158834165Y-71790000D01*
%TO.C,C19*%
X133140000Y-80434165D02*
X133140000Y-80665835D01*
X133860000Y-80434165D02*
X133860000Y-80665835D01*
%TO.C,C26*%
X174734165Y-79160000D02*
X174965835Y-79160000D01*
X174734165Y-78440000D02*
X174965835Y-78440000D01*
D14*
%TO.C,D2*%
X165165000Y-66000000D02*
G75*
G03*
X165165000Y-66000000I-50000J0D01*
G01*
%TO.C,D3*%
X165165000Y-67600000D02*
G75*
G03*
X165165000Y-67600000I-50000J0D01*
G01*
%TO.C,D4*%
X165165000Y-69200000D02*
G75*
G03*
X165165000Y-69200000I-50000J0D01*
G01*
D13*
%TO.C,P4*%
X129400000Y-48550000D02*
G75*
G03*
X129400000Y-48550000I-1200000J0D01*
G01*
%TO.C,P1*%
X127000000Y-55614000D02*
X129400000Y-55614000D01*
X129400000Y-58014000D02*
X127000000Y-58014000D01*
X127000000Y-58014000D02*
X127000000Y-55614000D01*
X129400000Y-55614000D02*
X129400000Y-58014000D01*
%TO.C,P2*%
X129400000Y-60946000D02*
G75*
G03*
X129400000Y-60946000I-1200000J0D01*
G01*
%TO.C,R5*%
X172872500Y-60032379D02*
X172872500Y-60367621D01*
X173632500Y-60032379D02*
X173632500Y-60367621D01*
%TO.C,R6*%
X169934879Y-62480000D02*
X170270121Y-62480000D01*
X169934879Y-61720000D02*
X170270121Y-61720000D01*
%TO.C,R7*%
X132970000Y-87285121D02*
X132970000Y-86949879D01*
X133730000Y-87285121D02*
X133730000Y-86949879D01*
%TO.C,R13*%
X166082379Y-67220000D02*
X166417621Y-67220000D01*
X166082379Y-67980000D02*
X166417621Y-67980000D01*
%TO.C,R14*%
X166082379Y-68820000D02*
X166417621Y-68820000D01*
X166082379Y-69580000D02*
X166417621Y-69580000D01*
%TO.C,U3*%
X152460000Y-78310000D02*
X152460000Y-78960000D01*
X152460000Y-78960000D02*
X151810000Y-78960000D01*
X145240000Y-78310000D02*
X145240000Y-78960000D01*
X145240000Y-71740000D02*
X145890000Y-71740000D01*
X152460000Y-72390000D02*
X152460000Y-71740000D01*
X152460000Y-71740000D02*
X151810000Y-71740000D01*
X145240000Y-72390000D02*
X145240000Y-71740000D01*
%TO.C,U4*%
X139925000Y-80892500D02*
X139665000Y-80892500D01*
X134735000Y-86342500D02*
X134735000Y-88017500D01*
X139925000Y-83617500D02*
X139925000Y-80892500D01*
X134475000Y-86342500D02*
X134735000Y-86342500D01*
X134475000Y-83617500D02*
X134475000Y-80892500D01*
X134475000Y-80892500D02*
X134735000Y-80892500D01*
X134475000Y-83617500D02*
X134475000Y-86342500D01*
X139925000Y-83617500D02*
X139925000Y-86342500D01*
X139925000Y-86342500D02*
X139665000Y-86342500D01*
%TO.C,Y1*%
X157673750Y-78182500D02*
X157673750Y-73182500D01*
X161093750Y-78182500D02*
X161093750Y-73182500D01*
%TO.C,P3*%
X129400000Y-51482000D02*
X129400000Y-53882000D01*
X127000000Y-53882000D02*
X127000000Y-51482000D01*
X129400000Y-53882000D02*
X127000000Y-53882000D01*
X127000000Y-51482000D02*
X129400000Y-51482000D01*
%TO.C,P6*%
X129400000Y-65078000D02*
G75*
G03*
X129400000Y-65078000I-1200000J0D01*
G01*
%TO.C,P5*%
X129400000Y-68010000D02*
X129400000Y-70410000D01*
X127000000Y-68010000D02*
X129400000Y-68010000D01*
X127000000Y-70410000D02*
X127000000Y-68010000D01*
X129400000Y-70410000D02*
X127000000Y-70410000D01*
%TO.C,C9*%
X143383335Y-71690000D02*
X143151665Y-71690000D01*
X143383335Y-72410000D02*
X143151665Y-72410000D01*
%TO.C,R3*%
X138599879Y-76785000D02*
X138935121Y-76785000D01*
X138599879Y-76025000D02*
X138935121Y-76025000D01*
%TO.C,SW1*%
X126750000Y-86450000D02*
X131150000Y-86450000D01*
X131150000Y-85320000D02*
X131150000Y-84180000D01*
X126750000Y-84180000D02*
X126750000Y-85320000D01*
X131150000Y-86450000D02*
X131150000Y-86330000D01*
X131150000Y-83170000D02*
X131150000Y-83050000D01*
X126750000Y-83050000D02*
X126750000Y-83170000D01*
X126750000Y-86330000D02*
X126750000Y-86450000D01*
X131150000Y-83050000D02*
X126750000Y-83050000D01*
%TO.C,J2*%
X130740000Y-74390000D02*
X131190000Y-74390000D01*
X126160000Y-72390000D02*
X126560000Y-72390000D01*
X128530000Y-72390000D02*
X130510000Y-72390000D01*
X126560000Y-79910000D02*
X126160000Y-79910000D01*
X130510000Y-72390000D02*
X130510000Y-72810000D01*
X128530000Y-79910000D02*
X130510000Y-79910000D01*
X130510000Y-79910000D02*
X130510000Y-79490000D01*
X131190000Y-74840000D02*
X131190000Y-74390000D01*
%TO.C,R9*%
X156220000Y-76167621D02*
X156220000Y-75832379D01*
X156980000Y-76167621D02*
X156980000Y-75832379D01*
%TO.C,C10*%
X143392086Y-70654284D02*
X143160416Y-70654284D01*
X143392086Y-71374284D02*
X143160416Y-71374284D01*
%TO.C,JP3*%
X150850000Y-63800000D02*
X150850000Y-65200000D01*
X150150000Y-65900000D02*
X149550000Y-65900000D01*
X148850000Y-65200000D02*
X148850000Y-63800000D01*
X149550000Y-63100000D02*
X150150000Y-63100000D01*
X150150000Y-65900000D02*
G75*
G03*
X150850000Y-65200000I1J699999D01*
G01*
X149550000Y-63100000D02*
G75*
G03*
X148850000Y-63800000I-1J-699999D01*
G01*
X148850000Y-65200000D02*
G75*
G03*
X149550000Y-65900000I699999J-1D01*
G01*
X150850000Y-63800000D02*
G75*
G03*
X150150000Y-63100000I-699999J1D01*
G01*
%TO.C,JP2*%
X146950000Y-63100000D02*
X147550000Y-63100000D01*
X148250000Y-63800000D02*
X148250000Y-65200000D01*
X147550000Y-65900000D02*
X146950000Y-65900000D01*
X146250000Y-65200000D02*
X146250000Y-63800000D01*
X146950000Y-63100000D02*
G75*
G03*
X146250000Y-63800000I-1J-699999D01*
G01*
X148250000Y-63800000D02*
G75*
G03*
X147550000Y-63100000I-699999J1D01*
G01*
X147550000Y-65900000D02*
G75*
G03*
X148250000Y-65200000I1J699999D01*
G01*
X146250000Y-65200000D02*
G75*
G03*
X146950000Y-65900000I699999J-1D01*
G01*
%TO.C,SW2*%
X139200000Y-93350000D02*
X139200000Y-93230000D01*
X134800000Y-89950000D02*
X134800000Y-90070000D01*
X134800000Y-91080000D02*
X134800000Y-92220000D01*
X134800000Y-93350000D02*
X139200000Y-93350000D01*
X139200000Y-92220000D02*
X139200000Y-91080000D01*
X139200000Y-90070000D02*
X139200000Y-89950000D01*
X139200000Y-89950000D02*
X134800000Y-89950000D01*
X134800000Y-93230000D02*
X134800000Y-93350000D01*
%TO.C,C7*%
X138883335Y-74027500D02*
X138651665Y-74027500D01*
X138883335Y-74747500D02*
X138651665Y-74747500D01*
%TO.C,R12*%
X166082379Y-65620000D02*
X166417621Y-65620000D01*
X166082379Y-66380000D02*
X166417621Y-66380000D01*
%TO.C,R15*%
X137132379Y-66120000D02*
X137467621Y-66120000D01*
X137132379Y-66880000D02*
X137467621Y-66880000D01*
%TO.C,R16*%
X137132379Y-63920000D02*
X137467621Y-63920000D01*
X137132379Y-64680000D02*
X137467621Y-64680000D01*
D14*
%TO.C,D5*%
X136085000Y-67600000D02*
G75*
G03*
X136085000Y-67600000I-50000J0D01*
G01*
%TO.C,D6*%
X136085000Y-65400000D02*
G75*
G03*
X136085000Y-65400000I-50000J0D01*
G01*
D13*
%TO.C,R4*%
X138599879Y-75771250D02*
X138935121Y-75771250D01*
X138599879Y-75011250D02*
X138935121Y-75011250D01*
%TO.C,U7*%
X133350000Y-76800000D02*
X135250000Y-76800000D01*
X134950000Y-75000000D02*
X133350000Y-75000000D01*
D11*
%TO.C,U8*%
X176202500Y-67550000D02*
X175677500Y-67550000D01*
X176202500Y-63250000D02*
X176202500Y-63775000D01*
X171902500Y-67550000D02*
X172427500Y-67550000D01*
X171902500Y-67550000D02*
X171902500Y-67025000D01*
X176202500Y-63250000D02*
X175677500Y-63250000D01*
X176202500Y-67550000D02*
X176202500Y-67025000D01*
X171902500Y-63250000D02*
X172427500Y-63250000D01*
D13*
%TO.C,C35*%
X185610000Y-66115835D02*
X185610000Y-65884165D01*
X184890000Y-66115835D02*
X184890000Y-65884165D01*
%TO.C,kibuzzard-6355570F*%
G36*
X168429662Y-86865407D02*
G01*
X168157426Y-86865407D01*
X168157426Y-87665182D01*
X168044754Y-87665182D01*
X168044754Y-86865407D01*
X167764703Y-86865407D01*
X167764703Y-86768366D01*
X168441385Y-86768366D01*
X168429662Y-86865407D01*
G37*
G36*
X168884908Y-87112895D02*
G01*
X169082246Y-86768366D01*
X169204687Y-86768366D01*
X168950036Y-87181279D01*
X169235297Y-87665182D01*
X169105692Y-87665182D01*
X168882303Y-87260084D01*
X168656308Y-87665182D01*
X168534518Y-87665182D01*
X168815872Y-87187141D01*
X168558615Y-86768366D01*
X168688221Y-86768366D01*
X168884908Y-87112895D01*
G37*
%TO.C,JP1*%
X147150000Y-60500000D02*
X149950000Y-60500000D01*
X149950000Y-62500000D02*
X147150000Y-62500000D01*
X146500000Y-61800000D02*
X146500000Y-61200000D01*
X150600000Y-61200000D02*
X150600000Y-61800000D01*
X147200000Y-60500000D02*
G75*
G03*
X146500000Y-61200000I-1J-699999D01*
G01*
X150600000Y-61200000D02*
G75*
G03*
X149900000Y-60500000I-699999J1D01*
G01*
X149900000Y-62500000D02*
G75*
G03*
X150600000Y-61800000I1J699999D01*
G01*
X146500000Y-61800000D02*
G75*
G03*
X147200000Y-62500000I699999J-1D01*
G01*
%TO.C,TP12*%
X172950000Y-80850000D02*
G75*
G03*
X172950000Y-80850000I-700000J0D01*
G01*
%TO.C,R19*%
X165065714Y-55867621D02*
X165065714Y-55532379D01*
X164305714Y-55867621D02*
X164305714Y-55532379D01*
%TO.C,kibuzzard-63555D0F*%
G36*
X151221790Y-61683721D02*
G01*
X150911780Y-61683721D01*
X150911780Y-61931046D01*
X150979879Y-61904831D01*
X151047409Y-61897423D01*
X151134030Y-61913522D01*
X151202414Y-61961819D01*
X151235340Y-62010638D01*
X151255096Y-62071234D01*
X151261681Y-62143608D01*
X151253489Y-62217264D01*
X151228913Y-62280947D01*
X151189450Y-62333161D01*
X151136594Y-62372411D01*
X151071700Y-62396987D01*
X150996121Y-62405179D01*
X150929232Y-62398910D01*
X150869894Y-62380104D01*
X150816825Y-62350186D01*
X150768742Y-62310580D01*
X150828009Y-62253593D01*
X150877967Y-62293801D01*
X150934385Y-62317925D01*
X150997261Y-62325967D01*
X151066215Y-62314213D01*
X151118073Y-62278952D01*
X151150556Y-62220897D01*
X151161384Y-62140758D01*
X151156682Y-62084199D01*
X151142578Y-62041031D01*
X151091574Y-61988888D01*
X151020055Y-61973216D01*
X150958509Y-61980054D01*
X150897533Y-61999430D01*
X150820600Y-61999430D01*
X150820600Y-61607358D01*
X151236037Y-61607358D01*
X151221790Y-61683721D01*
G37*
G36*
X152229323Y-62141328D02*
G01*
X152239795Y-62219543D01*
X152271209Y-62275248D01*
X152321714Y-62308586D01*
X152389457Y-62319698D01*
X152457628Y-62308586D01*
X152508276Y-62275248D01*
X152539690Y-62219543D01*
X152550161Y-62141328D01*
X152550161Y-61607358D01*
X152649889Y-61607358D01*
X152649889Y-62137909D01*
X152641911Y-62212420D01*
X152617976Y-62277528D01*
X152579367Y-62331238D01*
X152527366Y-62371556D01*
X152463541Y-62396773D01*
X152389457Y-62405179D01*
X152314306Y-62396702D01*
X152250694Y-62371271D01*
X152199619Y-62330811D01*
X152162079Y-62277243D01*
X152138999Y-62212348D01*
X152131305Y-62137909D01*
X152131305Y-61607358D01*
X152229323Y-61607358D01*
X152229323Y-62141328D01*
G37*
G36*
X151709030Y-62279807D02*
G01*
X151921023Y-61607358D01*
X152020750Y-61607358D01*
X151758039Y-62392072D01*
X151655463Y-62392072D01*
X151392752Y-61607358D01*
X151499318Y-61607358D01*
X151709030Y-62279807D01*
G37*
G36*
X153851179Y-61976635D02*
G01*
X153935804Y-62003704D01*
X153973558Y-62028280D01*
X154004189Y-62062686D01*
X154024491Y-62108703D01*
X154031258Y-62168112D01*
X154024918Y-62227165D01*
X154005899Y-62275533D01*
X153976265Y-62314213D01*
X153938084Y-62344203D01*
X153893207Y-62366214D01*
X153843485Y-62380959D01*
X153790843Y-62389294D01*
X153737204Y-62392072D01*
X153526352Y-62392072D01*
X153526352Y-62310580D01*
X153624939Y-62310580D01*
X153754300Y-62310580D01*
X153832943Y-62300038D01*
X153899903Y-62259577D01*
X153920204Y-62222606D01*
X153926971Y-62171531D01*
X153921202Y-62119032D01*
X153903892Y-62080067D01*
X153842630Y-62035332D01*
X153758859Y-62022795D01*
X153624939Y-62022795D01*
X153624939Y-62310580D01*
X153526352Y-62310580D01*
X153526352Y-61941303D01*
X153624939Y-61941303D01*
X153751451Y-61941303D01*
X153812926Y-61933539D01*
X153858302Y-61910245D01*
X153886297Y-61869713D01*
X153895629Y-61810233D01*
X153885300Y-61753174D01*
X153854313Y-61715349D01*
X153805518Y-61694193D01*
X153741763Y-61687140D01*
X153624939Y-61687140D01*
X153624939Y-61941303D01*
X153526352Y-61941303D01*
X153526352Y-61607358D01*
X153719538Y-61607358D01*
X153770399Y-61609709D01*
X153820405Y-61616761D01*
X153867562Y-61629441D01*
X153909875Y-61648674D01*
X153973416Y-61709365D01*
X153991153Y-61752391D01*
X153997066Y-61805104D01*
X153976265Y-61890870D01*
X153922128Y-61947002D01*
X153851179Y-61976635D01*
G37*
G36*
X153146603Y-61600591D02*
G01*
X153212067Y-61617901D01*
X153269411Y-61646038D01*
X153321198Y-61684291D01*
X153263071Y-61748687D01*
X153219333Y-61716631D01*
X153172461Y-61694549D01*
X153123595Y-61681727D01*
X153073873Y-61677453D01*
X153014037Y-61684576D01*
X152963318Y-61705946D01*
X152928699Y-61741991D01*
X152917159Y-61793137D01*
X152935395Y-61851548D01*
X152996941Y-61896283D01*
X153048087Y-61917084D01*
X153114904Y-61938454D01*
X153173672Y-61958328D01*
X153228024Y-61982619D01*
X153275109Y-62013819D01*
X153312080Y-62054423D01*
X153336014Y-62107207D01*
X153343993Y-62174951D01*
X153335587Y-62238776D01*
X153310370Y-62294624D01*
X153269126Y-62340855D01*
X153212637Y-62375830D01*
X153141759Y-62397842D01*
X153057347Y-62405179D01*
X152975357Y-62398625D01*
X152901487Y-62378965D01*
X152836735Y-62347337D01*
X152782099Y-62304881D01*
X152840796Y-62238776D01*
X152884391Y-62273040D01*
X152934255Y-62299468D01*
X152991954Y-62316350D01*
X153059057Y-62321978D01*
X153148527Y-62306306D01*
X153215771Y-62258437D01*
X153241416Y-62176660D01*
X153226599Y-62111980D01*
X153174171Y-62064111D01*
X153129151Y-62043524D01*
X153069314Y-62023365D01*
X152997012Y-61999074D01*
X152935110Y-61971791D01*
X152884818Y-61939736D01*
X152847349Y-61901127D01*
X152824056Y-61854042D01*
X152816291Y-61796556D01*
X152824412Y-61741136D01*
X152848774Y-61692269D01*
X152887454Y-61651595D01*
X152938529Y-61620750D01*
X153000146Y-61601303D01*
X153070454Y-61594821D01*
X153146603Y-61600591D01*
G37*
%TO.C,kibuzzard-6355583E*%
G36*
X174873881Y-81096964D02*
G01*
X174855835Y-81160853D01*
X174815445Y-81242131D01*
X174759242Y-81303605D01*
X174687224Y-81342285D01*
X174599393Y-81355179D01*
X174511561Y-81342570D01*
X174439544Y-81304745D01*
X174383340Y-81244268D01*
X174342950Y-81163702D01*
X174324904Y-81099876D01*
X174314077Y-81029212D01*
X174310468Y-80951710D01*
X174414184Y-80951710D01*
X174419123Y-81047860D01*
X174433940Y-81127357D01*
X174458634Y-81190201D01*
X174494030Y-81235632D01*
X174540949Y-81262891D01*
X174599393Y-81271978D01*
X174659261Y-81262828D01*
X174706655Y-81235379D01*
X174741576Y-81189631D01*
X174765479Y-81126470D01*
X174779820Y-81046783D01*
X174784601Y-80950570D01*
X174779820Y-80854262D01*
X174765479Y-80774290D01*
X174741576Y-80710654D01*
X174706655Y-80664431D01*
X174659261Y-80636697D01*
X174599393Y-80627453D01*
X174539524Y-80636760D01*
X174492130Y-80664684D01*
X174457210Y-80711224D01*
X174433307Y-80775176D01*
X174418965Y-80855338D01*
X174414184Y-80951710D01*
X174310468Y-80951710D01*
X174314077Y-80875347D01*
X174324904Y-80805063D01*
X174342950Y-80740857D01*
X174383340Y-80659009D01*
X174439544Y-80596964D01*
X174511561Y-80557857D01*
X174599393Y-80544821D01*
X174687224Y-80557501D01*
X174759242Y-80595540D01*
X174815445Y-80656445D01*
X174855835Y-80737723D01*
X174873881Y-80802023D01*
X174884708Y-80872972D01*
X174888318Y-80950570D01*
X174884708Y-81026869D01*
X174873881Y-81096964D01*
G37*
G36*
X173917826Y-81094747D02*
G01*
X174039209Y-80557358D01*
X174178257Y-80557358D01*
X174222707Y-81342072D01*
X174127539Y-81342072D01*
X174103034Y-80932334D01*
X174100541Y-80877056D01*
X174098760Y-80820639D01*
X174097549Y-80766288D01*
X174096766Y-80717207D01*
X174096766Y-80647968D01*
X173964555Y-81201313D01*
X173865398Y-81201313D01*
X173723500Y-80647968D01*
X173725209Y-80718632D01*
X173725494Y-80769351D01*
X173725209Y-80824628D01*
X173724212Y-80880048D01*
X173722360Y-80931194D01*
X173701275Y-81342072D01*
X173608386Y-81342072D01*
X173652836Y-80557358D01*
X173790745Y-80557358D01*
X173917826Y-81094747D01*
G37*
G36*
X176191614Y-80636571D02*
G01*
X176017234Y-80636571D01*
X176017234Y-81262860D01*
X176191614Y-81262860D01*
X176191614Y-81342072D01*
X175742555Y-81342072D01*
X175742555Y-81262860D01*
X175916936Y-81262860D01*
X175916936Y-80636571D01*
X175742555Y-80636571D01*
X175742555Y-80557358D01*
X176191614Y-80557358D01*
X176191614Y-80636571D01*
G37*
G36*
X175355399Y-80550591D02*
G01*
X175420863Y-80567901D01*
X175478206Y-80596038D01*
X175529993Y-80634291D01*
X175471866Y-80698687D01*
X175428129Y-80666631D01*
X175381257Y-80644549D01*
X175332390Y-80631727D01*
X175282669Y-80627453D01*
X175222832Y-80634576D01*
X175172114Y-80655946D01*
X175137494Y-80691991D01*
X175125954Y-80743137D01*
X175144190Y-80801548D01*
X175205736Y-80846283D01*
X175256882Y-80867084D01*
X175323700Y-80888454D01*
X175382468Y-80908328D01*
X175436819Y-80932619D01*
X175483905Y-80963819D01*
X175520875Y-81004423D01*
X175544810Y-81057207D01*
X175552788Y-81124951D01*
X175544383Y-81188776D01*
X175519166Y-81244624D01*
X175477921Y-81290855D01*
X175421433Y-81325830D01*
X175350555Y-81347842D01*
X175266143Y-81355179D01*
X175184152Y-81348625D01*
X175110283Y-81328965D01*
X175045531Y-81297337D01*
X174990895Y-81254881D01*
X175049591Y-81188776D01*
X175093187Y-81223040D01*
X175143050Y-81249468D01*
X175200750Y-81266350D01*
X175267852Y-81271978D01*
X175357322Y-81256306D01*
X175424567Y-81208437D01*
X175450211Y-81126660D01*
X175435395Y-81061980D01*
X175382966Y-81014111D01*
X175337946Y-80993524D01*
X175278110Y-80973365D01*
X175205807Y-80949074D01*
X175143905Y-80921791D01*
X175093614Y-80889736D01*
X175056145Y-80851127D01*
X175032851Y-80804042D01*
X175025087Y-80746556D01*
X175033208Y-80691136D01*
X175057570Y-80642269D01*
X175096250Y-80601595D01*
X175147324Y-80570750D01*
X175208942Y-80551303D01*
X175279250Y-80544821D01*
X175355399Y-80550591D01*
G37*
%TO.C,C24*%
X145792164Y-58540000D02*
X146007836Y-58540000D01*
X145792164Y-59260000D02*
X146007836Y-59260000D01*
%TO.C,kibuzzard-63555640*%
G36*
X157616134Y-83428351D02*
G01*
X157147862Y-83456356D01*
X157084688Y-83459206D01*
X157020211Y-83461241D01*
X156958095Y-83462625D01*
X156902003Y-83463521D01*
X156822873Y-83463521D01*
X157455267Y-83614618D01*
X157455267Y-83727941D01*
X156822873Y-83890110D01*
X156903631Y-83888156D01*
X156961596Y-83887831D01*
X157024770Y-83888156D01*
X157088107Y-83889296D01*
X157146560Y-83891413D01*
X157616134Y-83915510D01*
X157616134Y-84021669D01*
X156719319Y-83970869D01*
X156719319Y-83813259D01*
X157333478Y-83668023D01*
X156719319Y-83529300D01*
X156719319Y-83370387D01*
X157616134Y-83319587D01*
X157616134Y-83428351D01*
G37*
G36*
X157616134Y-84204028D02*
G01*
X157616134Y-84352521D01*
X156939452Y-84455423D01*
X157616134Y-84558977D01*
X157616134Y-84710726D01*
X156719319Y-84837074D01*
X156719319Y-84723751D01*
X157491739Y-84628013D01*
X156823524Y-84520551D01*
X156823524Y-84381828D01*
X157491739Y-84279577D01*
X156719319Y-84172115D01*
X156719319Y-84067259D01*
X157616134Y-84204028D01*
G37*
G36*
X157431251Y-82635741D02*
G01*
X157497275Y-82665049D01*
X157552878Y-82711860D01*
X157595293Y-82774138D01*
X157622158Y-82849931D01*
X157631114Y-82937285D01*
X157623949Y-83012508D01*
X157602457Y-83087079D01*
X157565334Y-83155627D01*
X157511278Y-83212777D01*
X157451360Y-83139182D01*
X157490599Y-83097093D01*
X157518442Y-83047677D01*
X157535049Y-82994190D01*
X157540585Y-82939890D01*
X157528292Y-82856363D01*
X157491414Y-82793351D01*
X157433368Y-82753786D01*
X157357575Y-82740597D01*
X157276490Y-82753867D01*
X157224714Y-82793677D01*
X157196871Y-82853351D01*
X157187590Y-82926213D01*
X157187590Y-83001762D01*
X157100970Y-82988085D01*
X157100970Y-82935331D01*
X157084037Y-82852944D01*
X157032585Y-82789444D01*
X156944662Y-82764695D01*
X156879208Y-82777069D01*
X156831339Y-82814192D01*
X156802031Y-82868900D01*
X156792262Y-82934028D01*
X156797391Y-82988899D01*
X156812778Y-83036279D01*
X156838585Y-83080078D01*
X156874975Y-83124203D01*
X156807893Y-83184772D01*
X156761245Y-83125668D01*
X156729414Y-83062982D01*
X156711096Y-82997528D01*
X156704990Y-82930121D01*
X156712643Y-82851153D01*
X156735601Y-82783582D01*
X156771258Y-82728793D01*
X156817011Y-82688169D01*
X156870416Y-82663013D01*
X156929031Y-82654628D01*
X157027701Y-82678726D01*
X157100319Y-82742551D01*
X157138093Y-82829823D01*
X157147455Y-82778616D01*
X157167726Y-82730503D01*
X157198906Y-82688332D01*
X157240996Y-82654954D01*
X157293912Y-82633217D01*
X157357575Y-82625972D01*
X157431251Y-82635741D01*
G37*
G36*
X157162842Y-84943559D02*
G01*
X157217387Y-84996557D01*
X157254673Y-85066326D01*
X157276165Y-85150341D01*
X157283329Y-85246079D01*
X157283329Y-85360705D01*
X157616134Y-85360705D01*
X157616134Y-85474028D01*
X156719319Y-85474028D01*
X156719319Y-85360705D01*
X156809196Y-85360705D01*
X157192149Y-85360705D01*
X157192149Y-85235659D01*
X157187916Y-85176555D01*
X157175216Y-85124290D01*
X157115624Y-85047764D01*
X157064417Y-85027004D01*
X156996114Y-85020085D01*
X156934079Y-85026923D01*
X156886047Y-85047438D01*
X156827106Y-85122662D01*
X156813673Y-85173706D01*
X156809196Y-85231100D01*
X156809196Y-85360705D01*
X156719319Y-85360705D01*
X156719319Y-85244777D01*
X156726772Y-85145456D01*
X156749133Y-85061115D01*
X156786401Y-84991754D01*
X156839372Y-84940194D01*
X156908842Y-84909258D01*
X156994811Y-84898946D01*
X157089247Y-84910099D01*
X157162842Y-84943559D01*
G37*
%TO.C,L2*%
X155050000Y-48160000D02*
X149400000Y-48160000D01*
X148740000Y-47500000D02*
X148740000Y-46700000D01*
X148740000Y-42800000D02*
X148740000Y-41950000D01*
X155660000Y-46700000D02*
X155660000Y-47550000D01*
X149350000Y-41340000D02*
X155050000Y-41340000D01*
X155660000Y-41950000D02*
X155660000Y-42800000D01*
X148740000Y-47500000D02*
G75*
G03*
X149400000Y-48160000I660002J2D01*
G01*
X155660000Y-41950000D02*
G75*
G03*
X155050000Y-41340000I-610000J0D01*
G01*
X155050000Y-48160000D02*
G75*
G03*
X155660000Y-47550000I0J610000D01*
G01*
X149350000Y-41340000D02*
G75*
G03*
X148740000Y-41950000I0J-610000D01*
G01*
%TO.C,kibuzzard-63555666*%
G36*
X162698408Y-83133646D02*
G01*
X162609182Y-83133646D01*
X162609182Y-82912862D01*
X161920126Y-82912862D01*
X162045172Y-83118667D01*
X161967018Y-83166210D01*
X161801592Y-82899185D01*
X161801592Y-82803446D01*
X162609182Y-82803446D01*
X162609182Y-82615877D01*
X162698408Y-82615877D01*
X162698408Y-83133646D01*
G37*
G36*
X162245115Y-84953654D02*
G01*
X162299660Y-85006652D01*
X162336946Y-85076421D01*
X162358438Y-85160436D01*
X162365603Y-85256174D01*
X162365603Y-85370800D01*
X162698408Y-85370800D01*
X162698408Y-85484123D01*
X161801592Y-85484123D01*
X161801592Y-85370800D01*
X161891469Y-85370800D01*
X162274423Y-85370800D01*
X162274423Y-85245754D01*
X162270190Y-85186650D01*
X162257490Y-85134385D01*
X162197897Y-85057859D01*
X162146690Y-85037099D01*
X162078387Y-85030179D01*
X162016353Y-85037018D01*
X161968321Y-85057533D01*
X161909379Y-85132756D01*
X161895947Y-85183801D01*
X161891469Y-85241195D01*
X161891469Y-85370800D01*
X161801592Y-85370800D01*
X161801592Y-85254872D01*
X161809046Y-85155551D01*
X161831407Y-85071210D01*
X161868674Y-85001849D01*
X161921645Y-84950289D01*
X161991115Y-84919353D01*
X162077085Y-84909041D01*
X162171521Y-84920194D01*
X162245115Y-84953654D01*
G37*
G36*
X162698408Y-83438446D02*
G01*
X162230136Y-83466451D01*
X162166962Y-83469301D01*
X162102485Y-83471336D01*
X162040369Y-83472720D01*
X161984277Y-83473615D01*
X161905146Y-83473615D01*
X162537541Y-83624713D01*
X162537541Y-83738036D01*
X161905146Y-83900205D01*
X161985905Y-83898251D01*
X162043869Y-83897926D01*
X162107044Y-83898251D01*
X162170381Y-83899391D01*
X162228833Y-83901508D01*
X162698408Y-83925605D01*
X162698408Y-84031764D01*
X161801592Y-83980964D01*
X161801592Y-83823354D01*
X162415751Y-83678118D01*
X161801592Y-83539395D01*
X161801592Y-83380482D01*
X162698408Y-83329682D01*
X162698408Y-83438446D01*
G37*
G36*
X162698408Y-84214123D02*
G01*
X162698408Y-84362615D01*
X162021726Y-84465518D01*
X162698408Y-84569072D01*
X162698408Y-84720821D01*
X161801592Y-84847169D01*
X161801592Y-84733846D01*
X162574013Y-84638108D01*
X161905797Y-84530646D01*
X161905797Y-84391923D01*
X162574013Y-84289672D01*
X161801592Y-84182210D01*
X161801592Y-84077354D01*
X162698408Y-84214123D01*
G37*
D15*
%TO.C,J5*%
X177425000Y-43856750D02*
X177425000Y-46756750D01*
X177425000Y-39006750D02*
X177425000Y-41356750D01*
X177425000Y-39006750D02*
X161225000Y-39006750D01*
X161225000Y-46656750D02*
X161225000Y-43856750D01*
X176025000Y-50556750D02*
X174525000Y-50556750D01*
X161225000Y-41456750D02*
X161225000Y-39006750D01*
X163725000Y-50556750D02*
X162625000Y-50556750D01*
D16*
X164125000Y-51056750D02*
G75*
G03*
X164125000Y-51056750I-100000J0D01*
G01*
D13*
%TO.C,TP8*%
X182100000Y-80950000D02*
G75*
G03*
X182100000Y-80950000I-700000J0D01*
G01*
%TO.C,kibuzzard-6355590D*%
G36*
X168612315Y-64942047D02*
G01*
X168549629Y-65142072D01*
X168452181Y-65142072D01*
X168543956Y-64859985D01*
X168637959Y-64859985D01*
X168897251Y-64859985D01*
X168768460Y-64440560D01*
X168637959Y-64859985D01*
X168543956Y-64859985D01*
X168707483Y-64357358D01*
X168833995Y-64357358D01*
X169089297Y-65142072D01*
X168985581Y-65142072D01*
X168922895Y-64942047D01*
X168612315Y-64942047D01*
G37*
G36*
X168360495Y-64889999D02*
G01*
X168342765Y-64946891D01*
X168305724Y-65015845D01*
X168258424Y-65067134D01*
X168203503Y-65103036D01*
X168143595Y-65125830D01*
X168081550Y-65138011D01*
X168020218Y-65142072D01*
X167840138Y-65142072D01*
X167840138Y-65062860D01*
X167938726Y-65062860D01*
X168032185Y-65062860D01*
X168116526Y-65049468D01*
X168156773Y-65030876D01*
X168193174Y-65001883D01*
X168224232Y-64960710D01*
X168248452Y-64905575D01*
X168264052Y-64834626D01*
X168269252Y-64746011D01*
X168263838Y-64653692D01*
X168247597Y-64581888D01*
X168222522Y-64528035D01*
X168190610Y-64489569D01*
X168113392Y-64448538D01*
X168031046Y-64438280D01*
X167938726Y-64438280D01*
X167938726Y-65062860D01*
X167840138Y-65062860D01*
X167840138Y-64357358D01*
X168007681Y-64357358D01*
X168075709Y-64361205D01*
X168141886Y-64372745D01*
X168204002Y-64394614D01*
X168259849Y-64429447D01*
X168307148Y-64479525D01*
X168343620Y-64547126D01*
X168360875Y-64603163D01*
X168371227Y-64669458D01*
X168374678Y-64746011D01*
X168371132Y-64823039D01*
X168360495Y-64889999D01*
G37*
G36*
X167475207Y-64350591D02*
G01*
X167540671Y-64367901D01*
X167598014Y-64396038D01*
X167649801Y-64434291D01*
X167591674Y-64498687D01*
X167547937Y-64466631D01*
X167501065Y-64444549D01*
X167452198Y-64431727D01*
X167402477Y-64427453D01*
X167342640Y-64434576D01*
X167291922Y-64455946D01*
X167257302Y-64491991D01*
X167245762Y-64543137D01*
X167263998Y-64601548D01*
X167325544Y-64646283D01*
X167376690Y-64667084D01*
X167443508Y-64688454D01*
X167502276Y-64708328D01*
X167556627Y-64732619D01*
X167603713Y-64763819D01*
X167640683Y-64804423D01*
X167664618Y-64857207D01*
X167672596Y-64924951D01*
X167664191Y-64988776D01*
X167638974Y-65044624D01*
X167597729Y-65090855D01*
X167541241Y-65125830D01*
X167470363Y-65147842D01*
X167385951Y-65155179D01*
X167303960Y-65148625D01*
X167230091Y-65128965D01*
X167165339Y-65097337D01*
X167110703Y-65054881D01*
X167169399Y-64988776D01*
X167212995Y-65023040D01*
X167262858Y-65049468D01*
X167320558Y-65066350D01*
X167387660Y-65071978D01*
X167477130Y-65056306D01*
X167544375Y-65008437D01*
X167570019Y-64926660D01*
X167555203Y-64861980D01*
X167502774Y-64814111D01*
X167457754Y-64793524D01*
X167397918Y-64773365D01*
X167325615Y-64749074D01*
X167263713Y-64721791D01*
X167213422Y-64689736D01*
X167175953Y-64651127D01*
X167152659Y-64604042D01*
X167144895Y-64546556D01*
X167153016Y-64491136D01*
X167177378Y-64442269D01*
X167216058Y-64401595D01*
X167267132Y-64370750D01*
X167328750Y-64351303D01*
X167399058Y-64344821D01*
X167475207Y-64350591D01*
G37*
%TO.C,C3*%
X149834165Y-49590000D02*
X150065835Y-49590000D01*
X149834165Y-50310000D02*
X150065835Y-50310000D01*
%TO.C,C5*%
X153859165Y-49590000D02*
X154090835Y-49590000D01*
X153859165Y-50310000D02*
X154090835Y-50310000D01*
%TO.C,kibuzzard-63555658*%
G36*
X160171924Y-84198167D02*
G01*
X160171924Y-84346659D01*
X159495242Y-84449562D01*
X160171924Y-84553115D01*
X160171924Y-84704864D01*
X159275108Y-84831213D01*
X159275108Y-84717890D01*
X160047529Y-84622151D01*
X159379314Y-84514690D01*
X159379314Y-84375967D01*
X160047529Y-84273715D01*
X159275108Y-84166254D01*
X159275108Y-84061397D01*
X160171924Y-84198167D01*
G37*
G36*
X160171924Y-82645510D02*
G01*
X160171924Y-83178910D01*
X160082698Y-83178910D01*
X160005702Y-83099418D01*
X159937100Y-83030273D01*
X159876893Y-82971477D01*
X159798658Y-82900080D01*
X159731983Y-82846756D01*
X159673612Y-82809226D01*
X159620288Y-82785210D01*
X159568511Y-82772266D01*
X159514780Y-82767951D01*
X159447210Y-82778535D01*
X159395596Y-82810285D01*
X159362869Y-82860922D01*
X159351960Y-82928167D01*
X159357658Y-82988573D01*
X159374755Y-83036931D01*
X159404388Y-83079264D01*
X159447698Y-83121597D01*
X159389083Y-83197146D01*
X159332340Y-83140892D01*
X159292367Y-83078938D01*
X159268677Y-83007542D01*
X159260780Y-82922956D01*
X159269003Y-82844314D01*
X159293670Y-82777721D01*
X159332503Y-82724234D01*
X159383221Y-82684913D01*
X159443465Y-82660734D01*
X159510873Y-82652674D01*
X159572012Y-82658047D01*
X159631685Y-82674167D01*
X159692092Y-82702090D01*
X159755429Y-82742877D01*
X159823732Y-82797503D01*
X159899037Y-82866946D01*
X159954034Y-82921943D01*
X160013952Y-82984466D01*
X160078790Y-83054515D01*
X160078790Y-82631833D01*
X160171924Y-82645510D01*
G37*
G36*
X159718631Y-84937697D02*
G01*
X159773176Y-84990696D01*
X159810462Y-85060464D01*
X159831955Y-85144479D01*
X159839119Y-85240218D01*
X159839119Y-85354844D01*
X160171924Y-85354844D01*
X160171924Y-85468167D01*
X159275108Y-85468167D01*
X159275108Y-85354844D01*
X159364985Y-85354844D01*
X159747939Y-85354844D01*
X159747939Y-85229797D01*
X159743706Y-85170694D01*
X159731006Y-85118428D01*
X159671414Y-85041903D01*
X159620206Y-85021143D01*
X159551903Y-85014223D01*
X159489869Y-85021062D01*
X159441837Y-85041577D01*
X159382896Y-85116800D01*
X159369463Y-85167844D01*
X159364985Y-85225238D01*
X159364985Y-85354844D01*
X159275108Y-85354844D01*
X159275108Y-85238915D01*
X159282562Y-85139595D01*
X159304923Y-85055254D01*
X159342190Y-84985892D01*
X159395161Y-84934332D01*
X159464631Y-84903397D01*
X159550601Y-84893085D01*
X159645037Y-84904238D01*
X159718631Y-84937697D01*
G37*
G36*
X160171924Y-83422490D02*
G01*
X159703652Y-83450495D01*
X159640478Y-83453344D01*
X159576001Y-83455379D01*
X159513885Y-83456763D01*
X159457793Y-83457659D01*
X159378662Y-83457659D01*
X160011057Y-83608756D01*
X160011057Y-83722079D01*
X159378662Y-83884249D01*
X159459421Y-83882295D01*
X159517385Y-83881969D01*
X159580560Y-83882295D01*
X159643897Y-83883435D01*
X159702349Y-83885551D01*
X160171924Y-83909649D01*
X160171924Y-84015808D01*
X159275108Y-83965008D01*
X159275108Y-83807397D01*
X159889267Y-83662162D01*
X159275108Y-83523438D01*
X159275108Y-83364526D01*
X160171924Y-83313726D01*
X160171924Y-83422490D01*
G37*
%TO.C,kibuzzard-63555752*%
G36*
X168634490Y-91793207D02*
G01*
X168699944Y-91812013D01*
X168756605Y-91842867D01*
X168810662Y-91885282D01*
X168742277Y-91956272D01*
X168685832Y-91914662D01*
X168623309Y-91889696D01*
X168554708Y-91881374D01*
X168491289Y-91890004D01*
X168431290Y-91915892D01*
X168378454Y-91961808D01*
X168336528Y-92030518D01*
X168316266Y-92090436D01*
X168304109Y-92163379D01*
X168300056Y-92249349D01*
X168306786Y-92367520D01*
X168326976Y-92461522D01*
X168360626Y-92531354D01*
X168407301Y-92579476D01*
X168466568Y-92608350D01*
X168538426Y-92617974D01*
X168626674Y-92607228D01*
X168709062Y-92574990D01*
X168709062Y-92301451D01*
X168532564Y-92301451D01*
X168518887Y-92207667D01*
X168821082Y-92207667D01*
X168821082Y-92634908D01*
X168758478Y-92665437D01*
X168691803Y-92690592D01*
X168616498Y-92707444D01*
X168528005Y-92713062D01*
X168428829Y-92700217D01*
X168344054Y-92661683D01*
X168273679Y-92597459D01*
X168232221Y-92532351D01*
X168202608Y-92452630D01*
X168184841Y-92358296D01*
X168178918Y-92249349D01*
X168186652Y-92140747D01*
X168209854Y-92046800D01*
X168246407Y-91967344D01*
X168294195Y-91902215D01*
X168351019Y-91851578D01*
X168414682Y-91815595D01*
X168483067Y-91794103D01*
X168554056Y-91786938D01*
X168634490Y-91793207D01*
G37*
%TO.C,C31*%
X144440000Y-56407836D02*
X144440000Y-56192164D01*
X145160000Y-56407836D02*
X145160000Y-56192164D01*
%TO.C,kibuzzard-63555973*%
G36*
X175064284Y-52923538D02*
G01*
X175276277Y-52251090D01*
X175376004Y-52251090D01*
X175113293Y-53035803D01*
X175010716Y-53035803D01*
X174748005Y-52251090D01*
X174854571Y-52251090D01*
X175064284Y-52923538D01*
G37*
G36*
X174577044Y-52327453D02*
G01*
X174267034Y-52327453D01*
X174267034Y-52574777D01*
X174335133Y-52548563D01*
X174402663Y-52541154D01*
X174489284Y-52557253D01*
X174557668Y-52605550D01*
X174590594Y-52654369D01*
X174610350Y-52714965D01*
X174616935Y-52787339D01*
X174608743Y-52860995D01*
X174584167Y-52924678D01*
X174544704Y-52976893D01*
X174491848Y-53016143D01*
X174426954Y-53040718D01*
X174351375Y-53048910D01*
X174284486Y-53042642D01*
X174225148Y-53023836D01*
X174172079Y-52993918D01*
X174123996Y-52954312D01*
X174183263Y-52897324D01*
X174233221Y-52937532D01*
X174289639Y-52961657D01*
X174352514Y-52969698D01*
X174421469Y-52957944D01*
X174473327Y-52922684D01*
X174505810Y-52864628D01*
X174516638Y-52784490D01*
X174511936Y-52727930D01*
X174497832Y-52684762D01*
X174446828Y-52632619D01*
X174375309Y-52616947D01*
X174313763Y-52623786D01*
X174252787Y-52643162D01*
X174175854Y-52643162D01*
X174175854Y-52251090D01*
X174591291Y-52251090D01*
X174577044Y-52327453D01*
G37*
%TO.C,R8*%
X142953641Y-61330000D02*
X142646359Y-61330000D01*
X142953641Y-60570000D02*
X142646359Y-60570000D01*
D11*
%TO.C,U6*%
X142050000Y-54550000D02*
X142050000Y-54695000D01*
X137900000Y-59700000D02*
X142050000Y-59700000D01*
X137900000Y-54550000D02*
X137900000Y-54600000D01*
X137900000Y-59700000D02*
X137900000Y-59555000D01*
X137900000Y-54600000D02*
X136500000Y-54600000D01*
X137900000Y-54550000D02*
X142050000Y-54550000D01*
X142050000Y-59700000D02*
X142050000Y-59555000D01*
%TO.C,kibuzzard-6355588E*%
G36*
X170013751Y-80449665D02*
G01*
X170071878Y-80464197D01*
X170122454Y-80488131D01*
X170170465Y-80521184D01*
X170115188Y-80585579D01*
X170036830Y-80540845D01*
X169950495Y-80527453D01*
X169888521Y-80535075D01*
X169831392Y-80557941D01*
X169782027Y-80598402D01*
X169743346Y-80658808D01*
X169724826Y-80711268D01*
X169713713Y-80774809D01*
X169710009Y-80849430D01*
X169713523Y-80922184D01*
X169724066Y-80984680D01*
X169741637Y-81036918D01*
X169778892Y-81097752D01*
X169827403Y-81138925D01*
X169884675Y-81162432D01*
X169948215Y-81170268D01*
X170008123Y-81165282D01*
X170056776Y-81150322D01*
X170130574Y-81104733D01*
X170181863Y-81169698D01*
X170140547Y-81202110D01*
X170088404Y-81229820D01*
X170024293Y-81248839D01*
X169947076Y-81255179D01*
X169885340Y-81250018D01*
X169827782Y-81234537D01*
X169774404Y-81208734D01*
X169726662Y-81172864D01*
X169686011Y-81127179D01*
X169652452Y-81071680D01*
X169627441Y-81006715D01*
X169612434Y-80932631D01*
X169607432Y-80849430D01*
X169612529Y-80765944D01*
X169627821Y-80691766D01*
X169653307Y-80626895D01*
X169687277Y-80571618D01*
X169728023Y-80526218D01*
X169775544Y-80490696D01*
X169855611Y-80456290D01*
X169943087Y-80444821D01*
X170013751Y-80449665D01*
G37*
G36*
X170632988Y-80450591D02*
G01*
X170698452Y-80467901D01*
X170755795Y-80496038D01*
X170807582Y-80534291D01*
X170749455Y-80598687D01*
X170705717Y-80566631D01*
X170658846Y-80544549D01*
X170609979Y-80531727D01*
X170560258Y-80527453D01*
X170500421Y-80534576D01*
X170449703Y-80555946D01*
X170415083Y-80591991D01*
X170403543Y-80643137D01*
X170421779Y-80701548D01*
X170483325Y-80746283D01*
X170534471Y-80767084D01*
X170601288Y-80788454D01*
X170660056Y-80808328D01*
X170714408Y-80832619D01*
X170761494Y-80863819D01*
X170798464Y-80904423D01*
X170822399Y-80957207D01*
X170830377Y-81024951D01*
X170821971Y-81088776D01*
X170796754Y-81144624D01*
X170755510Y-81190855D01*
X170699021Y-81225830D01*
X170628144Y-81247842D01*
X170543731Y-81255179D01*
X170461741Y-81248625D01*
X170387871Y-81228965D01*
X170323120Y-81197337D01*
X170268483Y-81154881D01*
X170327180Y-81088776D01*
X170370775Y-81123040D01*
X170420639Y-81149468D01*
X170478339Y-81166350D01*
X170545441Y-81171978D01*
X170634911Y-81156306D01*
X170702156Y-81108437D01*
X170727800Y-81026660D01*
X170712983Y-80961980D01*
X170660555Y-80914111D01*
X170615535Y-80893524D01*
X170555699Y-80873365D01*
X170483396Y-80849074D01*
X170421494Y-80821791D01*
X170371203Y-80789736D01*
X170333734Y-80751127D01*
X170310440Y-80704042D01*
X170302676Y-80646556D01*
X170310796Y-80591136D01*
X170335158Y-80542269D01*
X170373838Y-80501595D01*
X170424913Y-80470750D01*
X170486531Y-80451303D01*
X170556838Y-80444821D01*
X170632988Y-80450591D01*
G37*
G36*
X171328445Y-81163999D02*
G01*
X171492568Y-81163999D01*
X171492568Y-81242072D01*
X171039520Y-81242072D01*
X171039520Y-81163999D01*
X171232706Y-81163999D01*
X171232706Y-80561075D01*
X171052627Y-80670490D01*
X171011026Y-80602106D01*
X171244674Y-80457358D01*
X171328445Y-80457358D01*
X171328445Y-81163999D01*
G37*
D13*
%TO.C,TP3*%
X175450000Y-58200000D02*
G75*
G03*
X175450000Y-58200000I-700000J0D01*
G01*
%TO.C,C4*%
X181909165Y-76110000D02*
X182140835Y-76110000D01*
X181909165Y-75390000D02*
X182140835Y-75390000D01*
%TO.C,kibuzzard-635557C8*%
G36*
X164335011Y-73092072D02*
G01*
X164236423Y-73092072D01*
X164236423Y-72307358D01*
X164335011Y-72307358D01*
X164335011Y-73092072D01*
G37*
G36*
X162937115Y-72983226D02*
G01*
X163031144Y-72398538D01*
X163152527Y-72398538D01*
X163241997Y-72983226D01*
X163336026Y-72307358D01*
X163427775Y-72307358D01*
X163308102Y-73092072D01*
X163178171Y-73092072D01*
X163088131Y-72499975D01*
X162997522Y-73092072D01*
X162864742Y-73092072D01*
X162754187Y-72307358D01*
X162853344Y-72307358D01*
X162937115Y-72983226D01*
G37*
G36*
X164456963Y-72666947D02*
G01*
X164785210Y-73092072D01*
X164662117Y-73092072D01*
X164340710Y-72673216D01*
X164649580Y-72307358D01*
X164763554Y-72307358D01*
X164456963Y-72666947D01*
G37*
G36*
X162479295Y-72300591D02*
G01*
X162544759Y-72317901D01*
X162602102Y-72346038D01*
X162653889Y-72384291D01*
X162595762Y-72448687D01*
X162552025Y-72416631D01*
X162505153Y-72394549D01*
X162456286Y-72381727D01*
X162406565Y-72377453D01*
X162346728Y-72384576D01*
X162296010Y-72405946D01*
X162261390Y-72441991D01*
X162249850Y-72493137D01*
X162268086Y-72551548D01*
X162329632Y-72596283D01*
X162380778Y-72617084D01*
X162447596Y-72638454D01*
X162506364Y-72658328D01*
X162560715Y-72682619D01*
X162607801Y-72713819D01*
X162644771Y-72754423D01*
X162668706Y-72807207D01*
X162676684Y-72874951D01*
X162668278Y-72938776D01*
X162643062Y-72994624D01*
X162601817Y-73040855D01*
X162545329Y-73075830D01*
X162474451Y-73097842D01*
X162390038Y-73105179D01*
X162308048Y-73098625D01*
X162234179Y-73078965D01*
X162169427Y-73047337D01*
X162114790Y-73004881D01*
X162173487Y-72938776D01*
X162217082Y-72973040D01*
X162266946Y-72999468D01*
X162324646Y-73016350D01*
X162391748Y-73021978D01*
X162481218Y-73006306D01*
X162548463Y-72958437D01*
X162574107Y-72876660D01*
X162559290Y-72811980D01*
X162506862Y-72764111D01*
X162461842Y-72743524D01*
X162402006Y-72723365D01*
X162329703Y-72699074D01*
X162267801Y-72671791D01*
X162217510Y-72639736D01*
X162180041Y-72601127D01*
X162156747Y-72554042D01*
X162148983Y-72496556D01*
X162157103Y-72441136D01*
X162181465Y-72392269D01*
X162220145Y-72351595D01*
X162271220Y-72320750D01*
X162332838Y-72301303D01*
X162403146Y-72294821D01*
X162479295Y-72300591D01*
G37*
G36*
X163911596Y-72299665D02*
G01*
X163969723Y-72314197D01*
X164020299Y-72338131D01*
X164068311Y-72371184D01*
X164013033Y-72435579D01*
X163934676Y-72390845D01*
X163848340Y-72377453D01*
X163786367Y-72385075D01*
X163729237Y-72407941D01*
X163679872Y-72448402D01*
X163641192Y-72508808D01*
X163622671Y-72561268D01*
X163611559Y-72624809D01*
X163607854Y-72699430D01*
X163611369Y-72772184D01*
X163621911Y-72834680D01*
X163639482Y-72886918D01*
X163676738Y-72947752D01*
X163725248Y-72988925D01*
X163782520Y-73012432D01*
X163846061Y-73020268D01*
X163905969Y-73015282D01*
X163954621Y-73000322D01*
X164028420Y-72954733D01*
X164079708Y-73019698D01*
X164038393Y-73052110D01*
X163986249Y-73079820D01*
X163922139Y-73098839D01*
X163844921Y-73105179D01*
X163783185Y-73100018D01*
X163725628Y-73084537D01*
X163672250Y-73058734D01*
X163624507Y-73022864D01*
X163583857Y-72977179D01*
X163550297Y-72921680D01*
X163525286Y-72856715D01*
X163510280Y-72782631D01*
X163505278Y-72699430D01*
X163510375Y-72615944D01*
X163525666Y-72541766D01*
X163551152Y-72476895D01*
X163585123Y-72421618D01*
X163625869Y-72376218D01*
X163673390Y-72340696D01*
X163753457Y-72306290D01*
X163840932Y-72294821D01*
X163911596Y-72299665D01*
G37*
%TO.C,R10*%
X134345000Y-58103641D02*
X134345000Y-57796359D01*
X135105000Y-58103641D02*
X135105000Y-57796359D01*
%TO.C,C34*%
X182265835Y-68410000D02*
X182034165Y-68410000D01*
X182265835Y-67690000D02*
X182034165Y-67690000D01*
%TO.C,R20*%
X166251428Y-55867621D02*
X166251428Y-55532379D01*
X165491428Y-55867621D02*
X165491428Y-55532379D01*
%TO.C,kibuzzard-63555833*%
G36*
X169573201Y-77550591D02*
G01*
X169638665Y-77567901D01*
X169696008Y-77596038D01*
X169747796Y-77634291D01*
X169689669Y-77698687D01*
X169645931Y-77666631D01*
X169599059Y-77644549D01*
X169550192Y-77631727D01*
X169500471Y-77627453D01*
X169440635Y-77634576D01*
X169389916Y-77655946D01*
X169355296Y-77691991D01*
X169343756Y-77743137D01*
X169361992Y-77801548D01*
X169423538Y-77846283D01*
X169474684Y-77867084D01*
X169541502Y-77888454D01*
X169600270Y-77908328D01*
X169654621Y-77932619D01*
X169701707Y-77963819D01*
X169738678Y-78004423D01*
X169762612Y-78057207D01*
X169770590Y-78124951D01*
X169762185Y-78188776D01*
X169736968Y-78244624D01*
X169695723Y-78290855D01*
X169639235Y-78325830D01*
X169568357Y-78347842D01*
X169483945Y-78355179D01*
X169401955Y-78348625D01*
X169328085Y-78328965D01*
X169263333Y-78297337D01*
X169208697Y-78254881D01*
X169267394Y-78188776D01*
X169310989Y-78223040D01*
X169360853Y-78249468D01*
X169418552Y-78266350D01*
X169485654Y-78271978D01*
X169575124Y-78256306D01*
X169642369Y-78208437D01*
X169668013Y-78126660D01*
X169653197Y-78061980D01*
X169600769Y-78014111D01*
X169555749Y-77993524D01*
X169495912Y-77973365D01*
X169423610Y-77949074D01*
X169361707Y-77921791D01*
X169311416Y-77889736D01*
X169273947Y-77851127D01*
X169250654Y-77804042D01*
X169242889Y-77746556D01*
X169251010Y-77691136D01*
X169275372Y-77642269D01*
X169314052Y-77601595D01*
X169365127Y-77570750D01*
X169426744Y-77551303D01*
X169497052Y-77544821D01*
X169573201Y-77550591D01*
G37*
G36*
X168135628Y-78094747D02*
G01*
X168257011Y-77557358D01*
X168396060Y-77557358D01*
X168440510Y-78342072D01*
X168345341Y-78342072D01*
X168320837Y-77932334D01*
X168318343Y-77877056D01*
X168316563Y-77820639D01*
X168315352Y-77766288D01*
X168314568Y-77717207D01*
X168314568Y-77647968D01*
X168182358Y-78201313D01*
X168083200Y-78201313D01*
X167941302Y-77647968D01*
X167943012Y-77718632D01*
X167943296Y-77769351D01*
X167943012Y-77824628D01*
X167942014Y-77880048D01*
X167940162Y-77931194D01*
X167919077Y-78342072D01*
X167826188Y-78342072D01*
X167870638Y-77557358D01*
X168008547Y-77557358D01*
X168135628Y-78094747D01*
G37*
G36*
X169041724Y-77636571D02*
G01*
X168867344Y-77636571D01*
X168867344Y-78262860D01*
X169041724Y-78262860D01*
X169041724Y-78342072D01*
X168592665Y-78342072D01*
X168592665Y-78262860D01*
X168767046Y-78262860D01*
X168767046Y-77636571D01*
X168592665Y-77636571D01*
X168592665Y-77557358D01*
X169041724Y-77557358D01*
X169041724Y-77636571D01*
G37*
G36*
X170459375Y-78096964D02*
G01*
X170441329Y-78160853D01*
X170400940Y-78242131D01*
X170344736Y-78303605D01*
X170272719Y-78342285D01*
X170184887Y-78355179D01*
X170097056Y-78342570D01*
X170025038Y-78304745D01*
X169968835Y-78244268D01*
X169928445Y-78163702D01*
X169910399Y-78099876D01*
X169899571Y-78029212D01*
X169895962Y-77951710D01*
X169999679Y-77951710D01*
X170004618Y-78047860D01*
X170019434Y-78127357D01*
X170044129Y-78190201D01*
X170079524Y-78235632D01*
X170126444Y-78262891D01*
X170184887Y-78271978D01*
X170244755Y-78262828D01*
X170292150Y-78235379D01*
X170327070Y-78189631D01*
X170350973Y-78126470D01*
X170365315Y-78046783D01*
X170370096Y-77950570D01*
X170365315Y-77854262D01*
X170350973Y-77774290D01*
X170327070Y-77710654D01*
X170292150Y-77664431D01*
X170244755Y-77636697D01*
X170184887Y-77627453D01*
X170125019Y-77636760D01*
X170077625Y-77664684D01*
X170042704Y-77711224D01*
X170018801Y-77775176D01*
X170004459Y-77855338D01*
X169999679Y-77951710D01*
X169895962Y-77951710D01*
X169899571Y-77875347D01*
X169910399Y-77805063D01*
X169928445Y-77740857D01*
X169968835Y-77659009D01*
X170025038Y-77596964D01*
X170097056Y-77557857D01*
X170184887Y-77544821D01*
X170272719Y-77557501D01*
X170344736Y-77595540D01*
X170400940Y-77656445D01*
X170441329Y-77737723D01*
X170459375Y-77802023D01*
X170470203Y-77872972D01*
X170473812Y-77950570D01*
X170470203Y-78026869D01*
X170459375Y-78096964D01*
G37*
%TO.C,kibuzzard-63555742*%
G36*
X168302336Y-84331374D02*
G01*
X167948038Y-84331374D01*
X167948038Y-84614031D01*
X168025867Y-84584072D01*
X168103044Y-84575605D01*
X168202038Y-84594004D01*
X168280192Y-84649200D01*
X168317822Y-84704993D01*
X168340400Y-84774246D01*
X168347926Y-84856959D01*
X168338563Y-84941137D01*
X168310477Y-85013918D01*
X168265376Y-85073592D01*
X168204969Y-85118449D01*
X168130804Y-85146535D01*
X168044428Y-85155897D01*
X167967984Y-85148733D01*
X167900169Y-85127241D01*
X167839519Y-85093049D01*
X167784567Y-85047785D01*
X167852300Y-84982656D01*
X167909396Y-85028608D01*
X167973873Y-85056179D01*
X168045731Y-85065369D01*
X168124536Y-85051937D01*
X168183803Y-85011638D01*
X168220926Y-84945289D01*
X168233300Y-84853703D01*
X168227927Y-84789063D01*
X168211808Y-84739728D01*
X168153518Y-84680136D01*
X168071782Y-84662226D01*
X168001444Y-84670041D01*
X167931756Y-84692185D01*
X167843833Y-84692185D01*
X167843833Y-84244103D01*
X168318618Y-84244103D01*
X168302336Y-84331374D01*
G37*
G36*
X168859182Y-85012615D02*
G01*
X169101459Y-84244103D01*
X169215433Y-84244103D01*
X168915192Y-85140918D01*
X168797962Y-85140918D01*
X168497721Y-84244103D01*
X168619510Y-84244103D01*
X168859182Y-85012615D01*
G37*
%TO.C,C27*%
X146490000Y-56192164D02*
X146490000Y-56407836D01*
X147210000Y-56192164D02*
X147210000Y-56407836D01*
%TO.C,R24*%
X170994284Y-55867621D02*
X170994284Y-55532379D01*
X170234284Y-55867621D02*
X170234284Y-55532379D01*
%TO.C,TP11*%
X177650000Y-80950000D02*
G75*
G03*
X177650000Y-80950000I-700000J0D01*
G01*
%TO.C,kibuzzard-635555B6*%
G36*
X168709974Y-51191795D02*
G01*
X168510682Y-51191795D01*
X168510682Y-51907554D01*
X168709974Y-51907554D01*
X168709974Y-51998082D01*
X168196764Y-51998082D01*
X168196764Y-51907554D01*
X168396056Y-51907554D01*
X168396056Y-51191795D01*
X168196764Y-51191795D01*
X168196764Y-51101267D01*
X168709974Y-51101267D01*
X168709974Y-51191795D01*
G37*
G36*
X165939421Y-51480313D02*
G01*
X166278087Y-51480313D01*
X166278087Y-51101267D01*
X166390759Y-51101267D01*
X166390759Y-51998082D01*
X166278087Y-51998082D01*
X166278087Y-51572795D01*
X165939421Y-51572795D01*
X165939421Y-51998082D01*
X165826749Y-51998082D01*
X165826749Y-51101267D01*
X165939421Y-51101267D01*
X165939421Y-51480313D01*
G37*
G36*
X167202980Y-51709998D02*
G01*
X167182718Y-51775018D01*
X167140385Y-51853823D01*
X167086328Y-51912438D01*
X167023561Y-51953469D01*
X166955095Y-51979521D01*
X166884187Y-51993442D01*
X166814092Y-51998082D01*
X166608287Y-51998082D01*
X166608287Y-51907554D01*
X166720959Y-51907554D01*
X166827769Y-51907554D01*
X166924159Y-51892249D01*
X166970156Y-51871001D01*
X167011756Y-51837867D01*
X167047251Y-51790812D01*
X167074931Y-51727800D01*
X167092760Y-51646715D01*
X167098703Y-51545441D01*
X167092515Y-51439933D01*
X167073954Y-51357872D01*
X167045297Y-51296326D01*
X167008826Y-51252364D01*
X166920577Y-51205472D01*
X166826467Y-51193749D01*
X166720959Y-51193749D01*
X166720959Y-51907554D01*
X166608287Y-51907554D01*
X166608287Y-51101267D01*
X166799764Y-51101267D01*
X166877511Y-51105663D01*
X166953141Y-51118851D01*
X167024131Y-51143844D01*
X167087956Y-51183654D01*
X167142013Y-51240885D01*
X167183695Y-51318144D01*
X167203414Y-51382186D01*
X167215246Y-51457952D01*
X167219190Y-51545441D01*
X167215137Y-51633473D01*
X167202980Y-51709998D01*
G37*
G36*
X170055360Y-51095161D02*
G01*
X170121954Y-51119828D01*
X170175440Y-51158661D01*
X170214762Y-51209379D01*
X170238940Y-51269623D01*
X170247000Y-51337031D01*
X170241627Y-51398170D01*
X170225508Y-51457844D01*
X170197584Y-51518250D01*
X170156797Y-51581587D01*
X170102171Y-51649890D01*
X170032728Y-51725195D01*
X169977731Y-51780192D01*
X169915208Y-51840110D01*
X169845159Y-51904949D01*
X170267841Y-51904949D01*
X170254164Y-51998082D01*
X169720764Y-51998082D01*
X169720764Y-51908856D01*
X169800257Y-51831860D01*
X169869401Y-51763259D01*
X169928197Y-51703051D01*
X169999594Y-51624816D01*
X170052918Y-51558141D01*
X170090448Y-51499770D01*
X170114464Y-51446446D01*
X170127408Y-51394669D01*
X170131723Y-51340938D01*
X170121140Y-51273368D01*
X170089390Y-51221754D01*
X170038753Y-51189027D01*
X169971508Y-51178118D01*
X169911101Y-51183817D01*
X169862744Y-51200913D01*
X169820410Y-51230546D01*
X169778077Y-51273856D01*
X169702528Y-51215241D01*
X169758783Y-51158498D01*
X169820736Y-51118526D01*
X169892133Y-51094835D01*
X169976718Y-51086938D01*
X170055360Y-51095161D01*
G37*
G36*
X170879069Y-51817026D02*
G01*
X170911959Y-51897785D01*
X170879069Y-51979521D01*
X170796682Y-52013062D01*
X170715272Y-51979521D01*
X170682708Y-51897785D01*
X170715272Y-51817026D01*
X170796682Y-51783810D01*
X170879069Y-51817026D01*
G37*
G36*
X167674436Y-51715426D02*
G01*
X167813159Y-51101267D01*
X167972072Y-51101267D01*
X168022872Y-51998082D01*
X167914108Y-51998082D01*
X167886103Y-51529810D01*
X167883253Y-51466636D01*
X167881218Y-51402159D01*
X167879834Y-51340043D01*
X167878938Y-51283951D01*
X167878938Y-51204821D01*
X167727841Y-51837215D01*
X167614518Y-51837215D01*
X167452349Y-51204821D01*
X167454303Y-51285579D01*
X167454628Y-51343544D01*
X167454303Y-51406718D01*
X167453163Y-51470055D01*
X167451046Y-51528508D01*
X167426949Y-51998082D01*
X167320790Y-51998082D01*
X167371590Y-51101267D01*
X167529200Y-51101267D01*
X167674436Y-51715426D01*
G37*
G36*
X171741186Y-51140199D02*
G01*
X171798679Y-51206774D01*
X171831305Y-51273124D01*
X171854608Y-51352336D01*
X171868591Y-51444411D01*
X171873251Y-51549349D01*
X171868591Y-51654592D01*
X171854608Y-51746931D01*
X171831305Y-51826367D01*
X171798679Y-51892900D01*
X171741186Y-51959656D01*
X171668134Y-51999710D01*
X171579523Y-52013062D01*
X171490913Y-51999710D01*
X171417860Y-51959656D01*
X171360367Y-51892900D01*
X171347752Y-51867174D01*
X171461641Y-51867174D01*
X171511627Y-51910159D01*
X171579523Y-51924487D01*
X171653932Y-51902506D01*
X171710431Y-51836564D01*
X171736844Y-51765574D01*
X171752692Y-51669836D01*
X171757974Y-51549349D01*
X171755369Y-51456360D01*
X171747554Y-51377989D01*
X171734528Y-51314236D01*
X171461641Y-51867174D01*
X171347752Y-51867174D01*
X171327742Y-51826367D01*
X171304438Y-51746931D01*
X171290456Y-51654592D01*
X171285795Y-51549349D01*
X171401723Y-51549349D01*
X171404256Y-51641686D01*
X171411854Y-51719840D01*
X171424518Y-51783810D01*
X171698708Y-51232826D01*
X171648396Y-51189353D01*
X171579523Y-51174862D01*
X171505603Y-51196761D01*
X171449267Y-51262459D01*
X171422854Y-51333268D01*
X171407006Y-51428898D01*
X171401723Y-51549349D01*
X171285795Y-51549349D01*
X171290456Y-51444411D01*
X171304438Y-51352336D01*
X171327742Y-51273124D01*
X171360367Y-51206774D01*
X171417860Y-51140199D01*
X171490913Y-51100254D01*
X171579523Y-51086938D01*
X171668134Y-51100254D01*
X171741186Y-51140199D01*
G37*
%TO.C,kibuzzard-635555CB*%
G36*
X187032042Y-55565168D02*
G01*
X186959026Y-55544544D01*
X186866137Y-55498384D01*
X186795879Y-55434151D01*
X186751674Y-55351846D01*
X186736938Y-55251467D01*
X186832026Y-55251467D01*
X186842482Y-55319887D01*
X186873852Y-55374052D01*
X186926136Y-55413962D01*
X186998320Y-55441279D01*
X187089391Y-55457670D01*
X187199349Y-55463133D01*
X187309415Y-55457670D01*
X187400812Y-55441279D01*
X187473538Y-55413962D01*
X187526365Y-55374052D01*
X187558060Y-55319887D01*
X187568626Y-55251467D01*
X187557988Y-55183046D01*
X187526075Y-55128881D01*
X187472887Y-55088972D01*
X187399799Y-55061654D01*
X187308185Y-55045264D01*
X187198046Y-55039800D01*
X187088160Y-55045444D01*
X186997307Y-55062378D01*
X186925485Y-55090600D01*
X186873563Y-55131052D01*
X186842410Y-55184674D01*
X186832026Y-55251467D01*
X186736938Y-55251467D01*
X186751348Y-55151088D01*
X186794577Y-55068782D01*
X186863694Y-55004549D01*
X186955769Y-54958390D01*
X187028713Y-54937766D01*
X187109472Y-54925391D01*
X187198046Y-54921267D01*
X187285318Y-54925391D01*
X187365643Y-54937766D01*
X187439021Y-54958390D01*
X187532561Y-55004549D01*
X187603469Y-55068782D01*
X187648163Y-55151088D01*
X187663062Y-55251467D01*
X187648571Y-55351846D01*
X187605097Y-55434151D01*
X187535492Y-55498384D01*
X187442603Y-55544544D01*
X187369116Y-55565168D01*
X187288032Y-55577542D01*
X187199349Y-55581667D01*
X187112149Y-55577542D01*
X187032042Y-55565168D01*
G37*
G36*
X187648733Y-57152559D02*
G01*
X187551692Y-57140836D01*
X187551692Y-56868600D01*
X186751918Y-56868600D01*
X186751918Y-56755928D01*
X187551692Y-56755928D01*
X187551692Y-56475877D01*
X187648733Y-56475877D01*
X187648733Y-57152559D01*
G37*
G36*
X187648733Y-54300595D02*
G01*
X187269687Y-54300595D01*
X187269687Y-54639262D01*
X187648733Y-54639262D01*
X187648733Y-54751933D01*
X186751918Y-54751933D01*
X186751918Y-54639262D01*
X187177205Y-54639262D01*
X187177205Y-54300595D01*
X186751918Y-54300595D01*
X186751918Y-54187923D01*
X187648733Y-54187923D01*
X187648733Y-54300595D01*
G37*
G36*
X187648733Y-51159462D02*
G01*
X187038482Y-51159462D01*
X186949094Y-51171429D01*
X186885431Y-51207331D01*
X186847331Y-51265051D01*
X186834631Y-51342472D01*
X186847331Y-51420381D01*
X186885431Y-51478264D01*
X186949094Y-51514166D01*
X187038482Y-51526133D01*
X187648733Y-51526133D01*
X187648733Y-51640108D01*
X187042390Y-51640108D01*
X186957235Y-51630990D01*
X186882826Y-51603636D01*
X186821442Y-51559512D01*
X186775364Y-51500082D01*
X186746545Y-51427138D01*
X186736938Y-51342472D01*
X186746626Y-51256584D01*
X186775690Y-51183885D01*
X186821931Y-51125513D01*
X186883151Y-51082610D01*
X186957316Y-51056233D01*
X187042390Y-51047441D01*
X187648733Y-51047441D01*
X187648733Y-51159462D01*
G37*
G36*
X186927113Y-51858287D02*
G01*
X186887954Y-51908110D01*
X186857751Y-51965097D01*
X186838457Y-52031040D01*
X186832026Y-52107728D01*
X186849936Y-52209979D01*
X186904644Y-52286831D01*
X186998103Y-52316138D01*
X187072023Y-52299205D01*
X187126731Y-52239287D01*
X187150258Y-52187836D01*
X187173297Y-52119451D01*
X187201058Y-52036820D01*
X187232238Y-51966074D01*
X187268873Y-51908599D01*
X187312997Y-51865777D01*
X187366810Y-51839156D01*
X187432508Y-51830282D01*
X187495845Y-51839563D01*
X187551692Y-51867405D01*
X187598178Y-51911611D01*
X187633428Y-51969982D01*
X187655653Y-52040402D01*
X187663062Y-52120754D01*
X187656467Y-52207781D01*
X187636685Y-52282597D01*
X187604528Y-52348133D01*
X187560810Y-52407318D01*
X187487215Y-52340887D01*
X187523850Y-52290901D01*
X187549087Y-52237333D01*
X187563741Y-52181486D01*
X187568626Y-52124662D01*
X187560485Y-52056277D01*
X187536062Y-51998313D01*
X187494868Y-51958747D01*
X187436415Y-51945559D01*
X187369659Y-51966400D01*
X187318533Y-52036738D01*
X187294762Y-52095191D01*
X187270338Y-52171554D01*
X187247625Y-52238717D01*
X187219864Y-52300833D01*
X187184206Y-52354646D01*
X187137803Y-52396897D01*
X187077478Y-52424251D01*
X187000056Y-52433369D01*
X186927113Y-52423763D01*
X186863287Y-52394944D01*
X186810452Y-52347807D01*
X186770479Y-52283249D01*
X186745324Y-52202246D01*
X186736938Y-52105774D01*
X186744428Y-52012071D01*
X186766897Y-51927649D01*
X186803044Y-51853647D01*
X186851564Y-51791205D01*
X186927113Y-51858287D01*
G37*
G36*
X186927113Y-55765979D02*
G01*
X186887954Y-55815803D01*
X186857751Y-55872790D01*
X186838457Y-55938732D01*
X186832026Y-56015421D01*
X186849936Y-56117672D01*
X186904644Y-56194523D01*
X186998103Y-56223831D01*
X187072023Y-56206897D01*
X187126731Y-56146979D01*
X187150258Y-56095528D01*
X187173297Y-56027144D01*
X187201058Y-55944512D01*
X187232238Y-55873767D01*
X187268873Y-55816291D01*
X187312997Y-55773469D01*
X187366810Y-55746848D01*
X187432508Y-55737974D01*
X187495845Y-55747255D01*
X187551692Y-55775097D01*
X187598178Y-55819303D01*
X187633428Y-55877674D01*
X187655653Y-55948094D01*
X187663062Y-56028446D01*
X187656467Y-56115474D01*
X187636685Y-56190290D01*
X187604528Y-56255825D01*
X187560810Y-56315010D01*
X187487215Y-56248579D01*
X187523850Y-56198594D01*
X187549087Y-56145026D01*
X187563741Y-56089178D01*
X187568626Y-56032354D01*
X187560485Y-55963969D01*
X187536062Y-55906005D01*
X187494868Y-55866440D01*
X187436415Y-55853251D01*
X187369659Y-55874092D01*
X187318533Y-55944431D01*
X187294762Y-56002883D01*
X187270338Y-56079246D01*
X187247625Y-56146410D01*
X187219864Y-56208526D01*
X187184206Y-56262338D01*
X187137803Y-56304590D01*
X187077478Y-56331944D01*
X187000056Y-56341062D01*
X186927113Y-56331455D01*
X186863287Y-56302636D01*
X186810452Y-56255499D01*
X186770479Y-56190941D01*
X186745324Y-56109938D01*
X186736938Y-56013467D01*
X186744428Y-55919763D01*
X186766897Y-55835341D01*
X186803044Y-55761339D01*
X186851564Y-55698897D01*
X186927113Y-55765979D01*
G37*
G36*
X187195767Y-53109726D02*
G01*
X187167680Y-53152873D01*
X187128359Y-53187879D01*
X187075768Y-53211081D01*
X187007872Y-53218815D01*
X186940383Y-53211570D01*
X186885105Y-53189833D01*
X186840899Y-53155967D01*
X186806626Y-53112331D01*
X186781470Y-53061042D01*
X186764618Y-53004218D01*
X186755093Y-52944056D01*
X186752930Y-52902292D01*
X186845051Y-52902292D01*
X186857100Y-52992169D01*
X186903341Y-53068695D01*
X186945593Y-53091897D01*
X187003964Y-53099631D01*
X187063963Y-53093037D01*
X187108495Y-53073254D01*
X187159621Y-53003241D01*
X187173949Y-52907503D01*
X187173949Y-52899036D01*
X187267082Y-52899036D01*
X187275956Y-52969293D01*
X187302577Y-53021151D01*
X187348899Y-53053146D01*
X187416877Y-53063810D01*
X187482087Y-53052006D01*
X187525315Y-53016592D01*
X187549494Y-52960826D01*
X187557554Y-52887964D01*
X187557554Y-52754451D01*
X187267082Y-52754451D01*
X187267082Y-52899036D01*
X187173949Y-52899036D01*
X187173949Y-52754451D01*
X186845051Y-52754451D01*
X186845051Y-52902292D01*
X186752930Y-52902292D01*
X186751918Y-52882754D01*
X186751918Y-52641779D01*
X187648733Y-52641779D01*
X187648733Y-52862564D01*
X187646047Y-52920691D01*
X187637987Y-52977841D01*
X187623496Y-53031735D01*
X187601515Y-53080092D01*
X187532154Y-53152710D01*
X187482982Y-53172981D01*
X187422738Y-53179738D01*
X187324721Y-53155967D01*
X187260569Y-53094095D01*
X187226703Y-53013010D01*
X187195767Y-53109726D01*
G37*
%TO.C,R2*%
X185320000Y-84167621D02*
X185320000Y-83832379D01*
X186080000Y-84167621D02*
X186080000Y-83832379D01*
%TO.C,kibuzzard-63555630*%
G36*
X154622031Y-84960818D02*
G01*
X154676576Y-85013816D01*
X154713862Y-85083585D01*
X154735355Y-85167600D01*
X154742519Y-85263338D01*
X154742519Y-85377964D01*
X155075324Y-85377964D01*
X155075324Y-85491287D01*
X154178508Y-85491287D01*
X154178508Y-85377964D01*
X154268385Y-85377964D01*
X154651339Y-85377964D01*
X154651339Y-85252918D01*
X154647106Y-85193814D01*
X154634406Y-85141549D01*
X154574814Y-85065023D01*
X154523606Y-85044263D01*
X154455303Y-85037344D01*
X154393269Y-85044182D01*
X154345237Y-85064697D01*
X154286296Y-85139921D01*
X154272863Y-85190965D01*
X154268385Y-85248359D01*
X154268385Y-85377964D01*
X154178508Y-85377964D01*
X154178508Y-85262036D01*
X154185962Y-85162715D01*
X154208323Y-85078374D01*
X154245590Y-85009013D01*
X154298561Y-84957453D01*
X154368031Y-84926517D01*
X154454001Y-84916205D01*
X154548437Y-84927358D01*
X154622031Y-84960818D01*
G37*
G36*
X154857144Y-82724641D02*
G01*
X155075324Y-82724641D01*
X155075324Y-82830149D01*
X154857144Y-82830800D01*
X154857144Y-83203333D01*
X154777688Y-83203333D01*
X154164180Y-82940215D01*
X154202606Y-82849036D01*
X154769873Y-83087405D01*
X154769873Y-82830149D01*
X154515221Y-82815821D01*
X154515221Y-82724641D01*
X154769873Y-82724641D01*
X154769873Y-82608713D01*
X154857144Y-82608713D01*
X154857144Y-82724641D01*
G37*
G36*
X155075324Y-83445610D02*
G01*
X154607052Y-83473615D01*
X154543878Y-83476465D01*
X154479401Y-83478500D01*
X154417285Y-83479884D01*
X154361193Y-83480779D01*
X154282062Y-83480779D01*
X154914457Y-83631877D01*
X154914457Y-83745200D01*
X154282062Y-83907369D01*
X154362821Y-83905415D01*
X154420785Y-83905090D01*
X154483960Y-83905415D01*
X154547297Y-83906555D01*
X154605749Y-83908672D01*
X155075324Y-83932769D01*
X155075324Y-84038928D01*
X154178508Y-83988128D01*
X154178508Y-83830518D01*
X154792667Y-83685282D01*
X154178508Y-83546559D01*
X154178508Y-83387646D01*
X155075324Y-83336846D01*
X155075324Y-83445610D01*
G37*
G36*
X155075324Y-84221287D02*
G01*
X155075324Y-84369779D01*
X154398642Y-84472682D01*
X155075324Y-84576236D01*
X155075324Y-84727985D01*
X154178508Y-84854333D01*
X154178508Y-84741010D01*
X154950929Y-84645272D01*
X154282714Y-84537810D01*
X154282714Y-84399087D01*
X154950929Y-84296836D01*
X154178508Y-84189374D01*
X154178508Y-84084518D01*
X155075324Y-84221287D01*
G37*
%TO.C,R18*%
X163120000Y-55867621D02*
X163120000Y-55532379D01*
X163880000Y-55867621D02*
X163880000Y-55532379D01*
%TO.C,kibuzzard-6355586A*%
G36*
X178371218Y-81850591D02*
G01*
X178436682Y-81867901D01*
X178494025Y-81896038D01*
X178545812Y-81934291D01*
X178487685Y-81998687D01*
X178443948Y-81966631D01*
X178397076Y-81944549D01*
X178348209Y-81931727D01*
X178298488Y-81927453D01*
X178238651Y-81934576D01*
X178187933Y-81955946D01*
X178153313Y-81991991D01*
X178141773Y-82043137D01*
X178160009Y-82101548D01*
X178221555Y-82146283D01*
X178272701Y-82167084D01*
X178339519Y-82188454D01*
X178398287Y-82208328D01*
X178452638Y-82232619D01*
X178499724Y-82263819D01*
X178536694Y-82304423D01*
X178560629Y-82357207D01*
X178568607Y-82424951D01*
X178560201Y-82488776D01*
X178534985Y-82544624D01*
X178493740Y-82590855D01*
X178437252Y-82625830D01*
X178366374Y-82647842D01*
X178281962Y-82655179D01*
X178199971Y-82648625D01*
X178126102Y-82628965D01*
X178061350Y-82597337D01*
X178006713Y-82554881D01*
X178065410Y-82488776D01*
X178109005Y-82523040D01*
X178158869Y-82549468D01*
X178216569Y-82566350D01*
X178283671Y-82571978D01*
X178373141Y-82556306D01*
X178440386Y-82508437D01*
X178466030Y-82426660D01*
X178451213Y-82361980D01*
X178398785Y-82314111D01*
X178353765Y-82293524D01*
X178293929Y-82273365D01*
X178221626Y-82249074D01*
X178159724Y-82221791D01*
X178109433Y-82189736D01*
X178071964Y-82151127D01*
X178048670Y-82104042D01*
X178040906Y-82046556D01*
X178049026Y-81991136D01*
X178073388Y-81942269D01*
X178112069Y-81901595D01*
X178163143Y-81870750D01*
X178224761Y-81851303D01*
X178295069Y-81844821D01*
X178371218Y-81850591D01*
G37*
G36*
X179119673Y-81849665D02*
G01*
X179177800Y-81864197D01*
X179228376Y-81888131D01*
X179276388Y-81921184D01*
X179221110Y-81985579D01*
X179142753Y-81940845D01*
X179056417Y-81927453D01*
X178994444Y-81935075D01*
X178937314Y-81957941D01*
X178887949Y-81998402D01*
X178849269Y-82058808D01*
X178830748Y-82111268D01*
X178819636Y-82174809D01*
X178815931Y-82249430D01*
X178819446Y-82322184D01*
X178829988Y-82384680D01*
X178847559Y-82436918D01*
X178884815Y-82497752D01*
X178933325Y-82538925D01*
X178990597Y-82562432D01*
X179054138Y-82570268D01*
X179114046Y-82565282D01*
X179162698Y-82550322D01*
X179236497Y-82504733D01*
X179287785Y-82569698D01*
X179246470Y-82602110D01*
X179194326Y-82629820D01*
X179130216Y-82648839D01*
X179052998Y-82655179D01*
X178991262Y-82650018D01*
X178933705Y-82634537D01*
X178880327Y-82608734D01*
X178832584Y-82572864D01*
X178791933Y-82527179D01*
X178758374Y-82471680D01*
X178733363Y-82406715D01*
X178718357Y-82332631D01*
X178713354Y-82249430D01*
X178718452Y-82165944D01*
X178733743Y-82091766D01*
X178759229Y-82026895D01*
X178793200Y-81971618D01*
X178833946Y-81926218D01*
X178881467Y-81890696D01*
X178961534Y-81856290D01*
X179049009Y-81844821D01*
X179119673Y-81849665D01*
G37*
G36*
X179665040Y-82216947D02*
G01*
X179993287Y-82642072D01*
X179870194Y-82642072D01*
X179548787Y-82223216D01*
X179857657Y-81857358D01*
X179971631Y-81857358D01*
X179665040Y-82216947D01*
G37*
G36*
X179543088Y-82642072D02*
G01*
X179444500Y-82642072D01*
X179444500Y-81857358D01*
X179543088Y-81857358D01*
X179543088Y-82642072D01*
G37*
%TO.C,J3*%
X164630000Y-91030000D02*
X164630000Y-83350000D01*
X167290000Y-91030000D02*
X167290000Y-83350000D01*
X167290000Y-83350000D02*
X164630000Y-83350000D01*
X167290000Y-93630000D02*
X165960000Y-93630000D01*
X167290000Y-91030000D02*
X164630000Y-91030000D01*
X167290000Y-92300000D02*
X167290000Y-93630000D01*
D14*
%TO.C,U9*%
X184080000Y-66870000D02*
X183920000Y-66870000D01*
X182320000Y-65110000D02*
X182320000Y-65270000D01*
X182320000Y-65110000D02*
X182480000Y-65110000D01*
X184080000Y-66870000D02*
X184080000Y-66710000D01*
X184080000Y-65110000D02*
X183920000Y-65110000D01*
X184080000Y-65110000D02*
X184080000Y-65270000D01*
X182370000Y-66870000D02*
G75*
G03*
X182370000Y-66870000I-50000J0D01*
G01*
D13*
%TO.C,TP6*%
X186500000Y-71700000D02*
G75*
G03*
X186500000Y-71700000I-700000J0D01*
G01*
%TO.C,kibuzzard-635557DD*%
G36*
X166767679Y-71050306D02*
G01*
X166824951Y-71066761D01*
X166874529Y-71093759D01*
X166921829Y-71130872D01*
X166861992Y-71192988D01*
X166812603Y-71156579D01*
X166757896Y-71134734D01*
X166697869Y-71127453D01*
X166642378Y-71135003D01*
X166589879Y-71157656D01*
X166543648Y-71197832D01*
X166506962Y-71257953D01*
X166489233Y-71310381D01*
X166478595Y-71374207D01*
X166475049Y-71449430D01*
X166480938Y-71552830D01*
X166498604Y-71635082D01*
X166528047Y-71696185D01*
X166568888Y-71738292D01*
X166620747Y-71763556D01*
X166683622Y-71771978D01*
X166760840Y-71762575D01*
X166832929Y-71734366D01*
X166832929Y-71495020D01*
X166678494Y-71495020D01*
X166666526Y-71412958D01*
X166930947Y-71412958D01*
X166930947Y-71786794D01*
X166876168Y-71813507D01*
X166817827Y-71835518D01*
X166751936Y-71850264D01*
X166674504Y-71855179D01*
X166587726Y-71843940D01*
X166513547Y-71810222D01*
X166451970Y-71754027D01*
X166415694Y-71697057D01*
X166389782Y-71627301D01*
X166374235Y-71544759D01*
X166369053Y-71449430D01*
X166375820Y-71354404D01*
X166396122Y-71272200D01*
X166428106Y-71202676D01*
X166469921Y-71145688D01*
X166519642Y-71101381D01*
X166575347Y-71069896D01*
X166635183Y-71051090D01*
X166697299Y-71044821D01*
X166767679Y-71050306D01*
G37*
%TO.C,C28*%
X135957836Y-51840000D02*
X135742164Y-51840000D01*
X135957836Y-52560000D02*
X135742164Y-52560000D01*
%TO.C,C1*%
X173434165Y-71640000D02*
X173665835Y-71640000D01*
X173434165Y-72360000D02*
X173665835Y-72360000D01*
%TO.C,kibuzzard-63555725*%
G36*
X168309500Y-89692192D02*
G01*
X168238999Y-89744376D01*
X168153844Y-89776533D01*
X168419567Y-90174467D01*
X168284100Y-90174467D01*
X168039218Y-89789559D01*
X167918079Y-89789559D01*
X167918079Y-90174467D01*
X167804756Y-90174467D01*
X167804756Y-89700985D01*
X167918079Y-89700985D01*
X168048336Y-89700985D01*
X168133979Y-89691134D01*
X168198131Y-89661582D01*
X168238185Y-89608747D01*
X168251536Y-89529046D01*
X168239080Y-89455126D01*
X168201713Y-89405303D01*
X168138457Y-89376972D01*
X168048336Y-89367528D01*
X167918079Y-89367528D01*
X167918079Y-89700985D01*
X167804756Y-89700985D01*
X167804756Y-89277651D01*
X168035310Y-89277651D01*
X168137091Y-89284707D01*
X168220998Y-89305874D01*
X168287031Y-89341151D01*
X168334611Y-89390251D01*
X168363158Y-89452882D01*
X168372674Y-89529046D01*
X168356881Y-89620307D01*
X168309500Y-89692192D01*
G37*
G36*
X168844854Y-89622180D02*
G01*
X169042192Y-89277651D01*
X169164633Y-89277651D01*
X168909982Y-89690564D01*
X169195244Y-90174467D01*
X169065638Y-90174467D01*
X168842249Y-89769369D01*
X168616254Y-90174467D01*
X168494464Y-90174467D01*
X168775818Y-89696426D01*
X168518562Y-89277651D01*
X168648167Y-89277651D01*
X168844854Y-89622180D01*
G37*
%TO.C,kibuzzard-635558BC*%
G36*
X183986702Y-80551517D02*
G01*
X184045826Y-80571605D01*
X184093766Y-80602806D01*
X184129312Y-80642839D01*
X184151323Y-80689569D01*
X184158661Y-80740857D01*
X184137575Y-80827193D01*
X184081728Y-80890733D01*
X184005365Y-80923786D01*
X184050171Y-80931978D01*
X184092271Y-80949715D01*
X184129170Y-80976998D01*
X184158376Y-81013826D01*
X184177395Y-81060128D01*
X184183735Y-81115833D01*
X184175187Y-81180299D01*
X184149543Y-81238070D01*
X184108583Y-81286723D01*
X184054089Y-81323836D01*
X183987770Y-81347343D01*
X183911336Y-81355179D01*
X183845516Y-81348910D01*
X183780266Y-81330104D01*
X183720287Y-81297622D01*
X183670280Y-81250322D01*
X183734676Y-81197894D01*
X183771504Y-81232229D01*
X183814743Y-81256591D01*
X183861544Y-81271123D01*
X183909057Y-81275967D01*
X183982143Y-81265210D01*
X184037278Y-81232941D01*
X184071898Y-81182152D01*
X184083437Y-81115833D01*
X184071826Y-81044884D01*
X184036993Y-80999579D01*
X183984778Y-80975217D01*
X183921024Y-80967096D01*
X183854919Y-80967096D01*
X183866886Y-80891303D01*
X183913046Y-80891303D01*
X183985135Y-80876487D01*
X184040697Y-80831467D01*
X184062352Y-80754534D01*
X184051525Y-80697262D01*
X184019042Y-80655376D01*
X183971173Y-80629732D01*
X183914186Y-80621184D01*
X183866174Y-80625672D01*
X183824716Y-80639135D01*
X183786392Y-80661716D01*
X183747783Y-80693558D01*
X183694785Y-80634861D01*
X183746501Y-80594044D01*
X183801351Y-80566191D01*
X183858623Y-80550164D01*
X183917605Y-80544821D01*
X183986702Y-80551517D01*
G37*
G36*
X183341821Y-80550591D02*
G01*
X183407285Y-80567901D01*
X183464628Y-80596038D01*
X183516415Y-80634291D01*
X183458288Y-80698687D01*
X183414550Y-80666631D01*
X183367679Y-80644549D01*
X183318812Y-80631727D01*
X183269091Y-80627453D01*
X183209254Y-80634576D01*
X183158536Y-80655946D01*
X183123916Y-80691991D01*
X183112376Y-80743137D01*
X183130612Y-80801548D01*
X183192158Y-80846283D01*
X183243304Y-80867084D01*
X183310121Y-80888454D01*
X183368890Y-80908328D01*
X183423241Y-80932619D01*
X183470327Y-80963819D01*
X183507297Y-81004423D01*
X183531232Y-81057207D01*
X183539210Y-81124951D01*
X183530804Y-81188776D01*
X183505587Y-81244624D01*
X183464343Y-81290855D01*
X183407854Y-81325830D01*
X183336977Y-81347842D01*
X183252564Y-81355179D01*
X183170574Y-81348625D01*
X183096704Y-81328965D01*
X183031953Y-81297337D01*
X182977316Y-81254881D01*
X183036013Y-81188776D01*
X183079608Y-81223040D01*
X183129472Y-81249468D01*
X183187172Y-81266350D01*
X183254274Y-81271978D01*
X183343744Y-81256306D01*
X183410989Y-81208437D01*
X183436633Y-81126660D01*
X183421816Y-81061980D01*
X183369388Y-81014111D01*
X183324368Y-80993524D01*
X183264532Y-80973365D01*
X183192229Y-80949074D01*
X183130327Y-80921791D01*
X183080036Y-80889736D01*
X183042567Y-80851127D01*
X183019273Y-80804042D01*
X183011509Y-80746556D01*
X183019629Y-80691136D01*
X183043991Y-80642269D01*
X183082671Y-80601595D01*
X183133746Y-80570750D01*
X183195364Y-80551303D01*
X183265671Y-80544821D01*
X183341821Y-80550591D01*
G37*
G36*
X182722584Y-80549665D02*
G01*
X182780711Y-80564197D01*
X182831287Y-80588131D01*
X182879298Y-80621184D01*
X182824021Y-80685579D01*
X182745663Y-80640845D01*
X182659328Y-80627453D01*
X182597354Y-80635075D01*
X182540225Y-80657941D01*
X182490860Y-80698402D01*
X182452179Y-80758808D01*
X182433659Y-80811268D01*
X182422546Y-80874809D01*
X182418842Y-80949430D01*
X182422356Y-81022184D01*
X182432899Y-81084680D01*
X182450470Y-81136918D01*
X182487725Y-81197752D01*
X182536236Y-81238925D01*
X182593508Y-81262432D01*
X182657048Y-81270268D01*
X182716956Y-81265282D01*
X182765609Y-81250322D01*
X182839407Y-81204733D01*
X182890696Y-81269698D01*
X182849380Y-81302110D01*
X182797237Y-81329820D01*
X182733126Y-81348839D01*
X182655909Y-81355179D01*
X182594173Y-81350018D01*
X182536615Y-81334537D01*
X182483237Y-81308734D01*
X182435495Y-81272864D01*
X182394844Y-81227179D01*
X182361285Y-81171680D01*
X182336274Y-81106715D01*
X182321267Y-81032631D01*
X182316265Y-80949430D01*
X182321362Y-80865944D01*
X182336654Y-80791766D01*
X182362140Y-80726895D01*
X182396110Y-80671618D01*
X182436856Y-80626218D01*
X182484377Y-80590696D01*
X182564444Y-80556290D01*
X182651920Y-80544821D01*
X182722584Y-80549665D01*
G37*
%TO.C,C30*%
X138115000Y-43357836D02*
X138115000Y-43142164D01*
X138835000Y-43357836D02*
X138835000Y-43142164D01*
%TO.C,J1*%
X201910000Y-75350000D02*
X201810000Y-76150000D01*
X201510000Y-83850000D02*
X202510000Y-83850000D01*
X190290000Y-85260000D02*
X187590000Y-85260000D01*
X202410000Y-72850000D02*
X202210000Y-73650000D01*
X201510000Y-71440000D02*
X201110000Y-71440000D01*
X202010000Y-82050000D02*
X202310000Y-83350000D01*
X198590000Y-85260000D02*
X192810000Y-85260000D01*
X201510000Y-71440000D02*
X201510000Y-85260000D01*
X201810000Y-80550000D02*
X202010000Y-82050000D01*
X198590000Y-71440000D02*
X192810000Y-71440000D01*
X201810000Y-76150000D02*
X201710000Y-77450000D01*
X202310000Y-83350000D02*
X202410000Y-83850000D01*
X201510000Y-72850000D02*
X202510000Y-72850000D01*
X187590000Y-85260000D02*
X187590000Y-71440000D01*
X201510000Y-85260000D02*
X201110000Y-85260000D01*
X203010000Y-73350000D02*
X203010000Y-83350000D01*
X190290000Y-71440000D02*
X187590000Y-71440000D01*
X202210000Y-73650000D02*
X201910000Y-75350000D01*
X201710000Y-77450000D02*
X201710000Y-79250000D01*
X201710000Y-79250000D02*
X201810000Y-80550000D01*
X203010000Y-73350000D02*
G75*
G03*
X202510000Y-72850000I-500001J-1D01*
G01*
X202510000Y-83850000D02*
G75*
G03*
X203010000Y-83350000I-1J500001D01*
G01*
%TO.C,TP14*%
X166200000Y-71450000D02*
G75*
G03*
X166200000Y-71450000I-700000J0D01*
G01*
%TO.C,C32*%
X142872164Y-53010000D02*
X143087836Y-53010000D01*
X142872164Y-52290000D02*
X143087836Y-52290000D01*
%TO.C,C29*%
X137932836Y-44990000D02*
X137717164Y-44990000D01*
X137932836Y-45710000D02*
X137717164Y-45710000D01*
%TO.C,R17*%
X135628641Y-44920000D02*
X135321359Y-44920000D01*
X135628641Y-45680000D02*
X135321359Y-45680000D01*
%TO.C,kibuzzard-63555924*%
G36*
X177156913Y-58453742D02*
G01*
X177514793Y-58453742D01*
X177503396Y-58542072D01*
X177057756Y-58542072D01*
X177057756Y-57757358D01*
X177156913Y-57757358D01*
X177156913Y-58453742D01*
G37*
G36*
X175949711Y-57750591D02*
G01*
X176015175Y-57767901D01*
X176072519Y-57796038D01*
X176124306Y-57834291D01*
X176066179Y-57898687D01*
X176022441Y-57866631D01*
X175975569Y-57844549D01*
X175926703Y-57831727D01*
X175876981Y-57827453D01*
X175817145Y-57834576D01*
X175766426Y-57855946D01*
X175731807Y-57891991D01*
X175720267Y-57943137D01*
X175738503Y-58001548D01*
X175800049Y-58046283D01*
X175851195Y-58067084D01*
X175918012Y-58088454D01*
X175976780Y-58108328D01*
X176031132Y-58132619D01*
X176078217Y-58163819D01*
X176115188Y-58204423D01*
X176139122Y-58257207D01*
X176147101Y-58324951D01*
X176138695Y-58388776D01*
X176113478Y-58444624D01*
X176072234Y-58490855D01*
X176015745Y-58525830D01*
X175944867Y-58547842D01*
X175860455Y-58555179D01*
X175778465Y-58548625D01*
X175704595Y-58528965D01*
X175639844Y-58497337D01*
X175585207Y-58454881D01*
X175643904Y-58388776D01*
X175687499Y-58423040D01*
X175737363Y-58449468D01*
X175795062Y-58466350D01*
X175862165Y-58471978D01*
X175951635Y-58456306D01*
X176018879Y-58408437D01*
X176044524Y-58326660D01*
X176029707Y-58261980D01*
X175977279Y-58214111D01*
X175932259Y-58193524D01*
X175872422Y-58173365D01*
X175800120Y-58149074D01*
X175738218Y-58121791D01*
X175687926Y-58089736D01*
X175650457Y-58051127D01*
X175627164Y-58004042D01*
X175619399Y-57946556D01*
X175627520Y-57891136D01*
X175651882Y-57842269D01*
X175690562Y-57801595D01*
X175741637Y-57770750D01*
X175803254Y-57751303D01*
X175873562Y-57744821D01*
X175949711Y-57750591D01*
G37*
G36*
X176698167Y-57749665D02*
G01*
X176756294Y-57764197D01*
X176806870Y-57788131D01*
X176854881Y-57821184D01*
X176799604Y-57885579D01*
X176721246Y-57840845D01*
X176634911Y-57827453D01*
X176572937Y-57835075D01*
X176515808Y-57857941D01*
X176466443Y-57898402D01*
X176427762Y-57958808D01*
X176409242Y-58011268D01*
X176398129Y-58074809D01*
X176394425Y-58149430D01*
X176397939Y-58222184D01*
X176408482Y-58284680D01*
X176426053Y-58336918D01*
X176463308Y-58397752D01*
X176511819Y-58438925D01*
X176569091Y-58462432D01*
X176632631Y-58470268D01*
X176692539Y-58465282D01*
X176741192Y-58450322D01*
X176814990Y-58404733D01*
X176866279Y-58469698D01*
X176824963Y-58502110D01*
X176772820Y-58529820D01*
X176708709Y-58548839D01*
X176631492Y-58555179D01*
X176569756Y-58550018D01*
X176512199Y-58534537D01*
X176458821Y-58508734D01*
X176411078Y-58472864D01*
X176370427Y-58427179D01*
X176336868Y-58371680D01*
X176311857Y-58306715D01*
X176296850Y-58232631D01*
X176291848Y-58149430D01*
X176296945Y-58065944D01*
X176312237Y-57991766D01*
X176337723Y-57926895D01*
X176371693Y-57871618D01*
X176412439Y-57826218D01*
X176459960Y-57790696D01*
X176540027Y-57756290D01*
X176627503Y-57744821D01*
X176698167Y-57749665D01*
G37*
%TO.C,U1*%
X173081220Y-73924400D02*
X172575100Y-73924400D01*
X176818780Y-77175600D02*
X177324900Y-77175600D01*
X177324900Y-73924400D02*
X176818780Y-73924400D01*
X177324900Y-77175600D02*
X177324900Y-73924400D01*
X172575100Y-77175600D02*
X173081220Y-77175600D01*
X172575100Y-73924400D02*
X172575100Y-77175600D01*
%TO.C,TP7*%
X176300000Y-82650000D02*
G75*
G03*
X176300000Y-82650000I-700000J0D01*
G01*
%TO.C,kibuzzard-635555EF*%
G36*
X144898408Y-83081544D02*
G01*
X144430136Y-83109549D01*
X144366962Y-83112398D01*
X144302485Y-83114433D01*
X144240369Y-83115817D01*
X144184277Y-83116713D01*
X144105146Y-83116713D01*
X144737541Y-83267810D01*
X144737541Y-83381133D01*
X144105146Y-83543303D01*
X144185905Y-83541349D01*
X144243869Y-83541023D01*
X144307044Y-83541349D01*
X144370381Y-83542488D01*
X144428833Y-83544605D01*
X144898408Y-83568703D01*
X144898408Y-83674862D01*
X144001592Y-83624062D01*
X144001592Y-83466451D01*
X144615751Y-83321215D01*
X144001592Y-83182492D01*
X144001592Y-83023579D01*
X144898408Y-82972779D01*
X144898408Y-83081544D01*
G37*
G36*
X144445115Y-83815213D02*
G01*
X144499660Y-83868211D01*
X144536946Y-83937979D01*
X144558438Y-84021995D01*
X144565603Y-84117733D01*
X144565603Y-84232359D01*
X144898408Y-84232359D01*
X144898408Y-84345682D01*
X144001592Y-84345682D01*
X144001592Y-84232359D01*
X144091469Y-84232359D01*
X144474423Y-84232359D01*
X144474423Y-84107313D01*
X144470190Y-84048209D01*
X144457490Y-83995944D01*
X144397897Y-83919418D01*
X144346690Y-83898658D01*
X144278387Y-83891738D01*
X144216353Y-83898577D01*
X144168321Y-83919092D01*
X144109379Y-83994315D01*
X144095947Y-84045360D01*
X144091469Y-84102754D01*
X144091469Y-84232359D01*
X144001592Y-84232359D01*
X144001592Y-84116431D01*
X144009046Y-84017110D01*
X144031407Y-83932769D01*
X144068674Y-83863408D01*
X144121645Y-83811848D01*
X144191115Y-83780912D01*
X144277085Y-83770600D01*
X144371521Y-83781753D01*
X144445115Y-83815213D01*
G37*
G36*
X144445115Y-84596751D02*
G01*
X144499660Y-84649749D01*
X144536946Y-84719518D01*
X144558438Y-84803533D01*
X144565603Y-84899272D01*
X144565603Y-85013897D01*
X144898408Y-85013897D01*
X144898408Y-85127221D01*
X144001592Y-85127221D01*
X144001592Y-85013897D01*
X144091469Y-85013897D01*
X144474423Y-85013897D01*
X144474423Y-84888851D01*
X144470190Y-84829747D01*
X144457490Y-84777482D01*
X144397897Y-84700956D01*
X144346690Y-84680197D01*
X144278387Y-84673277D01*
X144216353Y-84680115D01*
X144168321Y-84700631D01*
X144109379Y-84775854D01*
X144095947Y-84826898D01*
X144091469Y-84884292D01*
X144091469Y-85013897D01*
X144001592Y-85013897D01*
X144001592Y-84897969D01*
X144009046Y-84798649D01*
X144031407Y-84714308D01*
X144068674Y-84644946D01*
X144121645Y-84593386D01*
X144191115Y-84562450D01*
X144277085Y-84552138D01*
X144371521Y-84563292D01*
X144445115Y-84596751D01*
G37*
%TO.C,TP9*%
X179750000Y-80950000D02*
G75*
G03*
X179750000Y-80950000I-700000J0D01*
G01*
%TO.C,R1*%
X185270000Y-75517621D02*
X185270000Y-75182379D01*
X186030000Y-75517621D02*
X186030000Y-75182379D01*
%TO.C,kibuzzard-63555878*%
G36*
X174428816Y-82929807D02*
G01*
X174640808Y-82257358D01*
X174740536Y-82257358D01*
X174477825Y-83042072D01*
X174375248Y-83042072D01*
X174112537Y-82257358D01*
X174219103Y-82257358D01*
X174428816Y-82929807D01*
G37*
G36*
X173775885Y-82251517D02*
G01*
X173835010Y-82271605D01*
X173882950Y-82302806D01*
X173918496Y-82342839D01*
X173940507Y-82389569D01*
X173947844Y-82440857D01*
X173926759Y-82527193D01*
X173870912Y-82590733D01*
X173794549Y-82623786D01*
X173839355Y-82631978D01*
X173881454Y-82649715D01*
X173918353Y-82676998D01*
X173947559Y-82713826D01*
X173966579Y-82760128D01*
X173972919Y-82815833D01*
X173964371Y-82880299D01*
X173938726Y-82938070D01*
X173897767Y-82986723D01*
X173843273Y-83023836D01*
X173776954Y-83047343D01*
X173700520Y-83055179D01*
X173634700Y-83048910D01*
X173569449Y-83030104D01*
X173509470Y-82997622D01*
X173459464Y-82950322D01*
X173523860Y-82897894D01*
X173560688Y-82932229D01*
X173603927Y-82956591D01*
X173650727Y-82971123D01*
X173698240Y-82975967D01*
X173771326Y-82965210D01*
X173826462Y-82932941D01*
X173861081Y-82882152D01*
X173872621Y-82815833D01*
X173861010Y-82744884D01*
X173826177Y-82699579D01*
X173773962Y-82675217D01*
X173710208Y-82667096D01*
X173644103Y-82667096D01*
X173656070Y-82591303D01*
X173702229Y-82591303D01*
X173774318Y-82576487D01*
X173829881Y-82531467D01*
X173851536Y-82454534D01*
X173840708Y-82397262D01*
X173808226Y-82355376D01*
X173760356Y-82329732D01*
X173703369Y-82321184D01*
X173655358Y-82325672D01*
X173613899Y-82339135D01*
X173575575Y-82361716D01*
X173536967Y-82393558D01*
X173483969Y-82334861D01*
X173535684Y-82294044D01*
X173590535Y-82266191D01*
X173647807Y-82250164D01*
X173706788Y-82244821D01*
X173775885Y-82251517D01*
G37*
%TO.C,TP13*%
X172050000Y-77950000D02*
G75*
G03*
X172050000Y-77950000I-700000J0D01*
G01*
%TO.C,kibuzzard-6355561B*%
G36*
X149401608Y-82799050D02*
G01*
X149424810Y-82738318D01*
X149463643Y-82686215D01*
X149518269Y-82645836D01*
X149589096Y-82619947D01*
X149676530Y-82611318D01*
X149768524Y-82620843D01*
X149846515Y-82649418D01*
X149909201Y-82694031D01*
X149955279Y-82751669D01*
X149983610Y-82819158D01*
X149993054Y-82893323D01*
X149979539Y-82991260D01*
X149938997Y-83067541D01*
X149873788Y-83123877D01*
X149786271Y-83161977D01*
X149716620Y-83178078D01*
X149639226Y-83187739D01*
X149554089Y-83190959D01*
X149459436Y-83186581D01*
X149373467Y-83173447D01*
X149296182Y-83151556D01*
X149228738Y-83121344D01*
X149172293Y-83083244D01*
X149126848Y-83037256D01*
X149081910Y-82954869D01*
X149066930Y-82857503D01*
X149080282Y-82762090D01*
X149119033Y-82680354D01*
X149193279Y-82723338D01*
X149164948Y-82788629D01*
X149155505Y-82859456D01*
X149166360Y-82923354D01*
X149198924Y-82976977D01*
X149253197Y-83020323D01*
X149325707Y-83052598D01*
X149412978Y-83073005D01*
X149515013Y-83081544D01*
X149459979Y-83035872D01*
X149422530Y-82984828D01*
X149401038Y-82928085D01*
X149395807Y-82882251D01*
X149483751Y-82882251D01*
X149492543Y-82943146D01*
X149518920Y-82996877D01*
X149559463Y-83042792D01*
X149610751Y-83080241D01*
X149702944Y-83073547D01*
X149777190Y-83057808D01*
X149833489Y-83033023D01*
X149886732Y-82976280D01*
X149904479Y-82893974D01*
X149889418Y-82819321D01*
X149844236Y-82765997D01*
X149772839Y-82734003D01*
X149679136Y-82723338D01*
X149585921Y-82734247D01*
X149526410Y-82766974D01*
X149494416Y-82817612D01*
X149483751Y-82882251D01*
X149395807Y-82882251D01*
X149393874Y-82865318D01*
X149401608Y-82799050D01*
G37*
G36*
X149978074Y-84218682D02*
G01*
X149978074Y-84367174D01*
X149301392Y-84470077D01*
X149978074Y-84573631D01*
X149978074Y-84725379D01*
X149081259Y-84851728D01*
X149081259Y-84738405D01*
X149853679Y-84642667D01*
X149185464Y-84535205D01*
X149185464Y-84396482D01*
X149853679Y-84294231D01*
X149081259Y-84186769D01*
X149081259Y-84081913D01*
X149978074Y-84218682D01*
G37*
G36*
X149524782Y-84958213D02*
G01*
X149579327Y-85011211D01*
X149616613Y-85080979D01*
X149638105Y-85164995D01*
X149645269Y-85260733D01*
X149645269Y-85375359D01*
X149978074Y-85375359D01*
X149978074Y-85488682D01*
X149081259Y-85488682D01*
X149081259Y-85375359D01*
X149171136Y-85375359D01*
X149554089Y-85375359D01*
X149554089Y-85250313D01*
X149549856Y-85191209D01*
X149537156Y-85138944D01*
X149477564Y-85062418D01*
X149426357Y-85041658D01*
X149358054Y-85034738D01*
X149296019Y-85041577D01*
X149247987Y-85062092D01*
X149189046Y-85137315D01*
X149175613Y-85188360D01*
X149171136Y-85245754D01*
X149171136Y-85375359D01*
X149081259Y-85375359D01*
X149081259Y-85259431D01*
X149088712Y-85160110D01*
X149111073Y-85075769D01*
X149148341Y-85006408D01*
X149201312Y-84954848D01*
X149270782Y-84923912D01*
X149356751Y-84913600D01*
X149451187Y-84924753D01*
X149524782Y-84958213D01*
G37*
G36*
X149978074Y-83443005D02*
G01*
X149509802Y-83471010D01*
X149446628Y-83473860D01*
X149382151Y-83475895D01*
X149320035Y-83477279D01*
X149263943Y-83478174D01*
X149184813Y-83478174D01*
X149817207Y-83629272D01*
X149817207Y-83742595D01*
X149184813Y-83904764D01*
X149265571Y-83902810D01*
X149323536Y-83902485D01*
X149386710Y-83902810D01*
X149450047Y-83903950D01*
X149508500Y-83906067D01*
X149978074Y-83930164D01*
X149978074Y-84036323D01*
X149081259Y-83985523D01*
X149081259Y-83827913D01*
X149695418Y-83682677D01*
X149081259Y-83543954D01*
X149081259Y-83385041D01*
X149978074Y-83334241D01*
X149978074Y-83443005D01*
G37*
%TO.C,TP4*%
X162000000Y-71450000D02*
G75*
G03*
X162000000Y-71450000I-700000J0D01*
G01*
%TO.C,Q1*%
X134705000Y-47530000D02*
X135075000Y-47530000D01*
X134705000Y-51070000D02*
X135075000Y-51070000D01*
X134705000Y-47530000D02*
X134705000Y-51070000D01*
X138245000Y-51070000D02*
X138245000Y-47300000D01*
X138245000Y-51070000D02*
X137875000Y-51070000D01*
%TO.C,C20*%
X172718335Y-69040000D02*
X172486665Y-69040000D01*
X172718335Y-69760000D02*
X172486665Y-69760000D01*
%TO.C,TP10*%
X177550000Y-72100000D02*
G75*
G03*
X177550000Y-72100000I-700000J0D01*
G01*
D14*
%TO.C,U5*%
X180205000Y-77250000D02*
X179725000Y-77250000D01*
X179725000Y-78810000D02*
X179725000Y-79450000D01*
X182425000Y-77250000D02*
X182425000Y-77890000D01*
X182425000Y-77250000D02*
X181945000Y-77250000D01*
X180205000Y-79450000D02*
X179725000Y-79450000D01*
X182425000Y-78810000D02*
X182425000Y-79450000D01*
X179725000Y-77250000D02*
X179725000Y-77890000D01*
%TO.C,kibuzzard-63555609*%
G36*
X147437264Y-82981572D02*
G01*
X147406002Y-83083823D01*
X146619254Y-82734085D01*
X146619254Y-83154813D01*
X146528074Y-83154813D01*
X146528074Y-82624018D01*
X146612090Y-82624018D01*
X147437264Y-82981572D01*
G37*
G36*
X147424890Y-83430305D02*
G01*
X146956618Y-83458310D01*
X146893443Y-83461160D01*
X146828966Y-83463195D01*
X146766850Y-83464579D01*
X146710759Y-83465474D01*
X146631628Y-83465474D01*
X147264023Y-83616572D01*
X147264023Y-83729895D01*
X146631628Y-83892064D01*
X146712387Y-83890110D01*
X146770351Y-83889785D01*
X146833525Y-83890110D01*
X146896863Y-83891250D01*
X146955315Y-83893367D01*
X147424890Y-83917464D01*
X147424890Y-84023623D01*
X146528074Y-83972823D01*
X146528074Y-83815213D01*
X147142233Y-83669977D01*
X146528074Y-83531254D01*
X146528074Y-83372341D01*
X147424890Y-83321541D01*
X147424890Y-83430305D01*
G37*
G36*
X147424890Y-84205982D02*
G01*
X147424890Y-84354474D01*
X146748207Y-84457377D01*
X147424890Y-84560931D01*
X147424890Y-84712679D01*
X146528074Y-84839028D01*
X146528074Y-84725705D01*
X147300495Y-84629967D01*
X146632279Y-84522505D01*
X146632279Y-84383782D01*
X147300495Y-84281531D01*
X146528074Y-84174069D01*
X146528074Y-84069213D01*
X147424890Y-84205982D01*
G37*
G36*
X146971597Y-84945513D02*
G01*
X147026142Y-84998511D01*
X147063428Y-85068279D01*
X147084920Y-85152295D01*
X147092084Y-85248033D01*
X147092084Y-85362659D01*
X147424890Y-85362659D01*
X147424890Y-85475982D01*
X146528074Y-85475982D01*
X146528074Y-85362659D01*
X146617951Y-85362659D01*
X147000905Y-85362659D01*
X147000905Y-85237613D01*
X146996672Y-85178509D01*
X146983972Y-85126244D01*
X146924379Y-85049718D01*
X146873172Y-85028958D01*
X146804869Y-85022038D01*
X146742834Y-85028877D01*
X146694802Y-85049392D01*
X146635861Y-85124615D01*
X146622429Y-85175660D01*
X146617951Y-85233054D01*
X146617951Y-85362659D01*
X146528074Y-85362659D01*
X146528074Y-85246731D01*
X146535528Y-85147410D01*
X146557888Y-85063069D01*
X146595156Y-84993708D01*
X146648127Y-84942148D01*
X146717597Y-84911212D01*
X146803566Y-84900900D01*
X146898002Y-84912053D01*
X146971597Y-84945513D01*
G37*
D13*
%TO.C,J4*%
X203890000Y-46990000D02*
X203370000Y-46990000D01*
X188410000Y-60960000D02*
X188410000Y-47640000D01*
X203370000Y-46990000D02*
X203370000Y-47640000D01*
X188410000Y-47640000D02*
X191740000Y-47640000D01*
X188190000Y-58700000D02*
X188190000Y-56900000D01*
X195260000Y-47640000D02*
X203370000Y-47640000D01*
X203890000Y-61610000D02*
X203890000Y-46990000D01*
X203370000Y-61610000D02*
X203890000Y-61610000D01*
X203370000Y-60960000D02*
X195260000Y-60960000D01*
X188410000Y-60960000D02*
X191740000Y-60960000D01*
X203370000Y-60960000D02*
X203370000Y-61610000D01*
%TO.C,J8*%
X160980000Y-88530000D02*
X143140000Y-88530000D01*
X162250000Y-85870000D02*
X163580000Y-85870000D01*
X163580000Y-85870000D02*
X163580000Y-87200000D01*
X143140000Y-85870000D02*
X143140000Y-88530000D01*
X160980000Y-85870000D02*
X160980000Y-88530000D01*
X160980000Y-85870000D02*
X143140000Y-85870000D01*
%TO.C,C25*%
X175518335Y-60640000D02*
X175286665Y-60640000D01*
X175518335Y-61360000D02*
X175286665Y-61360000D01*
%TO.C,C2*%
X179740835Y-76110000D02*
X179509165Y-76110000D01*
X179740835Y-75390000D02*
X179509165Y-75390000D01*
%TO.C,J9*%
X145720000Y-93630000D02*
X163560000Y-93630000D01*
X143120000Y-88430000D02*
X163560000Y-88430000D01*
X143120000Y-91030000D02*
X143120000Y-88430000D01*
X163560000Y-93630000D02*
X163560000Y-88430000D01*
X144450000Y-93630000D02*
X143120000Y-93630000D01*
X143120000Y-93630000D02*
X143120000Y-92300000D01*
X145720000Y-91030000D02*
X143120000Y-91030000D01*
X145720000Y-93630000D02*
X145720000Y-91030000D01*
%TO.C,TP5*%
X174000000Y-52650000D02*
G75*
G03*
X174000000Y-52650000I-700000J0D01*
G01*
%TO.C,C23*%
X142867164Y-50915000D02*
X143082836Y-50915000D01*
X142867164Y-51635000D02*
X143082836Y-51635000D01*
%TO.C,D8*%
X137355000Y-41840000D02*
X136425000Y-41840000D01*
X134195000Y-41840000D02*
X135125000Y-41840000D01*
X134195000Y-41840000D02*
X134195000Y-44000000D01*
X137355000Y-41840000D02*
X137355000Y-43300000D01*
%TO.C,kibuzzard-63555626*%
G36*
X152519535Y-84208913D02*
G01*
X152519535Y-84357405D01*
X151842853Y-84460308D01*
X152519535Y-84563862D01*
X152519535Y-84715610D01*
X151622720Y-84841959D01*
X151622720Y-84728636D01*
X152395140Y-84632897D01*
X151726925Y-84525436D01*
X151726925Y-84386713D01*
X152395140Y-84284462D01*
X151622720Y-84177000D01*
X151622720Y-84072144D01*
X152519535Y-84208913D01*
G37*
G36*
X152519535Y-83433236D02*
G01*
X152051263Y-83461241D01*
X151988089Y-83464090D01*
X151923612Y-83466126D01*
X151861496Y-83467510D01*
X151805404Y-83468405D01*
X151726273Y-83468405D01*
X152358668Y-83619503D01*
X152358668Y-83732826D01*
X151726273Y-83894995D01*
X151807032Y-83893041D01*
X151864996Y-83892715D01*
X151928171Y-83893041D01*
X151991508Y-83894181D01*
X152049961Y-83896297D01*
X152519535Y-83920395D01*
X152519535Y-84026554D01*
X151622720Y-83975754D01*
X151622720Y-83818144D01*
X152236879Y-83672908D01*
X151622720Y-83534185D01*
X151622720Y-83375272D01*
X152519535Y-83324472D01*
X152519535Y-83433236D01*
G37*
G36*
X152066243Y-84948444D02*
G01*
X152120788Y-85001442D01*
X152158073Y-85071210D01*
X152179566Y-85155226D01*
X152186730Y-85250964D01*
X152186730Y-85365590D01*
X152519535Y-85365590D01*
X152519535Y-85478913D01*
X151622720Y-85478913D01*
X151622720Y-85365590D01*
X151712596Y-85365590D01*
X152095550Y-85365590D01*
X152095550Y-85240544D01*
X152091317Y-85181440D01*
X152078617Y-85129174D01*
X152019025Y-85052649D01*
X151967818Y-85031889D01*
X151899514Y-85024969D01*
X151837480Y-85031808D01*
X151789448Y-85052323D01*
X151730507Y-85127546D01*
X151717074Y-85178590D01*
X151712596Y-85235985D01*
X151712596Y-85365590D01*
X151622720Y-85365590D01*
X151622720Y-85249662D01*
X151630173Y-85150341D01*
X151652534Y-85066000D01*
X151689802Y-84996638D01*
X151742773Y-84945079D01*
X151812243Y-84914143D01*
X151898212Y-84903831D01*
X151992648Y-84914984D01*
X152066243Y-84948444D01*
G37*
G36*
X152319754Y-82630449D02*
G01*
X152392535Y-82658536D01*
X152452209Y-82703637D01*
X152497066Y-82764044D01*
X152525152Y-82838208D01*
X152534514Y-82924585D01*
X152527350Y-83001029D01*
X152505858Y-83068844D01*
X152471666Y-83129494D01*
X152426402Y-83184446D01*
X152361273Y-83116713D01*
X152407225Y-83059617D01*
X152434796Y-82995140D01*
X152443986Y-82923282D01*
X152430554Y-82844477D01*
X152390255Y-82785210D01*
X152323906Y-82748087D01*
X152232320Y-82735713D01*
X152167680Y-82741086D01*
X152118345Y-82757205D01*
X152058753Y-82815495D01*
X152040843Y-82897231D01*
X152048658Y-82967569D01*
X152070802Y-83037256D01*
X152070802Y-83125179D01*
X151622720Y-83125179D01*
X151622720Y-82650395D01*
X151709991Y-82666677D01*
X151709991Y-83020974D01*
X151992648Y-83020974D01*
X151962689Y-82943146D01*
X151954222Y-82865969D01*
X151972621Y-82766974D01*
X152027817Y-82688821D01*
X152083610Y-82651191D01*
X152152863Y-82628613D01*
X152235576Y-82621087D01*
X152319754Y-82630449D01*
G37*
%TO.C,R21*%
X166677142Y-55867621D02*
X166677142Y-55532379D01*
X167437142Y-55867621D02*
X167437142Y-55532379D01*
%TO.C,R23*%
X169048570Y-55867621D02*
X169048570Y-55532379D01*
X169808570Y-55867621D02*
X169808570Y-55532379D01*
%TO.C,C21*%
X142867164Y-49540000D02*
X143082836Y-49540000D01*
X142867164Y-50260000D02*
X143082836Y-50260000D01*
%TO.C,R22*%
X168622856Y-55867621D02*
X168622856Y-55532379D01*
X167862856Y-55867621D02*
X167862856Y-55532379D01*
%TO.C,C33*%
X175168335Y-69760000D02*
X174936665Y-69760000D01*
X175168335Y-69040000D02*
X174936665Y-69040000D01*
%TO.C,TP1*%
X164100000Y-71450000D02*
G75*
G03*
X164100000Y-71450000I-700000J0D01*
G01*
%TO.C,C22*%
X177492500Y-67665835D02*
X177492500Y-67434165D01*
X178212500Y-67665835D02*
X178212500Y-67434165D01*
%TO.C,TP2*%
X170600000Y-65450000D02*
G75*
G03*
X170600000Y-65450000I-700000J0D01*
G01*
%TO.C,R25*%
X171420000Y-55867621D02*
X171420000Y-55532379D01*
X172180000Y-55867621D02*
X172180000Y-55532379D01*
%TO.C,kibuzzard-635558D9*%
G36*
X178127712Y-71699665D02*
G01*
X178185839Y-71714197D01*
X178236416Y-71738131D01*
X178284427Y-71771184D01*
X178229150Y-71835579D01*
X178150792Y-71790845D01*
X178064457Y-71777453D01*
X178002483Y-71785075D01*
X177945354Y-71807941D01*
X177895988Y-71848402D01*
X177857308Y-71908808D01*
X177838787Y-71961268D01*
X177827675Y-72024809D01*
X177823971Y-72099430D01*
X177827485Y-72172184D01*
X177838028Y-72234680D01*
X177855599Y-72286918D01*
X177892854Y-72347752D01*
X177941364Y-72388925D01*
X177998637Y-72412432D01*
X178062177Y-72420268D01*
X178122085Y-72415282D01*
X178170738Y-72400322D01*
X178244536Y-72354733D01*
X178295825Y-72419698D01*
X178254509Y-72452110D01*
X178202366Y-72479820D01*
X178138255Y-72498839D01*
X178061037Y-72505179D01*
X177999301Y-72500018D01*
X177941744Y-72484537D01*
X177888366Y-72458734D01*
X177840624Y-72422864D01*
X177799973Y-72377179D01*
X177766414Y-72321680D01*
X177741403Y-72256715D01*
X177726396Y-72182631D01*
X177721394Y-72099430D01*
X177726491Y-72015944D01*
X177741783Y-71941766D01*
X177767269Y-71876895D01*
X177801239Y-71821618D01*
X177841985Y-71776218D01*
X177889506Y-71740696D01*
X177969573Y-71706290D01*
X178057048Y-71694821D01*
X178127712Y-71699665D01*
G37*
G36*
X178746949Y-71700591D02*
G01*
X178812413Y-71717901D01*
X178869757Y-71746038D01*
X178921544Y-71784291D01*
X178863417Y-71848687D01*
X178819679Y-71816631D01*
X178772807Y-71794549D01*
X178723941Y-71781727D01*
X178674220Y-71777453D01*
X178614383Y-71784576D01*
X178563664Y-71805946D01*
X178529045Y-71841991D01*
X178517505Y-71893137D01*
X178535741Y-71951548D01*
X178597287Y-71996283D01*
X178648433Y-72017084D01*
X178715250Y-72038454D01*
X178774018Y-72058328D01*
X178828370Y-72082619D01*
X178875456Y-72113819D01*
X178912426Y-72154423D01*
X178936361Y-72207207D01*
X178944339Y-72274951D01*
X178935933Y-72338776D01*
X178910716Y-72394624D01*
X178869472Y-72440855D01*
X178812983Y-72475830D01*
X178742106Y-72497842D01*
X178657693Y-72505179D01*
X178575703Y-72498625D01*
X178501833Y-72478965D01*
X178437082Y-72447337D01*
X178382445Y-72404881D01*
X178441142Y-72338776D01*
X178484737Y-72373040D01*
X178534601Y-72399468D01*
X178592300Y-72416350D01*
X178659403Y-72421978D01*
X178748873Y-72406306D01*
X178816118Y-72358437D01*
X178841762Y-72276660D01*
X178826945Y-72211980D01*
X178774517Y-72164111D01*
X178729497Y-72143524D01*
X178669661Y-72123365D01*
X178597358Y-72099074D01*
X178535456Y-72071791D01*
X178485165Y-72039736D01*
X178447696Y-72001127D01*
X178424402Y-71954042D01*
X178416637Y-71896556D01*
X178424758Y-71841136D01*
X178449120Y-71792269D01*
X178487800Y-71751595D01*
X178538875Y-71720750D01*
X178600492Y-71701303D01*
X178670800Y-71694821D01*
X178746949Y-71700591D01*
G37*
G36*
X179392685Y-71702016D02*
G01*
X179450955Y-71723600D01*
X179497756Y-71757578D01*
X179532162Y-71801957D01*
X179553318Y-71854670D01*
X179560370Y-71913652D01*
X179555669Y-71967149D01*
X179541564Y-72019363D01*
X179517131Y-72072219D01*
X179481443Y-72127639D01*
X179433645Y-72187404D01*
X179372882Y-72253296D01*
X179324760Y-72301418D01*
X179270052Y-72353846D01*
X179208759Y-72410580D01*
X179578606Y-72410580D01*
X179566639Y-72492072D01*
X179099914Y-72492072D01*
X179099914Y-72413999D01*
X179169470Y-72346628D01*
X179229971Y-72286601D01*
X179281418Y-72233920D01*
X179343890Y-72165464D01*
X179390548Y-72107123D01*
X179423387Y-72056049D01*
X179444401Y-72009390D01*
X179455727Y-71964086D01*
X179459503Y-71917071D01*
X179450242Y-71857947D01*
X179422461Y-71812785D01*
X179378154Y-71784149D01*
X179319314Y-71774603D01*
X179266459Y-71779590D01*
X179224146Y-71794549D01*
X179187104Y-71820478D01*
X179150062Y-71858374D01*
X179083957Y-71807086D01*
X179133180Y-71757436D01*
X179187389Y-71722460D01*
X179249861Y-71701731D01*
X179323873Y-71694821D01*
X179392685Y-71702016D01*
G37*
%TO.C,kibuzzard-63555CAA*%
G36*
X143997633Y-62273538D02*
G01*
X144209625Y-61601090D01*
X144309353Y-61601090D01*
X144046642Y-62385803D01*
X143944065Y-62385803D01*
X143681354Y-61601090D01*
X143787920Y-61601090D01*
X143997633Y-62273538D01*
G37*
G36*
X146332398Y-61686001D02*
G01*
X146094191Y-61686001D01*
X146094191Y-62385803D01*
X145995604Y-62385803D01*
X145995604Y-61686001D01*
X145750559Y-61686001D01*
X145750559Y-61601090D01*
X146342655Y-61601090D01*
X146332398Y-61686001D01*
G37*
G36*
X143510393Y-61677453D02*
G01*
X143200382Y-61677453D01*
X143200382Y-61924777D01*
X143268482Y-61898563D01*
X143336012Y-61891154D01*
X143422632Y-61907253D01*
X143491017Y-61955550D01*
X143523943Y-62004369D01*
X143543698Y-62064965D01*
X143550284Y-62137339D01*
X143542092Y-62210995D01*
X143517516Y-62274678D01*
X143478052Y-62326893D01*
X143425197Y-62366143D01*
X143360303Y-62390718D01*
X143284723Y-62398910D01*
X143217835Y-62392642D01*
X143158497Y-62373836D01*
X143105427Y-62343918D01*
X143057345Y-62304312D01*
X143116611Y-62247324D01*
X143166570Y-62287532D01*
X143222987Y-62311657D01*
X143285863Y-62319698D01*
X143354818Y-62307944D01*
X143406676Y-62272684D01*
X143439159Y-62214628D01*
X143449986Y-62134490D01*
X143445285Y-62077930D01*
X143431180Y-62034762D01*
X143380177Y-61982619D01*
X143308658Y-61966947D01*
X143247112Y-61973786D01*
X143186136Y-61993162D01*
X143109203Y-61993162D01*
X143109203Y-61601090D01*
X143524639Y-61601090D01*
X143510393Y-61677453D01*
G37*
G36*
X145204621Y-62185778D02*
G01*
X145141936Y-62385803D01*
X145044488Y-62385803D01*
X145136263Y-62103717D01*
X145230266Y-62103717D01*
X145489557Y-62103717D01*
X145360766Y-61684291D01*
X145230266Y-62103717D01*
X145136263Y-62103717D01*
X145299790Y-61601090D01*
X145426302Y-61601090D01*
X145681604Y-62385803D01*
X145577888Y-62385803D01*
X145515202Y-62185778D01*
X145204621Y-62185778D01*
G37*
G36*
X144772089Y-61970367D02*
G01*
X144856715Y-61997436D01*
X144894469Y-62022011D01*
X144925099Y-62056417D01*
X144945401Y-62102434D01*
X144952168Y-62161844D01*
X144945828Y-62220897D01*
X144926809Y-62269264D01*
X144897176Y-62307944D01*
X144858994Y-62337934D01*
X144814117Y-62359945D01*
X144764396Y-62374691D01*
X144711754Y-62383025D01*
X144658114Y-62385803D01*
X144447262Y-62385803D01*
X144447262Y-62304312D01*
X144545850Y-62304312D01*
X144675211Y-62304312D01*
X144753853Y-62293769D01*
X144820813Y-62253308D01*
X144841115Y-62216338D01*
X144847882Y-62165263D01*
X144842112Y-62112763D01*
X144824802Y-62073798D01*
X144763541Y-62029063D01*
X144679770Y-62016526D01*
X144545850Y-62016526D01*
X144545850Y-62304312D01*
X144447262Y-62304312D01*
X144447262Y-61935035D01*
X144545850Y-61935035D01*
X144672361Y-61935035D01*
X144733836Y-61927270D01*
X144779212Y-61903977D01*
X144807207Y-61863444D01*
X144816539Y-61803964D01*
X144806210Y-61746906D01*
X144775223Y-61709080D01*
X144726428Y-61687924D01*
X144662673Y-61680872D01*
X144545850Y-61680872D01*
X144545850Y-61935035D01*
X144447262Y-61935035D01*
X144447262Y-61601090D01*
X144640448Y-61601090D01*
X144691309Y-61603440D01*
X144741316Y-61610493D01*
X144788473Y-61623172D01*
X144830786Y-61642405D01*
X144894326Y-61703097D01*
X144912064Y-61746122D01*
X144917976Y-61798835D01*
X144897176Y-61884601D01*
X144843038Y-61940733D01*
X144772089Y-61970367D01*
G37*
%TO.C,kibuzzard-63555796*%
G36*
X159140593Y-70150591D02*
G01*
X159206057Y-70167901D01*
X159263401Y-70196038D01*
X159315188Y-70234291D01*
X159257061Y-70298687D01*
X159213323Y-70266631D01*
X159166451Y-70244549D01*
X159117585Y-70231727D01*
X159067863Y-70227453D01*
X159008027Y-70234576D01*
X158957308Y-70255946D01*
X158922689Y-70291991D01*
X158911149Y-70343137D01*
X158929385Y-70401548D01*
X158990931Y-70446283D01*
X159042077Y-70467084D01*
X159108894Y-70488454D01*
X159167662Y-70508328D01*
X159222014Y-70532619D01*
X159269099Y-70563819D01*
X159306070Y-70604423D01*
X159330004Y-70657207D01*
X159337983Y-70724951D01*
X159329577Y-70788776D01*
X159304360Y-70844624D01*
X159263116Y-70890855D01*
X159206627Y-70925830D01*
X159135749Y-70947842D01*
X159051337Y-70955179D01*
X158969347Y-70948625D01*
X158895477Y-70928965D01*
X158830726Y-70897337D01*
X158776089Y-70854881D01*
X158834786Y-70788776D01*
X158878381Y-70823040D01*
X158928245Y-70849468D01*
X158985944Y-70866350D01*
X159053047Y-70871978D01*
X159142517Y-70856306D01*
X159209762Y-70808437D01*
X159235406Y-70726660D01*
X159220589Y-70661980D01*
X159168161Y-70614111D01*
X159123141Y-70593524D01*
X159063304Y-70573365D01*
X158991002Y-70549074D01*
X158929100Y-70521791D01*
X158878808Y-70489736D01*
X158841339Y-70451127D01*
X158818046Y-70404042D01*
X158810281Y-70346556D01*
X158818402Y-70291136D01*
X158842764Y-70242269D01*
X158881444Y-70201595D01*
X158932519Y-70170750D01*
X158994136Y-70151303D01*
X159064444Y-70144821D01*
X159140593Y-70150591D01*
G37*
G36*
X160709727Y-70689999D02*
G01*
X160691998Y-70746891D01*
X160654956Y-70815845D01*
X160607657Y-70867134D01*
X160552736Y-70903036D01*
X160492828Y-70925830D01*
X160430783Y-70938011D01*
X160369451Y-70942072D01*
X160189371Y-70942072D01*
X160189371Y-70862860D01*
X160287959Y-70862860D01*
X160381418Y-70862860D01*
X160465759Y-70849468D01*
X160506006Y-70830876D01*
X160542407Y-70801883D01*
X160573465Y-70760710D01*
X160597684Y-70705575D01*
X160613285Y-70634626D01*
X160618485Y-70546011D01*
X160613071Y-70453692D01*
X160596829Y-70381888D01*
X160571755Y-70328035D01*
X160539842Y-70289569D01*
X160462625Y-70248538D01*
X160380278Y-70238280D01*
X160287959Y-70238280D01*
X160287959Y-70862860D01*
X160189371Y-70862860D01*
X160189371Y-70157358D01*
X160356913Y-70157358D01*
X160424942Y-70161205D01*
X160491118Y-70172745D01*
X160553234Y-70194614D01*
X160609082Y-70229447D01*
X160656381Y-70279525D01*
X160692853Y-70347126D01*
X160710107Y-70403163D01*
X160720460Y-70469458D01*
X160723911Y-70546011D01*
X160720365Y-70623039D01*
X160709727Y-70689999D01*
G37*
G36*
X159598414Y-70833226D02*
G01*
X159692443Y-70248538D01*
X159813826Y-70248538D01*
X159903296Y-70833226D01*
X159997324Y-70157358D01*
X160089074Y-70157358D01*
X159969401Y-70942072D01*
X159839470Y-70942072D01*
X159749430Y-70349975D01*
X159658821Y-70942072D01*
X159526040Y-70942072D01*
X159415485Y-70157358D01*
X159514643Y-70157358D01*
X159598414Y-70833226D01*
G37*
%TO.C,U2*%
X149025000Y-56980000D02*
X150285000Y-56980000D01*
X155845000Y-56980000D02*
X154585000Y-56980000D01*
X149025000Y-53220000D02*
X149025000Y-56980000D01*
X155845000Y-50970000D02*
X155845000Y-56980000D01*
%TO.C,D7*%
X144775000Y-48350000D02*
X144775000Y-42650000D01*
X140475000Y-48350000D02*
X144775000Y-48350000D01*
X140475000Y-48350000D02*
X140475000Y-42650000D01*
%TO.C,R11*%
X137253641Y-60570000D02*
X136946359Y-60570000D01*
X137253641Y-61330000D02*
X136946359Y-61330000D01*
%TD*%
M02*
