%TF.GenerationSoftware,KiCad,Pcbnew,(6.0.0-0)*%
%TF.CreationDate,2022-10-23T11:33:14-04:00*%
%TF.ProjectId,hermes_v1,6865726d-6573-45f7-9631-2e6b69636164,rev?*%
%TF.SameCoordinates,Original*%
%TF.FileFunction,Soldermask,Top*%
%TF.FilePolarity,Negative*%
%FSLAX46Y46*%
G04 Gerber Fmt 4.6, Leading zero omitted, Abs format (unit mm)*
G04 Created by KiCad (PCBNEW (6.0.0-0)) date 2022-10-23 11:33:14*
%MOMM*%
%LPD*%
G01*
G04 APERTURE LIST*
G04 Aperture macros list*
%AMRoundRect*
0 Rectangle with rounded corners*
0 $1 Rounding radius*
0 $2 $3 $4 $5 $6 $7 $8 $9 X,Y pos of 4 corners*
0 Add a 4 corners polygon primitive as box body*
4,1,4,$2,$3,$4,$5,$6,$7,$8,$9,$2,$3,0*
0 Add four circle primitives for the rounded corners*
1,1,$1+$1,$2,$3*
1,1,$1+$1,$4,$5*
1,1,$1+$1,$6,$7*
1,1,$1+$1,$8,$9*
0 Add four rect primitives between the rounded corners*
20,1,$1+$1,$2,$3,$4,$5,0*
20,1,$1+$1,$4,$5,$6,$7,0*
20,1,$1+$1,$6,$7,$8,$9,0*
20,1,$1+$1,$8,$9,$2,$3,0*%
%AMFreePoly0*
4,1,22,0.500000,-0.750000,0.000000,-0.750000,0.000000,-0.745033,-0.079941,-0.743568,-0.215256,-0.701293,-0.333266,-0.622738,-0.424486,-0.514219,-0.481581,-0.384460,-0.499164,-0.250000,-0.500000,-0.250000,-0.500000,0.250000,-0.499164,0.250000,-0.499963,0.256109,-0.478152,0.396186,-0.417904,0.524511,-0.324060,0.630769,-0.204165,0.706417,-0.067858,0.745374,0.000000,0.744959,0.000000,0.750000,
0.500000,0.750000,0.500000,-0.750000,0.500000,-0.750000,$1*%
%AMFreePoly1*
4,1,20,0.000000,0.744959,0.073905,0.744508,0.209726,0.703889,0.328688,0.626782,0.421226,0.519385,0.479903,0.390333,0.500000,0.250000,0.500000,-0.250000,0.499851,-0.262216,0.476331,-0.402017,0.414519,-0.529596,0.319384,-0.634700,0.198574,-0.708877,0.061801,-0.746166,0.000000,-0.745033,0.000000,-0.750000,-0.500000,-0.750000,-0.500000,0.750000,0.000000,0.750000,0.000000,0.744959,
0.000000,0.744959,$1*%
%AMFreePoly2*
4,1,22,0.550000,-0.750000,0.000000,-0.750000,0.000000,-0.745033,-0.079941,-0.743568,-0.215256,-0.701293,-0.333266,-0.622738,-0.424486,-0.514219,-0.481581,-0.384460,-0.499164,-0.250000,-0.500000,-0.250000,-0.500000,0.250000,-0.499164,0.250000,-0.499963,0.256109,-0.478152,0.396186,-0.417904,0.524511,-0.324060,0.630769,-0.204165,0.706417,-0.067858,0.745374,0.000000,0.744959,0.000000,0.750000,
0.550000,0.750000,0.550000,-0.750000,0.550000,-0.750000,$1*%
%AMFreePoly3*
4,1,20,0.000000,0.744959,0.073905,0.744508,0.209726,0.703889,0.328688,0.626782,0.421226,0.519385,0.479903,0.390333,0.500000,0.250000,0.500000,-0.250000,0.499851,-0.262216,0.476331,-0.402017,0.414519,-0.529596,0.319384,-0.634700,0.198574,-0.708877,0.061801,-0.746166,0.000000,-0.745033,0.000000,-0.750000,-0.550000,-0.750000,-0.550000,0.750000,0.000000,0.750000,0.000000,0.744959,
0.000000,0.744959,$1*%
%AMFreePoly4*
4,1,17,1.395000,0.765000,0.855000,0.765000,0.855000,0.535000,1.395000,0.535000,1.395000,0.115000,0.855000,0.115000,0.855000,-0.115000,1.395000,-0.115000,1.395000,-0.535000,0.855000,-0.535000,0.855000,-0.765000,1.395000,-0.765000,1.395000,-1.185000,-0.855000,-1.185000,-0.855000,1.185000,1.395000,1.185000,1.395000,0.765000,1.395000,0.765000,$1*%
G04 Aperture macros list end*
%ADD10RoundRect,0.155000X0.212500X0.155000X-0.212500X0.155000X-0.212500X-0.155000X0.212500X-0.155000X0*%
%ADD11RoundRect,0.155000X-0.155000X0.212500X-0.155000X-0.212500X0.155000X-0.212500X0.155000X0.212500X0*%
%ADD12RoundRect,0.155000X-0.212500X-0.155000X0.212500X-0.155000X0.212500X0.155000X-0.212500X0.155000X0*%
%ADD13RoundRect,0.160000X0.222500X0.160000X-0.222500X0.160000X-0.222500X-0.160000X0.222500X-0.160000X0*%
%ADD14RoundRect,0.750000X1.250000X-0.750000X1.250000X0.750000X-1.250000X0.750000X-1.250000X-0.750000X0*%
%ADD15RoundRect,0.160000X-0.160000X0.197500X-0.160000X-0.197500X0.160000X-0.197500X0.160000X0.197500X0*%
%ADD16RoundRect,0.160000X-0.197500X-0.160000X0.197500X-0.160000X0.197500X0.160000X-0.197500X0.160000X0*%
%ADD17RoundRect,0.160000X0.160000X-0.197500X0.160000X0.197500X-0.160000X0.197500X-0.160000X-0.197500X0*%
%ADD18RoundRect,0.050000X0.050000X-0.387500X0.050000X0.387500X-0.050000X0.387500X-0.050000X-0.387500X0*%
%ADD19RoundRect,0.050000X0.387500X-0.050000X0.387500X0.050000X-0.387500X0.050000X-0.387500X-0.050000X0*%
%ADD20RoundRect,0.144000X1.456000X-1.456000X1.456000X1.456000X-1.456000X1.456000X-1.456000X-1.456000X0*%
%ADD21RoundRect,0.150000X0.150000X-0.650000X0.150000X0.650000X-0.150000X0.650000X-0.150000X-0.650000X0*%
%ADD22R,2.400000X1.700000*%
%ADD23RoundRect,0.750000X-1.250000X0.750000X-1.250000X-0.750000X1.250000X-0.750000X1.250000X0.750000X0*%
%ADD24R,1.050000X0.650000*%
%ADD25R,1.350000X0.400000*%
%ADD26O,1.550000X0.890000*%
%ADD27R,1.550000X1.500000*%
%ADD28O,0.950000X1.250000*%
%ADD29R,1.550000X1.200000*%
%ADD30FreePoly0,270.000000*%
%ADD31FreePoly1,270.000000*%
%ADD32RoundRect,0.160000X-0.222500X-0.160000X0.222500X-0.160000X0.222500X0.160000X-0.222500X0.160000X0*%
%ADD33R,0.500000X0.375000*%
%ADD34R,0.650000X0.300000*%
%ADD35RoundRect,0.075000X-0.350000X-0.075000X0.350000X-0.075000X0.350000X0.075000X-0.350000X0.075000X0*%
%ADD36RoundRect,0.075000X0.075000X-0.350000X0.075000X0.350000X-0.075000X0.350000X-0.075000X-0.350000X0*%
%ADD37RoundRect,0.155000X0.155000X-0.212500X0.155000X0.212500X-0.155000X0.212500X-0.155000X-0.212500X0*%
%ADD38FreePoly2,180.000000*%
%ADD39R,1.000000X1.500000*%
%ADD40FreePoly3,180.000000*%
%ADD41C,1.000000*%
%ADD42RoundRect,0.140000X-0.140000X-0.170000X0.140000X-0.170000X0.140000X0.170000X-0.140000X0.170000X0*%
%ADD43R,2.950000X3.500000*%
%ADD44R,0.300000X2.600000*%
%ADD45O,1.500000X3.300000*%
%ADD46O,1.500000X2.300000*%
%ADD47RoundRect,0.140000X0.170000X-0.140000X0.170000X0.140000X-0.170000X0.140000X-0.170000X-0.140000X0*%
%ADD48RoundRect,0.135000X0.135000X0.185000X-0.135000X0.185000X-0.135000X-0.185000X0.135000X-0.185000X0*%
%ADD49R,2.600000X3.100000*%
%ADD50R,1.550000X0.600000*%
%ADD51RoundRect,0.135000X0.185000X-0.135000X0.185000X0.135000X-0.185000X0.135000X-0.185000X-0.135000X0*%
%ADD52C,6.000000*%
%ADD53RoundRect,0.140000X-0.170000X0.140000X-0.170000X-0.140000X0.170000X-0.140000X0.170000X0.140000X0*%
%ADD54R,1.700000X1.700000*%
%ADD55O,1.700000X1.700000*%
%ADD56C,0.202000*%
%ADD57RoundRect,0.140000X0.140000X0.170000X-0.140000X0.170000X-0.140000X-0.170000X0.140000X-0.170000X0*%
%ADD58R,1.500000X0.800000*%
%ADD59R,2.000000X1.450000*%
%ADD60R,0.254000X0.482600*%
%ADD61R,0.482600X0.254000*%
%ADD62R,0.420000X0.700000*%
%ADD63FreePoly4,270.000000*%
%ADD64R,0.350000X0.500000*%
%ADD65R,1.500000X1.600000*%
%ADD66C,1.600000*%
%ADD67C,3.000000*%
%ADD68R,0.800000X0.900000*%
%ADD69R,1.500000X2.000000*%
%ADD70R,3.800000X2.000000*%
%ADD71R,2.300000X2.500000*%
G04 APERTURE END LIST*
D10*
%TO.C,C6*%
X139335000Y-73393750D03*
X138200000Y-73393750D03*
%TD*%
%TO.C,C8*%
X139335000Y-72400000D03*
X138200000Y-72400000D03*
%TD*%
%TO.C,C11*%
X143843751Y-69978570D03*
X142708751Y-69978570D03*
%TD*%
%TO.C,C12*%
X143843751Y-68942856D03*
X142708751Y-68942856D03*
%TD*%
%TO.C,C13*%
X143835000Y-67907142D03*
X142700000Y-67907142D03*
%TD*%
%TO.C,C14*%
X143835000Y-66871428D03*
X142700000Y-66871428D03*
%TD*%
%TO.C,C15*%
X143835000Y-65835714D03*
X142700000Y-65835714D03*
%TD*%
%TO.C,C16*%
X143835000Y-64800000D03*
X142700000Y-64800000D03*
%TD*%
%TO.C,C17*%
X159492500Y-79182500D03*
X158357500Y-79182500D03*
%TD*%
%TO.C,C18*%
X159517500Y-72150000D03*
X158382500Y-72150000D03*
%TD*%
D11*
%TO.C,C19*%
X133500000Y-79982500D03*
X133500000Y-81117500D03*
%TD*%
D12*
%TO.C,C26*%
X174282500Y-78800000D03*
X175417500Y-78800000D03*
%TD*%
D13*
%TO.C,D2*%
X164422500Y-66000000D03*
X163277500Y-66000000D03*
%TD*%
%TO.C,D3*%
X164422500Y-67600000D03*
X163277500Y-67600000D03*
%TD*%
%TO.C,D4*%
X164422500Y-69200000D03*
X163277500Y-69200000D03*
%TD*%
D14*
%TO.C,P4*%
X128200000Y-48550000D03*
%TD*%
%TO.C,P1*%
X128200000Y-56814000D03*
%TD*%
%TO.C,P2*%
X128200000Y-60946000D03*
%TD*%
D15*
%TO.C,R5*%
X173252500Y-59602500D03*
X173252500Y-60797500D03*
%TD*%
D16*
%TO.C,R6*%
X169505000Y-62100000D03*
X170700000Y-62100000D03*
%TD*%
D17*
%TO.C,R7*%
X133350000Y-87715000D03*
X133350000Y-86520000D03*
%TD*%
D16*
%TO.C,R13*%
X165652500Y-67600000D03*
X166847500Y-67600000D03*
%TD*%
%TO.C,R14*%
X165652500Y-69200000D03*
X166847500Y-69200000D03*
%TD*%
D18*
%TO.C,U3*%
X146250000Y-78787500D03*
X146650000Y-78787500D03*
X147050000Y-78787500D03*
X147450000Y-78787500D03*
X147850000Y-78787500D03*
X148250000Y-78787500D03*
X148650000Y-78787500D03*
X149050000Y-78787500D03*
X149450000Y-78787500D03*
X149850000Y-78787500D03*
X150250000Y-78787500D03*
X150650000Y-78787500D03*
X151050000Y-78787500D03*
X151450000Y-78787500D03*
D19*
X152287500Y-77950000D03*
X152287500Y-77550000D03*
X152287500Y-77150000D03*
X152287500Y-76750000D03*
X152287500Y-76350000D03*
X152287500Y-75950000D03*
X152287500Y-75550000D03*
X152287500Y-75150000D03*
X152287500Y-74750000D03*
X152287500Y-74350000D03*
X152287500Y-73950000D03*
X152287500Y-73550000D03*
X152287500Y-73150000D03*
X152287500Y-72750000D03*
D18*
X151450000Y-71912500D03*
X151050000Y-71912500D03*
X150650000Y-71912500D03*
X150250000Y-71912500D03*
X149850000Y-71912500D03*
X149450000Y-71912500D03*
X149050000Y-71912500D03*
X148650000Y-71912500D03*
X148250000Y-71912500D03*
X147850000Y-71912500D03*
X147450000Y-71912500D03*
X147050000Y-71912500D03*
X146650000Y-71912500D03*
X146250000Y-71912500D03*
D19*
X145412500Y-72750000D03*
X145412500Y-73150000D03*
X145412500Y-73550000D03*
X145412500Y-73950000D03*
X145412500Y-74350000D03*
X145412500Y-74750000D03*
X145412500Y-75150000D03*
X145412500Y-75550000D03*
X145412500Y-75950000D03*
X145412500Y-76350000D03*
X145412500Y-76750000D03*
X145412500Y-77150000D03*
X145412500Y-77550000D03*
X145412500Y-77950000D03*
D20*
X148850000Y-75350000D03*
%TD*%
D21*
%TO.C,U4*%
X135295000Y-87217500D03*
X136565000Y-87217500D03*
X137835000Y-87217500D03*
X139105000Y-87217500D03*
X139105000Y-80017500D03*
X137835000Y-80017500D03*
X136565000Y-80017500D03*
X135295000Y-80017500D03*
%TD*%
D22*
%TO.C,Y1*%
X159383750Y-77532500D03*
X159383750Y-73832500D03*
%TD*%
D23*
%TO.C,P3*%
X128200000Y-52682000D03*
%TD*%
D14*
%TO.C,P6*%
X128200000Y-65078000D03*
%TD*%
%TO.C,P5*%
X128200000Y-69210000D03*
%TD*%
D10*
%TO.C,C9*%
X143835000Y-72050000D03*
X142700000Y-72050000D03*
%TD*%
D16*
%TO.C,R3*%
X138170000Y-76405000D03*
X139365000Y-76405000D03*
%TD*%
D24*
%TO.C,SW1*%
X126875000Y-85825000D03*
X131025000Y-85825000D03*
X126875000Y-83675000D03*
X131025000Y-83675000D03*
%TD*%
D25*
%TO.C,J2*%
X130250000Y-74850000D03*
X130250000Y-75500000D03*
X130250000Y-76150000D03*
X130250000Y-76800000D03*
X130250000Y-77450000D03*
D26*
X127550000Y-79650000D03*
X127550000Y-72650000D03*
D27*
X127550000Y-75150000D03*
D28*
X130250000Y-73650000D03*
D27*
X127550000Y-77150000D03*
D29*
X127550000Y-73250000D03*
D28*
X130250000Y-78650000D03*
D29*
X127550000Y-79050000D03*
%TD*%
D17*
%TO.C,R9*%
X156600000Y-76597500D03*
X156600000Y-75402500D03*
%TD*%
D10*
%TO.C,C10*%
X143843751Y-71014284D03*
X142708751Y-71014284D03*
%TD*%
D30*
%TO.C,JP3*%
X149850000Y-63850000D03*
D31*
X149850000Y-65150000D03*
%TD*%
D30*
%TO.C,JP2*%
X147250000Y-63850000D03*
D31*
X147250000Y-65150000D03*
%TD*%
D24*
%TO.C,SW2*%
X139075000Y-90575000D03*
X134925000Y-90575000D03*
X139075000Y-92725000D03*
X134925000Y-92725000D03*
%TD*%
D10*
%TO.C,C7*%
X139335000Y-74387500D03*
X138200000Y-74387500D03*
%TD*%
D16*
%TO.C,R12*%
X165652500Y-66000000D03*
X166847500Y-66000000D03*
%TD*%
%TO.C,R15*%
X136702500Y-66500000D03*
X137897500Y-66500000D03*
%TD*%
%TO.C,R16*%
X136702500Y-64300000D03*
X137897500Y-64300000D03*
%TD*%
D32*
%TO.C,D5*%
X136727500Y-67600000D03*
X137872500Y-67600000D03*
%TD*%
%TO.C,D6*%
X136727500Y-65400000D03*
X137872500Y-65400000D03*
%TD*%
D16*
%TO.C,R4*%
X138170000Y-75391250D03*
X139365000Y-75391250D03*
%TD*%
D33*
%TO.C,U7*%
X135000000Y-76437500D03*
D34*
X135075000Y-75900000D03*
D33*
X135000000Y-75362500D03*
X133300000Y-75362500D03*
D34*
X133225000Y-75900000D03*
D33*
X133300000Y-76437500D03*
%TD*%
D35*
%TO.C,U8*%
X172102500Y-64150000D03*
X172102500Y-64650000D03*
X172102500Y-65150000D03*
X172102500Y-65650000D03*
X172102500Y-66150000D03*
X172102500Y-66650000D03*
D36*
X172802500Y-67350000D03*
X173302500Y-67350000D03*
X173802500Y-67350000D03*
X174302500Y-67350000D03*
X174802500Y-67350000D03*
X175302500Y-67350000D03*
D35*
X176002500Y-66650000D03*
X176002500Y-66150000D03*
X176002500Y-65650000D03*
X176002500Y-65150000D03*
X176002500Y-64650000D03*
X176002500Y-64150000D03*
D36*
X175302500Y-63450000D03*
X174802500Y-63450000D03*
X174302500Y-63450000D03*
X173802500Y-63450000D03*
X173302500Y-63450000D03*
X172802500Y-63450000D03*
%TD*%
D37*
%TO.C,C35*%
X185250000Y-66567500D03*
X185250000Y-65432500D03*
%TD*%
D38*
%TO.C,JP1*%
X149850000Y-61500000D03*
D39*
X148550000Y-61500000D03*
D40*
X147250000Y-61500000D03*
%TD*%
D41*
%TO.C,TP12*%
X172250000Y-80850000D03*
%TD*%
D17*
%TO.C,R19*%
X164685714Y-56297500D03*
X164685714Y-55102500D03*
%TD*%
D42*
%TO.C,C24*%
X145420000Y-58900000D03*
X146380000Y-58900000D03*
%TD*%
D43*
%TO.C,L2*%
X149475000Y-44750000D03*
X154925000Y-44750000D03*
%TD*%
D44*
%TO.C,J5*%
X164825000Y-49286750D03*
X165325000Y-49286750D03*
X165825000Y-49286750D03*
X166325000Y-49286750D03*
X166825000Y-49286750D03*
X167325000Y-49286750D03*
X167825000Y-49286750D03*
X168325000Y-49286750D03*
X168825000Y-49286750D03*
X169325000Y-49286750D03*
X169825000Y-49286750D03*
X170325000Y-49286750D03*
X170825000Y-49286750D03*
X171325000Y-49286750D03*
X171825000Y-49286750D03*
X172325000Y-49286750D03*
X172825000Y-49286750D03*
X173325000Y-49286750D03*
X173825000Y-49286750D03*
D45*
X162075000Y-48556750D03*
X176575000Y-48556750D03*
D46*
X176575000Y-42596750D03*
X162075000Y-42596750D03*
%TD*%
D41*
%TO.C,TP8*%
X181400000Y-80950000D03*
%TD*%
D12*
%TO.C,C3*%
X149382500Y-49950000D03*
X150517500Y-49950000D03*
%TD*%
%TO.C,C5*%
X153407500Y-49950000D03*
X154542500Y-49950000D03*
%TD*%
D47*
%TO.C,C31*%
X144800000Y-56780000D03*
X144800000Y-55820000D03*
%TD*%
D48*
%TO.C,R8*%
X143310000Y-60950000D03*
X142290000Y-60950000D03*
%TD*%
D49*
%TO.C,U6*%
X139975000Y-57125000D03*
D50*
X137275000Y-55220000D03*
X137275000Y-56490000D03*
X137275000Y-57760000D03*
X137275000Y-59030000D03*
X142675000Y-59030000D03*
X142675000Y-57760000D03*
X142675000Y-56490000D03*
X142675000Y-55220000D03*
%TD*%
D41*
%TO.C,TP3*%
X174750000Y-58200000D03*
%TD*%
D12*
%TO.C,C4*%
X181457500Y-75750000D03*
X182592500Y-75750000D03*
%TD*%
D51*
%TO.C,R10*%
X134725000Y-58460000D03*
X134725000Y-57440000D03*
%TD*%
D52*
%TO.C,H1*%
X129150000Y-91100000D03*
%TD*%
D10*
%TO.C,C34*%
X182717500Y-68050000D03*
X181582500Y-68050000D03*
%TD*%
D17*
%TO.C,R20*%
X165871428Y-56297500D03*
X165871428Y-55102500D03*
%TD*%
D52*
%TO.C,H2*%
X129200000Y-42100000D03*
%TD*%
D53*
%TO.C,C27*%
X146850000Y-55820000D03*
X146850000Y-56780000D03*
%TD*%
D17*
%TO.C,R24*%
X170614284Y-56297500D03*
X170614284Y-55102500D03*
%TD*%
D41*
%TO.C,TP11*%
X176950000Y-80950000D03*
%TD*%
D17*
%TO.C,R2*%
X185700000Y-84597500D03*
X185700000Y-83402500D03*
%TD*%
%TO.C,R18*%
X163500000Y-56297500D03*
X163500000Y-55102500D03*
%TD*%
D54*
%TO.C,J3*%
X165960000Y-92300000D03*
D55*
X165960000Y-89760000D03*
X165960000Y-87220000D03*
X165960000Y-84680000D03*
%TD*%
D56*
%TO.C,U9*%
X182634000Y-66556000D03*
X182634000Y-65990000D03*
X182634000Y-65424000D03*
X182917000Y-66273000D03*
X182917000Y-65707000D03*
X183200000Y-66556000D03*
X183200000Y-65424000D03*
X183483000Y-66273000D03*
X183483000Y-65707000D03*
X183766000Y-66556000D03*
X183766000Y-65990000D03*
X183766000Y-65424000D03*
%TD*%
D41*
%TO.C,TP6*%
X185800000Y-71700000D03*
%TD*%
D57*
%TO.C,C28*%
X136330000Y-52200000D03*
X135370000Y-52200000D03*
%TD*%
D12*
%TO.C,C1*%
X172982500Y-72000000D03*
X174117500Y-72000000D03*
%TD*%
D47*
%TO.C,C30*%
X138475000Y-43730000D03*
X138475000Y-42770000D03*
%TD*%
D58*
%TO.C,J1*%
X197250000Y-75150000D03*
X197250000Y-76250000D03*
X197250000Y-77350000D03*
X197250000Y-78450000D03*
X197250000Y-79550000D03*
X197250000Y-80650000D03*
X197250000Y-81750000D03*
X197250000Y-82850000D03*
D59*
X191550000Y-85225000D03*
X199850000Y-71475000D03*
X199850000Y-85225000D03*
X191550000Y-71475000D03*
%TD*%
D41*
%TO.C,TP14*%
X165500000Y-71450000D03*
%TD*%
D42*
%TO.C,C32*%
X142500000Y-52650000D03*
X143460000Y-52650000D03*
%TD*%
D57*
%TO.C,C29*%
X138305000Y-45350000D03*
X137345000Y-45350000D03*
%TD*%
D48*
%TO.C,R17*%
X135985000Y-45300000D03*
X134965000Y-45300000D03*
%TD*%
D60*
%TO.C,U1*%
X173450000Y-74394300D03*
X173949999Y-74394300D03*
X174450001Y-74394300D03*
X174950000Y-74394300D03*
X175449999Y-74394300D03*
X175950001Y-74394300D03*
X176450000Y-74394300D03*
D61*
X176861300Y-75550000D03*
D60*
X176450000Y-76705700D03*
X175950001Y-76705700D03*
X175449999Y-76705700D03*
X174950000Y-76705700D03*
X174450001Y-76705700D03*
X173949999Y-76705700D03*
X173450000Y-76705700D03*
D61*
X173038700Y-75550000D03*
%TD*%
D41*
%TO.C,TP7*%
X175600000Y-82650000D03*
%TD*%
%TO.C,TP9*%
X179050000Y-80950000D03*
%TD*%
D17*
%TO.C,R1*%
X185650000Y-75947500D03*
X185650000Y-74752500D03*
%TD*%
D41*
%TO.C,TP13*%
X171350000Y-77950000D03*
%TD*%
D52*
%TO.C,H4*%
X187250000Y-91000000D03*
%TD*%
D41*
%TO.C,TP4*%
X161300000Y-71450000D03*
%TD*%
D62*
%TO.C,Q1*%
X137450000Y-47800000D03*
X136800000Y-47800000D03*
X136150000Y-47800000D03*
X135500000Y-47800000D03*
D63*
X136475000Y-49755000D03*
%TD*%
D10*
%TO.C,C20*%
X173170000Y-69400000D03*
X172035000Y-69400000D03*
%TD*%
D41*
%TO.C,TP10*%
X176850000Y-72100000D03*
%TD*%
D64*
%TO.C,U5*%
X182050000Y-79150000D03*
X181400000Y-79150000D03*
X180750000Y-79150000D03*
X180100000Y-79150000D03*
X180100000Y-77550000D03*
X180750000Y-77550000D03*
X181400000Y-77550000D03*
X182050000Y-77550000D03*
%TD*%
D65*
%TO.C,J4*%
X190790000Y-57800000D03*
D66*
X190790000Y-55300000D03*
X190790000Y-53300000D03*
X190790000Y-50800000D03*
D67*
X193500000Y-60870000D03*
X193500000Y-47730000D03*
%TD*%
D54*
%TO.C,J8*%
X162250000Y-87200000D03*
D55*
X159710000Y-87200000D03*
X157170000Y-87200000D03*
X154630000Y-87200000D03*
X152090000Y-87200000D03*
X149550000Y-87200000D03*
X147010000Y-87200000D03*
X144470000Y-87200000D03*
%TD*%
D10*
%TO.C,C25*%
X175970000Y-61000000D03*
X174835000Y-61000000D03*
%TD*%
%TO.C,C2*%
X180192500Y-75750000D03*
X179057500Y-75750000D03*
%TD*%
D54*
%TO.C,J9*%
X144450000Y-92300000D03*
D55*
X144450000Y-89760000D03*
X146990000Y-92300000D03*
X146990000Y-89760000D03*
X149530000Y-92300000D03*
X149530000Y-89760000D03*
X152070000Y-92300000D03*
X152070000Y-89760000D03*
X154610000Y-92300000D03*
X154610000Y-89760000D03*
X157150000Y-92300000D03*
X157150000Y-89760000D03*
X159690000Y-92300000D03*
X159690000Y-89760000D03*
X162230000Y-92300000D03*
X162230000Y-89760000D03*
%TD*%
D41*
%TO.C,TP5*%
X173300000Y-52650000D03*
%TD*%
D42*
%TO.C,C23*%
X142495000Y-51275000D03*
X143455000Y-51275000D03*
%TD*%
D68*
%TO.C,D8*%
X136725000Y-43600000D03*
X135775000Y-41600000D03*
X134825000Y-43600000D03*
%TD*%
D17*
%TO.C,R21*%
X167057142Y-56297500D03*
X167057142Y-55102500D03*
%TD*%
%TO.C,R23*%
X169428570Y-56297500D03*
X169428570Y-55102500D03*
%TD*%
D42*
%TO.C,C21*%
X142495000Y-49900000D03*
X143455000Y-49900000D03*
%TD*%
D52*
%TO.C,H3*%
X187200000Y-42050000D03*
%TD*%
D17*
%TO.C,R22*%
X168242856Y-56297500D03*
X168242856Y-55102500D03*
%TD*%
D10*
%TO.C,C33*%
X175620000Y-69400000D03*
X174485000Y-69400000D03*
%TD*%
D41*
%TO.C,TP1*%
X163400000Y-71450000D03*
%TD*%
D37*
%TO.C,C22*%
X177852500Y-68117500D03*
X177852500Y-66982500D03*
%TD*%
D41*
%TO.C,TP2*%
X169900000Y-65450000D03*
%TD*%
D17*
%TO.C,R25*%
X171800000Y-56297500D03*
X171800000Y-55102500D03*
%TD*%
D69*
%TO.C,U2*%
X154735000Y-51920000D03*
D70*
X152435000Y-58220000D03*
D69*
X152435000Y-51920000D03*
X150135000Y-51920000D03*
%TD*%
D71*
%TO.C,D7*%
X142625000Y-46950000D03*
X142625000Y-42650000D03*
%TD*%
D48*
%TO.C,R11*%
X137610000Y-60950000D03*
X136590000Y-60950000D03*
%TD*%
M02*
