%TF.GenerationSoftware,KiCad,Pcbnew,(6.0.0-0)*%
%TF.CreationDate,2022-10-23T11:33:14-04:00*%
%TF.ProjectId,hermes_v1,6865726d-6573-45f7-9631-2e6b69636164,rev?*%
%TF.SameCoordinates,Original*%
%TF.FileFunction,Copper,L4,Bot*%
%TF.FilePolarity,Positive*%
%FSLAX46Y46*%
G04 Gerber Fmt 4.6, Leading zero omitted, Abs format (unit mm)*
G04 Created by KiCad (PCBNEW (6.0.0-0)) date 2022-10-23 11:33:14*
%MOMM*%
%LPD*%
G01*
G04 APERTURE LIST*
%TA.AperFunction,ComponentPad*%
%ADD10C,0.600000*%
%TD*%
%TA.AperFunction,ComponentPad*%
%ADD11O,1.550000X0.890000*%
%TD*%
%TA.AperFunction,ComponentPad*%
%ADD12O,0.950000X1.250000*%
%TD*%
%TA.AperFunction,ComponentPad*%
%ADD13O,1.500000X3.300000*%
%TD*%
%TA.AperFunction,ComponentPad*%
%ADD14O,1.500000X2.300000*%
%TD*%
%TA.AperFunction,SMDPad,CuDef*%
%ADD15R,2.950000X4.900000*%
%TD*%
%TA.AperFunction,ComponentPad*%
%ADD16C,6.000000*%
%TD*%
%TA.AperFunction,ComponentPad*%
%ADD17R,1.700000X1.700000*%
%TD*%
%TA.AperFunction,ComponentPad*%
%ADD18O,1.700000X1.700000*%
%TD*%
%TA.AperFunction,ComponentPad*%
%ADD19R,1.500000X1.600000*%
%TD*%
%TA.AperFunction,ComponentPad*%
%ADD20C,1.600000*%
%TD*%
%TA.AperFunction,ComponentPad*%
%ADD21C,3.000000*%
%TD*%
%TA.AperFunction,ViaPad*%
%ADD22C,0.800000*%
%TD*%
%TA.AperFunction,Conductor*%
%ADD23C,0.200000*%
%TD*%
%TA.AperFunction,Conductor*%
%ADD24C,0.350000*%
%TD*%
%TA.AperFunction,Conductor*%
%ADD25C,0.250000*%
%TD*%
%TA.AperFunction,Conductor*%
%ADD26C,0.205740*%
%TD*%
%TA.AperFunction,Conductor*%
%ADD27C,0.400000*%
%TD*%
G04 APERTURE END LIST*
D10*
%TO.P,U3,57,GND*%
%TO.N,GND*%
X148850000Y-74075000D03*
X150125000Y-74075000D03*
X148850000Y-76625000D03*
X150125000Y-76625000D03*
X147575000Y-76625000D03*
X147575000Y-74075000D03*
X150125000Y-75350000D03*
X147575000Y-75350000D03*
X148850000Y-75350000D03*
%TD*%
D11*
%TO.P,J2,6,Shield*%
%TO.N,GND*%
X127550000Y-79650000D03*
X127550000Y-72650000D03*
D12*
X130250000Y-73650000D03*
X130250000Y-78650000D03*
%TD*%
D13*
%TO.P,J5,SH1,SH*%
%TO.N,GND*%
X162075000Y-48556750D03*
%TO.P,J5,SH2,SH*%
X176575000Y-48556750D03*
D14*
%TO.P,J5,SH3,SH*%
X176575000Y-42596750D03*
%TO.P,J5,SH4,SH*%
X162075000Y-42596750D03*
%TD*%
D10*
%TO.P,U6,9,AGND*%
%TO.N,GND*%
X140625000Y-55175000D03*
X140625000Y-57775000D03*
X139325000Y-55175000D03*
X140625000Y-56475000D03*
X139325000Y-59075000D03*
D15*
X139975000Y-57125000D03*
D10*
X140625000Y-59075000D03*
X139325000Y-56475000D03*
X139325000Y-57775000D03*
%TD*%
D16*
%TO.P,H1,1*%
%TO.N,N/C*%
X129150000Y-91100000D03*
%TD*%
%TO.P,H2,1*%
%TO.N,N/C*%
X129200000Y-42100000D03*
%TD*%
D17*
%TO.P,J3,1,Pin_1*%
%TO.N,GND*%
X165960000Y-92300000D03*
D18*
%TO.P,J3,2,Pin_2*%
%TO.N,FC_UART0_RX*%
X165960000Y-89760000D03*
%TO.P,J3,3,Pin_3*%
%TO.N,FC_UART0_TX*%
X165960000Y-87220000D03*
%TO.P,J3,4,Pin_4*%
%TO.N,+5V*%
X165960000Y-84680000D03*
%TD*%
D16*
%TO.P,H4,1*%
%TO.N,N/C*%
X187250000Y-91000000D03*
%TD*%
D19*
%TO.P,J4,1,VBUS*%
%TO.N,FC_USB_VBUS*%
X190790000Y-57800000D03*
D20*
%TO.P,J4,2,D-*%
%TO.N,/FCC Peripherals/d-*%
X190790000Y-55300000D03*
%TO.P,J4,3,D+*%
%TO.N,/FCC Peripherals/d+*%
X190790000Y-53300000D03*
%TO.P,J4,4,GND*%
%TO.N,GND*%
X190790000Y-50800000D03*
D21*
%TO.P,J4,5,Shield*%
X193500000Y-60870000D03*
X193500000Y-47730000D03*
%TD*%
D17*
%TO.P,J8,1,Pin_1*%
%TO.N,FC_SERVO_1*%
X162250000Y-87200000D03*
D18*
%TO.P,J8,2,Pin_2*%
%TO.N,FC_SERVO_2*%
X159710000Y-87200000D03*
%TO.P,J8,3,Pin_3*%
%TO.N,FC_SERVO_3*%
X157170000Y-87200000D03*
%TO.P,J8,4,Pin_4*%
%TO.N,FC_SERVO_4*%
X154630000Y-87200000D03*
%TO.P,J8,5,Pin_5*%
%TO.N,FC_SERVO_5*%
X152090000Y-87200000D03*
%TO.P,J8,6,Pin_6*%
%TO.N,FC_SERVO_6*%
X149550000Y-87200000D03*
%TO.P,J8,7,Pin_7*%
%TO.N,FC_SERVO_7*%
X147010000Y-87200000D03*
%TO.P,J8,8,Pin_8*%
%TO.N,FC_RADIO_PPM*%
X144470000Y-87200000D03*
%TD*%
D17*
%TO.P,J9,1,Pin_1*%
%TO.N,GND*%
X144450000Y-92300000D03*
D18*
%TO.P,J9,2,Pin_2*%
%TO.N,+5V*%
X144450000Y-89760000D03*
%TO.P,J9,3,Pin_3*%
%TO.N,GND*%
X146990000Y-92300000D03*
%TO.P,J9,4,Pin_4*%
%TO.N,+5V*%
X146990000Y-89760000D03*
%TO.P,J9,5,Pin_5*%
%TO.N,GND*%
X149530000Y-92300000D03*
%TO.P,J9,6,Pin_6*%
%TO.N,+5V*%
X149530000Y-89760000D03*
%TO.P,J9,7,Pin_7*%
%TO.N,GND*%
X152070000Y-92300000D03*
%TO.P,J9,8,Pin_8*%
%TO.N,+5V*%
X152070000Y-89760000D03*
%TO.P,J9,9,Pin_9*%
%TO.N,GND*%
X154610000Y-92300000D03*
%TO.P,J9,10,Pin_10*%
%TO.N,+5V*%
X154610000Y-89760000D03*
%TO.P,J9,11,Pin_11*%
%TO.N,GND*%
X157150000Y-92300000D03*
%TO.P,J9,12,Pin_12*%
%TO.N,+5V*%
X157150000Y-89760000D03*
%TO.P,J9,13,Pin_13*%
%TO.N,GND*%
X159690000Y-92300000D03*
%TO.P,J9,14,Pin_14*%
%TO.N,+5V*%
X159690000Y-89760000D03*
%TO.P,J9,15,Pin_15*%
%TO.N,GND*%
X162230000Y-92300000D03*
%TO.P,J9,16,Pin_16*%
%TO.N,+5V*%
X162230000Y-89760000D03*
%TD*%
D16*
%TO.P,H3,1*%
%TO.N,N/C*%
X187200000Y-42050000D03*
%TD*%
D22*
%TO.N,GND*%
X168300000Y-47250000D03*
X199150000Y-80650000D03*
X129200000Y-61500000D03*
X155750000Y-49950000D03*
X165300000Y-47250000D03*
X180450000Y-68100000D03*
X137500000Y-42499500D03*
X195750000Y-71500000D03*
X166800000Y-47250000D03*
X136600000Y-61900000D03*
X143450000Y-49050000D03*
X129200000Y-49150000D03*
X138200000Y-71350000D03*
X135350000Y-53350000D03*
X172800000Y-47150000D03*
X134150000Y-77275000D03*
X142700000Y-63950000D03*
X144800000Y-54750000D03*
X127100000Y-48050000D03*
X158350000Y-71000000D03*
X128800000Y-83650000D03*
X139000000Y-66500000D03*
X135700000Y-57450000D03*
X137900000Y-63200000D03*
X177252500Y-61450000D03*
X129200000Y-65600000D03*
X174300000Y-79750000D03*
X181750000Y-64700000D03*
X184499500Y-64350000D03*
X129200000Y-60400000D03*
X144600000Y-42650000D03*
X133500000Y-82400000D03*
X139100000Y-85450000D03*
X136950000Y-92700000D03*
X175950000Y-73150000D03*
X172050000Y-70500000D03*
X195500000Y-85200000D03*
X127100000Y-61500000D03*
X129200000Y-48050000D03*
X169850000Y-47200000D03*
X165500000Y-71450000D03*
X168100000Y-69200000D03*
X127100000Y-49150000D03*
X158350000Y-80300000D03*
X127100000Y-65600000D03*
X129200000Y-64500000D03*
X127100000Y-64500000D03*
X145450000Y-57800000D03*
X185250000Y-67700000D03*
X176802500Y-69400000D03*
X127100000Y-60400000D03*
X170800000Y-64150000D03*
X151750000Y-49950000D03*
X180825000Y-74500000D03*
%TO.N,+1V1*%
X139300000Y-71400000D03*
X141550000Y-75600000D03*
X151250000Y-74500000D03*
%TO.N,VCC*%
X129200000Y-52150000D03*
X129200000Y-68600000D03*
X129200000Y-57350000D03*
X127100000Y-69700000D03*
X129200000Y-56250000D03*
X127100000Y-52150000D03*
X127100000Y-53250000D03*
X127100000Y-57350000D03*
X129200000Y-53250000D03*
X127100000Y-56250000D03*
X129200000Y-69700000D03*
X127100000Y-68600000D03*
%TO.N,+5V*%
X139000000Y-65400000D03*
%TO.N,FC_STATUS_GREEN*%
X161900000Y-69150000D03*
X156250000Y-66900500D03*
%TO.N,FC_RUN*%
X155300000Y-73150000D03*
X144600000Y-80200000D03*
%TO.N,FC_USB_VBUS*%
X128950000Y-74500000D03*
X151450000Y-60150000D03*
%TO.N,FC_I2C0_SCL*%
X162050000Y-79949503D03*
X174800000Y-59900000D03*
X148350500Y-82302878D03*
X181550000Y-66050000D03*
%TO.N,FC_I2C0_SDA*%
X182900000Y-64350000D03*
X147950500Y-81351584D03*
X170800000Y-63150497D03*
X162050000Y-78950000D03*
%TO.N,FC_SWCLK*%
X155300000Y-75150000D03*
X163400000Y-71450000D03*
%TO.N,FC_SWD*%
X155300000Y-74150000D03*
X161300000Y-71450000D03*
%TO.N,FC_SPI0_MOSI*%
X178050000Y-78350000D03*
X170350000Y-80800000D03*
X147357427Y-82189693D03*
X194800000Y-77350000D03*
%TO.N,FC_SPI0_SCK*%
X146300000Y-81425000D03*
X177900000Y-75850000D03*
X179000000Y-79150000D03*
X194850000Y-79550000D03*
%TO.N,FC_SPI0_MISO*%
X194900000Y-81750000D03*
X145268127Y-82381873D03*
X178050000Y-77050000D03*
X169050000Y-82100000D03*
%TO.N,FC_UART0_TX*%
X154315706Y-72850500D03*
%TO.N,FC_UART0_RX*%
X153659818Y-72096301D03*
%TO.N,FC_HDMI_CK+*%
X164568764Y-64568764D03*
X150250000Y-81750000D03*
%TO.N,FC_HDMI_CK-*%
X150531557Y-80715828D03*
X163931236Y-63931236D03*
%TO.N,FC_SPI0_CS4*%
X183700000Y-71700000D03*
X153956755Y-69043245D03*
%TO.N,/FlightControlComputer/3V_MCU*%
X151250000Y-75550000D03*
X146516874Y-72944159D03*
%TO.N,3V3_IO*%
X149100000Y-66550000D03*
X160100000Y-62300000D03*
X135950000Y-77600000D03*
X168150000Y-62150000D03*
X175250000Y-71000000D03*
X194850000Y-78500000D03*
X175400000Y-79750000D03*
%TO.N,FC_SPI0_CS3*%
X183250000Y-78150000D03*
X153250000Y-69750000D03*
%TO.N,FC_SPI0_CS2*%
X175325000Y-72350000D03*
X170450000Y-72425000D03*
%TO.N,FC_SPI0_CS1*%
X170350000Y-81900000D03*
X146382604Y-82421083D03*
%TO.N,/FCC Peripherals/d-*%
X129038410Y-75552369D03*
%TO.N,/FCC Peripherals/d+*%
X128924502Y-76650000D03*
%TD*%
D23*
%TO.N,+1V1*%
X151250000Y-74500000D02*
X151000000Y-74250000D01*
X151000000Y-74250000D02*
X151000000Y-73150000D01*
X139300000Y-71400000D02*
X139300000Y-73350000D01*
X145050000Y-72100000D02*
X141550000Y-75600000D01*
X151000000Y-73150000D02*
X149950000Y-72100000D01*
X139300000Y-73350000D02*
X141550000Y-75600000D01*
X149950000Y-72100000D02*
X145050000Y-72100000D01*
D24*
%TO.N,+5V*%
X139000000Y-65400000D02*
X135700000Y-65400000D01*
X136171024Y-89760000D02*
X144450000Y-89760000D01*
X126600000Y-71650000D02*
X126400480Y-71849520D01*
X126400480Y-79989456D02*
X136171024Y-89760000D01*
X135700000Y-65400000D02*
X129450000Y-71650000D01*
X129450000Y-71650000D02*
X126600000Y-71650000D01*
X126400480Y-71849520D02*
X126400480Y-79989456D01*
D23*
%TO.N,FC_STATUS_GREEN*%
X159650500Y-66900500D02*
X156250000Y-66900500D01*
X161900000Y-69150000D02*
X159650500Y-66900500D01*
D25*
%TO.N,FC_RUN*%
X155300000Y-73150000D02*
X155275386Y-73150000D01*
X146850000Y-77950000D02*
X144600000Y-80200000D01*
X150475386Y-77950000D02*
X146850000Y-77950000D01*
X155275386Y-73150000D02*
X150475386Y-77950000D01*
D24*
%TO.N,FC_USB_VBUS*%
X128950000Y-74500000D02*
X128950000Y-73598598D01*
X151450000Y-62000000D02*
X151450000Y-60150000D01*
X134548598Y-68000000D02*
X145450000Y-68000000D01*
X145450000Y-68000000D02*
X151450000Y-62000000D01*
X153800000Y-57800000D02*
X151450000Y-60150000D01*
X190790000Y-57800000D02*
X153800000Y-57800000D01*
X128950000Y-73598598D02*
X134548598Y-68000000D01*
D23*
%TO.N,FC_I2C0_SCL*%
X159549992Y-82449511D02*
X162050000Y-79949503D01*
X148497133Y-82449511D02*
X159549992Y-82449511D01*
X148350500Y-82302878D02*
X148497133Y-82449511D01*
%TO.N,FC_I2C0_SDA*%
X157499511Y-80999511D02*
X160000489Y-80999511D01*
X149285767Y-80016317D02*
X156516317Y-80016317D01*
X157350000Y-80850000D02*
X157499511Y-80999511D01*
X160000489Y-80999511D02*
X162050000Y-78950000D01*
X156516317Y-80016317D02*
X157350000Y-80850000D01*
X147950500Y-81351584D02*
X149285767Y-80016317D01*
%TO.N,FC_SWCLK*%
X155300000Y-75150000D02*
X155450000Y-75150000D01*
X163400000Y-71950000D02*
X163400000Y-71450000D01*
X162750000Y-72600000D02*
X163400000Y-71950000D01*
X158000000Y-72600000D02*
X162750000Y-72600000D01*
X157750000Y-72850000D02*
X158000000Y-72600000D01*
X155450000Y-75150000D02*
X157750000Y-72850000D01*
%TO.N,FC_SWD*%
X160850000Y-71900000D02*
X161300000Y-71450000D01*
X155300000Y-74150000D02*
X157550000Y-71900000D01*
X157550000Y-71900000D02*
X160850000Y-71900000D01*
D26*
%TO.N,FC_SPI0_MOSI*%
X178050000Y-79193318D02*
X178050000Y-78350000D01*
D23*
X162050000Y-81050000D02*
X162300000Y-80800000D01*
D26*
X194800000Y-77350000D02*
X185350000Y-77350000D01*
D23*
X147357427Y-82299064D02*
X148060752Y-83002389D01*
X148060752Y-83002389D02*
X160097611Y-83002389D01*
X162300000Y-80800000D02*
X170350000Y-80800000D01*
D26*
X185350000Y-77350000D02*
X182250000Y-80450000D01*
D23*
X147357427Y-82189693D02*
X147357427Y-82299064D01*
D26*
X182250000Y-80450000D02*
X179306682Y-80450000D01*
X179306682Y-80450000D02*
X178050000Y-79193318D01*
D23*
X160097611Y-83002389D02*
X162050000Y-81050000D01*
%TO.N,FC_SPI0_SCK*%
X146300000Y-81425000D02*
X148475000Y-79250000D01*
D26*
X179000000Y-76950000D02*
X177900000Y-75850000D01*
D23*
X163800000Y-75850000D02*
X177900000Y-75850000D01*
D26*
X179000000Y-79150000D02*
X179000000Y-76950000D01*
D23*
X148475000Y-79250000D02*
X160400000Y-79250000D01*
X160400000Y-79250000D02*
X163800000Y-75850000D01*
%TO.N,FC_SPI0_MISO*%
X146687682Y-83801428D02*
X161098572Y-83801428D01*
X145268127Y-82381873D02*
X146687682Y-83801428D01*
X162800000Y-82100000D02*
X169050000Y-82100000D01*
X162550000Y-82350000D02*
X162800000Y-82100000D01*
X161098572Y-83801428D02*
X162550000Y-82350000D01*
%TO.N,FC_SPI0_CS4*%
X154813021Y-69899511D02*
X171600489Y-69899511D01*
X171600489Y-69899511D02*
X171699511Y-69800489D01*
X171699511Y-69800489D02*
X176200489Y-69800489D01*
X178100000Y-71700000D02*
X183700000Y-71700000D01*
X153956755Y-69043245D02*
X154813021Y-69899511D01*
X176200489Y-69800489D02*
X178100000Y-71700000D01*
D27*
%TO.N,3V3_IO*%
X136350000Y-77200000D02*
X136350000Y-70900000D01*
D26*
X182850000Y-81750000D02*
X176400000Y-81750000D01*
X175400000Y-79750000D02*
X175400000Y-80750000D01*
D27*
X136350000Y-70900000D02*
X137850000Y-69400000D01*
X149100000Y-67300000D02*
X147000000Y-69400000D01*
X149100000Y-66550000D02*
X149100000Y-67300000D01*
X137850000Y-69400000D02*
X147000000Y-69400000D01*
D26*
X175400000Y-80750000D02*
X176400000Y-81750000D01*
D27*
X168000000Y-62300000D02*
X168150000Y-62150000D01*
D26*
X194850000Y-78500000D02*
X186100000Y-78500000D01*
D27*
X135950000Y-77600000D02*
X136350000Y-77200000D01*
X160100000Y-62300000D02*
X168000000Y-62300000D01*
D26*
X186100000Y-78500000D02*
X182850000Y-81750000D01*
D23*
%TO.N,FC_SPI0_CS3*%
X175539259Y-70300000D02*
X183250000Y-78010741D01*
X183250000Y-78010741D02*
X183250000Y-78150000D01*
X153250000Y-69750000D02*
X153800489Y-70300489D01*
X170550489Y-70300489D02*
X171650000Y-71400000D01*
X171650000Y-71400000D02*
X173350000Y-71400000D01*
X173400000Y-71400000D02*
X174500000Y-70300000D01*
X173350000Y-71400000D02*
X173400000Y-71400000D01*
X174500000Y-70300000D02*
X175539259Y-70300000D01*
X153800489Y-70300489D02*
X170550489Y-70300489D01*
%TO.N,FC_SPI0_CS2*%
X170450000Y-72425000D02*
X175250000Y-72425000D01*
X175250000Y-72425000D02*
X175325000Y-72350000D01*
%TO.N,FC_SPI0_CS1*%
X160348092Y-83401908D02*
X160448092Y-83401908D01*
X169800000Y-81350000D02*
X170350000Y-81900000D01*
X146382604Y-82421083D02*
X147363429Y-83401908D01*
X160448092Y-83401908D02*
X162500000Y-81350000D01*
X147363429Y-83401908D02*
X160348092Y-83401908D01*
X162500000Y-81350000D02*
X169800000Y-81350000D01*
%TD*%
%TA.AperFunction,Conductor*%
%TO.N,VCC*%
G36*
X129154951Y-51200235D02*
G01*
X129342543Y-51218681D01*
X129351949Y-51220549D01*
X129530038Y-51274478D01*
X129538901Y-51278142D01*
X129703082Y-51365730D01*
X129711054Y-51371045D01*
X129855040Y-51488941D01*
X129861817Y-51495701D01*
X129978529Y-51637497D01*
X129980079Y-51639380D01*
X129985419Y-51647346D01*
X130073424Y-51811297D01*
X130077111Y-51820149D01*
X130131498Y-51998103D01*
X130133390Y-52007504D01*
X130134367Y-52017187D01*
X130152316Y-52195040D01*
X130152564Y-52199834D01*
X130165391Y-57202606D01*
X130179191Y-62584533D01*
X130197296Y-69645345D01*
X130197423Y-69695030D01*
X130197198Y-69699840D01*
X130183024Y-69847394D01*
X130179116Y-69888073D01*
X130177261Y-69897514D01*
X130123439Y-70076278D01*
X130119774Y-70085174D01*
X130032062Y-70249970D01*
X130026729Y-70257979D01*
X129908507Y-70402457D01*
X129901713Y-70409268D01*
X129757535Y-70527864D01*
X129749544Y-70533215D01*
X129617598Y-70603878D01*
X129584967Y-70621353D01*
X129576081Y-70625040D01*
X129397458Y-70679319D01*
X129388028Y-70681197D01*
X129260565Y-70693772D01*
X129199834Y-70699763D01*
X129195024Y-70700000D01*
X127252407Y-70700000D01*
X127247604Y-70699764D01*
X127059713Y-70681258D01*
X127050292Y-70679384D01*
X126871934Y-70625280D01*
X126863060Y-70621604D01*
X126698689Y-70533746D01*
X126690702Y-70528410D01*
X126546624Y-70410169D01*
X126539831Y-70403376D01*
X126421590Y-70259298D01*
X126416254Y-70251311D01*
X126414748Y-70248494D01*
X126989637Y-70248494D01*
X127090637Y-70423431D01*
X127140047Y-70394904D01*
X127536047Y-70394904D01*
X127568434Y-70451000D01*
X127801685Y-70451000D01*
X127710985Y-70293904D01*
X127536047Y-70394904D01*
X127140047Y-70394904D01*
X127265575Y-70322431D01*
X127164575Y-70147494D01*
X126989637Y-70248494D01*
X126414748Y-70248494D01*
X126328396Y-70086940D01*
X126324720Y-70078066D01*
X126316244Y-70050123D01*
X126533226Y-70050123D01*
X126583956Y-70145032D01*
X126644680Y-70219025D01*
X126719165Y-70176021D01*
X126661222Y-70075661D01*
X127351732Y-70075661D01*
X127437047Y-70223431D01*
X127486457Y-70194904D01*
X127882457Y-70194904D01*
X127983457Y-70369841D01*
X128032867Y-70341314D01*
X128428868Y-70341314D01*
X128492195Y-70451000D01*
X128642888Y-70451000D01*
X129038886Y-70451000D01*
X129187324Y-70451000D01*
X129150215Y-70386724D01*
X129038886Y-70451000D01*
X128642888Y-70451000D01*
X128704805Y-70415252D01*
X128603805Y-70240314D01*
X128428868Y-70341314D01*
X128032867Y-70341314D01*
X128158395Y-70268841D01*
X128057395Y-70093904D01*
X127882457Y-70194904D01*
X127486457Y-70194904D01*
X127611985Y-70122431D01*
X127510985Y-69947494D01*
X127455391Y-69979591D01*
X127372693Y-70062289D01*
X127360291Y-70071300D01*
X127351732Y-70075661D01*
X126661222Y-70075661D01*
X126618165Y-70001084D01*
X126533226Y-70050123D01*
X126316244Y-70050123D01*
X126270616Y-69899708D01*
X126268742Y-69890287D01*
X126264626Y-69848494D01*
X127682457Y-69848494D01*
X127783457Y-70023431D01*
X127832867Y-69994904D01*
X128228868Y-69994904D01*
X128329868Y-70169841D01*
X128379278Y-70141314D01*
X128775278Y-70141314D01*
X128876278Y-70316252D01*
X128925690Y-70287724D01*
X129321688Y-70287724D01*
X129415956Y-70451000D01*
X129442888Y-70451000D01*
X129597626Y-70361662D01*
X129496626Y-70186724D01*
X129321688Y-70287724D01*
X128925690Y-70287724D01*
X129051215Y-70215252D01*
X128979939Y-70091797D01*
X128971945Y-70087724D01*
X129668098Y-70087724D01*
X129768254Y-70261200D01*
X129864183Y-70143967D01*
X129897587Y-70081208D01*
X129843036Y-69986724D01*
X129668098Y-70087724D01*
X128971945Y-70087724D01*
X128939710Y-70071300D01*
X128927307Y-70062289D01*
X128921760Y-70056742D01*
X128775278Y-70141314D01*
X128379278Y-70141314D01*
X128504805Y-70068841D01*
X128403805Y-69893904D01*
X128228868Y-69994904D01*
X127832867Y-69994904D01*
X127958395Y-69922431D01*
X127857395Y-69747494D01*
X127682457Y-69848494D01*
X126264626Y-69848494D01*
X126250236Y-69702396D01*
X126250000Y-69697593D01*
X126250000Y-69555673D01*
X126589637Y-69555673D01*
X126651336Y-69662539D01*
X126666438Y-69567187D01*
X126671176Y-69552606D01*
X126701606Y-69492883D01*
X127498394Y-69492883D01*
X127528824Y-69552606D01*
X127533562Y-69567186D01*
X127538673Y-69599451D01*
X127583457Y-69677021D01*
X127632867Y-69648494D01*
X128028868Y-69648494D01*
X128129868Y-69823431D01*
X128179278Y-69794904D01*
X128575278Y-69794904D01*
X128676278Y-69969841D01*
X128797813Y-69899673D01*
X128795990Y-69896096D01*
X129604009Y-69896096D01*
X129744036Y-69815252D01*
X129645941Y-69645345D01*
X129653383Y-69692335D01*
X129653383Y-69707665D01*
X129633562Y-69832813D01*
X129628824Y-69847394D01*
X129604009Y-69896096D01*
X128795990Y-69896096D01*
X128771176Y-69847394D01*
X128766438Y-69832813D01*
X128746617Y-69707665D01*
X128746617Y-69695981D01*
X128575278Y-69794904D01*
X128179278Y-69794904D01*
X128304805Y-69722431D01*
X128203805Y-69547494D01*
X128028868Y-69648494D01*
X127632867Y-69648494D01*
X127758395Y-69576021D01*
X127657395Y-69401084D01*
X127498394Y-69492883D01*
X126701606Y-69492883D01*
X126702946Y-69490254D01*
X126589637Y-69555673D01*
X126250000Y-69555673D01*
X126250000Y-69379373D01*
X126499000Y-69379373D01*
X126665575Y-69283201D01*
X126564575Y-69108263D01*
X126499000Y-69146122D01*
X126499000Y-69379373D01*
X126250000Y-69379373D01*
X126250000Y-69009263D01*
X126736047Y-69009263D01*
X126837047Y-69184201D01*
X126886459Y-69155673D01*
X127282457Y-69155673D01*
X127383457Y-69330611D01*
X127432867Y-69302084D01*
X127828868Y-69302084D01*
X127929868Y-69477021D01*
X127979278Y-69448494D01*
X128375278Y-69448494D01*
X128476278Y-69623431D01*
X128618509Y-69541314D01*
X129814508Y-69541314D01*
X129915508Y-69716252D01*
X129948428Y-69697246D01*
X129947831Y-69464340D01*
X129814508Y-69541314D01*
X128618509Y-69541314D01*
X128651215Y-69522431D01*
X128550215Y-69347494D01*
X128375278Y-69448494D01*
X127979278Y-69448494D01*
X128104805Y-69376021D01*
X128003805Y-69201084D01*
X127828868Y-69302084D01*
X127432867Y-69302084D01*
X127558395Y-69229611D01*
X127457395Y-69054673D01*
X127282457Y-69155673D01*
X126886459Y-69155673D01*
X127011985Y-69083201D01*
X126984950Y-69036375D01*
X126967187Y-69033562D01*
X126952606Y-69028824D01*
X126839709Y-68971300D01*
X126827307Y-68962289D01*
X126823684Y-68958666D01*
X126736047Y-69009263D01*
X126250000Y-69009263D01*
X126250000Y-68955673D01*
X127628868Y-68955673D01*
X127729868Y-69130611D01*
X127779278Y-69102084D01*
X128175278Y-69102084D01*
X128276278Y-69277021D01*
X128325688Y-69248494D01*
X128721688Y-69248494D01*
X128822688Y-69423431D01*
X128867403Y-69397615D01*
X128927307Y-69337711D01*
X128939709Y-69328700D01*
X128980890Y-69307717D01*
X129419110Y-69307717D01*
X129460291Y-69328700D01*
X129465174Y-69332248D01*
X129443036Y-69293904D01*
X129419110Y-69307717D01*
X128980890Y-69307717D01*
X128987257Y-69304473D01*
X128896626Y-69147494D01*
X128721688Y-69248494D01*
X128325688Y-69248494D01*
X128451215Y-69176021D01*
X128350215Y-69001084D01*
X128175278Y-69102084D01*
X127779278Y-69102084D01*
X127904805Y-69029611D01*
X127803805Y-68854673D01*
X127628868Y-68955673D01*
X126250000Y-68955673D01*
X126250000Y-68662853D01*
X126536047Y-68662853D01*
X126637047Y-68837791D01*
X126699008Y-68802018D01*
X126680648Y-68765985D01*
X127519351Y-68765985D01*
X127529868Y-68784201D01*
X127579280Y-68755673D01*
X127975278Y-68755673D01*
X128076278Y-68930611D01*
X128125688Y-68902084D01*
X128521688Y-68902084D01*
X128622688Y-69077021D01*
X128672098Y-69048494D01*
X129068098Y-69048494D01*
X129169098Y-69223431D01*
X129218508Y-69194904D01*
X129614508Y-69194904D01*
X129715508Y-69369841D01*
X129890446Y-69268841D01*
X129789446Y-69093904D01*
X129614508Y-69194904D01*
X129218508Y-69194904D01*
X129344036Y-69122431D01*
X129296086Y-69039379D01*
X129207665Y-69053383D01*
X129192335Y-69053383D01*
X129088197Y-69036889D01*
X129068098Y-69048494D01*
X128672098Y-69048494D01*
X128797626Y-68976021D01*
X128786947Y-68957525D01*
X129477457Y-68957525D01*
X129515508Y-69023431D01*
X129690446Y-68922431D01*
X129610337Y-68783678D01*
X129571300Y-68860291D01*
X129562289Y-68872693D01*
X129477457Y-68957525D01*
X128786947Y-68957525D01*
X128696626Y-68801084D01*
X128521688Y-68902084D01*
X128125688Y-68902084D01*
X128251215Y-68829611D01*
X128150215Y-68654673D01*
X127975278Y-68755673D01*
X127579280Y-68755673D01*
X127704805Y-68683201D01*
X127603805Y-68508263D01*
X127545408Y-68541979D01*
X127553383Y-68592335D01*
X127553383Y-68607665D01*
X127533562Y-68732813D01*
X127528824Y-68747393D01*
X127519351Y-68765985D01*
X126680648Y-68765985D01*
X126671176Y-68747394D01*
X126666438Y-68732813D01*
X126646617Y-68607665D01*
X126646617Y-68599016D01*
X126536047Y-68662853D01*
X126250000Y-68662853D01*
X126250000Y-68455613D01*
X126499000Y-68455613D01*
X126579280Y-68409263D01*
X127775278Y-68409263D01*
X127876278Y-68584201D01*
X127925690Y-68555673D01*
X128321688Y-68555673D01*
X128422688Y-68730611D01*
X128564920Y-68648494D01*
X129760918Y-68648494D01*
X129861918Y-68823431D01*
X129946063Y-68774850D01*
X129945523Y-68564238D01*
X129935856Y-68547494D01*
X129760918Y-68648494D01*
X128564920Y-68648494D01*
X128597626Y-68629611D01*
X128496626Y-68454673D01*
X128321688Y-68555673D01*
X127925690Y-68555673D01*
X128051215Y-68483201D01*
X127950215Y-68308263D01*
X127775278Y-68409263D01*
X126579280Y-68409263D01*
X126611985Y-68390381D01*
X126510985Y-68215443D01*
X126499000Y-68222362D01*
X126499000Y-68455613D01*
X126250000Y-68455613D01*
X126250000Y-68116443D01*
X126682457Y-68116443D01*
X126779863Y-68285155D01*
X126827307Y-68237711D01*
X126839709Y-68228700D01*
X126878097Y-68209140D01*
X127321902Y-68209140D01*
X127360291Y-68228700D01*
X127372693Y-68237711D01*
X127462289Y-68327307D01*
X127471300Y-68339709D01*
X127477767Y-68352401D01*
X127504805Y-68336791D01*
X127403805Y-68161853D01*
X127321902Y-68209140D01*
X126878097Y-68209140D01*
X126948511Y-68173262D01*
X126857395Y-68015443D01*
X126682457Y-68116443D01*
X126250000Y-68116443D01*
X126250000Y-67798687D01*
X126499000Y-67798687D01*
X126583457Y-67944970D01*
X126632867Y-67916443D01*
X127028868Y-67916443D01*
X127129868Y-68091381D01*
X127179280Y-68062853D01*
X127575278Y-68062853D01*
X127676278Y-68237791D01*
X127725690Y-68209263D01*
X128121688Y-68209263D01*
X128222688Y-68384201D01*
X128272100Y-68355673D01*
X128668098Y-68355673D01*
X128759128Y-68513342D01*
X128766438Y-68467187D01*
X128771176Y-68452606D01*
X128828700Y-68339709D01*
X128837711Y-68327307D01*
X128862934Y-68302084D01*
X129560918Y-68302084D01*
X129661918Y-68477021D01*
X129836856Y-68376021D01*
X129735856Y-68201084D01*
X129560918Y-68302084D01*
X128862934Y-68302084D01*
X128867673Y-68297345D01*
X128843036Y-68254673D01*
X128668098Y-68355673D01*
X128272100Y-68355673D01*
X128397626Y-68283201D01*
X128296626Y-68108263D01*
X128121688Y-68209263D01*
X127725690Y-68209263D01*
X127851215Y-68136791D01*
X127750215Y-67961853D01*
X127575278Y-68062853D01*
X127179280Y-68062853D01*
X127304805Y-67990381D01*
X127203805Y-67815443D01*
X127028868Y-67916443D01*
X126632867Y-67916443D01*
X126758395Y-67843970D01*
X126657395Y-67669033D01*
X126499000Y-67760482D01*
X126499000Y-67798687D01*
X126250000Y-67798687D01*
X126250000Y-67570033D01*
X126828868Y-67570033D01*
X126929868Y-67744970D01*
X126979278Y-67716443D01*
X127375278Y-67716443D01*
X127476278Y-67891381D01*
X127525690Y-67862853D01*
X127921688Y-67862853D01*
X128022688Y-68037791D01*
X128072100Y-68009263D01*
X128468098Y-68009263D01*
X128569098Y-68184201D01*
X128618510Y-68155673D01*
X129014508Y-68155673D01*
X129030084Y-68182652D01*
X129052607Y-68171176D01*
X129067187Y-68166438D01*
X129192335Y-68146617D01*
X129207665Y-68146617D01*
X129246038Y-68152695D01*
X129189446Y-68054673D01*
X129014508Y-68155673D01*
X128618510Y-68155673D01*
X128744036Y-68083201D01*
X128643036Y-67908263D01*
X128468098Y-68009263D01*
X128072100Y-68009263D01*
X128197626Y-67936791D01*
X128096626Y-67761853D01*
X127921688Y-67862853D01*
X127525690Y-67862853D01*
X127651215Y-67790381D01*
X127550215Y-67615443D01*
X127375278Y-67716443D01*
X126979278Y-67716443D01*
X127104805Y-67643970D01*
X127003805Y-67469033D01*
X126828868Y-67570033D01*
X126250000Y-67570033D01*
X126250000Y-67394685D01*
X126499000Y-67394685D01*
X126499000Y-67531851D01*
X126558395Y-67497560D01*
X126499000Y-67394685D01*
X126250000Y-67394685D01*
X126250000Y-67223623D01*
X126628868Y-67223623D01*
X126729868Y-67398560D01*
X126779278Y-67370033D01*
X127175278Y-67370033D01*
X127276278Y-67544970D01*
X127325688Y-67516443D01*
X127721688Y-67516443D01*
X127822688Y-67691381D01*
X127872100Y-67662853D01*
X128268098Y-67662853D01*
X128369098Y-67837791D01*
X128418510Y-67809263D01*
X128814508Y-67809263D01*
X128915508Y-67984201D01*
X128964920Y-67955673D01*
X129360918Y-67955673D01*
X129461918Y-68130611D01*
X129511328Y-68102084D01*
X129907329Y-68102084D01*
X129944503Y-68166472D01*
X129944284Y-68080749D01*
X129907329Y-68102084D01*
X129511328Y-68102084D01*
X129636856Y-68029611D01*
X129535856Y-67854673D01*
X129360918Y-67955673D01*
X128964920Y-67955673D01*
X129090446Y-67883201D01*
X128989446Y-67708263D01*
X128814508Y-67809263D01*
X128418510Y-67809263D01*
X128544036Y-67736791D01*
X128443036Y-67561853D01*
X128268098Y-67662853D01*
X127872100Y-67662853D01*
X127997626Y-67590381D01*
X127896626Y-67415443D01*
X127721688Y-67516443D01*
X127325688Y-67516443D01*
X127451215Y-67443970D01*
X127350215Y-67269033D01*
X127175278Y-67370033D01*
X126779278Y-67370033D01*
X126904805Y-67297560D01*
X126803805Y-67122623D01*
X126628868Y-67223623D01*
X126250000Y-67223623D01*
X126250000Y-66998685D01*
X126499000Y-66998685D01*
X126529868Y-67052150D01*
X126579278Y-67023623D01*
X126975278Y-67023623D01*
X127076278Y-67198560D01*
X127125688Y-67170033D01*
X127521688Y-67170033D01*
X127622688Y-67344970D01*
X127672098Y-67316443D01*
X128068098Y-67316443D01*
X128169098Y-67491381D01*
X128218510Y-67462853D01*
X128614508Y-67462853D01*
X128715508Y-67637791D01*
X128764920Y-67609263D01*
X129160918Y-67609263D01*
X129261918Y-67784201D01*
X129311330Y-67755673D01*
X129707329Y-67755673D01*
X129808329Y-67930611D01*
X129943698Y-67852455D01*
X129943463Y-67760669D01*
X129882266Y-67654673D01*
X129707329Y-67755673D01*
X129311330Y-67755673D01*
X129436856Y-67683201D01*
X129335856Y-67508263D01*
X129160918Y-67609263D01*
X128764920Y-67609263D01*
X128890446Y-67536791D01*
X128789446Y-67361853D01*
X128614508Y-67462853D01*
X128218510Y-67462853D01*
X128344036Y-67390381D01*
X128243036Y-67215443D01*
X128068098Y-67316443D01*
X127672098Y-67316443D01*
X127797626Y-67243970D01*
X127696626Y-67069033D01*
X127521688Y-67170033D01*
X127125688Y-67170033D01*
X127251215Y-67097560D01*
X127150215Y-66922623D01*
X126975278Y-67023623D01*
X126579278Y-67023623D01*
X126704805Y-66951150D01*
X126603805Y-66776212D01*
X126499000Y-66836721D01*
X126499000Y-66998685D01*
X126250000Y-66998685D01*
X126250000Y-66677212D01*
X126775278Y-66677212D01*
X126876278Y-66852150D01*
X126925688Y-66823623D01*
X127321688Y-66823623D01*
X127422688Y-66998560D01*
X127472098Y-66970033D01*
X127868098Y-66970033D01*
X127969098Y-67144970D01*
X128018508Y-67116443D01*
X128414508Y-67116443D01*
X128515508Y-67291381D01*
X128564920Y-67262853D01*
X128960918Y-67262853D01*
X129061918Y-67437791D01*
X129111330Y-67409263D01*
X129507329Y-67409263D01*
X129608329Y-67584201D01*
X129783266Y-67483201D01*
X129682266Y-67308263D01*
X129507329Y-67409263D01*
X129111330Y-67409263D01*
X129236856Y-67336791D01*
X129135856Y-67161853D01*
X128960918Y-67262853D01*
X128564920Y-67262853D01*
X128690446Y-67190381D01*
X128589446Y-67015443D01*
X128414508Y-67116443D01*
X128018508Y-67116443D01*
X128144036Y-67043970D01*
X128043036Y-66869033D01*
X127868098Y-66970033D01*
X127472098Y-66970033D01*
X127597626Y-66897560D01*
X127496626Y-66722623D01*
X127321688Y-66823623D01*
X126925688Y-66823623D01*
X127051215Y-66751150D01*
X126950215Y-66576212D01*
X126775278Y-66677212D01*
X126250000Y-66677212D01*
X126250000Y-66330802D01*
X126575278Y-66330802D01*
X126676278Y-66505740D01*
X126725690Y-66477212D01*
X127121688Y-66477212D01*
X127222688Y-66652150D01*
X127272098Y-66623623D01*
X127668098Y-66623623D01*
X127769098Y-66798560D01*
X127818508Y-66770033D01*
X128214508Y-66770033D01*
X128315508Y-66944970D01*
X128364918Y-66916443D01*
X128760918Y-66916443D01*
X128861918Y-67091381D01*
X128911330Y-67062853D01*
X129307329Y-67062853D01*
X129408329Y-67237791D01*
X129457741Y-67209263D01*
X129853739Y-67209263D01*
X129942443Y-67362903D01*
X129941918Y-67158353D01*
X129853739Y-67209263D01*
X129457741Y-67209263D01*
X129583266Y-67136791D01*
X129482266Y-66961853D01*
X129307329Y-67062853D01*
X128911330Y-67062853D01*
X129036856Y-66990381D01*
X128935856Y-66815443D01*
X128760918Y-66916443D01*
X128364918Y-66916443D01*
X128490446Y-66843970D01*
X128389446Y-66669033D01*
X128214508Y-66770033D01*
X127818508Y-66770033D01*
X127944036Y-66697560D01*
X127843036Y-66522623D01*
X127668098Y-66623623D01*
X127272098Y-66623623D01*
X127397626Y-66551150D01*
X127297898Y-66378416D01*
X127290135Y-66379960D01*
X127121688Y-66477212D01*
X126725690Y-66477212D01*
X126851215Y-66404740D01*
X126818207Y-66347568D01*
X126721387Y-66307464D01*
X126718466Y-66306140D01*
X126715925Y-66304887D01*
X127484076Y-66304887D01*
X127569098Y-66452150D01*
X127618508Y-66423623D01*
X128014508Y-66423623D01*
X128115508Y-66598560D01*
X128164918Y-66570033D01*
X128560918Y-66570033D01*
X128661918Y-66744970D01*
X128711328Y-66716443D01*
X129107329Y-66716443D01*
X129208329Y-66891381D01*
X129257741Y-66862853D01*
X129653739Y-66862853D01*
X129754739Y-67037791D01*
X129929676Y-66936791D01*
X129828676Y-66761853D01*
X129653739Y-66862853D01*
X129257741Y-66862853D01*
X129383266Y-66790381D01*
X129282266Y-66615443D01*
X129107329Y-66716443D01*
X128711328Y-66716443D01*
X128836856Y-66643970D01*
X128735856Y-66469033D01*
X128560918Y-66570033D01*
X128164918Y-66570033D01*
X128290446Y-66497560D01*
X128189446Y-66322623D01*
X128014508Y-66423623D01*
X127618508Y-66423623D01*
X127744036Y-66351150D01*
X127648472Y-66185629D01*
X127523375Y-66281619D01*
X127520770Y-66283486D01*
X127509898Y-66290751D01*
X127507176Y-66292444D01*
X127496099Y-66298840D01*
X127493270Y-66300352D01*
X127484076Y-66304887D01*
X126715925Y-66304887D01*
X126706730Y-66300352D01*
X126703901Y-66298840D01*
X126692824Y-66292444D01*
X126690102Y-66290751D01*
X126679230Y-66283486D01*
X126676625Y-66281619D01*
X126669687Y-66276295D01*
X126575278Y-66330802D01*
X126250000Y-66330802D01*
X126250000Y-65600000D01*
X126494318Y-65600000D01*
X126514956Y-65756762D01*
X126516183Y-65759724D01*
X126516184Y-65759728D01*
X126523012Y-65776212D01*
X126575464Y-65902841D01*
X126671718Y-66028282D01*
X126797159Y-66124536D01*
X126800122Y-66125763D01*
X126800125Y-66125765D01*
X126940272Y-66183816D01*
X126940276Y-66183817D01*
X126943238Y-66185044D01*
X126946419Y-66185463D01*
X126946420Y-66185463D01*
X127096817Y-66205263D01*
X127100000Y-66205682D01*
X127103183Y-66205263D01*
X127253580Y-66185463D01*
X127253581Y-66185463D01*
X127256762Y-66185044D01*
X127259724Y-66183817D01*
X127259728Y-66183816D01*
X127399875Y-66125765D01*
X127399878Y-66125763D01*
X127402841Y-66124536D01*
X127464515Y-66077212D01*
X127814508Y-66077212D01*
X127915508Y-66252150D01*
X127964918Y-66223623D01*
X128360918Y-66223623D01*
X128461918Y-66398560D01*
X128511328Y-66370033D01*
X128907329Y-66370033D01*
X129008329Y-66544970D01*
X129057739Y-66516443D01*
X129453739Y-66516443D01*
X129554739Y-66691381D01*
X129729676Y-66590381D01*
X129628676Y-66415443D01*
X129453739Y-66516443D01*
X129057739Y-66516443D01*
X129183266Y-66443970D01*
X129157783Y-66399833D01*
X129017393Y-66381350D01*
X129014230Y-66380828D01*
X129001399Y-66378276D01*
X128998275Y-66377547D01*
X128985919Y-66374236D01*
X128982851Y-66373305D01*
X128970467Y-66369101D01*
X128967467Y-66367972D01*
X128934529Y-66354329D01*
X128907329Y-66370033D01*
X128511328Y-66370033D01*
X128604149Y-66316443D01*
X129800149Y-66316443D01*
X129901149Y-66491381D01*
X129940150Y-66468864D01*
X129939553Y-66235958D01*
X129800149Y-66316443D01*
X128604149Y-66316443D01*
X128636856Y-66297560D01*
X128535856Y-66122623D01*
X128360918Y-66223623D01*
X127964918Y-66223623D01*
X128090446Y-66151150D01*
X127989446Y-65976212D01*
X127814508Y-66077212D01*
X127464515Y-66077212D01*
X127528282Y-66028282D01*
X127624536Y-65902841D01*
X127635152Y-65877212D01*
X128160918Y-65877212D01*
X128261918Y-66052150D01*
X128436856Y-65951150D01*
X128335856Y-65776212D01*
X128160918Y-65877212D01*
X127635152Y-65877212D01*
X127676988Y-65776212D01*
X127683816Y-65759728D01*
X127683817Y-65759724D01*
X127685044Y-65756762D01*
X127705682Y-65600000D01*
X127696572Y-65530802D01*
X127960918Y-65530802D01*
X128061918Y-65705740D01*
X128236856Y-65604740D01*
X128234119Y-65600000D01*
X128594318Y-65600000D01*
X128614956Y-65756762D01*
X128616183Y-65759724D01*
X128616184Y-65759728D01*
X128623012Y-65776212D01*
X128675464Y-65902841D01*
X128771718Y-66028282D01*
X128897159Y-66124536D01*
X128900122Y-66125763D01*
X128900125Y-66125765D01*
X129040272Y-66183816D01*
X129040276Y-66183817D01*
X129043238Y-66185044D01*
X129046419Y-66185463D01*
X129046420Y-66185463D01*
X129196817Y-66205263D01*
X129200000Y-66205682D01*
X129203183Y-66205263D01*
X129353580Y-66185463D01*
X129353581Y-66185463D01*
X129356762Y-66185044D01*
X129359724Y-66183817D01*
X129359728Y-66183816D01*
X129499875Y-66125765D01*
X129499878Y-66125763D01*
X129502841Y-66124536D01*
X129628282Y-66028282D01*
X129724536Y-65902841D01*
X129776988Y-65776212D01*
X129783816Y-65759728D01*
X129783817Y-65759724D01*
X129785044Y-65756762D01*
X129805682Y-65600000D01*
X129785044Y-65443238D01*
X129783817Y-65440276D01*
X129783816Y-65440272D01*
X129725765Y-65300125D01*
X129725763Y-65300122D01*
X129724536Y-65297159D01*
X129634046Y-65179230D01*
X129630238Y-65174267D01*
X129628282Y-65171718D01*
X129520317Y-65088874D01*
X129501565Y-65056396D01*
X129511272Y-65020171D01*
X129520317Y-65011126D01*
X129625733Y-64930238D01*
X129628282Y-64928282D01*
X129656500Y-64891507D01*
X129901222Y-64891507D01*
X129936262Y-64952198D01*
X129936006Y-64852365D01*
X129912782Y-64865773D01*
X129907464Y-64878612D01*
X129906140Y-64881534D01*
X129901222Y-64891507D01*
X129656500Y-64891507D01*
X129724536Y-64802841D01*
X129762197Y-64711920D01*
X129783816Y-64659728D01*
X129783817Y-64659724D01*
X129785044Y-64656762D01*
X129787517Y-64637982D01*
X129805263Y-64503183D01*
X129805682Y-64500000D01*
X129802699Y-64477345D01*
X129785463Y-64346420D01*
X129785463Y-64346419D01*
X129785044Y-64343238D01*
X129783817Y-64340276D01*
X129783816Y-64340272D01*
X129725765Y-64200125D01*
X129725763Y-64200122D01*
X129724536Y-64197159D01*
X129676409Y-64134438D01*
X129630238Y-64074267D01*
X129628282Y-64071718D01*
X129621494Y-64066509D01*
X129514476Y-63984392D01*
X129839379Y-63984392D01*
X129934202Y-64148630D01*
X129933641Y-63929970D01*
X129839379Y-63984392D01*
X129514476Y-63984392D01*
X129505390Y-63977420D01*
X129502841Y-63975464D01*
X129499878Y-63974237D01*
X129499875Y-63974235D01*
X129359728Y-63916184D01*
X129359724Y-63916183D01*
X129356762Y-63914956D01*
X129353581Y-63914537D01*
X129353580Y-63914537D01*
X129203183Y-63894737D01*
X129200000Y-63894318D01*
X129196817Y-63894737D01*
X129046420Y-63914537D01*
X129046419Y-63914537D01*
X129043238Y-63914956D01*
X129040276Y-63916183D01*
X129040272Y-63916184D01*
X128900125Y-63974235D01*
X128900122Y-63974237D01*
X128897159Y-63975464D01*
X128894610Y-63977420D01*
X128778507Y-64066509D01*
X128771718Y-64071718D01*
X128769762Y-64074267D01*
X128723591Y-64134439D01*
X128675464Y-64197159D01*
X128674237Y-64200122D01*
X128674235Y-64200125D01*
X128616184Y-64340272D01*
X128616183Y-64340276D01*
X128614956Y-64343238D01*
X128614537Y-64346419D01*
X128614537Y-64346420D01*
X128597301Y-64477345D01*
X128594318Y-64500000D01*
X128594737Y-64503183D01*
X128612484Y-64637982D01*
X128614956Y-64656762D01*
X128616183Y-64659724D01*
X128616184Y-64659728D01*
X128637803Y-64711920D01*
X128675464Y-64802841D01*
X128771718Y-64928282D01*
X128774267Y-64930238D01*
X128879683Y-65011126D01*
X128898435Y-65043604D01*
X128888728Y-65079829D01*
X128879684Y-65088873D01*
X128771718Y-65171718D01*
X128769762Y-65174267D01*
X128765954Y-65179230D01*
X128675464Y-65297159D01*
X128674237Y-65300122D01*
X128674235Y-65300125D01*
X128616184Y-65440272D01*
X128616183Y-65440276D01*
X128614956Y-65443238D01*
X128594318Y-65600000D01*
X128234119Y-65600000D01*
X128135856Y-65429802D01*
X127960918Y-65530802D01*
X127696572Y-65530802D01*
X127685044Y-65443238D01*
X127683817Y-65440276D01*
X127683816Y-65440272D01*
X127625765Y-65300125D01*
X127625763Y-65300122D01*
X127624536Y-65297159D01*
X127534046Y-65179230D01*
X127530238Y-65174267D01*
X127529822Y-65173725D01*
X127779394Y-65173725D01*
X127781619Y-65176624D01*
X127783486Y-65179230D01*
X127790751Y-65190102D01*
X127792444Y-65192824D01*
X127798840Y-65203901D01*
X127800352Y-65206730D01*
X127806140Y-65218466D01*
X127807464Y-65221387D01*
X127864084Y-65358080D01*
X127911331Y-65330802D01*
X128307329Y-65330802D01*
X128407262Y-65503892D01*
X128418650Y-65417393D01*
X128419172Y-65414230D01*
X128421724Y-65401399D01*
X128422453Y-65398275D01*
X128425764Y-65385919D01*
X128426695Y-65382851D01*
X128430899Y-65370467D01*
X128432028Y-65367466D01*
X128486216Y-65236645D01*
X128482266Y-65229802D01*
X128307329Y-65330802D01*
X127911331Y-65330802D01*
X128036856Y-65258330D01*
X127935856Y-65083392D01*
X127779394Y-65173725D01*
X127529822Y-65173725D01*
X127528282Y-65171718D01*
X127420317Y-65088874D01*
X127401565Y-65056396D01*
X127411272Y-65020171D01*
X127420317Y-65011126D01*
X127455157Y-64984392D01*
X128107329Y-64984392D01*
X128208329Y-65159330D01*
X128383266Y-65058330D01*
X128282266Y-64883392D01*
X128107329Y-64984392D01*
X127455157Y-64984392D01*
X127486861Y-64960065D01*
X127753466Y-64960065D01*
X127836856Y-64911920D01*
X127811709Y-64868364D01*
X127807464Y-64878612D01*
X127806140Y-64881534D01*
X127800352Y-64893270D01*
X127798840Y-64896099D01*
X127792444Y-64907176D01*
X127790751Y-64909898D01*
X127783486Y-64920770D01*
X127781619Y-64923375D01*
X127753466Y-64960065D01*
X127486861Y-64960065D01*
X127525733Y-64930238D01*
X127528282Y-64928282D01*
X127624536Y-64802841D01*
X127662197Y-64711920D01*
X127683816Y-64659728D01*
X127683817Y-64659724D01*
X127685044Y-64656762D01*
X127687517Y-64637982D01*
X127907329Y-64637982D01*
X128008329Y-64812920D01*
X128183266Y-64711920D01*
X128082266Y-64536982D01*
X127907329Y-64637982D01*
X127687517Y-64637982D01*
X127705263Y-64503183D01*
X127705682Y-64500000D01*
X127702699Y-64477345D01*
X127697517Y-64437982D01*
X128253739Y-64437982D01*
X128354739Y-64612920D01*
X128405609Y-64583550D01*
X128398012Y-64525844D01*
X128397698Y-64522655D01*
X128396842Y-64509602D01*
X128396737Y-64506396D01*
X128396737Y-64493604D01*
X128396842Y-64490398D01*
X128397698Y-64477345D01*
X128398012Y-64474155D01*
X128415034Y-64344858D01*
X128253739Y-64437982D01*
X127697517Y-64437982D01*
X127685463Y-64346420D01*
X127685463Y-64346419D01*
X127685044Y-64343238D01*
X127683817Y-64340276D01*
X127683816Y-64340272D01*
X127630714Y-64212072D01*
X127845027Y-64212072D01*
X127867972Y-64267466D01*
X127869101Y-64270467D01*
X127873305Y-64282851D01*
X127874236Y-64285919D01*
X127877547Y-64298275D01*
X127878276Y-64301399D01*
X127880828Y-64314230D01*
X127881350Y-64317393D01*
X127894436Y-64416795D01*
X127983266Y-64365509D01*
X127882266Y-64190572D01*
X127845027Y-64212072D01*
X127630714Y-64212072D01*
X127625765Y-64200125D01*
X127625763Y-64200122D01*
X127624536Y-64197159D01*
X127576409Y-64134438D01*
X127543517Y-64091572D01*
X128053739Y-64091572D01*
X128154739Y-64266509D01*
X128329676Y-64165509D01*
X128228676Y-63990572D01*
X128053739Y-64091572D01*
X127543517Y-64091572D01*
X127530238Y-64074267D01*
X127528282Y-64071718D01*
X127521494Y-64066509D01*
X127405390Y-63977420D01*
X127402841Y-63975464D01*
X127399878Y-63974237D01*
X127399875Y-63974235D01*
X127259728Y-63916184D01*
X127259724Y-63916183D01*
X127256762Y-63914956D01*
X127253581Y-63914537D01*
X127253580Y-63914537D01*
X127103183Y-63894737D01*
X127100000Y-63894318D01*
X127096817Y-63894737D01*
X126946420Y-63914537D01*
X126946419Y-63914537D01*
X126943238Y-63914956D01*
X126940276Y-63916183D01*
X126940272Y-63916184D01*
X126800125Y-63974235D01*
X126800122Y-63974237D01*
X126797159Y-63975464D01*
X126794610Y-63977420D01*
X126678507Y-64066509D01*
X126671718Y-64071718D01*
X126669762Y-64074267D01*
X126623591Y-64134439D01*
X126575464Y-64197159D01*
X126574237Y-64200122D01*
X126574235Y-64200125D01*
X126516184Y-64340272D01*
X126516183Y-64340276D01*
X126514956Y-64343238D01*
X126514537Y-64346419D01*
X126514537Y-64346420D01*
X126497301Y-64477345D01*
X126494318Y-64500000D01*
X126494737Y-64503183D01*
X126512484Y-64637982D01*
X126514956Y-64656762D01*
X126516183Y-64659724D01*
X126516184Y-64659728D01*
X126537803Y-64711920D01*
X126575464Y-64802841D01*
X126671718Y-64928282D01*
X126674267Y-64930238D01*
X126779683Y-65011126D01*
X126798435Y-65043604D01*
X126788728Y-65079829D01*
X126779684Y-65088873D01*
X126671718Y-65171718D01*
X126669762Y-65174267D01*
X126665954Y-65179230D01*
X126575464Y-65297159D01*
X126574237Y-65300122D01*
X126574235Y-65300125D01*
X126516184Y-65440272D01*
X126516183Y-65440276D01*
X126514956Y-65443238D01*
X126494318Y-65600000D01*
X126250000Y-65600000D01*
X126250000Y-63885441D01*
X127610769Y-63885441D01*
X127648816Y-63914635D01*
X127651293Y-63916667D01*
X127661128Y-63925291D01*
X127663470Y-63927485D01*
X127672515Y-63936530D01*
X127674709Y-63938872D01*
X127683333Y-63948707D01*
X127685365Y-63951184D01*
X127751535Y-64037419D01*
X127783266Y-64019099D01*
X127682266Y-63844162D01*
X127610769Y-63885441D01*
X126250000Y-63885441D01*
X126250000Y-63798686D01*
X126499000Y-63798686D01*
X126515508Y-63827279D01*
X126690446Y-63726279D01*
X126589446Y-63551341D01*
X126499000Y-63603560D01*
X126499000Y-63798686D01*
X126250000Y-63798686D01*
X126250000Y-63452341D01*
X126760918Y-63452341D01*
X126861918Y-63627279D01*
X126911330Y-63598751D01*
X127307329Y-63598751D01*
X127400540Y-63760197D01*
X127418682Y-63767712D01*
X127457740Y-63745162D01*
X127853739Y-63745162D01*
X127954739Y-63920099D01*
X128004149Y-63891572D01*
X128400149Y-63891572D01*
X128501149Y-64066509D01*
X128546023Y-64040601D01*
X128614635Y-63951184D01*
X128616667Y-63948707D01*
X128625291Y-63938872D01*
X128627485Y-63936530D01*
X128636530Y-63927485D01*
X128638872Y-63925291D01*
X128648163Y-63917144D01*
X128575087Y-63790572D01*
X128400149Y-63891572D01*
X128004149Y-63891572D01*
X128129676Y-63819099D01*
X128028676Y-63644162D01*
X127853739Y-63745162D01*
X127457740Y-63745162D01*
X127583266Y-63672689D01*
X127482266Y-63497751D01*
X127307329Y-63598751D01*
X126911330Y-63598751D01*
X127036856Y-63526279D01*
X126935856Y-63351341D01*
X126760918Y-63452341D01*
X126250000Y-63452341D01*
X126250000Y-63105931D01*
X126560918Y-63105931D01*
X126661918Y-63280869D01*
X126711330Y-63252341D01*
X127107329Y-63252341D01*
X127208329Y-63427279D01*
X127257741Y-63398751D01*
X127653739Y-63398751D01*
X127754739Y-63573689D01*
X127804149Y-63545162D01*
X128200149Y-63545162D01*
X128301149Y-63720099D01*
X128350559Y-63691572D01*
X128746559Y-63691572D01*
X128808463Y-63798793D01*
X128818466Y-63793860D01*
X128821387Y-63792536D01*
X128967466Y-63732028D01*
X128970467Y-63730899D01*
X128982851Y-63726695D01*
X128985919Y-63725764D01*
X128997724Y-63722601D01*
X128921497Y-63590572D01*
X128746559Y-63691572D01*
X128350559Y-63691572D01*
X128476087Y-63619099D01*
X128375087Y-63444162D01*
X128200149Y-63545162D01*
X127804149Y-63545162D01*
X127929676Y-63472689D01*
X127828676Y-63297751D01*
X127653739Y-63398751D01*
X127257741Y-63398751D01*
X127383266Y-63326279D01*
X127282266Y-63151341D01*
X127107329Y-63252341D01*
X126711330Y-63252341D01*
X126836856Y-63179869D01*
X126735856Y-63004931D01*
X126560918Y-63105931D01*
X126250000Y-63105931D01*
X126250000Y-62913050D01*
X126499000Y-62913050D01*
X126511331Y-62905931D01*
X126907329Y-62905931D01*
X127008329Y-63080869D01*
X127057741Y-63052341D01*
X127453739Y-63052341D01*
X127554739Y-63227279D01*
X127604151Y-63198751D01*
X128000149Y-63198751D01*
X128101149Y-63373689D01*
X128150559Y-63345162D01*
X128546559Y-63345162D01*
X128647559Y-63520099D01*
X128696969Y-63491572D01*
X129092969Y-63491572D01*
X129193969Y-63666509D01*
X129243379Y-63637982D01*
X129639379Y-63637982D01*
X129740379Y-63812920D01*
X129915317Y-63711920D01*
X129814317Y-63536982D01*
X129639379Y-63637982D01*
X129243379Y-63637982D01*
X129368907Y-63565509D01*
X129267907Y-63390572D01*
X129092969Y-63491572D01*
X128696969Y-63491572D01*
X128822497Y-63419099D01*
X128721497Y-63244162D01*
X128546559Y-63345162D01*
X128150559Y-63345162D01*
X128276087Y-63272689D01*
X128175087Y-63097751D01*
X128000149Y-63198751D01*
X127604151Y-63198751D01*
X127729676Y-63126279D01*
X127628676Y-62951341D01*
X127453739Y-63052341D01*
X127057741Y-63052341D01*
X127183266Y-62979869D01*
X127082266Y-62804931D01*
X126907329Y-62905931D01*
X126511331Y-62905931D01*
X126636856Y-62833459D01*
X126535856Y-62658521D01*
X126499000Y-62679799D01*
X126499000Y-62913050D01*
X126250000Y-62913050D01*
X126250000Y-62559521D01*
X126707329Y-62559521D01*
X126808329Y-62734459D01*
X126857741Y-62705931D01*
X127253739Y-62705931D01*
X127354739Y-62880869D01*
X127404151Y-62852341D01*
X127800149Y-62852341D01*
X127901149Y-63027279D01*
X127950561Y-62998751D01*
X128346559Y-62998751D01*
X128447559Y-63173689D01*
X128496969Y-63145162D01*
X128892969Y-63145162D01*
X128993969Y-63320099D01*
X129043379Y-63291572D01*
X129439379Y-63291572D01*
X129540379Y-63466509D01*
X129715317Y-63365509D01*
X129614317Y-63190572D01*
X129439379Y-63291572D01*
X129043379Y-63291572D01*
X129168907Y-63219099D01*
X129067907Y-63044162D01*
X128892969Y-63145162D01*
X128496969Y-63145162D01*
X128622497Y-63072689D01*
X128521497Y-62897751D01*
X128346559Y-62998751D01*
X127950561Y-62998751D01*
X128076087Y-62926279D01*
X127975087Y-62751341D01*
X127800149Y-62852341D01*
X127404151Y-62852341D01*
X127529676Y-62779869D01*
X127428676Y-62604931D01*
X127253739Y-62705931D01*
X126857741Y-62705931D01*
X126983266Y-62633459D01*
X126882266Y-62458521D01*
X126707329Y-62559521D01*
X126250000Y-62559521D01*
X126250000Y-62213111D01*
X126507329Y-62213111D01*
X126608329Y-62388048D01*
X126657739Y-62359521D01*
X127053739Y-62359521D01*
X127154739Y-62534459D01*
X127204151Y-62505931D01*
X127600149Y-62505931D01*
X127701149Y-62680869D01*
X127750561Y-62652341D01*
X128146559Y-62652341D01*
X128247559Y-62827279D01*
X128296971Y-62798751D01*
X128692969Y-62798751D01*
X128793969Y-62973689D01*
X128843379Y-62945162D01*
X129239379Y-62945162D01*
X129340379Y-63120099D01*
X129389789Y-63091572D01*
X129785790Y-63091572D01*
X129886790Y-63266509D01*
X129931872Y-63240481D01*
X129931276Y-63007576D01*
X129785790Y-63091572D01*
X129389789Y-63091572D01*
X129515317Y-63019099D01*
X129414317Y-62844162D01*
X129239379Y-62945162D01*
X128843379Y-62945162D01*
X128968907Y-62872689D01*
X128867907Y-62697751D01*
X128692969Y-62798751D01*
X128296971Y-62798751D01*
X128422497Y-62726279D01*
X128321497Y-62551341D01*
X128146559Y-62652341D01*
X127750561Y-62652341D01*
X127876087Y-62579869D01*
X127775087Y-62404931D01*
X127600149Y-62505931D01*
X127204151Y-62505931D01*
X127329676Y-62433459D01*
X127244735Y-62286336D01*
X127161525Y-62297291D01*
X127053739Y-62359521D01*
X126657739Y-62359521D01*
X126783266Y-62287048D01*
X126747119Y-62224440D01*
X127437630Y-62224440D01*
X127501149Y-62334459D01*
X127550561Y-62305931D01*
X127946559Y-62305931D01*
X128047559Y-62480869D01*
X128096971Y-62452341D01*
X128492969Y-62452341D01*
X128593969Y-62627279D01*
X128643381Y-62598751D01*
X129039379Y-62598751D01*
X129140379Y-62773689D01*
X129189789Y-62745162D01*
X129585790Y-62745162D01*
X129686790Y-62920099D01*
X129861727Y-62819099D01*
X129760727Y-62644162D01*
X129585790Y-62745162D01*
X129189789Y-62745162D01*
X129315317Y-62672689D01*
X129214317Y-62497751D01*
X129039379Y-62598751D01*
X128643381Y-62598751D01*
X128768907Y-62526279D01*
X128667907Y-62351341D01*
X128492969Y-62452341D01*
X128096971Y-62452341D01*
X128222497Y-62379869D01*
X128121497Y-62204931D01*
X127946559Y-62305931D01*
X127550561Y-62305931D01*
X127676087Y-62233459D01*
X127608462Y-62116329D01*
X127523375Y-62181619D01*
X127520770Y-62183486D01*
X127509898Y-62190751D01*
X127507176Y-62192444D01*
X127496099Y-62198840D01*
X127493270Y-62200352D01*
X127481534Y-62206140D01*
X127478613Y-62207464D01*
X127437630Y-62224440D01*
X126747119Y-62224440D01*
X126742325Y-62216137D01*
X126721388Y-62207464D01*
X126718466Y-62206140D01*
X126706730Y-62200352D01*
X126703901Y-62198840D01*
X126692824Y-62192444D01*
X126690102Y-62190751D01*
X126679230Y-62183486D01*
X126676625Y-62181619D01*
X126627356Y-62143813D01*
X126507329Y-62213111D01*
X126250000Y-62213111D01*
X126250000Y-61500000D01*
X126494318Y-61500000D01*
X126514956Y-61656762D01*
X126516183Y-61659724D01*
X126516184Y-61659728D01*
X126557520Y-61759521D01*
X126575464Y-61802841D01*
X126671718Y-61928282D01*
X126797159Y-62024536D01*
X126800122Y-62025763D01*
X126800125Y-62025765D01*
X126940272Y-62083816D01*
X126940276Y-62083817D01*
X126943238Y-62085044D01*
X126946419Y-62085463D01*
X126946420Y-62085463D01*
X127096817Y-62105263D01*
X127100000Y-62105682D01*
X127103183Y-62105263D01*
X127253580Y-62085463D01*
X127253581Y-62085463D01*
X127256762Y-62085044D01*
X127259724Y-62083817D01*
X127259728Y-62083816D01*
X127399875Y-62025765D01*
X127399878Y-62025763D01*
X127402841Y-62024536D01*
X127480472Y-61964968D01*
X127749703Y-61964968D01*
X127847559Y-62134459D01*
X127896971Y-62105931D01*
X128292969Y-62105931D01*
X128393969Y-62280869D01*
X128443381Y-62252341D01*
X128839379Y-62252341D01*
X128940379Y-62427279D01*
X128989791Y-62398751D01*
X129385790Y-62398751D01*
X129486790Y-62573689D01*
X129661727Y-62472689D01*
X129560727Y-62297751D01*
X129385790Y-62398751D01*
X128989791Y-62398751D01*
X129115317Y-62326279D01*
X129095299Y-62291606D01*
X129017393Y-62281350D01*
X129014230Y-62280828D01*
X129001399Y-62278276D01*
X128998275Y-62277547D01*
X128985919Y-62274236D01*
X128982851Y-62273305D01*
X128970467Y-62269101D01*
X128967467Y-62267972D01*
X128877122Y-62230550D01*
X128839379Y-62252341D01*
X128443381Y-62252341D01*
X128536202Y-62198751D01*
X129732200Y-62198751D01*
X129833200Y-62373689D01*
X129929507Y-62318086D01*
X129929039Y-62135688D01*
X129907137Y-62097751D01*
X129732200Y-62198751D01*
X128536202Y-62198751D01*
X128568907Y-62179869D01*
X128467907Y-62004931D01*
X128292969Y-62105931D01*
X127896971Y-62105931D01*
X128022497Y-62033459D01*
X127921497Y-61858521D01*
X127759708Y-61951929D01*
X127749703Y-61964968D01*
X127480472Y-61964968D01*
X127528282Y-61928282D01*
X127624536Y-61802841D01*
X127642480Y-61759521D01*
X128092969Y-61759521D01*
X128193969Y-61934459D01*
X128368907Y-61833459D01*
X128267907Y-61658521D01*
X128092969Y-61759521D01*
X127642480Y-61759521D01*
X127683816Y-61659728D01*
X127683817Y-61659724D01*
X127685044Y-61656762D01*
X127705682Y-61500000D01*
X127694174Y-61412584D01*
X127893882Y-61412584D01*
X127894242Y-61415316D01*
X127993969Y-61588048D01*
X128146473Y-61500000D01*
X128594318Y-61500000D01*
X128614956Y-61656762D01*
X128616183Y-61659724D01*
X128616184Y-61659728D01*
X128657520Y-61759521D01*
X128675464Y-61802841D01*
X128771718Y-61928282D01*
X128897159Y-62024536D01*
X128900122Y-62025763D01*
X128900125Y-62025765D01*
X129040272Y-62083816D01*
X129040276Y-62083817D01*
X129043238Y-62085044D01*
X129046419Y-62085463D01*
X129046420Y-62085463D01*
X129196817Y-62105263D01*
X129200000Y-62105682D01*
X129203183Y-62105263D01*
X129353580Y-62085463D01*
X129353581Y-62085463D01*
X129356762Y-62085044D01*
X129359724Y-62083817D01*
X129359728Y-62083816D01*
X129499875Y-62025765D01*
X129499878Y-62025763D01*
X129502841Y-62024536D01*
X129628282Y-61928282D01*
X129724536Y-61802841D01*
X129742480Y-61759521D01*
X129783816Y-61659728D01*
X129783817Y-61659724D01*
X129785044Y-61656762D01*
X129805682Y-61500000D01*
X129785044Y-61343238D01*
X129783817Y-61340276D01*
X129783816Y-61340272D01*
X129725765Y-61200125D01*
X129725763Y-61200122D01*
X129724536Y-61197159D01*
X129628282Y-61071718D01*
X129520317Y-60988874D01*
X129501565Y-60956396D01*
X129511272Y-60920171D01*
X129520317Y-60911126D01*
X129615552Y-60838050D01*
X129870358Y-60838050D01*
X129925960Y-60934355D01*
X129925449Y-60735193D01*
X129907464Y-60778613D01*
X129906140Y-60781534D01*
X129900352Y-60793270D01*
X129898840Y-60796099D01*
X129892444Y-60807176D01*
X129890751Y-60809898D01*
X129883486Y-60820770D01*
X129881619Y-60823375D01*
X129870358Y-60838050D01*
X129615552Y-60838050D01*
X129625733Y-60830238D01*
X129628282Y-60828282D01*
X129724536Y-60702841D01*
X129725765Y-60699875D01*
X129783816Y-60559728D01*
X129783817Y-60559724D01*
X129785044Y-60556762D01*
X129802280Y-60425845D01*
X129805263Y-60403183D01*
X129805682Y-60400000D01*
X129802699Y-60377345D01*
X129785463Y-60246420D01*
X129785463Y-60246419D01*
X129785044Y-60243238D01*
X129783817Y-60240276D01*
X129783816Y-60240272D01*
X129725765Y-60100125D01*
X129725763Y-60100122D01*
X129724536Y-60097159D01*
X129628282Y-59971718D01*
X129502841Y-59875464D01*
X129499878Y-59874237D01*
X129499875Y-59874235D01*
X129456726Y-59856362D01*
X129789338Y-59856362D01*
X129881619Y-59976625D01*
X129883486Y-59979230D01*
X129890751Y-59990102D01*
X129892444Y-59992824D01*
X129898840Y-60003901D01*
X129900352Y-60006730D01*
X129906140Y-60018466D01*
X129907464Y-60021388D01*
X129907472Y-60021407D01*
X129923595Y-60012098D01*
X129922998Y-59779194D01*
X129789338Y-59856362D01*
X129456726Y-59856362D01*
X129359728Y-59816184D01*
X129359724Y-59816183D01*
X129356762Y-59814956D01*
X129353581Y-59814537D01*
X129353580Y-59814537D01*
X129203183Y-59794737D01*
X129200000Y-59794318D01*
X129196817Y-59794737D01*
X129046420Y-59814537D01*
X129046419Y-59814537D01*
X129043238Y-59814956D01*
X129040276Y-59816183D01*
X129040272Y-59816184D01*
X128900125Y-59874235D01*
X128900122Y-59874237D01*
X128897159Y-59875464D01*
X128771718Y-59971718D01*
X128675464Y-60097159D01*
X128674237Y-60100122D01*
X128674235Y-60100125D01*
X128616184Y-60240272D01*
X128616183Y-60240276D01*
X128614956Y-60243238D01*
X128614537Y-60246419D01*
X128614537Y-60246420D01*
X128597301Y-60377345D01*
X128594318Y-60400000D01*
X128594737Y-60403183D01*
X128597721Y-60425845D01*
X128614956Y-60556762D01*
X128616183Y-60559724D01*
X128616184Y-60559728D01*
X128674235Y-60699875D01*
X128675464Y-60702841D01*
X128771718Y-60828282D01*
X128774267Y-60830238D01*
X128879683Y-60911126D01*
X128898435Y-60943604D01*
X128888728Y-60979829D01*
X128879684Y-60988873D01*
X128771718Y-61071718D01*
X128675464Y-61197159D01*
X128674237Y-61200122D01*
X128674235Y-61200125D01*
X128616184Y-61340272D01*
X128616183Y-61340276D01*
X128614956Y-61343238D01*
X128594318Y-61500000D01*
X128146473Y-61500000D01*
X128168907Y-61487048D01*
X128067907Y-61312111D01*
X127893882Y-61412584D01*
X127694174Y-61412584D01*
X127685044Y-61343238D01*
X127683817Y-61340276D01*
X127683816Y-61340272D01*
X127631144Y-61213111D01*
X128239379Y-61213111D01*
X128340379Y-61388048D01*
X128415022Y-61344953D01*
X128418650Y-61317394D01*
X128419172Y-61314230D01*
X128421724Y-61301399D01*
X128422453Y-61298275D01*
X128425764Y-61285919D01*
X128426695Y-61282851D01*
X128430899Y-61270467D01*
X128432028Y-61267467D01*
X128462098Y-61194870D01*
X128414317Y-61112111D01*
X128239379Y-61213111D01*
X127631144Y-61213111D01*
X127625765Y-61200125D01*
X127625763Y-61200122D01*
X127624536Y-61197159D01*
X127528282Y-61071718D01*
X127479490Y-61034279D01*
X127749126Y-61034279D01*
X127781619Y-61076625D01*
X127783486Y-61079230D01*
X127790751Y-61090102D01*
X127792444Y-61092824D01*
X127798840Y-61103901D01*
X127800352Y-61106730D01*
X127806140Y-61118466D01*
X127807464Y-61121388D01*
X127845056Y-61212143D01*
X127968907Y-61140638D01*
X127867907Y-60965701D01*
X127749126Y-61034279D01*
X127479490Y-61034279D01*
X127420317Y-60988874D01*
X127401565Y-60956396D01*
X127411272Y-60920171D01*
X127420317Y-60911126D01*
X127478213Y-60866701D01*
X128039379Y-60866701D01*
X128140379Y-61041638D01*
X128315317Y-60940638D01*
X128214317Y-60765701D01*
X128039379Y-60866701D01*
X127478213Y-60866701D01*
X127525733Y-60830238D01*
X127528282Y-60828282D01*
X127624536Y-60702841D01*
X127625765Y-60699875D01*
X127671084Y-60590465D01*
X127879894Y-60590465D01*
X127940379Y-60695228D01*
X127989789Y-60666701D01*
X128385790Y-60666701D01*
X128486790Y-60841638D01*
X128518394Y-60823392D01*
X128518381Y-60823375D01*
X128516514Y-60820770D01*
X128509249Y-60809898D01*
X128507556Y-60807176D01*
X128501160Y-60796099D01*
X128499648Y-60793270D01*
X128493860Y-60781534D01*
X128492536Y-60778613D01*
X128434526Y-60638564D01*
X128385790Y-60666701D01*
X127989789Y-60666701D01*
X128115317Y-60594228D01*
X128014317Y-60419290D01*
X127893682Y-60488939D01*
X127881350Y-60582607D01*
X127880828Y-60585770D01*
X127879894Y-60590465D01*
X127671084Y-60590465D01*
X127683816Y-60559728D01*
X127683817Y-60559724D01*
X127685044Y-60556762D01*
X127702280Y-60425845D01*
X127705263Y-60403183D01*
X127705682Y-60400000D01*
X127702699Y-60377345D01*
X127695188Y-60320290D01*
X128185790Y-60320290D01*
X128286790Y-60495228D01*
X128398644Y-60430649D01*
X128398012Y-60425845D01*
X128397698Y-60422655D01*
X128396842Y-60409602D01*
X128396737Y-60406396D01*
X128396737Y-60393604D01*
X128396842Y-60390398D01*
X128397698Y-60377345D01*
X128398012Y-60374155D01*
X128407691Y-60300635D01*
X128360727Y-60219290D01*
X128185790Y-60320290D01*
X127695188Y-60320290D01*
X127685463Y-60246420D01*
X127685463Y-60246419D01*
X127685044Y-60243238D01*
X127683817Y-60240276D01*
X127683816Y-60240272D01*
X127651235Y-60161616D01*
X127865548Y-60161616D01*
X127867972Y-60167467D01*
X127869101Y-60170467D01*
X127873305Y-60182851D01*
X127874236Y-60185919D01*
X127877547Y-60198275D01*
X127878276Y-60201399D01*
X127880828Y-60214230D01*
X127881350Y-60217393D01*
X127887472Y-60263894D01*
X127915317Y-60247818D01*
X127865548Y-60161616D01*
X127651235Y-60161616D01*
X127625765Y-60100125D01*
X127625763Y-60100122D01*
X127624536Y-60097159D01*
X127529941Y-59973880D01*
X127985790Y-59973880D01*
X128086790Y-60148818D01*
X128261727Y-60047818D01*
X128160727Y-59872880D01*
X127985790Y-59973880D01*
X127529941Y-59973880D01*
X127528282Y-59971718D01*
X127402841Y-59875464D01*
X127399878Y-59874237D01*
X127399875Y-59874235D01*
X127259728Y-59816184D01*
X127259724Y-59816183D01*
X127256762Y-59814956D01*
X127253581Y-59814537D01*
X127253580Y-59814537D01*
X127103183Y-59794737D01*
X127100000Y-59794318D01*
X127096817Y-59794737D01*
X126946420Y-59814537D01*
X126946419Y-59814537D01*
X126943238Y-59814956D01*
X126940276Y-59816183D01*
X126940272Y-59816184D01*
X126800125Y-59874235D01*
X126800122Y-59874237D01*
X126797159Y-59875464D01*
X126671718Y-59971718D01*
X126575464Y-60097159D01*
X126574237Y-60100122D01*
X126574235Y-60100125D01*
X126516184Y-60240272D01*
X126516183Y-60240276D01*
X126514956Y-60243238D01*
X126514537Y-60246419D01*
X126514537Y-60246420D01*
X126497301Y-60377345D01*
X126494318Y-60400000D01*
X126494737Y-60403183D01*
X126497721Y-60425845D01*
X126514956Y-60556762D01*
X126516183Y-60559724D01*
X126516184Y-60559728D01*
X126574235Y-60699875D01*
X126575464Y-60702841D01*
X126671718Y-60828282D01*
X126674267Y-60830238D01*
X126779683Y-60911126D01*
X126798435Y-60943604D01*
X126788728Y-60979829D01*
X126779684Y-60988873D01*
X126671718Y-61071718D01*
X126575464Y-61197159D01*
X126574237Y-61200122D01*
X126574235Y-61200125D01*
X126516184Y-61340272D01*
X126516183Y-61340276D01*
X126514956Y-61343238D01*
X126494318Y-61500000D01*
X126250000Y-61500000D01*
X126250000Y-59752959D01*
X127568437Y-59752959D01*
X127648816Y-59814635D01*
X127651293Y-59816667D01*
X127661128Y-59825291D01*
X127663470Y-59827485D01*
X127672515Y-59836530D01*
X127674709Y-59838872D01*
X127683333Y-59848707D01*
X127685365Y-59851184D01*
X127689224Y-59856213D01*
X127614317Y-59726470D01*
X127568437Y-59752959D01*
X126250000Y-59752959D01*
X126250000Y-59679888D01*
X126499000Y-59679888D01*
X126622497Y-59608587D01*
X126521497Y-59433650D01*
X126499000Y-59446638D01*
X126499000Y-59679888D01*
X126250000Y-59679888D01*
X126250000Y-59334650D01*
X126692969Y-59334650D01*
X126793969Y-59509587D01*
X126843379Y-59481060D01*
X127239379Y-59481060D01*
X127325000Y-59629360D01*
X127329533Y-59630899D01*
X127332534Y-59632028D01*
X127361276Y-59643934D01*
X127389792Y-59627470D01*
X127785790Y-59627470D01*
X127886790Y-59802408D01*
X127936202Y-59773880D01*
X128332200Y-59773880D01*
X128433200Y-59948818D01*
X128608138Y-59847818D01*
X128507137Y-59672880D01*
X128332200Y-59773880D01*
X127936202Y-59773880D01*
X128061727Y-59701408D01*
X127960727Y-59526470D01*
X127785790Y-59627470D01*
X127389792Y-59627470D01*
X127515317Y-59554998D01*
X127414317Y-59380060D01*
X127239379Y-59481060D01*
X126843379Y-59481060D01*
X126968907Y-59408587D01*
X126867907Y-59233650D01*
X126692969Y-59334650D01*
X126250000Y-59334650D01*
X126250000Y-58998686D01*
X126499000Y-58998686D01*
X126593969Y-59163177D01*
X126643379Y-59134650D01*
X127039379Y-59134650D01*
X127140379Y-59309587D01*
X127189789Y-59281060D01*
X127585790Y-59281060D01*
X127686790Y-59455998D01*
X127736202Y-59427470D01*
X128132200Y-59427470D01*
X128233200Y-59602408D01*
X128282612Y-59573880D01*
X128678610Y-59573880D01*
X128766516Y-59726138D01*
X128776625Y-59718381D01*
X128779230Y-59716514D01*
X128790102Y-59709249D01*
X128792824Y-59707556D01*
X128803901Y-59701160D01*
X128806730Y-59699648D01*
X128818466Y-59693860D01*
X128821387Y-59692536D01*
X128949683Y-59639394D01*
X128853547Y-59472880D01*
X128678610Y-59573880D01*
X128282612Y-59573880D01*
X128408137Y-59501408D01*
X128307137Y-59326470D01*
X128132200Y-59427470D01*
X127736202Y-59427470D01*
X127861727Y-59354998D01*
X127760727Y-59180060D01*
X127585790Y-59281060D01*
X127189789Y-59281060D01*
X127315317Y-59208587D01*
X127214317Y-59033650D01*
X127039379Y-59134650D01*
X126643379Y-59134650D01*
X126768907Y-59062177D01*
X126667907Y-58887240D01*
X126499000Y-58984758D01*
X126499000Y-58998686D01*
X126250000Y-58998686D01*
X126250000Y-58788240D01*
X126839379Y-58788240D01*
X126940379Y-58963177D01*
X126989789Y-58934650D01*
X127385790Y-58934650D01*
X127486790Y-59109587D01*
X127536200Y-59081060D01*
X127932200Y-59081060D01*
X128033200Y-59255998D01*
X128082612Y-59227470D01*
X128478610Y-59227470D01*
X128579610Y-59402408D01*
X128629022Y-59373880D01*
X129025020Y-59373880D01*
X129126020Y-59548818D01*
X129175432Y-59520290D01*
X129571430Y-59520290D01*
X129672430Y-59695228D01*
X129847368Y-59594228D01*
X129746368Y-59419290D01*
X129571430Y-59520290D01*
X129175432Y-59520290D01*
X129300958Y-59447818D01*
X129199958Y-59272880D01*
X129025020Y-59373880D01*
X128629022Y-59373880D01*
X128754547Y-59301408D01*
X128653547Y-59126470D01*
X128478610Y-59227470D01*
X128082612Y-59227470D01*
X128208137Y-59154998D01*
X128107137Y-58980060D01*
X127932200Y-59081060D01*
X127536200Y-59081060D01*
X127661727Y-59008587D01*
X127560727Y-58833650D01*
X127385790Y-58934650D01*
X126989789Y-58934650D01*
X127115317Y-58862177D01*
X127014317Y-58687240D01*
X126839379Y-58788240D01*
X126250000Y-58788240D01*
X126250000Y-58594684D01*
X126499000Y-58594684D01*
X126499000Y-58756128D01*
X126568907Y-58715767D01*
X126499000Y-58594684D01*
X126250000Y-58594684D01*
X126250000Y-58441829D01*
X126639379Y-58441829D01*
X126740379Y-58616767D01*
X126789789Y-58588240D01*
X127185790Y-58588240D01*
X127286790Y-58763177D01*
X127336200Y-58734650D01*
X127732200Y-58734650D01*
X127833200Y-58909587D01*
X127882610Y-58881060D01*
X128278610Y-58881060D01*
X128379610Y-59055998D01*
X128429022Y-59027470D01*
X128825020Y-59027470D01*
X128926020Y-59202408D01*
X128975432Y-59173880D01*
X129371430Y-59173880D01*
X129472430Y-59348818D01*
X129647368Y-59247818D01*
X129546368Y-59072880D01*
X129371430Y-59173880D01*
X128975432Y-59173880D01*
X129100958Y-59101408D01*
X128999958Y-58926470D01*
X128825020Y-59027470D01*
X128429022Y-59027470D01*
X128554547Y-58954998D01*
X128453547Y-58780060D01*
X128278610Y-58881060D01*
X127882610Y-58881060D01*
X128008137Y-58808587D01*
X127907137Y-58633650D01*
X127732200Y-58734650D01*
X127336200Y-58734650D01*
X127461727Y-58662177D01*
X127360727Y-58487240D01*
X127185790Y-58588240D01*
X126789789Y-58588240D01*
X126915317Y-58515767D01*
X126814317Y-58340829D01*
X126639379Y-58441829D01*
X126250000Y-58441829D01*
X126250000Y-58198686D01*
X126499000Y-58198686D01*
X126540379Y-58270357D01*
X126589791Y-58241829D01*
X126985790Y-58241829D01*
X127086790Y-58416767D01*
X127136200Y-58388240D01*
X127532200Y-58388240D01*
X127633200Y-58563177D01*
X127682610Y-58534650D01*
X128078610Y-58534650D01*
X128179610Y-58709587D01*
X128229020Y-58681060D01*
X128625020Y-58681060D01*
X128726020Y-58855998D01*
X128775432Y-58827470D01*
X129171430Y-58827470D01*
X129272430Y-59002408D01*
X129321842Y-58973880D01*
X129717840Y-58973880D01*
X129818840Y-59148818D01*
X129921229Y-59089704D01*
X129920798Y-58921413D01*
X129892778Y-58872880D01*
X129717840Y-58973880D01*
X129321842Y-58973880D01*
X129447368Y-58901408D01*
X129346368Y-58726470D01*
X129171430Y-58827470D01*
X128775432Y-58827470D01*
X128900958Y-58754998D01*
X128799958Y-58580060D01*
X128625020Y-58681060D01*
X128229020Y-58681060D01*
X128354547Y-58608587D01*
X128253547Y-58433650D01*
X128078610Y-58534650D01*
X127682610Y-58534650D01*
X127808137Y-58462177D01*
X127707137Y-58287240D01*
X127532200Y-58388240D01*
X127136200Y-58388240D01*
X127261727Y-58315767D01*
X127160727Y-58140829D01*
X126985790Y-58241829D01*
X126589791Y-58241829D01*
X126715317Y-58169357D01*
X126614317Y-57994419D01*
X126499000Y-58060997D01*
X126499000Y-58198686D01*
X126250000Y-58198686D01*
X126250000Y-57895419D01*
X126785790Y-57895419D01*
X126886790Y-58070357D01*
X126936202Y-58041829D01*
X127332200Y-58041829D01*
X127433200Y-58216767D01*
X127482610Y-58188240D01*
X127878610Y-58188240D01*
X127979610Y-58363177D01*
X128029020Y-58334650D01*
X128425020Y-58334650D01*
X128526020Y-58509587D01*
X128575430Y-58481060D01*
X128971430Y-58481060D01*
X129072430Y-58655998D01*
X129121842Y-58627470D01*
X129517840Y-58627470D01*
X129618840Y-58802408D01*
X129793778Y-58701408D01*
X129692778Y-58526470D01*
X129517840Y-58627470D01*
X129121842Y-58627470D01*
X129247368Y-58554998D01*
X129146368Y-58380060D01*
X128971430Y-58481060D01*
X128575430Y-58481060D01*
X128700958Y-58408587D01*
X128599958Y-58233650D01*
X128425020Y-58334650D01*
X128029020Y-58334650D01*
X128154547Y-58262177D01*
X128053547Y-58087240D01*
X127878610Y-58188240D01*
X127482610Y-58188240D01*
X127608137Y-58115767D01*
X127507137Y-57940829D01*
X127332200Y-58041829D01*
X126936202Y-58041829D01*
X127061727Y-57969357D01*
X126960727Y-57794419D01*
X126785790Y-57895419D01*
X126250000Y-57895419D01*
X126250000Y-57790777D01*
X127187255Y-57790777D01*
X127233200Y-57870357D01*
X127282612Y-57841829D01*
X127678610Y-57841829D01*
X127779610Y-58016767D01*
X127829020Y-57988240D01*
X128225020Y-57988240D01*
X128326020Y-58163177D01*
X128375430Y-58134650D01*
X128771430Y-58134650D01*
X128872430Y-58309587D01*
X128921840Y-58281060D01*
X129317840Y-58281060D01*
X129418840Y-58455998D01*
X129468252Y-58427470D01*
X129864251Y-58427470D01*
X129919778Y-58523647D01*
X129919450Y-58395601D01*
X129864251Y-58427470D01*
X129468252Y-58427470D01*
X129593778Y-58354998D01*
X129492778Y-58180060D01*
X129317840Y-58281060D01*
X128921840Y-58281060D01*
X129047368Y-58208587D01*
X128946368Y-58033650D01*
X128771430Y-58134650D01*
X128375430Y-58134650D01*
X128500958Y-58062177D01*
X128399958Y-57887240D01*
X128225020Y-57988240D01*
X127829020Y-57988240D01*
X127954547Y-57915767D01*
X127853547Y-57740829D01*
X127678610Y-57841829D01*
X127282612Y-57841829D01*
X127408137Y-57769357D01*
X127374276Y-57710706D01*
X127372693Y-57712289D01*
X127360291Y-57721300D01*
X127247394Y-57778824D01*
X127232813Y-57783562D01*
X127187255Y-57790777D01*
X126250000Y-57790777D01*
X126250000Y-57549009D01*
X126585790Y-57549009D01*
X126686790Y-57723947D01*
X126783265Y-57668247D01*
X126737711Y-57622693D01*
X126728700Y-57610291D01*
X126694181Y-57542545D01*
X127505818Y-57542545D01*
X127579610Y-57670357D01*
X127629022Y-57641829D01*
X128025020Y-57641829D01*
X128126020Y-57816767D01*
X128175430Y-57788240D01*
X128571430Y-57788240D01*
X128672430Y-57963177D01*
X128721840Y-57934650D01*
X129117840Y-57934650D01*
X129218840Y-58109587D01*
X129268250Y-58081060D01*
X129664251Y-58081060D01*
X129765251Y-58255998D01*
X129918864Y-58167309D01*
X129918737Y-58117845D01*
X129839188Y-57980060D01*
X129664251Y-58081060D01*
X129268250Y-58081060D01*
X129393778Y-58008587D01*
X129292778Y-57833650D01*
X129117840Y-57934650D01*
X128721840Y-57934650D01*
X128847368Y-57862177D01*
X128773740Y-57734650D01*
X129464251Y-57734650D01*
X129565251Y-57909587D01*
X129740188Y-57808587D01*
X129639188Y-57633650D01*
X129464251Y-57734650D01*
X128773740Y-57734650D01*
X128746368Y-57687240D01*
X128571430Y-57788240D01*
X128175430Y-57788240D01*
X128300958Y-57715767D01*
X128199958Y-57540829D01*
X128025020Y-57641829D01*
X127629022Y-57641829D01*
X127754547Y-57569357D01*
X127653547Y-57394419D01*
X127536895Y-57461768D01*
X127533562Y-57482813D01*
X127528824Y-57497393D01*
X127505818Y-57542545D01*
X126694181Y-57542545D01*
X126672088Y-57499185D01*
X126585790Y-57549009D01*
X126250000Y-57549009D01*
X126250000Y-57370488D01*
X126499000Y-57370488D01*
X126629022Y-57295419D01*
X127825020Y-57295419D01*
X127926020Y-57470357D01*
X127975432Y-57441829D01*
X128371430Y-57441829D01*
X128472430Y-57616767D01*
X128614662Y-57534650D01*
X129810661Y-57534650D01*
X129911661Y-57709587D01*
X129917682Y-57706111D01*
X129917085Y-57473206D01*
X129810661Y-57534650D01*
X128614662Y-57534650D01*
X128647368Y-57515767D01*
X128546368Y-57340829D01*
X128371430Y-57441829D01*
X127975432Y-57441829D01*
X128100958Y-57369357D01*
X127999958Y-57194419D01*
X127825020Y-57295419D01*
X126629022Y-57295419D01*
X126656566Y-57279516D01*
X126658048Y-57270163D01*
X126560727Y-57101599D01*
X126499000Y-57137237D01*
X126499000Y-57370488D01*
X126250000Y-57370488D01*
X126250000Y-57055533D01*
X127440515Y-57055533D01*
X127462289Y-57077307D01*
X127471300Y-57089709D01*
X127528824Y-57202606D01*
X127533562Y-57217187D01*
X127536156Y-57233565D01*
X127554547Y-57222947D01*
X127453547Y-57048009D01*
X127440515Y-57055533D01*
X126250000Y-57055533D01*
X126250000Y-57002599D01*
X126732200Y-57002599D01*
X126761562Y-57053456D01*
X126827307Y-56987711D01*
X126839709Y-56978700D01*
X126897981Y-56949009D01*
X127625020Y-56949009D01*
X127726020Y-57123947D01*
X127775432Y-57095419D01*
X128171430Y-57095419D01*
X128272430Y-57270357D01*
X128321842Y-57241829D01*
X128717840Y-57241829D01*
X128752914Y-57302579D01*
X128766438Y-57217187D01*
X128767804Y-57212982D01*
X128717840Y-57241829D01*
X128321842Y-57241829D01*
X128423039Y-57183403D01*
X129619039Y-57183403D01*
X129628824Y-57202607D01*
X129633562Y-57217187D01*
X129635901Y-57231958D01*
X129711661Y-57363177D01*
X129886598Y-57262177D01*
X129785598Y-57087240D01*
X129619039Y-57183403D01*
X128423039Y-57183403D01*
X128447368Y-57169357D01*
X128346368Y-56994419D01*
X128171430Y-57095419D01*
X127775432Y-57095419D01*
X127900958Y-57022947D01*
X127799958Y-56848009D01*
X127625020Y-56949009D01*
X126897981Y-56949009D01*
X126926206Y-56934628D01*
X126907137Y-56901599D01*
X126732200Y-57002599D01*
X126250000Y-57002599D01*
X126250000Y-56656189D01*
X126532200Y-56656189D01*
X126633200Y-56831126D01*
X126682610Y-56802599D01*
X127078610Y-56802599D01*
X127135430Y-56901014D01*
X127232813Y-56916438D01*
X127247394Y-56921176D01*
X127263243Y-56929251D01*
X127354547Y-56876537D01*
X127253547Y-56701599D01*
X127078610Y-56802599D01*
X126682610Y-56802599D01*
X126808137Y-56730126D01*
X126734509Y-56602599D01*
X127425020Y-56602599D01*
X127526020Y-56777537D01*
X127575432Y-56749009D01*
X127971430Y-56749009D01*
X128072430Y-56923947D01*
X128121842Y-56895419D01*
X128517840Y-56895419D01*
X128618840Y-57070357D01*
X128793778Y-56969357D01*
X128692778Y-56794419D01*
X128517840Y-56895419D01*
X128121842Y-56895419D01*
X128247368Y-56822947D01*
X128146368Y-56648009D01*
X127971430Y-56749009D01*
X127575432Y-56749009D01*
X127700958Y-56676537D01*
X127599958Y-56501599D01*
X127425020Y-56602599D01*
X126734509Y-56602599D01*
X126707137Y-56555189D01*
X126532200Y-56656189D01*
X126250000Y-56656189D01*
X126250000Y-56446727D01*
X126499000Y-56446727D01*
X126575431Y-56402599D01*
X127771430Y-56402599D01*
X127872430Y-56577537D01*
X127921842Y-56549009D01*
X128317840Y-56549009D01*
X128418840Y-56723947D01*
X128468252Y-56695419D01*
X128864251Y-56695419D01*
X128965251Y-56870357D01*
X129014663Y-56841829D01*
X129410661Y-56841829D01*
X129511662Y-57016767D01*
X129686598Y-56915767D01*
X129585598Y-56740829D01*
X129410661Y-56841829D01*
X129014663Y-56841829D01*
X129140188Y-56769357D01*
X129093016Y-56687653D01*
X129067187Y-56683562D01*
X129052606Y-56678824D01*
X128980000Y-56641829D01*
X129757071Y-56641829D01*
X129858071Y-56816767D01*
X129915317Y-56783716D01*
X129914719Y-56550810D01*
X129757071Y-56641829D01*
X128980000Y-56641829D01*
X128967820Y-56635623D01*
X128864251Y-56695419D01*
X128468252Y-56695419D01*
X128593778Y-56622947D01*
X128492778Y-56448009D01*
X128317840Y-56549009D01*
X127921842Y-56549009D01*
X128047368Y-56476537D01*
X127946368Y-56301599D01*
X127771430Y-56402599D01*
X126575431Y-56402599D01*
X126608137Y-56383716D01*
X126507137Y-56208779D01*
X126499000Y-56213477D01*
X126499000Y-56446727D01*
X126250000Y-56446727D01*
X126250000Y-56056189D01*
X127571430Y-56056189D01*
X127672430Y-56231126D01*
X127721840Y-56202599D01*
X128117840Y-56202599D01*
X128218840Y-56377537D01*
X128268252Y-56349009D01*
X128664251Y-56349009D01*
X128765251Y-56523947D01*
X128819654Y-56492537D01*
X128777213Y-56409243D01*
X129622787Y-56409243D01*
X129658071Y-56470357D01*
X129833008Y-56369357D01*
X129732008Y-56194419D01*
X129653017Y-56240024D01*
X129653383Y-56242335D01*
X129653383Y-56257665D01*
X129633562Y-56382813D01*
X129628824Y-56397394D01*
X129622787Y-56409243D01*
X128777213Y-56409243D01*
X128771176Y-56397394D01*
X128766438Y-56382813D01*
X128752971Y-56297786D01*
X128664251Y-56349009D01*
X128268252Y-56349009D01*
X128393778Y-56276537D01*
X128292778Y-56101599D01*
X128117840Y-56202599D01*
X127721840Y-56202599D01*
X127847368Y-56130126D01*
X127746368Y-55955189D01*
X127571430Y-56056189D01*
X126250000Y-56056189D01*
X126250000Y-55798686D01*
X126499000Y-55798686D01*
X126579610Y-55938306D01*
X126754547Y-55837306D01*
X126653547Y-55662369D01*
X126499000Y-55751597D01*
X126499000Y-55798686D01*
X126250000Y-55798686D01*
X126250000Y-55563369D01*
X126825020Y-55563369D01*
X126926020Y-55738306D01*
X126975430Y-55709779D01*
X127371430Y-55709779D01*
X127472430Y-55884716D01*
X127521840Y-55856189D01*
X127917840Y-55856189D01*
X128018840Y-56031126D01*
X128068250Y-56002599D01*
X128464251Y-56002599D01*
X128565251Y-56177537D01*
X128740188Y-56076537D01*
X128639188Y-55901599D01*
X128464251Y-56002599D01*
X128068250Y-56002599D01*
X128193778Y-55930126D01*
X128092778Y-55755189D01*
X127917840Y-55856189D01*
X127521840Y-55856189D01*
X127647368Y-55783716D01*
X127546368Y-55608779D01*
X127371430Y-55709779D01*
X126975430Y-55709779D01*
X127100958Y-55637306D01*
X126999958Y-55462369D01*
X126825020Y-55563369D01*
X126250000Y-55563369D01*
X126250000Y-55394685D01*
X126499000Y-55394685D01*
X126499000Y-55522966D01*
X126554547Y-55490896D01*
X126499000Y-55394685D01*
X126250000Y-55394685D01*
X126250000Y-55216958D01*
X126625020Y-55216958D01*
X126726020Y-55391896D01*
X126775430Y-55363369D01*
X127171430Y-55363369D01*
X127272430Y-55538306D01*
X127321840Y-55509779D01*
X127717840Y-55509779D01*
X127818840Y-55684716D01*
X127868250Y-55656189D01*
X128264251Y-55656189D01*
X128365251Y-55831126D01*
X128414661Y-55802599D01*
X128810661Y-55802599D01*
X128884509Y-55930509D01*
X128927307Y-55887711D01*
X128931492Y-55884670D01*
X129468508Y-55884670D01*
X129472693Y-55887711D01*
X129562289Y-55977307D01*
X129571300Y-55989709D01*
X129598413Y-56042920D01*
X129633008Y-56022947D01*
X129532008Y-55848009D01*
X129468508Y-55884670D01*
X128931492Y-55884670D01*
X128939709Y-55878700D01*
X129052606Y-55821176D01*
X129054315Y-55820621D01*
X128985598Y-55701599D01*
X128810661Y-55802599D01*
X128414661Y-55802599D01*
X128540188Y-55730126D01*
X128439188Y-55555189D01*
X128264251Y-55656189D01*
X127868250Y-55656189D01*
X127993778Y-55583716D01*
X127892778Y-55408779D01*
X127717840Y-55509779D01*
X127321840Y-55509779D01*
X127447368Y-55437306D01*
X127346368Y-55262369D01*
X127171430Y-55363369D01*
X126775430Y-55363369D01*
X126900958Y-55290896D01*
X126799958Y-55115958D01*
X126625020Y-55216958D01*
X126250000Y-55216958D01*
X126250000Y-54998686D01*
X126499000Y-54998686D01*
X126526020Y-55045486D01*
X126575432Y-55016958D01*
X126971430Y-55016958D01*
X127072430Y-55191896D01*
X127121840Y-55163369D01*
X127517840Y-55163369D01*
X127618840Y-55338306D01*
X127668250Y-55309779D01*
X128064251Y-55309779D01*
X128165251Y-55484716D01*
X128214661Y-55456189D01*
X128610661Y-55456189D01*
X128711661Y-55631126D01*
X128761071Y-55602599D01*
X129157071Y-55602599D01*
X129258071Y-55777537D01*
X129307483Y-55749009D01*
X129703481Y-55749009D01*
X129804481Y-55923947D01*
X129912952Y-55861322D01*
X129912557Y-55707137D01*
X129878419Y-55648009D01*
X129703481Y-55749009D01*
X129307483Y-55749009D01*
X129433008Y-55676537D01*
X129332008Y-55501599D01*
X129157071Y-55602599D01*
X128761071Y-55602599D01*
X128886598Y-55530126D01*
X128785598Y-55355189D01*
X128610661Y-55456189D01*
X128214661Y-55456189D01*
X128340188Y-55383716D01*
X128239188Y-55208779D01*
X128064251Y-55309779D01*
X127668250Y-55309779D01*
X127793778Y-55237306D01*
X127692778Y-55062369D01*
X127517840Y-55163369D01*
X127121840Y-55163369D01*
X127247368Y-55090896D01*
X127146368Y-54915958D01*
X126971430Y-55016958D01*
X126575432Y-55016958D01*
X126700958Y-54944486D01*
X126599958Y-54769548D01*
X126499000Y-54827836D01*
X126499000Y-54998686D01*
X126250000Y-54998686D01*
X126250000Y-54670548D01*
X126771430Y-54670548D01*
X126872430Y-54845486D01*
X126921842Y-54816958D01*
X127317840Y-54816958D01*
X127418840Y-54991896D01*
X127468250Y-54963369D01*
X127864251Y-54963369D01*
X127965251Y-55138306D01*
X128014661Y-55109779D01*
X128410661Y-55109779D01*
X128511661Y-55284716D01*
X128561071Y-55256189D01*
X128957071Y-55256189D01*
X129058071Y-55431126D01*
X129107481Y-55402599D01*
X129503481Y-55402599D01*
X129604481Y-55577537D01*
X129779419Y-55476537D01*
X129678419Y-55301599D01*
X129503481Y-55402599D01*
X129107481Y-55402599D01*
X129233008Y-55330126D01*
X129132008Y-55155189D01*
X128957071Y-55256189D01*
X128561071Y-55256189D01*
X128686598Y-55183716D01*
X128585598Y-55008779D01*
X128410661Y-55109779D01*
X128014661Y-55109779D01*
X128140188Y-55037306D01*
X128039188Y-54862369D01*
X127864251Y-54963369D01*
X127468250Y-54963369D01*
X127593778Y-54890896D01*
X127492778Y-54715958D01*
X127317840Y-54816958D01*
X126921842Y-54816958D01*
X127047368Y-54744486D01*
X126946368Y-54569548D01*
X126771430Y-54670548D01*
X126250000Y-54670548D01*
X126250000Y-54324138D01*
X126571430Y-54324138D01*
X126672430Y-54499076D01*
X126721842Y-54470548D01*
X127117840Y-54470548D01*
X127218840Y-54645486D01*
X127268252Y-54616958D01*
X127664251Y-54616958D01*
X127765251Y-54791896D01*
X127814661Y-54763369D01*
X128210661Y-54763369D01*
X128311661Y-54938306D01*
X128361071Y-54909779D01*
X128757071Y-54909779D01*
X128858071Y-55084716D01*
X128907481Y-55056189D01*
X129303481Y-55056189D01*
X129404481Y-55231126D01*
X129453891Y-55202599D01*
X129849891Y-55202599D01*
X129911537Y-55309373D01*
X129911172Y-55167219D01*
X129849891Y-55202599D01*
X129453891Y-55202599D01*
X129579419Y-55130126D01*
X129478419Y-54955189D01*
X129303481Y-55056189D01*
X128907481Y-55056189D01*
X129033008Y-54983716D01*
X128932008Y-54808779D01*
X128757071Y-54909779D01*
X128361071Y-54909779D01*
X128486598Y-54837306D01*
X128385598Y-54662369D01*
X128210661Y-54763369D01*
X127814661Y-54763369D01*
X127940188Y-54690896D01*
X127839188Y-54515958D01*
X127664251Y-54616958D01*
X127268252Y-54616958D01*
X127393778Y-54544486D01*
X127292778Y-54369548D01*
X127117840Y-54470548D01*
X126721842Y-54470548D01*
X126847368Y-54398076D01*
X126746368Y-54223138D01*
X126571430Y-54324138D01*
X126250000Y-54324138D01*
X126250000Y-54137325D01*
X126499000Y-54137325D01*
X126521841Y-54124138D01*
X126917840Y-54124138D01*
X127018840Y-54299076D01*
X127068252Y-54270548D01*
X127464251Y-54270548D01*
X127565251Y-54445486D01*
X127614663Y-54416958D01*
X128010661Y-54416958D01*
X128111661Y-54591896D01*
X128161071Y-54563369D01*
X128557071Y-54563369D01*
X128658071Y-54738306D01*
X128707481Y-54709779D01*
X129103481Y-54709779D01*
X129204481Y-54884716D01*
X129253891Y-54856189D01*
X129649891Y-54856189D01*
X129750891Y-55031126D01*
X129910587Y-54938926D01*
X129910497Y-54903568D01*
X129824829Y-54755189D01*
X129649891Y-54856189D01*
X129253891Y-54856189D01*
X129379419Y-54783716D01*
X129278419Y-54608779D01*
X129103481Y-54709779D01*
X128707481Y-54709779D01*
X128833008Y-54637306D01*
X128732008Y-54462369D01*
X128557071Y-54563369D01*
X128161071Y-54563369D01*
X128286598Y-54490896D01*
X128185598Y-54315958D01*
X128010661Y-54416958D01*
X127614663Y-54416958D01*
X127740188Y-54344486D01*
X127639188Y-54169548D01*
X127464251Y-54270548D01*
X127068252Y-54270548D01*
X127193778Y-54198076D01*
X127092778Y-54023138D01*
X126917840Y-54124138D01*
X126521841Y-54124138D01*
X126647368Y-54051665D01*
X126546368Y-53876728D01*
X126499000Y-53904076D01*
X126499000Y-54137325D01*
X126250000Y-54137325D01*
X126250000Y-53777728D01*
X126717840Y-53777728D01*
X126818840Y-53952665D01*
X126868250Y-53924138D01*
X127264251Y-53924138D01*
X127365251Y-54099076D01*
X127414663Y-54070548D01*
X127810661Y-54070548D01*
X127911661Y-54245486D01*
X127961073Y-54216958D01*
X128357071Y-54216958D01*
X128458071Y-54391896D01*
X128507481Y-54363369D01*
X128903481Y-54363369D01*
X129004481Y-54538306D01*
X129053891Y-54509779D01*
X129449891Y-54509779D01*
X129550891Y-54684716D01*
X129725829Y-54583716D01*
X129624829Y-54408779D01*
X129449891Y-54509779D01*
X129053891Y-54509779D01*
X129179419Y-54437306D01*
X129078419Y-54262369D01*
X128903481Y-54363369D01*
X128507481Y-54363369D01*
X128633008Y-54290896D01*
X128532008Y-54115958D01*
X128357071Y-54216958D01*
X127961073Y-54216958D01*
X128086598Y-54144486D01*
X127985598Y-53969548D01*
X127810661Y-54070548D01*
X127414663Y-54070548D01*
X127540188Y-53998076D01*
X127439188Y-53823138D01*
X127264251Y-53924138D01*
X126868250Y-53924138D01*
X126993778Y-53851665D01*
X126905726Y-53699155D01*
X127134357Y-53699155D01*
X127165251Y-53752665D01*
X127214661Y-53724138D01*
X127610661Y-53724138D01*
X127711661Y-53899076D01*
X127761073Y-53870548D01*
X128157071Y-53870548D01*
X128258071Y-54045486D01*
X128307483Y-54016958D01*
X128703481Y-54016958D01*
X128804481Y-54191896D01*
X128853891Y-54163369D01*
X129249891Y-54163369D01*
X129350891Y-54338306D01*
X129400301Y-54309779D01*
X129796301Y-54309779D01*
X129897301Y-54484716D01*
X129909404Y-54477728D01*
X129908807Y-54244824D01*
X129796301Y-54309779D01*
X129400301Y-54309779D01*
X129525829Y-54237306D01*
X129424829Y-54062369D01*
X129249891Y-54163369D01*
X128853891Y-54163369D01*
X128979419Y-54090896D01*
X128878419Y-53915958D01*
X128703481Y-54016958D01*
X128307483Y-54016958D01*
X128433008Y-53944486D01*
X128332008Y-53769548D01*
X128157071Y-53870548D01*
X127761073Y-53870548D01*
X127886598Y-53798076D01*
X127785598Y-53623138D01*
X127610661Y-53724138D01*
X127214661Y-53724138D01*
X127340188Y-53651665D01*
X127331211Y-53636117D01*
X127247394Y-53678824D01*
X127232813Y-53683562D01*
X127134357Y-53699155D01*
X126905726Y-53699155D01*
X126892778Y-53676728D01*
X126717840Y-53777728D01*
X126250000Y-53777728D01*
X126250000Y-53431318D01*
X126517840Y-53431318D01*
X126618840Y-53606255D01*
X126747178Y-53532160D01*
X126737711Y-53522693D01*
X126728700Y-53510291D01*
X126721248Y-53495665D01*
X127478752Y-53495665D01*
X127511661Y-53552665D01*
X127561071Y-53524138D01*
X127957071Y-53524138D01*
X128058071Y-53699076D01*
X128107483Y-53670548D01*
X128503481Y-53670548D01*
X128604481Y-53845486D01*
X128653893Y-53816958D01*
X129049891Y-53816958D01*
X129150891Y-53991896D01*
X129200301Y-53963369D01*
X129596301Y-53963369D01*
X129697301Y-54138306D01*
X129872239Y-54037306D01*
X129771239Y-53862369D01*
X129596301Y-53963369D01*
X129200301Y-53963369D01*
X129325829Y-53890896D01*
X129224829Y-53715958D01*
X129049891Y-53816958D01*
X128653893Y-53816958D01*
X128779419Y-53744486D01*
X128722273Y-53645506D01*
X129412784Y-53645506D01*
X129497301Y-53791896D01*
X129672239Y-53690896D01*
X129571239Y-53515958D01*
X129564251Y-53519992D01*
X129562289Y-53522693D01*
X129472693Y-53612289D01*
X129460291Y-53621300D01*
X129412784Y-53645506D01*
X128722273Y-53645506D01*
X128678419Y-53569548D01*
X128503481Y-53670548D01*
X128107483Y-53670548D01*
X128233008Y-53598076D01*
X128132008Y-53423138D01*
X127957071Y-53524138D01*
X127561071Y-53524138D01*
X127686598Y-53451665D01*
X127585598Y-53276728D01*
X127546818Y-53299118D01*
X127533562Y-53382813D01*
X127528824Y-53397394D01*
X127478752Y-53495665D01*
X126721248Y-53495665D01*
X126671176Y-53397394D01*
X126666438Y-53382813D01*
X126661027Y-53348649D01*
X126517840Y-53431318D01*
X126250000Y-53431318D01*
X126250000Y-52994685D01*
X126499000Y-52994685D01*
X126499000Y-53213565D01*
X126561072Y-53177728D01*
X127757071Y-53177728D01*
X127858071Y-53352665D01*
X127907481Y-53324138D01*
X128303481Y-53324138D01*
X128404481Y-53499076D01*
X128546714Y-53416958D01*
X129742711Y-53416958D01*
X129843711Y-53591896D01*
X129907039Y-53555334D01*
X129906442Y-53322428D01*
X129742711Y-53416958D01*
X128546714Y-53416958D01*
X128579419Y-53398076D01*
X128478419Y-53223138D01*
X128303481Y-53324138D01*
X127907481Y-53324138D01*
X128033008Y-53251665D01*
X127932008Y-53076728D01*
X127757071Y-53177728D01*
X126561072Y-53177728D01*
X126593778Y-53158845D01*
X126499000Y-52994685D01*
X126250000Y-52994685D01*
X126250000Y-52884908D01*
X126664251Y-52884908D01*
X126726852Y-52993336D01*
X126728700Y-52989709D01*
X126737711Y-52977307D01*
X126827307Y-52887711D01*
X126839710Y-52878700D01*
X126881595Y-52857359D01*
X126866560Y-52831318D01*
X127557071Y-52831318D01*
X127658071Y-53006255D01*
X127707481Y-52977728D01*
X128103481Y-52977728D01*
X128204481Y-53152665D01*
X128253891Y-53124138D01*
X128649891Y-53124138D01*
X128750891Y-53299076D01*
X128752984Y-53297867D01*
X128746617Y-53257665D01*
X128746617Y-53242335D01*
X128766438Y-53117187D01*
X128771176Y-53102606D01*
X128803372Y-53039419D01*
X129596628Y-53039419D01*
X129628824Y-53102606D01*
X129633562Y-53117187D01*
X129653030Y-53240106D01*
X129818649Y-53144486D01*
X129717649Y-52969548D01*
X129596628Y-53039419D01*
X128803372Y-53039419D01*
X128806182Y-53033904D01*
X128649891Y-53124138D01*
X128253891Y-53124138D01*
X128379419Y-53051665D01*
X128278419Y-52876728D01*
X128103481Y-52977728D01*
X127707481Y-52977728D01*
X127833008Y-52905255D01*
X127732008Y-52730318D01*
X127557071Y-52831318D01*
X126866560Y-52831318D01*
X126839188Y-52783908D01*
X126664251Y-52884908D01*
X126250000Y-52884908D01*
X126250000Y-52598685D01*
X126499000Y-52598685D01*
X126565251Y-52713435D01*
X126614661Y-52684908D01*
X127010661Y-52684908D01*
X127076595Y-52799110D01*
X127092335Y-52796617D01*
X127107665Y-52796617D01*
X127196740Y-52810725D01*
X127286598Y-52758845D01*
X127189370Y-52590442D01*
X127168575Y-52593736D01*
X127010661Y-52684908D01*
X126614661Y-52684908D01*
X126740188Y-52612435D01*
X126682301Y-52512171D01*
X127372811Y-52512171D01*
X127458071Y-52659845D01*
X127507481Y-52631318D01*
X127903481Y-52631318D01*
X128004481Y-52806255D01*
X128053891Y-52777728D01*
X128449891Y-52777728D01*
X128550891Y-52952665D01*
X128725829Y-52851665D01*
X128624829Y-52676728D01*
X128449891Y-52777728D01*
X128053891Y-52777728D01*
X128179419Y-52705255D01*
X128078419Y-52530318D01*
X127903481Y-52631318D01*
X127507481Y-52631318D01*
X127633008Y-52558845D01*
X127532008Y-52383908D01*
X127458817Y-52426165D01*
X127372811Y-52512171D01*
X126682301Y-52512171D01*
X126639188Y-52437497D01*
X126499000Y-52518435D01*
X126499000Y-52598685D01*
X126250000Y-52598685D01*
X126250000Y-52202407D01*
X126250236Y-52197604D01*
X126250524Y-52194685D01*
X126499000Y-52194685D01*
X126499000Y-52289805D01*
X126507482Y-52284908D01*
X127703481Y-52284908D01*
X127804481Y-52459845D01*
X127853891Y-52431318D01*
X128249891Y-52431318D01*
X128350891Y-52606255D01*
X128400301Y-52577728D01*
X128796301Y-52577728D01*
X128897301Y-52752665D01*
X128946711Y-52724138D01*
X129342711Y-52724138D01*
X129420134Y-52858240D01*
X129460290Y-52878700D01*
X129468577Y-52884721D01*
X129618649Y-52798076D01*
X129517649Y-52623138D01*
X129342711Y-52724138D01*
X128946711Y-52724138D01*
X129072239Y-52651665D01*
X129020839Y-52562638D01*
X128945279Y-52524138D01*
X129689122Y-52524138D01*
X129790122Y-52699076D01*
X129904674Y-52632939D01*
X129904315Y-52492864D01*
X129864059Y-52423138D01*
X129689122Y-52524138D01*
X128945279Y-52524138D01*
X128939709Y-52521300D01*
X128927307Y-52512289D01*
X128920842Y-52505824D01*
X128796301Y-52577728D01*
X128400301Y-52577728D01*
X128525829Y-52505255D01*
X128424829Y-52330318D01*
X128249891Y-52431318D01*
X127853891Y-52431318D01*
X127979419Y-52358845D01*
X127878419Y-52183908D01*
X127703481Y-52284908D01*
X126507482Y-52284908D01*
X126540188Y-52266025D01*
X126499000Y-52194685D01*
X126250524Y-52194685D01*
X126268742Y-52009713D01*
X126270616Y-52000292D01*
X126273105Y-51992087D01*
X126610661Y-51992087D01*
X126657550Y-52073302D01*
X126666438Y-52017187D01*
X126671176Y-52002606D01*
X126703841Y-51938497D01*
X127503481Y-51938497D01*
X127604481Y-52113435D01*
X127653891Y-52084908D01*
X128049891Y-52084908D01*
X128150891Y-52259845D01*
X128200301Y-52231318D01*
X128596301Y-52231318D01*
X128697301Y-52406255D01*
X128797243Y-52348554D01*
X128794945Y-52344044D01*
X129605055Y-52344044D01*
X129765059Y-52251665D01*
X129664059Y-52076728D01*
X129644757Y-52087872D01*
X129653383Y-52142335D01*
X129653383Y-52157665D01*
X129633562Y-52282813D01*
X129628824Y-52297394D01*
X129605055Y-52344044D01*
X128794945Y-52344044D01*
X128771176Y-52297394D01*
X128766438Y-52282813D01*
X128746617Y-52157665D01*
X128746617Y-52144533D01*
X128596301Y-52231318D01*
X128200301Y-52231318D01*
X128325829Y-52158845D01*
X128224829Y-51983908D01*
X128049891Y-52084908D01*
X127653891Y-52084908D01*
X127779419Y-52012435D01*
X127678419Y-51837497D01*
X127503481Y-51938497D01*
X126703841Y-51938497D01*
X126703991Y-51938203D01*
X126610661Y-51992087D01*
X126273105Y-51992087D01*
X126324720Y-51821934D01*
X126328396Y-51813060D01*
X126340964Y-51789547D01*
X126565473Y-51789547D01*
X126686598Y-51719615D01*
X126656191Y-51666948D01*
X126583957Y-51754964D01*
X126565473Y-51789547D01*
X126340964Y-51789547D01*
X126416254Y-51648689D01*
X126421590Y-51640702D01*
X126510223Y-51532702D01*
X126807314Y-51532702D01*
X126858071Y-51620615D01*
X126907483Y-51592087D01*
X127303481Y-51592087D01*
X127404481Y-51767025D01*
X127453893Y-51738497D01*
X127849891Y-51738497D01*
X127950891Y-51913435D01*
X128000301Y-51884908D01*
X128396301Y-51884908D01*
X128497301Y-52059845D01*
X128639533Y-51977728D01*
X129835532Y-51977728D01*
X129903295Y-52095097D01*
X129902895Y-51938836D01*
X129835532Y-51977728D01*
X128639533Y-51977728D01*
X128672239Y-51958845D01*
X128571239Y-51783908D01*
X128396301Y-51884908D01*
X128000301Y-51884908D01*
X128125829Y-51812435D01*
X128024829Y-51637497D01*
X127849891Y-51738497D01*
X127453893Y-51738497D01*
X127579419Y-51666025D01*
X127478419Y-51491087D01*
X127303481Y-51592087D01*
X126907483Y-51592087D01*
X127033008Y-51519615D01*
X126992238Y-51449000D01*
X127682749Y-51449000D01*
X127750891Y-51567025D01*
X127800303Y-51538497D01*
X128196301Y-51538497D01*
X128297301Y-51713435D01*
X128346711Y-51684908D01*
X128742711Y-51684908D01*
X128843711Y-51859845D01*
X128870830Y-51844188D01*
X128927307Y-51787711D01*
X128939709Y-51778700D01*
X128982224Y-51757038D01*
X129417778Y-51757038D01*
X129460291Y-51778700D01*
X129472693Y-51787711D01*
X129530665Y-51845683D01*
X129464059Y-51730318D01*
X129417778Y-51757038D01*
X128982224Y-51757038D01*
X129009563Y-51743108D01*
X128917649Y-51583908D01*
X128742711Y-51684908D01*
X128346711Y-51684908D01*
X128472239Y-51612435D01*
X128377880Y-51449000D01*
X128606510Y-51449000D01*
X128643711Y-51513435D01*
X128693121Y-51484908D01*
X129089122Y-51484908D01*
X129190122Y-51659845D01*
X129239532Y-51631318D01*
X129635532Y-51631318D01*
X129736532Y-51806255D01*
X129820099Y-51758008D01*
X129817897Y-51753905D01*
X129718251Y-51632842D01*
X129682952Y-51603939D01*
X129635532Y-51631318D01*
X129239532Y-51631318D01*
X129365059Y-51558845D01*
X129301640Y-51449000D01*
X129151316Y-51449000D01*
X129089122Y-51484908D01*
X128693121Y-51484908D01*
X128755316Y-51449000D01*
X128606510Y-51449000D01*
X128377880Y-51449000D01*
X128351315Y-51449000D01*
X128196301Y-51538497D01*
X127800303Y-51538497D01*
X127925829Y-51466025D01*
X127916000Y-51449000D01*
X127682749Y-51449000D01*
X126992238Y-51449000D01*
X126979498Y-51449000D01*
X126943453Y-51459934D01*
X126807314Y-51532702D01*
X126510223Y-51532702D01*
X126539831Y-51496624D01*
X126546624Y-51489831D01*
X126547720Y-51488932D01*
X126596377Y-51449000D01*
X126690702Y-51371590D01*
X126698689Y-51366254D01*
X126863060Y-51278396D01*
X126871934Y-51274720D01*
X127050292Y-51220616D01*
X127059713Y-51218742D01*
X127247604Y-51200236D01*
X127252407Y-51200000D01*
X129150156Y-51200000D01*
X129154951Y-51200235D01*
G37*
%TD.AperFunction*%
%TD*%
M02*
