%TF.GenerationSoftware,KiCad,Pcbnew,(6.0.0-0)*%
%TF.CreationDate,2022-01-13T06:26:07-05:00*%
%TF.ProjectId,piUAV,70695541-562e-46b6-9963-61645f706362,rev?*%
%TF.SameCoordinates,Original*%
%TF.FileFunction,Legend,Bot*%
%TF.FilePolarity,Positive*%
%FSLAX46Y46*%
G04 Gerber Fmt 4.6, Leading zero omitted, Abs format (unit mm)*
G04 Created by KiCad (PCBNEW (6.0.0-0)) date 2022-01-13 06:26:07*
%MOMM*%
%LPD*%
G01*
G04 APERTURE LIST*
%ADD10C,0.175000*%
%ADD11C,0.120000*%
G04 APERTURE END LIST*
D10*
X124553166Y-64716666D02*
X125119833Y-64716666D01*
X125186500Y-64750000D01*
X125219833Y-64783333D01*
X125253166Y-64850000D01*
X125253166Y-64983333D01*
X125219833Y-65050000D01*
X125186500Y-65083333D01*
X125119833Y-65116666D01*
X124553166Y-65116666D01*
X125053166Y-65416666D02*
X125053166Y-65750000D01*
X125253166Y-65350000D02*
X124553166Y-65583333D01*
X125253166Y-65816666D01*
X125253166Y-66450000D02*
X124919833Y-66216666D01*
X125253166Y-66050000D02*
X124553166Y-66050000D01*
X124553166Y-66316666D01*
X124586500Y-66383333D01*
X124619833Y-66416666D01*
X124686500Y-66450000D01*
X124786500Y-66450000D01*
X124853166Y-66416666D01*
X124886500Y-66383333D01*
X124919833Y-66316666D01*
X124919833Y-66050000D01*
X124553166Y-66650000D02*
X124553166Y-67050000D01*
X125253166Y-66850000D02*
X124553166Y-66850000D01*
X125186500Y-67283333D02*
X125219833Y-67316666D01*
X125253166Y-67283333D01*
X125219833Y-67250000D01*
X125186500Y-67283333D01*
X125253166Y-67283333D01*
X124553166Y-67516666D02*
X124553166Y-67916666D01*
X125253166Y-67716666D02*
X124553166Y-67716666D01*
X124553166Y-68083333D02*
X125253166Y-68550000D01*
X124553166Y-68550000D02*
X125253166Y-68083333D01*
X126346833Y-65300000D02*
X126380166Y-65233333D01*
X126380166Y-65100000D01*
X126346833Y-65033333D01*
X126280166Y-65000000D01*
X126013500Y-65000000D01*
X125946833Y-65033333D01*
X125913500Y-65100000D01*
X125913500Y-65233333D01*
X125946833Y-65300000D01*
X126013500Y-65333333D01*
X126080166Y-65333333D01*
X126146833Y-65000000D01*
X125913500Y-65633333D02*
X126380166Y-65633333D01*
X125980166Y-65633333D02*
X125946833Y-65666666D01*
X125913500Y-65733333D01*
X125913500Y-65833333D01*
X125946833Y-65900000D01*
X126013500Y-65933333D01*
X126380166Y-65933333D01*
X126380166Y-66566666D02*
X126013500Y-66566666D01*
X125946833Y-66533333D01*
X125913500Y-66466666D01*
X125913500Y-66333333D01*
X125946833Y-66266666D01*
X126346833Y-66566666D02*
X126380166Y-66500000D01*
X126380166Y-66333333D01*
X126346833Y-66266666D01*
X126280166Y-66233333D01*
X126213500Y-66233333D01*
X126146833Y-66266666D01*
X126113500Y-66333333D01*
X126113500Y-66500000D01*
X126080166Y-66566666D01*
X126380166Y-66900000D02*
X125680166Y-66900000D01*
X125946833Y-66900000D02*
X125913500Y-66966666D01*
X125913500Y-67100000D01*
X125946833Y-67166666D01*
X125980166Y-67200000D01*
X126046833Y-67233333D01*
X126246833Y-67233333D01*
X126313500Y-67200000D01*
X126346833Y-67166666D01*
X126380166Y-67100000D01*
X126380166Y-66966666D01*
X126346833Y-66900000D01*
X126380166Y-67633333D02*
X126346833Y-67566666D01*
X126280166Y-67533333D01*
X125680166Y-67533333D01*
X126346833Y-68166666D02*
X126380166Y-68100000D01*
X126380166Y-67966666D01*
X126346833Y-67900000D01*
X126280166Y-67866666D01*
X126013500Y-67866666D01*
X125946833Y-67900000D01*
X125913500Y-67966666D01*
X125913500Y-68100000D01*
X125946833Y-68166666D01*
X126013500Y-68200000D01*
X126080166Y-68200000D01*
X126146833Y-67866666D01*
X131053166Y-64633333D02*
X131619833Y-64633333D01*
X131686500Y-64666666D01*
X131719833Y-64700000D01*
X131753166Y-64766666D01*
X131753166Y-64900000D01*
X131719833Y-64966666D01*
X131686500Y-65000000D01*
X131619833Y-65033333D01*
X131053166Y-65033333D01*
X131553166Y-65333333D02*
X131553166Y-65666666D01*
X131753166Y-65266666D02*
X131053166Y-65500000D01*
X131753166Y-65733333D01*
X131753166Y-66366666D02*
X131419833Y-66133333D01*
X131753166Y-65966666D02*
X131053166Y-65966666D01*
X131053166Y-66233333D01*
X131086500Y-66300000D01*
X131119833Y-66333333D01*
X131186500Y-66366666D01*
X131286500Y-66366666D01*
X131353166Y-66333333D01*
X131386500Y-66300000D01*
X131419833Y-66233333D01*
X131419833Y-65966666D01*
X131053166Y-66566666D02*
X131053166Y-66966666D01*
X131753166Y-66766666D02*
X131053166Y-66766666D01*
X131686500Y-67200000D02*
X131719833Y-67233333D01*
X131753166Y-67200000D01*
X131719833Y-67166666D01*
X131686500Y-67200000D01*
X131753166Y-67200000D01*
X131753166Y-67933333D02*
X131419833Y-67700000D01*
X131753166Y-67533333D02*
X131053166Y-67533333D01*
X131053166Y-67800000D01*
X131086500Y-67866666D01*
X131119833Y-67900000D01*
X131186500Y-67933333D01*
X131286500Y-67933333D01*
X131353166Y-67900000D01*
X131386500Y-67866666D01*
X131419833Y-67800000D01*
X131419833Y-67533333D01*
X131053166Y-68166666D02*
X131753166Y-68633333D01*
X131053166Y-68633333D02*
X131753166Y-68166666D01*
X132846833Y-65300000D02*
X132880166Y-65233333D01*
X132880166Y-65100000D01*
X132846833Y-65033333D01*
X132780166Y-65000000D01*
X132513500Y-65000000D01*
X132446833Y-65033333D01*
X132413500Y-65100000D01*
X132413500Y-65233333D01*
X132446833Y-65300000D01*
X132513500Y-65333333D01*
X132580166Y-65333333D01*
X132646833Y-65000000D01*
X132413500Y-65633333D02*
X132880166Y-65633333D01*
X132480166Y-65633333D02*
X132446833Y-65666666D01*
X132413500Y-65733333D01*
X132413500Y-65833333D01*
X132446833Y-65900000D01*
X132513500Y-65933333D01*
X132880166Y-65933333D01*
X132880166Y-66566666D02*
X132513500Y-66566666D01*
X132446833Y-66533333D01*
X132413500Y-66466666D01*
X132413500Y-66333333D01*
X132446833Y-66266666D01*
X132846833Y-66566666D02*
X132880166Y-66500000D01*
X132880166Y-66333333D01*
X132846833Y-66266666D01*
X132780166Y-66233333D01*
X132713500Y-66233333D01*
X132646833Y-66266666D01*
X132613500Y-66333333D01*
X132613500Y-66500000D01*
X132580166Y-66566666D01*
X132880166Y-66900000D02*
X132180166Y-66900000D01*
X132446833Y-66900000D02*
X132413500Y-66966666D01*
X132413500Y-67100000D01*
X132446833Y-67166666D01*
X132480166Y-67200000D01*
X132546833Y-67233333D01*
X132746833Y-67233333D01*
X132813500Y-67200000D01*
X132846833Y-67166666D01*
X132880166Y-67100000D01*
X132880166Y-66966666D01*
X132846833Y-66900000D01*
X132880166Y-67633333D02*
X132846833Y-67566666D01*
X132780166Y-67533333D01*
X132180166Y-67533333D01*
X132846833Y-68166666D02*
X132880166Y-68100000D01*
X132880166Y-67966666D01*
X132846833Y-67900000D01*
X132780166Y-67866666D01*
X132513500Y-67866666D01*
X132446833Y-67900000D01*
X132413500Y-67966666D01*
X132413500Y-68100000D01*
X132446833Y-68166666D01*
X132513500Y-68200000D01*
X132580166Y-68200000D01*
X132646833Y-67866666D01*
D11*
%TO.C,JP4*%
X129500000Y-68200000D02*
X130100000Y-68200000D01*
X128800000Y-66100000D02*
X128800000Y-67500000D01*
X130100000Y-65400000D02*
X129500000Y-65400000D01*
X130800000Y-67500000D02*
X130800000Y-66100000D01*
X129500000Y-65400000D02*
G75*
G03*
X128800000Y-66100000I-1J-699999D01*
G01*
X130800000Y-66100000D02*
G75*
G03*
X130100000Y-65400000I-699999J1D01*
G01*
X130100000Y-68200000D02*
G75*
G03*
X130800000Y-67500000I1J699999D01*
G01*
X128800000Y-67500000D02*
G75*
G03*
X129500000Y-68200000I699999J-1D01*
G01*
%TO.C,JP5*%
X127900000Y-65400000D02*
X127300000Y-65400000D01*
X127300000Y-68200000D02*
X127900000Y-68200000D01*
X126600000Y-66100000D02*
X126600000Y-67500000D01*
X128600000Y-67500000D02*
X128600000Y-66100000D01*
X128600000Y-66100000D02*
G75*
G03*
X127900000Y-65400000I-699999J1D01*
G01*
X127300000Y-65400000D02*
G75*
G03*
X126600000Y-66100000I-1J-699999D01*
G01*
X127900000Y-68200000D02*
G75*
G03*
X128600000Y-67500000I1J699999D01*
G01*
X126600000Y-67500000D02*
G75*
G03*
X127300000Y-68200000I699999J-1D01*
G01*
%TD*%
M02*
