%TF.GenerationSoftware,KiCad,Pcbnew,(6.0.0-0)*%
%TF.CreationDate,2022-01-13T06:26:07-05:00*%
%TF.ProjectId,piUAV,70695541-562e-46b6-9963-61645f706362,rev?*%
%TF.SameCoordinates,Original*%
%TF.FileFunction,Soldermask,Top*%
%TF.FilePolarity,Negative*%
%FSLAX46Y46*%
G04 Gerber Fmt 4.6, Leading zero omitted, Abs format (unit mm)*
G04 Created by KiCad (PCBNEW (6.0.0-0)) date 2022-01-13 06:26:07*
%MOMM*%
%LPD*%
G01*
G04 APERTURE LIST*
G04 Aperture macros list*
%AMRoundRect*
0 Rectangle with rounded corners*
0 $1 Rounding radius*
0 $2 $3 $4 $5 $6 $7 $8 $9 X,Y pos of 4 corners*
0 Add a 4 corners polygon primitive as box body*
4,1,4,$2,$3,$4,$5,$6,$7,$8,$9,$2,$3,0*
0 Add four circle primitives for the rounded corners*
1,1,$1+$1,$2,$3*
1,1,$1+$1,$4,$5*
1,1,$1+$1,$6,$7*
1,1,$1+$1,$8,$9*
0 Add four rect primitives between the rounded corners*
20,1,$1+$1,$2,$3,$4,$5,0*
20,1,$1+$1,$4,$5,$6,$7,0*
20,1,$1+$1,$6,$7,$8,$9,0*
20,1,$1+$1,$8,$9,$2,$3,0*%
%AMFreePoly0*
4,1,22,0.550000,-0.750000,0.000000,-0.750000,0.000000,-0.745033,-0.079941,-0.743568,-0.215256,-0.701293,-0.333266,-0.622738,-0.424486,-0.514219,-0.481581,-0.384460,-0.499164,-0.250000,-0.500000,-0.250000,-0.500000,0.250000,-0.499164,0.250000,-0.499963,0.256109,-0.478152,0.396186,-0.417904,0.524511,-0.324060,0.630769,-0.204165,0.706417,-0.067858,0.745374,0.000000,0.744959,0.000000,0.750000,
0.550000,0.750000,0.550000,-0.750000,0.550000,-0.750000,$1*%
%AMFreePoly1*
4,1,20,0.000000,0.744959,0.073905,0.744508,0.209726,0.703889,0.328688,0.626782,0.421226,0.519385,0.479903,0.390333,0.500000,0.250000,0.500000,-0.250000,0.499851,-0.262216,0.476331,-0.402017,0.414519,-0.529596,0.319384,-0.634700,0.198574,-0.708877,0.061801,-0.746166,0.000000,-0.745033,0.000000,-0.750000,-0.550000,-0.750000,-0.550000,0.750000,0.000000,0.750000,0.000000,0.744959,
0.000000,0.744959,$1*%
%AMFreePoly2*
4,1,22,0.500000,-0.750000,0.000000,-0.750000,0.000000,-0.745033,-0.079941,-0.743568,-0.215256,-0.701293,-0.333266,-0.622738,-0.424486,-0.514219,-0.481581,-0.384460,-0.499164,-0.250000,-0.500000,-0.250000,-0.500000,0.250000,-0.499164,0.250000,-0.499963,0.256109,-0.478152,0.396186,-0.417904,0.524511,-0.324060,0.630769,-0.204165,0.706417,-0.067858,0.745374,0.000000,0.744959,0.000000,0.750000,
0.500000,0.750000,0.500000,-0.750000,0.500000,-0.750000,$1*%
%AMFreePoly3*
4,1,20,0.000000,0.744959,0.073905,0.744508,0.209726,0.703889,0.328688,0.626782,0.421226,0.519385,0.479903,0.390333,0.500000,0.250000,0.500000,-0.250000,0.499851,-0.262216,0.476331,-0.402017,0.414519,-0.529596,0.319384,-0.634700,0.198574,-0.708877,0.061801,-0.746166,0.000000,-0.745033,0.000000,-0.750000,-0.500000,-0.750000,-0.500000,0.750000,0.000000,0.750000,0.000000,0.744959,
0.000000,0.744959,$1*%
G04 Aperture macros list end*
%ADD10RoundRect,0.160000X-0.160000X0.197500X-0.160000X-0.197500X0.160000X-0.197500X0.160000X0.197500X0*%
%ADD11RoundRect,0.155000X0.212500X0.155000X-0.212500X0.155000X-0.212500X-0.155000X0.212500X-0.155000X0*%
%ADD12RoundRect,0.160000X0.222500X0.160000X-0.222500X0.160000X-0.222500X-0.160000X0.222500X-0.160000X0*%
%ADD13RoundRect,0.160000X0.197500X0.160000X-0.197500X0.160000X-0.197500X-0.160000X0.197500X-0.160000X0*%
%ADD14RoundRect,0.155000X-0.212500X-0.155000X0.212500X-0.155000X0.212500X0.155000X-0.212500X0.155000X0*%
%ADD15RoundRect,0.160000X-0.197500X-0.160000X0.197500X-0.160000X0.197500X0.160000X-0.197500X0.160000X0*%
%ADD16R,1.800000X2.500000*%
%ADD17C,1.000000*%
%ADD18RoundRect,0.160000X0.160000X-0.197500X0.160000X0.197500X-0.160000X0.197500X-0.160000X-0.197500X0*%
%ADD19R,0.650000X1.050000*%
%ADD20R,1.700000X1.700000*%
%ADD21O,1.700000X1.700000*%
%ADD22O,3.000000X4.000000*%
%ADD23RoundRect,0.155000X-0.155000X0.212500X-0.155000X-0.212500X0.155000X-0.212500X0.155000X0.212500X0*%
%ADD24RoundRect,0.050000X0.050000X-0.387500X0.050000X0.387500X-0.050000X0.387500X-0.050000X-0.387500X0*%
%ADD25RoundRect,0.050000X0.387500X-0.050000X0.387500X0.050000X-0.387500X0.050000X-0.387500X-0.050000X0*%
%ADD26RoundRect,0.144000X1.456000X-1.456000X1.456000X1.456000X-1.456000X1.456000X-1.456000X-1.456000X0*%
%ADD27RoundRect,0.160000X0.160000X-0.222500X0.160000X0.222500X-0.160000X0.222500X-0.160000X-0.222500X0*%
%ADD28RoundRect,0.075000X0.075000X-0.350000X0.075000X0.350000X-0.075000X0.350000X-0.075000X-0.350000X0*%
%ADD29RoundRect,0.075000X0.350000X0.075000X-0.350000X0.075000X-0.350000X-0.075000X0.350000X-0.075000X0*%
%ADD30RoundRect,0.150000X0.650000X0.150000X-0.650000X0.150000X-0.650000X-0.150000X0.650000X-0.150000X0*%
%ADD31FreePoly0,180.000000*%
%ADD32R,1.000000X1.500000*%
%ADD33FreePoly1,180.000000*%
%ADD34R,1.500000X2.000000*%
%ADD35R,3.800000X2.000000*%
%ADD36RoundRect,0.155000X0.155000X-0.212500X0.155000X0.212500X-0.155000X0.212500X-0.155000X-0.212500X0*%
%ADD37R,2.400000X1.700000*%
%ADD38O,2.500000X4.000000*%
%ADD39RoundRect,0.250000X0.650000X-0.325000X0.650000X0.325000X-0.650000X0.325000X-0.650000X-0.325000X0*%
%ADD40R,0.599999X1.450000*%
%ADD41R,3.099999X2.400000*%
%ADD42C,0.499999*%
%ADD43R,1.500000X2.200000*%
%ADD44R,0.500000X0.375000*%
%ADD45R,0.650000X0.300000*%
%ADD46FreePoly2,0.000000*%
%ADD47FreePoly3,0.000000*%
%ADD48R,1.350000X0.400000*%
%ADD49R,1.550000X1.200000*%
%ADD50O,1.550000X0.890000*%
%ADD51R,1.550000X1.500000*%
%ADD52O,0.950000X1.250000*%
%ADD53RoundRect,0.625000X-0.625000X-1.375000X0.625000X-1.375000X0.625000X1.375000X-0.625000X1.375000X0*%
G04 APERTURE END LIST*
D10*
%TO.C,R14*%
X112400000Y-58302500D03*
X112400000Y-59497500D03*
%TD*%
D11*
%TO.C,C3*%
X120117500Y-69850000D03*
X118982500Y-69850000D03*
%TD*%
D12*
%TO.C,D2*%
X126752500Y-105400000D03*
X125607500Y-105400000D03*
%TD*%
D13*
%TO.C,R6*%
X125800000Y-83950000D03*
X124605000Y-83950000D03*
%TD*%
D14*
%TO.C,C21*%
X127632500Y-51050000D03*
X128767500Y-51050000D03*
%TD*%
D11*
%TO.C,C10*%
X120117500Y-64850000D03*
X118982500Y-64850000D03*
%TD*%
D15*
%TO.C,R8*%
X125102500Y-51050000D03*
X126297500Y-51050000D03*
%TD*%
D16*
%TO.C,D6*%
X131600000Y-58150000D03*
X131600000Y-54150000D03*
%TD*%
D17*
%TO.C,TP2*%
X111100000Y-52400000D03*
%TD*%
D18*
%TO.C,R5*%
X129600000Y-73747500D03*
X129600000Y-72552500D03*
%TD*%
D17*
%TO.C,TP1*%
X112800000Y-52400000D03*
%TD*%
D12*
%TO.C,D1*%
X126745000Y-103300000D03*
X125600000Y-103300000D03*
%TD*%
D18*
%TO.C,R15*%
X123250000Y-57997500D03*
X123250000Y-56802500D03*
%TD*%
D19*
%TO.C,SW2*%
X117125000Y-107275000D03*
X117125000Y-103125000D03*
X119275000Y-107275000D03*
X119275000Y-103125000D03*
%TD*%
D13*
%TO.C,R3*%
X119347500Y-75800000D03*
X118152500Y-75800000D03*
%TD*%
D11*
%TO.C,C19*%
X128120000Y-85100000D03*
X126985000Y-85100000D03*
%TD*%
D20*
%TO.C,J6*%
X122225000Y-100600000D03*
D21*
X122225000Y-98060000D03*
X124765000Y-100600000D03*
X124765000Y-98060000D03*
X127305000Y-100600000D03*
X127305000Y-98060000D03*
%TD*%
D19*
%TO.C,SW1*%
X130825000Y-107375000D03*
X130825000Y-103225000D03*
X132975000Y-103225000D03*
X132975000Y-107375000D03*
%TD*%
D11*
%TO.C,C1*%
X120117500Y-68850000D03*
X118982500Y-68850000D03*
%TD*%
%TO.C,C7*%
X120117500Y-66850000D03*
X118982500Y-66850000D03*
%TD*%
%TO.C,C13*%
X132467500Y-68900000D03*
X131332500Y-68900000D03*
%TD*%
%TO.C,C16*%
X117217500Y-62632500D03*
X116082500Y-62632500D03*
%TD*%
D14*
%TO.C,C5*%
X121332500Y-68000000D03*
X122467500Y-68000000D03*
%TD*%
D22*
%TO.C,P6*%
X133000000Y-46400000D03*
%TD*%
D23*
%TO.C,C14*%
X110700000Y-81682500D03*
X110700000Y-82817500D03*
%TD*%
D24*
%TO.C,U1*%
X122400000Y-77187500D03*
X122800000Y-77187500D03*
X123200000Y-77187500D03*
X123600000Y-77187500D03*
X124000000Y-77187500D03*
X124400000Y-77187500D03*
X124800000Y-77187500D03*
X125200000Y-77187500D03*
X125600000Y-77187500D03*
X126000000Y-77187500D03*
X126400000Y-77187500D03*
X126800000Y-77187500D03*
X127200000Y-77187500D03*
X127600000Y-77187500D03*
D25*
X128437500Y-76350000D03*
X128437500Y-75950000D03*
X128437500Y-75550000D03*
X128437500Y-75150000D03*
X128437500Y-74750000D03*
X128437500Y-74350000D03*
X128437500Y-73950000D03*
X128437500Y-73550000D03*
X128437500Y-73150000D03*
X128437500Y-72750000D03*
X128437500Y-72350000D03*
X128437500Y-71950000D03*
X128437500Y-71550000D03*
X128437500Y-71150000D03*
D24*
X127600000Y-70312500D03*
X127200000Y-70312500D03*
X126800000Y-70312500D03*
X126400000Y-70312500D03*
X126000000Y-70312500D03*
X125600000Y-70312500D03*
X125200000Y-70312500D03*
X124800000Y-70312500D03*
X124400000Y-70312500D03*
X124000000Y-70312500D03*
X123600000Y-70312500D03*
X123200000Y-70312500D03*
X122800000Y-70312500D03*
X122400000Y-70312500D03*
D25*
X121562500Y-71150000D03*
X121562500Y-71550000D03*
X121562500Y-71950000D03*
X121562500Y-72350000D03*
X121562500Y-72750000D03*
X121562500Y-73150000D03*
X121562500Y-73550000D03*
X121562500Y-73950000D03*
X121562500Y-74350000D03*
X121562500Y-74750000D03*
X121562500Y-75150000D03*
X121562500Y-75550000D03*
X121562500Y-75950000D03*
X121562500Y-76350000D03*
D26*
X125000000Y-73750000D03*
%TD*%
D13*
%TO.C,R11*%
X126777500Y-106400000D03*
X125582500Y-106400000D03*
%TD*%
%TO.C,R7*%
X125850000Y-85100000D03*
X124655000Y-85100000D03*
%TD*%
D27*
%TO.C,D5*%
X112400000Y-56920000D03*
X112400000Y-55775000D03*
%TD*%
D28*
%TO.C,U4*%
X124050000Y-90250000D03*
X124550000Y-90250000D03*
X125050000Y-90250000D03*
X125550000Y-90250000D03*
X126050000Y-90250000D03*
X126550000Y-90250000D03*
D29*
X127250000Y-89550000D03*
X127250000Y-89050000D03*
X127250000Y-88550000D03*
X127250000Y-88050000D03*
X127250000Y-87550000D03*
X127250000Y-87050000D03*
D28*
X126550000Y-86350000D03*
X126050000Y-86350000D03*
X125550000Y-86350000D03*
X125050000Y-86350000D03*
X124550000Y-86350000D03*
X124050000Y-86350000D03*
D29*
X123350000Y-87050000D03*
X123350000Y-87550000D03*
X123350000Y-88050000D03*
X123350000Y-88550000D03*
X123350000Y-89050000D03*
X123350000Y-89550000D03*
%TD*%
D20*
%TO.C,J2*%
X127325000Y-93025000D03*
D21*
X127325000Y-95565000D03*
X124785000Y-93025000D03*
X124785000Y-95565000D03*
X122245000Y-93025000D03*
X122245000Y-95565000D03*
%TD*%
D23*
%TO.C,C23*%
X130100000Y-50932500D03*
X130100000Y-52067500D03*
%TD*%
D30*
%TO.C,U2*%
X119650000Y-82205000D03*
X119650000Y-80935000D03*
X119650000Y-79665000D03*
X119650000Y-78395000D03*
X112450000Y-78395000D03*
X112450000Y-79665000D03*
X112450000Y-80935000D03*
X112450000Y-82205000D03*
%TD*%
D15*
%TO.C,R16*%
X128002500Y-59250000D03*
X129197500Y-59250000D03*
%TD*%
D31*
%TO.C,JP2*%
X113800000Y-67200000D03*
D32*
X112500000Y-67200000D03*
D33*
X111200000Y-67200000D03*
%TD*%
D14*
%TO.C,C11*%
X121332500Y-65000000D03*
X122467500Y-65000000D03*
%TD*%
D11*
%TO.C,C15*%
X119567500Y-62650000D03*
X118432500Y-62650000D03*
%TD*%
D20*
%TO.C,J3*%
X117100000Y-100500000D03*
D21*
X117100000Y-97960000D03*
X117100000Y-95420000D03*
X117100000Y-92880000D03*
X117100000Y-90340000D03*
X117100000Y-87800000D03*
X117100000Y-85260000D03*
%TD*%
D34*
%TO.C,U3*%
X115350000Y-60782500D03*
D35*
X117650000Y-54482500D03*
D34*
X117650000Y-60782500D03*
X119950000Y-60782500D03*
%TD*%
D20*
%TO.C,J7*%
X135225000Y-52375000D03*
D21*
X137765000Y-52375000D03*
X135225000Y-54915000D03*
X137765000Y-54915000D03*
X135225000Y-57455000D03*
X137765000Y-57455000D03*
X135225000Y-59995000D03*
X137765000Y-59995000D03*
X135225000Y-62535000D03*
X137765000Y-62535000D03*
X135225000Y-65075000D03*
X137765000Y-65075000D03*
X135225000Y-67615000D03*
X137765000Y-67615000D03*
X135225000Y-70155000D03*
X137765000Y-70155000D03*
X135225000Y-72695000D03*
X137765000Y-72695000D03*
X135225000Y-75235000D03*
X137765000Y-75235000D03*
X135225000Y-77775000D03*
X137765000Y-77775000D03*
X135225000Y-80315000D03*
X137765000Y-80315000D03*
X135225000Y-82855000D03*
X137765000Y-82855000D03*
X135225000Y-85395000D03*
X137765000Y-85395000D03*
X135225000Y-87935000D03*
X137765000Y-87935000D03*
X135225000Y-90475000D03*
X137765000Y-90475000D03*
X135225000Y-93015000D03*
X137765000Y-93015000D03*
X135225000Y-95555000D03*
X137765000Y-95555000D03*
X135225000Y-98095000D03*
X137765000Y-98095000D03*
X135225000Y-100635000D03*
X137765000Y-100635000D03*
%TD*%
D20*
%TO.C,J5*%
X114575000Y-100500000D03*
D21*
X112035000Y-100500000D03*
X114575000Y-97960000D03*
X112035000Y-97960000D03*
X114575000Y-95420000D03*
X112035000Y-95420000D03*
X114575000Y-92880000D03*
X112035000Y-92880000D03*
X114575000Y-90340000D03*
X112035000Y-90340000D03*
X114575000Y-87800000D03*
X112035000Y-87800000D03*
X114575000Y-85260000D03*
X112035000Y-85260000D03*
%TD*%
D36*
%TO.C,C17*%
X122150000Y-87217500D03*
X122150000Y-86082500D03*
%TD*%
D15*
%TO.C,R1*%
X118902500Y-72950000D03*
X120097500Y-72950000D03*
%TD*%
D37*
%TO.C,Y1*%
X131900000Y-74300000D03*
X131900000Y-70600000D03*
%TD*%
D38*
%TO.C,P2*%
X120300000Y-46400000D03*
%TD*%
D11*
%TO.C,C8*%
X120117500Y-65850000D03*
X118982500Y-65850000D03*
%TD*%
D39*
%TO.C,C24*%
X122500000Y-54975000D03*
X122500000Y-52025000D03*
%TD*%
D13*
%TO.C,R10*%
X126770000Y-104300000D03*
X125575000Y-104300000D03*
%TD*%
D40*
%TO.C,U5*%
X128905000Y-52524999D03*
X127635000Y-52524999D03*
X126365000Y-52524999D03*
X125095000Y-52524999D03*
X125095000Y-57974998D03*
X126365000Y-57974998D03*
X127635000Y-57974998D03*
X128905000Y-57974998D03*
D41*
X127000000Y-55250000D03*
D42*
X127000000Y-55900001D03*
X125700000Y-55900001D03*
X125700000Y-54599999D03*
X128300000Y-55900001D03*
X128300000Y-54599999D03*
X127000000Y-54599999D03*
%TD*%
D10*
%TO.C,R13*%
X110700000Y-58302500D03*
X110700000Y-59497500D03*
%TD*%
D43*
%TO.C,L1*%
X131850000Y-63750000D03*
X125450000Y-63750000D03*
%TD*%
D15*
%TO.C,R4*%
X117202500Y-76850000D03*
X118397500Y-76850000D03*
%TD*%
D44*
%TO.C,U6*%
X117750000Y-72987500D03*
D45*
X117825000Y-72450000D03*
D44*
X117750000Y-71912500D03*
X116050000Y-71912500D03*
D45*
X115975000Y-72450000D03*
D44*
X116050000Y-72987500D03*
%TD*%
D13*
%TO.C,R12*%
X126787500Y-108400000D03*
X125592500Y-108400000D03*
%TD*%
D46*
%TO.C,JP1*%
X111200000Y-63900000D03*
D47*
X112500000Y-63900000D03*
%TD*%
D14*
%TO.C,C4*%
X121332500Y-69000000D03*
X122467500Y-69000000D03*
%TD*%
D11*
%TO.C,C12*%
X132467500Y-76000000D03*
X131332500Y-76000000D03*
%TD*%
D12*
%TO.C,D3*%
X126772500Y-107400000D03*
X125627500Y-107400000D03*
%TD*%
D23*
%TO.C,C20*%
X128500000Y-89282500D03*
X128500000Y-90417500D03*
%TD*%
D36*
%TO.C,C18*%
X128500000Y-87967500D03*
X128500000Y-86832500D03*
%TD*%
D48*
%TO.C,J1*%
X114100000Y-71450000D03*
X114100000Y-72100000D03*
X114100000Y-72750000D03*
X114100000Y-73400000D03*
X114100000Y-74050000D03*
D49*
X111400000Y-69850000D03*
D50*
X111400000Y-76250000D03*
X111400000Y-69250000D03*
D51*
X111400000Y-71750000D03*
D52*
X114100000Y-70250000D03*
D49*
X111400000Y-75650000D03*
D51*
X111400000Y-73750000D03*
D52*
X114100000Y-75250000D03*
%TD*%
D13*
%TO.C,R9*%
X125647500Y-59250000D03*
X124452500Y-59250000D03*
%TD*%
D46*
%TO.C,JP3*%
X111200000Y-61400000D03*
D47*
X112500000Y-61400000D03*
%TD*%
D14*
%TO.C,C6*%
X121332500Y-67000000D03*
X122467500Y-67000000D03*
%TD*%
D53*
%TO.C,P3*%
X126500000Y-46400000D03*
%TD*%
D20*
%TO.C,J8*%
X132350000Y-82840000D03*
D21*
X132350000Y-85380000D03*
X132350000Y-87920000D03*
X132350000Y-90460000D03*
X132350000Y-93000000D03*
X132350000Y-95540000D03*
X132350000Y-98080000D03*
X132350000Y-100620000D03*
%TD*%
D38*
%TO.C,P4*%
X123200000Y-46400000D03*
%TD*%
D53*
%TO.C,P1*%
X117000000Y-46400000D03*
%TD*%
D11*
%TO.C,C2*%
X120117500Y-70850000D03*
X118982500Y-70850000D03*
%TD*%
D53*
%TO.C,P5*%
X129400000Y-46400000D03*
%TD*%
D14*
%TO.C,C9*%
X121332500Y-66000000D03*
X122467500Y-66000000D03*
%TD*%
D15*
%TO.C,R2*%
X118902500Y-71950000D03*
X120097500Y-71950000D03*
%TD*%
D27*
%TO.C,D4*%
X110700000Y-56922500D03*
X110700000Y-55777500D03*
%TD*%
M02*
