%TF.GenerationSoftware,KiCad,Pcbnew,(6.0.0-0)*%
%TF.CreationDate,2022-01-13T06:26:05-05:00*%
%TF.ProjectId,piUAV,70695541-562e-46b6-9963-61645f706362,rev?*%
%TF.SameCoordinates,Original*%
%TF.FileFunction,Copper,L1,Top*%
%TF.FilePolarity,Positive*%
%FSLAX46Y46*%
G04 Gerber Fmt 4.6, Leading zero omitted, Abs format (unit mm)*
G04 Created by KiCad (PCBNEW (6.0.0-0)) date 2022-01-13 06:26:05*
%MOMM*%
%LPD*%
G01*
G04 APERTURE LIST*
G04 Aperture macros list*
%AMRoundRect*
0 Rectangle with rounded corners*
0 $1 Rounding radius*
0 $2 $3 $4 $5 $6 $7 $8 $9 X,Y pos of 4 corners*
0 Add a 4 corners polygon primitive as box body*
4,1,4,$2,$3,$4,$5,$6,$7,$8,$9,$2,$3,0*
0 Add four circle primitives for the rounded corners*
1,1,$1+$1,$2,$3*
1,1,$1+$1,$4,$5*
1,1,$1+$1,$6,$7*
1,1,$1+$1,$8,$9*
0 Add four rect primitives between the rounded corners*
20,1,$1+$1,$2,$3,$4,$5,0*
20,1,$1+$1,$4,$5,$6,$7,0*
20,1,$1+$1,$6,$7,$8,$9,0*
20,1,$1+$1,$8,$9,$2,$3,0*%
%AMFreePoly0*
4,1,22,0.550000,-0.750000,0.000000,-0.750000,0.000000,-0.745033,-0.079941,-0.743568,-0.215256,-0.701293,-0.333266,-0.622738,-0.424486,-0.514219,-0.481581,-0.384460,-0.499164,-0.250000,-0.500000,-0.250000,-0.500000,0.250000,-0.499164,0.250000,-0.499963,0.256109,-0.478152,0.396186,-0.417904,0.524511,-0.324060,0.630769,-0.204165,0.706417,-0.067858,0.745374,0.000000,0.744959,0.000000,0.750000,
0.550000,0.750000,0.550000,-0.750000,0.550000,-0.750000,$1*%
%AMFreePoly1*
4,1,20,0.000000,0.744959,0.073905,0.744508,0.209726,0.703889,0.328688,0.626782,0.421226,0.519385,0.479903,0.390333,0.500000,0.250000,0.500000,-0.250000,0.499851,-0.262216,0.476331,-0.402017,0.414519,-0.529596,0.319384,-0.634700,0.198574,-0.708877,0.061801,-0.746166,0.000000,-0.745033,0.000000,-0.750000,-0.550000,-0.750000,-0.550000,0.750000,0.000000,0.750000,0.000000,0.744959,
0.000000,0.744959,$1*%
%AMFreePoly2*
4,1,22,0.500000,-0.750000,0.000000,-0.750000,0.000000,-0.745033,-0.079941,-0.743568,-0.215256,-0.701293,-0.333266,-0.622738,-0.424486,-0.514219,-0.481581,-0.384460,-0.499164,-0.250000,-0.500000,-0.250000,-0.500000,0.250000,-0.499164,0.250000,-0.499963,0.256109,-0.478152,0.396186,-0.417904,0.524511,-0.324060,0.630769,-0.204165,0.706417,-0.067858,0.745374,0.000000,0.744959,0.000000,0.750000,
0.500000,0.750000,0.500000,-0.750000,0.500000,-0.750000,$1*%
%AMFreePoly3*
4,1,20,0.000000,0.744959,0.073905,0.744508,0.209726,0.703889,0.328688,0.626782,0.421226,0.519385,0.479903,0.390333,0.500000,0.250000,0.500000,-0.250000,0.499851,-0.262216,0.476331,-0.402017,0.414519,-0.529596,0.319384,-0.634700,0.198574,-0.708877,0.061801,-0.746166,0.000000,-0.745033,0.000000,-0.750000,-0.500000,-0.750000,-0.500000,0.750000,0.000000,0.750000,0.000000,0.744959,
0.000000,0.744959,$1*%
G04 Aperture macros list end*
%TA.AperFunction,SMDPad,CuDef*%
%ADD10RoundRect,0.160000X-0.160000X0.197500X-0.160000X-0.197500X0.160000X-0.197500X0.160000X0.197500X0*%
%TD*%
%TA.AperFunction,SMDPad,CuDef*%
%ADD11RoundRect,0.155000X0.212500X0.155000X-0.212500X0.155000X-0.212500X-0.155000X0.212500X-0.155000X0*%
%TD*%
%TA.AperFunction,SMDPad,CuDef*%
%ADD12RoundRect,0.160000X0.222500X0.160000X-0.222500X0.160000X-0.222500X-0.160000X0.222500X-0.160000X0*%
%TD*%
%TA.AperFunction,SMDPad,CuDef*%
%ADD13RoundRect,0.160000X0.197500X0.160000X-0.197500X0.160000X-0.197500X-0.160000X0.197500X-0.160000X0*%
%TD*%
%TA.AperFunction,SMDPad,CuDef*%
%ADD14RoundRect,0.155000X-0.212500X-0.155000X0.212500X-0.155000X0.212500X0.155000X-0.212500X0.155000X0*%
%TD*%
%TA.AperFunction,SMDPad,CuDef*%
%ADD15RoundRect,0.160000X-0.197500X-0.160000X0.197500X-0.160000X0.197500X0.160000X-0.197500X0.160000X0*%
%TD*%
%TA.AperFunction,SMDPad,CuDef*%
%ADD16R,1.800000X2.500000*%
%TD*%
%TA.AperFunction,SMDPad,CuDef*%
%ADD17C,1.000000*%
%TD*%
%TA.AperFunction,SMDPad,CuDef*%
%ADD18RoundRect,0.160000X0.160000X-0.197500X0.160000X0.197500X-0.160000X0.197500X-0.160000X-0.197500X0*%
%TD*%
%TA.AperFunction,SMDPad,CuDef*%
%ADD19R,0.650000X1.050000*%
%TD*%
%TA.AperFunction,ComponentPad*%
%ADD20R,1.700000X1.700000*%
%TD*%
%TA.AperFunction,ComponentPad*%
%ADD21O,1.700000X1.700000*%
%TD*%
%TA.AperFunction,SMDPad,CuDef*%
%ADD22O,3.000000X4.000000*%
%TD*%
%TA.AperFunction,SMDPad,CuDef*%
%ADD23RoundRect,0.155000X-0.155000X0.212500X-0.155000X-0.212500X0.155000X-0.212500X0.155000X0.212500X0*%
%TD*%
%TA.AperFunction,SMDPad,CuDef*%
%ADD24RoundRect,0.050000X0.050000X-0.387500X0.050000X0.387500X-0.050000X0.387500X-0.050000X-0.387500X0*%
%TD*%
%TA.AperFunction,SMDPad,CuDef*%
%ADD25RoundRect,0.050000X0.387500X-0.050000X0.387500X0.050000X-0.387500X0.050000X-0.387500X-0.050000X0*%
%TD*%
%TA.AperFunction,ComponentPad*%
%ADD26C,0.600000*%
%TD*%
%TA.AperFunction,SMDPad,CuDef*%
%ADD27RoundRect,0.144000X1.456000X-1.456000X1.456000X1.456000X-1.456000X1.456000X-1.456000X-1.456000X0*%
%TD*%
%TA.AperFunction,SMDPad,CuDef*%
%ADD28RoundRect,0.160000X0.160000X-0.222500X0.160000X0.222500X-0.160000X0.222500X-0.160000X-0.222500X0*%
%TD*%
%TA.AperFunction,SMDPad,CuDef*%
%ADD29RoundRect,0.075000X0.075000X-0.350000X0.075000X0.350000X-0.075000X0.350000X-0.075000X-0.350000X0*%
%TD*%
%TA.AperFunction,SMDPad,CuDef*%
%ADD30RoundRect,0.075000X0.350000X0.075000X-0.350000X0.075000X-0.350000X-0.075000X0.350000X-0.075000X0*%
%TD*%
%TA.AperFunction,SMDPad,CuDef*%
%ADD31RoundRect,0.150000X0.650000X0.150000X-0.650000X0.150000X-0.650000X-0.150000X0.650000X-0.150000X0*%
%TD*%
%TA.AperFunction,SMDPad,CuDef*%
%ADD32FreePoly0,180.000000*%
%TD*%
%TA.AperFunction,SMDPad,CuDef*%
%ADD33R,1.000000X1.500000*%
%TD*%
%TA.AperFunction,SMDPad,CuDef*%
%ADD34FreePoly1,180.000000*%
%TD*%
%TA.AperFunction,SMDPad,CuDef*%
%ADD35R,1.500000X2.000000*%
%TD*%
%TA.AperFunction,SMDPad,CuDef*%
%ADD36R,3.800000X2.000000*%
%TD*%
%TA.AperFunction,SMDPad,CuDef*%
%ADD37RoundRect,0.155000X0.155000X-0.212500X0.155000X0.212500X-0.155000X0.212500X-0.155000X-0.212500X0*%
%TD*%
%TA.AperFunction,SMDPad,CuDef*%
%ADD38R,2.400000X1.700000*%
%TD*%
%TA.AperFunction,SMDPad,CuDef*%
%ADD39O,2.500000X4.000000*%
%TD*%
%TA.AperFunction,SMDPad,CuDef*%
%ADD40RoundRect,0.250000X0.650000X-0.325000X0.650000X0.325000X-0.650000X0.325000X-0.650000X-0.325000X0*%
%TD*%
%TA.AperFunction,SMDPad,CuDef*%
%ADD41R,0.599999X1.450000*%
%TD*%
%TA.AperFunction,SMDPad,CuDef*%
%ADD42R,3.099999X2.400000*%
%TD*%
%TA.AperFunction,ComponentPad*%
%ADD43C,0.499999*%
%TD*%
%TA.AperFunction,SMDPad,CuDef*%
%ADD44R,1.500000X2.200000*%
%TD*%
%TA.AperFunction,SMDPad,CuDef*%
%ADD45R,0.500000X0.375000*%
%TD*%
%TA.AperFunction,SMDPad,CuDef*%
%ADD46R,0.650000X0.300000*%
%TD*%
%TA.AperFunction,SMDPad,CuDef*%
%ADD47FreePoly2,0.000000*%
%TD*%
%TA.AperFunction,SMDPad,CuDef*%
%ADD48FreePoly3,0.000000*%
%TD*%
%TA.AperFunction,SMDPad,CuDef*%
%ADD49R,1.350000X0.400000*%
%TD*%
%TA.AperFunction,SMDPad,CuDef*%
%ADD50R,1.550000X1.200000*%
%TD*%
%TA.AperFunction,ComponentPad*%
%ADD51O,1.550000X0.890000*%
%TD*%
%TA.AperFunction,SMDPad,CuDef*%
%ADD52R,1.550000X1.500000*%
%TD*%
%TA.AperFunction,ComponentPad*%
%ADD53O,0.950000X1.250000*%
%TD*%
%TA.AperFunction,SMDPad,CuDef*%
%ADD54RoundRect,0.625000X-0.625000X-1.375000X0.625000X-1.375000X0.625000X1.375000X-0.625000X1.375000X0*%
%TD*%
%TA.AperFunction,ViaPad*%
%ADD55C,0.800000*%
%TD*%
%TA.AperFunction,Conductor*%
%ADD56C,0.200000*%
%TD*%
%TA.AperFunction,Conductor*%
%ADD57C,0.400000*%
%TD*%
%TA.AperFunction,Conductor*%
%ADD58C,0.300000*%
%TD*%
%TA.AperFunction,Conductor*%
%ADD59C,0.250000*%
%TD*%
%TA.AperFunction,Conductor*%
%ADD60C,0.800000*%
%TD*%
G04 APERTURE END LIST*
%TO.C,JP2*%
G36*
X113400000Y-67500000D02*
G01*
X112900000Y-67500000D01*
X112900000Y-66900000D01*
X113400000Y-66900000D01*
X113400000Y-67500000D01*
G37*
%TD*%
D10*
%TO.P,R14,1*%
%TO.N,Net-(D5-Pad1)*%
X112400000Y-58302500D03*
%TO.P,R14,2*%
%TO.N,GND*%
X112400000Y-59497500D03*
%TD*%
D11*
%TO.P,C3,1*%
%TO.N,+1V1*%
X120117500Y-69850000D03*
%TO.P,C3,2*%
%TO.N,GND*%
X118982500Y-69850000D03*
%TD*%
D12*
%TO.P,D2,1,K*%
%TO.N,Net-(D2-Pad1)*%
X126752500Y-105400000D03*
%TO.P,D2,2,A*%
%TO.N,FC_STATUS_RED*%
X125607500Y-105400000D03*
%TD*%
D13*
%TO.P,R6,1*%
%TO.N,3V3_IO*%
X125800000Y-83950000D03*
%TO.P,R6,2*%
%TO.N,FC_I2C0_SCL*%
X124605000Y-83950000D03*
%TD*%
D14*
%TO.P,C21,1*%
%TO.N,VCC*%
X127632500Y-51050000D03*
%TO.P,C21,2*%
%TO.N,GND*%
X128767500Y-51050000D03*
%TD*%
D11*
%TO.P,C10,1*%
%TO.N,/3V_MCU*%
X120117500Y-64850000D03*
%TO.P,C10,2*%
%TO.N,GND*%
X118982500Y-64850000D03*
%TD*%
D15*
%TO.P,R8,1*%
%TO.N,Net-(R8-Pad1)*%
X125102500Y-51050000D03*
%TO.P,R8,2*%
%TO.N,GND*%
X126297500Y-51050000D03*
%TD*%
D16*
%TO.P,D6,1,K*%
%TO.N,Net-(C23-Pad2)*%
X131600000Y-58150000D03*
%TO.P,D6,2,A*%
%TO.N,GND*%
X131600000Y-54150000D03*
%TD*%
D17*
%TO.P,TP2,1,1*%
%TO.N,VCC*%
X111100000Y-52400000D03*
%TD*%
D18*
%TO.P,R5,1*%
%TO.N,FC_XOUT*%
X129600000Y-73747500D03*
%TO.P,R5,2*%
%TO.N,Net-(C13-Pad1)*%
X129600000Y-72552500D03*
%TD*%
D17*
%TO.P,TP1,1,1*%
%TO.N,GND*%
X112800000Y-52400000D03*
%TD*%
D12*
%TO.P,D1,1,K*%
%TO.N,Net-(D1-Pad1)*%
X126745000Y-103300000D03*
%TO.P,D1,2,A*%
%TO.N,FC_STATUS_BLUE*%
X125600000Y-103300000D03*
%TD*%
D18*
%TO.P,R15,1*%
%TO.N,Net-(R15-Pad1)*%
X123250000Y-57997500D03*
%TO.P,R15,2*%
%TO.N,GND*%
X123250000Y-56802500D03*
%TD*%
D19*
%TO.P,SW2,1,1*%
%TO.N,FC_RUN*%
X117125000Y-107275000D03*
X117125000Y-103125000D03*
%TO.P,SW2,2,2*%
%TO.N,GND*%
X119275000Y-107275000D03*
X119275000Y-103125000D03*
%TD*%
D13*
%TO.P,R3,1*%
%TO.N,FC_QSPI_SS*%
X119347500Y-75800000D03*
%TO.P,R3,2*%
%TO.N,FC_BOOTSEL*%
X118152500Y-75800000D03*
%TD*%
D11*
%TO.P,C19,1*%
%TO.N,GND*%
X128120000Y-85100000D03*
%TO.P,C19,2*%
%TO.N,3V3_IO*%
X126985000Y-85100000D03*
%TD*%
D20*
%TO.P,J6,1,Pin_1*%
%TO.N,3V3_IO*%
X122225000Y-100600000D03*
D21*
%TO.P,J6,2,Pin_2*%
%TO.N,GND*%
X122225000Y-98060000D03*
%TO.P,J6,3,Pin_3*%
%TO.N,+5V*%
X124765000Y-100600000D03*
%TO.P,J6,4,Pin_4*%
%TO.N,GND*%
X124765000Y-98060000D03*
%TO.P,J6,5,Pin_5*%
%TO.N,+5V*%
X127305000Y-100600000D03*
%TO.P,J6,6,Pin_6*%
%TO.N,GND*%
X127305000Y-98060000D03*
%TD*%
D19*
%TO.P,SW1,1,1*%
%TO.N,FC_BOOTSEL*%
X130825000Y-107375000D03*
X130825000Y-103225000D03*
%TO.P,SW1,2,2*%
%TO.N,GND*%
X132975000Y-103225000D03*
X132975000Y-107375000D03*
%TD*%
D11*
%TO.P,C1,1*%
%TO.N,+1V1*%
X120117500Y-68850000D03*
%TO.P,C1,2*%
%TO.N,GND*%
X118982500Y-68850000D03*
%TD*%
%TO.P,C7,1*%
%TO.N,/3V_MCU*%
X120117500Y-66850000D03*
%TO.P,C7,2*%
%TO.N,GND*%
X118982500Y-66850000D03*
%TD*%
%TO.P,C13,1*%
%TO.N,Net-(C13-Pad1)*%
X132467500Y-68900000D03*
%TO.P,C13,2*%
%TO.N,GND*%
X131332500Y-68900000D03*
%TD*%
%TO.P,C16,1*%
%TO.N,+3V3*%
X117217500Y-62632500D03*
%TO.P,C16,2*%
%TO.N,GND*%
X116082500Y-62632500D03*
%TD*%
D14*
%TO.P,C5,1*%
%TO.N,/3V_MCU*%
X121332500Y-68000000D03*
%TO.P,C5,2*%
%TO.N,GND*%
X122467500Y-68000000D03*
%TD*%
D22*
%TO.P,P6,1,PAD*%
%TO.N,GND*%
X133000000Y-46400000D03*
%TD*%
D23*
%TO.P,C14,1*%
%TO.N,3V3_IO*%
X110700000Y-81682500D03*
%TO.P,C14,2*%
%TO.N,GND*%
X110700000Y-82817500D03*
%TD*%
D24*
%TO.P,U1,1,IOVDD*%
%TO.N,/3V_MCU*%
X122400000Y-77187500D03*
%TO.P,U1,2,GPIO0*%
%TO.N,FC_SPI0_MISO*%
X122800000Y-77187500D03*
%TO.P,U1,3,GPIO1*%
%TO.N,FC_SPI0_CS*%
X123200000Y-77187500D03*
%TO.P,U1,4,GPIO2*%
%TO.N,FC_SPI0_SCK*%
X123600000Y-77187500D03*
%TO.P,U1,5,GPIO3*%
%TO.N,FC_SPI0_MOSI*%
X124000000Y-77187500D03*
%TO.P,U1,6,GPIO4*%
%TO.N,FC_I2C0_SDA*%
X124400000Y-77187500D03*
%TO.P,U1,7,GPIO5*%
%TO.N,FC_I2C0_SCL*%
X124800000Y-77187500D03*
%TO.P,U1,8,GPIO6*%
%TO.N,FC_RADIO_PPM*%
X125200000Y-77187500D03*
%TO.P,U1,9,GPIO7*%
%TO.N,FC_SERVO_7*%
X125600000Y-77187500D03*
%TO.P,U1,10,IOVDD*%
%TO.N,/3V_MCU*%
X126000000Y-77187500D03*
%TO.P,U1,11,GPIO8*%
%TO.N,FC_UART1_TX*%
X126400000Y-77187500D03*
%TO.P,U1,12,GPIO9*%
%TO.N,FC_UART1_RX*%
X126800000Y-77187500D03*
%TO.P,U1,13,GPIO10*%
%TO.N,FC_SERVO_6*%
X127200000Y-77187500D03*
%TO.P,U1,14,GPIO11*%
%TO.N,FC_SERVO_5*%
X127600000Y-77187500D03*
D25*
%TO.P,U1,15,GPIO12*%
%TO.N,FC_SERVO_4*%
X128437500Y-76350000D03*
%TO.P,U1,16,GPIO13*%
%TO.N,FC_SERVO_3*%
X128437500Y-75950000D03*
%TO.P,U1,17,GPIO14*%
%TO.N,FC_SERVO_2*%
X128437500Y-75550000D03*
%TO.P,U1,18,GPIO15*%
%TO.N,FC_SERVO_1*%
X128437500Y-75150000D03*
%TO.P,U1,19,TESTEN*%
%TO.N,GND*%
X128437500Y-74750000D03*
%TO.P,U1,20,XIN*%
%TO.N,FC_XIN*%
X128437500Y-74350000D03*
%TO.P,U1,21,XOUT*%
%TO.N,FC_XOUT*%
X128437500Y-73950000D03*
%TO.P,U1,22,IOVDD*%
%TO.N,/3V_MCU*%
X128437500Y-73550000D03*
%TO.P,U1,23,DVDD*%
%TO.N,+1V1*%
X128437500Y-73150000D03*
%TO.P,U1,24,SWCLK*%
%TO.N,FC_SWCLK*%
X128437500Y-72750000D03*
%TO.P,U1,25,SWD*%
%TO.N,FC_SWD*%
X128437500Y-72350000D03*
%TO.P,U1,26,RUN*%
%TO.N,FC_RUN*%
X128437500Y-71950000D03*
%TO.P,U1,27,GPIO16*%
%TO.N,FC_UART0_TX*%
X128437500Y-71550000D03*
%TO.P,U1,28,GPIO17*%
%TO.N,FC_UART0_RX*%
X128437500Y-71150000D03*
D24*
%TO.P,U1,29,GPIO18*%
%TO.N,FC_GPIO18*%
X127600000Y-70312500D03*
%TO.P,U1,30,GPIO19*%
%TO.N,FC_GPIO19*%
X127200000Y-70312500D03*
%TO.P,U1,31,GPIO20*%
%TO.N,FC_GPIO20*%
X126800000Y-70312500D03*
%TO.P,U1,32,GPIO21*%
%TO.N,FC_STATUS_RED*%
X126400000Y-70312500D03*
%TO.P,U1,33,IOVDD*%
%TO.N,/3V_MCU*%
X126000000Y-70312500D03*
%TO.P,U1,34,GPIO22*%
%TO.N,FC_STATUS_GREEN*%
X125600000Y-70312500D03*
%TO.P,U1,35,GPIO23*%
%TO.N,FC_STATUS_BLUE*%
X125200000Y-70312500D03*
%TO.P,U1,36,GPIO24*%
%TO.N,FC_GPIO24*%
X124800000Y-70312500D03*
%TO.P,U1,37,GPIO25*%
%TO.N,FC_GPIO25*%
X124400000Y-70312500D03*
%TO.P,U1,38,GPIO26_ADC0*%
%TO.N,3V3_IO*%
X124000000Y-70312500D03*
%TO.P,U1,39,GPIO27_ADC1*%
X123600000Y-70312500D03*
%TO.P,U1,40,GPIO28_ADC2*%
%TO.N,FC_GPIO28_ADC2*%
X123200000Y-70312500D03*
%TO.P,U1,41,GPIO29_ADC3*%
%TO.N,FC_GPIO29_ADC3*%
X122800000Y-70312500D03*
%TO.P,U1,42,IOVDD*%
%TO.N,/3V_MCU*%
X122400000Y-70312500D03*
D25*
%TO.P,U1,43,ADC_AVDD*%
X121562500Y-71150000D03*
%TO.P,U1,44,VREG_IN*%
X121562500Y-71550000D03*
%TO.P,U1,45,VREG_VOUT*%
%TO.N,+1V1*%
X121562500Y-71950000D03*
%TO.P,U1,46,USB_DM*%
%TO.N,/USB-*%
X121562500Y-72350000D03*
%TO.P,U1,47,USB_DP*%
%TO.N,/USB+*%
X121562500Y-72750000D03*
%TO.P,U1,48,USB_VDD*%
%TO.N,/3V_MCU*%
X121562500Y-73150000D03*
%TO.P,U1,49,IOVDD*%
X121562500Y-73550000D03*
%TO.P,U1,50,DVDD*%
%TO.N,+1V1*%
X121562500Y-73950000D03*
%TO.P,U1,51,QSPI_SD3*%
%TO.N,FC_QSPI_SD3*%
X121562500Y-74350000D03*
%TO.P,U1,52,QSPI_SCLK*%
%TO.N,FC_QSPI_SCLK*%
X121562500Y-74750000D03*
%TO.P,U1,53,QSPI_SD0*%
%TO.N,FC_QSPI_SD0*%
X121562500Y-75150000D03*
%TO.P,U1,54,QSPI_SD2*%
%TO.N,FC_QSPI_SD2*%
X121562500Y-75550000D03*
%TO.P,U1,55,QSPI_SD1*%
%TO.N,FC_QSPI_SD1*%
X121562500Y-75950000D03*
%TO.P,U1,56,QSPI_SS*%
%TO.N,FC_QSPI_SS*%
X121562500Y-76350000D03*
D26*
%TO.P,U1,57,GND*%
%TO.N,GND*%
X125000000Y-73750000D03*
X126275000Y-75025000D03*
X125000000Y-75025000D03*
X126275000Y-72475000D03*
X126275000Y-73750000D03*
X125000000Y-72475000D03*
X123725000Y-72475000D03*
D27*
X125000000Y-73750000D03*
D26*
X123725000Y-75025000D03*
X123725000Y-73750000D03*
%TD*%
D13*
%TO.P,R11,1*%
%TO.N,Net-(D2-Pad1)*%
X126777500Y-106400000D03*
%TO.P,R11,2*%
%TO.N,GND*%
X125582500Y-106400000D03*
%TD*%
%TO.P,R7,1*%
%TO.N,3V3_IO*%
X125850000Y-85100000D03*
%TO.P,R7,2*%
%TO.N,FC_I2C0_SDA*%
X124655000Y-85100000D03*
%TD*%
D28*
%TO.P,D5,1,K*%
%TO.N,Net-(D5-Pad1)*%
X112400000Y-56920000D03*
%TO.P,D5,2,A*%
%TO.N,+5V*%
X112400000Y-55775000D03*
%TD*%
D29*
%TO.P,U4,1,CLKIN*%
%TO.N,GND*%
X124050000Y-90250000D03*
%TO.P,U4,2*%
%TO.N,N/C*%
X124550000Y-90250000D03*
%TO.P,U4,3*%
X125050000Y-90250000D03*
%TO.P,U4,4*%
X125550000Y-90250000D03*
%TO.P,U4,5*%
X126050000Y-90250000D03*
%TO.P,U4,6,AUX_SDA*%
%TO.N,unconnected-(U4-Pad6)*%
X126550000Y-90250000D03*
D30*
%TO.P,U4,7,AUX_SCL*%
%TO.N,unconnected-(U4-Pad7)*%
X127250000Y-89550000D03*
%TO.P,U4,8,VDDIO*%
%TO.N,3V3_IO*%
X127250000Y-89050000D03*
%TO.P,U4,9,AD0*%
%TO.N,unconnected-(U4-Pad9)*%
X127250000Y-88550000D03*
%TO.P,U4,10,REGOUT*%
%TO.N,Net-(C18-Pad1)*%
X127250000Y-88050000D03*
%TO.P,U4,11,FSYNC*%
%TO.N,GND*%
X127250000Y-87550000D03*
%TO.P,U4,12,INT*%
%TO.N,unconnected-(U4-Pad12)*%
X127250000Y-87050000D03*
D29*
%TO.P,U4,13,VDD*%
%TO.N,3V3_IO*%
X126550000Y-86350000D03*
%TO.P,U4,14*%
%TO.N,N/C*%
X126050000Y-86350000D03*
%TO.P,U4,15*%
X125550000Y-86350000D03*
%TO.P,U4,16*%
X125050000Y-86350000D03*
%TO.P,U4,17*%
X124550000Y-86350000D03*
%TO.P,U4,18,GND*%
%TO.N,GND*%
X124050000Y-86350000D03*
D30*
%TO.P,U4,19*%
%TO.N,N/C*%
X123350000Y-87050000D03*
%TO.P,U4,20,CPOUT*%
%TO.N,Net-(C17-Pad1)*%
X123350000Y-87550000D03*
%TO.P,U4,21*%
%TO.N,N/C*%
X123350000Y-88050000D03*
%TO.P,U4,22*%
X123350000Y-88550000D03*
%TO.P,U4,23,SCL*%
%TO.N,FC_I2C0_SCL*%
X123350000Y-89050000D03*
%TO.P,U4,24,SDA*%
%TO.N,FC_I2C0_SDA*%
X123350000Y-89550000D03*
%TD*%
D20*
%TO.P,J2,1,Pin_1*%
%TO.N,3V3_IO*%
X127325000Y-93025000D03*
D21*
%TO.P,J2,2,Pin_2*%
X127325000Y-95565000D03*
%TO.P,J2,3,Pin_3*%
%TO.N,FC_UART1_TX*%
X124785000Y-93025000D03*
%TO.P,J2,4,Pin_4*%
%TO.N,FC_UART1_RX*%
X124785000Y-95565000D03*
%TO.P,J2,5,Pin_5*%
%TO.N,FC_UART0_TX*%
X122245000Y-93025000D03*
%TO.P,J2,6,Pin_6*%
%TO.N,FC_UART0_RX*%
X122245000Y-95565000D03*
%TD*%
D23*
%TO.P,C23,1*%
%TO.N,Net-(C23-Pad1)*%
X130100000Y-50932500D03*
%TO.P,C23,2*%
%TO.N,Net-(C23-Pad2)*%
X130100000Y-52067500D03*
%TD*%
D31*
%TO.P,U2,1,~{CS}*%
%TO.N,FC_QSPI_SS*%
X119650000Y-82205000D03*
%TO.P,U2,2,DO(IO1)*%
%TO.N,FC_QSPI_SD1*%
X119650000Y-80935000D03*
%TO.P,U2,3,IO2*%
%TO.N,FC_QSPI_SD2*%
X119650000Y-79665000D03*
%TO.P,U2,4,GND*%
%TO.N,GND*%
X119650000Y-78395000D03*
%TO.P,U2,5,DI(IO0)*%
%TO.N,FC_QSPI_SD0*%
X112450000Y-78395000D03*
%TO.P,U2,6,CLK*%
%TO.N,FC_QSPI_SCLK*%
X112450000Y-79665000D03*
%TO.P,U2,7,IO3*%
%TO.N,FC_QSPI_SD3*%
X112450000Y-80935000D03*
%TO.P,U2,8,VCC*%
%TO.N,3V3_IO*%
X112450000Y-82205000D03*
%TD*%
D15*
%TO.P,R16,1*%
%TO.N,Net-(R16-Pad1)*%
X128002500Y-59250000D03*
%TO.P,R16,2*%
%TO.N,+5V*%
X129197500Y-59250000D03*
%TD*%
D32*
%TO.P,JP2,1,A*%
%TO.N,FC_USB_VBUS*%
X113800000Y-67200000D03*
D33*
%TO.P,JP2,2,C*%
%TO.N,REG_5VIN*%
X112500000Y-67200000D03*
D34*
%TO.P,JP2,3,B*%
%TO.N,+5V*%
X111200000Y-67200000D03*
%TD*%
D14*
%TO.P,C11,1*%
%TO.N,/3V_MCU*%
X121332500Y-65000000D03*
%TO.P,C11,2*%
%TO.N,GND*%
X122467500Y-65000000D03*
%TD*%
D11*
%TO.P,C15,1*%
%TO.N,REG_5VIN*%
X119567500Y-62650000D03*
%TO.P,C15,2*%
%TO.N,GND*%
X118432500Y-62650000D03*
%TD*%
D20*
%TO.P,J3,1,Pin_1*%
%TO.N,FC_SERVO_1*%
X117100000Y-100500000D03*
D21*
%TO.P,J3,2,Pin_2*%
%TO.N,FC_SERVO_2*%
X117100000Y-97960000D03*
%TO.P,J3,3,Pin_3*%
%TO.N,FC_SERVO_3*%
X117100000Y-95420000D03*
%TO.P,J3,4,Pin_4*%
%TO.N,FC_SERVO_4*%
X117100000Y-92880000D03*
%TO.P,J3,5,Pin_5*%
%TO.N,FC_SERVO_5*%
X117100000Y-90340000D03*
%TO.P,J3,6,Pin_6*%
%TO.N,FC_SERVO_6*%
X117100000Y-87800000D03*
%TO.P,J3,7,Pin_7*%
%TO.N,FC_RADIO_PPM*%
X117100000Y-85260000D03*
%TD*%
D35*
%TO.P,U3,1,GND*%
%TO.N,GND*%
X115350000Y-60782500D03*
D36*
%TO.P,U3,2,VO*%
%TO.N,+3V3*%
X117650000Y-54482500D03*
D35*
X117650000Y-60782500D03*
%TO.P,U3,3,VI*%
%TO.N,REG_5VIN*%
X119950000Y-60782500D03*
%TD*%
D20*
%TO.P,J7,1,Pin_1*%
%TO.N,+3V3*%
X135225000Y-52375000D03*
D21*
%TO.P,J7,2,Pin_2*%
%TO.N,REG_5VIN*%
X137765000Y-52375000D03*
%TO.P,J7,3,Pin_3*%
%TO.N,unconnected-(J7-Pad3)*%
X135225000Y-54915000D03*
%TO.P,J7,4,Pin_4*%
%TO.N,REG_5VIN*%
X137765000Y-54915000D03*
%TO.P,J7,5,Pin_5*%
%TO.N,unconnected-(J7-Pad5)*%
X135225000Y-57455000D03*
%TO.P,J7,6,Pin_6*%
%TO.N,GND*%
X137765000Y-57455000D03*
%TO.P,J7,7,Pin_7*%
%TO.N,unconnected-(J7-Pad7)*%
X135225000Y-59995000D03*
%TO.P,J7,8,Pin_8*%
%TO.N,Net-(J7-Pad8)*%
X137765000Y-59995000D03*
%TO.P,J7,9,Pin_9*%
%TO.N,unconnected-(J7-Pad9)*%
X135225000Y-62535000D03*
%TO.P,J7,10,Pin_10*%
%TO.N,Net-(J7-Pad10)*%
X137765000Y-62535000D03*
%TO.P,J7,11,Pin_11*%
%TO.N,DISP_RESET*%
X135225000Y-65075000D03*
%TO.P,J7,12,Pin_12*%
%TO.N,unconnected-(J7-Pad12)*%
X137765000Y-65075000D03*
%TO.P,J7,13,Pin_13*%
%TO.N,unconnected-(J7-Pad13)*%
X135225000Y-67615000D03*
%TO.P,J7,14,Pin_14*%
%TO.N,GND*%
X137765000Y-67615000D03*
%TO.P,J7,15,Pin_15*%
%TO.N,unconnected-(J7-Pad15)*%
X135225000Y-70155000D03*
%TO.P,J7,16,Pin_16*%
%TO.N,unconnected-(J7-Pad16)*%
X137765000Y-70155000D03*
%TO.P,J7,17,Pin_17*%
%TO.N,DISP_VCC*%
X135225000Y-72695000D03*
%TO.P,J7,18,Pin_18*%
%TO.N,DISP_BUSY*%
X137765000Y-72695000D03*
%TO.P,J7,19,Pin_19*%
%TO.N,DISP_DIN*%
X135225000Y-75235000D03*
%TO.P,J7,20,Pin_20*%
%TO.N,DISP_GND*%
X137765000Y-75235000D03*
%TO.P,J7,21,Pin_21*%
%TO.N,unconnected-(J7-Pad21)*%
X135225000Y-77775000D03*
%TO.P,J7,22,Pin_22*%
%TO.N,DISP_DC*%
X137765000Y-77775000D03*
%TO.P,J7,23,Pin_23*%
%TO.N,DISP_CLK*%
X135225000Y-80315000D03*
%TO.P,J7,24,Pin_24*%
%TO.N,DISP_CS*%
X137765000Y-80315000D03*
%TO.P,J7,25,Pin_25*%
%TO.N,GND*%
X135225000Y-82855000D03*
%TO.P,J7,26,Pin_26*%
%TO.N,unconnected-(J7-Pad26)*%
X137765000Y-82855000D03*
%TO.P,J7,27,Pin_27*%
%TO.N,unconnected-(J7-Pad27)*%
X135225000Y-85395000D03*
%TO.P,J7,28,Pin_28*%
%TO.N,unconnected-(J7-Pad28)*%
X137765000Y-85395000D03*
%TO.P,J7,29,Pin_29*%
%TO.N,unconnected-(J7-Pad29)*%
X135225000Y-87935000D03*
%TO.P,J7,30,Pin_30*%
%TO.N,GND*%
X137765000Y-87935000D03*
%TO.P,J7,31,Pin_31*%
%TO.N,unconnected-(J7-Pad31)*%
X135225000Y-90475000D03*
%TO.P,J7,32,Pin_32*%
%TO.N,unconnected-(J7-Pad32)*%
X137765000Y-90475000D03*
%TO.P,J7,33,Pin_33*%
%TO.N,unconnected-(J7-Pad33)*%
X135225000Y-93015000D03*
%TO.P,J7,34,Pin_34*%
%TO.N,GND*%
X137765000Y-93015000D03*
%TO.P,J7,35,Pin_35*%
%TO.N,unconnected-(J7-Pad35)*%
X135225000Y-95555000D03*
%TO.P,J7,36,Pin_36*%
%TO.N,unconnected-(J7-Pad36)*%
X137765000Y-95555000D03*
%TO.P,J7,37,Pin_37*%
%TO.N,unconnected-(J7-Pad37)*%
X135225000Y-98095000D03*
%TO.P,J7,38,Pin_38*%
%TO.N,unconnected-(J7-Pad38)*%
X137765000Y-98095000D03*
%TO.P,J7,39,Pin_39*%
%TO.N,GND*%
X135225000Y-100635000D03*
%TO.P,J7,40,Pin_40*%
%TO.N,unconnected-(J7-Pad40)*%
X137765000Y-100635000D03*
%TD*%
D20*
%TO.P,J5,1,Pin_1*%
%TO.N,GND*%
X114575000Y-100500000D03*
D21*
%TO.P,J5,2,Pin_2*%
%TO.N,+5V*%
X112035000Y-100500000D03*
%TO.P,J5,3,Pin_3*%
%TO.N,GND*%
X114575000Y-97960000D03*
%TO.P,J5,4,Pin_4*%
%TO.N,+5V*%
X112035000Y-97960000D03*
%TO.P,J5,5,Pin_5*%
%TO.N,GND*%
X114575000Y-95420000D03*
%TO.P,J5,6,Pin_6*%
%TO.N,+5V*%
X112035000Y-95420000D03*
%TO.P,J5,7,Pin_7*%
%TO.N,GND*%
X114575000Y-92880000D03*
%TO.P,J5,8,Pin_8*%
%TO.N,+5V*%
X112035000Y-92880000D03*
%TO.P,J5,9,Pin_9*%
%TO.N,GND*%
X114575000Y-90340000D03*
%TO.P,J5,10,Pin_10*%
%TO.N,+5V*%
X112035000Y-90340000D03*
%TO.P,J5,11,Pin_11*%
%TO.N,GND*%
X114575000Y-87800000D03*
%TO.P,J5,12,Pin_12*%
%TO.N,+5V*%
X112035000Y-87800000D03*
%TO.P,J5,13,Pin_13*%
%TO.N,GND*%
X114575000Y-85260000D03*
%TO.P,J5,14,Pin_14*%
%TO.N,+5V*%
X112035000Y-85260000D03*
%TD*%
D37*
%TO.P,C17,1*%
%TO.N,Net-(C17-Pad1)*%
X122150000Y-87217500D03*
%TO.P,C17,2*%
%TO.N,GND*%
X122150000Y-86082500D03*
%TD*%
D15*
%TO.P,R1,1*%
%TO.N,FC_USB_D+*%
X118902500Y-72950000D03*
%TO.P,R1,2*%
%TO.N,/USB+*%
X120097500Y-72950000D03*
%TD*%
D38*
%TO.P,Y1,1,1*%
%TO.N,FC_XIN*%
X131900000Y-74300000D03*
%TO.P,Y1,2,2*%
%TO.N,Net-(C13-Pad1)*%
X131900000Y-70600000D03*
%TD*%
D39*
%TO.P,P2,1,PAD*%
%TO.N,GND*%
X120300000Y-46400000D03*
%TD*%
D11*
%TO.P,C8,1*%
%TO.N,/3V_MCU*%
X120117500Y-65850000D03*
%TO.P,C8,2*%
%TO.N,GND*%
X118982500Y-65850000D03*
%TD*%
D40*
%TO.P,C24,1*%
%TO.N,+5V*%
X122500000Y-54975000D03*
%TO.P,C24,2*%
%TO.N,GND*%
X122500000Y-52025000D03*
%TD*%
D13*
%TO.P,R10,1*%
%TO.N,Net-(D1-Pad1)*%
X126770000Y-104300000D03*
%TO.P,R10,2*%
%TO.N,GND*%
X125575000Y-104300000D03*
%TD*%
D41*
%TO.P,U5,1,BOOT*%
%TO.N,Net-(C23-Pad1)*%
X128905000Y-52524999D03*
%TO.P,U5,2,VIN*%
%TO.N,VCC*%
X127635000Y-52524999D03*
%TO.P,U5,3,EN*%
%TO.N,unconnected-(U5-Pad3)*%
X126365000Y-52524999D03*
%TO.P,U5,4,RT_SYNC*%
%TO.N,Net-(R8-Pad1)*%
X125095000Y-52524999D03*
%TO.P,U5,5,FB*%
%TO.N,Net-(R15-Pad1)*%
X125095000Y-57974998D03*
%TO.P,U5,6,PWRGD*%
%TO.N,Net-(R16-Pad1)*%
X126365000Y-57974998D03*
%TO.P,U5,7,GND*%
%TO.N,GND*%
X127635000Y-57974998D03*
%TO.P,U5,8,SW*%
%TO.N,Net-(C23-Pad2)*%
X128905000Y-57974998D03*
D42*
%TO.P,U5,9,PAD*%
%TO.N,GND*%
X127000000Y-55250000D03*
D43*
%TO.P,U5,V*%
%TO.N,N/C*%
X127000000Y-55900001D03*
X125700000Y-55900001D03*
X125700000Y-54599999D03*
X128300000Y-55900001D03*
X128300000Y-54599999D03*
X127000000Y-54599999D03*
%TD*%
D10*
%TO.P,R13,1*%
%TO.N,Net-(D4-Pad1)*%
X110700000Y-58302500D03*
%TO.P,R13,2*%
%TO.N,GND*%
X110700000Y-59497500D03*
%TD*%
D44*
%TO.P,L1,1*%
%TO.N,Net-(C23-Pad2)*%
X131850000Y-63750000D03*
%TO.P,L1,2*%
%TO.N,+5V*%
X125450000Y-63750000D03*
%TD*%
D15*
%TO.P,R4,1*%
%TO.N,3V3_IO*%
X117202500Y-76850000D03*
%TO.P,R4,2*%
%TO.N,FC_QSPI_SS*%
X118397500Y-76850000D03*
%TD*%
D45*
%TO.P,U6,1,I/O1*%
%TO.N,FC_USB_D+*%
X117750000Y-72987500D03*
D46*
%TO.P,U6,2,GND*%
%TO.N,GND*%
X117825000Y-72450000D03*
D45*
%TO.P,U6,3,I/O2*%
%TO.N,FC_USB_D-*%
X117750000Y-71912500D03*
%TO.P,U6,4,I/O2*%
%TO.N,Net-(J1-Pad2)*%
X116050000Y-71912500D03*
D46*
%TO.P,U6,5,VBUS*%
%TO.N,FC_USB_VBUS*%
X115975000Y-72450000D03*
D45*
%TO.P,U6,6,I/O1*%
%TO.N,Net-(J1-Pad3)*%
X116050000Y-72987500D03*
%TD*%
D13*
%TO.P,R12,1*%
%TO.N,Net-(D3-Pad1)*%
X126787500Y-108400000D03*
%TO.P,R12,2*%
%TO.N,GND*%
X125592500Y-108400000D03*
%TD*%
D47*
%TO.P,JP1,1,A*%
%TO.N,+3V3*%
X111200000Y-63900000D03*
D48*
%TO.P,JP1,2,B*%
%TO.N,/3V_MCU*%
X112500000Y-63900000D03*
%TD*%
D14*
%TO.P,C4,1*%
%TO.N,/3V_MCU*%
X121332500Y-69000000D03*
%TO.P,C4,2*%
%TO.N,GND*%
X122467500Y-69000000D03*
%TD*%
D11*
%TO.P,C12,1*%
%TO.N,FC_XIN*%
X132467500Y-76000000D03*
%TO.P,C12,2*%
%TO.N,GND*%
X131332500Y-76000000D03*
%TD*%
D12*
%TO.P,D3,1,K*%
%TO.N,Net-(D3-Pad1)*%
X126772500Y-107400000D03*
%TO.P,D3,2,A*%
%TO.N,FC_STATUS_GREEN*%
X125627500Y-107400000D03*
%TD*%
D23*
%TO.P,C20,1*%
%TO.N,3V3_IO*%
X128500000Y-89282500D03*
%TO.P,C20,2*%
%TO.N,GND*%
X128500000Y-90417500D03*
%TD*%
D37*
%TO.P,C18,1*%
%TO.N,Net-(C18-Pad1)*%
X128500000Y-87967500D03*
%TO.P,C18,2*%
%TO.N,GND*%
X128500000Y-86832500D03*
%TD*%
D49*
%TO.P,J1,1,VBUS*%
%TO.N,FC_USB_VBUS*%
X114100000Y-71450000D03*
%TO.P,J1,2,D-*%
%TO.N,Net-(J1-Pad2)*%
X114100000Y-72100000D03*
%TO.P,J1,3,D+*%
%TO.N,Net-(J1-Pad3)*%
X114100000Y-72750000D03*
%TO.P,J1,4,ID*%
%TO.N,unconnected-(J1-Pad4)*%
X114100000Y-73400000D03*
%TO.P,J1,5,GND*%
%TO.N,GND*%
X114100000Y-74050000D03*
D50*
%TO.P,J1,6,Shield*%
X111400000Y-69850000D03*
D51*
X111400000Y-76250000D03*
X111400000Y-69250000D03*
D52*
X111400000Y-71750000D03*
D53*
X114100000Y-70250000D03*
D50*
X111400000Y-75650000D03*
D52*
X111400000Y-73750000D03*
D53*
X114100000Y-75250000D03*
%TD*%
D13*
%TO.P,R9,1*%
%TO.N,+5V*%
X125647500Y-59250000D03*
%TO.P,R9,2*%
%TO.N,Net-(R15-Pad1)*%
X124452500Y-59250000D03*
%TD*%
D47*
%TO.P,JP3,1,A*%
%TO.N,+3V3*%
X111200000Y-61400000D03*
D48*
%TO.P,JP3,2,B*%
%TO.N,3V3_IO*%
X112500000Y-61400000D03*
%TD*%
D14*
%TO.P,C6,1*%
%TO.N,/3V_MCU*%
X121332500Y-67000000D03*
%TO.P,C6,2*%
%TO.N,GND*%
X122467500Y-67000000D03*
%TD*%
D54*
%TO.P,P3,1,PAD*%
%TO.N,VCC*%
X126500000Y-46400000D03*
%TD*%
D20*
%TO.P,J8,1,Pin_1*%
%TO.N,DISP_VCC*%
X132350000Y-82840000D03*
D21*
%TO.P,J8,2,Pin_2*%
%TO.N,DISP_GND*%
X132350000Y-85380000D03*
%TO.P,J8,3,Pin_3*%
%TO.N,DISP_DIN*%
X132350000Y-87920000D03*
%TO.P,J8,4,Pin_4*%
%TO.N,DISP_CLK*%
X132350000Y-90460000D03*
%TO.P,J8,5,Pin_5*%
%TO.N,DISP_CS*%
X132350000Y-93000000D03*
%TO.P,J8,6,Pin_6*%
%TO.N,DISP_DC*%
X132350000Y-95540000D03*
%TO.P,J8,7,Pin_7*%
%TO.N,DISP_RESET*%
X132350000Y-98080000D03*
%TO.P,J8,8,Pin_8*%
%TO.N,DISP_BUSY*%
X132350000Y-100620000D03*
%TD*%
D39*
%TO.P,P4,1,PAD*%
%TO.N,GND*%
X123200000Y-46400000D03*
%TD*%
D54*
%TO.P,P1,1,PAD*%
%TO.N,VCC*%
X117000000Y-46400000D03*
%TD*%
D11*
%TO.P,C2,1*%
%TO.N,+1V1*%
X120117500Y-70850000D03*
%TO.P,C2,2*%
%TO.N,GND*%
X118982500Y-70850000D03*
%TD*%
D54*
%TO.P,P5,1,PAD*%
%TO.N,VCC*%
X129400000Y-46400000D03*
%TD*%
D14*
%TO.P,C9,1*%
%TO.N,/3V_MCU*%
X121332500Y-66000000D03*
%TO.P,C9,2*%
%TO.N,GND*%
X122467500Y-66000000D03*
%TD*%
D15*
%TO.P,R2,1*%
%TO.N,FC_USB_D-*%
X118902500Y-71950000D03*
%TO.P,R2,2*%
%TO.N,/USB-*%
X120097500Y-71950000D03*
%TD*%
D28*
%TO.P,D4,1,K*%
%TO.N,Net-(D4-Pad1)*%
X110700000Y-56922500D03*
%TO.P,D4,2,A*%
%TO.N,+3V3*%
X110700000Y-55777500D03*
%TD*%
D55*
%TO.N,+1V1*%
X120100000Y-67850000D03*
X127415319Y-71337955D03*
X122650000Y-74400000D03*
%TO.N,GND*%
X133500000Y-46400000D03*
X124800000Y-55250000D03*
X127600000Y-90350000D03*
X115750000Y-59100000D03*
X123700000Y-46400000D03*
X120800000Y-47400000D03*
X125500000Y-108400000D03*
X131300000Y-76000000D03*
X129100000Y-55250000D03*
X129200000Y-50150000D03*
X125500000Y-106400000D03*
X132500000Y-45400000D03*
X118155591Y-62994357D03*
X119250000Y-101800000D03*
X133500000Y-45400000D03*
X132500000Y-47400000D03*
X122700000Y-45400000D03*
X119750000Y-77650000D03*
X131300000Y-68900000D03*
X120800000Y-45400000D03*
X110550000Y-60150000D03*
X119800000Y-47400000D03*
X123600000Y-91800000D03*
X128900000Y-85850000D03*
X134100000Y-103250000D03*
X123700000Y-47400000D03*
X123150000Y-64100000D03*
X132500000Y-46400000D03*
X126400000Y-50150000D03*
X125500000Y-104300000D03*
X113600000Y-51499500D03*
X123700000Y-45400000D03*
X122700000Y-47400000D03*
X112700000Y-60050000D03*
X120800000Y-46400000D03*
X119800000Y-46400000D03*
X111400000Y-83000000D03*
X122700000Y-46400000D03*
X133500000Y-47400000D03*
X119800000Y-45400000D03*
X118950000Y-67850000D03*
%TO.N,/3V_MCU*%
X120100000Y-63950000D03*
X122700994Y-75950000D03*
X113600000Y-63900000D03*
X125696962Y-76021212D03*
%TO.N,3V3_IO*%
X123600000Y-68450000D03*
X117900000Y-67850000D03*
X113600000Y-61400000D03*
X115752125Y-77702125D03*
X126145137Y-82780429D03*
%TO.N,REG_5VIN*%
X120350000Y-58750000D03*
%TO.N,+3V3*%
X120100000Y-54450000D03*
%TO.N,VCC*%
X130000000Y-45400000D03*
X130000000Y-47400000D03*
X129000000Y-45400000D03*
X129000000Y-46400000D03*
X116500000Y-47400000D03*
X116500000Y-46400000D03*
X127000000Y-45400000D03*
X129000000Y-47400000D03*
X127000000Y-47400000D03*
X117500000Y-45400000D03*
X126000000Y-47400000D03*
X116500000Y-45400000D03*
X117500000Y-47400000D03*
X127000000Y-46400000D03*
X117500000Y-46400000D03*
X126000000Y-46400000D03*
X126000000Y-45400000D03*
X130000000Y-46400000D03*
%TO.N,+5V*%
X113400000Y-55350000D03*
X123150000Y-63000000D03*
X111350000Y-65800000D03*
%TO.N,FC_STATUS_BLUE*%
X132900000Y-66400000D03*
X124600000Y-69050000D03*
X129500000Y-82100000D03*
%TO.N,FC_STATUS_RED*%
X127943668Y-82900000D03*
X126599503Y-69050000D03*
X120400000Y-96800000D03*
X130140111Y-83740111D03*
%TO.N,FC_STATUS_GREEN*%
X125600000Y-69050000D03*
X120705080Y-88800000D03*
%TO.N,FC_UART1_TX*%
X125899500Y-78222534D03*
%TO.N,FC_UART1_RX*%
X126800000Y-76000000D03*
%TO.N,FC_UART0_TX*%
X128400000Y-69600000D03*
%TO.N,FC_UART0_RX*%
X128400000Y-70600000D03*
%TO.N,FC_SERVO_1*%
X120481973Y-87701325D03*
X125115957Y-82748316D03*
%TO.N,FC_SPI0_MISO*%
X121924500Y-78100000D03*
%TO.N,FC_SPI0_SCK*%
X121924500Y-80099006D03*
%TO.N,FC_SPI0_MOSI*%
X123031375Y-79981375D03*
%TO.N,FC_SPI0_CS*%
X121924500Y-79099503D03*
%TO.N,DISP_VCC*%
X130900000Y-78000000D03*
%TO.N,FC_BOOTSEL*%
X118150000Y-75849500D03*
X129800000Y-102300000D03*
%TO.N,FC_I2C0_SCL*%
X122150000Y-88400000D03*
X123500000Y-84400500D03*
X124700000Y-75950000D03*
%TO.N,FC_I2C0_SDA*%
X122679399Y-85214946D03*
X123700497Y-75950000D03*
X122150000Y-89450000D03*
%TO.N,FC_RUN*%
X117900000Y-102500000D03*
X128400000Y-68600497D03*
%TD*%
D56*
%TO.N,+1V1*%
X127415319Y-72659614D02*
X127415319Y-71337955D01*
X128437500Y-73150000D02*
X127905705Y-73150000D01*
X120117500Y-69850000D02*
X120117500Y-70850000D01*
X120117500Y-67867500D02*
X120100000Y-67850000D01*
X121562500Y-73950000D02*
X122200000Y-73950000D01*
X120754520Y-71673815D02*
X120754520Y-71487020D01*
X122200000Y-73950000D02*
X122650000Y-74400000D01*
X121030705Y-71950000D02*
X120754520Y-71673815D01*
X120754520Y-71487020D02*
X120117500Y-70850000D01*
X127905705Y-73150000D02*
X127415319Y-72659614D01*
X121562500Y-71950000D02*
X121030705Y-71950000D01*
X120117500Y-68850000D02*
X120117500Y-67867500D01*
X120117500Y-68850000D02*
X120117500Y-69850000D01*
D57*
%TO.N,GND*%
X114575000Y-87800000D02*
X114575000Y-90340000D01*
D58*
X112400000Y-59750000D02*
X112700000Y-60050000D01*
X128767500Y-50582500D02*
X129200000Y-50150000D01*
D59*
X111400000Y-73750000D02*
X111400000Y-75650000D01*
D56*
X131332500Y-68900000D02*
X131300000Y-68900000D01*
D57*
X122225000Y-98060000D02*
X124765000Y-98060000D01*
D56*
X110700000Y-82817500D02*
X111217500Y-82817500D01*
D59*
X111400000Y-71750000D02*
X111400000Y-73750000D01*
X111400000Y-69850000D02*
X111400000Y-71750000D01*
D56*
X119650000Y-78395000D02*
X119650000Y-77750000D01*
X128120000Y-85100000D02*
X128150000Y-85100000D01*
X124074520Y-86374520D02*
X124050000Y-86350000D01*
D59*
X113100000Y-69250000D02*
X111400000Y-69250000D01*
X113100000Y-76250000D02*
X111400000Y-76250000D01*
D58*
X126297500Y-50252500D02*
X126400000Y-50150000D01*
D56*
X127667500Y-90417500D02*
X127600000Y-90350000D01*
D59*
X114100000Y-70250000D02*
X113100000Y-69250000D01*
D57*
X114575000Y-95420000D02*
X114575000Y-97960000D01*
X123250000Y-56800000D02*
X124800000Y-55250000D01*
D56*
X118982500Y-70850000D02*
X118982500Y-69850000D01*
D57*
X131600000Y-51280791D02*
X130469209Y-50150000D01*
X114575000Y-92880000D02*
X114575000Y-95420000D01*
D56*
X126550000Y-74750000D02*
X126275000Y-75025000D01*
D57*
X124765000Y-98060000D02*
X127305000Y-98060000D01*
D58*
X126297500Y-51050000D02*
X126297500Y-50252500D01*
D56*
X124274520Y-87074520D02*
X124074520Y-86874520D01*
X119650000Y-77750000D02*
X119750000Y-77650000D01*
X123782500Y-86082500D02*
X124050000Y-86350000D01*
D57*
X123250000Y-56802500D02*
X123250000Y-56800000D01*
D58*
X134075000Y-103225000D02*
X134100000Y-103250000D01*
D56*
X131332500Y-76000000D02*
X131300000Y-76000000D01*
X110700000Y-59497500D02*
X110700000Y-60000000D01*
X122467500Y-68000000D02*
X122467500Y-67000000D01*
D57*
X127635000Y-57974998D02*
X127649510Y-57960488D01*
X131600000Y-54150000D02*
X131600000Y-51280791D01*
D56*
X118982500Y-69850000D02*
X118982500Y-68850000D01*
D59*
X116074022Y-74050000D02*
X117175489Y-72948533D01*
D57*
X112800000Y-52299500D02*
X113600000Y-51499500D01*
D58*
X115350000Y-59500000D02*
X115750000Y-59100000D01*
D56*
X122467500Y-67000000D02*
X122467500Y-66000000D01*
X125575000Y-104300000D02*
X125500000Y-104300000D01*
D58*
X124375000Y-50150000D02*
X126400000Y-50150000D01*
X119275000Y-107275000D02*
X119275000Y-103125000D01*
D56*
X128500000Y-86250000D02*
X128900000Y-85850000D01*
X127250000Y-87550000D02*
X127782500Y-87550000D01*
X122467500Y-66000000D02*
X122467500Y-65000000D01*
X123600000Y-91800000D02*
X126150000Y-91800000D01*
D57*
X127268546Y-55250000D02*
X127000000Y-55250000D01*
D56*
X118982500Y-67882500D02*
X118950000Y-67850000D01*
D57*
X127000000Y-55250000D02*
X124800000Y-55250000D01*
D56*
X128500000Y-86832500D02*
X128500000Y-86250000D01*
D58*
X122500000Y-52025000D02*
X124375000Y-50150000D01*
D56*
X128150000Y-85100000D02*
X128900000Y-85850000D01*
D58*
X132975000Y-107375000D02*
X132975000Y-103225000D01*
D56*
X127782500Y-87550000D02*
X128500000Y-86832500D01*
D57*
X112800000Y-52400000D02*
X112800000Y-52299500D01*
D58*
X119275000Y-101825000D02*
X119250000Y-101800000D01*
D56*
X124050000Y-90250000D02*
X124050000Y-91350000D01*
X118982500Y-65850000D02*
X118982500Y-64850000D01*
D58*
X122467500Y-64782500D02*
X123150000Y-64100000D01*
X128767500Y-51050000D02*
X128767500Y-50582500D01*
D57*
X127649510Y-55630964D02*
X127268546Y-55250000D01*
D56*
X124074520Y-86874520D02*
X124074520Y-86374520D01*
X118982500Y-68850000D02*
X118982500Y-67882500D01*
D59*
X117175489Y-72475489D02*
X117200978Y-72450000D01*
D57*
X130469209Y-50150000D02*
X129200000Y-50150000D01*
D56*
X126650000Y-87550000D02*
X126174520Y-87074520D01*
X110700000Y-60000000D02*
X110550000Y-60150000D01*
X128500000Y-90417500D02*
X127667500Y-90417500D01*
D59*
X114100000Y-75250000D02*
X113100000Y-76250000D01*
D56*
X126150000Y-91800000D02*
X127600000Y-90350000D01*
D58*
X119275000Y-103125000D02*
X119275000Y-101825000D01*
X118432500Y-62717448D02*
X118155591Y-62994357D01*
X115350000Y-60782500D02*
X115350000Y-59500000D01*
X132975000Y-103225000D02*
X134075000Y-103225000D01*
D57*
X127649510Y-57960488D02*
X127649510Y-55630964D01*
X127000000Y-55250000D02*
X129100000Y-55250000D01*
D58*
X115350000Y-61900000D02*
X116082500Y-62632500D01*
D56*
X128437500Y-74750000D02*
X126550000Y-74750000D01*
D59*
X114100000Y-75250000D02*
X114100000Y-74050000D01*
D58*
X115350000Y-60782500D02*
X115350000Y-61900000D01*
D56*
X122150000Y-86082500D02*
X123782500Y-86082500D01*
X127250000Y-87550000D02*
X126650000Y-87550000D01*
D58*
X112400000Y-59497500D02*
X112400000Y-59750000D01*
D56*
X126174520Y-87074520D02*
X124274520Y-87074520D01*
X118982500Y-67817500D02*
X118950000Y-67850000D01*
D59*
X117200978Y-72450000D02*
X117825000Y-72450000D01*
D56*
X118982500Y-66850000D02*
X118982500Y-67817500D01*
D58*
X122467500Y-65000000D02*
X122467500Y-64782500D01*
X118432500Y-62650000D02*
X118432500Y-62717448D01*
D57*
X114575000Y-85260000D02*
X114575000Y-87800000D01*
X114575000Y-97960000D02*
X114575000Y-100500000D01*
X114575000Y-90340000D02*
X114575000Y-92880000D01*
D56*
X122467500Y-69000000D02*
X122467500Y-68000000D01*
X118982500Y-65850000D02*
X118982500Y-66850000D01*
X125582500Y-106400000D02*
X125500000Y-106400000D01*
X111217500Y-82817500D02*
X111400000Y-83000000D01*
D59*
X114100000Y-74050000D02*
X116074022Y-74050000D01*
D56*
X124050000Y-91350000D02*
X123600000Y-91800000D01*
D59*
X117175489Y-72948533D02*
X117175489Y-72475489D01*
D56*
X125592500Y-108400000D02*
X125500000Y-108400000D01*
%TO.N,/3V_MCU*%
X122400000Y-77187500D02*
X122400000Y-76250994D01*
X122605225Y-71049520D02*
X122400000Y-70844295D01*
X121562500Y-71150000D02*
X121562500Y-71550000D01*
X126000000Y-76324250D02*
X125696962Y-76021212D01*
X125794775Y-71049520D02*
X122605225Y-71049520D01*
X122299520Y-71755225D02*
X122299520Y-72950480D01*
X122400000Y-70312500D02*
X121937500Y-70312500D01*
X122299520Y-72950480D02*
X122100000Y-73150000D01*
X127015799Y-72825100D02*
X127740699Y-73550000D01*
X121937500Y-70312500D02*
X121562500Y-69937500D01*
X121332500Y-67000000D02*
X121332500Y-66000000D01*
X122400000Y-70844295D02*
X122400000Y-70312500D01*
X121332500Y-69000000D02*
X121332500Y-68000000D01*
X125949520Y-71049520D02*
X127015799Y-72115799D01*
X126000000Y-77187500D02*
X126000000Y-76324250D01*
X122400000Y-76250994D02*
X122700994Y-75950000D01*
X121562500Y-71550000D02*
X122094295Y-71550000D01*
X121562500Y-71150000D02*
X121562500Y-69937500D01*
X120117500Y-64850000D02*
X120117500Y-65850000D01*
X122100000Y-73150000D02*
X121562500Y-73150000D01*
X120100000Y-63950000D02*
X120100000Y-64832500D01*
X120100000Y-64832500D02*
X120117500Y-64850000D01*
X112500000Y-63900000D02*
X113600000Y-63900000D01*
X120117500Y-65850000D02*
X120117500Y-66850000D01*
X126000000Y-70312500D02*
X126000000Y-70844295D01*
X125794775Y-71049520D02*
X125949520Y-71049520D01*
X121562500Y-73550000D02*
X121562500Y-73150000D01*
X127740699Y-73550000D02*
X128437500Y-73550000D01*
X121562500Y-69937500D02*
X121562500Y-69230000D01*
X121562500Y-69230000D02*
X121332500Y-69000000D01*
X120267500Y-65000000D02*
X120117500Y-64850000D01*
X127015799Y-72115799D02*
X127015799Y-72825100D01*
X121332500Y-65000000D02*
X120267500Y-65000000D01*
X122094295Y-71550000D02*
X122299520Y-71755225D01*
X126000000Y-70844295D02*
X125794775Y-71049520D01*
X121332500Y-68000000D02*
X121332500Y-67000000D01*
X121332500Y-66000000D02*
X121332500Y-65000000D01*
%TO.N,FC_XIN*%
X129195141Y-74350000D02*
X129249661Y-74404520D01*
X131900000Y-75432500D02*
X132467500Y-76000000D01*
X129249661Y-74404520D02*
X131795480Y-74404520D01*
X128437500Y-74350000D02*
X129195141Y-74350000D01*
X131795480Y-74404520D02*
X131900000Y-74300000D01*
X131900000Y-74300000D02*
X131900000Y-75432500D01*
%TO.N,Net-(C13-Pad1)*%
X129600000Y-72552500D02*
X129947500Y-72552500D01*
X131900000Y-70600000D02*
X131900000Y-69467500D01*
X131900000Y-69467500D02*
X132467500Y-68900000D01*
X129947500Y-72552500D02*
X131900000Y-70600000D01*
%TO.N,3V3_IO*%
X126175489Y-96714511D02*
X127325000Y-95565000D01*
X121075489Y-99450489D02*
X121075489Y-97583856D01*
X112450000Y-82205000D02*
X111222500Y-82205000D01*
X125850000Y-84000000D02*
X125800000Y-83950000D01*
X122225000Y-100600000D02*
X121075489Y-99450489D01*
X127109712Y-85100000D02*
X127719232Y-84490480D01*
X127325000Y-93025000D02*
X127325000Y-95565000D01*
X128267500Y-89050000D02*
X128500000Y-89282500D01*
X126985000Y-85100000D02*
X127109712Y-85100000D01*
X128529739Y-84490480D02*
X129600000Y-85560741D01*
D58*
X116604250Y-76850000D02*
X115752125Y-77702125D01*
D56*
X111222500Y-82205000D02*
X110700000Y-81682500D01*
X121075489Y-97583856D02*
X121944834Y-96714511D01*
X123600000Y-68450000D02*
X123600000Y-69400000D01*
X124000000Y-69800000D02*
X123600000Y-69400000D01*
X125800000Y-83950000D02*
X125800000Y-83125566D01*
X121944834Y-96714511D02*
X126175489Y-96714511D01*
X129600000Y-85560741D02*
X129600000Y-88182500D01*
X126550000Y-85800000D02*
X125850000Y-85100000D01*
X126550000Y-85535000D02*
X126985000Y-85100000D01*
X127250000Y-89050000D02*
X128267500Y-89050000D01*
X127325000Y-93025000D02*
X129250000Y-91100000D01*
X126550000Y-86350000D02*
X126550000Y-85800000D01*
X126550000Y-86350000D02*
X126550000Y-85535000D01*
X127719232Y-84490480D02*
X128529739Y-84490480D01*
X117202500Y-78397500D02*
X113395000Y-82205000D01*
X112500000Y-61400000D02*
X113600000Y-61400000D01*
X123600000Y-69400000D02*
X123600000Y-70312500D01*
X129250000Y-90032500D02*
X128500000Y-89282500D01*
X129600000Y-88182500D02*
X128500000Y-89282500D01*
D58*
X117202500Y-76850000D02*
X116604250Y-76850000D01*
D56*
X113395000Y-82205000D02*
X112450000Y-82205000D01*
X124000000Y-70312500D02*
X124000000Y-69800000D01*
X129250000Y-91100000D02*
X129250000Y-90032500D01*
X125800000Y-83125566D02*
X126145137Y-82780429D01*
X125850000Y-85100000D02*
X125850000Y-84000000D01*
X117202500Y-76850000D02*
X117202500Y-78397500D01*
D59*
%TO.N,REG_5VIN*%
X112500000Y-67200000D02*
X112500000Y-66700000D01*
D58*
X112500000Y-66150000D02*
X114850000Y-63800000D01*
X119950000Y-62267500D02*
X119567500Y-62650000D01*
X119950000Y-59150000D02*
X120350000Y-58750000D01*
X119950000Y-60782500D02*
X119950000Y-59150000D01*
X114850000Y-63800000D02*
X118417500Y-63800000D01*
X118417500Y-63800000D02*
X119567500Y-62650000D01*
X119950000Y-60782500D02*
X119950000Y-62267500D01*
X112500000Y-67200000D02*
X112500000Y-66150000D01*
%TO.N,+3V3*%
X114051990Y-63292020D02*
X113259490Y-62499520D01*
X120067500Y-54482500D02*
X120100000Y-54450000D01*
X117650000Y-60782500D02*
X117650000Y-62200000D01*
X111369520Y-56447020D02*
X110700000Y-55777500D01*
X111855224Y-62499520D02*
X111200000Y-61844296D01*
X117650000Y-62200000D02*
X117217500Y-62632500D01*
X117217500Y-62632500D02*
X116557980Y-63292020D01*
X117650000Y-54482500D02*
X120067500Y-54482500D01*
D57*
X117650000Y-54482500D02*
X117650000Y-60782500D01*
D58*
X116557980Y-63292020D02*
X114051990Y-63292020D01*
D57*
X111200000Y-63900000D02*
X111200000Y-61400000D01*
D58*
X113259490Y-62499520D02*
X111855224Y-62499520D01*
X111200000Y-61844296D02*
X111200000Y-61400000D01*
X111369520Y-61230480D02*
X111369520Y-56447020D01*
X111200000Y-61400000D02*
X111369520Y-61230480D01*
D56*
%TO.N,Net-(C17-Pad1)*%
X122482500Y-87550000D02*
X122150000Y-87217500D01*
X123350000Y-87550000D02*
X122482500Y-87550000D01*
%TO.N,Net-(C18-Pad1)*%
X127250000Y-88050000D02*
X128417500Y-88050000D01*
X128417500Y-88050000D02*
X128500000Y-87967500D01*
D60*
%TO.N,VCC*%
X127632500Y-49032500D02*
X126000000Y-47400000D01*
X127632500Y-51050000D02*
X127632500Y-49032500D01*
D57*
X116500000Y-49000000D02*
X116500000Y-47400000D01*
X111100000Y-52400000D02*
X112800000Y-50700000D01*
X114800000Y-50700000D02*
X116500000Y-49000000D01*
D60*
X127635000Y-51052500D02*
X127632500Y-51050000D01*
D57*
X112800000Y-50700000D02*
X114800000Y-50700000D01*
D60*
X127635000Y-52524999D02*
X127635000Y-51052500D01*
D57*
%TO.N,Net-(C23-Pad1)*%
X130083291Y-50932500D02*
X128905000Y-52110791D01*
X130100000Y-50932500D02*
X130083291Y-50932500D01*
X128905000Y-52110791D02*
X128905000Y-52524999D01*
%TO.N,Net-(C23-Pad2)*%
X131424998Y-57974998D02*
X131600000Y-58150000D01*
X130100000Y-56650000D02*
X131600000Y-58150000D01*
X128905000Y-57974998D02*
X131424998Y-57974998D01*
X131600000Y-58150000D02*
X131600000Y-63500000D01*
X130100000Y-52067500D02*
X130100000Y-56650000D01*
X131600000Y-63500000D02*
X131850000Y-63750000D01*
%TO.N,+5V*%
X112035000Y-95420000D02*
X112035000Y-97960000D01*
D58*
X122500000Y-58375570D02*
X124324430Y-60200000D01*
X111200000Y-67200000D02*
X111200000Y-65950000D01*
D57*
X112035000Y-92880000D02*
X112035000Y-95420000D01*
X129197500Y-59250000D02*
X128477980Y-59969520D01*
D58*
X122500000Y-54975000D02*
X122500000Y-58375570D01*
D57*
X123180680Y-63000000D02*
X123930680Y-63750000D01*
D58*
X123150000Y-61747500D02*
X124697500Y-60200000D01*
D57*
X112035000Y-85260000D02*
X112035000Y-87800000D01*
D58*
X123150000Y-63000000D02*
X123150000Y-61747500D01*
X124697500Y-60200000D02*
X125647500Y-59250000D01*
D57*
X128477980Y-59969520D02*
X126367020Y-59969520D01*
X112035000Y-97960000D02*
X112035000Y-100500000D01*
X123930680Y-63750000D02*
X125450000Y-63750000D01*
X127305000Y-100600000D02*
X124765000Y-100600000D01*
D58*
X124324430Y-60200000D02*
X124697500Y-60200000D01*
D57*
X112975000Y-55775000D02*
X113400000Y-55350000D01*
X112035000Y-90340000D02*
X112035000Y-92880000D01*
X126367020Y-59969520D02*
X125647500Y-59250000D01*
D58*
X111200000Y-65950000D02*
X111350000Y-65800000D01*
D57*
X112400000Y-55775000D02*
X112975000Y-55775000D01*
X112035000Y-87800000D02*
X112035000Y-90340000D01*
D56*
%TO.N,Net-(D1-Pad1)*%
X126770000Y-104300000D02*
X126770000Y-103325000D01*
X126770000Y-103325000D02*
X126745000Y-103300000D01*
%TO.N,FC_STATUS_BLUE*%
X127150489Y-101749511D02*
X127781144Y-101749511D01*
X130900000Y-83500000D02*
X129500000Y-82100000D01*
X130900000Y-98630655D02*
X130900000Y-83500000D01*
X125200000Y-70312500D02*
X125200000Y-69639259D01*
X127250000Y-66400000D02*
X124600000Y-69050000D01*
X132900000Y-66400000D02*
X127250000Y-66400000D01*
X125600000Y-103300000D02*
X127150489Y-101749511D01*
X127781144Y-101749511D02*
X130900000Y-98630655D01*
X125200000Y-69639259D02*
X124610741Y-69050000D01*
X124610741Y-69050000D02*
X124600000Y-69050000D01*
%TO.N,Net-(D2-Pad1)*%
X126777500Y-106400000D02*
X126777500Y-105425000D01*
X126777500Y-105425000D02*
X126752500Y-105400000D01*
%TO.N,FC_STATUS_RED*%
X126400000Y-70312500D02*
X126400000Y-69249503D01*
X125607500Y-105400000D02*
X124075747Y-105400000D01*
X127943668Y-82900000D02*
X128783779Y-83740111D01*
X120400000Y-101724253D02*
X120400000Y-96800000D01*
X126400000Y-69249503D02*
X126599503Y-69050000D01*
X128783779Y-83740111D02*
X130140111Y-83740111D01*
X124075747Y-105400000D02*
X120400000Y-101724253D01*
%TO.N,Net-(D3-Pad1)*%
X126787500Y-108400000D02*
X126787500Y-107415000D01*
X126787500Y-107415000D02*
X126772500Y-107400000D01*
%TO.N,FC_STATUS_GREEN*%
X125510741Y-107400000D02*
X119949511Y-101838770D01*
X119949511Y-101838770D02*
X119949511Y-101449511D01*
X118900000Y-100400000D02*
X118900000Y-97290012D01*
X125600000Y-70312500D02*
X125600000Y-69050000D01*
X118900000Y-97290012D02*
X120405100Y-95784912D01*
X120405100Y-89099980D02*
X120705080Y-88800000D01*
X125627500Y-107400000D02*
X125510741Y-107400000D01*
X119949511Y-101449511D02*
X118900000Y-100400000D01*
X120405100Y-95784912D02*
X120405100Y-89099980D01*
D58*
%TO.N,Net-(D4-Pad1)*%
X110700000Y-58302500D02*
X110700000Y-56922500D01*
%TO.N,Net-(D5-Pad1)*%
X112400000Y-58302500D02*
X112400000Y-56920000D01*
D59*
%TO.N,FC_USB_VBUS*%
X116450489Y-71400489D02*
X116624511Y-71574511D01*
X116500000Y-72450000D02*
X115975000Y-72450000D01*
X115000489Y-71400489D02*
X116450489Y-71400489D01*
X114149511Y-71400489D02*
X115000489Y-71400489D01*
D58*
X115000489Y-68400489D02*
X115000489Y-71400489D01*
X113800000Y-67200000D02*
X115000489Y-68400489D01*
D59*
X114100000Y-71450000D02*
X114149511Y-71400489D01*
X116624511Y-71574511D02*
X116624511Y-72325489D01*
X116624511Y-72325489D02*
X116500000Y-72450000D01*
D56*
%TO.N,Net-(J1-Pad2)*%
X115600000Y-71912500D02*
X115412500Y-72100000D01*
X115412500Y-72100000D02*
X114100000Y-72100000D01*
X116050000Y-71912500D02*
X115600000Y-71912500D01*
%TO.N,Net-(J1-Pad3)*%
X116050000Y-72987500D02*
X115600000Y-72987500D01*
X115600000Y-72987500D02*
X115362500Y-72750000D01*
X115362500Y-72750000D02*
X114100000Y-72750000D01*
%TO.N,FC_UART1_TX*%
X126400000Y-77722034D02*
X125899500Y-78222534D01*
X126400000Y-77187500D02*
X126400000Y-77722034D01*
%TO.N,FC_UART1_RX*%
X126800000Y-77187500D02*
X126800000Y-76000000D01*
%TO.N,FC_UART0_TX*%
X129174520Y-70374520D02*
X128400000Y-69600000D01*
X128437500Y-71550000D02*
X129000000Y-71550000D01*
X129174520Y-71375480D02*
X129174520Y-70374520D01*
X129000000Y-71550000D02*
X129174520Y-71375480D01*
%TO.N,FC_UART0_RX*%
X128437500Y-70637500D02*
X128400000Y-70600000D01*
X128437500Y-71150000D02*
X128437500Y-70637500D01*
%TO.N,FC_SERVO_1*%
X118249511Y-97375495D02*
X120005579Y-95619427D01*
X120005580Y-95619426D02*
X120005580Y-89950000D01*
X129380012Y-75150000D02*
X128437500Y-75150000D01*
X129999040Y-77937283D02*
X129999038Y-75769026D01*
X120005580Y-88177718D02*
X120481973Y-87701325D01*
X120005579Y-95619427D02*
X120005580Y-95619426D01*
X117100000Y-100500000D02*
X118249511Y-99350489D01*
X125115957Y-82748316D02*
X125188007Y-82748316D01*
X120005580Y-89950000D02*
X120005580Y-88177718D01*
X129999038Y-75769026D02*
X129380012Y-75150000D01*
X125188007Y-82748316D02*
X129999040Y-77937283D01*
X118249511Y-99350489D02*
X118249511Y-97375495D01*
%TO.N,FC_SERVO_2*%
X120830579Y-86363475D02*
X120830579Y-86044451D01*
X126245498Y-80629532D02*
X126741786Y-80629531D01*
X129215006Y-75550000D02*
X128437500Y-75550000D01*
X126741786Y-80629531D02*
X129599520Y-77771797D01*
X117100000Y-97960000D02*
X119606060Y-95453940D01*
X119606060Y-87587994D02*
X120830579Y-86363475D01*
X129599520Y-77771797D02*
X129599519Y-75934513D01*
X129599519Y-75934513D02*
X129215006Y-75550000D01*
X120830579Y-86044451D02*
X126245498Y-80629532D01*
X119606060Y-95453940D02*
X119606060Y-87587994D01*
%TO.N,FC_SERVO_3*%
X129200000Y-77606311D02*
X129200000Y-76100000D01*
X126576299Y-80230012D02*
X129200000Y-77606311D01*
X117100000Y-95420000D02*
X119206541Y-93313459D01*
X129200000Y-76100000D02*
X129050000Y-75950000D01*
X120431060Y-85878964D02*
X126080012Y-80230012D01*
X129050000Y-75950000D02*
X128437500Y-75950000D01*
X119206541Y-93313459D02*
X119206541Y-87422507D01*
X126080012Y-80230012D02*
X126576299Y-80230012D01*
X119206541Y-87422507D02*
X120431060Y-86197988D01*
X120431060Y-86197988D02*
X120431060Y-85878964D01*
%TO.N,FC_SERVO_4*%
X128437500Y-77803805D02*
X128437500Y-76350000D01*
X118807021Y-87257021D02*
X120031541Y-86032501D01*
X120031541Y-86032501D02*
X120031541Y-85713477D01*
X125972509Y-79772509D02*
X126468796Y-79772509D01*
X118807021Y-91172979D02*
X118807021Y-87257021D01*
X117100000Y-92880000D02*
X118807021Y-91172979D01*
X120031541Y-85713477D02*
X125972509Y-79772509D01*
X126468796Y-79772509D02*
X128437500Y-77803805D01*
%TO.N,FC_SERVO_5*%
X126336293Y-79340006D02*
X127599519Y-78076780D01*
X127599519Y-77187981D02*
X127600000Y-77187500D01*
X127599519Y-78076780D02*
X127599519Y-77187981D01*
X118407502Y-89032498D02*
X118407502Y-87057504D01*
X119632022Y-85832984D02*
X119632022Y-85547990D01*
X119632022Y-85547990D02*
X125840006Y-79340006D01*
X118407502Y-87057504D02*
X119632022Y-85832984D01*
X125840006Y-79340006D02*
X126336293Y-79340006D01*
X117100000Y-90340000D02*
X118407502Y-89032498D01*
%TO.N,FC_SERVO_6*%
X126189248Y-78922045D02*
X127200000Y-77911293D01*
X127200000Y-77911293D02*
X127200000Y-77187500D01*
X119232503Y-85382503D02*
X125692961Y-78922045D01*
X119232503Y-85667497D02*
X119232503Y-85382503D01*
X125692961Y-78922045D02*
X126189248Y-78922045D01*
X117100000Y-87800000D02*
X119232503Y-85667497D01*
%TO.N,FC_RADIO_PPM*%
X125200000Y-77187500D02*
X125200000Y-78850000D01*
X118790000Y-85260000D02*
X117100000Y-85260000D01*
X125200000Y-78850000D02*
X118790000Y-85260000D01*
D57*
%TO.N,Net-(R16-Pad1)*%
X126365000Y-58529019D02*
X127085981Y-59250000D01*
X127085981Y-59250000D02*
X128002500Y-59250000D01*
X126365000Y-57974998D02*
X126365000Y-58529019D01*
D56*
%TO.N,FC_SPI0_MISO*%
X122800000Y-77719295D02*
X122469295Y-78050000D01*
X122800000Y-77187500D02*
X122800000Y-77719295D01*
X122469295Y-78050000D02*
X122419295Y-78100000D01*
X122419295Y-78100000D02*
X121924500Y-78100000D01*
%TO.N,FC_SPI0_SCK*%
X123600000Y-78423506D02*
X121924500Y-80099006D01*
X123600000Y-77187500D02*
X123600000Y-78423506D01*
%TO.N,FC_SPI0_MOSI*%
X124000000Y-78600000D02*
X123031375Y-79568625D01*
X124000000Y-77187500D02*
X124000000Y-78600000D01*
X123031375Y-79568625D02*
X123031375Y-79981375D01*
%TO.N,FC_SPI0_CS*%
X122342123Y-78681880D02*
X121924500Y-79099503D01*
X122402421Y-78681880D02*
X122342123Y-78681880D01*
X123200000Y-77884301D02*
X122402421Y-78681880D01*
X123200000Y-77187500D02*
X123200000Y-77884301D01*
%TO.N,DISP_VCC*%
X132350000Y-82840000D02*
X130900000Y-81390000D01*
X130900000Y-81390000D02*
X130900000Y-78000000D01*
%TO.N,DISP_DIN*%
X133899031Y-86370969D02*
X132350000Y-87920000D01*
X135225000Y-75235000D02*
X133899031Y-76560969D01*
X133899031Y-76560969D02*
X133899031Y-86370969D01*
%TO.N,DISP_GND*%
X133499511Y-75334834D02*
X134748856Y-74085489D01*
X133499511Y-84230489D02*
X133499511Y-75334834D01*
X136615489Y-74085489D02*
X137765000Y-75235000D01*
X134748856Y-74085489D02*
X136615489Y-74085489D01*
X132350000Y-85380000D02*
X133499511Y-84230489D01*
%TO.N,DISP_DC*%
X136600000Y-89900000D02*
X137415489Y-89084511D01*
X134075489Y-93814511D02*
X134075489Y-92524511D01*
X134075489Y-92524511D02*
X134975489Y-91624511D01*
X137415489Y-89084511D02*
X138241144Y-89084511D01*
X135701144Y-91624511D02*
X136600000Y-90725655D01*
X138241144Y-89084511D02*
X139399519Y-87926136D01*
X136600000Y-90725655D02*
X136600000Y-89900000D01*
X132350000Y-95540000D02*
X134075489Y-93814511D01*
X139399519Y-79409519D02*
X137765000Y-77775000D01*
X139399519Y-87926136D02*
X139399519Y-79409519D01*
X134975489Y-91624511D02*
X135701144Y-91624511D01*
%TO.N,DISP_CLK*%
X134000000Y-87500000D02*
X134955489Y-86544511D01*
X134000000Y-88810000D02*
X134000000Y-87500000D01*
X136374511Y-81464511D02*
X135225000Y-80315000D01*
X136374511Y-85871144D02*
X136374511Y-81464511D01*
X132350000Y-90460000D02*
X134000000Y-88810000D01*
X134955489Y-86544511D02*
X135701144Y-86544511D01*
X135701144Y-86544511D02*
X136374511Y-85871144D01*
%TO.N,DISP_CS*%
X138241144Y-86544511D02*
X139000000Y-85785655D01*
X132350000Y-93000000D02*
X134075489Y-91274511D01*
X136615489Y-87384511D02*
X137455489Y-86544511D01*
X139000000Y-81550000D02*
X137765000Y-80315000D01*
X136615489Y-88170166D02*
X136615489Y-87384511D01*
X139000000Y-85785655D02*
X139000000Y-81550000D01*
X137455489Y-86544511D02*
X138241144Y-86544511D01*
X135685655Y-89100000D02*
X136615489Y-88170166D01*
X134974345Y-89100000D02*
X135685655Y-89100000D01*
X134075489Y-89998856D02*
X134974345Y-89100000D01*
X134075489Y-91274511D02*
X134075489Y-89998856D01*
%TO.N,FC_USB_D+*%
X117787500Y-72950000D02*
X117750000Y-72987500D01*
X118902500Y-72950000D02*
X117787500Y-72950000D01*
%TO.N,/USB+*%
X121562500Y-72750000D02*
X120297500Y-72750000D01*
X120297500Y-72750000D02*
X120097500Y-72950000D01*
%TO.N,FC_USB_D-*%
X117787500Y-71950000D02*
X117750000Y-71912500D01*
X118902500Y-71950000D02*
X117787500Y-71950000D01*
%TO.N,/USB-*%
X120497500Y-72350000D02*
X120097500Y-71950000D01*
X121562500Y-72350000D02*
X120497500Y-72350000D01*
%TO.N,FC_QSPI_SS*%
X118100480Y-77147020D02*
X118100480Y-81550480D01*
X118397500Y-76850000D02*
X118100480Y-77147020D01*
X119815717Y-82205000D02*
X120857503Y-81163214D01*
X119347500Y-75800000D02*
X119347500Y-75900000D01*
X121225000Y-80190006D02*
X121225000Y-76687500D01*
X120857503Y-81163214D02*
X120857503Y-80557503D01*
X120857503Y-80557503D02*
X121225000Y-80190006D01*
X118755000Y-82205000D02*
X119650000Y-82205000D01*
X119650000Y-82205000D02*
X119815717Y-82205000D01*
X119347500Y-75900000D02*
X118397500Y-76850000D01*
X118100480Y-81550480D02*
X118755000Y-82205000D01*
X121225000Y-76687500D02*
X121562500Y-76350000D01*
D58*
%TO.N,FC_BOOTSEL*%
X130825000Y-107375000D02*
X130825000Y-103225000D01*
D56*
X118152500Y-75847000D02*
X118150000Y-75849500D01*
X130725000Y-103225000D02*
X129800000Y-102300000D01*
X130825000Y-103225000D02*
X130725000Y-103225000D01*
X118152500Y-75800000D02*
X118152500Y-75847000D01*
%TO.N,FC_XOUT*%
X129397500Y-73950000D02*
X129600000Y-73747500D01*
X128437500Y-73950000D02*
X129397500Y-73950000D01*
%TO.N,FC_I2C0_SCL*%
X122800000Y-89050000D02*
X122150000Y-88400000D01*
X124605000Y-83950000D02*
X123950500Y-83950000D01*
X123950500Y-83950000D02*
X123500000Y-84400500D01*
X124800000Y-77187500D02*
X124800000Y-76050000D01*
X124800000Y-76050000D02*
X124700000Y-75950000D01*
X123350000Y-89050000D02*
X122800000Y-89050000D01*
%TO.N,FC_I2C0_SDA*%
X122250000Y-89550000D02*
X122150000Y-89450000D01*
X124400000Y-76649503D02*
X123700497Y-75950000D01*
X123350000Y-89550000D02*
X122250000Y-89550000D01*
X122794345Y-85100000D02*
X122679399Y-85214946D01*
X124655000Y-85100000D02*
X122794345Y-85100000D01*
X124400000Y-77187500D02*
X124400000Y-76649503D01*
D57*
%TO.N,Net-(R8-Pad1)*%
X125095000Y-52524999D02*
X125095000Y-51057500D01*
X125095000Y-51057500D02*
X125102500Y-51050000D01*
%TO.N,Net-(R15-Pad1)*%
X125095000Y-57974998D02*
X125095000Y-58607500D01*
X123250000Y-57997500D02*
X123250000Y-58047500D01*
X123250000Y-58047500D02*
X124452500Y-59250000D01*
X125095000Y-58607500D02*
X124452500Y-59250000D01*
D56*
%TO.N,FC_RUN*%
X117275000Y-103125000D02*
X117900000Y-102500000D01*
X117125000Y-103125000D02*
X117275000Y-103125000D01*
D58*
X117125000Y-107275000D02*
X117125000Y-103125000D01*
D56*
X129574039Y-69774536D02*
X128400000Y-68600497D01*
X129574039Y-71540967D02*
X129574039Y-69774536D01*
X128437500Y-71950000D02*
X129165006Y-71950000D01*
X129165006Y-71950000D02*
X129574039Y-71540967D01*
%TO.N,FC_QSPI_SD3*%
X111543796Y-77300481D02*
X114034513Y-77300481D01*
X110950000Y-79600717D02*
X110950000Y-77894277D01*
X110950000Y-77894277D02*
X111543796Y-77300481D01*
X112450000Y-80935000D02*
X112284283Y-80935000D01*
X116984994Y-74350000D02*
X121562500Y-74350000D01*
X112284283Y-80935000D02*
X110950000Y-79600717D01*
X114034513Y-77300481D02*
X116984994Y-74350000D01*
%TO.N,FC_QSPI_SCLK*%
X112450000Y-79665000D02*
X112284283Y-79665000D01*
X111709283Y-77700000D02*
X114200000Y-77700000D01*
X111350480Y-78058803D02*
X111709283Y-77700000D01*
X112284283Y-79665000D02*
X111350480Y-78731197D01*
X117150000Y-74750000D02*
X121562500Y-74750000D01*
X111350480Y-78731197D02*
X111350480Y-78058803D01*
X114200000Y-77700000D02*
X117150000Y-74750000D01*
%TO.N,FC_QSPI_SD0*%
X112450000Y-78395000D02*
X114070006Y-78395000D01*
X114070006Y-78395000D02*
X117315006Y-75150000D01*
X117315006Y-75150000D02*
X121562500Y-75150000D01*
%TO.N,FC_QSPI_SD2*%
X119465000Y-79665000D02*
X118500000Y-78700000D01*
X119650000Y-79665000D02*
X119465000Y-79665000D01*
X120760972Y-75550000D02*
X121562500Y-75550000D01*
X118500000Y-77810972D02*
X120760972Y-75550000D01*
X118500000Y-78700000D02*
X118500000Y-77810972D01*
%TO.N,FC_QSPI_SD1*%
X120825480Y-76050498D02*
X120925978Y-75950000D01*
X119915000Y-80935000D02*
X120825480Y-80024520D01*
X120925978Y-75950000D02*
X121562500Y-75950000D01*
X120825480Y-80024520D02*
X120825480Y-76050498D01*
X119650000Y-80935000D02*
X119915000Y-80935000D01*
%TD*%
%TA.AperFunction,Conductor*%
%TO.N,VCC*%
G36*
X118780228Y-44528002D02*
G01*
X118826721Y-44581658D01*
X118836825Y-44651932D01*
X118819826Y-44699365D01*
X118728771Y-44849419D01*
X118627697Y-45090455D01*
X118563359Y-45343783D01*
X118562891Y-45348434D01*
X118562890Y-45348438D01*
X118548507Y-45491280D01*
X118541500Y-45560867D01*
X118541500Y-47216354D01*
X118541673Y-47218679D01*
X118541673Y-47218685D01*
X118547252Y-47293752D01*
X118555939Y-47410652D01*
X118556968Y-47415200D01*
X118556969Y-47415206D01*
X118585694Y-47542151D01*
X118613623Y-47665577D01*
X118615315Y-47669929D01*
X118615316Y-47669931D01*
X118691244Y-47865180D01*
X118708353Y-47909177D01*
X118838049Y-48136098D01*
X118999862Y-48341357D01*
X119190237Y-48520443D01*
X119327882Y-48615931D01*
X119367853Y-48643660D01*
X119404991Y-48669424D01*
X119409181Y-48671490D01*
X119409184Y-48671492D01*
X119635219Y-48782960D01*
X119635222Y-48782961D01*
X119639407Y-48785025D01*
X119643850Y-48786447D01*
X119643852Y-48786448D01*
X119853630Y-48853598D01*
X119888335Y-48864707D01*
X120146307Y-48906721D01*
X120260058Y-48908210D01*
X120402978Y-48910081D01*
X120402981Y-48910081D01*
X120407655Y-48910142D01*
X120666638Y-48874896D01*
X120917567Y-48801757D01*
X120953862Y-48785025D01*
X121029448Y-48750179D01*
X121154928Y-48692332D01*
X121271459Y-48615931D01*
X121369596Y-48551590D01*
X121369601Y-48551586D01*
X121373509Y-48549024D01*
X121568506Y-48374982D01*
X121626796Y-48304896D01*
X121652732Y-48273712D01*
X121711670Y-48234129D01*
X121782652Y-48232693D01*
X121843142Y-48269861D01*
X121848556Y-48276276D01*
X121893926Y-48333827D01*
X121899862Y-48341357D01*
X122090237Y-48520443D01*
X122227882Y-48615931D01*
X122267853Y-48643660D01*
X122304991Y-48669424D01*
X122309181Y-48671490D01*
X122309184Y-48671492D01*
X122535219Y-48782960D01*
X122535222Y-48782961D01*
X122539407Y-48785025D01*
X122543850Y-48786447D01*
X122543852Y-48786448D01*
X122753630Y-48853598D01*
X122788335Y-48864707D01*
X123046307Y-48906721D01*
X123160058Y-48908210D01*
X123302978Y-48910081D01*
X123302981Y-48910081D01*
X123307655Y-48910142D01*
X123566638Y-48874896D01*
X123817567Y-48801757D01*
X123853862Y-48785025D01*
X123929448Y-48750179D01*
X124054928Y-48692332D01*
X124171459Y-48615931D01*
X124269596Y-48551590D01*
X124269601Y-48551586D01*
X124273509Y-48549024D01*
X124468506Y-48374982D01*
X124635637Y-48174030D01*
X124718561Y-48037375D01*
X124768804Y-47954578D01*
X124768806Y-47954574D01*
X124771229Y-47950581D01*
X124872303Y-47709545D01*
X124936641Y-47456217D01*
X124958500Y-47239133D01*
X124958500Y-45583646D01*
X124954292Y-45527016D01*
X124944407Y-45394000D01*
X124944406Y-45393996D01*
X124944061Y-45389348D01*
X124932725Y-45339248D01*
X124887408Y-45138980D01*
X124886377Y-45134423D01*
X124854399Y-45052190D01*
X124793340Y-44895176D01*
X124793339Y-44895173D01*
X124791647Y-44890823D01*
X124680595Y-44696522D01*
X124664158Y-44627456D01*
X124687671Y-44560466D01*
X124743669Y-44516822D01*
X124789988Y-44508000D01*
X130555810Y-44508000D01*
X130623931Y-44528002D01*
X130644905Y-44544905D01*
X131063095Y-44963095D01*
X131097121Y-45025407D01*
X131100000Y-45052190D01*
X131100000Y-45221629D01*
X131095119Y-45256359D01*
X131030593Y-45481390D01*
X131029982Y-45485740D01*
X131029981Y-45485743D01*
X131016222Y-45583646D01*
X130991500Y-45759552D01*
X130991500Y-46970146D01*
X131006189Y-47180212D01*
X131064591Y-47454970D01*
X131066094Y-47459099D01*
X131066095Y-47459103D01*
X131092401Y-47531378D01*
X131100000Y-47574472D01*
X131100000Y-48547810D01*
X131079998Y-48615931D01*
X131063095Y-48636905D01*
X130295405Y-49404595D01*
X130233093Y-49438621D01*
X130206310Y-49441500D01*
X129811405Y-49441500D01*
X129743284Y-49421498D01*
X129737344Y-49417436D01*
X129662094Y-49362763D01*
X129662093Y-49362762D01*
X129656752Y-49358882D01*
X129650724Y-49356198D01*
X129650722Y-49356197D01*
X129488319Y-49283891D01*
X129488318Y-49283891D01*
X129482288Y-49281206D01*
X129388888Y-49261353D01*
X129301944Y-49242872D01*
X129301939Y-49242872D01*
X129295487Y-49241500D01*
X129104513Y-49241500D01*
X129098061Y-49242872D01*
X129098056Y-49242872D01*
X129011112Y-49261353D01*
X128917712Y-49281206D01*
X128911682Y-49283891D01*
X128911681Y-49283891D01*
X128749278Y-49356197D01*
X128749276Y-49356198D01*
X128743248Y-49358882D01*
X128588747Y-49471134D01*
X128510252Y-49558312D01*
X128449809Y-49595550D01*
X128416618Y-49600000D01*
X127183382Y-49600000D01*
X127115261Y-49579998D01*
X127089752Y-49558316D01*
X127011253Y-49471134D01*
X126856752Y-49358882D01*
X126850724Y-49356198D01*
X126850722Y-49356197D01*
X126688319Y-49283891D01*
X126688318Y-49283891D01*
X126682288Y-49281206D01*
X126588888Y-49261353D01*
X126501944Y-49242872D01*
X126501939Y-49242872D01*
X126495487Y-49241500D01*
X126304513Y-49241500D01*
X126298061Y-49242872D01*
X126298056Y-49242872D01*
X126211112Y-49261353D01*
X126117712Y-49281206D01*
X126111682Y-49283891D01*
X126111681Y-49283891D01*
X125949278Y-49356197D01*
X125949276Y-49356198D01*
X125943248Y-49358882D01*
X125794092Y-49467251D01*
X125793837Y-49467436D01*
X125726969Y-49491294D01*
X125719776Y-49491500D01*
X124457056Y-49491500D01*
X124445200Y-49490941D01*
X124445197Y-49490941D01*
X124437463Y-49489212D01*
X124382446Y-49490941D01*
X124366631Y-49491438D01*
X124362673Y-49491500D01*
X124333568Y-49491500D01*
X124329168Y-49492056D01*
X124317336Y-49492988D01*
X124271169Y-49494438D01*
X124250579Y-49500420D01*
X124231218Y-49504430D01*
X124224230Y-49505312D01*
X124217796Y-49506125D01*
X124217795Y-49506125D01*
X124209936Y-49507118D01*
X124202571Y-49510034D01*
X124202567Y-49510035D01*
X124166982Y-49524124D01*
X124155752Y-49527969D01*
X124111399Y-49540855D01*
X124104575Y-49544891D01*
X124092943Y-49551770D01*
X124075187Y-49560469D01*
X124055244Y-49568365D01*
X124048832Y-49573023D01*
X124048833Y-49573023D01*
X124044821Y-49575938D01*
X123970762Y-49600000D01*
X115737320Y-49600000D01*
X115669199Y-49579998D01*
X115648225Y-49563095D01*
X115048909Y-48963779D01*
X115014883Y-48901467D01*
X115019948Y-48830652D01*
X115038058Y-48799675D01*
X115037286Y-48799108D01*
X115196834Y-48581909D01*
X115199372Y-48578454D01*
X115229421Y-48523111D01*
X115327962Y-48341621D01*
X115327963Y-48341619D01*
X115330012Y-48337845D01*
X115426789Y-48081732D01*
X115455911Y-47954578D01*
X115486954Y-47819038D01*
X115486955Y-47819034D01*
X115487912Y-47814854D01*
X115496927Y-47713854D01*
X115512031Y-47544616D01*
X115512251Y-47542151D01*
X115512692Y-47500000D01*
X115500326Y-47318610D01*
X115494362Y-47231123D01*
X115494361Y-47231117D01*
X115494070Y-47226846D01*
X115438550Y-46958747D01*
X115347157Y-46700664D01*
X115335251Y-46677595D01*
X115223550Y-46461178D01*
X115223549Y-46461177D01*
X115221585Y-46457371D01*
X115208955Y-46439400D01*
X115066619Y-46236877D01*
X115066614Y-46236871D01*
X115064155Y-46233372D01*
X114933700Y-46092986D01*
X114901981Y-46029469D01*
X114900000Y-46007215D01*
X114900000Y-45052190D01*
X114920002Y-44984069D01*
X114936905Y-44963095D01*
X115355095Y-44544905D01*
X115417407Y-44510879D01*
X115444190Y-44508000D01*
X118712107Y-44508000D01*
X118780228Y-44528002D01*
G37*
%TD.AperFunction*%
%TD*%
M02*
