%TF.GenerationSoftware,KiCad,Pcbnew,(6.0.0-0)*%
%TF.CreationDate,2022-01-13T06:26:07-05:00*%
%TF.ProjectId,piUAV,70695541-562e-46b6-9963-61645f706362,rev?*%
%TF.SameCoordinates,Original*%
%TF.FileFunction,Soldermask,Bot*%
%TF.FilePolarity,Negative*%
%FSLAX46Y46*%
G04 Gerber Fmt 4.6, Leading zero omitted, Abs format (unit mm)*
G04 Created by KiCad (PCBNEW (6.0.0-0)) date 2022-01-13 06:26:07*
%MOMM*%
%LPD*%
G01*
G04 APERTURE LIST*
G04 Aperture macros list*
%AMFreePoly0*
4,1,22,0.500000,-0.750000,0.000000,-0.750000,0.000000,-0.745033,-0.079941,-0.743568,-0.215256,-0.701293,-0.333266,-0.622738,-0.424486,-0.514219,-0.481581,-0.384460,-0.499164,-0.250000,-0.500000,-0.250000,-0.500000,0.250000,-0.499164,0.250000,-0.499963,0.256109,-0.478152,0.396186,-0.417904,0.524511,-0.324060,0.630769,-0.204165,0.706417,-0.067858,0.745374,0.000000,0.744959,0.000000,0.750000,
0.500000,0.750000,0.500000,-0.750000,0.500000,-0.750000,$1*%
%AMFreePoly1*
4,1,20,0.000000,0.744959,0.073905,0.744508,0.209726,0.703889,0.328688,0.626782,0.421226,0.519385,0.479903,0.390333,0.500000,0.250000,0.500000,-0.250000,0.499851,-0.262216,0.476331,-0.402017,0.414519,-0.529596,0.319384,-0.634700,0.198574,-0.708877,0.061801,-0.746166,0.000000,-0.745033,0.000000,-0.750000,-0.500000,-0.750000,-0.500000,0.750000,0.000000,0.750000,0.000000,0.744959,
0.000000,0.744959,$1*%
G04 Aperture macros list end*
%ADD10R,1.700000X1.700000*%
%ADD11O,1.700000X1.700000*%
%ADD12C,0.499999*%
%ADD13O,1.550000X0.890000*%
%ADD14O,0.950000X1.250000*%
%ADD15FreePoly0,270.000000*%
%ADD16FreePoly1,270.000000*%
G04 APERTURE END LIST*
D10*
%TO.C,J6*%
X122225000Y-100600000D03*
D11*
X122225000Y-98060000D03*
X124765000Y-100600000D03*
X124765000Y-98060000D03*
X127305000Y-100600000D03*
X127305000Y-98060000D03*
%TD*%
D10*
%TO.C,J2*%
X127325000Y-93025000D03*
D11*
X127325000Y-95565000D03*
X124785000Y-93025000D03*
X124785000Y-95565000D03*
X122245000Y-93025000D03*
X122245000Y-95565000D03*
%TD*%
D10*
%TO.C,J3*%
X117100000Y-100500000D03*
D11*
X117100000Y-97960000D03*
X117100000Y-95420000D03*
X117100000Y-92880000D03*
X117100000Y-90340000D03*
X117100000Y-87800000D03*
X117100000Y-85260000D03*
%TD*%
D10*
%TO.C,J7*%
X135225000Y-52375000D03*
D11*
X137765000Y-52375000D03*
X135225000Y-54915000D03*
X137765000Y-54915000D03*
X135225000Y-57455000D03*
X137765000Y-57455000D03*
X135225000Y-59995000D03*
X137765000Y-59995000D03*
X135225000Y-62535000D03*
X137765000Y-62535000D03*
X135225000Y-65075000D03*
X137765000Y-65075000D03*
X135225000Y-67615000D03*
X137765000Y-67615000D03*
X135225000Y-70155000D03*
X137765000Y-70155000D03*
X135225000Y-72695000D03*
X137765000Y-72695000D03*
X135225000Y-75235000D03*
X137765000Y-75235000D03*
X135225000Y-77775000D03*
X137765000Y-77775000D03*
X135225000Y-80315000D03*
X137765000Y-80315000D03*
X135225000Y-82855000D03*
X137765000Y-82855000D03*
X135225000Y-85395000D03*
X137765000Y-85395000D03*
X135225000Y-87935000D03*
X137765000Y-87935000D03*
X135225000Y-90475000D03*
X137765000Y-90475000D03*
X135225000Y-93015000D03*
X137765000Y-93015000D03*
X135225000Y-95555000D03*
X137765000Y-95555000D03*
X135225000Y-98095000D03*
X137765000Y-98095000D03*
X135225000Y-100635000D03*
X137765000Y-100635000D03*
%TD*%
D10*
%TO.C,J5*%
X114575000Y-100500000D03*
D11*
X112035000Y-100500000D03*
X114575000Y-97960000D03*
X112035000Y-97960000D03*
X114575000Y-95420000D03*
X112035000Y-95420000D03*
X114575000Y-92880000D03*
X112035000Y-92880000D03*
X114575000Y-90340000D03*
X112035000Y-90340000D03*
X114575000Y-87800000D03*
X112035000Y-87800000D03*
X114575000Y-85260000D03*
X112035000Y-85260000D03*
%TD*%
D12*
%TO.C,U5*%
X127000000Y-55900001D03*
X125700000Y-55900001D03*
X125700000Y-54599999D03*
X128300000Y-55900001D03*
X128300000Y-54599999D03*
X127000000Y-54599999D03*
%TD*%
D13*
%TO.C,J1*%
X111400000Y-76250000D03*
X111400000Y-69250000D03*
D14*
X114100000Y-70250000D03*
X114100000Y-75250000D03*
%TD*%
D10*
%TO.C,J8*%
X132350000Y-82840000D03*
D11*
X132350000Y-85380000D03*
X132350000Y-87920000D03*
X132350000Y-90460000D03*
X132350000Y-93000000D03*
X132350000Y-95540000D03*
X132350000Y-98080000D03*
X132350000Y-100620000D03*
%TD*%
D15*
%TO.C,JP4*%
X129800000Y-66150000D03*
D16*
X129800000Y-67450000D03*
%TD*%
D15*
%TO.C,JP5*%
X127600000Y-66150000D03*
D16*
X127600000Y-67450000D03*
%TD*%
M02*
