M48
; DRILL file {KiCad (6.0.0-0)} date Thursday, January 13, 2022 at 06:26:13 am
; FORMAT={-:-/ absolute / inch / decimal}
; #@! TF.CreationDate,2022-01-13T06:26:13-05:00
; #@! TF.GenerationSoftware,Kicad,Pcbnew,(6.0.0-0)
; #@! TF.FileFunction,Plated,1,4,PTH
FMAT,2
INCH
; #@! TA.AperFunction,Plated,PTH,ComponentDrill
T1C0.0080
; #@! TA.AperFunction,Plated,PTH,ComponentDrill
T2C0.0138
; #@! TA.AperFunction,Plated,PTH,ViaDrill
T3C0.0157
; #@! TA.AperFunction,Plated,PTH,ComponentDrill
T4C0.0197
; #@! TA.AperFunction,Plated,PTH,ComponentDrill
T5C0.0217
; #@! TA.AperFunction,Plated,PTH,ComponentDrill
T6C0.0394
%
G90
G05
T1
X4.9488Y-2.1496
X4.9488Y-2.2008
X5.0Y-2.1496
X5.0Y-2.2008
X5.0512Y-2.1496
X5.0512Y-2.2008
T2
X4.8711Y-2.8533
X4.8711Y-2.9035
X4.8711Y-2.9537
X4.9213Y-2.8533
X4.9213Y-2.9035
X4.9213Y-2.9537
X4.9715Y-2.8533
X4.9715Y-2.9035
X4.9715Y-2.9537
T3
X4.3524Y-2.3681
X4.3839Y-2.5906
X4.3858Y-3.2677
X4.437Y-2.3642
X4.4646Y-2.1791
X4.4724Y-2.0275
X4.4724Y-2.4173
X4.4724Y-2.5157
X4.5571Y-2.3268
X4.5572Y-3.0591
X4.5866Y-1.7874
X4.5866Y-1.8268
X4.5866Y-1.8661
X4.626Y-1.7874
X4.626Y-1.8268
X4.626Y-1.8661
X4.6417Y-2.6713
X4.6417Y-4.0354
X4.6516Y-2.9862
X4.6518Y-2.4801
X4.6831Y-2.6713
X4.6949Y-4.0079
X4.7146Y-3.0571
X4.7165Y-1.7874
X4.7165Y-1.8268
X4.7165Y-1.8661
X4.7283Y-2.1437
X4.7283Y-2.5177
X4.7283Y-2.6713
X4.7382Y-2.313
X4.7402Y-3.811
X4.7434Y-3.4528
X4.7522Y-3.4961
X4.7559Y-1.7874
X4.7559Y-1.8268
X4.7559Y-1.8661
X4.8002Y-3.0748
X4.8002Y-3.1142
X4.8002Y-3.1535
X4.8091Y-3.4803
X4.8091Y-3.5217
X4.8287Y-2.9291
X4.8299Y-3.3549
X4.8307Y-1.7874
X4.8307Y-1.8268
X4.8307Y-1.8661
X4.8307Y-2.9902
X4.8438Y-3.1489
X4.8484Y-2.4803
X4.8484Y-2.5236
X4.8622Y-3.3229
X4.8661Y-2.6949
X4.8661Y-3.6142
X4.8701Y-1.7874
X4.8701Y-1.8268
X4.8701Y-1.8661
X4.8701Y-2.9902
X4.9055Y-2.7185
X4.9094Y-2.9902
X4.9134Y-2.1752
X4.9258Y-3.2578
X4.9409Y-4.1063
X4.9409Y-4.189
X4.9409Y-4.2677
X4.9449Y-2.7185
X4.9487Y-2.993
X4.9567Y-3.0796
X4.9606Y-1.7874
X4.9606Y-1.8268
X4.9606Y-1.8661
X4.9663Y-3.2591
X4.9764Y-1.9744
X4.9842Y-2.7185
X4.9921Y-2.9921
X5.0Y-1.7874
X5.0Y-1.8268
X5.0Y-1.8661
X5.0164Y-2.8086
X5.0236Y-3.5571
X5.0372Y-3.2638
X5.0551Y-2.7008
X5.0551Y-2.7402
X5.0551Y-2.7795
X5.0748Y-3.3799
X5.0787Y-1.7874
X5.0787Y-1.8268
X5.0787Y-1.8661
X5.0827Y-2.1752
X5.0866Y-1.9744
X5.0984Y-3.2323
X5.1102Y-4.0276
X5.1181Y-1.7874
X5.1181Y-1.8268
X5.1181Y-1.8661
X5.1236Y-3.2969
X5.1535Y-3.0709
X5.1693Y-2.7126
X5.1693Y-2.9921
X5.2165Y-1.7874
X5.2165Y-1.8268
X5.2165Y-1.8661
X5.2323Y-2.6142
X5.2559Y-1.7874
X5.2559Y-1.8268
X5.2559Y-1.8661
X5.2795Y-4.065
T6
X4.4108Y-3.3567
X4.4108Y-3.4567
X4.4108Y-3.5567
X4.4108Y-3.6567
X4.4108Y-3.7567
X4.4108Y-3.8567
X4.4108Y-3.9567
X4.5108Y-3.3567
X4.5108Y-3.4567
X4.5108Y-3.5567
X4.5108Y-3.6567
X4.5108Y-3.7567
X4.5108Y-3.8567
X4.5108Y-3.9567
X4.6102Y-3.3567
X4.6102Y-3.4567
X4.6102Y-3.5567
X4.6102Y-3.6567
X4.6102Y-3.7567
X4.6102Y-3.8567
X4.6102Y-3.9567
X4.812Y-3.8606
X4.812Y-3.9606
X4.8128Y-3.6624
X4.8128Y-3.7624
X4.912Y-3.8606
X4.912Y-3.9606
X4.9128Y-3.6624
X4.9128Y-3.7624
X5.012Y-3.8606
X5.012Y-3.9606
X5.0128Y-3.6624
X5.0128Y-3.7624
X5.2106Y-3.2614
X5.2106Y-3.3614
X5.2106Y-3.4614
X5.2106Y-3.5614
X5.2106Y-3.6614
X5.2106Y-3.7614
X5.2106Y-3.8614
X5.2106Y-3.9614
X5.3238Y-2.062
X5.3238Y-2.162
X5.3238Y-2.262
X5.3238Y-2.362
X5.3238Y-2.462
X5.3238Y-2.562
X5.3238Y-2.662
X5.3238Y-2.762
X5.3238Y-2.862
X5.3238Y-2.962
X5.3238Y-3.062
X5.3238Y-3.162
X5.3238Y-3.262
X5.3238Y-3.362
X5.3238Y-3.462
X5.3238Y-3.562
X5.3238Y-3.662
X5.3238Y-3.762
X5.3238Y-3.862
X5.3238Y-3.962
X5.4238Y-2.062
X5.4238Y-2.162
X5.4238Y-2.262
X5.4238Y-2.362
X5.4238Y-2.462
X5.4238Y-2.562
X5.4238Y-2.662
X5.4238Y-2.762
X5.4238Y-2.862
X5.4238Y-2.962
X5.4238Y-3.062
X5.4238Y-3.162
X5.4238Y-3.262
X5.4238Y-3.362
X5.4238Y-3.462
X5.4238Y-3.562
X5.4238Y-3.662
X5.4238Y-3.762
X5.4238Y-3.862
X5.4238Y-3.962
T4
G00X4.3986Y-2.7264
M15
G01X4.373Y-2.7264
M16
G05
G00X4.3986Y-3.002
M15
G01X4.373Y-3.002
M16
G05
T5
G00X4.4921Y-2.7598
M15
G01X4.4921Y-2.7717
M16
G05
G00X4.4921Y-2.9567
M15
G01X4.4921Y-2.9685
M16
G05
T0
M30
