%TF.GenerationSoftware,KiCad,Pcbnew,(6.0.0-0)*%
%TF.CreationDate,2022-01-13T06:26:06-05:00*%
%TF.ProjectId,piUAV,70695541-562e-46b6-9963-61645f706362,rev?*%
%TF.SameCoordinates,Original*%
%TF.FileFunction,Legend,Top*%
%TF.FilePolarity,Positive*%
%FSLAX46Y46*%
G04 Gerber Fmt 4.6, Leading zero omitted, Abs format (unit mm)*
G04 Created by KiCad (PCBNEW (6.0.0-0)) date 2022-01-13 06:26:06*
%MOMM*%
%LPD*%
G01*
G04 APERTURE LIST*
%ADD10C,0.250000*%
%ADD11C,0.125000*%
%ADD12C,0.175000*%
%ADD13C,0.150000*%
%ADD14C,0.120000*%
%ADD15C,0.100000*%
G04 APERTURE END LIST*
D10*
X120461904Y-105828571D02*
X120795238Y-105828571D01*
X120938095Y-106352380D02*
X120461904Y-106352380D01*
X120461904Y-105352380D01*
X120938095Y-105352380D01*
X121938095Y-106352380D02*
X121604761Y-105876190D01*
X121366666Y-106352380D02*
X121366666Y-105352380D01*
X121747619Y-105352380D01*
X121842857Y-105400000D01*
X121890476Y-105447619D01*
X121938095Y-105542857D01*
X121938095Y-105685714D01*
X121890476Y-105780952D01*
X121842857Y-105828571D01*
X121747619Y-105876190D01*
X121366666Y-105876190D01*
X122938095Y-106352380D02*
X122604761Y-105876190D01*
X122366666Y-106352380D02*
X122366666Y-105352380D01*
X122747619Y-105352380D01*
X122842857Y-105400000D01*
X122890476Y-105447619D01*
X122938095Y-105542857D01*
X122938095Y-105685714D01*
X122890476Y-105780952D01*
X122842857Y-105828571D01*
X122747619Y-105876190D01*
X122366666Y-105876190D01*
X123557142Y-105352380D02*
X123747619Y-105352380D01*
X123842857Y-105400000D01*
X123938095Y-105495238D01*
X123985714Y-105685714D01*
X123985714Y-106019047D01*
X123938095Y-106209523D01*
X123842857Y-106304761D01*
X123747619Y-106352380D01*
X123557142Y-106352380D01*
X123461904Y-106304761D01*
X123366666Y-106209523D01*
X123319047Y-106019047D01*
X123319047Y-105685714D01*
X123366666Y-105495238D01*
X123461904Y-105400000D01*
X123557142Y-105352380D01*
X124985714Y-106352380D02*
X124652380Y-105876190D01*
X124414285Y-106352380D02*
X124414285Y-105352380D01*
X124795238Y-105352380D01*
X124890476Y-105400000D01*
X124938095Y-105447619D01*
X124985714Y-105542857D01*
X124985714Y-105685714D01*
X124938095Y-105780952D01*
X124890476Y-105828571D01*
X124795238Y-105876190D01*
X124414285Y-105876190D01*
X119628571Y-87242857D02*
X119400000Y-87242857D01*
X119285714Y-87300000D01*
X119228571Y-87357142D01*
X119114285Y-87528571D01*
X119057142Y-87757142D01*
X119057142Y-88214285D01*
X119114285Y-88328571D01*
X119171428Y-88385714D01*
X119285714Y-88442857D01*
X119514285Y-88442857D01*
X119628571Y-88385714D01*
X119685714Y-88328571D01*
X119742857Y-88214285D01*
X119742857Y-87928571D01*
X119685714Y-87814285D01*
X119628571Y-87757142D01*
X119514285Y-87700000D01*
X119285714Y-87700000D01*
X119171428Y-87757142D01*
X119114285Y-87814285D01*
X119057142Y-87928571D01*
D11*
X122176190Y-77107142D02*
X122176190Y-77392857D01*
X122176190Y-77250000D02*
X121676190Y-77250000D01*
X121747619Y-77297619D01*
X121795238Y-77345238D01*
X121819047Y-77392857D01*
D10*
X121250000Y-108452380D02*
X120916666Y-107976190D01*
X120678571Y-108452380D02*
X120678571Y-107452380D01*
X121059523Y-107452380D01*
X121154761Y-107500000D01*
X121202380Y-107547619D01*
X121250000Y-107642857D01*
X121250000Y-107785714D01*
X121202380Y-107880952D01*
X121154761Y-107928571D01*
X121059523Y-107976190D01*
X120678571Y-107976190D01*
X121678571Y-107928571D02*
X122011904Y-107928571D01*
X122154761Y-108452380D02*
X121678571Y-108452380D01*
X121678571Y-107452380D01*
X122154761Y-107452380D01*
X122535714Y-108166666D02*
X123011904Y-108166666D01*
X122440476Y-108452380D02*
X122773809Y-107452380D01*
X123107142Y-108452380D01*
X123440476Y-108452380D02*
X123440476Y-107452380D01*
X123678571Y-107452380D01*
X123821428Y-107500000D01*
X123916666Y-107595238D01*
X123964285Y-107690476D01*
X124011904Y-107880952D01*
X124011904Y-108023809D01*
X123964285Y-108214285D01*
X123916666Y-108309523D01*
X123821428Y-108404761D01*
X123678571Y-108452380D01*
X123440476Y-108452380D01*
X124630952Y-107976190D02*
X124630952Y-108452380D01*
X124297619Y-107452380D02*
X124630952Y-107976190D01*
X124964285Y-107452380D01*
X119771428Y-85542857D02*
X119371428Y-84971428D01*
X119085714Y-85542857D02*
X119085714Y-84342857D01*
X119542857Y-84342857D01*
X119657142Y-84400000D01*
X119714285Y-84457142D01*
X119771428Y-84571428D01*
X119771428Y-84742857D01*
X119714285Y-84857142D01*
X119657142Y-84914285D01*
X119542857Y-84971428D01*
X119085714Y-84971428D01*
D11*
X131042857Y-63926190D02*
X130757142Y-63926190D01*
X130900000Y-63926190D02*
X130900000Y-63426190D01*
X130852380Y-63497619D01*
X130804761Y-63545238D01*
X130757142Y-63569047D01*
D10*
X119000000Y-94842857D02*
X119742857Y-94842857D01*
X119342857Y-95300000D01*
X119514285Y-95300000D01*
X119628571Y-95357142D01*
X119685714Y-95414285D01*
X119742857Y-95528571D01*
X119742857Y-95814285D01*
X119685714Y-95928571D01*
X119628571Y-95985714D01*
X119514285Y-96042857D01*
X119171428Y-96042857D01*
X119057142Y-95985714D01*
X119000000Y-95928571D01*
D11*
X118257142Y-81973809D02*
X118542857Y-81973809D01*
X118400000Y-81973809D02*
X118400000Y-82473809D01*
X118447619Y-82402380D01*
X118495238Y-82354761D01*
X118542857Y-82330952D01*
D12*
X113400000Y-65116666D02*
X113400000Y-64416666D01*
X113633333Y-64916666D01*
X113866666Y-64416666D01*
X113866666Y-65116666D01*
X114600000Y-65050000D02*
X114566666Y-65083333D01*
X114466666Y-65116666D01*
X114400000Y-65116666D01*
X114300000Y-65083333D01*
X114233333Y-65016666D01*
X114200000Y-64950000D01*
X114166666Y-64816666D01*
X114166666Y-64716666D01*
X114200000Y-64583333D01*
X114233333Y-64516666D01*
X114300000Y-64450000D01*
X114400000Y-64416666D01*
X114466666Y-64416666D01*
X114566666Y-64450000D01*
X114600000Y-64483333D01*
X114900000Y-64416666D02*
X114900000Y-64983333D01*
X114933333Y-65050000D01*
X114966666Y-65083333D01*
X115033333Y-65116666D01*
X115166666Y-65116666D01*
X115233333Y-65083333D01*
X115266666Y-65050000D01*
X115300000Y-64983333D01*
X115300000Y-64416666D01*
X117133333Y-108766666D02*
X116900000Y-108433333D01*
X116733333Y-108766666D02*
X116733333Y-108066666D01*
X117000000Y-108066666D01*
X117066666Y-108100000D01*
X117100000Y-108133333D01*
X117133333Y-108200000D01*
X117133333Y-108300000D01*
X117100000Y-108366666D01*
X117066666Y-108400000D01*
X117000000Y-108433333D01*
X116733333Y-108433333D01*
X117433333Y-108400000D02*
X117666666Y-108400000D01*
X117766666Y-108766666D02*
X117433333Y-108766666D01*
X117433333Y-108066666D01*
X117766666Y-108066666D01*
X118033333Y-108733333D02*
X118133333Y-108766666D01*
X118300000Y-108766666D01*
X118366666Y-108733333D01*
X118400000Y-108700000D01*
X118433333Y-108633333D01*
X118433333Y-108566666D01*
X118400000Y-108500000D01*
X118366666Y-108466666D01*
X118300000Y-108433333D01*
X118166666Y-108400000D01*
X118100000Y-108366666D01*
X118066666Y-108333333D01*
X118033333Y-108266666D01*
X118033333Y-108200000D01*
X118066666Y-108133333D01*
X118100000Y-108100000D01*
X118166666Y-108066666D01*
X118333333Y-108066666D01*
X118433333Y-108100000D01*
X118733333Y-108400000D02*
X118966666Y-108400000D01*
X119066666Y-108766666D02*
X118733333Y-108766666D01*
X118733333Y-108066666D01*
X119066666Y-108066666D01*
X119266666Y-108066666D02*
X119666666Y-108066666D01*
X119466666Y-108766666D02*
X119466666Y-108066666D01*
D11*
X115576190Y-59157142D02*
X115576190Y-59442857D01*
X115576190Y-59300000D02*
X115076190Y-59300000D01*
X115147619Y-59347619D01*
X115195238Y-59395238D01*
X115219047Y-59442857D01*
D10*
X119628571Y-92642857D02*
X119628571Y-93442857D01*
X119342857Y-92185714D02*
X119057142Y-93042857D01*
X119800000Y-93042857D01*
X119685714Y-89742857D02*
X119114285Y-89742857D01*
X119057142Y-90314285D01*
X119114285Y-90257142D01*
X119228571Y-90200000D01*
X119514285Y-90200000D01*
X119628571Y-90257142D01*
X119685714Y-90314285D01*
X119742857Y-90428571D01*
X119742857Y-90714285D01*
X119685714Y-90828571D01*
X119628571Y-90885714D01*
X119514285Y-90942857D01*
X119228571Y-90942857D01*
X119114285Y-90885714D01*
X119057142Y-90828571D01*
D12*
X112316666Y-54416666D02*
X111983333Y-54416666D01*
X111950000Y-54750000D01*
X111983333Y-54716666D01*
X112050000Y-54683333D01*
X112216666Y-54683333D01*
X112283333Y-54716666D01*
X112316666Y-54750000D01*
X112350000Y-54816666D01*
X112350000Y-54983333D01*
X112316666Y-55050000D01*
X112283333Y-55083333D01*
X112216666Y-55116666D01*
X112050000Y-55116666D01*
X111983333Y-55083333D01*
X111950000Y-55050000D01*
X112550000Y-54416666D02*
X112783333Y-55116666D01*
X113016666Y-54416666D01*
X130066666Y-108450000D02*
X130166666Y-108483333D01*
X130200000Y-108516666D01*
X130233333Y-108583333D01*
X130233333Y-108683333D01*
X130200000Y-108750000D01*
X130166666Y-108783333D01*
X130100000Y-108816666D01*
X129833333Y-108816666D01*
X129833333Y-108116666D01*
X130066666Y-108116666D01*
X130133333Y-108150000D01*
X130166666Y-108183333D01*
X130200000Y-108250000D01*
X130200000Y-108316666D01*
X130166666Y-108383333D01*
X130133333Y-108416666D01*
X130066666Y-108450000D01*
X129833333Y-108450000D01*
X130666666Y-108116666D02*
X130800000Y-108116666D01*
X130866666Y-108150000D01*
X130933333Y-108216666D01*
X130966666Y-108350000D01*
X130966666Y-108583333D01*
X130933333Y-108716666D01*
X130866666Y-108783333D01*
X130800000Y-108816666D01*
X130666666Y-108816666D01*
X130600000Y-108783333D01*
X130533333Y-108716666D01*
X130500000Y-108583333D01*
X130500000Y-108350000D01*
X130533333Y-108216666D01*
X130600000Y-108150000D01*
X130666666Y-108116666D01*
X131400000Y-108116666D02*
X131533333Y-108116666D01*
X131600000Y-108150000D01*
X131666666Y-108216666D01*
X131700000Y-108350000D01*
X131700000Y-108583333D01*
X131666666Y-108716666D01*
X131600000Y-108783333D01*
X131533333Y-108816666D01*
X131400000Y-108816666D01*
X131333333Y-108783333D01*
X131266666Y-108716666D01*
X131233333Y-108583333D01*
X131233333Y-108350000D01*
X131266666Y-108216666D01*
X131333333Y-108150000D01*
X131400000Y-108116666D01*
X131900000Y-108116666D02*
X132300000Y-108116666D01*
X132100000Y-108816666D02*
X132100000Y-108116666D01*
X132500000Y-108783333D02*
X132600000Y-108816666D01*
X132766666Y-108816666D01*
X132833333Y-108783333D01*
X132866666Y-108750000D01*
X132900000Y-108683333D01*
X132900000Y-108616666D01*
X132866666Y-108550000D01*
X132833333Y-108516666D01*
X132766666Y-108483333D01*
X132633333Y-108450000D01*
X132566666Y-108416666D01*
X132533333Y-108383333D01*
X132500000Y-108316666D01*
X132500000Y-108250000D01*
X132533333Y-108183333D01*
X132566666Y-108150000D01*
X132633333Y-108116666D01*
X132800000Y-108116666D01*
X132900000Y-108150000D01*
X133200000Y-108450000D02*
X133433333Y-108450000D01*
X133533333Y-108816666D02*
X133200000Y-108816666D01*
X133200000Y-108116666D01*
X133533333Y-108116666D01*
X134166666Y-108816666D02*
X133833333Y-108816666D01*
X133833333Y-108116666D01*
D11*
X123826190Y-90107142D02*
X123826190Y-90392857D01*
X123826190Y-90250000D02*
X123326190Y-90250000D01*
X123397619Y-90297619D01*
X123445238Y-90345238D01*
X123469047Y-90392857D01*
X128623809Y-53842857D02*
X128623809Y-53557142D01*
X128623809Y-53700000D02*
X129123809Y-53700000D01*
X129052380Y-53652380D01*
X129004761Y-53604761D01*
X128980952Y-53557142D01*
D10*
X119057142Y-97457142D02*
X119114285Y-97400000D01*
X119228571Y-97342857D01*
X119514285Y-97342857D01*
X119628571Y-97400000D01*
X119685714Y-97457142D01*
X119742857Y-97571428D01*
X119742857Y-97685714D01*
X119685714Y-97857142D01*
X119000000Y-98542857D01*
X119742857Y-98542857D01*
D12*
X113433333Y-62666666D02*
X113433333Y-61966666D01*
X113900000Y-61966666D02*
X114033333Y-61966666D01*
X114100000Y-62000000D01*
X114166666Y-62066666D01*
X114200000Y-62200000D01*
X114200000Y-62433333D01*
X114166666Y-62566666D01*
X114100000Y-62633333D01*
X114033333Y-62666666D01*
X113900000Y-62666666D01*
X113833333Y-62633333D01*
X113766666Y-62566666D01*
X113733333Y-62433333D01*
X113733333Y-62200000D01*
X113766666Y-62066666D01*
X113833333Y-62000000D01*
X113900000Y-61966666D01*
D10*
X119742857Y-100942857D02*
X119057142Y-100942857D01*
X119400000Y-100942857D02*
X119400000Y-99742857D01*
X119285714Y-99914285D01*
X119171428Y-100028571D01*
X119057142Y-100085714D01*
D12*
X110216666Y-54366666D02*
X110650000Y-54366666D01*
X110416666Y-54633333D01*
X110516666Y-54633333D01*
X110583333Y-54666666D01*
X110616666Y-54700000D01*
X110650000Y-54766666D01*
X110650000Y-54933333D01*
X110616666Y-55000000D01*
X110583333Y-55033333D01*
X110516666Y-55066666D01*
X110316666Y-55066666D01*
X110250000Y-55033333D01*
X110216666Y-55000000D01*
X110850000Y-54366666D02*
X111083333Y-55066666D01*
X111316666Y-54366666D01*
D11*
X132942857Y-58326190D02*
X132657142Y-58326190D01*
X132800000Y-58326190D02*
X132800000Y-57826190D01*
X132752380Y-57897619D01*
X132704761Y-57945238D01*
X132657142Y-57969047D01*
D10*
X121350000Y-104157142D02*
X121302380Y-104204761D01*
X121159523Y-104252380D01*
X121064285Y-104252380D01*
X120921428Y-104204761D01*
X120826190Y-104109523D01*
X120778571Y-104014285D01*
X120730952Y-103823809D01*
X120730952Y-103680952D01*
X120778571Y-103490476D01*
X120826190Y-103395238D01*
X120921428Y-103300000D01*
X121064285Y-103252380D01*
X121159523Y-103252380D01*
X121302380Y-103300000D01*
X121350000Y-103347619D01*
X121730952Y-103966666D02*
X122207142Y-103966666D01*
X121635714Y-104252380D02*
X121969047Y-103252380D01*
X122302380Y-104252380D01*
X123111904Y-104252380D02*
X122635714Y-104252380D01*
X122635714Y-103252380D01*
X123445238Y-104252380D02*
X123445238Y-103252380D01*
X124254761Y-103728571D02*
X124397619Y-103776190D01*
X124445238Y-103823809D01*
X124492857Y-103919047D01*
X124492857Y-104061904D01*
X124445238Y-104157142D01*
X124397619Y-104204761D01*
X124302380Y-104252380D01*
X123921428Y-104252380D01*
X123921428Y-103252380D01*
X124254761Y-103252380D01*
X124350000Y-103300000D01*
X124397619Y-103347619D01*
X124445238Y-103442857D01*
X124445238Y-103538095D01*
X124397619Y-103633333D01*
X124350000Y-103680952D01*
X124254761Y-103728571D01*
X123921428Y-103728571D01*
X124921428Y-104157142D02*
X124969047Y-104204761D01*
X124921428Y-104252380D01*
X124873809Y-104204761D01*
X124921428Y-104157142D01*
X124921428Y-104252380D01*
D11*
X118107142Y-72773809D02*
X118392857Y-72773809D01*
X118250000Y-72773809D02*
X118250000Y-73273809D01*
X118297619Y-73202380D01*
X118345238Y-73154761D01*
X118392857Y-73130952D01*
D12*
X115166666Y-67466666D02*
X114833333Y-67466666D01*
X114800000Y-67800000D01*
X114833333Y-67766666D01*
X114900000Y-67733333D01*
X115066666Y-67733333D01*
X115133333Y-67766666D01*
X115166666Y-67800000D01*
X115200000Y-67866666D01*
X115200000Y-68033333D01*
X115166666Y-68100000D01*
X115133333Y-68133333D01*
X115066666Y-68166666D01*
X114900000Y-68166666D01*
X114833333Y-68133333D01*
X114800000Y-68100000D01*
X115400000Y-67466666D02*
X115633333Y-68166666D01*
X115866666Y-67466666D01*
X116100000Y-68100000D02*
X116133333Y-68133333D01*
X116100000Y-68166666D01*
X116066666Y-68133333D01*
X116100000Y-68100000D01*
X116100000Y-68166666D01*
X116433333Y-67800000D02*
X116666666Y-67800000D01*
X116766666Y-68166666D02*
X116433333Y-68166666D01*
X116433333Y-67466666D01*
X116766666Y-67466666D01*
X117066666Y-68166666D02*
X117066666Y-67466666D01*
X117466666Y-68166666D01*
X117466666Y-67466666D01*
D11*
%TO.C,R14*%
X113376190Y-58221428D02*
X113138095Y-58388095D01*
X113376190Y-58507142D02*
X112876190Y-58507142D01*
X112876190Y-58316666D01*
X112900000Y-58269047D01*
X112923809Y-58245238D01*
X112971428Y-58221428D01*
X113042857Y-58221428D01*
X113090476Y-58245238D01*
X113114285Y-58269047D01*
X113138095Y-58316666D01*
X113138095Y-58507142D01*
X113376190Y-57745238D02*
X113376190Y-58030952D01*
X113376190Y-57888095D02*
X112876190Y-57888095D01*
X112947619Y-57935714D01*
X112995238Y-57983333D01*
X113019047Y-58030952D01*
X113042857Y-57316666D02*
X113376190Y-57316666D01*
X112852380Y-57435714D02*
X113209523Y-57554761D01*
X113209523Y-57245238D01*
%TO.C,C3*%
X117816666Y-70028571D02*
X117792857Y-70052380D01*
X117721428Y-70076190D01*
X117673809Y-70076190D01*
X117602380Y-70052380D01*
X117554761Y-70004761D01*
X117530952Y-69957142D01*
X117507142Y-69861904D01*
X117507142Y-69790476D01*
X117530952Y-69695238D01*
X117554761Y-69647619D01*
X117602380Y-69600000D01*
X117673809Y-69576190D01*
X117721428Y-69576190D01*
X117792857Y-69600000D01*
X117816666Y-69623809D01*
X117983333Y-69576190D02*
X118292857Y-69576190D01*
X118126190Y-69766666D01*
X118197619Y-69766666D01*
X118245238Y-69790476D01*
X118269047Y-69814285D01*
X118292857Y-69861904D01*
X118292857Y-69980952D01*
X118269047Y-70028571D01*
X118245238Y-70052380D01*
X118197619Y-70076190D01*
X118054761Y-70076190D01*
X118007142Y-70052380D01*
X117983333Y-70028571D01*
%TO.C,D2*%
X127638452Y-105626190D02*
X127638452Y-105126190D01*
X127757500Y-105126190D01*
X127828928Y-105150000D01*
X127876547Y-105197619D01*
X127900357Y-105245238D01*
X127924166Y-105340476D01*
X127924166Y-105411904D01*
X127900357Y-105507142D01*
X127876547Y-105554761D01*
X127828928Y-105602380D01*
X127757500Y-105626190D01*
X127638452Y-105626190D01*
X128114642Y-105173809D02*
X128138452Y-105150000D01*
X128186071Y-105126190D01*
X128305119Y-105126190D01*
X128352738Y-105150000D01*
X128376547Y-105173809D01*
X128400357Y-105221428D01*
X128400357Y-105269047D01*
X128376547Y-105340476D01*
X128090833Y-105626190D01*
X128400357Y-105626190D01*
%TO.C,R6*%
X123519166Y-84176190D02*
X123352500Y-83938095D01*
X123233452Y-84176190D02*
X123233452Y-83676190D01*
X123423928Y-83676190D01*
X123471547Y-83700000D01*
X123495357Y-83723809D01*
X123519166Y-83771428D01*
X123519166Y-83842857D01*
X123495357Y-83890476D01*
X123471547Y-83914285D01*
X123423928Y-83938095D01*
X123233452Y-83938095D01*
X123947738Y-83676190D02*
X123852500Y-83676190D01*
X123804880Y-83700000D01*
X123781071Y-83723809D01*
X123733452Y-83795238D01*
X123709642Y-83890476D01*
X123709642Y-84080952D01*
X123733452Y-84128571D01*
X123757261Y-84152380D01*
X123804880Y-84176190D01*
X123900119Y-84176190D01*
X123947738Y-84152380D01*
X123971547Y-84128571D01*
X123995357Y-84080952D01*
X123995357Y-83961904D01*
X123971547Y-83914285D01*
X123947738Y-83890476D01*
X123900119Y-83866666D01*
X123804880Y-83866666D01*
X123757261Y-83890476D01*
X123733452Y-83914285D01*
X123709642Y-83961904D01*
%TO.C,C21*%
X127878571Y-50378571D02*
X127854761Y-50402380D01*
X127783333Y-50426190D01*
X127735714Y-50426190D01*
X127664285Y-50402380D01*
X127616666Y-50354761D01*
X127592857Y-50307142D01*
X127569047Y-50211904D01*
X127569047Y-50140476D01*
X127592857Y-50045238D01*
X127616666Y-49997619D01*
X127664285Y-49950000D01*
X127735714Y-49926190D01*
X127783333Y-49926190D01*
X127854761Y-49950000D01*
X127878571Y-49973809D01*
X128069047Y-49973809D02*
X128092857Y-49950000D01*
X128140476Y-49926190D01*
X128259523Y-49926190D01*
X128307142Y-49950000D01*
X128330952Y-49973809D01*
X128354761Y-50021428D01*
X128354761Y-50069047D01*
X128330952Y-50140476D01*
X128045238Y-50426190D01*
X128354761Y-50426190D01*
X128830952Y-50426190D02*
X128545238Y-50426190D01*
X128688095Y-50426190D02*
X128688095Y-49926190D01*
X128640476Y-49997619D01*
X128592857Y-50045238D01*
X128545238Y-50069047D01*
%TO.C,C10*%
X117378571Y-65028571D02*
X117354761Y-65052380D01*
X117283333Y-65076190D01*
X117235714Y-65076190D01*
X117164285Y-65052380D01*
X117116666Y-65004761D01*
X117092857Y-64957142D01*
X117069047Y-64861904D01*
X117069047Y-64790476D01*
X117092857Y-64695238D01*
X117116666Y-64647619D01*
X117164285Y-64600000D01*
X117235714Y-64576190D01*
X117283333Y-64576190D01*
X117354761Y-64600000D01*
X117378571Y-64623809D01*
X117854761Y-65076190D02*
X117569047Y-65076190D01*
X117711904Y-65076190D02*
X117711904Y-64576190D01*
X117664285Y-64647619D01*
X117616666Y-64695238D01*
X117569047Y-64719047D01*
X118164285Y-64576190D02*
X118211904Y-64576190D01*
X118259523Y-64600000D01*
X118283333Y-64623809D01*
X118307142Y-64671428D01*
X118330952Y-64766666D01*
X118330952Y-64885714D01*
X118307142Y-64980952D01*
X118283333Y-65028571D01*
X118259523Y-65052380D01*
X118211904Y-65076190D01*
X118164285Y-65076190D01*
X118116666Y-65052380D01*
X118092857Y-65028571D01*
X118069047Y-64980952D01*
X118045238Y-64885714D01*
X118045238Y-64766666D01*
X118069047Y-64671428D01*
X118092857Y-64623809D01*
X118116666Y-64600000D01*
X118164285Y-64576190D01*
%TO.C,R8*%
X125616666Y-50426190D02*
X125450000Y-50188095D01*
X125330952Y-50426190D02*
X125330952Y-49926190D01*
X125521428Y-49926190D01*
X125569047Y-49950000D01*
X125592857Y-49973809D01*
X125616666Y-50021428D01*
X125616666Y-50092857D01*
X125592857Y-50140476D01*
X125569047Y-50164285D01*
X125521428Y-50188095D01*
X125330952Y-50188095D01*
X125902380Y-50140476D02*
X125854761Y-50116666D01*
X125830952Y-50092857D01*
X125807142Y-50045238D01*
X125807142Y-50021428D01*
X125830952Y-49973809D01*
X125854761Y-49950000D01*
X125902380Y-49926190D01*
X125997619Y-49926190D01*
X126045238Y-49950000D01*
X126069047Y-49973809D01*
X126092857Y-50021428D01*
X126092857Y-50045238D01*
X126069047Y-50092857D01*
X126045238Y-50116666D01*
X125997619Y-50140476D01*
X125902380Y-50140476D01*
X125854761Y-50164285D01*
X125830952Y-50188095D01*
X125807142Y-50235714D01*
X125807142Y-50330952D01*
X125830952Y-50378571D01*
X125854761Y-50402380D01*
X125902380Y-50426190D01*
X125997619Y-50426190D01*
X126045238Y-50402380D01*
X126069047Y-50378571D01*
X126092857Y-50330952D01*
X126092857Y-50235714D01*
X126069047Y-50188095D01*
X126045238Y-50164285D01*
X125997619Y-50140476D01*
D13*
%TO.C,D6*%
X130911904Y-56602380D02*
X130911904Y-55602380D01*
X131150000Y-55602380D01*
X131292857Y-55650000D01*
X131388095Y-55745238D01*
X131435714Y-55840476D01*
X131483333Y-56030952D01*
X131483333Y-56173809D01*
X131435714Y-56364285D01*
X131388095Y-56459523D01*
X131292857Y-56554761D01*
X131150000Y-56602380D01*
X130911904Y-56602380D01*
X132340476Y-55602380D02*
X132150000Y-55602380D01*
X132054761Y-55650000D01*
X132007142Y-55697619D01*
X131911904Y-55840476D01*
X131864285Y-56030952D01*
X131864285Y-56411904D01*
X131911904Y-56507142D01*
X131959523Y-56554761D01*
X132054761Y-56602380D01*
X132245238Y-56602380D01*
X132340476Y-56554761D01*
X132388095Y-56507142D01*
X132435714Y-56411904D01*
X132435714Y-56173809D01*
X132388095Y-56078571D01*
X132340476Y-56030952D01*
X132245238Y-55983333D01*
X132054761Y-55983333D01*
X131959523Y-56030952D01*
X131911904Y-56078571D01*
X131864285Y-56173809D01*
D11*
%TO.C,R5*%
X129826190Y-71683333D02*
X129588095Y-71850000D01*
X129826190Y-71969047D02*
X129326190Y-71969047D01*
X129326190Y-71778571D01*
X129350000Y-71730952D01*
X129373809Y-71707142D01*
X129421428Y-71683333D01*
X129492857Y-71683333D01*
X129540476Y-71707142D01*
X129564285Y-71730952D01*
X129588095Y-71778571D01*
X129588095Y-71969047D01*
X129326190Y-71230952D02*
X129326190Y-71469047D01*
X129564285Y-71492857D01*
X129540476Y-71469047D01*
X129516666Y-71421428D01*
X129516666Y-71302380D01*
X129540476Y-71254761D01*
X129564285Y-71230952D01*
X129611904Y-71207142D01*
X129730952Y-71207142D01*
X129778571Y-71230952D01*
X129802380Y-71254761D01*
X129826190Y-71302380D01*
X129826190Y-71421428D01*
X129802380Y-71469047D01*
X129778571Y-71492857D01*
%TO.C,D1*%
X127603452Y-103526190D02*
X127603452Y-103026190D01*
X127722500Y-103026190D01*
X127793928Y-103050000D01*
X127841547Y-103097619D01*
X127865357Y-103145238D01*
X127889166Y-103240476D01*
X127889166Y-103311904D01*
X127865357Y-103407142D01*
X127841547Y-103454761D01*
X127793928Y-103502380D01*
X127722500Y-103526190D01*
X127603452Y-103526190D01*
X128365357Y-103526190D02*
X128079642Y-103526190D01*
X128222500Y-103526190D02*
X128222500Y-103026190D01*
X128174880Y-103097619D01*
X128127261Y-103145238D01*
X128079642Y-103169047D01*
%TO.C,R15*%
X122626190Y-57721428D02*
X122388095Y-57888095D01*
X122626190Y-58007142D02*
X122126190Y-58007142D01*
X122126190Y-57816666D01*
X122150000Y-57769047D01*
X122173809Y-57745238D01*
X122221428Y-57721428D01*
X122292857Y-57721428D01*
X122340476Y-57745238D01*
X122364285Y-57769047D01*
X122388095Y-57816666D01*
X122388095Y-58007142D01*
X122626190Y-57245238D02*
X122626190Y-57530952D01*
X122626190Y-57388095D02*
X122126190Y-57388095D01*
X122197619Y-57435714D01*
X122245238Y-57483333D01*
X122269047Y-57530952D01*
X122126190Y-56792857D02*
X122126190Y-57030952D01*
X122364285Y-57054761D01*
X122340476Y-57030952D01*
X122316666Y-56983333D01*
X122316666Y-56864285D01*
X122340476Y-56816666D01*
X122364285Y-56792857D01*
X122411904Y-56769047D01*
X122530952Y-56769047D01*
X122578571Y-56792857D01*
X122602380Y-56816666D01*
X122626190Y-56864285D01*
X122626190Y-56983333D01*
X122602380Y-57030952D01*
X122578571Y-57054761D01*
D13*
%TO.C,SW2*%
X118654761Y-106583333D02*
X118702380Y-106440476D01*
X118702380Y-106202380D01*
X118654761Y-106107142D01*
X118607142Y-106059523D01*
X118511904Y-106011904D01*
X118416666Y-106011904D01*
X118321428Y-106059523D01*
X118273809Y-106107142D01*
X118226190Y-106202380D01*
X118178571Y-106392857D01*
X118130952Y-106488095D01*
X118083333Y-106535714D01*
X117988095Y-106583333D01*
X117892857Y-106583333D01*
X117797619Y-106535714D01*
X117750000Y-106488095D01*
X117702380Y-106392857D01*
X117702380Y-106154761D01*
X117750000Y-106011904D01*
X117702380Y-105678571D02*
X118702380Y-105440476D01*
X117988095Y-105250000D01*
X118702380Y-105059523D01*
X117702380Y-104821428D01*
X117797619Y-104488095D02*
X117750000Y-104440476D01*
X117702380Y-104345238D01*
X117702380Y-104107142D01*
X117750000Y-104011904D01*
X117797619Y-103964285D01*
X117892857Y-103916666D01*
X117988095Y-103916666D01*
X118130952Y-103964285D01*
X118702380Y-104535714D01*
X118702380Y-103916666D01*
D11*
%TO.C,R3*%
X117626190Y-75883333D02*
X117388095Y-76050000D01*
X117626190Y-76169047D02*
X117126190Y-76169047D01*
X117126190Y-75978571D01*
X117150000Y-75930952D01*
X117173809Y-75907142D01*
X117221428Y-75883333D01*
X117292857Y-75883333D01*
X117340476Y-75907142D01*
X117364285Y-75930952D01*
X117388095Y-75978571D01*
X117388095Y-76169047D01*
X117126190Y-75716666D02*
X117126190Y-75407142D01*
X117316666Y-75573809D01*
X117316666Y-75502380D01*
X117340476Y-75454761D01*
X117364285Y-75430952D01*
X117411904Y-75407142D01*
X117530952Y-75407142D01*
X117578571Y-75430952D01*
X117602380Y-75454761D01*
X117626190Y-75502380D01*
X117626190Y-75645238D01*
X117602380Y-75692857D01*
X117578571Y-75716666D01*
%TO.C,C19*%
X129131071Y-85328571D02*
X129107261Y-85352380D01*
X129035833Y-85376190D01*
X128988214Y-85376190D01*
X128916785Y-85352380D01*
X128869166Y-85304761D01*
X128845357Y-85257142D01*
X128821547Y-85161904D01*
X128821547Y-85090476D01*
X128845357Y-84995238D01*
X128869166Y-84947619D01*
X128916785Y-84900000D01*
X128988214Y-84876190D01*
X129035833Y-84876190D01*
X129107261Y-84900000D01*
X129131071Y-84923809D01*
X129607261Y-85376190D02*
X129321547Y-85376190D01*
X129464404Y-85376190D02*
X129464404Y-84876190D01*
X129416785Y-84947619D01*
X129369166Y-84995238D01*
X129321547Y-85019047D01*
X129845357Y-85376190D02*
X129940595Y-85376190D01*
X129988214Y-85352380D01*
X130012023Y-85328571D01*
X130059642Y-85257142D01*
X130083452Y-85161904D01*
X130083452Y-84971428D01*
X130059642Y-84923809D01*
X130035833Y-84900000D01*
X129988214Y-84876190D01*
X129892976Y-84876190D01*
X129845357Y-84900000D01*
X129821547Y-84923809D01*
X129797738Y-84971428D01*
X129797738Y-85090476D01*
X129821547Y-85138095D01*
X129845357Y-85161904D01*
X129892976Y-85185714D01*
X129988214Y-85185714D01*
X130035833Y-85161904D01*
X130059642Y-85138095D01*
X130083452Y-85090476D01*
D13*
%TO.C,J6*%
X124416666Y-98782380D02*
X124416666Y-99496666D01*
X124369047Y-99639523D01*
X124273809Y-99734761D01*
X124130952Y-99782380D01*
X124035714Y-99782380D01*
X125321428Y-98782380D02*
X125130952Y-98782380D01*
X125035714Y-98830000D01*
X124988095Y-98877619D01*
X124892857Y-99020476D01*
X124845238Y-99210952D01*
X124845238Y-99591904D01*
X124892857Y-99687142D01*
X124940476Y-99734761D01*
X125035714Y-99782380D01*
X125226190Y-99782380D01*
X125321428Y-99734761D01*
X125369047Y-99687142D01*
X125416666Y-99591904D01*
X125416666Y-99353809D01*
X125369047Y-99258571D01*
X125321428Y-99210952D01*
X125226190Y-99163333D01*
X125035714Y-99163333D01*
X124940476Y-99210952D01*
X124892857Y-99258571D01*
X124845238Y-99353809D01*
%TO.C,SW1*%
X132404761Y-106633333D02*
X132452380Y-106490476D01*
X132452380Y-106252380D01*
X132404761Y-106157142D01*
X132357142Y-106109523D01*
X132261904Y-106061904D01*
X132166666Y-106061904D01*
X132071428Y-106109523D01*
X132023809Y-106157142D01*
X131976190Y-106252380D01*
X131928571Y-106442857D01*
X131880952Y-106538095D01*
X131833333Y-106585714D01*
X131738095Y-106633333D01*
X131642857Y-106633333D01*
X131547619Y-106585714D01*
X131500000Y-106538095D01*
X131452380Y-106442857D01*
X131452380Y-106204761D01*
X131500000Y-106061904D01*
X131452380Y-105728571D02*
X132452380Y-105490476D01*
X131738095Y-105300000D01*
X132452380Y-105109523D01*
X131452380Y-104871428D01*
X132452380Y-103966666D02*
X132452380Y-104538095D01*
X132452380Y-104252380D02*
X131452380Y-104252380D01*
X131595238Y-104347619D01*
X131690476Y-104442857D01*
X131738095Y-104538095D01*
D11*
%TO.C,C1*%
X117816666Y-69028571D02*
X117792857Y-69052380D01*
X117721428Y-69076190D01*
X117673809Y-69076190D01*
X117602380Y-69052380D01*
X117554761Y-69004761D01*
X117530952Y-68957142D01*
X117507142Y-68861904D01*
X117507142Y-68790476D01*
X117530952Y-68695238D01*
X117554761Y-68647619D01*
X117602380Y-68600000D01*
X117673809Y-68576190D01*
X117721428Y-68576190D01*
X117792857Y-68600000D01*
X117816666Y-68623809D01*
X118292857Y-69076190D02*
X118007142Y-69076190D01*
X118150000Y-69076190D02*
X118150000Y-68576190D01*
X118102380Y-68647619D01*
X118054761Y-68695238D01*
X118007142Y-68719047D01*
%TO.C,C7*%
X117766666Y-67028571D02*
X117742857Y-67052380D01*
X117671428Y-67076190D01*
X117623809Y-67076190D01*
X117552380Y-67052380D01*
X117504761Y-67004761D01*
X117480952Y-66957142D01*
X117457142Y-66861904D01*
X117457142Y-66790476D01*
X117480952Y-66695238D01*
X117504761Y-66647619D01*
X117552380Y-66600000D01*
X117623809Y-66576190D01*
X117671428Y-66576190D01*
X117742857Y-66600000D01*
X117766666Y-66623809D01*
X117933333Y-66576190D02*
X118266666Y-66576190D01*
X118052380Y-67076190D01*
%TO.C,C13*%
X131578571Y-68278571D02*
X131554761Y-68302380D01*
X131483333Y-68326190D01*
X131435714Y-68326190D01*
X131364285Y-68302380D01*
X131316666Y-68254761D01*
X131292857Y-68207142D01*
X131269047Y-68111904D01*
X131269047Y-68040476D01*
X131292857Y-67945238D01*
X131316666Y-67897619D01*
X131364285Y-67850000D01*
X131435714Y-67826190D01*
X131483333Y-67826190D01*
X131554761Y-67850000D01*
X131578571Y-67873809D01*
X132054761Y-68326190D02*
X131769047Y-68326190D01*
X131911904Y-68326190D02*
X131911904Y-67826190D01*
X131864285Y-67897619D01*
X131816666Y-67945238D01*
X131769047Y-67969047D01*
X132221428Y-67826190D02*
X132530952Y-67826190D01*
X132364285Y-68016666D01*
X132435714Y-68016666D01*
X132483333Y-68040476D01*
X132507142Y-68064285D01*
X132530952Y-68111904D01*
X132530952Y-68230952D01*
X132507142Y-68278571D01*
X132483333Y-68302380D01*
X132435714Y-68326190D01*
X132292857Y-68326190D01*
X132245238Y-68302380D01*
X132221428Y-68278571D01*
%TO.C,C16*%
X116328571Y-63661071D02*
X116304761Y-63684880D01*
X116233333Y-63708690D01*
X116185714Y-63708690D01*
X116114285Y-63684880D01*
X116066666Y-63637261D01*
X116042857Y-63589642D01*
X116019047Y-63494404D01*
X116019047Y-63422976D01*
X116042857Y-63327738D01*
X116066666Y-63280119D01*
X116114285Y-63232500D01*
X116185714Y-63208690D01*
X116233333Y-63208690D01*
X116304761Y-63232500D01*
X116328571Y-63256309D01*
X116804761Y-63708690D02*
X116519047Y-63708690D01*
X116661904Y-63708690D02*
X116661904Y-63208690D01*
X116614285Y-63280119D01*
X116566666Y-63327738D01*
X116519047Y-63351547D01*
X117233333Y-63208690D02*
X117138095Y-63208690D01*
X117090476Y-63232500D01*
X117066666Y-63256309D01*
X117019047Y-63327738D01*
X116995238Y-63422976D01*
X116995238Y-63613452D01*
X117019047Y-63661071D01*
X117042857Y-63684880D01*
X117090476Y-63708690D01*
X117185714Y-63708690D01*
X117233333Y-63684880D01*
X117257142Y-63661071D01*
X117280952Y-63613452D01*
X117280952Y-63494404D01*
X117257142Y-63446785D01*
X117233333Y-63422976D01*
X117185714Y-63399166D01*
X117090476Y-63399166D01*
X117042857Y-63422976D01*
X117019047Y-63446785D01*
X116995238Y-63494404D01*
%TO.C,C5*%
X123466666Y-68128571D02*
X123442857Y-68152380D01*
X123371428Y-68176190D01*
X123323809Y-68176190D01*
X123252380Y-68152380D01*
X123204761Y-68104761D01*
X123180952Y-68057142D01*
X123157142Y-67961904D01*
X123157142Y-67890476D01*
X123180952Y-67795238D01*
X123204761Y-67747619D01*
X123252380Y-67700000D01*
X123323809Y-67676190D01*
X123371428Y-67676190D01*
X123442857Y-67700000D01*
X123466666Y-67723809D01*
X123919047Y-67676190D02*
X123680952Y-67676190D01*
X123657142Y-67914285D01*
X123680952Y-67890476D01*
X123728571Y-67866666D01*
X123847619Y-67866666D01*
X123895238Y-67890476D01*
X123919047Y-67914285D01*
X123942857Y-67961904D01*
X123942857Y-68080952D01*
X123919047Y-68128571D01*
X123895238Y-68152380D01*
X123847619Y-68176190D01*
X123728571Y-68176190D01*
X123680952Y-68152380D01*
X123657142Y-68128571D01*
%TO.C,C14*%
X110878571Y-80671428D02*
X110902380Y-80695238D01*
X110926190Y-80766666D01*
X110926190Y-80814285D01*
X110902380Y-80885714D01*
X110854761Y-80933333D01*
X110807142Y-80957142D01*
X110711904Y-80980952D01*
X110640476Y-80980952D01*
X110545238Y-80957142D01*
X110497619Y-80933333D01*
X110450000Y-80885714D01*
X110426190Y-80814285D01*
X110426190Y-80766666D01*
X110450000Y-80695238D01*
X110473809Y-80671428D01*
X110926190Y-80195238D02*
X110926190Y-80480952D01*
X110926190Y-80338095D02*
X110426190Y-80338095D01*
X110497619Y-80385714D01*
X110545238Y-80433333D01*
X110569047Y-80480952D01*
X110592857Y-79766666D02*
X110926190Y-79766666D01*
X110402380Y-79885714D02*
X110759523Y-80004761D01*
X110759523Y-79695238D01*
D13*
%TO.C,U1*%
X124238095Y-75402380D02*
X124238095Y-76211904D01*
X124285714Y-76307142D01*
X124333333Y-76354761D01*
X124428571Y-76402380D01*
X124619047Y-76402380D01*
X124714285Y-76354761D01*
X124761904Y-76307142D01*
X124809523Y-76211904D01*
X124809523Y-75402380D01*
X125809523Y-76402380D02*
X125238095Y-76402380D01*
X125523809Y-76402380D02*
X125523809Y-75402380D01*
X125428571Y-75545238D01*
X125333333Y-75640476D01*
X125238095Y-75688095D01*
D11*
%TO.C,R11*%
X127786071Y-106576190D02*
X127619404Y-106338095D01*
X127500357Y-106576190D02*
X127500357Y-106076190D01*
X127690833Y-106076190D01*
X127738452Y-106100000D01*
X127762261Y-106123809D01*
X127786071Y-106171428D01*
X127786071Y-106242857D01*
X127762261Y-106290476D01*
X127738452Y-106314285D01*
X127690833Y-106338095D01*
X127500357Y-106338095D01*
X128262261Y-106576190D02*
X127976547Y-106576190D01*
X128119404Y-106576190D02*
X128119404Y-106076190D01*
X128071785Y-106147619D01*
X128024166Y-106195238D01*
X127976547Y-106219047D01*
X128738452Y-106576190D02*
X128452738Y-106576190D01*
X128595595Y-106576190D02*
X128595595Y-106076190D01*
X128547976Y-106147619D01*
X128500357Y-106195238D01*
X128452738Y-106219047D01*
%TO.C,R7*%
X123519166Y-85326190D02*
X123352500Y-85088095D01*
X123233452Y-85326190D02*
X123233452Y-84826190D01*
X123423928Y-84826190D01*
X123471547Y-84850000D01*
X123495357Y-84873809D01*
X123519166Y-84921428D01*
X123519166Y-84992857D01*
X123495357Y-85040476D01*
X123471547Y-85064285D01*
X123423928Y-85088095D01*
X123233452Y-85088095D01*
X123685833Y-84826190D02*
X124019166Y-84826190D01*
X123804880Y-85326190D01*
%TO.C,D5*%
X113476190Y-56716547D02*
X112976190Y-56716547D01*
X112976190Y-56597500D01*
X113000000Y-56526071D01*
X113047619Y-56478452D01*
X113095238Y-56454642D01*
X113190476Y-56430833D01*
X113261904Y-56430833D01*
X113357142Y-56454642D01*
X113404761Y-56478452D01*
X113452380Y-56526071D01*
X113476190Y-56597500D01*
X113476190Y-56716547D01*
X112976190Y-55978452D02*
X112976190Y-56216547D01*
X113214285Y-56240357D01*
X113190476Y-56216547D01*
X113166666Y-56168928D01*
X113166666Y-56049880D01*
X113190476Y-56002261D01*
X113214285Y-55978452D01*
X113261904Y-55954642D01*
X113380952Y-55954642D01*
X113428571Y-55978452D01*
X113452380Y-56002261D01*
X113476190Y-56049880D01*
X113476190Y-56168928D01*
X113452380Y-56216547D01*
X113428571Y-56240357D01*
D13*
%TO.C,U4*%
X124752380Y-89061904D02*
X125561904Y-89061904D01*
X125657142Y-89014285D01*
X125704761Y-88966666D01*
X125752380Y-88871428D01*
X125752380Y-88680952D01*
X125704761Y-88585714D01*
X125657142Y-88538095D01*
X125561904Y-88490476D01*
X124752380Y-88490476D01*
X125085714Y-87585714D02*
X125752380Y-87585714D01*
X124704761Y-87823809D02*
X125419047Y-88061904D01*
X125419047Y-87442857D01*
%TO.C,J2*%
X124491666Y-93747380D02*
X124491666Y-94461666D01*
X124444047Y-94604523D01*
X124348809Y-94699761D01*
X124205952Y-94747380D01*
X124110714Y-94747380D01*
X124920238Y-93842619D02*
X124967857Y-93795000D01*
X125063095Y-93747380D01*
X125301190Y-93747380D01*
X125396428Y-93795000D01*
X125444047Y-93842619D01*
X125491666Y-93937857D01*
X125491666Y-94033095D01*
X125444047Y-94175952D01*
X124872619Y-94747380D01*
X125491666Y-94747380D01*
D11*
%TO.C,C23*%
X131128571Y-51821428D02*
X131152380Y-51845238D01*
X131176190Y-51916666D01*
X131176190Y-51964285D01*
X131152380Y-52035714D01*
X131104761Y-52083333D01*
X131057142Y-52107142D01*
X130961904Y-52130952D01*
X130890476Y-52130952D01*
X130795238Y-52107142D01*
X130747619Y-52083333D01*
X130700000Y-52035714D01*
X130676190Y-51964285D01*
X130676190Y-51916666D01*
X130700000Y-51845238D01*
X130723809Y-51821428D01*
X130723809Y-51630952D02*
X130700000Y-51607142D01*
X130676190Y-51559523D01*
X130676190Y-51440476D01*
X130700000Y-51392857D01*
X130723809Y-51369047D01*
X130771428Y-51345238D01*
X130819047Y-51345238D01*
X130890476Y-51369047D01*
X131176190Y-51654761D01*
X131176190Y-51345238D01*
X130676190Y-51178571D02*
X130676190Y-50869047D01*
X130866666Y-51035714D01*
X130866666Y-50964285D01*
X130890476Y-50916666D01*
X130914285Y-50892857D01*
X130961904Y-50869047D01*
X131080952Y-50869047D01*
X131128571Y-50892857D01*
X131152380Y-50916666D01*
X131176190Y-50964285D01*
X131176190Y-51107142D01*
X131152380Y-51154761D01*
X131128571Y-51178571D01*
D13*
%TO.C,U2*%
X116711904Y-80847619D02*
X116711904Y-80038095D01*
X116664285Y-79942857D01*
X116616666Y-79895238D01*
X116521428Y-79847619D01*
X116330952Y-79847619D01*
X116235714Y-79895238D01*
X116188095Y-79942857D01*
X116140476Y-80038095D01*
X116140476Y-80847619D01*
X115711904Y-80752380D02*
X115664285Y-80800000D01*
X115569047Y-80847619D01*
X115330952Y-80847619D01*
X115235714Y-80800000D01*
X115188095Y-80752380D01*
X115140476Y-80657142D01*
X115140476Y-80561904D01*
X115188095Y-80419047D01*
X115759523Y-79847619D01*
X115140476Y-79847619D01*
D11*
%TO.C,R16*%
X126528571Y-59476190D02*
X126361904Y-59238095D01*
X126242857Y-59476190D02*
X126242857Y-58976190D01*
X126433333Y-58976190D01*
X126480952Y-59000000D01*
X126504761Y-59023809D01*
X126528571Y-59071428D01*
X126528571Y-59142857D01*
X126504761Y-59190476D01*
X126480952Y-59214285D01*
X126433333Y-59238095D01*
X126242857Y-59238095D01*
X127004761Y-59476190D02*
X126719047Y-59476190D01*
X126861904Y-59476190D02*
X126861904Y-58976190D01*
X126814285Y-59047619D01*
X126766666Y-59095238D01*
X126719047Y-59119047D01*
X127433333Y-58976190D02*
X127338095Y-58976190D01*
X127290476Y-59000000D01*
X127266666Y-59023809D01*
X127219047Y-59095238D01*
X127195238Y-59190476D01*
X127195238Y-59380952D01*
X127219047Y-59428571D01*
X127242857Y-59452380D01*
X127290476Y-59476190D01*
X127385714Y-59476190D01*
X127433333Y-59452380D01*
X127457142Y-59428571D01*
X127480952Y-59380952D01*
X127480952Y-59261904D01*
X127457142Y-59214285D01*
X127433333Y-59190476D01*
X127385714Y-59166666D01*
X127290476Y-59166666D01*
X127242857Y-59190476D01*
X127219047Y-59214285D01*
X127195238Y-59261904D01*
%TO.C,C11*%
X123478571Y-65178571D02*
X123454761Y-65202380D01*
X123383333Y-65226190D01*
X123335714Y-65226190D01*
X123264285Y-65202380D01*
X123216666Y-65154761D01*
X123192857Y-65107142D01*
X123169047Y-65011904D01*
X123169047Y-64940476D01*
X123192857Y-64845238D01*
X123216666Y-64797619D01*
X123264285Y-64750000D01*
X123335714Y-64726190D01*
X123383333Y-64726190D01*
X123454761Y-64750000D01*
X123478571Y-64773809D01*
X123954761Y-65226190D02*
X123669047Y-65226190D01*
X123811904Y-65226190D02*
X123811904Y-64726190D01*
X123764285Y-64797619D01*
X123716666Y-64845238D01*
X123669047Y-64869047D01*
X124430952Y-65226190D02*
X124145238Y-65226190D01*
X124288095Y-65226190D02*
X124288095Y-64726190D01*
X124240476Y-64797619D01*
X124192857Y-64845238D01*
X124145238Y-64869047D01*
%TO.C,C15*%
X118646071Y-63678571D02*
X118622261Y-63702380D01*
X118550833Y-63726190D01*
X118503214Y-63726190D01*
X118431785Y-63702380D01*
X118384166Y-63654761D01*
X118360357Y-63607142D01*
X118336547Y-63511904D01*
X118336547Y-63440476D01*
X118360357Y-63345238D01*
X118384166Y-63297619D01*
X118431785Y-63250000D01*
X118503214Y-63226190D01*
X118550833Y-63226190D01*
X118622261Y-63250000D01*
X118646071Y-63273809D01*
X119122261Y-63726190D02*
X118836547Y-63726190D01*
X118979404Y-63726190D02*
X118979404Y-63226190D01*
X118931785Y-63297619D01*
X118884166Y-63345238D01*
X118836547Y-63369047D01*
X119574642Y-63226190D02*
X119336547Y-63226190D01*
X119312738Y-63464285D01*
X119336547Y-63440476D01*
X119384166Y-63416666D01*
X119503214Y-63416666D01*
X119550833Y-63440476D01*
X119574642Y-63464285D01*
X119598452Y-63511904D01*
X119598452Y-63630952D01*
X119574642Y-63678571D01*
X119550833Y-63702380D01*
X119503214Y-63726190D01*
X119384166Y-63726190D01*
X119336547Y-63702380D01*
X119312738Y-63678571D01*
D13*
%TO.C,U3*%
X117102380Y-58394404D02*
X117911904Y-58394404D01*
X118007142Y-58346785D01*
X118054761Y-58299166D01*
X118102380Y-58203928D01*
X118102380Y-58013452D01*
X118054761Y-57918214D01*
X118007142Y-57870595D01*
X117911904Y-57822976D01*
X117102380Y-57822976D01*
X117102380Y-57442023D02*
X117102380Y-56822976D01*
X117483333Y-57156309D01*
X117483333Y-57013452D01*
X117530952Y-56918214D01*
X117578571Y-56870595D01*
X117673809Y-56822976D01*
X117911904Y-56822976D01*
X118007142Y-56870595D01*
X118054761Y-56918214D01*
X118102380Y-57013452D01*
X118102380Y-57299166D01*
X118054761Y-57394404D01*
X118007142Y-57442023D01*
%TO.C,J7*%
X136161666Y-49497380D02*
X136161666Y-50211666D01*
X136114047Y-50354523D01*
X136018809Y-50449761D01*
X135875952Y-50497380D01*
X135780714Y-50497380D01*
X136542619Y-49497380D02*
X137209285Y-49497380D01*
X136780714Y-50497380D01*
%TO.C,J5*%
X112971666Y-102282380D02*
X112971666Y-102996666D01*
X112924047Y-103139523D01*
X112828809Y-103234761D01*
X112685952Y-103282380D01*
X112590714Y-103282380D01*
X113924047Y-102282380D02*
X113447857Y-102282380D01*
X113400238Y-102758571D01*
X113447857Y-102710952D01*
X113543095Y-102663333D01*
X113781190Y-102663333D01*
X113876428Y-102710952D01*
X113924047Y-102758571D01*
X113971666Y-102853809D01*
X113971666Y-103091904D01*
X113924047Y-103187142D01*
X113876428Y-103234761D01*
X113781190Y-103282380D01*
X113543095Y-103282380D01*
X113447857Y-103234761D01*
X113400238Y-103187142D01*
D11*
%TO.C,C17*%
X121478571Y-86971428D02*
X121502380Y-86995238D01*
X121526190Y-87066666D01*
X121526190Y-87114285D01*
X121502380Y-87185714D01*
X121454761Y-87233333D01*
X121407142Y-87257142D01*
X121311904Y-87280952D01*
X121240476Y-87280952D01*
X121145238Y-87257142D01*
X121097619Y-87233333D01*
X121050000Y-87185714D01*
X121026190Y-87114285D01*
X121026190Y-87066666D01*
X121050000Y-86995238D01*
X121073809Y-86971428D01*
X121526190Y-86495238D02*
X121526190Y-86780952D01*
X121526190Y-86638095D02*
X121026190Y-86638095D01*
X121097619Y-86685714D01*
X121145238Y-86733333D01*
X121169047Y-86780952D01*
X121026190Y-86328571D02*
X121026190Y-85995238D01*
X121526190Y-86209523D01*
%TO.C,R1*%
X119726190Y-73033333D02*
X119488095Y-73200000D01*
X119726190Y-73319047D02*
X119226190Y-73319047D01*
X119226190Y-73128571D01*
X119250000Y-73080952D01*
X119273809Y-73057142D01*
X119321428Y-73033333D01*
X119392857Y-73033333D01*
X119440476Y-73057142D01*
X119464285Y-73080952D01*
X119488095Y-73128571D01*
X119488095Y-73319047D01*
X119726190Y-72557142D02*
X119726190Y-72842857D01*
X119726190Y-72700000D02*
X119226190Y-72700000D01*
X119297619Y-72747619D01*
X119345238Y-72795238D01*
X119369047Y-72842857D01*
D13*
%TO.C,Y1*%
X131876190Y-72926190D02*
X132352380Y-72926190D01*
X131352380Y-73259523D02*
X131876190Y-72926190D01*
X131352380Y-72592857D01*
X132352380Y-71735714D02*
X132352380Y-72307142D01*
X132352380Y-72021428D02*
X131352380Y-72021428D01*
X131495238Y-72116666D01*
X131590476Y-72211904D01*
X131638095Y-72307142D01*
D11*
%TO.C,C8*%
X117766666Y-66028571D02*
X117742857Y-66052380D01*
X117671428Y-66076190D01*
X117623809Y-66076190D01*
X117552380Y-66052380D01*
X117504761Y-66004761D01*
X117480952Y-65957142D01*
X117457142Y-65861904D01*
X117457142Y-65790476D01*
X117480952Y-65695238D01*
X117504761Y-65647619D01*
X117552380Y-65600000D01*
X117623809Y-65576190D01*
X117671428Y-65576190D01*
X117742857Y-65600000D01*
X117766666Y-65623809D01*
X118052380Y-65790476D02*
X118004761Y-65766666D01*
X117980952Y-65742857D01*
X117957142Y-65695238D01*
X117957142Y-65671428D01*
X117980952Y-65623809D01*
X118004761Y-65600000D01*
X118052380Y-65576190D01*
X118147619Y-65576190D01*
X118195238Y-65600000D01*
X118219047Y-65623809D01*
X118242857Y-65671428D01*
X118242857Y-65695238D01*
X118219047Y-65742857D01*
X118195238Y-65766666D01*
X118147619Y-65790476D01*
X118052380Y-65790476D01*
X118004761Y-65814285D01*
X117980952Y-65838095D01*
X117957142Y-65885714D01*
X117957142Y-65980952D01*
X117980952Y-66028571D01*
X118004761Y-66052380D01*
X118052380Y-66076190D01*
X118147619Y-66076190D01*
X118195238Y-66052380D01*
X118219047Y-66028571D01*
X118242857Y-65980952D01*
X118242857Y-65885714D01*
X118219047Y-65838095D01*
X118195238Y-65814285D01*
X118147619Y-65790476D01*
%TO.C,C24*%
X121178571Y-53821428D02*
X121202380Y-53845238D01*
X121226190Y-53916666D01*
X121226190Y-53964285D01*
X121202380Y-54035714D01*
X121154761Y-54083333D01*
X121107142Y-54107142D01*
X121011904Y-54130952D01*
X120940476Y-54130952D01*
X120845238Y-54107142D01*
X120797619Y-54083333D01*
X120750000Y-54035714D01*
X120726190Y-53964285D01*
X120726190Y-53916666D01*
X120750000Y-53845238D01*
X120773809Y-53821428D01*
X120773809Y-53630952D02*
X120750000Y-53607142D01*
X120726190Y-53559523D01*
X120726190Y-53440476D01*
X120750000Y-53392857D01*
X120773809Y-53369047D01*
X120821428Y-53345238D01*
X120869047Y-53345238D01*
X120940476Y-53369047D01*
X121226190Y-53654761D01*
X121226190Y-53345238D01*
X120892857Y-52916666D02*
X121226190Y-52916666D01*
X120702380Y-53035714D02*
X121059523Y-53154761D01*
X121059523Y-52845238D01*
%TO.C,R10*%
X127901071Y-104526190D02*
X127734404Y-104288095D01*
X127615357Y-104526190D02*
X127615357Y-104026190D01*
X127805833Y-104026190D01*
X127853452Y-104050000D01*
X127877261Y-104073809D01*
X127901071Y-104121428D01*
X127901071Y-104192857D01*
X127877261Y-104240476D01*
X127853452Y-104264285D01*
X127805833Y-104288095D01*
X127615357Y-104288095D01*
X128377261Y-104526190D02*
X128091547Y-104526190D01*
X128234404Y-104526190D02*
X128234404Y-104026190D01*
X128186785Y-104097619D01*
X128139166Y-104145238D01*
X128091547Y-104169047D01*
X128686785Y-104026190D02*
X128734404Y-104026190D01*
X128782023Y-104050000D01*
X128805833Y-104073809D01*
X128829642Y-104121428D01*
X128853452Y-104216666D01*
X128853452Y-104335714D01*
X128829642Y-104430952D01*
X128805833Y-104478571D01*
X128782023Y-104502380D01*
X128734404Y-104526190D01*
X128686785Y-104526190D01*
X128639166Y-104502380D01*
X128615357Y-104478571D01*
X128591547Y-104430952D01*
X128567738Y-104335714D01*
X128567738Y-104216666D01*
X128591547Y-104121428D01*
X128615357Y-104073809D01*
X128639166Y-104050000D01*
X128686785Y-104026190D01*
D13*
%TO.C,U5*%
X126452380Y-56011904D02*
X127261904Y-56011904D01*
X127357142Y-55964285D01*
X127404761Y-55916666D01*
X127452380Y-55821428D01*
X127452380Y-55630952D01*
X127404761Y-55535714D01*
X127357142Y-55488095D01*
X127261904Y-55440476D01*
X126452380Y-55440476D01*
X126452380Y-54488095D02*
X126452380Y-54964285D01*
X126928571Y-55011904D01*
X126880952Y-54964285D01*
X126833333Y-54869047D01*
X126833333Y-54630952D01*
X126880952Y-54535714D01*
X126928571Y-54488095D01*
X127023809Y-54440476D01*
X127261904Y-54440476D01*
X127357142Y-54488095D01*
X127404761Y-54535714D01*
X127452380Y-54630952D01*
X127452380Y-54869047D01*
X127404761Y-54964285D01*
X127357142Y-55011904D01*
D11*
X124276190Y-58073809D02*
X124276190Y-58311904D01*
X123776190Y-58311904D01*
X124276190Y-57907142D02*
X123776190Y-57907142D01*
X124133333Y-57740476D01*
X123776190Y-57573809D01*
X124276190Y-57573809D01*
X124276190Y-57050000D02*
X124038095Y-57216666D01*
X124276190Y-57335714D02*
X123776190Y-57335714D01*
X123776190Y-57145238D01*
X123800000Y-57097619D01*
X123823809Y-57073809D01*
X123871428Y-57050000D01*
X123942857Y-57050000D01*
X123990476Y-57073809D01*
X124014285Y-57097619D01*
X124038095Y-57145238D01*
X124038095Y-57335714D01*
X124276190Y-56573809D02*
X124276190Y-56859523D01*
X124276190Y-56716666D02*
X123776190Y-56716666D01*
X123847619Y-56764285D01*
X123895238Y-56811904D01*
X123919047Y-56859523D01*
X123776190Y-56145238D02*
X123776190Y-56240476D01*
X123800000Y-56288095D01*
X123823809Y-56311904D01*
X123895238Y-56359523D01*
X123990476Y-56383333D01*
X124180952Y-56383333D01*
X124228571Y-56359523D01*
X124252380Y-56335714D01*
X124276190Y-56288095D01*
X124276190Y-56192857D01*
X124252380Y-56145238D01*
X124228571Y-56121428D01*
X124180952Y-56097619D01*
X124061904Y-56097619D01*
X124014285Y-56121428D01*
X123990476Y-56145238D01*
X123966666Y-56192857D01*
X123966666Y-56288095D01*
X123990476Y-56335714D01*
X124014285Y-56359523D01*
X124061904Y-56383333D01*
X123776190Y-55788095D02*
X123776190Y-55740476D01*
X123800000Y-55692857D01*
X123823809Y-55669047D01*
X123871428Y-55645238D01*
X123966666Y-55621428D01*
X124085714Y-55621428D01*
X124180952Y-55645238D01*
X124228571Y-55669047D01*
X124252380Y-55692857D01*
X124276190Y-55740476D01*
X124276190Y-55788095D01*
X124252380Y-55835714D01*
X124228571Y-55859523D01*
X124180952Y-55883333D01*
X124085714Y-55907142D01*
X123966666Y-55907142D01*
X123871428Y-55883333D01*
X123823809Y-55859523D01*
X123800000Y-55835714D01*
X123776190Y-55788095D01*
X123776190Y-55454761D02*
X123776190Y-55145238D01*
X123966666Y-55311904D01*
X123966666Y-55240476D01*
X123990476Y-55192857D01*
X124014285Y-55169047D01*
X124061904Y-55145238D01*
X124180952Y-55145238D01*
X124228571Y-55169047D01*
X124252380Y-55192857D01*
X124276190Y-55240476D01*
X124276190Y-55383333D01*
X124252380Y-55430952D01*
X124228571Y-55454761D01*
X123776190Y-54835714D02*
X123776190Y-54788095D01*
X123800000Y-54740476D01*
X123823809Y-54716666D01*
X123871428Y-54692857D01*
X123966666Y-54669047D01*
X124085714Y-54669047D01*
X124180952Y-54692857D01*
X124228571Y-54716666D01*
X124252380Y-54740476D01*
X124276190Y-54788095D01*
X124276190Y-54835714D01*
X124252380Y-54883333D01*
X124228571Y-54907142D01*
X124180952Y-54930952D01*
X124085714Y-54954761D01*
X123966666Y-54954761D01*
X123871428Y-54930952D01*
X123823809Y-54907142D01*
X123800000Y-54883333D01*
X123776190Y-54835714D01*
X124252380Y-54478571D02*
X124276190Y-54407142D01*
X124276190Y-54288095D01*
X124252380Y-54240476D01*
X124228571Y-54216666D01*
X124180952Y-54192857D01*
X124133333Y-54192857D01*
X124085714Y-54216666D01*
X124061904Y-54240476D01*
X124038095Y-54288095D01*
X124014285Y-54383333D01*
X123990476Y-54430952D01*
X123966666Y-54454761D01*
X123919047Y-54478571D01*
X123871428Y-54478571D01*
X123823809Y-54454761D01*
X123800000Y-54430952D01*
X123776190Y-54383333D01*
X123776190Y-54264285D01*
X123800000Y-54192857D01*
X124276190Y-53978571D02*
X123776190Y-53978571D01*
X123776190Y-53859523D01*
X123800000Y-53788095D01*
X123847619Y-53740476D01*
X123895238Y-53716666D01*
X123990476Y-53692857D01*
X124061904Y-53692857D01*
X124157142Y-53716666D01*
X124204761Y-53740476D01*
X124252380Y-53788095D01*
X124276190Y-53859523D01*
X124276190Y-53978571D01*
X124276190Y-53478571D02*
X123776190Y-53478571D01*
X123776190Y-53359523D01*
X123800000Y-53288095D01*
X123847619Y-53240476D01*
X123895238Y-53216666D01*
X123990476Y-53192857D01*
X124061904Y-53192857D01*
X124157142Y-53216666D01*
X124204761Y-53240476D01*
X124252380Y-53288095D01*
X124276190Y-53359523D01*
X124276190Y-53478571D01*
X124133333Y-53002380D02*
X124133333Y-52764285D01*
X124276190Y-53050000D02*
X123776190Y-52883333D01*
X124276190Y-52716666D01*
X124276190Y-52264285D02*
X124038095Y-52430952D01*
X124276190Y-52550000D02*
X123776190Y-52550000D01*
X123776190Y-52359523D01*
X123800000Y-52311904D01*
X123823809Y-52288095D01*
X123871428Y-52264285D01*
X123942857Y-52264285D01*
X123990476Y-52288095D01*
X124014285Y-52311904D01*
X124038095Y-52359523D01*
X124038095Y-52550000D01*
D13*
X126452380Y-55250000D02*
X126690476Y-55250000D01*
X126595238Y-55488095D02*
X126690476Y-55250000D01*
X126595238Y-55011904D01*
X126880952Y-55392857D02*
X126690476Y-55250000D01*
X126880952Y-55107142D01*
D11*
%TO.C,R13*%
X111776190Y-59221428D02*
X111538095Y-59388095D01*
X111776190Y-59507142D02*
X111276190Y-59507142D01*
X111276190Y-59316666D01*
X111300000Y-59269047D01*
X111323809Y-59245238D01*
X111371428Y-59221428D01*
X111442857Y-59221428D01*
X111490476Y-59245238D01*
X111514285Y-59269047D01*
X111538095Y-59316666D01*
X111538095Y-59507142D01*
X111776190Y-58745238D02*
X111776190Y-59030952D01*
X111776190Y-58888095D02*
X111276190Y-58888095D01*
X111347619Y-58935714D01*
X111395238Y-58983333D01*
X111419047Y-59030952D01*
X111276190Y-58578571D02*
X111276190Y-58269047D01*
X111466666Y-58435714D01*
X111466666Y-58364285D01*
X111490476Y-58316666D01*
X111514285Y-58292857D01*
X111561904Y-58269047D01*
X111680952Y-58269047D01*
X111728571Y-58292857D01*
X111752380Y-58316666D01*
X111776190Y-58364285D01*
X111776190Y-58507142D01*
X111752380Y-58554761D01*
X111728571Y-58578571D01*
D13*
%TO.C,L1*%
X128433333Y-64202380D02*
X127957142Y-64202380D01*
X127957142Y-63202380D01*
X129290476Y-64202380D02*
X128719047Y-64202380D01*
X129004761Y-64202380D02*
X129004761Y-63202380D01*
X128909523Y-63345238D01*
X128814285Y-63440476D01*
X128719047Y-63488095D01*
D11*
%TO.C,R4*%
X116676190Y-77033333D02*
X116438095Y-77200000D01*
X116676190Y-77319047D02*
X116176190Y-77319047D01*
X116176190Y-77128571D01*
X116200000Y-77080952D01*
X116223809Y-77057142D01*
X116271428Y-77033333D01*
X116342857Y-77033333D01*
X116390476Y-77057142D01*
X116414285Y-77080952D01*
X116438095Y-77128571D01*
X116438095Y-77319047D01*
X116342857Y-76604761D02*
X116676190Y-76604761D01*
X116152380Y-76723809D02*
X116509523Y-76842857D01*
X116509523Y-76533333D01*
X119476190Y-77492857D02*
X118976190Y-77492857D01*
X118976190Y-77373809D01*
X119000000Y-77302380D01*
X119047619Y-77254761D01*
X119095238Y-77230952D01*
X119190476Y-77207142D01*
X119261904Y-77207142D01*
X119357142Y-77230952D01*
X119404761Y-77254761D01*
X119452380Y-77302380D01*
X119476190Y-77373809D01*
X119476190Y-77492857D01*
X119476190Y-76992857D02*
X118976190Y-76992857D01*
X119476190Y-76707142D01*
X118976190Y-76707142D01*
X119476190Y-76469047D02*
X118976190Y-76469047D01*
X118976190Y-76278571D01*
X119000000Y-76230952D01*
X119023809Y-76207142D01*
X119071428Y-76183333D01*
X119142857Y-76183333D01*
X119190476Y-76207142D01*
X119214285Y-76230952D01*
X119238095Y-76278571D01*
X119238095Y-76469047D01*
D13*
%TO.C,U6*%
X116352380Y-73211904D02*
X117161904Y-73211904D01*
X117257142Y-73164285D01*
X117304761Y-73116666D01*
X117352380Y-73021428D01*
X117352380Y-72830952D01*
X117304761Y-72735714D01*
X117257142Y-72688095D01*
X117161904Y-72640476D01*
X116352380Y-72640476D01*
X116352380Y-71735714D02*
X116352380Y-71926190D01*
X116400000Y-72021428D01*
X116447619Y-72069047D01*
X116590476Y-72164285D01*
X116780952Y-72211904D01*
X117161904Y-72211904D01*
X117257142Y-72164285D01*
X117304761Y-72116666D01*
X117352380Y-72021428D01*
X117352380Y-71830952D01*
X117304761Y-71735714D01*
X117257142Y-71688095D01*
X117161904Y-71640476D01*
X116923809Y-71640476D01*
X116828571Y-71688095D01*
X116780952Y-71735714D01*
X116733333Y-71830952D01*
X116733333Y-72021428D01*
X116780952Y-72116666D01*
X116828571Y-72164285D01*
X116923809Y-72211904D01*
D11*
%TO.C,R12*%
X127748571Y-108626190D02*
X127581904Y-108388095D01*
X127462857Y-108626190D02*
X127462857Y-108126190D01*
X127653333Y-108126190D01*
X127700952Y-108150000D01*
X127724761Y-108173809D01*
X127748571Y-108221428D01*
X127748571Y-108292857D01*
X127724761Y-108340476D01*
X127700952Y-108364285D01*
X127653333Y-108388095D01*
X127462857Y-108388095D01*
X128224761Y-108626190D02*
X127939047Y-108626190D01*
X128081904Y-108626190D02*
X128081904Y-108126190D01*
X128034285Y-108197619D01*
X127986666Y-108245238D01*
X127939047Y-108269047D01*
X128415238Y-108173809D02*
X128439047Y-108150000D01*
X128486666Y-108126190D01*
X128605714Y-108126190D01*
X128653333Y-108150000D01*
X128677142Y-108173809D01*
X128700952Y-108221428D01*
X128700952Y-108269047D01*
X128677142Y-108340476D01*
X128391428Y-108626190D01*
X128700952Y-108626190D01*
%TO.C,C4*%
X123466666Y-69178571D02*
X123442857Y-69202380D01*
X123371428Y-69226190D01*
X123323809Y-69226190D01*
X123252380Y-69202380D01*
X123204761Y-69154761D01*
X123180952Y-69107142D01*
X123157142Y-69011904D01*
X123157142Y-68940476D01*
X123180952Y-68845238D01*
X123204761Y-68797619D01*
X123252380Y-68750000D01*
X123323809Y-68726190D01*
X123371428Y-68726190D01*
X123442857Y-68750000D01*
X123466666Y-68773809D01*
X123895238Y-68892857D02*
X123895238Y-69226190D01*
X123776190Y-68702380D02*
X123657142Y-69059523D01*
X123966666Y-69059523D01*
%TO.C,C12*%
X131578571Y-76978571D02*
X131554761Y-77002380D01*
X131483333Y-77026190D01*
X131435714Y-77026190D01*
X131364285Y-77002380D01*
X131316666Y-76954761D01*
X131292857Y-76907142D01*
X131269047Y-76811904D01*
X131269047Y-76740476D01*
X131292857Y-76645238D01*
X131316666Y-76597619D01*
X131364285Y-76550000D01*
X131435714Y-76526190D01*
X131483333Y-76526190D01*
X131554761Y-76550000D01*
X131578571Y-76573809D01*
X132054761Y-77026190D02*
X131769047Y-77026190D01*
X131911904Y-77026190D02*
X131911904Y-76526190D01*
X131864285Y-76597619D01*
X131816666Y-76645238D01*
X131769047Y-76669047D01*
X132245238Y-76573809D02*
X132269047Y-76550000D01*
X132316666Y-76526190D01*
X132435714Y-76526190D01*
X132483333Y-76550000D01*
X132507142Y-76573809D01*
X132530952Y-76621428D01*
X132530952Y-76669047D01*
X132507142Y-76740476D01*
X132221428Y-77026190D01*
X132530952Y-77026190D01*
%TO.C,D3*%
X127650952Y-107626190D02*
X127650952Y-107126190D01*
X127770000Y-107126190D01*
X127841428Y-107150000D01*
X127889047Y-107197619D01*
X127912857Y-107245238D01*
X127936666Y-107340476D01*
X127936666Y-107411904D01*
X127912857Y-107507142D01*
X127889047Y-107554761D01*
X127841428Y-107602380D01*
X127770000Y-107626190D01*
X127650952Y-107626190D01*
X128103333Y-107126190D02*
X128412857Y-107126190D01*
X128246190Y-107316666D01*
X128317619Y-107316666D01*
X128365238Y-107340476D01*
X128389047Y-107364285D01*
X128412857Y-107411904D01*
X128412857Y-107530952D01*
X128389047Y-107578571D01*
X128365238Y-107602380D01*
X128317619Y-107626190D01*
X128174761Y-107626190D01*
X128127142Y-107602380D01*
X128103333Y-107578571D01*
%TO.C,C20*%
X129528571Y-90171428D02*
X129552380Y-90195238D01*
X129576190Y-90266666D01*
X129576190Y-90314285D01*
X129552380Y-90385714D01*
X129504761Y-90433333D01*
X129457142Y-90457142D01*
X129361904Y-90480952D01*
X129290476Y-90480952D01*
X129195238Y-90457142D01*
X129147619Y-90433333D01*
X129100000Y-90385714D01*
X129076190Y-90314285D01*
X129076190Y-90266666D01*
X129100000Y-90195238D01*
X129123809Y-90171428D01*
X129123809Y-89980952D02*
X129100000Y-89957142D01*
X129076190Y-89909523D01*
X129076190Y-89790476D01*
X129100000Y-89742857D01*
X129123809Y-89719047D01*
X129171428Y-89695238D01*
X129219047Y-89695238D01*
X129290476Y-89719047D01*
X129576190Y-90004761D01*
X129576190Y-89695238D01*
X129076190Y-89385714D02*
X129076190Y-89338095D01*
X129100000Y-89290476D01*
X129123809Y-89266666D01*
X129171428Y-89242857D01*
X129266666Y-89219047D01*
X129385714Y-89219047D01*
X129480952Y-89242857D01*
X129528571Y-89266666D01*
X129552380Y-89290476D01*
X129576190Y-89338095D01*
X129576190Y-89385714D01*
X129552380Y-89433333D01*
X129528571Y-89457142D01*
X129480952Y-89480952D01*
X129385714Y-89504761D01*
X129266666Y-89504761D01*
X129171428Y-89480952D01*
X129123809Y-89457142D01*
X129100000Y-89433333D01*
X129076190Y-89385714D01*
%TO.C,C18*%
X129528571Y-87721428D02*
X129552380Y-87745238D01*
X129576190Y-87816666D01*
X129576190Y-87864285D01*
X129552380Y-87935714D01*
X129504761Y-87983333D01*
X129457142Y-88007142D01*
X129361904Y-88030952D01*
X129290476Y-88030952D01*
X129195238Y-88007142D01*
X129147619Y-87983333D01*
X129100000Y-87935714D01*
X129076190Y-87864285D01*
X129076190Y-87816666D01*
X129100000Y-87745238D01*
X129123809Y-87721428D01*
X129576190Y-87245238D02*
X129576190Y-87530952D01*
X129576190Y-87388095D02*
X129076190Y-87388095D01*
X129147619Y-87435714D01*
X129195238Y-87483333D01*
X129219047Y-87530952D01*
X129290476Y-86959523D02*
X129266666Y-87007142D01*
X129242857Y-87030952D01*
X129195238Y-87054761D01*
X129171428Y-87054761D01*
X129123809Y-87030952D01*
X129100000Y-87007142D01*
X129076190Y-86959523D01*
X129076190Y-86864285D01*
X129100000Y-86816666D01*
X129123809Y-86792857D01*
X129171428Y-86769047D01*
X129195238Y-86769047D01*
X129242857Y-86792857D01*
X129266666Y-86816666D01*
X129290476Y-86864285D01*
X129290476Y-86959523D01*
X129314285Y-87007142D01*
X129338095Y-87030952D01*
X129385714Y-87054761D01*
X129480952Y-87054761D01*
X129528571Y-87030952D01*
X129552380Y-87007142D01*
X129576190Y-86959523D01*
X129576190Y-86864285D01*
X129552380Y-86816666D01*
X129528571Y-86792857D01*
X129480952Y-86769047D01*
X129385714Y-86769047D01*
X129338095Y-86792857D01*
X129314285Y-86816666D01*
X129290476Y-86864285D01*
D13*
%TO.C,J1*%
X112252380Y-73133333D02*
X112966666Y-73133333D01*
X113109523Y-73180952D01*
X113204761Y-73276190D01*
X113252380Y-73419047D01*
X113252380Y-73514285D01*
X113252380Y-72133333D02*
X113252380Y-72704761D01*
X113252380Y-72419047D02*
X112252380Y-72419047D01*
X112395238Y-72514285D01*
X112490476Y-72609523D01*
X112538095Y-72704761D01*
D11*
%TO.C,R9*%
X123466666Y-59476190D02*
X123300000Y-59238095D01*
X123180952Y-59476190D02*
X123180952Y-58976190D01*
X123371428Y-58976190D01*
X123419047Y-59000000D01*
X123442857Y-59023809D01*
X123466666Y-59071428D01*
X123466666Y-59142857D01*
X123442857Y-59190476D01*
X123419047Y-59214285D01*
X123371428Y-59238095D01*
X123180952Y-59238095D01*
X123704761Y-59476190D02*
X123800000Y-59476190D01*
X123847619Y-59452380D01*
X123871428Y-59428571D01*
X123919047Y-59357142D01*
X123942857Y-59261904D01*
X123942857Y-59071428D01*
X123919047Y-59023809D01*
X123895238Y-59000000D01*
X123847619Y-58976190D01*
X123752380Y-58976190D01*
X123704761Y-59000000D01*
X123680952Y-59023809D01*
X123657142Y-59071428D01*
X123657142Y-59190476D01*
X123680952Y-59238095D01*
X123704761Y-59261904D01*
X123752380Y-59285714D01*
X123847619Y-59285714D01*
X123895238Y-59261904D01*
X123919047Y-59238095D01*
X123942857Y-59190476D01*
%TO.C,C6*%
X123466666Y-67178571D02*
X123442857Y-67202380D01*
X123371428Y-67226190D01*
X123323809Y-67226190D01*
X123252380Y-67202380D01*
X123204761Y-67154761D01*
X123180952Y-67107142D01*
X123157142Y-67011904D01*
X123157142Y-66940476D01*
X123180952Y-66845238D01*
X123204761Y-66797619D01*
X123252380Y-66750000D01*
X123323809Y-66726190D01*
X123371428Y-66726190D01*
X123442857Y-66750000D01*
X123466666Y-66773809D01*
X123895238Y-66726190D02*
X123800000Y-66726190D01*
X123752380Y-66750000D01*
X123728571Y-66773809D01*
X123680952Y-66845238D01*
X123657142Y-66940476D01*
X123657142Y-67130952D01*
X123680952Y-67178571D01*
X123704761Y-67202380D01*
X123752380Y-67226190D01*
X123847619Y-67226190D01*
X123895238Y-67202380D01*
X123919047Y-67178571D01*
X123942857Y-67130952D01*
X123942857Y-67011904D01*
X123919047Y-66964285D01*
X123895238Y-66940476D01*
X123847619Y-66916666D01*
X123752380Y-66916666D01*
X123704761Y-66940476D01*
X123680952Y-66964285D01*
X123657142Y-67011904D01*
%TO.C,C2*%
X117766666Y-71028571D02*
X117742857Y-71052380D01*
X117671428Y-71076190D01*
X117623809Y-71076190D01*
X117552380Y-71052380D01*
X117504761Y-71004761D01*
X117480952Y-70957142D01*
X117457142Y-70861904D01*
X117457142Y-70790476D01*
X117480952Y-70695238D01*
X117504761Y-70647619D01*
X117552380Y-70600000D01*
X117623809Y-70576190D01*
X117671428Y-70576190D01*
X117742857Y-70600000D01*
X117766666Y-70623809D01*
X117957142Y-70623809D02*
X117980952Y-70600000D01*
X118028571Y-70576190D01*
X118147619Y-70576190D01*
X118195238Y-70600000D01*
X118219047Y-70623809D01*
X118242857Y-70671428D01*
X118242857Y-70719047D01*
X118219047Y-70790476D01*
X117933333Y-71076190D01*
X118242857Y-71076190D01*
%TO.C,C9*%
X123466666Y-66178571D02*
X123442857Y-66202380D01*
X123371428Y-66226190D01*
X123323809Y-66226190D01*
X123252380Y-66202380D01*
X123204761Y-66154761D01*
X123180952Y-66107142D01*
X123157142Y-66011904D01*
X123157142Y-65940476D01*
X123180952Y-65845238D01*
X123204761Y-65797619D01*
X123252380Y-65750000D01*
X123323809Y-65726190D01*
X123371428Y-65726190D01*
X123442857Y-65750000D01*
X123466666Y-65773809D01*
X123704761Y-66226190D02*
X123800000Y-66226190D01*
X123847619Y-66202380D01*
X123871428Y-66178571D01*
X123919047Y-66107142D01*
X123942857Y-66011904D01*
X123942857Y-65821428D01*
X123919047Y-65773809D01*
X123895238Y-65750000D01*
X123847619Y-65726190D01*
X123752380Y-65726190D01*
X123704761Y-65750000D01*
X123680952Y-65773809D01*
X123657142Y-65821428D01*
X123657142Y-65940476D01*
X123680952Y-65988095D01*
X123704761Y-66011904D01*
X123752380Y-66035714D01*
X123847619Y-66035714D01*
X123895238Y-66011904D01*
X123919047Y-65988095D01*
X123942857Y-65940476D01*
%TO.C,R2*%
X119676190Y-72033333D02*
X119438095Y-72200000D01*
X119676190Y-72319047D02*
X119176190Y-72319047D01*
X119176190Y-72128571D01*
X119200000Y-72080952D01*
X119223809Y-72057142D01*
X119271428Y-72033333D01*
X119342857Y-72033333D01*
X119390476Y-72057142D01*
X119414285Y-72080952D01*
X119438095Y-72128571D01*
X119438095Y-72319047D01*
X119223809Y-71842857D02*
X119200000Y-71819047D01*
X119176190Y-71771428D01*
X119176190Y-71652380D01*
X119200000Y-71604761D01*
X119223809Y-71580952D01*
X119271428Y-71557142D01*
X119319047Y-71557142D01*
X119390476Y-71580952D01*
X119676190Y-71866666D01*
X119676190Y-71557142D01*
%TO.C,D4*%
X111776190Y-56719047D02*
X111276190Y-56719047D01*
X111276190Y-56600000D01*
X111300000Y-56528571D01*
X111347619Y-56480952D01*
X111395238Y-56457142D01*
X111490476Y-56433333D01*
X111561904Y-56433333D01*
X111657142Y-56457142D01*
X111704761Y-56480952D01*
X111752380Y-56528571D01*
X111776190Y-56600000D01*
X111776190Y-56719047D01*
X111442857Y-56004761D02*
X111776190Y-56004761D01*
X111252380Y-56123809D02*
X111609523Y-56242857D01*
X111609523Y-55933333D01*
D14*
%TO.C,R14*%
X112020000Y-58732379D02*
X112020000Y-59067621D01*
X112780000Y-58732379D02*
X112780000Y-59067621D01*
%TO.C,C3*%
X119665835Y-69490000D02*
X119434165Y-69490000D01*
X119665835Y-70210000D02*
X119434165Y-70210000D01*
D15*
%TO.C,D2*%
X127495000Y-105400000D02*
G75*
G03*
X127495000Y-105400000I-50000J0D01*
G01*
D14*
%TO.C,R6*%
X125370121Y-83570000D02*
X125034879Y-83570000D01*
X125370121Y-84330000D02*
X125034879Y-84330000D01*
%TO.C,C21*%
X128084165Y-50690000D02*
X128315835Y-50690000D01*
X128084165Y-51410000D02*
X128315835Y-51410000D01*
%TO.C,C10*%
X119665835Y-65210000D02*
X119434165Y-65210000D01*
X119665835Y-64490000D02*
X119434165Y-64490000D01*
%TO.C,R8*%
X125532379Y-51430000D02*
X125867621Y-51430000D01*
X125532379Y-50670000D02*
X125867621Y-50670000D01*
%TO.C,D6*%
X133250000Y-59550000D02*
X133250000Y-54150000D01*
X129950000Y-59550000D02*
X129950000Y-54150000D01*
X129950000Y-59550000D02*
X133250000Y-59550000D01*
%TO.C,TP2*%
X111800000Y-52400000D02*
G75*
G03*
X111800000Y-52400000I-700000J0D01*
G01*
%TO.C,R5*%
X129220000Y-73317621D02*
X129220000Y-72982379D01*
X129980000Y-73317621D02*
X129980000Y-72982379D01*
%TO.C,TP1*%
X113500000Y-52400000D02*
G75*
G03*
X113500000Y-52400000I-700000J0D01*
G01*
D15*
%TO.C,D1*%
X127487500Y-103300000D02*
G75*
G03*
X127487500Y-103300000I-50000J0D01*
G01*
D14*
%TO.C,R15*%
X122870000Y-57567621D02*
X122870000Y-57232379D01*
X123630000Y-57567621D02*
X123630000Y-57232379D01*
%TO.C,SW2*%
X119780000Y-107400000D02*
X119900000Y-107400000D01*
X119900000Y-103000000D02*
X119780000Y-103000000D01*
X119900000Y-107400000D02*
X119900000Y-103000000D01*
X118770000Y-103000000D02*
X117630000Y-103000000D01*
X117630000Y-107400000D02*
X118770000Y-107400000D01*
X116500000Y-107400000D02*
X116620000Y-107400000D01*
X116500000Y-103000000D02*
X116500000Y-107400000D01*
X116620000Y-103000000D02*
X116500000Y-103000000D01*
%TO.C,R3*%
X118917621Y-76180000D02*
X118582379Y-76180000D01*
X118917621Y-75420000D02*
X118582379Y-75420000D01*
%TO.C,C19*%
X127668335Y-85460000D02*
X127436665Y-85460000D01*
X127668335Y-84740000D02*
X127436665Y-84740000D01*
%TO.C,J6*%
X120895000Y-101930000D02*
X120895000Y-100600000D01*
X123495000Y-99330000D02*
X120895000Y-99330000D01*
X120895000Y-99330000D02*
X120895000Y-96730000D01*
X128635000Y-101930000D02*
X128635000Y-96730000D01*
X123495000Y-101930000D02*
X123495000Y-99330000D01*
X122225000Y-101930000D02*
X120895000Y-101930000D01*
X120895000Y-96730000D02*
X128635000Y-96730000D01*
X123495000Y-101930000D02*
X128635000Y-101930000D01*
%TO.C,SW1*%
X130200000Y-103100000D02*
X130200000Y-107500000D01*
X133480000Y-107500000D02*
X133600000Y-107500000D01*
X131330000Y-107500000D02*
X132470000Y-107500000D01*
X133600000Y-107500000D02*
X133600000Y-103100000D01*
X130320000Y-103100000D02*
X130200000Y-103100000D01*
X133600000Y-103100000D02*
X133480000Y-103100000D01*
X130200000Y-107500000D02*
X130320000Y-107500000D01*
X132470000Y-103100000D02*
X131330000Y-103100000D01*
%TO.C,C1*%
X119665835Y-68490000D02*
X119434165Y-68490000D01*
X119665835Y-69210000D02*
X119434165Y-69210000D01*
%TO.C,C7*%
X119665835Y-66490000D02*
X119434165Y-66490000D01*
X119665835Y-67210000D02*
X119434165Y-67210000D01*
%TO.C,C13*%
X132015835Y-68540000D02*
X131784165Y-68540000D01*
X132015835Y-69260000D02*
X131784165Y-69260000D01*
%TO.C,C16*%
X116765835Y-62992500D02*
X116534165Y-62992500D01*
X116765835Y-62272500D02*
X116534165Y-62272500D01*
%TO.C,C5*%
X121784165Y-67640000D02*
X122015835Y-67640000D01*
X121784165Y-68360000D02*
X122015835Y-68360000D01*
%TO.C,P6*%
X134200000Y-46400000D02*
G75*
G03*
X134200000Y-46400000I-1200000J0D01*
G01*
%TO.C,C14*%
X111060000Y-82134165D02*
X111060000Y-82365835D01*
X110340000Y-82134165D02*
X110340000Y-82365835D01*
%TO.C,U1*%
X121390000Y-70140000D02*
X122040000Y-70140000D01*
X128610000Y-70140000D02*
X127960000Y-70140000D01*
X128610000Y-76710000D02*
X128610000Y-77360000D01*
X121390000Y-70790000D02*
X121390000Y-70140000D01*
X128610000Y-70790000D02*
X128610000Y-70140000D01*
X128610000Y-77360000D02*
X127960000Y-77360000D01*
X121390000Y-76710000D02*
X121390000Y-77360000D01*
%TO.C,R11*%
X126347621Y-106020000D02*
X126012379Y-106020000D01*
X126347621Y-106780000D02*
X126012379Y-106780000D01*
%TO.C,R7*%
X125420121Y-85480000D02*
X125084879Y-85480000D01*
X125420121Y-84720000D02*
X125084879Y-84720000D01*
D15*
%TO.C,D5*%
X112450000Y-57612500D02*
G75*
G03*
X112450000Y-57612500I-50000J0D01*
G01*
D13*
%TO.C,U4*%
X127450000Y-90450000D02*
X126925000Y-90450000D01*
X123150000Y-86150000D02*
X123150000Y-86675000D01*
X127450000Y-86150000D02*
X127450000Y-86675000D01*
X127450000Y-86150000D02*
X126925000Y-86150000D01*
X127450000Y-90450000D02*
X127450000Y-89925000D01*
X123150000Y-90450000D02*
X123150000Y-89925000D01*
X123150000Y-86150000D02*
X123675000Y-86150000D01*
D14*
%TO.C,J2*%
X128655000Y-94295000D02*
X128655000Y-96895000D01*
X128655000Y-96895000D02*
X120915000Y-96895000D01*
X126055000Y-91695000D02*
X126055000Y-94295000D01*
X126055000Y-94295000D02*
X128655000Y-94295000D01*
X127325000Y-91695000D02*
X128655000Y-91695000D01*
X126055000Y-91695000D02*
X120915000Y-91695000D01*
X128655000Y-91695000D02*
X128655000Y-93025000D01*
X120915000Y-91695000D02*
X120915000Y-96895000D01*
%TO.C,C23*%
X129740000Y-51384165D02*
X129740000Y-51615835D01*
X130460000Y-51384165D02*
X130460000Y-51615835D01*
%TO.C,U2*%
X116050000Y-83025000D02*
X113325000Y-83025000D01*
X113325000Y-77575000D02*
X113325000Y-77835000D01*
X116050000Y-77575000D02*
X118775000Y-77575000D01*
X113325000Y-83025000D02*
X113325000Y-82765000D01*
X118775000Y-83025000D02*
X118775000Y-82765000D01*
X116050000Y-77575000D02*
X113325000Y-77575000D01*
X116050000Y-83025000D02*
X118775000Y-83025000D01*
X118775000Y-82765000D02*
X120450000Y-82765000D01*
X118775000Y-77575000D02*
X118775000Y-77835000D01*
%TO.C,R16*%
X128432379Y-59630000D02*
X128767621Y-59630000D01*
X128432379Y-58870000D02*
X128767621Y-58870000D01*
%TO.C,JP2*%
X110450000Y-67500000D02*
X110450000Y-66900000D01*
X111100000Y-66200000D02*
X113900000Y-66200000D01*
X114550000Y-66900000D02*
X114550000Y-67500000D01*
X113900000Y-68200000D02*
X111100000Y-68200000D01*
X111150000Y-66200000D02*
G75*
G03*
X110450000Y-66900000I-1J-699999D01*
G01*
X113850000Y-68200000D02*
G75*
G03*
X114550000Y-67500000I1J699999D01*
G01*
X110450000Y-67500000D02*
G75*
G03*
X111150000Y-68200000I699999J-1D01*
G01*
X114550000Y-66900000D02*
G75*
G03*
X113850000Y-66200000I-699999J1D01*
G01*
%TO.C,C11*%
X121784165Y-65360000D02*
X122015835Y-65360000D01*
X121784165Y-64640000D02*
X122015835Y-64640000D01*
%TO.C,C15*%
X119115835Y-63010000D02*
X118884165Y-63010000D01*
X119115835Y-62290000D02*
X118884165Y-62290000D01*
%TO.C,J3*%
X118430000Y-100500000D02*
X118430000Y-101830000D01*
X118430000Y-83930000D02*
X115770000Y-83930000D01*
X115770000Y-99230000D02*
X115770000Y-83930000D01*
X118430000Y-99230000D02*
X118430000Y-83930000D01*
X118430000Y-101830000D02*
X117100000Y-101830000D01*
X118430000Y-99230000D02*
X115770000Y-99230000D01*
%TO.C,U3*%
X114240000Y-61732500D02*
X114240000Y-55722500D01*
X121060000Y-59482500D02*
X121060000Y-55722500D01*
X114240000Y-55722500D02*
X115500000Y-55722500D01*
X121060000Y-55722500D02*
X119800000Y-55722500D01*
%TO.C,J7*%
X133895000Y-101965000D02*
X139095000Y-101965000D01*
X136495000Y-51045000D02*
X139095000Y-51045000D01*
X133895000Y-51045000D02*
X135225000Y-51045000D01*
X139095000Y-51045000D02*
X139095000Y-101965000D01*
X136495000Y-53645000D02*
X136495000Y-51045000D01*
X133895000Y-52375000D02*
X133895000Y-51045000D01*
X133895000Y-53645000D02*
X136495000Y-53645000D01*
X133895000Y-53645000D02*
X133895000Y-101965000D01*
%TO.C,J5*%
X115905000Y-101830000D02*
X114575000Y-101830000D01*
X113305000Y-99230000D02*
X113305000Y-101830000D01*
X113305000Y-101830000D02*
X110705000Y-101830000D01*
X115905000Y-83930000D02*
X110705000Y-83930000D01*
X115905000Y-99230000D02*
X113305000Y-99230000D01*
X110705000Y-101830000D02*
X110705000Y-83930000D01*
X115905000Y-99230000D02*
X115905000Y-83930000D01*
X115905000Y-100500000D02*
X115905000Y-101830000D01*
%TO.C,C17*%
X122510000Y-86765835D02*
X122510000Y-86534165D01*
X121790000Y-86765835D02*
X121790000Y-86534165D01*
%TO.C,R1*%
X119332379Y-73330000D02*
X119667621Y-73330000D01*
X119332379Y-72570000D02*
X119667621Y-72570000D01*
%TO.C,Y1*%
X130190000Y-74950000D02*
X130190000Y-69950000D01*
X133610000Y-74950000D02*
X133610000Y-69950000D01*
%TO.C,P2*%
X121500000Y-46400000D02*
G75*
G03*
X121500000Y-46400000I-1200000J0D01*
G01*
%TO.C,C8*%
X119665835Y-66210000D02*
X119434165Y-66210000D01*
X119665835Y-65490000D02*
X119434165Y-65490000D01*
%TO.C,C24*%
X121590000Y-54211252D02*
X121590000Y-52788748D01*
X123410000Y-54211252D02*
X123410000Y-52788748D01*
%TO.C,R10*%
X126340121Y-104680000D02*
X126004879Y-104680000D01*
X126340121Y-103920000D02*
X126004879Y-103920000D01*
%TO.C,U5*%
X129500000Y-52025000D02*
X129500000Y-56400000D01*
X124500000Y-54125001D02*
X124500000Y-56350000D01*
%TO.C,R13*%
X110320000Y-58732379D02*
X110320000Y-59067621D01*
X111080000Y-58732379D02*
X111080000Y-59067621D01*
%TO.C,L1*%
X132350000Y-65150000D02*
X132350000Y-67450000D01*
X124950000Y-60050000D02*
X132350000Y-60050000D01*
X124950000Y-62350000D02*
X124950000Y-60050000D01*
X132350000Y-60050000D02*
X132350000Y-62350000D01*
X132350000Y-67450000D02*
X124950000Y-67450000D01*
X124950000Y-67450000D02*
X124950000Y-65150000D01*
%TO.C,R4*%
X117632379Y-77230000D02*
X117967621Y-77230000D01*
X117632379Y-76470000D02*
X117967621Y-76470000D01*
%TO.C,U6*%
X116100000Y-73350000D02*
X118000000Y-73350000D01*
X117700000Y-71550000D02*
X116100000Y-71550000D01*
%TO.C,R12*%
X126357621Y-108780000D02*
X126022379Y-108780000D01*
X126357621Y-108020000D02*
X126022379Y-108020000D01*
%TO.C,JP1*%
X112550000Y-64900000D02*
X111150000Y-64900000D01*
X111150000Y-62900000D02*
X112550000Y-62900000D01*
X113250000Y-63600000D02*
X113250000Y-64200000D01*
X110450000Y-64200000D02*
X110450000Y-63600000D01*
X113250000Y-63600000D02*
G75*
G03*
X112550000Y-62900000I-699999J1D01*
G01*
X110450000Y-64200000D02*
G75*
G03*
X111150000Y-64900000I699999J-1D01*
G01*
X111150000Y-62900000D02*
G75*
G03*
X110450000Y-63600000I-1J-699999D01*
G01*
X112550000Y-64900000D02*
G75*
G03*
X113250000Y-64200000I1J699999D01*
G01*
%TO.C,C4*%
X121784165Y-69360000D02*
X122015835Y-69360000D01*
X121784165Y-68640000D02*
X122015835Y-68640000D01*
%TO.C,C12*%
X132015835Y-75640000D02*
X131784165Y-75640000D01*
X132015835Y-76360000D02*
X131784165Y-76360000D01*
D15*
%TO.C,D3*%
X127515000Y-107400000D02*
G75*
G03*
X127515000Y-107400000I-50000J0D01*
G01*
D14*
%TO.C,C20*%
X128140000Y-89734165D02*
X128140000Y-89965835D01*
X128860000Y-89734165D02*
X128860000Y-89965835D01*
%TO.C,C18*%
X128140000Y-87515835D02*
X128140000Y-87284165D01*
X128860000Y-87515835D02*
X128860000Y-87284165D01*
%TO.C,J1*%
X114360000Y-76510000D02*
X114360000Y-76090000D01*
X112380000Y-68990000D02*
X114360000Y-68990000D01*
X112380000Y-76510000D02*
X114360000Y-76510000D01*
X114590000Y-70990000D02*
X115040000Y-70990000D01*
X110410000Y-76510000D02*
X110010000Y-76510000D01*
X110010000Y-68990000D02*
X110410000Y-68990000D01*
X114360000Y-68990000D02*
X114360000Y-69410000D01*
X115040000Y-71440000D02*
X115040000Y-70990000D01*
%TO.C,R9*%
X125217621Y-58870000D02*
X124882379Y-58870000D01*
X125217621Y-59630000D02*
X124882379Y-59630000D01*
%TO.C,JP3*%
X112550000Y-62400000D02*
X111150000Y-62400000D01*
X113250000Y-61100000D02*
X113250000Y-61700000D01*
X111150000Y-60400000D02*
X112550000Y-60400000D01*
X110450000Y-61700000D02*
X110450000Y-61100000D01*
X111150000Y-60400000D02*
G75*
G03*
X110450000Y-61100000I-1J-699999D01*
G01*
X113250000Y-61100000D02*
G75*
G03*
X112550000Y-60400000I-699999J1D01*
G01*
X112550000Y-62400000D02*
G75*
G03*
X113250000Y-61700000I1J699999D01*
G01*
X110450000Y-61700000D02*
G75*
G03*
X111150000Y-62400000I699999J-1D01*
G01*
%TO.C,C6*%
X121784165Y-67360000D02*
X122015835Y-67360000D01*
X121784165Y-66640000D02*
X122015835Y-66640000D01*
%TO.C,P3*%
X125300000Y-47600000D02*
X125300000Y-45200000D01*
X127700000Y-47600000D02*
X125300000Y-47600000D01*
X125300000Y-45200000D02*
X127700000Y-45200000D01*
X127700000Y-45200000D02*
X127700000Y-47600000D01*
%TO.C,J8*%
X131020000Y-82840000D02*
X131020000Y-81510000D01*
X133680000Y-84110000D02*
X133680000Y-101950000D01*
X131020000Y-81510000D02*
X132350000Y-81510000D01*
X131020000Y-84110000D02*
X131020000Y-101950000D01*
X131020000Y-84110000D02*
X133680000Y-84110000D01*
X131020000Y-101950000D02*
X133680000Y-101950000D01*
%TO.C,P4*%
X124400000Y-46400000D02*
G75*
G03*
X124400000Y-46400000I-1200000J0D01*
G01*
%TO.C,P1*%
X115800000Y-45200000D02*
X118200000Y-45200000D01*
X118200000Y-47600000D02*
X115800000Y-47600000D01*
X115800000Y-47600000D02*
X115800000Y-45200000D01*
X118200000Y-45200000D02*
X118200000Y-47600000D01*
%TO.C,C2*%
X119665835Y-71210000D02*
X119434165Y-71210000D01*
X119665835Y-70490000D02*
X119434165Y-70490000D01*
%TO.C,P5*%
X128200000Y-47600000D02*
X128200000Y-45200000D01*
X128200000Y-45200000D02*
X130600000Y-45200000D01*
X130600000Y-47600000D02*
X128200000Y-47600000D01*
X130600000Y-45200000D02*
X130600000Y-47600000D01*
%TO.C,C9*%
X121784165Y-66360000D02*
X122015835Y-66360000D01*
X121784165Y-65640000D02*
X122015835Y-65640000D01*
%TO.C,R2*%
X119332379Y-72330000D02*
X119667621Y-72330000D01*
X119332379Y-71570000D02*
X119667621Y-71570000D01*
D15*
%TO.C,D4*%
X110750000Y-57615000D02*
G75*
G03*
X110750000Y-57615000I-50000J0D01*
G01*
%TD*%
M02*
