%TF.GenerationSoftware,KiCad,Pcbnew,(6.0.0-0)*%
%TF.CreationDate,2022-01-13T06:26:06-05:00*%
%TF.ProjectId,piUAV,70695541-562e-46b6-9963-61645f706362,rev?*%
%TF.SameCoordinates,Original*%
%TF.FileFunction,Paste,Top*%
%TF.FilePolarity,Positive*%
%FSLAX46Y46*%
G04 Gerber Fmt 4.6, Leading zero omitted, Abs format (unit mm)*
G04 Created by KiCad (PCBNEW (6.0.0-0)) date 2022-01-13 06:26:06*
%MOMM*%
%LPD*%
G01*
G04 APERTURE LIST*
G04 Aperture macros list*
%AMRoundRect*
0 Rectangle with rounded corners*
0 $1 Rounding radius*
0 $2 $3 $4 $5 $6 $7 $8 $9 X,Y pos of 4 corners*
0 Add a 4 corners polygon primitive as box body*
4,1,4,$2,$3,$4,$5,$6,$7,$8,$9,$2,$3,0*
0 Add four circle primitives for the rounded corners*
1,1,$1+$1,$2,$3*
1,1,$1+$1,$4,$5*
1,1,$1+$1,$6,$7*
1,1,$1+$1,$8,$9*
0 Add four rect primitives between the rounded corners*
20,1,$1+$1,$2,$3,$4,$5,0*
20,1,$1+$1,$4,$5,$6,$7,0*
20,1,$1+$1,$6,$7,$8,$9,0*
20,1,$1+$1,$8,$9,$2,$3,0*%
G04 Aperture macros list end*
%ADD10RoundRect,0.160000X-0.160000X0.197500X-0.160000X-0.197500X0.160000X-0.197500X0.160000X0.197500X0*%
%ADD11RoundRect,0.155000X0.212500X0.155000X-0.212500X0.155000X-0.212500X-0.155000X0.212500X-0.155000X0*%
%ADD12RoundRect,0.160000X0.222500X0.160000X-0.222500X0.160000X-0.222500X-0.160000X0.222500X-0.160000X0*%
%ADD13RoundRect,0.160000X0.197500X0.160000X-0.197500X0.160000X-0.197500X-0.160000X0.197500X-0.160000X0*%
%ADD14RoundRect,0.155000X-0.212500X-0.155000X0.212500X-0.155000X0.212500X0.155000X-0.212500X0.155000X0*%
%ADD15RoundRect,0.160000X-0.197500X-0.160000X0.197500X-0.160000X0.197500X0.160000X-0.197500X0.160000X0*%
%ADD16R,1.800000X2.500000*%
%ADD17RoundRect,0.160000X0.160000X-0.197500X0.160000X0.197500X-0.160000X0.197500X-0.160000X-0.197500X0*%
%ADD18R,0.650000X1.050000*%
%ADD19RoundRect,0.155000X-0.155000X0.212500X-0.155000X-0.212500X0.155000X-0.212500X0.155000X0.212500X0*%
%ADD20RoundRect,0.250000X0.292217X-0.292217X0.292217X0.292217X-0.292217X0.292217X-0.292217X-0.292217X0*%
%ADD21RoundRect,0.050000X0.050000X-0.387500X0.050000X0.387500X-0.050000X0.387500X-0.050000X-0.387500X0*%
%ADD22RoundRect,0.050000X0.387500X-0.050000X0.387500X0.050000X-0.387500X0.050000X-0.387500X-0.050000X0*%
%ADD23RoundRect,0.160000X0.160000X-0.222500X0.160000X0.222500X-0.160000X0.222500X-0.160000X-0.222500X0*%
%ADD24RoundRect,0.075000X0.075000X-0.350000X0.075000X0.350000X-0.075000X0.350000X-0.075000X-0.350000X0*%
%ADD25RoundRect,0.075000X0.350000X0.075000X-0.350000X0.075000X-0.350000X-0.075000X0.350000X-0.075000X0*%
%ADD26RoundRect,0.150000X0.650000X0.150000X-0.650000X0.150000X-0.650000X-0.150000X0.650000X-0.150000X0*%
%ADD27R,1.500000X2.000000*%
%ADD28R,3.800000X2.000000*%
%ADD29RoundRect,0.155000X0.155000X-0.212500X0.155000X0.212500X-0.155000X0.212500X-0.155000X-0.212500X0*%
%ADD30R,2.400000X1.700000*%
%ADD31RoundRect,0.250000X0.650000X-0.325000X0.650000X0.325000X-0.650000X0.325000X-0.650000X-0.325000X0*%
%ADD32R,0.599999X1.450000*%
%ADD33R,3.099999X2.400000*%
%ADD34R,1.500000X2.200000*%
%ADD35R,0.500000X0.375000*%
%ADD36R,0.650000X0.300000*%
%ADD37O,0.950000X1.250000*%
%ADD38O,1.550000X0.890000*%
%ADD39R,1.350000X0.400000*%
%ADD40R,1.550000X1.200000*%
%ADD41R,1.550000X1.500000*%
G04 APERTURE END LIST*
D10*
%TO.C,R14*%
X112400000Y-58302500D03*
X112400000Y-59497500D03*
%TD*%
D11*
%TO.C,C3*%
X120117500Y-69850000D03*
X118982500Y-69850000D03*
%TD*%
D12*
%TO.C,D2*%
X126752500Y-105400000D03*
X125607500Y-105400000D03*
%TD*%
D13*
%TO.C,R6*%
X125800000Y-83950000D03*
X124605000Y-83950000D03*
%TD*%
D14*
%TO.C,C21*%
X127632500Y-51050000D03*
X128767500Y-51050000D03*
%TD*%
D11*
%TO.C,C10*%
X120117500Y-64850000D03*
X118982500Y-64850000D03*
%TD*%
D15*
%TO.C,R8*%
X125102500Y-51050000D03*
X126297500Y-51050000D03*
%TD*%
D16*
%TO.C,D6*%
X131600000Y-58150000D03*
X131600000Y-54150000D03*
%TD*%
D17*
%TO.C,R5*%
X129600000Y-73747500D03*
X129600000Y-72552500D03*
%TD*%
D12*
%TO.C,D1*%
X126745000Y-103300000D03*
X125600000Y-103300000D03*
%TD*%
D17*
%TO.C,R15*%
X123250000Y-57997500D03*
X123250000Y-56802500D03*
%TD*%
D18*
%TO.C,SW2*%
X117125000Y-107275000D03*
X117125000Y-103125000D03*
X119275000Y-107275000D03*
X119275000Y-103125000D03*
%TD*%
D13*
%TO.C,R3*%
X119347500Y-75800000D03*
X118152500Y-75800000D03*
%TD*%
D11*
%TO.C,C19*%
X128120000Y-85100000D03*
X126985000Y-85100000D03*
%TD*%
D18*
%TO.C,SW1*%
X130825000Y-107375000D03*
X130825000Y-103225000D03*
X132975000Y-103225000D03*
X132975000Y-107375000D03*
%TD*%
D11*
%TO.C,C1*%
X120117500Y-68850000D03*
X118982500Y-68850000D03*
%TD*%
%TO.C,C7*%
X120117500Y-66850000D03*
X118982500Y-66850000D03*
%TD*%
%TO.C,C13*%
X132467500Y-68900000D03*
X131332500Y-68900000D03*
%TD*%
%TO.C,C16*%
X117217500Y-62632500D03*
X116082500Y-62632500D03*
%TD*%
D14*
%TO.C,C5*%
X121332500Y-68000000D03*
X122467500Y-68000000D03*
%TD*%
D19*
%TO.C,C14*%
X110700000Y-81682500D03*
X110700000Y-82817500D03*
%TD*%
D20*
%TO.C,U1*%
X124362500Y-73112500D03*
X124362500Y-74387500D03*
X125637500Y-73112500D03*
X125637500Y-74387500D03*
D21*
X122400000Y-77187500D03*
X122800000Y-77187500D03*
X123200000Y-77187500D03*
X123600000Y-77187500D03*
X124000000Y-77187500D03*
X124400000Y-77187500D03*
X124800000Y-77187500D03*
X125200000Y-77187500D03*
X125600000Y-77187500D03*
X126000000Y-77187500D03*
X126400000Y-77187500D03*
X126800000Y-77187500D03*
X127200000Y-77187500D03*
X127600000Y-77187500D03*
D22*
X128437500Y-76350000D03*
X128437500Y-75950000D03*
X128437500Y-75550000D03*
X128437500Y-75150000D03*
X128437500Y-74750000D03*
X128437500Y-74350000D03*
X128437500Y-73950000D03*
X128437500Y-73550000D03*
X128437500Y-73150000D03*
X128437500Y-72750000D03*
X128437500Y-72350000D03*
X128437500Y-71950000D03*
X128437500Y-71550000D03*
X128437500Y-71150000D03*
D21*
X127600000Y-70312500D03*
X127200000Y-70312500D03*
X126800000Y-70312500D03*
X126400000Y-70312500D03*
X126000000Y-70312500D03*
X125600000Y-70312500D03*
X125200000Y-70312500D03*
X124800000Y-70312500D03*
X124400000Y-70312500D03*
X124000000Y-70312500D03*
X123600000Y-70312500D03*
X123200000Y-70312500D03*
X122800000Y-70312500D03*
X122400000Y-70312500D03*
D22*
X121562500Y-71150000D03*
X121562500Y-71550000D03*
X121562500Y-71950000D03*
X121562500Y-72350000D03*
X121562500Y-72750000D03*
X121562500Y-73150000D03*
X121562500Y-73550000D03*
X121562500Y-73950000D03*
X121562500Y-74350000D03*
X121562500Y-74750000D03*
X121562500Y-75150000D03*
X121562500Y-75550000D03*
X121562500Y-75950000D03*
X121562500Y-76350000D03*
%TD*%
D13*
%TO.C,R11*%
X126777500Y-106400000D03*
X125582500Y-106400000D03*
%TD*%
%TO.C,R7*%
X125850000Y-85100000D03*
X124655000Y-85100000D03*
%TD*%
D23*
%TO.C,D5*%
X112400000Y-56920000D03*
X112400000Y-55775000D03*
%TD*%
D24*
%TO.C,U4*%
X124050000Y-90250000D03*
X124550000Y-90250000D03*
X125050000Y-90250000D03*
X125550000Y-90250000D03*
X126050000Y-90250000D03*
X126550000Y-90250000D03*
D25*
X127250000Y-89550000D03*
X127250000Y-89050000D03*
X127250000Y-88550000D03*
X127250000Y-88050000D03*
X127250000Y-87550000D03*
X127250000Y-87050000D03*
D24*
X126550000Y-86350000D03*
X126050000Y-86350000D03*
X125550000Y-86350000D03*
X125050000Y-86350000D03*
X124550000Y-86350000D03*
X124050000Y-86350000D03*
D25*
X123350000Y-87050000D03*
X123350000Y-87550000D03*
X123350000Y-88050000D03*
X123350000Y-88550000D03*
X123350000Y-89050000D03*
X123350000Y-89550000D03*
%TD*%
D19*
%TO.C,C23*%
X130100000Y-50932500D03*
X130100000Y-52067500D03*
%TD*%
D26*
%TO.C,U2*%
X119650000Y-82205000D03*
X119650000Y-80935000D03*
X119650000Y-79665000D03*
X119650000Y-78395000D03*
X112450000Y-78395000D03*
X112450000Y-79665000D03*
X112450000Y-80935000D03*
X112450000Y-82205000D03*
%TD*%
D15*
%TO.C,R16*%
X128002500Y-59250000D03*
X129197500Y-59250000D03*
%TD*%
D14*
%TO.C,C11*%
X121332500Y-65000000D03*
X122467500Y-65000000D03*
%TD*%
D11*
%TO.C,C15*%
X119567500Y-62650000D03*
X118432500Y-62650000D03*
%TD*%
D27*
%TO.C,U3*%
X115350000Y-60782500D03*
D28*
X117650000Y-54482500D03*
D27*
X117650000Y-60782500D03*
X119950000Y-60782500D03*
%TD*%
D29*
%TO.C,C17*%
X122150000Y-87217500D03*
X122150000Y-86082500D03*
%TD*%
D15*
%TO.C,R1*%
X118902500Y-72950000D03*
X120097500Y-72950000D03*
%TD*%
D30*
%TO.C,Y1*%
X131900000Y-74300000D03*
X131900000Y-70600000D03*
%TD*%
D11*
%TO.C,C8*%
X120117500Y-65850000D03*
X118982500Y-65850000D03*
%TD*%
D31*
%TO.C,C24*%
X122500000Y-54975000D03*
X122500000Y-52025000D03*
%TD*%
D13*
%TO.C,R10*%
X126770000Y-104300000D03*
X125575000Y-104300000D03*
%TD*%
D32*
%TO.C,U5*%
X128905000Y-52524999D03*
X127635000Y-52524999D03*
X126365000Y-52524999D03*
X125095000Y-52524999D03*
X125095000Y-57974998D03*
X126365000Y-57974998D03*
X127635000Y-57974998D03*
X128905000Y-57974998D03*
D33*
X127000000Y-55250000D03*
%TD*%
D10*
%TO.C,R13*%
X110700000Y-58302500D03*
X110700000Y-59497500D03*
%TD*%
D34*
%TO.C,L1*%
X131850000Y-63750000D03*
X125450000Y-63750000D03*
%TD*%
D15*
%TO.C,R4*%
X117202500Y-76850000D03*
X118397500Y-76850000D03*
%TD*%
D35*
%TO.C,U6*%
X117750000Y-72987500D03*
D36*
X117825000Y-72450000D03*
D35*
X117750000Y-71912500D03*
X116050000Y-71912500D03*
D36*
X115975000Y-72450000D03*
D35*
X116050000Y-72987500D03*
%TD*%
D13*
%TO.C,R12*%
X126787500Y-108400000D03*
X125592500Y-108400000D03*
%TD*%
D14*
%TO.C,C4*%
X121332500Y-69000000D03*
X122467500Y-69000000D03*
%TD*%
D11*
%TO.C,C12*%
X132467500Y-76000000D03*
X131332500Y-76000000D03*
%TD*%
D12*
%TO.C,D3*%
X126772500Y-107400000D03*
X125627500Y-107400000D03*
%TD*%
D19*
%TO.C,C20*%
X128500000Y-89282500D03*
X128500000Y-90417500D03*
%TD*%
D29*
%TO.C,C18*%
X128500000Y-87967500D03*
X128500000Y-86832500D03*
%TD*%
D37*
%TO.C,J1*%
X114100000Y-75250000D03*
X114100000Y-70250000D03*
D38*
X111400000Y-76250000D03*
X111400000Y-69250000D03*
D39*
X114100000Y-71450000D03*
X114100000Y-72100000D03*
X114100000Y-72750000D03*
X114100000Y-73400000D03*
X114100000Y-74050000D03*
D40*
X111400000Y-69850000D03*
D41*
X111400000Y-71750000D03*
D40*
X111400000Y-75650000D03*
D41*
X111400000Y-73750000D03*
%TD*%
D13*
%TO.C,R9*%
X125647500Y-59250000D03*
X124452500Y-59250000D03*
%TD*%
D14*
%TO.C,C6*%
X121332500Y-67000000D03*
X122467500Y-67000000D03*
%TD*%
D11*
%TO.C,C2*%
X120117500Y-70850000D03*
X118982500Y-70850000D03*
%TD*%
D14*
%TO.C,C9*%
X121332500Y-66000000D03*
X122467500Y-66000000D03*
%TD*%
D15*
%TO.C,R2*%
X118902500Y-71950000D03*
X120097500Y-71950000D03*
%TD*%
D23*
%TO.C,D4*%
X110700000Y-56922500D03*
X110700000Y-55777500D03*
%TD*%
M02*
