%TF.GenerationSoftware,KiCad,Pcbnew,(6.0.0-0)*%
%TF.CreationDate,2022-01-13T06:26:06-05:00*%
%TF.ProjectId,piUAV,70695541-562e-46b6-9963-61645f706362,rev?*%
%TF.SameCoordinates,Original*%
%TF.FileFunction,Copper,L3,Inr*%
%TF.FilePolarity,Positive*%
%FSLAX46Y46*%
G04 Gerber Fmt 4.6, Leading zero omitted, Abs format (unit mm)*
G04 Created by KiCad (PCBNEW (6.0.0-0)) date 2022-01-13 06:26:06*
%MOMM*%
%LPD*%
G01*
G04 APERTURE LIST*
%TA.AperFunction,ComponentPad*%
%ADD10R,1.700000X1.700000*%
%TD*%
%TA.AperFunction,ComponentPad*%
%ADD11O,1.700000X1.700000*%
%TD*%
%TA.AperFunction,ComponentPad*%
%ADD12C,0.600000*%
%TD*%
%TA.AperFunction,ComponentPad*%
%ADD13C,0.499999*%
%TD*%
%TA.AperFunction,ComponentPad*%
%ADD14O,1.550000X0.890000*%
%TD*%
%TA.AperFunction,ComponentPad*%
%ADD15O,0.950000X1.250000*%
%TD*%
%TA.AperFunction,ViaPad*%
%ADD16C,0.800000*%
%TD*%
%TA.AperFunction,Conductor*%
%ADD17C,0.200000*%
%TD*%
%TA.AperFunction,Conductor*%
%ADD18C,0.300000*%
%TD*%
G04 APERTURE END LIST*
D10*
%TO.N,3V3_IO*%
%TO.C,J6*%
X122225000Y-100600000D03*
D11*
%TO.N,GND*%
X122225000Y-98060000D03*
%TO.N,+5V*%
X124765000Y-100600000D03*
%TO.N,GND*%
X124765000Y-98060000D03*
%TO.N,+5V*%
X127305000Y-100600000D03*
%TO.N,GND*%
X127305000Y-98060000D03*
%TD*%
D12*
%TO.N,GND*%
%TO.C,U1*%
X125000000Y-73750000D03*
X126275000Y-75025000D03*
X125000000Y-75025000D03*
X126275000Y-72475000D03*
X126275000Y-73750000D03*
X125000000Y-72475000D03*
X123725000Y-72475000D03*
X123725000Y-75025000D03*
X123725000Y-73750000D03*
%TD*%
D10*
%TO.N,3V3_IO*%
%TO.C,J2*%
X127325000Y-93025000D03*
D11*
X127325000Y-95565000D03*
%TO.N,FC_UART1_TX*%
X124785000Y-93025000D03*
%TO.N,FC_UART1_RX*%
X124785000Y-95565000D03*
%TO.N,FC_UART0_TX*%
X122245000Y-93025000D03*
%TO.N,FC_UART0_RX*%
X122245000Y-95565000D03*
%TD*%
D10*
%TO.N,FC_SERVO_1*%
%TO.C,J3*%
X117100000Y-100500000D03*
D11*
%TO.N,FC_SERVO_2*%
X117100000Y-97960000D03*
%TO.N,FC_SERVO_3*%
X117100000Y-95420000D03*
%TO.N,FC_SERVO_4*%
X117100000Y-92880000D03*
%TO.N,FC_SERVO_5*%
X117100000Y-90340000D03*
%TO.N,FC_SERVO_6*%
X117100000Y-87800000D03*
%TO.N,FC_RADIO_PPM*%
X117100000Y-85260000D03*
%TD*%
D10*
%TO.N,+3V3*%
%TO.C,J7*%
X135225000Y-52375000D03*
D11*
%TO.N,REG_5VIN*%
X137765000Y-52375000D03*
%TO.N,unconnected-(J7-Pad3)*%
X135225000Y-54915000D03*
%TO.N,REG_5VIN*%
X137765000Y-54915000D03*
%TO.N,unconnected-(J7-Pad5)*%
X135225000Y-57455000D03*
%TO.N,GND*%
X137765000Y-57455000D03*
%TO.N,unconnected-(J7-Pad7)*%
X135225000Y-59995000D03*
%TO.N,Net-(J7-Pad8)*%
X137765000Y-59995000D03*
%TO.N,unconnected-(J7-Pad9)*%
X135225000Y-62535000D03*
%TO.N,Net-(J7-Pad10)*%
X137765000Y-62535000D03*
%TO.N,DISP_RESET*%
X135225000Y-65075000D03*
%TO.N,unconnected-(J7-Pad12)*%
X137765000Y-65075000D03*
%TO.N,unconnected-(J7-Pad13)*%
X135225000Y-67615000D03*
%TO.N,GND*%
X137765000Y-67615000D03*
%TO.N,unconnected-(J7-Pad15)*%
X135225000Y-70155000D03*
%TO.N,unconnected-(J7-Pad16)*%
X137765000Y-70155000D03*
%TO.N,DISP_VCC*%
X135225000Y-72695000D03*
%TO.N,DISP_BUSY*%
X137765000Y-72695000D03*
%TO.N,DISP_DIN*%
X135225000Y-75235000D03*
%TO.N,DISP_GND*%
X137765000Y-75235000D03*
%TO.N,unconnected-(J7-Pad21)*%
X135225000Y-77775000D03*
%TO.N,DISP_DC*%
X137765000Y-77775000D03*
%TO.N,DISP_CLK*%
X135225000Y-80315000D03*
%TO.N,DISP_CS*%
X137765000Y-80315000D03*
%TO.N,GND*%
X135225000Y-82855000D03*
%TO.N,unconnected-(J7-Pad26)*%
X137765000Y-82855000D03*
%TO.N,unconnected-(J7-Pad27)*%
X135225000Y-85395000D03*
%TO.N,unconnected-(J7-Pad28)*%
X137765000Y-85395000D03*
%TO.N,unconnected-(J7-Pad29)*%
X135225000Y-87935000D03*
%TO.N,GND*%
X137765000Y-87935000D03*
%TO.N,unconnected-(J7-Pad31)*%
X135225000Y-90475000D03*
%TO.N,unconnected-(J7-Pad32)*%
X137765000Y-90475000D03*
%TO.N,unconnected-(J7-Pad33)*%
X135225000Y-93015000D03*
%TO.N,GND*%
X137765000Y-93015000D03*
%TO.N,unconnected-(J7-Pad35)*%
X135225000Y-95555000D03*
%TO.N,unconnected-(J7-Pad36)*%
X137765000Y-95555000D03*
%TO.N,unconnected-(J7-Pad37)*%
X135225000Y-98095000D03*
%TO.N,unconnected-(J7-Pad38)*%
X137765000Y-98095000D03*
%TO.N,GND*%
X135225000Y-100635000D03*
%TO.N,unconnected-(J7-Pad40)*%
X137765000Y-100635000D03*
%TD*%
D10*
%TO.N,GND*%
%TO.C,J5*%
X114575000Y-100500000D03*
D11*
%TO.N,+5V*%
X112035000Y-100500000D03*
%TO.N,GND*%
X114575000Y-97960000D03*
%TO.N,+5V*%
X112035000Y-97960000D03*
%TO.N,GND*%
X114575000Y-95420000D03*
%TO.N,+5V*%
X112035000Y-95420000D03*
%TO.N,GND*%
X114575000Y-92880000D03*
%TO.N,+5V*%
X112035000Y-92880000D03*
%TO.N,GND*%
X114575000Y-90340000D03*
%TO.N,+5V*%
X112035000Y-90340000D03*
%TO.N,GND*%
X114575000Y-87800000D03*
%TO.N,+5V*%
X112035000Y-87800000D03*
%TO.N,GND*%
X114575000Y-85260000D03*
%TO.N,+5V*%
X112035000Y-85260000D03*
%TD*%
D13*
%TO.N,N/C*%
%TO.C,U5*%
X127000000Y-55900001D03*
X125700000Y-55900001D03*
X125700000Y-54599999D03*
X128300000Y-55900001D03*
X128300000Y-54599999D03*
X127000000Y-54599999D03*
%TD*%
D14*
%TO.N,GND*%
%TO.C,J1*%
X111400000Y-76250000D03*
X111400000Y-69250000D03*
D15*
X114100000Y-70250000D03*
X114100000Y-75250000D03*
%TD*%
D10*
%TO.N,DISP_VCC*%
%TO.C,J8*%
X132350000Y-82840000D03*
D11*
%TO.N,DISP_GND*%
X132350000Y-85380000D03*
%TO.N,DISP_DIN*%
X132350000Y-87920000D03*
%TO.N,DISP_CLK*%
X132350000Y-90460000D03*
%TO.N,DISP_CS*%
X132350000Y-93000000D03*
%TO.N,DISP_DC*%
X132350000Y-95540000D03*
%TO.N,DISP_RESET*%
X132350000Y-98080000D03*
%TO.N,DISP_BUSY*%
X132350000Y-100620000D03*
%TD*%
D16*
%TO.N,+1V1*%
X120100000Y-67850000D03*
X127415319Y-71337955D03*
X122650000Y-74400000D03*
%TO.N,GND*%
X133500000Y-46400000D03*
X124800000Y-55250000D03*
X127600000Y-90350000D03*
X115750000Y-59100000D03*
X123700000Y-46400000D03*
X120800000Y-47400000D03*
X125500000Y-108400000D03*
X131300000Y-76000000D03*
X129100000Y-55250000D03*
X129200000Y-50150000D03*
X125500000Y-106400000D03*
X132500000Y-45400000D03*
X118155591Y-62994357D03*
X119250000Y-101800000D03*
X133500000Y-45400000D03*
X132500000Y-47400000D03*
X122700000Y-45400000D03*
X119750000Y-77650000D03*
X131300000Y-68900000D03*
X120800000Y-45400000D03*
X110550000Y-60150000D03*
X119800000Y-47400000D03*
X123600000Y-91800000D03*
X128900000Y-85850000D03*
X134100000Y-103250000D03*
X123700000Y-47400000D03*
X123150000Y-64100000D03*
X132500000Y-46400000D03*
X126400000Y-50150000D03*
X125500000Y-104300000D03*
X113600000Y-51499500D03*
X123700000Y-45400000D03*
X122700000Y-47400000D03*
X112700000Y-60050000D03*
X120800000Y-46400000D03*
X119800000Y-46400000D03*
X111400000Y-83000000D03*
X122700000Y-46400000D03*
X133500000Y-47400000D03*
X119800000Y-45400000D03*
X118950000Y-67850000D03*
%TO.N,/3V_MCU*%
X120100000Y-63950000D03*
X122700994Y-75950000D03*
X113600000Y-63900000D03*
X125696962Y-76021212D03*
%TO.N,3V3_IO*%
X123600000Y-68450000D03*
X117900000Y-67850000D03*
X113600000Y-61400000D03*
X115752125Y-77702125D03*
X126145137Y-82780429D03*
%TO.N,REG_5VIN*%
X120350000Y-58750000D03*
%TO.N,+3V3*%
X120100000Y-54450000D03*
%TO.N,VCC*%
X130000000Y-45400000D03*
X130000000Y-47400000D03*
X129000000Y-45400000D03*
X129000000Y-46400000D03*
X116500000Y-47400000D03*
X116500000Y-46400000D03*
X127000000Y-45400000D03*
X129000000Y-47400000D03*
X127000000Y-47400000D03*
X117500000Y-45400000D03*
X126000000Y-47400000D03*
X116500000Y-45400000D03*
X117500000Y-47400000D03*
X127000000Y-46400000D03*
X117500000Y-46400000D03*
X126000000Y-46400000D03*
X126000000Y-45400000D03*
X130000000Y-46400000D03*
%TO.N,+5V*%
X113400000Y-55350000D03*
X123150000Y-63000000D03*
X111350000Y-65800000D03*
%TO.N,FC_STATUS_BLUE*%
X132900000Y-66400000D03*
X124600000Y-69050000D03*
X129500000Y-82100000D03*
%TO.N,FC_STATUS_RED*%
X127943668Y-82900000D03*
X126599503Y-69050000D03*
X120400000Y-96800000D03*
X130140111Y-83740111D03*
%TO.N,FC_STATUS_GREEN*%
X125600000Y-69050000D03*
X120705080Y-88800000D03*
%TO.N,FC_UART1_TX*%
X125899500Y-78222534D03*
%TO.N,FC_UART1_RX*%
X126800000Y-76000000D03*
%TO.N,FC_UART0_TX*%
X128400000Y-69600000D03*
%TO.N,FC_UART0_RX*%
X128400000Y-70600000D03*
%TO.N,FC_SERVO_1*%
X120481973Y-87701325D03*
X125115957Y-82748316D03*
%TO.N,FC_SPI0_MISO*%
X121924500Y-78100000D03*
%TO.N,FC_SPI0_SCK*%
X121924500Y-80099006D03*
%TO.N,FC_SPI0_MOSI*%
X123031375Y-79981375D03*
%TO.N,FC_SPI0_CS*%
X121924500Y-79099503D03*
%TO.N,DISP_VCC*%
X130900000Y-78000000D03*
%TO.N,FC_BOOTSEL*%
X118150000Y-75849500D03*
X129800000Y-102300000D03*
%TO.N,FC_I2C0_SCL*%
X122150000Y-88400000D03*
X123500000Y-84400500D03*
X124700000Y-75950000D03*
%TO.N,FC_I2C0_SDA*%
X122679399Y-85214946D03*
X123700497Y-75950000D03*
X122150000Y-89450000D03*
%TO.N,FC_RUN*%
X117900000Y-102500000D03*
X128400000Y-68600497D03*
%TD*%
D17*
%TO.N,/3V_MCU*%
X113650000Y-63950000D02*
X120100000Y-63950000D01*
X113600000Y-63900000D02*
X113650000Y-63950000D01*
%TO.N,3V3_IO*%
X126145137Y-82780429D02*
X124163225Y-80798517D01*
X116560741Y-67850000D02*
X117900000Y-67850000D01*
X124163225Y-80798517D02*
X118848517Y-80798517D01*
X118848517Y-80798517D02*
X115752125Y-77702125D01*
X113600000Y-61400000D02*
X112900489Y-62099511D01*
D18*
X117900000Y-67850000D02*
X115752125Y-69997875D01*
X115752125Y-69997875D02*
X115752125Y-77702125D01*
D17*
X112900489Y-62099511D02*
X112900489Y-64189748D01*
X112900489Y-64189748D02*
X116560741Y-67850000D01*
D18*
%TO.N,REG_5VIN*%
X136565489Y-51175489D02*
X137765000Y-52375000D01*
X125074511Y-51175489D02*
X136565489Y-51175489D01*
X137765000Y-52375000D02*
X137765000Y-54915000D01*
X120350000Y-58750000D02*
X120350000Y-55900000D01*
X120350000Y-55900000D02*
X125074511Y-51175489D01*
D17*
%TO.N,FC_STATUS_BLUE*%
X133675969Y-67175969D02*
X132900000Y-66400000D01*
X133675969Y-77924031D02*
X133675969Y-67175969D01*
X129500000Y-82100000D02*
X133675969Y-77924031D01*
%TO.N,FC_STATUS_RED*%
X127800000Y-73152162D02*
X127943668Y-73295830D01*
X127943668Y-73295830D02*
X127943668Y-82900000D01*
X126599503Y-71951665D02*
X127800000Y-73152162D01*
X129904234Y-83740111D02*
X130140111Y-83740111D01*
X120400000Y-96800000D02*
X120400000Y-93244345D01*
X120400000Y-93244345D02*
X129904234Y-83740111D01*
X126599503Y-69050000D02*
X126599503Y-71951665D01*
%TO.N,DISP_RESET*%
X136400000Y-66250000D02*
X135225000Y-65075000D01*
X132350000Y-98080000D02*
X134075489Y-96354511D01*
X136400000Y-78225655D02*
X136400000Y-66250000D01*
X134075489Y-79824511D02*
X134900000Y-79000000D01*
X134075489Y-96354511D02*
X134075489Y-79824511D01*
X134900000Y-79000000D02*
X135625655Y-79000000D01*
X135625655Y-79000000D02*
X136400000Y-78225655D01*
%TO.N,DISP_BUSY*%
X138275489Y-78924511D02*
X139000000Y-78200000D01*
X134075489Y-98894511D02*
X134075489Y-97524511D01*
X139000000Y-73930000D02*
X137765000Y-72695000D01*
X137475489Y-78924511D02*
X138275489Y-78924511D01*
X135701144Y-96704511D02*
X136615489Y-95790166D01*
X136615489Y-95790166D02*
X136615489Y-79784511D01*
X139000000Y-78200000D02*
X139000000Y-73930000D01*
X132350000Y-100620000D02*
X134075489Y-98894511D01*
X136615489Y-79784511D02*
X137475489Y-78924511D01*
X134895489Y-96704511D02*
X135701144Y-96704511D01*
X134075489Y-97524511D02*
X134895489Y-96704511D01*
%TO.N,FC_I2C0_SCL*%
X122150000Y-86450000D02*
X122685543Y-85914457D01*
X123500000Y-84400500D02*
X126079331Y-84400500D01*
X122685543Y-85914457D02*
X122969147Y-85914457D01*
X124700000Y-78100000D02*
X124700000Y-75950000D01*
X127244168Y-80644168D02*
X124700000Y-78100000D01*
X122150000Y-88400000D02*
X122150000Y-86450000D01*
X122969147Y-85914457D02*
X123500000Y-85383604D01*
X127244168Y-83235663D02*
X127244168Y-80644168D01*
X123500000Y-85383604D02*
X123500000Y-84400500D01*
X126079331Y-84400500D02*
X127244168Y-83235663D01*
%TO.N,FC_I2C0_SDA*%
X121450489Y-88750489D02*
X121450489Y-86443856D01*
X126434885Y-83479940D02*
X126844648Y-83070177D01*
X123431301Y-83479940D02*
X126434885Y-83479940D01*
X122679399Y-85214946D02*
X122679399Y-84231842D01*
X122150000Y-89450000D02*
X121450489Y-88750489D01*
X126844648Y-83070177D02*
X126844648Y-82490681D01*
X122679399Y-84231842D02*
X123431301Y-83479940D01*
X126844648Y-82490681D02*
X123353967Y-79000000D01*
X123353967Y-76296530D02*
X123700497Y-75950000D01*
X123353967Y-79000000D02*
X123353967Y-76296530D01*
X121450489Y-86443856D02*
X122679399Y-85214946D01*
%TO.N,FC_RUN*%
X134075489Y-78815489D02*
X134075489Y-66524511D01*
X122849511Y-86749511D02*
X124799022Y-84800000D01*
X118249511Y-94339748D02*
X122849511Y-89739748D01*
X117900000Y-102500000D02*
X118249511Y-102150489D01*
X128090978Y-84800000D02*
X134075489Y-78815489D01*
X132850978Y-65300000D02*
X131700497Y-65300000D01*
X131700497Y-65300000D02*
X128400000Y-68600497D01*
X124799022Y-84800000D02*
X128090978Y-84800000D01*
X118249511Y-102150489D02*
X118249511Y-94339748D01*
X122849511Y-89739748D02*
X122849511Y-86749511D01*
X134075489Y-66524511D02*
X132850978Y-65300000D01*
%TD*%
M02*
