M48
; DRILL file {KiCad (5.1.9)-1} date 05/19/21 19:30:43
; FORMAT={-:-/ absolute / inch / decimal}
; #@! TF.CreationDate,2021-05-19T19:30:43-04:00
; #@! TF.GenerationSoftware,Kicad,Pcbnew,(5.1.9)-1
FMAT,2
INCH
T1C0.0157
T2C0.0256
T3C0.0315
T4C0.0374
T5C0.0394
T6C0.0433
T7C0.1378
%
G90
G05
T1
X7.5025Y-2.0443
X7.7721Y-2.0649
X7.7826Y-2.1558
X7.9066Y-3.8133
X7.9826Y-2.0106
X8.8097Y-3.4241
X8.8274Y-3.4862
T2
X7.2335Y-2.4803
X7.2335Y-2.6378
X7.2335Y-2.7953
X7.2835Y-2.4803
X7.2835Y-2.6378
X7.2835Y-2.7953
X7.3335Y-2.4803
X7.3335Y-2.6378
X7.3335Y-2.7953
X7.3835Y-2.4803
X7.3835Y-2.6378
X7.3835Y-2.7953
X7.4335Y-2.4803
X7.4335Y-2.6378
X7.4335Y-2.7953
X7.4835Y-2.4803
X7.4835Y-2.6378
X7.4835Y-2.7953
T3
X7.7165Y-2.874
X7.7165Y-2.9921
X7.7165Y-3.1102
X8.0165Y-2.874
X8.0165Y-2.9921
X8.0165Y-3.1102
X8.2606Y-3.8677
X8.2606Y-3.9465
X8.3393Y-3.8677
X8.3393Y-3.9465
X8.4146Y-4.4283
X8.418Y-3.8677
X8.418Y-3.9465
X8.5146Y-4.4283
X8.9Y-2.05
X8.9Y-2.35
X9.05Y-2.05
X9.05Y-2.35
T4
X7.2047Y-3.3858
X7.2047Y-3.7402
X7.2047Y-4.0945
X7.3031Y-3.3858
X7.3031Y-3.7402
X7.3031Y-4.0945
X7.4016Y-3.3858
X7.4016Y-3.7402
X7.4016Y-4.0945
X7.5Y-3.3858
X7.5Y-3.7402
X7.5Y-4.0945
X7.5984Y-3.3858
X7.5984Y-3.7402
X7.5984Y-4.0945
X7.6969Y-3.3858
X7.6969Y-3.7402
X7.6969Y-4.0945
T5
X7.7165Y-2.5591
X7.9134Y-2.5591
T6
X8.1646Y-2.1571
X8.1646Y-2.2571
X8.1646Y-2.3571
X8.1646Y-2.4571
X8.1646Y-2.5571
X8.1646Y-2.6571
X8.1646Y-2.7571
X8.1646Y-2.8571
X8.1646Y-2.9571
X8.1646Y-3.0571
X8.1646Y-3.1571
X8.1646Y-3.2571
X8.1646Y-3.3571
X8.1646Y-3.4571
X8.1646Y-3.5571
X8.1646Y-3.6571
X8.1646Y-3.7571
X8.1646Y-3.8571
X8.1646Y-3.9571
X8.1646Y-4.0571
X8.1646Y-4.1571
X8.1646Y-4.2571
X8.1646Y-4.3571
X8.1646Y-4.4571
X8.2646Y-2.6571
X8.2646Y-4.3571
X8.3646Y-2.6571
X8.4646Y-2.6571
X8.5646Y-2.6571
X8.6445Y-3.8091
X8.6445Y-3.9091
X8.6445Y-4.0091
X8.6445Y-4.1091
X8.6445Y-4.2091
X8.6646Y-2.6571
X8.7646Y-2.1571
X8.7646Y-2.2571
X8.7646Y-2.3571
X8.7646Y-2.4571
X8.7646Y-2.5571
X8.7646Y-2.6571
X8.7646Y-2.7571
X8.7646Y-2.8571
X8.7646Y-2.9571
X8.7646Y-3.0571
X8.7646Y-3.1571
X8.7646Y-3.2571
X8.7646Y-3.3571
X8.7646Y-3.4571
X8.7646Y-3.5571
X8.7646Y-3.6571
X8.7646Y-3.7571
X8.7646Y-3.8571
X8.7646Y-3.9571
X8.7646Y-4.0571
X8.7646Y-4.1571
X8.7646Y-4.2571
X8.7646Y-4.3571
X8.7646Y-4.4571
T7
X7.2441Y-1.8898
X7.2441Y-4.4094
X8.9764Y-1.8898
X8.9764Y-4.4094
T0
M30
