%TF.GenerationSoftware,KiCad,Pcbnew,(5.1.9)-1*%
%TF.CreationDate,2021-05-19T19:29:26-04:00*%
%TF.ProjectId,ava_r2_bottom,6176615f-7232-45f6-926f-74746f6d2e6b,rev?*%
%TF.SameCoordinates,Original*%
%TF.FileFunction,Copper,L1,Top*%
%TF.FilePolarity,Positive*%
%FSLAX46Y46*%
G04 Gerber Fmt 4.6, Leading zero omitted, Abs format (unit mm)*
G04 Created by KiCad (PCBNEW (5.1.9)-1) date 2021-05-19 19:29:26*
%MOMM*%
%LPD*%
G01*
G04 APERTURE LIST*
%TA.AperFunction,ComponentPad*%
%ADD10O,1.600000X1.600000*%
%TD*%
%TA.AperFunction,ComponentPad*%
%ADD11C,1.600000*%
%TD*%
%TA.AperFunction,SMDPad,CuDef*%
%ADD12R,2.000000X2.000000*%
%TD*%
%TA.AperFunction,ComponentPad*%
%ADD13R,2.000000X2.000000*%
%TD*%
%TA.AperFunction,ComponentPad*%
%ADD14C,2.000000*%
%TD*%
%TA.AperFunction,ComponentPad*%
%ADD15O,1.700000X1.950000*%
%TD*%
%TA.AperFunction,SMDPad,CuDef*%
%ADD16C,2.000000*%
%TD*%
%TA.AperFunction,ComponentPad*%
%ADD17R,1.000000X1.000000*%
%TD*%
%TA.AperFunction,ComponentPad*%
%ADD18O,1.000000X1.000000*%
%TD*%
%TA.AperFunction,ComponentPad*%
%ADD19C,1.300000*%
%TD*%
%TA.AperFunction,ComponentPad*%
%ADD20R,1.300000X1.300000*%
%TD*%
%TA.AperFunction,ComponentPad*%
%ADD21R,1.600000X1.600000*%
%TD*%
%TA.AperFunction,ViaPad*%
%ADD22C,0.800000*%
%TD*%
%TA.AperFunction,Conductor*%
%ADD23C,0.250000*%
%TD*%
G04 APERTURE END LIST*
%TO.P,MPU6050,1*%
%TO.N,GND*%
%TA.AperFunction,SMDPad,CuDef*%
G36*
G01*
X201835000Y-50965000D02*
X201985000Y-50965000D01*
G75*
G02*
X202060000Y-51040000I0J-75000D01*
G01*
X202060000Y-51740000D01*
G75*
G02*
X201985000Y-51815000I-75000J0D01*
G01*
X201835000Y-51815000D01*
G75*
G02*
X201760000Y-51740000I0J75000D01*
G01*
X201760000Y-51040000D01*
G75*
G02*
X201835000Y-50965000I75000J0D01*
G01*
G37*
%TD.AperFunction*%
%TO.P,MPU6050,2*%
%TO.N,N/C*%
%TA.AperFunction,SMDPad,CuDef*%
G36*
G01*
X201335000Y-50965000D02*
X201485000Y-50965000D01*
G75*
G02*
X201560000Y-51040000I0J-75000D01*
G01*
X201560000Y-51740000D01*
G75*
G02*
X201485000Y-51815000I-75000J0D01*
G01*
X201335000Y-51815000D01*
G75*
G02*
X201260000Y-51740000I0J75000D01*
G01*
X201260000Y-51040000D01*
G75*
G02*
X201335000Y-50965000I75000J0D01*
G01*
G37*
%TD.AperFunction*%
%TO.P,MPU6050,3*%
%TA.AperFunction,SMDPad,CuDef*%
G36*
G01*
X200835000Y-50965000D02*
X200985000Y-50965000D01*
G75*
G02*
X201060000Y-51040000I0J-75000D01*
G01*
X201060000Y-51740000D01*
G75*
G02*
X200985000Y-51815000I-75000J0D01*
G01*
X200835000Y-51815000D01*
G75*
G02*
X200760000Y-51740000I0J75000D01*
G01*
X200760000Y-51040000D01*
G75*
G02*
X200835000Y-50965000I75000J0D01*
G01*
G37*
%TD.AperFunction*%
%TO.P,MPU6050,4*%
%TA.AperFunction,SMDPad,CuDef*%
G36*
G01*
X200335000Y-50965000D02*
X200485000Y-50965000D01*
G75*
G02*
X200560000Y-51040000I0J-75000D01*
G01*
X200560000Y-51740000D01*
G75*
G02*
X200485000Y-51815000I-75000J0D01*
G01*
X200335000Y-51815000D01*
G75*
G02*
X200260000Y-51740000I0J75000D01*
G01*
X200260000Y-51040000D01*
G75*
G02*
X200335000Y-50965000I75000J0D01*
G01*
G37*
%TD.AperFunction*%
%TO.P,MPU6050,5*%
%TA.AperFunction,SMDPad,CuDef*%
G36*
G01*
X199835000Y-50965000D02*
X199985000Y-50965000D01*
G75*
G02*
X200060000Y-51040000I0J-75000D01*
G01*
X200060000Y-51740000D01*
G75*
G02*
X199985000Y-51815000I-75000J0D01*
G01*
X199835000Y-51815000D01*
G75*
G02*
X199760000Y-51740000I0J75000D01*
G01*
X199760000Y-51040000D01*
G75*
G02*
X199835000Y-50965000I75000J0D01*
G01*
G37*
%TD.AperFunction*%
%TO.P,MPU6050,6*%
%TO.N,Net-(U1-Pad6)*%
%TA.AperFunction,SMDPad,CuDef*%
G36*
G01*
X199335000Y-50965000D02*
X199485000Y-50965000D01*
G75*
G02*
X199560000Y-51040000I0J-75000D01*
G01*
X199560000Y-51740000D01*
G75*
G02*
X199485000Y-51815000I-75000J0D01*
G01*
X199335000Y-51815000D01*
G75*
G02*
X199260000Y-51740000I0J75000D01*
G01*
X199260000Y-51040000D01*
G75*
G02*
X199335000Y-50965000I75000J0D01*
G01*
G37*
%TD.AperFunction*%
%TO.P,MPU6050,7*%
%TO.N,Net-(U1-Pad7)*%
%TA.AperFunction,SMDPad,CuDef*%
G36*
G01*
X198285000Y-52165000D02*
X198285000Y-52015000D01*
G75*
G02*
X198360000Y-51940000I75000J0D01*
G01*
X199060000Y-51940000D01*
G75*
G02*
X199135000Y-52015000I0J-75000D01*
G01*
X199135000Y-52165000D01*
G75*
G02*
X199060000Y-52240000I-75000J0D01*
G01*
X198360000Y-52240000D01*
G75*
G02*
X198285000Y-52165000I0J75000D01*
G01*
G37*
%TD.AperFunction*%
%TO.P,MPU6050,8*%
%TO.N,+3V3*%
%TA.AperFunction,SMDPad,CuDef*%
G36*
G01*
X198285000Y-52665000D02*
X198285000Y-52515000D01*
G75*
G02*
X198360000Y-52440000I75000J0D01*
G01*
X199060000Y-52440000D01*
G75*
G02*
X199135000Y-52515000I0J-75000D01*
G01*
X199135000Y-52665000D01*
G75*
G02*
X199060000Y-52740000I-75000J0D01*
G01*
X198360000Y-52740000D01*
G75*
G02*
X198285000Y-52665000I0J75000D01*
G01*
G37*
%TD.AperFunction*%
%TO.P,MPU6050,9*%
%TO.N,Net-(U1-Pad9)*%
%TA.AperFunction,SMDPad,CuDef*%
G36*
G01*
X198285000Y-53165000D02*
X198285000Y-53015000D01*
G75*
G02*
X198360000Y-52940000I75000J0D01*
G01*
X199060000Y-52940000D01*
G75*
G02*
X199135000Y-53015000I0J-75000D01*
G01*
X199135000Y-53165000D01*
G75*
G02*
X199060000Y-53240000I-75000J0D01*
G01*
X198360000Y-53240000D01*
G75*
G02*
X198285000Y-53165000I0J75000D01*
G01*
G37*
%TD.AperFunction*%
%TO.P,MPU6050,10*%
%TO.N,Net-(C3-Pad1)*%
%TA.AperFunction,SMDPad,CuDef*%
G36*
G01*
X198285000Y-53665000D02*
X198285000Y-53515000D01*
G75*
G02*
X198360000Y-53440000I75000J0D01*
G01*
X199060000Y-53440000D01*
G75*
G02*
X199135000Y-53515000I0J-75000D01*
G01*
X199135000Y-53665000D01*
G75*
G02*
X199060000Y-53740000I-75000J0D01*
G01*
X198360000Y-53740000D01*
G75*
G02*
X198285000Y-53665000I0J75000D01*
G01*
G37*
%TD.AperFunction*%
%TO.P,MPU6050,11*%
%TO.N,GND*%
%TA.AperFunction,SMDPad,CuDef*%
G36*
G01*
X198285000Y-54165000D02*
X198285000Y-54015000D01*
G75*
G02*
X198360000Y-53940000I75000J0D01*
G01*
X199060000Y-53940000D01*
G75*
G02*
X199135000Y-54015000I0J-75000D01*
G01*
X199135000Y-54165000D01*
G75*
G02*
X199060000Y-54240000I-75000J0D01*
G01*
X198360000Y-54240000D01*
G75*
G02*
X198285000Y-54165000I0J75000D01*
G01*
G37*
%TD.AperFunction*%
%TO.P,MPU6050,12*%
%TO.N,Net-(U1-Pad12)*%
%TA.AperFunction,SMDPad,CuDef*%
G36*
G01*
X198285000Y-54665000D02*
X198285000Y-54515000D01*
G75*
G02*
X198360000Y-54440000I75000J0D01*
G01*
X199060000Y-54440000D01*
G75*
G02*
X199135000Y-54515000I0J-75000D01*
G01*
X199135000Y-54665000D01*
G75*
G02*
X199060000Y-54740000I-75000J0D01*
G01*
X198360000Y-54740000D01*
G75*
G02*
X198285000Y-54665000I0J75000D01*
G01*
G37*
%TD.AperFunction*%
%TO.P,MPU6050,13*%
%TO.N,+3V3*%
%TA.AperFunction,SMDPad,CuDef*%
G36*
G01*
X199335000Y-54865000D02*
X199485000Y-54865000D01*
G75*
G02*
X199560000Y-54940000I0J-75000D01*
G01*
X199560000Y-55640000D01*
G75*
G02*
X199485000Y-55715000I-75000J0D01*
G01*
X199335000Y-55715000D01*
G75*
G02*
X199260000Y-55640000I0J75000D01*
G01*
X199260000Y-54940000D01*
G75*
G02*
X199335000Y-54865000I75000J0D01*
G01*
G37*
%TD.AperFunction*%
%TO.P,MPU6050,14*%
%TO.N,N/C*%
%TA.AperFunction,SMDPad,CuDef*%
G36*
G01*
X199835000Y-54865000D02*
X199985000Y-54865000D01*
G75*
G02*
X200060000Y-54940000I0J-75000D01*
G01*
X200060000Y-55640000D01*
G75*
G02*
X199985000Y-55715000I-75000J0D01*
G01*
X199835000Y-55715000D01*
G75*
G02*
X199760000Y-55640000I0J75000D01*
G01*
X199760000Y-54940000D01*
G75*
G02*
X199835000Y-54865000I75000J0D01*
G01*
G37*
%TD.AperFunction*%
%TO.P,MPU6050,15*%
%TA.AperFunction,SMDPad,CuDef*%
G36*
G01*
X200335000Y-54865000D02*
X200485000Y-54865000D01*
G75*
G02*
X200560000Y-54940000I0J-75000D01*
G01*
X200560000Y-55640000D01*
G75*
G02*
X200485000Y-55715000I-75000J0D01*
G01*
X200335000Y-55715000D01*
G75*
G02*
X200260000Y-55640000I0J75000D01*
G01*
X200260000Y-54940000D01*
G75*
G02*
X200335000Y-54865000I75000J0D01*
G01*
G37*
%TD.AperFunction*%
%TO.P,MPU6050,16*%
%TA.AperFunction,SMDPad,CuDef*%
G36*
G01*
X200835000Y-54865000D02*
X200985000Y-54865000D01*
G75*
G02*
X201060000Y-54940000I0J-75000D01*
G01*
X201060000Y-55640000D01*
G75*
G02*
X200985000Y-55715000I-75000J0D01*
G01*
X200835000Y-55715000D01*
G75*
G02*
X200760000Y-55640000I0J75000D01*
G01*
X200760000Y-54940000D01*
G75*
G02*
X200835000Y-54865000I75000J0D01*
G01*
G37*
%TD.AperFunction*%
%TO.P,MPU6050,17*%
%TA.AperFunction,SMDPad,CuDef*%
G36*
G01*
X201335000Y-54865000D02*
X201485000Y-54865000D01*
G75*
G02*
X201560000Y-54940000I0J-75000D01*
G01*
X201560000Y-55640000D01*
G75*
G02*
X201485000Y-55715000I-75000J0D01*
G01*
X201335000Y-55715000D01*
G75*
G02*
X201260000Y-55640000I0J75000D01*
G01*
X201260000Y-54940000D01*
G75*
G02*
X201335000Y-54865000I75000J0D01*
G01*
G37*
%TD.AperFunction*%
%TO.P,MPU6050,18*%
%TO.N,GND*%
%TA.AperFunction,SMDPad,CuDef*%
G36*
G01*
X201835000Y-54865000D02*
X201985000Y-54865000D01*
G75*
G02*
X202060000Y-54940000I0J-75000D01*
G01*
X202060000Y-55640000D01*
G75*
G02*
X201985000Y-55715000I-75000J0D01*
G01*
X201835000Y-55715000D01*
G75*
G02*
X201760000Y-55640000I0J75000D01*
G01*
X201760000Y-54940000D01*
G75*
G02*
X201835000Y-54865000I75000J0D01*
G01*
G37*
%TD.AperFunction*%
%TO.P,MPU6050,19*%
%TO.N,N/C*%
%TA.AperFunction,SMDPad,CuDef*%
G36*
G01*
X202185000Y-54665000D02*
X202185000Y-54515000D01*
G75*
G02*
X202260000Y-54440000I75000J0D01*
G01*
X202960000Y-54440000D01*
G75*
G02*
X203035000Y-54515000I0J-75000D01*
G01*
X203035000Y-54665000D01*
G75*
G02*
X202960000Y-54740000I-75000J0D01*
G01*
X202260000Y-54740000D01*
G75*
G02*
X202185000Y-54665000I0J75000D01*
G01*
G37*
%TD.AperFunction*%
%TO.P,MPU6050,20*%
%TO.N,Net-(C7-Pad2)*%
%TA.AperFunction,SMDPad,CuDef*%
G36*
G01*
X202185000Y-54165000D02*
X202185000Y-54015000D01*
G75*
G02*
X202260000Y-53940000I75000J0D01*
G01*
X202960000Y-53940000D01*
G75*
G02*
X203035000Y-54015000I0J-75000D01*
G01*
X203035000Y-54165000D01*
G75*
G02*
X202960000Y-54240000I-75000J0D01*
G01*
X202260000Y-54240000D01*
G75*
G02*
X202185000Y-54165000I0J75000D01*
G01*
G37*
%TD.AperFunction*%
%TO.P,MPU6050,21*%
%TO.N,N/C*%
%TA.AperFunction,SMDPad,CuDef*%
G36*
G01*
X202185000Y-53665000D02*
X202185000Y-53515000D01*
G75*
G02*
X202260000Y-53440000I75000J0D01*
G01*
X202960000Y-53440000D01*
G75*
G02*
X203035000Y-53515000I0J-75000D01*
G01*
X203035000Y-53665000D01*
G75*
G02*
X202960000Y-53740000I-75000J0D01*
G01*
X202260000Y-53740000D01*
G75*
G02*
X202185000Y-53665000I0J75000D01*
G01*
G37*
%TD.AperFunction*%
%TO.P,MPU6050,22*%
%TA.AperFunction,SMDPad,CuDef*%
G36*
G01*
X202185000Y-53165000D02*
X202185000Y-53015000D01*
G75*
G02*
X202260000Y-52940000I75000J0D01*
G01*
X202960000Y-52940000D01*
G75*
G02*
X203035000Y-53015000I0J-75000D01*
G01*
X203035000Y-53165000D01*
G75*
G02*
X202960000Y-53240000I-75000J0D01*
G01*
X202260000Y-53240000D01*
G75*
G02*
X202185000Y-53165000I0J75000D01*
G01*
G37*
%TD.AperFunction*%
%TO.P,MPU6050,23*%
%TO.N,I2C0_SCL*%
%TA.AperFunction,SMDPad,CuDef*%
G36*
G01*
X202185000Y-52665000D02*
X202185000Y-52515000D01*
G75*
G02*
X202260000Y-52440000I75000J0D01*
G01*
X202960000Y-52440000D01*
G75*
G02*
X203035000Y-52515000I0J-75000D01*
G01*
X203035000Y-52665000D01*
G75*
G02*
X202960000Y-52740000I-75000J0D01*
G01*
X202260000Y-52740000D01*
G75*
G02*
X202185000Y-52665000I0J75000D01*
G01*
G37*
%TD.AperFunction*%
%TO.P,MPU6050,24*%
%TO.N,I2C0_SDA*%
%TA.AperFunction,SMDPad,CuDef*%
G36*
G01*
X202185000Y-52165000D02*
X202185000Y-52015000D01*
G75*
G02*
X202260000Y-51940000I75000J0D01*
G01*
X202960000Y-51940000D01*
G75*
G02*
X203035000Y-52015000I0J-75000D01*
G01*
X203035000Y-52165000D01*
G75*
G02*
X202960000Y-52240000I-75000J0D01*
G01*
X202260000Y-52240000D01*
G75*
G02*
X202185000Y-52165000I0J75000D01*
G01*
G37*
%TD.AperFunction*%
%TD*%
D10*
%TO.P,R5,2*%
%TO.N,+3V3*%
X229870000Y-52070000D03*
D11*
%TO.P,R5,1*%
%TO.N,I2C0_SDA*%
X229870000Y-59690000D03*
%TD*%
D10*
%TO.P,R4,2*%
%TO.N,+3V3*%
X226060000Y-52070000D03*
D11*
%TO.P,R4,1*%
%TO.N,I2C0_SCL*%
X226060000Y-59690000D03*
%TD*%
%TO.P,C7,2*%
%TO.N,Net-(C7-Pad2)*%
%TA.AperFunction,SMDPad,CuDef*%
G36*
G01*
X204945000Y-56700000D02*
X203995000Y-56700000D01*
G75*
G02*
X203745000Y-56450000I0J250000D01*
G01*
X203745000Y-55775000D01*
G75*
G02*
X203995000Y-55525000I250000J0D01*
G01*
X204945000Y-55525000D01*
G75*
G02*
X205195000Y-55775000I0J-250000D01*
G01*
X205195000Y-56450000D01*
G75*
G02*
X204945000Y-56700000I-250000J0D01*
G01*
G37*
%TD.AperFunction*%
%TO.P,C7,1*%
%TO.N,GND*%
%TA.AperFunction,SMDPad,CuDef*%
G36*
G01*
X204945000Y-58775000D02*
X203995000Y-58775000D01*
G75*
G02*
X203745000Y-58525000I0J250000D01*
G01*
X203745000Y-57850000D01*
G75*
G02*
X203995000Y-57600000I250000J0D01*
G01*
X204945000Y-57600000D01*
G75*
G02*
X205195000Y-57850000I0J-250000D01*
G01*
X205195000Y-58525000D01*
G75*
G02*
X204945000Y-58775000I-250000J0D01*
G01*
G37*
%TD.AperFunction*%
%TD*%
%TO.P,C3,2*%
%TO.N,GND*%
%TA.AperFunction,SMDPad,CuDef*%
G36*
G01*
X195525000Y-54450000D02*
X196475000Y-54450000D01*
G75*
G02*
X196725000Y-54700000I0J-250000D01*
G01*
X196725000Y-55375000D01*
G75*
G02*
X196475000Y-55625000I-250000J0D01*
G01*
X195525000Y-55625000D01*
G75*
G02*
X195275000Y-55375000I0J250000D01*
G01*
X195275000Y-54700000D01*
G75*
G02*
X195525000Y-54450000I250000J0D01*
G01*
G37*
%TD.AperFunction*%
%TO.P,C3,1*%
%TO.N,Net-(C3-Pad1)*%
%TA.AperFunction,SMDPad,CuDef*%
G36*
G01*
X195525000Y-52375000D02*
X196475000Y-52375000D01*
G75*
G02*
X196725000Y-52625000I0J-250000D01*
G01*
X196725000Y-53300000D01*
G75*
G02*
X196475000Y-53550000I-250000J0D01*
G01*
X195525000Y-53550000D01*
G75*
G02*
X195275000Y-53300000I0J250000D01*
G01*
X195275000Y-52625000D01*
G75*
G02*
X195525000Y-52375000I250000J0D01*
G01*
G37*
%TD.AperFunction*%
%TD*%
%TO.P,C2,2*%
%TO.N,+3V3*%
%TA.AperFunction,SMDPad,CuDef*%
G36*
G01*
X203995000Y-52450000D02*
X204945000Y-52450000D01*
G75*
G02*
X205195000Y-52700000I0J-250000D01*
G01*
X205195000Y-53375000D01*
G75*
G02*
X204945000Y-53625000I-250000J0D01*
G01*
X203995000Y-53625000D01*
G75*
G02*
X203745000Y-53375000I0J250000D01*
G01*
X203745000Y-52700000D01*
G75*
G02*
X203995000Y-52450000I250000J0D01*
G01*
G37*
%TD.AperFunction*%
%TO.P,C2,1*%
%TO.N,GND*%
%TA.AperFunction,SMDPad,CuDef*%
G36*
G01*
X203995000Y-50375000D02*
X204945000Y-50375000D01*
G75*
G02*
X205195000Y-50625000I0J-250000D01*
G01*
X205195000Y-51300000D01*
G75*
G02*
X204945000Y-51550000I-250000J0D01*
G01*
X203995000Y-51550000D01*
G75*
G02*
X203745000Y-51300000I0J250000D01*
G01*
X203745000Y-50625000D01*
G75*
G02*
X203995000Y-50375000I250000J0D01*
G01*
G37*
%TD.AperFunction*%
%TD*%
%TO.P,C1,1*%
%TO.N,+3V3*%
%TA.AperFunction,SMDPad,CuDef*%
G36*
G01*
X196475000Y-51625000D02*
X195525000Y-51625000D01*
G75*
G02*
X195275000Y-51375000I0J250000D01*
G01*
X195275000Y-50700000D01*
G75*
G02*
X195525000Y-50450000I250000J0D01*
G01*
X196475000Y-50450000D01*
G75*
G02*
X196725000Y-50700000I0J-250000D01*
G01*
X196725000Y-51375000D01*
G75*
G02*
X196475000Y-51625000I-250000J0D01*
G01*
G37*
%TD.AperFunction*%
%TO.P,C1,2*%
%TO.N,GND*%
%TA.AperFunction,SMDPad,CuDef*%
G36*
G01*
X196475000Y-49550000D02*
X195525000Y-49550000D01*
G75*
G02*
X195275000Y-49300000I0J250000D01*
G01*
X195275000Y-48625000D01*
G75*
G02*
X195525000Y-48375000I250000J0D01*
G01*
X196475000Y-48375000D01*
G75*
G02*
X196725000Y-48625000I0J-250000D01*
G01*
X196725000Y-49300000D01*
G75*
G02*
X196475000Y-49550000I-250000J0D01*
G01*
G37*
%TD.AperFunction*%
%TD*%
D12*
%TO.P,P38,1*%
%TO.N,P38_CS1*%
X228000000Y-69000000D03*
%TD*%
%TO.P,P39,1*%
%TO.N,P39_MISO1*%
X228000000Y-65000000D03*
%TD*%
%TO.P,P8,1*%
%TO.N,P8_TX2_IN1*%
X228000000Y-97000000D03*
%TD*%
%TO.P,P27,1*%
%TO.N,P27_A13_SCK1*%
X228000000Y-73000000D03*
%TD*%
%TO.P,P26,1*%
%TO.N,P26_A12_MOSI1*%
X228000000Y-77000000D03*
%TD*%
%TO.P,P20,1*%
%TO.N,P20_A6_TX5*%
X228000000Y-85000000D03*
%TD*%
%TO.P,P21,1*%
%TO.N,P21_A7_RX5*%
X228000000Y-81000000D03*
%TD*%
%TO.P,P14,1*%
%TO.N,P14_A0_TX3*%
X228000000Y-93000000D03*
%TD*%
%TO.P,P15,1*%
%TO.N,P15_A1_RX3*%
X228000000Y-89000000D03*
%TD*%
%TO.P,P1,1*%
%TO.N,P1_TX1_CTX2_MISO1*%
X228000000Y-101000000D03*
%TD*%
%TO.P,P0,1*%
%TO.N,P0_RX1_CRX2_CS1*%
X228000000Y-105000000D03*
%TD*%
D13*
%TO.P,BZ1,1*%
%TO.N,BUZZER*%
X196000000Y-65000000D03*
D14*
%TO.P,BZ1,2*%
%TO.N,GND*%
X201000000Y-65000000D03*
%TD*%
%TO.P,C4,2*%
%TO.N,+3V3*%
%TA.AperFunction,SMDPad,CuDef*%
G36*
G01*
X184625000Y-53550000D02*
X183675000Y-53550000D01*
G75*
G02*
X183425000Y-53300000I0J250000D01*
G01*
X183425000Y-52625000D01*
G75*
G02*
X183675000Y-52375000I250000J0D01*
G01*
X184625000Y-52375000D01*
G75*
G02*
X184875000Y-52625000I0J-250000D01*
G01*
X184875000Y-53300000D01*
G75*
G02*
X184625000Y-53550000I-250000J0D01*
G01*
G37*
%TD.AperFunction*%
%TO.P,C4,1*%
%TO.N,GND*%
%TA.AperFunction,SMDPad,CuDef*%
G36*
G01*
X184625000Y-55625000D02*
X183675000Y-55625000D01*
G75*
G02*
X183425000Y-55375000I0J250000D01*
G01*
X183425000Y-54700000D01*
G75*
G02*
X183675000Y-54450000I250000J0D01*
G01*
X184625000Y-54450000D01*
G75*
G02*
X184875000Y-54700000I0J-250000D01*
G01*
X184875000Y-55375000D01*
G75*
G02*
X184625000Y-55625000I-250000J0D01*
G01*
G37*
%TD.AperFunction*%
%TD*%
%TO.P,C5,1*%
%TO.N,+3V3*%
%TA.AperFunction,SMDPad,CuDef*%
G36*
G01*
X191295000Y-52375000D02*
X192245000Y-52375000D01*
G75*
G02*
X192495000Y-52625000I0J-250000D01*
G01*
X192495000Y-53300000D01*
G75*
G02*
X192245000Y-53550000I-250000J0D01*
G01*
X191295000Y-53550000D01*
G75*
G02*
X191045000Y-53300000I0J250000D01*
G01*
X191045000Y-52625000D01*
G75*
G02*
X191295000Y-52375000I250000J0D01*
G01*
G37*
%TD.AperFunction*%
%TO.P,C5,2*%
%TO.N,GND*%
%TA.AperFunction,SMDPad,CuDef*%
G36*
G01*
X191295000Y-54450000D02*
X192245000Y-54450000D01*
G75*
G02*
X192495000Y-54700000I0J-250000D01*
G01*
X192495000Y-55375000D01*
G75*
G02*
X192245000Y-55625000I-250000J0D01*
G01*
X191295000Y-55625000D01*
G75*
G02*
X191045000Y-55375000I0J250000D01*
G01*
X191045000Y-54700000D01*
G75*
G02*
X191295000Y-54450000I250000J0D01*
G01*
G37*
%TD.AperFunction*%
%TD*%
%TO.P,C6,1*%
%TO.N,GND*%
%TA.AperFunction,SMDPad,CuDef*%
G36*
G01*
X189585000Y-56675000D02*
X189585000Y-57625000D01*
G75*
G02*
X189335000Y-57875000I-250000J0D01*
G01*
X188660000Y-57875000D01*
G75*
G02*
X188410000Y-57625000I0J250000D01*
G01*
X188410000Y-56675000D01*
G75*
G02*
X188660000Y-56425000I250000J0D01*
G01*
X189335000Y-56425000D01*
G75*
G02*
X189585000Y-56675000I0J-250000D01*
G01*
G37*
%TD.AperFunction*%
%TO.P,C6,2*%
%TO.N,Net-(C6-Pad2)*%
%TA.AperFunction,SMDPad,CuDef*%
G36*
G01*
X187510000Y-56675000D02*
X187510000Y-57625000D01*
G75*
G02*
X187260000Y-57875000I-250000J0D01*
G01*
X186585000Y-57875000D01*
G75*
G02*
X186335000Y-57625000I0J250000D01*
G01*
X186335000Y-56675000D01*
G75*
G02*
X186585000Y-56425000I250000J0D01*
G01*
X187260000Y-56425000D01*
G75*
G02*
X187510000Y-56675000I0J-250000D01*
G01*
G37*
%TD.AperFunction*%
%TD*%
%TO.P,D1,1*%
%TO.N,Net-(D1-Pad1)*%
%TA.AperFunction,SMDPad,CuDef*%
G36*
G01*
X189454999Y-77565000D02*
X190355001Y-77565000D01*
G75*
G02*
X190605000Y-77814999I0J-249999D01*
G01*
X190605000Y-78465001D01*
G75*
G02*
X190355001Y-78715000I-249999J0D01*
G01*
X189454999Y-78715000D01*
G75*
G02*
X189205000Y-78465001I0J249999D01*
G01*
X189205000Y-77814999D01*
G75*
G02*
X189454999Y-77565000I249999J0D01*
G01*
G37*
%TD.AperFunction*%
%TO.P,D1,2*%
%TO.N,LED_BLUE*%
%TA.AperFunction,SMDPad,CuDef*%
G36*
G01*
X189454999Y-79615000D02*
X190355001Y-79615000D01*
G75*
G02*
X190605000Y-79864999I0J-249999D01*
G01*
X190605000Y-80515001D01*
G75*
G02*
X190355001Y-80765000I-249999J0D01*
G01*
X189454999Y-80765000D01*
G75*
G02*
X189205000Y-80515001I0J249999D01*
G01*
X189205000Y-79864999D01*
G75*
G02*
X189454999Y-79615000I249999J0D01*
G01*
G37*
%TD.AperFunction*%
%TD*%
%TO.P,D2,2*%
%TO.N,LED_RED*%
%TA.AperFunction,SMDPad,CuDef*%
G36*
G01*
X185644999Y-79615000D02*
X186545001Y-79615000D01*
G75*
G02*
X186795000Y-79864999I0J-249999D01*
G01*
X186795000Y-80515001D01*
G75*
G02*
X186545001Y-80765000I-249999J0D01*
G01*
X185644999Y-80765000D01*
G75*
G02*
X185395000Y-80515001I0J249999D01*
G01*
X185395000Y-79864999D01*
G75*
G02*
X185644999Y-79615000I249999J0D01*
G01*
G37*
%TD.AperFunction*%
%TO.P,D2,1*%
%TO.N,Net-(D2-Pad1)*%
%TA.AperFunction,SMDPad,CuDef*%
G36*
G01*
X185644999Y-77565000D02*
X186545001Y-77565000D01*
G75*
G02*
X186795000Y-77814999I0J-249999D01*
G01*
X186795000Y-78465001D01*
G75*
G02*
X186545001Y-78715000I-249999J0D01*
G01*
X185644999Y-78715000D01*
G75*
G02*
X185395000Y-78465001I0J249999D01*
G01*
X185395000Y-77814999D01*
G75*
G02*
X185644999Y-77565000I249999J0D01*
G01*
G37*
%TD.AperFunction*%
%TD*%
%TO.P,D3,1*%
%TO.N,Net-(D3-Pad1)*%
%TA.AperFunction,SMDPad,CuDef*%
G36*
G01*
X181834999Y-77565000D02*
X182735001Y-77565000D01*
G75*
G02*
X182985000Y-77814999I0J-249999D01*
G01*
X182985000Y-78465001D01*
G75*
G02*
X182735001Y-78715000I-249999J0D01*
G01*
X181834999Y-78715000D01*
G75*
G02*
X181585000Y-78465001I0J249999D01*
G01*
X181585000Y-77814999D01*
G75*
G02*
X181834999Y-77565000I249999J0D01*
G01*
G37*
%TD.AperFunction*%
%TO.P,D3,2*%
%TO.N,LED_GREEN*%
%TA.AperFunction,SMDPad,CuDef*%
G36*
G01*
X181834999Y-79615000D02*
X182735001Y-79615000D01*
G75*
G02*
X182985000Y-79864999I0J-249999D01*
G01*
X182985000Y-80515001D01*
G75*
G02*
X182735001Y-80765000I-249999J0D01*
G01*
X181834999Y-80765000D01*
G75*
G02*
X181585000Y-80515001I0J249999D01*
G01*
X181585000Y-79864999D01*
G75*
G02*
X181834999Y-79615000I249999J0D01*
G01*
G37*
%TD.AperFunction*%
%TD*%
%TO.P,RADIO1,1*%
%TO.N,RC_CH1_PWM*%
%TA.AperFunction,ComponentPad*%
G36*
G01*
X182150000Y-86725000D02*
X182150000Y-85275000D01*
G75*
G02*
X182400000Y-85025000I250000J0D01*
G01*
X183600000Y-85025000D01*
G75*
G02*
X183850000Y-85275000I0J-250000D01*
G01*
X183850000Y-86725000D01*
G75*
G02*
X183600000Y-86975000I-250000J0D01*
G01*
X182400000Y-86975000D01*
G75*
G02*
X182150000Y-86725000I0J250000D01*
G01*
G37*
%TD.AperFunction*%
D15*
%TO.P,RADIO1,2*%
%TO.N,RC_CH2_PWM*%
X185500000Y-86000000D03*
%TO.P,RADIO1,3*%
%TO.N,RC_CH3_PWM*%
X188000000Y-86000000D03*
%TO.P,RADIO1,4*%
%TO.N,RC_CH4_PWM*%
X190500000Y-86000000D03*
%TO.P,RADIO1,5*%
%TO.N,RC_CH5_PWM*%
X193000000Y-86000000D03*
%TO.P,RADIO1,6*%
%TO.N,RC_CH6_PWM*%
X195500000Y-86000000D03*
%TD*%
%TO.P,UART1,6*%
%TO.N,+5V*%
X195500000Y-95000000D03*
%TO.P,UART1,5*%
%TO.N,GND*%
X193000000Y-95000000D03*
%TO.P,UART1,4*%
%TO.N,UART8_TX*%
X190500000Y-95000000D03*
%TO.P,UART1,3*%
%TO.N,UART8_RX*%
X188000000Y-95000000D03*
%TO.P,UART1,2*%
%TO.N,UART7_TX*%
X185500000Y-95000000D03*
%TO.P,UART1,1*%
%TO.N,UART7_RX*%
%TA.AperFunction,ComponentPad*%
G36*
G01*
X182150000Y-95725000D02*
X182150000Y-94275000D01*
G75*
G02*
X182400000Y-94025000I250000J0D01*
G01*
X183600000Y-94025000D01*
G75*
G02*
X183850000Y-94275000I0J-250000D01*
G01*
X183850000Y-95725000D01*
G75*
G02*
X183600000Y-95975000I-250000J0D01*
G01*
X182400000Y-95975000D01*
G75*
G02*
X182150000Y-95725000I0J250000D01*
G01*
G37*
%TD.AperFunction*%
%TD*%
%TO.P,I2C1,1*%
%TO.N,I2C0_SDA*%
%TA.AperFunction,ComponentPad*%
G36*
G01*
X182150000Y-104725000D02*
X182150000Y-103275000D01*
G75*
G02*
X182400000Y-103025000I250000J0D01*
G01*
X183600000Y-103025000D01*
G75*
G02*
X183850000Y-103275000I0J-250000D01*
G01*
X183850000Y-104725000D01*
G75*
G02*
X183600000Y-104975000I-250000J0D01*
G01*
X182400000Y-104975000D01*
G75*
G02*
X182150000Y-104725000I0J250000D01*
G01*
G37*
%TD.AperFunction*%
%TO.P,I2C1,2*%
%TO.N,I2C0_SCL*%
X185500000Y-104000000D03*
%TO.P,I2C1,3*%
%TO.N,I2C1_SDA*%
X188000000Y-104000000D03*
%TO.P,I2C1,4*%
%TO.N,I2C1_SCL*%
X190500000Y-104000000D03*
%TO.P,I2C1,5*%
%TO.N,GND*%
X193000000Y-104000000D03*
%TO.P,I2C1,6*%
%TO.N,+3V3*%
X195500000Y-104000000D03*
%TD*%
D12*
%TO.P,J4,1*%
%TO.N,+5V*%
X197855000Y-111855000D03*
%TD*%
D16*
%TO.P,J5,1*%
%TO.N,GND*%
X192775000Y-111855000D03*
%TD*%
D17*
%TO.P,J6,1*%
%TO.N,SERVO1_PWM*%
X183730000Y-63000000D03*
D18*
%TO.P,J6,2*%
%TO.N,+5V*%
X185000000Y-63000000D03*
%TO.P,J6,3*%
%TO.N,GND*%
X186270000Y-63000000D03*
%TO.P,J6,4*%
%TO.N,SERVO2_PWM*%
X187540000Y-63000000D03*
%TO.P,J6,5*%
%TO.N,+5V*%
X188810000Y-63000000D03*
%TO.P,J6,6*%
%TO.N,GND*%
X190080000Y-63000000D03*
%TD*%
%TO.P,J7,6*%
%TO.N,GND*%
X190080000Y-67000000D03*
%TO.P,J7,5*%
%TO.N,+5V*%
X188810000Y-67000000D03*
%TO.P,J7,4*%
%TO.N,SERVO4_PWM*%
X187540000Y-67000000D03*
%TO.P,J7,3*%
%TO.N,GND*%
X186270000Y-67000000D03*
%TO.P,J7,2*%
%TO.N,+5V*%
X185000000Y-67000000D03*
D17*
%TO.P,J7,1*%
%TO.N,SERVO3_PWM*%
X183730000Y-67000000D03*
%TD*%
%TO.P,J8,1*%
%TO.N,SERVO5_PWM*%
X183730000Y-71000000D03*
D18*
%TO.P,J8,2*%
%TO.N,+5V*%
X185000000Y-71000000D03*
%TO.P,J8,3*%
%TO.N,GND*%
X186270000Y-71000000D03*
%TO.P,J8,4*%
%TO.N,SERVO6_PWM*%
X187540000Y-71000000D03*
%TO.P,J8,5*%
%TO.N,+5V*%
X188810000Y-71000000D03*
%TO.P,J8,6*%
%TO.N,GND*%
X190080000Y-71000000D03*
%TD*%
D10*
%TO.P,R1,2*%
%TO.N,GND*%
X203620000Y-79000000D03*
D11*
%TO.P,R1,1*%
%TO.N,Net-(D1-Pad1)*%
X196000000Y-79000000D03*
%TD*%
%TO.P,R2,1*%
%TO.N,Net-(D2-Pad1)*%
X196000000Y-76000000D03*
D10*
%TO.P,R2,2*%
%TO.N,GND*%
X203620000Y-76000000D03*
%TD*%
D11*
%TO.P,R3,1*%
%TO.N,Net-(D3-Pad1)*%
X196000000Y-73000000D03*
D10*
%TO.P,R3,2*%
%TO.N,GND*%
X203620000Y-73000000D03*
%TD*%
D19*
%TO.P,U2,66*%
%TO.N,USB_D-*%
X213730000Y-112480000D03*
%TO.P,U2,67*%
%TO.N,USB_D+*%
X216270000Y-112480000D03*
D11*
%TO.P,U2,54*%
%TO.N,ON_OFF*%
X209920000Y-67490000D03*
%TO.P,U2,53*%
%TO.N,PROGRAM*%
X212460000Y-67490000D03*
%TO.P,U2,52*%
%TO.N,Net-(U2-Pad52)*%
X215000000Y-67490000D03*
%TO.P,U2,51*%
%TO.N,Net-(U2-Pad51)*%
X217540000Y-67490000D03*
%TO.P,U2,50*%
%TO.N,VBAT*%
X220080000Y-67490000D03*
D19*
%TO.P,U2,62*%
%TO.N,ETH_T-*%
X213818400Y-100240000D03*
%TO.P,U2,63*%
%TO.N,ETH_T+*%
X213818400Y-98240000D03*
%TO.P,U2,64*%
%TO.N,ETH_GND*%
X211818400Y-98240000D03*
%TO.P,U2,61*%
%TO.N,ETH_LED*%
X211818400Y-100240000D03*
%TO.P,U2,65*%
%TO.N,ETH_R-*%
X209818400Y-98240000D03*
D20*
%TO.P,U2,60*%
%TO.N,ETH_R+*%
X209818400Y-100240000D03*
D11*
%TO.P,U2,17*%
%TO.N,RC_CH6_PWM*%
X222620000Y-72570000D03*
%TO.P,U2,18*%
%TO.N,P26_A12_MOSI1*%
X222620000Y-70030000D03*
%TO.P,U2,19*%
%TO.N,P27_A13_SCK1*%
X222620000Y-67490000D03*
%TO.P,U2,20*%
%TO.N,UART7_RX*%
X222620000Y-64950000D03*
%TO.P,U2,16*%
%TO.N,RC_CH5_PWM*%
X222620000Y-75110000D03*
%TO.P,U2,15*%
%TO.N,+3V3*%
X222620000Y-77650000D03*
%TO.P,U2,14*%
%TO.N,RC_CH4_PWM*%
X222620000Y-80190000D03*
%TO.P,U2,21*%
%TO.N,UART7_TX*%
X222620000Y-62410000D03*
%TO.P,U2,22*%
%TO.N,P30_CRX3*%
X222620000Y-59870000D03*
%TO.P,U2,23*%
%TO.N,P31_CTX3*%
X222620000Y-57330000D03*
%TO.P,U2,24*%
%TO.N,P32_OUT1B*%
X222620000Y-54790000D03*
%TO.P,U2,25*%
%TO.N,P33_MCLK2*%
X207380000Y-54790000D03*
%TO.P,U2,26*%
%TO.N,UART8_RX*%
X207380000Y-57330000D03*
%TO.P,U2,27*%
%TO.N,UART8_TX*%
X207380000Y-59870000D03*
%TO.P,U2,28*%
%TO.N,BUZZER*%
X207380000Y-62410000D03*
%TO.P,U2,29*%
%TO.N,P37_CS*%
X207380000Y-64950000D03*
%TO.P,U2,30*%
%TO.N,P38_CS1*%
X207380000Y-67490000D03*
%TO.P,U2,31*%
%TO.N,P39_MISO1*%
X207380000Y-70030000D03*
%TO.P,U2,32*%
%TO.N,P41_A16*%
X207380000Y-72570000D03*
%TO.P,U2,33*%
%TO.N,P41_A17*%
X207380000Y-75110000D03*
%TO.P,U2,34*%
%TO.N,GND*%
X207380000Y-77650000D03*
%TO.P,U2,13*%
%TO.N,RC_CH3_PWM*%
X222620000Y-82730000D03*
%TO.P,U2,12*%
%TO.N,RC_CH2_PWM*%
X222620000Y-85270000D03*
%TO.P,U2,11*%
%TO.N,RC_CH1_PWM*%
X222620000Y-87810000D03*
%TO.P,U2,10*%
%TO.N,P8_TX2_IN1*%
X222620000Y-90350000D03*
%TO.P,U2,9*%
%TO.N,SERVO6_PWM*%
X222620000Y-92890000D03*
%TO.P,U2,8*%
%TO.N,SERVO5_PWM*%
X222620000Y-95430000D03*
%TO.P,U2,7*%
%TO.N,SERVO4_PWM*%
X222620000Y-97970000D03*
%TO.P,U2,6*%
%TO.N,SERVO3_PWM*%
X222620000Y-100510000D03*
%TO.P,U2,5*%
%TO.N,SERVO2_PWM*%
X222620000Y-103050000D03*
%TO.P,U2,4*%
%TO.N,SERVO1_PWM*%
X222620000Y-105590000D03*
%TO.P,U2,3*%
%TO.N,P1_TX1_CTX2_MISO1*%
X222620000Y-108130000D03*
%TO.P,U2,2*%
%TO.N,P0_RX1_CRX2_CS1*%
X222620000Y-110670000D03*
D21*
%TO.P,U2,1*%
%TO.N,GND*%
X222620000Y-113210000D03*
D11*
%TO.P,U2,35*%
%TO.N,LED_BLUE*%
X207380000Y-80190000D03*
%TO.P,U2,36*%
%TO.N,P14_A0_TX3*%
X207380000Y-82730000D03*
%TO.P,U2,37*%
%TO.N,P15_A1_RX3*%
X207380000Y-85270000D03*
%TO.P,U2,38*%
%TO.N,I2C1_SCL*%
X207380000Y-87810000D03*
%TO.P,U2,39*%
%TO.N,I2C1_SDA*%
X207380000Y-90350000D03*
%TO.P,U2,40*%
%TO.N,I2C0_SDA*%
X207380000Y-92890000D03*
%TO.P,U2,41*%
%TO.N,I2C0_SCL*%
X207380000Y-95430000D03*
%TO.P,U2,42*%
%TO.N,P20_A6_TX5*%
X207380000Y-97970000D03*
%TO.P,U2,43*%
%TO.N,P21_A7_RX5*%
X207380000Y-100510000D03*
%TO.P,U2,44*%
%TO.N,LED_GREEN*%
X207380000Y-103050000D03*
%TO.P,U2,45*%
%TO.N,LED_RED*%
X207380000Y-105590000D03*
%TO.P,U2,46*%
%TO.N,Net-(U2-Pad46)*%
X207380000Y-108130000D03*
%TO.P,U2,47*%
%TO.N,Net-(U2-Pad47)*%
X207380000Y-110670000D03*
%TO.P,U2,48*%
%TO.N,+5V*%
X207380000Y-113210000D03*
D21*
%TO.P,U2,55*%
%TO.N,USBH_5V*%
X219569200Y-106910800D03*
D11*
%TO.P,U2,56*%
%TO.N,USBH_D-*%
X219569200Y-104370800D03*
%TO.P,U2,57*%
%TO.N,USBH_D+*%
X219569200Y-101830800D03*
%TO.P,U2,58*%
%TO.N,USBH_GND*%
X219569200Y-99290800D03*
%TO.P,U2,59*%
X219569200Y-96750800D03*
%TO.P,U2,49*%
%TO.N,Net-(U2-Pad49)*%
X209920000Y-110670000D03*
%TD*%
%TO.P,U3,1*%
%TO.N,+3V3*%
%TA.AperFunction,SMDPad,CuDef*%
G36*
G01*
X186210000Y-55750000D02*
X185960000Y-55750000D01*
G75*
G02*
X185835000Y-55625000I0J125000D01*
G01*
X185835000Y-54675000D01*
G75*
G02*
X185960000Y-54550000I125000J0D01*
G01*
X186210000Y-54550000D01*
G75*
G02*
X186335000Y-54675000I0J-125000D01*
G01*
X186335000Y-55625000D01*
G75*
G02*
X186210000Y-55750000I-125000J0D01*
G01*
G37*
%TD.AperFunction*%
%TO.P,U3,2*%
%TO.N,Net-(C6-Pad2)*%
%TA.AperFunction,SMDPad,CuDef*%
G36*
G01*
X187460000Y-55750000D02*
X187210000Y-55750000D01*
G75*
G02*
X187085000Y-55625000I0J125000D01*
G01*
X187085000Y-54675000D01*
G75*
G02*
X187210000Y-54550000I125000J0D01*
G01*
X187460000Y-54550000D01*
G75*
G02*
X187585000Y-54675000I0J-125000D01*
G01*
X187585000Y-55625000D01*
G75*
G02*
X187460000Y-55750000I-125000J0D01*
G01*
G37*
%TD.AperFunction*%
%TO.P,U3,3*%
%TO.N,GND*%
%TA.AperFunction,SMDPad,CuDef*%
G36*
G01*
X188710000Y-55750000D02*
X188460000Y-55750000D01*
G75*
G02*
X188335000Y-55625000I0J125000D01*
G01*
X188335000Y-54675000D01*
G75*
G02*
X188460000Y-54550000I125000J0D01*
G01*
X188710000Y-54550000D01*
G75*
G02*
X188835000Y-54675000I0J-125000D01*
G01*
X188835000Y-55625000D01*
G75*
G02*
X188710000Y-55750000I-125000J0D01*
G01*
G37*
%TD.AperFunction*%
%TO.P,U3,4*%
%TO.N,+3V3*%
%TA.AperFunction,SMDPad,CuDef*%
G36*
G01*
X189960000Y-55750000D02*
X189710000Y-55750000D01*
G75*
G02*
X189585000Y-55625000I0J125000D01*
G01*
X189585000Y-54675000D01*
G75*
G02*
X189710000Y-54550000I125000J0D01*
G01*
X189960000Y-54550000D01*
G75*
G02*
X190085000Y-54675000I0J-125000D01*
G01*
X190085000Y-55625000D01*
G75*
G02*
X189960000Y-55750000I-125000J0D01*
G01*
G37*
%TD.AperFunction*%
%TO.P,U3,5*%
%TO.N,Net-(U3-Pad5)*%
%TA.AperFunction,SMDPad,CuDef*%
G36*
G01*
X189960000Y-53450000D02*
X189710000Y-53450000D01*
G75*
G02*
X189585000Y-53325000I0J125000D01*
G01*
X189585000Y-52375000D01*
G75*
G02*
X189710000Y-52250000I125000J0D01*
G01*
X189960000Y-52250000D01*
G75*
G02*
X190085000Y-52375000I0J-125000D01*
G01*
X190085000Y-53325000D01*
G75*
G02*
X189960000Y-53450000I-125000J0D01*
G01*
G37*
%TD.AperFunction*%
%TO.P,U3,6*%
%TO.N,Net-(U3-Pad6)*%
%TA.AperFunction,SMDPad,CuDef*%
G36*
G01*
X188710000Y-53450000D02*
X188460000Y-53450000D01*
G75*
G02*
X188335000Y-53325000I0J125000D01*
G01*
X188335000Y-52375000D01*
G75*
G02*
X188460000Y-52250000I125000J0D01*
G01*
X188710000Y-52250000D01*
G75*
G02*
X188835000Y-52375000I0J-125000D01*
G01*
X188835000Y-53325000D01*
G75*
G02*
X188710000Y-53450000I-125000J0D01*
G01*
G37*
%TD.AperFunction*%
%TO.P,U3,7*%
%TO.N,I2C0_SDA*%
%TA.AperFunction,SMDPad,CuDef*%
G36*
G01*
X187460000Y-53450000D02*
X187210000Y-53450000D01*
G75*
G02*
X187085000Y-53325000I0J125000D01*
G01*
X187085000Y-52375000D01*
G75*
G02*
X187210000Y-52250000I125000J0D01*
G01*
X187460000Y-52250000D01*
G75*
G02*
X187585000Y-52375000I0J-125000D01*
G01*
X187585000Y-53325000D01*
G75*
G02*
X187460000Y-53450000I-125000J0D01*
G01*
G37*
%TD.AperFunction*%
%TO.P,U3,8*%
%TO.N,I2C0_SCL*%
%TA.AperFunction,SMDPad,CuDef*%
G36*
G01*
X186210000Y-53450000D02*
X185960000Y-53450000D01*
G75*
G02*
X185835000Y-53325000I0J125000D01*
G01*
X185835000Y-52375000D01*
G75*
G02*
X185960000Y-52250000I125000J0D01*
G01*
X186210000Y-52250000D01*
G75*
G02*
X186335000Y-52375000I0J-125000D01*
G01*
X186335000Y-53325000D01*
G75*
G02*
X186210000Y-53450000I-125000J0D01*
G01*
G37*
%TD.AperFunction*%
%TD*%
D22*
%TO.N,+3V3*%
X197678600Y-54757500D03*
X197412200Y-52449600D03*
%TO.N,I2C0_SDA*%
X190563700Y-51924100D03*
X202757000Y-51070000D03*
%TO.N,I2C1_SCL*%
X200826600Y-96858300D03*
%TO.N,P14_A0_TX3*%
X224217100Y-88548300D03*
%TO.N,P15_A1_RX3*%
X223766900Y-86971600D03*
%TD*%
D23*
%TO.N,GND*%
X186364100Y-62080600D02*
X186270000Y-62174700D01*
X186364100Y-58242400D02*
X186364100Y-62080600D01*
X186364100Y-62080600D02*
X189160600Y-62080600D01*
X189160600Y-62080600D02*
X190080000Y-63000000D01*
X186270000Y-63000000D02*
X186270000Y-62174700D01*
X186364100Y-58242400D02*
X184150000Y-56028300D01*
X184150000Y-56028300D02*
X184150000Y-55037500D01*
X188997500Y-57150000D02*
X187905100Y-58242400D01*
X187905100Y-58242400D02*
X186364100Y-58242400D01*
X203620000Y-73000000D02*
X202494700Y-73000000D01*
X190080000Y-71000000D02*
X200494700Y-71000000D01*
X200494700Y-71000000D02*
X202494700Y-73000000D01*
X193000000Y-95000000D02*
X191824700Y-95000000D01*
X186270000Y-71000000D02*
X185444600Y-70174600D01*
X185444600Y-70174600D02*
X183053200Y-70174600D01*
X183053200Y-70174600D02*
X181258700Y-71969100D01*
X181258700Y-71969100D02*
X181258700Y-80847600D01*
X181258700Y-80847600D02*
X184250500Y-83839400D01*
X184250500Y-83839400D02*
X184250500Y-86564000D01*
X184250500Y-86564000D02*
X191824700Y-94138200D01*
X191824700Y-94138200D02*
X191824700Y-95000000D01*
X193000000Y-111630000D02*
X193000000Y-104000000D01*
X192775000Y-111855000D02*
X193000000Y-111630000D01*
X193000000Y-111630000D02*
X195705300Y-114335300D01*
X195705300Y-114335300D02*
X220369400Y-114335300D01*
X220369400Y-114335300D02*
X221494700Y-113210000D01*
X222620000Y-113210000D02*
X221494700Y-113210000D01*
X203620000Y-73000000D02*
X203620000Y-76000000D01*
X191770000Y-55037500D02*
X196000000Y-55037500D01*
X188997500Y-56090000D02*
X190717500Y-56090000D01*
X190717500Y-56090000D02*
X191770000Y-55037500D01*
X201910000Y-50861200D02*
X201910000Y-51390000D01*
X204470000Y-50962500D02*
X203830800Y-50323300D01*
X203830800Y-50323300D02*
X202447900Y-50323300D01*
X202447900Y-50323300D02*
X201910000Y-50861200D01*
X196000000Y-49154300D02*
X200203100Y-49154300D01*
X200203100Y-49154300D02*
X201910000Y-50861200D01*
X184150000Y-55037500D02*
X183094400Y-53981900D01*
X183094400Y-53981900D02*
X183094400Y-52385700D01*
X183094400Y-52385700D02*
X183453300Y-52026800D01*
X183453300Y-52026800D02*
X184863900Y-52026800D01*
X184863900Y-52026800D02*
X185355200Y-52518100D01*
X185355200Y-52518100D02*
X185355200Y-53378500D01*
X185355200Y-53378500D02*
X185773800Y-53797100D01*
X185773800Y-53797100D02*
X186415200Y-53797100D01*
X186415200Y-53797100D02*
X186703300Y-53509000D01*
X186703300Y-53509000D02*
X186703300Y-52231700D01*
X186703300Y-52231700D02*
X189780700Y-49154300D01*
X189780700Y-49154300D02*
X196000000Y-49154300D01*
X186270000Y-67000000D02*
X186270000Y-63000000D01*
X188997500Y-56090000D02*
X188997500Y-57150000D01*
X193000000Y-102699700D02*
X193334400Y-102365300D01*
X193334400Y-102365300D02*
X193334400Y-96634700D01*
X193334400Y-96634700D02*
X193000000Y-96300300D01*
X193000000Y-95000000D02*
X193000000Y-96300300D01*
X193000000Y-104000000D02*
X193000000Y-102699700D01*
X196625300Y-54777400D02*
X197888600Y-56040700D01*
X197888600Y-56040700D02*
X201691200Y-56040700D01*
X201691200Y-56040700D02*
X202007200Y-55724700D01*
X196000000Y-55037500D02*
X196260100Y-54777400D01*
X196260100Y-54777400D02*
X196625300Y-54777400D01*
X198710000Y-54090000D02*
X198036900Y-54090000D01*
X198036900Y-54090000D02*
X197979100Y-54032200D01*
X197979100Y-54032200D02*
X197370500Y-54032200D01*
X197370500Y-54032200D02*
X196625300Y-54777400D01*
X202007200Y-55724700D02*
X201910000Y-55627500D01*
X201910000Y-55627500D02*
X201910000Y-55290000D01*
X204470000Y-58187500D02*
X202007200Y-55724700D01*
X188585000Y-55150000D02*
X188997500Y-55562500D01*
X188997500Y-55562500D02*
X188997500Y-56090000D01*
X196000000Y-49154300D02*
X196000000Y-48962500D01*
X204470000Y-58187500D02*
X204470000Y-61530000D01*
X204470000Y-61530000D02*
X201000000Y-65000000D01*
X190080000Y-67000000D02*
X190080000Y-63000000D01*
%TO.N,+3V3*%
X222620000Y-77650000D02*
X223301500Y-78331500D01*
X223301500Y-78331500D02*
X229189000Y-78331500D01*
X229189000Y-78331500D02*
X229775700Y-77744800D01*
X229775700Y-77744800D02*
X229775700Y-63607800D01*
X229775700Y-63607800D02*
X227187600Y-61019700D01*
X189835000Y-54804600D02*
X189927900Y-54804600D01*
X189927900Y-54804600D02*
X191770000Y-52962500D01*
X186085000Y-54897500D02*
X186792300Y-54190200D01*
X186792300Y-54190200D02*
X189220600Y-54190200D01*
X189220600Y-54190200D02*
X189835000Y-54804600D01*
X189835000Y-54804600D02*
X189835000Y-55150000D01*
X191770000Y-52962500D02*
X194075000Y-52962500D01*
X194075000Y-52962500D02*
X196000000Y-51037500D01*
X186085000Y-54897500D02*
X184150000Y-52962500D01*
X186085000Y-55150000D02*
X186085000Y-54897500D01*
X227187600Y-61019700D02*
X215277400Y-61019700D01*
X215277400Y-61019700D02*
X207295200Y-53037500D01*
X207295200Y-53037500D02*
X204470000Y-53037500D01*
X227033200Y-53781500D02*
X227187600Y-53935900D01*
X227187600Y-53935900D02*
X227187600Y-61019700D01*
X227033200Y-53781500D02*
X228744700Y-52070000D01*
X226060000Y-53195300D02*
X226646200Y-53781500D01*
X226646200Y-53781500D02*
X227033200Y-53781500D01*
X229870000Y-52070000D02*
X228744700Y-52070000D01*
X226060000Y-52070000D02*
X226060000Y-53195300D01*
X199410000Y-55290000D02*
X198211100Y-55290000D01*
X198211100Y-55290000D02*
X197678600Y-54757500D01*
X197412200Y-52449600D02*
X197552600Y-52590000D01*
X197552600Y-52590000D02*
X198710000Y-52590000D01*
X196000000Y-51037500D02*
X197412100Y-52449600D01*
X197412100Y-52449600D02*
X197412200Y-52449600D01*
%TO.N,Net-(C6-Pad2)*%
X187335000Y-55150000D02*
X187335000Y-56737500D01*
X187335000Y-56737500D02*
X186922500Y-57150000D01*
%TO.N,Net-(D1-Pad1)*%
X196000000Y-79000000D02*
X190765000Y-79000000D01*
X190765000Y-79000000D02*
X189905000Y-78140000D01*
%TO.N,LED_BLUE*%
X189905000Y-80190000D02*
X207380000Y-80190000D01*
%TO.N,LED_RED*%
X207380000Y-105590000D02*
X208553500Y-104416500D01*
X208553500Y-104416500D02*
X208553500Y-102631100D01*
X208553500Y-102631100D02*
X207800400Y-101878000D01*
X207800400Y-101878000D02*
X204809400Y-101878000D01*
X204809400Y-101878000D02*
X190413500Y-87482100D01*
X190413500Y-87482100D02*
X190174500Y-87482100D01*
X190174500Y-87482100D02*
X189250000Y-86557600D01*
X189250000Y-86557600D02*
X189250000Y-83345000D01*
X189250000Y-83345000D02*
X186095000Y-80190000D01*
%TO.N,Net-(D2-Pad1)*%
X186095000Y-78140000D02*
X188235000Y-76000000D01*
X188235000Y-76000000D02*
X196000000Y-76000000D01*
%TO.N,Net-(D3-Pad1)*%
X196000000Y-73000000D02*
X187425000Y-73000000D01*
X187425000Y-73000000D02*
X182285000Y-78140000D01*
%TO.N,LED_GREEN*%
X207380000Y-103050000D02*
X205337200Y-103050000D01*
X205337200Y-103050000D02*
X191743900Y-89456700D01*
X191743900Y-89456700D02*
X189648000Y-89456700D01*
X189648000Y-89456700D02*
X186750000Y-86558700D01*
X186750000Y-86558700D02*
X186750000Y-84655000D01*
X186750000Y-84655000D02*
X182285000Y-80190000D01*
%TO.N,RC_CH4_PWM*%
X191675300Y-86000000D02*
X191675300Y-86535600D01*
X191675300Y-86535600D02*
X192896400Y-87756700D01*
X192896400Y-87756700D02*
X198028300Y-87756700D01*
X198028300Y-87756700D02*
X199245000Y-86540000D01*
X199245000Y-86540000D02*
X212830100Y-86540000D01*
X212830100Y-86540000D02*
X219180100Y-80190000D01*
X219180100Y-80190000D02*
X222620000Y-80190000D01*
X190500000Y-86000000D02*
X191675300Y-86000000D01*
%TO.N,RC_CH5_PWM*%
X194175300Y-86000000D02*
X194175300Y-86514200D01*
X194175300Y-86514200D02*
X194967400Y-87306300D01*
X194967400Y-87306300D02*
X196855700Y-87306300D01*
X196855700Y-87306300D02*
X200306600Y-83855400D01*
X200306600Y-83855400D02*
X213874600Y-83855400D01*
X213874600Y-83855400D02*
X222620000Y-75110000D01*
X193000000Y-86000000D02*
X194175300Y-86000000D01*
%TO.N,RC_CH6_PWM*%
X195500000Y-86000000D02*
X196675300Y-86000000D01*
X222620000Y-72570000D02*
X213730000Y-81460000D01*
X213730000Y-81460000D02*
X201215300Y-81460000D01*
X201215300Y-81460000D02*
X196675300Y-86000000D01*
%TO.N,+5V*%
X185000000Y-71000000D02*
X185828800Y-71828800D01*
X185828800Y-71828800D02*
X187981200Y-71828800D01*
X187981200Y-71828800D02*
X188810000Y-71000000D01*
X195647000Y-95000000D02*
X195500000Y-95000000D01*
X195647000Y-95000000D02*
X196087700Y-95000000D01*
X196087700Y-95000000D02*
X197855000Y-96767300D01*
X197855000Y-96767300D02*
X197855000Y-111855000D01*
X197855000Y-111855000D02*
X199180300Y-111855000D01*
X207380000Y-113210000D02*
X200535300Y-113210000D01*
X200535300Y-113210000D02*
X199180300Y-111855000D01*
X185000000Y-63000000D02*
X185000000Y-63825300D01*
X185000000Y-67000000D02*
X185000000Y-63825300D01*
X188810000Y-67000000D02*
X188810000Y-63000000D01*
%TO.N,UART7_RX*%
X222620000Y-64950000D02*
X221350000Y-66220000D01*
X221350000Y-66220000D02*
X201719200Y-66220000D01*
X201719200Y-66220000D02*
X198239700Y-69699500D01*
X198239700Y-69699500D02*
X182891400Y-69699500D01*
X182891400Y-69699500D02*
X180808300Y-71782600D01*
X180808300Y-71782600D02*
X180808300Y-92808300D01*
X180808300Y-92808300D02*
X183000000Y-95000000D01*
%TO.N,I2C0_SDA*%
X229870000Y-59690000D02*
X230228000Y-60048000D01*
X230228000Y-60048000D02*
X230228000Y-77988100D01*
X230228000Y-77988100D02*
X229434200Y-78781900D01*
X229434200Y-78781900D02*
X227163100Y-78781900D01*
X227163100Y-78781900D02*
X224485000Y-81460000D01*
X224485000Y-81460000D02*
X218810000Y-81460000D01*
X218810000Y-81460000D02*
X207380000Y-92890000D01*
X187335000Y-52850000D02*
X188260900Y-51924100D01*
X188260900Y-51924100D02*
X190563700Y-51924100D01*
X202610000Y-52090000D02*
X202610000Y-51217000D01*
X202610000Y-51217000D02*
X202757000Y-51070000D01*
%TO.N,I2C0_SCL*%
X205521400Y-51543000D02*
X205188000Y-51876400D01*
X205188000Y-51876400D02*
X203982200Y-51876400D01*
X203982200Y-51876400D02*
X203268600Y-52590000D01*
X203268600Y-52590000D02*
X202610000Y-52590000D01*
X186085000Y-52167700D02*
X190249000Y-48003700D01*
X190249000Y-48003700D02*
X203142400Y-48003700D01*
X203142400Y-48003700D02*
X205521400Y-50382700D01*
X205521400Y-50382700D02*
X205521400Y-51543000D01*
X226060000Y-59690000D02*
X224970000Y-58600000D01*
X224970000Y-58600000D02*
X221494600Y-58600000D01*
X221494600Y-58600000D02*
X214437600Y-51543000D01*
X214437600Y-51543000D02*
X205521400Y-51543000D01*
X186085000Y-52167700D02*
X185442900Y-51525600D01*
X185442900Y-51525600D02*
X183285400Y-51525600D01*
X183285400Y-51525600D02*
X180358000Y-54453000D01*
X180358000Y-54453000D02*
X180358000Y-98858000D01*
X180358000Y-98858000D02*
X184324700Y-102824700D01*
X184324700Y-102824700D02*
X184324700Y-104000000D01*
X186085000Y-52850000D02*
X186085000Y-52167700D01*
X185500000Y-104000000D02*
X184324700Y-104000000D01*
%TO.N,I2C1_SCL*%
X207380000Y-87810000D02*
X200826600Y-94363400D01*
X200826600Y-94363400D02*
X200826600Y-96858300D01*
%TO.N,P26_A12_MOSI1*%
X228000000Y-77000000D02*
X228000000Y-75674700D01*
X222620000Y-70030000D02*
X222620000Y-70791700D01*
X222620000Y-70791700D02*
X227503000Y-75674700D01*
X227503000Y-75674700D02*
X228000000Y-75674700D01*
%TO.N,P27_A13_SCK1*%
X228000000Y-73000000D02*
X228000000Y-71674700D01*
X222620000Y-67490000D02*
X226804700Y-71674700D01*
X226804700Y-71674700D02*
X228000000Y-71674700D01*
%TO.N,P38_CS1*%
X228000000Y-69000000D02*
X228000000Y-70325300D01*
X207380000Y-67490000D02*
X206241300Y-68628700D01*
X206241300Y-68628700D02*
X206241300Y-70483800D01*
X206241300Y-70483800D02*
X206955500Y-71198000D01*
X206955500Y-71198000D02*
X219008800Y-71198000D01*
X219008800Y-71198000D02*
X221350500Y-68856300D01*
X221350500Y-68856300D02*
X223037900Y-68856300D01*
X223037900Y-68856300D02*
X225537000Y-71355400D01*
X225537000Y-71355400D02*
X225537000Y-73052500D01*
X225537000Y-73052500D02*
X226827200Y-74342700D01*
X226827200Y-74342700D02*
X229117400Y-74342700D01*
X229117400Y-74342700D02*
X229325300Y-74134800D01*
X229325300Y-74134800D02*
X229325300Y-71650600D01*
X229325300Y-71650600D02*
X228000000Y-70325300D01*
%TO.N,P39_MISO1*%
X228000000Y-65000000D02*
X226674700Y-65000000D01*
X207380000Y-70030000D02*
X219138300Y-70030000D01*
X219138300Y-70030000D02*
X221350000Y-67818300D01*
X221350000Y-67818300D02*
X221350000Y-67085300D01*
X221350000Y-67085300D02*
X222215300Y-66220000D01*
X222215300Y-66220000D02*
X225454700Y-66220000D01*
X225454700Y-66220000D02*
X226674700Y-65000000D01*
%TO.N,P8_TX2_IN1*%
X228000000Y-97000000D02*
X228000000Y-95674700D01*
X222620000Y-90350000D02*
X227944700Y-95674700D01*
X227944700Y-95674700D02*
X228000000Y-95674700D01*
%TO.N,P1_TX1_CTX2_MISO1*%
X228000000Y-101000000D02*
X228000000Y-102325300D01*
X222620000Y-108130000D02*
X222620000Y-107705300D01*
X222620000Y-107705300D02*
X228000000Y-102325300D01*
%TO.N,P0_RX1_CRX2_CS1*%
X228000000Y-105000000D02*
X228000000Y-106325300D01*
X222620000Y-110670000D02*
X226964700Y-106325300D01*
X226964700Y-106325300D02*
X228000000Y-106325300D01*
%TO.N,P14_A0_TX3*%
X228000000Y-91674700D02*
X227343500Y-91674700D01*
X227343500Y-91674700D02*
X224217100Y-88548300D01*
X228000000Y-93000000D02*
X228000000Y-91674700D01*
%TO.N,P15_A1_RX3*%
X226674700Y-89000000D02*
X224646300Y-86971600D01*
X224646300Y-86971600D02*
X223766900Y-86971600D01*
X228000000Y-89000000D02*
X226674700Y-89000000D01*
%TO.N,P20_A6_TX5*%
X207380000Y-97970000D02*
X218824200Y-86525800D01*
X218824200Y-86525800D02*
X218824200Y-86525700D01*
X218824200Y-86525700D02*
X223187100Y-86525700D01*
X223187100Y-86525700D02*
X224712800Y-85000000D01*
X224712800Y-85000000D02*
X226674700Y-85000000D01*
X228000000Y-85000000D02*
X226674700Y-85000000D01*
%TO.N,P21_A7_RX5*%
X228000000Y-81000000D02*
X226674700Y-81000000D01*
X207380000Y-100510000D02*
X206235700Y-99365700D01*
X206235700Y-99365700D02*
X206235700Y-97516000D01*
X206235700Y-97516000D02*
X207051700Y-96700000D01*
X207051700Y-96700000D02*
X207719600Y-96700000D01*
X207719600Y-96700000D02*
X220419600Y-84000000D01*
X220419600Y-84000000D02*
X223674700Y-84000000D01*
X223674700Y-84000000D02*
X226674700Y-81000000D01*
%TO.N,USBH_GND*%
X219569200Y-96750800D02*
X219569200Y-99290800D01*
%TO.N,Net-(C3-Pad1)*%
X196000000Y-52962500D02*
X196603200Y-53565700D01*
X196603200Y-53565700D02*
X198685700Y-53565700D01*
X198685700Y-53565700D02*
X198710000Y-53590000D01*
%TO.N,Net-(C7-Pad2)*%
X204470000Y-56112500D02*
X204470000Y-55432000D01*
X204470000Y-55432000D02*
X203128000Y-54090000D01*
X203128000Y-54090000D02*
X202610000Y-54090000D01*
%TD*%
M02*
