%TF.GenerationSoftware,KiCad,Pcbnew,(5.1.9)-1*%
%TF.CreationDate,2021-05-19T19:29:26-04:00*%
%TF.ProjectId,ava_r2_bottom,6176615f-7232-45f6-926f-74746f6d2e6b,rev?*%
%TF.SameCoordinates,Original*%
%TF.FileFunction,Soldermask,Bot*%
%TF.FilePolarity,Negative*%
%FSLAX46Y46*%
G04 Gerber Fmt 4.6, Leading zero omitted, Abs format (unit mm)*
G04 Created by KiCad (PCBNEW (5.1.9)-1) date 2021-05-19 19:29:26*
%MOMM*%
%LPD*%
G01*
G04 APERTURE LIST*
%ADD10C,3.500000*%
%ADD11O,1.600000X1.600000*%
%ADD12C,1.600000*%
%ADD13R,2.000000X2.000000*%
%ADD14C,2.000000*%
%ADD15O,1.700000X1.950000*%
%ADD16R,1.000000X1.000000*%
%ADD17O,1.000000X1.000000*%
%ADD18C,1.300000*%
%ADD19R,1.300000X1.300000*%
%ADD20R,1.600000X1.600000*%
G04 APERTURE END LIST*
D10*
%TO.C,hole2*%
X228000000Y-112000000D03*
%TD*%
%TO.C,hole1*%
X184000000Y-112000000D03*
%TD*%
%TO.C,hole4*%
X228000000Y-48000000D03*
%TD*%
%TO.C,hole3*%
X184000000Y-48000000D03*
%TD*%
D11*
%TO.C,R5*%
X229870000Y-52070000D03*
D12*
X229870000Y-59690000D03*
%TD*%
D11*
%TO.C,R4*%
X226060000Y-52070000D03*
D12*
X226060000Y-59690000D03*
%TD*%
D13*
%TO.C,BZ1*%
X196000000Y-65000000D03*
D14*
X201000000Y-65000000D03*
%TD*%
%TO.C,RADIO1*%
G36*
G01*
X182150000Y-86725000D02*
X182150000Y-85275000D01*
G75*
G02*
X182400000Y-85025000I250000J0D01*
G01*
X183600000Y-85025000D01*
G75*
G02*
X183850000Y-85275000I0J-250000D01*
G01*
X183850000Y-86725000D01*
G75*
G02*
X183600000Y-86975000I-250000J0D01*
G01*
X182400000Y-86975000D01*
G75*
G02*
X182150000Y-86725000I0J250000D01*
G01*
G37*
D15*
X185500000Y-86000000D03*
X188000000Y-86000000D03*
X190500000Y-86000000D03*
X193000000Y-86000000D03*
X195500000Y-86000000D03*
%TD*%
%TO.C,UART1*%
X195500000Y-95000000D03*
X193000000Y-95000000D03*
X190500000Y-95000000D03*
X188000000Y-95000000D03*
X185500000Y-95000000D03*
G36*
G01*
X182150000Y-95725000D02*
X182150000Y-94275000D01*
G75*
G02*
X182400000Y-94025000I250000J0D01*
G01*
X183600000Y-94025000D01*
G75*
G02*
X183850000Y-94275000I0J-250000D01*
G01*
X183850000Y-95725000D01*
G75*
G02*
X183600000Y-95975000I-250000J0D01*
G01*
X182400000Y-95975000D01*
G75*
G02*
X182150000Y-95725000I0J250000D01*
G01*
G37*
%TD*%
%TO.C,I2C1*%
G36*
G01*
X182150000Y-104725000D02*
X182150000Y-103275000D01*
G75*
G02*
X182400000Y-103025000I250000J0D01*
G01*
X183600000Y-103025000D01*
G75*
G02*
X183850000Y-103275000I0J-250000D01*
G01*
X183850000Y-104725000D01*
G75*
G02*
X183600000Y-104975000I-250000J0D01*
G01*
X182400000Y-104975000D01*
G75*
G02*
X182150000Y-104725000I0J250000D01*
G01*
G37*
X185500000Y-104000000D03*
X188000000Y-104000000D03*
X190500000Y-104000000D03*
X193000000Y-104000000D03*
X195500000Y-104000000D03*
%TD*%
D16*
%TO.C,J6*%
X183730000Y-63000000D03*
D17*
X185000000Y-63000000D03*
X186270000Y-63000000D03*
X187540000Y-63000000D03*
X188810000Y-63000000D03*
X190080000Y-63000000D03*
%TD*%
%TO.C,J7*%
X190080000Y-67000000D03*
X188810000Y-67000000D03*
X187540000Y-67000000D03*
X186270000Y-67000000D03*
X185000000Y-67000000D03*
D16*
X183730000Y-67000000D03*
%TD*%
%TO.C,J8*%
X183730000Y-71000000D03*
D17*
X185000000Y-71000000D03*
X186270000Y-71000000D03*
X187540000Y-71000000D03*
X188810000Y-71000000D03*
X190080000Y-71000000D03*
%TD*%
D11*
%TO.C,R1*%
X203620000Y-79000000D03*
D12*
X196000000Y-79000000D03*
%TD*%
%TO.C,R2*%
X196000000Y-76000000D03*
D11*
X203620000Y-76000000D03*
%TD*%
D12*
%TO.C,R3*%
X196000000Y-73000000D03*
D11*
X203620000Y-73000000D03*
%TD*%
D18*
%TO.C,U2*%
X213730000Y-112480000D03*
X216270000Y-112480000D03*
D12*
X209920000Y-67490000D03*
X212460000Y-67490000D03*
X215000000Y-67490000D03*
X217540000Y-67490000D03*
X220080000Y-67490000D03*
D18*
X213818400Y-100240000D03*
X213818400Y-98240000D03*
X211818400Y-98240000D03*
X211818400Y-100240000D03*
X209818400Y-98240000D03*
D19*
X209818400Y-100240000D03*
D12*
X222620000Y-72570000D03*
X222620000Y-70030000D03*
X222620000Y-67490000D03*
X222620000Y-64950000D03*
X222620000Y-75110000D03*
X222620000Y-77650000D03*
X222620000Y-80190000D03*
X222620000Y-62410000D03*
X222620000Y-59870000D03*
X222620000Y-57330000D03*
X222620000Y-54790000D03*
X207380000Y-54790000D03*
X207380000Y-57330000D03*
X207380000Y-59870000D03*
X207380000Y-62410000D03*
X207380000Y-64950000D03*
X207380000Y-67490000D03*
X207380000Y-70030000D03*
X207380000Y-72570000D03*
X207380000Y-75110000D03*
X207380000Y-77650000D03*
X222620000Y-82730000D03*
X222620000Y-85270000D03*
X222620000Y-87810000D03*
X222620000Y-90350000D03*
X222620000Y-92890000D03*
X222620000Y-95430000D03*
X222620000Y-97970000D03*
X222620000Y-100510000D03*
X222620000Y-103050000D03*
X222620000Y-105590000D03*
X222620000Y-108130000D03*
X222620000Y-110670000D03*
D20*
X222620000Y-113210000D03*
D12*
X207380000Y-80190000D03*
X207380000Y-82730000D03*
X207380000Y-85270000D03*
X207380000Y-87810000D03*
X207380000Y-90350000D03*
X207380000Y-92890000D03*
X207380000Y-95430000D03*
X207380000Y-97970000D03*
X207380000Y-100510000D03*
X207380000Y-103050000D03*
X207380000Y-105590000D03*
X207380000Y-108130000D03*
X207380000Y-110670000D03*
X207380000Y-113210000D03*
D20*
X219569200Y-106910800D03*
D12*
X219569200Y-104370800D03*
X219569200Y-101830800D03*
X219569200Y-99290800D03*
X219569200Y-96750800D03*
X209920000Y-110670000D03*
%TD*%
M02*
