%TF.GenerationSoftware,KiCad,Pcbnew,(5.1.9)-1*%
%TF.CreationDate,2021-05-19T19:29:26-04:00*%
%TF.ProjectId,ava_r2_bottom,6176615f-7232-45f6-926f-74746f6d2e6b,rev?*%
%TF.SameCoordinates,Original*%
%TF.FileFunction,Copper,L2,Bot*%
%TF.FilePolarity,Positive*%
%FSLAX46Y46*%
G04 Gerber Fmt 4.6, Leading zero omitted, Abs format (unit mm)*
G04 Created by KiCad (PCBNEW (5.1.9)-1) date 2021-05-19 19:29:26*
%MOMM*%
%LPD*%
G01*
G04 APERTURE LIST*
%TA.AperFunction,ComponentPad*%
%ADD10O,1.600000X1.600000*%
%TD*%
%TA.AperFunction,ComponentPad*%
%ADD11C,1.600000*%
%TD*%
%TA.AperFunction,ComponentPad*%
%ADD12R,2.000000X2.000000*%
%TD*%
%TA.AperFunction,ComponentPad*%
%ADD13C,2.000000*%
%TD*%
%TA.AperFunction,ComponentPad*%
%ADD14O,1.700000X1.950000*%
%TD*%
%TA.AperFunction,ComponentPad*%
%ADD15R,1.000000X1.000000*%
%TD*%
%TA.AperFunction,ComponentPad*%
%ADD16O,1.000000X1.000000*%
%TD*%
%TA.AperFunction,ComponentPad*%
%ADD17C,1.300000*%
%TD*%
%TA.AperFunction,ComponentPad*%
%ADD18R,1.300000X1.300000*%
%TD*%
%TA.AperFunction,ComponentPad*%
%ADD19R,1.600000X1.600000*%
%TD*%
%TA.AperFunction,ViaPad*%
%ADD20C,0.800000*%
%TD*%
%TA.AperFunction,Conductor*%
%ADD21C,0.250000*%
%TD*%
G04 APERTURE END LIST*
D10*
%TO.P,R5,2*%
%TO.N,+3V3*%
X229870000Y-52070000D03*
D11*
%TO.P,R5,1*%
%TO.N,I2C0_SDA*%
X229870000Y-59690000D03*
%TD*%
D10*
%TO.P,R4,2*%
%TO.N,+3V3*%
X226060000Y-52070000D03*
D11*
%TO.P,R4,1*%
%TO.N,I2C0_SCL*%
X226060000Y-59690000D03*
%TD*%
D12*
%TO.P,BZ1,1*%
%TO.N,BUZZER*%
X196000000Y-65000000D03*
D13*
%TO.P,BZ1,2*%
%TO.N,GND*%
X201000000Y-65000000D03*
%TD*%
%TO.P,RADIO1,1*%
%TO.N,RC_CH1_PWM*%
%TA.AperFunction,ComponentPad*%
G36*
G01*
X182150000Y-86725000D02*
X182150000Y-85275000D01*
G75*
G02*
X182400000Y-85025000I250000J0D01*
G01*
X183600000Y-85025000D01*
G75*
G02*
X183850000Y-85275000I0J-250000D01*
G01*
X183850000Y-86725000D01*
G75*
G02*
X183600000Y-86975000I-250000J0D01*
G01*
X182400000Y-86975000D01*
G75*
G02*
X182150000Y-86725000I0J250000D01*
G01*
G37*
%TD.AperFunction*%
D14*
%TO.P,RADIO1,2*%
%TO.N,RC_CH2_PWM*%
X185500000Y-86000000D03*
%TO.P,RADIO1,3*%
%TO.N,RC_CH3_PWM*%
X188000000Y-86000000D03*
%TO.P,RADIO1,4*%
%TO.N,RC_CH4_PWM*%
X190500000Y-86000000D03*
%TO.P,RADIO1,5*%
%TO.N,RC_CH5_PWM*%
X193000000Y-86000000D03*
%TO.P,RADIO1,6*%
%TO.N,RC_CH6_PWM*%
X195500000Y-86000000D03*
%TD*%
%TO.P,UART1,6*%
%TO.N,+5V*%
X195500000Y-95000000D03*
%TO.P,UART1,5*%
%TO.N,GND*%
X193000000Y-95000000D03*
%TO.P,UART1,4*%
%TO.N,UART8_TX*%
X190500000Y-95000000D03*
%TO.P,UART1,3*%
%TO.N,UART8_RX*%
X188000000Y-95000000D03*
%TO.P,UART1,2*%
%TO.N,UART7_TX*%
X185500000Y-95000000D03*
%TO.P,UART1,1*%
%TO.N,UART7_RX*%
%TA.AperFunction,ComponentPad*%
G36*
G01*
X182150000Y-95725000D02*
X182150000Y-94275000D01*
G75*
G02*
X182400000Y-94025000I250000J0D01*
G01*
X183600000Y-94025000D01*
G75*
G02*
X183850000Y-94275000I0J-250000D01*
G01*
X183850000Y-95725000D01*
G75*
G02*
X183600000Y-95975000I-250000J0D01*
G01*
X182400000Y-95975000D01*
G75*
G02*
X182150000Y-95725000I0J250000D01*
G01*
G37*
%TD.AperFunction*%
%TD*%
%TO.P,I2C1,1*%
%TO.N,I2C0_SDA*%
%TA.AperFunction,ComponentPad*%
G36*
G01*
X182150000Y-104725000D02*
X182150000Y-103275000D01*
G75*
G02*
X182400000Y-103025000I250000J0D01*
G01*
X183600000Y-103025000D01*
G75*
G02*
X183850000Y-103275000I0J-250000D01*
G01*
X183850000Y-104725000D01*
G75*
G02*
X183600000Y-104975000I-250000J0D01*
G01*
X182400000Y-104975000D01*
G75*
G02*
X182150000Y-104725000I0J250000D01*
G01*
G37*
%TD.AperFunction*%
%TO.P,I2C1,2*%
%TO.N,I2C0_SCL*%
X185500000Y-104000000D03*
%TO.P,I2C1,3*%
%TO.N,I2C1_SDA*%
X188000000Y-104000000D03*
%TO.P,I2C1,4*%
%TO.N,I2C1_SCL*%
X190500000Y-104000000D03*
%TO.P,I2C1,5*%
%TO.N,GND*%
X193000000Y-104000000D03*
%TO.P,I2C1,6*%
%TO.N,+3V3*%
X195500000Y-104000000D03*
%TD*%
D15*
%TO.P,J6,1*%
%TO.N,SERVO1_PWM*%
X183730000Y-63000000D03*
D16*
%TO.P,J6,2*%
%TO.N,+5V*%
X185000000Y-63000000D03*
%TO.P,J6,3*%
%TO.N,GND*%
X186270000Y-63000000D03*
%TO.P,J6,4*%
%TO.N,SERVO2_PWM*%
X187540000Y-63000000D03*
%TO.P,J6,5*%
%TO.N,+5V*%
X188810000Y-63000000D03*
%TO.P,J6,6*%
%TO.N,GND*%
X190080000Y-63000000D03*
%TD*%
%TO.P,J7,6*%
%TO.N,GND*%
X190080000Y-67000000D03*
%TO.P,J7,5*%
%TO.N,+5V*%
X188810000Y-67000000D03*
%TO.P,J7,4*%
%TO.N,SERVO4_PWM*%
X187540000Y-67000000D03*
%TO.P,J7,3*%
%TO.N,GND*%
X186270000Y-67000000D03*
%TO.P,J7,2*%
%TO.N,+5V*%
X185000000Y-67000000D03*
D15*
%TO.P,J7,1*%
%TO.N,SERVO3_PWM*%
X183730000Y-67000000D03*
%TD*%
%TO.P,J8,1*%
%TO.N,SERVO5_PWM*%
X183730000Y-71000000D03*
D16*
%TO.P,J8,2*%
%TO.N,+5V*%
X185000000Y-71000000D03*
%TO.P,J8,3*%
%TO.N,GND*%
X186270000Y-71000000D03*
%TO.P,J8,4*%
%TO.N,SERVO6_PWM*%
X187540000Y-71000000D03*
%TO.P,J8,5*%
%TO.N,+5V*%
X188810000Y-71000000D03*
%TO.P,J8,6*%
%TO.N,GND*%
X190080000Y-71000000D03*
%TD*%
D10*
%TO.P,R1,2*%
%TO.N,GND*%
X203620000Y-79000000D03*
D11*
%TO.P,R1,1*%
%TO.N,Net-(D1-Pad1)*%
X196000000Y-79000000D03*
%TD*%
%TO.P,R2,1*%
%TO.N,Net-(D2-Pad1)*%
X196000000Y-76000000D03*
D10*
%TO.P,R2,2*%
%TO.N,GND*%
X203620000Y-76000000D03*
%TD*%
D11*
%TO.P,R3,1*%
%TO.N,Net-(D3-Pad1)*%
X196000000Y-73000000D03*
D10*
%TO.P,R3,2*%
%TO.N,GND*%
X203620000Y-73000000D03*
%TD*%
D17*
%TO.P,U2,66*%
%TO.N,USB_D-*%
X213730000Y-112480000D03*
%TO.P,U2,67*%
%TO.N,USB_D+*%
X216270000Y-112480000D03*
D11*
%TO.P,U2,54*%
%TO.N,ON_OFF*%
X209920000Y-67490000D03*
%TO.P,U2,53*%
%TO.N,PROGRAM*%
X212460000Y-67490000D03*
%TO.P,U2,52*%
%TO.N,Net-(U2-Pad52)*%
X215000000Y-67490000D03*
%TO.P,U2,51*%
%TO.N,Net-(U2-Pad51)*%
X217540000Y-67490000D03*
%TO.P,U2,50*%
%TO.N,VBAT*%
X220080000Y-67490000D03*
D17*
%TO.P,U2,62*%
%TO.N,ETH_T-*%
X213818400Y-100240000D03*
%TO.P,U2,63*%
%TO.N,ETH_T+*%
X213818400Y-98240000D03*
%TO.P,U2,64*%
%TO.N,ETH_GND*%
X211818400Y-98240000D03*
%TO.P,U2,61*%
%TO.N,ETH_LED*%
X211818400Y-100240000D03*
%TO.P,U2,65*%
%TO.N,ETH_R-*%
X209818400Y-98240000D03*
D18*
%TO.P,U2,60*%
%TO.N,ETH_R+*%
X209818400Y-100240000D03*
D11*
%TO.P,U2,17*%
%TO.N,RC_CH6_PWM*%
X222620000Y-72570000D03*
%TO.P,U2,18*%
%TO.N,P26_A12_MOSI1*%
X222620000Y-70030000D03*
%TO.P,U2,19*%
%TO.N,P27_A13_SCK1*%
X222620000Y-67490000D03*
%TO.P,U2,20*%
%TO.N,UART7_RX*%
X222620000Y-64950000D03*
%TO.P,U2,16*%
%TO.N,RC_CH5_PWM*%
X222620000Y-75110000D03*
%TO.P,U2,15*%
%TO.N,+3V3*%
X222620000Y-77650000D03*
%TO.P,U2,14*%
%TO.N,RC_CH4_PWM*%
X222620000Y-80190000D03*
%TO.P,U2,21*%
%TO.N,UART7_TX*%
X222620000Y-62410000D03*
%TO.P,U2,22*%
%TO.N,P30_CRX3*%
X222620000Y-59870000D03*
%TO.P,U2,23*%
%TO.N,P31_CTX3*%
X222620000Y-57330000D03*
%TO.P,U2,24*%
%TO.N,P32_OUT1B*%
X222620000Y-54790000D03*
%TO.P,U2,25*%
%TO.N,P33_MCLK2*%
X207380000Y-54790000D03*
%TO.P,U2,26*%
%TO.N,UART8_RX*%
X207380000Y-57330000D03*
%TO.P,U2,27*%
%TO.N,UART8_TX*%
X207380000Y-59870000D03*
%TO.P,U2,28*%
%TO.N,BUZZER*%
X207380000Y-62410000D03*
%TO.P,U2,29*%
%TO.N,P37_CS*%
X207380000Y-64950000D03*
%TO.P,U2,30*%
%TO.N,P38_CS1*%
X207380000Y-67490000D03*
%TO.P,U2,31*%
%TO.N,P39_MISO1*%
X207380000Y-70030000D03*
%TO.P,U2,32*%
%TO.N,P41_A16*%
X207380000Y-72570000D03*
%TO.P,U2,33*%
%TO.N,P41_A17*%
X207380000Y-75110000D03*
%TO.P,U2,34*%
%TO.N,GND*%
X207380000Y-77650000D03*
%TO.P,U2,13*%
%TO.N,RC_CH3_PWM*%
X222620000Y-82730000D03*
%TO.P,U2,12*%
%TO.N,RC_CH2_PWM*%
X222620000Y-85270000D03*
%TO.P,U2,11*%
%TO.N,RC_CH1_PWM*%
X222620000Y-87810000D03*
%TO.P,U2,10*%
%TO.N,P8_TX2_IN1*%
X222620000Y-90350000D03*
%TO.P,U2,9*%
%TO.N,SERVO6_PWM*%
X222620000Y-92890000D03*
%TO.P,U2,8*%
%TO.N,SERVO5_PWM*%
X222620000Y-95430000D03*
%TO.P,U2,7*%
%TO.N,SERVO4_PWM*%
X222620000Y-97970000D03*
%TO.P,U2,6*%
%TO.N,SERVO3_PWM*%
X222620000Y-100510000D03*
%TO.P,U2,5*%
%TO.N,SERVO2_PWM*%
X222620000Y-103050000D03*
%TO.P,U2,4*%
%TO.N,SERVO1_PWM*%
X222620000Y-105590000D03*
%TO.P,U2,3*%
%TO.N,P1_TX1_CTX2_MISO1*%
X222620000Y-108130000D03*
%TO.P,U2,2*%
%TO.N,P0_RX1_CRX2_CS1*%
X222620000Y-110670000D03*
D19*
%TO.P,U2,1*%
%TO.N,GND*%
X222620000Y-113210000D03*
D11*
%TO.P,U2,35*%
%TO.N,LED_BLUE*%
X207380000Y-80190000D03*
%TO.P,U2,36*%
%TO.N,P14_A0_TX3*%
X207380000Y-82730000D03*
%TO.P,U2,37*%
%TO.N,P15_A1_RX3*%
X207380000Y-85270000D03*
%TO.P,U2,38*%
%TO.N,I2C1_SCL*%
X207380000Y-87810000D03*
%TO.P,U2,39*%
%TO.N,I2C1_SDA*%
X207380000Y-90350000D03*
%TO.P,U2,40*%
%TO.N,I2C0_SDA*%
X207380000Y-92890000D03*
%TO.P,U2,41*%
%TO.N,I2C0_SCL*%
X207380000Y-95430000D03*
%TO.P,U2,42*%
%TO.N,P20_A6_TX5*%
X207380000Y-97970000D03*
%TO.P,U2,43*%
%TO.N,P21_A7_RX5*%
X207380000Y-100510000D03*
%TO.P,U2,44*%
%TO.N,LED_GREEN*%
X207380000Y-103050000D03*
%TO.P,U2,45*%
%TO.N,LED_RED*%
X207380000Y-105590000D03*
%TO.P,U2,46*%
%TO.N,Net-(U2-Pad46)*%
X207380000Y-108130000D03*
%TO.P,U2,47*%
%TO.N,Net-(U2-Pad47)*%
X207380000Y-110670000D03*
%TO.P,U2,48*%
%TO.N,+5V*%
X207380000Y-113210000D03*
D19*
%TO.P,U2,55*%
%TO.N,USBH_5V*%
X219569200Y-106910800D03*
D11*
%TO.P,U2,56*%
%TO.N,USBH_D-*%
X219569200Y-104370800D03*
%TO.P,U2,57*%
%TO.N,USBH_D+*%
X219569200Y-101830800D03*
%TO.P,U2,58*%
%TO.N,USBH_GND*%
X219569200Y-99290800D03*
%TO.P,U2,59*%
X219569200Y-96750800D03*
%TO.P,U2,49*%
%TO.N,Net-(U2-Pad49)*%
X209920000Y-110670000D03*
%TD*%
D20*
%TO.N,+3V3*%
X197678600Y-54757500D03*
X197412200Y-52449600D03*
%TO.N,I2C0_SDA*%
X190563700Y-51924100D03*
X202757000Y-51070000D03*
%TO.N,I2C1_SCL*%
X200826600Y-96858300D03*
%TO.N,P14_A0_TX3*%
X224217100Y-88548300D03*
%TO.N,P15_A1_RX3*%
X223766900Y-86971600D03*
%TD*%
D21*
%TO.N,BUZZER*%
X196000000Y-65000000D02*
X197325300Y-65000000D01*
X207380000Y-62410000D02*
X199915300Y-62410000D01*
X199915300Y-62410000D02*
X197325300Y-65000000D01*
%TO.N,GND*%
X190080000Y-71000000D02*
X189205000Y-70125000D01*
X189205000Y-70125000D02*
X187145000Y-70125000D01*
X187145000Y-70125000D02*
X186732400Y-69712300D01*
X205120000Y-78625300D02*
X204745300Y-79000000D01*
X207380000Y-77650000D02*
X206095300Y-77650000D01*
X206095300Y-77650000D02*
X205120000Y-78625300D01*
X203620000Y-77125300D02*
X205120000Y-78625300D01*
X203620000Y-76000000D02*
X203620000Y-77125300D01*
X186732400Y-69712300D02*
X186270000Y-69250000D01*
X186270000Y-69250000D02*
X186270000Y-67000000D01*
X186732400Y-69712300D02*
X186270000Y-70174700D01*
X186270000Y-71000000D02*
X186270000Y-70174700D01*
X203620000Y-79000000D02*
X204745300Y-79000000D01*
%TO.N,+3V3*%
X196675300Y-104000000D02*
X201435300Y-99240000D01*
X201435300Y-99240000D02*
X215693000Y-99240000D01*
X215693000Y-99240000D02*
X216912200Y-98020800D01*
X216912200Y-98020800D02*
X220839100Y-98020800D01*
X220839100Y-98020800D02*
X222159900Y-96700000D01*
X222159900Y-96700000D02*
X222943100Y-96700000D01*
X222943100Y-96700000D02*
X225853700Y-93789400D01*
X225853700Y-93789400D02*
X225853700Y-80883700D01*
X225853700Y-80883700D02*
X222620000Y-77650000D01*
X195500000Y-104000000D02*
X196675300Y-104000000D01*
X224934700Y-52070000D02*
X223177600Y-50312900D01*
X223177600Y-50312900D02*
X199548900Y-50312900D01*
X199548900Y-50312900D02*
X197412200Y-52449600D01*
X197678600Y-54757500D02*
X197412200Y-54491100D01*
X197412200Y-54491100D02*
X197412200Y-52449600D01*
X226060000Y-52070000D02*
X224934700Y-52070000D01*
%TO.N,RC_CH1_PWM*%
X222620000Y-87810000D02*
X221489300Y-88940700D01*
X221489300Y-88940700D02*
X185940700Y-88940700D01*
X185940700Y-88940700D02*
X183000000Y-86000000D01*
%TO.N,RC_CH2_PWM*%
X186675300Y-86000000D02*
X186675300Y-86514200D01*
X186675300Y-86514200D02*
X187476900Y-87315800D01*
X187476900Y-87315800D02*
X201216700Y-87315800D01*
X201216700Y-87315800D02*
X204389400Y-84143100D01*
X204389400Y-84143100D02*
X220779200Y-84143100D01*
X220779200Y-84143100D02*
X221906100Y-85270000D01*
X221906100Y-85270000D02*
X222620000Y-85270000D01*
X185500000Y-86000000D02*
X186675300Y-86000000D01*
%TO.N,RC_CH3_PWM*%
X189175300Y-86000000D02*
X189175300Y-85485800D01*
X189175300Y-85485800D02*
X193065400Y-81595700D01*
X193065400Y-81595700D02*
X221485700Y-81595700D01*
X221485700Y-81595700D02*
X222620000Y-82730000D01*
X188000000Y-86000000D02*
X189175300Y-86000000D01*
%TO.N,+5V*%
X194324700Y-95000000D02*
X194324700Y-94485800D01*
X194324700Y-94485800D02*
X192245100Y-92406200D01*
X192245100Y-92406200D02*
X187265100Y-92406200D01*
X187265100Y-92406200D02*
X181804500Y-86945600D01*
X181804500Y-86945600D02*
X181804500Y-71437300D01*
X181804500Y-71437300D02*
X183067100Y-70174700D01*
X183067100Y-70174700D02*
X185000000Y-70174700D01*
X185000000Y-67000000D02*
X185000000Y-70174700D01*
X185000000Y-71000000D02*
X185000000Y-70174700D01*
X195500000Y-95000000D02*
X194324700Y-95000000D01*
X185000000Y-63000000D02*
X185833200Y-62166800D01*
X185833200Y-62166800D02*
X187976800Y-62166800D01*
X187976800Y-62166800D02*
X188810000Y-63000000D01*
%TO.N,UART8_TX*%
X190500000Y-95000000D02*
X189324700Y-95000000D01*
X207380000Y-59870000D02*
X185355300Y-59870000D01*
X185355300Y-59870000D02*
X181334900Y-63890400D01*
X181334900Y-63890400D02*
X181334900Y-87112900D01*
X181334900Y-87112900D02*
X187528800Y-93306800D01*
X187528800Y-93306800D02*
X188145700Y-93306800D01*
X188145700Y-93306800D02*
X189324700Y-94485800D01*
X189324700Y-94485800D02*
X189324700Y-95000000D01*
%TO.N,UART8_RX*%
X207380000Y-57330000D02*
X187258400Y-57330000D01*
X187258400Y-57330000D02*
X180884500Y-63703900D01*
X180884500Y-63703900D02*
X180884500Y-87596700D01*
X180884500Y-87596700D02*
X186824700Y-93536900D01*
X186824700Y-93536900D02*
X186824700Y-95000000D01*
X188000000Y-95000000D02*
X186824700Y-95000000D01*
%TO.N,UART7_TX*%
X222620000Y-62410000D02*
X216363000Y-56153000D01*
X216363000Y-56153000D02*
X187795700Y-56153000D01*
X187795700Y-56153000D02*
X180434200Y-63514500D01*
X180434200Y-63514500D02*
X180434200Y-89934200D01*
X180434200Y-89934200D02*
X184324700Y-93824700D01*
X184324700Y-93824700D02*
X184324700Y-95000000D01*
X185500000Y-95000000D02*
X184324700Y-95000000D01*
%TO.N,I2C0_SDA*%
X207380000Y-92890000D02*
X200242500Y-92890000D01*
X200242500Y-92890000D02*
X195994400Y-97138100D01*
X195994400Y-97138100D02*
X189861900Y-97138100D01*
X189861900Y-97138100D02*
X183000000Y-104000000D01*
X202757000Y-51070000D02*
X198332000Y-55495000D01*
X198332000Y-55495000D02*
X194134600Y-55495000D01*
X194134600Y-55495000D02*
X190563700Y-51924100D01*
X229870000Y-59690000D02*
X221250000Y-51070000D01*
X221250000Y-51070000D02*
X202757000Y-51070000D01*
%TO.N,I2C0_SCL*%
X207380000Y-95430000D02*
X198457300Y-95430000D01*
X198457300Y-95430000D02*
X196298900Y-97588400D01*
X196298900Y-97588400D02*
X192572700Y-97588400D01*
X192572700Y-97588400D02*
X186675300Y-103485800D01*
X186675300Y-103485800D02*
X186675300Y-104000000D01*
X185500000Y-104000000D02*
X186675300Y-104000000D01*
%TO.N,I2C1_SDA*%
X188000000Y-104000000D02*
X189175300Y-104000000D01*
X207380000Y-90350000D02*
X208513600Y-91483600D01*
X208513600Y-91483600D02*
X208513600Y-95916900D01*
X208513600Y-95916900D02*
X207852800Y-96577700D01*
X207852800Y-96577700D02*
X206699400Y-96577700D01*
X206699400Y-96577700D02*
X206241800Y-96120100D01*
X206241800Y-96120100D02*
X198590200Y-96120100D01*
X198590200Y-96120100D02*
X194500400Y-100209900D01*
X194500400Y-100209900D02*
X192451200Y-100209900D01*
X192451200Y-100209900D02*
X189175300Y-103485800D01*
X189175300Y-103485800D02*
X189175300Y-104000000D01*
%TO.N,I2C1_SCL*%
X190500000Y-104000000D02*
X191675300Y-104000000D01*
X200826600Y-96858300D02*
X195479500Y-102205400D01*
X195479500Y-102205400D02*
X192955700Y-102205400D01*
X192955700Y-102205400D02*
X191675300Y-103485800D01*
X191675300Y-103485800D02*
X191675300Y-104000000D01*
%TO.N,SERVO1_PWM*%
X222620000Y-105590000D02*
X227654900Y-100555100D01*
X227654900Y-100555100D02*
X227654900Y-73408200D01*
X227654900Y-73408200D02*
X222862100Y-68615400D01*
X222862100Y-68615400D02*
X222140600Y-68615400D01*
X222140600Y-68615400D02*
X221350000Y-67824800D01*
X221350000Y-67824800D02*
X221350000Y-67162000D01*
X221350000Y-67162000D02*
X215437300Y-61249300D01*
X215437300Y-61249300D02*
X185480700Y-61249300D01*
X185480700Y-61249300D02*
X183730000Y-63000000D01*
%TO.N,SERVO2_PWM*%
X222620000Y-103050000D02*
X227204600Y-98465400D01*
X227204600Y-98465400D02*
X227204600Y-75557500D01*
X227204600Y-75557500D02*
X222947100Y-71300000D01*
X222947100Y-71300000D02*
X212132400Y-71300000D01*
X212132400Y-71300000D02*
X208505400Y-67673000D01*
X208505400Y-67673000D02*
X208505400Y-67010600D01*
X208505400Y-67010600D02*
X207820200Y-66325400D01*
X207820200Y-66325400D02*
X193445500Y-66325400D01*
X193445500Y-66325400D02*
X192195600Y-65075500D01*
X192195600Y-65075500D02*
X189615500Y-65075500D01*
X189615500Y-65075500D02*
X187540000Y-63000000D01*
%TO.N,SERVO4_PWM*%
X222620000Y-97970000D02*
X226304000Y-94286000D01*
X226304000Y-94286000D02*
X226304000Y-79711400D01*
X226304000Y-79711400D02*
X222828000Y-76235400D01*
X222828000Y-76235400D02*
X214651500Y-76235400D01*
X214651500Y-76235400D02*
X209716100Y-71300000D01*
X209716100Y-71300000D02*
X191840000Y-71300000D01*
X191840000Y-71300000D02*
X187540000Y-67000000D01*
%TO.N,SERVO3_PWM*%
X222620000Y-100510000D02*
X226754300Y-96375700D01*
X226754300Y-96375700D02*
X226754300Y-77620300D01*
X226754300Y-77620300D02*
X222974000Y-73840000D01*
X222974000Y-73840000D02*
X213529900Y-73840000D01*
X213529900Y-73840000D02*
X208449900Y-68760000D01*
X208449900Y-68760000D02*
X194924800Y-68760000D01*
X194924800Y-68760000D02*
X192330000Y-66165200D01*
X192330000Y-66165200D02*
X184564800Y-66165200D01*
X184564800Y-66165200D02*
X183730000Y-67000000D01*
%TO.N,SERVO5_PWM*%
X222620000Y-95430000D02*
X221469100Y-94279100D01*
X221469100Y-94279100D02*
X221469100Y-92384200D01*
X221469100Y-92384200D02*
X222233300Y-91620000D01*
X222233300Y-91620000D02*
X222998100Y-91620000D01*
X222998100Y-91620000D02*
X224953000Y-89665100D01*
X224953000Y-89665100D02*
X224953000Y-83471200D01*
X224953000Y-83471200D02*
X222852400Y-81370600D01*
X222852400Y-81370600D02*
X222000400Y-81370600D01*
X222000400Y-81370600D02*
X221494600Y-80864800D01*
X221494600Y-80864800D02*
X211723200Y-80864800D01*
X211723200Y-80864800D02*
X209886900Y-79028500D01*
X209886900Y-79028500D02*
X206333300Y-79028500D01*
X206333300Y-79028500D02*
X205236400Y-80125400D01*
X205236400Y-80125400D02*
X192855400Y-80125400D01*
X192855400Y-80125400D02*
X183730000Y-71000000D01*
%TO.N,SERVO6_PWM*%
X222620000Y-92890000D02*
X225403400Y-90106600D01*
X225403400Y-90106600D02*
X225403400Y-81380300D01*
X225403400Y-81380300D02*
X222867800Y-78844700D01*
X222867800Y-78844700D02*
X213342800Y-78844700D01*
X213342800Y-78844700D02*
X210878100Y-76380000D01*
X210878100Y-76380000D02*
X206741800Y-76380000D01*
X206741800Y-76380000D02*
X205233700Y-74871900D01*
X205233700Y-74871900D02*
X191411900Y-74871900D01*
X191411900Y-74871900D02*
X187540000Y-71000000D01*
%TO.N,P14_A0_TX3*%
X207380000Y-82730000D02*
X220080000Y-82730000D01*
X220080000Y-82730000D02*
X221475300Y-84125300D01*
X221475300Y-84125300D02*
X223106900Y-84125300D01*
X223106900Y-84125300D02*
X224492200Y-85510600D01*
X224492200Y-85510600D02*
X224492200Y-88273200D01*
X224492200Y-88273200D02*
X224217100Y-88548300D01*
%TO.N,P15_A1_RX3*%
X207380000Y-85270000D02*
X208650000Y-86540000D01*
X208650000Y-86540000D02*
X223335300Y-86540000D01*
X223335300Y-86540000D02*
X223766900Y-86971600D01*
%TD*%
M02*
