%TF.GenerationSoftware,KiCad,Pcbnew,(5.1.10-1-10_14)*%
%TF.CreationDate,2021-12-24T07:56:15-05:00*%
%TF.ProjectId,hermes_v1,6865726d-6573-45f7-9631-2e6b69636164,rev?*%
%TF.SameCoordinates,Original*%
%TF.FileFunction,Copper,L4,Bot*%
%TF.FilePolarity,Positive*%
%FSLAX46Y46*%
G04 Gerber Fmt 4.6, Leading zero omitted, Abs format (unit mm)*
G04 Created by KiCad (PCBNEW (5.1.10-1-10_14)) date 2021-12-24 07:56:15*
%MOMM*%
%LPD*%
G01*
G04 APERTURE LIST*
%TA.AperFunction,ComponentPad*%
%ADD10C,3.800000*%
%TD*%
%TA.AperFunction,ComponentPad*%
%ADD11O,1.850000X0.850000*%
%TD*%
%TA.AperFunction,ComponentPad*%
%ADD12C,0.840000*%
%TD*%
%TA.AperFunction,ComponentPad*%
%ADD13R,0.840000X0.840000*%
%TD*%
%TA.AperFunction,ComponentPad*%
%ADD14O,1.700000X1.700000*%
%TD*%
%TA.AperFunction,ComponentPad*%
%ADD15R,1.700000X1.700000*%
%TD*%
%TA.AperFunction,ComponentPad*%
%ADD16C,1.700000*%
%TD*%
%TA.AperFunction,SMDPad,CuDef*%
%ADD17R,1.500000X0.800000*%
%TD*%
%TA.AperFunction,SMDPad,CuDef*%
%ADD18R,2.000000X1.450000*%
%TD*%
%TA.AperFunction,ComponentPad*%
%ADD19C,0.600000*%
%TD*%
%TA.AperFunction,ViaPad*%
%ADD20C,0.800000*%
%TD*%
%TA.AperFunction,Conductor*%
%ADD21C,0.200000*%
%TD*%
%TA.AperFunction,Conductor*%
%ADD22C,0.600000*%
%TD*%
%TA.AperFunction,Conductor*%
%ADD23C,1.000000*%
%TD*%
%TA.AperFunction,Conductor*%
%ADD24C,0.300000*%
%TD*%
%TA.AperFunction,Conductor*%
%ADD25C,0.100000*%
%TD*%
G04 APERTURE END LIST*
D10*
%TO.P,H4,1*%
%TO.N,N/C*%
X188110000Y-45960000D03*
%TD*%
%TO.P,H3,1*%
%TO.N,N/C*%
X225250000Y-91190000D03*
%TD*%
%TO.P,H2,1*%
%TO.N,N/C*%
X188110000Y-91170000D03*
%TD*%
%TO.P,H1,1*%
%TO.N,N/C*%
X225230000Y-45960000D03*
%TD*%
D11*
%TO.P,J2,6*%
%TO.N,GND*%
X192480000Y-71275000D03*
X192480000Y-64125000D03*
D12*
%TO.P,J2,5*%
X192700000Y-69000000D03*
%TO.P,J2,4*%
%TO.N,Net-(J2-Pad4)*%
X191700000Y-68350000D03*
%TO.P,J2,3*%
%TO.N,Net-(J2-Pad3)*%
X192700000Y-67700000D03*
%TO.P,J2,2*%
%TO.N,Net-(J2-Pad2)*%
X191700000Y-67050000D03*
D13*
%TO.P,J2,1*%
%TO.N,FC_USB_VBUS*%
X192700000Y-66400000D03*
%TD*%
D14*
%TO.P,J7,6*%
%TO.N,GND*%
X221740000Y-92130000D03*
%TO.P,J7,5*%
%TO.N,+5V*%
X219200000Y-92130000D03*
%TO.P,J7,4*%
%TO.N,GND*%
X221740000Y-89590000D03*
%TO.P,J7,3*%
%TO.N,+5V*%
X219200000Y-89590000D03*
%TO.P,J7,2*%
%TO.N,GND*%
X221740000Y-87050000D03*
D15*
%TO.P,J7,1*%
%TO.N,3V3_IO*%
X219200000Y-87050000D03*
%TD*%
D14*
%TO.P,J5,6*%
%TO.N,FC_UART0_RX*%
X216640000Y-92130000D03*
%TO.P,J5,5*%
%TO.N,FC_UART0_TX*%
X214100000Y-92130000D03*
%TO.P,J5,4*%
%TO.N,FC_UART1_RX*%
X216640000Y-89590000D03*
%TO.P,J5,3*%
%TO.N,FC_UART1_TX*%
X214100000Y-89590000D03*
%TO.P,J5,2*%
%TO.N,FC_I2C1_SDA*%
X216640000Y-87050000D03*
D16*
%TO.P,J5,1*%
%TO.N,FC_I2C1_SCL*%
X214100000Y-87050000D03*
%TD*%
D14*
%TO.P,J4,14*%
%TO.N,+5V*%
X211540000Y-89610000D03*
%TO.P,J4,13*%
%TO.N,GND*%
X211540000Y-92150000D03*
%TO.P,J4,12*%
%TO.N,+5V*%
X209000000Y-89610000D03*
%TO.P,J4,11*%
%TO.N,GND*%
X209000000Y-92150000D03*
%TO.P,J4,10*%
%TO.N,+5V*%
X206460000Y-89610000D03*
%TO.P,J4,9*%
%TO.N,GND*%
X206460000Y-92150000D03*
%TO.P,J4,8*%
%TO.N,+5V*%
X203920000Y-89610000D03*
%TO.P,J4,7*%
%TO.N,GND*%
X203920000Y-92150000D03*
%TO.P,J4,6*%
%TO.N,+5V*%
X201380000Y-89610000D03*
%TO.P,J4,5*%
%TO.N,GND*%
X201380000Y-92150000D03*
%TO.P,J4,4*%
%TO.N,+5V*%
X198840000Y-89610000D03*
%TO.P,J4,3*%
%TO.N,GND*%
X198840000Y-92150000D03*
%TO.P,J4,2*%
%TO.N,+5V*%
X196300000Y-89610000D03*
D15*
%TO.P,J4,1*%
%TO.N,GND*%
X196300000Y-92150000D03*
%TD*%
D14*
%TO.P,J3,7*%
%TO.N,FC_RADIO_PPM*%
X196310000Y-87050000D03*
%TO.P,J3,6*%
%TO.N,FC_SERVO_6*%
X198850000Y-87050000D03*
%TO.P,J3,5*%
%TO.N,FC_SERVO_5*%
X201390000Y-87050000D03*
%TO.P,J3,4*%
%TO.N,FC_SERVO_4*%
X203930000Y-87050000D03*
%TO.P,J3,3*%
%TO.N,FC_SERVO_3*%
X206470000Y-87050000D03*
%TO.P,J3,2*%
%TO.N,FC_SERVO_2*%
X209010000Y-87050000D03*
D15*
%TO.P,J3,1*%
%TO.N,FC_SERVO_1*%
X211550000Y-87050000D03*
%TD*%
D17*
%TO.P,J6,1*%
%TO.N,Net-(J6-Pad1)*%
X218350000Y-61300000D03*
%TO.P,J6,2*%
%TO.N,FC_SPI0_CS*%
X218350000Y-60200000D03*
%TO.P,J6,3*%
%TO.N,FC_SPI0_MOSI*%
X218350000Y-59100000D03*
%TO.P,J6,4*%
%TO.N,3V3_IO*%
X218350000Y-58000000D03*
%TO.P,J6,5*%
%TO.N,FC_SPI0_SCK*%
X218350000Y-56900000D03*
%TO.P,J6,6*%
%TO.N,GND*%
X218350000Y-55800000D03*
%TO.P,J6,7*%
%TO.N,FC_SPI0_MISO*%
X218350000Y-54700000D03*
%TO.P,J6,8*%
%TO.N,Net-(J6-Pad8)*%
X218350000Y-53600000D03*
D18*
%TO.P,J6,9*%
%TO.N,GND*%
X212650000Y-51225000D03*
X212650000Y-64975000D03*
X220950000Y-64975000D03*
X220950000Y-51225000D03*
%TD*%
D19*
%TO.P,U3,57*%
%TO.N,GND*%
X205675000Y-69275000D03*
X205675000Y-68000000D03*
X205675000Y-66725000D03*
X206950000Y-69275000D03*
X206950000Y-68000000D03*
X206950000Y-66725000D03*
X208225000Y-69275000D03*
X208225000Y-68000000D03*
X208225000Y-66725000D03*
%TD*%
D20*
%TO.N,GND*%
X193800000Y-52900000D03*
X193800000Y-51800000D03*
X205150000Y-44900000D03*
X204050000Y-44900000D03*
X204050000Y-47000000D03*
X205150000Y-47000000D03*
X204050000Y-45950000D03*
X205150000Y-45950000D03*
X209050000Y-45950000D03*
X207950000Y-45950000D03*
X209050000Y-44900000D03*
X207950000Y-44900000D03*
X207950000Y-47000000D03*
X209050000Y-47000000D03*
X219550000Y-47000000D03*
X220650000Y-45950000D03*
X219550000Y-45950000D03*
X220650000Y-47000000D03*
X220650000Y-44900000D03*
X219550000Y-44900000D03*
X220950000Y-82350000D03*
X220950000Y-78050000D03*
X214500000Y-74450000D03*
X214700000Y-78250000D03*
X217546776Y-83315647D03*
X212650000Y-49900000D03*
X211050000Y-64700000D03*
X207008856Y-62009857D03*
X219900000Y-66800000D03*
X200100005Y-62650011D03*
X196150731Y-81150731D03*
X221750000Y-58718282D03*
X191400000Y-89300000D03*
X191300000Y-59600000D03*
X191950000Y-47000000D03*
X195800000Y-57550000D03*
X195550000Y-51800000D03*
X195550000Y-52900000D03*
X195350000Y-48300000D03*
X200950000Y-52300000D03*
X220950000Y-49900000D03*
X196070000Y-66920000D03*
%TO.N,+1V1*%
X200129319Y-68679319D03*
X214257101Y-65592887D03*
X201100006Y-62649994D03*
%TO.N,+3V3*%
X216250000Y-55900000D03*
X195000000Y-71000000D03*
%TO.N,VCC*%
X212950000Y-44900000D03*
X212950000Y-45950000D03*
X211850000Y-44900000D03*
X212950000Y-47000000D03*
X211850000Y-47000000D03*
X211850000Y-45950000D03*
X216750000Y-45950000D03*
X215650000Y-47000000D03*
X216750000Y-44900000D03*
X215650000Y-45950000D03*
X216750000Y-47000000D03*
X215650000Y-44900000D03*
X199700000Y-44850000D03*
X200800000Y-45900000D03*
X199700000Y-46950000D03*
X199700000Y-45900000D03*
X200800000Y-44850000D03*
X200800000Y-46950000D03*
%TO.N,+5V*%
X208900000Y-58350000D03*
X195000000Y-69100000D03*
%TO.N,FC_STATUS_BLUE*%
X197400000Y-61025000D03*
X206455977Y-63213886D03*
%TO.N,FC_STATUS_RED*%
X195800000Y-61025000D03*
X208350000Y-65700000D03*
X214993193Y-64916003D03*
%TO.N,FC_STATUS_GREEN*%
X193921680Y-62787534D03*
X207413182Y-62924474D03*
%TO.N,FC_BOOTSEL*%
X190975000Y-85400000D03*
X193450000Y-59600000D03*
%TO.N,FC_RUN*%
X209350000Y-65700000D03*
X193600000Y-89300000D03*
%TO.N,FC_USB_VBUS*%
X213400000Y-58300000D03*
%TO.N,FC_I2C0_SCL*%
X206750010Y-73300000D03*
X216800000Y-71550000D03*
X221878753Y-74202539D03*
%TO.N,FC_I2C0_SDA*%
X206433580Y-74283580D03*
X218000001Y-71601974D03*
%TO.N,FC_I2C1_SCL*%
X214094975Y-84255025D03*
X205050000Y-62300000D03*
X203450000Y-74500000D03*
%TO.N,FC_I2C1_SDA*%
X216650000Y-84300000D03*
X206050003Y-62300000D03*
X203450000Y-76100000D03*
%TO.N,FC_SWCLK*%
X209351362Y-66700001D03*
%TO.N,FC_SWD*%
X211572881Y-66512718D03*
%TO.N,FC_SPI0_CS*%
X203022609Y-61689690D03*
X206394309Y-61220975D03*
X203268869Y-72875010D03*
%TO.N,FC_SPI0_MOSI*%
X204949999Y-74302160D03*
%TO.N,FC_SPI0_SCK*%
X204100000Y-73575010D03*
%TO.N,FC_SPI0_MISO*%
X202642829Y-72092829D03*
%TO.N,FC_UART1_TX*%
X208150010Y-72999999D03*
%TO.N,FC_UART1_RX*%
X207899798Y-74800003D03*
%TO.N,FC_UART0_TX*%
X212549997Y-66300002D03*
X212271274Y-79115560D03*
%TO.N,FC_UART0_RX*%
X213550000Y-66300002D03*
X213249997Y-69175001D03*
%TO.N,/FlightControlComputer/3V_MCU*%
X209349990Y-67706681D03*
X204950010Y-65700000D03*
%TO.N,3V3_IO*%
X214380025Y-72980024D03*
X221900049Y-75202314D03*
X220350000Y-58000000D03*
X191450000Y-76100000D03*
X192300000Y-85000000D03*
X200350000Y-74500000D03*
X200350000Y-76100000D03*
%TD*%
D21*
%TO.N,GND*%
X211325000Y-64975000D02*
X211050000Y-64700000D01*
X212650000Y-64975000D02*
X211325000Y-64975000D01*
X220950000Y-65750000D02*
X219900000Y-66800000D01*
X220950000Y-64975000D02*
X220950000Y-65750000D01*
D22*
X221750000Y-57850000D02*
X221750000Y-58718282D01*
X219700000Y-55800000D02*
X221750000Y-57850000D01*
X218350000Y-55800000D02*
X219700000Y-55800000D01*
D23*
X212650000Y-51225000D02*
X212650000Y-49900000D01*
X220950000Y-51225000D02*
X220950000Y-49900000D01*
D21*
%TO.N,FC_STATUS_RED*%
X214027189Y-63949999D02*
X214993193Y-64916003D01*
X210100001Y-63949999D02*
X214027189Y-63949999D01*
X208350000Y-65700000D02*
X210100001Y-63949999D01*
%TO.N,FC_BOOTSEL*%
X190749999Y-62300001D02*
X193450000Y-59600000D01*
X190749999Y-85174999D02*
X190749999Y-62300001D01*
X190975000Y-85400000D02*
X190749999Y-85174999D01*
%TO.N,FC_I2C0_SCL*%
X214650001Y-73699999D02*
X216800000Y-71550000D01*
X207150009Y-73699999D02*
X214650001Y-73699999D01*
X206750010Y-73300000D02*
X207150009Y-73699999D01*
%TO.N,FC_I2C0_SDA*%
X214836001Y-75150001D02*
X218050000Y-71936002D01*
X214163999Y-75150001D02*
X214836001Y-75150001D01*
X206999265Y-74283580D02*
X207182843Y-74100002D01*
X207182843Y-74100002D02*
X213114000Y-74100002D01*
X206433580Y-74283580D02*
X206999265Y-74283580D01*
X218050000Y-71651973D02*
X218000001Y-71601974D01*
X218050000Y-71936002D02*
X218050000Y-71651973D01*
X213114000Y-74100002D02*
X214163999Y-75150001D01*
%TO.N,FC_I2C1_SCL*%
X218700001Y-71263999D02*
X217686002Y-70250000D01*
X218700001Y-79649999D02*
X218700001Y-71263999D01*
X214094975Y-84255025D02*
X218700001Y-79649999D01*
X217686002Y-70250000D02*
X214100000Y-70250000D01*
X214100000Y-70250000D02*
X212750000Y-71600000D01*
X212750000Y-71600000D02*
X207111998Y-71600000D01*
X207111998Y-71600000D02*
X205100000Y-71600000D01*
X205100000Y-71600000D02*
X203850000Y-70350000D01*
X203850000Y-63500000D02*
X205050000Y-62300000D01*
X203850000Y-70350000D02*
X203850000Y-63500000D01*
%TO.N,FC_I2C1_SDA*%
X204250010Y-68738012D02*
X204250010Y-64135992D01*
X216650000Y-84300000D02*
X216650000Y-82265698D01*
X219100011Y-71098310D02*
X217851691Y-69849990D01*
X205386999Y-69875001D02*
X204250010Y-68738012D01*
X213909300Y-69875001D02*
X205386999Y-69875001D01*
X217851691Y-69849990D02*
X213934311Y-69849990D01*
X216650000Y-82265698D02*
X219100011Y-79815688D01*
X206050003Y-62335999D02*
X206050003Y-62300000D01*
X204250010Y-64135992D02*
X206050003Y-62335999D01*
X219100011Y-79815688D02*
X219100011Y-71098310D01*
X213934311Y-69849990D02*
X213909300Y-69875001D01*
%TO.N,FC_SPI0_CS*%
X202350031Y-62362268D02*
X203022609Y-61689690D01*
X206394309Y-61220975D02*
X207415284Y-60200000D01*
X207415284Y-60200000D02*
X218350000Y-60200000D01*
X203668868Y-72082866D02*
X202350031Y-70764029D01*
X202350031Y-70764029D02*
X202350031Y-62362268D01*
X203668868Y-72475011D02*
X203668868Y-72082866D01*
X203268869Y-72875010D02*
X203668868Y-72475011D01*
%TO.N,FC_SPI0_MOSI*%
X203449990Y-62864008D02*
X207213998Y-59100000D01*
X207213998Y-59100000D02*
X218350000Y-59100000D01*
X204949999Y-72015698D02*
X203449990Y-70515689D01*
X203449990Y-70515689D02*
X203449990Y-62864008D01*
X204949999Y-74302160D02*
X204949999Y-72015698D01*
%TO.N,FC_SPI0_SCK*%
X203049980Y-62698319D02*
X208848299Y-56900000D01*
X208848299Y-56900000D02*
X218350000Y-56900000D01*
X203049980Y-70681377D02*
X203049980Y-62698319D01*
X204100000Y-71731397D02*
X203049980Y-70681377D01*
X204100000Y-73575010D02*
X204100000Y-71731397D01*
%TO.N,FC_SPI0_MISO*%
X201950021Y-61772327D02*
X209022348Y-54700000D01*
X209022348Y-54700000D02*
X218350000Y-54700000D01*
X201950021Y-71400021D02*
X201950021Y-61772327D01*
X202642829Y-72092829D02*
X201950021Y-71400021D01*
%TO.N,FC_UART1_TX*%
X210399999Y-86737997D02*
X210399999Y-88140001D01*
X210719997Y-88459999D02*
X212969999Y-88459999D01*
X205649999Y-81987997D02*
X210399999Y-86737997D01*
X210399999Y-88140001D02*
X210719997Y-88459999D01*
X212969999Y-88459999D02*
X214100000Y-89590000D01*
X205649999Y-73364009D02*
X205649999Y-81987997D01*
X206414009Y-72599999D02*
X205649999Y-73364009D01*
X207750010Y-72599999D02*
X206414009Y-72599999D01*
X208150010Y-72999999D02*
X207750010Y-72599999D01*
%TO.N,FC_UART1_RX*%
X207899798Y-79049798D02*
X215489999Y-86639999D01*
X215489999Y-88439999D02*
X216640000Y-89590000D01*
X215489999Y-86639999D02*
X215489999Y-88439999D01*
X207899798Y-74800003D02*
X207899798Y-79049798D01*
D22*
%TO.N,3V3_IO*%
X220350000Y-58000000D02*
X218350000Y-58000000D01*
%TD*%
D24*
%TO.N,GND*%
X199158156Y-44189762D02*
X199039762Y-44308156D01*
X198946740Y-44447374D01*
X198882665Y-44602064D01*
X198850000Y-44766282D01*
X198850000Y-44933718D01*
X198882665Y-45097936D01*
X198946740Y-45252626D01*
X199028507Y-45375000D01*
X198946740Y-45497374D01*
X198882665Y-45652064D01*
X198850000Y-45816282D01*
X198850000Y-45983718D01*
X198882665Y-46147936D01*
X198946740Y-46302626D01*
X199028507Y-46425000D01*
X198946740Y-46547374D01*
X198882665Y-46702064D01*
X198850000Y-46866282D01*
X198850000Y-47033718D01*
X198882665Y-47197936D01*
X198946740Y-47352626D01*
X199039762Y-47491844D01*
X199158156Y-47610238D01*
X199297374Y-47703260D01*
X199452064Y-47767335D01*
X199616282Y-47800000D01*
X199783718Y-47800000D01*
X199947936Y-47767335D01*
X200102626Y-47703260D01*
X200241844Y-47610238D01*
X200250000Y-47602082D01*
X200258156Y-47610238D01*
X200397374Y-47703260D01*
X200552064Y-47767335D01*
X200716282Y-47800000D01*
X200883718Y-47800000D01*
X201047936Y-47767335D01*
X201202626Y-47703260D01*
X201341844Y-47610238D01*
X201460238Y-47491844D01*
X201553260Y-47352626D01*
X201617335Y-47197936D01*
X201650000Y-47033718D01*
X201650000Y-46866282D01*
X201617335Y-46702064D01*
X201553260Y-46547374D01*
X201471493Y-46425000D01*
X201553260Y-46302626D01*
X201617335Y-46147936D01*
X201650000Y-45983718D01*
X201650000Y-45816282D01*
X201617335Y-45652064D01*
X201553260Y-45497374D01*
X201471493Y-45375000D01*
X201553260Y-45252626D01*
X201617335Y-45097936D01*
X201650000Y-44933718D01*
X201650000Y-44766282D01*
X201617335Y-44602064D01*
X201553260Y-44447374D01*
X201460238Y-44308156D01*
X201341844Y-44189762D01*
X201244920Y-44125000D01*
X211499859Y-44125000D01*
X211447374Y-44146740D01*
X211308156Y-44239762D01*
X211189762Y-44358156D01*
X211096740Y-44497374D01*
X211032665Y-44652064D01*
X211000000Y-44816282D01*
X211000000Y-44983718D01*
X211032665Y-45147936D01*
X211096740Y-45302626D01*
X211178507Y-45425000D01*
X211096740Y-45547374D01*
X211032665Y-45702064D01*
X211000000Y-45866282D01*
X211000000Y-46033718D01*
X211032665Y-46197936D01*
X211096740Y-46352626D01*
X211178507Y-46475000D01*
X211096740Y-46597374D01*
X211032665Y-46752064D01*
X211000000Y-46916282D01*
X211000000Y-47083718D01*
X211032665Y-47247936D01*
X211096740Y-47402626D01*
X211189762Y-47541844D01*
X211308156Y-47660238D01*
X211447374Y-47753260D01*
X211602064Y-47817335D01*
X211766282Y-47850000D01*
X211933718Y-47850000D01*
X212097936Y-47817335D01*
X212252626Y-47753260D01*
X212391844Y-47660238D01*
X212400000Y-47652082D01*
X212408156Y-47660238D01*
X212547374Y-47753260D01*
X212702064Y-47817335D01*
X212866282Y-47850000D01*
X213033718Y-47850000D01*
X213197936Y-47817335D01*
X213352626Y-47753260D01*
X213491844Y-47660238D01*
X213610238Y-47541844D01*
X213703260Y-47402626D01*
X213767335Y-47247936D01*
X213800000Y-47083718D01*
X213800000Y-46916282D01*
X213767335Y-46752064D01*
X213703260Y-46597374D01*
X213621493Y-46475000D01*
X213703260Y-46352626D01*
X213767335Y-46197936D01*
X213800000Y-46033718D01*
X213800000Y-45866282D01*
X213767335Y-45702064D01*
X213703260Y-45547374D01*
X213621493Y-45425000D01*
X213703260Y-45302626D01*
X213767335Y-45147936D01*
X213800000Y-44983718D01*
X213800000Y-44816282D01*
X213767335Y-44652064D01*
X213703260Y-44497374D01*
X213610238Y-44358156D01*
X213491844Y-44239762D01*
X213352626Y-44146740D01*
X213300141Y-44125000D01*
X215299859Y-44125000D01*
X215247374Y-44146740D01*
X215108156Y-44239762D01*
X214989762Y-44358156D01*
X214896740Y-44497374D01*
X214832665Y-44652064D01*
X214800000Y-44816282D01*
X214800000Y-44983718D01*
X214832665Y-45147936D01*
X214896740Y-45302626D01*
X214978507Y-45425000D01*
X214896740Y-45547374D01*
X214832665Y-45702064D01*
X214800000Y-45866282D01*
X214800000Y-46033718D01*
X214832665Y-46197936D01*
X214896740Y-46352626D01*
X214978507Y-46475000D01*
X214896740Y-46597374D01*
X214832665Y-46752064D01*
X214800000Y-46916282D01*
X214800000Y-47083718D01*
X214832665Y-47247936D01*
X214896740Y-47402626D01*
X214989762Y-47541844D01*
X215108156Y-47660238D01*
X215247374Y-47753260D01*
X215402064Y-47817335D01*
X215566282Y-47850000D01*
X215733718Y-47850000D01*
X215897936Y-47817335D01*
X216052626Y-47753260D01*
X216191844Y-47660238D01*
X216200000Y-47652082D01*
X216208156Y-47660238D01*
X216347374Y-47753260D01*
X216502064Y-47817335D01*
X216666282Y-47850000D01*
X216833718Y-47850000D01*
X216997936Y-47817335D01*
X217152626Y-47753260D01*
X217291844Y-47660238D01*
X217410238Y-47541844D01*
X217503260Y-47402626D01*
X217567335Y-47247936D01*
X217600000Y-47083718D01*
X217600000Y-46916282D01*
X217567335Y-46752064D01*
X217503260Y-46597374D01*
X217421493Y-46475000D01*
X217503260Y-46352626D01*
X217567335Y-46197936D01*
X217600000Y-46033718D01*
X217600000Y-45866282D01*
X217567335Y-45702064D01*
X217503260Y-45547374D01*
X217421493Y-45425000D01*
X217503260Y-45302626D01*
X217567335Y-45147936D01*
X217600000Y-44983718D01*
X217600000Y-44816282D01*
X217567335Y-44652064D01*
X217503260Y-44497374D01*
X217410238Y-44358156D01*
X217291844Y-44239762D01*
X217152626Y-44146740D01*
X217100141Y-44125000D01*
X222169621Y-44125000D01*
X222256996Y-44190138D01*
X222443549Y-44375816D01*
X222601865Y-44586103D01*
X222728726Y-44816730D01*
X222821566Y-45063030D01*
X222878502Y-45320007D01*
X222898790Y-45587799D01*
X222898989Y-45633079D01*
X222880000Y-45728545D01*
X222880000Y-46191455D01*
X222901932Y-46301714D01*
X222914391Y-49132867D01*
X222900131Y-49155629D01*
X222897221Y-49161579D01*
X222897216Y-49161587D01*
X222897213Y-49161596D01*
X222707852Y-49555621D01*
X222693075Y-49596069D01*
X222677743Y-49636287D01*
X222676041Y-49642697D01*
X222566818Y-50066009D01*
X222560183Y-50108535D01*
X222552951Y-50150985D01*
X222552527Y-50157604D01*
X222528166Y-50584237D01*
X222526845Y-50597589D01*
X222525011Y-54426571D01*
X222524999Y-54426696D01*
X222525000Y-54449501D01*
X222524989Y-54473104D01*
X222525002Y-54473233D01*
X222526098Y-73647802D01*
X222420597Y-73542301D01*
X222281379Y-73449279D01*
X222126689Y-73385204D01*
X221962471Y-73352539D01*
X221795035Y-73352539D01*
X221630817Y-73385204D01*
X221476127Y-73449279D01*
X221336909Y-73542301D01*
X221218515Y-73660695D01*
X221125493Y-73799913D01*
X221061418Y-73954603D01*
X221028753Y-74118821D01*
X221028753Y-74286257D01*
X221061418Y-74450475D01*
X221125493Y-74605165D01*
X221201129Y-74718362D01*
X221146789Y-74799688D01*
X221082714Y-74954378D01*
X221050049Y-75118596D01*
X221050049Y-75286032D01*
X221082714Y-75450250D01*
X221146789Y-75604940D01*
X221239811Y-75744158D01*
X221358205Y-75862552D01*
X221497423Y-75955574D01*
X221652113Y-76019649D01*
X221816331Y-76052314D01*
X221983767Y-76052314D01*
X222147985Y-76019649D01*
X222302675Y-75955574D01*
X222441893Y-75862552D01*
X222526219Y-75778226D01*
X222526833Y-86524320D01*
X222525072Y-86616570D01*
X222527039Y-86641529D01*
X222526752Y-86666576D01*
X222527370Y-86673180D01*
X222571126Y-87108160D01*
X222579596Y-87150377D01*
X222587472Y-87192695D01*
X222589361Y-87199053D01*
X222716771Y-87617250D01*
X222733277Y-87657012D01*
X222749226Y-87697001D01*
X222752314Y-87702870D01*
X222958526Y-88088356D01*
X222982441Y-88124155D01*
X223005854Y-88160284D01*
X223010022Y-88165442D01*
X223086580Y-88258830D01*
X223095347Y-90250945D01*
X222990309Y-90504530D01*
X222900000Y-90958545D01*
X222900000Y-91421455D01*
X222990309Y-91875470D01*
X223046166Y-92010321D01*
X223027829Y-92096234D01*
X222936296Y-92344376D01*
X222810303Y-92576929D01*
X222652437Y-92789125D01*
X222465911Y-92976645D01*
X222401630Y-93025000D01*
X220143478Y-93025000D01*
X220209776Y-92958702D01*
X220352045Y-92745781D01*
X220450042Y-92509196D01*
X220500000Y-92258039D01*
X220500000Y-92001961D01*
X220450042Y-91750804D01*
X220352045Y-91514219D01*
X220209776Y-91301298D01*
X220028702Y-91120224D01*
X219815781Y-90977955D01*
X219579196Y-90879958D01*
X219478860Y-90860000D01*
X219579196Y-90840042D01*
X219815781Y-90742045D01*
X220028702Y-90599776D01*
X220209776Y-90418702D01*
X220352045Y-90205781D01*
X220450042Y-89969196D01*
X220500000Y-89718039D01*
X220500000Y-89461961D01*
X220450042Y-89210804D01*
X220352045Y-88974219D01*
X220209776Y-88761298D01*
X220028702Y-88580224D01*
X219815781Y-88437955D01*
X219608695Y-88352177D01*
X220050000Y-88352177D01*
X220138215Y-88343489D01*
X220223041Y-88317757D01*
X220301216Y-88275971D01*
X220369737Y-88219737D01*
X220425971Y-88151216D01*
X220467757Y-88073041D01*
X220493489Y-87988215D01*
X220502177Y-87900000D01*
X220502177Y-86200000D01*
X220493489Y-86111785D01*
X220467757Y-86026959D01*
X220425971Y-85948784D01*
X220369737Y-85880263D01*
X220301216Y-85824029D01*
X220223041Y-85782243D01*
X220138215Y-85756511D01*
X220050000Y-85747823D01*
X218350000Y-85747823D01*
X218261785Y-85756511D01*
X218176959Y-85782243D01*
X218098784Y-85824029D01*
X218030263Y-85880263D01*
X217974029Y-85948784D01*
X217932243Y-86026959D01*
X217906511Y-86111785D01*
X217897823Y-86200000D01*
X217897823Y-86709922D01*
X217890042Y-86670804D01*
X217792045Y-86434219D01*
X217649776Y-86221298D01*
X217468702Y-86040224D01*
X217255781Y-85897955D01*
X217019196Y-85799958D01*
X216768039Y-85750000D01*
X216511961Y-85750000D01*
X216260804Y-85799958D01*
X216024219Y-85897955D01*
X215811298Y-86040224D01*
X215739670Y-86111852D01*
X214580627Y-84952809D01*
X214636819Y-84915263D01*
X214755213Y-84796869D01*
X214848235Y-84657651D01*
X214912310Y-84502961D01*
X214944975Y-84338743D01*
X214944975Y-84182842D01*
X216100001Y-83027817D01*
X216100000Y-83647918D01*
X215989762Y-83758156D01*
X215896740Y-83897374D01*
X215832665Y-84052064D01*
X215800000Y-84216282D01*
X215800000Y-84383718D01*
X215832665Y-84547936D01*
X215896740Y-84702626D01*
X215989762Y-84841844D01*
X216108156Y-84960238D01*
X216247374Y-85053260D01*
X216402064Y-85117335D01*
X216566282Y-85150000D01*
X216733718Y-85150000D01*
X216897936Y-85117335D01*
X217052626Y-85053260D01*
X217191844Y-84960238D01*
X217310238Y-84841844D01*
X217403260Y-84702626D01*
X217467335Y-84547936D01*
X217500000Y-84383718D01*
X217500000Y-84216282D01*
X217467335Y-84052064D01*
X217403260Y-83897374D01*
X217310238Y-83758156D01*
X217200000Y-83647918D01*
X217200000Y-82493515D01*
X219469821Y-80223696D01*
X219490801Y-80206478D01*
X219508019Y-80185498D01*
X219508024Y-80185493D01*
X219559532Y-80122731D01*
X219610602Y-80027183D01*
X219610603Y-80027182D01*
X219642053Y-79923507D01*
X219650011Y-79842706D01*
X219650011Y-79842697D01*
X219652671Y-79815689D01*
X219650011Y-79788681D01*
X219650011Y-71125317D01*
X219652671Y-71098309D01*
X219650011Y-71071301D01*
X219650011Y-71071292D01*
X219642053Y-70990491D01*
X219610603Y-70886816D01*
X219576349Y-70822731D01*
X219559532Y-70791267D01*
X219508024Y-70728505D01*
X219508019Y-70728500D01*
X219490801Y-70707520D01*
X219469821Y-70690302D01*
X218259704Y-69480186D01*
X218242481Y-69459200D01*
X218158733Y-69390469D01*
X218063185Y-69339398D01*
X217959510Y-69307948D01*
X217878709Y-69299990D01*
X217878699Y-69299990D01*
X217851691Y-69297330D01*
X217824683Y-69299990D01*
X214091788Y-69299990D01*
X214099997Y-69258719D01*
X214099997Y-69091283D01*
X214067332Y-68927065D01*
X214003257Y-68772375D01*
X213910235Y-68633157D01*
X213791841Y-68514763D01*
X213652623Y-68421741D01*
X213497933Y-68357666D01*
X213333715Y-68325001D01*
X213166279Y-68325001D01*
X213002061Y-68357666D01*
X212847371Y-68421741D01*
X212708153Y-68514763D01*
X212589759Y-68633157D01*
X212496737Y-68772375D01*
X212432662Y-68927065D01*
X212399997Y-69091283D01*
X212399997Y-69258719D01*
X212413181Y-69325001D01*
X205614817Y-69325001D01*
X204800010Y-68510195D01*
X204800010Y-66536816D01*
X204866292Y-66550000D01*
X205033728Y-66550000D01*
X205197946Y-66517335D01*
X205352636Y-66453260D01*
X205491854Y-66360238D01*
X205610248Y-66241844D01*
X205703270Y-66102626D01*
X205767345Y-65947936D01*
X205800010Y-65783718D01*
X205800010Y-65616282D01*
X207500000Y-65616282D01*
X207500000Y-65783718D01*
X207532665Y-65947936D01*
X207596740Y-66102626D01*
X207689762Y-66241844D01*
X207808156Y-66360238D01*
X207947374Y-66453260D01*
X208102064Y-66517335D01*
X208266282Y-66550000D01*
X208433718Y-66550000D01*
X208517876Y-66533260D01*
X208501362Y-66616283D01*
X208501362Y-66783719D01*
X208534027Y-66947937D01*
X208598102Y-67102627D01*
X208664711Y-67202314D01*
X208596730Y-67304055D01*
X208532655Y-67458745D01*
X208499990Y-67622963D01*
X208499990Y-67790399D01*
X208532655Y-67954617D01*
X208596730Y-68109307D01*
X208689752Y-68248525D01*
X208808146Y-68366919D01*
X208947364Y-68459941D01*
X209102054Y-68524016D01*
X209266272Y-68556681D01*
X209433708Y-68556681D01*
X209597926Y-68524016D01*
X209752616Y-68459941D01*
X209891834Y-68366919D01*
X210010228Y-68248525D01*
X210103250Y-68109307D01*
X210167325Y-67954617D01*
X210199990Y-67790399D01*
X210199990Y-67622963D01*
X210167325Y-67458745D01*
X210103250Y-67304055D01*
X210036641Y-67204368D01*
X210104622Y-67102627D01*
X210168697Y-66947937D01*
X210201362Y-66783719D01*
X210201362Y-66616283D01*
X210168697Y-66452065D01*
X210104622Y-66297375D01*
X210038878Y-66198981D01*
X210103260Y-66102626D01*
X210167335Y-65947936D01*
X210200000Y-65783718D01*
X210200000Y-65616282D01*
X210167335Y-65452064D01*
X210103260Y-65297374D01*
X210010238Y-65158156D01*
X209891844Y-65039762D01*
X209829627Y-64998190D01*
X210327819Y-64499999D01*
X213799372Y-64499999D01*
X214064014Y-64764642D01*
X214009165Y-64775552D01*
X213854475Y-64839627D01*
X213715257Y-64932649D01*
X213596863Y-65051043D01*
X213503841Y-65190261D01*
X213439766Y-65344951D01*
X213416917Y-65459821D01*
X213302064Y-65482667D01*
X213147374Y-65546742D01*
X213049999Y-65611806D01*
X212952623Y-65546742D01*
X212797933Y-65482667D01*
X212633715Y-65450002D01*
X212466279Y-65450002D01*
X212302061Y-65482667D01*
X212147371Y-65546742D01*
X212008153Y-65639764D01*
X211913955Y-65733962D01*
X211820817Y-65695383D01*
X211656599Y-65662718D01*
X211489163Y-65662718D01*
X211324945Y-65695383D01*
X211170255Y-65759458D01*
X211031037Y-65852480D01*
X210912643Y-65970874D01*
X210819621Y-66110092D01*
X210755546Y-66264782D01*
X210722881Y-66429000D01*
X210722881Y-66596436D01*
X210755546Y-66760654D01*
X210819621Y-66915344D01*
X210912643Y-67054562D01*
X211031037Y-67172956D01*
X211170255Y-67265978D01*
X211324945Y-67330053D01*
X211489163Y-67362718D01*
X211656599Y-67362718D01*
X211820817Y-67330053D01*
X211975507Y-67265978D01*
X212114725Y-67172956D01*
X212208923Y-67078758D01*
X212302061Y-67117337D01*
X212466279Y-67150002D01*
X212633715Y-67150002D01*
X212797933Y-67117337D01*
X212952623Y-67053262D01*
X213049999Y-66988198D01*
X213147374Y-67053262D01*
X213302064Y-67117337D01*
X213466282Y-67150002D01*
X213633718Y-67150002D01*
X213797936Y-67117337D01*
X213952626Y-67053262D01*
X214091844Y-66960240D01*
X214210238Y-66841846D01*
X214303260Y-66702628D01*
X214367335Y-66547938D01*
X214390184Y-66433068D01*
X214505037Y-66410222D01*
X214659727Y-66346147D01*
X214798945Y-66253125D01*
X214917339Y-66134731D01*
X215010361Y-65995513D01*
X215074436Y-65840823D01*
X215089830Y-65763433D01*
X215241129Y-65733338D01*
X215395819Y-65669263D01*
X215535037Y-65576241D01*
X215653431Y-65457847D01*
X215746453Y-65318629D01*
X215810528Y-65163939D01*
X215843193Y-64999721D01*
X215843193Y-64832285D01*
X215810528Y-64668067D01*
X215746453Y-64513377D01*
X215653431Y-64374159D01*
X215535037Y-64255765D01*
X215395819Y-64162743D01*
X215241129Y-64098668D01*
X215076911Y-64066003D01*
X214921011Y-64066003D01*
X214435202Y-63580195D01*
X214417979Y-63559209D01*
X214334231Y-63490478D01*
X214238683Y-63439407D01*
X214135008Y-63407957D01*
X214054207Y-63399999D01*
X214054197Y-63399999D01*
X214027189Y-63397339D01*
X214000181Y-63399999D01*
X210127008Y-63399999D01*
X210100000Y-63397339D01*
X210072992Y-63399999D01*
X210072983Y-63399999D01*
X209992182Y-63407957D01*
X209888507Y-63439407D01*
X209846571Y-63461822D01*
X209792958Y-63490478D01*
X209730196Y-63541986D01*
X209730191Y-63541991D01*
X209709211Y-63559209D01*
X209691993Y-63580189D01*
X208422183Y-64850000D01*
X208266282Y-64850000D01*
X208102064Y-64882665D01*
X207947374Y-64946740D01*
X207808156Y-65039762D01*
X207689762Y-65158156D01*
X207596740Y-65297374D01*
X207532665Y-65452064D01*
X207500000Y-65616282D01*
X205800010Y-65616282D01*
X205767345Y-65452064D01*
X205703270Y-65297374D01*
X205610248Y-65158156D01*
X205491854Y-65039762D01*
X205352636Y-64946740D01*
X205197946Y-64882665D01*
X205033728Y-64850000D01*
X204866292Y-64850000D01*
X204800010Y-64863184D01*
X204800010Y-64363809D01*
X205657198Y-63506621D01*
X205702717Y-63616512D01*
X205795739Y-63755730D01*
X205914133Y-63874124D01*
X206053351Y-63967146D01*
X206208041Y-64031221D01*
X206372259Y-64063886D01*
X206539695Y-64063886D01*
X206703913Y-64031221D01*
X206858603Y-63967146D01*
X206997821Y-63874124D01*
X207116215Y-63755730D01*
X207134129Y-63728920D01*
X207165246Y-63741809D01*
X207329464Y-63774474D01*
X207496900Y-63774474D01*
X207661118Y-63741809D01*
X207815808Y-63677734D01*
X207955026Y-63584712D01*
X208073420Y-63466318D01*
X208166442Y-63327100D01*
X208230517Y-63172410D01*
X208263182Y-63008192D01*
X208263182Y-62840756D01*
X208230517Y-62676538D01*
X208166442Y-62521848D01*
X208073420Y-62382630D01*
X207955026Y-62264236D01*
X207815808Y-62171214D01*
X207661118Y-62107139D01*
X207496900Y-62074474D01*
X207329464Y-62074474D01*
X207165246Y-62107139D01*
X207010556Y-62171214D01*
X206900003Y-62245083D01*
X206900003Y-62216282D01*
X206867338Y-62052064D01*
X206826827Y-61954262D01*
X206936153Y-61881213D01*
X207054547Y-61762819D01*
X207147569Y-61623601D01*
X207211644Y-61468911D01*
X207244309Y-61304693D01*
X207244309Y-61148792D01*
X207643101Y-60750000D01*
X217175254Y-60750000D01*
X217156511Y-60811785D01*
X217147823Y-60900000D01*
X217147823Y-61700000D01*
X217156511Y-61788215D01*
X217182243Y-61873041D01*
X217224029Y-61951216D01*
X217280263Y-62019737D01*
X217348784Y-62075971D01*
X217426959Y-62117757D01*
X217511785Y-62143489D01*
X217600000Y-62152177D01*
X219100000Y-62152177D01*
X219188215Y-62143489D01*
X219273041Y-62117757D01*
X219351216Y-62075971D01*
X219419737Y-62019737D01*
X219475971Y-61951216D01*
X219517757Y-61873041D01*
X219543489Y-61788215D01*
X219552177Y-61700000D01*
X219552177Y-60900000D01*
X219543489Y-60811785D01*
X219524746Y-60750000D01*
X219543489Y-60688215D01*
X219552177Y-60600000D01*
X219552177Y-59800000D01*
X219543489Y-59711785D01*
X219524746Y-59650000D01*
X219543489Y-59588215D01*
X219552177Y-59500000D01*
X219552177Y-58750000D01*
X219942495Y-58750000D01*
X219947374Y-58753260D01*
X220102064Y-58817335D01*
X220266282Y-58850000D01*
X220433718Y-58850000D01*
X220597936Y-58817335D01*
X220752626Y-58753260D01*
X220891844Y-58660238D01*
X221010238Y-58541844D01*
X221103260Y-58402626D01*
X221167335Y-58247936D01*
X221200000Y-58083718D01*
X221200000Y-57916282D01*
X221167335Y-57752064D01*
X221103260Y-57597374D01*
X221010238Y-57458156D01*
X220891844Y-57339762D01*
X220752626Y-57246740D01*
X220597936Y-57182665D01*
X220433718Y-57150000D01*
X220266282Y-57150000D01*
X220102064Y-57182665D01*
X219947374Y-57246740D01*
X219942495Y-57250000D01*
X219552177Y-57250000D01*
X219552177Y-56500000D01*
X219543489Y-56411785D01*
X219517757Y-56326959D01*
X219475971Y-56248784D01*
X219419737Y-56180263D01*
X219351216Y-56124029D01*
X219273041Y-56082243D01*
X219188215Y-56056511D01*
X219100000Y-56047823D01*
X217600000Y-56047823D01*
X217511785Y-56056511D01*
X217426959Y-56082243D01*
X217348784Y-56124029D01*
X217280263Y-56180263D01*
X217224029Y-56248784D01*
X217182243Y-56326959D01*
X217175254Y-56350000D01*
X216971606Y-56350000D01*
X217003260Y-56302626D01*
X217067335Y-56147936D01*
X217100000Y-55983718D01*
X217100000Y-55816282D01*
X217067335Y-55652064D01*
X217003260Y-55497374D01*
X216910238Y-55358156D01*
X216802082Y-55250000D01*
X217175254Y-55250000D01*
X217182243Y-55273041D01*
X217224029Y-55351216D01*
X217280263Y-55419737D01*
X217348784Y-55475971D01*
X217426959Y-55517757D01*
X217511785Y-55543489D01*
X217600000Y-55552177D01*
X219100000Y-55552177D01*
X219188215Y-55543489D01*
X219273041Y-55517757D01*
X219351216Y-55475971D01*
X219419737Y-55419737D01*
X219475971Y-55351216D01*
X219517757Y-55273041D01*
X219543489Y-55188215D01*
X219552177Y-55100000D01*
X219552177Y-54300000D01*
X219543489Y-54211785D01*
X219524746Y-54150000D01*
X219543489Y-54088215D01*
X219552177Y-54000000D01*
X219552177Y-53200000D01*
X219543489Y-53111785D01*
X219517757Y-53026959D01*
X219475971Y-52948784D01*
X219419737Y-52880263D01*
X219351216Y-52824029D01*
X219273041Y-52782243D01*
X219188215Y-52756511D01*
X219100000Y-52747823D01*
X217600000Y-52747823D01*
X217511785Y-52756511D01*
X217426959Y-52782243D01*
X217348784Y-52824029D01*
X217280263Y-52880263D01*
X217224029Y-52948784D01*
X217182243Y-53026959D01*
X217156511Y-53111785D01*
X217147823Y-53200000D01*
X217147823Y-54000000D01*
X217156511Y-54088215D01*
X217175254Y-54150000D01*
X209049359Y-54150000D01*
X209022348Y-54147340D01*
X208995337Y-54150000D01*
X208995330Y-54150000D01*
X208914529Y-54157958D01*
X208810853Y-54189408D01*
X208768989Y-54211785D01*
X208715306Y-54240479D01*
X208631558Y-54309210D01*
X208614335Y-54330196D01*
X201580212Y-61364319D01*
X201559232Y-61381537D01*
X201542014Y-61402517D01*
X201542008Y-61402523D01*
X201490500Y-61465285D01*
X201439430Y-61560833D01*
X201407980Y-61664509D01*
X201397361Y-61772327D01*
X201400022Y-61799345D01*
X201400022Y-61854231D01*
X201347942Y-61832659D01*
X201183724Y-61799994D01*
X201016288Y-61799994D01*
X200852070Y-61832659D01*
X200697380Y-61896734D01*
X200558162Y-61989756D01*
X200439768Y-62108150D01*
X200346746Y-62247368D01*
X200282671Y-62402058D01*
X200250006Y-62566276D01*
X200250006Y-62733712D01*
X200282671Y-62897930D01*
X200346746Y-63052620D01*
X200439768Y-63191838D01*
X200558162Y-63310232D01*
X200697380Y-63403254D01*
X200852070Y-63467329D01*
X201016288Y-63499994D01*
X201183724Y-63499994D01*
X201347942Y-63467329D01*
X201400022Y-63445757D01*
X201400021Y-71373013D01*
X201397361Y-71400021D01*
X201400021Y-71427029D01*
X201400021Y-71427038D01*
X201407979Y-71507839D01*
X201439429Y-71611514D01*
X201490500Y-71707063D01*
X201559231Y-71790811D01*
X201580217Y-71808034D01*
X201792829Y-72020646D01*
X201792829Y-72176547D01*
X201825494Y-72340765D01*
X201889569Y-72495455D01*
X201982591Y-72634673D01*
X202100985Y-72753067D01*
X202240203Y-72846089D01*
X202394893Y-72910164D01*
X202418869Y-72914933D01*
X202418869Y-72958728D01*
X202451534Y-73122946D01*
X202515609Y-73277636D01*
X202608631Y-73416854D01*
X202727025Y-73535248D01*
X202866243Y-73628270D01*
X203020933Y-73692345D01*
X203127513Y-73713545D01*
X203047374Y-73746740D01*
X202908156Y-73839762D01*
X202789762Y-73958156D01*
X202696740Y-74097374D01*
X202632665Y-74252064D01*
X202600000Y-74416282D01*
X202600000Y-74583718D01*
X202632665Y-74747936D01*
X202696740Y-74902626D01*
X202789762Y-75041844D01*
X202908156Y-75160238D01*
X203047374Y-75253260D01*
X203160214Y-75300000D01*
X203047374Y-75346740D01*
X202908156Y-75439762D01*
X202789762Y-75558156D01*
X202696740Y-75697374D01*
X202632665Y-75852064D01*
X202600000Y-76016282D01*
X202600000Y-76183718D01*
X202632665Y-76347936D01*
X202696740Y-76502626D01*
X202789762Y-76641844D01*
X202908156Y-76760238D01*
X203047374Y-76853260D01*
X203202064Y-76917335D01*
X203366282Y-76950000D01*
X203533718Y-76950000D01*
X203697936Y-76917335D01*
X203852626Y-76853260D01*
X203991844Y-76760238D01*
X204110238Y-76641844D01*
X204203260Y-76502626D01*
X204267335Y-76347936D01*
X204300000Y-76183718D01*
X204300000Y-76016282D01*
X204267335Y-75852064D01*
X204203260Y-75697374D01*
X204110238Y-75558156D01*
X203991844Y-75439762D01*
X203852626Y-75346740D01*
X203739786Y-75300000D01*
X203852626Y-75253260D01*
X203991844Y-75160238D01*
X204110238Y-75041844D01*
X204203260Y-74902626D01*
X204251352Y-74786521D01*
X204289761Y-74844004D01*
X204408155Y-74962398D01*
X204547373Y-75055420D01*
X204702063Y-75119495D01*
X204866281Y-75152160D01*
X205033717Y-75152160D01*
X205099999Y-75138976D01*
X205100000Y-81960979D01*
X205097339Y-81987997D01*
X205107958Y-82095815D01*
X205139408Y-82199491D01*
X205190478Y-82295039D01*
X205241986Y-82357801D01*
X205241992Y-82357807D01*
X205259210Y-82378787D01*
X205280190Y-82396005D01*
X208675293Y-85791109D01*
X208630804Y-85799958D01*
X208394219Y-85897955D01*
X208181298Y-86040224D01*
X208000224Y-86221298D01*
X207857955Y-86434219D01*
X207759958Y-86670804D01*
X207740000Y-86771140D01*
X207720042Y-86670804D01*
X207622045Y-86434219D01*
X207479776Y-86221298D01*
X207298702Y-86040224D01*
X207085781Y-85897955D01*
X206849196Y-85799958D01*
X206598039Y-85750000D01*
X206341961Y-85750000D01*
X206090804Y-85799958D01*
X205854219Y-85897955D01*
X205641298Y-86040224D01*
X205460224Y-86221298D01*
X205317955Y-86434219D01*
X205219958Y-86670804D01*
X205200000Y-86771140D01*
X205180042Y-86670804D01*
X205082045Y-86434219D01*
X204939776Y-86221298D01*
X204758702Y-86040224D01*
X204545781Y-85897955D01*
X204309196Y-85799958D01*
X204058039Y-85750000D01*
X203801961Y-85750000D01*
X203550804Y-85799958D01*
X203314219Y-85897955D01*
X203101298Y-86040224D01*
X202920224Y-86221298D01*
X202777955Y-86434219D01*
X202679958Y-86670804D01*
X202660000Y-86771140D01*
X202640042Y-86670804D01*
X202542045Y-86434219D01*
X202399776Y-86221298D01*
X202218702Y-86040224D01*
X202005781Y-85897955D01*
X201769196Y-85799958D01*
X201518039Y-85750000D01*
X201261961Y-85750000D01*
X201010804Y-85799958D01*
X200774219Y-85897955D01*
X200561298Y-86040224D01*
X200380224Y-86221298D01*
X200237955Y-86434219D01*
X200139958Y-86670804D01*
X200120000Y-86771140D01*
X200100042Y-86670804D01*
X200002045Y-86434219D01*
X199859776Y-86221298D01*
X199678702Y-86040224D01*
X199465781Y-85897955D01*
X199229196Y-85799958D01*
X198978039Y-85750000D01*
X198721961Y-85750000D01*
X198470804Y-85799958D01*
X198234219Y-85897955D01*
X198021298Y-86040224D01*
X197840224Y-86221298D01*
X197697955Y-86434219D01*
X197599958Y-86670804D01*
X197580000Y-86771140D01*
X197560042Y-86670804D01*
X197462045Y-86434219D01*
X197319776Y-86221298D01*
X197138702Y-86040224D01*
X196925781Y-85897955D01*
X196689196Y-85799958D01*
X196438039Y-85750000D01*
X196181961Y-85750000D01*
X195930804Y-85799958D01*
X195694219Y-85897955D01*
X195481298Y-86040224D01*
X195300224Y-86221298D01*
X195157955Y-86434219D01*
X195059958Y-86670804D01*
X195010000Y-86921961D01*
X195010000Y-87178039D01*
X195059958Y-87429196D01*
X195157955Y-87665781D01*
X195300224Y-87878702D01*
X195481298Y-88059776D01*
X195694219Y-88202045D01*
X195930804Y-88300042D01*
X196076414Y-88329005D01*
X195920804Y-88359958D01*
X195684219Y-88457955D01*
X195471298Y-88600224D01*
X195290224Y-88781298D01*
X195147955Y-88994219D01*
X195049958Y-89230804D01*
X195000000Y-89481961D01*
X195000000Y-89738039D01*
X195049958Y-89989196D01*
X195147955Y-90225781D01*
X195290224Y-90438702D01*
X195471298Y-90619776D01*
X195684219Y-90762045D01*
X195920804Y-90860042D01*
X196171961Y-90910000D01*
X196428039Y-90910000D01*
X196679196Y-90860042D01*
X196915781Y-90762045D01*
X197128702Y-90619776D01*
X197309776Y-90438702D01*
X197452045Y-90225781D01*
X197550042Y-89989196D01*
X197570000Y-89888860D01*
X197589958Y-89989196D01*
X197687955Y-90225781D01*
X197830224Y-90438702D01*
X198011298Y-90619776D01*
X198224219Y-90762045D01*
X198460804Y-90860042D01*
X198711961Y-90910000D01*
X198968039Y-90910000D01*
X199219196Y-90860042D01*
X199455781Y-90762045D01*
X199668702Y-90619776D01*
X199849776Y-90438702D01*
X199992045Y-90225781D01*
X200090042Y-89989196D01*
X200110000Y-89888860D01*
X200129958Y-89989196D01*
X200227955Y-90225781D01*
X200370224Y-90438702D01*
X200551298Y-90619776D01*
X200764219Y-90762045D01*
X201000804Y-90860042D01*
X201251961Y-90910000D01*
X201508039Y-90910000D01*
X201759196Y-90860042D01*
X201995781Y-90762045D01*
X202208702Y-90619776D01*
X202389776Y-90438702D01*
X202532045Y-90225781D01*
X202630042Y-89989196D01*
X202650000Y-89888860D01*
X202669958Y-89989196D01*
X202767955Y-90225781D01*
X202910224Y-90438702D01*
X203091298Y-90619776D01*
X203304219Y-90762045D01*
X203540804Y-90860042D01*
X203791961Y-90910000D01*
X204048039Y-90910000D01*
X204299196Y-90860042D01*
X204535781Y-90762045D01*
X204748702Y-90619776D01*
X204929776Y-90438702D01*
X205072045Y-90225781D01*
X205170042Y-89989196D01*
X205190000Y-89888860D01*
X205209958Y-89989196D01*
X205307955Y-90225781D01*
X205450224Y-90438702D01*
X205631298Y-90619776D01*
X205844219Y-90762045D01*
X206080804Y-90860042D01*
X206331961Y-90910000D01*
X206588039Y-90910000D01*
X206839196Y-90860042D01*
X207075781Y-90762045D01*
X207288702Y-90619776D01*
X207469776Y-90438702D01*
X207612045Y-90225781D01*
X207710042Y-89989196D01*
X207730000Y-89888860D01*
X207749958Y-89989196D01*
X207847955Y-90225781D01*
X207990224Y-90438702D01*
X208171298Y-90619776D01*
X208384219Y-90762045D01*
X208620804Y-90860042D01*
X208871961Y-90910000D01*
X209128039Y-90910000D01*
X209379196Y-90860042D01*
X209615781Y-90762045D01*
X209828702Y-90619776D01*
X210009776Y-90438702D01*
X210152045Y-90225781D01*
X210250042Y-89989196D01*
X210270000Y-89888860D01*
X210289958Y-89989196D01*
X210387955Y-90225781D01*
X210530224Y-90438702D01*
X210711298Y-90619776D01*
X210924219Y-90762045D01*
X211160804Y-90860042D01*
X211411961Y-90910000D01*
X211668039Y-90910000D01*
X211919196Y-90860042D01*
X212155781Y-90762045D01*
X212368702Y-90619776D01*
X212549776Y-90438702D01*
X212692045Y-90225781D01*
X212790042Y-89989196D01*
X212821989Y-89828586D01*
X212849958Y-89969196D01*
X212947955Y-90205781D01*
X213090224Y-90418702D01*
X213271298Y-90599776D01*
X213484219Y-90742045D01*
X213720804Y-90840042D01*
X213821140Y-90860000D01*
X213720804Y-90879958D01*
X213484219Y-90977955D01*
X213271298Y-91120224D01*
X213090224Y-91301298D01*
X212947955Y-91514219D01*
X212849958Y-91750804D01*
X212800000Y-92001961D01*
X212800000Y-92258039D01*
X212849958Y-92509196D01*
X212947955Y-92745781D01*
X213090224Y-92958702D01*
X213156522Y-93025000D01*
X191086523Y-93025000D01*
X191061099Y-93005970D01*
X190874259Y-92819075D01*
X190715975Y-92607485D01*
X190589455Y-92375487D01*
X190497285Y-92127826D01*
X190441350Y-91869564D01*
X190422411Y-91600590D01*
X190422423Y-91590366D01*
X190460000Y-91401455D01*
X190460000Y-90938545D01*
X190423426Y-90754674D01*
X190425271Y-89216282D01*
X192750000Y-89216282D01*
X192750000Y-89383718D01*
X192782665Y-89547936D01*
X192846740Y-89702626D01*
X192939762Y-89841844D01*
X193058156Y-89960238D01*
X193197374Y-90053260D01*
X193352064Y-90117335D01*
X193516282Y-90150000D01*
X193683718Y-90150000D01*
X193847936Y-90117335D01*
X194002626Y-90053260D01*
X194141844Y-89960238D01*
X194260238Y-89841844D01*
X194353260Y-89702626D01*
X194417335Y-89547936D01*
X194450000Y-89383718D01*
X194450000Y-89216282D01*
X194417335Y-89052064D01*
X194353260Y-88897374D01*
X194260238Y-88758156D01*
X194141844Y-88639762D01*
X194002626Y-88546740D01*
X193847936Y-88482665D01*
X193683718Y-88450000D01*
X193516282Y-88450000D01*
X193352064Y-88482665D01*
X193197374Y-88546740D01*
X193058156Y-88639762D01*
X192939762Y-88758156D01*
X192846740Y-88897374D01*
X192782665Y-89052064D01*
X192750000Y-89216282D01*
X190425271Y-89216282D01*
X190426693Y-88031377D01*
X190427012Y-88030852D01*
X190449869Y-87994371D01*
X190452779Y-87988421D01*
X190452784Y-87988413D01*
X190452787Y-87988404D01*
X190642149Y-87594379D01*
X190656937Y-87553898D01*
X190672257Y-87513713D01*
X190673959Y-87507303D01*
X190783182Y-87083991D01*
X190789817Y-87041465D01*
X190797049Y-86999015D01*
X190797473Y-86992396D01*
X190821839Y-86565666D01*
X190823165Y-86552212D01*
X190823183Y-86236454D01*
X190891282Y-86250000D01*
X191058718Y-86250000D01*
X191222936Y-86217335D01*
X191377626Y-86153260D01*
X191516844Y-86060238D01*
X191635238Y-85941844D01*
X191728260Y-85802626D01*
X191780935Y-85675458D01*
X191897374Y-85753260D01*
X192052064Y-85817335D01*
X192216282Y-85850000D01*
X192383718Y-85850000D01*
X192547936Y-85817335D01*
X192702626Y-85753260D01*
X192841844Y-85660238D01*
X192960238Y-85541844D01*
X193053260Y-85402626D01*
X193117335Y-85247936D01*
X193150000Y-85083718D01*
X193150000Y-84916282D01*
X193117335Y-84752064D01*
X193053260Y-84597374D01*
X192960238Y-84458156D01*
X192841844Y-84339762D01*
X192702626Y-84246740D01*
X192547936Y-84182665D01*
X192383718Y-84150000D01*
X192216282Y-84150000D01*
X192052064Y-84182665D01*
X191897374Y-84246740D01*
X191758156Y-84339762D01*
X191639762Y-84458156D01*
X191546740Y-84597374D01*
X191494065Y-84724542D01*
X191377626Y-84646740D01*
X191299999Y-84614586D01*
X191299999Y-76936815D01*
X191366282Y-76950000D01*
X191533718Y-76950000D01*
X191697936Y-76917335D01*
X191852626Y-76853260D01*
X191991844Y-76760238D01*
X192110238Y-76641844D01*
X192203260Y-76502626D01*
X192267335Y-76347936D01*
X192300000Y-76183718D01*
X192300000Y-76016282D01*
X192267335Y-75852064D01*
X192203260Y-75697374D01*
X192110238Y-75558156D01*
X191991844Y-75439762D01*
X191852626Y-75346740D01*
X191697936Y-75282665D01*
X191533718Y-75250000D01*
X191366282Y-75250000D01*
X191299999Y-75263185D01*
X191299999Y-74416282D01*
X199500000Y-74416282D01*
X199500000Y-74583718D01*
X199532665Y-74747936D01*
X199596740Y-74902626D01*
X199689762Y-75041844D01*
X199808156Y-75160238D01*
X199947374Y-75253260D01*
X200060214Y-75300000D01*
X199947374Y-75346740D01*
X199808156Y-75439762D01*
X199689762Y-75558156D01*
X199596740Y-75697374D01*
X199532665Y-75852064D01*
X199500000Y-76016282D01*
X199500000Y-76183718D01*
X199532665Y-76347936D01*
X199596740Y-76502626D01*
X199689762Y-76641844D01*
X199808156Y-76760238D01*
X199947374Y-76853260D01*
X200102064Y-76917335D01*
X200266282Y-76950000D01*
X200433718Y-76950000D01*
X200597936Y-76917335D01*
X200752626Y-76853260D01*
X200891844Y-76760238D01*
X201010238Y-76641844D01*
X201103260Y-76502626D01*
X201167335Y-76347936D01*
X201200000Y-76183718D01*
X201200000Y-76016282D01*
X201167335Y-75852064D01*
X201103260Y-75697374D01*
X201010238Y-75558156D01*
X200891844Y-75439762D01*
X200752626Y-75346740D01*
X200639786Y-75300000D01*
X200752626Y-75253260D01*
X200891844Y-75160238D01*
X201010238Y-75041844D01*
X201103260Y-74902626D01*
X201167335Y-74747936D01*
X201200000Y-74583718D01*
X201200000Y-74416282D01*
X201167335Y-74252064D01*
X201103260Y-74097374D01*
X201010238Y-73958156D01*
X200891844Y-73839762D01*
X200752626Y-73746740D01*
X200597936Y-73682665D01*
X200433718Y-73650000D01*
X200266282Y-73650000D01*
X200102064Y-73682665D01*
X199947374Y-73746740D01*
X199808156Y-73839762D01*
X199689762Y-73958156D01*
X199596740Y-74097374D01*
X199532665Y-74252064D01*
X199500000Y-74416282D01*
X191299999Y-74416282D01*
X191299999Y-70916282D01*
X194150000Y-70916282D01*
X194150000Y-71083718D01*
X194182665Y-71247936D01*
X194246740Y-71402626D01*
X194339762Y-71541844D01*
X194458156Y-71660238D01*
X194597374Y-71753260D01*
X194752064Y-71817335D01*
X194916282Y-71850000D01*
X195083718Y-71850000D01*
X195247936Y-71817335D01*
X195402626Y-71753260D01*
X195541844Y-71660238D01*
X195660238Y-71541844D01*
X195753260Y-71402626D01*
X195817335Y-71247936D01*
X195850000Y-71083718D01*
X195850000Y-70916282D01*
X195817335Y-70752064D01*
X195753260Y-70597374D01*
X195660238Y-70458156D01*
X195541844Y-70339762D01*
X195402626Y-70246740D01*
X195247936Y-70182665D01*
X195083718Y-70150000D01*
X194916282Y-70150000D01*
X194752064Y-70182665D01*
X194597374Y-70246740D01*
X194458156Y-70339762D01*
X194339762Y-70458156D01*
X194246740Y-70597374D01*
X194182665Y-70752064D01*
X194150000Y-70916282D01*
X191299999Y-70916282D01*
X191299999Y-69125996D01*
X191446230Y-69186567D01*
X191614312Y-69220000D01*
X191785688Y-69220000D01*
X191953770Y-69186567D01*
X192112100Y-69120984D01*
X192254593Y-69025773D01*
X192264084Y-69016282D01*
X194150000Y-69016282D01*
X194150000Y-69183718D01*
X194182665Y-69347936D01*
X194246740Y-69502626D01*
X194339762Y-69641844D01*
X194458156Y-69760238D01*
X194597374Y-69853260D01*
X194752064Y-69917335D01*
X194916282Y-69950000D01*
X195083718Y-69950000D01*
X195247936Y-69917335D01*
X195402626Y-69853260D01*
X195541844Y-69760238D01*
X195660238Y-69641844D01*
X195753260Y-69502626D01*
X195817335Y-69347936D01*
X195850000Y-69183718D01*
X195850000Y-69016282D01*
X195817335Y-68852064D01*
X195753260Y-68697374D01*
X195685258Y-68595601D01*
X199279319Y-68595601D01*
X199279319Y-68763037D01*
X199311984Y-68927255D01*
X199376059Y-69081945D01*
X199469081Y-69221163D01*
X199587475Y-69339557D01*
X199726693Y-69432579D01*
X199881383Y-69496654D01*
X200045601Y-69529319D01*
X200213037Y-69529319D01*
X200377255Y-69496654D01*
X200531945Y-69432579D01*
X200671163Y-69339557D01*
X200789557Y-69221163D01*
X200882579Y-69081945D01*
X200946654Y-68927255D01*
X200979319Y-68763037D01*
X200979319Y-68595601D01*
X200946654Y-68431383D01*
X200882579Y-68276693D01*
X200789557Y-68137475D01*
X200671163Y-68019081D01*
X200531945Y-67926059D01*
X200377255Y-67861984D01*
X200213037Y-67829319D01*
X200045601Y-67829319D01*
X199881383Y-67861984D01*
X199726693Y-67926059D01*
X199587475Y-68019081D01*
X199469081Y-68137475D01*
X199376059Y-68276693D01*
X199311984Y-68431383D01*
X199279319Y-68595601D01*
X195685258Y-68595601D01*
X195660238Y-68558156D01*
X195541844Y-68439762D01*
X195402626Y-68346740D01*
X195247936Y-68282665D01*
X195083718Y-68250000D01*
X194916282Y-68250000D01*
X194752064Y-68282665D01*
X194597374Y-68346740D01*
X194458156Y-68439762D01*
X194339762Y-68558156D01*
X194246740Y-68697374D01*
X194182665Y-68852064D01*
X194150000Y-69016282D01*
X192264084Y-69016282D01*
X192375773Y-68904593D01*
X192470984Y-68762100D01*
X192536567Y-68603770D01*
X192545987Y-68556410D01*
X192614312Y-68570000D01*
X192785688Y-68570000D01*
X192953770Y-68536567D01*
X193112100Y-68470984D01*
X193254593Y-68375773D01*
X193375773Y-68254593D01*
X193470984Y-68112100D01*
X193536567Y-67953770D01*
X193570000Y-67785688D01*
X193570000Y-67614312D01*
X193536567Y-67446230D01*
X193470984Y-67287900D01*
X193395979Y-67175648D01*
X193439737Y-67139737D01*
X193495971Y-67071216D01*
X193537757Y-66993041D01*
X193563489Y-66908215D01*
X193572177Y-66820000D01*
X193572177Y-65980000D01*
X193563489Y-65891785D01*
X193537757Y-65806959D01*
X193495971Y-65728784D01*
X193439737Y-65660263D01*
X193371216Y-65604029D01*
X193293041Y-65562243D01*
X193208215Y-65536511D01*
X193120000Y-65527823D01*
X192280000Y-65527823D01*
X192191785Y-65536511D01*
X192106959Y-65562243D01*
X192028784Y-65604029D01*
X191960263Y-65660263D01*
X191904029Y-65728784D01*
X191862243Y-65806959D01*
X191836511Y-65891785D01*
X191827823Y-65980000D01*
X191827823Y-66188381D01*
X191785688Y-66180000D01*
X191614312Y-66180000D01*
X191446230Y-66213433D01*
X191299999Y-66274004D01*
X191299999Y-62703816D01*
X193071680Y-62703816D01*
X193071680Y-62871252D01*
X193104345Y-63035470D01*
X193168420Y-63190160D01*
X193261442Y-63329378D01*
X193379836Y-63447772D01*
X193519054Y-63540794D01*
X193673744Y-63604869D01*
X193837962Y-63637534D01*
X194005398Y-63637534D01*
X194169616Y-63604869D01*
X194324306Y-63540794D01*
X194463524Y-63447772D01*
X194581918Y-63329378D01*
X194674940Y-63190160D01*
X194739015Y-63035470D01*
X194771680Y-62871252D01*
X194771680Y-62703816D01*
X194739015Y-62539598D01*
X194674940Y-62384908D01*
X194581918Y-62245690D01*
X194463524Y-62127296D01*
X194324306Y-62034274D01*
X194169616Y-61970199D01*
X194005398Y-61937534D01*
X193837962Y-61937534D01*
X193673744Y-61970199D01*
X193519054Y-62034274D01*
X193379836Y-62127296D01*
X193261442Y-62245690D01*
X193168420Y-62384908D01*
X193104345Y-62539598D01*
X193071680Y-62703816D01*
X191299999Y-62703816D01*
X191299999Y-62527818D01*
X192886535Y-60941282D01*
X194950000Y-60941282D01*
X194950000Y-61108718D01*
X194982665Y-61272936D01*
X195046740Y-61427626D01*
X195139762Y-61566844D01*
X195258156Y-61685238D01*
X195397374Y-61778260D01*
X195552064Y-61842335D01*
X195716282Y-61875000D01*
X195883718Y-61875000D01*
X196047936Y-61842335D01*
X196202626Y-61778260D01*
X196341844Y-61685238D01*
X196460238Y-61566844D01*
X196553260Y-61427626D01*
X196600000Y-61314786D01*
X196646740Y-61427626D01*
X196739762Y-61566844D01*
X196858156Y-61685238D01*
X196997374Y-61778260D01*
X197152064Y-61842335D01*
X197316282Y-61875000D01*
X197483718Y-61875000D01*
X197647936Y-61842335D01*
X197802626Y-61778260D01*
X197941844Y-61685238D01*
X198060238Y-61566844D01*
X198153260Y-61427626D01*
X198217335Y-61272936D01*
X198250000Y-61108718D01*
X198250000Y-60941282D01*
X198217335Y-60777064D01*
X198153260Y-60622374D01*
X198060238Y-60483156D01*
X197941844Y-60364762D01*
X197802626Y-60271740D01*
X197647936Y-60207665D01*
X197483718Y-60175000D01*
X197316282Y-60175000D01*
X197152064Y-60207665D01*
X196997374Y-60271740D01*
X196858156Y-60364762D01*
X196739762Y-60483156D01*
X196646740Y-60622374D01*
X196600000Y-60735214D01*
X196553260Y-60622374D01*
X196460238Y-60483156D01*
X196341844Y-60364762D01*
X196202626Y-60271740D01*
X196047936Y-60207665D01*
X195883718Y-60175000D01*
X195716282Y-60175000D01*
X195552064Y-60207665D01*
X195397374Y-60271740D01*
X195258156Y-60364762D01*
X195139762Y-60483156D01*
X195046740Y-60622374D01*
X194982665Y-60777064D01*
X194950000Y-60941282D01*
X192886535Y-60941282D01*
X193377818Y-60450000D01*
X193533718Y-60450000D01*
X193697936Y-60417335D01*
X193852626Y-60353260D01*
X193991844Y-60260238D01*
X194110238Y-60141844D01*
X194203260Y-60002626D01*
X194267335Y-59847936D01*
X194300000Y-59683718D01*
X194300000Y-59516282D01*
X194267335Y-59352064D01*
X194203260Y-59197374D01*
X194110238Y-59058156D01*
X193991844Y-58939762D01*
X193852626Y-58846740D01*
X193697936Y-58782665D01*
X193533718Y-58750000D01*
X193366282Y-58750000D01*
X193202064Y-58782665D01*
X193047374Y-58846740D01*
X192908156Y-58939762D01*
X192789762Y-59058156D01*
X192696740Y-59197374D01*
X192632665Y-59352064D01*
X192600000Y-59516282D01*
X192600000Y-59672182D01*
X190824600Y-61447583D01*
X190824998Y-54472604D01*
X190825069Y-54471863D01*
X190825000Y-54449439D01*
X190825001Y-54426696D01*
X190824927Y-54425945D01*
X190813180Y-50624956D01*
X190814928Y-50533430D01*
X190812961Y-50508470D01*
X190813248Y-50483423D01*
X190812630Y-50476820D01*
X190768874Y-50041839D01*
X190760403Y-49999616D01*
X190752528Y-49957305D01*
X190750639Y-49950947D01*
X190623229Y-49532750D01*
X190606723Y-49492988D01*
X190590774Y-49452999D01*
X190587686Y-49447130D01*
X190473242Y-49233193D01*
X190477598Y-45602526D01*
X190497093Y-45334212D01*
X190553391Y-45076646D01*
X190645737Y-44829705D01*
X190772259Y-44598394D01*
X190930378Y-44387429D01*
X191116889Y-44201085D01*
X191218592Y-44125000D01*
X199255080Y-44125000D01*
X199158156Y-44189762D01*
%TA.AperFunction,Conductor*%
D25*
G36*
X199158156Y-44189762D02*
G01*
X199039762Y-44308156D01*
X198946740Y-44447374D01*
X198882665Y-44602064D01*
X198850000Y-44766282D01*
X198850000Y-44933718D01*
X198882665Y-45097936D01*
X198946740Y-45252626D01*
X199028507Y-45375000D01*
X198946740Y-45497374D01*
X198882665Y-45652064D01*
X198850000Y-45816282D01*
X198850000Y-45983718D01*
X198882665Y-46147936D01*
X198946740Y-46302626D01*
X199028507Y-46425000D01*
X198946740Y-46547374D01*
X198882665Y-46702064D01*
X198850000Y-46866282D01*
X198850000Y-47033718D01*
X198882665Y-47197936D01*
X198946740Y-47352626D01*
X199039762Y-47491844D01*
X199158156Y-47610238D01*
X199297374Y-47703260D01*
X199452064Y-47767335D01*
X199616282Y-47800000D01*
X199783718Y-47800000D01*
X199947936Y-47767335D01*
X200102626Y-47703260D01*
X200241844Y-47610238D01*
X200250000Y-47602082D01*
X200258156Y-47610238D01*
X200397374Y-47703260D01*
X200552064Y-47767335D01*
X200716282Y-47800000D01*
X200883718Y-47800000D01*
X201047936Y-47767335D01*
X201202626Y-47703260D01*
X201341844Y-47610238D01*
X201460238Y-47491844D01*
X201553260Y-47352626D01*
X201617335Y-47197936D01*
X201650000Y-47033718D01*
X201650000Y-46866282D01*
X201617335Y-46702064D01*
X201553260Y-46547374D01*
X201471493Y-46425000D01*
X201553260Y-46302626D01*
X201617335Y-46147936D01*
X201650000Y-45983718D01*
X201650000Y-45816282D01*
X201617335Y-45652064D01*
X201553260Y-45497374D01*
X201471493Y-45375000D01*
X201553260Y-45252626D01*
X201617335Y-45097936D01*
X201650000Y-44933718D01*
X201650000Y-44766282D01*
X201617335Y-44602064D01*
X201553260Y-44447374D01*
X201460238Y-44308156D01*
X201341844Y-44189762D01*
X201244920Y-44125000D01*
X211499859Y-44125000D01*
X211447374Y-44146740D01*
X211308156Y-44239762D01*
X211189762Y-44358156D01*
X211096740Y-44497374D01*
X211032665Y-44652064D01*
X211000000Y-44816282D01*
X211000000Y-44983718D01*
X211032665Y-45147936D01*
X211096740Y-45302626D01*
X211178507Y-45425000D01*
X211096740Y-45547374D01*
X211032665Y-45702064D01*
X211000000Y-45866282D01*
X211000000Y-46033718D01*
X211032665Y-46197936D01*
X211096740Y-46352626D01*
X211178507Y-46475000D01*
X211096740Y-46597374D01*
X211032665Y-46752064D01*
X211000000Y-46916282D01*
X211000000Y-47083718D01*
X211032665Y-47247936D01*
X211096740Y-47402626D01*
X211189762Y-47541844D01*
X211308156Y-47660238D01*
X211447374Y-47753260D01*
X211602064Y-47817335D01*
X211766282Y-47850000D01*
X211933718Y-47850000D01*
X212097936Y-47817335D01*
X212252626Y-47753260D01*
X212391844Y-47660238D01*
X212400000Y-47652082D01*
X212408156Y-47660238D01*
X212547374Y-47753260D01*
X212702064Y-47817335D01*
X212866282Y-47850000D01*
X213033718Y-47850000D01*
X213197936Y-47817335D01*
X213352626Y-47753260D01*
X213491844Y-47660238D01*
X213610238Y-47541844D01*
X213703260Y-47402626D01*
X213767335Y-47247936D01*
X213800000Y-47083718D01*
X213800000Y-46916282D01*
X213767335Y-46752064D01*
X213703260Y-46597374D01*
X213621493Y-46475000D01*
X213703260Y-46352626D01*
X213767335Y-46197936D01*
X213800000Y-46033718D01*
X213800000Y-45866282D01*
X213767335Y-45702064D01*
X213703260Y-45547374D01*
X213621493Y-45425000D01*
X213703260Y-45302626D01*
X213767335Y-45147936D01*
X213800000Y-44983718D01*
X213800000Y-44816282D01*
X213767335Y-44652064D01*
X213703260Y-44497374D01*
X213610238Y-44358156D01*
X213491844Y-44239762D01*
X213352626Y-44146740D01*
X213300141Y-44125000D01*
X215299859Y-44125000D01*
X215247374Y-44146740D01*
X215108156Y-44239762D01*
X214989762Y-44358156D01*
X214896740Y-44497374D01*
X214832665Y-44652064D01*
X214800000Y-44816282D01*
X214800000Y-44983718D01*
X214832665Y-45147936D01*
X214896740Y-45302626D01*
X214978507Y-45425000D01*
X214896740Y-45547374D01*
X214832665Y-45702064D01*
X214800000Y-45866282D01*
X214800000Y-46033718D01*
X214832665Y-46197936D01*
X214896740Y-46352626D01*
X214978507Y-46475000D01*
X214896740Y-46597374D01*
X214832665Y-46752064D01*
X214800000Y-46916282D01*
X214800000Y-47083718D01*
X214832665Y-47247936D01*
X214896740Y-47402626D01*
X214989762Y-47541844D01*
X215108156Y-47660238D01*
X215247374Y-47753260D01*
X215402064Y-47817335D01*
X215566282Y-47850000D01*
X215733718Y-47850000D01*
X215897936Y-47817335D01*
X216052626Y-47753260D01*
X216191844Y-47660238D01*
X216200000Y-47652082D01*
X216208156Y-47660238D01*
X216347374Y-47753260D01*
X216502064Y-47817335D01*
X216666282Y-47850000D01*
X216833718Y-47850000D01*
X216997936Y-47817335D01*
X217152626Y-47753260D01*
X217291844Y-47660238D01*
X217410238Y-47541844D01*
X217503260Y-47402626D01*
X217567335Y-47247936D01*
X217600000Y-47083718D01*
X217600000Y-46916282D01*
X217567335Y-46752064D01*
X217503260Y-46597374D01*
X217421493Y-46475000D01*
X217503260Y-46352626D01*
X217567335Y-46197936D01*
X217600000Y-46033718D01*
X217600000Y-45866282D01*
X217567335Y-45702064D01*
X217503260Y-45547374D01*
X217421493Y-45425000D01*
X217503260Y-45302626D01*
X217567335Y-45147936D01*
X217600000Y-44983718D01*
X217600000Y-44816282D01*
X217567335Y-44652064D01*
X217503260Y-44497374D01*
X217410238Y-44358156D01*
X217291844Y-44239762D01*
X217152626Y-44146740D01*
X217100141Y-44125000D01*
X222169621Y-44125000D01*
X222256996Y-44190138D01*
X222443549Y-44375816D01*
X222601865Y-44586103D01*
X222728726Y-44816730D01*
X222821566Y-45063030D01*
X222878502Y-45320007D01*
X222898790Y-45587799D01*
X222898989Y-45633079D01*
X222880000Y-45728545D01*
X222880000Y-46191455D01*
X222901932Y-46301714D01*
X222914391Y-49132867D01*
X222900131Y-49155629D01*
X222897221Y-49161579D01*
X222897216Y-49161587D01*
X222897213Y-49161596D01*
X222707852Y-49555621D01*
X222693075Y-49596069D01*
X222677743Y-49636287D01*
X222676041Y-49642697D01*
X222566818Y-50066009D01*
X222560183Y-50108535D01*
X222552951Y-50150985D01*
X222552527Y-50157604D01*
X222528166Y-50584237D01*
X222526845Y-50597589D01*
X222525011Y-54426571D01*
X222524999Y-54426696D01*
X222525000Y-54449501D01*
X222524989Y-54473104D01*
X222525002Y-54473233D01*
X222526098Y-73647802D01*
X222420597Y-73542301D01*
X222281379Y-73449279D01*
X222126689Y-73385204D01*
X221962471Y-73352539D01*
X221795035Y-73352539D01*
X221630817Y-73385204D01*
X221476127Y-73449279D01*
X221336909Y-73542301D01*
X221218515Y-73660695D01*
X221125493Y-73799913D01*
X221061418Y-73954603D01*
X221028753Y-74118821D01*
X221028753Y-74286257D01*
X221061418Y-74450475D01*
X221125493Y-74605165D01*
X221201129Y-74718362D01*
X221146789Y-74799688D01*
X221082714Y-74954378D01*
X221050049Y-75118596D01*
X221050049Y-75286032D01*
X221082714Y-75450250D01*
X221146789Y-75604940D01*
X221239811Y-75744158D01*
X221358205Y-75862552D01*
X221497423Y-75955574D01*
X221652113Y-76019649D01*
X221816331Y-76052314D01*
X221983767Y-76052314D01*
X222147985Y-76019649D01*
X222302675Y-75955574D01*
X222441893Y-75862552D01*
X222526219Y-75778226D01*
X222526833Y-86524320D01*
X222525072Y-86616570D01*
X222527039Y-86641529D01*
X222526752Y-86666576D01*
X222527370Y-86673180D01*
X222571126Y-87108160D01*
X222579596Y-87150377D01*
X222587472Y-87192695D01*
X222589361Y-87199053D01*
X222716771Y-87617250D01*
X222733277Y-87657012D01*
X222749226Y-87697001D01*
X222752314Y-87702870D01*
X222958526Y-88088356D01*
X222982441Y-88124155D01*
X223005854Y-88160284D01*
X223010022Y-88165442D01*
X223086580Y-88258830D01*
X223095347Y-90250945D01*
X222990309Y-90504530D01*
X222900000Y-90958545D01*
X222900000Y-91421455D01*
X222990309Y-91875470D01*
X223046166Y-92010321D01*
X223027829Y-92096234D01*
X222936296Y-92344376D01*
X222810303Y-92576929D01*
X222652437Y-92789125D01*
X222465911Y-92976645D01*
X222401630Y-93025000D01*
X220143478Y-93025000D01*
X220209776Y-92958702D01*
X220352045Y-92745781D01*
X220450042Y-92509196D01*
X220500000Y-92258039D01*
X220500000Y-92001961D01*
X220450042Y-91750804D01*
X220352045Y-91514219D01*
X220209776Y-91301298D01*
X220028702Y-91120224D01*
X219815781Y-90977955D01*
X219579196Y-90879958D01*
X219478860Y-90860000D01*
X219579196Y-90840042D01*
X219815781Y-90742045D01*
X220028702Y-90599776D01*
X220209776Y-90418702D01*
X220352045Y-90205781D01*
X220450042Y-89969196D01*
X220500000Y-89718039D01*
X220500000Y-89461961D01*
X220450042Y-89210804D01*
X220352045Y-88974219D01*
X220209776Y-88761298D01*
X220028702Y-88580224D01*
X219815781Y-88437955D01*
X219608695Y-88352177D01*
X220050000Y-88352177D01*
X220138215Y-88343489D01*
X220223041Y-88317757D01*
X220301216Y-88275971D01*
X220369737Y-88219737D01*
X220425971Y-88151216D01*
X220467757Y-88073041D01*
X220493489Y-87988215D01*
X220502177Y-87900000D01*
X220502177Y-86200000D01*
X220493489Y-86111785D01*
X220467757Y-86026959D01*
X220425971Y-85948784D01*
X220369737Y-85880263D01*
X220301216Y-85824029D01*
X220223041Y-85782243D01*
X220138215Y-85756511D01*
X220050000Y-85747823D01*
X218350000Y-85747823D01*
X218261785Y-85756511D01*
X218176959Y-85782243D01*
X218098784Y-85824029D01*
X218030263Y-85880263D01*
X217974029Y-85948784D01*
X217932243Y-86026959D01*
X217906511Y-86111785D01*
X217897823Y-86200000D01*
X217897823Y-86709922D01*
X217890042Y-86670804D01*
X217792045Y-86434219D01*
X217649776Y-86221298D01*
X217468702Y-86040224D01*
X217255781Y-85897955D01*
X217019196Y-85799958D01*
X216768039Y-85750000D01*
X216511961Y-85750000D01*
X216260804Y-85799958D01*
X216024219Y-85897955D01*
X215811298Y-86040224D01*
X215739670Y-86111852D01*
X214580627Y-84952809D01*
X214636819Y-84915263D01*
X214755213Y-84796869D01*
X214848235Y-84657651D01*
X214912310Y-84502961D01*
X214944975Y-84338743D01*
X214944975Y-84182842D01*
X216100001Y-83027817D01*
X216100000Y-83647918D01*
X215989762Y-83758156D01*
X215896740Y-83897374D01*
X215832665Y-84052064D01*
X215800000Y-84216282D01*
X215800000Y-84383718D01*
X215832665Y-84547936D01*
X215896740Y-84702626D01*
X215989762Y-84841844D01*
X216108156Y-84960238D01*
X216247374Y-85053260D01*
X216402064Y-85117335D01*
X216566282Y-85150000D01*
X216733718Y-85150000D01*
X216897936Y-85117335D01*
X217052626Y-85053260D01*
X217191844Y-84960238D01*
X217310238Y-84841844D01*
X217403260Y-84702626D01*
X217467335Y-84547936D01*
X217500000Y-84383718D01*
X217500000Y-84216282D01*
X217467335Y-84052064D01*
X217403260Y-83897374D01*
X217310238Y-83758156D01*
X217200000Y-83647918D01*
X217200000Y-82493515D01*
X219469821Y-80223696D01*
X219490801Y-80206478D01*
X219508019Y-80185498D01*
X219508024Y-80185493D01*
X219559532Y-80122731D01*
X219610602Y-80027183D01*
X219610603Y-80027182D01*
X219642053Y-79923507D01*
X219650011Y-79842706D01*
X219650011Y-79842697D01*
X219652671Y-79815689D01*
X219650011Y-79788681D01*
X219650011Y-71125317D01*
X219652671Y-71098309D01*
X219650011Y-71071301D01*
X219650011Y-71071292D01*
X219642053Y-70990491D01*
X219610603Y-70886816D01*
X219576349Y-70822731D01*
X219559532Y-70791267D01*
X219508024Y-70728505D01*
X219508019Y-70728500D01*
X219490801Y-70707520D01*
X219469821Y-70690302D01*
X218259704Y-69480186D01*
X218242481Y-69459200D01*
X218158733Y-69390469D01*
X218063185Y-69339398D01*
X217959510Y-69307948D01*
X217878709Y-69299990D01*
X217878699Y-69299990D01*
X217851691Y-69297330D01*
X217824683Y-69299990D01*
X214091788Y-69299990D01*
X214099997Y-69258719D01*
X214099997Y-69091283D01*
X214067332Y-68927065D01*
X214003257Y-68772375D01*
X213910235Y-68633157D01*
X213791841Y-68514763D01*
X213652623Y-68421741D01*
X213497933Y-68357666D01*
X213333715Y-68325001D01*
X213166279Y-68325001D01*
X213002061Y-68357666D01*
X212847371Y-68421741D01*
X212708153Y-68514763D01*
X212589759Y-68633157D01*
X212496737Y-68772375D01*
X212432662Y-68927065D01*
X212399997Y-69091283D01*
X212399997Y-69258719D01*
X212413181Y-69325001D01*
X205614817Y-69325001D01*
X204800010Y-68510195D01*
X204800010Y-66536816D01*
X204866292Y-66550000D01*
X205033728Y-66550000D01*
X205197946Y-66517335D01*
X205352636Y-66453260D01*
X205491854Y-66360238D01*
X205610248Y-66241844D01*
X205703270Y-66102626D01*
X205767345Y-65947936D01*
X205800010Y-65783718D01*
X205800010Y-65616282D01*
X207500000Y-65616282D01*
X207500000Y-65783718D01*
X207532665Y-65947936D01*
X207596740Y-66102626D01*
X207689762Y-66241844D01*
X207808156Y-66360238D01*
X207947374Y-66453260D01*
X208102064Y-66517335D01*
X208266282Y-66550000D01*
X208433718Y-66550000D01*
X208517876Y-66533260D01*
X208501362Y-66616283D01*
X208501362Y-66783719D01*
X208534027Y-66947937D01*
X208598102Y-67102627D01*
X208664711Y-67202314D01*
X208596730Y-67304055D01*
X208532655Y-67458745D01*
X208499990Y-67622963D01*
X208499990Y-67790399D01*
X208532655Y-67954617D01*
X208596730Y-68109307D01*
X208689752Y-68248525D01*
X208808146Y-68366919D01*
X208947364Y-68459941D01*
X209102054Y-68524016D01*
X209266272Y-68556681D01*
X209433708Y-68556681D01*
X209597926Y-68524016D01*
X209752616Y-68459941D01*
X209891834Y-68366919D01*
X210010228Y-68248525D01*
X210103250Y-68109307D01*
X210167325Y-67954617D01*
X210199990Y-67790399D01*
X210199990Y-67622963D01*
X210167325Y-67458745D01*
X210103250Y-67304055D01*
X210036641Y-67204368D01*
X210104622Y-67102627D01*
X210168697Y-66947937D01*
X210201362Y-66783719D01*
X210201362Y-66616283D01*
X210168697Y-66452065D01*
X210104622Y-66297375D01*
X210038878Y-66198981D01*
X210103260Y-66102626D01*
X210167335Y-65947936D01*
X210200000Y-65783718D01*
X210200000Y-65616282D01*
X210167335Y-65452064D01*
X210103260Y-65297374D01*
X210010238Y-65158156D01*
X209891844Y-65039762D01*
X209829627Y-64998190D01*
X210327819Y-64499999D01*
X213799372Y-64499999D01*
X214064014Y-64764642D01*
X214009165Y-64775552D01*
X213854475Y-64839627D01*
X213715257Y-64932649D01*
X213596863Y-65051043D01*
X213503841Y-65190261D01*
X213439766Y-65344951D01*
X213416917Y-65459821D01*
X213302064Y-65482667D01*
X213147374Y-65546742D01*
X213049999Y-65611806D01*
X212952623Y-65546742D01*
X212797933Y-65482667D01*
X212633715Y-65450002D01*
X212466279Y-65450002D01*
X212302061Y-65482667D01*
X212147371Y-65546742D01*
X212008153Y-65639764D01*
X211913955Y-65733962D01*
X211820817Y-65695383D01*
X211656599Y-65662718D01*
X211489163Y-65662718D01*
X211324945Y-65695383D01*
X211170255Y-65759458D01*
X211031037Y-65852480D01*
X210912643Y-65970874D01*
X210819621Y-66110092D01*
X210755546Y-66264782D01*
X210722881Y-66429000D01*
X210722881Y-66596436D01*
X210755546Y-66760654D01*
X210819621Y-66915344D01*
X210912643Y-67054562D01*
X211031037Y-67172956D01*
X211170255Y-67265978D01*
X211324945Y-67330053D01*
X211489163Y-67362718D01*
X211656599Y-67362718D01*
X211820817Y-67330053D01*
X211975507Y-67265978D01*
X212114725Y-67172956D01*
X212208923Y-67078758D01*
X212302061Y-67117337D01*
X212466279Y-67150002D01*
X212633715Y-67150002D01*
X212797933Y-67117337D01*
X212952623Y-67053262D01*
X213049999Y-66988198D01*
X213147374Y-67053262D01*
X213302064Y-67117337D01*
X213466282Y-67150002D01*
X213633718Y-67150002D01*
X213797936Y-67117337D01*
X213952626Y-67053262D01*
X214091844Y-66960240D01*
X214210238Y-66841846D01*
X214303260Y-66702628D01*
X214367335Y-66547938D01*
X214390184Y-66433068D01*
X214505037Y-66410222D01*
X214659727Y-66346147D01*
X214798945Y-66253125D01*
X214917339Y-66134731D01*
X215010361Y-65995513D01*
X215074436Y-65840823D01*
X215089830Y-65763433D01*
X215241129Y-65733338D01*
X215395819Y-65669263D01*
X215535037Y-65576241D01*
X215653431Y-65457847D01*
X215746453Y-65318629D01*
X215810528Y-65163939D01*
X215843193Y-64999721D01*
X215843193Y-64832285D01*
X215810528Y-64668067D01*
X215746453Y-64513377D01*
X215653431Y-64374159D01*
X215535037Y-64255765D01*
X215395819Y-64162743D01*
X215241129Y-64098668D01*
X215076911Y-64066003D01*
X214921011Y-64066003D01*
X214435202Y-63580195D01*
X214417979Y-63559209D01*
X214334231Y-63490478D01*
X214238683Y-63439407D01*
X214135008Y-63407957D01*
X214054207Y-63399999D01*
X214054197Y-63399999D01*
X214027189Y-63397339D01*
X214000181Y-63399999D01*
X210127008Y-63399999D01*
X210100000Y-63397339D01*
X210072992Y-63399999D01*
X210072983Y-63399999D01*
X209992182Y-63407957D01*
X209888507Y-63439407D01*
X209846571Y-63461822D01*
X209792958Y-63490478D01*
X209730196Y-63541986D01*
X209730191Y-63541991D01*
X209709211Y-63559209D01*
X209691993Y-63580189D01*
X208422183Y-64850000D01*
X208266282Y-64850000D01*
X208102064Y-64882665D01*
X207947374Y-64946740D01*
X207808156Y-65039762D01*
X207689762Y-65158156D01*
X207596740Y-65297374D01*
X207532665Y-65452064D01*
X207500000Y-65616282D01*
X205800010Y-65616282D01*
X205767345Y-65452064D01*
X205703270Y-65297374D01*
X205610248Y-65158156D01*
X205491854Y-65039762D01*
X205352636Y-64946740D01*
X205197946Y-64882665D01*
X205033728Y-64850000D01*
X204866292Y-64850000D01*
X204800010Y-64863184D01*
X204800010Y-64363809D01*
X205657198Y-63506621D01*
X205702717Y-63616512D01*
X205795739Y-63755730D01*
X205914133Y-63874124D01*
X206053351Y-63967146D01*
X206208041Y-64031221D01*
X206372259Y-64063886D01*
X206539695Y-64063886D01*
X206703913Y-64031221D01*
X206858603Y-63967146D01*
X206997821Y-63874124D01*
X207116215Y-63755730D01*
X207134129Y-63728920D01*
X207165246Y-63741809D01*
X207329464Y-63774474D01*
X207496900Y-63774474D01*
X207661118Y-63741809D01*
X207815808Y-63677734D01*
X207955026Y-63584712D01*
X208073420Y-63466318D01*
X208166442Y-63327100D01*
X208230517Y-63172410D01*
X208263182Y-63008192D01*
X208263182Y-62840756D01*
X208230517Y-62676538D01*
X208166442Y-62521848D01*
X208073420Y-62382630D01*
X207955026Y-62264236D01*
X207815808Y-62171214D01*
X207661118Y-62107139D01*
X207496900Y-62074474D01*
X207329464Y-62074474D01*
X207165246Y-62107139D01*
X207010556Y-62171214D01*
X206900003Y-62245083D01*
X206900003Y-62216282D01*
X206867338Y-62052064D01*
X206826827Y-61954262D01*
X206936153Y-61881213D01*
X207054547Y-61762819D01*
X207147569Y-61623601D01*
X207211644Y-61468911D01*
X207244309Y-61304693D01*
X207244309Y-61148792D01*
X207643101Y-60750000D01*
X217175254Y-60750000D01*
X217156511Y-60811785D01*
X217147823Y-60900000D01*
X217147823Y-61700000D01*
X217156511Y-61788215D01*
X217182243Y-61873041D01*
X217224029Y-61951216D01*
X217280263Y-62019737D01*
X217348784Y-62075971D01*
X217426959Y-62117757D01*
X217511785Y-62143489D01*
X217600000Y-62152177D01*
X219100000Y-62152177D01*
X219188215Y-62143489D01*
X219273041Y-62117757D01*
X219351216Y-62075971D01*
X219419737Y-62019737D01*
X219475971Y-61951216D01*
X219517757Y-61873041D01*
X219543489Y-61788215D01*
X219552177Y-61700000D01*
X219552177Y-60900000D01*
X219543489Y-60811785D01*
X219524746Y-60750000D01*
X219543489Y-60688215D01*
X219552177Y-60600000D01*
X219552177Y-59800000D01*
X219543489Y-59711785D01*
X219524746Y-59650000D01*
X219543489Y-59588215D01*
X219552177Y-59500000D01*
X219552177Y-58750000D01*
X219942495Y-58750000D01*
X219947374Y-58753260D01*
X220102064Y-58817335D01*
X220266282Y-58850000D01*
X220433718Y-58850000D01*
X220597936Y-58817335D01*
X220752626Y-58753260D01*
X220891844Y-58660238D01*
X221010238Y-58541844D01*
X221103260Y-58402626D01*
X221167335Y-58247936D01*
X221200000Y-58083718D01*
X221200000Y-57916282D01*
X221167335Y-57752064D01*
X221103260Y-57597374D01*
X221010238Y-57458156D01*
X220891844Y-57339762D01*
X220752626Y-57246740D01*
X220597936Y-57182665D01*
X220433718Y-57150000D01*
X220266282Y-57150000D01*
X220102064Y-57182665D01*
X219947374Y-57246740D01*
X219942495Y-57250000D01*
X219552177Y-57250000D01*
X219552177Y-56500000D01*
X219543489Y-56411785D01*
X219517757Y-56326959D01*
X219475971Y-56248784D01*
X219419737Y-56180263D01*
X219351216Y-56124029D01*
X219273041Y-56082243D01*
X219188215Y-56056511D01*
X219100000Y-56047823D01*
X217600000Y-56047823D01*
X217511785Y-56056511D01*
X217426959Y-56082243D01*
X217348784Y-56124029D01*
X217280263Y-56180263D01*
X217224029Y-56248784D01*
X217182243Y-56326959D01*
X217175254Y-56350000D01*
X216971606Y-56350000D01*
X217003260Y-56302626D01*
X217067335Y-56147936D01*
X217100000Y-55983718D01*
X217100000Y-55816282D01*
X217067335Y-55652064D01*
X217003260Y-55497374D01*
X216910238Y-55358156D01*
X216802082Y-55250000D01*
X217175254Y-55250000D01*
X217182243Y-55273041D01*
X217224029Y-55351216D01*
X217280263Y-55419737D01*
X217348784Y-55475971D01*
X217426959Y-55517757D01*
X217511785Y-55543489D01*
X217600000Y-55552177D01*
X219100000Y-55552177D01*
X219188215Y-55543489D01*
X219273041Y-55517757D01*
X219351216Y-55475971D01*
X219419737Y-55419737D01*
X219475971Y-55351216D01*
X219517757Y-55273041D01*
X219543489Y-55188215D01*
X219552177Y-55100000D01*
X219552177Y-54300000D01*
X219543489Y-54211785D01*
X219524746Y-54150000D01*
X219543489Y-54088215D01*
X219552177Y-54000000D01*
X219552177Y-53200000D01*
X219543489Y-53111785D01*
X219517757Y-53026959D01*
X219475971Y-52948784D01*
X219419737Y-52880263D01*
X219351216Y-52824029D01*
X219273041Y-52782243D01*
X219188215Y-52756511D01*
X219100000Y-52747823D01*
X217600000Y-52747823D01*
X217511785Y-52756511D01*
X217426959Y-52782243D01*
X217348784Y-52824029D01*
X217280263Y-52880263D01*
X217224029Y-52948784D01*
X217182243Y-53026959D01*
X217156511Y-53111785D01*
X217147823Y-53200000D01*
X217147823Y-54000000D01*
X217156511Y-54088215D01*
X217175254Y-54150000D01*
X209049359Y-54150000D01*
X209022348Y-54147340D01*
X208995337Y-54150000D01*
X208995330Y-54150000D01*
X208914529Y-54157958D01*
X208810853Y-54189408D01*
X208768989Y-54211785D01*
X208715306Y-54240479D01*
X208631558Y-54309210D01*
X208614335Y-54330196D01*
X201580212Y-61364319D01*
X201559232Y-61381537D01*
X201542014Y-61402517D01*
X201542008Y-61402523D01*
X201490500Y-61465285D01*
X201439430Y-61560833D01*
X201407980Y-61664509D01*
X201397361Y-61772327D01*
X201400022Y-61799345D01*
X201400022Y-61854231D01*
X201347942Y-61832659D01*
X201183724Y-61799994D01*
X201016288Y-61799994D01*
X200852070Y-61832659D01*
X200697380Y-61896734D01*
X200558162Y-61989756D01*
X200439768Y-62108150D01*
X200346746Y-62247368D01*
X200282671Y-62402058D01*
X200250006Y-62566276D01*
X200250006Y-62733712D01*
X200282671Y-62897930D01*
X200346746Y-63052620D01*
X200439768Y-63191838D01*
X200558162Y-63310232D01*
X200697380Y-63403254D01*
X200852070Y-63467329D01*
X201016288Y-63499994D01*
X201183724Y-63499994D01*
X201347942Y-63467329D01*
X201400022Y-63445757D01*
X201400021Y-71373013D01*
X201397361Y-71400021D01*
X201400021Y-71427029D01*
X201400021Y-71427038D01*
X201407979Y-71507839D01*
X201439429Y-71611514D01*
X201490500Y-71707063D01*
X201559231Y-71790811D01*
X201580217Y-71808034D01*
X201792829Y-72020646D01*
X201792829Y-72176547D01*
X201825494Y-72340765D01*
X201889569Y-72495455D01*
X201982591Y-72634673D01*
X202100985Y-72753067D01*
X202240203Y-72846089D01*
X202394893Y-72910164D01*
X202418869Y-72914933D01*
X202418869Y-72958728D01*
X202451534Y-73122946D01*
X202515609Y-73277636D01*
X202608631Y-73416854D01*
X202727025Y-73535248D01*
X202866243Y-73628270D01*
X203020933Y-73692345D01*
X203127513Y-73713545D01*
X203047374Y-73746740D01*
X202908156Y-73839762D01*
X202789762Y-73958156D01*
X202696740Y-74097374D01*
X202632665Y-74252064D01*
X202600000Y-74416282D01*
X202600000Y-74583718D01*
X202632665Y-74747936D01*
X202696740Y-74902626D01*
X202789762Y-75041844D01*
X202908156Y-75160238D01*
X203047374Y-75253260D01*
X203160214Y-75300000D01*
X203047374Y-75346740D01*
X202908156Y-75439762D01*
X202789762Y-75558156D01*
X202696740Y-75697374D01*
X202632665Y-75852064D01*
X202600000Y-76016282D01*
X202600000Y-76183718D01*
X202632665Y-76347936D01*
X202696740Y-76502626D01*
X202789762Y-76641844D01*
X202908156Y-76760238D01*
X203047374Y-76853260D01*
X203202064Y-76917335D01*
X203366282Y-76950000D01*
X203533718Y-76950000D01*
X203697936Y-76917335D01*
X203852626Y-76853260D01*
X203991844Y-76760238D01*
X204110238Y-76641844D01*
X204203260Y-76502626D01*
X204267335Y-76347936D01*
X204300000Y-76183718D01*
X204300000Y-76016282D01*
X204267335Y-75852064D01*
X204203260Y-75697374D01*
X204110238Y-75558156D01*
X203991844Y-75439762D01*
X203852626Y-75346740D01*
X203739786Y-75300000D01*
X203852626Y-75253260D01*
X203991844Y-75160238D01*
X204110238Y-75041844D01*
X204203260Y-74902626D01*
X204251352Y-74786521D01*
X204289761Y-74844004D01*
X204408155Y-74962398D01*
X204547373Y-75055420D01*
X204702063Y-75119495D01*
X204866281Y-75152160D01*
X205033717Y-75152160D01*
X205099999Y-75138976D01*
X205100000Y-81960979D01*
X205097339Y-81987997D01*
X205107958Y-82095815D01*
X205139408Y-82199491D01*
X205190478Y-82295039D01*
X205241986Y-82357801D01*
X205241992Y-82357807D01*
X205259210Y-82378787D01*
X205280190Y-82396005D01*
X208675293Y-85791109D01*
X208630804Y-85799958D01*
X208394219Y-85897955D01*
X208181298Y-86040224D01*
X208000224Y-86221298D01*
X207857955Y-86434219D01*
X207759958Y-86670804D01*
X207740000Y-86771140D01*
X207720042Y-86670804D01*
X207622045Y-86434219D01*
X207479776Y-86221298D01*
X207298702Y-86040224D01*
X207085781Y-85897955D01*
X206849196Y-85799958D01*
X206598039Y-85750000D01*
X206341961Y-85750000D01*
X206090804Y-85799958D01*
X205854219Y-85897955D01*
X205641298Y-86040224D01*
X205460224Y-86221298D01*
X205317955Y-86434219D01*
X205219958Y-86670804D01*
X205200000Y-86771140D01*
X205180042Y-86670804D01*
X205082045Y-86434219D01*
X204939776Y-86221298D01*
X204758702Y-86040224D01*
X204545781Y-85897955D01*
X204309196Y-85799958D01*
X204058039Y-85750000D01*
X203801961Y-85750000D01*
X203550804Y-85799958D01*
X203314219Y-85897955D01*
X203101298Y-86040224D01*
X202920224Y-86221298D01*
X202777955Y-86434219D01*
X202679958Y-86670804D01*
X202660000Y-86771140D01*
X202640042Y-86670804D01*
X202542045Y-86434219D01*
X202399776Y-86221298D01*
X202218702Y-86040224D01*
X202005781Y-85897955D01*
X201769196Y-85799958D01*
X201518039Y-85750000D01*
X201261961Y-85750000D01*
X201010804Y-85799958D01*
X200774219Y-85897955D01*
X200561298Y-86040224D01*
X200380224Y-86221298D01*
X200237955Y-86434219D01*
X200139958Y-86670804D01*
X200120000Y-86771140D01*
X200100042Y-86670804D01*
X200002045Y-86434219D01*
X199859776Y-86221298D01*
X199678702Y-86040224D01*
X199465781Y-85897955D01*
X199229196Y-85799958D01*
X198978039Y-85750000D01*
X198721961Y-85750000D01*
X198470804Y-85799958D01*
X198234219Y-85897955D01*
X198021298Y-86040224D01*
X197840224Y-86221298D01*
X197697955Y-86434219D01*
X197599958Y-86670804D01*
X197580000Y-86771140D01*
X197560042Y-86670804D01*
X197462045Y-86434219D01*
X197319776Y-86221298D01*
X197138702Y-86040224D01*
X196925781Y-85897955D01*
X196689196Y-85799958D01*
X196438039Y-85750000D01*
X196181961Y-85750000D01*
X195930804Y-85799958D01*
X195694219Y-85897955D01*
X195481298Y-86040224D01*
X195300224Y-86221298D01*
X195157955Y-86434219D01*
X195059958Y-86670804D01*
X195010000Y-86921961D01*
X195010000Y-87178039D01*
X195059958Y-87429196D01*
X195157955Y-87665781D01*
X195300224Y-87878702D01*
X195481298Y-88059776D01*
X195694219Y-88202045D01*
X195930804Y-88300042D01*
X196076414Y-88329005D01*
X195920804Y-88359958D01*
X195684219Y-88457955D01*
X195471298Y-88600224D01*
X195290224Y-88781298D01*
X195147955Y-88994219D01*
X195049958Y-89230804D01*
X195000000Y-89481961D01*
X195000000Y-89738039D01*
X195049958Y-89989196D01*
X195147955Y-90225781D01*
X195290224Y-90438702D01*
X195471298Y-90619776D01*
X195684219Y-90762045D01*
X195920804Y-90860042D01*
X196171961Y-90910000D01*
X196428039Y-90910000D01*
X196679196Y-90860042D01*
X196915781Y-90762045D01*
X197128702Y-90619776D01*
X197309776Y-90438702D01*
X197452045Y-90225781D01*
X197550042Y-89989196D01*
X197570000Y-89888860D01*
X197589958Y-89989196D01*
X197687955Y-90225781D01*
X197830224Y-90438702D01*
X198011298Y-90619776D01*
X198224219Y-90762045D01*
X198460804Y-90860042D01*
X198711961Y-90910000D01*
X198968039Y-90910000D01*
X199219196Y-90860042D01*
X199455781Y-90762045D01*
X199668702Y-90619776D01*
X199849776Y-90438702D01*
X199992045Y-90225781D01*
X200090042Y-89989196D01*
X200110000Y-89888860D01*
X200129958Y-89989196D01*
X200227955Y-90225781D01*
X200370224Y-90438702D01*
X200551298Y-90619776D01*
X200764219Y-90762045D01*
X201000804Y-90860042D01*
X201251961Y-90910000D01*
X201508039Y-90910000D01*
X201759196Y-90860042D01*
X201995781Y-90762045D01*
X202208702Y-90619776D01*
X202389776Y-90438702D01*
X202532045Y-90225781D01*
X202630042Y-89989196D01*
X202650000Y-89888860D01*
X202669958Y-89989196D01*
X202767955Y-90225781D01*
X202910224Y-90438702D01*
X203091298Y-90619776D01*
X203304219Y-90762045D01*
X203540804Y-90860042D01*
X203791961Y-90910000D01*
X204048039Y-90910000D01*
X204299196Y-90860042D01*
X204535781Y-90762045D01*
X204748702Y-90619776D01*
X204929776Y-90438702D01*
X205072045Y-90225781D01*
X205170042Y-89989196D01*
X205190000Y-89888860D01*
X205209958Y-89989196D01*
X205307955Y-90225781D01*
X205450224Y-90438702D01*
X205631298Y-90619776D01*
X205844219Y-90762045D01*
X206080804Y-90860042D01*
X206331961Y-90910000D01*
X206588039Y-90910000D01*
X206839196Y-90860042D01*
X207075781Y-90762045D01*
X207288702Y-90619776D01*
X207469776Y-90438702D01*
X207612045Y-90225781D01*
X207710042Y-89989196D01*
X207730000Y-89888860D01*
X207749958Y-89989196D01*
X207847955Y-90225781D01*
X207990224Y-90438702D01*
X208171298Y-90619776D01*
X208384219Y-90762045D01*
X208620804Y-90860042D01*
X208871961Y-90910000D01*
X209128039Y-90910000D01*
X209379196Y-90860042D01*
X209615781Y-90762045D01*
X209828702Y-90619776D01*
X210009776Y-90438702D01*
X210152045Y-90225781D01*
X210250042Y-89989196D01*
X210270000Y-89888860D01*
X210289958Y-89989196D01*
X210387955Y-90225781D01*
X210530224Y-90438702D01*
X210711298Y-90619776D01*
X210924219Y-90762045D01*
X211160804Y-90860042D01*
X211411961Y-90910000D01*
X211668039Y-90910000D01*
X211919196Y-90860042D01*
X212155781Y-90762045D01*
X212368702Y-90619776D01*
X212549776Y-90438702D01*
X212692045Y-90225781D01*
X212790042Y-89989196D01*
X212821989Y-89828586D01*
X212849958Y-89969196D01*
X212947955Y-90205781D01*
X213090224Y-90418702D01*
X213271298Y-90599776D01*
X213484219Y-90742045D01*
X213720804Y-90840042D01*
X213821140Y-90860000D01*
X213720804Y-90879958D01*
X213484219Y-90977955D01*
X213271298Y-91120224D01*
X213090224Y-91301298D01*
X212947955Y-91514219D01*
X212849958Y-91750804D01*
X212800000Y-92001961D01*
X212800000Y-92258039D01*
X212849958Y-92509196D01*
X212947955Y-92745781D01*
X213090224Y-92958702D01*
X213156522Y-93025000D01*
X191086523Y-93025000D01*
X191061099Y-93005970D01*
X190874259Y-92819075D01*
X190715975Y-92607485D01*
X190589455Y-92375487D01*
X190497285Y-92127826D01*
X190441350Y-91869564D01*
X190422411Y-91600590D01*
X190422423Y-91590366D01*
X190460000Y-91401455D01*
X190460000Y-90938545D01*
X190423426Y-90754674D01*
X190425271Y-89216282D01*
X192750000Y-89216282D01*
X192750000Y-89383718D01*
X192782665Y-89547936D01*
X192846740Y-89702626D01*
X192939762Y-89841844D01*
X193058156Y-89960238D01*
X193197374Y-90053260D01*
X193352064Y-90117335D01*
X193516282Y-90150000D01*
X193683718Y-90150000D01*
X193847936Y-90117335D01*
X194002626Y-90053260D01*
X194141844Y-89960238D01*
X194260238Y-89841844D01*
X194353260Y-89702626D01*
X194417335Y-89547936D01*
X194450000Y-89383718D01*
X194450000Y-89216282D01*
X194417335Y-89052064D01*
X194353260Y-88897374D01*
X194260238Y-88758156D01*
X194141844Y-88639762D01*
X194002626Y-88546740D01*
X193847936Y-88482665D01*
X193683718Y-88450000D01*
X193516282Y-88450000D01*
X193352064Y-88482665D01*
X193197374Y-88546740D01*
X193058156Y-88639762D01*
X192939762Y-88758156D01*
X192846740Y-88897374D01*
X192782665Y-89052064D01*
X192750000Y-89216282D01*
X190425271Y-89216282D01*
X190426693Y-88031377D01*
X190427012Y-88030852D01*
X190449869Y-87994371D01*
X190452779Y-87988421D01*
X190452784Y-87988413D01*
X190452787Y-87988404D01*
X190642149Y-87594379D01*
X190656937Y-87553898D01*
X190672257Y-87513713D01*
X190673959Y-87507303D01*
X190783182Y-87083991D01*
X190789817Y-87041465D01*
X190797049Y-86999015D01*
X190797473Y-86992396D01*
X190821839Y-86565666D01*
X190823165Y-86552212D01*
X190823183Y-86236454D01*
X190891282Y-86250000D01*
X191058718Y-86250000D01*
X191222936Y-86217335D01*
X191377626Y-86153260D01*
X191516844Y-86060238D01*
X191635238Y-85941844D01*
X191728260Y-85802626D01*
X191780935Y-85675458D01*
X191897374Y-85753260D01*
X192052064Y-85817335D01*
X192216282Y-85850000D01*
X192383718Y-85850000D01*
X192547936Y-85817335D01*
X192702626Y-85753260D01*
X192841844Y-85660238D01*
X192960238Y-85541844D01*
X193053260Y-85402626D01*
X193117335Y-85247936D01*
X193150000Y-85083718D01*
X193150000Y-84916282D01*
X193117335Y-84752064D01*
X193053260Y-84597374D01*
X192960238Y-84458156D01*
X192841844Y-84339762D01*
X192702626Y-84246740D01*
X192547936Y-84182665D01*
X192383718Y-84150000D01*
X192216282Y-84150000D01*
X192052064Y-84182665D01*
X191897374Y-84246740D01*
X191758156Y-84339762D01*
X191639762Y-84458156D01*
X191546740Y-84597374D01*
X191494065Y-84724542D01*
X191377626Y-84646740D01*
X191299999Y-84614586D01*
X191299999Y-76936815D01*
X191366282Y-76950000D01*
X191533718Y-76950000D01*
X191697936Y-76917335D01*
X191852626Y-76853260D01*
X191991844Y-76760238D01*
X192110238Y-76641844D01*
X192203260Y-76502626D01*
X192267335Y-76347936D01*
X192300000Y-76183718D01*
X192300000Y-76016282D01*
X192267335Y-75852064D01*
X192203260Y-75697374D01*
X192110238Y-75558156D01*
X191991844Y-75439762D01*
X191852626Y-75346740D01*
X191697936Y-75282665D01*
X191533718Y-75250000D01*
X191366282Y-75250000D01*
X191299999Y-75263185D01*
X191299999Y-74416282D01*
X199500000Y-74416282D01*
X199500000Y-74583718D01*
X199532665Y-74747936D01*
X199596740Y-74902626D01*
X199689762Y-75041844D01*
X199808156Y-75160238D01*
X199947374Y-75253260D01*
X200060214Y-75300000D01*
X199947374Y-75346740D01*
X199808156Y-75439762D01*
X199689762Y-75558156D01*
X199596740Y-75697374D01*
X199532665Y-75852064D01*
X199500000Y-76016282D01*
X199500000Y-76183718D01*
X199532665Y-76347936D01*
X199596740Y-76502626D01*
X199689762Y-76641844D01*
X199808156Y-76760238D01*
X199947374Y-76853260D01*
X200102064Y-76917335D01*
X200266282Y-76950000D01*
X200433718Y-76950000D01*
X200597936Y-76917335D01*
X200752626Y-76853260D01*
X200891844Y-76760238D01*
X201010238Y-76641844D01*
X201103260Y-76502626D01*
X201167335Y-76347936D01*
X201200000Y-76183718D01*
X201200000Y-76016282D01*
X201167335Y-75852064D01*
X201103260Y-75697374D01*
X201010238Y-75558156D01*
X200891844Y-75439762D01*
X200752626Y-75346740D01*
X200639786Y-75300000D01*
X200752626Y-75253260D01*
X200891844Y-75160238D01*
X201010238Y-75041844D01*
X201103260Y-74902626D01*
X201167335Y-74747936D01*
X201200000Y-74583718D01*
X201200000Y-74416282D01*
X201167335Y-74252064D01*
X201103260Y-74097374D01*
X201010238Y-73958156D01*
X200891844Y-73839762D01*
X200752626Y-73746740D01*
X200597936Y-73682665D01*
X200433718Y-73650000D01*
X200266282Y-73650000D01*
X200102064Y-73682665D01*
X199947374Y-73746740D01*
X199808156Y-73839762D01*
X199689762Y-73958156D01*
X199596740Y-74097374D01*
X199532665Y-74252064D01*
X199500000Y-74416282D01*
X191299999Y-74416282D01*
X191299999Y-70916282D01*
X194150000Y-70916282D01*
X194150000Y-71083718D01*
X194182665Y-71247936D01*
X194246740Y-71402626D01*
X194339762Y-71541844D01*
X194458156Y-71660238D01*
X194597374Y-71753260D01*
X194752064Y-71817335D01*
X194916282Y-71850000D01*
X195083718Y-71850000D01*
X195247936Y-71817335D01*
X195402626Y-71753260D01*
X195541844Y-71660238D01*
X195660238Y-71541844D01*
X195753260Y-71402626D01*
X195817335Y-71247936D01*
X195850000Y-71083718D01*
X195850000Y-70916282D01*
X195817335Y-70752064D01*
X195753260Y-70597374D01*
X195660238Y-70458156D01*
X195541844Y-70339762D01*
X195402626Y-70246740D01*
X195247936Y-70182665D01*
X195083718Y-70150000D01*
X194916282Y-70150000D01*
X194752064Y-70182665D01*
X194597374Y-70246740D01*
X194458156Y-70339762D01*
X194339762Y-70458156D01*
X194246740Y-70597374D01*
X194182665Y-70752064D01*
X194150000Y-70916282D01*
X191299999Y-70916282D01*
X191299999Y-69125996D01*
X191446230Y-69186567D01*
X191614312Y-69220000D01*
X191785688Y-69220000D01*
X191953770Y-69186567D01*
X192112100Y-69120984D01*
X192254593Y-69025773D01*
X192264084Y-69016282D01*
X194150000Y-69016282D01*
X194150000Y-69183718D01*
X194182665Y-69347936D01*
X194246740Y-69502626D01*
X194339762Y-69641844D01*
X194458156Y-69760238D01*
X194597374Y-69853260D01*
X194752064Y-69917335D01*
X194916282Y-69950000D01*
X195083718Y-69950000D01*
X195247936Y-69917335D01*
X195402626Y-69853260D01*
X195541844Y-69760238D01*
X195660238Y-69641844D01*
X195753260Y-69502626D01*
X195817335Y-69347936D01*
X195850000Y-69183718D01*
X195850000Y-69016282D01*
X195817335Y-68852064D01*
X195753260Y-68697374D01*
X195685258Y-68595601D01*
X199279319Y-68595601D01*
X199279319Y-68763037D01*
X199311984Y-68927255D01*
X199376059Y-69081945D01*
X199469081Y-69221163D01*
X199587475Y-69339557D01*
X199726693Y-69432579D01*
X199881383Y-69496654D01*
X200045601Y-69529319D01*
X200213037Y-69529319D01*
X200377255Y-69496654D01*
X200531945Y-69432579D01*
X200671163Y-69339557D01*
X200789557Y-69221163D01*
X200882579Y-69081945D01*
X200946654Y-68927255D01*
X200979319Y-68763037D01*
X200979319Y-68595601D01*
X200946654Y-68431383D01*
X200882579Y-68276693D01*
X200789557Y-68137475D01*
X200671163Y-68019081D01*
X200531945Y-67926059D01*
X200377255Y-67861984D01*
X200213037Y-67829319D01*
X200045601Y-67829319D01*
X199881383Y-67861984D01*
X199726693Y-67926059D01*
X199587475Y-68019081D01*
X199469081Y-68137475D01*
X199376059Y-68276693D01*
X199311984Y-68431383D01*
X199279319Y-68595601D01*
X195685258Y-68595601D01*
X195660238Y-68558156D01*
X195541844Y-68439762D01*
X195402626Y-68346740D01*
X195247936Y-68282665D01*
X195083718Y-68250000D01*
X194916282Y-68250000D01*
X194752064Y-68282665D01*
X194597374Y-68346740D01*
X194458156Y-68439762D01*
X194339762Y-68558156D01*
X194246740Y-68697374D01*
X194182665Y-68852064D01*
X194150000Y-69016282D01*
X192264084Y-69016282D01*
X192375773Y-68904593D01*
X192470984Y-68762100D01*
X192536567Y-68603770D01*
X192545987Y-68556410D01*
X192614312Y-68570000D01*
X192785688Y-68570000D01*
X192953770Y-68536567D01*
X193112100Y-68470984D01*
X193254593Y-68375773D01*
X193375773Y-68254593D01*
X193470984Y-68112100D01*
X193536567Y-67953770D01*
X193570000Y-67785688D01*
X193570000Y-67614312D01*
X193536567Y-67446230D01*
X193470984Y-67287900D01*
X193395979Y-67175648D01*
X193439737Y-67139737D01*
X193495971Y-67071216D01*
X193537757Y-66993041D01*
X193563489Y-66908215D01*
X193572177Y-66820000D01*
X193572177Y-65980000D01*
X193563489Y-65891785D01*
X193537757Y-65806959D01*
X193495971Y-65728784D01*
X193439737Y-65660263D01*
X193371216Y-65604029D01*
X193293041Y-65562243D01*
X193208215Y-65536511D01*
X193120000Y-65527823D01*
X192280000Y-65527823D01*
X192191785Y-65536511D01*
X192106959Y-65562243D01*
X192028784Y-65604029D01*
X191960263Y-65660263D01*
X191904029Y-65728784D01*
X191862243Y-65806959D01*
X191836511Y-65891785D01*
X191827823Y-65980000D01*
X191827823Y-66188381D01*
X191785688Y-66180000D01*
X191614312Y-66180000D01*
X191446230Y-66213433D01*
X191299999Y-66274004D01*
X191299999Y-62703816D01*
X193071680Y-62703816D01*
X193071680Y-62871252D01*
X193104345Y-63035470D01*
X193168420Y-63190160D01*
X193261442Y-63329378D01*
X193379836Y-63447772D01*
X193519054Y-63540794D01*
X193673744Y-63604869D01*
X193837962Y-63637534D01*
X194005398Y-63637534D01*
X194169616Y-63604869D01*
X194324306Y-63540794D01*
X194463524Y-63447772D01*
X194581918Y-63329378D01*
X194674940Y-63190160D01*
X194739015Y-63035470D01*
X194771680Y-62871252D01*
X194771680Y-62703816D01*
X194739015Y-62539598D01*
X194674940Y-62384908D01*
X194581918Y-62245690D01*
X194463524Y-62127296D01*
X194324306Y-62034274D01*
X194169616Y-61970199D01*
X194005398Y-61937534D01*
X193837962Y-61937534D01*
X193673744Y-61970199D01*
X193519054Y-62034274D01*
X193379836Y-62127296D01*
X193261442Y-62245690D01*
X193168420Y-62384908D01*
X193104345Y-62539598D01*
X193071680Y-62703816D01*
X191299999Y-62703816D01*
X191299999Y-62527818D01*
X192886535Y-60941282D01*
X194950000Y-60941282D01*
X194950000Y-61108718D01*
X194982665Y-61272936D01*
X195046740Y-61427626D01*
X195139762Y-61566844D01*
X195258156Y-61685238D01*
X195397374Y-61778260D01*
X195552064Y-61842335D01*
X195716282Y-61875000D01*
X195883718Y-61875000D01*
X196047936Y-61842335D01*
X196202626Y-61778260D01*
X196341844Y-61685238D01*
X196460238Y-61566844D01*
X196553260Y-61427626D01*
X196600000Y-61314786D01*
X196646740Y-61427626D01*
X196739762Y-61566844D01*
X196858156Y-61685238D01*
X196997374Y-61778260D01*
X197152064Y-61842335D01*
X197316282Y-61875000D01*
X197483718Y-61875000D01*
X197647936Y-61842335D01*
X197802626Y-61778260D01*
X197941844Y-61685238D01*
X198060238Y-61566844D01*
X198153260Y-61427626D01*
X198217335Y-61272936D01*
X198250000Y-61108718D01*
X198250000Y-60941282D01*
X198217335Y-60777064D01*
X198153260Y-60622374D01*
X198060238Y-60483156D01*
X197941844Y-60364762D01*
X197802626Y-60271740D01*
X197647936Y-60207665D01*
X197483718Y-60175000D01*
X197316282Y-60175000D01*
X197152064Y-60207665D01*
X196997374Y-60271740D01*
X196858156Y-60364762D01*
X196739762Y-60483156D01*
X196646740Y-60622374D01*
X196600000Y-60735214D01*
X196553260Y-60622374D01*
X196460238Y-60483156D01*
X196341844Y-60364762D01*
X196202626Y-60271740D01*
X196047936Y-60207665D01*
X195883718Y-60175000D01*
X195716282Y-60175000D01*
X195552064Y-60207665D01*
X195397374Y-60271740D01*
X195258156Y-60364762D01*
X195139762Y-60483156D01*
X195046740Y-60622374D01*
X194982665Y-60777064D01*
X194950000Y-60941282D01*
X192886535Y-60941282D01*
X193377818Y-60450000D01*
X193533718Y-60450000D01*
X193697936Y-60417335D01*
X193852626Y-60353260D01*
X193991844Y-60260238D01*
X194110238Y-60141844D01*
X194203260Y-60002626D01*
X194267335Y-59847936D01*
X194300000Y-59683718D01*
X194300000Y-59516282D01*
X194267335Y-59352064D01*
X194203260Y-59197374D01*
X194110238Y-59058156D01*
X193991844Y-58939762D01*
X193852626Y-58846740D01*
X193697936Y-58782665D01*
X193533718Y-58750000D01*
X193366282Y-58750000D01*
X193202064Y-58782665D01*
X193047374Y-58846740D01*
X192908156Y-58939762D01*
X192789762Y-59058156D01*
X192696740Y-59197374D01*
X192632665Y-59352064D01*
X192600000Y-59516282D01*
X192600000Y-59672182D01*
X190824600Y-61447583D01*
X190824998Y-54472604D01*
X190825069Y-54471863D01*
X190825000Y-54449439D01*
X190825001Y-54426696D01*
X190824927Y-54425945D01*
X190813180Y-50624956D01*
X190814928Y-50533430D01*
X190812961Y-50508470D01*
X190813248Y-50483423D01*
X190812630Y-50476820D01*
X190768874Y-50041839D01*
X190760403Y-49999616D01*
X190752528Y-49957305D01*
X190750639Y-49950947D01*
X190623229Y-49532750D01*
X190606723Y-49492988D01*
X190590774Y-49452999D01*
X190587686Y-49447130D01*
X190473242Y-49233193D01*
X190477598Y-45602526D01*
X190497093Y-45334212D01*
X190553391Y-45076646D01*
X190645737Y-44829705D01*
X190772259Y-44598394D01*
X190930378Y-44387429D01*
X191116889Y-44201085D01*
X191218592Y-44125000D01*
X199255080Y-44125000D01*
X199158156Y-44189762D01*
G37*
%TD.AperFunction*%
D24*
X218150001Y-79422181D02*
X214167158Y-83405025D01*
X214011257Y-83405025D01*
X213847039Y-83437690D01*
X213692349Y-83501765D01*
X213553131Y-83594787D01*
X213434737Y-83713181D01*
X213397191Y-83769373D01*
X208659660Y-79031842D01*
X211421274Y-79031842D01*
X211421274Y-79199278D01*
X211453939Y-79363496D01*
X211518014Y-79518186D01*
X211611036Y-79657404D01*
X211729430Y-79775798D01*
X211868648Y-79868820D01*
X212023338Y-79932895D01*
X212187556Y-79965560D01*
X212354992Y-79965560D01*
X212519210Y-79932895D01*
X212673900Y-79868820D01*
X212813118Y-79775798D01*
X212931512Y-79657404D01*
X213024534Y-79518186D01*
X213088609Y-79363496D01*
X213121274Y-79199278D01*
X213121274Y-79031842D01*
X213088609Y-78867624D01*
X213024534Y-78712934D01*
X212931512Y-78573716D01*
X212813118Y-78455322D01*
X212673900Y-78362300D01*
X212519210Y-78298225D01*
X212354992Y-78265560D01*
X212187556Y-78265560D01*
X212023338Y-78298225D01*
X211868648Y-78362300D01*
X211729430Y-78455322D01*
X211611036Y-78573716D01*
X211518014Y-78712934D01*
X211453939Y-78867624D01*
X211421274Y-79031842D01*
X208659660Y-79031842D01*
X208449798Y-78821981D01*
X208449798Y-75452085D01*
X208560036Y-75341847D01*
X208653058Y-75202629D01*
X208717133Y-75047939D01*
X208749798Y-74883721D01*
X208749798Y-74716285D01*
X208736613Y-74650002D01*
X212886183Y-74650002D01*
X213755986Y-75519805D01*
X213773209Y-75540791D01*
X213794195Y-75558014D01*
X213856957Y-75609522D01*
X213952504Y-75660593D01*
X214056177Y-75692042D01*
X214056180Y-75692043D01*
X214136981Y-75700001D01*
X214136988Y-75700001D01*
X214163999Y-75702661D01*
X214191010Y-75700001D01*
X214808993Y-75700001D01*
X214836001Y-75702661D01*
X214863009Y-75700001D01*
X214863019Y-75700001D01*
X214943820Y-75692043D01*
X215047495Y-75660593D01*
X215143043Y-75609522D01*
X215226791Y-75540791D01*
X215244014Y-75519805D01*
X218150002Y-72613818D01*
X218150001Y-79422181D01*
%TA.AperFunction,Conductor*%
D25*
G36*
X218150001Y-79422181D02*
G01*
X214167158Y-83405025D01*
X214011257Y-83405025D01*
X213847039Y-83437690D01*
X213692349Y-83501765D01*
X213553131Y-83594787D01*
X213434737Y-83713181D01*
X213397191Y-83769373D01*
X208659660Y-79031842D01*
X211421274Y-79031842D01*
X211421274Y-79199278D01*
X211453939Y-79363496D01*
X211518014Y-79518186D01*
X211611036Y-79657404D01*
X211729430Y-79775798D01*
X211868648Y-79868820D01*
X212023338Y-79932895D01*
X212187556Y-79965560D01*
X212354992Y-79965560D01*
X212519210Y-79932895D01*
X212673900Y-79868820D01*
X212813118Y-79775798D01*
X212931512Y-79657404D01*
X213024534Y-79518186D01*
X213088609Y-79363496D01*
X213121274Y-79199278D01*
X213121274Y-79031842D01*
X213088609Y-78867624D01*
X213024534Y-78712934D01*
X212931512Y-78573716D01*
X212813118Y-78455322D01*
X212673900Y-78362300D01*
X212519210Y-78298225D01*
X212354992Y-78265560D01*
X212187556Y-78265560D01*
X212023338Y-78298225D01*
X211868648Y-78362300D01*
X211729430Y-78455322D01*
X211611036Y-78573716D01*
X211518014Y-78712934D01*
X211453939Y-78867624D01*
X211421274Y-79031842D01*
X208659660Y-79031842D01*
X208449798Y-78821981D01*
X208449798Y-75452085D01*
X208560036Y-75341847D01*
X208653058Y-75202629D01*
X208717133Y-75047939D01*
X208749798Y-74883721D01*
X208749798Y-74716285D01*
X208736613Y-74650002D01*
X212886183Y-74650002D01*
X213755986Y-75519805D01*
X213773209Y-75540791D01*
X213794195Y-75558014D01*
X213856957Y-75609522D01*
X213952504Y-75660593D01*
X214056177Y-75692042D01*
X214056180Y-75692043D01*
X214136981Y-75700001D01*
X214136988Y-75700001D01*
X214163999Y-75702661D01*
X214191010Y-75700001D01*
X214808993Y-75700001D01*
X214836001Y-75702661D01*
X214863009Y-75700001D01*
X214863019Y-75700001D01*
X214943820Y-75692043D01*
X215047495Y-75660593D01*
X215143043Y-75609522D01*
X215226791Y-75540791D01*
X215244014Y-75519805D01*
X218150002Y-72613818D01*
X218150001Y-79422181D01*
G37*
%TD.AperFunction*%
D24*
X214608184Y-74600001D02*
X214391816Y-74600001D01*
X214041814Y-74249999D01*
X214622993Y-74249999D01*
X214650001Y-74252659D01*
X214677009Y-74249999D01*
X214677019Y-74249999D01*
X214757820Y-74242041D01*
X214861495Y-74210591D01*
X214957043Y-74159520D01*
X215040791Y-74090789D01*
X215058014Y-74069803D01*
X216727817Y-72400000D01*
X216808184Y-72400000D01*
X214608184Y-74600001D01*
%TA.AperFunction,Conductor*%
D25*
G36*
X214608184Y-74600001D02*
G01*
X214391816Y-74600001D01*
X214041814Y-74249999D01*
X214622993Y-74249999D01*
X214650001Y-74252659D01*
X214677009Y-74249999D01*
X214677019Y-74249999D01*
X214757820Y-74242041D01*
X214861495Y-74210591D01*
X214957043Y-74159520D01*
X215040791Y-74090789D01*
X215058014Y-74069803D01*
X216727817Y-72400000D01*
X216808184Y-72400000D01*
X214608184Y-74600001D01*
G37*
%TD.AperFunction*%
%TD*%
M02*
