%TF.GenerationSoftware,KiCad,Pcbnew,(5.1.10-1-10_14)*%
%TF.CreationDate,2021-12-24T07:56:15-05:00*%
%TF.ProjectId,hermes_v1,6865726d-6573-45f7-9631-2e6b69636164,rev?*%
%TF.SameCoordinates,Original*%
%TF.FileFunction,Soldermask,Bot*%
%TF.FilePolarity,Negative*%
%FSLAX46Y46*%
G04 Gerber Fmt 4.6, Leading zero omitted, Abs format (unit mm)*
G04 Created by KiCad (PCBNEW (5.1.10-1-10_14)) date 2021-12-24 07:56:15*
%MOMM*%
%LPD*%
G01*
G04 APERTURE LIST*
%ADD10C,3.800000*%
%ADD11O,1.850000X0.850000*%
%ADD12C,0.840000*%
%ADD13R,0.840000X0.840000*%
%ADD14O,1.700000X1.700000*%
%ADD15R,1.700000X1.700000*%
%ADD16C,1.700000*%
%ADD17R,1.500000X0.800000*%
%ADD18R,2.000000X1.450000*%
G04 APERTURE END LIST*
D10*
%TO.C,H4*%
X188110000Y-45960000D03*
%TD*%
%TO.C,H3*%
X225250000Y-91190000D03*
%TD*%
%TO.C,H2*%
X188110000Y-91170000D03*
%TD*%
%TO.C,H1*%
X225230000Y-45960000D03*
%TD*%
D11*
%TO.C,J2*%
X192480000Y-71275000D03*
X192480000Y-64125000D03*
D12*
X192700000Y-69000000D03*
X191700000Y-68350000D03*
X192700000Y-67700000D03*
X191700000Y-67050000D03*
D13*
X192700000Y-66400000D03*
%TD*%
D14*
%TO.C,J7*%
X221740000Y-92130000D03*
X219200000Y-92130000D03*
X221740000Y-89590000D03*
X219200000Y-89590000D03*
X221740000Y-87050000D03*
D15*
X219200000Y-87050000D03*
%TD*%
D14*
%TO.C,J5*%
X216640000Y-92130000D03*
X214100000Y-92130000D03*
X216640000Y-89590000D03*
X214100000Y-89590000D03*
X216640000Y-87050000D03*
D16*
X214100000Y-87050000D03*
%TD*%
D14*
%TO.C,J4*%
X211540000Y-89610000D03*
X211540000Y-92150000D03*
X209000000Y-89610000D03*
X209000000Y-92150000D03*
X206460000Y-89610000D03*
X206460000Y-92150000D03*
X203920000Y-89610000D03*
X203920000Y-92150000D03*
X201380000Y-89610000D03*
X201380000Y-92150000D03*
X198840000Y-89610000D03*
X198840000Y-92150000D03*
X196300000Y-89610000D03*
D15*
X196300000Y-92150000D03*
%TD*%
D14*
%TO.C,J3*%
X196310000Y-87050000D03*
X198850000Y-87050000D03*
X201390000Y-87050000D03*
X203930000Y-87050000D03*
X206470000Y-87050000D03*
X209010000Y-87050000D03*
D15*
X211550000Y-87050000D03*
%TD*%
D17*
%TO.C,J6*%
X218350000Y-61300000D03*
X218350000Y-60200000D03*
X218350000Y-59100000D03*
X218350000Y-58000000D03*
X218350000Y-56900000D03*
X218350000Y-55800000D03*
X218350000Y-54700000D03*
X218350000Y-53600000D03*
D18*
X212650000Y-51225000D03*
X212650000Y-64975000D03*
X220950000Y-64975000D03*
X220950000Y-51225000D03*
%TD*%
M02*
