%TF.GenerationSoftware,KiCad,Pcbnew,(5.1.10-1-10_14)*%
%TF.CreationDate,2021-12-24T07:56:15-05:00*%
%TF.ProjectId,hermes_v1,6865726d-6573-45f7-9631-2e6b69636164,rev?*%
%TF.SameCoordinates,Original*%
%TF.FileFunction,Copper,L3,Inr*%
%TF.FilePolarity,Positive*%
%FSLAX46Y46*%
G04 Gerber Fmt 4.6, Leading zero omitted, Abs format (unit mm)*
G04 Created by KiCad (PCBNEW (5.1.10-1-10_14)) date 2021-12-24 07:56:15*
%MOMM*%
%LPD*%
G01*
G04 APERTURE LIST*
%TA.AperFunction,ComponentPad*%
%ADD10C,3.800000*%
%TD*%
%TA.AperFunction,ComponentPad*%
%ADD11O,1.850000X0.850000*%
%TD*%
%TA.AperFunction,ComponentPad*%
%ADD12C,0.840000*%
%TD*%
%TA.AperFunction,ComponentPad*%
%ADD13R,0.840000X0.840000*%
%TD*%
%TA.AperFunction,ComponentPad*%
%ADD14O,1.700000X1.700000*%
%TD*%
%TA.AperFunction,ComponentPad*%
%ADD15R,1.700000X1.700000*%
%TD*%
%TA.AperFunction,ComponentPad*%
%ADD16C,1.700000*%
%TD*%
%TA.AperFunction,ComponentPad*%
%ADD17C,0.600000*%
%TD*%
%TA.AperFunction,ViaPad*%
%ADD18C,0.800000*%
%TD*%
%TA.AperFunction,Conductor*%
%ADD19C,0.200000*%
%TD*%
%TA.AperFunction,Conductor*%
%ADD20C,0.400000*%
%TD*%
%TA.AperFunction,Conductor*%
%ADD21C,0.600000*%
%TD*%
%TA.AperFunction,Conductor*%
%ADD22C,0.300000*%
%TD*%
%TA.AperFunction,Conductor*%
%ADD23C,0.100000*%
%TD*%
G04 APERTURE END LIST*
D10*
%TO.N,N/C*%
%TO.C,H4*%
X188110000Y-45960000D03*
%TD*%
%TO.N,N/C*%
%TO.C,H3*%
X225250000Y-91190000D03*
%TD*%
%TO.N,N/C*%
%TO.C,H2*%
X188110000Y-91170000D03*
%TD*%
%TO.N,N/C*%
%TO.C,H1*%
X225230000Y-45960000D03*
%TD*%
D11*
%TO.N,GND*%
%TO.C,J2*%
X192480000Y-71275000D03*
X192480000Y-64125000D03*
D12*
X192700000Y-69000000D03*
%TO.N,Net-(J2-Pad4)*%
X191700000Y-68350000D03*
%TO.N,Net-(J2-Pad3)*%
X192700000Y-67700000D03*
%TO.N,Net-(J2-Pad2)*%
X191700000Y-67050000D03*
D13*
%TO.N,FC_USB_VBUS*%
X192700000Y-66400000D03*
%TD*%
D14*
%TO.N,GND*%
%TO.C,J7*%
X221740000Y-92130000D03*
%TO.N,+5V*%
X219200000Y-92130000D03*
%TO.N,GND*%
X221740000Y-89590000D03*
%TO.N,+5V*%
X219200000Y-89590000D03*
%TO.N,GND*%
X221740000Y-87050000D03*
D15*
%TO.N,3V3_IO*%
X219200000Y-87050000D03*
%TD*%
D14*
%TO.N,FC_UART0_RX*%
%TO.C,J5*%
X216640000Y-92130000D03*
%TO.N,FC_UART0_TX*%
X214100000Y-92130000D03*
%TO.N,FC_UART1_RX*%
X216640000Y-89590000D03*
%TO.N,FC_UART1_TX*%
X214100000Y-89590000D03*
%TO.N,FC_I2C1_SDA*%
X216640000Y-87050000D03*
D16*
%TO.N,FC_I2C1_SCL*%
X214100000Y-87050000D03*
%TD*%
D14*
%TO.N,+5V*%
%TO.C,J4*%
X211540000Y-89610000D03*
%TO.N,GND*%
X211540000Y-92150000D03*
%TO.N,+5V*%
X209000000Y-89610000D03*
%TO.N,GND*%
X209000000Y-92150000D03*
%TO.N,+5V*%
X206460000Y-89610000D03*
%TO.N,GND*%
X206460000Y-92150000D03*
%TO.N,+5V*%
X203920000Y-89610000D03*
%TO.N,GND*%
X203920000Y-92150000D03*
%TO.N,+5V*%
X201380000Y-89610000D03*
%TO.N,GND*%
X201380000Y-92150000D03*
%TO.N,+5V*%
X198840000Y-89610000D03*
%TO.N,GND*%
X198840000Y-92150000D03*
%TO.N,+5V*%
X196300000Y-89610000D03*
D15*
%TO.N,GND*%
X196300000Y-92150000D03*
%TD*%
D14*
%TO.N,FC_RADIO_PPM*%
%TO.C,J3*%
X196310000Y-87050000D03*
%TO.N,FC_SERVO_6*%
X198850000Y-87050000D03*
%TO.N,FC_SERVO_5*%
X201390000Y-87050000D03*
%TO.N,FC_SERVO_4*%
X203930000Y-87050000D03*
%TO.N,FC_SERVO_3*%
X206470000Y-87050000D03*
%TO.N,FC_SERVO_2*%
X209010000Y-87050000D03*
D15*
%TO.N,FC_SERVO_1*%
X211550000Y-87050000D03*
%TD*%
D17*
%TO.N,GND*%
%TO.C,U3*%
X205675000Y-69275000D03*
X205675000Y-68000000D03*
X205675000Y-66725000D03*
X206950000Y-69275000D03*
X206950000Y-68000000D03*
X206950000Y-66725000D03*
X208225000Y-69275000D03*
X208225000Y-68000000D03*
X208225000Y-66725000D03*
%TD*%
D18*
%TO.N,GND*%
X193800000Y-52900000D03*
X193800000Y-51800000D03*
X205150000Y-44900000D03*
X204050000Y-44900000D03*
X204050000Y-47000000D03*
X205150000Y-47000000D03*
X204050000Y-45950000D03*
X205150000Y-45950000D03*
X209050000Y-45950000D03*
X207950000Y-45950000D03*
X209050000Y-44900000D03*
X207950000Y-44900000D03*
X207950000Y-47000000D03*
X209050000Y-47000000D03*
X219550000Y-47000000D03*
X220650000Y-45950000D03*
X219550000Y-45950000D03*
X220650000Y-47000000D03*
X220650000Y-44900000D03*
X219550000Y-44900000D03*
X220950000Y-82350000D03*
X220950000Y-78050000D03*
X214500000Y-74450000D03*
X214700000Y-78250000D03*
X217546776Y-83315647D03*
X212650000Y-49900000D03*
X211050000Y-64700000D03*
X207008856Y-62009857D03*
X219900000Y-66800000D03*
X200100005Y-62650011D03*
X196150731Y-81150731D03*
X221750000Y-58718282D03*
X191400000Y-89300000D03*
X191300000Y-59600000D03*
X191950000Y-47000000D03*
X195800000Y-57550000D03*
X195550000Y-51800000D03*
X195550000Y-52900000D03*
X195350000Y-48300000D03*
X200950000Y-52300000D03*
X220950000Y-49900000D03*
X196070000Y-66920000D03*
%TO.N,+1V1*%
X200129319Y-68679319D03*
X214257101Y-65592887D03*
X201100006Y-62649994D03*
%TO.N,+3V3*%
X216250000Y-55900000D03*
X195000000Y-71000000D03*
%TO.N,VCC*%
X212950000Y-44900000D03*
X212950000Y-45950000D03*
X211850000Y-44900000D03*
X212950000Y-47000000D03*
X211850000Y-47000000D03*
X211850000Y-45950000D03*
X216750000Y-45950000D03*
X215650000Y-47000000D03*
X216750000Y-44900000D03*
X215650000Y-45950000D03*
X216750000Y-47000000D03*
X215650000Y-44900000D03*
X199700000Y-44850000D03*
X200800000Y-45900000D03*
X199700000Y-46950000D03*
X199700000Y-45900000D03*
X200800000Y-44850000D03*
X200800000Y-46950000D03*
%TO.N,+5V*%
X208900000Y-58350000D03*
X195000000Y-69100000D03*
%TO.N,FC_STATUS_BLUE*%
X197400000Y-61025000D03*
X206455977Y-63213886D03*
%TO.N,FC_STATUS_RED*%
X195800000Y-61025000D03*
X208350000Y-65700000D03*
X214993193Y-64916003D03*
%TO.N,FC_STATUS_GREEN*%
X193921680Y-62787534D03*
X207413182Y-62924474D03*
%TO.N,FC_BOOTSEL*%
X190975000Y-85400000D03*
X193450000Y-59600000D03*
%TO.N,FC_RUN*%
X209350000Y-65700000D03*
X193600000Y-89300000D03*
%TO.N,FC_USB_VBUS*%
X213400000Y-58300000D03*
%TO.N,FC_I2C0_SCL*%
X206750010Y-73300000D03*
X216800000Y-71550000D03*
X221878753Y-74202539D03*
%TO.N,FC_I2C0_SDA*%
X206433580Y-74283580D03*
X218000001Y-71601974D03*
%TO.N,FC_I2C1_SCL*%
X214094975Y-84255025D03*
X205050000Y-62300000D03*
X203450000Y-74500000D03*
%TO.N,FC_I2C1_SDA*%
X216650000Y-84300000D03*
X206050003Y-62300000D03*
X203450000Y-76100000D03*
%TO.N,FC_SWCLK*%
X209351362Y-66700001D03*
%TO.N,FC_SWD*%
X211572881Y-66512718D03*
%TO.N,FC_SPI0_CS*%
X203022609Y-61689690D03*
X206394309Y-61220975D03*
X203268869Y-72875010D03*
%TO.N,FC_SPI0_MOSI*%
X204949999Y-74302160D03*
%TO.N,FC_SPI0_SCK*%
X204100000Y-73575010D03*
%TO.N,FC_SPI0_MISO*%
X202642829Y-72092829D03*
%TO.N,FC_UART1_TX*%
X208150010Y-72999999D03*
%TO.N,FC_UART1_RX*%
X207899798Y-74800003D03*
%TO.N,FC_UART0_TX*%
X212549997Y-66300002D03*
X212271274Y-79115560D03*
%TO.N,FC_UART0_RX*%
X213550000Y-66300002D03*
X213249997Y-69175001D03*
%TO.N,/FlightControlComputer/3V_MCU*%
X209349990Y-67706681D03*
X204950010Y-65700000D03*
%TO.N,3V3_IO*%
X214380025Y-72980024D03*
X221900049Y-75202314D03*
X220350000Y-58000000D03*
X191450000Y-76100000D03*
X192300000Y-85000000D03*
X200350000Y-74500000D03*
X200350000Y-76100000D03*
%TD*%
D19*
%TO.N,+1V1*%
X209586001Y-64899999D02*
X203908639Y-64899999D01*
X203908639Y-64899999D02*
X200129319Y-68679319D01*
X210278889Y-65592887D02*
X209586001Y-64899999D01*
X214257101Y-65592887D02*
X210278889Y-65592887D01*
X200129319Y-63620681D02*
X201100006Y-62649994D01*
X200129319Y-68679319D02*
X200129319Y-63620681D01*
D20*
%TO.N,+5V*%
X217910001Y-90879999D02*
X219200000Y-89590000D01*
X212809999Y-90879999D02*
X217910001Y-90879999D01*
X211540000Y-89610000D02*
X212809999Y-90879999D01*
X217949999Y-90879999D02*
X219200000Y-92130000D01*
X217910001Y-90879999D02*
X217949999Y-90879999D01*
D21*
X209850001Y-57399999D02*
X216899999Y-57399999D01*
X208900000Y-58350000D02*
X209850001Y-57399999D01*
X216899999Y-57399999D02*
X221850000Y-62350000D01*
X221850000Y-62350000D02*
X221850000Y-69450000D01*
X194959999Y-88269999D02*
X196300000Y-89610000D01*
X195661999Y-85699999D02*
X194959999Y-86401999D01*
X215600001Y-78682001D02*
X208582003Y-85699999D01*
X215600001Y-71417997D02*
X215600001Y-78682001D01*
X208582003Y-85699999D02*
X195661999Y-85699999D01*
X216367999Y-70649999D02*
X215600001Y-71417997D01*
X220650001Y-70649999D02*
X216367999Y-70649999D01*
X194959999Y-86401999D02*
X194959999Y-88269999D01*
X221850000Y-69450000D02*
X220650001Y-70649999D01*
D19*
%TO.N,FC_STATUS_BLUE*%
X198304036Y-60120964D02*
X197400000Y-61025000D01*
X208213191Y-61438156D02*
X206895999Y-60120964D01*
X208213191Y-63160467D02*
X208213191Y-61438156D01*
X206895999Y-60120964D02*
X198304036Y-60120964D01*
X206866566Y-63624475D02*
X207749183Y-63624475D01*
X207749183Y-63624475D02*
X208213191Y-63160467D01*
X206455977Y-63213886D02*
X206866566Y-63624475D01*
%TO.N,FC_STATUS_RED*%
X197104046Y-59720954D02*
X195800000Y-61025000D01*
X209798144Y-59720954D02*
X197104046Y-59720954D01*
X214993193Y-64916003D02*
X209798144Y-59720954D01*
%TO.N,FC_STATUS_GREEN*%
X196673468Y-62787534D02*
X193921680Y-62787534D01*
X198940028Y-60520974D02*
X196673468Y-62787534D01*
X207813181Y-61603845D02*
X206730310Y-60520974D01*
X207813181Y-62524475D02*
X207813181Y-61603845D01*
X206730310Y-60520974D02*
X198940028Y-60520974D01*
X207413182Y-62924474D02*
X207813181Y-62524475D01*
%TO.N,FC_I2C0_SCL*%
X219452539Y-74202539D02*
X221878753Y-74202539D01*
X216800000Y-71550000D02*
X219452539Y-74202539D01*
%TO.N,FC_I2C1_SCL*%
X202246910Y-61949993D02*
X202996916Y-62699999D01*
X199764021Y-61949993D02*
X202246910Y-61949993D01*
X199400004Y-62314010D02*
X199764021Y-61949993D01*
X204650001Y-62699999D02*
X205050000Y-62300000D01*
X202996916Y-62699999D02*
X204650001Y-62699999D01*
X203450000Y-74500000D02*
X199429318Y-70479318D01*
X199400004Y-70450004D02*
X199429318Y-70479318D01*
X199400004Y-62314010D02*
X199400004Y-70450004D01*
%TO.N,FC_I2C1_SDA*%
X204739692Y-60989689D02*
X206050003Y-62300000D01*
X200158626Y-60989689D02*
X204739692Y-60989689D01*
X198999994Y-62148321D02*
X200158626Y-60989689D01*
X198999994Y-71649994D02*
X198999994Y-62148321D01*
X203450000Y-76100000D02*
X198999994Y-71649994D01*
%TO.N,FC_UART0_TX*%
X212549997Y-66571604D02*
X211908882Y-67212719D01*
X212549997Y-66300002D02*
X212549997Y-66571604D01*
X210049990Y-67584311D02*
X210049990Y-68915688D01*
X210421582Y-67212719D02*
X210049990Y-67584311D01*
X211908882Y-67212719D02*
X210421582Y-67212719D01*
X212271274Y-71136972D02*
X212271274Y-79115560D01*
X210049990Y-68915688D02*
X212271274Y-71136972D01*
%TO.N,FC_UART0_RX*%
X213550000Y-66300002D02*
X212237273Y-67612729D01*
X212237273Y-67612729D02*
X210587271Y-67612729D01*
X210587271Y-67612729D02*
X210450000Y-67750000D01*
X210450000Y-67750000D02*
X210450000Y-68750000D01*
X210875001Y-69175001D02*
X213249997Y-69175001D01*
X210450000Y-68750000D02*
X210875001Y-69175001D01*
D21*
%TO.N,/FlightControlComputer/3V_MCU*%
X209349990Y-69334012D02*
X209349990Y-67706681D01*
X205290999Y-70075001D02*
X204850000Y-69634002D01*
X208609001Y-70075001D02*
X205290999Y-70075001D01*
X209349990Y-69334012D02*
X208609001Y-70075001D01*
X204850000Y-65800010D02*
X204950010Y-65700000D01*
X204850000Y-69634002D02*
X204850000Y-65800010D01*
%TO.N,3V3_IO*%
X213171275Y-79547561D02*
X212703275Y-80015561D01*
X213171275Y-74188774D02*
X213171275Y-79547561D01*
X212703275Y-80015561D02*
X199833559Y-80015561D01*
X214380025Y-72980024D02*
X213171275Y-74188774D01*
X195365561Y-80015561D02*
X191450000Y-76100000D01*
X199833559Y-80015561D02*
X195365561Y-80015561D01*
X192300000Y-83081122D02*
X195365561Y-80015561D01*
X192300000Y-85000000D02*
X192300000Y-83081122D01*
X200350000Y-74500000D02*
X200350000Y-76100000D01*
X200350000Y-76100000D02*
X191450000Y-76100000D01*
%TD*%
D22*
%TO.N,VCC*%
X203647374Y-44146740D02*
X203508156Y-44239762D01*
X203389762Y-44358156D01*
X203296740Y-44497374D01*
X203232665Y-44652064D01*
X203200000Y-44816282D01*
X203200000Y-44983718D01*
X203232665Y-45147936D01*
X203296740Y-45302626D01*
X203378507Y-45425000D01*
X203296740Y-45547374D01*
X203232665Y-45702064D01*
X203200000Y-45866282D01*
X203200000Y-46033718D01*
X203232665Y-46197936D01*
X203296740Y-46352626D01*
X203378507Y-46475000D01*
X203296740Y-46597374D01*
X203232665Y-46752064D01*
X203200000Y-46916282D01*
X203200000Y-47083718D01*
X203232665Y-47247936D01*
X203296740Y-47402626D01*
X203389762Y-47541844D01*
X203508156Y-47660238D01*
X203647374Y-47753260D01*
X203802064Y-47817335D01*
X203966282Y-47850000D01*
X204133718Y-47850000D01*
X204297936Y-47817335D01*
X204452626Y-47753260D01*
X204591844Y-47660238D01*
X204600000Y-47652082D01*
X204608156Y-47660238D01*
X204747374Y-47753260D01*
X204902064Y-47817335D01*
X205066282Y-47850000D01*
X205233718Y-47850000D01*
X205397936Y-47817335D01*
X205552626Y-47753260D01*
X205691844Y-47660238D01*
X205810238Y-47541844D01*
X205903260Y-47402626D01*
X205967335Y-47247936D01*
X206000000Y-47083718D01*
X206000000Y-46916282D01*
X205967335Y-46752064D01*
X205903260Y-46597374D01*
X205821493Y-46475000D01*
X205903260Y-46352626D01*
X205967335Y-46197936D01*
X206000000Y-46033718D01*
X206000000Y-45866282D01*
X205967335Y-45702064D01*
X205903260Y-45547374D01*
X205821493Y-45425000D01*
X205903260Y-45302626D01*
X205967335Y-45147936D01*
X206000000Y-44983718D01*
X206000000Y-44816282D01*
X205967335Y-44652064D01*
X205903260Y-44497374D01*
X205810238Y-44358156D01*
X205691844Y-44239762D01*
X205552626Y-44146740D01*
X205500141Y-44125000D01*
X207599859Y-44125000D01*
X207547374Y-44146740D01*
X207408156Y-44239762D01*
X207289762Y-44358156D01*
X207196740Y-44497374D01*
X207132665Y-44652064D01*
X207100000Y-44816282D01*
X207100000Y-44983718D01*
X207132665Y-45147936D01*
X207196740Y-45302626D01*
X207278507Y-45425000D01*
X207196740Y-45547374D01*
X207132665Y-45702064D01*
X207100000Y-45866282D01*
X207100000Y-46033718D01*
X207132665Y-46197936D01*
X207196740Y-46352626D01*
X207278507Y-46475000D01*
X207196740Y-46597374D01*
X207132665Y-46752064D01*
X207100000Y-46916282D01*
X207100000Y-47083718D01*
X207132665Y-47247936D01*
X207196740Y-47402626D01*
X207289762Y-47541844D01*
X207408156Y-47660238D01*
X207547374Y-47753260D01*
X207702064Y-47817335D01*
X207866282Y-47850000D01*
X208033718Y-47850000D01*
X208197936Y-47817335D01*
X208352626Y-47753260D01*
X208491844Y-47660238D01*
X208500000Y-47652082D01*
X208508156Y-47660238D01*
X208647374Y-47753260D01*
X208802064Y-47817335D01*
X208966282Y-47850000D01*
X209133718Y-47850000D01*
X209297936Y-47817335D01*
X209452626Y-47753260D01*
X209591844Y-47660238D01*
X209710238Y-47541844D01*
X209803260Y-47402626D01*
X209867335Y-47247936D01*
X209900000Y-47083718D01*
X209900000Y-46916282D01*
X209867335Y-46752064D01*
X209803260Y-46597374D01*
X209721493Y-46475000D01*
X209803260Y-46352626D01*
X209867335Y-46197936D01*
X209900000Y-46033718D01*
X209900000Y-45866282D01*
X209867335Y-45702064D01*
X209803260Y-45547374D01*
X209721493Y-45425000D01*
X209803260Y-45302626D01*
X209867335Y-45147936D01*
X209900000Y-44983718D01*
X209900000Y-44816282D01*
X209867335Y-44652064D01*
X209803260Y-44497374D01*
X209710238Y-44358156D01*
X209591844Y-44239762D01*
X209452626Y-44146740D01*
X209400141Y-44125000D01*
X217241385Y-44125000D01*
X217411241Y-44252153D01*
X217597847Y-44438759D01*
X217755997Y-44650022D01*
X217882472Y-44881643D01*
X217974694Y-45128901D01*
X218030790Y-45386771D01*
X218050000Y-45655360D01*
X218050000Y-47994640D01*
X218030790Y-48263229D01*
X217974694Y-48521099D01*
X217882472Y-48768357D01*
X217755997Y-48999978D01*
X217597847Y-49211241D01*
X217411241Y-49397847D01*
X217199978Y-49555997D01*
X216968357Y-49682472D01*
X216721099Y-49774694D01*
X216463229Y-49830790D01*
X216194640Y-49850000D01*
X213500000Y-49850000D01*
X213500000Y-49816282D01*
X213467335Y-49652064D01*
X213403260Y-49497374D01*
X213310238Y-49358156D01*
X213191844Y-49239762D01*
X213052626Y-49146740D01*
X212897936Y-49082665D01*
X212733718Y-49050000D01*
X212566282Y-49050000D01*
X212402064Y-49082665D01*
X212247374Y-49146740D01*
X212108156Y-49239762D01*
X211989762Y-49358156D01*
X211896740Y-49497374D01*
X211832665Y-49652064D01*
X211800000Y-49816282D01*
X211800000Y-49850000D01*
X200305360Y-49850000D01*
X200036771Y-49830790D01*
X199778901Y-49774694D01*
X199531643Y-49682472D01*
X199300022Y-49555997D01*
X199088759Y-49397847D01*
X198902153Y-49211241D01*
X198744003Y-48999978D01*
X198617528Y-48768357D01*
X198525306Y-48521099D01*
X198469210Y-48263229D01*
X198450000Y-47994640D01*
X198450000Y-45655360D01*
X198469210Y-45386771D01*
X198525306Y-45128901D01*
X198617528Y-44881643D01*
X198744003Y-44650022D01*
X198902153Y-44438759D01*
X199088759Y-44252153D01*
X199258615Y-44125000D01*
X203699859Y-44125000D01*
X203647374Y-44146740D01*
%TA.AperFunction,Conductor*%
D23*
G36*
X203647374Y-44146740D02*
G01*
X203508156Y-44239762D01*
X203389762Y-44358156D01*
X203296740Y-44497374D01*
X203232665Y-44652064D01*
X203200000Y-44816282D01*
X203200000Y-44983718D01*
X203232665Y-45147936D01*
X203296740Y-45302626D01*
X203378507Y-45425000D01*
X203296740Y-45547374D01*
X203232665Y-45702064D01*
X203200000Y-45866282D01*
X203200000Y-46033718D01*
X203232665Y-46197936D01*
X203296740Y-46352626D01*
X203378507Y-46475000D01*
X203296740Y-46597374D01*
X203232665Y-46752064D01*
X203200000Y-46916282D01*
X203200000Y-47083718D01*
X203232665Y-47247936D01*
X203296740Y-47402626D01*
X203389762Y-47541844D01*
X203508156Y-47660238D01*
X203647374Y-47753260D01*
X203802064Y-47817335D01*
X203966282Y-47850000D01*
X204133718Y-47850000D01*
X204297936Y-47817335D01*
X204452626Y-47753260D01*
X204591844Y-47660238D01*
X204600000Y-47652082D01*
X204608156Y-47660238D01*
X204747374Y-47753260D01*
X204902064Y-47817335D01*
X205066282Y-47850000D01*
X205233718Y-47850000D01*
X205397936Y-47817335D01*
X205552626Y-47753260D01*
X205691844Y-47660238D01*
X205810238Y-47541844D01*
X205903260Y-47402626D01*
X205967335Y-47247936D01*
X206000000Y-47083718D01*
X206000000Y-46916282D01*
X205967335Y-46752064D01*
X205903260Y-46597374D01*
X205821493Y-46475000D01*
X205903260Y-46352626D01*
X205967335Y-46197936D01*
X206000000Y-46033718D01*
X206000000Y-45866282D01*
X205967335Y-45702064D01*
X205903260Y-45547374D01*
X205821493Y-45425000D01*
X205903260Y-45302626D01*
X205967335Y-45147936D01*
X206000000Y-44983718D01*
X206000000Y-44816282D01*
X205967335Y-44652064D01*
X205903260Y-44497374D01*
X205810238Y-44358156D01*
X205691844Y-44239762D01*
X205552626Y-44146740D01*
X205500141Y-44125000D01*
X207599859Y-44125000D01*
X207547374Y-44146740D01*
X207408156Y-44239762D01*
X207289762Y-44358156D01*
X207196740Y-44497374D01*
X207132665Y-44652064D01*
X207100000Y-44816282D01*
X207100000Y-44983718D01*
X207132665Y-45147936D01*
X207196740Y-45302626D01*
X207278507Y-45425000D01*
X207196740Y-45547374D01*
X207132665Y-45702064D01*
X207100000Y-45866282D01*
X207100000Y-46033718D01*
X207132665Y-46197936D01*
X207196740Y-46352626D01*
X207278507Y-46475000D01*
X207196740Y-46597374D01*
X207132665Y-46752064D01*
X207100000Y-46916282D01*
X207100000Y-47083718D01*
X207132665Y-47247936D01*
X207196740Y-47402626D01*
X207289762Y-47541844D01*
X207408156Y-47660238D01*
X207547374Y-47753260D01*
X207702064Y-47817335D01*
X207866282Y-47850000D01*
X208033718Y-47850000D01*
X208197936Y-47817335D01*
X208352626Y-47753260D01*
X208491844Y-47660238D01*
X208500000Y-47652082D01*
X208508156Y-47660238D01*
X208647374Y-47753260D01*
X208802064Y-47817335D01*
X208966282Y-47850000D01*
X209133718Y-47850000D01*
X209297936Y-47817335D01*
X209452626Y-47753260D01*
X209591844Y-47660238D01*
X209710238Y-47541844D01*
X209803260Y-47402626D01*
X209867335Y-47247936D01*
X209900000Y-47083718D01*
X209900000Y-46916282D01*
X209867335Y-46752064D01*
X209803260Y-46597374D01*
X209721493Y-46475000D01*
X209803260Y-46352626D01*
X209867335Y-46197936D01*
X209900000Y-46033718D01*
X209900000Y-45866282D01*
X209867335Y-45702064D01*
X209803260Y-45547374D01*
X209721493Y-45425000D01*
X209803260Y-45302626D01*
X209867335Y-45147936D01*
X209900000Y-44983718D01*
X209900000Y-44816282D01*
X209867335Y-44652064D01*
X209803260Y-44497374D01*
X209710238Y-44358156D01*
X209591844Y-44239762D01*
X209452626Y-44146740D01*
X209400141Y-44125000D01*
X217241385Y-44125000D01*
X217411241Y-44252153D01*
X217597847Y-44438759D01*
X217755997Y-44650022D01*
X217882472Y-44881643D01*
X217974694Y-45128901D01*
X218030790Y-45386771D01*
X218050000Y-45655360D01*
X218050000Y-47994640D01*
X218030790Y-48263229D01*
X217974694Y-48521099D01*
X217882472Y-48768357D01*
X217755997Y-48999978D01*
X217597847Y-49211241D01*
X217411241Y-49397847D01*
X217199978Y-49555997D01*
X216968357Y-49682472D01*
X216721099Y-49774694D01*
X216463229Y-49830790D01*
X216194640Y-49850000D01*
X213500000Y-49850000D01*
X213500000Y-49816282D01*
X213467335Y-49652064D01*
X213403260Y-49497374D01*
X213310238Y-49358156D01*
X213191844Y-49239762D01*
X213052626Y-49146740D01*
X212897936Y-49082665D01*
X212733718Y-49050000D01*
X212566282Y-49050000D01*
X212402064Y-49082665D01*
X212247374Y-49146740D01*
X212108156Y-49239762D01*
X211989762Y-49358156D01*
X211896740Y-49497374D01*
X211832665Y-49652064D01*
X211800000Y-49816282D01*
X211800000Y-49850000D01*
X200305360Y-49850000D01*
X200036771Y-49830790D01*
X199778901Y-49774694D01*
X199531643Y-49682472D01*
X199300022Y-49555997D01*
X199088759Y-49397847D01*
X198902153Y-49211241D01*
X198744003Y-48999978D01*
X198617528Y-48768357D01*
X198525306Y-48521099D01*
X198469210Y-48263229D01*
X198450000Y-47994640D01*
X198450000Y-45655360D01*
X198469210Y-45386771D01*
X198525306Y-45128901D01*
X198617528Y-44881643D01*
X198744003Y-44650022D01*
X198902153Y-44438759D01*
X199088759Y-44252153D01*
X199258615Y-44125000D01*
X203699859Y-44125000D01*
X203647374Y-44146740D01*
G37*
%TD.AperFunction*%
%TD*%
M02*
