M48
; DRILL file {KiCad (5.1.10-1-10_14)} date Friday, December 24, 2021 at 07:56:18 AM
; FORMAT={-:-/ absolute / inch / decimal}
; #@! TF.CreationDate,2021-12-24T07:56:18-05:00
; #@! TF.GenerationSoftware,Kicad,Pcbnew,(5.1.10-1-10_14)
; #@! TF.FileFunction,Plated,1,4,PTH
FMAT,2
INCH
T1C0.0138
T2C0.0157
T3C0.0173
T4C0.0394
T5C0.0866
%
G90
G05
T1
X8.0974Y-2.627
X8.0974Y-2.6772
X8.0974Y-2.7274
X8.1476Y-2.627
X8.1476Y-2.6772
X8.1476Y-2.7274
X8.1978Y-2.627
X8.1978Y-2.6772
X8.1978Y-2.7274
T2
X7.5187Y-3.3622
X7.5315Y-2.3465
X7.5354Y-3.5157
X7.5374Y-2.9961
X7.5571Y-1.8504
X7.5709Y-3.3465
X7.6161Y-2.3465
X7.622Y-3.5157
X7.6299Y-2.0394
X7.6299Y-2.0827
X7.6347Y-2.472
X7.6772Y-2.7205
X7.6772Y-2.7953
X7.6909Y-1.9016
X7.6988Y-2.0394
X7.6988Y-2.0827
X7.7087Y-2.2657
X7.7087Y-2.4026
X7.7193Y-2.6346
X7.7225Y-3.1949
X7.7717Y-2.4026
X7.8622Y-1.7657
X7.8622Y-1.8071
X7.8622Y-1.8484
X7.878Y-2.4665
X7.8791Y-2.7039
X7.8878Y-2.9331
X7.8878Y-2.9961
X7.9055Y-1.7657
X7.9055Y-1.8071
X7.9055Y-1.8484
X7.9114Y-2.0591
X7.9173Y-2.4665
X7.9781Y-2.8383
X7.993Y-2.4287
X8.0027Y-2.8691
X8.0098Y-2.9331
X8.0098Y-2.9961
X8.0335Y-1.7677
X8.0335Y-1.8091
X8.0335Y-1.8504
X8.0354Y-2.8967
X8.0689Y-2.9253
X8.0689Y-2.5866
X8.0728Y-2.4528
X8.0768Y-1.7677
X8.0768Y-1.8091
X8.0768Y-1.8504
X8.1122Y-2.4528
X8.1258Y-2.4103
X8.1273Y-2.9246
X8.1282Y-2.4887
X8.1398Y-2.8858
X8.15Y-2.4413
X8.1659Y-2.4773
X8.185Y-2.9449
X8.187Y-1.7677
X8.187Y-1.8091
X8.187Y-1.8504
X8.1949Y-2.874
X8.2028Y-2.5866
X8.2244Y-2.2972
X8.2303Y-1.7677
X8.2303Y-1.8091
X8.2303Y-1.8504
X8.2421Y-2.6656
X8.2421Y-2.5866
X8.2422Y-2.626
X8.3091Y-2.5472
X8.3296Y-2.6186
X8.3406Y-1.7677
X8.3406Y-1.8091
X8.3406Y-1.8504
X8.3571Y-3.1148
X8.3681Y-2.6102
X8.372Y-1.9646
X8.3839Y-1.7677
X8.3839Y-1.8091
X8.3839Y-1.8504
X8.3957Y-2.7234
X8.4016Y-2.2953
X8.4075Y-2.6102
X8.4289Y-3.3171
X8.4353Y-2.5824
X8.4402Y-2.8732
X8.4449Y-2.9311
X8.4528Y-3.0807
X8.4643Y-2.5557
X8.4902Y-1.7677
X8.4902Y-1.8091
X8.4902Y-1.8504
X8.5138Y-2.2008
X8.5295Y-3.3189
X8.5335Y-1.7677
X8.5335Y-1.8091
X8.5335Y-1.8504
X8.5354Y-2.8169
X8.5648Y-3.2801
X8.5827Y-2.819
X8.6437Y-1.7677
X8.6437Y-1.8091
X8.6437Y-1.8504
X8.6575Y-2.6299
X8.6752Y-2.2835
X8.687Y-1.7677
X8.687Y-1.8091
X8.687Y-1.8504
X8.6988Y-1.9646
X8.6988Y-3.0728
X8.6988Y-3.2421
X8.7303Y-2.3117
X8.7354Y-2.9214
X8.7362Y-2.9607
T3
X7.5472Y-2.6398
X7.5472Y-2.6909
X7.5866Y-2.6142
X7.5866Y-2.6654
X7.5866Y-2.7165
T4
X7.7283Y-3.528
X7.7283Y-3.628
X7.7287Y-3.4272
X7.8283Y-3.528
X7.8283Y-3.628
X7.8287Y-3.4272
X7.9283Y-3.528
X7.9283Y-3.628
X7.9287Y-3.4272
X8.0283Y-3.528
X8.0283Y-3.628
X8.0287Y-3.4272
X8.1283Y-3.528
X8.1283Y-3.628
X8.1287Y-3.4272
X8.2283Y-3.528
X8.2283Y-3.628
X8.2287Y-3.4272
X8.3283Y-3.528
X8.3283Y-3.628
X8.3287Y-3.4272
X8.4291Y-3.4272
X8.4291Y-3.5272
X8.4291Y-3.6272
X8.5291Y-3.4272
X8.5291Y-3.5272
X8.5291Y-3.6272
X8.6299Y-3.4272
X8.6299Y-3.5272
X8.6299Y-3.6272
X8.7299Y-3.4272
X8.7299Y-3.5272
X8.7299Y-3.6272
T5
X7.4059Y-1.8094
X7.4059Y-3.5894
X8.8673Y-1.8094
X8.8681Y-3.5902
T1
G00X7.5976Y-2.5246
M15
G01X7.5583Y-2.5246
M16
G05
G00X7.5976Y-2.8061
M15
G01X7.5583Y-2.8061
M16
G05
T0
M30
