%TF.GenerationSoftware,KiCad,Pcbnew,9.0.3*%
%TF.CreationDate,2025-09-02T19:33:37-04:00*%
%TF.ProjectId,VolPak-1000,566f6c50-616b-42d3-9130-30302e6b6963,rev?*%
%TF.SameCoordinates,Original*%
%TF.FileFunction,Copper,L1,Top*%
%TF.FilePolarity,Positive*%
%FSLAX46Y46*%
G04 Gerber Fmt 4.6, Leading zero omitted, Abs format (unit mm)*
G04 Created by KiCad (PCBNEW 9.0.3) date 2025-09-02 19:33:37*
%MOMM*%
%LPD*%
G01*
G04 APERTURE LIST*
G04 Aperture macros list*
%AMRoundRect*
0 Rectangle with rounded corners*
0 $1 Rounding radius*
0 $2 $3 $4 $5 $6 $7 $8 $9 X,Y pos of 4 corners*
0 Add a 4 corners polygon primitive as box body*
4,1,4,$2,$3,$4,$5,$6,$7,$8,$9,$2,$3,0*
0 Add four circle primitives for the rounded corners*
1,1,$1+$1,$2,$3*
1,1,$1+$1,$4,$5*
1,1,$1+$1,$6,$7*
1,1,$1+$1,$8,$9*
0 Add four rect primitives between the rounded corners*
20,1,$1+$1,$2,$3,$4,$5,0*
20,1,$1+$1,$4,$5,$6,$7,0*
20,1,$1+$1,$6,$7,$8,$9,0*
20,1,$1+$1,$8,$9,$2,$3,0*%
G04 Aperture macros list end*
%TA.AperFunction,EtchedComponent*%
%ADD10C,0.001000*%
%TD*%
%TA.AperFunction,SMDPad,CuDef*%
%ADD11R,0.600000X1.240000*%
%TD*%
%TA.AperFunction,SMDPad,CuDef*%
%ADD12R,0.300000X1.240000*%
%TD*%
%TA.AperFunction,HeatsinkPad*%
%ADD13O,1.000000X2.100000*%
%TD*%
%TA.AperFunction,HeatsinkPad*%
%ADD14O,1.000000X1.800000*%
%TD*%
%TA.AperFunction,SMDPad,CuDef*%
%ADD15RoundRect,0.218750X0.256250X-0.218750X0.256250X0.218750X-0.256250X0.218750X-0.256250X-0.218750X0*%
%TD*%
%TA.AperFunction,ComponentPad*%
%ADD16RoundRect,0.250001X0.949999X-0.949999X0.949999X0.949999X-0.949999X0.949999X-0.949999X-0.949999X0*%
%TD*%
%TA.AperFunction,ComponentPad*%
%ADD17C,2.400000*%
%TD*%
%TA.AperFunction,SMDPad,CuDef*%
%ADD18RoundRect,0.140000X-0.140000X-0.170000X0.140000X-0.170000X0.140000X0.170000X-0.140000X0.170000X0*%
%TD*%
%TA.AperFunction,SMDPad,CuDef*%
%ADD19RoundRect,0.062500X-0.337500X-0.062500X0.337500X-0.062500X0.337500X0.062500X-0.337500X0.062500X0*%
%TD*%
%TA.AperFunction,SMDPad,CuDef*%
%ADD20RoundRect,0.062500X-0.062500X-0.337500X0.062500X-0.337500X0.062500X0.337500X-0.062500X0.337500X0*%
%TD*%
%TA.AperFunction,HeatsinkPad*%
%ADD21R,3.350000X3.350000*%
%TD*%
%TA.AperFunction,SMDPad,CuDef*%
%ADD22RoundRect,0.200000X0.200000X0.275000X-0.200000X0.275000X-0.200000X-0.275000X0.200000X-0.275000X0*%
%TD*%
%TA.AperFunction,ComponentPad*%
%ADD23RoundRect,0.250001X1.149999X-1.149999X1.149999X1.149999X-1.149999X1.149999X-1.149999X-1.149999X0*%
%TD*%
%TA.AperFunction,ComponentPad*%
%ADD24C,2.800000*%
%TD*%
%TA.AperFunction,SMDPad,CuDef*%
%ADD25RoundRect,0.140000X-0.170000X0.140000X-0.170000X-0.140000X0.170000X-0.140000X0.170000X0.140000X0*%
%TD*%
%TA.AperFunction,SMDPad,CuDef*%
%ADD26RoundRect,0.200000X0.275000X-0.200000X0.275000X0.200000X-0.275000X0.200000X-0.275000X-0.200000X0*%
%TD*%
%TA.AperFunction,ComponentPad*%
%ADD27RoundRect,0.250000X0.750000X-0.750000X0.750000X0.750000X-0.750000X0.750000X-0.750000X-0.750000X0*%
%TD*%
%TA.AperFunction,ComponentPad*%
%ADD28C,2.000000*%
%TD*%
%TA.AperFunction,SMDPad,CuDef*%
%ADD29RoundRect,0.140000X0.140000X0.170000X-0.140000X0.170000X-0.140000X-0.170000X0.140000X-0.170000X0*%
%TD*%
%TA.AperFunction,SMDPad,CuDef*%
%ADD30RoundRect,0.135000X0.185000X-0.135000X0.185000X0.135000X-0.185000X0.135000X-0.185000X-0.135000X0*%
%TD*%
%TA.AperFunction,ComponentPad*%
%ADD31RoundRect,0.250001X-0.949999X-0.949999X0.949999X-0.949999X0.949999X0.949999X-0.949999X0.949999X0*%
%TD*%
%TA.AperFunction,SMDPad,CuDef*%
%ADD32RoundRect,0.135000X-0.135000X-0.185000X0.135000X-0.185000X0.135000X0.185000X-0.135000X0.185000X0*%
%TD*%
%TA.AperFunction,SMDPad,CuDef*%
%ADD33RoundRect,0.250000X0.350000X-0.450000X0.350000X0.450000X-0.350000X0.450000X-0.350000X-0.450000X0*%
%TD*%
%TA.AperFunction,ComponentPad*%
%ADD34RoundRect,0.249999X-0.850001X0.850001X-0.850001X-0.850001X0.850001X-0.850001X0.850001X0.850001X0*%
%TD*%
%TA.AperFunction,ComponentPad*%
%ADD35C,2.200000*%
%TD*%
%TA.AperFunction,ComponentPad*%
%ADD36R,2.500000X4.500000*%
%TD*%
%TA.AperFunction,ComponentPad*%
%ADD37O,2.500000X4.500000*%
%TD*%
%TA.AperFunction,ComponentPad*%
%ADD38R,1.600000X1.500000*%
%TD*%
%TA.AperFunction,ComponentPad*%
%ADD39C,1.600000*%
%TD*%
%TA.AperFunction,ComponentPad*%
%ADD40C,3.000000*%
%TD*%
%TA.AperFunction,ComponentPad*%
%ADD41R,3.200000X3.200000*%
%TD*%
%TA.AperFunction,ComponentPad*%
%ADD42C,3.200000*%
%TD*%
%TA.AperFunction,ComponentPad*%
%ADD43RoundRect,0.250001X-1.149999X1.149999X-1.149999X-1.149999X1.149999X-1.149999X1.149999X1.149999X0*%
%TD*%
%TA.AperFunction,SMDPad,CuDef*%
%ADD44RoundRect,0.249999X-0.737501X-2.450001X0.737501X-2.450001X0.737501X2.450001X-0.737501X2.450001X0*%
%TD*%
%TA.AperFunction,SMDPad,CuDef*%
%ADD45RoundRect,0.062500X-0.062500X0.117500X-0.062500X-0.117500X0.062500X-0.117500X0.062500X0.117500X0*%
%TD*%
%TA.AperFunction,SMDPad,CuDef*%
%ADD46RoundRect,0.250000X-1.425000X0.362500X-1.425000X-0.362500X1.425000X-0.362500X1.425000X0.362500X0*%
%TD*%
%TA.AperFunction,ComponentPad*%
%ADD47C,1.440000*%
%TD*%
%TA.AperFunction,SMDPad,CuDef*%
%ADD48RoundRect,0.125000X-0.537500X-0.125000X0.537500X-0.125000X0.537500X0.125000X-0.537500X0.125000X0*%
%TD*%
%TA.AperFunction,SMDPad,CuDef*%
%ADD49RoundRect,0.150000X-0.512500X-0.150000X0.512500X-0.150000X0.512500X0.150000X-0.512500X0.150000X0*%
%TD*%
%TA.AperFunction,SMDPad,CuDef*%
%ADD50RoundRect,0.200000X-0.200000X-0.275000X0.200000X-0.275000X0.200000X0.275000X-0.200000X0.275000X0*%
%TD*%
%TA.AperFunction,SMDPad,CuDef*%
%ADD51RoundRect,0.147500X-0.172500X0.147500X-0.172500X-0.147500X0.172500X-0.147500X0.172500X0.147500X0*%
%TD*%
%TA.AperFunction,ComponentPad*%
%ADD52O,0.900000X2.300000*%
%TD*%
%TA.AperFunction,SMDPad,CuDef*%
%ADD53R,0.800000X1.580000*%
%TD*%
%TA.AperFunction,SMDPad,CuDef*%
%ADD54RoundRect,0.140000X0.170000X-0.140000X0.170000X0.140000X-0.170000X0.140000X-0.170000X-0.140000X0*%
%TD*%
%TA.AperFunction,SMDPad,CuDef*%
%ADD55RoundRect,0.249999X-2.450001X0.737501X-2.450001X-0.737501X2.450001X-0.737501X2.450001X0.737501X0*%
%TD*%
%TA.AperFunction,SMDPad,CuDef*%
%ADD56RoundRect,0.135000X0.135000X0.185000X-0.135000X0.185000X-0.135000X-0.185000X0.135000X-0.185000X0*%
%TD*%
%TA.AperFunction,SMDPad,CuDef*%
%ADD57RoundRect,0.125000X0.537500X0.125000X-0.537500X0.125000X-0.537500X-0.125000X0.537500X-0.125000X0*%
%TD*%
%TA.AperFunction,ComponentPad*%
%ADD58R,1.050000X1.500000*%
%TD*%
%TA.AperFunction,ComponentPad*%
%ADD59O,1.050000X1.500000*%
%TD*%
%TA.AperFunction,SMDPad,CuDef*%
%ADD60RoundRect,0.147500X0.172500X-0.147500X0.172500X0.147500X-0.172500X0.147500X-0.172500X-0.147500X0*%
%TD*%
%TA.AperFunction,SMDPad,CuDef*%
%ADD61RoundRect,0.062500X-0.117500X-0.062500X0.117500X-0.062500X0.117500X0.062500X-0.117500X0.062500X0*%
%TD*%
%TA.AperFunction,SMDPad,CuDef*%
%ADD62RoundRect,0.250000X1.425000X-0.362500X1.425000X0.362500X-1.425000X0.362500X-1.425000X-0.362500X0*%
%TD*%
%TA.AperFunction,SMDPad,CuDef*%
%ADD63RoundRect,0.147500X-0.147500X-0.172500X0.147500X-0.172500X0.147500X0.172500X-0.147500X0.172500X0*%
%TD*%
%TA.AperFunction,ComponentPad*%
%ADD64RoundRect,0.250001X0.949999X0.949999X-0.949999X0.949999X-0.949999X-0.949999X0.949999X-0.949999X0*%
%TD*%
%TA.AperFunction,ComponentPad*%
%ADD65R,1.905000X2.000000*%
%TD*%
%TA.AperFunction,ComponentPad*%
%ADD66O,1.905000X2.000000*%
%TD*%
%TA.AperFunction,ComponentPad*%
%ADD67C,3.900000*%
%TD*%
%TA.AperFunction,ConnectorPad*%
%ADD68C,7.000000*%
%TD*%
%TA.AperFunction,ComponentPad*%
%ADD69R,1.700000X1.700000*%
%TD*%
%TA.AperFunction,ComponentPad*%
%ADD70C,1.700000*%
%TD*%
%TA.AperFunction,SMDPad,CuDef*%
%ADD71RoundRect,0.135000X-0.185000X0.135000X-0.185000X-0.135000X0.185000X-0.135000X0.185000X0.135000X0*%
%TD*%
%TA.AperFunction,SMDPad,CuDef*%
%ADD72R,1.050000X0.650000*%
%TD*%
%TA.AperFunction,ComponentPad*%
%ADD73RoundRect,0.250000X0.750000X-0.600000X0.750000X0.600000X-0.750000X0.600000X-0.750000X-0.600000X0*%
%TD*%
%TA.AperFunction,ComponentPad*%
%ADD74O,2.000000X1.700000*%
%TD*%
%TA.AperFunction,ComponentPad*%
%ADD75RoundRect,0.250000X0.725000X-0.600000X0.725000X0.600000X-0.725000X0.600000X-0.725000X-0.600000X0*%
%TD*%
%TA.AperFunction,ComponentPad*%
%ADD76O,1.950000X1.700000*%
%TD*%
%TA.AperFunction,SMDPad,CuDef*%
%ADD77RoundRect,0.218750X-0.218750X-0.256250X0.218750X-0.256250X0.218750X0.256250X-0.218750X0.256250X0*%
%TD*%
%TA.AperFunction,SMDPad,CuDef*%
%ADD78RoundRect,0.375000X-0.625000X-0.375000X0.625000X-0.375000X0.625000X0.375000X-0.625000X0.375000X0*%
%TD*%
%TA.AperFunction,SMDPad,CuDef*%
%ADD79RoundRect,0.500000X-0.500000X-1.400000X0.500000X-1.400000X0.500000X1.400000X-0.500000X1.400000X0*%
%TD*%
%TA.AperFunction,SMDPad,CuDef*%
%ADD80RoundRect,0.150000X-0.850000X-0.150000X0.850000X-0.150000X0.850000X0.150000X-0.850000X0.150000X0*%
%TD*%
%TA.AperFunction,SMDPad,CuDef*%
%ADD81RoundRect,0.225000X0.225000X0.250000X-0.225000X0.250000X-0.225000X-0.250000X0.225000X-0.250000X0*%
%TD*%
%TA.AperFunction,SMDPad,CuDef*%
%ADD82RoundRect,0.200000X-0.275000X0.200000X-0.275000X-0.200000X0.275000X-0.200000X0.275000X0.200000X0*%
%TD*%
%TA.AperFunction,ComponentPad*%
%ADD83RoundRect,0.250000X-0.750000X-0.750000X0.750000X-0.750000X0.750000X0.750000X-0.750000X0.750000X0*%
%TD*%
%TA.AperFunction,ComponentPad*%
%ADD84RoundRect,0.250000X0.550000X0.550000X-0.550000X0.550000X-0.550000X-0.550000X0.550000X-0.550000X0*%
%TD*%
%TA.AperFunction,ComponentPad*%
%ADD85R,2.000000X2.000000*%
%TD*%
%TA.AperFunction,SMDPad,CuDef*%
%ADD86RoundRect,0.218750X0.218750X0.256250X-0.218750X0.256250X-0.218750X-0.256250X0.218750X-0.256250X0*%
%TD*%
%TA.AperFunction,SMDPad,CuDef*%
%ADD87RoundRect,0.150000X0.150000X-0.587500X0.150000X0.587500X-0.150000X0.587500X-0.150000X-0.587500X0*%
%TD*%
%TA.AperFunction,SMDPad,CuDef*%
%ADD88RoundRect,0.150000X-0.587500X-0.150000X0.587500X-0.150000X0.587500X0.150000X-0.587500X0.150000X0*%
%TD*%
%TA.AperFunction,SMDPad,CuDef*%
%ADD89RoundRect,0.162500X0.162500X-0.650000X0.162500X0.650000X-0.162500X0.650000X-0.162500X-0.650000X0*%
%TD*%
%TA.AperFunction,ComponentPad*%
%ADD90RoundRect,0.250000X-0.550000X-0.550000X0.550000X-0.550000X0.550000X0.550000X-0.550000X0.550000X0*%
%TD*%
%TA.AperFunction,SMDPad,CuDef*%
%ADD91RoundRect,0.135000X-0.315000X0.315000X-0.315000X-0.315000X0.315000X-0.315000X0.315000X0.315000X0*%
%TD*%
%TA.AperFunction,SMDPad,CuDef*%
%ADD92RoundRect,0.075000X-0.175000X0.375000X-0.175000X-0.375000X0.175000X-0.375000X0.175000X0.375000X0*%
%TD*%
%TA.AperFunction,SMDPad,CuDef*%
%ADD93R,0.200000X0.750000*%
%TD*%
%TA.AperFunction,SMDPad,CuDef*%
%ADD94R,0.750000X0.200000*%
%TD*%
%TA.AperFunction,SMDPad,CuDef*%
%ADD95R,4.038600X4.038600*%
%TD*%
%TA.AperFunction,ComponentPad*%
%ADD96C,3.400000*%
%TD*%
%TA.AperFunction,SMDPad,CuDef*%
%ADD97RoundRect,0.150000X0.587500X0.150000X-0.587500X0.150000X-0.587500X-0.150000X0.587500X-0.150000X0*%
%TD*%
%TA.AperFunction,SMDPad,CuDef*%
%ADD98R,1.000000X1.500000*%
%TD*%
%TA.AperFunction,ViaPad*%
%ADD99C,0.800000*%
%TD*%
%TA.AperFunction,Conductor*%
%ADD100C,1.500000*%
%TD*%
%TA.AperFunction,Conductor*%
%ADD101C,2.000000*%
%TD*%
%TA.AperFunction,Conductor*%
%ADD102C,0.600000*%
%TD*%
%TA.AperFunction,Conductor*%
%ADD103C,0.200000*%
%TD*%
%TA.AperFunction,Conductor*%
%ADD104C,1.000000*%
%TD*%
%TA.AperFunction,Conductor*%
%ADD105C,0.350000*%
%TD*%
%TA.AperFunction,Conductor*%
%ADD106C,0.500000*%
%TD*%
%TA.AperFunction,Conductor*%
%ADD107C,0.300000*%
%TD*%
%TA.AperFunction,Conductor*%
%ADD108C,0.400000*%
%TD*%
%TA.AperFunction,Conductor*%
%ADD109C,0.250000*%
%TD*%
%TA.AperFunction,Conductor*%
%ADD110C,0.156000*%
%TD*%
%TA.AperFunction,Conductor*%
%ADD111C,0.800000*%
%TD*%
%TA.AperFunction,Conductor*%
%ADD112C,1.250000*%
%TD*%
%TA.AperFunction,Conductor*%
%ADD113C,1.300000*%
%TD*%
%TA.AperFunction,Conductor*%
%ADD114C,0.449300*%
%TD*%
G04 APERTURE END LIST*
%TO.C,A1*%
D10*
X183180000Y-149770000D02*
X182680000Y-149770000D01*
X182680000Y-145830000D01*
X183180000Y-145830000D01*
X183180000Y-149770000D01*
%TA.AperFunction,EtchedComponent*%
G36*
X183180000Y-149770000D02*
G01*
X182680000Y-149770000D01*
X182680000Y-145830000D01*
X183180000Y-145830000D01*
X183180000Y-149770000D01*
G37*
%TD.AperFunction*%
X185380000Y-149770000D02*
X184880000Y-149770000D01*
X184880000Y-147130000D01*
X185380000Y-147130000D01*
X185380000Y-149770000D01*
%TA.AperFunction,EtchedComponent*%
G36*
X185380000Y-149770000D02*
G01*
X184880000Y-149770000D01*
X184880000Y-147130000D01*
X185380000Y-147130000D01*
X185380000Y-149770000D01*
G37*
%TD.AperFunction*%
X185380000Y-150270000D02*
X182680000Y-150270000D01*
X182680000Y-149770000D01*
X185380000Y-149770000D01*
X185380000Y-150270000D01*
%TA.AperFunction,EtchedComponent*%
G36*
X185380000Y-150270000D02*
G01*
X182680000Y-150270000D01*
X182680000Y-149770000D01*
X185380000Y-149770000D01*
X185380000Y-150270000D01*
G37*
%TD.AperFunction*%
X187380000Y-147630000D02*
X185380000Y-147630000D01*
X185380000Y-147130000D01*
X187380000Y-147130000D01*
X187380000Y-147630000D01*
%TA.AperFunction,EtchedComponent*%
G36*
X187380000Y-147630000D02*
G01*
X185380000Y-147630000D01*
X185380000Y-147130000D01*
X187380000Y-147130000D01*
X187380000Y-147630000D01*
G37*
%TD.AperFunction*%
X187880000Y-149770000D02*
X187380000Y-149770000D01*
X187380000Y-147130000D01*
X187880000Y-147130000D01*
X187880000Y-149770000D01*
%TA.AperFunction,EtchedComponent*%
G36*
X187880000Y-149770000D02*
G01*
X187380000Y-149770000D01*
X187380000Y-147130000D01*
X187880000Y-147130000D01*
X187880000Y-149770000D01*
G37*
%TD.AperFunction*%
X190080000Y-149770000D02*
X189580000Y-149770000D01*
X189580000Y-147130000D01*
X190080000Y-147130000D01*
X190080000Y-149770000D01*
%TA.AperFunction,EtchedComponent*%
G36*
X190080000Y-149770000D02*
G01*
X189580000Y-149770000D01*
X189580000Y-147130000D01*
X190080000Y-147130000D01*
X190080000Y-149770000D01*
G37*
%TD.AperFunction*%
X190080000Y-150270000D02*
X187380000Y-150270000D01*
X187380000Y-149770000D01*
X190080000Y-149770000D01*
X190080000Y-150270000D01*
%TA.AperFunction,EtchedComponent*%
G36*
X190080000Y-150270000D02*
G01*
X187380000Y-150270000D01*
X187380000Y-149770000D01*
X190080000Y-149770000D01*
X190080000Y-150270000D01*
G37*
%TD.AperFunction*%
X192080000Y-147630000D02*
X190080000Y-147630000D01*
X190080000Y-147130000D01*
X192080000Y-147130000D01*
X192080000Y-147630000D01*
%TA.AperFunction,EtchedComponent*%
G36*
X192080000Y-147630000D02*
G01*
X190080000Y-147630000D01*
X190080000Y-147130000D01*
X192080000Y-147130000D01*
X192080000Y-147630000D01*
G37*
%TD.AperFunction*%
X192580000Y-149770000D02*
X192080000Y-149770000D01*
X192080000Y-147130000D01*
X192580000Y-147130000D01*
X192580000Y-149770000D01*
%TA.AperFunction,EtchedComponent*%
G36*
X192580000Y-149770000D02*
G01*
X192080000Y-149770000D01*
X192080000Y-147130000D01*
X192580000Y-147130000D01*
X192580000Y-149770000D01*
G37*
%TD.AperFunction*%
X194780000Y-149770000D02*
X194280000Y-149770000D01*
X194280000Y-145650000D01*
X194780000Y-145650000D01*
X194780000Y-149770000D01*
%TA.AperFunction,EtchedComponent*%
G36*
X194780000Y-149770000D02*
G01*
X194280000Y-149770000D01*
X194280000Y-145650000D01*
X194780000Y-145650000D01*
X194780000Y-149770000D01*
G37*
%TD.AperFunction*%
X197080000Y-149770000D02*
X196180000Y-149770000D01*
X196180000Y-145630000D01*
X197080000Y-145630000D01*
X197080000Y-149770000D01*
%TA.AperFunction,EtchedComponent*%
G36*
X197080000Y-149770000D02*
G01*
X196180000Y-149770000D01*
X196180000Y-145630000D01*
X197080000Y-145630000D01*
X197080000Y-149770000D01*
G37*
%TD.AperFunction*%
X197080000Y-150270000D02*
X192080000Y-150270000D01*
X192080000Y-149770000D01*
X197080000Y-149770000D01*
X197080000Y-150270000D01*
%TA.AperFunction,EtchedComponent*%
G36*
X197080000Y-150270000D02*
G01*
X192080000Y-150270000D01*
X192080000Y-149770000D01*
X197080000Y-149770000D01*
X197080000Y-150270000D01*
G37*
%TD.AperFunction*%
%TD*%
D11*
%TO.P,J1,A1,GND*%
%TO.N,GND*%
X169200000Y-143475000D03*
%TO.P,J1,A4,VBUS*%
%TO.N,USB0_VBUS*%
X170000000Y-143475000D03*
D12*
%TO.P,J1,A5,CC1*%
%TO.N,USB0_CC1*%
X171150000Y-143475000D03*
%TO.P,J1,A6,D+*%
%TO.N,USB_DP*%
X172150000Y-143475000D03*
%TO.P,J1,A7,D-*%
%TO.N,USB_DN*%
X172650000Y-143475000D03*
%TO.P,J1,A8*%
%TO.N,N/C*%
X173650000Y-143475000D03*
D11*
%TO.P,J1,A9,VBUS*%
%TO.N,USB0_VBUS*%
X174800000Y-143475000D03*
%TO.P,J1,A12,GND*%
%TO.N,GND*%
X175600000Y-143475000D03*
%TO.P,J1,B1,GND*%
X175600000Y-143475000D03*
%TO.P,J1,B4,VBUS*%
%TO.N,USB0_VBUS*%
X174800000Y-143475000D03*
D12*
%TO.P,J1,B5,CC2*%
%TO.N,USB0_CC2*%
X174150000Y-143475000D03*
%TO.P,J1,B6,D+*%
%TO.N,USB_DP*%
X173150000Y-143475000D03*
%TO.P,J1,B7,D-*%
%TO.N,USB_DN*%
X171650000Y-143475000D03*
%TO.P,J1,B8*%
%TO.N,N/C*%
X170650000Y-143475000D03*
D11*
%TO.P,J1,B9,VBUS*%
%TO.N,USB0_VBUS*%
X170000000Y-143475000D03*
%TO.P,J1,B12,GND*%
%TO.N,GND*%
X169200000Y-143475000D03*
D13*
%TO.P,J1,S1,SHIELD*%
X168080000Y-144075000D03*
D14*
X168080000Y-148275000D03*
D13*
X176720000Y-144075000D03*
D14*
X176720000Y-148275000D03*
%TD*%
D15*
%TO.P,D9,1,K*%
%TO.N,-BATT*%
X93116400Y-118948300D03*
%TO.P,D9,2,A*%
%TO.N,Net-(D9-A)*%
X93116400Y-117373300D03*
%TD*%
D16*
%TO.P,D13,1,K*%
%TO.N,18V*%
X134112000Y-78359000D03*
D17*
%TO.P,D13,2,A*%
%TO.N,18VAC-*%
X134112000Y-74549000D03*
%TD*%
D16*
%TO.P,D10,1,K*%
%TO.N,18VAC+*%
X129641600Y-70739000D03*
D17*
%TO.P,D10,2,A*%
%TO.N,GND*%
X129641600Y-66929000D03*
%TD*%
D18*
%TO.P,C9,1*%
%TO.N,/LNA_IN*%
X194500000Y-139900000D03*
%TO.P,C9,2*%
%TO.N,GND*%
X195460000Y-139900000D03*
%TD*%
D19*
%TO.P,U3,1,~{DCD}*%
%TO.N,unconnected-(U3-~{DCD}-Pad1)*%
X172900000Y-129400000D03*
%TO.P,U3,2,~{RI}/CLK*%
%TO.N,unconnected-(U3-~{RI}{slash}CLK-Pad2)*%
X172900000Y-129900000D03*
%TO.P,U3,3,GND*%
%TO.N,GND*%
X172900000Y-130400000D03*
%TO.P,U3,4,D+*%
%TO.N,USB_DP*%
X172900000Y-130900000D03*
%TO.P,U3,5,D-*%
%TO.N,USB_DN*%
X172900000Y-131400000D03*
%TO.P,U3,6,VDD*%
%TO.N,VCC33*%
X172900000Y-131900000D03*
%TO.P,U3,7,VREGIN*%
X172900000Y-132400000D03*
D20*
%TO.P,U3,8,VBUS*%
%TO.N,Net-(U3-VBUS)*%
X173850000Y-133350000D03*
%TO.P,U3,9,~{RST}*%
%TO.N,Net-(U3-~{RST})*%
X174350000Y-133350000D03*
%TO.P,U3,10,NC*%
%TO.N,unconnected-(U3-NC-Pad10)*%
X174850000Y-133350000D03*
%TO.P,U3,11,~{SUSPEND}*%
%TO.N,Net-(U3-~{SUSPEND})*%
X175350000Y-133350000D03*
%TO.P,U3,12,SUSPEND*%
%TO.N,unconnected-(U3-SUSPEND-Pad12)*%
X175850000Y-133350000D03*
%TO.P,U3,13,CHREN*%
%TO.N,unconnected-(U3-CHREN-Pad13)*%
X176350000Y-133350000D03*
%TO.P,U3,14,CHR1*%
%TO.N,unconnected-(U3-CHR1-Pad14)*%
X176850000Y-133350000D03*
D19*
%TO.P,U3,15,CHR0*%
%TO.N,unconnected-(U3-CHR0-Pad15)*%
X177800000Y-132400000D03*
%TO.P,U3,16,~{WAKEUP}/GPIO.3*%
%TO.N,unconnected-(U3-~{WAKEUP}{slash}GPIO.3-Pad16)*%
X177800000Y-131900000D03*
%TO.P,U3,17,RS485/GPIO.2*%
%TO.N,unconnected-(U3-RS485{slash}GPIO.2-Pad17)*%
X177800000Y-131400000D03*
%TO.P,U3,18,~{RXT}/GPIO.1*%
%TO.N,unconnected-(U3-~{RXT}{slash}GPIO.1-Pad18)*%
X177800000Y-130900000D03*
%TO.P,U3,19,~{TXT}/GPIO.0*%
%TO.N,unconnected-(U3-~{TXT}{slash}GPIO.0-Pad19)*%
X177800000Y-130400000D03*
%TO.P,U3,20,GPIO.6*%
%TO.N,unconnected-(U3-GPIO.6-Pad20)*%
X177800000Y-129900000D03*
%TO.P,U3,21,GPIO.5*%
%TO.N,unconnected-(U3-GPIO.5-Pad21)*%
X177800000Y-129400000D03*
D20*
%TO.P,U3,22,GPIO.4*%
%TO.N,unconnected-(U3-GPIO.4-Pad22)*%
X176850000Y-128450000D03*
%TO.P,U3,23,~{CTS}*%
%TO.N,unconnected-(U3-~{CTS}-Pad23)*%
X176350000Y-128450000D03*
%TO.P,U3,24,~{RTS}*%
%TO.N,RTS*%
X175850000Y-128450000D03*
%TO.P,U3,25,RXD*%
%TO.N,Net-(U3-RXD)*%
X175350000Y-128450000D03*
%TO.P,U3,26,TXD*%
%TO.N,Net-(U3-TXD)*%
X174850000Y-128450000D03*
%TO.P,U3,27,~{DSR}*%
%TO.N,unconnected-(U3-~{DSR}-Pad27)*%
X174350000Y-128450000D03*
%TO.P,U3,28,~{DTR}*%
%TO.N,DTR*%
X173850000Y-128450000D03*
D21*
%TO.P,U3,29,GND*%
%TO.N,GND*%
X175350000Y-130900000D03*
%TD*%
D22*
%TO.P,R23,1*%
%TO.N,+BATT_SNSE*%
X68655200Y-125222000D03*
%TO.P,R23,2*%
%TO.N,+BATT*%
X67005200Y-125222000D03*
%TD*%
D23*
%TO.P,J6,1,Pin_1*%
%TO.N,Net-(J6-Pin_1)*%
X208026000Y-65532000D03*
D24*
%TO.P,J6,2,Pin_2*%
%TO.N,Net-(J6-Pin_2)*%
X208026000Y-60532000D03*
%TD*%
D25*
%TO.P,C17,1*%
%TO.N,GND*%
X206200000Y-123100000D03*
%TO.P,C17,2*%
%TO.N,GPIO0*%
X206200000Y-124060000D03*
%TD*%
D26*
%TO.P,R46,1*%
%TO.N,1LO*%
X147523200Y-57619400D03*
%TO.P,R46,2*%
%TO.N,Net-(Q10-G)*%
X147523200Y-55969400D03*
%TD*%
D27*
%TO.P,C28,1*%
%TO.N,+BATT_SNSE*%
X66294000Y-100910400D03*
D28*
%TO.P,C28,2*%
%TO.N,-BATT*%
X66294000Y-95910400D03*
%TD*%
D29*
%TO.P,C5,1*%
%TO.N,VDD33*%
X189600000Y-121991667D03*
%TO.P,C5,2*%
%TO.N,GND*%
X188640000Y-121991667D03*
%TD*%
D30*
%TO.P,R10,1*%
%TO.N,GPIO38*%
X194700000Y-117930000D03*
%TO.P,R10,2*%
%TO.N,/RGB_CTRL*%
X194700000Y-116910000D03*
%TD*%
D31*
%TO.P,D15,1,K*%
%TO.N,1LO*%
X148183600Y-60553600D03*
D17*
%TO.P,D15,2,A*%
%TO.N,Net-(D15-A)*%
X151993600Y-60553600D03*
%TD*%
D29*
%TO.P,C53,1*%
%TO.N,DC_3V3_2A*%
X141422000Y-130440800D03*
%TO.P,C53,2*%
%TO.N,GND*%
X140462000Y-130440800D03*
%TD*%
D32*
%TO.P,R64,1*%
%TO.N,GPIO8*%
X205300000Y-130400000D03*
%TO.P,R64,2*%
%TO.N,DC_EN*%
X206320000Y-130400000D03*
%TD*%
D26*
%TO.P,R44,1*%
%TO.N,1HO*%
X129306600Y-57670200D03*
%TO.P,R44,2*%
%TO.N,Net-(Q9-G)*%
X129306600Y-56020200D03*
%TD*%
D33*
%TO.P,Y1,1,1*%
%TO.N,Net-(C7-Pad1)*%
X187590000Y-132000000D03*
%TO.P,Y1,2,2*%
%TO.N,GND*%
X187590000Y-129800000D03*
%TO.P,Y1,3,3*%
%TO.N,Net-(U1-XTAL_N)*%
X185890000Y-129800000D03*
%TO.P,Y1,4,4*%
%TO.N,GND*%
X185890000Y-132000000D03*
%TD*%
D34*
%TO.P,D5,1,K*%
%TO.N,VCC50*%
X165000000Y-138820000D03*
D35*
%TO.P,D5,2,A*%
%TO.N,USB0_VBUS*%
X165000000Y-148980000D03*
%TD*%
D26*
%TO.P,R50,1*%
%TO.N,Net-(D16-A)*%
X166827200Y-57861200D03*
%TO.P,R50,2*%
%TO.N,COIL*%
X166827200Y-56211200D03*
%TD*%
D36*
%TO.P,Q11,1,G*%
%TO.N,Net-(Q11-G)*%
X184172000Y-52171600D03*
D37*
%TO.P,Q11,2,C*%
%TO.N,COIL*%
X189622000Y-52171600D03*
%TO.P,Q11,3,E*%
%TO.N,SHUNT*%
X195072000Y-52171600D03*
%TD*%
D38*
%TO.P,J11,1,VBUS*%
%TO.N,DC_5V_2A_USB*%
X150930000Y-136590000D03*
D39*
%TO.P,J11,2,D-*%
%TO.N,Net-(J11-D+)*%
X153430000Y-136590000D03*
%TO.P,J11,3,D+*%
X155430000Y-136590000D03*
%TO.P,J11,4,GND*%
%TO.N,GND*%
X157930000Y-136590000D03*
D40*
%TO.P,J11,5,Shield*%
X147860000Y-139300000D03*
X161000000Y-139300000D03*
%TD*%
D41*
%TO.P,D18,1,+*%
%TO.N,380V*%
X65430400Y-63804800D03*
D42*
%TO.P,D18,2*%
%TO.N,Net-(T1-AUX+)*%
X65430400Y-68884800D03*
%TO.P,D18,3*%
%TO.N,Net-(T1-NC16)*%
X65430400Y-73964800D03*
%TO.P,D18,4,-*%
%TO.N,GND*%
X65430400Y-79044800D03*
%TD*%
D43*
%TO.P,J4,1,Pin_1*%
%TO.N,+BATT_SNSE*%
X66395600Y-107471200D03*
D24*
%TO.P,J4,2,Pin_2*%
%TO.N,-BATT*%
X66395600Y-112471200D03*
%TD*%
D16*
%TO.P,C39,1*%
%TO.N,CH_L*%
X129540000Y-131318000D03*
D17*
%TO.P,C39,2*%
%TO.N,CH_R*%
X129540000Y-123818000D03*
%TD*%
D44*
%TO.P,C42,1*%
%TO.N,380V*%
X192434500Y-45974000D03*
%TO.P,C42,2*%
%TO.N,SHUNT*%
X197709500Y-45974000D03*
%TD*%
D32*
%TO.P,R65,1*%
%TO.N,GPIO9*%
X205300000Y-129300000D03*
%TO.P,R65,2*%
%TO.N,AC_EN*%
X206320000Y-129300000D03*
%TD*%
D25*
%TO.P,C46,1*%
%TO.N,VDD33*%
X112509800Y-136527600D03*
%TO.P,C46,2*%
%TO.N,GND*%
X112509800Y-137487600D03*
%TD*%
D29*
%TO.P,C54,1*%
%TO.N,DC_3V3_2A*%
X141422000Y-129360400D03*
%TO.P,C54,2*%
%TO.N,GND*%
X140462000Y-129360400D03*
%TD*%
D45*
%TO.P,D3,1,A1*%
%TO.N,USB_DP*%
X169700000Y-130620000D03*
%TO.P,D3,2,A2*%
%TO.N,GND*%
X169700000Y-129780000D03*
%TD*%
D22*
%TO.P,R28,1*%
%TO.N,Net-(U5-NI)*%
X81101200Y-122913300D03*
%TO.P,R28,2*%
%TO.N,-BATT*%
X79451200Y-122913300D03*
%TD*%
D46*
%TO.P,R39,1*%
%TO.N,GND*%
X78232000Y-137499500D03*
%TO.P,R39,2*%
%TO.N,SHUNT*%
X78232000Y-143424500D03*
%TD*%
D36*
%TO.P,Q8,1,G*%
%TO.N,Net-(Q8-G)*%
X167001600Y-52171600D03*
D37*
%TO.P,Q8,2,C*%
%TO.N,380V*%
X172451600Y-52171600D03*
%TO.P,Q8,3,E*%
%TO.N,COIL*%
X177901600Y-52171600D03*
%TD*%
D31*
%TO.P,D17,1,K*%
%TO.N,2LO*%
X182910200Y-60553600D03*
D17*
%TO.P,D17,2,A*%
%TO.N,Net-(D17-A)*%
X186720200Y-60553600D03*
%TD*%
D47*
%TO.P,RV1,1,1*%
%TO.N,VFB*%
X127254000Y-140360400D03*
%TO.P,RV1,2,2*%
X127254000Y-142900400D03*
%TO.P,RV1,3,3*%
%TO.N,GND*%
X127254000Y-145440400D03*
%TD*%
D48*
%TO.P,U8,1,IN+*%
%TO.N,+BATT_SNSE*%
X66946700Y-127193400D03*
%TO.P,U8,2,IN-*%
%TO.N,+BATT*%
X66946700Y-127843400D03*
%TO.P,U8,3,GND*%
%TO.N,GND*%
X66946700Y-128493400D03*
%TO.P,U8,4,VS*%
%TO.N,VDD33*%
X66946700Y-129143400D03*
%TO.P,U8,5,SCL*%
%TO.N,GPIO5*%
X69221700Y-129143400D03*
%TO.P,U8,6,SDA*%
%TO.N,GPIO4*%
X69221700Y-128493400D03*
%TO.P,U8,7,A0*%
%TO.N,GND*%
X69221700Y-127843400D03*
%TO.P,U8,8,A1*%
X69221700Y-127193400D03*
%TD*%
D22*
%TO.P,R27,1*%
%TO.N,Net-(U5-INV)*%
X81101200Y-119684800D03*
%TO.P,R27,2*%
%TO.N,-BATT*%
X79451200Y-119684800D03*
%TD*%
D49*
%TO.P,U10,1,FB*%
%TO.N,DC_3V3_2A*%
X143079500Y-129504400D03*
%TO.P,U10,2,EN*%
%TO.N,DC_EN*%
X143079500Y-130454400D03*
%TO.P,U10,3,IN*%
%TO.N,12V*%
X143079500Y-131404400D03*
%TO.P,U10,4,GND*%
%TO.N,GND*%
X145354500Y-131404400D03*
%TO.P,U10,5,SW*%
%TO.N,Net-(U10-SW)*%
X145354500Y-130454400D03*
%TO.P,U10,6,BST*%
%TO.N,Net-(U10-BST)*%
X145354500Y-129504400D03*
%TD*%
D30*
%TO.P,R1,1*%
%TO.N,Net-(U1-SPIHD)*%
X201153333Y-117910000D03*
%TO.P,R1,2*%
%TO.N,SPIHD*%
X201153333Y-116890000D03*
%TD*%
D50*
%TO.P,R41,1*%
%TO.N,VFB*%
X131153400Y-139903200D03*
%TO.P,R41,2*%
%TO.N,Output*%
X132803400Y-139903200D03*
%TD*%
D51*
%TO.P,R8,1,1*%
%TO.N,Net-(U1-XTAL_P)*%
X189240000Y-131615000D03*
%TO.P,R8,2,2*%
%TO.N,Net-(C7-Pad1)*%
X189240000Y-132585000D03*
%TD*%
D52*
%TO.P,J12,*%
%TO.N,*%
X134500000Y-147457500D03*
X144300000Y-147457500D03*
D53*
%TO.P,J12,A1,GND*%
%TO.N,GND*%
X136400000Y-143357500D03*
%TO.P,J12,A4,VBUS*%
%TO.N,DC_5V_2A_USB*%
X137600000Y-143357500D03*
X141200000Y-143357500D03*
%TO.P,J12,A5,CC1*%
%TO.N,Net-(J12-CC1)*%
X138800000Y-143357500D03*
%TO.P,J12,B5,CC2*%
%TO.N,Net-(J12-CC2)*%
X140000000Y-143357500D03*
%TO.P,J12,S1,SHIELD*%
%TO.N,GND*%
X142400000Y-143357500D03*
%TD*%
D54*
%TO.P,C20,1*%
%TO.N,VCC50*%
X180670000Y-140430000D03*
%TO.P,C20,2*%
%TO.N,GND*%
X180670000Y-139470000D03*
%TD*%
D55*
%TO.P,C40,1*%
%TO.N,Net-(J6-Pin_2)*%
X200152000Y-60608500D03*
%TO.P,C40,2*%
%TO.N,Net-(J6-Pin_1)*%
X200152000Y-65883500D03*
%TD*%
D56*
%TO.P,R62,1*%
%TO.N,VCC50*%
X110124200Y-141935200D03*
%TO.P,R62,2*%
%TO.N,Net-(U9-IN-)*%
X109104200Y-141935200D03*
%TD*%
D31*
%TO.P,D14,1,K*%
%TO.N,1HO*%
X130048000Y-60604400D03*
D17*
%TO.P,D14,2,A*%
%TO.N,Net-(D14-A)*%
X133858000Y-60604400D03*
%TD*%
D50*
%TO.P,R37,1*%
%TO.N,-BATT*%
X91389200Y-123422000D03*
%TO.P,R37,2*%
%TO.N,INV_OUTB*%
X93039200Y-123422000D03*
%TD*%
D57*
%TO.P,U9,1,IN+*%
%TO.N,5V_INV_SENSE*%
X110873200Y-138602000D03*
%TO.P,U9,2,IN-*%
%TO.N,Net-(U9-IN-)*%
X110873200Y-137952000D03*
%TO.P,U9,3,GND*%
%TO.N,GND*%
X110873200Y-137302000D03*
%TO.P,U9,4,VS*%
%TO.N,VDD33*%
X110873200Y-136652000D03*
%TO.P,U9,5,SCL*%
%TO.N,GPIO5*%
X108598200Y-136652000D03*
%TO.P,U9,6,SDA*%
%TO.N,GPIO4*%
X108598200Y-137302000D03*
%TO.P,U9,7,A0*%
%TO.N,GND*%
X108598200Y-137952000D03*
%TO.P,U9,8,A1*%
%TO.N,Net-(U9-A1)*%
X108598200Y-138602000D03*
%TD*%
D58*
%TO.P,Q12,1,E*%
%TO.N,GND*%
X176927500Y-121360000D03*
D59*
%TO.P,Q12,2,B*%
%TO.N,DC_EN*%
X178197500Y-121360000D03*
%TO.P,Q12,3,C*%
%TO.N,Net-(D7-K)*%
X179467500Y-121360000D03*
%TD*%
D60*
%TO.P,L2,1,1*%
%TO.N,Net-(A1-LNA_IN)*%
X194480000Y-141935000D03*
%TO.P,L2,2,2*%
%TO.N,/LNA_IN*%
X194480000Y-140965000D03*
%TD*%
D61*
%TO.P,D1,1,A1*%
%TO.N,VDD33*%
X177153200Y-138328400D03*
%TO.P,D1,2,A2*%
%TO.N,GND*%
X176313200Y-138328400D03*
%TD*%
D62*
%TO.P,R38,1*%
%TO.N,GND*%
X78232000Y-135550500D03*
%TO.P,R38,2*%
%TO.N,SHUNT*%
X78232000Y-129625500D03*
%TD*%
D54*
%TO.P,C8,1*%
%TO.N,GND*%
X184300000Y-130180000D03*
%TO.P,C8,2*%
%TO.N,Net-(U1-XTAL_N)*%
X184300000Y-129220000D03*
%TD*%
D63*
%TO.P,L4,1,1*%
%TO.N,Net-(U11-SW)*%
X152095200Y-128219200D03*
%TO.P,L4,2,2*%
%TO.N,DC_5V_2A_USB*%
X153065200Y-128219200D03*
%TD*%
D64*
%TO.P,C35,1*%
%TO.N,380V*%
X140637780Y-91694000D03*
D17*
%TO.P,C35,2*%
%TO.N,GND*%
X133137780Y-91694000D03*
%TD*%
D25*
%TO.P,C19,1*%
%TO.N,Net-(U3-VBUS)*%
X172295000Y-135330000D03*
%TO.P,C19,2*%
%TO.N,GND*%
X172295000Y-136290000D03*
%TD*%
D54*
%TO.P,C2,1*%
%TO.N,VDD_SPI*%
X202431667Y-117880000D03*
%TO.P,C2,2*%
%TO.N,GND*%
X202431667Y-116920000D03*
%TD*%
D65*
%TO.P,U7,1,IN*%
%TO.N,12V*%
X158750000Y-118684000D03*
D66*
%TO.P,U7,2,GND*%
%TO.N,GND*%
X156210000Y-118684000D03*
%TO.P,U7,3,OUT*%
%TO.N,5V_INV_SENSE*%
X153670000Y-118684000D03*
%TD*%
D32*
%TO.P,R59,1*%
%TO.N,Net-(D6-A)*%
X184172500Y-116040000D03*
%TO.P,R59,2*%
%TO.N,DC_3V3_2A*%
X185192500Y-116040000D03*
%TD*%
D67*
%TO.P,REF\u002A\u002A,1*%
%TO.N,N/C*%
X70254600Y-52300500D03*
D68*
X70254600Y-52300500D03*
%TD*%
D49*
%TO.P,U11,1,FB*%
%TO.N,DC_5V_2A_USB*%
X154686000Y-129489200D03*
%TO.P,U11,2,EN*%
%TO.N,DC_EN*%
X154686000Y-130439200D03*
%TO.P,U11,3,IN*%
%TO.N,12V*%
X154686000Y-131389200D03*
%TO.P,U11,4,GND*%
%TO.N,GND*%
X156961000Y-131389200D03*
%TO.P,U11,5,SW*%
%TO.N,Net-(U11-SW)*%
X156961000Y-130439200D03*
%TO.P,U11,6,BST*%
%TO.N,Net-(U11-BST)*%
X156961000Y-129489200D03*
%TD*%
D69*
%TO.P,J3,1,Pin_1*%
%TO.N,+BATT*%
X69037200Y-117602000D03*
D70*
%TO.P,J3,2,Pin_2*%
%TO.N,VCC*%
X66497200Y-117602000D03*
%TO.P,J3,3,Pin_3*%
%TO.N,unconnected-(J3-Pin_3-Pad3)*%
X63957200Y-117602000D03*
%TD*%
D31*
%TO.P,C36,1*%
%TO.N,380V*%
X156464000Y-98806000D03*
D17*
%TO.P,C36,2*%
%TO.N,GND*%
X163964000Y-98806000D03*
%TD*%
D31*
%TO.P,D16,1,K*%
%TO.N,2HO*%
X165709600Y-60706000D03*
D17*
%TO.P,D16,2,A*%
%TO.N,Net-(D16-A)*%
X169519600Y-60706000D03*
%TD*%
D54*
%TO.P,C16,1*%
%TO.N,GND*%
X204500000Y-134060000D03*
%TO.P,C16,2*%
%TO.N,CHIP_PU*%
X204500000Y-133100000D03*
%TD*%
D29*
%TO.P,C51,1*%
%TO.N,12V*%
X141422000Y-131521200D03*
%TO.P,C51,2*%
%TO.N,GND*%
X140462000Y-131521200D03*
%TD*%
D71*
%TO.P,R20,1*%
%TO.N,CHIP_PU*%
X167386000Y-126572500D03*
%TO.P,R20,2*%
%TO.N,Net-(Q2-C)*%
X167386000Y-127592500D03*
%TD*%
D65*
%TO.P,Q3,1,G*%
%TO.N,INV_OUTA*%
X105494667Y-105664000D03*
D66*
%TO.P,Q3,2,D*%
%TO.N,INV_TR+*%
X102954667Y-105664000D03*
%TO.P,Q3,3,S*%
%TO.N,-BATT*%
X100414667Y-105664000D03*
%TD*%
D25*
%TO.P,C23,1*%
%TO.N,VDD33*%
X180670000Y-137380000D03*
%TO.P,C23,2*%
%TO.N,GND*%
X180670000Y-138340000D03*
%TD*%
D30*
%TO.P,R13,1*%
%TO.N,VCC33*%
X174895000Y-136320000D03*
%TO.P,R13,2*%
%TO.N,Net-(U3-~{RST})*%
X174895000Y-135300000D03*
%TD*%
%TO.P,R57,1*%
%TO.N,AC_SW*%
X206200000Y-111484286D03*
%TO.P,R57,2*%
%TO.N,GND*%
X206200000Y-110464286D03*
%TD*%
D71*
%TO.P,R12,1*%
%TO.N,Net-(U3-VBUS)*%
X171000000Y-135300000D03*
%TO.P,R12,2*%
%TO.N,USB0_VBUS*%
X171000000Y-136320000D03*
%TD*%
D32*
%TO.P,R24,1*%
%TO.N,VDD33*%
X106056200Y-138633200D03*
%TO.P,R24,2*%
%TO.N,Net-(U9-A1)*%
X107076200Y-138633200D03*
%TD*%
D26*
%TO.P,R51,1*%
%TO.N,Net-(D17-A)*%
X183794400Y-57721000D03*
%TO.P,R51,2*%
%TO.N,SHUNT*%
X183794400Y-56071000D03*
%TD*%
D18*
%TO.P,C31,1*%
%TO.N,VCC*%
X91163200Y-120324533D03*
%TO.P,C31,2*%
%TO.N,-BATT*%
X92123200Y-120324533D03*
%TD*%
D50*
%TO.P,R36,1*%
%TO.N,Net-(U5-OUTB)*%
X91389200Y-121738267D03*
%TO.P,R36,2*%
%TO.N,INV_OUTB*%
X93039200Y-121738267D03*
%TD*%
D30*
%TO.P,R15,1*%
%TO.N,Net-(U3-TXD)*%
X174550000Y-126770000D03*
%TO.P,R15,2*%
%TO.N,U0RXD*%
X174550000Y-125750000D03*
%TD*%
D29*
%TO.P,C6,1*%
%TO.N,VDD33*%
X189600000Y-120820000D03*
%TO.P,C6,2*%
%TO.N,GND*%
X188640000Y-120820000D03*
%TD*%
D18*
%TO.P,C34,1*%
%TO.N,VFB*%
X130962400Y-142951200D03*
%TO.P,C34,2*%
%TO.N,GND*%
X131922400Y-142951200D03*
%TD*%
D71*
%TO.P,R9,1*%
%TO.N,CHIP_PU*%
X203200000Y-133070000D03*
%TO.P,R9,2*%
%TO.N,VDD33*%
X203200000Y-134090000D03*
%TD*%
D72*
%TO.P,SW1,1,1*%
%TO.N,GND*%
X207700000Y-121558571D03*
X211850000Y-121558571D03*
%TO.P,SW1,2,2*%
%TO.N,GPIO0*%
X207700000Y-123708571D03*
X211850000Y-123708571D03*
%TD*%
D18*
%TO.P,C1,1*%
%TO.N,VDD33*%
X202720000Y-124968000D03*
%TO.P,C1,2*%
%TO.N,GND*%
X203680000Y-124968000D03*
%TD*%
D30*
%TO.P,R2,1*%
%TO.N,Net-(U1-SPIWP)*%
X199865000Y-117910000D03*
%TO.P,R2,2*%
%TO.N,SPIWP*%
X199865000Y-116890000D03*
%TD*%
D73*
%TO.P,J8,1,Pin_1*%
%TO.N,GPIO5*%
X209753200Y-77582400D03*
D74*
%TO.P,J8,2,Pin_2*%
%TO.N,GPIO4*%
X209753200Y-75082400D03*
%TD*%
D25*
%TO.P,C18,1*%
%TO.N,GND*%
X206200000Y-116807143D03*
%TO.P,C18,2*%
%TO.N,CHIP_PU*%
X206200000Y-117767143D03*
%TD*%
D32*
%TO.P,R26,1*%
%TO.N,USB0_CC2*%
X174390000Y-141700000D03*
%TO.P,R26,2*%
%TO.N,GND*%
X175410000Y-141700000D03*
%TD*%
D16*
%TO.P,D11,1,K*%
%TO.N,18V*%
X129641600Y-78359000D03*
D17*
%TO.P,D11,2,A*%
%TO.N,18VAC+*%
X129641600Y-74549000D03*
%TD*%
D71*
%TO.P,R14,1*%
%TO.N,Net-(U3-~{SUSPEND})*%
X176200000Y-135300000D03*
%TO.P,R14,2*%
%TO.N,GND*%
X176200000Y-136320000D03*
%TD*%
D73*
%TO.P,J10,1,Pin_1*%
%TO.N,GPIO17*%
X203555600Y-77531600D03*
D74*
%TO.P,J10,2,Pin_2*%
%TO.N,GPIO18*%
X203555600Y-75031600D03*
%TD*%
D75*
%TO.P,J9,1,Pin_1*%
%TO.N,18VAC+*%
X203606400Y-97202000D03*
D76*
%TO.P,J9,2,Pin_2*%
%TO.N,18V*%
X203606400Y-94702000D03*
%TO.P,J9,3,Pin_3*%
%TO.N,12V*%
X203606400Y-92202000D03*
%TO.P,J9,4,Pin_4*%
%TO.N,VCC50*%
X203606400Y-89702000D03*
%TD*%
D54*
%TO.P,C22,1*%
%TO.N,VCC33*%
X180670000Y-136260000D03*
%TO.P,C22,2*%
%TO.N,GND*%
X180670000Y-135300000D03*
%TD*%
D16*
%TO.P,D12,1,K*%
%TO.N,18VAC-*%
X134112000Y-70739000D03*
D17*
%TO.P,D12,2,A*%
%TO.N,GND*%
X134112000Y-66929000D03*
%TD*%
D32*
%TO.P,R19,1*%
%TO.N,RTS*%
X177930000Y-125850000D03*
%TO.P,R19,2*%
%TO.N,Net-(Q1-B)*%
X178950000Y-125850000D03*
%TD*%
D26*
%TO.P,R47,1*%
%TO.N,Net-(D15-A)*%
X149199600Y-57619400D03*
%TO.P,R47,2*%
%TO.N,SHUNT*%
X149199600Y-55969400D03*
%TD*%
D54*
%TO.P,C7,1*%
%TO.N,Net-(C7-Pad1)*%
X184300000Y-132580000D03*
%TO.P,C7,2*%
%TO.N,GND*%
X184300000Y-131620000D03*
%TD*%
D44*
%TO.P,C41,1*%
%TO.N,380V*%
X157890500Y-45720000D03*
%TO.P,C41,2*%
%TO.N,SHUNT*%
X163165500Y-45720000D03*
%TD*%
D56*
%TO.P,R17,1*%
%TO.N,Net-(U1-GPIO46)*%
X189610000Y-126728333D03*
%TO.P,R17,2*%
%TO.N,GND*%
X188590000Y-126728333D03*
%TD*%
D30*
%TO.P,R56,1*%
%TO.N,DC_SW*%
X206200000Y-105151429D03*
%TO.P,R56,2*%
%TO.N,GND*%
X206200000Y-104131429D03*
%TD*%
D65*
%TO.P,U6,1,IN*%
%TO.N,18V*%
X147320000Y-118684000D03*
D66*
%TO.P,U6,2,GND*%
%TO.N,GND*%
X144780000Y-118684000D03*
%TO.P,U6,3,OUT*%
%TO.N,12V*%
X142240000Y-118684000D03*
%TD*%
D30*
%TO.P,R5,1*%
%TO.N,Net-(U1-SPID)*%
X196000000Y-117910000D03*
%TO.P,R5,2*%
%TO.N,SPID*%
X196000000Y-116890000D03*
%TD*%
D77*
%TO.P,L5,1,1*%
%TO.N,Net-(U10-SW)*%
X139572900Y-127990600D03*
%TO.P,L5,2,2*%
%TO.N,DC_3V3_2A*%
X141147900Y-127990600D03*
%TD*%
D54*
%TO.P,C50,1*%
%TO.N,Net-(U11-SW)*%
X158648400Y-130324800D03*
%TO.P,C50,2*%
%TO.N,Net-(U11-BST)*%
X158648400Y-129364800D03*
%TD*%
D22*
%TO.P,R53,1*%
%TO.N,5V_INV_SENSE*%
X110998000Y-140462000D03*
%TO.P,R53,2*%
%TO.N,Net-(U9-IN-)*%
X109348000Y-140462000D03*
%TD*%
D25*
%TO.P,C11,1*%
%TO.N,VDD33*%
X201000000Y-133100000D03*
%TO.P,C11,2*%
%TO.N,GND*%
X201000000Y-134060000D03*
%TD*%
D78*
%TO.P,U4,1,GND*%
%TO.N,GND*%
X184270000Y-135440000D03*
%TO.P,U4,2,VO*%
%TO.N,VCC33*%
X184270000Y-137740000D03*
D79*
X190570000Y-137740000D03*
D78*
%TO.P,U4,3,VI*%
%TO.N,VCC50*%
X184270000Y-140040000D03*
%TD*%
D25*
%TO.P,C45,1*%
%TO.N,VDD33*%
X113729000Y-136527600D03*
%TO.P,C45,2*%
%TO.N,GND*%
X113729000Y-137487600D03*
%TD*%
D29*
%TO.P,C47,1*%
%TO.N,12V*%
X153040200Y-131521200D03*
%TO.P,C47,2*%
%TO.N,GND*%
X152080200Y-131521200D03*
%TD*%
D65*
%TO.P,Q6,1,G*%
%TO.N,INV_OUTB*%
X94403333Y-105730000D03*
D66*
%TO.P,Q6,2,D*%
%TO.N,INV_TR-*%
X91863333Y-105730000D03*
%TO.P,Q6,3,S*%
%TO.N,-BATT*%
X89323333Y-105730000D03*
%TD*%
D80*
%TO.P,U5,1,INV*%
%TO.N,Net-(U5-INV)*%
X83745200Y-119786400D03*
%TO.P,U5,2,NI*%
%TO.N,Net-(U5-NI)*%
X83745200Y-121056400D03*
%TO.P,U5,3,SYNC*%
%TO.N,unconnected-(U5-SYNC-Pad3)*%
X83745200Y-122326400D03*
%TO.P,U5,4,OSC*%
%TO.N,unconnected-(U5-OSC-Pad4)*%
X83745200Y-123596400D03*
%TO.P,U5,5,CT*%
%TO.N,Net-(U5-CT)*%
X83745200Y-124866400D03*
%TO.P,U5,6,RT*%
%TO.N,Net-(U5-RT)*%
X83745200Y-126136400D03*
%TO.P,U5,7,DISCH*%
%TO.N,Net-(U5-DISCH)*%
X83745200Y-127406400D03*
%TO.P,U5,8,SS*%
%TO.N,Net-(U5-SS)*%
X83745200Y-128676400D03*
%TO.P,U5,9,COMP*%
%TO.N,unconnected-(U5-COMP-Pad9)*%
X88745200Y-128676400D03*
%TO.P,U5,10,SD*%
%TO.N,Net-(U5-SD)*%
X88745200Y-127406400D03*
%TO.P,U5,11,OUTA*%
%TO.N,Net-(U5-OUTA)*%
X88745200Y-126136400D03*
%TO.P,U5,12,GND*%
%TO.N,-BATT*%
X88745200Y-124866400D03*
%TO.P,U5,13,VC*%
%TO.N,VCC*%
X88745200Y-123596400D03*
%TO.P,U5,14,OUTB*%
%TO.N,Net-(U5-OUTB)*%
X88745200Y-122326400D03*
%TO.P,U5,15,VIN*%
%TO.N,VCC*%
X88745200Y-121056400D03*
%TO.P,U5,16,REF*%
%TO.N,Net-(U5-REF)*%
X88745200Y-119786400D03*
%TD*%
D30*
%TO.P,R58,1*%
%TO.N,Net-(J12-CC2)*%
X140004800Y-141124400D03*
%TO.P,R58,2*%
%TO.N,GND*%
X140004800Y-140104400D03*
%TD*%
D29*
%TO.P,C4,1*%
%TO.N,VDD33*%
X189580000Y-123163333D03*
%TO.P,C4,2*%
%TO.N,GND*%
X188620000Y-123163333D03*
%TD*%
D54*
%TO.P,C15,1*%
%TO.N,VCC50*%
X181870000Y-140420000D03*
%TO.P,C15,2*%
%TO.N,GND*%
X181870000Y-139460000D03*
%TD*%
D50*
%TO.P,R40,1*%
%TO.N,VFB*%
X131153400Y-141579600D03*
%TO.P,R40,2*%
%TO.N,GND*%
X132803400Y-141579600D03*
%TD*%
D30*
%TO.P,R60,1*%
%TO.N,Net-(J12-CC1)*%
X138785600Y-141124400D03*
%TO.P,R60,2*%
%TO.N,GND*%
X138785600Y-140104400D03*
%TD*%
%TO.P,R3,1*%
%TO.N,Net-(U1-SPICLK)*%
X198576667Y-117910000D03*
%TO.P,R3,2*%
%TO.N,SPICLK*%
X198576667Y-116890000D03*
%TD*%
D81*
%TO.P,C43,1*%
%TO.N,INV_TR+*%
X75896000Y-97993200D03*
%TO.P,C43,2*%
%TO.N,Net-(C43-Pad2)*%
X74346000Y-97993200D03*
%TD*%
D72*
%TO.P,SW2,1,1*%
%TO.N,GND*%
X207700000Y-115239047D03*
X211850000Y-115239047D03*
%TO.P,SW2,2,2*%
%TO.N,CHIP_PU*%
X207700000Y-117389047D03*
X211850000Y-117389047D03*
%TD*%
D50*
%TO.P,R35,1*%
%TO.N,-BATT*%
X91389200Y-125105733D03*
%TO.P,R35,2*%
%TO.N,INV_OUTA*%
X93039200Y-125105733D03*
%TD*%
D82*
%TO.P,R32,1*%
%TO.N,Net-(U5-CT)*%
X79526200Y-125526800D03*
%TO.P,R32,2*%
%TO.N,Net-(U5-DISCH)*%
X79526200Y-127176800D03*
%TD*%
D56*
%TO.P,R6,1*%
%TO.N,Net-(U1-U0TXD)*%
X189610000Y-124345000D03*
%TO.P,R6,2*%
%TO.N,U0TXD*%
X188590000Y-124345000D03*
%TD*%
D83*
%TO.P,C32,1*%
%TO.N,18V*%
X141980890Y-110744000D03*
D28*
%TO.P,C32,2*%
%TO.N,GND*%
X146980890Y-110744000D03*
%TD*%
D25*
%TO.P,C14,1*%
%TO.N,Net-(C14-Pad1)*%
X196100000Y-133100000D03*
%TO.P,C14,2*%
%TO.N,GND*%
X196100000Y-134060000D03*
%TD*%
D40*
%TO.P,T1,1,IN-*%
%TO.N,INV_TR+*%
X86854000Y-97202000D03*
%TO.P,T1,2,IN-*%
X86854000Y-92202000D03*
%TO.P,T1,3,IN-*%
X86854000Y-87202000D03*
%TO.P,T1,4,NC4*%
%TO.N,unconnected-(T1-NC4-Pad4)*%
X86854000Y-82202000D03*
%TO.P,T1,5,VCC*%
%TO.N,+BATT*%
X86854000Y-77202000D03*
%TO.P,T1,6,VCC*%
X86854000Y-72202000D03*
%TO.P,T1,7,VCC*%
X86854000Y-67202000D03*
%TO.P,T1,8,NC8*%
%TO.N,unconnected-(T1-NC8-Pad8)*%
X86854000Y-62202000D03*
%TO.P,T1,9,IN+*%
%TO.N,INV_TR-*%
X86854000Y-57202000D03*
%TO.P,T1,10,IN+*%
X86854000Y-52202000D03*
%TO.P,T1,11,IN+*%
X86854000Y-47202000D03*
%TO.P,T1,12,OUT-*%
%TO.N,18VAC+*%
X116854000Y-47202000D03*
%TO.P,T1,13,NC13*%
%TO.N,18VAC-*%
X116854000Y-52202000D03*
%TO.P,T1,14,NC14*%
%TO.N,unconnected-(T1-NC14-Pad14)*%
X116854000Y-57202000D03*
%TO.P,T1,15,NC15*%
%TO.N,unconnected-(T1-NC15-Pad15)*%
X116854000Y-62202000D03*
%TO.P,T1,16,NC16*%
%TO.N,Net-(T1-NC16)*%
X116854000Y-67202000D03*
%TO.P,T1,17,NC17*%
%TO.N,unconnected-(T1-NC17-Pad17)*%
X116854000Y-72202000D03*
%TO.P,T1,18,OUT+*%
%TO.N,unconnected-(T1-OUT+-Pad18)*%
X116854000Y-77202000D03*
%TO.P,T1,19,NC19*%
%TO.N,unconnected-(T1-NC19-Pad19)*%
X116854000Y-82202000D03*
%TO.P,T1,20,NC20*%
%TO.N,unconnected-(T1-NC20-Pad20)*%
X116854000Y-87202000D03*
%TO.P,T1,21,AUX-*%
%TO.N,unconnected-(T1-AUX--Pad21)*%
X116854000Y-92202000D03*
%TO.P,T1,22,AUX+*%
%TO.N,Net-(T1-AUX+)*%
X116854000Y-97202000D03*
%TD*%
D16*
%TO.P,C38,1*%
%TO.N,CH_L*%
X129540000Y-114046000D03*
D17*
%TO.P,C38,2*%
%TO.N,CH_R*%
X129540000Y-106546000D03*
%TD*%
D54*
%TO.P,C21,1*%
%TO.N,VCC33*%
X181870000Y-136260000D03*
%TO.P,C21,2*%
%TO.N,GND*%
X181870000Y-135300000D03*
%TD*%
D60*
%TO.P,L1,1,1*%
%TO.N,VDD33*%
X197330000Y-134065000D03*
%TO.P,L1,2,2*%
%TO.N,Net-(C14-Pad1)*%
X197330000Y-133095000D03*
%TD*%
D69*
%TO.P,J7,1,Pin_1*%
%TO.N,SHUNT*%
X77520800Y-146202400D03*
D70*
%TO.P,J7,2,Pin_2*%
%TO.N,GND*%
X80060800Y-146202400D03*
%TO.P,J7,3,Pin_3*%
%TO.N,1LO*%
X82600800Y-146202400D03*
%TO.P,J7,4,Pin_4*%
%TO.N,GND*%
X85140800Y-146202400D03*
%TO.P,J7,5,Pin_5*%
%TO.N,CH_L*%
X87680800Y-146202400D03*
%TO.P,J7,6,Pin_6*%
%TO.N,1HO*%
X90220800Y-146202400D03*
%TO.P,J7,7,Pin_7*%
%TO.N,GND*%
X92760800Y-146202400D03*
%TO.P,J7,8,Pin_8*%
%TO.N,2LO*%
X95300800Y-146202400D03*
%TO.P,J7,9,Pin_9*%
%TO.N,COIL*%
X97840800Y-146202400D03*
%TO.P,J7,10,Pin_10*%
%TO.N,2HO*%
X100380800Y-146202400D03*
%TO.P,J7,11,Pin_11*%
%TO.N,GND*%
X102920800Y-146202400D03*
%TO.P,J7,12,Pin_12*%
%TO.N,12V*%
X105460800Y-146202400D03*
%TO.P,J7,13,Pin_13*%
%TO.N,GND*%
X108000800Y-146202400D03*
%TO.P,J7,14,Pin_14*%
%TO.N,VCC50*%
X110540800Y-146202400D03*
%TO.P,J7,15,Pin_15*%
%TO.N,VFB*%
X113080800Y-146202400D03*
%TO.P,J7,16,Pin_16*%
%TO.N,Net-(J7-Pin_16)*%
X115620800Y-146202400D03*
%TO.P,J7,17,Pin_17*%
%TO.N,FAN_CTRL*%
X118160800Y-146202400D03*
%TD*%
D32*
%TO.P,R61,1*%
%TO.N,Net-(D7-A)*%
X178300000Y-116100000D03*
%TO.P,R61,2*%
%TO.N,DC_3V3_2A*%
X179320000Y-116100000D03*
%TD*%
D58*
%TO.P,Q13,1,E*%
%TO.N,GND*%
X182810000Y-121300000D03*
D59*
%TO.P,Q13,2,B*%
%TO.N,AC_EN*%
X184080000Y-121300000D03*
%TO.P,Q13,3,C*%
%TO.N,Net-(D6-K)*%
X185350000Y-121300000D03*
%TD*%
D84*
%TO.P,C33,1*%
%TO.N,5V_INV_SENSE*%
X166928077Y-112064800D03*
D39*
%TO.P,C33,2*%
%TO.N,GND*%
X163128077Y-112064800D03*
%TD*%
D25*
%TO.P,C24,1*%
%TO.N,VDD33*%
X181870000Y-137360000D03*
%TO.P,C24,2*%
%TO.N,GND*%
X181870000Y-138320000D03*
%TD*%
D26*
%TO.P,R49,1*%
%TO.N,2LO*%
X182168800Y-57721000D03*
%TO.P,R49,2*%
%TO.N,Net-(Q11-G)*%
X182168800Y-56071000D03*
%TD*%
%TO.P,R48,1*%
%TO.N,2HO*%
X164998400Y-57873400D03*
%TO.P,R48,2*%
%TO.N,Net-(Q8-G)*%
X164998400Y-56223400D03*
%TD*%
D22*
%TO.P,R29,1*%
%TO.N,Net-(U5-NI)*%
X81101200Y-121299050D03*
%TO.P,R29,2*%
%TO.N,Net-(U5-REF)*%
X79451200Y-121299050D03*
%TD*%
D72*
%TO.P,SW4,1,1*%
%TO.N,VDD33*%
X207700000Y-102600000D03*
X211850000Y-102600000D03*
%TO.P,SW4,2,2*%
%TO.N,DC_SW*%
X207700000Y-104750000D03*
X211850000Y-104750000D03*
%TD*%
D67*
%TO.P,REF\u002A\u002A,1*%
%TO.N,N/C*%
X203858600Y-52300500D03*
D68*
X203858600Y-52300500D03*
%TD*%
D69*
%TO.P,J5,1,Pin_1*%
%TO.N,Net-(J5-Pin_1)*%
X121869200Y-146207400D03*
D70*
%TO.P,J5,2,Pin_2*%
%TO.N,12V*%
X121869200Y-143667400D03*
%TD*%
D29*
%TO.P,C25,1*%
%TO.N,VCC50*%
X165480000Y-136200000D03*
%TO.P,C25,2*%
%TO.N,GND*%
X164520000Y-136200000D03*
%TD*%
D56*
%TO.P,R55,1*%
%TO.N,VDD33*%
X193300000Y-132100000D03*
%TO.P,R55,2*%
%TO.N,GPIO5*%
X192280000Y-132100000D03*
%TD*%
D85*
%TO.P,CHOKE1,1*%
%TO.N,CH_R*%
X178468000Y-108469500D03*
D28*
%TO.P,CHOKE1,2*%
%TO.N,Net-(J6-Pin_1)*%
X178468000Y-95969500D03*
%TO.P,CHOKE1,3*%
%TO.N,Net-(J6-Pin_2)*%
X188468000Y-108469500D03*
%TO.P,CHOKE1,4*%
%TO.N,CH_L*%
X188468000Y-95969500D03*
%TD*%
D67*
%TO.P,REF\u002A\u002A,1*%
%TO.N,N/C*%
X203708000Y-140716000D03*
D68*
X203708000Y-140716000D03*
%TD*%
D56*
%TO.P,R54,1*%
%TO.N,VDD33*%
X193300000Y-130900000D03*
%TO.P,R54,2*%
%TO.N,GPIO4*%
X192280000Y-130900000D03*
%TD*%
D86*
%TO.P,D7,1,K*%
%TO.N,Net-(D7-K)*%
X180097500Y-117600000D03*
%TO.P,D7,2,A*%
%TO.N,Net-(D7-A)*%
X178522500Y-117600000D03*
%TD*%
D56*
%TO.P,R25,1*%
%TO.N,USB0_CC1*%
X170510000Y-141700000D03*
%TO.P,R25,2*%
%TO.N,GND*%
X169490000Y-141700000D03*
%TD*%
D87*
%TO.P,Q7,1,B*%
%TO.N,Net-(Q7-B)*%
X116536300Y-142009100D03*
%TO.P,Q7,2,E*%
%TO.N,GND*%
X118436300Y-142009100D03*
%TO.P,Q7,3,C*%
%TO.N,Net-(J5-Pin_1)*%
X117486300Y-140134100D03*
%TD*%
D54*
%TO.P,C52,1*%
%TO.N,Net-(U10-SW)*%
X147002000Y-130375600D03*
%TO.P,C52,2*%
%TO.N,Net-(U10-BST)*%
X147002000Y-129415600D03*
%TD*%
D26*
%TO.P,R31,1*%
%TO.N,Net-(U5-RT)*%
X81124000Y-127176800D03*
%TO.P,R31,2*%
%TO.N,-BATT*%
X81124000Y-125526800D03*
%TD*%
D88*
%TO.P,Q2,1,B*%
%TO.N,Net-(Q2-B)*%
X169112500Y-126220000D03*
%TO.P,Q2,2,E*%
%TO.N,RTS*%
X169112500Y-128120000D03*
%TO.P,Q2,3,C*%
%TO.N,Net-(Q2-C)*%
X170987500Y-127170000D03*
%TD*%
D56*
%TO.P,R18,1*%
%TO.N,DTR*%
X172560000Y-125850000D03*
%TO.P,R18,2*%
%TO.N,Net-(Q2-B)*%
X171540000Y-125850000D03*
%TD*%
D26*
%TO.P,R45,1*%
%TO.N,Net-(D14-A)*%
X131186200Y-57619400D03*
%TO.P,R45,2*%
%TO.N,CH_L*%
X131186200Y-55969400D03*
%TD*%
D25*
%TO.P,C12,1*%
%TO.N,VDD33*%
X199780000Y-133100000D03*
%TO.P,C12,2*%
%TO.N,GND*%
X199780000Y-134060000D03*
%TD*%
D22*
%TO.P,R52,1*%
%TO.N,INV_TR-*%
X75946000Y-99822000D03*
%TO.P,R52,2*%
%TO.N,Net-(C43-Pad2)*%
X74296000Y-99822000D03*
%TD*%
D29*
%TO.P,C49,1*%
%TO.N,DC_5V_2A_USB*%
X153040200Y-130423867D03*
%TO.P,C49,2*%
%TO.N,GND*%
X152080200Y-130423867D03*
%TD*%
D50*
%TO.P,R34,1*%
%TO.N,Net-(U5-OUTA)*%
X91389200Y-126789467D03*
%TO.P,R34,2*%
%TO.N,INV_OUTA*%
X93039200Y-126789467D03*
%TD*%
D29*
%TO.P,C48,1*%
%TO.N,DC_5V_2A_USB*%
X153040200Y-129326533D03*
%TO.P,C48,2*%
%TO.N,GND*%
X152080200Y-129326533D03*
%TD*%
D89*
%TO.P,U2,1,~{CS}*%
%TO.N,SPICS0*%
X197495000Y-113907500D03*
%TO.P,U2,2,DO/IO_{1}*%
%TO.N,SPIQ*%
X198765000Y-113907500D03*
%TO.P,U2,3,~{WP}/IO_{2}*%
%TO.N,SPIWP*%
X200035000Y-113907500D03*
%TO.P,U2,4,GND*%
%TO.N,GND*%
X201305000Y-113907500D03*
%TO.P,U2,5,DI/IO_{0}*%
%TO.N,SPID*%
X201305000Y-106732500D03*
%TO.P,U2,6,CLK*%
%TO.N,SPICLK*%
X200035000Y-106732500D03*
%TO.P,U2,7,~{HOLD}/~{RESET}/IO_{3}*%
%TO.N,SPIHD*%
X198765000Y-106732500D03*
%TO.P,U2,8,VCC*%
%TO.N,VDD_SPI*%
X197495000Y-106732500D03*
%TD*%
D36*
%TO.P,Q9,1,G*%
%TO.N,Net-(Q9-G)*%
X131324200Y-52037400D03*
D37*
%TO.P,Q9,2,C*%
%TO.N,380V*%
X136774200Y-52037400D03*
%TO.P,Q9,3,E*%
%TO.N,CH_L*%
X142224200Y-52037400D03*
%TD*%
D86*
%TO.P,D6,1,K*%
%TO.N,Net-(D6-K)*%
X185970000Y-117540000D03*
%TO.P,D6,2,A*%
%TO.N,Net-(D6-A)*%
X184395000Y-117540000D03*
%TD*%
D75*
%TO.P,J2,1,Pin_1*%
%TO.N,MCU_SPI0_CS3*%
X209753200Y-97198933D03*
D76*
%TO.P,J2,2,Pin_2*%
%TO.N,GPIO14*%
X209753200Y-94698933D03*
%TO.P,J2,3,Pin_3*%
%TO.N,GPIO10*%
X209753200Y-92198933D03*
%TO.P,J2,4,Pin_4*%
%TO.N,GPIO11*%
X209753200Y-89698933D03*
%TO.P,J2,5,Pin_5*%
%TO.N,GPIO13*%
X209753200Y-87198933D03*
%TO.P,J2,6,Pin_6*%
%TO.N,GPIO12*%
X209753200Y-84698933D03*
%TD*%
D54*
%TO.P,C26,1*%
%TO.N,GND*%
X171000000Y-133480000D03*
%TO.P,C26,2*%
%TO.N,VCC33*%
X171000000Y-132520000D03*
%TD*%
D56*
%TO.P,R7,1*%
%TO.N,GPIO45*%
X189615000Y-125536667D03*
%TO.P,R7,2*%
%TO.N,VDD33*%
X188595000Y-125536667D03*
%TD*%
D29*
%TO.P,C29,1*%
%TO.N,Net-(U5-CT)*%
X80186200Y-124257550D03*
%TO.P,C29,2*%
%TO.N,-BATT*%
X79226200Y-124257550D03*
%TD*%
D71*
%TO.P,R11,1*%
%TO.N,Net-(U3-VBUS)*%
X173590000Y-135300000D03*
%TO.P,R11,2*%
%TO.N,GND*%
X173590000Y-136320000D03*
%TD*%
D22*
%TO.P,R42,1*%
%TO.N,Output*%
X132803400Y-138277600D03*
%TO.P,R42,2*%
%TO.N,CH_R*%
X131153400Y-138277600D03*
%TD*%
D56*
%TO.P,R43,1*%
%TO.N,FAN_CTRL*%
X118555100Y-143690100D03*
%TO.P,R43,2*%
%TO.N,Net-(Q7-B)*%
X117535100Y-143690100D03*
%TD*%
D45*
%TO.P,D4,1,A1*%
%TO.N,GND*%
X169700000Y-132320000D03*
%TO.P,D4,2,A2*%
%TO.N,USB_DN*%
X169700000Y-131480000D03*
%TD*%
D54*
%TO.P,C3,1*%
%TO.N,VDD_SPI*%
X203700000Y-117880000D03*
%TO.P,C3,2*%
%TO.N,GND*%
X203700000Y-116920000D03*
%TD*%
D90*
%TO.P,C30,1*%
%TO.N,Net-(U5-SS)*%
X83801200Y-132384800D03*
D39*
%TO.P,C30,2*%
%TO.N,-BATT*%
X85801200Y-132384800D03*
%TD*%
D25*
%TO.P,C13,1*%
%TO.N,VDD33*%
X198560000Y-133100000D03*
%TO.P,C13,2*%
%TO.N,GND*%
X198560000Y-134060000D03*
%TD*%
D71*
%TO.P,R21,1*%
%TO.N,GPIO0*%
X183235600Y-126591600D03*
%TO.P,R21,2*%
%TO.N,Net-(Q1-C)*%
X183235600Y-127611600D03*
%TD*%
D91*
%TO.P,A1,1,GND_IN*%
%TO.N,GND*%
X196630000Y-145310000D03*
D92*
%TO.P,A1,2,LNA_IN*%
%TO.N,Net-(A1-LNA_IN)*%
X194530000Y-145320000D03*
%TD*%
D50*
%TO.P,R30,1*%
%TO.N,Net-(U5-SD)*%
X91377000Y-128473200D03*
%TO.P,R30,2*%
%TO.N,-BATT*%
X93027000Y-128473200D03*
%TD*%
D67*
%TO.P,REF\u002A\u002A,1*%
%TO.N,N/C*%
X70104000Y-140716000D03*
D68*
X70104000Y-140716000D03*
%TD*%
D30*
%TO.P,R4,1*%
%TO.N,Net-(U1-SPIQ)*%
X197288333Y-117910000D03*
%TO.P,R4,2*%
%TO.N,SPIQ*%
X197288333Y-116890000D03*
%TD*%
D65*
%TO.P,Q4,1,G*%
%TO.N,INV_OUTA*%
X116586000Y-105664000D03*
D66*
%TO.P,Q4,2,D*%
%TO.N,INV_TR+*%
X114046000Y-105664000D03*
%TO.P,Q4,3,S*%
%TO.N,-BATT*%
X111506000Y-105664000D03*
%TD*%
D72*
%TO.P,SW5,1,1*%
%TO.N,VDD33*%
X207700000Y-108919524D03*
X211850000Y-108919524D03*
%TO.P,SW5,2,2*%
%TO.N,AC_SW*%
X207700000Y-111069524D03*
X211850000Y-111069524D03*
%TD*%
D93*
%TO.P,U1,1,LNA_IN*%
%TO.N,/LNA_IN*%
X194499999Y-128806669D03*
%TO.P,U1,2,VDD3P3*%
%TO.N,Net-(C14-Pad1)*%
X194899998Y-128806669D03*
%TO.P,U1,3,VDD3P3*%
X195300000Y-128806669D03*
%TO.P,U1,4,CHIP_PU*%
%TO.N,CHIP_PU*%
X195699999Y-128806669D03*
%TO.P,U1,5,GPIO0*%
%TO.N,GPIO0*%
X196099998Y-128806669D03*
%TO.P,U1,6,GPIO1*%
%TO.N,GPIO1*%
X196500000Y-128806669D03*
%TO.P,U1,7,GPIO2*%
%TO.N,GPIO2*%
X196899999Y-128806669D03*
%TO.P,U1,8,GPIO3*%
%TO.N,GPIO3*%
X197299999Y-128806669D03*
%TO.P,U1,9,GPIO4*%
%TO.N,GPIO4*%
X197699998Y-128806669D03*
%TO.P,U1,10,GPIO5*%
%TO.N,GPIO5*%
X198100000Y-128806669D03*
%TO.P,U1,11,GPIO6*%
%TO.N,DC_SW*%
X198499999Y-128806669D03*
%TO.P,U1,12,GPIO7*%
%TO.N,AC_SW*%
X198899998Y-128806669D03*
%TO.P,U1,13,GPIO8*%
%TO.N,GPIO8*%
X199300000Y-128806669D03*
%TO.P,U1,14,GPIO9*%
%TO.N,GPIO9*%
X199699999Y-128806669D03*
D94*
%TO.P,U1,15,GPIO10*%
%TO.N,GPIO10*%
X200550000Y-127956668D03*
%TO.P,U1,16,GPIO11*%
%TO.N,GPIO11*%
X200550000Y-127556669D03*
%TO.P,U1,17,GPIO12*%
%TO.N,GPIO12*%
X200550000Y-127156667D03*
%TO.P,U1,18,GPIO13*%
%TO.N,GPIO13*%
X200550000Y-126756668D03*
%TO.P,U1,19,GPIO14*%
%TO.N,GPIO14*%
X200550000Y-126356669D03*
%TO.P,U1,20,VDD3P3_RTC*%
%TO.N,VDD33*%
X200550000Y-125956667D03*
%TO.P,U1,21,XTAL_32K_P*%
%TO.N,GPIO15*%
X200550000Y-125556668D03*
%TO.P,U1,22,XTAL_32K_N*%
%TO.N,GPIO16*%
X200550000Y-125156668D03*
%TO.P,U1,23,GPIO17*%
%TO.N,GPIO17*%
X200550000Y-124756669D03*
%TO.P,U1,24,GPIO18*%
%TO.N,GPIO18*%
X200550000Y-124356667D03*
%TO.P,U1,25,GPIO19*%
%TO.N,GPIO19*%
X200550000Y-123956668D03*
%TO.P,U1,26,GPIO20*%
%TO.N,GPIO20*%
X200550000Y-123556669D03*
%TO.P,U1,27,GPIO21*%
%TO.N,GPIO21*%
X200550000Y-123156667D03*
%TO.P,U1,28,SPICS1*%
%TO.N,unconnected-(U1-SPICS1-Pad28)*%
X200550000Y-122756668D03*
D93*
%TO.P,U1,29,VDD_SPI*%
%TO.N,VDD_SPI*%
X199699999Y-121906667D03*
%TO.P,U1,30,SPIHD*%
%TO.N,Net-(U1-SPIHD)*%
X199300000Y-121906667D03*
%TO.P,U1,31,SPIWP*%
%TO.N,Net-(U1-SPIWP)*%
X198899998Y-121906667D03*
%TO.P,U1,32,SPICS0*%
%TO.N,SPICS0*%
X198499999Y-121906667D03*
%TO.P,U1,33,SPICLK*%
%TO.N,Net-(U1-SPICLK)*%
X198100000Y-121906667D03*
%TO.P,U1,34,SPIQ*%
%TO.N,Net-(U1-SPIQ)*%
X197699998Y-121906667D03*
%TO.P,U1,35,SPID*%
%TO.N,Net-(U1-SPID)*%
X197299999Y-121906667D03*
%TO.P,U1,36,SPICLK_N*%
%TO.N,GPIO48*%
X196899999Y-121906667D03*
%TO.P,U1,37,SPICLK_P*%
%TO.N,GPIO47*%
X196500000Y-121906667D03*
%TO.P,U1,38,GPIO33*%
%TO.N,unconnected-(U1-GPIO33-Pad38)*%
X196099998Y-121906667D03*
%TO.P,U1,39,GPIO34*%
%TO.N,unconnected-(U1-GPIO34-Pad39)*%
X195699999Y-121906667D03*
%TO.P,U1,40,GPIO35*%
%TO.N,GPIO35*%
X195300000Y-121906667D03*
%TO.P,U1,41,GPIO36*%
%TO.N,GPIO36*%
X194899998Y-121906667D03*
%TO.P,U1,42,GPIO37*%
%TO.N,GPIO37*%
X194499999Y-121906667D03*
D94*
%TO.P,U1,43,GPIO38*%
%TO.N,GPIO38*%
X193649998Y-122756668D03*
%TO.P,U1,44,MTCK*%
%TO.N,GPIO39*%
X193649998Y-123156667D03*
%TO.P,U1,45,MTDO*%
%TO.N,GPIO40*%
X193649998Y-123556669D03*
%TO.P,U1,46,VDD3P3_CPU*%
%TO.N,VDD33*%
X193649998Y-123956668D03*
%TO.P,U1,47,MTDI*%
%TO.N,GPIO41*%
X193649998Y-124356667D03*
%TO.P,U1,48,MTMS*%
%TO.N,GPIO42*%
X193649998Y-124756669D03*
%TO.P,U1,49,U0TXD*%
%TO.N,Net-(U1-U0TXD)*%
X193649998Y-125156668D03*
%TO.P,U1,50,U0RXD*%
%TO.N,U0RXD*%
X193649998Y-125556668D03*
%TO.P,U1,51,GPIO45*%
%TO.N,GPIO45*%
X193649998Y-125956667D03*
%TO.P,U1,52,GPIO46*%
%TO.N,Net-(U1-GPIO46)*%
X193649998Y-126356669D03*
%TO.P,U1,53,XTAL_N*%
%TO.N,Net-(U1-XTAL_N)*%
X193649998Y-126756668D03*
%TO.P,U1,54,XTAL_P*%
%TO.N,Net-(U1-XTAL_P)*%
X193649998Y-127156667D03*
%TO.P,U1,55,VDDA*%
%TO.N,VDD33*%
X193649998Y-127556669D03*
%TO.P,U1,56,VDDA*%
X193649998Y-127956668D03*
D95*
%TO.P,U1,57,GND*%
%TO.N,GND*%
X197099999Y-125356668D03*
%TD*%
D96*
%TO.P,L3,1,1*%
%TO.N,CH_R*%
X172466000Y-86346000D03*
%TO.P,L3,2,2*%
%TO.N,COIL*%
X172466000Y-65546000D03*
%TD*%
D36*
%TO.P,Q10,1,G*%
%TO.N,Net-(Q10-G)*%
X149526400Y-52019200D03*
D37*
%TO.P,Q10,2,C*%
%TO.N,CH_L*%
X154976400Y-52019200D03*
%TO.P,Q10,3,E*%
%TO.N,SHUNT*%
X160426400Y-52019200D03*
%TD*%
D97*
%TO.P,Q1,1,B*%
%TO.N,Net-(Q1-B)*%
X181367500Y-127945000D03*
%TO.P,Q1,2,E*%
%TO.N,DTR*%
X181367500Y-126045000D03*
%TO.P,Q1,3,C*%
%TO.N,Net-(Q1-C)*%
X179492500Y-126995000D03*
%TD*%
D18*
%TO.P,C10,1*%
%TO.N,Net-(A1-LNA_IN)*%
X194500000Y-143000000D03*
%TO.P,C10,2*%
%TO.N,GND*%
X195460000Y-143000000D03*
%TD*%
D54*
%TO.P,C44,1*%
%TO.N,VDD33*%
X64731400Y-129207200D03*
%TO.P,C44,2*%
%TO.N,GND*%
X64731400Y-128247200D03*
%TD*%
D98*
%TO.P,D2,1,VSS*%
%TO.N,GND*%
X189400000Y-117220000D03*
%TO.P,D2,2,DIN*%
%TO.N,/RGB_CTRL*%
X192600000Y-117220000D03*
%TO.P,D2,3,VDD*%
%TO.N,VDD33*%
X192600000Y-112320000D03*
%TO.P,D2,4,DOUT*%
%TO.N,unconnected-(D2-DOUT-Pad4)*%
X189400000Y-112320000D03*
%TD*%
D71*
%TO.P,R22,1*%
%TO.N,VCC33*%
X179470000Y-137330000D03*
%TO.P,R22,2*%
%TO.N,VDD33*%
X179470000Y-138350000D03*
%TD*%
D90*
%TO.P,C37,1*%
%TO.N,12V*%
X153451833Y-112115600D03*
D39*
%TO.P,C37,2*%
%TO.N,GND*%
X157251833Y-112115600D03*
%TD*%
D71*
%TO.P,R16,1*%
%TO.N,U0TXD*%
X175750000Y-125750000D03*
%TO.P,R16,2*%
%TO.N,Net-(U3-RXD)*%
X175750000Y-126770000D03*
%TD*%
D65*
%TO.P,Q5,1,G*%
%TO.N,INV_OUTB*%
X83312000Y-105664000D03*
D66*
%TO.P,Q5,2,D*%
%TO.N,INV_TR-*%
X80772000Y-105664000D03*
%TO.P,Q5,3,S*%
%TO.N,-BATT*%
X78232000Y-105664000D03*
%TD*%
D54*
%TO.P,C27,1*%
%TO.N,VDD33*%
X63613800Y-129207200D03*
%TO.P,C27,2*%
%TO.N,GND*%
X63613800Y-128247200D03*
%TD*%
D26*
%TO.P,R33,1*%
%TO.N,VCC*%
X91440000Y-118985800D03*
%TO.P,R33,2*%
%TO.N,Net-(D9-A)*%
X91440000Y-117335800D03*
%TD*%
D99*
%TO.N,GND*%
X163400000Y-136200000D03*
X70866000Y-127000000D03*
X177300000Y-136300000D03*
X206200000Y-109400000D03*
X206200000Y-122000000D03*
X189400000Y-115620000D03*
X113030000Y-138684000D03*
X201300000Y-112220000D03*
X175514000Y-138328400D03*
X158496000Y-131339200D03*
X198300000Y-125400000D03*
X203700000Y-115820000D03*
X187500000Y-126720000D03*
X206200000Y-103100000D03*
X206200000Y-115700000D03*
X142443200Y-145135600D03*
X170700000Y-129800000D03*
X176225200Y-130911600D03*
X134112000Y-141478000D03*
X187500000Y-122020000D03*
X136398000Y-145084800D03*
X196500000Y-139900000D03*
X171000000Y-134400000D03*
X196100000Y-135200000D03*
X189100000Y-129800000D03*
X182870000Y-138850000D03*
X173600000Y-137300000D03*
X196500000Y-143000000D03*
X139446000Y-130556000D03*
X150876000Y-130556000D03*
X199700000Y-135200000D03*
X117602000Y-141986000D03*
X181870000Y-134150000D03*
X146812000Y-131354400D03*
X174548800Y-130911600D03*
X139395200Y-139192000D03*
X195900000Y-125300000D03*
%TO.N,VDD33*%
X197300000Y-135200000D03*
X209700000Y-108900000D03*
X190700000Y-123100000D03*
X209600000Y-102600000D03*
X113792000Y-134366000D03*
X193900000Y-112300000D03*
X193300000Y-128900000D03*
X178370000Y-138330000D03*
X63627000Y-130302000D03*
X187500000Y-125600000D03*
%TO.N,VCC50*%
X179700000Y-140400000D03*
%TO.N,CHIP_PU*%
X167400000Y-125500000D03*
X205600000Y-133100000D03*
X206200000Y-118900000D03*
%TO.N,GPIO0*%
X183235600Y-125730000D03*
X201168000Y-131600000D03*
%TO.N,VCC33*%
X174900000Y-137300000D03*
X172900000Y-133300000D03*
%TO.N,-BATT*%
X82192406Y-125286401D03*
X86360000Y-124968000D03*
X77978000Y-124206000D03*
X79502000Y-118364000D03*
X94488000Y-118872000D03*
%TO.N,VCC*%
X89916000Y-118364000D03*
%TO.N,5V_INV_SENSE*%
X113030000Y-139954000D03*
%TO.N,380V*%
X160528000Y-44958000D03*
%TO.N,12V*%
X143002000Y-132842000D03*
X149352000Y-131064000D03*
%TO.N,DC_5V_2A_USB*%
X153162000Y-127000000D03*
%TO.N,Net-(U11-SW)*%
X150876000Y-128270000D03*
X159512000Y-130302000D03*
%TO.N,DC_3V3_2A*%
X142494000Y-128270000D03*
X180400000Y-116100000D03*
%TO.N,USB_DP*%
X171670201Y-145332779D03*
X173634400Y-144830800D03*
%TO.N,USB_DN*%
X170900000Y-144694978D03*
X172669200Y-145288000D03*
%TO.N,USB0_VBUS*%
X171000000Y-137300000D03*
%TO.N,1LO*%
X104648000Y-119380000D03*
%TO.N,GPIO13*%
X207264000Y-125222000D03*
%TO.N,GPIO14*%
X206248000Y-125222000D03*
%TO.N,GPIO10*%
X210820000Y-125222000D03*
%TO.N,GPIO11*%
X209550000Y-125222000D03*
%TO.N,GPIO12*%
X208264003Y-125222000D03*
%TO.N,GPIO5*%
X191200000Y-132100000D03*
X198400003Y-130900000D03*
X108458000Y-135382000D03*
X70866000Y-129794000D03*
%TO.N,GPIO4*%
X70866000Y-128524000D03*
X106934000Y-137160000D03*
X191200000Y-130900000D03*
X197400000Y-130900000D03*
%TO.N,GPIO18*%
X204400000Y-118872000D03*
%TO.N,DTR*%
X172900000Y-127200000D03*
X180000000Y-125900000D03*
%TO.N,RTS*%
X177200000Y-127000000D03*
X170750000Y-128350000D03*
%TO.N,INV_TR-*%
X74295000Y-101812600D03*
%TO.N,DC_EN*%
X207500000Y-129900000D03*
%TO.N,AC_EN*%
X207500000Y-128900000D03*
%TO.N,SPICLK*%
X200000000Y-105020000D03*
X198500000Y-115720000D03*
%TO.N,U0RXD*%
X175700000Y-124600000D03*
X191000000Y-125020000D03*
%TO.N,DC_SW*%
X206255025Y-106444975D03*
X199400006Y-130900000D03*
%TO.N,AC_SW*%
X200400009Y-130900000D03*
X206200000Y-112600000D03*
%TO.N,GPIO3*%
X196800000Y-130100000D03*
%TD*%
D100*
%TO.N,12V*%
X153451833Y-112115600D02*
X153451833Y-109768367D01*
X153451833Y-109768367D02*
X158292800Y-104927400D01*
X158292800Y-104927400D02*
X194360800Y-104927400D01*
X204546200Y-100457000D02*
X205663800Y-99339400D01*
X194360800Y-104927400D02*
X198831200Y-100457000D01*
X198831200Y-100457000D02*
X204546200Y-100457000D01*
X205663800Y-99339400D02*
X205663800Y-92887800D01*
X205663800Y-92887800D02*
X204978000Y-92202000D01*
X204978000Y-92202000D02*
X203606400Y-92202000D01*
D101*
%TO.N,380V*%
X172451588Y-47258395D02*
X172451600Y-47258407D01*
X172451600Y-47258407D02*
X172451600Y-52171600D01*
%TO.N,CH_L*%
X129540000Y-131318000D02*
X128930400Y-131318000D01*
X128930400Y-131318000D02*
X125095000Y-127482600D01*
X125095000Y-127482600D02*
X125095000Y-120878600D01*
X125095000Y-120878600D02*
X129540000Y-116433600D01*
X129540000Y-116433600D02*
X129540000Y-114046000D01*
D100*
%TO.N,CH_R*%
X129540000Y-123818000D02*
X129863200Y-123818000D01*
X129863200Y-123818000D02*
X133883400Y-127838200D01*
X133883400Y-127838200D02*
X133883400Y-133223000D01*
X133883400Y-133223000D02*
X131153400Y-135953000D01*
X131153400Y-135953000D02*
X131153400Y-138277600D01*
%TO.N,18V*%
X141980890Y-110744000D02*
X141980890Y-109148910D01*
X141980890Y-109148910D02*
X148310600Y-102819200D01*
X197906000Y-94702000D02*
X203606400Y-94702000D01*
X148310600Y-102819200D02*
X189788800Y-102819200D01*
X189788800Y-102819200D02*
X197906000Y-94702000D01*
D101*
%TO.N,Net-(J6-Pin_1)*%
X200152000Y-65883500D02*
X207674500Y-65883500D01*
X207674500Y-65883500D02*
X208026000Y-65532000D01*
X178468000Y-95969500D02*
X187934600Y-86502900D01*
X187934600Y-86502900D02*
X187934600Y-70688200D01*
X192739300Y-65883500D02*
X200152000Y-65883500D01*
X187934600Y-70688200D02*
X192739300Y-65883500D01*
D102*
%TO.N,GND*%
X113729000Y-137985000D02*
X113729000Y-137487600D01*
D103*
X188635076Y-121996645D02*
X188620000Y-123163333D01*
D102*
X132803400Y-141579600D02*
X134010399Y-141579600D01*
D103*
X189400000Y-115620000D02*
X189400000Y-117220000D01*
X136400000Y-145081385D02*
X136400006Y-145082802D01*
D104*
X81026000Y-145237200D02*
X81026000Y-138938000D01*
D102*
X112509801Y-138163799D02*
X112509799Y-137487600D01*
X112509801Y-138163799D02*
X113030000Y-138684000D01*
D105*
X67671192Y-128493420D02*
X66584458Y-128493400D01*
D103*
X172484201Y-130400003D02*
X171907199Y-129822998D01*
D102*
X151008139Y-130423882D02*
X152080200Y-130423867D01*
D103*
X170999999Y-133480000D02*
X171000000Y-134400000D01*
D106*
X139561207Y-130440818D02*
X139446000Y-130556000D01*
D103*
X203680005Y-124520003D02*
X203680000Y-124968000D01*
X201601000Y-134660999D02*
X201000000Y-134060000D01*
X173600000Y-137300000D02*
X173590012Y-137289994D01*
X136398000Y-145084800D02*
X136400006Y-145082802D01*
D102*
X152080200Y-130423867D02*
X152080200Y-131521200D01*
D103*
X189100000Y-129800000D02*
X187590000Y-129800000D01*
X181675000Y-139460000D02*
X180687071Y-139460000D01*
X198256675Y-125356648D02*
X197671664Y-125356668D01*
X201601000Y-134660999D02*
X203898999Y-134661000D01*
X175409979Y-143285008D02*
X175410000Y-141700000D01*
X169700000Y-132699999D02*
X169700000Y-132320000D01*
D105*
X64731399Y-128247200D02*
X63613800Y-128247200D01*
D103*
X206660954Y-115239050D02*
X206200000Y-115700000D01*
X188625857Y-121991667D02*
X188640042Y-121991710D01*
D105*
X70866000Y-127000000D02*
X70672599Y-127193400D01*
D102*
X134112000Y-141478000D02*
X134010399Y-141579600D01*
X150876000Y-130556000D02*
X151008139Y-130423882D01*
D103*
X206200000Y-122000000D02*
X206641435Y-121558586D01*
X175350000Y-130899999D02*
X174849999Y-130400000D01*
D102*
X113729000Y-137985000D02*
X113030000Y-138684000D01*
D103*
X195956677Y-125356647D02*
X196528333Y-125356668D01*
X181870000Y-134150000D02*
X181870000Y-135300000D01*
X206660954Y-115239050D02*
X207700000Y-115239047D01*
X181870000Y-135300000D02*
X184129999Y-135300000D01*
X195480000Y-139900000D02*
X195460000Y-139900000D01*
D107*
X138785596Y-139801599D02*
X139395200Y-139192000D01*
D103*
X187514225Y-126728333D02*
X188590000Y-126728333D01*
X206200000Y-122000000D02*
X206200000Y-123100000D01*
X199779987Y-135119994D02*
X199780000Y-134060000D01*
X207700000Y-121558571D02*
X211850000Y-121558571D01*
X206200000Y-109400000D02*
X206200000Y-110464286D01*
X177265857Y-136320000D02*
X176200000Y-136320000D01*
X201305000Y-112228535D02*
X201304999Y-112225000D01*
X195520000Y-139900000D02*
X195480000Y-139900000D01*
X187504166Y-126724166D02*
X187508337Y-126728323D01*
D105*
X69221700Y-127843399D02*
X68321177Y-127843383D01*
D103*
X182259996Y-139459990D02*
X181675000Y-139460000D01*
X168680001Y-143475000D02*
X168080000Y-144075000D01*
X182870000Y-138850000D02*
X182340004Y-138319989D01*
X169700000Y-132699999D02*
X170480001Y-133479998D01*
X182870000Y-138850000D02*
X182259996Y-139459990D01*
D108*
X112324199Y-137302000D02*
X110873200Y-137302000D01*
D103*
X170739260Y-129822998D02*
X171907199Y-129822998D01*
X136400000Y-145081385D02*
X136400000Y-143357500D01*
X184129999Y-135300000D02*
X184270000Y-135440000D01*
X187514225Y-126728333D02*
X187508337Y-126728323D01*
X163400000Y-136200000D02*
X164520000Y-136200000D01*
X175599988Y-143475029D02*
X176119998Y-143475002D01*
X169200001Y-141990000D02*
X169490000Y-141700000D01*
X188640000Y-121977524D02*
X188640042Y-121991710D01*
X170739260Y-129822998D02*
X170722998Y-129822998D01*
X187500000Y-126720000D02*
X187504166Y-126724166D01*
X170701498Y-129801499D02*
X170700000Y-129800000D01*
X170700000Y-129800000D02*
X170706000Y-129794000D01*
X188630000Y-122001667D02*
X188619991Y-122011663D01*
D102*
X158445999Y-131389200D02*
X156961000Y-131389200D01*
D103*
X203898999Y-134661000D02*
X204500000Y-134060000D01*
X201000000Y-134060000D02*
X198560000Y-134060000D01*
X196629999Y-143130000D02*
X196500000Y-143000000D01*
X201300000Y-112220000D02*
X201304999Y-112225000D01*
X188635076Y-121996645D02*
X188640000Y-120820000D01*
X206200000Y-115700000D02*
X206200000Y-116807143D01*
X185889984Y-131499994D02*
X187590000Y-129800000D01*
D106*
X140462000Y-130440800D02*
X140462000Y-131521200D01*
D103*
X184300000Y-131620000D02*
X185509999Y-131620000D01*
D109*
X174560400Y-130900000D02*
X175349864Y-130899943D01*
D103*
X181870000Y-135300000D02*
X180670000Y-135300000D01*
D105*
X64977600Y-128493399D02*
X64731399Y-128247200D01*
D103*
X173107899Y-130400000D02*
X174849999Y-130400000D01*
X169200001Y-141990000D02*
X169200000Y-143475000D01*
X203700000Y-116920000D02*
X202431667Y-116920000D01*
X203700000Y-115820000D02*
X203700000Y-116920000D01*
D106*
X140462000Y-130440800D02*
X139561207Y-130440818D01*
D103*
X196500000Y-143000000D02*
X195500000Y-143000000D01*
X188630000Y-122001667D02*
X188640284Y-121991548D01*
X185889920Y-131999809D02*
X185889984Y-131499994D01*
D102*
X152080200Y-130423867D02*
X152080200Y-129326533D01*
D103*
X195520000Y-139900000D02*
X196500000Y-139900000D01*
X188625857Y-121991667D02*
X187528339Y-121991681D01*
X173589999Y-136320000D02*
X173559999Y-136290000D01*
X201305000Y-112228535D02*
X201305000Y-113907500D01*
D109*
X174560400Y-130900000D02*
X174548800Y-130911600D01*
D102*
X146761999Y-131404400D02*
X146812000Y-131354400D01*
D107*
X140004803Y-139801599D02*
X139395200Y-139192000D01*
D103*
X188625857Y-121991667D02*
X188640284Y-121991548D01*
X180687071Y-139460000D02*
X180680005Y-139460012D01*
D102*
X117602000Y-141986000D02*
X117625100Y-142009099D01*
X117625100Y-142009099D02*
X118436300Y-142009100D01*
D103*
X206200000Y-103100000D02*
X206200000Y-104131429D01*
D104*
X79587500Y-137499500D02*
X78232000Y-137499500D01*
D103*
X170701498Y-129801499D02*
X170700000Y-129800000D01*
X203680005Y-124520003D02*
X206200000Y-122000000D01*
X173590000Y-137282928D02*
X173590012Y-137289994D01*
X175514000Y-138328400D02*
X176313200Y-138328400D01*
X207700000Y-121558571D02*
X206641435Y-121558586D01*
X185889920Y-131999809D02*
X185509999Y-131620000D01*
D109*
X175100000Y-130650000D02*
X175349729Y-130899888D01*
D105*
X68321177Y-127843383D02*
X67671192Y-128493420D01*
D103*
X177279999Y-136320000D02*
X177300000Y-136300000D01*
X182340004Y-138319989D02*
X181635000Y-138320000D01*
X176119998Y-143475002D02*
X176720000Y-144075000D01*
X180704142Y-138320000D02*
X180689993Y-138319983D01*
X175599988Y-143475029D02*
X175409979Y-143285008D01*
X173574999Y-136305000D02*
X173590000Y-137282928D01*
D107*
X140004803Y-139801599D02*
X140004800Y-140104400D01*
D103*
X180689993Y-138319983D02*
X180670000Y-138340000D01*
X173107899Y-130400000D02*
X172484201Y-130400003D01*
X198300000Y-125400000D02*
X198256675Y-125356648D01*
X195956677Y-125356647D02*
X195900000Y-125300000D01*
D102*
X132384795Y-142951189D02*
X132803397Y-142532599D01*
D103*
X199779987Y-135119994D02*
X199700000Y-135200000D01*
X197671664Y-125356668D02*
X196528333Y-125356668D01*
X173574999Y-136305000D02*
X172295000Y-136290000D01*
D102*
X132803400Y-141579600D02*
X132803397Y-142532599D01*
D103*
X207700000Y-115239047D02*
X211850000Y-115239047D01*
X181635000Y-138320000D02*
X180704142Y-138320000D01*
D109*
X176213599Y-130900000D02*
X176225200Y-130911600D01*
D103*
X188630000Y-122001667D02*
X188639990Y-121991662D01*
D105*
X66584458Y-128493400D02*
X64977600Y-128493399D01*
D104*
X81026000Y-138938000D02*
X79587500Y-137499500D01*
D103*
X187528339Y-121991681D02*
X187500000Y-122020000D01*
D104*
X80060800Y-146202400D02*
X81026000Y-145237200D01*
D103*
X180680005Y-139460012D02*
X180670000Y-139470000D01*
D105*
X109972677Y-137301983D02*
X110873200Y-137302000D01*
D103*
X170999999Y-133480000D02*
X170480001Y-133479998D01*
X142399981Y-145092407D02*
X142400000Y-143357500D01*
D107*
X138785596Y-139801599D02*
X138785600Y-140104400D01*
D108*
X112509799Y-137487600D02*
X112324199Y-137302000D01*
D109*
X176213599Y-130900000D02*
X175349864Y-130899943D01*
D105*
X109322692Y-137952019D02*
X108598200Y-137952000D01*
X69221700Y-127843399D02*
X69221700Y-127193400D01*
D103*
X196629999Y-143130000D02*
X196630000Y-145310000D01*
D106*
X140462000Y-130440800D02*
X140462000Y-129360400D01*
D102*
X158445999Y-131389200D02*
X158496000Y-131339200D01*
D103*
X184300000Y-131620000D02*
X184300000Y-130180000D01*
X170665857Y-129780000D02*
X170679999Y-129780000D01*
X142443200Y-145135600D02*
X142399981Y-145092407D01*
D105*
X109322692Y-137952019D02*
X109972677Y-137301983D01*
D103*
X170665857Y-129780000D02*
X169700000Y-129780000D01*
D102*
X146761999Y-131404400D02*
X145354500Y-131404400D01*
D105*
X69221700Y-127193400D02*
X70672599Y-127193400D01*
D104*
X78232000Y-135550500D02*
X78232000Y-137499500D01*
D103*
X177265857Y-136320000D02*
X177279999Y-136320000D01*
X196100000Y-135200000D02*
X196100000Y-134060000D01*
X168680001Y-143475000D02*
X169200000Y-143475000D01*
D102*
X132384795Y-142951189D02*
X131922400Y-142951200D01*
D110*
%TO.N,Net-(A1-LNA_IN)*%
X194490000Y-142990000D02*
X194479983Y-142980006D01*
X194499995Y-145290001D02*
X194530000Y-145320000D01*
X194500000Y-143014142D02*
X194499999Y-143000000D01*
X194500000Y-143014142D02*
X194499995Y-145290001D01*
X194480000Y-142965857D02*
X194479983Y-142980006D01*
X194480000Y-142965857D02*
X194480000Y-141935000D01*
X194490000Y-142990000D02*
X194499999Y-143000000D01*
D103*
%TO.N,VDD33*%
X197594997Y-134064994D02*
X197330000Y-134065001D01*
X193649998Y-127956668D02*
X193649998Y-127556669D01*
X180655857Y-137380000D02*
X180669999Y-137380000D01*
X180440000Y-137380000D02*
X180655857Y-137380000D01*
X189590000Y-122001667D02*
X189579991Y-122011663D01*
X199140602Y-127956676D02*
X199643996Y-127453265D01*
X193649998Y-127956668D02*
X199140602Y-127956676D01*
D108*
X112385399Y-136652000D02*
X110873200Y-136652000D01*
D103*
X199925339Y-125956682D02*
X200550000Y-125956667D01*
X209699999Y-108919516D02*
X211850000Y-108919524D01*
X193865857Y-112320000D02*
X193879999Y-112320000D01*
D108*
X113729001Y-134429000D02*
X113792000Y-134366000D01*
X112385399Y-136652000D02*
X112509807Y-136527615D01*
D103*
X180704142Y-137360000D02*
X180689993Y-137359983D01*
D105*
X63613800Y-129207200D02*
X64731400Y-129207200D01*
D103*
X191799991Y-112319979D02*
X191300001Y-112820000D01*
D108*
X107441999Y-133857997D02*
X106056201Y-135243800D01*
D103*
X193000000Y-112320000D02*
X192200000Y-112320000D01*
X201400004Y-133099988D02*
X202405002Y-134095006D01*
X201449331Y-125956663D02*
X202438000Y-124968001D01*
D105*
X63613800Y-129207200D02*
X63613800Y-130279466D01*
D108*
X110743999Y-133858000D02*
X107441999Y-133857997D01*
D103*
X180680000Y-137370000D02*
X180669999Y-137380000D01*
X193300000Y-128900000D02*
X193649991Y-128549999D01*
D108*
X112447600Y-136589800D02*
X112509800Y-136527599D01*
D103*
X189599984Y-120319994D02*
X191299992Y-118619996D01*
X189599984Y-120319994D02*
X189600000Y-121070000D01*
D108*
X106056201Y-135243800D02*
X106056200Y-138633200D01*
X113729001Y-134429000D02*
X113729000Y-136527600D01*
D103*
X189590000Y-122001667D02*
X189599990Y-121991662D01*
X193300000Y-128900000D02*
X193300000Y-130900000D01*
X178379199Y-138339199D02*
X178370000Y-138330000D01*
D105*
X63613800Y-130279466D02*
X63613786Y-130288805D01*
D103*
X193300000Y-130900000D02*
X193300000Y-132100000D01*
X192200000Y-112320000D02*
X191799991Y-112319979D01*
X202438000Y-124968001D02*
X202720000Y-124968000D01*
X209600000Y-102600000D02*
X207700000Y-102600000D01*
X197300000Y-135200000D02*
X197330005Y-135170001D01*
X187563331Y-125536661D02*
X187500000Y-125600000D01*
X180704142Y-137360000D02*
X181870000Y-137360000D01*
X199644020Y-126238008D02*
X199925339Y-125956682D01*
X201449331Y-125956663D02*
X200550000Y-125956667D01*
X201400004Y-133099988D02*
X201000000Y-133100000D01*
X209600000Y-102600000D02*
X211850000Y-102600000D01*
X190700000Y-123100000D02*
X190636662Y-123163322D01*
D108*
X112509814Y-136527592D02*
X113729000Y-136527600D01*
D103*
X209699999Y-108919516D02*
X207700000Y-108919524D01*
X187563331Y-125536661D02*
X188595000Y-125536667D01*
X199644020Y-126238008D02*
X199643996Y-127453265D01*
D105*
X66882899Y-129207200D02*
X64731400Y-129207200D01*
D103*
X193649998Y-127956668D02*
X193649991Y-128549999D01*
X178370000Y-138330000D02*
X178379199Y-138339199D01*
D105*
X66882899Y-129207200D02*
X66946700Y-129143400D01*
D103*
X190700000Y-123100000D02*
X191556676Y-123956647D01*
D105*
X63613786Y-130288805D02*
X63627000Y-130302000D01*
D103*
X193900000Y-112300000D02*
X193879999Y-112320000D01*
X197594997Y-134064994D02*
X198560000Y-133100000D01*
X191300001Y-112820000D02*
X191299992Y-118619996D01*
X178404142Y-138350000D02*
X178390000Y-138349999D01*
X201000000Y-133100000D02*
X198560000Y-133100000D01*
X179470000Y-138350000D02*
X178404142Y-138350000D01*
X189600000Y-121070000D02*
X189589990Y-122001662D01*
X193000000Y-112320000D02*
X193865857Y-112320000D01*
X202417071Y-134090000D02*
X203200000Y-134090000D01*
D108*
X112509814Y-136527592D02*
X112509795Y-135623802D01*
D103*
X180440000Y-137380000D02*
X179470000Y-138350000D01*
X178367268Y-138328400D02*
X178368399Y-138328400D01*
D108*
X110743999Y-133858000D02*
X112509795Y-135623802D01*
D103*
X178367268Y-138328400D02*
X177153200Y-138328400D01*
X180680000Y-137370000D02*
X180689993Y-137359983D01*
X209700000Y-108900000D02*
X209699999Y-108919516D01*
X209700000Y-108900000D02*
X209699999Y-108919516D01*
X197330000Y-134065001D02*
X197330005Y-135170001D01*
X189580000Y-123163333D02*
X189589990Y-122001662D01*
X191556676Y-123956647D02*
X193649998Y-123956668D01*
X189580000Y-123163333D02*
X190636662Y-123163322D01*
%TO.N,VDD_SPI*%
X204040001Y-117880004D02*
X203530000Y-117880000D01*
X201299999Y-103620001D02*
X198499993Y-103619983D01*
X199700005Y-121820003D02*
X199699999Y-121906667D01*
X204700008Y-107019996D02*
X204699996Y-117219998D01*
X197495001Y-104625000D02*
X198499993Y-103619983D01*
X199700005Y-121820003D02*
X202431681Y-119088338D01*
X202431681Y-119088338D02*
X202431667Y-117880000D01*
X204700008Y-107019996D02*
X201299999Y-103620001D01*
X203530000Y-117880000D02*
X202431667Y-117880000D01*
X197495001Y-104625000D02*
X197495000Y-106732500D01*
X204699996Y-117219998D02*
X204040001Y-117880004D01*
%TO.N,Net-(C7-Pad1)*%
X185020000Y-133299999D02*
X184300000Y-132580000D01*
X188175000Y-132584999D02*
X189240000Y-132585000D01*
X186290002Y-133300006D02*
X187590000Y-131999998D01*
X187590000Y-131999998D02*
X188175000Y-132584999D01*
X186290002Y-133300006D02*
X185020000Y-133299999D01*
%TO.N,Net-(U1-XTAL_N)*%
X192973999Y-126756669D02*
X192030665Y-127699999D01*
X185309999Y-129220000D02*
X184300000Y-129220000D01*
X192973999Y-126756669D02*
X193649998Y-126756668D01*
X187990004Y-127700010D02*
X185890000Y-129799997D01*
X185309999Y-129220000D02*
X185890000Y-129799997D01*
X187990004Y-127700010D02*
X192030665Y-127699999D01*
D110*
%TO.N,/LNA_IN*%
X194500017Y-140945006D02*
X194480000Y-140965000D01*
X194500000Y-139900000D02*
X194499999Y-128806669D01*
X194500000Y-139900000D02*
X194500000Y-140930857D01*
X194500000Y-140930857D02*
X194500017Y-140945006D01*
D103*
%TO.N,Net-(C14-Pad1)*%
X195300000Y-128806669D02*
X194899998Y-128806669D01*
X197324999Y-133100000D02*
X197330000Y-133095000D01*
X196100000Y-133100000D02*
X195300006Y-132299997D01*
X195300000Y-128806669D02*
X195300006Y-132299997D01*
X197321464Y-133100000D02*
X197324999Y-133100000D01*
X197321464Y-133100000D02*
X196100000Y-133100000D01*
D108*
%TO.N,VCC50*%
X180639999Y-140400000D02*
X180670000Y-140429999D01*
X181865000Y-140425000D02*
X181870005Y-140420012D01*
X181852928Y-140430000D02*
X181859999Y-140430000D01*
X183889999Y-140420000D02*
X181877071Y-140420000D01*
X181865000Y-140425000D02*
X181859999Y-140430000D01*
X181852928Y-140430000D02*
X180654999Y-140414999D01*
D102*
X110124208Y-145785796D02*
X110540799Y-146202400D01*
D108*
X165480004Y-138340001D02*
X164760000Y-139060000D01*
D102*
X110124208Y-145785796D02*
X110124200Y-141935200D01*
D108*
X165480004Y-138340001D02*
X165480000Y-136200000D01*
X154214003Y-149606008D02*
X112775996Y-149606008D01*
X181877071Y-140420000D02*
X181870005Y-140420012D01*
X110540799Y-146202400D02*
X110540801Y-147370799D01*
X110540801Y-147370799D02*
X112775996Y-149606008D01*
X154214003Y-149606008D02*
X164760000Y-139060000D01*
X183889999Y-140420000D02*
X184270000Y-140040000D01*
X179700000Y-140400000D02*
X180654999Y-140414999D01*
D103*
%TO.N,CHIP_PU*%
X202899999Y-132300000D02*
X196300000Y-132299999D01*
X207700000Y-117389047D02*
X211850000Y-117389047D01*
X167400000Y-125500000D02*
X167386001Y-125514000D01*
X206200000Y-117767143D02*
X206200000Y-118900000D01*
X205600000Y-133100000D02*
X204500000Y-133100000D01*
X203199995Y-133070001D02*
X203230000Y-133099999D01*
X202899999Y-132300000D02*
X203199999Y-132600000D01*
X207321910Y-117767160D02*
X207700000Y-117389047D01*
X203214997Y-133085000D02*
X203199999Y-132600000D01*
X206200000Y-117767143D02*
X207321910Y-117767160D01*
X167386001Y-125514000D02*
X167386000Y-126572500D01*
X195700014Y-131699992D02*
X196300000Y-132299999D01*
X204500000Y-133100000D02*
X203214997Y-133085000D01*
X195700014Y-131699992D02*
X195699999Y-128806669D01*
%TO.N,GPIO0*%
X201168000Y-131600000D02*
X206900003Y-131600008D01*
X207700000Y-123708571D02*
X206551425Y-123708561D01*
X196100012Y-130999992D02*
X196099998Y-128806669D01*
X206900003Y-131600008D02*
X211963006Y-126537002D01*
X196700000Y-131600000D02*
X201168000Y-131600000D01*
X206551425Y-123708561D02*
X206200000Y-124060000D01*
X183235600Y-125730000D02*
X183235600Y-126591600D01*
X211963008Y-123821568D02*
X211963006Y-126537002D01*
X207700000Y-123708571D02*
X211849996Y-123708580D01*
X211849996Y-123708580D02*
X211963008Y-123821568D01*
X196700000Y-131600000D02*
X196100012Y-130999992D01*
%TO.N,Net-(U3-VBUS)*%
X172294999Y-135309998D02*
X173589987Y-135299970D01*
X172324998Y-135299995D02*
X172295000Y-135329999D01*
X172295000Y-135329999D02*
X172264999Y-135300000D01*
X171050000Y-135300000D02*
X172279999Y-135314999D01*
X171050000Y-135300000D02*
X170950000Y-135300000D01*
X173850019Y-135040008D02*
X173589987Y-135299970D01*
X170950000Y-135300000D02*
X170900000Y-135300000D01*
X173850019Y-135040008D02*
X173850000Y-133350000D01*
%TO.N,VCC33*%
X171119991Y-132399979D02*
X172900000Y-132400000D01*
X184575000Y-137740000D02*
X190570000Y-137740000D01*
X179470000Y-137330000D02*
X180540001Y-136260001D01*
X174900000Y-137300000D02*
X174912492Y-137312502D01*
X171119991Y-132399979D02*
X171000000Y-132520000D01*
X182179999Y-136260000D02*
X183659996Y-137740010D01*
X184575000Y-137740000D02*
X183659996Y-137740010D01*
X180735000Y-136260000D02*
X180540001Y-136260001D01*
X172900000Y-132400000D02*
X172900000Y-131900000D01*
X174900000Y-137300000D02*
X174912492Y-137312502D01*
X182179999Y-136260000D02*
X181715000Y-136260000D01*
X180735000Y-136260000D02*
X181715000Y-136260000D01*
X174895000Y-137291464D02*
X174895000Y-136320000D01*
X172900000Y-133300000D02*
X172900000Y-132400000D01*
X174895000Y-137291464D02*
X174894985Y-137295005D01*
X179470000Y-137330000D02*
X174912492Y-137312502D01*
D111*
%TO.N,+BATT_SNSE*%
X71119990Y-122757195D02*
X68655200Y-125222000D01*
X66293983Y-107369606D02*
X66395600Y-107471199D01*
X71120008Y-110743996D02*
X71119990Y-122757195D01*
X71120008Y-110743996D02*
X67847204Y-107471190D01*
X66293983Y-107369606D02*
X66294000Y-100910400D01*
X66395600Y-107471199D02*
X67847204Y-107471190D01*
D108*
X66946700Y-126930500D02*
X68655200Y-125222000D01*
X66946700Y-126930500D02*
X66946700Y-127193400D01*
D106*
%TO.N,-BATT*%
X92781474Y-120324552D02*
X92123200Y-120324533D01*
X90424003Y-124840991D02*
X89903303Y-124853708D01*
X63500001Y-97536000D02*
X63500010Y-109575595D01*
X89903303Y-124853708D02*
X88745200Y-124866400D01*
X94488000Y-118872000D02*
X94411699Y-118948300D01*
X90688737Y-125105723D02*
X91389200Y-125105733D01*
X82192406Y-125286401D02*
X81364401Y-125286407D01*
X79226200Y-124257550D02*
X78029556Y-124257535D01*
X94411699Y-118948300D02*
X93116400Y-118948300D01*
X88745200Y-124866400D02*
X86461593Y-124866383D01*
X91693999Y-130556000D02*
X87122000Y-130555999D01*
X86360000Y-124968000D02*
X86359994Y-129794002D01*
X86360000Y-124968000D02*
X86461593Y-124866383D01*
X79451201Y-118414800D02*
X79451200Y-119684800D01*
X65125601Y-95910400D02*
X66294000Y-95910400D01*
X79226201Y-123138300D02*
X79451200Y-122913300D01*
X89916007Y-124841017D02*
X89890599Y-124866400D01*
X79451201Y-118414800D02*
X79502000Y-118364000D01*
X93027000Y-129223000D02*
X93027000Y-128473200D01*
X93116414Y-119989605D02*
X93116400Y-118948300D01*
X65125601Y-95910400D02*
X63500001Y-97536000D01*
X93116414Y-119989605D02*
X92781474Y-120324552D01*
X93027000Y-129223000D02*
X91693999Y-130556000D01*
X91389200Y-125105733D02*
X91389200Y-123422000D01*
X78029556Y-124257535D02*
X77978000Y-124206000D01*
X86359994Y-129794002D02*
X87122000Y-130555999D01*
X79226200Y-124257550D02*
X79226201Y-123138300D01*
X81364401Y-125286407D02*
X81124000Y-125526800D01*
X90424003Y-124840991D02*
X90688737Y-125105723D01*
X63500010Y-109575595D02*
X66395600Y-112471200D01*
%TO.N,Net-(U5-CT)*%
X83161098Y-124866406D02*
X83745200Y-124866400D01*
X82552256Y-124257536D02*
X83161098Y-124866406D01*
X80186210Y-124866804D02*
X79526200Y-125526800D01*
X82552256Y-124257536D02*
X80186176Y-124257526D01*
X80186176Y-124257526D02*
X80186210Y-124866804D01*
%TO.N,Net-(U5-SS)*%
X83801199Y-128732400D02*
X83745200Y-128676400D01*
X83801199Y-128732400D02*
X83801200Y-132384800D01*
%TO.N,VCC*%
X87274400Y-123596399D02*
X88745200Y-123596400D01*
X86969591Y-121056379D02*
X86360001Y-121666000D01*
X89916000Y-118364000D02*
X90537800Y-118985799D01*
X91163201Y-119262600D02*
X91440002Y-118985798D01*
X86360001Y-121666000D02*
X86360001Y-122681999D01*
X90431332Y-121056399D02*
X91163200Y-120324533D01*
X90431332Y-121056399D02*
X88745200Y-121056400D01*
X87274400Y-123596399D02*
X86360001Y-122681999D01*
X90537800Y-118985799D02*
X91440002Y-118985798D01*
X86969591Y-121056379D02*
X88745200Y-121056400D01*
X91163201Y-119262600D02*
X91163200Y-120324533D01*
D111*
%TO.N,18V*%
X141602445Y-111122445D02*
X141980890Y-110743999D01*
D100*
X147320000Y-116332000D02*
X147320000Y-118684000D01*
D101*
X134112000Y-78359000D02*
X129641600Y-78359000D01*
D100*
X136906010Y-94741995D02*
X141980904Y-99816884D01*
X141980890Y-110992890D02*
X147320000Y-116332000D01*
X141980890Y-110744000D02*
X141980890Y-110992890D01*
X141980904Y-99816884D02*
X141980886Y-110744006D01*
X136906008Y-85343996D02*
X134112010Y-82549995D01*
X134112010Y-82549995D02*
X134112000Y-78359000D01*
X136906008Y-85343996D02*
X136906010Y-94741995D01*
D108*
%TO.N,5V_INV_SENSE*%
X111677996Y-138602006D02*
X110873200Y-138602000D01*
X110873200Y-138602000D02*
X110873181Y-140337208D01*
X110873181Y-140337208D02*
X110998000Y-140462000D01*
X111677996Y-138602006D02*
X113030000Y-139954000D01*
D102*
%TO.N,VFB*%
X131153400Y-139903200D02*
X127711202Y-139903205D01*
D104*
X114807990Y-139572996D02*
X114808000Y-141223999D01*
D112*
X127253998Y-140360400D02*
X127254000Y-142900400D01*
D104*
X113080799Y-142951200D02*
X113080800Y-146202400D01*
X114807990Y-139572996D02*
X116458995Y-137921987D01*
D102*
X130962400Y-142915278D02*
X130962371Y-141770588D01*
X127254000Y-142900400D02*
X130911599Y-142900400D01*
X130962371Y-141770588D02*
X131153382Y-141579592D01*
X130962400Y-142915278D02*
X130962402Y-142951202D01*
D104*
X113080799Y-142951200D02*
X114808000Y-141223999D01*
D102*
X130911599Y-142900400D02*
X130962402Y-142951202D01*
D104*
X127253998Y-140360400D02*
X124815603Y-137921991D01*
X127482600Y-140131800D02*
X127254000Y-140360399D01*
D102*
X131153382Y-141579592D02*
X131153400Y-139903200D01*
X127254001Y-140360400D02*
X127711202Y-139903205D01*
D104*
X116458995Y-137921987D02*
X124815603Y-137921991D01*
D101*
%TO.N,380V*%
X147749774Y-98806014D02*
X156464000Y-98806000D01*
X156620510Y-44450010D02*
X157890500Y-45720000D01*
X136774200Y-51275878D02*
X136774200Y-51275878D01*
X136774200Y-51275878D02*
X136774197Y-49407799D01*
X189725003Y-44449991D02*
X190910491Y-44449991D01*
X190910491Y-44449991D02*
X192434500Y-45974000D01*
X136774197Y-49407799D02*
X141732004Y-44450010D01*
X189725003Y-44449991D02*
X175260004Y-44450010D01*
X141732004Y-44450010D02*
X156620510Y-44450010D01*
X157890500Y-45720000D02*
X159766000Y-45720000D01*
X159766000Y-45720000D02*
X160528000Y-44958000D01*
X172451588Y-47258395D02*
X175260004Y-44450010D01*
X147749774Y-98806014D02*
X140637780Y-91694000D01*
D106*
%TO.N,12V*%
X143002000Y-132842000D02*
X143079500Y-132764500D01*
X141422001Y-131521200D02*
X141538802Y-131404405D01*
D108*
X130556003Y-148082008D02*
X126283796Y-148082008D01*
D102*
X149352000Y-131064000D02*
X149352004Y-124902002D01*
X158750000Y-118684000D02*
X158750000Y-116840000D01*
X153040200Y-131831198D02*
X153040201Y-131521201D01*
D106*
X143079500Y-132764500D02*
X143079500Y-131404400D01*
D102*
X154025600Y-112115600D02*
X153451833Y-112115600D01*
D108*
X135127996Y-139271714D02*
X140033724Y-134366018D01*
X135127996Y-139271714D02*
X135127990Y-143509995D01*
D102*
X149352004Y-124902002D02*
X152531998Y-124902002D01*
X153040200Y-131831198D02*
X152537398Y-132333999D01*
X148458002Y-124902002D02*
X142240000Y-118684000D01*
D108*
X141422009Y-133406003D02*
X141422001Y-131521200D01*
D106*
X141538802Y-131404405D02*
X143079500Y-131404400D01*
D102*
X149352004Y-124902002D02*
X148458002Y-124902002D01*
X153451833Y-112115600D02*
X153669999Y-112333767D01*
X154553999Y-131521200D02*
X154686000Y-131389200D01*
D108*
X140461992Y-134365982D02*
X140033724Y-134366018D01*
X126283796Y-148082008D02*
X121869200Y-143667400D01*
X130556003Y-148082008D02*
X135127990Y-143509995D01*
D102*
X158750000Y-116840000D02*
X154025600Y-112115600D01*
X154553999Y-131521200D02*
X153040201Y-131521201D01*
X150622000Y-132333999D02*
X152537398Y-132333999D01*
D108*
X141422009Y-133406003D02*
X140461992Y-134365982D01*
D102*
X152531998Y-124902002D02*
X158750000Y-118684000D01*
X149352000Y-131064000D02*
X150622000Y-132333999D01*
D111*
%TO.N,CH_L*%
X138292203Y-55969408D02*
X142224200Y-52037400D01*
D100*
X154976391Y-50582404D02*
X151384003Y-46989991D01*
X145034004Y-46990010D02*
X151384003Y-46989991D01*
X142224193Y-49799797D02*
X142224200Y-52037400D01*
D111*
X138292203Y-55969408D02*
X131186200Y-55969400D01*
D100*
X154976391Y-50582404D02*
X154976400Y-52019200D01*
X145034004Y-46990010D02*
X142224193Y-49799797D01*
%TO.N,CH_R*%
X133604008Y-110609996D02*
X129540000Y-106546000D01*
X129540000Y-123818000D02*
X133603990Y-119753995D01*
X133604008Y-110609996D02*
X133603990Y-119753995D01*
%TO.N,Net-(J6-Pin_2)*%
X207949500Y-60608500D02*
X208026000Y-60532000D01*
D101*
X200406000Y-60608500D02*
X207949500Y-60608500D01*
D104*
%TO.N,SHUNT*%
X163165500Y-49280100D02*
X160426400Y-52019200D01*
X163165500Y-45720000D02*
X163165500Y-49280100D01*
D100*
X195065499Y-52178099D02*
X191172603Y-56071008D01*
D111*
X156476203Y-55969408D02*
X160426400Y-52019200D01*
D104*
X78232000Y-143424500D02*
X75184000Y-140376500D01*
X75184000Y-140376500D02*
X75184000Y-132673500D01*
D111*
X160426400Y-52019200D02*
X160287013Y-51879794D01*
D104*
X77520800Y-144135700D02*
X78232000Y-143424500D01*
X75184000Y-132673500D02*
X78232000Y-129625500D01*
X77520800Y-146202400D02*
X77520800Y-144135700D01*
D100*
X197709500Y-49534100D02*
X195072000Y-52171600D01*
X197709500Y-45974000D02*
X197709500Y-49534100D01*
D104*
X195084997Y-52158598D02*
X195065499Y-52178099D01*
D100*
X191172603Y-56071008D02*
X183794400Y-56071000D01*
D111*
X156476203Y-55969408D02*
X149199600Y-55969400D01*
%TO.N,Net-(C43-Pad2)*%
X74345981Y-99771992D02*
X74346000Y-97993200D01*
X74345981Y-99771992D02*
X74296000Y-99822000D01*
D113*
%TO.N,INV_TR+*%
X78536802Y-97993207D02*
X79328009Y-97202000D01*
X86854000Y-92202000D02*
X86854000Y-87202000D01*
D100*
X112268000Y-102108000D02*
X104902000Y-102108000D01*
X94789000Y-97202000D02*
X86854000Y-97202000D01*
X102954667Y-105367667D02*
X94789000Y-97202000D01*
D113*
X78536802Y-97993207D02*
X75896000Y-97993200D01*
D100*
X114046000Y-105664000D02*
X114046000Y-103886000D01*
X104902000Y-102108000D02*
X102954667Y-104055333D01*
X114046000Y-103886000D02*
X112268000Y-102108000D01*
D113*
X86854000Y-97202000D02*
X86854000Y-92202000D01*
X79328009Y-97202000D02*
X86854000Y-97202000D01*
D100*
X102954667Y-104055333D02*
X102954667Y-105664000D01*
X102954667Y-105664000D02*
X102954667Y-105367667D01*
D106*
%TO.N,DC_5V_2A_USB*%
X153040200Y-129326533D02*
X153040200Y-130423867D01*
X153040200Y-129326533D02*
X154523336Y-129326524D01*
D107*
X137599988Y-145270804D02*
X137600000Y-143357500D01*
X146877504Y-136590010D02*
X141199986Y-142267494D01*
X146877504Y-136590010D02*
X150930000Y-136590000D01*
X141199986Y-142267494D02*
X141200000Y-144447500D01*
X137599988Y-145270804D02*
X138023600Y-145694399D01*
D106*
X154523336Y-129326524D02*
X154686000Y-129489200D01*
X153065201Y-127096800D02*
X153162000Y-127000000D01*
X153040200Y-129326533D02*
X153052695Y-128231698D01*
D107*
X139953099Y-145694400D02*
X138023600Y-145694399D01*
D106*
X153065201Y-127096800D02*
X153052695Y-128231698D01*
X153040201Y-128244200D02*
X153065190Y-128219196D01*
D107*
X141200000Y-144447500D02*
X139953099Y-145694400D01*
D102*
%TO.N,Net-(U11-SW)*%
X158533999Y-130439200D02*
X156961000Y-130439200D01*
X150926797Y-128219192D02*
X152095200Y-128219200D01*
X159489199Y-130324800D02*
X158648402Y-130324803D01*
X159489199Y-130324800D02*
X159512000Y-130302000D01*
X158533999Y-130439200D02*
X158648402Y-130324803D01*
X150876000Y-128270000D02*
X150926797Y-128219192D01*
%TO.N,Net-(U11-BST)*%
X158523999Y-129489200D02*
X158648400Y-129364800D01*
X158523999Y-129489200D02*
X156961000Y-129489200D01*
%TO.N,Net-(U10-BST)*%
X146913199Y-129504400D02*
X145354500Y-129504400D01*
X146913199Y-129504400D02*
X147002000Y-129415600D01*
%TO.N,Net-(U10-SW)*%
X147319999Y-127254000D02*
X143941800Y-127254000D01*
X146923199Y-130454400D02*
X147001997Y-130375592D01*
X145354500Y-130454400D02*
X146923199Y-130454400D01*
X148336000Y-129351598D02*
X148336001Y-128270000D01*
X140487400Y-126619000D02*
X139572900Y-127533500D01*
X147001997Y-130375592D02*
X147311998Y-130375599D01*
X143306800Y-126619000D02*
X140487400Y-126619000D01*
X148336001Y-128270000D02*
X147319999Y-127254000D01*
X147311998Y-130375599D02*
X148336000Y-129351598D01*
X143941800Y-127254000D02*
X143306800Y-126619000D01*
X139572900Y-127533500D02*
X139572900Y-127990600D01*
D106*
%TO.N,DC_3V3_2A*%
X142494000Y-128270000D02*
X141427300Y-128270000D01*
D103*
X181300001Y-115200002D02*
X184699999Y-115200000D01*
X185192505Y-115692498D02*
X185192500Y-116040000D01*
D106*
X141421996Y-129360402D02*
X141422000Y-130440800D01*
X141427300Y-128270000D02*
X141147900Y-127990600D01*
D103*
X180400000Y-116100000D02*
X181300001Y-115200002D01*
D106*
X141494000Y-129432400D02*
X141421991Y-129360403D01*
D102*
X141422000Y-129360400D02*
X141422000Y-128264700D01*
D103*
X180400000Y-116100000D02*
X179320000Y-116100000D01*
D106*
X141566000Y-129504399D02*
X141422001Y-129360401D01*
X141566000Y-129504399D02*
X143079500Y-129504400D01*
D102*
X141422000Y-128264700D02*
X141147900Y-127990600D01*
D103*
X184699999Y-115200000D02*
X185192505Y-115692498D01*
%TO.N,/RGB_CTRL*%
X192910000Y-116909999D02*
X192600000Y-117220000D01*
X192910000Y-116909999D02*
X194700000Y-116910000D01*
D114*
%TO.N,USB_DP*%
X167212149Y-131944862D02*
X167212134Y-136329943D01*
D107*
X172164448Y-142168016D02*
X172150000Y-143475000D01*
D103*
X173149991Y-144346403D02*
X173150000Y-143475000D01*
D114*
X169326242Y-130723735D02*
X169430006Y-130620017D01*
D103*
X172150014Y-144815841D02*
X171670192Y-145295631D01*
D114*
X172178870Y-141296645D02*
X167212134Y-136329943D01*
D103*
X172848399Y-130848400D02*
X172189217Y-130848408D01*
X173149991Y-144346403D02*
X173634400Y-144830800D01*
D114*
X169326242Y-130723735D02*
X168433270Y-130723769D01*
X171906835Y-130723750D02*
X171591365Y-130723750D01*
X172178870Y-141296645D02*
X172164448Y-142168016D01*
X170073758Y-130723734D02*
X171591365Y-130723750D01*
D103*
X172150014Y-144815841D02*
X172150000Y-143475000D01*
D114*
X170073758Y-130723734D02*
X169970006Y-130619985D01*
D103*
X172189217Y-130848408D02*
X172064578Y-130723730D01*
D114*
X169700000Y-130620000D02*
X169970006Y-130619985D01*
D103*
X172848399Y-130848400D02*
X172900000Y-130900000D01*
D114*
X172064578Y-130723730D02*
X171906835Y-130723750D01*
X169430006Y-130620017D02*
X169700000Y-130620000D01*
X167212149Y-131944862D02*
X168433270Y-130723769D01*
D103*
X171670201Y-145332779D02*
X171670192Y-145295631D01*
%TO.N,USB_DN*%
X171649982Y-144346992D02*
X171302023Y-144694982D01*
X172669200Y-145288000D02*
X172650010Y-145268795D01*
D114*
X172831361Y-142064449D02*
X172831357Y-142331837D01*
X172041250Y-131374050D02*
X171752855Y-131374050D01*
X172831361Y-142064449D02*
X172831367Y-141026371D01*
X171750200Y-131375150D02*
X171751308Y-131374069D01*
X169700000Y-131480000D02*
X169970006Y-131480015D01*
X171747544Y-131376250D02*
X170073749Y-131376245D01*
D103*
X170900000Y-144694978D02*
X171302023Y-144694982D01*
D114*
X172831367Y-141026371D02*
X167864644Y-136059663D01*
X168703539Y-131376253D02*
X169326242Y-131376265D01*
X170073749Y-131376245D02*
X169970006Y-131480015D01*
X167864644Y-136059663D02*
X167864651Y-132215138D01*
X169326242Y-131376265D02*
X169429993Y-131480014D01*
D103*
X172072574Y-131387024D02*
X172900000Y-131400000D01*
D114*
X169429993Y-131480014D02*
X169700000Y-131480000D01*
X171747544Y-131376250D02*
X171749106Y-131376264D01*
D103*
X171649982Y-144346992D02*
X171650000Y-143475000D01*
D114*
X168703539Y-131376253D02*
X167864651Y-132215138D01*
D107*
X172650011Y-142513205D02*
X172831357Y-142331837D01*
D114*
X171752855Y-131374050D02*
X171751308Y-131374069D01*
D103*
X172650010Y-145268795D02*
X172650000Y-143475000D01*
D107*
X172650000Y-143475000D02*
X172650011Y-142513205D01*
D114*
X171750200Y-131375150D02*
X171749106Y-131376264D01*
D103*
%TO.N,USB0_VBUS*%
X170129999Y-146100000D02*
X167880000Y-146100001D01*
X170093000Y-143568000D02*
X170185999Y-143661000D01*
X174399998Y-144528991D02*
X174400004Y-146100004D01*
X170186000Y-146043999D02*
X170129999Y-146100000D01*
X170242000Y-146099999D02*
X170186001Y-146043999D01*
X170158000Y-146072000D02*
X170186000Y-146044001D01*
X170242000Y-146099999D02*
X174400004Y-146100004D01*
X167880000Y-146100001D02*
X165000000Y-148980000D01*
X170214000Y-146072000D02*
X170186000Y-146044001D01*
X170186000Y-146043999D02*
X170185999Y-143661000D01*
X174799979Y-144128983D02*
X174399998Y-144528991D01*
X171000000Y-137300000D02*
X171000000Y-136320000D01*
X174799979Y-144128983D02*
X174800000Y-143475000D01*
X170093000Y-143568000D02*
X170093000Y-143568000D01*
X170093000Y-143568000D02*
X170200000Y-143675000D01*
%TO.N,Net-(D6-A)*%
X184172487Y-117317505D02*
X184395000Y-117540000D01*
X184172487Y-117317505D02*
X184172500Y-116040000D01*
%TO.N,Net-(D6-K)*%
X185970002Y-120680000D02*
X185970000Y-117540000D01*
X185970002Y-120680000D02*
X185350000Y-121300000D01*
%TO.N,Net-(D7-A)*%
X178299987Y-117377505D02*
X178522500Y-117600000D01*
X178299987Y-117377505D02*
X178300000Y-116100000D01*
%TO.N,Net-(D7-K)*%
X180097490Y-120729995D02*
X179467500Y-121360000D01*
X180097490Y-120729995D02*
X180097500Y-117600000D01*
D106*
%TO.N,Net-(D9-A)*%
X91477500Y-117373299D02*
X93116400Y-117373300D01*
X91477500Y-117373299D02*
X91440000Y-117335800D01*
D111*
%TO.N,18VAC+*%
X129641600Y-70739000D02*
X129641600Y-74549000D01*
%TO.N,18VAC-*%
X134112000Y-70739000D02*
X134112000Y-74549000D01*
%TO.N,Net-(D14-A)*%
X131186200Y-57932599D02*
X131186200Y-57619400D01*
X131186200Y-57932599D02*
X133858000Y-60604400D01*
%TO.N,1HO*%
X117601999Y-115824000D02*
X117602000Y-115950999D01*
X121665990Y-111759995D02*
X121665991Y-68986396D01*
X129306580Y-59863008D02*
X129306600Y-57670200D01*
X112268004Y-115951010D02*
X117602000Y-115950999D01*
X112268004Y-115951010D02*
X90220791Y-137998196D01*
X121665991Y-68986396D02*
X130048000Y-60604400D01*
X129306580Y-59863008D02*
X130048000Y-60604400D01*
X121665990Y-111759995D02*
X117601999Y-115824000D01*
X90220791Y-137998196D02*
X90220800Y-146202400D01*
%TO.N,Net-(D15-A)*%
X149199600Y-57759599D02*
X149199600Y-57619400D01*
X149199600Y-57759599D02*
X151993600Y-60553600D01*
%TO.N,1LO*%
X104648000Y-119380000D02*
X104648000Y-120141999D01*
X89789003Y-135001008D02*
X84327998Y-135000995D01*
X82600801Y-136728200D02*
X82600800Y-146202400D01*
X147523211Y-59893195D02*
X148183600Y-60553600D01*
X147523211Y-59893195D02*
X147523200Y-57619400D01*
X89789003Y-135001008D02*
X104648000Y-120141999D01*
X82600801Y-136728200D02*
X84327998Y-135000995D01*
%TO.N,Net-(D16-A)*%
X166827200Y-58013599D02*
X169519600Y-60706000D01*
X166827200Y-58013599D02*
X166827200Y-57861200D01*
%TO.N,2HO*%
X164998403Y-59994798D02*
X165709600Y-60706000D01*
X164998400Y-60198000D02*
X165709600Y-60909200D01*
X164998403Y-59994798D02*
X164998400Y-57873400D01*
%TO.N,Net-(D17-A)*%
X183887600Y-57721000D02*
X183794400Y-57721000D01*
X183887600Y-57721000D02*
X186720200Y-60553600D01*
%TO.N,2LO*%
X117856003Y-118999008D02*
X123697990Y-113156995D01*
X180471803Y-62992008D02*
X182910200Y-60553600D01*
X182168780Y-59812208D02*
X182168800Y-57721000D01*
X123697991Y-69595996D02*
X123697990Y-113156995D01*
X182168780Y-59812208D02*
X182910200Y-60553600D01*
X180471803Y-62992008D02*
X130302004Y-62992010D01*
X95300791Y-137363196D02*
X113665004Y-118999010D01*
X123697991Y-69595996D02*
X130302004Y-62992010D01*
X95300791Y-137363196D02*
X95300800Y-146202400D01*
X117856003Y-118999008D02*
X113665004Y-118999010D01*
D103*
%TO.N,GPIO13*%
X202437992Y-126491981D02*
X202173323Y-126756648D01*
X206501999Y-125984000D02*
X205231999Y-125983996D01*
X205231999Y-125983996D02*
X204723999Y-126492000D01*
X204723999Y-126492000D02*
X202437992Y-126491981D01*
X206501999Y-125984000D02*
X207264000Y-125222000D01*
X202173323Y-126756648D02*
X200550000Y-126756668D01*
%TO.N,GPIO14*%
X202183997Y-125983994D02*
X201811334Y-126356677D01*
X201811334Y-126356677D02*
X200550000Y-126356669D01*
X206248000Y-125222000D02*
X204977998Y-125221994D01*
X202183997Y-125983994D02*
X204215999Y-125984000D01*
X204215999Y-125984000D02*
X204977998Y-125221994D01*
%TO.N,GPIO10*%
X201676000Y-128269999D02*
X205867000Y-128270000D01*
X207010001Y-128270003D02*
X207772001Y-127508000D01*
X201676000Y-128269999D02*
X201451666Y-128045666D01*
X208534001Y-127508002D02*
X208153000Y-127508000D01*
X207010001Y-128270003D02*
X205867000Y-128270000D01*
X208534001Y-127508002D02*
X210820000Y-125222000D01*
X201362675Y-127956648D02*
X201451666Y-128045666D01*
X208153000Y-127508000D02*
X207772001Y-127508000D01*
X201362675Y-127956648D02*
X200550000Y-127956668D01*
%TO.N,GPIO11*%
X209550000Y-125222000D02*
X208534000Y-126238000D01*
X208280001Y-126238000D02*
X208534000Y-126238000D01*
X206961334Y-127556677D02*
X200550000Y-127556669D01*
X206961334Y-127556677D02*
X208280001Y-126238000D01*
%TO.N,GPIO12*%
X206329339Y-127156677D02*
X200550000Y-127156667D01*
X208264003Y-125222000D02*
X206329339Y-127156677D01*
D104*
%TO.N,Net-(J5-Pin_1)*%
X119052099Y-140134100D02*
X117486300Y-140134100D01*
X120807400Y-146207401D02*
X119887995Y-145288002D01*
X119887999Y-140970000D02*
X119887995Y-145288002D01*
X119887999Y-140970000D02*
X119052099Y-140134100D01*
X120807400Y-146207401D02*
X121869200Y-146207400D01*
D105*
%TO.N,GPIO5*%
X108458000Y-135382000D02*
X108598199Y-135522200D01*
X70215399Y-129143400D02*
X69221700Y-129143400D01*
D103*
X198099985Y-130600002D02*
X198400003Y-130900000D01*
X198099985Y-130600002D02*
X198100000Y-128806669D01*
D105*
X70866000Y-129794000D02*
X70215399Y-129143400D01*
X108598199Y-135522200D02*
X108598200Y-136652000D01*
D103*
X191200000Y-132100000D02*
X192280000Y-132100000D01*
%TO.N,GPIO4*%
X197700010Y-130600006D02*
X197699998Y-128806669D01*
X191200000Y-130900000D02*
X192280000Y-130900000D01*
D105*
X107076000Y-137301999D02*
X108598200Y-137302000D01*
X70835399Y-128493400D02*
X69221700Y-128493400D01*
X70866000Y-128524000D02*
X70835399Y-128493400D01*
X107076000Y-137301999D02*
X106934000Y-137160000D01*
D103*
X197400000Y-130900000D02*
X197700010Y-130600006D01*
%TO.N,GPIO18*%
X204723999Y-119196000D02*
X204724000Y-121157999D01*
X201525324Y-124356646D02*
X200550000Y-124356667D01*
X201525324Y-124356646D02*
X204724000Y-121157999D01*
X204723999Y-119196000D02*
X204400000Y-118872000D01*
%TO.N,GPIO17*%
X206756008Y-80731996D02*
X203555600Y-77531600D01*
X206756012Y-100330005D02*
X206756008Y-80731996D01*
X205231990Y-121411995D02*
X205232001Y-101854000D01*
X205232001Y-101854000D02*
X206756012Y-100330005D01*
X205231990Y-121411995D02*
X201887329Y-124756667D01*
X201887329Y-124756667D02*
X200550000Y-124756669D01*
%TO.N,Net-(Q1-C)*%
X181894999Y-126995000D02*
X182511607Y-127611583D01*
X182511607Y-127611583D02*
X183235600Y-127611600D01*
X181894999Y-126995000D02*
X179492500Y-126995000D01*
%TO.N,Net-(Q1-B)*%
X178945000Y-127944999D02*
X178150000Y-127149999D01*
X178149984Y-126649994D02*
X178150000Y-127149999D01*
X178945000Y-127944999D02*
X181367500Y-127945000D01*
X178149984Y-126649994D02*
X178950000Y-125850000D01*
%TO.N,DTR*%
X180145000Y-126044999D02*
X180000000Y-125900000D01*
X173850009Y-128149996D02*
X173850000Y-128450000D01*
X172559993Y-126860002D02*
X172560000Y-125850000D01*
X180145000Y-126044999D02*
X181367500Y-126045000D01*
X172900000Y-127200000D02*
X172559993Y-126860002D01*
X172900000Y-127200000D02*
X173850009Y-128149996D01*
%TO.N,Net-(Q2-C)*%
X167808508Y-127170020D02*
X170987500Y-127170000D01*
X167808508Y-127170020D02*
X167386000Y-127592500D01*
%TO.N,RTS*%
X170519999Y-128120000D02*
X169112500Y-128120000D01*
X177930000Y-126270000D02*
X177930000Y-125850000D01*
X176700001Y-127000000D02*
X175850010Y-127850004D01*
X176700001Y-127000000D02*
X177200000Y-127000000D01*
X170519999Y-128120000D02*
X170750000Y-128350000D01*
X175850010Y-127850004D02*
X175850000Y-128450000D01*
X177200000Y-127000000D02*
X177930000Y-126270000D01*
%TO.N,Net-(Q2-B)*%
X170549995Y-125849988D02*
X171540000Y-125850000D01*
X170549995Y-125849988D02*
X170179999Y-126220000D01*
X170179999Y-126220000D02*
X169112500Y-126220000D01*
D104*
%TO.N,INV_OUTA*%
X93039200Y-125105733D02*
X93039200Y-126789467D01*
X93039200Y-125105733D02*
X96382262Y-125105722D01*
D100*
X116586000Y-107188000D02*
X116586000Y-105664000D01*
X105494667Y-105664000D02*
X105494667Y-107018667D01*
X105494667Y-107018667D02*
X108712000Y-110236000D01*
D104*
X108712000Y-112775985D02*
X108712000Y-110236000D01*
X96382262Y-125105722D02*
X108712000Y-112775985D01*
D100*
X108712000Y-110236000D02*
X113538000Y-110236000D01*
X113538000Y-110236000D02*
X116586000Y-107188000D01*
%TO.N,INV_OUTB*%
X83312000Y-107696000D02*
X83312000Y-105664000D01*
D104*
X97028008Y-114300008D02*
X91948000Y-109220000D01*
D100*
X91948000Y-109220000D02*
X84836000Y-109220000D01*
D104*
X93039200Y-121738267D02*
X93039200Y-123422000D01*
D100*
X84836000Y-109220000D02*
X83312000Y-107696000D01*
D104*
X93039200Y-121738267D02*
X95939736Y-121738275D01*
X97028008Y-120650003D02*
X97028008Y-114300008D01*
D100*
X94403333Y-105730000D02*
X94403333Y-106764667D01*
D104*
X95939736Y-121738275D02*
X97028008Y-120650003D01*
D100*
X94403333Y-106764667D02*
X91948000Y-109220000D01*
D113*
%TO.N,INV_TR-*%
X74295000Y-101812600D02*
X75835000Y-101812600D01*
X78308200Y-100203003D02*
X80899003Y-100203008D01*
X76327000Y-101320600D02*
X75835000Y-101812600D01*
D100*
X86854000Y-47202000D02*
X86854000Y-52202000D01*
X86854000Y-52202000D02*
X86854000Y-57202000D01*
D113*
X80899003Y-100203008D02*
X80772000Y-100330011D01*
X76136500Y-100012500D02*
X76136500Y-100012500D01*
X76136500Y-100012500D02*
X76327000Y-100202999D01*
X80772000Y-100330011D02*
X80772000Y-105664000D01*
X76327000Y-100202999D02*
X76327000Y-101320600D01*
D100*
X91863333Y-104055333D02*
X90678000Y-102870000D01*
X80772000Y-103632000D02*
X80772000Y-105664000D01*
X90678000Y-102870000D02*
X81534000Y-102870000D01*
X81534000Y-102870000D02*
X80772000Y-103632000D01*
X91863333Y-105730000D02*
X91863333Y-104055333D01*
D113*
X76327000Y-100202999D02*
X78308200Y-100203003D01*
D102*
%TO.N,Net-(Q7-B)*%
X116536300Y-142691299D02*
X117535100Y-143690100D01*
X116536300Y-142691299D02*
X116536300Y-142009100D01*
D103*
%TO.N,DC_EN*%
X144271996Y-132588001D02*
X144271999Y-130984401D01*
X156717998Y-128015994D02*
X155956007Y-128778003D01*
X207000003Y-130400008D02*
X207500000Y-129900000D01*
X144271996Y-132588001D02*
X144780000Y-133095999D01*
X143741992Y-130454413D02*
X143079500Y-130454400D01*
X155348505Y-130439215D02*
X155955987Y-129831693D01*
X144780000Y-133095999D02*
X159766003Y-133096008D01*
X167640004Y-123444010D02*
X177063499Y-123444000D01*
X155956007Y-128778003D02*
X155955987Y-129831693D01*
X163068000Y-129794000D02*
X159766003Y-133096008D01*
X143741992Y-130454413D02*
X144271999Y-130984401D01*
X163067996Y-128015998D02*
X156717998Y-128015994D01*
X178197500Y-122309999D02*
X178197500Y-121360000D01*
X207000003Y-130400008D02*
X206320000Y-130400000D01*
X178197500Y-122309999D02*
X177063499Y-123444000D01*
X155348505Y-130439215D02*
X154686000Y-130439200D01*
X163068000Y-129794000D02*
X163067989Y-128015996D01*
X163067996Y-128015998D02*
X167640004Y-123444010D01*
%TO.N,AC_EN*%
X207500000Y-128900000D02*
X207099987Y-129299970D01*
X207099987Y-129299970D02*
X206320000Y-129300000D01*
%TO.N,SPIHD*%
X202399997Y-115643331D02*
X201153333Y-116890000D01*
X202399999Y-105820000D02*
X202399997Y-115643331D01*
X198764999Y-105263636D02*
X198765000Y-106732500D01*
X200900001Y-104319994D02*
X199708634Y-104319993D01*
X200900001Y-104319994D02*
X202399999Y-105820000D01*
X198764999Y-105263636D02*
X199708634Y-104319993D01*
%TO.N,Net-(U1-SPIHD)*%
X201153319Y-118766661D02*
X199299997Y-120619999D01*
X201153319Y-118766661D02*
X201153333Y-117910000D01*
X199299997Y-120619999D02*
X199300000Y-121906667D01*
%TO.N,Net-(U1-SPIWP)*%
X199865000Y-118955000D02*
X199865000Y-117910000D01*
X198899970Y-119919990D02*
X198899998Y-121906667D01*
X199865000Y-118955000D02*
X198899970Y-119919990D01*
%TO.N,SPIWP*%
X200035003Y-115985001D02*
X200035000Y-113907500D01*
X199865001Y-116155000D02*
X199865000Y-116890000D01*
X199865001Y-116155000D02*
X200035003Y-115985001D01*
%TO.N,SPICLK*%
X200034999Y-105055000D02*
X200035000Y-106732500D01*
X198576676Y-115796663D02*
X198576667Y-116890000D01*
X200000000Y-105020000D02*
X200034999Y-105055000D01*
X198500000Y-115720000D02*
X198576676Y-115796663D01*
%TO.N,Net-(U1-SPICLK)*%
X198100000Y-118386667D02*
X198100000Y-121906667D01*
X198100000Y-118386667D02*
X198576667Y-117910000D01*
%TO.N,SPIQ*%
X198764979Y-114454991D02*
X198765000Y-113907500D01*
X197288329Y-115931665D02*
X198764979Y-114454991D01*
X197288329Y-115931665D02*
X197288333Y-116890000D01*
%TO.N,Net-(U1-SPIQ)*%
X197288350Y-119008325D02*
X197699988Y-119420002D01*
X197288350Y-119008325D02*
X197288333Y-117910000D01*
X197699988Y-119420002D02*
X197699998Y-121906667D01*
%TO.N,SPID*%
X201304981Y-106934982D02*
X195999988Y-112239985D01*
X201304981Y-106934982D02*
X201305000Y-106732500D01*
X195999988Y-112239985D02*
X196000000Y-116890000D01*
%TO.N,Net-(U1-SPID)*%
X197299999Y-119819999D02*
X197299999Y-121906667D01*
X196000001Y-118519999D02*
X196000000Y-117910000D01*
X197299999Y-119819999D02*
X196000001Y-118519999D01*
%TO.N,Net-(U1-U0TXD)*%
X191299995Y-124320010D02*
X192136664Y-125156677D01*
X189635004Y-124320010D02*
X189610000Y-124345000D01*
X192136664Y-125156677D02*
X193649998Y-125156668D01*
X191299995Y-124320010D02*
X189635004Y-124320010D01*
%TO.N,U0TXD*%
X177155003Y-124345007D02*
X188590000Y-124345000D01*
X177155003Y-124345007D02*
X175750000Y-125750000D01*
%TO.N,GPIO45*%
X190034996Y-125956676D02*
X193649998Y-125956667D01*
X190034996Y-125956676D02*
X189615000Y-125536667D01*
%TO.N,Net-(U1-XTAL_P)*%
X189239987Y-131059995D02*
X189240000Y-131615000D01*
X193143339Y-127156682D02*
X193649998Y-127156667D01*
X193143339Y-127156682D02*
X189239987Y-131059995D01*
%TO.N,GPIO38*%
X193649998Y-119770002D02*
X194700000Y-118720000D01*
X194700000Y-118720000D02*
X194700000Y-117930000D01*
X193649998Y-119770002D02*
X193649998Y-122756668D01*
%TO.N,Net-(U3-~{RST})*%
X174350011Y-134754995D02*
X174895000Y-135300000D01*
X174350011Y-134754995D02*
X174350000Y-133350000D01*
%TO.N,Net-(U3-~{SUSPEND})*%
X175350001Y-134449999D02*
X175350000Y-133350000D01*
X175350001Y-134449999D02*
X176200000Y-135300000D01*
%TO.N,U0RXD*%
X175700000Y-124600000D02*
X174550000Y-125750000D01*
X191536664Y-125556677D02*
X193649998Y-125556668D01*
X191536664Y-125556677D02*
X191000000Y-125020000D01*
%TO.N,Net-(U3-TXD)*%
X174849999Y-127550000D02*
X174850000Y-128450000D01*
X174549987Y-127250005D02*
X174550000Y-126770000D01*
X174849999Y-127550000D02*
X174549987Y-127250005D01*
%TO.N,Net-(U3-RXD)*%
X175349999Y-127650000D02*
X175350000Y-128450000D01*
X175349999Y-127650000D02*
X175750000Y-127249999D01*
X175750000Y-127249999D02*
X175750000Y-126770000D01*
%TO.N,Net-(U1-GPIO46)*%
X192463325Y-126356654D02*
X193649998Y-126356669D01*
X192091654Y-126728303D02*
X189610000Y-126728333D01*
X192463325Y-126356654D02*
X192091654Y-126728303D01*
D100*
%TO.N,+BATT*%
X86854000Y-67202000D02*
X86854000Y-72202000D01*
D111*
X69087990Y-122173995D02*
X67005200Y-124256800D01*
D100*
X61569600Y-112496600D02*
X61569600Y-95123000D01*
D105*
X65867400Y-127843399D02*
X66946700Y-127843400D01*
D100*
X61569600Y-95123000D02*
X79490600Y-77202000D01*
X69037200Y-116890800D02*
X67411600Y-115265200D01*
D105*
X65278001Y-127253999D02*
X65867400Y-127843399D01*
D100*
X67411600Y-115265200D02*
X64338200Y-115265200D01*
D105*
X66903600Y-125222000D02*
X66802000Y-125222001D01*
D111*
X66903600Y-125222000D02*
X67005200Y-125221999D01*
D100*
X69037200Y-117602000D02*
X69037200Y-116890800D01*
X64338200Y-115265200D02*
X61569600Y-112496600D01*
X86854000Y-72202000D02*
X86854000Y-77202000D01*
D105*
X65277997Y-126745999D02*
X65278001Y-127253999D01*
D111*
X67005200Y-125221999D02*
X67005200Y-124256800D01*
X69087999Y-117652800D02*
X69087990Y-122173995D01*
D100*
X79490600Y-77202000D02*
X86854000Y-77202000D01*
D111*
X69087999Y-117652800D02*
X69037191Y-117602003D01*
D105*
X66802000Y-125222001D02*
X65277997Y-126745999D01*
D108*
%TO.N,Net-(U9-A1)*%
X107107407Y-138602017D02*
X108598200Y-138602000D01*
X107107407Y-138602017D02*
X107076200Y-138633200D01*
D103*
%TO.N,USB0_CC1*%
X171149999Y-142340000D02*
X170510000Y-141700000D01*
X171149999Y-142340000D02*
X171150000Y-143475000D01*
%TO.N,USB0_CC2*%
X174150001Y-141940000D02*
X174390000Y-141700000D01*
X174150001Y-141940000D02*
X174150000Y-143475000D01*
D106*
%TO.N,Net-(U5-INV)*%
X81202800Y-119786399D02*
X81101200Y-119684800D01*
X81202800Y-119786399D02*
X83745200Y-119786400D01*
%TO.N,Net-(U5-NI)*%
X81101201Y-121299050D02*
X81101200Y-122913300D01*
X81343845Y-121056388D02*
X83745200Y-121056400D01*
X81343845Y-121056388D02*
X81101201Y-121299050D01*
%TO.N,Net-(U5-REF)*%
X78232001Y-118110000D02*
X78231981Y-120650008D01*
X78881055Y-121299037D02*
X78231981Y-120650008D01*
X78881055Y-121299037D02*
X79451200Y-121299050D01*
X78993998Y-117347994D02*
X86306803Y-117347991D01*
X86306803Y-117347991D02*
X88745200Y-119786400D01*
X78993998Y-117347994D02*
X78232001Y-118110000D01*
%TO.N,Net-(U5-SD)*%
X90310199Y-127406400D02*
X88745200Y-127406400D01*
X90310199Y-127406400D02*
X91377000Y-128473200D01*
%TO.N,Net-(U5-RT)*%
X82164405Y-126136412D02*
X83745200Y-126136400D01*
X82164405Y-126136412D02*
X81124000Y-127176800D01*
%TO.N,Net-(U5-DISCH)*%
X80377200Y-128027799D02*
X82123800Y-128027800D01*
X82745202Y-127406402D02*
X82123800Y-128027800D01*
X82745202Y-127406402D02*
X83745200Y-127406400D01*
X80377200Y-128027799D02*
X79526200Y-127176800D01*
%TO.N,Net-(U5-OUTA)*%
X90736132Y-126136400D02*
X91389200Y-126789467D01*
X90736132Y-126136400D02*
X88745200Y-126136400D01*
%TO.N,Net-(U5-OUTB)*%
X90801066Y-122326399D02*
X88745200Y-122326400D01*
X90801066Y-122326399D02*
X91389200Y-121738267D01*
D102*
%TO.N,Output*%
X132803400Y-139903200D02*
X132803400Y-138277600D01*
%TO.N,FAN_CTRL*%
X118555105Y-145808101D02*
X118555100Y-143690100D01*
X118555105Y-145808101D02*
X118160800Y-146202400D01*
D111*
%TO.N,Net-(Q8-G)*%
X164998406Y-54174803D02*
X167001600Y-52171600D01*
X164998406Y-54174803D02*
X164998400Y-56223400D01*
%TO.N,Net-(Q9-G)*%
X129306598Y-54054999D02*
X131324200Y-52037400D01*
X129306598Y-54054999D02*
X129306600Y-56020200D01*
%TO.N,Net-(Q10-G)*%
X147523189Y-54022396D02*
X149526400Y-52019200D01*
X147523189Y-54022396D02*
X147523200Y-55969400D01*
D104*
%TO.N,Net-(Q11-G)*%
X182168795Y-54174799D02*
X182168800Y-56071000D01*
X182168795Y-54174799D02*
X184172000Y-52171600D01*
D100*
%TO.N,COIL*%
X177901600Y-52171599D02*
X177901592Y-49936397D01*
D111*
X118745003Y-122047008D02*
X125983990Y-114807995D01*
X114173004Y-122047010D02*
X97840791Y-138379196D01*
D100*
X180594004Y-47244010D02*
X177901592Y-49936397D01*
X189622000Y-50176000D02*
X189622000Y-52171600D01*
D111*
X114173004Y-122047010D02*
X118745003Y-122047008D01*
X125983990Y-114807995D02*
X125984001Y-78232000D01*
D100*
X180594004Y-47244010D02*
X186690003Y-47243991D01*
X173862003Y-56211208D02*
X166827200Y-56211200D01*
D111*
X127761994Y-76453986D02*
X161558003Y-76454008D01*
D100*
X189622000Y-50176000D02*
X186690003Y-47243991D01*
D111*
X161558003Y-76454008D02*
X172466000Y-65546000D01*
D100*
X173862003Y-56211208D02*
X177901600Y-52171599D01*
D111*
X125984001Y-78232000D02*
X127761994Y-76453986D01*
X97840791Y-138379196D02*
X97840800Y-146202400D01*
D103*
%TO.N,DC_SW*%
X206200017Y-106389942D02*
X206255025Y-106444975D01*
X198500012Y-129999987D02*
X198499999Y-128806669D01*
X206200017Y-106389942D02*
X206200000Y-105151429D01*
X198500012Y-129999987D02*
X199400006Y-130900000D01*
X207700000Y-104750000D02*
X211850000Y-104750000D01*
X207298566Y-105151420D02*
X207700000Y-104750000D01*
X206200000Y-105151429D02*
X207298566Y-105151420D01*
%TO.N,AC_SW*%
X207285227Y-111484261D02*
X206200000Y-111484286D01*
X198899979Y-129800005D02*
X198899998Y-128806669D01*
X199300006Y-130199984D02*
X198899979Y-129800005D01*
X206200000Y-112600000D02*
X206200000Y-111484286D01*
X199700015Y-130199983D02*
X199300006Y-130199984D01*
X207285227Y-111484261D02*
X207700004Y-111069532D01*
X199700015Y-130199983D02*
X200400009Y-130900000D01*
X207700004Y-111069532D02*
X211850000Y-111069524D01*
D107*
%TO.N,Net-(J12-CC2)*%
X140004797Y-143352698D02*
X140000000Y-143357500D01*
X140004797Y-143352698D02*
X140004800Y-141124400D01*
%TO.N,Net-(J12-CC1)*%
X138785608Y-143343096D02*
X138785600Y-141124400D01*
X138785608Y-143343096D02*
X138800000Y-143357500D01*
D103*
%TO.N,GPIO8*%
X199299987Y-129500005D02*
X199300000Y-128806669D01*
X201899999Y-129800000D02*
X202500000Y-130399999D01*
X202500000Y-130399999D02*
X205300000Y-130400000D01*
X201899999Y-129800000D02*
X199600000Y-129799999D01*
X199600000Y-129799999D02*
X199299987Y-129500005D01*
%TO.N,GPIO9*%
X200193330Y-129300000D02*
X199699999Y-128806669D01*
X200193330Y-129300000D02*
X205300000Y-129300000D01*
%TO.N,SPICS0*%
X199099999Y-112420000D02*
X198400000Y-112420000D01*
X199399999Y-112720000D02*
X199400009Y-115820003D01*
X198499999Y-119420001D02*
X199199990Y-118719995D01*
X198400000Y-112420000D02*
X197495003Y-113325002D01*
X198499999Y-119420001D02*
X198499999Y-121906667D01*
X199099999Y-112420000D02*
X199399999Y-112720000D01*
X199200001Y-116020000D02*
X199199990Y-118719995D01*
X197495003Y-113325002D02*
X197495000Y-113907500D01*
X199400009Y-115820003D02*
X199200001Y-116020000D01*
%TO.N,GPIO3*%
X197299979Y-129599992D02*
X196800000Y-130100000D01*
X197299979Y-129599992D02*
X197299999Y-128806669D01*
D105*
%TO.N,Net-(U9-IN-)*%
X110148722Y-137952015D02*
X109636701Y-138464016D01*
X109469900Y-140340100D02*
X109104201Y-140705800D01*
X109104201Y-140705800D02*
X109104200Y-141935200D01*
X110148722Y-137952015D02*
X110873200Y-137952000D01*
X109636701Y-138464016D02*
X109636717Y-140173307D01*
X109636717Y-140173307D02*
X109469900Y-140340100D01*
D100*
%TO.N,Net-(T1-NC16)*%
X65430400Y-73964800D02*
X74644200Y-64751000D01*
X74644200Y-64751000D02*
X114403000Y-64751000D01*
X114403000Y-64751000D02*
X116854000Y-67202000D01*
%TD*%
%TA.AperFunction,Conductor*%
%TO.N,INV_TR-*%
G36*
X81375878Y-99018157D02*
G01*
X81386348Y-99018743D01*
X81585618Y-99038376D01*
X81606264Y-99042196D01*
X81794279Y-99093782D01*
X81813984Y-99101032D01*
X81990595Y-99183605D01*
X82008793Y-99194077D01*
X82168936Y-99305270D01*
X82185108Y-99318664D01*
X82324184Y-99455285D01*
X82337866Y-99471218D01*
X82451896Y-99629355D01*
X82462692Y-99647369D01*
X82548394Y-99822471D01*
X82555996Y-99842048D01*
X82610922Y-100029108D01*
X82615111Y-100049688D01*
X82638291Y-100248577D01*
X82639064Y-100259059D01*
X82676999Y-101472999D01*
X82677000Y-101473000D01*
X87336263Y-101484476D01*
X90545190Y-101492380D01*
X90553166Y-101492656D01*
X90862468Y-101513381D01*
X90878297Y-101515472D01*
X91178440Y-101574999D01*
X91193854Y-101579103D01*
X91483874Y-101676719D01*
X91498632Y-101682770D01*
X91773682Y-101816843D01*
X91787552Y-101824746D01*
X92035855Y-101988293D01*
X92043093Y-101993060D01*
X92055828Y-102002679D01*
X92285952Y-102201005D01*
X92287610Y-102202434D01*
X92299010Y-102213617D01*
X92503203Y-102441514D01*
X92513073Y-102454071D01*
X92686272Y-102706309D01*
X92694445Y-102720029D01*
X92833788Y-102992434D01*
X92840131Y-103007091D01*
X92943310Y-103295156D01*
X92947716Y-103310507D01*
X93013014Y-103609441D01*
X93015410Y-103625230D01*
X93042090Y-103934059D01*
X93042521Y-103942037D01*
X93055043Y-104518037D01*
X93036820Y-104585488D01*
X92985023Y-104632380D01*
X92916097Y-104643824D01*
X92851925Y-104616188D01*
X92843391Y-104608413D01*
X92809575Y-104574597D01*
X92624609Y-104440211D01*
X92420901Y-104336417D01*
X92203457Y-104265765D01*
X92113333Y-104251490D01*
X92113333Y-105239252D01*
X92075625Y-105217482D01*
X91935742Y-105180000D01*
X91790924Y-105180000D01*
X91651041Y-105217482D01*
X91613333Y-105239252D01*
X91613333Y-104251490D01*
X91613332Y-104251490D01*
X91523208Y-104265765D01*
X91305764Y-104336417D01*
X91102056Y-104440211D01*
X90917094Y-104574594D01*
X90827371Y-104664317D01*
X90766047Y-104697801D01*
X90696356Y-104692817D01*
X90640422Y-104650945D01*
X90616006Y-104585480D01*
X90615722Y-104579451D01*
X90601800Y-103962200D01*
X82092800Y-103962200D01*
X82102505Y-104593125D01*
X82083854Y-104660459D01*
X82031760Y-104707021D01*
X81962763Y-104718027D01*
X81898768Y-104689983D01*
X81883500Y-104673596D01*
X81883069Y-104673965D01*
X81879902Y-104670257D01*
X81718242Y-104508597D01*
X81533276Y-104374211D01*
X81329568Y-104270417D01*
X81112124Y-104199765D01*
X81022000Y-104185490D01*
X81022000Y-105173252D01*
X80984292Y-105151482D01*
X80844409Y-105114000D01*
X80699591Y-105114000D01*
X80559708Y-105151482D01*
X80522000Y-105173252D01*
X80522000Y-104185490D01*
X80521999Y-104185490D01*
X80431875Y-104199765D01*
X80214431Y-104270417D01*
X80010723Y-104374211D01*
X79825757Y-104508597D01*
X79664097Y-104670257D01*
X79664090Y-104670266D01*
X79588232Y-104774674D01*
X79532902Y-104817340D01*
X79463289Y-104823318D01*
X79401494Y-104790712D01*
X79367137Y-104729873D01*
X79363989Y-104706028D01*
X79298800Y-102793800D01*
X79298799Y-102793799D01*
X78473300Y-102781100D01*
X77682086Y-102768927D01*
X77682077Y-102768924D01*
X77682059Y-102768926D01*
X77681866Y-102768923D01*
X77647800Y-102768399D01*
X75371521Y-102795338D01*
X74377268Y-102807104D01*
X74365017Y-102806643D01*
X74185832Y-102791000D01*
X74161764Y-102786471D01*
X73995075Y-102737652D01*
X73972366Y-102728481D01*
X73818518Y-102647850D01*
X73798054Y-102634395D01*
X73663056Y-102525100D01*
X73645636Y-102507885D01*
X73534749Y-102374187D01*
X73521053Y-102353884D01*
X73445410Y-102213617D01*
X73438607Y-102201001D01*
X73429174Y-102178418D01*
X73378379Y-102012297D01*
X73373568Y-101988293D01*
X73355806Y-101809306D01*
X73355200Y-101797061D01*
X73355200Y-101619661D01*
X73355980Y-101605778D01*
X73366330Y-101513916D01*
X73374332Y-101442891D01*
X73380508Y-101415829D01*
X73432337Y-101267710D01*
X73444380Y-101242704D01*
X73527869Y-101109831D01*
X73545174Y-101088132D01*
X73656132Y-100977174D01*
X73677831Y-100959869D01*
X73810704Y-100876380D01*
X73835710Y-100864337D01*
X73983829Y-100812508D01*
X74010891Y-100806332D01*
X74150613Y-100790590D01*
X74173778Y-100787980D01*
X74187661Y-100787200D01*
X75006200Y-100787200D01*
X75008124Y-100646724D01*
X75028724Y-100579963D01*
X75082150Y-100534935D01*
X75151438Y-100525939D01*
X75214590Y-100555832D01*
X75219793Y-100560743D01*
X75311122Y-100652072D01*
X75456604Y-100740019D01*
X75456603Y-100740019D01*
X75618894Y-100790590D01*
X75618893Y-100790590D01*
X75689408Y-100796998D01*
X75689426Y-100796999D01*
X76196000Y-100796999D01*
X76202581Y-100796999D01*
X76273102Y-100790591D01*
X76273107Y-100790590D01*
X76435396Y-100740018D01*
X76580877Y-100652072D01*
X76701072Y-100531877D01*
X76789019Y-100386395D01*
X76839590Y-100224106D01*
X76846000Y-100153572D01*
X76846000Y-100072000D01*
X76196000Y-100072000D01*
X76196000Y-100796999D01*
X75689426Y-100796999D01*
X75695999Y-100796998D01*
X75696000Y-100796998D01*
X75696000Y-99946000D01*
X75715685Y-99878961D01*
X75768489Y-99833206D01*
X75820000Y-99822000D01*
X75946000Y-99822000D01*
X75946000Y-99696000D01*
X75965685Y-99628961D01*
X76018489Y-99583206D01*
X76070000Y-99572000D01*
X76845999Y-99572000D01*
X76845999Y-99490417D01*
X76839591Y-99419897D01*
X76839590Y-99419892D01*
X76789018Y-99257603D01*
X76721106Y-99145262D01*
X76703270Y-99077707D01*
X76724788Y-99011234D01*
X76778828Y-98966946D01*
X76828880Y-98957124D01*
X81375878Y-99018157D01*
G37*
%TD.AperFunction*%
%TD*%
%TA.AperFunction,Conductor*%
%TO.N,INV_TR+*%
G36*
X87976893Y-84639498D02*
G01*
X88115020Y-84640492D01*
X88123029Y-84640809D01*
X88433619Y-84663188D01*
X88449489Y-84665370D01*
X88750669Y-84726861D01*
X88766133Y-84731076D01*
X89056855Y-84830936D01*
X89071637Y-84837110D01*
X89347027Y-84973667D01*
X89360891Y-84981699D01*
X89590532Y-85135392D01*
X89616341Y-85152665D01*
X89629061Y-85162425D01*
X89860306Y-85364945D01*
X89871655Y-85376263D01*
X90074805Y-85606932D01*
X90084607Y-85619632D01*
X90256275Y-85874593D01*
X90264356Y-85888453D01*
X90401670Y-86163448D01*
X90407893Y-86178234D01*
X90508555Y-86468654D01*
X90512817Y-86484121D01*
X90575139Y-86785104D01*
X90577369Y-86800991D01*
X90600611Y-87111511D01*
X90600951Y-87119529D01*
X90650342Y-92070905D01*
X90653470Y-92384518D01*
X90678000Y-94843600D01*
X93076245Y-94909304D01*
X93076258Y-94909306D01*
X93552837Y-94922362D01*
X95272453Y-94969475D01*
X95280026Y-94969915D01*
X95574180Y-94996095D01*
X95589196Y-94998367D01*
X95874173Y-95059564D01*
X95888818Y-95063663D01*
X96164154Y-95159292D01*
X96178183Y-95165152D01*
X96439736Y-95293777D01*
X96452946Y-95301314D01*
X96696781Y-95460998D01*
X96708966Y-95470092D01*
X96934330Y-95660904D01*
X96939964Y-95665979D01*
X102285800Y-100787200D01*
X103278366Y-100791076D01*
X103278388Y-100791078D01*
X109624990Y-100815869D01*
X112796325Y-100828257D01*
X112804403Y-100828552D01*
X113117702Y-100850265D01*
X113133731Y-100852434D01*
X113437564Y-100913950D01*
X113453161Y-100918183D01*
X113746408Y-101018739D01*
X113761335Y-101024974D01*
X114038970Y-101162845D01*
X114052961Y-101170971D01*
X114310288Y-101343822D01*
X114323102Y-101353701D01*
X114439417Y-101456143D01*
X114555737Y-101558589D01*
X114567151Y-101570048D01*
X114771124Y-101803476D01*
X114780949Y-101816323D01*
X114952797Y-102074330D01*
X114960864Y-102088344D01*
X115097654Y-102366526D01*
X115103831Y-102381480D01*
X115203236Y-102675101D01*
X115207413Y-102690732D01*
X115267739Y-102994790D01*
X115269846Y-103010832D01*
X115290336Y-103324215D01*
X115290600Y-103332305D01*
X115290600Y-104507593D01*
X115270915Y-104574632D01*
X115218111Y-104620387D01*
X115148953Y-104630331D01*
X115085397Y-104601306D01*
X115078919Y-104595274D01*
X114992242Y-104508597D01*
X114807276Y-104374211D01*
X114603568Y-104270417D01*
X114386124Y-104199765D01*
X114296000Y-104185490D01*
X114296000Y-105173252D01*
X114258292Y-105151482D01*
X114118409Y-105114000D01*
X113973591Y-105114000D01*
X113833708Y-105151482D01*
X113796000Y-105173252D01*
X113796000Y-104185490D01*
X113795999Y-104185490D01*
X113705875Y-104199765D01*
X113488431Y-104270417D01*
X113284723Y-104374211D01*
X113099757Y-104508597D01*
X112987681Y-104620674D01*
X112926358Y-104654159D01*
X112856666Y-104649175D01*
X112800733Y-104607303D01*
X112776316Y-104541839D01*
X112776000Y-104532993D01*
X112776000Y-104292400D01*
X111480600Y-104292400D01*
X105333800Y-104292400D01*
X104013000Y-104292400D01*
X104013000Y-104346671D01*
X103993315Y-104413710D01*
X103940511Y-104459465D01*
X103871353Y-104469409D01*
X103816115Y-104446989D01*
X103715947Y-104374213D01*
X103512235Y-104270417D01*
X103294791Y-104199765D01*
X103204667Y-104185490D01*
X103204667Y-105173252D01*
X103166959Y-105151482D01*
X103027076Y-105114000D01*
X102882258Y-105114000D01*
X102742375Y-105151482D01*
X102704667Y-105173252D01*
X102704667Y-104185490D01*
X102704666Y-104185490D01*
X102614542Y-104199765D01*
X102397098Y-104270417D01*
X102193390Y-104374211D01*
X102008427Y-104508594D01*
X101941013Y-104576009D01*
X101879689Y-104609493D01*
X101809998Y-104604508D01*
X101754064Y-104562637D01*
X101729648Y-104497172D01*
X101729338Y-104489513D01*
X101727000Y-104241600D01*
X100867374Y-104241600D01*
X100859439Y-104241346D01*
X100841234Y-104240178D01*
X100598523Y-104224614D01*
X100582783Y-104222587D01*
X100330048Y-104173427D01*
X100314696Y-104169406D01*
X100070311Y-104088369D01*
X100055598Y-104082420D01*
X99823568Y-103970834D01*
X99809734Y-103963054D01*
X99593858Y-103822745D01*
X99581132Y-103813263D01*
X99381912Y-103643954D01*
X99376030Y-103638622D01*
X95384451Y-99780096D01*
X94665799Y-99085399D01*
X90589868Y-99053762D01*
X88115449Y-99034555D01*
X88048564Y-99014351D01*
X88003220Y-98961193D01*
X87993814Y-98891960D01*
X88023331Y-98828631D01*
X88040925Y-98812183D01*
X88080365Y-98781919D01*
X88080365Y-98781917D01*
X87065059Y-97766612D01*
X87085591Y-97761111D01*
X87222408Y-97682119D01*
X87334119Y-97570408D01*
X87413111Y-97433591D01*
X87418612Y-97413060D01*
X88433917Y-98428365D01*
X88433919Y-98428365D01*
X88520499Y-98315534D01*
X88520511Y-98315516D01*
X88651590Y-98088482D01*
X88651595Y-98088471D01*
X88751924Y-97846255D01*
X88819777Y-97593020D01*
X88819779Y-97593009D01*
X88853999Y-97333094D01*
X88854000Y-97333080D01*
X88854000Y-97070919D01*
X88853999Y-97070905D01*
X88819779Y-96810990D01*
X88819777Y-96810979D01*
X88751924Y-96557744D01*
X88651595Y-96315528D01*
X88651590Y-96315517D01*
X88520511Y-96088483D01*
X88520505Y-96088475D01*
X88433918Y-95975633D01*
X88433917Y-95975633D01*
X87418612Y-96990939D01*
X87413111Y-96970409D01*
X87334119Y-96833592D01*
X87222408Y-96721881D01*
X87085591Y-96642889D01*
X87065057Y-96637387D01*
X88080365Y-95622080D01*
X87967524Y-95535494D01*
X87967516Y-95535488D01*
X87740482Y-95404409D01*
X87740471Y-95404404D01*
X87498255Y-95304075D01*
X87245020Y-95236222D01*
X87245009Y-95236220D01*
X86985094Y-95202000D01*
X86722905Y-95202000D01*
X86462990Y-95236220D01*
X86462979Y-95236222D01*
X86209744Y-95304075D01*
X85967528Y-95404404D01*
X85967517Y-95404409D01*
X85740471Y-95535496D01*
X85627633Y-95622079D01*
X85627633Y-95622080D01*
X86642940Y-96637387D01*
X86622409Y-96642889D01*
X86485592Y-96721881D01*
X86373881Y-96833592D01*
X86294889Y-96970409D01*
X86289387Y-96990940D01*
X85274080Y-95975633D01*
X85274079Y-95975633D01*
X85187496Y-96088471D01*
X85056409Y-96315517D01*
X85056404Y-96315528D01*
X84956075Y-96557744D01*
X84888222Y-96810979D01*
X84888220Y-96810990D01*
X84854000Y-97070905D01*
X84854000Y-97333094D01*
X84888220Y-97593009D01*
X84888222Y-97593020D01*
X84956075Y-97846255D01*
X85056404Y-98088471D01*
X85056409Y-98088482D01*
X85187488Y-98315516D01*
X85187494Y-98315524D01*
X85274080Y-98428365D01*
X86289387Y-97413058D01*
X86294889Y-97433591D01*
X86373881Y-97570408D01*
X86485592Y-97682119D01*
X86622409Y-97761111D01*
X86642940Y-97766612D01*
X85627633Y-98781917D01*
X85627633Y-98781919D01*
X85641273Y-98792386D01*
X85682475Y-98848814D01*
X85686630Y-98918560D01*
X85652417Y-98979480D01*
X85590700Y-99012232D01*
X85564824Y-99014757D01*
X82083462Y-98987734D01*
X82031906Y-98976067D01*
X81901022Y-98914874D01*
X81884942Y-98908171D01*
X81865248Y-98900925D01*
X81848656Y-98895607D01*
X81848653Y-98895606D01*
X81767734Y-98873404D01*
X81660625Y-98844016D01*
X81643666Y-98840129D01*
X81643661Y-98840128D01*
X81643652Y-98840126D01*
X81623006Y-98836306D01*
X81618191Y-98835624D01*
X81605772Y-98833866D01*
X81491238Y-98822582D01*
X81406497Y-98814233D01*
X81406479Y-98814231D01*
X81406473Y-98814231D01*
X81397820Y-98813563D01*
X81387382Y-98812978D01*
X81378636Y-98812676D01*
X76879320Y-98752283D01*
X76812550Y-98731700D01*
X76767508Y-98678287D01*
X76758494Y-98609001D01*
X76775446Y-98563196D01*
X76782544Y-98551688D01*
X76782547Y-98551681D01*
X76835855Y-98390806D01*
X76845999Y-98291522D01*
X76846000Y-98291509D01*
X76846000Y-98243200D01*
X76020000Y-98243200D01*
X75952961Y-98223515D01*
X75907206Y-98170711D01*
X75896000Y-98119200D01*
X75896000Y-97993200D01*
X75770000Y-97993200D01*
X75702961Y-97973515D01*
X75657206Y-97920711D01*
X75646000Y-97869200D01*
X75646000Y-97743200D01*
X76146000Y-97743200D01*
X76845999Y-97743200D01*
X76845999Y-97694892D01*
X76845998Y-97694877D01*
X76835855Y-97595592D01*
X76782547Y-97434718D01*
X76782542Y-97434707D01*
X76693575Y-97290471D01*
X76693572Y-97290467D01*
X76573732Y-97170627D01*
X76573729Y-97170625D01*
X76429492Y-97081657D01*
X76429481Y-97081652D01*
X76268606Y-97028344D01*
X76169322Y-97018200D01*
X76146000Y-97018200D01*
X76146000Y-97743200D01*
X75646000Y-97743200D01*
X75646000Y-97018199D01*
X75622693Y-97018200D01*
X75622674Y-97018201D01*
X75523392Y-97028344D01*
X75362518Y-97081652D01*
X75362507Y-97081657D01*
X75212121Y-97174418D01*
X75211390Y-97173234D01*
X75209461Y-97174011D01*
X75202506Y-97181134D01*
X75177597Y-97186861D01*
X75153894Y-97196420D01*
X75144113Y-97194560D01*
X75134413Y-97196791D01*
X75110364Y-97188143D01*
X75085254Y-97183369D01*
X75078031Y-97176517D01*
X75068665Y-97173149D01*
X75053109Y-97152872D01*
X75034566Y-97135280D01*
X75031060Y-97124132D01*
X75026136Y-97117713D01*
X75018227Y-97083320D01*
X75006932Y-96947887D01*
X75006720Y-96930290D01*
X75022402Y-96664680D01*
X75024714Y-96647087D01*
X75078186Y-96386510D01*
X75082991Y-96369420D01*
X75173156Y-96119169D01*
X75180354Y-96102943D01*
X75305367Y-95868139D01*
X75314802Y-95853121D01*
X75472089Y-95638602D01*
X75483586Y-95625073D01*
X75669918Y-95435238D01*
X75683224Y-95423497D01*
X75894774Y-95262246D01*
X75909637Y-95252518D01*
X76000406Y-95202000D01*
X76142057Y-95123163D01*
X76158150Y-95115663D01*
X76344031Y-95044753D01*
X76406666Y-95020860D01*
X76423676Y-95015732D01*
X76683199Y-94957420D01*
X76700760Y-94954778D01*
X76970411Y-94933812D01*
X76979244Y-94933443D01*
X83616800Y-94894400D01*
X83605813Y-93781919D01*
X83605351Y-93735190D01*
X83588914Y-92070905D01*
X84854000Y-92070905D01*
X84854000Y-92333094D01*
X84888220Y-92593009D01*
X84888222Y-92593020D01*
X84956075Y-92846255D01*
X85056404Y-93088471D01*
X85056409Y-93088482D01*
X85187488Y-93315516D01*
X85187494Y-93315524D01*
X85274080Y-93428365D01*
X86289387Y-92413058D01*
X86294889Y-92433591D01*
X86373881Y-92570408D01*
X86485592Y-92682119D01*
X86622409Y-92761111D01*
X86642940Y-92766612D01*
X85627633Y-93781917D01*
X85627633Y-93781918D01*
X85740475Y-93868505D01*
X85740483Y-93868511D01*
X85967517Y-93999590D01*
X85967528Y-93999595D01*
X86209744Y-94099924D01*
X86462979Y-94167777D01*
X86462990Y-94167779D01*
X86722905Y-94201999D01*
X86722920Y-94202000D01*
X86985080Y-94202000D01*
X86985094Y-94201999D01*
X87245009Y-94167779D01*
X87245020Y-94167777D01*
X87498255Y-94099924D01*
X87740471Y-93999595D01*
X87740482Y-93999590D01*
X87967516Y-93868511D01*
X87967534Y-93868499D01*
X88080365Y-93781919D01*
X88080365Y-93781917D01*
X87065059Y-92766612D01*
X87085591Y-92761111D01*
X87222408Y-92682119D01*
X87334119Y-92570408D01*
X87413111Y-92433591D01*
X87418612Y-92413060D01*
X88433917Y-93428365D01*
X88433919Y-93428365D01*
X88520499Y-93315534D01*
X88520511Y-93315516D01*
X88651590Y-93088482D01*
X88651595Y-93088471D01*
X88751924Y-92846255D01*
X88819777Y-92593020D01*
X88819779Y-92593009D01*
X88853999Y-92333094D01*
X88854000Y-92333080D01*
X88854000Y-92070919D01*
X88853999Y-92070905D01*
X88819779Y-91810990D01*
X88819777Y-91810979D01*
X88751924Y-91557744D01*
X88651595Y-91315528D01*
X88651590Y-91315517D01*
X88520511Y-91088483D01*
X88520505Y-91088475D01*
X88433918Y-90975633D01*
X88433917Y-90975633D01*
X87418612Y-91990939D01*
X87413111Y-91970409D01*
X87334119Y-91833592D01*
X87222408Y-91721881D01*
X87085591Y-91642889D01*
X87065057Y-91637387D01*
X88080365Y-90622080D01*
X87967524Y-90535494D01*
X87967516Y-90535488D01*
X87740482Y-90404409D01*
X87740471Y-90404404D01*
X87498255Y-90304075D01*
X87245020Y-90236222D01*
X87245009Y-90236220D01*
X86985094Y-90202000D01*
X86722905Y-90202000D01*
X86462990Y-90236220D01*
X86462979Y-90236222D01*
X86209744Y-90304075D01*
X85967528Y-90404404D01*
X85967517Y-90404409D01*
X85740471Y-90535496D01*
X85627633Y-90622079D01*
X85627633Y-90622080D01*
X86642940Y-91637387D01*
X86622409Y-91642889D01*
X86485592Y-91721881D01*
X86373881Y-91833592D01*
X86294889Y-91970409D01*
X86289387Y-91990940D01*
X85274080Y-90975633D01*
X85274079Y-90975633D01*
X85187496Y-91088471D01*
X85056409Y-91315517D01*
X85056404Y-91315528D01*
X84956075Y-91557744D01*
X84888222Y-91810979D01*
X84888220Y-91810990D01*
X84854000Y-92070905D01*
X83588914Y-92070905D01*
X83588886Y-92068079D01*
X83575090Y-90671258D01*
X83559570Y-89099924D01*
X83540352Y-87154094D01*
X83540509Y-87146538D01*
X83544384Y-87070905D01*
X84854000Y-87070905D01*
X84854000Y-87333094D01*
X84888220Y-87593009D01*
X84888222Y-87593020D01*
X84956075Y-87846255D01*
X85056404Y-88088471D01*
X85056409Y-88088482D01*
X85187488Y-88315516D01*
X85187494Y-88315524D01*
X85274080Y-88428365D01*
X86289387Y-87413058D01*
X86294889Y-87433591D01*
X86373881Y-87570408D01*
X86485592Y-87682119D01*
X86622409Y-87761111D01*
X86642940Y-87766612D01*
X85627633Y-88781917D01*
X85627633Y-88781918D01*
X85740475Y-88868505D01*
X85740483Y-88868511D01*
X85967517Y-88999590D01*
X85967528Y-88999595D01*
X86209744Y-89099924D01*
X86462979Y-89167777D01*
X86462990Y-89167779D01*
X86722905Y-89201999D01*
X86722920Y-89202000D01*
X86985080Y-89202000D01*
X86985094Y-89201999D01*
X87245009Y-89167779D01*
X87245020Y-89167777D01*
X87498255Y-89099924D01*
X87740471Y-88999595D01*
X87740482Y-88999590D01*
X87967516Y-88868511D01*
X87967534Y-88868499D01*
X88080365Y-88781919D01*
X88080365Y-88781917D01*
X87065059Y-87766612D01*
X87085591Y-87761111D01*
X87222408Y-87682119D01*
X87334119Y-87570408D01*
X87413111Y-87433591D01*
X87418612Y-87413060D01*
X88433917Y-88428365D01*
X88433919Y-88428365D01*
X88520499Y-88315534D01*
X88520511Y-88315516D01*
X88651590Y-88088482D01*
X88651595Y-88088471D01*
X88751924Y-87846255D01*
X88819777Y-87593020D01*
X88819779Y-87593009D01*
X88853999Y-87333094D01*
X88854000Y-87333080D01*
X88854000Y-87070919D01*
X88853999Y-87070905D01*
X88819779Y-86810990D01*
X88819777Y-86810979D01*
X88751924Y-86557744D01*
X88651595Y-86315528D01*
X88651590Y-86315517D01*
X88520511Y-86088483D01*
X88520505Y-86088475D01*
X88433918Y-85975633D01*
X88433917Y-85975633D01*
X87418612Y-86990939D01*
X87413111Y-86970409D01*
X87334119Y-86833592D01*
X87222408Y-86721881D01*
X87085591Y-86642889D01*
X87065057Y-86637387D01*
X88080365Y-85622080D01*
X87967524Y-85535494D01*
X87967516Y-85535488D01*
X87740482Y-85404409D01*
X87740471Y-85404404D01*
X87498255Y-85304075D01*
X87245020Y-85236222D01*
X87245009Y-85236220D01*
X86985094Y-85202000D01*
X86722905Y-85202000D01*
X86462990Y-85236220D01*
X86462979Y-85236222D01*
X86209744Y-85304075D01*
X85967528Y-85404404D01*
X85967517Y-85404409D01*
X85740471Y-85535496D01*
X85627633Y-85622079D01*
X85627633Y-85622080D01*
X86642940Y-86637387D01*
X86622409Y-86642889D01*
X86485592Y-86721881D01*
X86373881Y-86833592D01*
X86294889Y-86970409D01*
X86289387Y-86990940D01*
X85274080Y-85975633D01*
X85274079Y-85975633D01*
X85187496Y-86088471D01*
X85056409Y-86315517D01*
X85056404Y-86315528D01*
X84956075Y-86557744D01*
X84888222Y-86810979D01*
X84888220Y-86810990D01*
X84854000Y-87070905D01*
X83544384Y-87070905D01*
X83544917Y-87060511D01*
X83544917Y-87060508D01*
X83555544Y-86853119D01*
X83557240Y-86838079D01*
X83563734Y-86800991D01*
X83607259Y-86552413D01*
X83610770Y-86537709D01*
X83695227Y-86260251D01*
X83700497Y-86246100D01*
X83818135Y-85980987D01*
X83825096Y-85967574D01*
X83974151Y-85718783D01*
X83982700Y-85706310D01*
X84160953Y-85477539D01*
X84170958Y-85466201D01*
X84375759Y-85260849D01*
X84387057Y-85250824D01*
X84615369Y-85071944D01*
X84627808Y-85063369D01*
X84876215Y-84913638D01*
X84889578Y-84906657D01*
X85154385Y-84788303D01*
X85168530Y-84782991D01*
X85445769Y-84697789D01*
X85460446Y-84694243D01*
X85745998Y-84643454D01*
X85761013Y-84641721D01*
X86054397Y-84625898D01*
X86061953Y-84625722D01*
X87976893Y-84639498D01*
G37*
%TD.AperFunction*%
%TD*%
%TA.AperFunction,Conductor*%
%TO.N,-BATT*%
G36*
X66414866Y-94141129D02*
G01*
X66432894Y-94143059D01*
X66680472Y-94188086D01*
X66698013Y-94192623D01*
X66936372Y-94273286D01*
X66953075Y-94280339D01*
X66994845Y-94301700D01*
X67177099Y-94394903D01*
X67192602Y-94404321D01*
X67210490Y-94417068D01*
X67253662Y-94472003D01*
X67253771Y-94473150D01*
X67283463Y-94474848D01*
X67313754Y-94490654D01*
X67397517Y-94550344D01*
X67411479Y-94561922D01*
X67592901Y-94736277D01*
X67605025Y-94749769D01*
X67679614Y-94846105D01*
X67705091Y-94911164D01*
X67691350Y-94979669D01*
X67683294Y-94987990D01*
X67736637Y-94985704D01*
X67796979Y-95020926D01*
X67814903Y-95045271D01*
X67892463Y-95183141D01*
X67900176Y-95199558D01*
X67990232Y-95434509D01*
X67995468Y-95451875D01*
X68050285Y-95697454D01*
X68052931Y-95715398D01*
X68071668Y-95970884D01*
X68072000Y-95979954D01*
X68072000Y-96348867D01*
X68071637Y-96358345D01*
X68053701Y-96592306D01*
X68050812Y-96611040D01*
X67998508Y-96834905D01*
X67992797Y-96852979D01*
X67906983Y-97066256D01*
X67898584Y-97083250D01*
X67781266Y-97280951D01*
X67770375Y-97296466D01*
X67624285Y-97473986D01*
X67611156Y-97487658D01*
X67439732Y-97640823D01*
X67424673Y-97652336D01*
X67231892Y-97777592D01*
X67215254Y-97786674D01*
X67005645Y-97881078D01*
X66987817Y-97887518D01*
X66766255Y-97948874D01*
X66747654Y-97952522D01*
X66514620Y-97979944D01*
X66505165Y-97980692D01*
X64947799Y-98043999D01*
X64999575Y-105879446D01*
X64980334Y-105946614D01*
X64949215Y-105980033D01*
X64923453Y-105999047D01*
X64923450Y-105999050D01*
X64842806Y-106108318D01*
X64797953Y-106236502D01*
X64795100Y-106266931D01*
X64795100Y-108675458D01*
X64797954Y-108705898D01*
X64797954Y-108705899D01*
X64842806Y-108834081D01*
X64842807Y-108834082D01*
X64923450Y-108943350D01*
X64967607Y-108975939D01*
X64970341Y-108977957D01*
X65012592Y-109033605D01*
X65020704Y-109076907D01*
X65022253Y-109311266D01*
X65024000Y-109575600D01*
X66776600Y-109648400D01*
X68246787Y-109709469D01*
X68270939Y-109712872D01*
X68337292Y-109729008D01*
X68381304Y-109749491D01*
X68426292Y-109782473D01*
X68459068Y-109818286D01*
X68487946Y-109866014D01*
X68504461Y-109911669D01*
X68514668Y-109979183D01*
X68515924Y-110003543D01*
X68503800Y-110261387D01*
X68503800Y-112056198D01*
X68484115Y-112123237D01*
X68431311Y-112168992D01*
X68362153Y-112178936D01*
X68298597Y-112149911D01*
X68260823Y-112091133D01*
X68260025Y-112088292D01*
X68198626Y-111859150D01*
X68103316Y-111629051D01*
X68103311Y-111629040D01*
X67978786Y-111413358D01*
X67978780Y-111413350D01*
X67904198Y-111316153D01*
X67904197Y-111316153D01*
X66996641Y-112223710D01*
X66971622Y-112163310D01*
X66900488Y-112056849D01*
X66809951Y-111966312D01*
X66703490Y-111895178D01*
X66643087Y-111870157D01*
X67550645Y-110962600D01*
X67453449Y-110888019D01*
X67453441Y-110888013D01*
X67237759Y-110763488D01*
X67237748Y-110763483D01*
X67007649Y-110668173D01*
X66767063Y-110603708D01*
X66520134Y-110571200D01*
X66271066Y-110571200D01*
X66024136Y-110603708D01*
X65783550Y-110668173D01*
X65553451Y-110763483D01*
X65553447Y-110763485D01*
X65337743Y-110888023D01*
X65240553Y-110962599D01*
X65240553Y-110962600D01*
X66148111Y-111870158D01*
X66087710Y-111895178D01*
X65981249Y-111966312D01*
X65890712Y-112056849D01*
X65819578Y-112163310D01*
X65794558Y-112223711D01*
X64887000Y-111316153D01*
X64886999Y-111316153D01*
X64812423Y-111413343D01*
X64687885Y-111629047D01*
X64687883Y-111629051D01*
X64592573Y-111859150D01*
X64578369Y-111912162D01*
X64542004Y-111971822D01*
X64479157Y-112002351D01*
X64409781Y-111994056D01*
X64370302Y-111967134D01*
X63512864Y-111097619D01*
X63489713Y-111074142D01*
X63484231Y-111068208D01*
X63279155Y-110831179D01*
X63269412Y-110818313D01*
X63099107Y-110560030D01*
X63091120Y-110546008D01*
X62955827Y-110267797D01*
X62949725Y-110252847D01*
X62866467Y-110003543D01*
X62851722Y-109959390D01*
X62847620Y-109943788D01*
X62788585Y-109640102D01*
X62786543Y-109624090D01*
X62767220Y-109311266D01*
X62766985Y-109303188D01*
X62767087Y-109274001D01*
X62777510Y-106266931D01*
X62812498Y-96172820D01*
X62813072Y-96161335D01*
X62833674Y-95948686D01*
X62838022Y-95926047D01*
X62842569Y-95910399D01*
X62876874Y-95792347D01*
X64794000Y-95792347D01*
X64794000Y-96028452D01*
X64830934Y-96261647D01*
X64903897Y-96486202D01*
X65011087Y-96696574D01*
X65071338Y-96779504D01*
X65071340Y-96779505D01*
X65811037Y-96039808D01*
X65828075Y-96103393D01*
X65893901Y-96217407D01*
X65986993Y-96310499D01*
X66101007Y-96376325D01*
X66164590Y-96393362D01*
X65424893Y-97133058D01*
X65507828Y-97193314D01*
X65718197Y-97300502D01*
X65942752Y-97373465D01*
X65942751Y-97373465D01*
X66175948Y-97410400D01*
X66412052Y-97410400D01*
X66645247Y-97373465D01*
X66869802Y-97300502D01*
X67080163Y-97193318D01*
X67080169Y-97193314D01*
X67163104Y-97133058D01*
X67163105Y-97133058D01*
X66423408Y-96393362D01*
X66486993Y-96376325D01*
X66601007Y-96310499D01*
X66694099Y-96217407D01*
X66759925Y-96103393D01*
X66776962Y-96039809D01*
X67516658Y-96779505D01*
X67516658Y-96779504D01*
X67576914Y-96696569D01*
X67576918Y-96696563D01*
X67684102Y-96486202D01*
X67757065Y-96261647D01*
X67794000Y-96028452D01*
X67794000Y-95792347D01*
X67757065Y-95559152D01*
X67684102Y-95334597D01*
X67596345Y-95162363D01*
X67583449Y-95093694D01*
X67605837Y-95038531D01*
X67574732Y-95045829D01*
X67571839Y-95045636D01*
X67516658Y-95041293D01*
X66776962Y-95780990D01*
X66759925Y-95717407D01*
X66694099Y-95603393D01*
X66601007Y-95510301D01*
X66486993Y-95444475D01*
X66423409Y-95427437D01*
X67163105Y-94687740D01*
X67162814Y-94684053D01*
X67126242Y-94636625D01*
X67126237Y-94636575D01*
X67097933Y-94635218D01*
X67082234Y-94628536D01*
X66869802Y-94520297D01*
X66645247Y-94447334D01*
X66645248Y-94447334D01*
X66412052Y-94410400D01*
X66175948Y-94410400D01*
X65942752Y-94447334D01*
X65718197Y-94520297D01*
X65507830Y-94627484D01*
X65424894Y-94687740D01*
X66164591Y-95427437D01*
X66101007Y-95444475D01*
X65986993Y-95510301D01*
X65893901Y-95603393D01*
X65828075Y-95717407D01*
X65811037Y-95780991D01*
X65071340Y-95041294D01*
X65011084Y-95124230D01*
X64903897Y-95334597D01*
X64830934Y-95559152D01*
X64794000Y-95792347D01*
X62876874Y-95792347D01*
X62896017Y-95726473D01*
X62904474Y-95705047D01*
X62998421Y-95519658D01*
X63010704Y-95500160D01*
X63140884Y-95330774D01*
X63148312Y-95321986D01*
X63442979Y-95004652D01*
X63443314Y-95004294D01*
X63474169Y-94971677D01*
X63475661Y-94970129D01*
X63507050Y-94938154D01*
X63507640Y-94937559D01*
X63851515Y-94593684D01*
X63860045Y-94585915D01*
X63939196Y-94520297D01*
X64044096Y-94433332D01*
X64063149Y-94420325D01*
X64267216Y-94307310D01*
X64288342Y-94298064D01*
X64509819Y-94224829D01*
X64532302Y-94219657D01*
X64769268Y-94187972D01*
X64780762Y-94186977D01*
X66149770Y-94132579D01*
X66158837Y-94132552D01*
X66414866Y-94141129D01*
G37*
%TD.AperFunction*%
%TD*%
M02*
