M48
; DRILL file {KiCad 9.0.3} date 2025-09-02T19:33:37-0400
; FORMAT={-:-/ absolute / inch / decimal}
; #@! TF.CreationDate,2025-09-02T19:33:37-04:00
; #@! TF.GenerationSoftware,Kicad,Pcbnew,9.0.3
; #@! TF.FileFunction,Plated,1,4,PTH
FMAT,2
INCH
; #@! TA.AperFunction,Plated,PTH,ViaDrill
T1C0.0157
; #@! TA.AperFunction,Plated,PTH,ComponentDrill
T2C0.0236
; #@! TA.AperFunction,Plated,PTH,ComponentDrill
T3C0.0295
; #@! TA.AperFunction,Plated,PTH,ComponentDrill
T4C0.0315
; #@! TA.AperFunction,Plated,PTH,ComponentDrill
T5C0.0354
; #@! TA.AperFunction,Plated,PTH,ComponentDrill
T6C0.0374
; #@! TA.AperFunction,Plated,PTH,ComponentDrill
T7C0.0394
; #@! TA.AperFunction,Plated,PTH,ComponentDrill
T8C0.0433
; #@! TA.AperFunction,Plated,PTH,ComponentDrill
T9C0.0472
; #@! TA.AperFunction,Plated,PTH,ComponentDrill
T10C0.0512
; #@! TA.AperFunction,Plated,PTH,ComponentDrill
T11C0.0591
; #@! TA.AperFunction,Plated,PTH,ComponentDrill
T12C0.0630
; #@! TA.AperFunction,Plated,PTH,ComponentDrill
T13C0.0669
; #@! TA.AperFunction,Plated,PTH,ComponentDrill
T14C0.0906
; #@! TA.AperFunction,Plated,PTH,ComponentDrill
T15C0.1378
%
G90
G05
T1
X2.505Y-5.13
X2.79Y-5.0
X2.79Y-5.06
X2.79Y-5.11
X2.925Y-4.0084
X3.07Y-4.89
X3.13Y-4.66
X3.2359Y-4.9325
X3.4Y-4.92
X3.54Y-4.66
X3.72Y-4.68
X4.12Y-4.7
X4.21Y-5.4
X4.27Y-5.33
X4.45Y-5.46
X4.45Y-5.51
X4.48Y-5.29
X4.63Y-5.59
X5.28Y-5.57
X5.37Y-5.712
X5.488Y-5.48
X5.49Y-5.14
X5.608Y-5.714
X5.61Y-5.05
X5.63Y-5.23
X5.78Y-5.1714
X5.88Y-5.16
X5.94Y-5.05
X5.94Y-5.14
X6.03Y-5.0
X6.24Y-5.1708
X6.28Y-5.13
X6.32Y-1.77
X6.4331Y-5.3622
X6.5906Y-4.9409
X6.7205Y-5.1102
X6.7224Y-5.0531
X6.7283Y-5.6967
X6.7323Y-5.2913
X6.7323Y-5.4055
X6.7587Y-5.7218
X6.798Y-5.72
X6.8071Y-5.0079
X6.8071Y-5.248
X6.8346Y-5.4055
X6.836Y-5.702
X6.872Y-5.154
X6.8858Y-5.4055
X6.91Y-5.446
X6.9173Y-4.9055
X6.938Y-5.154
X6.9764Y-5.0
X6.9803Y-5.3661
X7.0224Y-5.4461
X7.0748Y-5.5276
X7.0866Y-4.9567
X7.1024Y-4.5709
X7.1602Y-5.2815
X7.1996Y-5.4665
X7.214Y-4.95
X7.3819Y-4.8039
X7.3819Y-4.9449
X7.3819Y-4.989
X7.4449Y-5.1102
X7.4567Y-4.552
X7.5079Y-4.8465
X7.5197Y-4.922
X7.5276Y-5.1535
X7.5276Y-5.2008
X7.6102Y-5.0748
X7.6339Y-4.4213
X7.7126Y-4.9331
X7.7205Y-5.3228
X7.7362Y-5.5079
X7.7362Y-5.6299
X7.748Y-5.122
X7.7677Y-5.3228
X7.7717Y-5.1535
X7.8071Y-4.937
X7.811Y-5.1535
X7.815Y-4.5559
X7.8504Y-5.1535
X7.8622Y-5.3228
X7.874Y-4.1346
X7.8898Y-5.1535
X7.92Y-5.1811
X7.9252Y-4.4181
X8.0197Y-4.5598
X8.0472Y-4.68
X8.0945Y-5.2402
X8.1181Y-4.0591
X8.1181Y-4.3071
X8.1181Y-4.4331
X8.1181Y-4.5551
X8.1181Y-4.6811
X8.1181Y-4.8031
X8.12Y-4.93
X8.1203Y-4.1907
X8.16Y-4.93
X8.1693Y-5.0748
X8.1693Y-5.1142
X8.1994Y-4.93
X8.25Y-4.93
X8.252Y-4.0394
X8.2559Y-4.2874
X8.3Y-4.93
T3
X6.9656Y-4.778
X7.0156Y-4.778
X7.0656Y-4.778
X7.1972Y-4.7756
X7.2472Y-4.7756
X7.2972Y-4.7756
T4
X3.2993Y-5.212
X3.378Y-5.212
X5.01Y-5.526
X5.01Y-5.626
X5.01Y-5.726
X6.0414Y-4.414
X6.191Y-4.414
X6.4224Y-4.412
X6.572Y-4.412
T5
X7.0263Y-3.7783
X7.0263Y-4.2705
X7.42Y-3.7783
X7.42Y-4.2705
T6
X5.9421Y-5.3776
X6.0406Y-5.3776
X6.1193Y-5.3776
X6.2177Y-5.3776
X8.016Y-3.5316
X8.016Y-3.63
X8.016Y-3.7284
X8.016Y-3.8269
X8.258Y-3.3346
X8.258Y-3.433
X8.258Y-3.5315
X8.258Y-3.6299
X8.258Y-3.7283
X8.258Y-3.8267
T7
X2.518Y-4.63
X2.61Y-3.776
X2.61Y-3.9729
X2.618Y-4.63
X2.718Y-4.63
X3.052Y-5.756
X3.152Y-5.756
X3.252Y-5.756
X3.352Y-5.756
X3.452Y-5.756
X3.552Y-5.756
X3.652Y-5.756
X3.752Y-5.756
X3.852Y-5.756
X3.952Y-5.756
X4.052Y-5.756
X4.152Y-5.756
X4.252Y-5.756
X4.352Y-5.756
X4.452Y-5.756
X4.552Y-5.756
X4.652Y-5.756
X4.798Y-5.6562
X4.798Y-5.7562
X5.5898Y-4.36
X5.7866Y-4.36
X8.014Y-2.954
X8.014Y-3.0524
X8.258Y-2.956
X8.258Y-3.0544
T8
X3.08Y-4.16
X3.18Y-4.16
X3.28Y-4.16
X3.5167Y-4.1626
X3.6167Y-4.1626
X3.7167Y-4.1626
X3.9533Y-4.16
X4.0533Y-4.16
X4.1533Y-4.16
X4.39Y-4.16
X4.49Y-4.16
X4.59Y-4.16
X5.6Y-4.6726
X5.7Y-4.6726
X5.8Y-4.6726
X6.05Y-4.6726
X6.15Y-4.6726
X6.25Y-4.6726
X6.4961Y-5.4654
X6.4961Y-5.8654
T9
X3.4194Y-1.8583
X3.4194Y-2.0552
X3.4194Y-2.252
X3.4194Y-2.4489
X3.4194Y-2.6457
X3.4194Y-2.8426
X3.4194Y-3.0394
X3.4194Y-3.2363
X3.4194Y-3.4331
X3.4194Y-3.63
X3.4194Y-3.8269
X4.6006Y-1.8583
X4.6006Y-2.0552
X4.6006Y-2.252
X4.6006Y-2.4489
X4.6006Y-2.6457
X4.6006Y-2.8426
X4.6006Y-3.0394
X4.6006Y-3.2363
X4.6006Y-3.4331
X4.6006Y-3.63
X4.6006Y-3.8269
X5.1Y-4.1947
X5.1Y-4.49
X5.1Y-4.8747
X5.1Y-5.17
X5.104Y-2.635
X5.104Y-2.785
X5.104Y-2.935
X5.104Y-3.085
X5.12Y-2.386
X5.2416Y-3.61
X5.27Y-2.386
X5.28Y-2.635
X5.28Y-2.785
X5.28Y-2.935
X5.28Y-3.085
X5.5369Y-3.61
X5.834Y-2.384
X5.984Y-2.384
X6.16Y-3.89
X6.4553Y-3.89
X6.524Y-2.39
X6.674Y-2.39
X7.2012Y-2.384
X7.3512Y-2.384
T10
X2.614Y-4.2311
X2.614Y-4.428
X8.19Y-2.3831
X8.19Y-2.58
T11
X5.1702Y-2.0487
X5.3848Y-2.0487
X5.5994Y-2.0487
X5.8869Y-2.048
X6.1014Y-2.048
X6.316Y-2.048
X6.5749Y-2.054
X6.7894Y-2.054
X7.004Y-2.054
X7.2509Y-2.054
X7.4654Y-2.054
X7.68Y-2.054
T12
X2.576Y-2.512
X2.576Y-2.712
X2.576Y-2.912
X2.576Y-3.112
T13
X6.79Y-2.5806
X6.79Y-3.3994
T14
X5.8213Y-5.4843
X6.3386Y-5.4843
T15
X2.76Y-5.54
X2.7659Y-2.0591
X8.02Y-5.54
X8.0259Y-2.0591
T2
G00X5.2953Y-5.833
M15
G01X5.2953Y-5.7779
M16
G05
G00X5.6811Y-5.833
M15
G01X5.6811Y-5.7779
M16
G05
G00X6.6173Y-5.6506
M15
G01X6.6173Y-5.6939
M16
G05
G00X6.6173Y-5.8219
M15
G01X6.6173Y-5.8533
M16
G05
G00X6.9575Y-5.6506
M15
G01X6.9575Y-5.6939
M16
G05
G00X6.9575Y-5.8219
M15
G01X6.9575Y-5.8533
M16
G05
M30
