%TF.GenerationSoftware,KiCad,Pcbnew,9.0.3*%
%TF.CreationDate,2025-09-02T19:33:37-04:00*%
%TF.ProjectId,VolPak-1000,566f6c50-616b-42d3-9130-30302e6b6963,rev?*%
%TF.SameCoordinates,Original*%
%TF.FileFunction,Soldermask,Bot*%
%TF.FilePolarity,Negative*%
%FSLAX46Y46*%
G04 Gerber Fmt 4.6, Leading zero omitted, Abs format (unit mm)*
G04 Created by KiCad (PCBNEW 9.0.3) date 2025-09-02 19:33:37*
%MOMM*%
%LPD*%
G01*
G04 APERTURE LIST*
G04 Aperture macros list*
%AMRoundRect*
0 Rectangle with rounded corners*
0 $1 Rounding radius*
0 $2 $3 $4 $5 $6 $7 $8 $9 X,Y pos of 4 corners*
0 Add a 4 corners polygon primitive as box body*
4,1,4,$2,$3,$4,$5,$6,$7,$8,$9,$2,$3,0*
0 Add four circle primitives for the rounded corners*
1,1,$1+$1,$2,$3*
1,1,$1+$1,$4,$5*
1,1,$1+$1,$6,$7*
1,1,$1+$1,$8,$9*
0 Add four rect primitives between the rounded corners*
20,1,$1+$1,$2,$3,$4,$5,0*
20,1,$1+$1,$4,$5,$6,$7,0*
20,1,$1+$1,$6,$7,$8,$9,0*
20,1,$1+$1,$8,$9,$2,$3,0*%
G04 Aperture macros list end*
%ADD10O,1.000000X2.100000*%
%ADD11O,1.000000X1.800000*%
%ADD12RoundRect,0.250001X0.949999X-0.949999X0.949999X0.949999X-0.949999X0.949999X-0.949999X-0.949999X0*%
%ADD13C,2.400000*%
%ADD14RoundRect,0.250001X1.149999X-1.149999X1.149999X1.149999X-1.149999X1.149999X-1.149999X-1.149999X0*%
%ADD15C,2.800000*%
%ADD16RoundRect,0.250000X0.750000X-0.750000X0.750000X0.750000X-0.750000X0.750000X-0.750000X-0.750000X0*%
%ADD17C,2.000000*%
%ADD18RoundRect,0.250001X-0.949999X-0.949999X0.949999X-0.949999X0.949999X0.949999X-0.949999X0.949999X0*%
%ADD19RoundRect,0.249999X-0.850001X0.850001X-0.850001X-0.850001X0.850001X-0.850001X0.850001X0.850001X0*%
%ADD20C,2.200000*%
%ADD21R,2.500000X4.500000*%
%ADD22O,2.500000X4.500000*%
%ADD23R,1.600000X1.500000*%
%ADD24C,1.600000*%
%ADD25C,3.000000*%
%ADD26R,3.200000X3.200000*%
%ADD27C,3.200000*%
%ADD28RoundRect,0.250001X-1.149999X1.149999X-1.149999X-1.149999X1.149999X-1.149999X1.149999X1.149999X0*%
%ADD29C,1.440000*%
%ADD30O,0.900000X2.300000*%
%ADD31R,1.050000X1.500000*%
%ADD32O,1.050000X1.500000*%
%ADD33RoundRect,0.250001X0.949999X0.949999X-0.949999X0.949999X-0.949999X-0.949999X0.949999X-0.949999X0*%
%ADD34R,1.905000X2.000000*%
%ADD35O,1.905000X2.000000*%
%ADD36C,3.900000*%
%ADD37C,7.000000*%
%ADD38R,1.700000X1.700000*%
%ADD39C,1.700000*%
%ADD40RoundRect,0.250000X0.750000X-0.600000X0.750000X0.600000X-0.750000X0.600000X-0.750000X-0.600000X0*%
%ADD41O,2.000000X1.700000*%
%ADD42RoundRect,0.250000X0.725000X-0.600000X0.725000X0.600000X-0.725000X0.600000X-0.725000X-0.600000X0*%
%ADD43O,1.950000X1.700000*%
%ADD44RoundRect,0.250000X-0.750000X-0.750000X0.750000X-0.750000X0.750000X0.750000X-0.750000X0.750000X0*%
%ADD45RoundRect,0.250000X0.550000X0.550000X-0.550000X0.550000X-0.550000X-0.550000X0.550000X-0.550000X0*%
%ADD46R,2.000000X2.000000*%
%ADD47RoundRect,0.250000X-0.550000X-0.550000X0.550000X-0.550000X0.550000X0.550000X-0.550000X0.550000X0*%
%ADD48C,3.400000*%
G04 APERTURE END LIST*
D10*
%TO.C,J1*%
X168080000Y-144075000D03*
D11*
X168080000Y-148275000D03*
D10*
X176720000Y-144075000D03*
D11*
X176720000Y-148275000D03*
%TD*%
D12*
%TO.C,D13*%
X134112000Y-78359000D03*
D13*
X134112000Y-74549000D03*
%TD*%
D12*
%TO.C,D10*%
X129641600Y-70739000D03*
D13*
X129641600Y-66929000D03*
%TD*%
D14*
%TO.C,J6*%
X208026000Y-65532000D03*
D15*
X208026000Y-60532000D03*
%TD*%
D16*
%TO.C,C28*%
X66294000Y-100910400D03*
D17*
X66294000Y-95910400D03*
%TD*%
D18*
%TO.C,D15*%
X148183600Y-60553600D03*
D13*
X151993600Y-60553600D03*
%TD*%
D19*
%TO.C,D5*%
X165000000Y-138820000D03*
D20*
X165000000Y-148980000D03*
%TD*%
D21*
%TO.C,Q11*%
X184172000Y-52171600D03*
D22*
X189622000Y-52171600D03*
X195072000Y-52171600D03*
%TD*%
D23*
%TO.C,J11*%
X150930000Y-136590000D03*
D24*
X153430000Y-136590000D03*
X155430000Y-136590000D03*
X157930000Y-136590000D03*
D25*
X147860000Y-139300000D03*
X161000000Y-139300000D03*
%TD*%
D26*
%TO.C,D18*%
X65430400Y-63804800D03*
D27*
X65430400Y-68884800D03*
X65430400Y-73964800D03*
X65430400Y-79044800D03*
%TD*%
D28*
%TO.C,J4*%
X66395600Y-107471200D03*
D15*
X66395600Y-112471200D03*
%TD*%
D12*
%TO.C,C39*%
X129540000Y-131318000D03*
D13*
X129540000Y-123818000D03*
%TD*%
D21*
%TO.C,Q8*%
X167001600Y-52171600D03*
D22*
X172451600Y-52171600D03*
X177901600Y-52171600D03*
%TD*%
D18*
%TO.C,D17*%
X182910200Y-60553600D03*
D13*
X186720200Y-60553600D03*
%TD*%
D29*
%TO.C,RV1*%
X127254000Y-140360400D03*
X127254000Y-142900400D03*
X127254000Y-145440400D03*
%TD*%
D30*
%TO.C,J12*%
X134500000Y-147457500D03*
X144300000Y-147457500D03*
%TD*%
D18*
%TO.C,D14*%
X130048000Y-60604400D03*
D13*
X133858000Y-60604400D03*
%TD*%
D31*
%TO.C,Q12*%
X176927500Y-121360000D03*
D32*
X178197500Y-121360000D03*
X179467500Y-121360000D03*
%TD*%
D33*
%TO.C,C35*%
X140637780Y-91694000D03*
D13*
X133137780Y-91694000D03*
%TD*%
D34*
%TO.C,U7*%
X158750000Y-118684000D03*
D35*
X156210000Y-118684000D03*
X153670000Y-118684000D03*
%TD*%
D36*
%TO.C,REF\u002A\u002A*%
X70254600Y-52300500D03*
D37*
X70254600Y-52300500D03*
%TD*%
D38*
%TO.C,J3*%
X69037200Y-117602000D03*
D39*
X66497200Y-117602000D03*
X63957200Y-117602000D03*
%TD*%
D18*
%TO.C,C36*%
X156464000Y-98806000D03*
D13*
X163964000Y-98806000D03*
%TD*%
D18*
%TO.C,D16*%
X165709600Y-60706000D03*
D13*
X169519600Y-60706000D03*
%TD*%
D34*
%TO.C,Q3*%
X105494667Y-105664000D03*
D35*
X102954667Y-105664000D03*
X100414667Y-105664000D03*
%TD*%
D40*
%TO.C,J8*%
X209753200Y-77582400D03*
D41*
X209753200Y-75082400D03*
%TD*%
D12*
%TO.C,D11*%
X129641600Y-78359000D03*
D13*
X129641600Y-74549000D03*
%TD*%
D40*
%TO.C,J10*%
X203555600Y-77531600D03*
D41*
X203555600Y-75031600D03*
%TD*%
D42*
%TO.C,J9*%
X203606400Y-97202000D03*
D43*
X203606400Y-94702000D03*
X203606400Y-92202000D03*
X203606400Y-89702000D03*
%TD*%
D12*
%TO.C,D12*%
X134112000Y-70739000D03*
D13*
X134112000Y-66929000D03*
%TD*%
D34*
%TO.C,U6*%
X147320000Y-118684000D03*
D35*
X144780000Y-118684000D03*
X142240000Y-118684000D03*
%TD*%
D34*
%TO.C,Q6*%
X94403333Y-105730000D03*
D35*
X91863333Y-105730000D03*
X89323333Y-105730000D03*
%TD*%
D44*
%TO.C,C32*%
X141980890Y-110744000D03*
D17*
X146980890Y-110744000D03*
%TD*%
D25*
%TO.C,T1*%
X86854000Y-97202000D03*
X86854000Y-92202000D03*
X86854000Y-87202000D03*
X86854000Y-82202000D03*
X86854000Y-77202000D03*
X86854000Y-72202000D03*
X86854000Y-67202000D03*
X86854000Y-62202000D03*
X86854000Y-57202000D03*
X86854000Y-52202000D03*
X86854000Y-47202000D03*
X116854000Y-47202000D03*
X116854000Y-52202000D03*
X116854000Y-57202000D03*
X116854000Y-62202000D03*
X116854000Y-67202000D03*
X116854000Y-72202000D03*
X116854000Y-77202000D03*
X116854000Y-82202000D03*
X116854000Y-87202000D03*
X116854000Y-92202000D03*
X116854000Y-97202000D03*
%TD*%
D12*
%TO.C,C38*%
X129540000Y-114046000D03*
D13*
X129540000Y-106546000D03*
%TD*%
D38*
%TO.C,J7*%
X77520800Y-146202400D03*
D39*
X80060800Y-146202400D03*
X82600800Y-146202400D03*
X85140800Y-146202400D03*
X87680800Y-146202400D03*
X90220800Y-146202400D03*
X92760800Y-146202400D03*
X95300800Y-146202400D03*
X97840800Y-146202400D03*
X100380800Y-146202400D03*
X102920800Y-146202400D03*
X105460800Y-146202400D03*
X108000800Y-146202400D03*
X110540800Y-146202400D03*
X113080800Y-146202400D03*
X115620800Y-146202400D03*
X118160800Y-146202400D03*
%TD*%
D31*
%TO.C,Q13*%
X182810000Y-121300000D03*
D32*
X184080000Y-121300000D03*
X185350000Y-121300000D03*
%TD*%
D45*
%TO.C,C33*%
X166928077Y-112064800D03*
D24*
X163128077Y-112064800D03*
%TD*%
D36*
%TO.C,REF\u002A\u002A*%
X203858600Y-52300500D03*
D37*
X203858600Y-52300500D03*
%TD*%
D38*
%TO.C,J5*%
X121869200Y-146207400D03*
D39*
X121869200Y-143667400D03*
%TD*%
D46*
%TO.C,CHOKE1*%
X178468000Y-108469500D03*
D17*
X178468000Y-95969500D03*
X188468000Y-108469500D03*
X188468000Y-95969500D03*
%TD*%
D36*
%TO.C,REF\u002A\u002A*%
X203708000Y-140716000D03*
D37*
X203708000Y-140716000D03*
%TD*%
D21*
%TO.C,Q9*%
X131324200Y-52037400D03*
D22*
X136774200Y-52037400D03*
X142224200Y-52037400D03*
%TD*%
D42*
%TO.C,J2*%
X209753200Y-97198933D03*
D43*
X209753200Y-94698933D03*
X209753200Y-92198933D03*
X209753200Y-89698933D03*
X209753200Y-87198933D03*
X209753200Y-84698933D03*
%TD*%
D47*
%TO.C,C30*%
X83801200Y-132384800D03*
D24*
X85801200Y-132384800D03*
%TD*%
D36*
%TO.C,REF\u002A\u002A*%
X70104000Y-140716000D03*
D37*
X70104000Y-140716000D03*
%TD*%
D34*
%TO.C,Q4*%
X116586000Y-105664000D03*
D35*
X114046000Y-105664000D03*
X111506000Y-105664000D03*
%TD*%
D48*
%TO.C,L3*%
X172466000Y-86346000D03*
X172466000Y-65546000D03*
%TD*%
D21*
%TO.C,Q10*%
X149526400Y-52019200D03*
D22*
X154976400Y-52019200D03*
X160426400Y-52019200D03*
%TD*%
D47*
%TO.C,C37*%
X153451833Y-112115600D03*
D24*
X157251833Y-112115600D03*
%TD*%
D34*
%TO.C,Q5*%
X83312000Y-105664000D03*
D35*
X80772000Y-105664000D03*
X78232000Y-105664000D03*
%TD*%
M02*
