%TF.GenerationSoftware,KiCad,Pcbnew,(5.1.10-1-10_14)*%
%TF.CreationDate,2021-10-09T22:57:50-04:00*%
%TF.ProjectId,Hermes_Pico,4865726d-6573-45f5-9069-636f2e6b6963,rev?*%
%TF.SameCoordinates,Original*%
%TF.FileFunction,Soldermask,Top*%
%TF.FilePolarity,Negative*%
%FSLAX46Y46*%
G04 Gerber Fmt 4.6, Leading zero omitted, Abs format (unit mm)*
G04 Created by KiCad (PCBNEW (5.1.10-1-10_14)) date 2021-10-09 22:57:50*
%MOMM*%
%LPD*%
G01*
G04 APERTURE LIST*
%ADD10C,2.500000*%
%ADD11O,1.700000X1.700000*%
%ADD12R,1.700000X1.700000*%
%ADD13R,1.500000X0.800000*%
%ADD14R,2.000000X1.450000*%
%ADD15R,1.700000X3.500000*%
%ADD16O,1.500000X1.500000*%
%ADD17O,1.800000X1.800000*%
%ADD18R,3.500000X1.700000*%
G04 APERTURE END LIST*
%TO.C,R4*%
G36*
G01*
X240400000Y-73490000D02*
X240400000Y-73860000D01*
G75*
G02*
X240265000Y-73995000I-135000J0D01*
G01*
X239995000Y-73995000D01*
G75*
G02*
X239860000Y-73860000I0J135000D01*
G01*
X239860000Y-73490000D01*
G75*
G02*
X239995000Y-73355000I135000J0D01*
G01*
X240265000Y-73355000D01*
G75*
G02*
X240400000Y-73490000I0J-135000D01*
G01*
G37*
G36*
G01*
X241420000Y-73490000D02*
X241420000Y-73860000D01*
G75*
G02*
X241285000Y-73995000I-135000J0D01*
G01*
X241015000Y-73995000D01*
G75*
G02*
X240880000Y-73860000I0J135000D01*
G01*
X240880000Y-73490000D01*
G75*
G02*
X241015000Y-73355000I135000J0D01*
G01*
X241285000Y-73355000D01*
G75*
G02*
X241420000Y-73490000I0J-135000D01*
G01*
G37*
%TD*%
%TO.C,R3*%
G36*
G01*
X240940000Y-71185000D02*
X240940000Y-70815000D01*
G75*
G02*
X241075000Y-70680000I135000J0D01*
G01*
X241345000Y-70680000D01*
G75*
G02*
X241480000Y-70815000I0J-135000D01*
G01*
X241480000Y-71185000D01*
G75*
G02*
X241345000Y-71320000I-135000J0D01*
G01*
X241075000Y-71320000D01*
G75*
G02*
X240940000Y-71185000I0J135000D01*
G01*
G37*
G36*
G01*
X239920000Y-71185000D02*
X239920000Y-70815000D01*
G75*
G02*
X240055000Y-70680000I135000J0D01*
G01*
X240325000Y-70680000D01*
G75*
G02*
X240460000Y-70815000I0J-135000D01*
G01*
X240460000Y-71185000D01*
G75*
G02*
X240325000Y-71320000I-135000J0D01*
G01*
X240055000Y-71320000D01*
G75*
G02*
X239920000Y-71185000I0J135000D01*
G01*
G37*
%TD*%
%TO.C,R2*%
G36*
G01*
X251990000Y-78835000D02*
X251990000Y-78465000D01*
G75*
G02*
X252125000Y-78330000I135000J0D01*
G01*
X252395000Y-78330000D01*
G75*
G02*
X252530000Y-78465000I0J-135000D01*
G01*
X252530000Y-78835000D01*
G75*
G02*
X252395000Y-78970000I-135000J0D01*
G01*
X252125000Y-78970000D01*
G75*
G02*
X251990000Y-78835000I0J135000D01*
G01*
G37*
G36*
G01*
X250970000Y-78835000D02*
X250970000Y-78465000D01*
G75*
G02*
X251105000Y-78330000I135000J0D01*
G01*
X251375000Y-78330000D01*
G75*
G02*
X251510000Y-78465000I0J-135000D01*
G01*
X251510000Y-78835000D01*
G75*
G02*
X251375000Y-78970000I-135000J0D01*
G01*
X251105000Y-78970000D01*
G75*
G02*
X250970000Y-78835000I0J135000D01*
G01*
G37*
%TD*%
%TO.C,R1*%
G36*
G01*
X251560000Y-79840000D02*
X251560000Y-80210000D01*
G75*
G02*
X251425000Y-80345000I-135000J0D01*
G01*
X251155000Y-80345000D01*
G75*
G02*
X251020000Y-80210000I0J135000D01*
G01*
X251020000Y-79840000D01*
G75*
G02*
X251155000Y-79705000I135000J0D01*
G01*
X251425000Y-79705000D01*
G75*
G02*
X251560000Y-79840000I0J-135000D01*
G01*
G37*
G36*
G01*
X252580000Y-79840000D02*
X252580000Y-80210000D01*
G75*
G02*
X252445000Y-80345000I-135000J0D01*
G01*
X252175000Y-80345000D01*
G75*
G02*
X252040000Y-80210000I0J135000D01*
G01*
X252040000Y-79840000D01*
G75*
G02*
X252175000Y-79705000I135000J0D01*
G01*
X252445000Y-79705000D01*
G75*
G02*
X252580000Y-79840000I0J-135000D01*
G01*
G37*
%TD*%
D10*
%TO.C,H4*%
X219550000Y-118500000D03*
%TD*%
%TO.C,H3*%
X219550000Y-59500000D03*
%TD*%
%TO.C,H2*%
X266550000Y-118500000D03*
%TD*%
%TO.C,H1*%
X266500000Y-59450000D03*
%TD*%
D11*
%TO.C,J7*%
X223430000Y-110700000D03*
X220890000Y-110700000D03*
D12*
X218350000Y-110700000D03*
%TD*%
%TO.C,U3*%
G36*
G01*
X230300000Y-119050000D02*
X230300000Y-119300000D01*
G75*
G02*
X230175000Y-119425000I-125000J0D01*
G01*
X229225000Y-119425000D01*
G75*
G02*
X229100000Y-119300000I0J125000D01*
G01*
X229100000Y-119050000D01*
G75*
G02*
X229225000Y-118925000I125000J0D01*
G01*
X230175000Y-118925000D01*
G75*
G02*
X230300000Y-119050000I0J-125000D01*
G01*
G37*
G36*
G01*
X230300000Y-117800000D02*
X230300000Y-118050000D01*
G75*
G02*
X230175000Y-118175000I-125000J0D01*
G01*
X229225000Y-118175000D01*
G75*
G02*
X229100000Y-118050000I0J125000D01*
G01*
X229100000Y-117800000D01*
G75*
G02*
X229225000Y-117675000I125000J0D01*
G01*
X230175000Y-117675000D01*
G75*
G02*
X230300000Y-117800000I0J-125000D01*
G01*
G37*
G36*
G01*
X230300000Y-116550000D02*
X230300000Y-116800000D01*
G75*
G02*
X230175000Y-116925000I-125000J0D01*
G01*
X229225000Y-116925000D01*
G75*
G02*
X229100000Y-116800000I0J125000D01*
G01*
X229100000Y-116550000D01*
G75*
G02*
X229225000Y-116425000I125000J0D01*
G01*
X230175000Y-116425000D01*
G75*
G02*
X230300000Y-116550000I0J-125000D01*
G01*
G37*
G36*
G01*
X230300000Y-115300000D02*
X230300000Y-115550000D01*
G75*
G02*
X230175000Y-115675000I-125000J0D01*
G01*
X229225000Y-115675000D01*
G75*
G02*
X229100000Y-115550000I0J125000D01*
G01*
X229100000Y-115300000D01*
G75*
G02*
X229225000Y-115175000I125000J0D01*
G01*
X230175000Y-115175000D01*
G75*
G02*
X230300000Y-115300000I0J-125000D01*
G01*
G37*
G36*
G01*
X232600000Y-115300000D02*
X232600000Y-115550000D01*
G75*
G02*
X232475000Y-115675000I-125000J0D01*
G01*
X231525000Y-115675000D01*
G75*
G02*
X231400000Y-115550000I0J125000D01*
G01*
X231400000Y-115300000D01*
G75*
G02*
X231525000Y-115175000I125000J0D01*
G01*
X232475000Y-115175000D01*
G75*
G02*
X232600000Y-115300000I0J-125000D01*
G01*
G37*
G36*
G01*
X232600000Y-116550000D02*
X232600000Y-116800000D01*
G75*
G02*
X232475000Y-116925000I-125000J0D01*
G01*
X231525000Y-116925000D01*
G75*
G02*
X231400000Y-116800000I0J125000D01*
G01*
X231400000Y-116550000D01*
G75*
G02*
X231525000Y-116425000I125000J0D01*
G01*
X232475000Y-116425000D01*
G75*
G02*
X232600000Y-116550000I0J-125000D01*
G01*
G37*
G36*
G01*
X232600000Y-117800000D02*
X232600000Y-118050000D01*
G75*
G02*
X232475000Y-118175000I-125000J0D01*
G01*
X231525000Y-118175000D01*
G75*
G02*
X231400000Y-118050000I0J125000D01*
G01*
X231400000Y-117800000D01*
G75*
G02*
X231525000Y-117675000I125000J0D01*
G01*
X232475000Y-117675000D01*
G75*
G02*
X232600000Y-117800000I0J-125000D01*
G01*
G37*
G36*
G01*
X232600000Y-119050000D02*
X232600000Y-119300000D01*
G75*
G02*
X232475000Y-119425000I-125000J0D01*
G01*
X231525000Y-119425000D01*
G75*
G02*
X231400000Y-119300000I0J125000D01*
G01*
X231400000Y-119050000D01*
G75*
G02*
X231525000Y-118925000I125000J0D01*
G01*
X232475000Y-118925000D01*
G75*
G02*
X232600000Y-119050000I0J-125000D01*
G01*
G37*
%TD*%
%TO.C,U2*%
G36*
G01*
X241975000Y-115925000D02*
X241975000Y-115775000D01*
G75*
G02*
X242050000Y-115700000I75000J0D01*
G01*
X242750000Y-115700000D01*
G75*
G02*
X242825000Y-115775000I0J-75000D01*
G01*
X242825000Y-115925000D01*
G75*
G02*
X242750000Y-116000000I-75000J0D01*
G01*
X242050000Y-116000000D01*
G75*
G02*
X241975000Y-115925000I0J75000D01*
G01*
G37*
G36*
G01*
X241975000Y-116425000D02*
X241975000Y-116275000D01*
G75*
G02*
X242050000Y-116200000I75000J0D01*
G01*
X242750000Y-116200000D01*
G75*
G02*
X242825000Y-116275000I0J-75000D01*
G01*
X242825000Y-116425000D01*
G75*
G02*
X242750000Y-116500000I-75000J0D01*
G01*
X242050000Y-116500000D01*
G75*
G02*
X241975000Y-116425000I0J75000D01*
G01*
G37*
G36*
G01*
X241975000Y-116925000D02*
X241975000Y-116775000D01*
G75*
G02*
X242050000Y-116700000I75000J0D01*
G01*
X242750000Y-116700000D01*
G75*
G02*
X242825000Y-116775000I0J-75000D01*
G01*
X242825000Y-116925000D01*
G75*
G02*
X242750000Y-117000000I-75000J0D01*
G01*
X242050000Y-117000000D01*
G75*
G02*
X241975000Y-116925000I0J75000D01*
G01*
G37*
G36*
G01*
X241975000Y-117425000D02*
X241975000Y-117275000D01*
G75*
G02*
X242050000Y-117200000I75000J0D01*
G01*
X242750000Y-117200000D01*
G75*
G02*
X242825000Y-117275000I0J-75000D01*
G01*
X242825000Y-117425000D01*
G75*
G02*
X242750000Y-117500000I-75000J0D01*
G01*
X242050000Y-117500000D01*
G75*
G02*
X241975000Y-117425000I0J75000D01*
G01*
G37*
G36*
G01*
X241975000Y-117925000D02*
X241975000Y-117775000D01*
G75*
G02*
X242050000Y-117700000I75000J0D01*
G01*
X242750000Y-117700000D01*
G75*
G02*
X242825000Y-117775000I0J-75000D01*
G01*
X242825000Y-117925000D01*
G75*
G02*
X242750000Y-118000000I-75000J0D01*
G01*
X242050000Y-118000000D01*
G75*
G02*
X241975000Y-117925000I0J75000D01*
G01*
G37*
G36*
G01*
X241975000Y-118425000D02*
X241975000Y-118275000D01*
G75*
G02*
X242050000Y-118200000I75000J0D01*
G01*
X242750000Y-118200000D01*
G75*
G02*
X242825000Y-118275000I0J-75000D01*
G01*
X242825000Y-118425000D01*
G75*
G02*
X242750000Y-118500000I-75000J0D01*
G01*
X242050000Y-118500000D01*
G75*
G02*
X241975000Y-118425000I0J75000D01*
G01*
G37*
G36*
G01*
X241625000Y-118625000D02*
X241775000Y-118625000D01*
G75*
G02*
X241850000Y-118700000I0J-75000D01*
G01*
X241850000Y-119400000D01*
G75*
G02*
X241775000Y-119475000I-75000J0D01*
G01*
X241625000Y-119475000D01*
G75*
G02*
X241550000Y-119400000I0J75000D01*
G01*
X241550000Y-118700000D01*
G75*
G02*
X241625000Y-118625000I75000J0D01*
G01*
G37*
G36*
G01*
X241125000Y-118625000D02*
X241275000Y-118625000D01*
G75*
G02*
X241350000Y-118700000I0J-75000D01*
G01*
X241350000Y-119400000D01*
G75*
G02*
X241275000Y-119475000I-75000J0D01*
G01*
X241125000Y-119475000D01*
G75*
G02*
X241050000Y-119400000I0J75000D01*
G01*
X241050000Y-118700000D01*
G75*
G02*
X241125000Y-118625000I75000J0D01*
G01*
G37*
G36*
G01*
X240625000Y-118625000D02*
X240775000Y-118625000D01*
G75*
G02*
X240850000Y-118700000I0J-75000D01*
G01*
X240850000Y-119400000D01*
G75*
G02*
X240775000Y-119475000I-75000J0D01*
G01*
X240625000Y-119475000D01*
G75*
G02*
X240550000Y-119400000I0J75000D01*
G01*
X240550000Y-118700000D01*
G75*
G02*
X240625000Y-118625000I75000J0D01*
G01*
G37*
G36*
G01*
X240125000Y-118625000D02*
X240275000Y-118625000D01*
G75*
G02*
X240350000Y-118700000I0J-75000D01*
G01*
X240350000Y-119400000D01*
G75*
G02*
X240275000Y-119475000I-75000J0D01*
G01*
X240125000Y-119475000D01*
G75*
G02*
X240050000Y-119400000I0J75000D01*
G01*
X240050000Y-118700000D01*
G75*
G02*
X240125000Y-118625000I75000J0D01*
G01*
G37*
G36*
G01*
X239625000Y-118625000D02*
X239775000Y-118625000D01*
G75*
G02*
X239850000Y-118700000I0J-75000D01*
G01*
X239850000Y-119400000D01*
G75*
G02*
X239775000Y-119475000I-75000J0D01*
G01*
X239625000Y-119475000D01*
G75*
G02*
X239550000Y-119400000I0J75000D01*
G01*
X239550000Y-118700000D01*
G75*
G02*
X239625000Y-118625000I75000J0D01*
G01*
G37*
G36*
G01*
X239125000Y-118625000D02*
X239275000Y-118625000D01*
G75*
G02*
X239350000Y-118700000I0J-75000D01*
G01*
X239350000Y-119400000D01*
G75*
G02*
X239275000Y-119475000I-75000J0D01*
G01*
X239125000Y-119475000D01*
G75*
G02*
X239050000Y-119400000I0J75000D01*
G01*
X239050000Y-118700000D01*
G75*
G02*
X239125000Y-118625000I75000J0D01*
G01*
G37*
G36*
G01*
X238075000Y-118425000D02*
X238075000Y-118275000D01*
G75*
G02*
X238150000Y-118200000I75000J0D01*
G01*
X238850000Y-118200000D01*
G75*
G02*
X238925000Y-118275000I0J-75000D01*
G01*
X238925000Y-118425000D01*
G75*
G02*
X238850000Y-118500000I-75000J0D01*
G01*
X238150000Y-118500000D01*
G75*
G02*
X238075000Y-118425000I0J75000D01*
G01*
G37*
G36*
G01*
X238075000Y-117925000D02*
X238075000Y-117775000D01*
G75*
G02*
X238150000Y-117700000I75000J0D01*
G01*
X238850000Y-117700000D01*
G75*
G02*
X238925000Y-117775000I0J-75000D01*
G01*
X238925000Y-117925000D01*
G75*
G02*
X238850000Y-118000000I-75000J0D01*
G01*
X238150000Y-118000000D01*
G75*
G02*
X238075000Y-117925000I0J75000D01*
G01*
G37*
G36*
G01*
X238075000Y-117425000D02*
X238075000Y-117275000D01*
G75*
G02*
X238150000Y-117200000I75000J0D01*
G01*
X238850000Y-117200000D01*
G75*
G02*
X238925000Y-117275000I0J-75000D01*
G01*
X238925000Y-117425000D01*
G75*
G02*
X238850000Y-117500000I-75000J0D01*
G01*
X238150000Y-117500000D01*
G75*
G02*
X238075000Y-117425000I0J75000D01*
G01*
G37*
G36*
G01*
X238075000Y-116925000D02*
X238075000Y-116775000D01*
G75*
G02*
X238150000Y-116700000I75000J0D01*
G01*
X238850000Y-116700000D01*
G75*
G02*
X238925000Y-116775000I0J-75000D01*
G01*
X238925000Y-116925000D01*
G75*
G02*
X238850000Y-117000000I-75000J0D01*
G01*
X238150000Y-117000000D01*
G75*
G02*
X238075000Y-116925000I0J75000D01*
G01*
G37*
G36*
G01*
X238075000Y-116425000D02*
X238075000Y-116275000D01*
G75*
G02*
X238150000Y-116200000I75000J0D01*
G01*
X238850000Y-116200000D01*
G75*
G02*
X238925000Y-116275000I0J-75000D01*
G01*
X238925000Y-116425000D01*
G75*
G02*
X238850000Y-116500000I-75000J0D01*
G01*
X238150000Y-116500000D01*
G75*
G02*
X238075000Y-116425000I0J75000D01*
G01*
G37*
G36*
G01*
X238075000Y-115925000D02*
X238075000Y-115775000D01*
G75*
G02*
X238150000Y-115700000I75000J0D01*
G01*
X238850000Y-115700000D01*
G75*
G02*
X238925000Y-115775000I0J-75000D01*
G01*
X238925000Y-115925000D01*
G75*
G02*
X238850000Y-116000000I-75000J0D01*
G01*
X238150000Y-116000000D01*
G75*
G02*
X238075000Y-115925000I0J75000D01*
G01*
G37*
G36*
G01*
X239125000Y-114725000D02*
X239275000Y-114725000D01*
G75*
G02*
X239350000Y-114800000I0J-75000D01*
G01*
X239350000Y-115500000D01*
G75*
G02*
X239275000Y-115575000I-75000J0D01*
G01*
X239125000Y-115575000D01*
G75*
G02*
X239050000Y-115500000I0J75000D01*
G01*
X239050000Y-114800000D01*
G75*
G02*
X239125000Y-114725000I75000J0D01*
G01*
G37*
G36*
G01*
X239625000Y-114725000D02*
X239775000Y-114725000D01*
G75*
G02*
X239850000Y-114800000I0J-75000D01*
G01*
X239850000Y-115500000D01*
G75*
G02*
X239775000Y-115575000I-75000J0D01*
G01*
X239625000Y-115575000D01*
G75*
G02*
X239550000Y-115500000I0J75000D01*
G01*
X239550000Y-114800000D01*
G75*
G02*
X239625000Y-114725000I75000J0D01*
G01*
G37*
G36*
G01*
X240125000Y-114725000D02*
X240275000Y-114725000D01*
G75*
G02*
X240350000Y-114800000I0J-75000D01*
G01*
X240350000Y-115500000D01*
G75*
G02*
X240275000Y-115575000I-75000J0D01*
G01*
X240125000Y-115575000D01*
G75*
G02*
X240050000Y-115500000I0J75000D01*
G01*
X240050000Y-114800000D01*
G75*
G02*
X240125000Y-114725000I75000J0D01*
G01*
G37*
G36*
G01*
X240625000Y-114725000D02*
X240775000Y-114725000D01*
G75*
G02*
X240850000Y-114800000I0J-75000D01*
G01*
X240850000Y-115500000D01*
G75*
G02*
X240775000Y-115575000I-75000J0D01*
G01*
X240625000Y-115575000D01*
G75*
G02*
X240550000Y-115500000I0J75000D01*
G01*
X240550000Y-114800000D01*
G75*
G02*
X240625000Y-114725000I75000J0D01*
G01*
G37*
G36*
G01*
X241125000Y-114725000D02*
X241275000Y-114725000D01*
G75*
G02*
X241350000Y-114800000I0J-75000D01*
G01*
X241350000Y-115500000D01*
G75*
G02*
X241275000Y-115575000I-75000J0D01*
G01*
X241125000Y-115575000D01*
G75*
G02*
X241050000Y-115500000I0J75000D01*
G01*
X241050000Y-114800000D01*
G75*
G02*
X241125000Y-114725000I75000J0D01*
G01*
G37*
G36*
G01*
X241625000Y-114725000D02*
X241775000Y-114725000D01*
G75*
G02*
X241850000Y-114800000I0J-75000D01*
G01*
X241850000Y-115500000D01*
G75*
G02*
X241775000Y-115575000I-75000J0D01*
G01*
X241625000Y-115575000D01*
G75*
G02*
X241550000Y-115500000I0J75000D01*
G01*
X241550000Y-114800000D01*
G75*
G02*
X241625000Y-114725000I75000J0D01*
G01*
G37*
%TD*%
D11*
%TO.C,J6*%
X218320000Y-107100000D03*
X220860000Y-107100000D03*
D12*
X223400000Y-107100000D03*
%TD*%
D11*
%TO.C,J5*%
X218320000Y-82150000D03*
X220860000Y-82150000D03*
D12*
X223400000Y-82150000D03*
%TD*%
%TO.C,C7*%
G36*
G01*
X233975000Y-115570000D02*
X233975000Y-115230000D01*
G75*
G02*
X234115000Y-115090000I140000J0D01*
G01*
X234395000Y-115090000D01*
G75*
G02*
X234535000Y-115230000I0J-140000D01*
G01*
X234535000Y-115570000D01*
G75*
G02*
X234395000Y-115710000I-140000J0D01*
G01*
X234115000Y-115710000D01*
G75*
G02*
X233975000Y-115570000I0J140000D01*
G01*
G37*
G36*
G01*
X233015000Y-115570000D02*
X233015000Y-115230000D01*
G75*
G02*
X233155000Y-115090000I140000J0D01*
G01*
X233435000Y-115090000D01*
G75*
G02*
X233575000Y-115230000I0J-140000D01*
G01*
X233575000Y-115570000D01*
G75*
G02*
X233435000Y-115710000I-140000J0D01*
G01*
X233155000Y-115710000D01*
G75*
G02*
X233015000Y-115570000I0J140000D01*
G01*
G37*
%TD*%
%TO.C,C6*%
G36*
G01*
X233545000Y-119450000D02*
X233205000Y-119450000D01*
G75*
G02*
X233065000Y-119310000I0J140000D01*
G01*
X233065000Y-119030000D01*
G75*
G02*
X233205000Y-118890000I140000J0D01*
G01*
X233545000Y-118890000D01*
G75*
G02*
X233685000Y-119030000I0J-140000D01*
G01*
X233685000Y-119310000D01*
G75*
G02*
X233545000Y-119450000I-140000J0D01*
G01*
G37*
G36*
G01*
X233545000Y-120410000D02*
X233205000Y-120410000D01*
G75*
G02*
X233065000Y-120270000I0J140000D01*
G01*
X233065000Y-119990000D01*
G75*
G02*
X233205000Y-119850000I140000J0D01*
G01*
X233545000Y-119850000D01*
G75*
G02*
X233685000Y-119990000I0J-140000D01*
G01*
X233685000Y-120270000D01*
G75*
G02*
X233545000Y-120410000I-140000J0D01*
G01*
G37*
%TD*%
%TO.C,C5*%
G36*
G01*
X234075000Y-118270000D02*
X234075000Y-117930000D01*
G75*
G02*
X234215000Y-117790000I140000J0D01*
G01*
X234495000Y-117790000D01*
G75*
G02*
X234635000Y-117930000I0J-140000D01*
G01*
X234635000Y-118270000D01*
G75*
G02*
X234495000Y-118410000I-140000J0D01*
G01*
X234215000Y-118410000D01*
G75*
G02*
X234075000Y-118270000I0J140000D01*
G01*
G37*
G36*
G01*
X233115000Y-118270000D02*
X233115000Y-117930000D01*
G75*
G02*
X233255000Y-117790000I140000J0D01*
G01*
X233535000Y-117790000D01*
G75*
G02*
X233675000Y-117930000I0J-140000D01*
G01*
X233675000Y-118270000D01*
G75*
G02*
X233535000Y-118410000I-140000J0D01*
G01*
X233255000Y-118410000D01*
G75*
G02*
X233115000Y-118270000I0J140000D01*
G01*
G37*
%TD*%
%TO.C,C4*%
G36*
G01*
X243795000Y-118250000D02*
X243455000Y-118250000D01*
G75*
G02*
X243315000Y-118110000I0J140000D01*
G01*
X243315000Y-117830000D01*
G75*
G02*
X243455000Y-117690000I140000J0D01*
G01*
X243795000Y-117690000D01*
G75*
G02*
X243935000Y-117830000I0J-140000D01*
G01*
X243935000Y-118110000D01*
G75*
G02*
X243795000Y-118250000I-140000J0D01*
G01*
G37*
G36*
G01*
X243795000Y-119210000D02*
X243455000Y-119210000D01*
G75*
G02*
X243315000Y-119070000I0J140000D01*
G01*
X243315000Y-118790000D01*
G75*
G02*
X243455000Y-118650000I140000J0D01*
G01*
X243795000Y-118650000D01*
G75*
G02*
X243935000Y-118790000I0J-140000D01*
G01*
X243935000Y-119070000D01*
G75*
G02*
X243795000Y-119210000I-140000J0D01*
G01*
G37*
%TD*%
%TO.C,C3*%
G36*
G01*
X237445000Y-117700000D02*
X237105000Y-117700000D01*
G75*
G02*
X236965000Y-117560000I0J140000D01*
G01*
X236965000Y-117280000D01*
G75*
G02*
X237105000Y-117140000I140000J0D01*
G01*
X237445000Y-117140000D01*
G75*
G02*
X237585000Y-117280000I0J-140000D01*
G01*
X237585000Y-117560000D01*
G75*
G02*
X237445000Y-117700000I-140000J0D01*
G01*
G37*
G36*
G01*
X237445000Y-118660000D02*
X237105000Y-118660000D01*
G75*
G02*
X236965000Y-118520000I0J140000D01*
G01*
X236965000Y-118240000D01*
G75*
G02*
X237105000Y-118100000I140000J0D01*
G01*
X237445000Y-118100000D01*
G75*
G02*
X237585000Y-118240000I0J-140000D01*
G01*
X237585000Y-118520000D01*
G75*
G02*
X237445000Y-118660000I-140000J0D01*
G01*
G37*
%TD*%
%TO.C,C2*%
G36*
G01*
X238300000Y-120105000D02*
X238300000Y-120445000D01*
G75*
G02*
X238160000Y-120585000I-140000J0D01*
G01*
X237880000Y-120585000D01*
G75*
G02*
X237740000Y-120445000I0J140000D01*
G01*
X237740000Y-120105000D01*
G75*
G02*
X237880000Y-119965000I140000J0D01*
G01*
X238160000Y-119965000D01*
G75*
G02*
X238300000Y-120105000I0J-140000D01*
G01*
G37*
G36*
G01*
X239260000Y-120105000D02*
X239260000Y-120445000D01*
G75*
G02*
X239120000Y-120585000I-140000J0D01*
G01*
X238840000Y-120585000D01*
G75*
G02*
X238700000Y-120445000I0J140000D01*
G01*
X238700000Y-120105000D01*
G75*
G02*
X238840000Y-119965000I140000J0D01*
G01*
X239120000Y-119965000D01*
G75*
G02*
X239260000Y-120105000I0J-140000D01*
G01*
G37*
%TD*%
%TO.C,C1*%
G36*
G01*
X237105000Y-116100000D02*
X237445000Y-116100000D01*
G75*
G02*
X237585000Y-116240000I0J-140000D01*
G01*
X237585000Y-116520000D01*
G75*
G02*
X237445000Y-116660000I-140000J0D01*
G01*
X237105000Y-116660000D01*
G75*
G02*
X236965000Y-116520000I0J140000D01*
G01*
X236965000Y-116240000D01*
G75*
G02*
X237105000Y-116100000I140000J0D01*
G01*
G37*
G36*
G01*
X237105000Y-115140000D02*
X237445000Y-115140000D01*
G75*
G02*
X237585000Y-115280000I0J-140000D01*
G01*
X237585000Y-115560000D01*
G75*
G02*
X237445000Y-115700000I-140000J0D01*
G01*
X237105000Y-115700000D01*
G75*
G02*
X236965000Y-115560000I0J140000D01*
G01*
X236965000Y-115280000D01*
G75*
G02*
X237105000Y-115140000I140000J0D01*
G01*
G37*
%TD*%
D13*
%TO.C,J4*%
X221200000Y-75400000D03*
X221200000Y-74300000D03*
X221200000Y-73200000D03*
X221200000Y-72100000D03*
X221200000Y-71000000D03*
X221200000Y-69900000D03*
X221200000Y-68800000D03*
X221200000Y-67700000D03*
D14*
X226900000Y-65325000D03*
X226900000Y-79075000D03*
X218600000Y-79075000D03*
X218600000Y-65325000D03*
%TD*%
D11*
%TO.C,J3*%
X218360000Y-85720000D03*
X220900000Y-85720000D03*
X218360000Y-88260000D03*
X220900000Y-88260000D03*
X218360000Y-90800000D03*
X220900000Y-90800000D03*
X218360000Y-93340000D03*
X220900000Y-93340000D03*
X218360000Y-95880000D03*
X220900000Y-95880000D03*
X218360000Y-98420000D03*
X220900000Y-98420000D03*
X218360000Y-100960000D03*
X220900000Y-100960000D03*
X218360000Y-103500000D03*
D12*
X220900000Y-103500000D03*
%TD*%
D11*
%TO.C,J2*%
X267540000Y-113260000D03*
X265000000Y-113260000D03*
X267540000Y-110720000D03*
X265000000Y-110720000D03*
X267540000Y-108180000D03*
X265000000Y-108180000D03*
X267540000Y-105640000D03*
X265000000Y-105640000D03*
X267540000Y-103100000D03*
X265000000Y-103100000D03*
X267540000Y-100560000D03*
X265000000Y-100560000D03*
X267540000Y-98020000D03*
X265000000Y-98020000D03*
X267540000Y-95480000D03*
X265000000Y-95480000D03*
X267540000Y-92940000D03*
X265000000Y-92940000D03*
X267540000Y-90400000D03*
X265000000Y-90400000D03*
X267540000Y-87860000D03*
X265000000Y-87860000D03*
X267540000Y-85320000D03*
X265000000Y-85320000D03*
X267540000Y-82780000D03*
X265000000Y-82780000D03*
X267540000Y-80240000D03*
X265000000Y-80240000D03*
X267540000Y-77700000D03*
X265000000Y-77700000D03*
X267540000Y-75160000D03*
X265000000Y-75160000D03*
X267540000Y-72620000D03*
X265000000Y-72620000D03*
X267540000Y-70080000D03*
X265000000Y-70080000D03*
X267540000Y-67540000D03*
X265000000Y-67540000D03*
X267540000Y-65000000D03*
D12*
X265000000Y-65000000D03*
%TD*%
D11*
%TO.C,J1*%
X223450000Y-85720000D03*
X223450000Y-88260000D03*
X223450000Y-90800000D03*
X223450000Y-93340000D03*
X223450000Y-95880000D03*
X223450000Y-98420000D03*
X223450000Y-100960000D03*
D12*
X223450000Y-103500000D03*
%TD*%
D11*
%TO.C,U1*%
X248040000Y-106350000D03*
D15*
X248040000Y-107250000D03*
D12*
X245500000Y-106350000D03*
D15*
X245500000Y-107250000D03*
D11*
X242960000Y-106350000D03*
D15*
X242960000Y-107250000D03*
D16*
X247925000Y-61480000D03*
X243075000Y-61480000D03*
D17*
X248225000Y-58450000D03*
X242775000Y-58450000D03*
D18*
X255290000Y-106580000D03*
X255290000Y-104040000D03*
X255290000Y-101500000D03*
X255290000Y-98960000D03*
X255290000Y-96420000D03*
X255290000Y-93880000D03*
X255290000Y-91340000D03*
X255290000Y-88800000D03*
X255290000Y-86260000D03*
X255290000Y-83720000D03*
X255290000Y-81180000D03*
X255290000Y-78640000D03*
X255290000Y-76100000D03*
X255290000Y-73560000D03*
X255290000Y-71020000D03*
X255290000Y-68480000D03*
X255290000Y-65940000D03*
X255290000Y-63400000D03*
X255290000Y-60860000D03*
X255290000Y-58320000D03*
X235710000Y-106580000D03*
X235710000Y-104040000D03*
X235710000Y-101500000D03*
X235710000Y-98960000D03*
X235710000Y-96420000D03*
X235710000Y-93880000D03*
X235710000Y-91340000D03*
X235710000Y-88800000D03*
X235710000Y-86260000D03*
X235710000Y-83720000D03*
X235710000Y-81180000D03*
X235710000Y-78640000D03*
X235710000Y-76100000D03*
X235710000Y-73560000D03*
X235710000Y-71020000D03*
X235710000Y-68480000D03*
X235710000Y-65940000D03*
X235710000Y-63400000D03*
X235710000Y-60860000D03*
X235710000Y-58320000D03*
D11*
X254390000Y-58320000D03*
X254390000Y-60860000D03*
D12*
X254390000Y-63400000D03*
D11*
X254390000Y-65940000D03*
X254390000Y-68480000D03*
X254390000Y-71020000D03*
X254390000Y-73560000D03*
D12*
X254390000Y-76100000D03*
D11*
X254390000Y-78640000D03*
X254390000Y-81180000D03*
X254390000Y-83720000D03*
X254390000Y-86260000D03*
D12*
X254390000Y-88800000D03*
D11*
X254390000Y-91340000D03*
X254390000Y-93880000D03*
X254390000Y-96420000D03*
X254390000Y-98960000D03*
D12*
X254390000Y-101500000D03*
D11*
X254390000Y-104040000D03*
X254390000Y-106580000D03*
X236610000Y-106580000D03*
X236610000Y-104040000D03*
D12*
X236610000Y-101500000D03*
D11*
X236610000Y-98960000D03*
X236610000Y-96420000D03*
X236610000Y-93880000D03*
X236610000Y-91340000D03*
D12*
X236610000Y-88800000D03*
D11*
X236610000Y-86260000D03*
X236610000Y-83720000D03*
X236610000Y-81180000D03*
X236610000Y-78640000D03*
D12*
X236610000Y-76100000D03*
D11*
X236610000Y-73560000D03*
X236610000Y-71020000D03*
X236610000Y-68480000D03*
X236610000Y-65940000D03*
D12*
X236610000Y-63400000D03*
D11*
X236610000Y-60860000D03*
X236610000Y-58320000D03*
%TD*%
M02*
