M48
; DRILL file {KiCad (5.1.10-1-10_14)} date Saturday, October 09, 2021 at 11:00:13 PM
; FORMAT={-:-/ absolute / inch / decimal}
; #@! TF.CreationDate,2021-10-09T23:00:13-04:00
; #@! TF.GenerationSoftware,Kicad,Pcbnew,(5.1.10-1-10_14)
; #@! TF.FileFunction,Plated,1,2,PTH
FMAT,2
INCH
T1C0.0157
T2C0.0394
T3C0.0402
%
G90
G05
T1
X8.6772Y-3.1122
X8.6791Y-2.5728
X8.7756Y-2.752
X8.8583Y-3.1122
X8.8602Y-2.5709
X8.9705Y-4.4833
X8.9724Y-4.6417
X8.9724Y-4.6811
X9.1909Y-4.6112
X9.2323Y-4.7195
X9.2648Y-4.5433
X9.3415Y-4.5089
X9.3425Y-4.6939
X9.378Y-2.9006
X9.4065Y-2.7953
X9.5157Y-4.4852
X9.5344Y-2.7923
X9.5344Y-2.8799
X9.5915Y-4.7175
X9.6132Y-4.4734
X9.6447Y-4.3996
X9.6619Y-4.435
X9.8907Y-2.8051
X9.8907Y-2.8888
X9.9311Y-3.06
X10.1575Y-4.0965
X10.1594Y-4.1929
X10.3268Y-3.0276
X10.3583Y-3.0551
T2
X8.5953Y-3.2343
X8.5953Y-4.2165
X8.5965Y-4.3583
X8.5969Y-3.3748
X8.5969Y-3.4748
X8.5969Y-3.5748
X8.5969Y-3.6748
X8.5969Y-3.7748
X8.5969Y-3.8748
X8.5969Y-3.9748
X8.5969Y-4.0748
X8.6953Y-3.2343
X8.6953Y-4.2165
X8.6965Y-4.3583
X8.6969Y-3.3748
X8.6969Y-3.4748
X8.6969Y-3.5748
X8.6969Y-3.6748
X8.6969Y-3.7748
X8.6969Y-3.8748
X8.6969Y-3.9748
X8.6969Y-4.0748
X8.7953Y-3.2343
X8.7953Y-4.2165
X8.7965Y-4.3583
X8.7972Y-3.3748
X8.7972Y-3.4748
X8.7972Y-3.5748
X8.7972Y-3.6748
X8.7972Y-3.7748
X8.7972Y-3.8748
X8.7972Y-3.9748
X8.7972Y-4.0748
X10.4331Y-2.5591
X10.4331Y-2.6591
X10.4331Y-2.7591
X10.4331Y-2.8591
X10.4331Y-2.9591
X10.4331Y-3.0591
X10.4331Y-3.1591
X10.4331Y-3.2591
X10.4331Y-3.3591
X10.4331Y-3.4591
X10.4331Y-3.5591
X10.4331Y-3.6591
X10.4331Y-3.7591
X10.4331Y-3.8591
X10.4331Y-3.9591
X10.4331Y-4.0591
X10.4331Y-4.1591
X10.4331Y-4.2591
X10.4331Y-4.3591
X10.4331Y-4.4591
X10.5331Y-2.5591
X10.5331Y-2.6591
X10.5331Y-2.7591
X10.5331Y-2.8591
X10.5331Y-2.9591
X10.5331Y-3.0591
X10.5331Y-3.1591
X10.5331Y-3.2591
X10.5331Y-3.3591
X10.5331Y-3.4591
X10.5331Y-3.5591
X10.5331Y-3.6591
X10.5331Y-3.7591
X10.5331Y-3.8591
X10.5331Y-3.9591
X10.5331Y-4.0591
X10.5331Y-4.1591
X10.5331Y-4.2591
X10.5331Y-4.3591
X10.5331Y-4.4591
T3
X9.3154Y-2.2961
X9.3154Y-2.3961
X9.3154Y-2.4961
X9.3154Y-2.5961
X9.3154Y-2.6961
X9.3154Y-2.7961
X9.3154Y-2.8961
X9.3154Y-2.9961
X9.3154Y-3.0961
X9.3154Y-3.1961
X9.3154Y-3.2961
X9.3154Y-3.3961
X9.3154Y-3.4961
X9.3154Y-3.5961
X9.3154Y-3.6961
X9.3154Y-3.7961
X9.3154Y-3.8961
X9.3154Y-3.9961
X9.3154Y-4.0961
X9.3154Y-4.1961
X9.5654Y-4.187
X9.6654Y-4.187
X9.7654Y-4.187
X10.0154Y-2.2961
X10.0154Y-2.3961
X10.0154Y-2.4961
X10.0154Y-2.5961
X10.0154Y-2.6961
X10.0154Y-2.7961
X10.0154Y-2.8961
X10.0154Y-2.9961
X10.0154Y-3.0961
X10.0154Y-3.1961
X10.0154Y-3.2961
X10.0154Y-3.3961
X10.0154Y-3.4961
X10.0154Y-3.5961
X10.0154Y-3.6961
X10.0154Y-3.7961
X10.0154Y-3.8961
X10.0154Y-3.9961
X10.0154Y-4.0961
X10.0154Y-4.1961
T0
M30
