%TF.GenerationSoftware,KiCad,Pcbnew,(5.1.10-1-10_14)*%
%TF.CreationDate,2021-10-09T22:57:50-04:00*%
%TF.ProjectId,Hermes_Pico,4865726d-6573-45f5-9069-636f2e6b6963,rev?*%
%TF.SameCoordinates,Original*%
%TF.FileFunction,Legend,Top*%
%TF.FilePolarity,Positive*%
%FSLAX46Y46*%
G04 Gerber Fmt 4.6, Leading zero omitted, Abs format (unit mm)*
G04 Created by KiCad (PCBNEW (5.1.10-1-10_14)) date 2021-10-09 22:57:50*
%MOMM*%
%LPD*%
G01*
G04 APERTURE LIST*
%ADD10C,0.150000*%
%ADD11C,0.120000*%
%ADD12C,0.010000*%
G04 APERTURE END LIST*
D10*
X252984523Y-120602380D02*
X252984523Y-119935714D01*
X252984523Y-120126190D02*
X253032142Y-120030952D01*
X253079761Y-119983333D01*
X253175000Y-119935714D01*
X253270238Y-119935714D01*
X254032142Y-120602380D02*
X254032142Y-120078571D01*
X253984523Y-119983333D01*
X253889285Y-119935714D01*
X253698809Y-119935714D01*
X253603571Y-119983333D01*
X254032142Y-120554761D02*
X253936904Y-120602380D01*
X253698809Y-120602380D01*
X253603571Y-120554761D01*
X253555952Y-120459523D01*
X253555952Y-120364285D01*
X253603571Y-120269047D01*
X253698809Y-120221428D01*
X253936904Y-120221428D01*
X254032142Y-120173809D01*
X254413095Y-119935714D02*
X254651190Y-120602380D01*
X254889285Y-119935714D02*
X254651190Y-120602380D01*
X254555952Y-120840476D01*
X254508333Y-120888095D01*
X254413095Y-120935714D01*
X255270238Y-120602380D02*
X255270238Y-119602380D01*
X255270238Y-119983333D02*
X255365476Y-119935714D01*
X255555952Y-119935714D01*
X255651190Y-119983333D01*
X255698809Y-120030952D01*
X255746428Y-120126190D01*
X255746428Y-120411904D01*
X255698809Y-120507142D01*
X255651190Y-120554761D01*
X255555952Y-120602380D01*
X255365476Y-120602380D01*
X255270238Y-120554761D01*
X256175000Y-120507142D02*
X256222619Y-120554761D01*
X256175000Y-120602380D01*
X256127380Y-120554761D01*
X256175000Y-120507142D01*
X256175000Y-120602380D01*
X256508333Y-119935714D02*
X256889285Y-119935714D01*
X256651190Y-119602380D02*
X256651190Y-120459523D01*
X256698809Y-120554761D01*
X256794047Y-120602380D01*
X256889285Y-120602380D01*
X257603571Y-120554761D02*
X257508333Y-120602380D01*
X257317857Y-120602380D01*
X257222619Y-120554761D01*
X257175000Y-120459523D01*
X257175000Y-120078571D01*
X257222619Y-119983333D01*
X257317857Y-119935714D01*
X257508333Y-119935714D01*
X257603571Y-119983333D01*
X257651190Y-120078571D01*
X257651190Y-120173809D01*
X257175000Y-120269047D01*
X258508333Y-120554761D02*
X258413095Y-120602380D01*
X258222619Y-120602380D01*
X258127380Y-120554761D01*
X258079761Y-120507142D01*
X258032142Y-120411904D01*
X258032142Y-120126190D01*
X258079761Y-120030952D01*
X258127380Y-119983333D01*
X258222619Y-119935714D01*
X258413095Y-119935714D01*
X258508333Y-119983333D01*
X258936904Y-120602380D02*
X258936904Y-119602380D01*
X259365476Y-120602380D02*
X259365476Y-120078571D01*
X259317857Y-119983333D01*
X259222619Y-119935714D01*
X259079761Y-119935714D01*
X258984523Y-119983333D01*
X258936904Y-120030952D01*
X250525000Y-117051190D02*
X250525000Y-117527380D01*
X250191666Y-116527380D02*
X250525000Y-117051190D01*
X250858333Y-116527380D01*
D11*
X249326469Y-117075000D02*
G75*
G03*
X249326469Y-117075000I-851469J0D01*
G01*
X250225000Y-117075000D02*
X248475000Y-117075000D01*
X250225000Y-117075000D02*
X249875000Y-116825000D01*
X250225000Y-117075000D02*
X249875000Y-117325000D01*
D10*
X251089285Y-111777380D02*
X251089285Y-110777380D01*
X251089285Y-111253571D02*
X251660714Y-111253571D01*
X251660714Y-111777380D02*
X251660714Y-110777380D01*
X252136904Y-111253571D02*
X252470238Y-111253571D01*
X252613095Y-111777380D02*
X252136904Y-111777380D01*
X252136904Y-110777380D01*
X252613095Y-110777380D01*
X253613095Y-111777380D02*
X253279761Y-111301190D01*
X253041666Y-111777380D02*
X253041666Y-110777380D01*
X253422619Y-110777380D01*
X253517857Y-110825000D01*
X253565476Y-110872619D01*
X253613095Y-110967857D01*
X253613095Y-111110714D01*
X253565476Y-111205952D01*
X253517857Y-111253571D01*
X253422619Y-111301190D01*
X253041666Y-111301190D01*
X254041666Y-111777380D02*
X254041666Y-110777380D01*
X254375000Y-111491666D01*
X254708333Y-110777380D01*
X254708333Y-111777380D01*
X255184523Y-111253571D02*
X255517857Y-111253571D01*
X255660714Y-111777380D02*
X255184523Y-111777380D01*
X255184523Y-110777380D01*
X255660714Y-110777380D01*
X256041666Y-111729761D02*
X256184523Y-111777380D01*
X256422619Y-111777380D01*
X256517857Y-111729761D01*
X256565476Y-111682142D01*
X256613095Y-111586904D01*
X256613095Y-111491666D01*
X256565476Y-111396428D01*
X256517857Y-111348809D01*
X256422619Y-111301190D01*
X256232142Y-111253571D01*
X256136904Y-111205952D01*
X256089285Y-111158333D01*
X256041666Y-111063095D01*
X256041666Y-110967857D01*
X256089285Y-110872619D01*
X256136904Y-110825000D01*
X256232142Y-110777380D01*
X256470238Y-110777380D01*
X256613095Y-110825000D01*
X258375000Y-111777380D02*
X258041666Y-111301190D01*
X257803571Y-111777380D02*
X257803571Y-110777380D01*
X258184523Y-110777380D01*
X258279761Y-110825000D01*
X258327380Y-110872619D01*
X258375000Y-110967857D01*
X258375000Y-111110714D01*
X258327380Y-111205952D01*
X258279761Y-111253571D01*
X258184523Y-111301190D01*
X257803571Y-111301190D01*
X259184523Y-111729761D02*
X259089285Y-111777380D01*
X258898809Y-111777380D01*
X258803571Y-111729761D01*
X258755952Y-111634523D01*
X258755952Y-111253571D01*
X258803571Y-111158333D01*
X258898809Y-111110714D01*
X259089285Y-111110714D01*
X259184523Y-111158333D01*
X259232142Y-111253571D01*
X259232142Y-111348809D01*
X258755952Y-111444047D01*
X259565476Y-111110714D02*
X259803571Y-111777380D01*
X260041666Y-111110714D01*
X260946428Y-111777380D02*
X260375000Y-111777380D01*
X260660714Y-111777380D02*
X260660714Y-110777380D01*
X260565476Y-110920238D01*
X260470238Y-111015476D01*
X260375000Y-111063095D01*
X253351190Y-113379761D02*
X253494047Y-113427380D01*
X253732142Y-113427380D01*
X253827380Y-113379761D01*
X253875000Y-113332142D01*
X253922619Y-113236904D01*
X253922619Y-113141666D01*
X253875000Y-113046428D01*
X253827380Y-112998809D01*
X253732142Y-112951190D01*
X253541666Y-112903571D01*
X253446428Y-112855952D01*
X253398809Y-112808333D01*
X253351190Y-112713095D01*
X253351190Y-112617857D01*
X253398809Y-112522619D01*
X253446428Y-112475000D01*
X253541666Y-112427380D01*
X253779761Y-112427380D01*
X253922619Y-112475000D01*
X254732142Y-113379761D02*
X254636904Y-113427380D01*
X254446428Y-113427380D01*
X254351190Y-113379761D01*
X254303571Y-113284523D01*
X254303571Y-112903571D01*
X254351190Y-112808333D01*
X254446428Y-112760714D01*
X254636904Y-112760714D01*
X254732142Y-112808333D01*
X254779761Y-112903571D01*
X254779761Y-112998809D01*
X254303571Y-113094047D01*
X255208333Y-112760714D02*
X255208333Y-113760714D01*
X255208333Y-112808333D02*
X255303571Y-112760714D01*
X255494047Y-112760714D01*
X255589285Y-112808333D01*
X255636904Y-112855952D01*
X255684523Y-112951190D01*
X255684523Y-113236904D01*
X255636904Y-113332142D01*
X255589285Y-113379761D01*
X255494047Y-113427380D01*
X255303571Y-113427380D01*
X255208333Y-113379761D01*
X255970238Y-112760714D02*
X256351190Y-112760714D01*
X256113095Y-112427380D02*
X256113095Y-113284523D01*
X256160714Y-113379761D01*
X256255952Y-113427380D01*
X256351190Y-113427380D01*
X257494047Y-112427380D02*
X257398809Y-112617857D01*
X257875000Y-112522619D02*
X257922619Y-112475000D01*
X258017857Y-112427380D01*
X258255952Y-112427380D01*
X258351190Y-112475000D01*
X258398809Y-112522619D01*
X258446428Y-112617857D01*
X258446428Y-112713095D01*
X258398809Y-112855952D01*
X257827380Y-113427380D01*
X258446428Y-113427380D01*
X259398809Y-113427380D02*
X258827380Y-113427380D01*
X259113095Y-113427380D02*
X259113095Y-112427380D01*
X259017857Y-112570238D01*
X258922619Y-112665476D01*
X258827380Y-112713095D01*
X248141666Y-114327380D02*
X248808333Y-115327380D01*
X248808333Y-114327380D02*
X248141666Y-115327380D01*
D11*
X248475000Y-115325000D02*
X248725000Y-115675000D01*
X248475000Y-115325000D02*
X248225000Y-115675000D01*
X248475000Y-115325000D02*
X248475000Y-117075000D01*
D10*
X225942857Y-111204761D02*
X226085714Y-111252380D01*
X226323809Y-111252380D01*
X226419047Y-111204761D01*
X226466666Y-111157142D01*
X226514285Y-111061904D01*
X226514285Y-110966666D01*
X226466666Y-110871428D01*
X226419047Y-110823809D01*
X226323809Y-110776190D01*
X226133333Y-110728571D01*
X226038095Y-110680952D01*
X225990476Y-110633333D01*
X225942857Y-110538095D01*
X225942857Y-110442857D01*
X225990476Y-110347619D01*
X226038095Y-110300000D01*
X226133333Y-110252380D01*
X226371428Y-110252380D01*
X226514285Y-110300000D01*
X226847619Y-110252380D02*
X227085714Y-111252380D01*
X227276190Y-110538095D01*
X227466666Y-111252380D01*
X227704761Y-110252380D01*
X228085714Y-111252380D02*
X228085714Y-110252380D01*
X228323809Y-110252380D01*
X228466666Y-110300000D01*
X228561904Y-110395238D01*
X228609523Y-110490476D01*
X228657142Y-110680952D01*
X228657142Y-110823809D01*
X228609523Y-111014285D01*
X228561904Y-111109523D01*
X228466666Y-111204761D01*
X228323809Y-111252380D01*
X228085714Y-111252380D01*
X220288095Y-112800000D02*
X220192857Y-112752380D01*
X220050000Y-112752380D01*
X219907142Y-112800000D01*
X219811904Y-112895238D01*
X219764285Y-112990476D01*
X219716666Y-113180952D01*
X219716666Y-113323809D01*
X219764285Y-113514285D01*
X219811904Y-113609523D01*
X219907142Y-113704761D01*
X220050000Y-113752380D01*
X220145238Y-113752380D01*
X220288095Y-113704761D01*
X220335714Y-113657142D01*
X220335714Y-113323809D01*
X220145238Y-113323809D01*
X220764285Y-113752380D02*
X220764285Y-112752380D01*
X221335714Y-113752380D01*
X221335714Y-112752380D01*
X221811904Y-113752380D02*
X221811904Y-112752380D01*
X222050000Y-112752380D01*
X222192857Y-112800000D01*
X222288095Y-112895238D01*
X222335714Y-112990476D01*
X222383333Y-113180952D01*
X222383333Y-113323809D01*
X222335714Y-113514285D01*
X222288095Y-113609523D01*
X222192857Y-113704761D01*
X222050000Y-113752380D01*
X221811904Y-113752380D01*
X223126190Y-113752380D02*
X223126190Y-112752380D01*
X223364285Y-112752380D01*
X223507142Y-112800000D01*
X223602380Y-112895238D01*
X223650000Y-112990476D01*
X223697619Y-113180952D01*
X223697619Y-113323809D01*
X223650000Y-113514285D01*
X223602380Y-113609523D01*
X223507142Y-113704761D01*
X223364285Y-113752380D01*
X223126190Y-113752380D01*
X224126190Y-113752380D02*
X224126190Y-112752380D01*
X224792857Y-112752380D02*
X224983333Y-112752380D01*
X225078571Y-112800000D01*
X225173809Y-112895238D01*
X225221428Y-113085714D01*
X225221428Y-113419047D01*
X225173809Y-113609523D01*
X225078571Y-113704761D01*
X224983333Y-113752380D01*
X224792857Y-113752380D01*
X224697619Y-113704761D01*
X224602380Y-113609523D01*
X224554761Y-113419047D01*
X224554761Y-113085714D01*
X224602380Y-112895238D01*
X224697619Y-112800000D01*
X224792857Y-112752380D01*
X217354761Y-113657142D02*
X217307142Y-113704761D01*
X217164285Y-113752380D01*
X217069047Y-113752380D01*
X216926190Y-113704761D01*
X216830952Y-113609523D01*
X216783333Y-113514285D01*
X216735714Y-113323809D01*
X216735714Y-113180952D01*
X216783333Y-112990476D01*
X216830952Y-112895238D01*
X216926190Y-112800000D01*
X217069047Y-112752380D01*
X217164285Y-112752380D01*
X217307142Y-112800000D01*
X217354761Y-112847619D01*
X218259523Y-113752380D02*
X217783333Y-113752380D01*
X217783333Y-112752380D01*
X218592857Y-113752380D02*
X218592857Y-112752380D01*
X219164285Y-113752380D02*
X218735714Y-113180952D01*
X219164285Y-112752380D02*
X218592857Y-113323809D01*
X226204761Y-106750000D02*
X226109523Y-106702380D01*
X225966666Y-106702380D01*
X225823809Y-106750000D01*
X225728571Y-106845238D01*
X225680952Y-106940476D01*
X225633333Y-107130952D01*
X225633333Y-107273809D01*
X225680952Y-107464285D01*
X225728571Y-107559523D01*
X225823809Y-107654761D01*
X225966666Y-107702380D01*
X226061904Y-107702380D01*
X226204761Y-107654761D01*
X226252380Y-107607142D01*
X226252380Y-107273809D01*
X226061904Y-107273809D01*
X226919047Y-108035714D02*
X226919047Y-106607142D01*
X228204761Y-107702380D02*
X227871428Y-107226190D01*
X227633333Y-107702380D02*
X227633333Y-106702380D01*
X228014285Y-106702380D01*
X228109523Y-106750000D01*
X228157142Y-106797619D01*
X228204761Y-106892857D01*
X228204761Y-107035714D01*
X228157142Y-107130952D01*
X228109523Y-107178571D01*
X228014285Y-107226190D01*
X227633333Y-107226190D01*
X228871428Y-108035714D02*
X228871428Y-106607142D01*
X229490476Y-106702380D02*
X230109523Y-106702380D01*
X229776190Y-107083333D01*
X229919047Y-107083333D01*
X230014285Y-107130952D01*
X230061904Y-107178571D01*
X230109523Y-107273809D01*
X230109523Y-107511904D01*
X230061904Y-107607142D01*
X230014285Y-107654761D01*
X229919047Y-107702380D01*
X229633333Y-107702380D01*
X229538095Y-107654761D01*
X229490476Y-107607142D01*
X230395238Y-106702380D02*
X230728571Y-107702380D01*
X231061904Y-106702380D01*
X225969047Y-104052380D02*
X225969047Y-103052380D01*
X226350000Y-103052380D01*
X226445238Y-103100000D01*
X226492857Y-103147619D01*
X226540476Y-103242857D01*
X226540476Y-103385714D01*
X226492857Y-103480952D01*
X226445238Y-103528571D01*
X226350000Y-103576190D01*
X225969047Y-103576190D01*
X226873809Y-103052380D02*
X227111904Y-104052380D01*
X227302380Y-103338095D01*
X227492857Y-104052380D01*
X227730952Y-103052380D01*
X228111904Y-104052380D02*
X228111904Y-103052380D01*
X228445238Y-103766666D01*
X228778571Y-103052380D01*
X228778571Y-104052380D01*
X229778571Y-104052380D02*
X229207142Y-104052380D01*
X229492857Y-104052380D02*
X229492857Y-103052380D01*
X229397619Y-103195238D01*
X229302380Y-103290476D01*
X229207142Y-103338095D01*
X225969047Y-101402380D02*
X225969047Y-100402380D01*
X226350000Y-100402380D01*
X226445238Y-100450000D01*
X226492857Y-100497619D01*
X226540476Y-100592857D01*
X226540476Y-100735714D01*
X226492857Y-100830952D01*
X226445238Y-100878571D01*
X226350000Y-100926190D01*
X225969047Y-100926190D01*
X226873809Y-100402380D02*
X227111904Y-101402380D01*
X227302380Y-100688095D01*
X227492857Y-101402380D01*
X227730952Y-100402380D01*
X228111904Y-101402380D02*
X228111904Y-100402380D01*
X228445238Y-101116666D01*
X228778571Y-100402380D01*
X228778571Y-101402380D01*
X229207142Y-100497619D02*
X229254761Y-100450000D01*
X229350000Y-100402380D01*
X229588095Y-100402380D01*
X229683333Y-100450000D01*
X229730952Y-100497619D01*
X229778571Y-100592857D01*
X229778571Y-100688095D01*
X229730952Y-100830952D01*
X229159523Y-101402380D01*
X229778571Y-101402380D01*
X225969047Y-98902380D02*
X225969047Y-97902380D01*
X226350000Y-97902380D01*
X226445238Y-97950000D01*
X226492857Y-97997619D01*
X226540476Y-98092857D01*
X226540476Y-98235714D01*
X226492857Y-98330952D01*
X226445238Y-98378571D01*
X226350000Y-98426190D01*
X225969047Y-98426190D01*
X226873809Y-97902380D02*
X227111904Y-98902380D01*
X227302380Y-98188095D01*
X227492857Y-98902380D01*
X227730952Y-97902380D01*
X228111904Y-98902380D02*
X228111904Y-97902380D01*
X228445238Y-98616666D01*
X228778571Y-97902380D01*
X228778571Y-98902380D01*
X229159523Y-97902380D02*
X229778571Y-97902380D01*
X229445238Y-98283333D01*
X229588095Y-98283333D01*
X229683333Y-98330952D01*
X229730952Y-98378571D01*
X229778571Y-98473809D01*
X229778571Y-98711904D01*
X229730952Y-98807142D01*
X229683333Y-98854761D01*
X229588095Y-98902380D01*
X229302380Y-98902380D01*
X229207142Y-98854761D01*
X229159523Y-98807142D01*
X225969047Y-96402380D02*
X225969047Y-95402380D01*
X226350000Y-95402380D01*
X226445238Y-95450000D01*
X226492857Y-95497619D01*
X226540476Y-95592857D01*
X226540476Y-95735714D01*
X226492857Y-95830952D01*
X226445238Y-95878571D01*
X226350000Y-95926190D01*
X225969047Y-95926190D01*
X226873809Y-95402380D02*
X227111904Y-96402380D01*
X227302380Y-95688095D01*
X227492857Y-96402380D01*
X227730952Y-95402380D01*
X228111904Y-96402380D02*
X228111904Y-95402380D01*
X228445238Y-96116666D01*
X228778571Y-95402380D01*
X228778571Y-96402380D01*
X229683333Y-95735714D02*
X229683333Y-96402380D01*
X229445238Y-95354761D02*
X229207142Y-96069047D01*
X229826190Y-96069047D01*
X225969047Y-93702380D02*
X225969047Y-92702380D01*
X226350000Y-92702380D01*
X226445238Y-92750000D01*
X226492857Y-92797619D01*
X226540476Y-92892857D01*
X226540476Y-93035714D01*
X226492857Y-93130952D01*
X226445238Y-93178571D01*
X226350000Y-93226190D01*
X225969047Y-93226190D01*
X226873809Y-92702380D02*
X227111904Y-93702380D01*
X227302380Y-92988095D01*
X227492857Y-93702380D01*
X227730952Y-92702380D01*
X228111904Y-93702380D02*
X228111904Y-92702380D01*
X228445238Y-93416666D01*
X228778571Y-92702380D01*
X228778571Y-93702380D01*
X229730952Y-92702380D02*
X229254761Y-92702380D01*
X229207142Y-93178571D01*
X229254761Y-93130952D01*
X229350000Y-93083333D01*
X229588095Y-93083333D01*
X229683333Y-93130952D01*
X229730952Y-93178571D01*
X229778571Y-93273809D01*
X229778571Y-93511904D01*
X229730952Y-93607142D01*
X229683333Y-93654761D01*
X229588095Y-93702380D01*
X229350000Y-93702380D01*
X229254761Y-93654761D01*
X229207142Y-93607142D01*
X225969047Y-91252380D02*
X225969047Y-90252380D01*
X226350000Y-90252380D01*
X226445238Y-90300000D01*
X226492857Y-90347619D01*
X226540476Y-90442857D01*
X226540476Y-90585714D01*
X226492857Y-90680952D01*
X226445238Y-90728571D01*
X226350000Y-90776190D01*
X225969047Y-90776190D01*
X226873809Y-90252380D02*
X227111904Y-91252380D01*
X227302380Y-90538095D01*
X227492857Y-91252380D01*
X227730952Y-90252380D01*
X228111904Y-91252380D02*
X228111904Y-90252380D01*
X228445238Y-90966666D01*
X228778571Y-90252380D01*
X228778571Y-91252380D01*
X229683333Y-90252380D02*
X229492857Y-90252380D01*
X229397619Y-90300000D01*
X229350000Y-90347619D01*
X229254761Y-90490476D01*
X229207142Y-90680952D01*
X229207142Y-91061904D01*
X229254761Y-91157142D01*
X229302380Y-91204761D01*
X229397619Y-91252380D01*
X229588095Y-91252380D01*
X229683333Y-91204761D01*
X229730952Y-91157142D01*
X229778571Y-91061904D01*
X229778571Y-90823809D01*
X229730952Y-90728571D01*
X229683333Y-90680952D01*
X229588095Y-90633333D01*
X229397619Y-90633333D01*
X229302380Y-90680952D01*
X229254761Y-90728571D01*
X229207142Y-90823809D01*
X225969047Y-88702380D02*
X225969047Y-87702380D01*
X226350000Y-87702380D01*
X226445238Y-87750000D01*
X226492857Y-87797619D01*
X226540476Y-87892857D01*
X226540476Y-88035714D01*
X226492857Y-88130952D01*
X226445238Y-88178571D01*
X226350000Y-88226190D01*
X225969047Y-88226190D01*
X226873809Y-87702380D02*
X227111904Y-88702380D01*
X227302380Y-87988095D01*
X227492857Y-88702380D01*
X227730952Y-87702380D01*
X228111904Y-88702380D02*
X228111904Y-87702380D01*
X228445238Y-88416666D01*
X228778571Y-87702380D01*
X228778571Y-88702380D01*
X229159523Y-87702380D02*
X229826190Y-87702380D01*
X229397619Y-88702380D01*
X226519047Y-86252380D02*
X226185714Y-85776190D01*
X225947619Y-86252380D02*
X225947619Y-85252380D01*
X226328571Y-85252380D01*
X226423809Y-85300000D01*
X226471428Y-85347619D01*
X226519047Y-85442857D01*
X226519047Y-85585714D01*
X226471428Y-85680952D01*
X226423809Y-85728571D01*
X226328571Y-85776190D01*
X225947619Y-85776190D01*
X226900000Y-85966666D02*
X227376190Y-85966666D01*
X226804761Y-86252380D02*
X227138095Y-85252380D01*
X227471428Y-86252380D01*
X227804761Y-86252380D02*
X227804761Y-85252380D01*
X228042857Y-85252380D01*
X228185714Y-85300000D01*
X228280952Y-85395238D01*
X228328571Y-85490476D01*
X228376190Y-85680952D01*
X228376190Y-85823809D01*
X228328571Y-86014285D01*
X228280952Y-86109523D01*
X228185714Y-86204761D01*
X228042857Y-86252380D01*
X227804761Y-86252380D01*
X228804761Y-86252380D02*
X228804761Y-85252380D01*
X229471428Y-85252380D02*
X229661904Y-85252380D01*
X229757142Y-85300000D01*
X229852380Y-85395238D01*
X229900000Y-85585714D01*
X229900000Y-85919047D01*
X229852380Y-86109523D01*
X229757142Y-86204761D01*
X229661904Y-86252380D01*
X229471428Y-86252380D01*
X229376190Y-86204761D01*
X229280952Y-86109523D01*
X229233333Y-85919047D01*
X229233333Y-85585714D01*
X229280952Y-85395238D01*
X229376190Y-85300000D01*
X229471428Y-85252380D01*
X226535714Y-81650000D02*
X226440476Y-81602380D01*
X226297619Y-81602380D01*
X226154761Y-81650000D01*
X226059523Y-81745238D01*
X226011904Y-81840476D01*
X225964285Y-82030952D01*
X225964285Y-82173809D01*
X226011904Y-82364285D01*
X226059523Y-82459523D01*
X226154761Y-82554761D01*
X226297619Y-82602380D01*
X226392857Y-82602380D01*
X226535714Y-82554761D01*
X226583333Y-82507142D01*
X226583333Y-82173809D01*
X226392857Y-82173809D01*
X227011904Y-82602380D02*
X227011904Y-81602380D01*
X227392857Y-81602380D01*
X227488095Y-81650000D01*
X227535714Y-81697619D01*
X227583333Y-81792857D01*
X227583333Y-81935714D01*
X227535714Y-82030952D01*
X227488095Y-82078571D01*
X227392857Y-82126190D01*
X227011904Y-82126190D01*
X227964285Y-82554761D02*
X228107142Y-82602380D01*
X228345238Y-82602380D01*
X228440476Y-82554761D01*
X228488095Y-82507142D01*
X228535714Y-82411904D01*
X228535714Y-82316666D01*
X228488095Y-82221428D01*
X228440476Y-82173809D01*
X228345238Y-82126190D01*
X228154761Y-82078571D01*
X228059523Y-82030952D01*
X228011904Y-81983333D01*
X227964285Y-81888095D01*
X227964285Y-81792857D01*
X228011904Y-81697619D01*
X228059523Y-81650000D01*
X228154761Y-81602380D01*
X228392857Y-81602380D01*
X228535714Y-81650000D01*
D12*
%TO.C,REF\u002A\u002A*%
G36*
X253849744Y-118644918D02*
G01*
X253905201Y-118672568D01*
X253954148Y-118723480D01*
X253967629Y-118742338D01*
X253982314Y-118767015D01*
X253991842Y-118793816D01*
X253997293Y-118829587D01*
X253999747Y-118881169D01*
X254000286Y-118949267D01*
X253997852Y-119042588D01*
X253989394Y-119112657D01*
X253973174Y-119164931D01*
X253947454Y-119204869D01*
X253910497Y-119237929D01*
X253907782Y-119239886D01*
X253871360Y-119259908D01*
X253827502Y-119269815D01*
X253771724Y-119272257D01*
X253681048Y-119272257D01*
X253681010Y-119360283D01*
X253680166Y-119409308D01*
X253675024Y-119438065D01*
X253661587Y-119455311D01*
X253635858Y-119469808D01*
X253629679Y-119472769D01*
X253600764Y-119486648D01*
X253578376Y-119495414D01*
X253561729Y-119496171D01*
X253550036Y-119486023D01*
X253542510Y-119462073D01*
X253538366Y-119421426D01*
X253536815Y-119361186D01*
X253537071Y-119278455D01*
X253538349Y-119170339D01*
X253538748Y-119138000D01*
X253540185Y-119026524D01*
X253541472Y-118953603D01*
X253680971Y-118953603D01*
X253681755Y-119015499D01*
X253685240Y-119055997D01*
X253693124Y-119082708D01*
X253707105Y-119103244D01*
X253716597Y-119113260D01*
X253755404Y-119142567D01*
X253789763Y-119144952D01*
X253825216Y-119120750D01*
X253826114Y-119119857D01*
X253840539Y-119101153D01*
X253849313Y-119075732D01*
X253853739Y-119036584D01*
X253855118Y-118976697D01*
X253855143Y-118963430D01*
X253851812Y-118880901D01*
X253840969Y-118823691D01*
X253821340Y-118788766D01*
X253791650Y-118773094D01*
X253774491Y-118771514D01*
X253733766Y-118778926D01*
X253705832Y-118803330D01*
X253689017Y-118847980D01*
X253681650Y-118916130D01*
X253680971Y-118953603D01*
X253541472Y-118953603D01*
X253541708Y-118940245D01*
X253543677Y-118875333D01*
X253546450Y-118827958D01*
X253550388Y-118794290D01*
X253555849Y-118770498D01*
X253563192Y-118752753D01*
X253572777Y-118737224D01*
X253576887Y-118731381D01*
X253631405Y-118676185D01*
X253700336Y-118644890D01*
X253780072Y-118636165D01*
X253849744Y-118644918D01*
G37*
X253849744Y-118644918D02*
X253905201Y-118672568D01*
X253954148Y-118723480D01*
X253967629Y-118742338D01*
X253982314Y-118767015D01*
X253991842Y-118793816D01*
X253997293Y-118829587D01*
X253999747Y-118881169D01*
X254000286Y-118949267D01*
X253997852Y-119042588D01*
X253989394Y-119112657D01*
X253973174Y-119164931D01*
X253947454Y-119204869D01*
X253910497Y-119237929D01*
X253907782Y-119239886D01*
X253871360Y-119259908D01*
X253827502Y-119269815D01*
X253771724Y-119272257D01*
X253681048Y-119272257D01*
X253681010Y-119360283D01*
X253680166Y-119409308D01*
X253675024Y-119438065D01*
X253661587Y-119455311D01*
X253635858Y-119469808D01*
X253629679Y-119472769D01*
X253600764Y-119486648D01*
X253578376Y-119495414D01*
X253561729Y-119496171D01*
X253550036Y-119486023D01*
X253542510Y-119462073D01*
X253538366Y-119421426D01*
X253536815Y-119361186D01*
X253537071Y-119278455D01*
X253538349Y-119170339D01*
X253538748Y-119138000D01*
X253540185Y-119026524D01*
X253541472Y-118953603D01*
X253680971Y-118953603D01*
X253681755Y-119015499D01*
X253685240Y-119055997D01*
X253693124Y-119082708D01*
X253707105Y-119103244D01*
X253716597Y-119113260D01*
X253755404Y-119142567D01*
X253789763Y-119144952D01*
X253825216Y-119120750D01*
X253826114Y-119119857D01*
X253840539Y-119101153D01*
X253849313Y-119075732D01*
X253853739Y-119036584D01*
X253855118Y-118976697D01*
X253855143Y-118963430D01*
X253851812Y-118880901D01*
X253840969Y-118823691D01*
X253821340Y-118788766D01*
X253791650Y-118773094D01*
X253774491Y-118771514D01*
X253733766Y-118778926D01*
X253705832Y-118803330D01*
X253689017Y-118847980D01*
X253681650Y-118916130D01*
X253680971Y-118953603D01*
X253541472Y-118953603D01*
X253541708Y-118940245D01*
X253543677Y-118875333D01*
X253546450Y-118827958D01*
X253550388Y-118794290D01*
X253555849Y-118770498D01*
X253563192Y-118752753D01*
X253572777Y-118737224D01*
X253576887Y-118731381D01*
X253631405Y-118676185D01*
X253700336Y-118644890D01*
X253780072Y-118636165D01*
X253849744Y-118644918D01*
G36*
X254966093Y-118652780D02*
G01*
X255012672Y-118679723D01*
X255045057Y-118706466D01*
X255068742Y-118734484D01*
X255085059Y-118768748D01*
X255095339Y-118814227D01*
X255100914Y-118875892D01*
X255103116Y-118958711D01*
X255103371Y-119018246D01*
X255103371Y-119237391D01*
X255041686Y-119265044D01*
X254980000Y-119292697D01*
X254972743Y-119052670D01*
X254969744Y-118963028D01*
X254966598Y-118897962D01*
X254962701Y-118853026D01*
X254957447Y-118823770D01*
X254950231Y-118805748D01*
X254940450Y-118794511D01*
X254937312Y-118792079D01*
X254889761Y-118773083D01*
X254841697Y-118780600D01*
X254813086Y-118800543D01*
X254801447Y-118814675D01*
X254793391Y-118833220D01*
X254788271Y-118861334D01*
X254785441Y-118904173D01*
X254784256Y-118966895D01*
X254784057Y-119032261D01*
X254784018Y-119114268D01*
X254782614Y-119172316D01*
X254777914Y-119211465D01*
X254767987Y-119236780D01*
X254750903Y-119253323D01*
X254724732Y-119266156D01*
X254689775Y-119279491D01*
X254651596Y-119294007D01*
X254656141Y-119036389D01*
X254657971Y-118943519D01*
X254660112Y-118874889D01*
X254663181Y-118825711D01*
X254667794Y-118791198D01*
X254674568Y-118766562D01*
X254684119Y-118747016D01*
X254695634Y-118729770D01*
X254751190Y-118674680D01*
X254818980Y-118642822D01*
X254892713Y-118635191D01*
X254966093Y-118652780D01*
G37*
X254966093Y-118652780D02*
X255012672Y-118679723D01*
X255045057Y-118706466D01*
X255068742Y-118734484D01*
X255085059Y-118768748D01*
X255095339Y-118814227D01*
X255100914Y-118875892D01*
X255103116Y-118958711D01*
X255103371Y-119018246D01*
X255103371Y-119237391D01*
X255041686Y-119265044D01*
X254980000Y-119292697D01*
X254972743Y-119052670D01*
X254969744Y-118963028D01*
X254966598Y-118897962D01*
X254962701Y-118853026D01*
X254957447Y-118823770D01*
X254950231Y-118805748D01*
X254940450Y-118794511D01*
X254937312Y-118792079D01*
X254889761Y-118773083D01*
X254841697Y-118780600D01*
X254813086Y-118800543D01*
X254801447Y-118814675D01*
X254793391Y-118833220D01*
X254788271Y-118861334D01*
X254785441Y-118904173D01*
X254784256Y-118966895D01*
X254784057Y-119032261D01*
X254784018Y-119114268D01*
X254782614Y-119172316D01*
X254777914Y-119211465D01*
X254767987Y-119236780D01*
X254750903Y-119253323D01*
X254724732Y-119266156D01*
X254689775Y-119279491D01*
X254651596Y-119294007D01*
X254656141Y-119036389D01*
X254657971Y-118943519D01*
X254660112Y-118874889D01*
X254663181Y-118825711D01*
X254667794Y-118791198D01*
X254674568Y-118766562D01*
X254684119Y-118747016D01*
X254695634Y-118729770D01*
X254751190Y-118674680D01*
X254818980Y-118642822D01*
X254892713Y-118635191D01*
X254966093Y-118652780D01*
G36*
X253291115Y-118646962D02*
G01*
X253359145Y-118682733D01*
X253409351Y-118740301D01*
X253427185Y-118777312D01*
X253441063Y-118832882D01*
X253448167Y-118903096D01*
X253448840Y-118979727D01*
X253443427Y-119054552D01*
X253432270Y-119119342D01*
X253415714Y-119165873D01*
X253410626Y-119173887D01*
X253350355Y-119233707D01*
X253278769Y-119269535D01*
X253201092Y-119280020D01*
X253122548Y-119263810D01*
X253100689Y-119254092D01*
X253058122Y-119224143D01*
X253020763Y-119184433D01*
X253017232Y-119179397D01*
X253002881Y-119155124D01*
X252993394Y-119129178D01*
X252987790Y-119095022D01*
X252985086Y-119046119D01*
X252984299Y-118975935D01*
X252984286Y-118960200D01*
X252984322Y-118955192D01*
X253129429Y-118955192D01*
X253130273Y-119021430D01*
X253133596Y-119065386D01*
X253140583Y-119093779D01*
X253152416Y-119113325D01*
X253158457Y-119119857D01*
X253193186Y-119144680D01*
X253226903Y-119143548D01*
X253260995Y-119122016D01*
X253281329Y-119099029D01*
X253293371Y-119065478D01*
X253300134Y-119012569D01*
X253300598Y-119006399D01*
X253301752Y-118910513D01*
X253289688Y-118839299D01*
X253264570Y-118793194D01*
X253226560Y-118772635D01*
X253212992Y-118771514D01*
X253177364Y-118777152D01*
X253152994Y-118796686D01*
X253138093Y-118834042D01*
X253130875Y-118893150D01*
X253129429Y-118955192D01*
X252984322Y-118955192D01*
X252984826Y-118885413D01*
X252987096Y-118833159D01*
X252992068Y-118796949D01*
X253000713Y-118770299D01*
X253014005Y-118746722D01*
X253016943Y-118742338D01*
X253066313Y-118683249D01*
X253120109Y-118648947D01*
X253185602Y-118635331D01*
X253207842Y-118634665D01*
X253291115Y-118646962D01*
G37*
X253291115Y-118646962D02*
X253359145Y-118682733D01*
X253409351Y-118740301D01*
X253427185Y-118777312D01*
X253441063Y-118832882D01*
X253448167Y-118903096D01*
X253448840Y-118979727D01*
X253443427Y-119054552D01*
X253432270Y-119119342D01*
X253415714Y-119165873D01*
X253410626Y-119173887D01*
X253350355Y-119233707D01*
X253278769Y-119269535D01*
X253201092Y-119280020D01*
X253122548Y-119263810D01*
X253100689Y-119254092D01*
X253058122Y-119224143D01*
X253020763Y-119184433D01*
X253017232Y-119179397D01*
X253002881Y-119155124D01*
X252993394Y-119129178D01*
X252987790Y-119095022D01*
X252985086Y-119046119D01*
X252984299Y-118975935D01*
X252984286Y-118960200D01*
X252984322Y-118955192D01*
X253129429Y-118955192D01*
X253130273Y-119021430D01*
X253133596Y-119065386D01*
X253140583Y-119093779D01*
X253152416Y-119113325D01*
X253158457Y-119119857D01*
X253193186Y-119144680D01*
X253226903Y-119143548D01*
X253260995Y-119122016D01*
X253281329Y-119099029D01*
X253293371Y-119065478D01*
X253300134Y-119012569D01*
X253300598Y-119006399D01*
X253301752Y-118910513D01*
X253289688Y-118839299D01*
X253264570Y-118793194D01*
X253226560Y-118772635D01*
X253212992Y-118771514D01*
X253177364Y-118777152D01*
X253152994Y-118796686D01*
X253138093Y-118834042D01*
X253130875Y-118893150D01*
X253129429Y-118955192D01*
X252984322Y-118955192D01*
X252984826Y-118885413D01*
X252987096Y-118833159D01*
X252992068Y-118796949D01*
X253000713Y-118770299D01*
X253014005Y-118746722D01*
X253016943Y-118742338D01*
X253066313Y-118683249D01*
X253120109Y-118648947D01*
X253185602Y-118635331D01*
X253207842Y-118634665D01*
X253291115Y-118646962D01*
G36*
X254418303Y-118656239D02*
G01*
X254475527Y-118694735D01*
X254519749Y-118750335D01*
X254546167Y-118821086D01*
X254551510Y-118873162D01*
X254550903Y-118894893D01*
X254545822Y-118911531D01*
X254531855Y-118926437D01*
X254504589Y-118942973D01*
X254459612Y-118964498D01*
X254392511Y-118994374D01*
X254392171Y-118994524D01*
X254330407Y-119022813D01*
X254279759Y-119047933D01*
X254245404Y-119067179D01*
X254232518Y-119077848D01*
X254232514Y-119077934D01*
X254243872Y-119101166D01*
X254270431Y-119126774D01*
X254300923Y-119145221D01*
X254316370Y-119148886D01*
X254358515Y-119136212D01*
X254394808Y-119104471D01*
X254412517Y-119069572D01*
X254429552Y-119043845D01*
X254462922Y-119014546D01*
X254502149Y-118989235D01*
X254536756Y-118975471D01*
X254543993Y-118974714D01*
X254552139Y-118987160D01*
X254552630Y-119018972D01*
X254546643Y-119061866D01*
X254535357Y-119107558D01*
X254519950Y-119147761D01*
X254519171Y-119149322D01*
X254472804Y-119214062D01*
X254412711Y-119258097D01*
X254344465Y-119279711D01*
X254273638Y-119277185D01*
X254205804Y-119248804D01*
X254202788Y-119246808D01*
X254149427Y-119198448D01*
X254114340Y-119135352D01*
X254094922Y-119052387D01*
X254092316Y-119029078D01*
X254087701Y-118919055D01*
X254093233Y-118867748D01*
X254232514Y-118867748D01*
X254234324Y-118899753D01*
X254244222Y-118909093D01*
X254268898Y-118902105D01*
X254307795Y-118885587D01*
X254351275Y-118864881D01*
X254352356Y-118864333D01*
X254389209Y-118844949D01*
X254404000Y-118832013D01*
X254400353Y-118818451D01*
X254384995Y-118800632D01*
X254345923Y-118774845D01*
X254303846Y-118772950D01*
X254266103Y-118791717D01*
X254240034Y-118827915D01*
X254232514Y-118867748D01*
X254093233Y-118867748D01*
X254097194Y-118831027D01*
X254121550Y-118761212D01*
X254155456Y-118712302D01*
X254216653Y-118662878D01*
X254284063Y-118638359D01*
X254352880Y-118636797D01*
X254418303Y-118656239D01*
G37*
X254418303Y-118656239D02*
X254475527Y-118694735D01*
X254519749Y-118750335D01*
X254546167Y-118821086D01*
X254551510Y-118873162D01*
X254550903Y-118894893D01*
X254545822Y-118911531D01*
X254531855Y-118926437D01*
X254504589Y-118942973D01*
X254459612Y-118964498D01*
X254392511Y-118994374D01*
X254392171Y-118994524D01*
X254330407Y-119022813D01*
X254279759Y-119047933D01*
X254245404Y-119067179D01*
X254232518Y-119077848D01*
X254232514Y-119077934D01*
X254243872Y-119101166D01*
X254270431Y-119126774D01*
X254300923Y-119145221D01*
X254316370Y-119148886D01*
X254358515Y-119136212D01*
X254394808Y-119104471D01*
X254412517Y-119069572D01*
X254429552Y-119043845D01*
X254462922Y-119014546D01*
X254502149Y-118989235D01*
X254536756Y-118975471D01*
X254543993Y-118974714D01*
X254552139Y-118987160D01*
X254552630Y-119018972D01*
X254546643Y-119061866D01*
X254535357Y-119107558D01*
X254519950Y-119147761D01*
X254519171Y-119149322D01*
X254472804Y-119214062D01*
X254412711Y-119258097D01*
X254344465Y-119279711D01*
X254273638Y-119277185D01*
X254205804Y-119248804D01*
X254202788Y-119246808D01*
X254149427Y-119198448D01*
X254114340Y-119135352D01*
X254094922Y-119052387D01*
X254092316Y-119029078D01*
X254087701Y-118919055D01*
X254093233Y-118867748D01*
X254232514Y-118867748D01*
X254234324Y-118899753D01*
X254244222Y-118909093D01*
X254268898Y-118902105D01*
X254307795Y-118885587D01*
X254351275Y-118864881D01*
X254352356Y-118864333D01*
X254389209Y-118844949D01*
X254404000Y-118832013D01*
X254400353Y-118818451D01*
X254384995Y-118800632D01*
X254345923Y-118774845D01*
X254303846Y-118772950D01*
X254266103Y-118791717D01*
X254240034Y-118827915D01*
X254232514Y-118867748D01*
X254093233Y-118867748D01*
X254097194Y-118831027D01*
X254121550Y-118761212D01*
X254155456Y-118712302D01*
X254216653Y-118662878D01*
X254284063Y-118638359D01*
X254352880Y-118636797D01*
X254418303Y-118656239D01*
G36*
X255625886Y-118576289D02*
G01*
X255630139Y-118635613D01*
X255635025Y-118670572D01*
X255641795Y-118685820D01*
X255651702Y-118686015D01*
X255654914Y-118684195D01*
X255697644Y-118671015D01*
X255753227Y-118671785D01*
X255809737Y-118685333D01*
X255845082Y-118702861D01*
X255881321Y-118730861D01*
X255907813Y-118762549D01*
X255925999Y-118802813D01*
X255937322Y-118856543D01*
X255943222Y-118928626D01*
X255945143Y-119023951D01*
X255945177Y-119042237D01*
X255945200Y-119247646D01*
X255899491Y-119263580D01*
X255867027Y-119274420D01*
X255849215Y-119279468D01*
X255848691Y-119279514D01*
X255846937Y-119265828D01*
X255845444Y-119228076D01*
X255844326Y-119171224D01*
X255843697Y-119100234D01*
X255843600Y-119057073D01*
X255843398Y-118971973D01*
X255842358Y-118910981D01*
X255839831Y-118869177D01*
X255835164Y-118841642D01*
X255827707Y-118823456D01*
X255816811Y-118809698D01*
X255810007Y-118803073D01*
X255763272Y-118776375D01*
X255712272Y-118774375D01*
X255666001Y-118796955D01*
X255657444Y-118805107D01*
X255644893Y-118820436D01*
X255636188Y-118838618D01*
X255630631Y-118864909D01*
X255627526Y-118904562D01*
X255626176Y-118962832D01*
X255625886Y-119043173D01*
X255625886Y-119247646D01*
X255580177Y-119263580D01*
X255547713Y-119274420D01*
X255529901Y-119279468D01*
X255529377Y-119279514D01*
X255528037Y-119265623D01*
X255526828Y-119226439D01*
X255525801Y-119165700D01*
X255525002Y-119087141D01*
X255524481Y-118994498D01*
X255524286Y-118891509D01*
X255524286Y-118494342D01*
X255571457Y-118474444D01*
X255618629Y-118454547D01*
X255625886Y-118576289D01*
G37*
X255625886Y-118576289D02*
X255630139Y-118635613D01*
X255635025Y-118670572D01*
X255641795Y-118685820D01*
X255651702Y-118686015D01*
X255654914Y-118684195D01*
X255697644Y-118671015D01*
X255753227Y-118671785D01*
X255809737Y-118685333D01*
X255845082Y-118702861D01*
X255881321Y-118730861D01*
X255907813Y-118762549D01*
X255925999Y-118802813D01*
X255937322Y-118856543D01*
X255943222Y-118928626D01*
X255945143Y-119023951D01*
X255945177Y-119042237D01*
X255945200Y-119247646D01*
X255899491Y-119263580D01*
X255867027Y-119274420D01*
X255849215Y-119279468D01*
X255848691Y-119279514D01*
X255846937Y-119265828D01*
X255845444Y-119228076D01*
X255844326Y-119171224D01*
X255843697Y-119100234D01*
X255843600Y-119057073D01*
X255843398Y-118971973D01*
X255842358Y-118910981D01*
X255839831Y-118869177D01*
X255835164Y-118841642D01*
X255827707Y-118823456D01*
X255816811Y-118809698D01*
X255810007Y-118803073D01*
X255763272Y-118776375D01*
X255712272Y-118774375D01*
X255666001Y-118796955D01*
X255657444Y-118805107D01*
X255644893Y-118820436D01*
X255636188Y-118838618D01*
X255630631Y-118864909D01*
X255627526Y-118904562D01*
X255626176Y-118962832D01*
X255625886Y-119043173D01*
X255625886Y-119247646D01*
X255580177Y-119263580D01*
X255547713Y-119274420D01*
X255529901Y-119279468D01*
X255529377Y-119279514D01*
X255528037Y-119265623D01*
X255526828Y-119226439D01*
X255525801Y-119165700D01*
X255525002Y-119087141D01*
X255524481Y-118994498D01*
X255524286Y-118891509D01*
X255524286Y-118494342D01*
X255571457Y-118474444D01*
X255618629Y-118454547D01*
X255625886Y-118576289D01*
G36*
X256289744Y-118675968D02*
G01*
X256346616Y-118697087D01*
X256347267Y-118697493D01*
X256382440Y-118723380D01*
X256408407Y-118753633D01*
X256426670Y-118793058D01*
X256438732Y-118846462D01*
X256446096Y-118918651D01*
X256450264Y-119014432D01*
X256450629Y-119028078D01*
X256455876Y-119233842D01*
X256411716Y-119256678D01*
X256379763Y-119272110D01*
X256360470Y-119279423D01*
X256359578Y-119279514D01*
X256356239Y-119266022D01*
X256353587Y-119229626D01*
X256351956Y-119176452D01*
X256351600Y-119133393D01*
X256351592Y-119063641D01*
X256348403Y-119019837D01*
X256337288Y-118998944D01*
X256313501Y-118997925D01*
X256272296Y-119013741D01*
X256210086Y-119042815D01*
X256164341Y-119066963D01*
X256140813Y-119087913D01*
X256133896Y-119110747D01*
X256133886Y-119111877D01*
X256145299Y-119151212D01*
X256179092Y-119172462D01*
X256230809Y-119175539D01*
X256268061Y-119175006D01*
X256287703Y-119185735D01*
X256299952Y-119211505D01*
X256307002Y-119244337D01*
X256296842Y-119262966D01*
X256293017Y-119265632D01*
X256257001Y-119276340D01*
X256206566Y-119277856D01*
X256154626Y-119270759D01*
X256117822Y-119257788D01*
X256066938Y-119214585D01*
X256038014Y-119154446D01*
X256032286Y-119107462D01*
X256036657Y-119065082D01*
X256052475Y-119030488D01*
X256083797Y-118999763D01*
X256134678Y-118968990D01*
X256209176Y-118934252D01*
X256213714Y-118932288D01*
X256280821Y-118901287D01*
X256322232Y-118875862D01*
X256339981Y-118853014D01*
X256336107Y-118829745D01*
X256312643Y-118803056D01*
X256305627Y-118796914D01*
X256258630Y-118773100D01*
X256209933Y-118774103D01*
X256167522Y-118797451D01*
X256139384Y-118840675D01*
X256136769Y-118849160D01*
X256111308Y-118890308D01*
X256079001Y-118910128D01*
X256032286Y-118929770D01*
X256032286Y-118878950D01*
X256046496Y-118805082D01*
X256088675Y-118737327D01*
X256110624Y-118714661D01*
X256160517Y-118685569D01*
X256223967Y-118672400D01*
X256289744Y-118675968D01*
G37*
X256289744Y-118675968D02*
X256346616Y-118697087D01*
X256347267Y-118697493D01*
X256382440Y-118723380D01*
X256408407Y-118753633D01*
X256426670Y-118793058D01*
X256438732Y-118846462D01*
X256446096Y-118918651D01*
X256450264Y-119014432D01*
X256450629Y-119028078D01*
X256455876Y-119233842D01*
X256411716Y-119256678D01*
X256379763Y-119272110D01*
X256360470Y-119279423D01*
X256359578Y-119279514D01*
X256356239Y-119266022D01*
X256353587Y-119229626D01*
X256351956Y-119176452D01*
X256351600Y-119133393D01*
X256351592Y-119063641D01*
X256348403Y-119019837D01*
X256337288Y-118998944D01*
X256313501Y-118997925D01*
X256272296Y-119013741D01*
X256210086Y-119042815D01*
X256164341Y-119066963D01*
X256140813Y-119087913D01*
X256133896Y-119110747D01*
X256133886Y-119111877D01*
X256145299Y-119151212D01*
X256179092Y-119172462D01*
X256230809Y-119175539D01*
X256268061Y-119175006D01*
X256287703Y-119185735D01*
X256299952Y-119211505D01*
X256307002Y-119244337D01*
X256296842Y-119262966D01*
X256293017Y-119265632D01*
X256257001Y-119276340D01*
X256206566Y-119277856D01*
X256154626Y-119270759D01*
X256117822Y-119257788D01*
X256066938Y-119214585D01*
X256038014Y-119154446D01*
X256032286Y-119107462D01*
X256036657Y-119065082D01*
X256052475Y-119030488D01*
X256083797Y-118999763D01*
X256134678Y-118968990D01*
X256209176Y-118934252D01*
X256213714Y-118932288D01*
X256280821Y-118901287D01*
X256322232Y-118875862D01*
X256339981Y-118853014D01*
X256336107Y-118829745D01*
X256312643Y-118803056D01*
X256305627Y-118796914D01*
X256258630Y-118773100D01*
X256209933Y-118774103D01*
X256167522Y-118797451D01*
X256139384Y-118840675D01*
X256136769Y-118849160D01*
X256111308Y-118890308D01*
X256079001Y-118910128D01*
X256032286Y-118929770D01*
X256032286Y-118878950D01*
X256046496Y-118805082D01*
X256088675Y-118737327D01*
X256110624Y-118714661D01*
X256160517Y-118685569D01*
X256223967Y-118672400D01*
X256289744Y-118675968D01*
G36*
X256779926Y-118674755D02*
G01*
X256845858Y-118699084D01*
X256899273Y-118742117D01*
X256920164Y-118772409D01*
X256942939Y-118827994D01*
X256942466Y-118868186D01*
X256918562Y-118895217D01*
X256909717Y-118899813D01*
X256871530Y-118914144D01*
X256852028Y-118910472D01*
X256845422Y-118886407D01*
X256845086Y-118873114D01*
X256832992Y-118824210D01*
X256801471Y-118789999D01*
X256757659Y-118773476D01*
X256708695Y-118777634D01*
X256668894Y-118799227D01*
X256655450Y-118811544D01*
X256645921Y-118826487D01*
X256639485Y-118849075D01*
X256635317Y-118884328D01*
X256632597Y-118937266D01*
X256630502Y-119012907D01*
X256629960Y-119036857D01*
X256627981Y-119118790D01*
X256625731Y-119176455D01*
X256622357Y-119214608D01*
X256617006Y-119238004D01*
X256608824Y-119251398D01*
X256596959Y-119259545D01*
X256589362Y-119263144D01*
X256557102Y-119275452D01*
X256538111Y-119279514D01*
X256531836Y-119265948D01*
X256528006Y-119224934D01*
X256526600Y-119155999D01*
X256527598Y-119058669D01*
X256527908Y-119043657D01*
X256530101Y-118954859D01*
X256532693Y-118890019D01*
X256536382Y-118844067D01*
X256541864Y-118811935D01*
X256549835Y-118788553D01*
X256560993Y-118768852D01*
X256566830Y-118760410D01*
X256600296Y-118723057D01*
X256637727Y-118694003D01*
X256642309Y-118691467D01*
X256709426Y-118671443D01*
X256779926Y-118674755D01*
G37*
X256779926Y-118674755D02*
X256845858Y-118699084D01*
X256899273Y-118742117D01*
X256920164Y-118772409D01*
X256942939Y-118827994D01*
X256942466Y-118868186D01*
X256918562Y-118895217D01*
X256909717Y-118899813D01*
X256871530Y-118914144D01*
X256852028Y-118910472D01*
X256845422Y-118886407D01*
X256845086Y-118873114D01*
X256832992Y-118824210D01*
X256801471Y-118789999D01*
X256757659Y-118773476D01*
X256708695Y-118777634D01*
X256668894Y-118799227D01*
X256655450Y-118811544D01*
X256645921Y-118826487D01*
X256639485Y-118849075D01*
X256635317Y-118884328D01*
X256632597Y-118937266D01*
X256630502Y-119012907D01*
X256629960Y-119036857D01*
X256627981Y-119118790D01*
X256625731Y-119176455D01*
X256622357Y-119214608D01*
X256617006Y-119238004D01*
X256608824Y-119251398D01*
X256596959Y-119259545D01*
X256589362Y-119263144D01*
X256557102Y-119275452D01*
X256538111Y-119279514D01*
X256531836Y-119265948D01*
X256528006Y-119224934D01*
X256526600Y-119155999D01*
X256527598Y-119058669D01*
X256527908Y-119043657D01*
X256530101Y-118954859D01*
X256532693Y-118890019D01*
X256536382Y-118844067D01*
X256541864Y-118811935D01*
X256549835Y-118788553D01*
X256560993Y-118768852D01*
X256566830Y-118760410D01*
X256600296Y-118723057D01*
X256637727Y-118694003D01*
X256642309Y-118691467D01*
X256709426Y-118671443D01*
X256779926Y-118674755D01*
G36*
X257440117Y-118790358D02*
G01*
X257439933Y-118898837D01*
X257439219Y-118982287D01*
X257437675Y-119044704D01*
X257435001Y-119090085D01*
X257430894Y-119122429D01*
X257425055Y-119145733D01*
X257417182Y-119163995D01*
X257411221Y-119174418D01*
X257361855Y-119230945D01*
X257299264Y-119266377D01*
X257230013Y-119279090D01*
X257160668Y-119267463D01*
X257119375Y-119246568D01*
X257076025Y-119210422D01*
X257046481Y-119166276D01*
X257028655Y-119108462D01*
X257020463Y-119031313D01*
X257019302Y-118974714D01*
X257019458Y-118970647D01*
X257120857Y-118970647D01*
X257121476Y-119035550D01*
X257124314Y-119078514D01*
X257130840Y-119106622D01*
X257142523Y-119126953D01*
X257156483Y-119142288D01*
X257203365Y-119171890D01*
X257253701Y-119174419D01*
X257301276Y-119149705D01*
X257304979Y-119146356D01*
X257320783Y-119128935D01*
X257330693Y-119108209D01*
X257336058Y-119077362D01*
X257338228Y-119029577D01*
X257338571Y-118976748D01*
X257337827Y-118910381D01*
X257334748Y-118866106D01*
X257328061Y-118837009D01*
X257316496Y-118816173D01*
X257307013Y-118805107D01*
X257262960Y-118777198D01*
X257212224Y-118773843D01*
X257163796Y-118795159D01*
X257154450Y-118803073D01*
X257138540Y-118820647D01*
X257128610Y-118841587D01*
X257123278Y-118872782D01*
X257121163Y-118921122D01*
X257120857Y-118970647D01*
X257019458Y-118970647D01*
X257022810Y-118883568D01*
X257034726Y-118815086D01*
X257057135Y-118763600D01*
X257092124Y-118723443D01*
X257119375Y-118702861D01*
X257168907Y-118680625D01*
X257226316Y-118670304D01*
X257279682Y-118673067D01*
X257309543Y-118684212D01*
X257321261Y-118687383D01*
X257329037Y-118675557D01*
X257334465Y-118643866D01*
X257338571Y-118595593D01*
X257343067Y-118541829D01*
X257349313Y-118509482D01*
X257360676Y-118490985D01*
X257380528Y-118478770D01*
X257393000Y-118473362D01*
X257440171Y-118453601D01*
X257440117Y-118790358D01*
G37*
X257440117Y-118790358D02*
X257439933Y-118898837D01*
X257439219Y-118982287D01*
X257437675Y-119044704D01*
X257435001Y-119090085D01*
X257430894Y-119122429D01*
X257425055Y-119145733D01*
X257417182Y-119163995D01*
X257411221Y-119174418D01*
X257361855Y-119230945D01*
X257299264Y-119266377D01*
X257230013Y-119279090D01*
X257160668Y-119267463D01*
X257119375Y-119246568D01*
X257076025Y-119210422D01*
X257046481Y-119166276D01*
X257028655Y-119108462D01*
X257020463Y-119031313D01*
X257019302Y-118974714D01*
X257019458Y-118970647D01*
X257120857Y-118970647D01*
X257121476Y-119035550D01*
X257124314Y-119078514D01*
X257130840Y-119106622D01*
X257142523Y-119126953D01*
X257156483Y-119142288D01*
X257203365Y-119171890D01*
X257253701Y-119174419D01*
X257301276Y-119149705D01*
X257304979Y-119146356D01*
X257320783Y-119128935D01*
X257330693Y-119108209D01*
X257336058Y-119077362D01*
X257338228Y-119029577D01*
X257338571Y-118976748D01*
X257337827Y-118910381D01*
X257334748Y-118866106D01*
X257328061Y-118837009D01*
X257316496Y-118816173D01*
X257307013Y-118805107D01*
X257262960Y-118777198D01*
X257212224Y-118773843D01*
X257163796Y-118795159D01*
X257154450Y-118803073D01*
X257138540Y-118820647D01*
X257128610Y-118841587D01*
X257123278Y-118872782D01*
X257121163Y-118921122D01*
X257120857Y-118970647D01*
X257019458Y-118970647D01*
X257022810Y-118883568D01*
X257034726Y-118815086D01*
X257057135Y-118763600D01*
X257092124Y-118723443D01*
X257119375Y-118702861D01*
X257168907Y-118680625D01*
X257226316Y-118670304D01*
X257279682Y-118673067D01*
X257309543Y-118684212D01*
X257321261Y-118687383D01*
X257329037Y-118675557D01*
X257334465Y-118643866D01*
X257338571Y-118595593D01*
X257343067Y-118541829D01*
X257349313Y-118509482D01*
X257360676Y-118490985D01*
X257380528Y-118478770D01*
X257393000Y-118473362D01*
X257440171Y-118453601D01*
X257440117Y-118790358D01*
G36*
X258029833Y-118683663D02*
G01*
X258032048Y-118721850D01*
X258033784Y-118779886D01*
X258034899Y-118853180D01*
X258035257Y-118930055D01*
X258035257Y-119190196D01*
X257989326Y-119236127D01*
X257957675Y-119264429D01*
X257929890Y-119275893D01*
X257891915Y-119275168D01*
X257876840Y-119273321D01*
X257829726Y-119267948D01*
X257790756Y-119264869D01*
X257781257Y-119264585D01*
X257749233Y-119266445D01*
X257703432Y-119271114D01*
X257685674Y-119273321D01*
X257642057Y-119276735D01*
X257612745Y-119269320D01*
X257583680Y-119246427D01*
X257573188Y-119236127D01*
X257527257Y-119190196D01*
X257527257Y-118703602D01*
X257564226Y-118686758D01*
X257596059Y-118674282D01*
X257614683Y-118669914D01*
X257619458Y-118683718D01*
X257623921Y-118722286D01*
X257627775Y-118781356D01*
X257630722Y-118856663D01*
X257632143Y-118920286D01*
X257636114Y-119170657D01*
X257670759Y-119175556D01*
X257702268Y-119172131D01*
X257717708Y-119161041D01*
X257722023Y-119140308D01*
X257725708Y-119096145D01*
X257728469Y-119034146D01*
X257730012Y-118959909D01*
X257730235Y-118921706D01*
X257730457Y-118701783D01*
X257776166Y-118685849D01*
X257808518Y-118675015D01*
X257826115Y-118669962D01*
X257826623Y-118669914D01*
X257828388Y-118683648D01*
X257830329Y-118721730D01*
X257832282Y-118779482D01*
X257834084Y-118852227D01*
X257835343Y-118920286D01*
X257839314Y-119170657D01*
X257926400Y-119170657D01*
X257930396Y-118942240D01*
X257934392Y-118713822D01*
X257976847Y-118691868D01*
X258008192Y-118676793D01*
X258026744Y-118669951D01*
X258027279Y-118669914D01*
X258029833Y-118683663D01*
G37*
X258029833Y-118683663D02*
X258032048Y-118721850D01*
X258033784Y-118779886D01*
X258034899Y-118853180D01*
X258035257Y-118930055D01*
X258035257Y-119190196D01*
X257989326Y-119236127D01*
X257957675Y-119264429D01*
X257929890Y-119275893D01*
X257891915Y-119275168D01*
X257876840Y-119273321D01*
X257829726Y-119267948D01*
X257790756Y-119264869D01*
X257781257Y-119264585D01*
X257749233Y-119266445D01*
X257703432Y-119271114D01*
X257685674Y-119273321D01*
X257642057Y-119276735D01*
X257612745Y-119269320D01*
X257583680Y-119246427D01*
X257573188Y-119236127D01*
X257527257Y-119190196D01*
X257527257Y-118703602D01*
X257564226Y-118686758D01*
X257596059Y-118674282D01*
X257614683Y-118669914D01*
X257619458Y-118683718D01*
X257623921Y-118722286D01*
X257627775Y-118781356D01*
X257630722Y-118856663D01*
X257632143Y-118920286D01*
X257636114Y-119170657D01*
X257670759Y-119175556D01*
X257702268Y-119172131D01*
X257717708Y-119161041D01*
X257722023Y-119140308D01*
X257725708Y-119096145D01*
X257728469Y-119034146D01*
X257730012Y-118959909D01*
X257730235Y-118921706D01*
X257730457Y-118701783D01*
X257776166Y-118685849D01*
X257808518Y-118675015D01*
X257826115Y-118669962D01*
X257826623Y-118669914D01*
X257828388Y-118683648D01*
X257830329Y-118721730D01*
X257832282Y-118779482D01*
X257834084Y-118852227D01*
X257835343Y-118920286D01*
X257839314Y-119170657D01*
X257926400Y-119170657D01*
X257930396Y-118942240D01*
X257934392Y-118713822D01*
X257976847Y-118691868D01*
X258008192Y-118676793D01*
X258026744Y-118669951D01*
X258027279Y-118669914D01*
X258029833Y-118683663D01*
G36*
X258394876Y-118681335D02*
G01*
X258436667Y-118700344D01*
X258469469Y-118723378D01*
X258493503Y-118749133D01*
X258510097Y-118782358D01*
X258520577Y-118827800D01*
X258526271Y-118890207D01*
X258528507Y-118974327D01*
X258528743Y-119029721D01*
X258528743Y-119245826D01*
X258491774Y-119262670D01*
X258462656Y-119274981D01*
X258448231Y-119279514D01*
X258445472Y-119266025D01*
X258443282Y-119229653D01*
X258441942Y-119176542D01*
X258441657Y-119134372D01*
X258440434Y-119073447D01*
X258437136Y-119025115D01*
X258432321Y-118995518D01*
X258428496Y-118989229D01*
X258402783Y-118995652D01*
X258362418Y-119012125D01*
X258315679Y-119034458D01*
X258270845Y-119058457D01*
X258236193Y-119079930D01*
X258220002Y-119094685D01*
X258219938Y-119094845D01*
X258221330Y-119122152D01*
X258233818Y-119148219D01*
X258255743Y-119169392D01*
X258287743Y-119176474D01*
X258315092Y-119175649D01*
X258353826Y-119175042D01*
X258374158Y-119184116D01*
X258386369Y-119208092D01*
X258387909Y-119212613D01*
X258393203Y-119246806D01*
X258379047Y-119267568D01*
X258342148Y-119277462D01*
X258302289Y-119279292D01*
X258230562Y-119265727D01*
X258193432Y-119246355D01*
X258147576Y-119200845D01*
X258123256Y-119144983D01*
X258121073Y-119085957D01*
X258141629Y-119030953D01*
X258172549Y-118996486D01*
X258203420Y-118977189D01*
X258251942Y-118952759D01*
X258308485Y-118927985D01*
X258317910Y-118924199D01*
X258380019Y-118896791D01*
X258415822Y-118872634D01*
X258427337Y-118848619D01*
X258416580Y-118821635D01*
X258398114Y-118800543D01*
X258354469Y-118774572D01*
X258306446Y-118772624D01*
X258262406Y-118792637D01*
X258230709Y-118832551D01*
X258226549Y-118842848D01*
X258202327Y-118880724D01*
X258166965Y-118908842D01*
X258122343Y-118931917D01*
X258122343Y-118866485D01*
X258124969Y-118826506D01*
X258136230Y-118794997D01*
X258161199Y-118761378D01*
X258185169Y-118735484D01*
X258222441Y-118698817D01*
X258251401Y-118679121D01*
X258282505Y-118671220D01*
X258317713Y-118669914D01*
X258394876Y-118681335D01*
G37*
X258394876Y-118681335D02*
X258436667Y-118700344D01*
X258469469Y-118723378D01*
X258493503Y-118749133D01*
X258510097Y-118782358D01*
X258520577Y-118827800D01*
X258526271Y-118890207D01*
X258528507Y-118974327D01*
X258528743Y-119029721D01*
X258528743Y-119245826D01*
X258491774Y-119262670D01*
X258462656Y-119274981D01*
X258448231Y-119279514D01*
X258445472Y-119266025D01*
X258443282Y-119229653D01*
X258441942Y-119176542D01*
X258441657Y-119134372D01*
X258440434Y-119073447D01*
X258437136Y-119025115D01*
X258432321Y-118995518D01*
X258428496Y-118989229D01*
X258402783Y-118995652D01*
X258362418Y-119012125D01*
X258315679Y-119034458D01*
X258270845Y-119058457D01*
X258236193Y-119079930D01*
X258220002Y-119094685D01*
X258219938Y-119094845D01*
X258221330Y-119122152D01*
X258233818Y-119148219D01*
X258255743Y-119169392D01*
X258287743Y-119176474D01*
X258315092Y-119175649D01*
X258353826Y-119175042D01*
X258374158Y-119184116D01*
X258386369Y-119208092D01*
X258387909Y-119212613D01*
X258393203Y-119246806D01*
X258379047Y-119267568D01*
X258342148Y-119277462D01*
X258302289Y-119279292D01*
X258230562Y-119265727D01*
X258193432Y-119246355D01*
X258147576Y-119200845D01*
X258123256Y-119144983D01*
X258121073Y-119085957D01*
X258141629Y-119030953D01*
X258172549Y-118996486D01*
X258203420Y-118977189D01*
X258251942Y-118952759D01*
X258308485Y-118927985D01*
X258317910Y-118924199D01*
X258380019Y-118896791D01*
X258415822Y-118872634D01*
X258427337Y-118848619D01*
X258416580Y-118821635D01*
X258398114Y-118800543D01*
X258354469Y-118774572D01*
X258306446Y-118772624D01*
X258262406Y-118792637D01*
X258230709Y-118832551D01*
X258226549Y-118842848D01*
X258202327Y-118880724D01*
X258166965Y-118908842D01*
X258122343Y-118931917D01*
X258122343Y-118866485D01*
X258124969Y-118826506D01*
X258136230Y-118794997D01*
X258161199Y-118761378D01*
X258185169Y-118735484D01*
X258222441Y-118698817D01*
X258251401Y-118679121D01*
X258282505Y-118671220D01*
X258317713Y-118669914D01*
X258394876Y-118681335D01*
G36*
X258902600Y-118683752D02*
G01*
X258919948Y-118691334D01*
X258961356Y-118724128D01*
X258996765Y-118771547D01*
X259018664Y-118822151D01*
X259022229Y-118847098D01*
X259010279Y-118881927D01*
X258984067Y-118900357D01*
X258955964Y-118911516D01*
X258943095Y-118913572D01*
X258936829Y-118898649D01*
X258924456Y-118866175D01*
X258919028Y-118851502D01*
X258888590Y-118800744D01*
X258844520Y-118775427D01*
X258788010Y-118776206D01*
X258783825Y-118777203D01*
X258753655Y-118791507D01*
X258731476Y-118819393D01*
X258716327Y-118864287D01*
X258707250Y-118929615D01*
X258703286Y-119018804D01*
X258702914Y-119066261D01*
X258702730Y-119141071D01*
X258701522Y-119192069D01*
X258698309Y-119224471D01*
X258692109Y-119243495D01*
X258681940Y-119254356D01*
X258666819Y-119262272D01*
X258665946Y-119262670D01*
X258636828Y-119274981D01*
X258622403Y-119279514D01*
X258620186Y-119265809D01*
X258618289Y-119227925D01*
X258616847Y-119170715D01*
X258615998Y-119099027D01*
X258615829Y-119046565D01*
X258616692Y-118945047D01*
X258620070Y-118868032D01*
X258627142Y-118811023D01*
X258639088Y-118769526D01*
X258657090Y-118739043D01*
X258682327Y-118715080D01*
X258707247Y-118698355D01*
X258767171Y-118676097D01*
X258836911Y-118671076D01*
X258902600Y-118683752D01*
G37*
X258902600Y-118683752D02*
X258919948Y-118691334D01*
X258961356Y-118724128D01*
X258996765Y-118771547D01*
X259018664Y-118822151D01*
X259022229Y-118847098D01*
X259010279Y-118881927D01*
X258984067Y-118900357D01*
X258955964Y-118911516D01*
X258943095Y-118913572D01*
X258936829Y-118898649D01*
X258924456Y-118866175D01*
X258919028Y-118851502D01*
X258888590Y-118800744D01*
X258844520Y-118775427D01*
X258788010Y-118776206D01*
X258783825Y-118777203D01*
X258753655Y-118791507D01*
X258731476Y-118819393D01*
X258716327Y-118864287D01*
X258707250Y-118929615D01*
X258703286Y-119018804D01*
X258702914Y-119066261D01*
X258702730Y-119141071D01*
X258701522Y-119192069D01*
X258698309Y-119224471D01*
X258692109Y-119243495D01*
X258681940Y-119254356D01*
X258666819Y-119262272D01*
X258665946Y-119262670D01*
X258636828Y-119274981D01*
X258622403Y-119279514D01*
X258620186Y-119265809D01*
X258618289Y-119227925D01*
X258616847Y-119170715D01*
X258615998Y-119099027D01*
X258615829Y-119046565D01*
X258616692Y-118945047D01*
X258620070Y-118868032D01*
X258627142Y-118811023D01*
X258639088Y-118769526D01*
X258657090Y-118739043D01*
X258682327Y-118715080D01*
X258707247Y-118698355D01*
X258767171Y-118676097D01*
X258836911Y-118671076D01*
X258902600Y-118683752D01*
G36*
X259403595Y-118691966D02*
G01*
X259461021Y-118729497D01*
X259488719Y-118763096D01*
X259510662Y-118824064D01*
X259512405Y-118872308D01*
X259508457Y-118936816D01*
X259359686Y-119001934D01*
X259287349Y-119035202D01*
X259240084Y-119061964D01*
X259215507Y-119085144D01*
X259211237Y-119107667D01*
X259224889Y-119132455D01*
X259239943Y-119148886D01*
X259283746Y-119175235D01*
X259331389Y-119177081D01*
X259375145Y-119156546D01*
X259407289Y-119115752D01*
X259413038Y-119101347D01*
X259440576Y-119056356D01*
X259472258Y-119037182D01*
X259515714Y-119020779D01*
X259515714Y-119082966D01*
X259511872Y-119125283D01*
X259496823Y-119160969D01*
X259465280Y-119201943D01*
X259460592Y-119207267D01*
X259425506Y-119243720D01*
X259395347Y-119263283D01*
X259357615Y-119272283D01*
X259326335Y-119275230D01*
X259270385Y-119275965D01*
X259230555Y-119266660D01*
X259205708Y-119252846D01*
X259166656Y-119222467D01*
X259139625Y-119189613D01*
X259122517Y-119148294D01*
X259113238Y-119092521D01*
X259109693Y-119016305D01*
X259109410Y-118977622D01*
X259110372Y-118931247D01*
X259198007Y-118931247D01*
X259199023Y-118956126D01*
X259201556Y-118960200D01*
X259218274Y-118954665D01*
X259254249Y-118940017D01*
X259302331Y-118919190D01*
X259312386Y-118914714D01*
X259373152Y-118883814D01*
X259406632Y-118856657D01*
X259413990Y-118831220D01*
X259396391Y-118805481D01*
X259381856Y-118794109D01*
X259329410Y-118771364D01*
X259280322Y-118775122D01*
X259239227Y-118802884D01*
X259210758Y-118852152D01*
X259201631Y-118891257D01*
X259198007Y-118931247D01*
X259110372Y-118931247D01*
X259111285Y-118887249D01*
X259118196Y-118820384D01*
X259131884Y-118771695D01*
X259154096Y-118735849D01*
X259186574Y-118707513D01*
X259200733Y-118698355D01*
X259265053Y-118674507D01*
X259335473Y-118673006D01*
X259403595Y-118691966D01*
G37*
X259403595Y-118691966D02*
X259461021Y-118729497D01*
X259488719Y-118763096D01*
X259510662Y-118824064D01*
X259512405Y-118872308D01*
X259508457Y-118936816D01*
X259359686Y-119001934D01*
X259287349Y-119035202D01*
X259240084Y-119061964D01*
X259215507Y-119085144D01*
X259211237Y-119107667D01*
X259224889Y-119132455D01*
X259239943Y-119148886D01*
X259283746Y-119175235D01*
X259331389Y-119177081D01*
X259375145Y-119156546D01*
X259407289Y-119115752D01*
X259413038Y-119101347D01*
X259440576Y-119056356D01*
X259472258Y-119037182D01*
X259515714Y-119020779D01*
X259515714Y-119082966D01*
X259511872Y-119125283D01*
X259496823Y-119160969D01*
X259465280Y-119201943D01*
X259460592Y-119207267D01*
X259425506Y-119243720D01*
X259395347Y-119263283D01*
X259357615Y-119272283D01*
X259326335Y-119275230D01*
X259270385Y-119275965D01*
X259230555Y-119266660D01*
X259205708Y-119252846D01*
X259166656Y-119222467D01*
X259139625Y-119189613D01*
X259122517Y-119148294D01*
X259113238Y-119092521D01*
X259109693Y-119016305D01*
X259109410Y-118977622D01*
X259110372Y-118931247D01*
X259198007Y-118931247D01*
X259199023Y-118956126D01*
X259201556Y-118960200D01*
X259218274Y-118954665D01*
X259254249Y-118940017D01*
X259302331Y-118919190D01*
X259312386Y-118914714D01*
X259373152Y-118883814D01*
X259406632Y-118856657D01*
X259413990Y-118831220D01*
X259396391Y-118805481D01*
X259381856Y-118794109D01*
X259329410Y-118771364D01*
X259280322Y-118775122D01*
X259239227Y-118802884D01*
X259210758Y-118852152D01*
X259201631Y-118891257D01*
X259198007Y-118931247D01*
X259110372Y-118931247D01*
X259111285Y-118887249D01*
X259118196Y-118820384D01*
X259131884Y-118771695D01*
X259154096Y-118735849D01*
X259186574Y-118707513D01*
X259200733Y-118698355D01*
X259265053Y-118674507D01*
X259335473Y-118673006D01*
X259403595Y-118691966D01*
G36*
X256353910Y-113967348D02*
G01*
X256432454Y-113967778D01*
X256489298Y-113968942D01*
X256528105Y-113971207D01*
X256552538Y-113974940D01*
X256566262Y-113980506D01*
X256572940Y-113988273D01*
X256576236Y-113998605D01*
X256576556Y-113999943D01*
X256581562Y-114024079D01*
X256590829Y-114071701D01*
X256603392Y-114137741D01*
X256618287Y-114217128D01*
X256634551Y-114304796D01*
X256635119Y-114307875D01*
X256651410Y-114393789D01*
X256666652Y-114469696D01*
X256679861Y-114531045D01*
X256690054Y-114573282D01*
X256696248Y-114591855D01*
X256696543Y-114592184D01*
X256714788Y-114601253D01*
X256752405Y-114616367D01*
X256801271Y-114634262D01*
X256801543Y-114634358D01*
X256863093Y-114657493D01*
X256935657Y-114686965D01*
X257004057Y-114716597D01*
X257007294Y-114718062D01*
X257118702Y-114768626D01*
X257365399Y-114600160D01*
X257441077Y-114548803D01*
X257509631Y-114502889D01*
X257567088Y-114465030D01*
X257609476Y-114437837D01*
X257632825Y-114423921D01*
X257635042Y-114422889D01*
X257652010Y-114427484D01*
X257683701Y-114449655D01*
X257731352Y-114490447D01*
X257796198Y-114550905D01*
X257862397Y-114615227D01*
X257926214Y-114678612D01*
X257983329Y-114736451D01*
X258030305Y-114785175D01*
X258063703Y-114821210D01*
X258080085Y-114840984D01*
X258080694Y-114842002D01*
X258082505Y-114855572D01*
X258075683Y-114877733D01*
X258058540Y-114911478D01*
X258029393Y-114959800D01*
X257986555Y-115025692D01*
X257929448Y-115110517D01*
X257878766Y-115185177D01*
X257833461Y-115252140D01*
X257796150Y-115307516D01*
X257769452Y-115347420D01*
X257755985Y-115367962D01*
X257755137Y-115369356D01*
X257756781Y-115389038D01*
X257769245Y-115427293D01*
X257790048Y-115476889D01*
X257797462Y-115492728D01*
X257829814Y-115563290D01*
X257864328Y-115643353D01*
X257892365Y-115712629D01*
X257912568Y-115764045D01*
X257928615Y-115803119D01*
X257937888Y-115823541D01*
X257939041Y-115825114D01*
X257956096Y-115827721D01*
X257996298Y-115834863D01*
X258054302Y-115845523D01*
X258124763Y-115858685D01*
X258202335Y-115873333D01*
X258281672Y-115888449D01*
X258357431Y-115903018D01*
X258424264Y-115916022D01*
X258476828Y-115926445D01*
X258509776Y-115933270D01*
X258517857Y-115935199D01*
X258526205Y-115939962D01*
X258532506Y-115950718D01*
X258537045Y-115971098D01*
X258540104Y-116004734D01*
X258541967Y-116055255D01*
X258542918Y-116126292D01*
X258543240Y-116221476D01*
X258543257Y-116260492D01*
X258543257Y-116577799D01*
X258467057Y-116592839D01*
X258424663Y-116600995D01*
X258361400Y-116612899D01*
X258284962Y-116627116D01*
X258203043Y-116642210D01*
X258180400Y-116646355D01*
X258104806Y-116661053D01*
X258038953Y-116675505D01*
X257988366Y-116688375D01*
X257958574Y-116698322D01*
X257953612Y-116701287D01*
X257941426Y-116722283D01*
X257923953Y-116762967D01*
X257904577Y-116815322D01*
X257900734Y-116826600D01*
X257875339Y-116896523D01*
X257843817Y-116975418D01*
X257812969Y-117046266D01*
X257812817Y-117046595D01*
X257761447Y-117157733D01*
X257930399Y-117406253D01*
X258099352Y-117654772D01*
X257882429Y-117872058D01*
X257816819Y-117936726D01*
X257756979Y-117993733D01*
X257706267Y-118040033D01*
X257668046Y-118072584D01*
X257645675Y-118088343D01*
X257642466Y-118089343D01*
X257623626Y-118081469D01*
X257585180Y-118059578D01*
X257531330Y-118026267D01*
X257466276Y-117984131D01*
X257395940Y-117936943D01*
X257324555Y-117888810D01*
X257260908Y-117846928D01*
X257209041Y-117813871D01*
X257172995Y-117792218D01*
X257156867Y-117784543D01*
X257137189Y-117791037D01*
X257099875Y-117808150D01*
X257052621Y-117832326D01*
X257047612Y-117835013D01*
X256983977Y-117866927D01*
X256940341Y-117882579D01*
X256913202Y-117882745D01*
X256899057Y-117868204D01*
X256898975Y-117868000D01*
X256891905Y-117850779D01*
X256875042Y-117809899D01*
X256849695Y-117748525D01*
X256817171Y-117669819D01*
X256778778Y-117576947D01*
X256735822Y-117473072D01*
X256694222Y-117372502D01*
X256648504Y-117261516D01*
X256606526Y-117158703D01*
X256569548Y-117067215D01*
X256538827Y-116990201D01*
X256515622Y-116930815D01*
X256501190Y-116892209D01*
X256496743Y-116877800D01*
X256507896Y-116861272D01*
X256537069Y-116834930D01*
X256575971Y-116805887D01*
X256686757Y-116714039D01*
X256773351Y-116608759D01*
X256834716Y-116492266D01*
X256869815Y-116366776D01*
X256877608Y-116234507D01*
X256871943Y-116173457D01*
X256841078Y-116046795D01*
X256787920Y-115934941D01*
X256715767Y-115839001D01*
X256627917Y-115760076D01*
X256527665Y-115699270D01*
X256418310Y-115657687D01*
X256303147Y-115636428D01*
X256185475Y-115636599D01*
X256068590Y-115659301D01*
X255955789Y-115705638D01*
X255850369Y-115776713D01*
X255806368Y-115816911D01*
X255721979Y-115920129D01*
X255663222Y-116032925D01*
X255629704Y-116152010D01*
X255621035Y-116274095D01*
X255636823Y-116395893D01*
X255676678Y-116514116D01*
X255740207Y-116625475D01*
X255827021Y-116726684D01*
X255924029Y-116805887D01*
X255964437Y-116836162D01*
X255992982Y-116862219D01*
X256003257Y-116877825D01*
X255997877Y-116894843D01*
X255982575Y-116935500D01*
X255958612Y-116996642D01*
X255927244Y-117075119D01*
X255889732Y-117167780D01*
X255847333Y-117271472D01*
X255805663Y-117372526D01*
X255759690Y-117483607D01*
X255717107Y-117586541D01*
X255679221Y-117678165D01*
X255647340Y-117755316D01*
X255622771Y-117814831D01*
X255606820Y-117853544D01*
X255600910Y-117868000D01*
X255586948Y-117882685D01*
X255559940Y-117882642D01*
X255516413Y-117867099D01*
X255452890Y-117835284D01*
X255452388Y-117835013D01*
X255404560Y-117810323D01*
X255365897Y-117792338D01*
X255344095Y-117784614D01*
X255343133Y-117784543D01*
X255326721Y-117792378D01*
X255290487Y-117814165D01*
X255238474Y-117847328D01*
X255174725Y-117889291D01*
X255104060Y-117936943D01*
X255032116Y-117985191D01*
X254967274Y-118027151D01*
X254913735Y-118060227D01*
X254875697Y-118081821D01*
X254857533Y-118089343D01*
X254840808Y-118079457D01*
X254807180Y-118051826D01*
X254760010Y-118009495D01*
X254702658Y-117955505D01*
X254638484Y-117892899D01*
X254617497Y-117871983D01*
X254400499Y-117654623D01*
X254565668Y-117412220D01*
X254615864Y-117337781D01*
X254659919Y-117270972D01*
X254695362Y-117215665D01*
X254719719Y-117175729D01*
X254730522Y-117155036D01*
X254730838Y-117153563D01*
X254725143Y-117134058D01*
X254709826Y-117094822D01*
X254687537Y-117042430D01*
X254671893Y-117007355D01*
X254642641Y-116940201D01*
X254615094Y-116872358D01*
X254593737Y-116815034D01*
X254587935Y-116797572D01*
X254571452Y-116750938D01*
X254555340Y-116714905D01*
X254546490Y-116701287D01*
X254526960Y-116692952D01*
X254484334Y-116681137D01*
X254424145Y-116667181D01*
X254351922Y-116652422D01*
X254319600Y-116646355D01*
X254237522Y-116631273D01*
X254158795Y-116616669D01*
X254091109Y-116603980D01*
X254042160Y-116594642D01*
X254032943Y-116592839D01*
X253956743Y-116577799D01*
X253956743Y-116260492D01*
X253956914Y-116156154D01*
X253957616Y-116077213D01*
X253959134Y-116020038D01*
X253961749Y-115980999D01*
X253965746Y-115956465D01*
X253971409Y-115942805D01*
X253979020Y-115936389D01*
X253982143Y-115935199D01*
X254000978Y-115930980D01*
X254042588Y-115922562D01*
X254101630Y-115910961D01*
X254172757Y-115897195D01*
X254250625Y-115882280D01*
X254329887Y-115867232D01*
X254405198Y-115853069D01*
X254471213Y-115840806D01*
X254522587Y-115831461D01*
X254553975Y-115826050D01*
X254560959Y-115825114D01*
X254567285Y-115812596D01*
X254581290Y-115779246D01*
X254600355Y-115731377D01*
X254607634Y-115712629D01*
X254636996Y-115640195D01*
X254671571Y-115560170D01*
X254702537Y-115492728D01*
X254725323Y-115441159D01*
X254740482Y-115398785D01*
X254745542Y-115372834D01*
X254744736Y-115369356D01*
X254734041Y-115352936D01*
X254709620Y-115316417D01*
X254674095Y-115263687D01*
X254630087Y-115198635D01*
X254580217Y-115125151D01*
X254570356Y-115110645D01*
X254512492Y-115024704D01*
X254469956Y-114959261D01*
X254441054Y-114911304D01*
X254424090Y-114877820D01*
X254417367Y-114855795D01*
X254419190Y-114842217D01*
X254419236Y-114842131D01*
X254433586Y-114824297D01*
X254465323Y-114789817D01*
X254511010Y-114742268D01*
X254567204Y-114685222D01*
X254630468Y-114622255D01*
X254637602Y-114615227D01*
X254717330Y-114538020D01*
X254778857Y-114481330D01*
X254823421Y-114444110D01*
X254852257Y-114425315D01*
X254864958Y-114422889D01*
X254883494Y-114433471D01*
X254921961Y-114457916D01*
X254976386Y-114493612D01*
X255042798Y-114537947D01*
X255117225Y-114588311D01*
X255134601Y-114600160D01*
X255381297Y-114768626D01*
X255492706Y-114718062D01*
X255560457Y-114688595D01*
X255633183Y-114658959D01*
X255695703Y-114635330D01*
X255698457Y-114634358D01*
X255747360Y-114616457D01*
X255785057Y-114601320D01*
X255803425Y-114592210D01*
X255803456Y-114592184D01*
X255809285Y-114575717D01*
X255819192Y-114535219D01*
X255832195Y-114475242D01*
X255847309Y-114400340D01*
X255863552Y-114315064D01*
X255864881Y-114307875D01*
X255881175Y-114220014D01*
X255896133Y-114140260D01*
X255908791Y-114073681D01*
X255918186Y-114025347D01*
X255923354Y-114000325D01*
X255923444Y-113999943D01*
X255926589Y-113989299D01*
X255932704Y-113981262D01*
X255945453Y-113975467D01*
X255968500Y-113971547D01*
X256005509Y-113969135D01*
X256060144Y-113967865D01*
X256136067Y-113967371D01*
X256236944Y-113967286D01*
X256250000Y-113967286D01*
X256353910Y-113967348D01*
G37*
X256353910Y-113967348D02*
X256432454Y-113967778D01*
X256489298Y-113968942D01*
X256528105Y-113971207D01*
X256552538Y-113974940D01*
X256566262Y-113980506D01*
X256572940Y-113988273D01*
X256576236Y-113998605D01*
X256576556Y-113999943D01*
X256581562Y-114024079D01*
X256590829Y-114071701D01*
X256603392Y-114137741D01*
X256618287Y-114217128D01*
X256634551Y-114304796D01*
X256635119Y-114307875D01*
X256651410Y-114393789D01*
X256666652Y-114469696D01*
X256679861Y-114531045D01*
X256690054Y-114573282D01*
X256696248Y-114591855D01*
X256696543Y-114592184D01*
X256714788Y-114601253D01*
X256752405Y-114616367D01*
X256801271Y-114634262D01*
X256801543Y-114634358D01*
X256863093Y-114657493D01*
X256935657Y-114686965D01*
X257004057Y-114716597D01*
X257007294Y-114718062D01*
X257118702Y-114768626D01*
X257365399Y-114600160D01*
X257441077Y-114548803D01*
X257509631Y-114502889D01*
X257567088Y-114465030D01*
X257609476Y-114437837D01*
X257632825Y-114423921D01*
X257635042Y-114422889D01*
X257652010Y-114427484D01*
X257683701Y-114449655D01*
X257731352Y-114490447D01*
X257796198Y-114550905D01*
X257862397Y-114615227D01*
X257926214Y-114678612D01*
X257983329Y-114736451D01*
X258030305Y-114785175D01*
X258063703Y-114821210D01*
X258080085Y-114840984D01*
X258080694Y-114842002D01*
X258082505Y-114855572D01*
X258075683Y-114877733D01*
X258058540Y-114911478D01*
X258029393Y-114959800D01*
X257986555Y-115025692D01*
X257929448Y-115110517D01*
X257878766Y-115185177D01*
X257833461Y-115252140D01*
X257796150Y-115307516D01*
X257769452Y-115347420D01*
X257755985Y-115367962D01*
X257755137Y-115369356D01*
X257756781Y-115389038D01*
X257769245Y-115427293D01*
X257790048Y-115476889D01*
X257797462Y-115492728D01*
X257829814Y-115563290D01*
X257864328Y-115643353D01*
X257892365Y-115712629D01*
X257912568Y-115764045D01*
X257928615Y-115803119D01*
X257937888Y-115823541D01*
X257939041Y-115825114D01*
X257956096Y-115827721D01*
X257996298Y-115834863D01*
X258054302Y-115845523D01*
X258124763Y-115858685D01*
X258202335Y-115873333D01*
X258281672Y-115888449D01*
X258357431Y-115903018D01*
X258424264Y-115916022D01*
X258476828Y-115926445D01*
X258509776Y-115933270D01*
X258517857Y-115935199D01*
X258526205Y-115939962D01*
X258532506Y-115950718D01*
X258537045Y-115971098D01*
X258540104Y-116004734D01*
X258541967Y-116055255D01*
X258542918Y-116126292D01*
X258543240Y-116221476D01*
X258543257Y-116260492D01*
X258543257Y-116577799D01*
X258467057Y-116592839D01*
X258424663Y-116600995D01*
X258361400Y-116612899D01*
X258284962Y-116627116D01*
X258203043Y-116642210D01*
X258180400Y-116646355D01*
X258104806Y-116661053D01*
X258038953Y-116675505D01*
X257988366Y-116688375D01*
X257958574Y-116698322D01*
X257953612Y-116701287D01*
X257941426Y-116722283D01*
X257923953Y-116762967D01*
X257904577Y-116815322D01*
X257900734Y-116826600D01*
X257875339Y-116896523D01*
X257843817Y-116975418D01*
X257812969Y-117046266D01*
X257812817Y-117046595D01*
X257761447Y-117157733D01*
X257930399Y-117406253D01*
X258099352Y-117654772D01*
X257882429Y-117872058D01*
X257816819Y-117936726D01*
X257756979Y-117993733D01*
X257706267Y-118040033D01*
X257668046Y-118072584D01*
X257645675Y-118088343D01*
X257642466Y-118089343D01*
X257623626Y-118081469D01*
X257585180Y-118059578D01*
X257531330Y-118026267D01*
X257466276Y-117984131D01*
X257395940Y-117936943D01*
X257324555Y-117888810D01*
X257260908Y-117846928D01*
X257209041Y-117813871D01*
X257172995Y-117792218D01*
X257156867Y-117784543D01*
X257137189Y-117791037D01*
X257099875Y-117808150D01*
X257052621Y-117832326D01*
X257047612Y-117835013D01*
X256983977Y-117866927D01*
X256940341Y-117882579D01*
X256913202Y-117882745D01*
X256899057Y-117868204D01*
X256898975Y-117868000D01*
X256891905Y-117850779D01*
X256875042Y-117809899D01*
X256849695Y-117748525D01*
X256817171Y-117669819D01*
X256778778Y-117576947D01*
X256735822Y-117473072D01*
X256694222Y-117372502D01*
X256648504Y-117261516D01*
X256606526Y-117158703D01*
X256569548Y-117067215D01*
X256538827Y-116990201D01*
X256515622Y-116930815D01*
X256501190Y-116892209D01*
X256496743Y-116877800D01*
X256507896Y-116861272D01*
X256537069Y-116834930D01*
X256575971Y-116805887D01*
X256686757Y-116714039D01*
X256773351Y-116608759D01*
X256834716Y-116492266D01*
X256869815Y-116366776D01*
X256877608Y-116234507D01*
X256871943Y-116173457D01*
X256841078Y-116046795D01*
X256787920Y-115934941D01*
X256715767Y-115839001D01*
X256627917Y-115760076D01*
X256527665Y-115699270D01*
X256418310Y-115657687D01*
X256303147Y-115636428D01*
X256185475Y-115636599D01*
X256068590Y-115659301D01*
X255955789Y-115705638D01*
X255850369Y-115776713D01*
X255806368Y-115816911D01*
X255721979Y-115920129D01*
X255663222Y-116032925D01*
X255629704Y-116152010D01*
X255621035Y-116274095D01*
X255636823Y-116395893D01*
X255676678Y-116514116D01*
X255740207Y-116625475D01*
X255827021Y-116726684D01*
X255924029Y-116805887D01*
X255964437Y-116836162D01*
X255992982Y-116862219D01*
X256003257Y-116877825D01*
X255997877Y-116894843D01*
X255982575Y-116935500D01*
X255958612Y-116996642D01*
X255927244Y-117075119D01*
X255889732Y-117167780D01*
X255847333Y-117271472D01*
X255805663Y-117372526D01*
X255759690Y-117483607D01*
X255717107Y-117586541D01*
X255679221Y-117678165D01*
X255647340Y-117755316D01*
X255622771Y-117814831D01*
X255606820Y-117853544D01*
X255600910Y-117868000D01*
X255586948Y-117882685D01*
X255559940Y-117882642D01*
X255516413Y-117867099D01*
X255452890Y-117835284D01*
X255452388Y-117835013D01*
X255404560Y-117810323D01*
X255365897Y-117792338D01*
X255344095Y-117784614D01*
X255343133Y-117784543D01*
X255326721Y-117792378D01*
X255290487Y-117814165D01*
X255238474Y-117847328D01*
X255174725Y-117889291D01*
X255104060Y-117936943D01*
X255032116Y-117985191D01*
X254967274Y-118027151D01*
X254913735Y-118060227D01*
X254875697Y-118081821D01*
X254857533Y-118089343D01*
X254840808Y-118079457D01*
X254807180Y-118051826D01*
X254760010Y-118009495D01*
X254702658Y-117955505D01*
X254638484Y-117892899D01*
X254617497Y-117871983D01*
X254400499Y-117654623D01*
X254565668Y-117412220D01*
X254615864Y-117337781D01*
X254659919Y-117270972D01*
X254695362Y-117215665D01*
X254719719Y-117175729D01*
X254730522Y-117155036D01*
X254730838Y-117153563D01*
X254725143Y-117134058D01*
X254709826Y-117094822D01*
X254687537Y-117042430D01*
X254671893Y-117007355D01*
X254642641Y-116940201D01*
X254615094Y-116872358D01*
X254593737Y-116815034D01*
X254587935Y-116797572D01*
X254571452Y-116750938D01*
X254555340Y-116714905D01*
X254546490Y-116701287D01*
X254526960Y-116692952D01*
X254484334Y-116681137D01*
X254424145Y-116667181D01*
X254351922Y-116652422D01*
X254319600Y-116646355D01*
X254237522Y-116631273D01*
X254158795Y-116616669D01*
X254091109Y-116603980D01*
X254042160Y-116594642D01*
X254032943Y-116592839D01*
X253956743Y-116577799D01*
X253956743Y-116260492D01*
X253956914Y-116156154D01*
X253957616Y-116077213D01*
X253959134Y-116020038D01*
X253961749Y-115980999D01*
X253965746Y-115956465D01*
X253971409Y-115942805D01*
X253979020Y-115936389D01*
X253982143Y-115935199D01*
X254000978Y-115930980D01*
X254042588Y-115922562D01*
X254101630Y-115910961D01*
X254172757Y-115897195D01*
X254250625Y-115882280D01*
X254329887Y-115867232D01*
X254405198Y-115853069D01*
X254471213Y-115840806D01*
X254522587Y-115831461D01*
X254553975Y-115826050D01*
X254560959Y-115825114D01*
X254567285Y-115812596D01*
X254581290Y-115779246D01*
X254600355Y-115731377D01*
X254607634Y-115712629D01*
X254636996Y-115640195D01*
X254671571Y-115560170D01*
X254702537Y-115492728D01*
X254725323Y-115441159D01*
X254740482Y-115398785D01*
X254745542Y-115372834D01*
X254744736Y-115369356D01*
X254734041Y-115352936D01*
X254709620Y-115316417D01*
X254674095Y-115263687D01*
X254630087Y-115198635D01*
X254580217Y-115125151D01*
X254570356Y-115110645D01*
X254512492Y-115024704D01*
X254469956Y-114959261D01*
X254441054Y-114911304D01*
X254424090Y-114877820D01*
X254417367Y-114855795D01*
X254419190Y-114842217D01*
X254419236Y-114842131D01*
X254433586Y-114824297D01*
X254465323Y-114789817D01*
X254511010Y-114742268D01*
X254567204Y-114685222D01*
X254630468Y-114622255D01*
X254637602Y-114615227D01*
X254717330Y-114538020D01*
X254778857Y-114481330D01*
X254823421Y-114444110D01*
X254852257Y-114425315D01*
X254864958Y-114422889D01*
X254883494Y-114433471D01*
X254921961Y-114457916D01*
X254976386Y-114493612D01*
X255042798Y-114537947D01*
X255117225Y-114588311D01*
X255134601Y-114600160D01*
X255381297Y-114768626D01*
X255492706Y-114718062D01*
X255560457Y-114688595D01*
X255633183Y-114658959D01*
X255695703Y-114635330D01*
X255698457Y-114634358D01*
X255747360Y-114616457D01*
X255785057Y-114601320D01*
X255803425Y-114592210D01*
X255803456Y-114592184D01*
X255809285Y-114575717D01*
X255819192Y-114535219D01*
X255832195Y-114475242D01*
X255847309Y-114400340D01*
X255863552Y-114315064D01*
X255864881Y-114307875D01*
X255881175Y-114220014D01*
X255896133Y-114140260D01*
X255908791Y-114073681D01*
X255918186Y-114025347D01*
X255923354Y-114000325D01*
X255923444Y-113999943D01*
X255926589Y-113989299D01*
X255932704Y-113981262D01*
X255945453Y-113975467D01*
X255968500Y-113971547D01*
X256005509Y-113969135D01*
X256060144Y-113967865D01*
X256136067Y-113967371D01*
X256236944Y-113967286D01*
X256250000Y-113967286D01*
X256353910Y-113967348D01*
D11*
%TO.C,R4*%
X240793641Y-73295000D02*
X240486359Y-73295000D01*
X240793641Y-74055000D02*
X240486359Y-74055000D01*
%TO.C,R3*%
X240546359Y-71380000D02*
X240853641Y-71380000D01*
X240546359Y-70620000D02*
X240853641Y-70620000D01*
%TO.C,R2*%
X251596359Y-79030000D02*
X251903641Y-79030000D01*
X251596359Y-78270000D02*
X251903641Y-78270000D01*
%TO.C,R1*%
X251953641Y-79645000D02*
X251646359Y-79645000D01*
X251953641Y-80405000D02*
X251646359Y-80405000D01*
%TO.C,J7*%
X224760000Y-112030000D02*
X224760000Y-109370000D01*
X219620000Y-112030000D02*
X224760000Y-112030000D01*
X219620000Y-109370000D02*
X224760000Y-109370000D01*
X219620000Y-112030000D02*
X219620000Y-109370000D01*
X218350000Y-112030000D02*
X217020000Y-112030000D01*
X217020000Y-112030000D02*
X217020000Y-110700000D01*
%TO.C,U3*%
X232350000Y-114690000D02*
X229350000Y-114690000D01*
X230850000Y-119910000D02*
X229350000Y-119910000D01*
D10*
%TO.C,U2*%
X242600000Y-119250000D02*
X242600000Y-118725000D01*
X238300000Y-119250000D02*
X238300000Y-118725000D01*
X238300000Y-114950000D02*
X238300000Y-115475000D01*
X242600000Y-114950000D02*
X242600000Y-115475000D01*
X238300000Y-119250000D02*
X238825000Y-119250000D01*
X238300000Y-114950000D02*
X238825000Y-114950000D01*
X242600000Y-119250000D02*
X242075000Y-119250000D01*
D11*
%TO.C,J6*%
X224730000Y-105770000D02*
X224730000Y-107100000D01*
X223400000Y-105770000D02*
X224730000Y-105770000D01*
X222130000Y-105770000D02*
X222130000Y-108430000D01*
X222130000Y-108430000D02*
X216990000Y-108430000D01*
X222130000Y-105770000D02*
X216990000Y-105770000D01*
X216990000Y-105770000D02*
X216990000Y-108430000D01*
%TO.C,J5*%
X224730000Y-80820000D02*
X224730000Y-82150000D01*
X223400000Y-80820000D02*
X224730000Y-80820000D01*
X222130000Y-80820000D02*
X222130000Y-83480000D01*
X222130000Y-83480000D02*
X216990000Y-83480000D01*
X222130000Y-80820000D02*
X216990000Y-80820000D01*
X216990000Y-80820000D02*
X216990000Y-83480000D01*
%TO.C,C7*%
X233667164Y-115760000D02*
X233882836Y-115760000D01*
X233667164Y-115040000D02*
X233882836Y-115040000D01*
%TO.C,C6*%
X233735000Y-119757836D02*
X233735000Y-119542164D01*
X233015000Y-119757836D02*
X233015000Y-119542164D01*
%TO.C,C5*%
X233767164Y-118460000D02*
X233982836Y-118460000D01*
X233767164Y-117740000D02*
X233982836Y-117740000D01*
%TO.C,C4*%
X243985000Y-118557836D02*
X243985000Y-118342164D01*
X243265000Y-118557836D02*
X243265000Y-118342164D01*
%TO.C,C3*%
X237635000Y-118007836D02*
X237635000Y-117792164D01*
X236915000Y-118007836D02*
X236915000Y-117792164D01*
%TO.C,C2*%
X238607836Y-119915000D02*
X238392164Y-119915000D01*
X238607836Y-120635000D02*
X238392164Y-120635000D01*
%TO.C,C1*%
X236915000Y-115792164D02*
X236915000Y-116007836D01*
X237635000Y-115792164D02*
X237635000Y-116007836D01*
%TO.C,J4*%
X216140000Y-67200000D02*
X216040000Y-66700000D01*
X216440000Y-68500000D02*
X216140000Y-67200000D01*
X216640000Y-70000000D02*
X216440000Y-68500000D01*
X216740000Y-71300000D02*
X216640000Y-70000000D01*
X216740000Y-73100000D02*
X216740000Y-71300000D01*
X216640000Y-74400000D02*
X216740000Y-73100000D01*
X216540000Y-75200000D02*
X216640000Y-74400000D01*
X216240000Y-76900000D02*
X216540000Y-75200000D01*
X216040000Y-77700000D02*
X216240000Y-76900000D01*
X215440000Y-77200000D02*
X215440000Y-67200000D01*
X216940000Y-77700000D02*
X215940000Y-77700000D01*
X216940000Y-66700000D02*
X215940000Y-66700000D01*
X216940000Y-79110000D02*
X216940000Y-65290000D01*
X230860000Y-65290000D02*
X230860000Y-79110000D01*
X228160000Y-65290000D02*
X230860000Y-65290000D01*
X216940000Y-65290000D02*
X217340000Y-65290000D01*
X219860000Y-65290000D02*
X225640000Y-65290000D01*
X228160000Y-79110000D02*
X230860000Y-79110000D01*
X219860000Y-79110000D02*
X225640000Y-79110000D01*
X216940000Y-79110000D02*
X217340000Y-79110000D01*
X215440000Y-77200000D02*
G75*
G03*
X215940000Y-77700000I500000J0D01*
G01*
X215940000Y-66700000D02*
G75*
G03*
X215440000Y-67200000I0J-500000D01*
G01*
%TO.C,J3*%
X222230000Y-104830000D02*
X220900000Y-104830000D01*
X222230000Y-103500000D02*
X222230000Y-104830000D01*
X219630000Y-104830000D02*
X217030000Y-104830000D01*
X219630000Y-102230000D02*
X219630000Y-104830000D01*
X222230000Y-102230000D02*
X219630000Y-102230000D01*
X217030000Y-104830000D02*
X217030000Y-84390000D01*
X222230000Y-102230000D02*
X222230000Y-84390000D01*
X222230000Y-84390000D02*
X217030000Y-84390000D01*
%TO.C,J2*%
X263670000Y-63670000D02*
X265000000Y-63670000D01*
X263670000Y-65000000D02*
X263670000Y-63670000D01*
X266270000Y-63670000D02*
X268870000Y-63670000D01*
X266270000Y-66270000D02*
X266270000Y-63670000D01*
X263670000Y-66270000D02*
X266270000Y-66270000D01*
X268870000Y-63670000D02*
X268870000Y-114590000D01*
X263670000Y-66270000D02*
X263670000Y-114590000D01*
X263670000Y-114590000D02*
X268870000Y-114590000D01*
%TO.C,J1*%
X224780000Y-104830000D02*
X223450000Y-104830000D01*
X224780000Y-103500000D02*
X224780000Y-104830000D01*
X224780000Y-102230000D02*
X222120000Y-102230000D01*
X222120000Y-102230000D02*
X222120000Y-84390000D01*
X224780000Y-102230000D02*
X224780000Y-84390000D01*
X224780000Y-84390000D02*
X222120000Y-84390000D01*
%TO.C,U1*%
X246600000Y-107950000D02*
X247000000Y-107950000D01*
X244000000Y-107950000D02*
X244400000Y-107950000D01*
X256000000Y-107950000D02*
X249200000Y-107950000D01*
X256000000Y-97550000D02*
X256000000Y-97950000D01*
X256000000Y-89850000D02*
X256000000Y-90250000D01*
X256000000Y-64450000D02*
X256000000Y-64850000D01*
X256000000Y-56950000D02*
X256000000Y-57250000D01*
X256000000Y-79750000D02*
X256000000Y-80150000D01*
X256000000Y-94950000D02*
X256000000Y-95350000D01*
X256000000Y-74650000D02*
X256000000Y-75050000D01*
X256000000Y-69550000D02*
X256000000Y-69950000D01*
X256000000Y-82250000D02*
X256000000Y-82650000D01*
X256000000Y-87350000D02*
X256000000Y-87750000D01*
X256000000Y-102550000D02*
X256000000Y-102950000D01*
X256000000Y-105150000D02*
X256000000Y-105550000D01*
X256000000Y-100050000D02*
X256000000Y-100450000D01*
X256000000Y-67050000D02*
X256000000Y-67450000D01*
X256000000Y-59350000D02*
X256000000Y-59750000D01*
X256000000Y-61950000D02*
X256000000Y-62350000D01*
X256000000Y-92450000D02*
X256000000Y-92850000D01*
X256000000Y-84750000D02*
X256000000Y-85150000D01*
X256000000Y-77150000D02*
X256000000Y-77550000D01*
X256000000Y-72050000D02*
X256000000Y-72450000D01*
X235000000Y-105150000D02*
X235000000Y-105550000D01*
X235000000Y-102550000D02*
X235000000Y-102950000D01*
X235000000Y-100050000D02*
X235000000Y-100450000D01*
X235000000Y-97550000D02*
X235000000Y-97950000D01*
X235000000Y-94950000D02*
X235000000Y-95350000D01*
X235000000Y-92450000D02*
X235000000Y-92850000D01*
X235000000Y-89850000D02*
X235000000Y-90250000D01*
X235000000Y-87350000D02*
X235000000Y-87750000D01*
X235000000Y-84750000D02*
X235000000Y-85150000D01*
X235000000Y-82250000D02*
X235000000Y-82650000D01*
X235000000Y-79750000D02*
X235000000Y-80150000D01*
X235000000Y-77150000D02*
X235000000Y-77550000D01*
X235000000Y-74650000D02*
X235000000Y-75050000D01*
X235000000Y-72050000D02*
X235000000Y-72450000D01*
X235000000Y-69550000D02*
X235000000Y-69950000D01*
X235000000Y-67050000D02*
X235000000Y-67450000D01*
X235000000Y-64450000D02*
X235000000Y-64850000D01*
X235000000Y-61950000D02*
X235000000Y-62350000D01*
X235000000Y-59350000D02*
X235000000Y-59750000D01*
X235000000Y-56950000D02*
X235000000Y-57250000D01*
X238007000Y-59617000D02*
X238007000Y-56950000D01*
X235000000Y-59617000D02*
X238007000Y-59617000D01*
X241800000Y-107950000D02*
X235000000Y-107950000D01*
X235000000Y-56950000D02*
X256000000Y-56950000D01*
%TO.C,R4*%
D10*
X240473333Y-75297380D02*
X240140000Y-74821190D01*
X239901904Y-75297380D02*
X239901904Y-74297380D01*
X240282857Y-74297380D01*
X240378095Y-74345000D01*
X240425714Y-74392619D01*
X240473333Y-74487857D01*
X240473333Y-74630714D01*
X240425714Y-74725952D01*
X240378095Y-74773571D01*
X240282857Y-74821190D01*
X239901904Y-74821190D01*
X241330476Y-74630714D02*
X241330476Y-75297380D01*
X241092380Y-74249761D02*
X240854285Y-74964047D01*
X241473333Y-74964047D01*
%TO.C,R3*%
X240533333Y-70282380D02*
X240200000Y-69806190D01*
X239961904Y-70282380D02*
X239961904Y-69282380D01*
X240342857Y-69282380D01*
X240438095Y-69330000D01*
X240485714Y-69377619D01*
X240533333Y-69472857D01*
X240533333Y-69615714D01*
X240485714Y-69710952D01*
X240438095Y-69758571D01*
X240342857Y-69806190D01*
X239961904Y-69806190D01*
X240866666Y-69282380D02*
X241485714Y-69282380D01*
X241152380Y-69663333D01*
X241295238Y-69663333D01*
X241390476Y-69710952D01*
X241438095Y-69758571D01*
X241485714Y-69853809D01*
X241485714Y-70091904D01*
X241438095Y-70187142D01*
X241390476Y-70234761D01*
X241295238Y-70282380D01*
X241009523Y-70282380D01*
X240914285Y-70234761D01*
X240866666Y-70187142D01*
%TO.C,R2*%
X251583333Y-77932380D02*
X251250000Y-77456190D01*
X251011904Y-77932380D02*
X251011904Y-76932380D01*
X251392857Y-76932380D01*
X251488095Y-76980000D01*
X251535714Y-77027619D01*
X251583333Y-77122857D01*
X251583333Y-77265714D01*
X251535714Y-77360952D01*
X251488095Y-77408571D01*
X251392857Y-77456190D01*
X251011904Y-77456190D01*
X251964285Y-77027619D02*
X252011904Y-76980000D01*
X252107142Y-76932380D01*
X252345238Y-76932380D01*
X252440476Y-76980000D01*
X252488095Y-77027619D01*
X252535714Y-77122857D01*
X252535714Y-77218095D01*
X252488095Y-77360952D01*
X251916666Y-77932380D01*
X252535714Y-77932380D01*
%TO.C,R1*%
X251633333Y-81702380D02*
X251300000Y-81226190D01*
X251061904Y-81702380D02*
X251061904Y-80702380D01*
X251442857Y-80702380D01*
X251538095Y-80750000D01*
X251585714Y-80797619D01*
X251633333Y-80892857D01*
X251633333Y-81035714D01*
X251585714Y-81130952D01*
X251538095Y-81178571D01*
X251442857Y-81226190D01*
X251061904Y-81226190D01*
X252585714Y-81702380D02*
X252014285Y-81702380D01*
X252300000Y-81702380D02*
X252300000Y-80702380D01*
X252204761Y-80845238D01*
X252109523Y-80940476D01*
X252014285Y-80988095D01*
%TO.C,U3*%
X230038095Y-116752380D02*
X230038095Y-117561904D01*
X230085714Y-117657142D01*
X230133333Y-117704761D01*
X230228571Y-117752380D01*
X230419047Y-117752380D01*
X230514285Y-117704761D01*
X230561904Y-117657142D01*
X230609523Y-117561904D01*
X230609523Y-116752380D01*
X230990476Y-116752380D02*
X231609523Y-116752380D01*
X231276190Y-117133333D01*
X231419047Y-117133333D01*
X231514285Y-117180952D01*
X231561904Y-117228571D01*
X231609523Y-117323809D01*
X231609523Y-117561904D01*
X231561904Y-117657142D01*
X231514285Y-117704761D01*
X231419047Y-117752380D01*
X231133333Y-117752380D01*
X231038095Y-117704761D01*
X230990476Y-117657142D01*
X224102380Y-121277380D02*
X224102380Y-120277380D01*
X224435714Y-120991666D01*
X224769047Y-120277380D01*
X224769047Y-121277380D01*
X225245238Y-121277380D02*
X225245238Y-120277380D01*
X225626190Y-120277380D01*
X225721428Y-120325000D01*
X225769047Y-120372619D01*
X225816666Y-120467857D01*
X225816666Y-120610714D01*
X225769047Y-120705952D01*
X225721428Y-120753571D01*
X225626190Y-120801190D01*
X225245238Y-120801190D01*
X226721428Y-121277380D02*
X226245238Y-121277380D01*
X226245238Y-120277380D01*
X226959523Y-120277380D02*
X227578571Y-120277380D01*
X227245238Y-120658333D01*
X227388095Y-120658333D01*
X227483333Y-120705952D01*
X227530952Y-120753571D01*
X227578571Y-120848809D01*
X227578571Y-121086904D01*
X227530952Y-121182142D01*
X227483333Y-121229761D01*
X227388095Y-121277380D01*
X227102380Y-121277380D01*
X227007142Y-121229761D01*
X226959523Y-121182142D01*
X228530952Y-121277380D02*
X227959523Y-121277380D01*
X228245238Y-121277380D02*
X228245238Y-120277380D01*
X228150000Y-120420238D01*
X228054761Y-120515476D01*
X227959523Y-120563095D01*
X229483333Y-121277380D02*
X228911904Y-121277380D01*
X229197619Y-121277380D02*
X229197619Y-120277380D01*
X229102380Y-120420238D01*
X229007142Y-120515476D01*
X228911904Y-120563095D01*
X230388095Y-120277380D02*
X229911904Y-120277380D01*
X229864285Y-120753571D01*
X229911904Y-120705952D01*
X230007142Y-120658333D01*
X230245238Y-120658333D01*
X230340476Y-120705952D01*
X230388095Y-120753571D01*
X230435714Y-120848809D01*
X230435714Y-121086904D01*
X230388095Y-121182142D01*
X230340476Y-121229761D01*
X230245238Y-121277380D01*
X230007142Y-121277380D01*
X229911904Y-121229761D01*
X229864285Y-121182142D01*
X230816666Y-120991666D02*
X231292857Y-120991666D01*
X230721428Y-121277380D02*
X231054761Y-120277380D01*
X231388095Y-121277380D01*
X231673809Y-120372619D02*
X231721428Y-120325000D01*
X231816666Y-120277380D01*
X232054761Y-120277380D01*
X232150000Y-120325000D01*
X232197619Y-120372619D01*
X232245238Y-120467857D01*
X232245238Y-120563095D01*
X232197619Y-120705952D01*
X231626190Y-121277380D01*
X232245238Y-121277380D01*
%TO.C,U2*%
X239713095Y-116627380D02*
X239713095Y-117436904D01*
X239760714Y-117532142D01*
X239808333Y-117579761D01*
X239903571Y-117627380D01*
X240094047Y-117627380D01*
X240189285Y-117579761D01*
X240236904Y-117532142D01*
X240284523Y-117436904D01*
X240284523Y-116627380D01*
X240713095Y-116722619D02*
X240760714Y-116675000D01*
X240855952Y-116627380D01*
X241094047Y-116627380D01*
X241189285Y-116675000D01*
X241236904Y-116722619D01*
X241284523Y-116817857D01*
X241284523Y-116913095D01*
X241236904Y-117055952D01*
X240665476Y-117627380D01*
X241284523Y-117627380D01*
X236569047Y-114002380D02*
X236569047Y-113002380D01*
X236902380Y-113716666D01*
X237235714Y-113002380D01*
X237235714Y-114002380D01*
X237711904Y-114002380D02*
X237711904Y-113002380D01*
X238092857Y-113002380D01*
X238188095Y-113050000D01*
X238235714Y-113097619D01*
X238283333Y-113192857D01*
X238283333Y-113335714D01*
X238235714Y-113430952D01*
X238188095Y-113478571D01*
X238092857Y-113526190D01*
X237711904Y-113526190D01*
X238711904Y-113002380D02*
X238711904Y-113811904D01*
X238759523Y-113907142D01*
X238807142Y-113954761D01*
X238902380Y-114002380D01*
X239092857Y-114002380D01*
X239188095Y-113954761D01*
X239235714Y-113907142D01*
X239283333Y-113811904D01*
X239283333Y-113002380D01*
X239759523Y-113621428D02*
X240521428Y-113621428D01*
X241426190Y-113002380D02*
X241235714Y-113002380D01*
X241140476Y-113050000D01*
X241092857Y-113097619D01*
X240997619Y-113240476D01*
X240950000Y-113430952D01*
X240950000Y-113811904D01*
X240997619Y-113907142D01*
X241045238Y-113954761D01*
X241140476Y-114002380D01*
X241330952Y-114002380D01*
X241426190Y-113954761D01*
X241473809Y-113907142D01*
X241521428Y-113811904D01*
X241521428Y-113573809D01*
X241473809Y-113478571D01*
X241426190Y-113430952D01*
X241330952Y-113383333D01*
X241140476Y-113383333D01*
X241045238Y-113430952D01*
X240997619Y-113478571D01*
X240950000Y-113573809D01*
X242140476Y-113002380D02*
X242235714Y-113002380D01*
X242330952Y-113050000D01*
X242378571Y-113097619D01*
X242426190Y-113192857D01*
X242473809Y-113383333D01*
X242473809Y-113621428D01*
X242426190Y-113811904D01*
X242378571Y-113907142D01*
X242330952Y-113954761D01*
X242235714Y-114002380D01*
X242140476Y-114002380D01*
X242045238Y-113954761D01*
X241997619Y-113907142D01*
X241950000Y-113811904D01*
X241902380Y-113621428D01*
X241902380Y-113383333D01*
X241950000Y-113192857D01*
X241997619Y-113097619D01*
X242045238Y-113050000D01*
X242140476Y-113002380D01*
X243378571Y-113002380D02*
X242902380Y-113002380D01*
X242854761Y-113478571D01*
X242902380Y-113430952D01*
X242997619Y-113383333D01*
X243235714Y-113383333D01*
X243330952Y-113430952D01*
X243378571Y-113478571D01*
X243426190Y-113573809D01*
X243426190Y-113811904D01*
X243378571Y-113907142D01*
X243330952Y-113954761D01*
X243235714Y-114002380D01*
X242997619Y-114002380D01*
X242902380Y-113954761D01*
X242854761Y-113907142D01*
X244045238Y-113002380D02*
X244140476Y-113002380D01*
X244235714Y-113050000D01*
X244283333Y-113097619D01*
X244330952Y-113192857D01*
X244378571Y-113383333D01*
X244378571Y-113621428D01*
X244330952Y-113811904D01*
X244283333Y-113907142D01*
X244235714Y-113954761D01*
X244140476Y-114002380D01*
X244045238Y-114002380D01*
X243950000Y-113954761D01*
X243902380Y-113907142D01*
X243854761Y-113811904D01*
X243807142Y-113621428D01*
X243807142Y-113383333D01*
X243854761Y-113192857D01*
X243902380Y-113097619D01*
X243950000Y-113050000D01*
X244045238Y-113002380D01*
%TO.C,C7*%
X233683333Y-114632142D02*
X233635714Y-114679761D01*
X233492857Y-114727380D01*
X233397619Y-114727380D01*
X233254761Y-114679761D01*
X233159523Y-114584523D01*
X233111904Y-114489285D01*
X233064285Y-114298809D01*
X233064285Y-114155952D01*
X233111904Y-113965476D01*
X233159523Y-113870238D01*
X233254761Y-113775000D01*
X233397619Y-113727380D01*
X233492857Y-113727380D01*
X233635714Y-113775000D01*
X233683333Y-113822619D01*
X234016666Y-113727380D02*
X234683333Y-113727380D01*
X234254761Y-114727380D01*
%TO.C,C6*%
X234882142Y-119816666D02*
X234929761Y-119864285D01*
X234977380Y-120007142D01*
X234977380Y-120102380D01*
X234929761Y-120245238D01*
X234834523Y-120340476D01*
X234739285Y-120388095D01*
X234548809Y-120435714D01*
X234405952Y-120435714D01*
X234215476Y-120388095D01*
X234120238Y-120340476D01*
X234025000Y-120245238D01*
X233977380Y-120102380D01*
X233977380Y-120007142D01*
X234025000Y-119864285D01*
X234072619Y-119816666D01*
X233977380Y-118959523D02*
X233977380Y-119150000D01*
X234025000Y-119245238D01*
X234072619Y-119292857D01*
X234215476Y-119388095D01*
X234405952Y-119435714D01*
X234786904Y-119435714D01*
X234882142Y-119388095D01*
X234929761Y-119340476D01*
X234977380Y-119245238D01*
X234977380Y-119054761D01*
X234929761Y-118959523D01*
X234882142Y-118911904D01*
X234786904Y-118864285D01*
X234548809Y-118864285D01*
X234453571Y-118911904D01*
X234405952Y-118959523D01*
X234358333Y-119054761D01*
X234358333Y-119245238D01*
X234405952Y-119340476D01*
X234453571Y-119388095D01*
X234548809Y-119435714D01*
%TO.C,C5*%
X233583333Y-117457142D02*
X233535714Y-117504761D01*
X233392857Y-117552380D01*
X233297619Y-117552380D01*
X233154761Y-117504761D01*
X233059523Y-117409523D01*
X233011904Y-117314285D01*
X232964285Y-117123809D01*
X232964285Y-116980952D01*
X233011904Y-116790476D01*
X233059523Y-116695238D01*
X233154761Y-116600000D01*
X233297619Y-116552380D01*
X233392857Y-116552380D01*
X233535714Y-116600000D01*
X233583333Y-116647619D01*
X234488095Y-116552380D02*
X234011904Y-116552380D01*
X233964285Y-117028571D01*
X234011904Y-116980952D01*
X234107142Y-116933333D01*
X234345238Y-116933333D01*
X234440476Y-116980952D01*
X234488095Y-117028571D01*
X234535714Y-117123809D01*
X234535714Y-117361904D01*
X234488095Y-117457142D01*
X234440476Y-117504761D01*
X234345238Y-117552380D01*
X234107142Y-117552380D01*
X234011904Y-117504761D01*
X233964285Y-117457142D01*
%TO.C,C4*%
X245132142Y-118616666D02*
X245179761Y-118664285D01*
X245227380Y-118807142D01*
X245227380Y-118902380D01*
X245179761Y-119045238D01*
X245084523Y-119140476D01*
X244989285Y-119188095D01*
X244798809Y-119235714D01*
X244655952Y-119235714D01*
X244465476Y-119188095D01*
X244370238Y-119140476D01*
X244275000Y-119045238D01*
X244227380Y-118902380D01*
X244227380Y-118807142D01*
X244275000Y-118664285D01*
X244322619Y-118616666D01*
X244560714Y-117759523D02*
X245227380Y-117759523D01*
X244179761Y-117997619D02*
X244894047Y-118235714D01*
X244894047Y-117616666D01*
%TO.C,C3*%
X236607142Y-118116666D02*
X236654761Y-118164285D01*
X236702380Y-118307142D01*
X236702380Y-118402380D01*
X236654761Y-118545238D01*
X236559523Y-118640476D01*
X236464285Y-118688095D01*
X236273809Y-118735714D01*
X236130952Y-118735714D01*
X235940476Y-118688095D01*
X235845238Y-118640476D01*
X235750000Y-118545238D01*
X235702380Y-118402380D01*
X235702380Y-118307142D01*
X235750000Y-118164285D01*
X235797619Y-118116666D01*
X235702380Y-117783333D02*
X235702380Y-117164285D01*
X236083333Y-117497619D01*
X236083333Y-117354761D01*
X236130952Y-117259523D01*
X236178571Y-117211904D01*
X236273809Y-117164285D01*
X236511904Y-117164285D01*
X236607142Y-117211904D01*
X236654761Y-117259523D01*
X236702380Y-117354761D01*
X236702380Y-117640476D01*
X236654761Y-117735714D01*
X236607142Y-117783333D01*
%TO.C,C2*%
X240233333Y-120807142D02*
X240185714Y-120854761D01*
X240042857Y-120902380D01*
X239947619Y-120902380D01*
X239804761Y-120854761D01*
X239709523Y-120759523D01*
X239661904Y-120664285D01*
X239614285Y-120473809D01*
X239614285Y-120330952D01*
X239661904Y-120140476D01*
X239709523Y-120045238D01*
X239804761Y-119950000D01*
X239947619Y-119902380D01*
X240042857Y-119902380D01*
X240185714Y-119950000D01*
X240233333Y-119997619D01*
X240614285Y-119997619D02*
X240661904Y-119950000D01*
X240757142Y-119902380D01*
X240995238Y-119902380D01*
X241090476Y-119950000D01*
X241138095Y-119997619D01*
X241185714Y-120092857D01*
X241185714Y-120188095D01*
X241138095Y-120330952D01*
X240566666Y-120902380D01*
X241185714Y-120902380D01*
%TO.C,C1*%
X236532142Y-116016666D02*
X236579761Y-116064285D01*
X236627380Y-116207142D01*
X236627380Y-116302380D01*
X236579761Y-116445238D01*
X236484523Y-116540476D01*
X236389285Y-116588095D01*
X236198809Y-116635714D01*
X236055952Y-116635714D01*
X235865476Y-116588095D01*
X235770238Y-116540476D01*
X235675000Y-116445238D01*
X235627380Y-116302380D01*
X235627380Y-116207142D01*
X235675000Y-116064285D01*
X235722619Y-116016666D01*
X236627380Y-115064285D02*
X236627380Y-115635714D01*
X236627380Y-115350000D02*
X235627380Y-115350000D01*
X235770238Y-115445238D01*
X235865476Y-115540476D01*
X235913095Y-115635714D01*
%TO.C,J4*%
X223352380Y-72533333D02*
X224066666Y-72533333D01*
X224209523Y-72580952D01*
X224304761Y-72676190D01*
X224352380Y-72819047D01*
X224352380Y-72914285D01*
X223685714Y-71628571D02*
X224352380Y-71628571D01*
X223304761Y-71866666D02*
X224019047Y-72104761D01*
X224019047Y-71485714D01*
%TO.C,U1*%
X244738095Y-81902380D02*
X244738095Y-82711904D01*
X244785714Y-82807142D01*
X244833333Y-82854761D01*
X244928571Y-82902380D01*
X245119047Y-82902380D01*
X245214285Y-82854761D01*
X245261904Y-82807142D01*
X245309523Y-82711904D01*
X245309523Y-81902380D01*
X246309523Y-82902380D02*
X245738095Y-82902380D01*
X246023809Y-82902380D02*
X246023809Y-81902380D01*
X245928571Y-82045238D01*
X245833333Y-82140476D01*
X245738095Y-82188095D01*
X249404761Y-108973809D02*
X249519047Y-109011904D01*
X249709523Y-109011904D01*
X249785714Y-108973809D01*
X249823809Y-108935714D01*
X249861904Y-108859523D01*
X249861904Y-108783333D01*
X249823809Y-108707142D01*
X249785714Y-108669047D01*
X249709523Y-108630952D01*
X249557142Y-108592857D01*
X249480952Y-108554761D01*
X249442857Y-108516666D01*
X249404761Y-108440476D01*
X249404761Y-108364285D01*
X249442857Y-108288095D01*
X249480952Y-108250000D01*
X249557142Y-108211904D01*
X249747619Y-108211904D01*
X249861904Y-108250000D01*
X250128571Y-108211904D02*
X250319047Y-109011904D01*
X250471428Y-108440476D01*
X250623809Y-109011904D01*
X250814285Y-108211904D01*
X251119047Y-109011904D02*
X251119047Y-108211904D01*
X251309523Y-108211904D01*
X251423809Y-108250000D01*
X251500000Y-108326190D01*
X251538095Y-108402380D01*
X251576190Y-108554761D01*
X251576190Y-108669047D01*
X251538095Y-108821428D01*
X251500000Y-108897619D01*
X251423809Y-108973809D01*
X251309523Y-109011904D01*
X251119047Y-109011904D01*
X251919047Y-109011904D02*
X251919047Y-108211904D01*
X252452380Y-108211904D02*
X252604761Y-108211904D01*
X252680952Y-108250000D01*
X252757142Y-108326190D01*
X252795238Y-108478571D01*
X252795238Y-108745238D01*
X252757142Y-108897619D01*
X252680952Y-108973809D01*
X252604761Y-109011904D01*
X252452380Y-109011904D01*
X252376190Y-108973809D01*
X252300000Y-108897619D01*
X252261904Y-108745238D01*
X252261904Y-108478571D01*
X252300000Y-108326190D01*
X252376190Y-108250000D01*
X252452380Y-108211904D01*
X237990476Y-108973809D02*
X238104761Y-109011904D01*
X238295238Y-109011904D01*
X238371428Y-108973809D01*
X238409523Y-108935714D01*
X238447619Y-108859523D01*
X238447619Y-108783333D01*
X238409523Y-108707142D01*
X238371428Y-108669047D01*
X238295238Y-108630952D01*
X238142857Y-108592857D01*
X238066666Y-108554761D01*
X238028571Y-108516666D01*
X237990476Y-108440476D01*
X237990476Y-108364285D01*
X238028571Y-108288095D01*
X238066666Y-108250000D01*
X238142857Y-108211904D01*
X238333333Y-108211904D01*
X238447619Y-108250000D01*
X238714285Y-108211904D02*
X238904761Y-109011904D01*
X239057142Y-108440476D01*
X239209523Y-109011904D01*
X239400000Y-108211904D01*
X240161904Y-108935714D02*
X240123809Y-108973809D01*
X240009523Y-109011904D01*
X239933333Y-109011904D01*
X239819047Y-108973809D01*
X239742857Y-108897619D01*
X239704761Y-108821428D01*
X239666666Y-108669047D01*
X239666666Y-108554761D01*
X239704761Y-108402380D01*
X239742857Y-108326190D01*
X239819047Y-108250000D01*
X239933333Y-108211904D01*
X240009523Y-108211904D01*
X240123809Y-108250000D01*
X240161904Y-108288095D01*
X240885714Y-109011904D02*
X240504761Y-109011904D01*
X240504761Y-108211904D01*
X241152380Y-109011904D02*
X241152380Y-108211904D01*
X241609523Y-109011904D02*
X241266666Y-108554761D01*
X241609523Y-108211904D02*
X241152380Y-108669047D01*
X257651597Y-77190964D02*
X257920971Y-76921590D01*
X257759346Y-77406463D02*
X257382223Y-76652216D01*
X258136470Y-77029340D01*
X258082595Y-76005719D02*
X258001783Y-76032656D01*
X257920971Y-76113468D01*
X257867096Y-76221218D01*
X257867096Y-76328967D01*
X257894033Y-76409780D01*
X257974845Y-76544467D01*
X258055658Y-76625279D01*
X258190345Y-76706091D01*
X258271157Y-76733028D01*
X258378906Y-76733028D01*
X258486656Y-76679154D01*
X258540531Y-76625279D01*
X258594406Y-76517529D01*
X258594406Y-76463654D01*
X258405844Y-76275093D01*
X258298094Y-76382842D01*
X258890717Y-76275093D02*
X258325032Y-75709407D01*
X259213966Y-75951844D01*
X258648280Y-75386158D01*
X259483340Y-75682470D02*
X258917654Y-75116784D01*
X259052341Y-74982097D01*
X259160091Y-74928223D01*
X259267841Y-74928223D01*
X259348653Y-74955160D01*
X259483340Y-75035972D01*
X259564152Y-75116784D01*
X259644964Y-75251471D01*
X259671902Y-75332284D01*
X259671902Y-75440033D01*
X259618027Y-75547783D01*
X259483340Y-75682470D01*
X257586158Y-63548155D02*
X257505346Y-63575093D01*
X257424534Y-63655905D01*
X257370659Y-63763654D01*
X257370659Y-63871404D01*
X257397597Y-63952216D01*
X257478409Y-64086903D01*
X257559221Y-64167715D01*
X257693908Y-64248528D01*
X257774720Y-64275465D01*
X257882470Y-64275465D01*
X257990219Y-64221590D01*
X258044094Y-64167715D01*
X258097969Y-64059966D01*
X258097969Y-64006091D01*
X257909407Y-63817529D01*
X257801658Y-63925279D01*
X258394280Y-63817529D02*
X257828595Y-63251844D01*
X258717529Y-63494280D01*
X258151844Y-62928595D01*
X258986903Y-63224906D02*
X258421218Y-62659221D01*
X258555905Y-62524534D01*
X258663654Y-62470659D01*
X258771404Y-62470659D01*
X258852216Y-62497597D01*
X258986903Y-62578409D01*
X259067715Y-62659221D01*
X259148528Y-62793908D01*
X259175465Y-62874720D01*
X259175465Y-62982470D01*
X259121590Y-63090219D01*
X258986903Y-63224906D01*
X257586158Y-88948155D02*
X257505346Y-88975093D01*
X257424534Y-89055905D01*
X257370659Y-89163654D01*
X257370659Y-89271404D01*
X257397597Y-89352216D01*
X257478409Y-89486903D01*
X257559221Y-89567715D01*
X257693908Y-89648528D01*
X257774720Y-89675465D01*
X257882470Y-89675465D01*
X257990219Y-89621590D01*
X258044094Y-89567715D01*
X258097969Y-89459966D01*
X258097969Y-89406091D01*
X257909407Y-89217529D01*
X257801658Y-89325279D01*
X258394280Y-89217529D02*
X257828595Y-88651844D01*
X258717529Y-88894280D01*
X258151844Y-88328595D01*
X258986903Y-88624906D02*
X258421218Y-88059221D01*
X258555905Y-87924534D01*
X258663654Y-87870659D01*
X258771404Y-87870659D01*
X258852216Y-87897597D01*
X258986903Y-87978409D01*
X259067715Y-88059221D01*
X259148528Y-88193908D01*
X259175465Y-88274720D01*
X259175465Y-88382470D01*
X259121590Y-88490219D01*
X258986903Y-88624906D01*
X257586158Y-101648155D02*
X257505346Y-101675093D01*
X257424534Y-101755905D01*
X257370659Y-101863654D01*
X257370659Y-101971404D01*
X257397597Y-102052216D01*
X257478409Y-102186903D01*
X257559221Y-102267715D01*
X257693908Y-102348528D01*
X257774720Y-102375465D01*
X257882470Y-102375465D01*
X257990219Y-102321590D01*
X258044094Y-102267715D01*
X258097969Y-102159966D01*
X258097969Y-102106091D01*
X257909407Y-101917529D01*
X257801658Y-102025279D01*
X258394280Y-101917529D02*
X257828595Y-101351844D01*
X258717529Y-101594280D01*
X258151844Y-101028595D01*
X258986903Y-101324906D02*
X258421218Y-100759221D01*
X258555905Y-100624534D01*
X258663654Y-100570659D01*
X258771404Y-100570659D01*
X258852216Y-100597597D01*
X258986903Y-100678409D01*
X259067715Y-100759221D01*
X259148528Y-100893908D01*
X259175465Y-100974720D01*
X259175465Y-101082470D01*
X259121590Y-101190219D01*
X258986903Y-101324906D01*
X232551844Y-100786158D02*
X232524906Y-100705346D01*
X232444094Y-100624534D01*
X232336345Y-100570659D01*
X232228595Y-100570659D01*
X232147783Y-100597597D01*
X232013096Y-100678409D01*
X231932284Y-100759221D01*
X231851471Y-100893908D01*
X231824534Y-100974720D01*
X231824534Y-101082470D01*
X231878409Y-101190219D01*
X231932284Y-101244094D01*
X232040033Y-101297969D01*
X232093908Y-101297969D01*
X232282470Y-101109407D01*
X232174720Y-101001658D01*
X232282470Y-101594280D02*
X232848155Y-101028595D01*
X232605719Y-101917529D01*
X233171404Y-101351844D01*
X232875093Y-102186903D02*
X233440778Y-101621218D01*
X233575465Y-101755905D01*
X233629340Y-101863654D01*
X233629340Y-101971404D01*
X233602402Y-102052216D01*
X233521590Y-102186903D01*
X233440778Y-102267715D01*
X233306091Y-102348528D01*
X233225279Y-102375465D01*
X233117529Y-102375465D01*
X233009780Y-102321590D01*
X232875093Y-102186903D01*
X232551844Y-88086158D02*
X232524906Y-88005346D01*
X232444094Y-87924534D01*
X232336345Y-87870659D01*
X232228595Y-87870659D01*
X232147783Y-87897597D01*
X232013096Y-87978409D01*
X231932284Y-88059221D01*
X231851471Y-88193908D01*
X231824534Y-88274720D01*
X231824534Y-88382470D01*
X231878409Y-88490219D01*
X231932284Y-88544094D01*
X232040033Y-88597969D01*
X232093908Y-88597969D01*
X232282470Y-88409407D01*
X232174720Y-88301658D01*
X232282470Y-88894280D02*
X232848155Y-88328595D01*
X232605719Y-89217529D01*
X233171404Y-88651844D01*
X232875093Y-89486903D02*
X233440778Y-88921218D01*
X233575465Y-89055905D01*
X233629340Y-89163654D01*
X233629340Y-89271404D01*
X233602402Y-89352216D01*
X233521590Y-89486903D01*
X233440778Y-89567715D01*
X233306091Y-89648528D01*
X233225279Y-89675465D01*
X233117529Y-89675465D01*
X233009780Y-89621590D01*
X232875093Y-89486903D01*
X232551844Y-75386158D02*
X232524906Y-75305346D01*
X232444094Y-75224534D01*
X232336345Y-75170659D01*
X232228595Y-75170659D01*
X232147783Y-75197597D01*
X232013096Y-75278409D01*
X231932284Y-75359221D01*
X231851471Y-75493908D01*
X231824534Y-75574720D01*
X231824534Y-75682470D01*
X231878409Y-75790219D01*
X231932284Y-75844094D01*
X232040033Y-75897969D01*
X232093908Y-75897969D01*
X232282470Y-75709407D01*
X232174720Y-75601658D01*
X232282470Y-76194280D02*
X232848155Y-75628595D01*
X232605719Y-76517529D01*
X233171404Y-75951844D01*
X232875093Y-76786903D02*
X233440778Y-76221218D01*
X233575465Y-76355905D01*
X233629340Y-76463654D01*
X233629340Y-76571404D01*
X233602402Y-76652216D01*
X233521590Y-76786903D01*
X233440778Y-76867715D01*
X233306091Y-76948528D01*
X233225279Y-76975465D01*
X233117529Y-76975465D01*
X233009780Y-76921590D01*
X232875093Y-76786903D01*
X232551844Y-62686158D02*
X232524906Y-62605346D01*
X232444094Y-62524534D01*
X232336345Y-62470659D01*
X232228595Y-62470659D01*
X232147783Y-62497597D01*
X232013096Y-62578409D01*
X231932284Y-62659221D01*
X231851471Y-62793908D01*
X231824534Y-62874720D01*
X231824534Y-62982470D01*
X231878409Y-63090219D01*
X231932284Y-63144094D01*
X232040033Y-63197969D01*
X232093908Y-63197969D01*
X232282470Y-63009407D01*
X232174720Y-62901658D01*
X232282470Y-63494280D02*
X232848155Y-62928595D01*
X232605719Y-63817529D01*
X233171404Y-63251844D01*
X232875093Y-64086903D02*
X233440778Y-63521218D01*
X233575465Y-63655905D01*
X233629340Y-63763654D01*
X233629340Y-63871404D01*
X233602402Y-63952216D01*
X233521590Y-64086903D01*
X233440778Y-64167715D01*
X233306091Y-64248528D01*
X233225279Y-64275465D01*
X233117529Y-64275465D01*
X233009780Y-64221590D01*
X232875093Y-64086903D01*
X257453129Y-58977309D02*
X258207377Y-59354433D01*
X257830253Y-58600186D01*
X258476751Y-58492436D02*
X258584500Y-58438561D01*
X258638375Y-58438561D01*
X258719187Y-58465499D01*
X258800000Y-58546311D01*
X258826937Y-58627123D01*
X258826937Y-58680998D01*
X258800000Y-58761810D01*
X258584500Y-58977309D01*
X258018815Y-58411624D01*
X258207377Y-58223062D01*
X258288189Y-58196125D01*
X258342064Y-58196125D01*
X258422876Y-58223062D01*
X258476751Y-58276937D01*
X258503688Y-58357749D01*
X258503688Y-58411624D01*
X258476751Y-58492436D01*
X258288189Y-58680998D01*
X258584500Y-57845938D02*
X259042436Y-58303874D01*
X259123248Y-58330812D01*
X259177123Y-58330812D01*
X259257935Y-58303874D01*
X259365685Y-58196125D01*
X259392622Y-58115312D01*
X259392622Y-58061438D01*
X259365685Y-57980625D01*
X258907749Y-57522690D01*
X259688934Y-57819001D02*
X259796683Y-57765126D01*
X259931370Y-57630439D01*
X259958308Y-57549627D01*
X259958308Y-57495752D01*
X259931370Y-57414940D01*
X259877496Y-57361065D01*
X259796683Y-57334128D01*
X259742809Y-57334128D01*
X259661996Y-57361065D01*
X259527309Y-57441877D01*
X259446497Y-57468815D01*
X259392622Y-57468815D01*
X259311810Y-57441877D01*
X259257935Y-57388003D01*
X259230998Y-57307190D01*
X259230998Y-57253316D01*
X259257935Y-57172503D01*
X259392622Y-57037816D01*
X259500372Y-56983942D01*
X257420473Y-61519966D02*
X258174720Y-61897089D01*
X257797597Y-61142842D01*
X258497969Y-61519966D02*
X258605719Y-61466091D01*
X258740406Y-61331404D01*
X258767343Y-61250592D01*
X258767343Y-61196717D01*
X258740406Y-61115905D01*
X258686531Y-61062030D01*
X258605719Y-61035093D01*
X258551844Y-61035093D01*
X258471032Y-61062030D01*
X258336345Y-61142842D01*
X258255532Y-61169780D01*
X258201658Y-61169780D01*
X258120845Y-61142842D01*
X258066971Y-61088967D01*
X258040033Y-61008155D01*
X258040033Y-60954280D01*
X258066971Y-60873468D01*
X258201658Y-60738781D01*
X258309407Y-60684906D01*
X258928967Y-60604094D02*
X259198341Y-60873468D01*
X258444094Y-60496345D02*
X258928967Y-60604094D01*
X258821218Y-60119221D01*
X259521590Y-60496345D02*
X259629340Y-60442470D01*
X259764027Y-60307783D01*
X259790964Y-60226971D01*
X259790964Y-60173096D01*
X259764027Y-60092284D01*
X259710152Y-60038409D01*
X259629340Y-60011471D01*
X259575465Y-60011471D01*
X259494653Y-60038409D01*
X259359966Y-60119221D01*
X259279154Y-60146158D01*
X259225279Y-60146158D01*
X259144467Y-60119221D01*
X259090592Y-60065346D01*
X259063654Y-59984534D01*
X259063654Y-59930659D01*
X259090592Y-59849847D01*
X259225279Y-59715160D01*
X259333028Y-59661285D01*
X257422131Y-66408308D02*
X257772317Y-66058122D01*
X257799255Y-66462183D01*
X257880067Y-66381370D01*
X257960879Y-66354433D01*
X258014754Y-66354433D01*
X258095566Y-66381370D01*
X258230253Y-66516057D01*
X258257190Y-66596870D01*
X258257190Y-66650744D01*
X258230253Y-66731557D01*
X258068629Y-66893181D01*
X257987816Y-66920118D01*
X257933942Y-66920118D01*
X257933942Y-65896497D02*
X258688189Y-66273621D01*
X258311065Y-65519374D01*
X258445752Y-65384687D02*
X258795938Y-65034500D01*
X258822876Y-65438561D01*
X258903688Y-65357749D01*
X258984500Y-65330812D01*
X259038375Y-65330812D01*
X259119187Y-65357749D01*
X259253874Y-65492436D01*
X259280812Y-65573248D01*
X259280812Y-65627123D01*
X259253874Y-65707935D01*
X259092250Y-65869560D01*
X259011438Y-65896497D01*
X258957563Y-65896497D01*
X259523248Y-65546311D02*
X259954247Y-65115312D01*
X259738748Y-64630439D02*
X259927309Y-64441877D01*
X260304433Y-64657377D02*
X260035059Y-64926751D01*
X259469374Y-64361065D01*
X259738748Y-64091691D01*
X260546870Y-64414940D02*
X259981184Y-63849255D01*
X260870118Y-64091691D01*
X260304433Y-63526006D01*
X257389847Y-68940592D02*
X257740033Y-68590406D01*
X257766971Y-68994467D01*
X257847783Y-68913654D01*
X257928595Y-68886717D01*
X257982470Y-68886717D01*
X258063282Y-68913654D01*
X258197969Y-69048341D01*
X258224906Y-69129154D01*
X258224906Y-69183028D01*
X258197969Y-69263841D01*
X258036345Y-69425465D01*
X257955532Y-69452402D01*
X257901658Y-69452402D01*
X257901658Y-68428781D02*
X258655905Y-68805905D01*
X258278781Y-68051658D01*
X258413468Y-67916971D02*
X258763654Y-67566784D01*
X258790592Y-67970845D01*
X258871404Y-67890033D01*
X258952216Y-67863096D01*
X259006091Y-67863096D01*
X259086903Y-67890033D01*
X259221590Y-68024720D01*
X259248528Y-68105532D01*
X259248528Y-68159407D01*
X259221590Y-68240219D01*
X259059966Y-68401844D01*
X258979154Y-68428781D01*
X258925279Y-68428781D01*
X257654788Y-71983773D02*
X257924162Y-71714399D01*
X257762537Y-72199272D02*
X257385414Y-71445025D01*
X258139661Y-71822149D01*
X258328223Y-71633587D02*
X257762537Y-71067902D01*
X257897224Y-70933215D01*
X258004974Y-70879340D01*
X258112723Y-70879340D01*
X258193536Y-70906277D01*
X258328223Y-70987089D01*
X258409035Y-71067902D01*
X258489847Y-71202589D01*
X258516784Y-71283401D01*
X258516784Y-71391150D01*
X258462910Y-71498900D01*
X258328223Y-71633587D01*
X259163282Y-70690778D02*
X259163282Y-70744653D01*
X259109407Y-70852402D01*
X259055532Y-70906277D01*
X258947783Y-70960152D01*
X258840033Y-70960152D01*
X258759221Y-70933215D01*
X258624534Y-70852402D01*
X258543722Y-70771590D01*
X258462910Y-70636903D01*
X258435972Y-70556091D01*
X258435972Y-70448341D01*
X258489847Y-70340592D01*
X258543722Y-70286717D01*
X258651471Y-70232842D01*
X258705346Y-70232842D01*
X259378781Y-70690778D02*
X259809780Y-70259780D01*
X259244094Y-69586345D02*
X259998341Y-69963468D01*
X259621218Y-69209221D01*
X260698714Y-69263096D02*
X260240778Y-69182284D01*
X260375465Y-69586345D02*
X259809780Y-69020659D01*
X260025279Y-68805160D01*
X260106091Y-68778223D01*
X260159966Y-68778223D01*
X260240778Y-68805160D01*
X260321590Y-68885972D01*
X260348528Y-68966784D01*
X260348528Y-69020659D01*
X260321590Y-69101471D01*
X260106091Y-69316971D01*
X260644839Y-68724348D02*
X260833401Y-68535786D01*
X261210524Y-68751285D02*
X260941150Y-69020659D01*
X260375465Y-68454974D01*
X260644839Y-68185600D01*
X261345211Y-68023975D02*
X261156650Y-68212537D01*
X261452961Y-68508849D02*
X260887276Y-67943163D01*
X261156650Y-67673789D01*
X257597722Y-73696592D02*
X257516910Y-73723529D01*
X257436097Y-73804341D01*
X257382223Y-73912091D01*
X257382223Y-74019841D01*
X257409160Y-74100653D01*
X257489972Y-74235340D01*
X257570784Y-74316152D01*
X257705471Y-74396964D01*
X257786284Y-74423902D01*
X257894033Y-74423902D01*
X258001783Y-74370027D01*
X258055658Y-74316152D01*
X258109532Y-74208402D01*
X258109532Y-74154528D01*
X257920971Y-73965966D01*
X257813221Y-74073715D01*
X258405844Y-73965966D02*
X257840158Y-73400280D01*
X258055658Y-73184781D01*
X258136470Y-73157844D01*
X258190345Y-73157844D01*
X258271157Y-73184781D01*
X258351969Y-73265593D01*
X258378906Y-73346406D01*
X258378906Y-73400280D01*
X258351969Y-73481093D01*
X258136470Y-73696592D01*
X258432781Y-72915407D02*
X258432781Y-72861532D01*
X258459719Y-72780720D01*
X258594406Y-72646033D01*
X258675218Y-72619096D01*
X258729093Y-72619096D01*
X258809905Y-72646033D01*
X258863780Y-72699908D01*
X258917654Y-72807658D01*
X258917654Y-73454155D01*
X259267841Y-73103969D01*
X259267841Y-72457471D02*
X259187028Y-72484409D01*
X259133154Y-72484409D01*
X259052341Y-72457471D01*
X259025404Y-72430534D01*
X258998467Y-72349722D01*
X258998467Y-72295847D01*
X259025404Y-72215035D01*
X259133154Y-72107285D01*
X259213966Y-72080348D01*
X259267841Y-72080348D01*
X259348653Y-72107285D01*
X259375590Y-72134223D01*
X259402528Y-72215035D01*
X259402528Y-72268910D01*
X259375590Y-72349722D01*
X259267841Y-72457471D01*
X259240903Y-72538284D01*
X259240903Y-72592158D01*
X259267841Y-72672971D01*
X259375590Y-72780720D01*
X259456402Y-72807658D01*
X259510277Y-72807658D01*
X259591089Y-72780720D01*
X259698839Y-72672971D01*
X259725776Y-72592158D01*
X259725776Y-72538284D01*
X259698839Y-72457471D01*
X259591089Y-72349722D01*
X259510277Y-72322784D01*
X259456402Y-72322784D01*
X259375590Y-72349722D01*
X257597722Y-79040592D02*
X257516910Y-79067529D01*
X257436097Y-79148341D01*
X257382223Y-79256091D01*
X257382223Y-79363841D01*
X257409160Y-79444653D01*
X257489972Y-79579340D01*
X257570784Y-79660152D01*
X257705471Y-79740964D01*
X257786284Y-79767902D01*
X257894033Y-79767902D01*
X258001783Y-79714027D01*
X258055658Y-79660152D01*
X258109532Y-79552402D01*
X258109532Y-79498528D01*
X257920971Y-79309966D01*
X257813221Y-79417715D01*
X258405844Y-79309966D02*
X257840158Y-78744280D01*
X258055658Y-78528781D01*
X258136470Y-78501844D01*
X258190345Y-78501844D01*
X258271157Y-78528781D01*
X258351969Y-78609593D01*
X258378906Y-78690406D01*
X258378906Y-78744280D01*
X258351969Y-78825093D01*
X258136470Y-79040592D01*
X258432781Y-78259407D02*
X258432781Y-78205532D01*
X258459719Y-78124720D01*
X258594406Y-77990033D01*
X258675218Y-77963096D01*
X258729093Y-77963096D01*
X258809905Y-77990033D01*
X258863780Y-78043908D01*
X258917654Y-78151658D01*
X258917654Y-78798155D01*
X259267841Y-78447969D01*
X258890717Y-77693722D02*
X259267841Y-77316598D01*
X259591089Y-78124720D01*
X257597722Y-81570592D02*
X257516910Y-81597529D01*
X257436097Y-81678341D01*
X257382223Y-81786091D01*
X257382223Y-81893841D01*
X257409160Y-81974653D01*
X257489972Y-82109340D01*
X257570784Y-82190152D01*
X257705471Y-82270964D01*
X257786284Y-82297902D01*
X257894033Y-82297902D01*
X258001783Y-82244027D01*
X258055658Y-82190152D01*
X258109532Y-82082402D01*
X258109532Y-82028528D01*
X257920971Y-81839966D01*
X257813221Y-81947715D01*
X258405844Y-81839966D02*
X257840158Y-81274280D01*
X258055658Y-81058781D01*
X258136470Y-81031844D01*
X258190345Y-81031844D01*
X258271157Y-81058781D01*
X258351969Y-81139593D01*
X258378906Y-81220406D01*
X258378906Y-81274280D01*
X258351969Y-81355093D01*
X258136470Y-81570592D01*
X258432781Y-80789407D02*
X258432781Y-80735532D01*
X258459719Y-80654720D01*
X258594406Y-80520033D01*
X258675218Y-80493096D01*
X258729093Y-80493096D01*
X258809905Y-80520033D01*
X258863780Y-80573908D01*
X258917654Y-80681658D01*
X258917654Y-81328155D01*
X259267841Y-80977969D01*
X259187028Y-79927410D02*
X259079279Y-80035160D01*
X259052341Y-80115972D01*
X259052341Y-80169847D01*
X259079279Y-80304534D01*
X259160091Y-80439221D01*
X259375590Y-80654720D01*
X259456402Y-80681658D01*
X259510277Y-80681658D01*
X259591089Y-80654720D01*
X259698839Y-80546971D01*
X259725776Y-80466158D01*
X259725776Y-80412284D01*
X259698839Y-80331471D01*
X259564152Y-80196784D01*
X259483340Y-80169847D01*
X259429465Y-80169847D01*
X259348653Y-80196784D01*
X259240903Y-80304534D01*
X259213966Y-80385346D01*
X259213966Y-80439221D01*
X259240903Y-80520033D01*
X258338375Y-84393435D02*
X257880439Y-84312622D01*
X258015126Y-84716683D02*
X257449441Y-84150998D01*
X257664940Y-83935499D01*
X257745752Y-83908561D01*
X257799627Y-83908561D01*
X257880439Y-83935499D01*
X257961251Y-84016311D01*
X257988189Y-84097123D01*
X257988189Y-84150998D01*
X257961251Y-84231810D01*
X257745752Y-84447309D01*
X258015126Y-83585312D02*
X258473062Y-84043248D01*
X258553874Y-84070186D01*
X258607749Y-84070186D01*
X258688561Y-84043248D01*
X258796311Y-83935499D01*
X258823248Y-83854687D01*
X258823248Y-83800812D01*
X258796311Y-83719999D01*
X258338375Y-83262064D01*
X259173435Y-83558375D02*
X258607749Y-82992690D01*
X259496683Y-83235126D01*
X258930998Y-82669441D01*
X257597722Y-86650592D02*
X257516910Y-86677529D01*
X257436097Y-86758341D01*
X257382223Y-86866091D01*
X257382223Y-86973841D01*
X257409160Y-87054653D01*
X257489972Y-87189340D01*
X257570784Y-87270152D01*
X257705471Y-87350964D01*
X257786284Y-87377902D01*
X257894033Y-87377902D01*
X258001783Y-87324027D01*
X258055658Y-87270152D01*
X258109532Y-87162402D01*
X258109532Y-87108528D01*
X257920971Y-86919966D01*
X257813221Y-87027715D01*
X258405844Y-86919966D02*
X257840158Y-86354280D01*
X258055658Y-86138781D01*
X258136470Y-86111844D01*
X258190345Y-86111844D01*
X258271157Y-86138781D01*
X258351969Y-86219593D01*
X258378906Y-86300406D01*
X258378906Y-86354280D01*
X258351969Y-86435093D01*
X258136470Y-86650592D01*
X258432781Y-85869407D02*
X258432781Y-85815532D01*
X258459719Y-85734720D01*
X258594406Y-85600033D01*
X258675218Y-85573096D01*
X258729093Y-85573096D01*
X258809905Y-85600033D01*
X258863780Y-85653908D01*
X258917654Y-85761658D01*
X258917654Y-86408155D01*
X259267841Y-86057969D01*
X258971529Y-85330659D02*
X258971529Y-85276784D01*
X258998467Y-85195972D01*
X259133154Y-85061285D01*
X259213966Y-85034348D01*
X259267841Y-85034348D01*
X259348653Y-85061285D01*
X259402528Y-85115160D01*
X259456402Y-85222910D01*
X259456402Y-85869407D01*
X259806589Y-85519221D01*
X257597722Y-91740592D02*
X257516910Y-91767529D01*
X257436097Y-91848341D01*
X257382223Y-91956091D01*
X257382223Y-92063841D01*
X257409160Y-92144653D01*
X257489972Y-92279340D01*
X257570784Y-92360152D01*
X257705471Y-92440964D01*
X257786284Y-92467902D01*
X257894033Y-92467902D01*
X258001783Y-92414027D01*
X258055658Y-92360152D01*
X258109532Y-92252402D01*
X258109532Y-92198528D01*
X257920971Y-92009966D01*
X257813221Y-92117715D01*
X258405844Y-92009966D02*
X257840158Y-91444280D01*
X258055658Y-91228781D01*
X258136470Y-91201844D01*
X258190345Y-91201844D01*
X258271157Y-91228781D01*
X258351969Y-91309593D01*
X258378906Y-91390406D01*
X258378906Y-91444280D01*
X258351969Y-91525093D01*
X258136470Y-91740592D01*
X258432781Y-90959407D02*
X258432781Y-90905532D01*
X258459719Y-90824720D01*
X258594406Y-90690033D01*
X258675218Y-90663096D01*
X258729093Y-90663096D01*
X258809905Y-90690033D01*
X258863780Y-90743908D01*
X258917654Y-90851658D01*
X258917654Y-91498155D01*
X259267841Y-91147969D01*
X259806589Y-90609221D02*
X259483340Y-90932470D01*
X259644964Y-90770845D02*
X259079279Y-90205160D01*
X259106216Y-90339847D01*
X259106216Y-90447597D01*
X259079279Y-90528409D01*
X257597722Y-94270592D02*
X257516910Y-94297529D01*
X257436097Y-94378341D01*
X257382223Y-94486091D01*
X257382223Y-94593841D01*
X257409160Y-94674653D01*
X257489972Y-94809340D01*
X257570784Y-94890152D01*
X257705471Y-94970964D01*
X257786284Y-94997902D01*
X257894033Y-94997902D01*
X258001783Y-94944027D01*
X258055658Y-94890152D01*
X258109532Y-94782402D01*
X258109532Y-94728528D01*
X257920971Y-94539966D01*
X257813221Y-94647715D01*
X258405844Y-94539966D02*
X257840158Y-93974280D01*
X258055658Y-93758781D01*
X258136470Y-93731844D01*
X258190345Y-93731844D01*
X258271157Y-93758781D01*
X258351969Y-93839593D01*
X258378906Y-93920406D01*
X258378906Y-93974280D01*
X258351969Y-94055093D01*
X258136470Y-94270592D01*
X258432781Y-93489407D02*
X258432781Y-93435532D01*
X258459719Y-93354720D01*
X258594406Y-93220033D01*
X258675218Y-93193096D01*
X258729093Y-93193096D01*
X258809905Y-93220033D01*
X258863780Y-93273908D01*
X258917654Y-93381658D01*
X258917654Y-94028155D01*
X259267841Y-93677969D01*
X259052341Y-92762097D02*
X259106216Y-92708223D01*
X259187028Y-92681285D01*
X259240903Y-92681285D01*
X259321715Y-92708223D01*
X259456402Y-92789035D01*
X259591089Y-92923722D01*
X259671902Y-93058409D01*
X259698839Y-93139221D01*
X259698839Y-93193096D01*
X259671902Y-93273908D01*
X259618027Y-93327783D01*
X259537215Y-93354720D01*
X259483340Y-93354720D01*
X259402528Y-93327783D01*
X259267841Y-93246971D01*
X259133154Y-93112284D01*
X259052341Y-92977597D01*
X259025404Y-92896784D01*
X259025404Y-92842910D01*
X259052341Y-92762097D01*
X257597722Y-96810592D02*
X257516910Y-96837529D01*
X257436097Y-96918341D01*
X257382223Y-97026091D01*
X257382223Y-97133841D01*
X257409160Y-97214653D01*
X257489972Y-97349340D01*
X257570784Y-97430152D01*
X257705471Y-97510964D01*
X257786284Y-97537902D01*
X257894033Y-97537902D01*
X258001783Y-97484027D01*
X258055658Y-97430152D01*
X258109532Y-97322402D01*
X258109532Y-97268528D01*
X257920971Y-97079966D01*
X257813221Y-97187715D01*
X258405844Y-97079966D02*
X257840158Y-96514280D01*
X258055658Y-96298781D01*
X258136470Y-96271844D01*
X258190345Y-96271844D01*
X258271157Y-96298781D01*
X258351969Y-96379593D01*
X258378906Y-96460406D01*
X258378906Y-96514280D01*
X258351969Y-96595093D01*
X258136470Y-96810592D01*
X259267841Y-96217969D02*
X258944592Y-96541218D01*
X259106216Y-96379593D02*
X258540531Y-95813908D01*
X258567468Y-95948595D01*
X258567468Y-96056345D01*
X258540531Y-96137157D01*
X259537215Y-95948595D02*
X259644964Y-95840845D01*
X259671902Y-95760033D01*
X259671902Y-95706158D01*
X259644964Y-95571471D01*
X259564152Y-95436784D01*
X259348653Y-95221285D01*
X259267841Y-95194348D01*
X259213966Y-95194348D01*
X259133154Y-95221285D01*
X259025404Y-95329035D01*
X258998467Y-95409847D01*
X258998467Y-95463722D01*
X259025404Y-95544534D01*
X259160091Y-95679221D01*
X259240903Y-95706158D01*
X259294778Y-95706158D01*
X259375590Y-95679221D01*
X259483340Y-95571471D01*
X259510277Y-95490659D01*
X259510277Y-95436784D01*
X259483340Y-95355972D01*
X257597722Y-99350592D02*
X257516910Y-99377529D01*
X257436097Y-99458341D01*
X257382223Y-99566091D01*
X257382223Y-99673841D01*
X257409160Y-99754653D01*
X257489972Y-99889340D01*
X257570784Y-99970152D01*
X257705471Y-100050964D01*
X257786284Y-100077902D01*
X257894033Y-100077902D01*
X258001783Y-100024027D01*
X258055658Y-99970152D01*
X258109532Y-99862402D01*
X258109532Y-99808528D01*
X257920971Y-99619966D01*
X257813221Y-99727715D01*
X258405844Y-99619966D02*
X257840158Y-99054280D01*
X258055658Y-98838781D01*
X258136470Y-98811844D01*
X258190345Y-98811844D01*
X258271157Y-98838781D01*
X258351969Y-98919593D01*
X258378906Y-99000406D01*
X258378906Y-99054280D01*
X258351969Y-99135093D01*
X258136470Y-99350592D01*
X259267841Y-98757969D02*
X258944592Y-99081218D01*
X259106216Y-98919593D02*
X258540531Y-98353908D01*
X258567468Y-98488595D01*
X258567468Y-98596345D01*
X258540531Y-98677157D01*
X259267841Y-98111471D02*
X259187028Y-98138409D01*
X259133154Y-98138409D01*
X259052341Y-98111471D01*
X259025404Y-98084534D01*
X258998467Y-98003722D01*
X258998467Y-97949847D01*
X259025404Y-97869035D01*
X259133154Y-97761285D01*
X259213966Y-97734348D01*
X259267841Y-97734348D01*
X259348653Y-97761285D01*
X259375590Y-97788223D01*
X259402528Y-97869035D01*
X259402528Y-97922910D01*
X259375590Y-98003722D01*
X259267841Y-98111471D01*
X259240903Y-98192284D01*
X259240903Y-98246158D01*
X259267841Y-98326971D01*
X259375590Y-98434720D01*
X259456402Y-98461658D01*
X259510277Y-98461658D01*
X259591089Y-98434720D01*
X259698839Y-98326971D01*
X259725776Y-98246158D01*
X259725776Y-98192284D01*
X259698839Y-98111471D01*
X259591089Y-98003722D01*
X259510277Y-97976784D01*
X259456402Y-97976784D01*
X259375590Y-98003722D01*
X257597722Y-104430592D02*
X257516910Y-104457529D01*
X257436097Y-104538341D01*
X257382223Y-104646091D01*
X257382223Y-104753841D01*
X257409160Y-104834653D01*
X257489972Y-104969340D01*
X257570784Y-105050152D01*
X257705471Y-105130964D01*
X257786284Y-105157902D01*
X257894033Y-105157902D01*
X258001783Y-105104027D01*
X258055658Y-105050152D01*
X258109532Y-104942402D01*
X258109532Y-104888528D01*
X257920971Y-104699966D01*
X257813221Y-104807715D01*
X258405844Y-104699966D02*
X257840158Y-104134280D01*
X258055658Y-103918781D01*
X258136470Y-103891844D01*
X258190345Y-103891844D01*
X258271157Y-103918781D01*
X258351969Y-103999593D01*
X258378906Y-104080406D01*
X258378906Y-104134280D01*
X258351969Y-104215093D01*
X258136470Y-104430592D01*
X259267841Y-103837969D02*
X258944592Y-104161218D01*
X259106216Y-103999593D02*
X258540531Y-103433908D01*
X258567468Y-103568595D01*
X258567468Y-103676345D01*
X258540531Y-103757157D01*
X258890717Y-103083722D02*
X259267841Y-102706598D01*
X259591089Y-103514720D01*
X257597722Y-106970592D02*
X257516910Y-106997529D01*
X257436097Y-107078341D01*
X257382223Y-107186091D01*
X257382223Y-107293841D01*
X257409160Y-107374653D01*
X257489972Y-107509340D01*
X257570784Y-107590152D01*
X257705471Y-107670964D01*
X257786284Y-107697902D01*
X257894033Y-107697902D01*
X258001783Y-107644027D01*
X258055658Y-107590152D01*
X258109532Y-107482402D01*
X258109532Y-107428528D01*
X257920971Y-107239966D01*
X257813221Y-107347715D01*
X258405844Y-107239966D02*
X257840158Y-106674280D01*
X258055658Y-106458781D01*
X258136470Y-106431844D01*
X258190345Y-106431844D01*
X258271157Y-106458781D01*
X258351969Y-106539593D01*
X258378906Y-106620406D01*
X258378906Y-106674280D01*
X258351969Y-106755093D01*
X258136470Y-106970592D01*
X259267841Y-106377969D02*
X258944592Y-106701218D01*
X259106216Y-106539593D02*
X258540531Y-105973908D01*
X258567468Y-106108595D01*
X258567468Y-106216345D01*
X258540531Y-106297157D01*
X259187028Y-105327410D02*
X259079279Y-105435160D01*
X259052341Y-105515972D01*
X259052341Y-105569847D01*
X259079279Y-105704534D01*
X259160091Y-105839221D01*
X259375590Y-106054720D01*
X259456402Y-106081658D01*
X259510277Y-106081658D01*
X259591089Y-106054720D01*
X259698839Y-105946971D01*
X259725776Y-105866158D01*
X259725776Y-105812284D01*
X259698839Y-105731471D01*
X259564152Y-105596784D01*
X259483340Y-105569847D01*
X259429465Y-105569847D01*
X259348653Y-105596784D01*
X259240903Y-105704534D01*
X259213966Y-105785346D01*
X259213966Y-105839221D01*
X259240903Y-105920033D01*
X232055407Y-105623722D02*
X232028470Y-105542910D01*
X231947658Y-105462097D01*
X231839908Y-105408223D01*
X231732158Y-105408223D01*
X231651346Y-105435160D01*
X231516659Y-105515972D01*
X231435847Y-105596784D01*
X231355035Y-105731471D01*
X231328097Y-105812284D01*
X231328097Y-105920033D01*
X231381972Y-106027783D01*
X231435847Y-106081658D01*
X231543597Y-106135532D01*
X231597471Y-106135532D01*
X231786033Y-105946971D01*
X231678284Y-105839221D01*
X231786033Y-106431844D02*
X232351719Y-105866158D01*
X232567218Y-106081658D01*
X232594155Y-106162470D01*
X232594155Y-106216345D01*
X232567218Y-106297157D01*
X232486406Y-106377969D01*
X232405593Y-106404906D01*
X232351719Y-106404906D01*
X232270906Y-106377969D01*
X232055407Y-106162470D01*
X232648030Y-107293841D02*
X232324781Y-106970592D01*
X232486406Y-107132216D02*
X233052091Y-106566531D01*
X232917404Y-106593468D01*
X232809654Y-106593468D01*
X232728842Y-106566531D01*
X233725526Y-107239966D02*
X233456152Y-106970592D01*
X233159841Y-107213028D01*
X233213715Y-107213028D01*
X233294528Y-107239966D01*
X233429215Y-107374653D01*
X233456152Y-107455465D01*
X233456152Y-107509340D01*
X233429215Y-107590152D01*
X233294528Y-107724839D01*
X233213715Y-107751776D01*
X233159841Y-107751776D01*
X233079028Y-107724839D01*
X232944341Y-107590152D01*
X232917404Y-107509340D01*
X232917404Y-107455465D01*
X232009407Y-103083722D02*
X231982470Y-103002910D01*
X231901658Y-102922097D01*
X231793908Y-102868223D01*
X231686158Y-102868223D01*
X231605346Y-102895160D01*
X231470659Y-102975972D01*
X231389847Y-103056784D01*
X231309035Y-103191471D01*
X231282097Y-103272284D01*
X231282097Y-103380033D01*
X231335972Y-103487783D01*
X231389847Y-103541658D01*
X231497597Y-103595532D01*
X231551471Y-103595532D01*
X231740033Y-103406971D01*
X231632284Y-103299221D01*
X231740033Y-103891844D02*
X232305719Y-103326158D01*
X232521218Y-103541658D01*
X232548155Y-103622470D01*
X232548155Y-103676345D01*
X232521218Y-103757157D01*
X232440406Y-103837969D01*
X232359593Y-103864906D01*
X232305719Y-103864906D01*
X232224906Y-103837969D01*
X232009407Y-103622470D01*
X232602030Y-104753841D02*
X232278781Y-104430592D01*
X232440406Y-104592216D02*
X233006091Y-104026531D01*
X232871404Y-104053468D01*
X232763654Y-104053468D01*
X232682842Y-104026531D01*
X233464027Y-104861590D02*
X233086903Y-105238714D01*
X233544839Y-104511404D02*
X233006091Y-104780778D01*
X233356277Y-105130964D01*
X232055407Y-98003722D02*
X232028470Y-97922910D01*
X231947658Y-97842097D01*
X231839908Y-97788223D01*
X231732158Y-97788223D01*
X231651346Y-97815160D01*
X231516659Y-97895972D01*
X231435847Y-97976784D01*
X231355035Y-98111471D01*
X231328097Y-98192284D01*
X231328097Y-98300033D01*
X231381972Y-98407783D01*
X231435847Y-98461658D01*
X231543597Y-98515532D01*
X231597471Y-98515532D01*
X231786033Y-98326971D01*
X231678284Y-98219221D01*
X231786033Y-98811844D02*
X232351719Y-98246158D01*
X232567218Y-98461658D01*
X232594155Y-98542470D01*
X232594155Y-98596345D01*
X232567218Y-98677157D01*
X232486406Y-98757969D01*
X232405593Y-98784906D01*
X232351719Y-98784906D01*
X232270906Y-98757969D01*
X232055407Y-98542470D01*
X232648030Y-99673841D02*
X232324781Y-99350592D01*
X232486406Y-99512216D02*
X233052091Y-98946531D01*
X232917404Y-98973468D01*
X232809654Y-98973468D01*
X232728842Y-98946531D01*
X233402277Y-99296717D02*
X233752463Y-99646903D01*
X233348402Y-99673841D01*
X233429215Y-99754653D01*
X233456152Y-99835465D01*
X233456152Y-99889340D01*
X233429215Y-99970152D01*
X233294528Y-100104839D01*
X233213715Y-100131776D01*
X233159841Y-100131776D01*
X233079028Y-100104839D01*
X232917404Y-99943215D01*
X232890467Y-99862402D01*
X232890467Y-99808528D01*
X231909407Y-95463722D02*
X231882470Y-95382910D01*
X231801658Y-95302097D01*
X231693908Y-95248223D01*
X231586158Y-95248223D01*
X231505346Y-95275160D01*
X231370659Y-95355972D01*
X231289847Y-95436784D01*
X231209035Y-95571471D01*
X231182097Y-95652284D01*
X231182097Y-95760033D01*
X231235972Y-95867783D01*
X231289847Y-95921658D01*
X231397597Y-95975532D01*
X231451471Y-95975532D01*
X231640033Y-95786971D01*
X231532284Y-95679221D01*
X231640033Y-96271844D02*
X232205719Y-95706158D01*
X232421218Y-95921658D01*
X232448155Y-96002470D01*
X232448155Y-96056345D01*
X232421218Y-96137157D01*
X232340406Y-96217969D01*
X232259593Y-96244906D01*
X232205719Y-96244906D01*
X232124906Y-96217969D01*
X231909407Y-96002470D01*
X232502030Y-97133841D02*
X232178781Y-96810592D01*
X232340406Y-96972216D02*
X232906091Y-96406531D01*
X232771404Y-96433468D01*
X232663654Y-96433468D01*
X232582842Y-96406531D01*
X233229340Y-96837529D02*
X233283215Y-96837529D01*
X233364027Y-96864467D01*
X233498714Y-96999154D01*
X233525651Y-97079966D01*
X233525651Y-97133841D01*
X233498714Y-97214653D01*
X233444839Y-97268528D01*
X233337089Y-97322402D01*
X232690592Y-97322402D01*
X233040778Y-97672589D01*
X231909407Y-92923722D02*
X231882470Y-92842910D01*
X231801658Y-92762097D01*
X231693908Y-92708223D01*
X231586158Y-92708223D01*
X231505346Y-92735160D01*
X231370659Y-92815972D01*
X231289847Y-92896784D01*
X231209035Y-93031471D01*
X231182097Y-93112284D01*
X231182097Y-93220033D01*
X231235972Y-93327783D01*
X231289847Y-93381658D01*
X231397597Y-93435532D01*
X231451471Y-93435532D01*
X231640033Y-93246971D01*
X231532284Y-93139221D01*
X231640033Y-93731844D02*
X232205719Y-93166158D01*
X232421218Y-93381658D01*
X232448155Y-93462470D01*
X232448155Y-93516345D01*
X232421218Y-93597157D01*
X232340406Y-93677969D01*
X232259593Y-93704906D01*
X232205719Y-93704906D01*
X232124906Y-93677969D01*
X231909407Y-93462470D01*
X232502030Y-94593841D02*
X232178781Y-94270592D01*
X232340406Y-94432216D02*
X232906091Y-93866531D01*
X232771404Y-93893468D01*
X232663654Y-93893468D01*
X232582842Y-93866531D01*
X233040778Y-95132589D02*
X232717529Y-94809340D01*
X232879154Y-94970964D02*
X233444839Y-94405279D01*
X233310152Y-94432216D01*
X233202402Y-94432216D01*
X233121590Y-94405279D01*
X232055407Y-90383722D02*
X232028470Y-90302910D01*
X231947658Y-90222097D01*
X231839908Y-90168223D01*
X231732158Y-90168223D01*
X231651346Y-90195160D01*
X231516659Y-90275972D01*
X231435847Y-90356784D01*
X231355035Y-90491471D01*
X231328097Y-90572284D01*
X231328097Y-90680033D01*
X231381972Y-90787783D01*
X231435847Y-90841658D01*
X231543597Y-90895532D01*
X231597471Y-90895532D01*
X231786033Y-90706971D01*
X231678284Y-90599221D01*
X231786033Y-91191844D02*
X232351719Y-90626158D01*
X232567218Y-90841658D01*
X232594155Y-90922470D01*
X232594155Y-90976345D01*
X232567218Y-91057157D01*
X232486406Y-91137969D01*
X232405593Y-91164906D01*
X232351719Y-91164906D01*
X232270906Y-91137969D01*
X232055407Y-90922470D01*
X232648030Y-92053841D02*
X232324781Y-91730592D01*
X232486406Y-91892216D02*
X233052091Y-91326531D01*
X232917404Y-91353468D01*
X232809654Y-91353468D01*
X232728842Y-91326531D01*
X233563902Y-91838341D02*
X233617776Y-91892216D01*
X233644714Y-91973028D01*
X233644714Y-92026903D01*
X233617776Y-92107715D01*
X233536964Y-92242402D01*
X233402277Y-92377089D01*
X233267590Y-92457902D01*
X233186778Y-92484839D01*
X233132903Y-92484839D01*
X233052091Y-92457902D01*
X232998216Y-92404027D01*
X232971279Y-92323215D01*
X232971279Y-92269340D01*
X232998216Y-92188528D01*
X233079028Y-92053841D01*
X233213715Y-91919154D01*
X233348402Y-91838341D01*
X233429215Y-91811404D01*
X233483089Y-91811404D01*
X233563902Y-91838341D01*
X232578781Y-85573096D02*
X232551844Y-85492284D01*
X232471032Y-85411471D01*
X232363282Y-85357597D01*
X232255532Y-85357597D01*
X232174720Y-85384534D01*
X232040033Y-85465346D01*
X231959221Y-85546158D01*
X231878409Y-85680845D01*
X231851471Y-85761658D01*
X231851471Y-85869407D01*
X231905346Y-85977157D01*
X231959221Y-86031032D01*
X232066971Y-86084906D01*
X232120845Y-86084906D01*
X232309407Y-85896345D01*
X232201658Y-85788595D01*
X232309407Y-86381218D02*
X232875093Y-85815532D01*
X233090592Y-86031032D01*
X233117529Y-86111844D01*
X233117529Y-86165719D01*
X233090592Y-86246531D01*
X233009780Y-86327343D01*
X232928967Y-86354280D01*
X232875093Y-86354280D01*
X232794280Y-86327343D01*
X232578781Y-86111844D01*
X232902030Y-86973841D02*
X233009780Y-87081590D01*
X233090592Y-87108528D01*
X233144467Y-87108528D01*
X233279154Y-87081590D01*
X233413841Y-87000778D01*
X233629340Y-86785279D01*
X233656277Y-86704467D01*
X233656277Y-86650592D01*
X233629340Y-86569780D01*
X233521590Y-86462030D01*
X233440778Y-86435093D01*
X233386903Y-86435093D01*
X233306091Y-86462030D01*
X233171404Y-86596717D01*
X233144467Y-86677529D01*
X233144467Y-86731404D01*
X233171404Y-86812216D01*
X233279154Y-86919966D01*
X233359966Y-86946903D01*
X233413841Y-86946903D01*
X233494653Y-86919966D01*
X232578781Y-83033096D02*
X232551844Y-82952284D01*
X232471032Y-82871471D01*
X232363282Y-82817597D01*
X232255532Y-82817597D01*
X232174720Y-82844534D01*
X232040033Y-82925346D01*
X231959221Y-83006158D01*
X231878409Y-83140845D01*
X231851471Y-83221658D01*
X231851471Y-83329407D01*
X231905346Y-83437157D01*
X231959221Y-83491032D01*
X232066971Y-83544906D01*
X232120845Y-83544906D01*
X232309407Y-83356345D01*
X232201658Y-83248595D01*
X232309407Y-83841218D02*
X232875093Y-83275532D01*
X233090592Y-83491032D01*
X233117529Y-83571844D01*
X233117529Y-83625719D01*
X233090592Y-83706531D01*
X233009780Y-83787343D01*
X232928967Y-83814280D01*
X232875093Y-83814280D01*
X232794280Y-83787343D01*
X232578781Y-83571844D01*
X233279154Y-84164467D02*
X233252216Y-84083654D01*
X233252216Y-84029780D01*
X233279154Y-83948967D01*
X233306091Y-83922030D01*
X233386903Y-83895093D01*
X233440778Y-83895093D01*
X233521590Y-83922030D01*
X233629340Y-84029780D01*
X233656277Y-84110592D01*
X233656277Y-84164467D01*
X233629340Y-84245279D01*
X233602402Y-84272216D01*
X233521590Y-84299154D01*
X233467715Y-84299154D01*
X233386903Y-84272216D01*
X233279154Y-84164467D01*
X233198341Y-84137529D01*
X233144467Y-84137529D01*
X233063654Y-84164467D01*
X232955905Y-84272216D01*
X232928967Y-84353028D01*
X232928967Y-84406903D01*
X232955905Y-84487715D01*
X233063654Y-84595465D01*
X233144467Y-84622402D01*
X233198341Y-84622402D01*
X233279154Y-84595465D01*
X233386903Y-84487715D01*
X233413841Y-84406903D01*
X233413841Y-84353028D01*
X233386903Y-84272216D01*
X232678781Y-80463096D02*
X232651844Y-80382284D01*
X232571032Y-80301471D01*
X232463282Y-80247597D01*
X232355532Y-80247597D01*
X232274720Y-80274534D01*
X232140033Y-80355346D01*
X232059221Y-80436158D01*
X231978409Y-80570845D01*
X231951471Y-80651658D01*
X231951471Y-80759407D01*
X232005346Y-80867157D01*
X232059221Y-80921032D01*
X232166971Y-80974906D01*
X232220845Y-80974906D01*
X232409407Y-80786345D01*
X232301658Y-80678595D01*
X232409407Y-81271218D02*
X232975093Y-80705532D01*
X233190592Y-80921032D01*
X233217529Y-81001844D01*
X233217529Y-81055719D01*
X233190592Y-81136531D01*
X233109780Y-81217343D01*
X233028967Y-81244280D01*
X232975093Y-81244280D01*
X232894280Y-81217343D01*
X232678781Y-81001844D01*
X233486903Y-81217343D02*
X233864027Y-81594467D01*
X233055905Y-81917715D01*
X232578781Y-77953096D02*
X232551844Y-77872284D01*
X232471032Y-77791471D01*
X232363282Y-77737597D01*
X232255532Y-77737597D01*
X232174720Y-77764534D01*
X232040033Y-77845346D01*
X231959221Y-77926158D01*
X231878409Y-78060845D01*
X231851471Y-78141658D01*
X231851471Y-78249407D01*
X231905346Y-78357157D01*
X231959221Y-78411032D01*
X232066971Y-78464906D01*
X232120845Y-78464906D01*
X232309407Y-78276345D01*
X232201658Y-78168595D01*
X232309407Y-78761218D02*
X232875093Y-78195532D01*
X233090592Y-78411032D01*
X233117529Y-78491844D01*
X233117529Y-78545719D01*
X233090592Y-78626531D01*
X233009780Y-78707343D01*
X232928967Y-78734280D01*
X232875093Y-78734280D01*
X232794280Y-78707343D01*
X232578781Y-78491844D01*
X233683215Y-79003654D02*
X233575465Y-78895905D01*
X233494653Y-78868967D01*
X233440778Y-78868967D01*
X233306091Y-78895905D01*
X233171404Y-78976717D01*
X232955905Y-79192216D01*
X232928967Y-79273028D01*
X232928967Y-79326903D01*
X232955905Y-79407715D01*
X233063654Y-79515465D01*
X233144467Y-79542402D01*
X233198341Y-79542402D01*
X233279154Y-79515465D01*
X233413841Y-79380778D01*
X233440778Y-79299966D01*
X233440778Y-79246091D01*
X233413841Y-79165279D01*
X233306091Y-79057529D01*
X233225279Y-79030592D01*
X233171404Y-79030592D01*
X233090592Y-79057529D01*
X232578781Y-72873096D02*
X232551844Y-72792284D01*
X232471032Y-72711471D01*
X232363282Y-72657597D01*
X232255532Y-72657597D01*
X232174720Y-72684534D01*
X232040033Y-72765346D01*
X231959221Y-72846158D01*
X231878409Y-72980845D01*
X231851471Y-73061658D01*
X231851471Y-73169407D01*
X231905346Y-73277157D01*
X231959221Y-73331032D01*
X232066971Y-73384906D01*
X232120845Y-73384906D01*
X232309407Y-73196345D01*
X232201658Y-73088595D01*
X232309407Y-73681218D02*
X232875093Y-73115532D01*
X233090592Y-73331032D01*
X233117529Y-73411844D01*
X233117529Y-73465719D01*
X233090592Y-73546531D01*
X233009780Y-73627343D01*
X232928967Y-73654280D01*
X232875093Y-73654280D01*
X232794280Y-73627343D01*
X232578781Y-73411844D01*
X233710152Y-73950592D02*
X233440778Y-73681218D01*
X233144467Y-73923654D01*
X233198341Y-73923654D01*
X233279154Y-73950592D01*
X233413841Y-74085279D01*
X233440778Y-74166091D01*
X233440778Y-74219966D01*
X233413841Y-74300778D01*
X233279154Y-74435465D01*
X233198341Y-74462402D01*
X233144467Y-74462402D01*
X233063654Y-74435465D01*
X232928967Y-74300778D01*
X232902030Y-74219966D01*
X232902030Y-74166091D01*
X232578781Y-70333096D02*
X232551844Y-70252284D01*
X232471032Y-70171471D01*
X232363282Y-70117597D01*
X232255532Y-70117597D01*
X232174720Y-70144534D01*
X232040033Y-70225346D01*
X231959221Y-70306158D01*
X231878409Y-70440845D01*
X231851471Y-70521658D01*
X231851471Y-70629407D01*
X231905346Y-70737157D01*
X231959221Y-70791032D01*
X232066971Y-70844906D01*
X232120845Y-70844906D01*
X232309407Y-70656345D01*
X232201658Y-70548595D01*
X232309407Y-71141218D02*
X232875093Y-70575532D01*
X233090592Y-70791032D01*
X233117529Y-70871844D01*
X233117529Y-70925719D01*
X233090592Y-71006531D01*
X233009780Y-71087343D01*
X232928967Y-71114280D01*
X232875093Y-71114280D01*
X232794280Y-71087343D01*
X232578781Y-70871844D01*
X233494653Y-71572216D02*
X233117529Y-71949340D01*
X233575465Y-71222030D02*
X233036717Y-71491404D01*
X233386903Y-71841590D01*
X232578781Y-67793096D02*
X232551844Y-67712284D01*
X232471032Y-67631471D01*
X232363282Y-67577597D01*
X232255532Y-67577597D01*
X232174720Y-67604534D01*
X232040033Y-67685346D01*
X231959221Y-67766158D01*
X231878409Y-67900845D01*
X231851471Y-67981658D01*
X231851471Y-68089407D01*
X231905346Y-68197157D01*
X231959221Y-68251032D01*
X232066971Y-68304906D01*
X232120845Y-68304906D01*
X232309407Y-68116345D01*
X232201658Y-68008595D01*
X232309407Y-68601218D02*
X232875093Y-68035532D01*
X233090592Y-68251032D01*
X233117529Y-68331844D01*
X233117529Y-68385719D01*
X233090592Y-68466531D01*
X233009780Y-68547343D01*
X232928967Y-68574280D01*
X232875093Y-68574280D01*
X232794280Y-68547343D01*
X232578781Y-68331844D01*
X233386903Y-68547343D02*
X233737089Y-68897529D01*
X233333028Y-68924467D01*
X233413841Y-69005279D01*
X233440778Y-69086091D01*
X233440778Y-69139966D01*
X233413841Y-69220778D01*
X233279154Y-69355465D01*
X233198341Y-69382402D01*
X233144467Y-69382402D01*
X233063654Y-69355465D01*
X232902030Y-69193841D01*
X232875093Y-69113028D01*
X232875093Y-69059154D01*
X232578781Y-57633096D02*
X232551844Y-57552284D01*
X232471032Y-57471471D01*
X232363282Y-57417597D01*
X232255532Y-57417597D01*
X232174720Y-57444534D01*
X232040033Y-57525346D01*
X231959221Y-57606158D01*
X231878409Y-57740845D01*
X231851471Y-57821658D01*
X231851471Y-57929407D01*
X231905346Y-58037157D01*
X231959221Y-58091032D01*
X232066971Y-58144906D01*
X232120845Y-58144906D01*
X232309407Y-57956345D01*
X232201658Y-57848595D01*
X232309407Y-58441218D02*
X232875093Y-57875532D01*
X233090592Y-58091032D01*
X233117529Y-58171844D01*
X233117529Y-58225719D01*
X233090592Y-58306531D01*
X233009780Y-58387343D01*
X232928967Y-58414280D01*
X232875093Y-58414280D01*
X232794280Y-58387343D01*
X232578781Y-58171844D01*
X233548528Y-58548967D02*
X233602402Y-58602842D01*
X233629340Y-58683654D01*
X233629340Y-58737529D01*
X233602402Y-58818341D01*
X233521590Y-58953028D01*
X233386903Y-59087715D01*
X233252216Y-59168528D01*
X233171404Y-59195465D01*
X233117529Y-59195465D01*
X233036717Y-59168528D01*
X232982842Y-59114653D01*
X232955905Y-59033841D01*
X232955905Y-58979966D01*
X232982842Y-58899154D01*
X233063654Y-58764467D01*
X233198341Y-58629780D01*
X233333028Y-58548967D01*
X233413841Y-58522030D01*
X233467715Y-58522030D01*
X233548528Y-58548967D01*
X232478781Y-65253096D02*
X232451844Y-65172284D01*
X232371032Y-65091471D01*
X232263282Y-65037597D01*
X232155532Y-65037597D01*
X232074720Y-65064534D01*
X231940033Y-65145346D01*
X231859221Y-65226158D01*
X231778409Y-65360845D01*
X231751471Y-65441658D01*
X231751471Y-65549407D01*
X231805346Y-65657157D01*
X231859221Y-65711032D01*
X231966971Y-65764906D01*
X232020845Y-65764906D01*
X232209407Y-65576345D01*
X232101658Y-65468595D01*
X232209407Y-66061218D02*
X232775093Y-65495532D01*
X232990592Y-65711032D01*
X233017529Y-65791844D01*
X233017529Y-65845719D01*
X232990592Y-65926531D01*
X232909780Y-66007343D01*
X232828967Y-66034280D01*
X232775093Y-66034280D01*
X232694280Y-66007343D01*
X232478781Y-65791844D01*
X233259966Y-66088155D02*
X233313841Y-66088155D01*
X233394653Y-66115093D01*
X233529340Y-66249780D01*
X233556277Y-66330592D01*
X233556277Y-66384467D01*
X233529340Y-66465279D01*
X233475465Y-66519154D01*
X233367715Y-66573028D01*
X232721218Y-66573028D01*
X233071404Y-66923215D01*
X232478781Y-60163096D02*
X232451844Y-60082284D01*
X232371032Y-60001471D01*
X232263282Y-59947597D01*
X232155532Y-59947597D01*
X232074720Y-59974534D01*
X231940033Y-60055346D01*
X231859221Y-60136158D01*
X231778409Y-60270845D01*
X231751471Y-60351658D01*
X231751471Y-60459407D01*
X231805346Y-60567157D01*
X231859221Y-60621032D01*
X231966971Y-60674906D01*
X232020845Y-60674906D01*
X232209407Y-60486345D01*
X232101658Y-60378595D01*
X232209407Y-60971218D02*
X232775093Y-60405532D01*
X232990592Y-60621032D01*
X233017529Y-60701844D01*
X233017529Y-60755719D01*
X232990592Y-60836531D01*
X232909780Y-60917343D01*
X232828967Y-60944280D01*
X232775093Y-60944280D01*
X232694280Y-60917343D01*
X232478781Y-60701844D01*
X233071404Y-61833215D02*
X232748155Y-61509966D01*
X232909780Y-61671590D02*
X233475465Y-61105905D01*
X233340778Y-61132842D01*
X233233028Y-61132842D01*
X233152216Y-61105905D01*
%TD*%
M02*
